%TF.GenerationSoftware,KiCad,Pcbnew,(6.0.5-0)*%
%TF.CreationDate,2022-08-23T09:34:40+01:00*%
%TF.ProjectId,PN532-Round,504e3533-322d-4526-9f75-6e642e6b6963,7*%
%TF.SameCoordinates,Original*%
%TF.FileFunction,Copper,L1,Top*%
%TF.FilePolarity,Positive*%
%FSLAX46Y46*%
G04 Gerber Fmt 4.6, Leading zero omitted, Abs format (unit mm)*
G04 Created by KiCad (PCBNEW (6.0.5-0)) date 2022-08-23 09:34:40*
%MOMM*%
%LPD*%
G01*
G04 APERTURE LIST*
G04 Aperture macros list*
%AMRoundRect*
0 Rectangle with rounded corners*
0 $1 Rounding radius*
0 $2 $3 $4 $5 $6 $7 $8 $9 X,Y pos of 4 corners*
0 Add a 4 corners polygon primitive as box body*
4,1,4,$2,$3,$4,$5,$6,$7,$8,$9,$2,$3,0*
0 Add four circle primitives for the rounded corners*
1,1,$1+$1,$2,$3*
1,1,$1+$1,$4,$5*
1,1,$1+$1,$6,$7*
1,1,$1+$1,$8,$9*
0 Add four rect primitives between the rounded corners*
20,1,$1+$1,$2,$3,$4,$5,0*
20,1,$1+$1,$4,$5,$6,$7,0*
20,1,$1+$1,$6,$7,$8,$9,0*
20,1,$1+$1,$8,$9,$2,$3,0*%
%AMOutline5P*
0 Free polygon, 5 corners , with rotation*
0 The origin of the aperture is its center*
0 number of corners: always 5*
0 $1 to $10 corner X, Y*
0 $11 Rotation angle, in degrees counterclockwise*
0 create outline with 5 corners*
4,1,5,$1,$2,$3,$4,$5,$6,$7,$8,$9,$10,$1,$2,$11*%
%AMOutline6P*
0 Free polygon, 6 corners , with rotation*
0 The origin of the aperture is its center*
0 number of corners: always 6*
0 $1 to $12 corner X, Y*
0 $13 Rotation angle, in degrees counterclockwise*
0 create outline with 6 corners*
4,1,6,$1,$2,$3,$4,$5,$6,$7,$8,$9,$10,$11,$12,$1,$2,$13*%
%AMOutline7P*
0 Free polygon, 7 corners , with rotation*
0 The origin of the aperture is its center*
0 number of corners: always 7*
0 $1 to $14 corner X, Y*
0 $15 Rotation angle, in degrees counterclockwise*
0 create outline with 7 corners*
4,1,7,$1,$2,$3,$4,$5,$6,$7,$8,$9,$10,$11,$12,$13,$14,$1,$2,$15*%
%AMOutline8P*
0 Free polygon, 8 corners , with rotation*
0 The origin of the aperture is its center*
0 number of corners: always 8*
0 $1 to $16 corner X, Y*
0 $17 Rotation angle, in degrees counterclockwise*
0 create outline with 8 corners*
4,1,8,$1,$2,$3,$4,$5,$6,$7,$8,$9,$10,$11,$12,$13,$14,$15,$16,$1,$2,$17*%
%AMFreePoly0*
4,1,31,0.495671,0.780970,0.576777,0.726777,0.630970,0.645671,0.650000,0.550000,0.630970,0.454329,0.576777,0.373223,0.495671,0.319030,0.400000,0.300000,0.250000,0.300000,0.250000,-0.300000,0.400000,-0.300000,0.495671,-0.319030,0.576777,-0.373223,0.630970,-0.454329,0.650000,-0.550000,0.630970,-0.645671,0.576777,-0.726777,0.495671,-0.780970,0.400000,-0.800000,0.000000,-0.800000,
-0.095671,-0.780970,-0.176777,-0.726777,-0.230970,-0.645671,-0.250000,-0.550000,-0.250000,0.550000,-0.230970,0.645671,-0.176777,0.726777,-0.095671,0.780970,0.000000,0.800000,0.400000,0.800000,0.495671,0.780970,0.495671,0.780970,$1*%
%AMFreePoly1*
4,1,22,0.550000,-0.750000,0.000000,-0.750000,0.000000,-0.745033,-0.079941,-0.743568,-0.215256,-0.701293,-0.333266,-0.622738,-0.424486,-0.514219,-0.481581,-0.384460,-0.499164,-0.250000,-0.500000,-0.250000,-0.500000,0.250000,-0.499164,0.250000,-0.499963,0.256109,-0.478152,0.396186,-0.417904,0.524511,-0.324060,0.630769,-0.204165,0.706417,-0.067858,0.745374,0.000000,0.744959,0.000000,0.750000,
0.550000,0.750000,0.550000,-0.750000,0.550000,-0.750000,$1*%
%AMFreePoly2*
4,1,20,0.000000,0.744959,0.073905,0.744508,0.209726,0.703889,0.328688,0.626782,0.421226,0.519385,0.479903,0.390333,0.500000,0.250000,0.500000,-0.250000,0.499851,-0.262216,0.476331,-0.402017,0.414519,-0.529596,0.319384,-0.634700,0.198574,-0.708877,0.061801,-0.746166,0.000000,-0.745033,0.000000,-0.750000,-0.550000,-0.750000,-0.550000,0.750000,0.000000,0.750000,0.000000,0.744959,
0.000000,0.744959,$1*%
%AMFreePoly3*
4,1,790,0.095671,0.230970,0.176777,0.176777,0.230970,0.095671,0.250000,0.000000,0.230970,-0.095671,0.176777,-0.176777,0.095671,-0.230970,0.000000,-0.250000,-0.055934,-0.238874,-0.125245,-0.256476,-0.145720,-0.253507,-1.010537,-0.316179,-1.892325,-0.415657,-2.769429,-0.550315,-3.640447,-0.719938,-4.503986,-0.924254,-5.358665,-1.162936,-6.203116,-1.435603,-7.035989,-1.741819,-7.855951,-2.081093,
-8.661690,-2.452883,-9.451919,-2.856595,-10.207685,-3.281634,-10.223119,-3.295409,-10.296825,-3.321147,-10.353847,-3.372357,-10.373365,-3.379240,-11.110645,-3.836766,-11.845844,-4.334802,-12.560534,-4.861845,-13.253573,-5.417053,-13.923849,-5.999536,-14.570291,-6.608363,-15.191865,-7.242558,-15.787574,-7.901108,-16.356467,-8.582957,-16.897632,-9.287016,-17.410203,-10.012156,-17.893360,-10.757217,-18.335975,-11.503549,
-18.342463,-11.523197,-18.383304,-11.570555,-18.402506,-11.629378,-18.415938,-11.645061,-18.824834,-12.408214,-19.211724,-13.205335,-19.566421,-14.017293,-19.888359,-14.842788,-20.177020,-15.680499,-20.431944,-16.529085,-20.652723,-17.387189,-20.839003,-18.253437,-20.990486,-19.126442,-21.106929,-20.004807,-21.188147,-20.887128,-21.234009,-21.771990,-21.244203,-22.637722,-21.240008,-22.657943,-21.244770,-22.682956,-21.239703,-22.707498,
-21.243653,-22.728138,-21.219814,-23.595889,-21.159538,-24.482536,-21.063492,-25.366025,-20.931830,-26.244911,-20.764769,-27.117761,-20.562581,-27.983149,-20.325597,-28.839662,-20.054203,-29.685902,-19.748842,-30.520486,-19.410013,-31.342053,-19.038270,-32.149260,-18.634218,-32.940789,-18.208627,-33.697379,-18.194628,-33.713055,-18.187818,-33.732538,-18.174249,-33.747748,-18.167477,-33.767152,-17.713580,-34.503873,-17.219226,-35.238511,
-16.695788,-35.952718,-16.144109,-36.645343,-15.565078,-37.315270,-14.959629,-37.961420,-14.328736,-38.582751,-13.673416,-39.178264,-12.994725,-39.746997,-12.293757,-40.288035,-11.571640,-40.800506,-10.829539,-41.283584,-10.085979,-41.726176,-10.066467,-41.732653,-10.012190,-41.779607,-9.943061,-41.801879,-9.927690,-41.814941,-9.172675,-42.216002,-8.384594,-42.595543,-7.582150,-42.943690,-6.766592,-43.259901,-5.939191,-43.543682,
-5.101237,-43.794592,-4.254034,-44.012241,-3.398903,-44.196288,-2.537174,-44.346447,-1.670192,-44.462485,-0.799306,-44.544221,0.074128,-44.591527,0.928960,-44.604039,0.948725,-44.600003,0.958666,-44.601928,0.968725,-44.599834,0.988812,-44.603645,1.848773,-44.578760,2.727052,-44.517999,3.602185,-44.422040,4.472762,-44.291038,5.337380,-44.125203,6.194646,-43.924804,7.043180,-43.690162,7.881613,-43.421656,
8.708595,-43.119719,9.522794,-42.784837,10.322897,-42.417549,11.107616,-42.018447,11.858188,-41.597978,11.873463,-41.584388,11.883588,-41.580870,11.891553,-41.573782,11.910967,-41.567034,12.641026,-41.118401,13.369166,-40.629495,14.077030,-40.111667,14.763469,-39.565756,15.427370,-38.992648,16.067656,-38.393272,16.683287,-37.768600,17.273267,-37.119646,17.836637,-36.447462,18.372485,-35.753138,18.879940,-35.037801,
19.358180,-34.302612,19.796122,-33.566095,19.802588,-33.546581,19.824213,-33.521557,19.834509,-33.490195,19.847727,-33.474814,20.250646,-32.725850,20.632003,-31.943486,20.981762,-31.146494,21.299363,-30.336151,21.584299,-29.513754,21.836112,-28.680617,22.054400,-27.838075,22.238814,-26.987477,22.389059,-26.130183,22.504893,-25.267565,22.586132,-24.401005,22.632646,-23.531889,22.644092,-22.681503,22.640005,-22.661636,
22.640397,-22.659594,22.643802,-22.641749,22.620045,-21.789850,22.560769,-20.919766,22.466623,-20.052763,22.337758,-19.190236,22.174382,-18.333575,21.976758,-17.484162,21.745205,-16.643363,21.480096,-15.812535,21.181858,-14.993015,20.850972,-14.186124,20.487969,-13.393163,20.093437,-12.615408,19.677700,-11.871455,19.664255,-11.856310,19.644999,-11.800694,19.605725,-11.756920,19.599071,-11.738022,19.156373,-11.023871,
18.674449,-10.311721,18.164427,-9.619416,17.627122,-8.948065,17.063395,-8.298743,16.474148,-7.672487,15.860324,-7.070302,15.222904,-6.493149,14.562910,-5.941954,13.881398,-5.417598,13.179458,-4.920921,12.458214,-4.452717,11.735723,-4.023771,11.716698,-4.017478,11.700164,-4.003205,11.679267,-3.996371,11.664150,-3.983410,10.921686,-3.585011,10.146364,-3.207982,9.356628,-2.862161,8.553735,-2.548096,
7.738959,-2.266286,6.913598,-2.017181,6.078962,-1.801175,5.236379,-1.618613,4.387188,-1.469784,3.532739,-1.354925,2.674391,-1.274218,1.813508,-1.227793,0.970990,-1.215995,0.951484,-1.219996,0.950684,-1.219842,0.949879,-1.220008,0.930046,-1.216217,0.088539,-1.239459,-0.771112,-1.297909,-1.627713,-1.390927,-2.479873,-1.518361,-3.326212,-1.680005,-4.165355,-1.875596,-4.995941,-2.104817,
-5.816625,-2.367297,-6.626074,-2.662610,-7.422975,-2.990276,-8.206036,-3.349765,-8.973987,-3.740493,-9.708306,-4.152141,-9.723385,-4.165566,-9.734618,-4.169473,-9.743428,-4.177303,-9.762584,-4.183948,-10.476158,-4.621870,-11.187976,-5.099343,-11.879922,-5.605184,-12.550867,-6.138567,-13.199716,-6.698620,-13.825409,-7.284430,-14.426925,-7.895040,-15.003280,-8.529452,-15.553535,-9.186632,-16.076791,-9.865505,
-16.572192,-10.564963,-17.038931,-11.283865,-17.466098,-12.003930,-17.472454,-12.023182,-17.487787,-12.040964,-17.495080,-12.063114,-17.507984,-12.078103,-17.902859,-12.810711,-18.276529,-13.576011,-18.619184,-14.355690,-18.930274,-15.148493,-19.209296,-15.953141,-19.455802,-16.768339,-19.669394,-17.592773,-19.849728,-18.425115,-19.996513,-19.264023,-20.109512,-20.108146,-20.188545,-20.956124,-20.233483,-21.806591,-20.244009,-22.638779,
-20.240007,-22.658144,-20.252459,-22.723268,-20.238667,-22.788060,-20.242218,-22.807253,-20.214862,-23.629596,-20.153460,-24.469299,-20.058745,-25.305900,-19.930867,-26.138078,-19.770029,-26.964518,-19.576483,-27.783915,-19.350537,-28.594976,-19.092545,-29.396420,-18.802917,-30.186981,-18.482109,-30.965412,-18.130627,-31.730482,-17.749027,-32.480984,-17.347261,-33.199024,-17.334298,-33.213616,-17.321924,-33.249316,-17.296252,-33.277835,
-17.289736,-33.296242,-16.854878,-33.995387,-16.381832,-34.692553,-15.881460,-35.370374,-15.354555,-36.027781,-14.801947,-36.663736,-14.224510,-37.277233,-13.623154,-37.867305,-12.998830,-38.433020,-12.352524,-38.973484,-11.685256,-39.487844,-10.998079,-39.975288,-10.292079,-40.435045,-9.584823,-40.856584,-9.566297,-40.862750,-9.515859,-40.906452,-9.452476,-40.927124,-9.437689,-40.939781,-8.717947,-41.325169,-7.966186,-41.689793,
-7.200442,-42.024057,-6.421942,-42.327425,-5.631930,-42.599412,-4.831672,-42.839583,-4.022448,-43.047554,-3.205553,-43.222990,-2.382295,-43.365613,-1.553991,-43.475193,-0.721967,-43.551555,0.112445,-43.594577,0.928809,-43.603970,0.947875,-43.600009,0.995492,-43.609060,1.042516,-43.599151,1.061625,-43.602727,1.876505,-43.577175,2.708732,-43.517691,3.537915,-43.424966,4.362725,-43.299151,5.181843,-43.140446,
5.993958,-42.949105,6.797769,-42.725434,7.591991,-42.469792,8.375352,-42.182588,9.146599,-41.864280,9.904498,-41.515380,10.647834,-41.136445,11.358786,-40.737417,11.373304,-40.724482,11.438926,-40.701629,11.489853,-40.655944,11.508000,-40.649555,12.196349,-40.222843,12.882648,-39.758271,13.549750,-39.266531,14.196580,-38.748415,14.822096,-38.204758,15.425290,-37.636436,16.005190,-37.044364,16.560863,-36.429497,
17.091412,-35.792825,17.595982,-35.135374,18.073762,-34.458203,18.523981,-33.762404,18.936302,-33.065345,18.942314,-33.047065,18.951951,-33.035863,18.956527,-33.022003,18.969270,-33.007225,19.355871,-32.291269,19.721739,-31.543130,20.057185,-30.780866,20.361667,-30.005713,20.634689,-29.218929,20.875809,-28.421789,21.084635,-27.615587,21.260830,-26.801630,21.404108,-25.981238,21.514235,-25.155743,21.591034,-24.326482,
21.634379,-23.494802,21.643975,-22.681192,21.640009,-22.662086,21.650299,-22.607999,21.639105,-22.554813,21.642634,-22.535986,21.617555,-21.731353,21.558866,-20.909632,21.467248,-20.090929,21.342847,-19.276562,21.185864,-18.467843,20.996553,-17.666076,20.775218,-16.872552,20.522216,-16.088550,20.237954,-15.315333,19.922890,-14.554147,19.577533,-13.806218,19.202438,-13.072752,18.807419,-12.371282,18.794671,-12.357017,
18.765744,-12.274347,18.707818,-12.210242,18.701479,-12.192442,18.279562,-11.516960,17.820705,-10.843455,17.335452,-10.188712,16.824571,-9.553765,16.288866,-8.939616,15.729185,-8.347235,15.146410,-7.777558,14.541463,-7.231483,13.915298,-6.709874,13.268904,-6.213554,12.603303,-5.743307,11.919544,-5.299874,11.234648,-4.893417,11.216708,-4.887484,11.208298,-4.880225,11.197710,-4.876743,11.183300,-4.864347,
10.476630,-4.483617,9.738618,-4.123117,8.986849,-3.792264,8.222513,-3.491580,7.446820,-3.221541,6.660997,-2.982576,5.866291,-2.775062,5.063957,-2.599329,4.255268,-2.455654,3.459978,-2.346793,3.441030,-2.348316,3.348209,-2.318328,3.273929,-2.255101,3.229500,-2.168262,3.221684,-2.071030,3.251672,-1.978209,3.314899,-1.903929,3.401738,-1.859500,3.498970,-1.851684,3.498975,-1.851686,
4.332285,-1.965750,5.160403,-2.112878,5.982013,-2.292833,6.795813,-2.505332,7.600514,-2.750039,8.394844,-3.026565,9.177543,-3.334473,9.947374,-3.673275,10.703116,-4.042436,11.443574,-4.441369,11.452310,-4.448884,11.463292,-4.452516,11.463298,-4.452521,12.181075,-4.878491,12.881369,-5.332647,13.563066,-5.814266,14.225091,-6.322588,14.866398,-6.856811,15.485974,-7.416091,16.082841,-7.999544,
16.656057,-8.606250,17.204716,-9.235250,17.727953,-9.885552,18.224940,-10.556128,18.694893,-11.245920,19.137070,-11.953838,19.166896,-12.037596,19.225329,-12.102983,19.639324,-12.838150,20.023482,-13.589338,20.377184,-14.355338,20.699860,-15.134916,20.990990,-15.926816,21.250106,-16.729761,21.476789,-17.542458,21.670674,-18.363597,21.831450,-19.191856,21.958856,-20.025900,22.052688,-20.864385,22.112795,-21.705960,
22.139079,-22.549269,22.139075,-22.549269,22.128809,-22.604047,22.139991,-22.657914,22.129933,-23.510632,22.085549,-24.362253,22.006909,-25.211397,21.894141,-26.056685,21.747428,-26.896747,21.567008,-27.730220,21.353175,-28.555753,21.106273,-29.372005,20.826705,-30.177654,20.514923,-30.971393,20.171434,-31.751934,19.796794,-32.518011,19.391611,-33.268381,19.382155,-33.279347,19.377686,-33.292935,19.377683,-33.292939,
18.945620,-34.023373,18.484588,-34.735883,17.995334,-35.429317,17.478645,-36.102558,16.935354,-36.754521,16.366336,-37.384155,15.772508,-37.990446,15.154827,-38.572418,14.514288,-39.129132,13.851923,-39.659692,13.168800,-40.163242,12.466018,-40.638972,11.744711,-41.086114,11.678385,-41.109465,11.626696,-41.155518,10.881813,-41.573590,10.120804,-41.961534,9.344888,-42.318730,8.555305,-42.644604,7.753320,-42.938637,
6.940217,-43.200356,6.117295,-43.429344,5.285874,-43.625234,4.447282,-43.787712,3.602863,-43.916519,2.753968,-44.011448,1.901955,-44.072347,1.048188,-44.099119,0.999858,-44.090074,0.952125,-44.099991,0.096825,-44.090150,-0.757397,-44.046106,-1.609174,-43.967931,-2.457142,-43.855750,-3.299944,-43.709742,-4.136233,-43.530140,-4.964668,-43.317232,-5.783925,-43.071360,-6.592691,-42.792915,-7.389674,-42.482345,
-8.173596,-42.140146,-8.943204,-41.766866,-9.697266,-41.363102,-9.749068,-41.318760,-9.813703,-41.297250,-9.813707,-41.297247,-10.554335,-40.855816,-11.276845,-40.385307,-11.980092,-39.886464,-12.662964,-39.360076,-13.324385,-38.806973,-13.963308,-38.228029,-14.578727,-37.624158,-15.169668,-36.996314,-15.735198,-36.345488,-16.274425,-35.672707,-16.786498,-34.979035,-17.270606,-34.265565,-17.725988,-33.533427,-17.739133,-33.496291,
-17.765702,-33.466384,-17.765704,-33.466379,-18.186437,-32.714441,-18.576967,-31.946376,-18.936673,-31.163403,-19.264989,-30.366756,-19.561395,-29.557695,-19.825423,-28.737497,-20.056657,-27.907456,-20.254732,-27.068884,-20.419334,-26.223105,-20.550204,-25.371454,-20.647135,-24.515276,-20.709975,-23.655923,-20.738623,-22.794752,-20.726297,-22.728136,-20.739993,-22.661856,-20.728970,-21.790373,-20.682982,-20.920035,-20.602102,-20.052243,
-20.486462,-19.188397,-20.336247,-18.329887,-20.151700,-17.478097,-19.933118,-16.634400,-19.680852,-15.800154,-19.395310,-14.976704,-19.076952,-14.165377,-18.726290,-13.367480,-18.343889,-12.584299,-17.930366,-11.817094,-17.914919,-11.799150,-17.907546,-11.776818,-17.460013,-11.022422,-16.982368,-10.286722,-16.475390,-9.570919,-15.939908,-8.876183,-15.376796,-8.203648,-14.786972,-7.554412,-14.171402,-6.929534,-13.531088,-6.330036,
-12.867078,-5.756896,-12.180455,-5.211050,-11.472340,-4.693389,-10.743890,-4.204759,-9.996294,-3.745957,-9.985258,-3.742129,-9.976612,-3.734433,-9.207606,-3.303339,-8.421863,-2.903559,-7.620660,-2.535742,-6.805296,-2.200484,-5.977094,-1.898330,-5.137397,-1.629769,-4.287568,-1.395237,-3.428983,-1.195114,-2.563037,-1.029725,-1.691134,-0.899339,-0.814688,-0.804166,0.064880,-0.744362,0.946143,-0.720022,
0.947326,-0.720248,0.948516,-0.720004,0.948522,-0.720005,1.830329,-0.732352,2.710949,-0.779842,3.588976,-0.862399,4.463013,-0.979891,5.331673,-1.132132,6.193573,-1.318880,7.047343,-1.539838,7.891627,-1.794654,8.725082,-2.082924,9.546383,-2.404190,10.354224,-2.757940,11.147322,-3.143612,11.924415,-3.560593,11.941632,-3.575355,11.963302,-3.582522,11.963306,-3.582525,12.719747,-4.031628,
13.457625,-4.510630,14.175753,-5.018761,14.872982,-5.555210,15.548197,-6.119117,16.200316,-6.709579,16.828296,-7.325653,17.431133,-7.966351,18.007861,-8.630648,18.557556,-9.317481,19.079341,-10.025752,19.572378,-10.754325,20.035881,-11.502036,20.055853,-11.558754,20.095745,-11.603690,20.095747,-11.603695,20.530877,-12.382352,20.934410,-13.177850,21.305694,-13.988902,21.644129,-14.814200,21.949171,-15.652416,
22.220328,-16.502198,22.457163,-17.362178,22.659295,-18.230969,22.826398,-19.107173,22.958203,-19.989377,23.054497,-20.876159,23.115126,-21.766092,23.139990,-22.657741,23.139931,-22.658052,23.139995,-22.658364,23.139994,-22.658370,23.128014,-23.548472,23.080440,-24.437388,22.997350,-25.323690,22.878877,-26.205960,22.725209,-27.082785,22.536594,-27.952762,22.313333,-28.814499,22.055783,-29.666616,21.764356,-30.507749,
21.439519,-31.336554,21.081792,-32.151702,20.691747,-32.951890,20.270009,-33.735837,20.248009,-33.761436,20.237412,-33.793419,20.237409,-33.793423,19.778962,-34.564424,19.289838,-35.316345,18.770835,-36.047961,18.222793,-36.758085,17.646602,-37.445566,17.043196,-38.109289,16.413554,-38.748176,15.758698,-39.361193,15.079689,-39.947343,14.377628,-40.505678,13.653655,-41.035290,12.908944,-41.535322,12.144703,-42.004962,
12.134536,-42.008496,12.126537,-42.015612,11.341111,-42.455607,10.538660,-42.863727,9.720477,-43.239314,8.887880,-43.581764,8.042211,-43.890524,7.184832,-44.165097,6.317124,-44.405041,5.440486,-44.609969,4.556331,-44.779550,3.666082,-44.913513,2.771174,-45.011640,1.873049,-45.073774,0.973153,-45.099814,0.962276,-45.097750,0.951275,-45.099997,0.951269,-45.099996,0.057094,-45.086908,-0.835875,-45.038544,
-1.726239,-44.954980,-2.612612,-44.836347,-3.493614,-44.682829,-4.367871,-44.494666,-5.234022,-44.272150,-6.090718,-44.015627,-6.936624,-43.725499,-7.770422,-43.402216,-8.590814,-43.046283,-9.396521,-42.658253,-10.186289,-42.238731,-10.242575,-42.190900,-10.313533,-42.167347,-10.313537,-42.167344,-11.091516,-41.704264,-11.850289,-41.210333,-12.588628,-40.686349,-13.305344,-40.133156,-13.999282,-39.551646,-14.669324,-38.942756,
-15.314390,-38.307466,-15.933442,-37.646800,-16.525480,-36.961822,-17.089553,-36.253637,-17.624750,-35.523386,-18.130210,-34.772244,-18.605119,-34.001422,-18.611877,-33.982056,-18.625372,-33.966944,-19.070887,-33.174935,-19.484041,-32.365572,-19.864160,-31.540180,-20.210622,-30.700104,-20.522862,-29.846717,-20.800371,-28.981412,-21.042695,-28.105602,-21.249438,-27.220718,-21.420262,-26.328203,-21.554890,-25.429516,-21.653101,-24.526123,
-21.714734,-23.619501,-21.739689,-22.711128,-21.734949,-22.686361,-21.739992,-22.662057,-21.739991,-22.662051,-21.729325,-21.756244,-21.682437,-20.851583,-21.599402,-19.949521,-21.480353,-19.051501,-21.325480,-18.158963,-21.135032,-17.273333,-20.909314,-16.396029,-20.648686,-15.528455,-20.353565,-14.672000,-20.024425,-13.828035,-19.661791,-12.997910,-19.266245,-12.182953,-18.838418,-11.384470,-18.797198,-11.336341,-18.777537,-11.276803,
-18.314454,-10.495961,-17.820511,-9.734265,-17.296496,-8.992936,-16.743250,-8.273160,-16.161656,-7.576088,-15.552648,-6.902836,-14.917197,-6.254482,-14.256323,-5.632063,-13.571082,-5.036575,-12.862572,-4.468973,-12.131926,-3.930163,-11.380313,-3.421008,-10.608937,-2.942323,-10.534605,-2.916109,-10.476881,-2.864591,-9.686152,-2.419888,-8.878273,-2.007160,-8.054537,-1.627065,-7.216262,-1.280213,-6.364787,-0.967159,
-5.501475,-0.688401,-4.627707,-0.444388,-3.744881,-0.235509,-2.854409,-0.062098,-1.957714,0.075568,-1.056232,0.177268,-0.151405,0.242840,-0.084657,0.233161,0.000000,0.250000,0.095671,0.230970,0.095671,0.230970,$1*%
G04 Aperture macros list end*
%ADD10C,0.100000*%
%TA.AperFunction,NonConductor*%
%ADD11C,0.100000*%
%TD*%
%TA.AperFunction,EtchedComponent*%
%ADD12C,0.250000*%
%TD*%
%TA.AperFunction,EtchedComponent*%
%ADD13C,0.080000*%
%TD*%
%TA.AperFunction,SMDPad,CuDef*%
%ADD14R,1.000000X2.510000*%
%TD*%
%TA.AperFunction,SMDPad,CuDef*%
%ADD15Outline5P,-0.650000X0.525000X0.440000X0.525000X0.650000X0.315000X0.650000X-0.525000X-0.650000X-0.525000X90.000000*%
%TD*%
%TA.AperFunction,SMDPad,CuDef*%
%ADD16Outline5P,-0.650000X0.315000X-0.440000X0.525000X0.650000X0.525000X0.650000X-0.525000X-0.650000X-0.525000X90.000000*%
%TD*%
%TA.AperFunction,SMDPad,CuDef*%
%ADD17Outline5P,-0.650000X0.525000X0.650000X0.525000X0.650000X-0.525000X-0.440000X-0.525000X-0.650000X-0.315000X90.000000*%
%TD*%
%TA.AperFunction,SMDPad,CuDef*%
%ADD18Outline5P,-0.650000X0.525000X0.650000X0.525000X0.650000X-0.315000X0.440000X-0.525000X-0.650000X-0.525000X90.000000*%
%TD*%
%TA.AperFunction,ComponentPad*%
%ADD19C,1.820000*%
%TD*%
%TA.AperFunction,SMDPad,CuDef*%
%ADD20FreePoly0,90.000000*%
%TD*%
%TA.AperFunction,SMDPad,CuDef*%
%ADD21FreePoly0,270.000000*%
%TD*%
%TA.AperFunction,SMDPad,CuDef*%
%ADD22RoundRect,0.175000X0.175000X0.325000X-0.175000X0.325000X-0.175000X-0.325000X0.175000X-0.325000X0*%
%TD*%
%TA.AperFunction,SMDPad,CuDef*%
%ADD23RoundRect,0.175000X0.175000X0.425000X-0.175000X0.425000X-0.175000X-0.425000X0.175000X-0.425000X0*%
%TD*%
%TA.AperFunction,SMDPad,CuDef*%
%ADD24RoundRect,0.200000X-0.200000X-0.275000X0.200000X-0.275000X0.200000X0.275000X-0.200000X0.275000X0*%
%TD*%
%TA.AperFunction,SMDPad,CuDef*%
%ADD25RoundRect,0.200000X0.275000X-0.200000X0.275000X0.200000X-0.275000X0.200000X-0.275000X-0.200000X0*%
%TD*%
%TA.AperFunction,SMDPad,CuDef*%
%ADD26RoundRect,0.200000X-0.275000X0.200000X-0.275000X-0.200000X0.275000X-0.200000X0.275000X0.200000X0*%
%TD*%
%TA.AperFunction,SMDPad,CuDef*%
%ADD27RoundRect,0.062500X-0.062500X0.287500X-0.062500X-0.287500X0.062500X-0.287500X0.062500X0.287500X0*%
%TD*%
%TA.AperFunction,SMDPad,CuDef*%
%ADD28RoundRect,0.062500X-0.287500X0.062500X-0.287500X-0.062500X0.287500X-0.062500X0.287500X0.062500X0*%
%TD*%
%TA.AperFunction,SMDPad,CuDef*%
%ADD29Outline5P,-2.200000X1.804000X-1.804000X2.200000X2.200000X2.200000X2.200000X-2.200000X-2.200000X-2.200000X270.000000*%
%TD*%
%TA.AperFunction,SMDPad,CuDef*%
%ADD30RoundRect,0.200000X0.200000X0.275000X-0.200000X0.275000X-0.200000X-0.275000X0.200000X-0.275000X0*%
%TD*%
%TA.AperFunction,SMDPad,CuDef*%
%ADD31FreePoly1,0.000000*%
%TD*%
%TA.AperFunction,SMDPad,CuDef*%
%ADD32R,1.000000X1.500000*%
%TD*%
%TA.AperFunction,SMDPad,CuDef*%
%ADD33FreePoly2,0.000000*%
%TD*%
%TA.AperFunction,SMDPad,CuDef*%
%ADD34RoundRect,0.166600X0.636396X-0.895763X0.895763X-0.636396X-0.636396X0.895763X-0.895763X0.636396X0*%
%TD*%
%TA.AperFunction,SMDPad,CuDef*%
%ADD35RoundRect,0.242760X0.321734X-0.699668X0.699668X-0.321734X-0.321734X0.699668X-0.699668X0.321734X0*%
%TD*%
%TA.AperFunction,SMDPad,CuDef*%
%ADD36RoundRect,0.166600X-0.895763X-0.636396X-0.636396X-0.895763X0.895763X0.636396X0.636396X0.895763X0*%
%TD*%
%TA.AperFunction,SMDPad,CuDef*%
%ADD37RoundRect,0.242760X-0.699668X-0.321734X-0.321734X-0.699668X0.699668X0.321734X0.321734X0.699668X0*%
%TD*%
%TA.AperFunction,SMDPad,CuDef*%
%ADD38R,0.650000X0.400000*%
%TD*%
%TA.AperFunction,SMDPad,CuDef*%
%ADD39R,0.200000X0.400000*%
%TD*%
%TA.AperFunction,SMDPad,CuDef*%
%ADD40R,0.200000X0.200000*%
%TD*%
%TA.AperFunction,SMDPad,CuDef*%
%ADD41R,1.000000X0.200000*%
%TD*%
%TA.AperFunction,SMDPad,CuDef*%
%ADD42R,0.400000X0.200000*%
%TD*%
%TA.AperFunction,SMDPad,CuDef*%
%ADD43R,0.600000X0.200000*%
%TD*%
%TA.AperFunction,SMDPad,CuDef*%
%ADD44R,0.600000X0.600000*%
%TD*%
%TA.AperFunction,SMDPad,CuDef*%
%ADD45R,0.200000X0.800000*%
%TD*%
%TA.AperFunction,SMDPad,CuDef*%
%ADD46R,1.400000X0.200000*%
%TD*%
%TA.AperFunction,SMDPad,CuDef*%
%ADD47R,0.200000X1.200000*%
%TD*%
%TA.AperFunction,SMDPad,CuDef*%
%ADD48R,0.200000X0.600000*%
%TD*%
%TA.AperFunction,SMDPad,CuDef*%
%ADD49R,0.400000X0.600000*%
%TD*%
%TA.AperFunction,SMDPad,CuDef*%
%ADD50R,0.800000X0.200000*%
%TD*%
%TA.AperFunction,SMDPad,CuDef*%
%ADD51R,1.250000X0.500000*%
%TD*%
%TA.AperFunction,ComponentPad*%
%ADD52C,0.500000*%
%TD*%
%TA.AperFunction,SMDPad,CuDef*%
%ADD53FreePoly3,0.000000*%
%TD*%
%TA.AperFunction,SMDPad,CuDef*%
%ADD54R,1.900000X0.500000*%
%TD*%
%TA.AperFunction,SMDPad,CuDef*%
%ADD55R,1.000000X0.500000*%
%TD*%
%TA.AperFunction,SMDPad,CuDef*%
%ADD56R,1.400000X0.500000*%
%TD*%
%TA.AperFunction,ViaPad*%
%ADD57C,0.800000*%
%TD*%
%TA.AperFunction,Conductor*%
%ADD58C,0.500000*%
%TD*%
%TA.AperFunction,Conductor*%
%ADD59C,0.250000*%
%TD*%
G04 APERTURE END LIST*
D10*
%TO.C,U2*%
D11*
X97571428Y-115873809D02*
X97595238Y-115850000D01*
X97642857Y-115826190D01*
X97761904Y-115826190D01*
X97809523Y-115850000D01*
X97833333Y-115873809D01*
X97857142Y-115921428D01*
X97857142Y-115969047D01*
X97833333Y-116040476D01*
X97547619Y-116326190D01*
X97857142Y-116326190D01*
X98166666Y-115826190D02*
X98214285Y-115826190D01*
X98261904Y-115850000D01*
X98285714Y-115873809D01*
X98309523Y-115921428D01*
X98333333Y-116016666D01*
X98333333Y-116135714D01*
X98309523Y-116230952D01*
X98285714Y-116278571D01*
X98261904Y-116302380D01*
X98214285Y-116326190D01*
X98166666Y-116326190D01*
X98119047Y-116302380D01*
X98095238Y-116278571D01*
X98071428Y-116230952D01*
X98047619Y-116135714D01*
X98047619Y-116016666D01*
X98071428Y-115921428D01*
X98095238Y-115873809D01*
X98119047Y-115850000D01*
X98166666Y-115826190D01*
X98523809Y-115873809D02*
X98547619Y-115850000D01*
X98595238Y-115826190D01*
X98714285Y-115826190D01*
X98761904Y-115850000D01*
X98785714Y-115873809D01*
X98809523Y-115921428D01*
X98809523Y-115969047D01*
X98785714Y-116040476D01*
X98500000Y-116326190D01*
X98809523Y-116326190D01*
X99000000Y-115873809D02*
X99023809Y-115850000D01*
X99071428Y-115826190D01*
X99190476Y-115826190D01*
X99238095Y-115850000D01*
X99261904Y-115873809D01*
X99285714Y-115921428D01*
X99285714Y-115969047D01*
X99261904Y-116040476D01*
X98976190Y-116326190D01*
X99285714Y-116326190D01*
X99500000Y-116135714D02*
X99880952Y-116135714D01*
X100214285Y-115826190D02*
X100261904Y-115826190D01*
X100309523Y-115850000D01*
X100333333Y-115873809D01*
X100357142Y-115921428D01*
X100380952Y-116016666D01*
X100380952Y-116135714D01*
X100357142Y-116230952D01*
X100333333Y-116278571D01*
X100309523Y-116302380D01*
X100261904Y-116326190D01*
X100214285Y-116326190D01*
X100166666Y-116302380D01*
X100142857Y-116278571D01*
X100119047Y-116230952D01*
X100095238Y-116135714D01*
X100095238Y-116016666D01*
X100119047Y-115921428D01*
X100142857Y-115873809D01*
X100166666Y-115850000D01*
X100214285Y-115826190D01*
X100666666Y-116040476D02*
X100619047Y-116016666D01*
X100595238Y-115992857D01*
X100571428Y-115945238D01*
X100571428Y-115921428D01*
X100595238Y-115873809D01*
X100619047Y-115850000D01*
X100666666Y-115826190D01*
X100761904Y-115826190D01*
X100809523Y-115850000D01*
X100833333Y-115873809D01*
X100857142Y-115921428D01*
X100857142Y-115945238D01*
X100833333Y-115992857D01*
X100809523Y-116016666D01*
X100761904Y-116040476D01*
X100666666Y-116040476D01*
X100619047Y-116064285D01*
X100595238Y-116088095D01*
X100571428Y-116135714D01*
X100571428Y-116230952D01*
X100595238Y-116278571D01*
X100619047Y-116302380D01*
X100666666Y-116326190D01*
X100761904Y-116326190D01*
X100809523Y-116302380D01*
X100833333Y-116278571D01*
X100857142Y-116230952D01*
X100857142Y-116135714D01*
X100833333Y-116088095D01*
X100809523Y-116064285D01*
X100761904Y-116040476D01*
X101071428Y-116135714D02*
X101452380Y-116135714D01*
X101666666Y-115873809D02*
X101690476Y-115850000D01*
X101738095Y-115826190D01*
X101857142Y-115826190D01*
X101904761Y-115850000D01*
X101928571Y-115873809D01*
X101952380Y-115921428D01*
X101952380Y-115969047D01*
X101928571Y-116040476D01*
X101642857Y-116326190D01*
X101952380Y-116326190D01*
X102119047Y-115826190D02*
X102428571Y-115826190D01*
X102261904Y-116016666D01*
X102333333Y-116016666D01*
X102380952Y-116040476D01*
X102404761Y-116064285D01*
X102428571Y-116111904D01*
X102428571Y-116230952D01*
X102404761Y-116278571D01*
X102380952Y-116302380D01*
X102333333Y-116326190D01*
X102190476Y-116326190D01*
X102142857Y-116302380D01*
X102119047Y-116278571D01*
%TO.C,JP1*%
G36*
X94250000Y-102160000D02*
G01*
X93750000Y-102160000D01*
X93750000Y-101760000D01*
X94250000Y-101760000D01*
X94250000Y-102160000D01*
G37*
D12*
%TO.C,AJK1*%
X89100000Y-92125000D02*
X87600000Y-92125000D01*
D13*
X88250000Y-94075000D02*
X88250000Y-94375000D01*
X88250000Y-94235000D02*
X88350000Y-94235000D01*
X88350000Y-94235000D02*
X88450000Y-94375000D01*
D12*
X89100000Y-90025000D02*
X89100000Y-94225000D01*
X89100000Y-92125000D02*
X90900000Y-94225000D01*
X89100000Y-90025000D02*
X86100000Y-94225000D01*
D13*
X88250000Y-94075000D02*
X88350000Y-94075000D01*
D12*
X90900000Y-90125000D02*
X89100000Y-92125000D01*
D13*
X88350000Y-94235000D02*
G75*
G03*
X88350000Y-94075000I0J80000D01*
G01*
D12*
X87600000Y-94225000D02*
G75*
G03*
X89100000Y-94225000I750000J0D01*
G01*
D13*
X88630000Y-94235000D02*
G75*
G03*
X88630000Y-94235000I-300000J0D01*
G01*
%TD*%
D14*
%TO.P,J3,1,Pin_1*%
%TO.N,GND*%
X96190000Y-108155000D03*
%TO.P,J3,2,Pin_2*%
%TO.N,+5V*%
X98730000Y-104845000D03*
%TO.P,J3,3,Pin_3*%
%TO.N,Net-(J3-Pad3)*%
X101270000Y-108155000D03*
%TO.P,J3,4,Pin_4*%
%TO.N,Net-(J3-Pad4)*%
X103810000Y-104845000D03*
%TO.P,J3,5,Pin_5*%
%TO.N,Net-(J3-Pad5)*%
X106350000Y-108155000D03*
%TD*%
D15*
%TO.P,Y1,1,1*%
%TO.N,Net-(C16-Pad1)*%
X93000000Y-95410000D03*
D16*
%TO.P,Y1,2,2*%
%TO.N,GND*%
X93000000Y-97710000D03*
D17*
%TO.P,Y1,3,3*%
%TO.N,Net-(C17-Pad1)*%
X94750000Y-97710000D03*
D18*
%TO.P,Y1,4,4*%
%TO.N,GND*%
X94750000Y-95410000D03*
%TD*%
D19*
%TO.P,D2,*%
%TO.N,*%
X112500000Y-100000000D03*
D20*
%TO.P,D2,1,K*%
%TO.N,GND*%
X112500000Y-101625000D03*
D21*
%TO.P,D2,2,A*%
%TO.N,Net-(D2-Pad2)*%
X112500000Y-98375000D03*
%TD*%
D19*
%TO.P,D3,*%
%TO.N,*%
X112500000Y-95000000D03*
D20*
%TO.P,D3,1,K*%
%TO.N,GND*%
X112500000Y-96625000D03*
D21*
%TO.P,D3,2,A*%
%TO.N,Net-(D3-Pad2)*%
X112500000Y-93375000D03*
%TD*%
D22*
%TO.P,SW1,*%
%TO.N,*%
X88300000Y-98320000D03*
X88300000Y-101680000D03*
D23*
%TO.P,SW1,1,1*%
%TO.N,GND*%
X91300000Y-101780000D03*
%TO.P,SW1,2,2*%
%TO.N,Net-(R11-Pad2)*%
X91300000Y-98220000D03*
%TD*%
D19*
%TO.P,D1,*%
%TO.N,*%
X112500000Y-105000000D03*
D20*
%TO.P,D1,1,K*%
%TO.N,GND*%
X112500000Y-106625000D03*
D21*
%TO.P,D1,2,A*%
%TO.N,Net-(D1-Pad2)*%
X112500000Y-103375000D03*
%TD*%
D24*
%TO.P,C7,1*%
%TO.N,+3V3*%
X100600000Y-91760000D03*
%TO.P,C7,2*%
%TO.N,GND*%
X102150000Y-91760000D03*
%TD*%
D25*
%TO.P,C3,1*%
%TO.N,Net-(C3-Pad1)*%
X103800000Y-84860000D03*
%TO.P,C3,2*%
%TO.N,Net-(A1-Pad1)*%
X103800000Y-83310000D03*
%TD*%
D24*
%TO.P,C5,1*%
%TO.N,GND*%
X100925000Y-84835000D03*
%TO.P,C5,2*%
%TO.N,Net-(C3-Pad1)*%
X102475000Y-84835000D03*
%TD*%
%TO.P,R6,1*%
%TO.N,Net-(R6-Pad1)*%
X108175000Y-92360000D03*
%TO.P,R6,2*%
%TO.N,+5V*%
X109825000Y-92360000D03*
%TD*%
%TO.P,R4,1*%
%TO.N,Net-(C8-Pad2)*%
X93075000Y-84835000D03*
%TO.P,R4,2*%
%TO.N,Net-(C4-Pad2)*%
X94725000Y-84835000D03*
%TD*%
D26*
%TO.P,C13,1*%
%TO.N,+3V3*%
X106150000Y-95385000D03*
%TO.P,C13,2*%
%TO.N,GND*%
X106150000Y-96935000D03*
%TD*%
D24*
%TO.P,C14,1*%
%TO.N,+5V*%
X104625000Y-93860000D03*
%TO.P,C14,2*%
%TO.N,GND*%
X106175000Y-93860000D03*
%TD*%
%TO.P,C9,1*%
%TO.N,Net-(C9-Pad1)*%
X93100000Y-91310000D03*
%TO.P,C9,2*%
%TO.N,GND*%
X94650000Y-91310000D03*
%TD*%
%TO.P,C16,1*%
%TO.N,Net-(C16-Pad1)*%
X93100000Y-94060000D03*
%TO.P,C16,2*%
%TO.N,GND*%
X94650000Y-94060000D03*
%TD*%
%TO.P,R9,1*%
%TO.N,Net-(R9-Pad1)*%
X108175000Y-96860000D03*
%TO.P,R9,2*%
%TO.N,Net-(D2-Pad2)*%
X109825000Y-96860000D03*
%TD*%
%TO.P,R8,1*%
%TO.N,Net-(R8-Pad1)*%
X108175000Y-98360000D03*
%TO.P,R8,2*%
%TO.N,Net-(D1-Pad2)*%
X109825000Y-98360000D03*
%TD*%
D25*
%TO.P,R11,1*%
%TO.N,+3V3*%
X99300000Y-102535000D03*
%TO.P,R11,2*%
%TO.N,Net-(R11-Pad2)*%
X99300000Y-100885000D03*
%TD*%
D27*
%TO.P,U1,1,DVSS*%
%TO.N,GND*%
X102250000Y-93660000D03*
%TO.P,U1,2,LOADMOD*%
%TO.N,unconnected-(U1-Pad2)*%
X101750000Y-93660000D03*
%TO.P,U1,3,TVSS1*%
%TO.N,GND*%
X101250000Y-93660000D03*
%TO.P,U1,4,TX1*%
%TO.N,Net-(L1-Pad1)*%
X100750000Y-93660000D03*
%TO.P,U1,5,TVDD*%
%TO.N,+3V3*%
X100250000Y-93660000D03*
%TO.P,U1,6,TX2*%
%TO.N,Net-(L2-Pad2)*%
X99750000Y-93660000D03*
%TO.P,U1,7,TVSS2*%
%TO.N,GND*%
X99250000Y-93660000D03*
%TO.P,U1,8,AVDD*%
%TO.N,+3V3*%
X98750000Y-93660000D03*
%TO.P,U1,9,VMID*%
%TO.N,Net-(C9-Pad1)*%
X98250000Y-93660000D03*
%TO.P,U1,10,RX*%
%TO.N,Net-(C8-Pad1)*%
X97750000Y-93660000D03*
D28*
%TO.P,U1,11,AVSS*%
%TO.N,GND*%
X97100000Y-94310000D03*
%TO.P,U1,12,AUX1*%
%TO.N,unconnected-(U1-Pad12)*%
X97100000Y-94810000D03*
%TO.P,U1,13,AUX2*%
%TO.N,unconnected-(U1-Pad13)*%
X97100000Y-95310000D03*
%TO.P,U1,14,OSCIN*%
%TO.N,Net-(C16-Pad1)*%
X97100000Y-95810000D03*
%TO.P,U1,15,OSCOUT*%
%TO.N,Net-(C17-Pad1)*%
X97100000Y-96310000D03*
%TO.P,U1,16,I0*%
%TO.N,GND*%
X97100000Y-96810000D03*
%TO.P,U1,17,I1*%
%TO.N,Net-(JP1-Pad2)*%
X97100000Y-97310000D03*
%TO.P,U1,18,TESTEN*%
%TO.N,GND*%
X97100000Y-97810000D03*
%TO.P,U1,19,P35*%
%TO.N,unconnected-(U1-Pad19)*%
X97100000Y-98310000D03*
%TO.P,U1,20,NC*%
%TO.N,unconnected-(U1-Pad20)*%
X97100000Y-98810000D03*
D27*
%TO.P,U1,21,NC*%
%TO.N,unconnected-(U1-Pad21)*%
X97750000Y-99460000D03*
%TO.P,U1,22,NC*%
%TO.N,unconnected-(U1-Pad22)*%
X98250000Y-99460000D03*
%TO.P,U1,23,PVDD*%
%TO.N,+3V3*%
X98750000Y-99460000D03*
%TO.P,U1,24,P30/UART_RX*%
%TO.N,Net-(R11-Pad2)*%
X99250000Y-99460000D03*
%TO.P,U1,25,P70_IRQ*%
%TO.N,unconnected-(U1-Pad25)*%
X99750000Y-99460000D03*
%TO.P,U1,26,RSTOUT_N*%
%TO.N,unconnected-(U1-Pad26)*%
X100250000Y-99460000D03*
%TO.P,U1,27,NSS/P50_SCL/HSU_RX*%
%TO.N,Net-(C19-Pad1)*%
X100750000Y-99460000D03*
%TO.P,U1,28,MOSI/SDA/HSU_TX*%
%TO.N,Net-(D6-Pad6)*%
X101250000Y-99460000D03*
%TO.P,U1,29,MISO/P71*%
%TO.N,unconnected-(U1-Pad29)*%
X101750000Y-99460000D03*
%TO.P,U1,30,SCK/P72*%
%TO.N,Net-(D4-Pad3)*%
X102250000Y-99460000D03*
D28*
%TO.P,U1,31,P31/DBG_TX*%
%TO.N,Net-(R8-Pad1)*%
X102900000Y-98810000D03*
%TO.P,U1,32,P32_INT0*%
%TO.N,Net-(R9-Pad1)*%
X102900000Y-98310000D03*
%TO.P,U1,33,P33_INT1*%
%TO.N,Net-(R10-Pad1)*%
X102900000Y-97810000D03*
%TO.P,U1,34,P34/SIG_CLK*%
%TO.N,unconnected-(U1-Pad34)*%
X102900000Y-97310000D03*
%TO.P,U1,35,SIGOUT*%
%TO.N,unconnected-(U1-Pad35)*%
X102900000Y-96810000D03*
%TO.P,U1,36,SIGN*%
%TO.N,unconnected-(U1-Pad36)*%
X102900000Y-96310000D03*
%TO.P,U1,37,SVDD*%
%TO.N,unconnected-(U1-Pad37)*%
X102900000Y-95810000D03*
%TO.P,U1,38,RSTPD_N*%
%TO.N,Net-(R6-Pad1)*%
X102900000Y-95310000D03*
%TO.P,U1,39,DVDD*%
%TO.N,+3V3*%
X102900000Y-94810000D03*
%TO.P,U1,40,VBAT*%
%TO.N,+5V*%
X102900000Y-94310000D03*
D29*
%TO.P,U1,41,COPPER*%
%TO.N,GND*%
X100000000Y-96560000D03*
%TD*%
D30*
%TO.P,C17,1*%
%TO.N,Net-(C17-Pad1)*%
X94650000Y-99060000D03*
%TO.P,C17,2*%
%TO.N,GND*%
X93100000Y-99060000D03*
%TD*%
%TO.P,C12,1*%
%TO.N,+3V3*%
X99400000Y-90410000D03*
%TO.P,C12,2*%
%TO.N,GND*%
X97850000Y-90410000D03*
%TD*%
D26*
%TO.P,R5,1*%
%TO.N,Net-(C8-Pad1)*%
X93100000Y-88585000D03*
%TO.P,R5,2*%
%TO.N,Net-(C9-Pad1)*%
X93100000Y-90235000D03*
%TD*%
D24*
%TO.P,R7,1*%
%TO.N,Net-(R6-Pad1)*%
X108175000Y-93860000D03*
%TO.P,R7,2*%
%TO.N,GND*%
X109825000Y-93860000D03*
%TD*%
%TO.P,R10,1*%
%TO.N,Net-(R10-Pad1)*%
X108175000Y-95360000D03*
%TO.P,R10,2*%
%TO.N,Net-(D3-Pad2)*%
X109825000Y-95360000D03*
%TD*%
D25*
%TO.P,C18,1*%
%TO.N,+3V3*%
X97700000Y-102485000D03*
%TO.P,C18,2*%
%TO.N,GND*%
X97700000Y-100935000D03*
%TD*%
D26*
%TO.P,C11,1*%
%TO.N,+3V3*%
X104650000Y-95385000D03*
%TO.P,C11,2*%
%TO.N,GND*%
X104650000Y-96935000D03*
%TD*%
D25*
%TO.P,C8,1*%
%TO.N,Net-(C8-Pad1)*%
X93100000Y-87535000D03*
%TO.P,C8,2*%
%TO.N,Net-(C8-Pad2)*%
X93100000Y-85985000D03*
%TD*%
D24*
%TO.P,C10,1*%
%TO.N,+3V3*%
X100600000Y-90410000D03*
%TO.P,C10,2*%
%TO.N,GND*%
X102150000Y-90410000D03*
%TD*%
D30*
%TO.P,C1,1*%
%TO.N,Net-(A1-Pad1)*%
X102475000Y-83300000D03*
%TO.P,C1,2*%
%TO.N,GND*%
X100925000Y-83300000D03*
%TD*%
%TO.P,C6,1*%
%TO.N,GND*%
X99075000Y-84835000D03*
%TO.P,C6,2*%
%TO.N,Net-(C4-Pad2)*%
X97525000Y-84835000D03*
%TD*%
D25*
%TO.P,R15,1*%
%TO.N,+3V3*%
X105600000Y-102535000D03*
%TO.P,R15,2*%
%TO.N,Net-(D4-Pad3)*%
X105600000Y-100885000D03*
%TD*%
D31*
%TO.P,JP1,1,A*%
%TO.N,GND*%
X93350000Y-101960000D03*
D32*
%TO.P,JP1,2,C*%
%TO.N,Net-(JP1-Pad2)*%
X94650000Y-101960000D03*
D33*
%TO.P,JP1,3,B*%
%TO.N,+3V3*%
X95950000Y-101960000D03*
%TD*%
D24*
%TO.P,R13,1*%
%TO.N,Net-(J3-Pad3)*%
X100825000Y-102460000D03*
%TO.P,R13,2*%
%TO.N,Net-(D6-Pad6)*%
X102475000Y-102460000D03*
%TD*%
%TO.P,C15,1*%
%TO.N,+3V3*%
X93100000Y-92660000D03*
%TO.P,C15,2*%
%TO.N,GND*%
X94650000Y-92660000D03*
%TD*%
D30*
%TO.P,R14,1*%
%TO.N,Net-(J3-Pad4)*%
X102475000Y-100960000D03*
%TO.P,R14,2*%
%TO.N,Net-(C19-Pad1)*%
X100825000Y-100960000D03*
%TD*%
D34*
%TO.P,L1,1,1*%
%TO.N,Net-(L1-Pad1)*%
X102542893Y-88267107D03*
D35*
X102260051Y-88549949D03*
%TO.P,L1,2,2*%
%TO.N,Net-(C3-Pad1)*%
X104239949Y-86570051D03*
D34*
X103957107Y-86852893D03*
%TD*%
D36*
%TO.P,L2,1,1*%
%TO.N,Net-(C4-Pad2)*%
X96042893Y-86852893D03*
D37*
X95760051Y-86570051D03*
%TO.P,L2,2,2*%
%TO.N,Net-(L2-Pad2)*%
X97739949Y-88549949D03*
D36*
X97457107Y-88267107D03*
%TD*%
D26*
%TO.P,C4,1*%
%TO.N,Net-(A1-Pad3)*%
X96200000Y-83310000D03*
%TO.P,C4,2*%
%TO.N,Net-(C4-Pad2)*%
X96200000Y-84860000D03*
%TD*%
%TO.P,R12,1*%
%TO.N,Net-(D4-Pad3)*%
X104000000Y-100885000D03*
%TO.P,R12,2*%
%TO.N,Net-(J3-Pad5)*%
X104000000Y-102535000D03*
%TD*%
D38*
%TO.P,D5,1,A1*%
%TO.N,GND*%
X108050000Y-89810000D03*
%TO.P,D5,2,K2*%
%TO.N,+3V3*%
X108050000Y-90460000D03*
%TO.P,D5,3,K1A2*%
%TO.N,Net-(D3-Pad2)*%
X108050000Y-91110000D03*
%TO.P,D5,4,A3*%
%TO.N,GND*%
X109950000Y-91110000D03*
%TO.P,D5,5,K4*%
%TO.N,+3V3*%
X109950000Y-90460000D03*
%TO.P,D5,6,K3A4*%
%TO.N,Net-(D2-Pad2)*%
X109950000Y-89810000D03*
%TD*%
D39*
%TO.P,U2,*%
%TO.N,*%
X100400000Y-114400000D03*
D40*
X100000000Y-114500000D03*
D39*
X101600000Y-112800000D03*
D40*
X99800000Y-111500000D03*
D41*
X101400000Y-113300000D03*
D42*
X100300000Y-111700000D03*
D40*
X99800000Y-112700000D03*
D43*
X99800000Y-111900000D03*
D44*
X101400000Y-113900000D03*
D45*
X102000000Y-111800000D03*
D39*
X98400000Y-112200000D03*
D46*
X101400000Y-114500000D03*
D43*
X100600000Y-112900000D03*
D45*
X99400000Y-112400000D03*
D40*
X101000000Y-110900000D03*
X99600000Y-114100000D03*
X99200000Y-112500000D03*
D47*
X102000000Y-113800000D03*
D48*
X99600000Y-113100000D03*
D40*
X100800000Y-111300000D03*
D48*
X100600000Y-111300000D03*
D42*
X100500000Y-111900000D03*
X101500000Y-111700000D03*
D48*
X102000000Y-110700000D03*
D44*
X98600000Y-113900000D03*
D42*
X100100000Y-114100000D03*
D40*
X101400000Y-112700000D03*
D42*
X101900000Y-112700000D03*
D40*
X99600000Y-112300000D03*
D49*
X98100000Y-112500000D03*
D48*
X101000000Y-111500000D03*
D39*
X100400000Y-110600000D03*
X101000000Y-112200000D03*
D42*
X100300000Y-113900000D03*
D40*
X101600000Y-111300000D03*
D41*
X98600000Y-110500000D03*
D40*
X100200000Y-113100000D03*
D42*
X98500000Y-112500000D03*
D40*
X101000000Y-110500000D03*
D47*
X98000000Y-111000000D03*
D43*
X98200000Y-112900000D03*
D47*
X100000000Y-113000000D03*
D48*
X99800000Y-113700000D03*
D41*
X98600000Y-113300000D03*
D47*
X99200000Y-113800000D03*
D46*
X98600000Y-111700000D03*
D45*
X100800000Y-112400000D03*
D46*
X98600000Y-114500000D03*
D39*
X98800000Y-112200000D03*
D48*
X100200000Y-110700000D03*
D40*
X99200000Y-112100000D03*
X101200000Y-111300000D03*
D47*
X100800000Y-113800000D03*
D39*
X101400000Y-110600000D03*
D44*
X98600000Y-111100000D03*
D39*
X100400000Y-112400000D03*
D40*
X100200000Y-112700000D03*
D47*
X99200000Y-111000000D03*
D39*
X101200000Y-111800000D03*
D40*
X99800000Y-110700000D03*
D48*
X99600000Y-111500000D03*
D40*
X100200000Y-111500000D03*
X100600000Y-112300000D03*
D39*
X100400000Y-113400000D03*
D40*
X101200000Y-112500000D03*
X101800000Y-110700000D03*
X101800000Y-111100000D03*
X99800000Y-114300000D03*
D50*
X99100000Y-112900000D03*
D48*
X99600000Y-110700000D03*
D43*
X100000000Y-112100000D03*
D47*
X98000000Y-113800000D03*
D48*
X100000000Y-111100000D03*
%TD*%
D24*
%TO.P,C19,1*%
%TO.N,Net-(C19-Pad1)*%
X108225000Y-104760000D03*
%TO.P,C19,2*%
%TO.N,GND*%
X109775000Y-104760000D03*
%TD*%
D38*
%TO.P,D4,1,A1*%
%TO.N,GND*%
X108050000Y-99610000D03*
%TO.P,D4,2,K2*%
%TO.N,+3V3*%
X108050000Y-100260000D03*
%TO.P,D4,3,K1A2*%
%TO.N,Net-(D4-Pad3)*%
X108050000Y-100910000D03*
%TO.P,D4,4,A3*%
%TO.N,GND*%
X109950000Y-100910000D03*
%TO.P,D4,5,K4*%
%TO.N,+3V3*%
X109950000Y-100260000D03*
%TO.P,D4,6,K3A4*%
%TO.N,Net-(D1-Pad2)*%
X109950000Y-99610000D03*
%TD*%
%TO.P,D6,1,A1*%
%TO.N,GND*%
X109950000Y-103510000D03*
%TO.P,D6,2,K2*%
%TO.N,+3V3*%
X109950000Y-102860000D03*
%TO.P,D6,3,K1A2*%
%TO.N,Net-(C19-Pad1)*%
X109950000Y-102210000D03*
%TO.P,D6,4,A3*%
%TO.N,GND*%
X108050000Y-102210000D03*
%TO.P,D6,5,K4*%
%TO.N,+3V3*%
X108050000Y-102860000D03*
%TO.P,D6,6,K3A4*%
%TO.N,Net-(D6-Pad6)*%
X108050000Y-103510000D03*
%TD*%
D30*
%TO.P,C2,1*%
%TO.N,GND*%
X99075000Y-83300000D03*
%TO.P,C2,2*%
%TO.N,Net-(A1-Pad3)*%
X97525000Y-83300000D03*
%TD*%
D51*
%TO.P,A1,*%
%TO.N,*%
X101900000Y-79690000D03*
D52*
X99050000Y-77590000D03*
X100950000Y-77590000D03*
X97480000Y-79690000D03*
D51*
X98100000Y-79690000D03*
D53*
X99050000Y-77590000D03*
D54*
X100000000Y-77590000D03*
D55*
%TO.P,A1,1*%
%TO.N,Net-(A1-Pad1)*%
X101770000Y-81290000D03*
D56*
%TO.P,A1,2*%
%TO.N,GND*%
X100000000Y-79590000D03*
D55*
%TO.P,A1,3*%
%TO.N,Net-(A1-Pad3)*%
X98230000Y-81290000D03*
%TD*%
D57*
%TO.N,GND*%
X96200000Y-104200000D03*
%TO.N,Net-(J3-Pad5)*%
X106700000Y-105600000D03*
X104834502Y-105600000D03*
%TO.N,GND*%
X104400000Y-99860000D03*
X93000000Y-100134500D03*
X101000000Y-97600000D03*
X105514175Y-97403682D03*
X100000000Y-89385000D03*
X100000000Y-96600000D03*
X109000000Y-103830000D03*
X99000000Y-95560000D03*
X99000000Y-97560000D03*
X97053825Y-99939076D03*
X104250000Y-91750000D03*
X106175000Y-92060000D03*
X109000000Y-99535500D03*
X109000000Y-102135000D03*
X101000000Y-95560000D03*
X112250000Y-102500000D03*
X95950000Y-94735000D03*
%TO.N,+3V3*%
X97350000Y-91760000D03*
X107100000Y-92960000D03*
X92549500Y-102990016D03*
X92200000Y-89410000D03*
X107100000Y-100459989D03*
X107100000Y-102460000D03*
X99522431Y-91240773D03*
%TO.N,+5V*%
X105250000Y-92660000D03*
X109000000Y-90935000D03*
X100000000Y-104250000D03*
X105250000Y-90935000D03*
%TO.N,Net-(D2-Pad2)*%
X109013557Y-96242734D03*
X110799502Y-90500000D03*
%TO.N,Net-(C9-Pad1)*%
X94200000Y-90260000D03*
X96424500Y-92484500D03*
%TD*%
D58*
%TO.N,GND*%
X96190000Y-108155000D02*
X96190000Y-104210000D01*
X96200000Y-104200000D02*
G75*
G03*
X96190000Y-104210000I0J-10000D01*
G01*
D59*
X92300000Y-104200000D02*
X96200000Y-104200000D01*
%TO.N,Net-(J3-Pad5)*%
X106350000Y-105950000D02*
G75*
G02*
X106700000Y-105600000I350000J0D01*
G01*
X106350000Y-105950000D02*
X106350000Y-108155000D01*
%TO.N,Net-(C19-Pad1)*%
X103400000Y-106800000D02*
X104800000Y-106800000D01*
X105900000Y-105700000D02*
G75*
G02*
X104800000Y-106800000I-1100000J0D01*
G01*
X105900000Y-105700000D02*
X105900000Y-105400000D01*
X106540000Y-104760000D02*
G75*
G03*
X105900000Y-105400000I0J-640000D01*
G01*
X102100000Y-105500000D02*
G75*
G03*
X103400000Y-106800000I1300000J0D01*
G01*
X108225000Y-104760000D02*
X106640000Y-104760000D01*
X101833640Y-103522696D02*
G75*
G02*
X102100000Y-104165684I-642940J-643004D01*
G01*
X102100000Y-105500000D02*
X102100000Y-104165684D01*
X101507878Y-102736229D02*
G75*
G03*
X101833658Y-103522678I1112222J29D01*
G01*
X101507900Y-102192100D02*
X101506044Y-102087896D01*
X101507900Y-102736229D02*
X101507900Y-102192100D01*
X101119557Y-101254557D02*
X100825000Y-100960000D01*
X101506044Y-102087896D02*
X101473442Y-101882055D01*
X101191930Y-101329550D02*
X101119557Y-101254557D01*
X101473442Y-101882055D02*
X101409041Y-101683848D01*
X101409041Y-101683848D02*
X101314427Y-101498156D01*
X101314427Y-101498156D02*
X101191930Y-101329550D01*
%TO.N,Net-(D6-Pad6)*%
X105490123Y-105590123D02*
X105490123Y-104690123D01*
X108050000Y-103510000D02*
X106670246Y-103510000D01*
X105490100Y-104690123D02*
G75*
G02*
X106670246Y-103510000I1180100J23D01*
G01*
X103410675Y-106389300D02*
G75*
G02*
X102475000Y-105453650I25J935700D01*
G01*
X102475000Y-102460000D02*
X102475000Y-105453650D01*
X105490125Y-105590123D02*
G75*
G02*
X104690921Y-106389325I-799225J23D01*
G01*
X103410675Y-106389325D02*
X104690921Y-106389325D01*
%TO.N,Net-(C19-Pad1)*%
X106540000Y-104760000D02*
X108225000Y-104760000D01*
%TO.N,Net-(J3-Pad5)*%
X104834500Y-103369502D02*
G75*
G03*
X104000000Y-102535000I-834500J2D01*
G01*
X104834502Y-103369502D02*
X104834502Y-105600000D01*
%TO.N,Net-(J3-Pad4)*%
X103207337Y-102007337D02*
X103207337Y-102834871D01*
X103399991Y-103300009D02*
G75*
G02*
X103207337Y-102834871I465109J465109D01*
G01*
X103207337Y-102707337D02*
X103207337Y-102007337D01*
X103207337Y-102007337D02*
X103207337Y-101692337D01*
X103809988Y-104289827D02*
G75*
G03*
X103400000Y-103300000I-1399788J27D01*
G01*
X103810000Y-104289827D02*
X103810000Y-104845000D01*
D58*
%TO.N,+5V*%
X98847702Y-104727296D02*
G75*
G02*
X100000000Y-104250000I1152298J-1152304D01*
G01*
X98847703Y-104727297D02*
X98730000Y-104845000D01*
D59*
%TO.N,+3V3*%
X94340000Y-103160000D02*
X92719484Y-103160000D01*
X95950000Y-101960000D02*
X95950000Y-102409022D01*
X94340000Y-103159989D02*
G75*
G03*
X95806442Y-102552580I0J2073889D01*
G01*
X95950000Y-102409022D02*
X95806442Y-102552580D01*
X92499989Y-100900011D02*
G75*
G02*
X92175489Y-100116562I783411J783411D01*
G01*
X92950000Y-92660000D02*
X92175489Y-93434511D01*
X93100000Y-92660000D02*
X92950000Y-92660000D01*
X92175489Y-93434511D02*
X92175489Y-100116562D01*
X92549498Y-101019503D02*
G75*
G03*
X92500000Y-100900000I-168998J3D01*
G01*
X92549500Y-101019503D02*
X92549500Y-102990016D01*
%TO.N,Net-(R11-Pad2)*%
X99584520Y-103184558D02*
G75*
G03*
X100156658Y-102612382I-20J572158D01*
G01*
X94827089Y-103699995D02*
G75*
G03*
X95444330Y-103444330I11J872895D01*
G01*
X91900000Y-103270362D02*
G75*
G03*
X92329638Y-103700000I429600J-38D01*
G01*
X100154762Y-102058168D02*
X100156658Y-102156658D01*
X91700013Y-100699987D02*
G75*
G02*
X91900000Y-101182842I-482813J-482813D01*
G01*
X95444340Y-103444340D02*
G75*
G02*
X96071566Y-103184520I627260J-627260D01*
G01*
X91449521Y-98369521D02*
X91300000Y-98220000D01*
X91449526Y-100095291D02*
G75*
G03*
X91700001Y-100699999I855174J-9D01*
G01*
X99584520Y-103184520D02*
X96071566Y-103184520D01*
X99931488Y-101519214D02*
X100040934Y-101682991D01*
X99300000Y-100885000D02*
X99863208Y-101448208D01*
X99863208Y-101448208D02*
X99931488Y-101519214D01*
X100116324Y-101864974D02*
X100154762Y-102058168D01*
X100040934Y-101682991D02*
X100116324Y-101864974D01*
X100156658Y-102156658D02*
X100156658Y-102612382D01*
X91449521Y-100095291D02*
X91449521Y-98369521D01*
X94827089Y-103700000D02*
X92329638Y-103700000D01*
X91900000Y-103270362D02*
X91900000Y-101182842D01*
%TO.N,GND*%
X91300000Y-103200000D02*
G75*
G03*
X92300000Y-104200000I1000000J0D01*
G01*
X91300000Y-103200000D02*
X91300000Y-101780000D01*
%TO.N,Net-(J3-Pad3)*%
X101000004Y-103699996D02*
G75*
G02*
X100825000Y-103277513I422496J422496D01*
G01*
X101300014Y-104424264D02*
G75*
G03*
X100999999Y-103700001I-1024314J-36D01*
G01*
X100825000Y-102460000D02*
X100825000Y-103277513D01*
X101300000Y-104424264D02*
X101300000Y-108155000D01*
%TO.N,Net-(J3-Pad4)*%
X102475000Y-100959963D02*
G75*
G02*
X103207337Y-101692337I0J-732337D01*
G01*
%TO.N,+3V3*%
X92719484Y-103160000D02*
X92549500Y-102990016D01*
D58*
%TO.N,GND*%
X106175000Y-92060000D02*
X106175000Y-93860000D01*
X105525000Y-97392857D02*
X105514175Y-97403682D01*
D59*
X109950000Y-104585000D02*
X109775000Y-104760000D01*
X112250000Y-102500000D02*
X112250000Y-101875000D01*
X108949253Y-99610000D02*
X109023753Y-99535500D01*
D58*
X100000000Y-89385000D02*
X100000000Y-79590000D01*
X93350000Y-101960000D02*
X93350000Y-100979474D01*
X99075000Y-84835000D02*
X99950000Y-84835000D01*
D59*
X102160000Y-91750000D02*
X104250000Y-91750000D01*
X102250000Y-93660000D02*
X102250000Y-92001421D01*
X101250000Y-93535000D02*
X101250000Y-95310000D01*
X108925000Y-102210000D02*
X109000000Y-102135000D01*
X111750000Y-90250000D02*
X111750000Y-91000000D01*
D58*
X94650000Y-92660000D02*
X94650000Y-94060000D01*
D59*
X99250000Y-93535000D02*
X99250000Y-95310000D01*
D58*
X99075000Y-83300000D02*
X100925000Y-83300000D01*
D59*
X104400000Y-99860000D02*
X106358579Y-99860000D01*
X110612500Y-91887500D02*
X110612500Y-93547500D01*
X106962132Y-99610000D02*
X108050000Y-99610000D01*
X106920000Y-89810000D02*
X108050000Y-89810000D01*
X111000000Y-91750000D02*
X110750000Y-91750000D01*
D58*
X102150000Y-90410000D02*
X102150000Y-91760000D01*
X94750000Y-95410000D02*
X95275000Y-95410000D01*
D59*
X112500000Y-101625000D02*
X113125000Y-101625000D01*
X102250000Y-93660000D02*
X102250000Y-94039290D01*
X110300000Y-93860000D02*
X109825000Y-93860000D01*
X102200000Y-94160000D02*
X101141422Y-95218578D01*
X97850000Y-90410000D02*
X97850000Y-90682451D01*
X113750000Y-97250000D02*
X113750000Y-100375000D01*
D58*
X94650000Y-94060000D02*
X94650000Y-95310000D01*
X94650000Y-91310000D02*
X94650000Y-92660000D01*
D59*
X109320000Y-103510000D02*
X109950000Y-103510000D01*
D58*
X105525000Y-96935000D02*
X106250000Y-96935000D01*
X93100000Y-99060000D02*
X93100000Y-99893079D01*
D59*
X99250000Y-95310000D02*
X99000000Y-95560000D01*
X109000000Y-101860000D02*
X109000000Y-102135000D01*
X98750000Y-97810000D02*
X99000000Y-97560000D01*
X96975000Y-96810000D02*
X98250000Y-96810000D01*
D58*
X104750000Y-96935000D02*
X105525000Y-96935000D01*
X93100000Y-99060000D02*
X93100000Y-97810000D01*
D59*
X98250000Y-96810000D02*
X99000000Y-97560000D01*
D58*
X100925000Y-84835000D02*
X99950000Y-84835000D01*
D59*
X98828475Y-92231525D02*
X98253475Y-91656525D01*
D58*
X105525000Y-96935000D02*
X105525000Y-97392857D01*
D59*
X109950000Y-91110000D02*
X110075000Y-91110000D01*
X113750000Y-102250000D02*
X113750000Y-105375000D01*
X108050000Y-102210000D02*
X108925000Y-102210000D01*
X110612500Y-91647500D02*
X110612500Y-91887500D01*
X97583466Y-94343466D02*
X98658578Y-95418578D01*
X97700000Y-100935000D02*
X97700000Y-100585251D01*
X101250000Y-95310000D02*
X101000000Y-95560000D01*
X109950000Y-103510000D02*
X109950000Y-104585000D01*
X108050000Y-99610000D02*
X108949253Y-99610000D01*
X108610000Y-89250000D02*
X110750000Y-89250000D01*
X96975000Y-97810000D02*
X98750000Y-97810000D01*
X97100000Y-94310000D02*
X97502672Y-94310000D01*
X106175000Y-92060000D02*
X106175000Y-90555000D01*
X112500000Y-96625000D02*
X113125000Y-96625000D01*
X99250000Y-93660000D02*
X99250000Y-93249176D01*
X97583488Y-94343444D02*
G75*
G03*
X97502672Y-94310000I-80788J-80856D01*
G01*
X102200003Y-94160003D02*
G75*
G03*
X102250000Y-94039290I-120703J120703D01*
G01*
X106920000Y-89810000D02*
G75*
G03*
X106175000Y-90555000I0J-745000D01*
G01*
X106600006Y-99760006D02*
G75*
G02*
X106358579Y-99860000I-241406J241406D01*
G01*
X112500000Y-106625000D02*
G75*
G03*
X113750000Y-105375000I0J1250000D01*
G01*
X111000000Y-91750000D02*
G75*
G03*
X111750000Y-91000000I0J750000D01*
G01*
D58*
X92999993Y-100134507D02*
G75*
G02*
X93350000Y-100979474I-844993J-844993D01*
G01*
D59*
X113750000Y-102250000D02*
G75*
G03*
X113125000Y-101625000I-625000J0D01*
G01*
X109320000Y-103510000D02*
G75*
G03*
X109000000Y-103830000I0J-320000D01*
G01*
X98253490Y-91656510D02*
G75*
G02*
X97850000Y-90682451I974110J974110D01*
G01*
X102160000Y-91750000D02*
G75*
G03*
X102150000Y-91760000I0J-10000D01*
G01*
X100999988Y-95560000D02*
G75*
G02*
X101141422Y-95218578I482812J0D01*
G01*
X113750000Y-97250000D02*
G75*
G03*
X113125000Y-96625000I-625000J0D01*
G01*
X102150006Y-91759994D02*
G75*
G02*
X102250000Y-92001421I-241406J-241406D01*
G01*
X111750000Y-90250000D02*
G75*
G03*
X110750000Y-89250000I-1000000J0D01*
G01*
X109000000Y-101860000D02*
G75*
G02*
X109950000Y-100910000I950000J0D01*
G01*
X108610000Y-89250000D02*
G75*
G03*
X108050000Y-89810000I0J-560000D01*
G01*
X106962132Y-99610014D02*
G75*
G03*
X106600001Y-99760001I-32J-512086D01*
G01*
D58*
X93000006Y-100134506D02*
G75*
G03*
X93100000Y-99893079I-241406J241406D01*
G01*
D59*
X110612500Y-91887500D02*
G75*
G02*
X110750000Y-91750000I137500J0D01*
G01*
X112500000Y-101625000D02*
G75*
G03*
X112250000Y-101875000I0J-250000D01*
G01*
D58*
X94750000Y-95410000D02*
G75*
G02*
X94650000Y-95310000I0J100000D01*
G01*
D59*
X97053825Y-99939100D02*
G75*
G02*
X97700000Y-100585251I-25J-646200D01*
G01*
X112500000Y-101625000D02*
G75*
G03*
X113750000Y-100375000I0J1250000D01*
G01*
D58*
X95950000Y-94735000D02*
G75*
G02*
X95275000Y-95410000I-675000J0D01*
G01*
X93000000Y-97710000D02*
G75*
G02*
X93100000Y-97810000I0J-100000D01*
G01*
D59*
X99000000Y-95560012D02*
G75*
G02*
X98658578Y-95418578I0J482812D01*
G01*
X110300000Y-93860000D02*
G75*
G03*
X110612500Y-93547500I0J312500D01*
G01*
X98828468Y-92231532D02*
G75*
G02*
X99250000Y-93249176I-1017668J-1017668D01*
G01*
X110612500Y-91647500D02*
G75*
G03*
X110075000Y-91110000I-537500J0D01*
G01*
D58*
%TO.N,Net-(C3-Pad1)*%
X103800000Y-84835000D02*
X103800000Y-86130102D01*
X103800000Y-84860000D02*
X102300000Y-84860000D01*
X103800000Y-86130102D02*
X104239949Y-86570051D01*
%TO.N,Net-(C4-Pad2)*%
X96175000Y-84835000D02*
X96200000Y-84860000D01*
X96200000Y-86130102D02*
X95760051Y-86570051D01*
X94725000Y-84835000D02*
X96175000Y-84835000D01*
X97525000Y-84835000D02*
X96225000Y-84835000D01*
X96200000Y-84835000D02*
X96200000Y-86130102D01*
X96225000Y-84835000D02*
X96200000Y-84860000D01*
D59*
%TO.N,+3V3*%
X107100000Y-93960000D02*
X107100000Y-92960000D01*
X100600000Y-91760000D02*
X100600000Y-92177158D01*
X108430000Y-90460000D02*
X108750000Y-90140000D01*
X98500000Y-100301421D02*
X98500000Y-102424645D01*
X107100000Y-92960000D02*
X107100000Y-90860000D01*
X98750000Y-93660000D02*
X98750000Y-93392957D01*
X97824149Y-91956399D02*
X98388875Y-92521125D01*
X108050000Y-90460000D02*
X108430000Y-90460000D01*
X99300000Y-102585000D02*
X99275000Y-102585000D01*
X107500000Y-102860000D02*
X108050000Y-102860000D01*
X109560000Y-90460000D02*
X109950000Y-90460000D01*
X102900000Y-94810000D02*
X104075000Y-94810000D01*
X99250000Y-102485000D02*
X99300000Y-102535000D01*
X97700000Y-102485000D02*
X98525000Y-102485000D01*
X92200000Y-89410000D02*
X92200000Y-91760000D01*
X100600000Y-90410000D02*
X99400000Y-90410000D01*
X97424264Y-102460000D02*
X97700000Y-102460000D01*
X108750000Y-90140000D02*
X109240000Y-90140000D01*
X95950000Y-101960000D02*
X96217158Y-101960000D01*
X109240000Y-90140000D02*
X109560000Y-90460000D01*
X99400000Y-90410000D02*
X99400000Y-91085000D01*
X108050000Y-102860000D02*
X109950000Y-102860000D01*
X106150000Y-95385000D02*
X106687500Y-94847500D01*
X108050000Y-100260000D02*
X107561290Y-100260000D01*
X107100000Y-102460000D02*
X105781066Y-102460000D01*
X106150000Y-95385000D02*
X104650000Y-95385000D01*
X106764124Y-94770875D02*
X106687500Y-94847500D01*
X98750000Y-99460000D02*
X98750000Y-99697868D01*
X107500000Y-90460000D02*
X108050000Y-90460000D01*
X98525000Y-102485000D02*
X99250000Y-102485000D01*
X108050000Y-100260000D02*
X109950000Y-100260000D01*
X100250000Y-93022132D02*
X100250000Y-93660000D01*
X100600000Y-90410000D02*
X100600000Y-91760000D01*
X96700013Y-102159987D02*
G75*
G03*
X96217158Y-101960000I-482813J-482813D01*
G01*
X97424264Y-102460014D02*
G75*
G02*
X96700001Y-102159999I36J1024314D01*
G01*
X100400013Y-92660013D02*
G75*
G03*
X100600000Y-92177158I-482813J482813D01*
G01*
X107078480Y-100459995D02*
G75*
G02*
X107561290Y-100260000I482820J-482805D01*
G01*
X93100000Y-92660000D02*
G75*
G02*
X92200000Y-91760000I0J900000D01*
G01*
X106764114Y-94770865D02*
G75*
G03*
X107100000Y-93960000I-810814J810865D01*
G01*
X98388863Y-92521137D02*
G75*
G02*
X98750000Y-93392957I-871863J-871863D01*
G01*
X99500000Y-91185000D02*
G75*
G02*
X99400000Y-91085000I0J100000D01*
G01*
X107500000Y-90460000D02*
G75*
G03*
X107100000Y-90860000I0J-400000D01*
G01*
X107500000Y-102860000D02*
G75*
G02*
X107100000Y-102460000I0J400000D01*
G01*
X100250014Y-93022132D02*
G75*
G02*
X100400001Y-92660001I512086J32D01*
G01*
X104650000Y-95385000D02*
G75*
G03*
X104075000Y-94810000I-575000J0D01*
G01*
X97824139Y-91956409D02*
G75*
G03*
X97350000Y-91760000I-474139J-474091D01*
G01*
X98599994Y-100059994D02*
G75*
G03*
X98500000Y-100301421I241406J-241406D01*
G01*
X98525034Y-102484966D02*
G75*
G02*
X98500000Y-102424645I60266J60366D01*
G01*
X98600009Y-100060009D02*
G75*
G03*
X98750000Y-99697868I-362109J362109D01*
G01*
X105600010Y-102535010D02*
G75*
G02*
X105781066Y-102460000I181090J-181090D01*
G01*
D58*
%TO.N,Net-(C8-Pad2)*%
X93075000Y-85960000D02*
X93100000Y-85985000D01*
X93075000Y-84810000D02*
X93075000Y-85960000D01*
D59*
%TO.N,Net-(C8-Pad1)*%
X97750000Y-93660000D02*
X96600000Y-93660000D01*
X95700000Y-92760000D02*
X95700000Y-90110000D01*
X94175000Y-88585000D02*
X93100000Y-88585000D01*
D58*
X93100000Y-87535000D02*
X93100000Y-88585000D01*
D59*
X94175000Y-88585000D02*
G75*
G02*
X95700000Y-90110000I0J-1525000D01*
G01*
X95700000Y-92760000D02*
G75*
G03*
X96600000Y-93660000I900000J0D01*
G01*
%TO.N,+5V*%
X109300489Y-91559511D02*
X109300489Y-91284778D01*
X109600000Y-91760000D02*
X109500978Y-91760000D01*
D58*
X104625000Y-93860000D02*
X103300000Y-93860000D01*
X104625000Y-93860000D02*
X104625000Y-93285000D01*
D59*
X105250000Y-90960000D02*
X105250000Y-92660000D01*
X109300500Y-91559511D02*
G75*
G03*
X109500978Y-91760000I200500J11D01*
G01*
D58*
X103000000Y-94160000D02*
G75*
G02*
X103300000Y-93860000I300000J0D01*
G01*
X105250000Y-92660000D02*
G75*
G03*
X104625000Y-93285000I0J-625000D01*
G01*
D59*
X109600000Y-91760000D02*
G75*
G02*
X109825000Y-91985000I0J-225000D01*
G01*
X109000000Y-90935011D02*
G75*
G02*
X109300489Y-91235489I0J-300489D01*
G01*
%TO.N,Net-(C16-Pad1)*%
X95175736Y-96560000D02*
X93740000Y-96560000D01*
X96000000Y-95960000D02*
X95558579Y-96401421D01*
X97100000Y-95810000D02*
X96362132Y-95810000D01*
X93000000Y-95820000D02*
X93000000Y-95410000D01*
X93100000Y-95310000D02*
X93100000Y-94060000D01*
X95999991Y-95959991D02*
G75*
G02*
X96362132Y-95810000I362109J-362109D01*
G01*
X93100000Y-95310000D02*
G75*
G02*
X93000000Y-95410000I-100000J0D01*
G01*
X93000000Y-95820000D02*
G75*
G03*
X93740000Y-96560000I740000J0D01*
G01*
X95175736Y-96560031D02*
G75*
G03*
X95558579Y-96401421I-36J541431D01*
G01*
%TO.N,Net-(L2-Pad2)*%
X98968989Y-91715737D02*
X99181626Y-91928374D01*
X99750000Y-93660000D02*
X99750000Y-93300550D01*
X98624806Y-90884806D02*
X98624806Y-89434806D01*
X99181641Y-91928359D02*
G75*
G02*
X99750000Y-93300550I-1372141J-1372141D01*
G01*
X97739949Y-88549894D02*
G75*
G02*
X98624806Y-89434806I-49J-884906D01*
G01*
X98968996Y-91715730D02*
G75*
G02*
X98624806Y-90884806I830904J830930D01*
G01*
%TO.N,Net-(L1-Pad1)*%
X101375000Y-89435000D02*
X101375000Y-92212513D01*
X100750000Y-93367842D02*
X100750000Y-93660000D01*
X101200000Y-92635000D02*
X100950000Y-92885000D01*
X101199996Y-92634996D02*
G75*
G03*
X101375000Y-92212513I-422496J422496D01*
G01*
X100750018Y-93367842D02*
G75*
G02*
X100950000Y-92885000I682782J42D01*
G01*
X101374949Y-89435000D02*
G75*
G02*
X102260051Y-88549949I885051J0D01*
G01*
%TO.N,Net-(D1-Pad2)*%
X109950000Y-99610000D02*
X110525000Y-99610000D01*
X109950000Y-98485000D02*
X109825000Y-98360000D01*
X109925000Y-98360000D02*
X109825000Y-98360000D01*
X109950000Y-99610000D02*
X109950000Y-98485000D01*
X112125000Y-103375000D02*
X112500000Y-103375000D01*
X111250000Y-100335000D02*
X111250000Y-102500000D01*
X112125000Y-103375000D02*
G75*
G02*
X111250000Y-102500000I0J875000D01*
G01*
X111250000Y-100335000D02*
G75*
G03*
X110525000Y-99610000I-725000J0D01*
G01*
%TO.N,Net-(D2-Pad2)*%
X109013557Y-96242734D02*
X109207734Y-96242734D01*
X109825000Y-96860000D02*
X110110000Y-96860000D01*
X111625000Y-98375000D02*
X112500000Y-98375000D01*
X109950000Y-89810000D02*
X110109502Y-89810000D01*
X110799500Y-90500000D02*
G75*
G03*
X110109502Y-89810000I-690000J0D01*
G01*
X110750000Y-97500000D02*
G75*
G03*
X110110000Y-96860000I-640000J0D01*
G01*
X109824966Y-96860000D02*
G75*
G03*
X109207734Y-96242734I-617266J0D01*
G01*
X111625000Y-98375000D02*
G75*
G02*
X110750000Y-97500000I0J875000D01*
G01*
%TO.N,Net-(D3-Pad2)*%
X109006835Y-94872318D02*
X109107872Y-95023532D01*
X112125000Y-93375000D02*
X112500000Y-93375000D01*
X109107872Y-95023532D02*
X109236468Y-95152128D01*
X109555701Y-95322761D02*
X109734069Y-95358240D01*
X108937239Y-94704299D02*
X109006835Y-94872318D01*
X108050000Y-91110000D02*
X108050000Y-91410000D01*
X109387682Y-95253165D02*
X109555701Y-95322761D01*
X108200000Y-91560000D02*
X108400000Y-91560000D01*
X109734069Y-95358240D02*
X109825000Y-95360000D01*
X109825000Y-95360000D02*
X110140000Y-95360000D01*
X108900000Y-92060000D02*
X108900000Y-94435000D01*
X109236468Y-95152128D02*
X109387682Y-95253165D01*
X108900000Y-94435000D02*
X108901760Y-94525931D01*
X108901760Y-94525931D02*
X108937239Y-94704299D01*
X109645752Y-95434244D02*
G75*
G02*
X109825000Y-95360000I179248J-179256D01*
G01*
X108900000Y-92060000D02*
G75*
G03*
X108400000Y-91560000I-500000J0D01*
G01*
X111000000Y-94500000D02*
G75*
G02*
X110140000Y-95360000I-860000J0D01*
G01*
X112125000Y-93375000D02*
G75*
G03*
X111000000Y-94500000I0J-1125000D01*
G01*
X108200000Y-91560000D02*
G75*
G02*
X108050000Y-91410000I0J150000D01*
G01*
D58*
%TO.N,Net-(C9-Pad1)*%
X93100000Y-90235000D02*
X93100000Y-91310000D01*
D59*
X96897538Y-92680439D02*
X97667767Y-92680439D01*
X98250000Y-93262672D02*
X98250000Y-93660000D01*
X94200000Y-90260000D02*
X93125000Y-90260000D01*
X93100000Y-90235000D02*
G75*
G03*
X93125000Y-90260000I25000J0D01*
G01*
X96897538Y-92680423D02*
G75*
G02*
X96424500Y-92484500I-38J668923D01*
G01*
X98250061Y-93262672D02*
G75*
G03*
X97667767Y-92680439I-582261J-28D01*
G01*
%TO.N,Net-(C17-Pad1)*%
X94650000Y-97810000D02*
X94650000Y-99060000D01*
X96200000Y-96460000D02*
X95841422Y-96818578D01*
X95150000Y-97710000D02*
X94750000Y-97710000D01*
X97100000Y-96310000D02*
X96562132Y-96310000D01*
X96199991Y-96459991D02*
G75*
G02*
X96562132Y-96310000I362109J-362109D01*
G01*
X95699988Y-97160000D02*
G75*
G02*
X95841422Y-96818578I482812J0D01*
G01*
X94650000Y-97810000D02*
G75*
G02*
X94750000Y-97710000I100000J0D01*
G01*
X95150000Y-97710000D02*
G75*
G03*
X95700000Y-97160000I0J550000D01*
G01*
%TO.N,Net-(JP1-Pad2)*%
X95800000Y-100860000D02*
X95100000Y-100860000D01*
X94650000Y-101960000D02*
X94650000Y-101310000D01*
X96213249Y-97646751D02*
X96213249Y-100446751D01*
X97100000Y-97310000D02*
X96550000Y-97310000D01*
X95800000Y-100860049D02*
G75*
G03*
X96213249Y-100446751I0J413249D01*
G01*
X96213200Y-97646751D02*
G75*
G02*
X96550000Y-97310000I336800J-49D01*
G01*
X95100000Y-100860000D02*
G75*
G03*
X94650000Y-101310000I0J-450000D01*
G01*
%TO.N,Net-(D6-Pad6)*%
X101825480Y-101574520D02*
X101825480Y-101044390D01*
X102475000Y-102460000D02*
X101992329Y-101977329D01*
X101687858Y-100712142D02*
X101537858Y-100562142D01*
X101250000Y-100050000D02*
X101250000Y-99460000D01*
X101408593Y-100432876D02*
X101537858Y-100562142D01*
X101408586Y-100432883D02*
G75*
G02*
X101250000Y-100050000I382914J382883D01*
G01*
X101825455Y-101574520D02*
G75*
G03*
X101992329Y-101977329I569645J20D01*
G01*
X101687855Y-100712145D02*
G75*
G02*
X101825480Y-101044390I-332255J-332255D01*
G01*
%TO.N,Net-(R8-Pad1)*%
X108175000Y-98485000D02*
X108175000Y-98360000D01*
X104341421Y-99060000D02*
X107600000Y-99060000D01*
X102900000Y-98810000D02*
X103737868Y-98810000D01*
X108175000Y-98485000D02*
G75*
G02*
X107600000Y-99060000I-575000J0D01*
G01*
X104100009Y-98959991D02*
G75*
G03*
X103737868Y-98810000I-362109J-362109D01*
G01*
X104341421Y-99059991D02*
G75*
G02*
X104100000Y-98960000I-21J341391D01*
G01*
%TO.N,Net-(R9-Pad1)*%
X104563312Y-98610489D02*
X106649511Y-98610489D01*
X107400000Y-97860000D02*
X107400000Y-97635000D01*
X102900000Y-98310000D02*
X103837868Y-98310000D01*
X107399989Y-97860000D02*
G75*
G02*
X106649511Y-98610489I-750489J0D01*
G01*
X104563312Y-98610483D02*
G75*
G02*
X104200001Y-98459999I-12J513783D01*
G01*
X108175000Y-96860000D02*
G75*
G03*
X107400000Y-97635000I0J-775000D01*
G01*
X104200009Y-98459991D02*
G75*
G03*
X103837868Y-98310000I-362109J-362109D01*
G01*
%TO.N,Net-(C19-Pad1)*%
X109950000Y-102210000D02*
X110150000Y-102210000D01*
X100750000Y-100885000D02*
X100825000Y-100960000D01*
X110700000Y-102760000D02*
X110700000Y-105087834D01*
X108225000Y-105185000D02*
X108225000Y-104760000D01*
X100750000Y-99585000D02*
X100750000Y-100885000D01*
X110227824Y-105560010D02*
X108600010Y-105560010D01*
X110700000Y-102760000D02*
G75*
G03*
X110150000Y-102210000I-550000J0D01*
G01*
X108225000Y-105185000D02*
G75*
G03*
X108600000Y-105560000I375000J0D01*
G01*
X110227824Y-105560000D02*
G75*
G03*
X110700000Y-105087834I-24J472200D01*
G01*
X108600014Y-105560000D02*
G75*
G02*
X108600010Y-105560010I-14J0D01*
G01*
D58*
%TO.N,Net-(A1-Pad1)*%
X102475000Y-83300000D02*
X102475000Y-81996075D01*
X102485000Y-83310000D02*
X102475000Y-83300000D01*
X103800000Y-83310000D02*
X102485000Y-83310000D01*
X101773846Y-81294900D02*
G75*
G02*
X102475000Y-81996075I-46J-701200D01*
G01*
%TO.N,Net-(A1-Pad3)*%
X97525000Y-83300000D02*
X96210000Y-83300000D01*
X96210000Y-83300000D02*
X96200000Y-83310000D01*
X97525000Y-81996075D02*
X97525000Y-83300000D01*
X97525021Y-81996075D02*
G75*
G02*
X98226154Y-81294921I701179J-25D01*
G01*
D59*
%TO.N,Net-(D4-Pad3)*%
X103400000Y-100160000D02*
X102800000Y-100160000D01*
X102475099Y-100160099D02*
X102799901Y-100160099D01*
X104000000Y-100885000D02*
X105600000Y-100885000D01*
X106820545Y-101184490D02*
X107775510Y-101184490D01*
X105600000Y-100885000D02*
X106097513Y-100885000D01*
X102250000Y-99460000D02*
X102250000Y-99935000D01*
X104000000Y-100885000D02*
X104000000Y-100760000D01*
X102475099Y-100160100D02*
G75*
G02*
X102250000Y-99935000I1J225100D01*
G01*
X106820545Y-101184471D02*
G75*
G02*
X106520000Y-101060000I-45J424971D01*
G01*
X106519996Y-101060004D02*
G75*
G03*
X106097513Y-100885000I-422496J-422496D01*
G01*
X103400000Y-100160000D02*
G75*
G02*
X104000000Y-100760000I0J-600000D01*
G01*
X102799900Y-100160099D02*
G75*
G02*
X102800000Y-100160000I100J-1D01*
G01*
X108049990Y-100910000D02*
G75*
G02*
X107775510Y-101184490I-274490J0D01*
G01*
%TO.N,Net-(R6-Pad1)*%
X108175000Y-92360000D02*
X108175000Y-93860000D01*
X107994928Y-94294732D02*
X107361870Y-94927790D01*
X103550000Y-95310000D02*
X102900000Y-95310000D01*
X106604907Y-96160000D02*
X104272862Y-96160000D01*
X107100000Y-95560000D02*
X107100000Y-95664907D01*
X103800000Y-95687138D02*
X103800000Y-95560000D01*
X107013569Y-95873569D02*
X106813569Y-96073569D01*
X107100006Y-95560000D02*
G75*
G02*
X107361870Y-94927790I894094J0D01*
G01*
X107013567Y-95873567D02*
G75*
G03*
X107100000Y-95664907I-208667J208667D01*
G01*
X107994927Y-94294731D02*
G75*
G03*
X108175000Y-93860000I-434727J434731D01*
G01*
X103550000Y-95310000D02*
G75*
G02*
X103800000Y-95560000I0J-250000D01*
G01*
X103800000Y-95687138D02*
G75*
G03*
X104272862Y-96160000I472900J38D01*
G01*
X106604907Y-96160002D02*
G75*
G03*
X106813569Y-96073569I-7J295102D01*
G01*
%TO.N,Net-(R10-Pad1)*%
X102900000Y-97810000D02*
X104037868Y-97810000D01*
X106949520Y-97746844D02*
X106949520Y-97109520D01*
X107320072Y-96214928D02*
X108175000Y-95360000D01*
X104806027Y-98128182D02*
X106568182Y-98128182D01*
X106949582Y-97746844D02*
G75*
G02*
X106568182Y-98128182I-381382J44D01*
G01*
X104400009Y-97959991D02*
G75*
G03*
X104037868Y-97810000I-362109J-362109D01*
G01*
X104806027Y-98128170D02*
G75*
G02*
X104400000Y-97960000I-27J574170D01*
G01*
X107320055Y-96214911D02*
G75*
G03*
X106949520Y-97109520I894645J-894589D01*
G01*
%TO.N,Net-(R11-Pad2)*%
X99250000Y-100835000D02*
X99300000Y-100885000D01*
X99250000Y-99585000D02*
X99250000Y-100835000D01*
%TD*%
M02*
