%TF.GenerationSoftware,KiCad,Pcbnew,(5.1.9-0-10_14)*%
%TF.CreationDate,2021-04-25T09:59:14+01:00*%
%TF.ProjectId,PN532,504e3533-322e-46b6-9963-61645f706362,2*%
%TF.SameCoordinates,Original*%
%TF.FileFunction,Copper,L1,Top*%
%TF.FilePolarity,Positive*%
%FSLAX46Y46*%
G04 Gerber Fmt 4.6, Leading zero omitted, Abs format (unit mm)*
G04 Created by KiCad (PCBNEW (5.1.9-0-10_14)) date 2021-04-25 09:59:14*
%MOMM*%
%LPD*%
G01*
G04 APERTURE LIST*
%TA.AperFunction,NonConductor*%
%ADD10C,0.200000*%
%TD*%
%TA.AperFunction,NonConductor*%
%ADD11C,0.150000*%
%TD*%
%TA.AperFunction,EtchedComponent*%
%ADD12C,0.500000*%
%TD*%
%TA.AperFunction,ComponentPad*%
%ADD13O,1.700000X1.700000*%
%TD*%
%TA.AperFunction,ComponentPad*%
%ADD14R,1.700000X1.700000*%
%TD*%
%TA.AperFunction,ComponentPad*%
%ADD15C,0.600000*%
%TD*%
%TA.AperFunction,ComponentPad*%
%ADD16C,5.700000*%
%TD*%
%TA.AperFunction,ComponentPad*%
%ADD17C,5.500000*%
%TD*%
%TA.AperFunction,ComponentPad*%
%ADD18O,1.700000X1.850000*%
%TD*%
%TA.AperFunction,ComponentPad*%
%ADD19C,1.800000*%
%TD*%
%TA.AperFunction,ComponentPad*%
%ADD20R,1.800000X1.800000*%
%TD*%
%TA.AperFunction,ComponentPad*%
%ADD21C,2.000000*%
%TD*%
%TA.AperFunction,ComponentPad*%
%ADD22C,1.000000*%
%TD*%
%TA.AperFunction,SMDPad,CuDef*%
%ADD23C,0.500000*%
%TD*%
%TA.AperFunction,SMDPad,CuDef*%
%ADD24R,0.200000X0.200000*%
%TD*%
%TA.AperFunction,SMDPad,CuDef*%
%ADD25R,4.600000X4.600000*%
%TD*%
%TA.AperFunction,ComponentPad*%
%ADD26C,1.300000*%
%TD*%
%TA.AperFunction,ComponentPad*%
%ADD27R,1.300000X1.300000*%
%TD*%
%TA.AperFunction,SMDPad,CuDef*%
%ADD28R,1.900000X1.150000*%
%TD*%
%TA.AperFunction,ViaPad*%
%ADD29C,0.800000*%
%TD*%
%TA.AperFunction,Conductor*%
%ADD30C,0.250000*%
%TD*%
%TA.AperFunction,Conductor*%
%ADD31C,0.500000*%
%TD*%
G04 APERTURE END LIST*
D10*
X77142857Y-51785714D02*
X77333333Y-52452380D01*
X77523809Y-51976190D01*
X77714285Y-52452380D01*
X77904761Y-51785714D01*
X78190476Y-51785714D02*
X78380952Y-52452380D01*
X78571428Y-51976190D01*
X78761904Y-52452380D01*
X78952380Y-51785714D01*
X79238095Y-51785714D02*
X79428571Y-52452380D01*
X79619047Y-51976190D01*
X79809523Y-52452380D01*
X80000000Y-51785714D01*
X80380952Y-52357142D02*
X80428571Y-52404761D01*
X80380952Y-52452380D01*
X80333333Y-52404761D01*
X80380952Y-52357142D01*
X80380952Y-52452380D01*
X80857142Y-52452380D02*
X80857142Y-51785714D01*
X80857142Y-51880952D02*
X80904761Y-51833333D01*
X81000000Y-51785714D01*
X81142857Y-51785714D01*
X81238095Y-51833333D01*
X81285714Y-51928571D01*
X81285714Y-52452380D01*
X81285714Y-51928571D02*
X81333333Y-51833333D01*
X81428571Y-51785714D01*
X81571428Y-51785714D01*
X81666666Y-51833333D01*
X81714285Y-51928571D01*
X81714285Y-52452380D01*
X82571428Y-52404761D02*
X82476190Y-52452380D01*
X82285714Y-52452380D01*
X82190476Y-52404761D01*
X82142857Y-52309523D01*
X82142857Y-51928571D01*
X82190476Y-51833333D01*
X82285714Y-51785714D01*
X82476190Y-51785714D01*
X82571428Y-51833333D01*
X82619047Y-51928571D01*
X82619047Y-52023809D01*
X82142857Y-52119047D01*
X83047619Y-52357142D02*
X83095238Y-52404761D01*
X83047619Y-52452380D01*
X83000000Y-52404761D01*
X83047619Y-52357142D01*
X83047619Y-52452380D01*
X83952380Y-51785714D02*
X83952380Y-52452380D01*
X83523809Y-51785714D02*
X83523809Y-52309523D01*
X83571428Y-52404761D01*
X83666666Y-52452380D01*
X83809523Y-52452380D01*
X83904761Y-52404761D01*
X83952380Y-52357142D01*
X84428571Y-52452380D02*
X84428571Y-51452380D01*
X84523809Y-52071428D02*
X84809523Y-52452380D01*
X84809523Y-51785714D02*
X84428571Y-52166666D01*
D11*
X60938095Y-46650119D02*
X60900000Y-46612023D01*
X60861904Y-46535833D01*
X60861904Y-46345357D01*
X60900000Y-46269166D01*
X60938095Y-46231071D01*
X61014285Y-46192976D01*
X61090476Y-46192976D01*
X61204761Y-46231071D01*
X61661904Y-46688214D01*
X61661904Y-46192976D01*
X60861904Y-45697738D02*
X60861904Y-45621547D01*
X60900000Y-45545357D01*
X60938095Y-45507261D01*
X61014285Y-45469166D01*
X61166666Y-45431071D01*
X61357142Y-45431071D01*
X61509523Y-45469166D01*
X61585714Y-45507261D01*
X61623809Y-45545357D01*
X61661904Y-45621547D01*
X61661904Y-45697738D01*
X61623809Y-45773928D01*
X61585714Y-45812023D01*
X61509523Y-45850119D01*
X61357142Y-45888214D01*
X61166666Y-45888214D01*
X61014285Y-45850119D01*
X60938095Y-45812023D01*
X60900000Y-45773928D01*
X60861904Y-45697738D01*
X60938095Y-45126309D02*
X60900000Y-45088214D01*
X60861904Y-45012023D01*
X60861904Y-44821547D01*
X60900000Y-44745357D01*
X60938095Y-44707261D01*
X61014285Y-44669166D01*
X61090476Y-44669166D01*
X61204761Y-44707261D01*
X61661904Y-45164404D01*
X61661904Y-44669166D01*
X61661904Y-43907261D02*
X61661904Y-44364404D01*
X61661904Y-44135833D02*
X60861904Y-44135833D01*
X60976190Y-44212023D01*
X61052380Y-44288214D01*
X61090476Y-44364404D01*
X61357142Y-43564404D02*
X61357142Y-42954880D01*
X60861904Y-42421547D02*
X60861904Y-42345357D01*
X60900000Y-42269166D01*
X60938095Y-42231071D01*
X61014285Y-42192976D01*
X61166666Y-42154880D01*
X61357142Y-42154880D01*
X61509523Y-42192976D01*
X61585714Y-42231071D01*
X61623809Y-42269166D01*
X61661904Y-42345357D01*
X61661904Y-42421547D01*
X61623809Y-42497738D01*
X61585714Y-42535833D01*
X61509523Y-42573928D01*
X61357142Y-42612023D01*
X61166666Y-42612023D01*
X61014285Y-42573928D01*
X60938095Y-42535833D01*
X60900000Y-42497738D01*
X60861904Y-42421547D01*
X61128571Y-41469166D02*
X61661904Y-41469166D01*
X60823809Y-41659642D02*
X61395238Y-41850119D01*
X61395238Y-41354880D01*
X61357142Y-41050119D02*
X61357142Y-40440595D01*
X60938095Y-40097738D02*
X60900000Y-40059642D01*
X60861904Y-39983452D01*
X60861904Y-39792976D01*
X60900000Y-39716785D01*
X60938095Y-39678690D01*
X61014285Y-39640595D01*
X61090476Y-39640595D01*
X61204761Y-39678690D01*
X61661904Y-40135833D01*
X61661904Y-39640595D01*
X60861904Y-38916785D02*
X60861904Y-39297738D01*
X61242857Y-39335833D01*
X61204761Y-39297738D01*
X61166666Y-39221547D01*
X61166666Y-39031071D01*
X61204761Y-38954880D01*
X61242857Y-38916785D01*
X61319047Y-38878690D01*
X61509523Y-38878690D01*
X61585714Y-38916785D01*
X61623809Y-38954880D01*
X61661904Y-39031071D01*
X61661904Y-39221547D01*
X61623809Y-39297738D01*
X61585714Y-39335833D01*
D12*
%TO.C,A1*%
X53000000Y-41000000D02*
X50000000Y-39000000D01*
%TD*%
D13*
%TO.P,J4,2*%
%TO.N,Net-(J4-Pad2)*%
X71270000Y-28000000D03*
D14*
%TO.P,J4,1*%
%TO.N,GND*%
X68730000Y-28000000D03*
%TD*%
%TO.P,R4,2*%
%TO.N,Net-(C10-Pad1)*%
%TA.AperFunction,SMDPad,CuDef*%
G36*
G01*
X77100000Y-27050001D02*
X77100000Y-26149999D01*
G75*
G02*
X77349999Y-25900000I249999J0D01*
G01*
X78050001Y-25900000D01*
G75*
G02*
X78300000Y-26149999I0J-249999D01*
G01*
X78300000Y-27050001D01*
G75*
G02*
X78050001Y-27300000I-249999J0D01*
G01*
X77349999Y-27300000D01*
G75*
G02*
X77100000Y-27050001I0J249999D01*
G01*
G37*
%TD.AperFunction*%
%TO.P,R4,1*%
%TO.N,Net-(C8-Pad1)*%
%TA.AperFunction,SMDPad,CuDef*%
G36*
G01*
X75100000Y-27050001D02*
X75100000Y-26149999D01*
G75*
G02*
X75349999Y-25900000I249999J0D01*
G01*
X76050001Y-25900000D01*
G75*
G02*
X76300000Y-26149999I0J-249999D01*
G01*
X76300000Y-27050001D01*
G75*
G02*
X76050001Y-27300000I-249999J0D01*
G01*
X75349999Y-27300000D01*
G75*
G02*
X75100000Y-27050001I0J249999D01*
G01*
G37*
%TD.AperFunction*%
%TD*%
D15*
%TO.P,A1,~*%
%TO.N,N/C*%
X50000000Y-39000000D03*
X53000000Y-41000000D03*
%TO.P,A1,3*%
%TO.N,Net-(A1-Pad3)*%
X87000000Y-37000000D03*
%TO.P,A1,1*%
%TO.N,Net-(A1-Pad1)*%
X87000000Y-43000000D03*
%TO.P,A1,2*%
%TO.N,GND*%
X89000000Y-40000000D03*
%TD*%
D16*
%TO.P,H2,1*%
%TO.N,N/C*%
X58000000Y-52000000D03*
%TD*%
D17*
%TO.P,H1,1*%
%TO.N,N/C*%
X82000000Y-28000000D03*
%TD*%
D18*
%TO.P,J2,4*%
%TO.N,Net-(J1-Pad4)*%
X73750000Y-48900000D03*
%TO.P,J2,3*%
%TO.N,Net-(J1-Pad3)*%
X71250000Y-48900000D03*
%TO.P,J2,2*%
%TO.N,+5V*%
X68750000Y-48900000D03*
%TO.P,J2,1*%
%TO.N,GND*%
%TA.AperFunction,ComponentPad*%
G36*
G01*
X65400000Y-49575000D02*
X65400000Y-48225000D01*
G75*
G02*
X65650000Y-47975000I250000J0D01*
G01*
X66850000Y-47975000D01*
G75*
G02*
X67100000Y-48225000I0J-250000D01*
G01*
X67100000Y-49575000D01*
G75*
G02*
X66850000Y-49825000I-250000J0D01*
G01*
X65650000Y-49825000D01*
G75*
G02*
X65400000Y-49575000I0J250000D01*
G01*
G37*
%TD.AperFunction*%
%TD*%
%TO.P,C14,2*%
%TO.N,GND*%
%TA.AperFunction,SMDPad,CuDef*%
G36*
G01*
X78925000Y-46087500D02*
X79875000Y-46087500D01*
G75*
G02*
X80125000Y-46337500I0J-250000D01*
G01*
X80125000Y-47012500D01*
G75*
G02*
X79875000Y-47262500I-250000J0D01*
G01*
X78925000Y-47262500D01*
G75*
G02*
X78675000Y-47012500I0J250000D01*
G01*
X78675000Y-46337500D01*
G75*
G02*
X78925000Y-46087500I250000J0D01*
G01*
G37*
%TD.AperFunction*%
%TO.P,C14,1*%
%TO.N,+5V*%
%TA.AperFunction,SMDPad,CuDef*%
G36*
G01*
X78925000Y-44012500D02*
X79875000Y-44012500D01*
G75*
G02*
X80125000Y-44262500I0J-250000D01*
G01*
X80125000Y-44937500D01*
G75*
G02*
X79875000Y-45187500I-250000J0D01*
G01*
X78925000Y-45187500D01*
G75*
G02*
X78675000Y-44937500I0J250000D01*
G01*
X78675000Y-44262500D01*
G75*
G02*
X78925000Y-44012500I250000J0D01*
G01*
G37*
%TD.AperFunction*%
%TD*%
%TO.P,C17,2*%
%TO.N,GND*%
%TA.AperFunction,SMDPad,CuDef*%
G36*
G01*
X69175000Y-33012500D02*
X68225000Y-33012500D01*
G75*
G02*
X67975000Y-32762500I0J250000D01*
G01*
X67975000Y-32087500D01*
G75*
G02*
X68225000Y-31837500I250000J0D01*
G01*
X69175000Y-31837500D01*
G75*
G02*
X69425000Y-32087500I0J-250000D01*
G01*
X69425000Y-32762500D01*
G75*
G02*
X69175000Y-33012500I-250000J0D01*
G01*
G37*
%TD.AperFunction*%
%TO.P,C17,1*%
%TO.N,+3V3*%
%TA.AperFunction,SMDPad,CuDef*%
G36*
G01*
X69175000Y-35087500D02*
X68225000Y-35087500D01*
G75*
G02*
X67975000Y-34837500I0J250000D01*
G01*
X67975000Y-34162500D01*
G75*
G02*
X68225000Y-33912500I250000J0D01*
G01*
X69175000Y-33912500D01*
G75*
G02*
X69425000Y-34162500I0J-250000D01*
G01*
X69425000Y-34837500D01*
G75*
G02*
X69175000Y-35087500I-250000J0D01*
G01*
G37*
%TD.AperFunction*%
%TD*%
%TO.P,C16,2*%
%TO.N,GND*%
%TA.AperFunction,SMDPad,CuDef*%
G36*
G01*
X71275000Y-33012500D02*
X70325000Y-33012500D01*
G75*
G02*
X70075000Y-32762500I0J250000D01*
G01*
X70075000Y-32087500D01*
G75*
G02*
X70325000Y-31837500I250000J0D01*
G01*
X71275000Y-31837500D01*
G75*
G02*
X71525000Y-32087500I0J-250000D01*
G01*
X71525000Y-32762500D01*
G75*
G02*
X71275000Y-33012500I-250000J0D01*
G01*
G37*
%TD.AperFunction*%
%TO.P,C16,1*%
%TO.N,Net-(C16-Pad1)*%
%TA.AperFunction,SMDPad,CuDef*%
G36*
G01*
X71275000Y-35087500D02*
X70325000Y-35087500D01*
G75*
G02*
X70075000Y-34837500I0J250000D01*
G01*
X70075000Y-34162500D01*
G75*
G02*
X70325000Y-33912500I250000J0D01*
G01*
X71275000Y-33912500D01*
G75*
G02*
X71525000Y-34162500I0J-250000D01*
G01*
X71525000Y-34837500D01*
G75*
G02*
X71275000Y-35087500I-250000J0D01*
G01*
G37*
%TD.AperFunction*%
%TD*%
%TO.P,C15,2*%
%TO.N,GND*%
%TA.AperFunction,SMDPad,CuDef*%
G36*
G01*
X77025000Y-33912500D02*
X77975000Y-33912500D01*
G75*
G02*
X78225000Y-34162500I0J-250000D01*
G01*
X78225000Y-34837500D01*
G75*
G02*
X77975000Y-35087500I-250000J0D01*
G01*
X77025000Y-35087500D01*
G75*
G02*
X76775000Y-34837500I0J250000D01*
G01*
X76775000Y-34162500D01*
G75*
G02*
X77025000Y-33912500I250000J0D01*
G01*
G37*
%TD.AperFunction*%
%TO.P,C15,1*%
%TO.N,Net-(C15-Pad1)*%
%TA.AperFunction,SMDPad,CuDef*%
G36*
G01*
X77025000Y-31837500D02*
X77975000Y-31837500D01*
G75*
G02*
X78225000Y-32087500I0J-250000D01*
G01*
X78225000Y-32762500D01*
G75*
G02*
X77975000Y-33012500I-250000J0D01*
G01*
X77025000Y-33012500D01*
G75*
G02*
X76775000Y-32762500I0J250000D01*
G01*
X76775000Y-32087500D01*
G75*
G02*
X77025000Y-31837500I250000J0D01*
G01*
G37*
%TD.AperFunction*%
%TD*%
%TO.P,C13,2*%
%TO.N,GND*%
%TA.AperFunction,SMDPad,CuDef*%
G36*
G01*
X71812500Y-45225000D02*
X71812500Y-46175000D01*
G75*
G02*
X71562500Y-46425000I-250000J0D01*
G01*
X70887500Y-46425000D01*
G75*
G02*
X70637500Y-46175000I0J250000D01*
G01*
X70637500Y-45225000D01*
G75*
G02*
X70887500Y-44975000I250000J0D01*
G01*
X71562500Y-44975000D01*
G75*
G02*
X71812500Y-45225000I0J-250000D01*
G01*
G37*
%TD.AperFunction*%
%TO.P,C13,1*%
%TO.N,+3V3*%
%TA.AperFunction,SMDPad,CuDef*%
G36*
G01*
X73887500Y-45225000D02*
X73887500Y-46175000D01*
G75*
G02*
X73637500Y-46425000I-250000J0D01*
G01*
X72962500Y-46425000D01*
G75*
G02*
X72712500Y-46175000I0J250000D01*
G01*
X72712500Y-45225000D01*
G75*
G02*
X72962500Y-44975000I250000J0D01*
G01*
X73637500Y-44975000D01*
G75*
G02*
X73887500Y-45225000I0J-250000D01*
G01*
G37*
%TD.AperFunction*%
%TD*%
%TO.P,C12,2*%
%TO.N,GND*%
%TA.AperFunction,SMDPad,CuDef*%
G36*
G01*
X76712500Y-46175000D02*
X76712500Y-45225000D01*
G75*
G02*
X76962500Y-44975000I250000J0D01*
G01*
X77637500Y-44975000D01*
G75*
G02*
X77887500Y-45225000I0J-250000D01*
G01*
X77887500Y-46175000D01*
G75*
G02*
X77637500Y-46425000I-250000J0D01*
G01*
X76962500Y-46425000D01*
G75*
G02*
X76712500Y-46175000I0J250000D01*
G01*
G37*
%TD.AperFunction*%
%TO.P,C12,1*%
%TO.N,+3V3*%
%TA.AperFunction,SMDPad,CuDef*%
G36*
G01*
X74637500Y-46175000D02*
X74637500Y-45225000D01*
G75*
G02*
X74887500Y-44975000I250000J0D01*
G01*
X75562500Y-44975000D01*
G75*
G02*
X75812500Y-45225000I0J-250000D01*
G01*
X75812500Y-46175000D01*
G75*
G02*
X75562500Y-46425000I-250000J0D01*
G01*
X74887500Y-46425000D01*
G75*
G02*
X74637500Y-46175000I0J250000D01*
G01*
G37*
%TD.AperFunction*%
%TD*%
%TO.P,C11,2*%
%TO.N,GND*%
%TA.AperFunction,SMDPad,CuDef*%
G36*
G01*
X81125000Y-40450000D02*
X82075000Y-40450000D01*
G75*
G02*
X82325000Y-40700000I0J-250000D01*
G01*
X82325000Y-41375000D01*
G75*
G02*
X82075000Y-41625000I-250000J0D01*
G01*
X81125000Y-41625000D01*
G75*
G02*
X80875000Y-41375000I0J250000D01*
G01*
X80875000Y-40700000D01*
G75*
G02*
X81125000Y-40450000I250000J0D01*
G01*
G37*
%TD.AperFunction*%
%TO.P,C11,1*%
%TO.N,+3V3*%
%TA.AperFunction,SMDPad,CuDef*%
G36*
G01*
X81125000Y-38375000D02*
X82075000Y-38375000D01*
G75*
G02*
X82325000Y-38625000I0J-250000D01*
G01*
X82325000Y-39300000D01*
G75*
G02*
X82075000Y-39550000I-250000J0D01*
G01*
X81125000Y-39550000D01*
G75*
G02*
X80875000Y-39300000I0J250000D01*
G01*
X80875000Y-38625000D01*
G75*
G02*
X81125000Y-38375000I250000J0D01*
G01*
G37*
%TD.AperFunction*%
%TD*%
%TO.P,C10,2*%
%TO.N,GND*%
%TA.AperFunction,SMDPad,CuDef*%
G36*
G01*
X80075000Y-33012500D02*
X79125000Y-33012500D01*
G75*
G02*
X78875000Y-32762500I0J250000D01*
G01*
X78875000Y-32087500D01*
G75*
G02*
X79125000Y-31837500I250000J0D01*
G01*
X80075000Y-31837500D01*
G75*
G02*
X80325000Y-32087500I0J-250000D01*
G01*
X80325000Y-32762500D01*
G75*
G02*
X80075000Y-33012500I-250000J0D01*
G01*
G37*
%TD.AperFunction*%
%TO.P,C10,1*%
%TO.N,Net-(C10-Pad1)*%
%TA.AperFunction,SMDPad,CuDef*%
G36*
G01*
X80075000Y-35087500D02*
X79125000Y-35087500D01*
G75*
G02*
X78875000Y-34837500I0J250000D01*
G01*
X78875000Y-34162500D01*
G75*
G02*
X79125000Y-33912500I250000J0D01*
G01*
X80075000Y-33912500D01*
G75*
G02*
X80325000Y-34162500I0J-250000D01*
G01*
X80325000Y-34837500D01*
G75*
G02*
X80075000Y-35087500I-250000J0D01*
G01*
G37*
%TD.AperFunction*%
%TD*%
%TO.P,C9,2*%
%TO.N,GND*%
%TA.AperFunction,SMDPad,CuDef*%
G36*
G01*
X85012500Y-39375000D02*
X85012500Y-38425000D01*
G75*
G02*
X85262500Y-38175000I250000J0D01*
G01*
X85937500Y-38175000D01*
G75*
G02*
X86187500Y-38425000I0J-250000D01*
G01*
X86187500Y-39375000D01*
G75*
G02*
X85937500Y-39625000I-250000J0D01*
G01*
X85262500Y-39625000D01*
G75*
G02*
X85012500Y-39375000I0J250000D01*
G01*
G37*
%TD.AperFunction*%
%TO.P,C9,1*%
%TO.N,+3V3*%
%TA.AperFunction,SMDPad,CuDef*%
G36*
G01*
X82937500Y-39375000D02*
X82937500Y-38425000D01*
G75*
G02*
X83187500Y-38175000I250000J0D01*
G01*
X83862500Y-38175000D01*
G75*
G02*
X84112500Y-38425000I0J-250000D01*
G01*
X84112500Y-39375000D01*
G75*
G02*
X83862500Y-39625000I-250000J0D01*
G01*
X83187500Y-39625000D01*
G75*
G02*
X82937500Y-39375000I0J250000D01*
G01*
G37*
%TD.AperFunction*%
%TD*%
%TO.P,C8,2*%
%TO.N,Net-(C8-Pad2)*%
%TA.AperFunction,SMDPad,CuDef*%
G36*
G01*
X75225000Y-30012500D02*
X76175000Y-30012500D01*
G75*
G02*
X76425000Y-30262500I0J-250000D01*
G01*
X76425000Y-30937500D01*
G75*
G02*
X76175000Y-31187500I-250000J0D01*
G01*
X75225000Y-31187500D01*
G75*
G02*
X74975000Y-30937500I0J250000D01*
G01*
X74975000Y-30262500D01*
G75*
G02*
X75225000Y-30012500I250000J0D01*
G01*
G37*
%TD.AperFunction*%
%TO.P,C8,1*%
%TO.N,Net-(C8-Pad1)*%
%TA.AperFunction,SMDPad,CuDef*%
G36*
G01*
X75225000Y-27937500D02*
X76175000Y-27937500D01*
G75*
G02*
X76425000Y-28187500I0J-250000D01*
G01*
X76425000Y-28862500D01*
G75*
G02*
X76175000Y-29112500I-250000J0D01*
G01*
X75225000Y-29112500D01*
G75*
G02*
X74975000Y-28862500I0J250000D01*
G01*
X74975000Y-28187500D01*
G75*
G02*
X75225000Y-27937500I250000J0D01*
G01*
G37*
%TD.AperFunction*%
%TD*%
%TO.P,C7,2*%
%TO.N,GND*%
%TA.AperFunction,SMDPad,CuDef*%
G36*
G01*
X85012500Y-41575000D02*
X85012500Y-40625000D01*
G75*
G02*
X85262500Y-40375000I250000J0D01*
G01*
X85937500Y-40375000D01*
G75*
G02*
X86187500Y-40625000I0J-250000D01*
G01*
X86187500Y-41575000D01*
G75*
G02*
X85937500Y-41825000I-250000J0D01*
G01*
X85262500Y-41825000D01*
G75*
G02*
X85012500Y-41575000I0J250000D01*
G01*
G37*
%TD.AperFunction*%
%TO.P,C7,1*%
%TO.N,+3V3*%
%TA.AperFunction,SMDPad,CuDef*%
G36*
G01*
X82937500Y-41575000D02*
X82937500Y-40625000D01*
G75*
G02*
X83187500Y-40375000I250000J0D01*
G01*
X83862500Y-40375000D01*
G75*
G02*
X84112500Y-40625000I0J-250000D01*
G01*
X84112500Y-41575000D01*
G75*
G02*
X83862500Y-41825000I-250000J0D01*
G01*
X83187500Y-41825000D01*
G75*
G02*
X82937500Y-41575000I0J250000D01*
G01*
G37*
%TD.AperFunction*%
%TD*%
%TO.P,C6,2*%
%TO.N,Net-(C4-Pad2)*%
%TA.AperFunction,SMDPad,CuDef*%
G36*
G01*
X82087500Y-32325000D02*
X82087500Y-33275000D01*
G75*
G02*
X81837500Y-33525000I-250000J0D01*
G01*
X81162500Y-33525000D01*
G75*
G02*
X80912500Y-33275000I0J250000D01*
G01*
X80912500Y-32325000D01*
G75*
G02*
X81162500Y-32075000I250000J0D01*
G01*
X81837500Y-32075000D01*
G75*
G02*
X82087500Y-32325000I0J-250000D01*
G01*
G37*
%TD.AperFunction*%
%TO.P,C6,1*%
%TO.N,GND*%
%TA.AperFunction,SMDPad,CuDef*%
G36*
G01*
X84162500Y-32325000D02*
X84162500Y-33275000D01*
G75*
G02*
X83912500Y-33525000I-250000J0D01*
G01*
X83237500Y-33525000D01*
G75*
G02*
X82987500Y-33275000I0J250000D01*
G01*
X82987500Y-32325000D01*
G75*
G02*
X83237500Y-32075000I250000J0D01*
G01*
X83912500Y-32075000D01*
G75*
G02*
X84162500Y-32325000I0J-250000D01*
G01*
G37*
%TD.AperFunction*%
%TD*%
%TO.P,C5,2*%
%TO.N,Net-(C3-Pad1)*%
%TA.AperFunction,SMDPad,CuDef*%
G36*
G01*
X82087500Y-46725000D02*
X82087500Y-47675000D01*
G75*
G02*
X81837500Y-47925000I-250000J0D01*
G01*
X81162500Y-47925000D01*
G75*
G02*
X80912500Y-47675000I0J250000D01*
G01*
X80912500Y-46725000D01*
G75*
G02*
X81162500Y-46475000I250000J0D01*
G01*
X81837500Y-46475000D01*
G75*
G02*
X82087500Y-46725000I0J-250000D01*
G01*
G37*
%TD.AperFunction*%
%TO.P,C5,1*%
%TO.N,GND*%
%TA.AperFunction,SMDPad,CuDef*%
G36*
G01*
X84162500Y-46725000D02*
X84162500Y-47675000D01*
G75*
G02*
X83912500Y-47925000I-250000J0D01*
G01*
X83237500Y-47925000D01*
G75*
G02*
X82987500Y-47675000I0J250000D01*
G01*
X82987500Y-46725000D01*
G75*
G02*
X83237500Y-46475000I250000J0D01*
G01*
X83912500Y-46475000D01*
G75*
G02*
X84162500Y-46725000I0J-250000D01*
G01*
G37*
%TD.AperFunction*%
%TD*%
%TO.P,C4,2*%
%TO.N,Net-(C4-Pad2)*%
%TA.AperFunction,SMDPad,CuDef*%
G36*
G01*
X82087500Y-34456428D02*
X82087500Y-35406428D01*
G75*
G02*
X81837500Y-35656428I-250000J0D01*
G01*
X81162500Y-35656428D01*
G75*
G02*
X80912500Y-35406428I0J250000D01*
G01*
X80912500Y-34456428D01*
G75*
G02*
X81162500Y-34206428I250000J0D01*
G01*
X81837500Y-34206428D01*
G75*
G02*
X82087500Y-34456428I0J-250000D01*
G01*
G37*
%TD.AperFunction*%
%TO.P,C4,1*%
%TO.N,Net-(C2-Pad2)*%
%TA.AperFunction,SMDPad,CuDef*%
G36*
G01*
X84162500Y-34456428D02*
X84162500Y-35406428D01*
G75*
G02*
X83912500Y-35656428I-250000J0D01*
G01*
X83237500Y-35656428D01*
G75*
G02*
X82987500Y-35406428I0J250000D01*
G01*
X82987500Y-34456428D01*
G75*
G02*
X83237500Y-34206428I250000J0D01*
G01*
X83912500Y-34206428D01*
G75*
G02*
X84162500Y-34456428I0J-250000D01*
G01*
G37*
%TD.AperFunction*%
%TD*%
%TO.P,C3,2*%
%TO.N,Net-(C1-Pad1)*%
%TA.AperFunction,SMDPad,CuDef*%
G36*
G01*
X82987500Y-45543568D02*
X82987500Y-44593568D01*
G75*
G02*
X83237500Y-44343568I250000J0D01*
G01*
X83912500Y-44343568D01*
G75*
G02*
X84162500Y-44593568I0J-250000D01*
G01*
X84162500Y-45543568D01*
G75*
G02*
X83912500Y-45793568I-250000J0D01*
G01*
X83237500Y-45793568D01*
G75*
G02*
X82987500Y-45543568I0J250000D01*
G01*
G37*
%TD.AperFunction*%
%TO.P,C3,1*%
%TO.N,Net-(C3-Pad1)*%
%TA.AperFunction,SMDPad,CuDef*%
G36*
G01*
X80912500Y-45543568D02*
X80912500Y-44593568D01*
G75*
G02*
X81162500Y-44343568I250000J0D01*
G01*
X81837500Y-44343568D01*
G75*
G02*
X82087500Y-44593568I0J-250000D01*
G01*
X82087500Y-45543568D01*
G75*
G02*
X81837500Y-45793568I-250000J0D01*
G01*
X81162500Y-45793568D01*
G75*
G02*
X80912500Y-45543568I0J250000D01*
G01*
G37*
%TD.AperFunction*%
%TD*%
%TO.P,L2,2*%
%TO.N,Net-(L2-Pad2)*%
%TA.AperFunction,SMDPad,CuDef*%
G36*
G01*
X81912500Y-36582855D02*
X81912500Y-37282857D01*
G75*
G02*
X81662501Y-37532856I-249999J0D01*
G01*
X81112499Y-37532856D01*
G75*
G02*
X80862500Y-37282857I0J249999D01*
G01*
X80862500Y-36582855D01*
G75*
G02*
X81112499Y-36332856I249999J0D01*
G01*
X81662501Y-36332856D01*
G75*
G02*
X81912500Y-36582855I0J-249999D01*
G01*
G37*
%TD.AperFunction*%
%TO.P,L2,1*%
%TO.N,Net-(C4-Pad2)*%
%TA.AperFunction,SMDPad,CuDef*%
G36*
G01*
X84212500Y-36582855D02*
X84212500Y-37282857D01*
G75*
G02*
X83962501Y-37532856I-249999J0D01*
G01*
X83412499Y-37532856D01*
G75*
G02*
X83162500Y-37282857I0J249999D01*
G01*
X83162500Y-36582855D01*
G75*
G02*
X83412499Y-36332856I249999J0D01*
G01*
X83962501Y-36332856D01*
G75*
G02*
X84212500Y-36582855I0J-249999D01*
G01*
G37*
%TD.AperFunction*%
%TD*%
%TO.P,L1,2*%
%TO.N,Net-(C3-Pad1)*%
%TA.AperFunction,SMDPad,CuDef*%
G36*
G01*
X83162500Y-43417141D02*
X83162500Y-42717139D01*
G75*
G02*
X83412499Y-42467140I249999J0D01*
G01*
X83962501Y-42467140D01*
G75*
G02*
X84212500Y-42717139I0J-249999D01*
G01*
X84212500Y-43417141D01*
G75*
G02*
X83962501Y-43667140I-249999J0D01*
G01*
X83412499Y-43667140D01*
G75*
G02*
X83162500Y-43417141I0J249999D01*
G01*
G37*
%TD.AperFunction*%
%TO.P,L1,1*%
%TO.N,Net-(L1-Pad1)*%
%TA.AperFunction,SMDPad,CuDef*%
G36*
G01*
X80862500Y-43417141D02*
X80862500Y-42717139D01*
G75*
G02*
X81112499Y-42467140I249999J0D01*
G01*
X81662501Y-42467140D01*
G75*
G02*
X81912500Y-42717139I0J-249999D01*
G01*
X81912500Y-43417141D01*
G75*
G02*
X81662501Y-43667140I-249999J0D01*
G01*
X81112499Y-43667140D01*
G75*
G02*
X80862500Y-43417141I0J249999D01*
G01*
G37*
%TD.AperFunction*%
%TD*%
%TO.P,C2,2*%
%TO.N,Net-(C2-Pad2)*%
%TA.AperFunction,SMDPad,CuDef*%
G36*
G01*
X85025000Y-32450000D02*
X85975000Y-32450000D01*
G75*
G02*
X86225000Y-32700000I0J-250000D01*
G01*
X86225000Y-33375000D01*
G75*
G02*
X85975000Y-33625000I-250000J0D01*
G01*
X85025000Y-33625000D01*
G75*
G02*
X84775000Y-33375000I0J250000D01*
G01*
X84775000Y-32700000D01*
G75*
G02*
X85025000Y-32450000I250000J0D01*
G01*
G37*
%TD.AperFunction*%
%TO.P,C2,1*%
%TO.N,GND*%
%TA.AperFunction,SMDPad,CuDef*%
G36*
G01*
X85025000Y-30375000D02*
X85975000Y-30375000D01*
G75*
G02*
X86225000Y-30625000I0J-250000D01*
G01*
X86225000Y-31300000D01*
G75*
G02*
X85975000Y-31550000I-250000J0D01*
G01*
X85025000Y-31550000D01*
G75*
G02*
X84775000Y-31300000I0J250000D01*
G01*
X84775000Y-30625000D01*
G75*
G02*
X85025000Y-30375000I250000J0D01*
G01*
G37*
%TD.AperFunction*%
%TD*%
%TO.P,C1,2*%
%TO.N,GND*%
%TA.AperFunction,SMDPad,CuDef*%
G36*
G01*
X85025000Y-48450000D02*
X85975000Y-48450000D01*
G75*
G02*
X86225000Y-48700000I0J-250000D01*
G01*
X86225000Y-49375000D01*
G75*
G02*
X85975000Y-49625000I-250000J0D01*
G01*
X85025000Y-49625000D01*
G75*
G02*
X84775000Y-49375000I0J250000D01*
G01*
X84775000Y-48700000D01*
G75*
G02*
X85025000Y-48450000I250000J0D01*
G01*
G37*
%TD.AperFunction*%
%TO.P,C1,1*%
%TO.N,Net-(C1-Pad1)*%
%TA.AperFunction,SMDPad,CuDef*%
G36*
G01*
X85025000Y-46375000D02*
X85975000Y-46375000D01*
G75*
G02*
X86225000Y-46625000I0J-250000D01*
G01*
X86225000Y-47300000D01*
G75*
G02*
X85975000Y-47550000I-250000J0D01*
G01*
X85025000Y-47550000D01*
G75*
G02*
X84775000Y-47300000I0J250000D01*
G01*
X84775000Y-46625000D01*
G75*
G02*
X85025000Y-46375000I250000J0D01*
G01*
G37*
%TD.AperFunction*%
%TD*%
%TO.P,R10,2*%
%TO.N,Net-(J4-Pad2)*%
%TA.AperFunction,SMDPad,CuDef*%
G36*
G01*
X70000000Y-36750001D02*
X70000000Y-35849999D01*
G75*
G02*
X70249999Y-35600000I249999J0D01*
G01*
X70950001Y-35600000D01*
G75*
G02*
X71200000Y-35849999I0J-249999D01*
G01*
X71200000Y-36750001D01*
G75*
G02*
X70950001Y-37000000I-249999J0D01*
G01*
X70249999Y-37000000D01*
G75*
G02*
X70000000Y-36750001I0J249999D01*
G01*
G37*
%TD.AperFunction*%
%TO.P,R10,1*%
%TO.N,+3V3*%
%TA.AperFunction,SMDPad,CuDef*%
G36*
G01*
X68000000Y-36750001D02*
X68000000Y-35849999D01*
G75*
G02*
X68249999Y-35600000I249999J0D01*
G01*
X68950001Y-35600000D01*
G75*
G02*
X69200000Y-35849999I0J-249999D01*
G01*
X69200000Y-36750001D01*
G75*
G02*
X68950001Y-37000000I-249999J0D01*
G01*
X68249999Y-37000000D01*
G75*
G02*
X68000000Y-36750001I0J249999D01*
G01*
G37*
%TD.AperFunction*%
%TD*%
%TO.P,R9,2*%
%TO.N,Net-(D3-Pad2)*%
%TA.AperFunction,SMDPad,CuDef*%
G36*
G01*
X63650000Y-37049999D02*
X63650000Y-37950001D01*
G75*
G02*
X63400001Y-38200000I-249999J0D01*
G01*
X62699999Y-38200000D01*
G75*
G02*
X62450000Y-37950001I0J249999D01*
G01*
X62450000Y-37049999D01*
G75*
G02*
X62699999Y-36800000I249999J0D01*
G01*
X63400001Y-36800000D01*
G75*
G02*
X63650000Y-37049999I0J-249999D01*
G01*
G37*
%TD.AperFunction*%
%TO.P,R9,1*%
%TO.N,Net-(R9-Pad1)*%
%TA.AperFunction,SMDPad,CuDef*%
G36*
G01*
X65650000Y-37049999D02*
X65650000Y-37950001D01*
G75*
G02*
X65400001Y-38200000I-249999J0D01*
G01*
X64699999Y-38200000D01*
G75*
G02*
X64450000Y-37950001I0J249999D01*
G01*
X64450000Y-37049999D01*
G75*
G02*
X64699999Y-36800000I249999J0D01*
G01*
X65400001Y-36800000D01*
G75*
G02*
X65650000Y-37049999I0J-249999D01*
G01*
G37*
%TD.AperFunction*%
%TD*%
%TO.P,R8,2*%
%TO.N,Net-(D2-Pad2)*%
%TA.AperFunction,SMDPad,CuDef*%
G36*
G01*
X63650000Y-34749999D02*
X63650000Y-35650001D01*
G75*
G02*
X63400001Y-35900000I-249999J0D01*
G01*
X62699999Y-35900000D01*
G75*
G02*
X62450000Y-35650001I0J249999D01*
G01*
X62450000Y-34749999D01*
G75*
G02*
X62699999Y-34500000I249999J0D01*
G01*
X63400001Y-34500000D01*
G75*
G02*
X63650000Y-34749999I0J-249999D01*
G01*
G37*
%TD.AperFunction*%
%TO.P,R8,1*%
%TO.N,Net-(R8-Pad1)*%
%TA.AperFunction,SMDPad,CuDef*%
G36*
G01*
X65650000Y-34749999D02*
X65650000Y-35650001D01*
G75*
G02*
X65400001Y-35900000I-249999J0D01*
G01*
X64699999Y-35900000D01*
G75*
G02*
X64450000Y-35650001I0J249999D01*
G01*
X64450000Y-34749999D01*
G75*
G02*
X64699999Y-34500000I249999J0D01*
G01*
X65400001Y-34500000D01*
G75*
G02*
X65650000Y-34749999I0J-249999D01*
G01*
G37*
%TD.AperFunction*%
%TD*%
%TO.P,R7,2*%
%TO.N,Net-(D1-Pad2)*%
%TA.AperFunction,SMDPad,CuDef*%
G36*
G01*
X63650000Y-32449999D02*
X63650000Y-33350001D01*
G75*
G02*
X63400001Y-33600000I-249999J0D01*
G01*
X62699999Y-33600000D01*
G75*
G02*
X62450000Y-33350001I0J249999D01*
G01*
X62450000Y-32449999D01*
G75*
G02*
X62699999Y-32200000I249999J0D01*
G01*
X63400001Y-32200000D01*
G75*
G02*
X63650000Y-32449999I0J-249999D01*
G01*
G37*
%TD.AperFunction*%
%TO.P,R7,1*%
%TO.N,Net-(R7-Pad1)*%
%TA.AperFunction,SMDPad,CuDef*%
G36*
G01*
X65650000Y-32449999D02*
X65650000Y-33350001D01*
G75*
G02*
X65400001Y-33600000I-249999J0D01*
G01*
X64699999Y-33600000D01*
G75*
G02*
X64450000Y-33350001I0J249999D01*
G01*
X64450000Y-32449999D01*
G75*
G02*
X64699999Y-32200000I249999J0D01*
G01*
X65400001Y-32200000D01*
G75*
G02*
X65650000Y-32449999I0J-249999D01*
G01*
G37*
%TD.AperFunction*%
%TD*%
%TO.P,R6,2*%
%TO.N,Net-(R5-Pad1)*%
%TA.AperFunction,SMDPad,CuDef*%
G36*
G01*
X63350001Y-44100000D02*
X62449999Y-44100000D01*
G75*
G02*
X62200000Y-43850001I0J249999D01*
G01*
X62200000Y-43149999D01*
G75*
G02*
X62449999Y-42900000I249999J0D01*
G01*
X63350001Y-42900000D01*
G75*
G02*
X63600000Y-43149999I0J-249999D01*
G01*
X63600000Y-43850001D01*
G75*
G02*
X63350001Y-44100000I-249999J0D01*
G01*
G37*
%TD.AperFunction*%
%TO.P,R6,1*%
%TO.N,GND*%
%TA.AperFunction,SMDPad,CuDef*%
G36*
G01*
X63350001Y-46100000D02*
X62449999Y-46100000D01*
G75*
G02*
X62200000Y-45850001I0J249999D01*
G01*
X62200000Y-45149999D01*
G75*
G02*
X62449999Y-44900000I249999J0D01*
G01*
X63350001Y-44900000D01*
G75*
G02*
X63600000Y-45149999I0J-249999D01*
G01*
X63600000Y-45850001D01*
G75*
G02*
X63350001Y-46100000I-249999J0D01*
G01*
G37*
%TD.AperFunction*%
%TD*%
%TO.P,R5,2*%
%TO.N,+5V*%
%TA.AperFunction,SMDPad,CuDef*%
G36*
G01*
X64449999Y-44900000D02*
X65350001Y-44900000D01*
G75*
G02*
X65600000Y-45149999I0J-249999D01*
G01*
X65600000Y-45850001D01*
G75*
G02*
X65350001Y-46100000I-249999J0D01*
G01*
X64449999Y-46100000D01*
G75*
G02*
X64200000Y-45850001I0J249999D01*
G01*
X64200000Y-45149999D01*
G75*
G02*
X64449999Y-44900000I249999J0D01*
G01*
G37*
%TD.AperFunction*%
%TO.P,R5,1*%
%TO.N,Net-(R5-Pad1)*%
%TA.AperFunction,SMDPad,CuDef*%
G36*
G01*
X64449999Y-42900000D02*
X65350001Y-42900000D01*
G75*
G02*
X65600000Y-43149999I0J-249999D01*
G01*
X65600000Y-43850001D01*
G75*
G02*
X65350001Y-44100000I-249999J0D01*
G01*
X64449999Y-44100000D01*
G75*
G02*
X64200000Y-43850001I0J249999D01*
G01*
X64200000Y-43149999D01*
G75*
G02*
X64449999Y-42900000I249999J0D01*
G01*
G37*
%TD.AperFunction*%
%TD*%
%TO.P,R3,2*%
%TO.N,Net-(C4-Pad2)*%
%TA.AperFunction,SMDPad,CuDef*%
G36*
G01*
X77249999Y-30000000D02*
X78150001Y-30000000D01*
G75*
G02*
X78400000Y-30249999I0J-249999D01*
G01*
X78400000Y-30950001D01*
G75*
G02*
X78150001Y-31200000I-249999J0D01*
G01*
X77249999Y-31200000D01*
G75*
G02*
X77000000Y-30950001I0J249999D01*
G01*
X77000000Y-30249999D01*
G75*
G02*
X77249999Y-30000000I249999J0D01*
G01*
G37*
%TD.AperFunction*%
%TO.P,R3,1*%
%TO.N,Net-(C8-Pad2)*%
%TA.AperFunction,SMDPad,CuDef*%
G36*
G01*
X77249999Y-28000000D02*
X78150001Y-28000000D01*
G75*
G02*
X78400000Y-28249999I0J-249999D01*
G01*
X78400000Y-28950001D01*
G75*
G02*
X78150001Y-29200000I-249999J0D01*
G01*
X77249999Y-29200000D01*
G75*
G02*
X77000000Y-28950001I0J249999D01*
G01*
X77000000Y-28249999D01*
G75*
G02*
X77249999Y-28000000I249999J0D01*
G01*
G37*
%TD.AperFunction*%
%TD*%
%TO.P,R2,2*%
%TO.N,Net-(A1-Pad3)*%
%TA.AperFunction,SMDPad,CuDef*%
G36*
G01*
X85049999Y-36400000D02*
X85950001Y-36400000D01*
G75*
G02*
X86200000Y-36649999I0J-249999D01*
G01*
X86200000Y-37350001D01*
G75*
G02*
X85950001Y-37600000I-249999J0D01*
G01*
X85049999Y-37600000D01*
G75*
G02*
X84800000Y-37350001I0J249999D01*
G01*
X84800000Y-36649999D01*
G75*
G02*
X85049999Y-36400000I249999J0D01*
G01*
G37*
%TD.AperFunction*%
%TO.P,R2,1*%
%TO.N,Net-(C2-Pad2)*%
%TA.AperFunction,SMDPad,CuDef*%
G36*
G01*
X85049999Y-34400000D02*
X85950001Y-34400000D01*
G75*
G02*
X86200000Y-34649999I0J-249999D01*
G01*
X86200000Y-35350001D01*
G75*
G02*
X85950001Y-35600000I-249999J0D01*
G01*
X85049999Y-35600000D01*
G75*
G02*
X84800000Y-35350001I0J249999D01*
G01*
X84800000Y-34649999D01*
G75*
G02*
X85049999Y-34400000I249999J0D01*
G01*
G37*
%TD.AperFunction*%
%TD*%
%TO.P,R1,2*%
%TO.N,Net-(A1-Pad1)*%
%TA.AperFunction,SMDPad,CuDef*%
G36*
G01*
X85950001Y-43600000D02*
X85049999Y-43600000D01*
G75*
G02*
X84800000Y-43350001I0J249999D01*
G01*
X84800000Y-42649999D01*
G75*
G02*
X85049999Y-42400000I249999J0D01*
G01*
X85950001Y-42400000D01*
G75*
G02*
X86200000Y-42649999I0J-249999D01*
G01*
X86200000Y-43350001D01*
G75*
G02*
X85950001Y-43600000I-249999J0D01*
G01*
G37*
%TD.AperFunction*%
%TO.P,R1,1*%
%TO.N,Net-(C1-Pad1)*%
%TA.AperFunction,SMDPad,CuDef*%
G36*
G01*
X85950001Y-45600000D02*
X85049999Y-45600000D01*
G75*
G02*
X84800000Y-45350001I0J249999D01*
G01*
X84800000Y-44649999D01*
G75*
G02*
X85049999Y-44400000I249999J0D01*
G01*
X85950001Y-44400000D01*
G75*
G02*
X86200000Y-44649999I0J-249999D01*
G01*
X86200000Y-45350001D01*
G75*
G02*
X85950001Y-45600000I-249999J0D01*
G01*
G37*
%TD.AperFunction*%
%TD*%
D13*
%TO.P,J1,4*%
%TO.N,Net-(J1-Pad4)*%
X73810000Y-52000000D03*
%TO.P,J1,3*%
%TO.N,Net-(J1-Pad3)*%
X71270000Y-52000000D03*
%TO.P,J1,2*%
%TO.N,+5V*%
X68730000Y-52000000D03*
D14*
%TO.P,J1,1*%
%TO.N,GND*%
X66190000Y-52000000D03*
%TD*%
D19*
%TO.P,D3,2*%
%TO.N,Net-(D3-Pad2)*%
X59270000Y-40000000D03*
D20*
%TO.P,D3,1*%
%TO.N,GND*%
X56730000Y-40000000D03*
%TD*%
D21*
%TO.P,SW1,1*%
%TO.N,GND*%
X66750000Y-30250000D03*
%TO.P,SW1,2*%
%TO.N,Net-(J4-Pad2)*%
X66750000Y-25750000D03*
%TO.P,SW1,1*%
%TO.N,GND*%
X73250000Y-30250000D03*
%TO.P,SW1,2*%
%TO.N,Net-(J4-Pad2)*%
X73250000Y-25750000D03*
%TD*%
D22*
%TO.P,U1,41*%
%TO.N,GND*%
X76025000Y-39725000D03*
X77525000Y-38225000D03*
X74525000Y-38225000D03*
X74525000Y-41225000D03*
X77525000Y-41225000D03*
D23*
%TO.P,U1,~*%
%TO.N,N/C*%
X79025000Y-42725000D03*
D24*
X79025000Y-42725000D03*
X73025000Y-42725000D03*
X73025000Y-36725000D03*
X79025000Y-36725000D03*
D25*
%TO.P,U1,41*%
%TO.N,GND*%
X76025000Y-39725000D03*
%TO.P,U1,40*%
%TO.N,+5V*%
%TA.AperFunction,SMDPad,CuDef*%
G36*
G01*
X78400000Y-42312500D02*
X78400000Y-43187500D01*
G75*
G02*
X78337500Y-43250000I-62500J0D01*
G01*
X78212500Y-43250000D01*
G75*
G02*
X78150000Y-43187500I0J62500D01*
G01*
X78150000Y-42312500D01*
G75*
G02*
X78212500Y-42250000I62500J0D01*
G01*
X78337500Y-42250000D01*
G75*
G02*
X78400000Y-42312500I0J-62500D01*
G01*
G37*
%TD.AperFunction*%
%TO.P,U1,39*%
%TO.N,+3V3*%
%TA.AperFunction,SMDPad,CuDef*%
G36*
G01*
X77900000Y-42312500D02*
X77900000Y-43187500D01*
G75*
G02*
X77837500Y-43250000I-62500J0D01*
G01*
X77712500Y-43250000D01*
G75*
G02*
X77650000Y-43187500I0J62500D01*
G01*
X77650000Y-42312500D01*
G75*
G02*
X77712500Y-42250000I62500J0D01*
G01*
X77837500Y-42250000D01*
G75*
G02*
X77900000Y-42312500I0J-62500D01*
G01*
G37*
%TD.AperFunction*%
%TO.P,U1,38*%
%TO.N,Net-(R5-Pad1)*%
%TA.AperFunction,SMDPad,CuDef*%
G36*
G01*
X77400000Y-42312500D02*
X77400000Y-43187500D01*
G75*
G02*
X77337500Y-43250000I-62500J0D01*
G01*
X77212500Y-43250000D01*
G75*
G02*
X77150000Y-43187500I0J62500D01*
G01*
X77150000Y-42312500D01*
G75*
G02*
X77212500Y-42250000I62500J0D01*
G01*
X77337500Y-42250000D01*
G75*
G02*
X77400000Y-42312500I0J-62500D01*
G01*
G37*
%TD.AperFunction*%
%TO.P,U1,37*%
%TO.N,Net-(U1-Pad37)*%
%TA.AperFunction,SMDPad,CuDef*%
G36*
G01*
X76900000Y-42312500D02*
X76900000Y-43187500D01*
G75*
G02*
X76837500Y-43250000I-62500J0D01*
G01*
X76712500Y-43250000D01*
G75*
G02*
X76650000Y-43187500I0J62500D01*
G01*
X76650000Y-42312500D01*
G75*
G02*
X76712500Y-42250000I62500J0D01*
G01*
X76837500Y-42250000D01*
G75*
G02*
X76900000Y-42312500I0J-62500D01*
G01*
G37*
%TD.AperFunction*%
%TO.P,U1,36*%
%TO.N,Net-(U1-Pad36)*%
%TA.AperFunction,SMDPad,CuDef*%
G36*
G01*
X76400000Y-42312500D02*
X76400000Y-43187500D01*
G75*
G02*
X76337500Y-43250000I-62500J0D01*
G01*
X76212500Y-43250000D01*
G75*
G02*
X76150000Y-43187500I0J62500D01*
G01*
X76150000Y-42312500D01*
G75*
G02*
X76212500Y-42250000I62500J0D01*
G01*
X76337500Y-42250000D01*
G75*
G02*
X76400000Y-42312500I0J-62500D01*
G01*
G37*
%TD.AperFunction*%
%TO.P,U1,35*%
%TO.N,Net-(U1-Pad35)*%
%TA.AperFunction,SMDPad,CuDef*%
G36*
G01*
X75900000Y-42312500D02*
X75900000Y-43187500D01*
G75*
G02*
X75837500Y-43250000I-62500J0D01*
G01*
X75712500Y-43250000D01*
G75*
G02*
X75650000Y-43187500I0J62500D01*
G01*
X75650000Y-42312500D01*
G75*
G02*
X75712500Y-42250000I62500J0D01*
G01*
X75837500Y-42250000D01*
G75*
G02*
X75900000Y-42312500I0J-62500D01*
G01*
G37*
%TD.AperFunction*%
%TO.P,U1,34*%
%TO.N,Net-(U1-Pad34)*%
%TA.AperFunction,SMDPad,CuDef*%
G36*
G01*
X75400000Y-42312500D02*
X75400000Y-43187500D01*
G75*
G02*
X75337500Y-43250000I-62500J0D01*
G01*
X75212500Y-43250000D01*
G75*
G02*
X75150000Y-43187500I0J62500D01*
G01*
X75150000Y-42312500D01*
G75*
G02*
X75212500Y-42250000I62500J0D01*
G01*
X75337500Y-42250000D01*
G75*
G02*
X75400000Y-42312500I0J-62500D01*
G01*
G37*
%TD.AperFunction*%
%TO.P,U1,33*%
%TO.N,Net-(R9-Pad1)*%
%TA.AperFunction,SMDPad,CuDef*%
G36*
G01*
X74900000Y-42312500D02*
X74900000Y-43187500D01*
G75*
G02*
X74837500Y-43250000I-62500J0D01*
G01*
X74712500Y-43250000D01*
G75*
G02*
X74650000Y-43187500I0J62500D01*
G01*
X74650000Y-42312500D01*
G75*
G02*
X74712500Y-42250000I62500J0D01*
G01*
X74837500Y-42250000D01*
G75*
G02*
X74900000Y-42312500I0J-62500D01*
G01*
G37*
%TD.AperFunction*%
%TO.P,U1,32*%
%TO.N,Net-(R8-Pad1)*%
%TA.AperFunction,SMDPad,CuDef*%
G36*
G01*
X74400000Y-42312500D02*
X74400000Y-43187500D01*
G75*
G02*
X74337500Y-43250000I-62500J0D01*
G01*
X74212500Y-43250000D01*
G75*
G02*
X74150000Y-43187500I0J62500D01*
G01*
X74150000Y-42312500D01*
G75*
G02*
X74212500Y-42250000I62500J0D01*
G01*
X74337500Y-42250000D01*
G75*
G02*
X74400000Y-42312500I0J-62500D01*
G01*
G37*
%TD.AperFunction*%
%TO.P,U1,31*%
%TO.N,Net-(R7-Pad1)*%
%TA.AperFunction,SMDPad,CuDef*%
G36*
G01*
X73900000Y-42312500D02*
X73900000Y-43187500D01*
G75*
G02*
X73837500Y-43250000I-62500J0D01*
G01*
X73712500Y-43250000D01*
G75*
G02*
X73650000Y-43187500I0J62500D01*
G01*
X73650000Y-42312500D01*
G75*
G02*
X73712500Y-42250000I62500J0D01*
G01*
X73837500Y-42250000D01*
G75*
G02*
X73900000Y-42312500I0J-62500D01*
G01*
G37*
%TD.AperFunction*%
%TO.P,U1,30*%
%TO.N,Net-(U1-Pad30)*%
%TA.AperFunction,SMDPad,CuDef*%
G36*
G01*
X73500000Y-41912500D02*
X73500000Y-42037500D01*
G75*
G02*
X73437500Y-42100000I-62500J0D01*
G01*
X72562500Y-42100000D01*
G75*
G02*
X72500000Y-42037500I0J62500D01*
G01*
X72500000Y-41912500D01*
G75*
G02*
X72562500Y-41850000I62500J0D01*
G01*
X73437500Y-41850000D01*
G75*
G02*
X73500000Y-41912500I0J-62500D01*
G01*
G37*
%TD.AperFunction*%
%TO.P,U1,29*%
%TO.N,Net-(U1-Pad29)*%
%TA.AperFunction,SMDPad,CuDef*%
G36*
G01*
X73500000Y-41412500D02*
X73500000Y-41537500D01*
G75*
G02*
X73437500Y-41600000I-62500J0D01*
G01*
X72562500Y-41600000D01*
G75*
G02*
X72500000Y-41537500I0J62500D01*
G01*
X72500000Y-41412500D01*
G75*
G02*
X72562500Y-41350000I62500J0D01*
G01*
X73437500Y-41350000D01*
G75*
G02*
X73500000Y-41412500I0J-62500D01*
G01*
G37*
%TD.AperFunction*%
%TO.P,U1,28*%
%TO.N,Net-(J1-Pad3)*%
%TA.AperFunction,SMDPad,CuDef*%
G36*
G01*
X73500000Y-40912500D02*
X73500000Y-41037500D01*
G75*
G02*
X73437500Y-41100000I-62500J0D01*
G01*
X72562500Y-41100000D01*
G75*
G02*
X72500000Y-41037500I0J62500D01*
G01*
X72500000Y-40912500D01*
G75*
G02*
X72562500Y-40850000I62500J0D01*
G01*
X73437500Y-40850000D01*
G75*
G02*
X73500000Y-40912500I0J-62500D01*
G01*
G37*
%TD.AperFunction*%
%TO.P,U1,27*%
%TO.N,Net-(J1-Pad4)*%
%TA.AperFunction,SMDPad,CuDef*%
G36*
G01*
X73500000Y-40412500D02*
X73500000Y-40537500D01*
G75*
G02*
X73437500Y-40600000I-62500J0D01*
G01*
X72562500Y-40600000D01*
G75*
G02*
X72500000Y-40537500I0J62500D01*
G01*
X72500000Y-40412500D01*
G75*
G02*
X72562500Y-40350000I62500J0D01*
G01*
X73437500Y-40350000D01*
G75*
G02*
X73500000Y-40412500I0J-62500D01*
G01*
G37*
%TD.AperFunction*%
%TO.P,U1,26*%
%TO.N,Net-(U1-Pad26)*%
%TA.AperFunction,SMDPad,CuDef*%
G36*
G01*
X73500000Y-39912500D02*
X73500000Y-40037500D01*
G75*
G02*
X73437500Y-40100000I-62500J0D01*
G01*
X72562500Y-40100000D01*
G75*
G02*
X72500000Y-40037500I0J62500D01*
G01*
X72500000Y-39912500D01*
G75*
G02*
X72562500Y-39850000I62500J0D01*
G01*
X73437500Y-39850000D01*
G75*
G02*
X73500000Y-39912500I0J-62500D01*
G01*
G37*
%TD.AperFunction*%
%TO.P,U1,25*%
%TO.N,Net-(U1-Pad25)*%
%TA.AperFunction,SMDPad,CuDef*%
G36*
G01*
X73500000Y-39412500D02*
X73500000Y-39537500D01*
G75*
G02*
X73437500Y-39600000I-62500J0D01*
G01*
X72562500Y-39600000D01*
G75*
G02*
X72500000Y-39537500I0J62500D01*
G01*
X72500000Y-39412500D01*
G75*
G02*
X72562500Y-39350000I62500J0D01*
G01*
X73437500Y-39350000D01*
G75*
G02*
X73500000Y-39412500I0J-62500D01*
G01*
G37*
%TD.AperFunction*%
%TO.P,U1,24*%
%TO.N,Net-(U1-Pad24)*%
%TA.AperFunction,SMDPad,CuDef*%
G36*
G01*
X73500000Y-38912500D02*
X73500000Y-39037500D01*
G75*
G02*
X73437500Y-39100000I-62500J0D01*
G01*
X72562500Y-39100000D01*
G75*
G02*
X72500000Y-39037500I0J62500D01*
G01*
X72500000Y-38912500D01*
G75*
G02*
X72562500Y-38850000I62500J0D01*
G01*
X73437500Y-38850000D01*
G75*
G02*
X73500000Y-38912500I0J-62500D01*
G01*
G37*
%TD.AperFunction*%
%TO.P,U1,23*%
%TO.N,+3V3*%
%TA.AperFunction,SMDPad,CuDef*%
G36*
G01*
X73500000Y-38412500D02*
X73500000Y-38537500D01*
G75*
G02*
X73437500Y-38600000I-62500J0D01*
G01*
X72562500Y-38600000D01*
G75*
G02*
X72500000Y-38537500I0J62500D01*
G01*
X72500000Y-38412500D01*
G75*
G02*
X72562500Y-38350000I62500J0D01*
G01*
X73437500Y-38350000D01*
G75*
G02*
X73500000Y-38412500I0J-62500D01*
G01*
G37*
%TD.AperFunction*%
%TO.P,U1,22*%
%TO.N,Net-(U1-Pad22)*%
%TA.AperFunction,SMDPad,CuDef*%
G36*
G01*
X73500000Y-37912500D02*
X73500000Y-38037500D01*
G75*
G02*
X73437500Y-38100000I-62500J0D01*
G01*
X72562500Y-38100000D01*
G75*
G02*
X72500000Y-38037500I0J62500D01*
G01*
X72500000Y-37912500D01*
G75*
G02*
X72562500Y-37850000I62500J0D01*
G01*
X73437500Y-37850000D01*
G75*
G02*
X73500000Y-37912500I0J-62500D01*
G01*
G37*
%TD.AperFunction*%
%TO.P,U1,21*%
%TO.N,Net-(U1-Pad21)*%
%TA.AperFunction,SMDPad,CuDef*%
G36*
G01*
X73500000Y-37412500D02*
X73500000Y-37537500D01*
G75*
G02*
X73437500Y-37600000I-62500J0D01*
G01*
X72562500Y-37600000D01*
G75*
G02*
X72500000Y-37537500I0J62500D01*
G01*
X72500000Y-37412500D01*
G75*
G02*
X72562500Y-37350000I62500J0D01*
G01*
X73437500Y-37350000D01*
G75*
G02*
X73500000Y-37412500I0J-62500D01*
G01*
G37*
%TD.AperFunction*%
%TO.P,U1,20*%
%TO.N,Net-(U1-Pad20)*%
%TA.AperFunction,SMDPad,CuDef*%
G36*
G01*
X73900000Y-36262500D02*
X73900000Y-37137500D01*
G75*
G02*
X73837500Y-37200000I-62500J0D01*
G01*
X73712500Y-37200000D01*
G75*
G02*
X73650000Y-37137500I0J62500D01*
G01*
X73650000Y-36262500D01*
G75*
G02*
X73712500Y-36200000I62500J0D01*
G01*
X73837500Y-36200000D01*
G75*
G02*
X73900000Y-36262500I0J-62500D01*
G01*
G37*
%TD.AperFunction*%
%TO.P,U1,19*%
%TO.N,Net-(J4-Pad2)*%
%TA.AperFunction,SMDPad,CuDef*%
G36*
G01*
X74400000Y-36262500D02*
X74400000Y-37137500D01*
G75*
G02*
X74337500Y-37200000I-62500J0D01*
G01*
X74212500Y-37200000D01*
G75*
G02*
X74150000Y-37137500I0J62500D01*
G01*
X74150000Y-36262500D01*
G75*
G02*
X74212500Y-36200000I62500J0D01*
G01*
X74337500Y-36200000D01*
G75*
G02*
X74400000Y-36262500I0J-62500D01*
G01*
G37*
%TD.AperFunction*%
%TO.P,U1,18*%
%TO.N,GND*%
%TA.AperFunction,SMDPad,CuDef*%
G36*
G01*
X74900000Y-36262500D02*
X74900000Y-37137500D01*
G75*
G02*
X74837500Y-37200000I-62500J0D01*
G01*
X74712500Y-37200000D01*
G75*
G02*
X74650000Y-37137500I0J62500D01*
G01*
X74650000Y-36262500D01*
G75*
G02*
X74712500Y-36200000I62500J0D01*
G01*
X74837500Y-36200000D01*
G75*
G02*
X74900000Y-36262500I0J-62500D01*
G01*
G37*
%TD.AperFunction*%
%TO.P,U1,17*%
%TA.AperFunction,SMDPad,CuDef*%
G36*
G01*
X75400000Y-36262500D02*
X75400000Y-37137500D01*
G75*
G02*
X75337500Y-37200000I-62500J0D01*
G01*
X75212500Y-37200000D01*
G75*
G02*
X75150000Y-37137500I0J62500D01*
G01*
X75150000Y-36262500D01*
G75*
G02*
X75212500Y-36200000I62500J0D01*
G01*
X75337500Y-36200000D01*
G75*
G02*
X75400000Y-36262500I0J-62500D01*
G01*
G37*
%TD.AperFunction*%
%TO.P,U1,16*%
%TA.AperFunction,SMDPad,CuDef*%
G36*
G01*
X75900000Y-36262500D02*
X75900000Y-37137500D01*
G75*
G02*
X75837500Y-37200000I-62500J0D01*
G01*
X75712500Y-37200000D01*
G75*
G02*
X75650000Y-37137500I0J62500D01*
G01*
X75650000Y-36262500D01*
G75*
G02*
X75712500Y-36200000I62500J0D01*
G01*
X75837500Y-36200000D01*
G75*
G02*
X75900000Y-36262500I0J-62500D01*
G01*
G37*
%TD.AperFunction*%
%TO.P,U1,15*%
%TO.N,Net-(C16-Pad1)*%
%TA.AperFunction,SMDPad,CuDef*%
G36*
G01*
X76400000Y-36262500D02*
X76400000Y-37137500D01*
G75*
G02*
X76337500Y-37200000I-62500J0D01*
G01*
X76212500Y-37200000D01*
G75*
G02*
X76150000Y-37137500I0J62500D01*
G01*
X76150000Y-36262500D01*
G75*
G02*
X76212500Y-36200000I62500J0D01*
G01*
X76337500Y-36200000D01*
G75*
G02*
X76400000Y-36262500I0J-62500D01*
G01*
G37*
%TD.AperFunction*%
%TO.P,U1,14*%
%TO.N,Net-(C15-Pad1)*%
%TA.AperFunction,SMDPad,CuDef*%
G36*
G01*
X76900000Y-36262500D02*
X76900000Y-37137500D01*
G75*
G02*
X76837500Y-37200000I-62500J0D01*
G01*
X76712500Y-37200000D01*
G75*
G02*
X76650000Y-37137500I0J62500D01*
G01*
X76650000Y-36262500D01*
G75*
G02*
X76712500Y-36200000I62500J0D01*
G01*
X76837500Y-36200000D01*
G75*
G02*
X76900000Y-36262500I0J-62500D01*
G01*
G37*
%TD.AperFunction*%
%TO.P,U1,13*%
%TO.N,Net-(U1-Pad13)*%
%TA.AperFunction,SMDPad,CuDef*%
G36*
G01*
X77400000Y-36262500D02*
X77400000Y-37137500D01*
G75*
G02*
X77337500Y-37200000I-62500J0D01*
G01*
X77212500Y-37200000D01*
G75*
G02*
X77150000Y-37137500I0J62500D01*
G01*
X77150000Y-36262500D01*
G75*
G02*
X77212500Y-36200000I62500J0D01*
G01*
X77337500Y-36200000D01*
G75*
G02*
X77400000Y-36262500I0J-62500D01*
G01*
G37*
%TD.AperFunction*%
%TO.P,U1,12*%
%TO.N,Net-(U1-Pad12)*%
%TA.AperFunction,SMDPad,CuDef*%
G36*
G01*
X77900000Y-36262500D02*
X77900000Y-37137500D01*
G75*
G02*
X77837500Y-37200000I-62500J0D01*
G01*
X77712500Y-37200000D01*
G75*
G02*
X77650000Y-37137500I0J62500D01*
G01*
X77650000Y-36262500D01*
G75*
G02*
X77712500Y-36200000I62500J0D01*
G01*
X77837500Y-36200000D01*
G75*
G02*
X77900000Y-36262500I0J-62500D01*
G01*
G37*
%TD.AperFunction*%
%TO.P,U1,11*%
%TO.N,GND*%
%TA.AperFunction,SMDPad,CuDef*%
G36*
G01*
X78400000Y-36262500D02*
X78400000Y-37137500D01*
G75*
G02*
X78337500Y-37200000I-62500J0D01*
G01*
X78212500Y-37200000D01*
G75*
G02*
X78150000Y-37137500I0J62500D01*
G01*
X78150000Y-36262500D01*
G75*
G02*
X78212500Y-36200000I62500J0D01*
G01*
X78337500Y-36200000D01*
G75*
G02*
X78400000Y-36262500I0J-62500D01*
G01*
G37*
%TD.AperFunction*%
%TO.P,U1,10*%
%TO.N,Net-(C8-Pad1)*%
%TA.AperFunction,SMDPad,CuDef*%
G36*
G01*
X79550000Y-37412500D02*
X79550000Y-37537500D01*
G75*
G02*
X79487500Y-37600000I-62500J0D01*
G01*
X78612500Y-37600000D01*
G75*
G02*
X78550000Y-37537500I0J62500D01*
G01*
X78550000Y-37412500D01*
G75*
G02*
X78612500Y-37350000I62500J0D01*
G01*
X79487500Y-37350000D01*
G75*
G02*
X79550000Y-37412500I0J-62500D01*
G01*
G37*
%TD.AperFunction*%
%TO.P,U1,9*%
%TO.N,Net-(C10-Pad1)*%
%TA.AperFunction,SMDPad,CuDef*%
G36*
G01*
X79550000Y-37912500D02*
X79550000Y-38037500D01*
G75*
G02*
X79487500Y-38100000I-62500J0D01*
G01*
X78612500Y-38100000D01*
G75*
G02*
X78550000Y-38037500I0J62500D01*
G01*
X78550000Y-37912500D01*
G75*
G02*
X78612500Y-37850000I62500J0D01*
G01*
X79487500Y-37850000D01*
G75*
G02*
X79550000Y-37912500I0J-62500D01*
G01*
G37*
%TD.AperFunction*%
%TO.P,U1,8*%
%TO.N,+3V3*%
%TA.AperFunction,SMDPad,CuDef*%
G36*
G01*
X79550000Y-38412500D02*
X79550000Y-38537500D01*
G75*
G02*
X79487500Y-38600000I-62500J0D01*
G01*
X78612500Y-38600000D01*
G75*
G02*
X78550000Y-38537500I0J62500D01*
G01*
X78550000Y-38412500D01*
G75*
G02*
X78612500Y-38350000I62500J0D01*
G01*
X79487500Y-38350000D01*
G75*
G02*
X79550000Y-38412500I0J-62500D01*
G01*
G37*
%TD.AperFunction*%
%TO.P,U1,7*%
%TO.N,GND*%
%TA.AperFunction,SMDPad,CuDef*%
G36*
G01*
X79550000Y-38912500D02*
X79550000Y-39037500D01*
G75*
G02*
X79487500Y-39100000I-62500J0D01*
G01*
X78612500Y-39100000D01*
G75*
G02*
X78550000Y-39037500I0J62500D01*
G01*
X78550000Y-38912500D01*
G75*
G02*
X78612500Y-38850000I62500J0D01*
G01*
X79487500Y-38850000D01*
G75*
G02*
X79550000Y-38912500I0J-62500D01*
G01*
G37*
%TD.AperFunction*%
%TO.P,U1,6*%
%TO.N,Net-(L2-Pad2)*%
%TA.AperFunction,SMDPad,CuDef*%
G36*
G01*
X79550000Y-39412500D02*
X79550000Y-39537500D01*
G75*
G02*
X79487500Y-39600000I-62500J0D01*
G01*
X78612500Y-39600000D01*
G75*
G02*
X78550000Y-39537500I0J62500D01*
G01*
X78550000Y-39412500D01*
G75*
G02*
X78612500Y-39350000I62500J0D01*
G01*
X79487500Y-39350000D01*
G75*
G02*
X79550000Y-39412500I0J-62500D01*
G01*
G37*
%TD.AperFunction*%
%TO.P,U1,5*%
%TO.N,+3V3*%
%TA.AperFunction,SMDPad,CuDef*%
G36*
G01*
X79550000Y-39912500D02*
X79550000Y-40037500D01*
G75*
G02*
X79487500Y-40100000I-62500J0D01*
G01*
X78612500Y-40100000D01*
G75*
G02*
X78550000Y-40037500I0J62500D01*
G01*
X78550000Y-39912500D01*
G75*
G02*
X78612500Y-39850000I62500J0D01*
G01*
X79487500Y-39850000D01*
G75*
G02*
X79550000Y-39912500I0J-62500D01*
G01*
G37*
%TD.AperFunction*%
%TO.P,U1,4*%
%TO.N,Net-(L1-Pad1)*%
%TA.AperFunction,SMDPad,CuDef*%
G36*
G01*
X79550000Y-40412500D02*
X79550000Y-40537500D01*
G75*
G02*
X79487500Y-40600000I-62500J0D01*
G01*
X78612500Y-40600000D01*
G75*
G02*
X78550000Y-40537500I0J62500D01*
G01*
X78550000Y-40412500D01*
G75*
G02*
X78612500Y-40350000I62500J0D01*
G01*
X79487500Y-40350000D01*
G75*
G02*
X79550000Y-40412500I0J-62500D01*
G01*
G37*
%TD.AperFunction*%
%TO.P,U1,3*%
%TO.N,GND*%
%TA.AperFunction,SMDPad,CuDef*%
G36*
G01*
X79550000Y-40912500D02*
X79550000Y-41037500D01*
G75*
G02*
X79487500Y-41100000I-62500J0D01*
G01*
X78612500Y-41100000D01*
G75*
G02*
X78550000Y-41037500I0J62500D01*
G01*
X78550000Y-40912500D01*
G75*
G02*
X78612500Y-40850000I62500J0D01*
G01*
X79487500Y-40850000D01*
G75*
G02*
X79550000Y-40912500I0J-62500D01*
G01*
G37*
%TD.AperFunction*%
%TO.P,U1,2*%
%TO.N,Net-(U1-Pad2)*%
%TA.AperFunction,SMDPad,CuDef*%
G36*
G01*
X79550000Y-41412500D02*
X79550000Y-41537500D01*
G75*
G02*
X79487500Y-41600000I-62500J0D01*
G01*
X78612500Y-41600000D01*
G75*
G02*
X78550000Y-41537500I0J62500D01*
G01*
X78550000Y-41412500D01*
G75*
G02*
X78612500Y-41350000I62500J0D01*
G01*
X79487500Y-41350000D01*
G75*
G02*
X79550000Y-41412500I0J-62500D01*
G01*
G37*
%TD.AperFunction*%
%TO.P,U1,1*%
%TO.N,GND*%
%TA.AperFunction,SMDPad,CuDef*%
G36*
G01*
X79550000Y-41912500D02*
X79550000Y-42037500D01*
G75*
G02*
X79487500Y-42100000I-62500J0D01*
G01*
X78612500Y-42100000D01*
G75*
G02*
X78550000Y-42037500I0J62500D01*
G01*
X78550000Y-41912500D01*
G75*
G02*
X78612500Y-41850000I62500J0D01*
G01*
X79487500Y-41850000D01*
G75*
G02*
X79550000Y-41912500I0J-62500D01*
G01*
G37*
%TD.AperFunction*%
%TD*%
D26*
%TO.P,J3,4*%
%TO.N,Net-(J1-Pad4)*%
X69000000Y-39000000D03*
%TO.P,J3,3*%
%TO.N,Net-(J1-Pad3)*%
X71000000Y-39000000D03*
%TO.P,J3,2*%
%TO.N,+5V*%
X69000000Y-41000000D03*
D27*
%TO.P,J3,1*%
%TO.N,GND*%
X71000000Y-41000000D03*
%TD*%
D19*
%TO.P,D1,2*%
%TO.N,Net-(D1-Pad2)*%
X59270000Y-28000000D03*
D20*
%TO.P,D1,1*%
%TO.N,GND*%
X56730000Y-28000000D03*
%TD*%
D19*
%TO.P,D2,2*%
%TO.N,Net-(D2-Pad2)*%
X59270000Y-34000000D03*
D20*
%TO.P,D2,1*%
%TO.N,GND*%
X56730000Y-34000000D03*
%TD*%
D28*
%TO.P,Y1,1*%
%TO.N,Net-(C15-Pad1)*%
X75500000Y-32325000D03*
%TO.P,Y1,4*%
%TO.N,GND*%
X75500000Y-33925000D03*
%TO.P,Y1,3*%
%TO.N,Net-(C16-Pad1)*%
X72800000Y-33925000D03*
%TO.P,Y1,2*%
%TO.N,GND*%
X72800000Y-32325000D03*
%TD*%
D29*
%TO.N,GND*%
X77300000Y-45700000D03*
X71200000Y-45700000D03*
X68700000Y-32400000D03*
X83575000Y-32800000D03*
X83575000Y-47200000D03*
X70800000Y-32425000D03*
X77500000Y-34500000D03*
X85600000Y-40000000D03*
X81600000Y-41000000D03*
X62900000Y-45500000D03*
%TO.N,+3V3*%
X73300000Y-45700000D03*
X75225000Y-45700000D03*
%TO.N,Net-(C8-Pad1)*%
X78950810Y-35847094D03*
X75700000Y-28500000D03*
%TO.N,+5V*%
X79417724Y-44597468D03*
%TO.N,Net-(C10-Pad1)*%
X77700000Y-26600000D03*
X79600000Y-34500000D03*
%TD*%
D30*
%TO.N,GND*%
X76775000Y-38975000D02*
X76025000Y-39725000D01*
X79050000Y-38975000D02*
X76775000Y-38975000D01*
X77275000Y-40975000D02*
X76025000Y-39725000D01*
X79050000Y-40975000D02*
X77275000Y-40975000D01*
X78224990Y-41924990D02*
X77525000Y-41225000D01*
X78548022Y-41975000D02*
X78498012Y-41924990D01*
X78498012Y-41924990D02*
X78224990Y-41924990D01*
X79050000Y-41975000D02*
X78548022Y-41975000D01*
D31*
X85250000Y-31125000D02*
X83575000Y-32800000D01*
X85500000Y-31075000D02*
X85250000Y-31075000D01*
X83700000Y-47200000D02*
X85500000Y-49000000D01*
X72625000Y-32425000D02*
X72800000Y-32600000D01*
D30*
X75775000Y-39475000D02*
X76025000Y-39725000D01*
X75775000Y-36700000D02*
X75775000Y-39475000D01*
X75275000Y-38975000D02*
X76025000Y-39725000D01*
X75275000Y-36700000D02*
X75275000Y-38975000D01*
X74775000Y-38475000D02*
X76025000Y-39725000D01*
X74775000Y-36700000D02*
X74775000Y-38475000D01*
X78225010Y-37298012D02*
X77525000Y-37998022D01*
X78225010Y-37251968D02*
X78225010Y-37298012D01*
X78275000Y-37201978D02*
X78225010Y-37251968D01*
X77525000Y-37998022D02*
X77525000Y-38225000D01*
X78275000Y-36700000D02*
X78275000Y-37201978D01*
D31*
X79400000Y-32600000D02*
X77500000Y-34500000D01*
X83575000Y-47200000D02*
X83700000Y-47200000D01*
X72700000Y-32425000D02*
X72800000Y-32325000D01*
X76925000Y-33925000D02*
X77500000Y-34500000D01*
X75500000Y-33925000D02*
X76925000Y-33925000D01*
X70800000Y-32425000D02*
X72700000Y-32425000D01*
D30*
X81500000Y-41000000D02*
X81600000Y-41000000D01*
D31*
X89000000Y-40000000D02*
X85600000Y-40000000D01*
X85600000Y-40000000D02*
X85600000Y-41100000D01*
X85600000Y-38900000D02*
X85600000Y-40000000D01*
X66250000Y-51940000D02*
X66190000Y-52000000D01*
X66250000Y-49400000D02*
X66250000Y-51940000D01*
X62900000Y-45500000D02*
X63050000Y-45500000D01*
X78375000Y-46675000D02*
X79400000Y-46675000D01*
X77300000Y-45600000D02*
X78375000Y-46675000D01*
X65700000Y-48900000D02*
X66250000Y-48900000D01*
X66190000Y-48960000D02*
X66250000Y-48900000D01*
X66190000Y-52000000D02*
X66190000Y-48960000D01*
%TO.N,Net-(A1-Pad1)*%
X85500000Y-43000000D02*
X87000000Y-43000000D01*
%TO.N,Net-(A1-Pad3)*%
X85500000Y-37000000D02*
X87000000Y-37000000D01*
%TO.N,Net-(C3-Pad1)*%
X81686072Y-45068568D02*
X83687500Y-43067140D01*
X81500000Y-45068568D02*
X81686072Y-45068568D01*
X81500000Y-45068568D02*
X81500000Y-47200000D01*
%TO.N,Net-(C4-Pad2)*%
X81686072Y-34931428D02*
X83687500Y-36932856D01*
X81500000Y-34931428D02*
X81686072Y-34931428D01*
X81500000Y-32800000D02*
X81500000Y-34931428D01*
X80675000Y-31250000D02*
X78350000Y-31250000D01*
X81500000Y-32800000D02*
X81500000Y-32075000D01*
X81500000Y-32075000D02*
X80675000Y-31250000D01*
X78350000Y-31250000D02*
X77700000Y-30600000D01*
D30*
%TO.N,+3V3*%
X77775000Y-42750000D02*
X77775000Y-44125000D01*
X81874272Y-44018558D02*
X80581442Y-44018558D01*
X82550000Y-43342830D02*
X81874272Y-44018558D01*
X80581442Y-44018558D02*
X80581442Y-45318558D01*
X80581442Y-45318558D02*
X80250000Y-45650000D01*
X83462500Y-38962500D02*
X83525000Y-38900000D01*
X81662500Y-38900000D02*
X81600000Y-38962500D01*
X79050000Y-39975000D02*
X83525000Y-39975000D01*
X82550000Y-42075000D02*
X82550000Y-43342830D01*
X83525000Y-41100000D02*
X82550000Y-42075000D01*
X83525000Y-39975000D02*
X83525000Y-41100000D01*
X83525000Y-38900000D02*
X83525000Y-39975000D01*
X81900680Y-36007846D02*
X80792154Y-36007846D01*
X80480022Y-36319978D02*
X80480021Y-37729411D01*
X80792154Y-36007846D02*
X80480022Y-36319978D01*
X79734432Y-38475000D02*
X79050000Y-38475000D01*
X80480021Y-37729411D02*
X79734432Y-38475000D01*
X82496417Y-37871417D02*
X82496417Y-36603583D01*
X82496417Y-36603583D02*
X81900680Y-36007846D01*
X82496417Y-37871417D02*
X83525000Y-38900000D01*
X81600000Y-38767834D02*
X82496417Y-37871417D01*
X81600000Y-38962500D02*
X81600000Y-38767834D01*
X78349990Y-45349990D02*
X78349990Y-44699990D01*
X80250000Y-45650000D02*
X78650000Y-45650000D01*
X78349990Y-44699990D02*
X77775000Y-44125000D01*
X78650000Y-45650000D02*
X78349990Y-45349990D01*
X75674310Y-45700000D02*
X75225000Y-45700000D01*
X75225000Y-45700000D02*
X75225000Y-45700000D01*
X73000000Y-38475000D02*
X72298002Y-38475000D01*
X68700000Y-36200000D02*
X68600000Y-36300000D01*
X68700000Y-34500000D02*
X68700000Y-36200000D01*
X71148012Y-37325010D02*
X72161501Y-38338499D01*
X69625010Y-37325010D02*
X71148012Y-37325010D01*
X68600000Y-36300000D02*
X69625010Y-37325010D01*
X72298002Y-38475000D02*
X72161501Y-38338499D01*
X75225000Y-44675000D02*
X75225000Y-45700000D01*
X75775000Y-44125000D02*
X75225000Y-44675000D01*
X77775000Y-44125000D02*
X75775000Y-44125000D01*
X73049990Y-44649990D02*
X73300000Y-44900000D01*
X68325019Y-43874999D02*
X70075019Y-43874999D01*
X63975010Y-39524990D02*
X68325019Y-43874999D01*
X63975010Y-32124990D02*
X63975010Y-39524990D01*
X73300000Y-44900000D02*
X73300000Y-45700000D01*
X68263190Y-34500000D02*
X65638180Y-31874990D01*
X65638180Y-31874990D02*
X64225010Y-31874990D01*
X64225010Y-31874990D02*
X63975010Y-32124990D01*
X70850010Y-44649990D02*
X73049990Y-44649990D01*
X70075019Y-43874999D02*
X70850010Y-44649990D01*
X68700000Y-34500000D02*
X68263190Y-34500000D01*
D31*
%TO.N,Net-(C8-Pad2)*%
X77700000Y-28600000D02*
X75700000Y-30600000D01*
D30*
%TO.N,Net-(C8-Pad1)*%
X79516495Y-35847094D02*
X78950810Y-35847094D01*
X79580001Y-35910600D02*
X79516495Y-35847094D01*
X79294002Y-37475000D02*
X79580001Y-37189001D01*
X79050000Y-37475000D02*
X79294002Y-37475000D01*
X79580001Y-37189001D02*
X79580001Y-35910600D01*
D31*
X75700000Y-28525000D02*
X75700000Y-26600000D01*
D30*
%TO.N,+5V*%
X68750000Y-51980000D02*
X68730000Y-52000000D01*
X68750000Y-49400000D02*
X68750000Y-51980000D01*
X68750000Y-49350000D02*
X68750000Y-49400000D01*
X78275000Y-42750000D02*
X78275000Y-43454744D01*
X78275000Y-43454744D02*
X79417724Y-44597468D01*
X68730000Y-48920000D02*
X68750000Y-48900000D01*
X68730000Y-52000000D02*
X68730000Y-48920000D01*
X68750000Y-46650000D02*
X68750000Y-48900000D01*
X64900000Y-45500000D02*
X67600000Y-45500000D01*
X67600000Y-45500000D02*
X68350000Y-46250000D01*
X68350000Y-46250000D02*
X68750000Y-46650000D01*
%TO.N,Net-(C15-Pad1)*%
X77400000Y-32325000D02*
X77500000Y-32425000D01*
X75500000Y-32325000D02*
X77400000Y-32325000D01*
X76775000Y-36700000D02*
X76775000Y-36015567D01*
X74336410Y-34825000D02*
X74224999Y-34713589D01*
X76775000Y-36015567D02*
X75584433Y-34825000D01*
X74300000Y-32325000D02*
X75500000Y-32325000D01*
X75584433Y-34825000D02*
X74336410Y-34825000D01*
X74224999Y-34713589D02*
X74224999Y-32400001D01*
X74224999Y-32400001D02*
X74300000Y-32325000D01*
%TO.N,Net-(C16-Pad1)*%
X71375000Y-33925000D02*
X70800000Y-34500000D01*
X72800000Y-33925000D02*
X71375000Y-33925000D01*
X76275000Y-36151978D02*
X75398033Y-35275011D01*
X76275000Y-36700000D02*
X76275000Y-36151978D01*
X74150011Y-35275011D02*
X72800000Y-33925000D01*
X75398033Y-35275011D02*
X74150011Y-35275011D01*
%TO.N,Net-(L2-Pad2)*%
X79875010Y-39198012D02*
X79598022Y-39475000D01*
X79875010Y-39061800D02*
X79875010Y-39198012D01*
X81387500Y-37549310D02*
X79875010Y-39061800D01*
X79598022Y-39475000D02*
X79050000Y-39475000D01*
X81387500Y-36932856D02*
X81387500Y-37549310D01*
%TO.N,Net-(L1-Pad1)*%
X81387500Y-43067140D02*
X80449990Y-42129630D01*
X80449990Y-42129630D02*
X80449990Y-41326968D01*
X80449990Y-41326968D02*
X79598022Y-40475000D01*
X79598022Y-40475000D02*
X79050000Y-40475000D01*
%TO.N,Net-(J1-Pad4)*%
X72360002Y-40475000D02*
X71860003Y-39975001D01*
X69079412Y-39000000D02*
X69000000Y-39000000D01*
X71860003Y-39975001D02*
X70054413Y-39975001D01*
X73000000Y-40475000D02*
X72360002Y-40475000D01*
X70054413Y-39975001D02*
X69079412Y-39000000D01*
X73750000Y-51940000D02*
X73810000Y-52000000D01*
X73750000Y-49400000D02*
X73750000Y-51940000D01*
X73810000Y-48960000D02*
X73750000Y-48900000D01*
X73810000Y-52000000D02*
X73810000Y-48960000D01*
%TO.N,Net-(J1-Pad3)*%
X68531999Y-39975001D02*
X68024999Y-39468001D01*
X69418003Y-39975001D02*
X68531999Y-39975001D01*
X68024999Y-39468001D02*
X68024999Y-38531999D01*
X69975001Y-40531999D02*
X69418003Y-39975001D01*
X69975001Y-41860003D02*
X69975001Y-40531999D01*
X70024999Y-38024999D02*
X71000000Y-39000000D01*
X70089999Y-41975001D02*
X69975001Y-41860003D01*
X71975001Y-41910001D02*
X71910001Y-41975001D01*
X72451978Y-40975000D02*
X71975001Y-41451977D01*
X71910001Y-41975001D02*
X70089999Y-41975001D01*
X73000000Y-40975000D02*
X72451978Y-40975000D01*
X71975001Y-41451977D02*
X71975001Y-41910001D01*
X68024999Y-38531999D02*
X68531999Y-38024999D01*
X68531999Y-38024999D02*
X70024999Y-38024999D01*
X71250000Y-51980000D02*
X71270000Y-52000000D01*
X71250000Y-49400000D02*
X71250000Y-51980000D01*
X71270000Y-48920000D02*
X71250000Y-48900000D01*
X71270000Y-52000000D02*
X71270000Y-48920000D01*
%TO.N,Net-(D1-Pad2)*%
X63050000Y-32900000D02*
X60700000Y-32900000D01*
X59270000Y-31470000D02*
X59270000Y-28000000D01*
X60700000Y-32900000D02*
X59270000Y-31470000D01*
%TO.N,Net-(D2-Pad2)*%
X63050000Y-35200000D02*
X62400000Y-35200000D01*
X61200000Y-34000000D02*
X59270000Y-34000000D01*
X62400000Y-35200000D02*
X61200000Y-34000000D01*
%TO.N,Net-(D3-Pad2)*%
X63050000Y-37500000D02*
X60700000Y-37500000D01*
X59270000Y-38930000D02*
X59270000Y-40000000D01*
X60700000Y-37500000D02*
X59270000Y-38930000D01*
%TO.N,Net-(R5-Pad1)*%
X62900000Y-43500000D02*
X64900000Y-43500000D01*
X64900000Y-43500000D02*
X65300000Y-43500000D01*
X74312490Y-44887510D02*
X74312490Y-46313200D01*
X76898033Y-43674989D02*
X75525011Y-43674989D01*
X75525011Y-43674989D02*
X74312490Y-44887510D01*
X77275000Y-43298022D02*
X76898033Y-43674989D01*
X77275000Y-42750000D02*
X77275000Y-43298022D01*
X69911400Y-44411400D02*
X70200000Y-44700000D01*
X67313610Y-43500000D02*
X68225010Y-44411400D01*
X68225010Y-44411400D02*
X69911400Y-44411400D01*
X64900000Y-43500000D02*
X67313610Y-43500000D01*
X73875680Y-46750010D02*
X74312490Y-46313200D01*
X70649320Y-46750010D02*
X73875680Y-46750010D01*
X70200000Y-46300690D02*
X70649320Y-46750010D01*
X70200000Y-46200000D02*
X70200000Y-46300690D01*
X70200000Y-44700000D02*
X70200000Y-46200000D01*
%TO.N,Net-(R7-Pad1)*%
X73775000Y-42994002D02*
X73489001Y-43280001D01*
X68930251Y-42457431D02*
X66850000Y-40377178D01*
X66850000Y-40377178D02*
X66850000Y-34700000D01*
X73489001Y-43280001D02*
X72560999Y-43280001D01*
X66850000Y-34700000D02*
X65050000Y-32900000D01*
X71738429Y-42457431D02*
X68930251Y-42457431D01*
X73775000Y-42750000D02*
X73775000Y-42994002D01*
X72560999Y-43280001D02*
X71738429Y-42457431D01*
%TO.N,Net-(C10-Pad1)*%
X79050000Y-37975000D02*
X79598022Y-37975000D01*
X79598022Y-37975000D02*
X80030012Y-37543010D01*
X80030012Y-34930012D02*
X79600000Y-34500000D01*
X80030012Y-35530012D02*
X80030012Y-34930012D01*
X80030012Y-37543010D02*
X80030012Y-35530012D01*
%TO.N,Net-(C1-Pad1)*%
X85500000Y-44962500D02*
X85500000Y-46875000D01*
X83631068Y-45012500D02*
X83575000Y-45068568D01*
X85500000Y-45012500D02*
X83631068Y-45012500D01*
D31*
X83575000Y-45068568D02*
X85431432Y-45068568D01*
X85500000Y-45000000D02*
X85431432Y-45068568D01*
X85500000Y-45000000D02*
X85500000Y-46962500D01*
D30*
%TO.N,Net-(C2-Pad2)*%
X85500000Y-33150000D02*
X85500000Y-35062500D01*
X83756072Y-35112500D02*
X83575000Y-34931428D01*
X85500000Y-35112500D02*
X83756072Y-35112500D01*
D31*
X85500000Y-33037500D02*
X85500000Y-35000000D01*
X85431428Y-34931428D02*
X85500000Y-35000000D01*
X83575000Y-34931428D02*
X85431428Y-34931428D01*
D30*
%TO.N,Net-(R8-Pad1)*%
X72374589Y-43730002D02*
X71552029Y-42907442D01*
X71552029Y-42907442D02*
X68743851Y-42907442D01*
X65650000Y-35200000D02*
X65050000Y-35200000D01*
X74275000Y-42750000D02*
X74275000Y-43298020D01*
X73843018Y-43730002D02*
X72374589Y-43730002D01*
X74275000Y-43298020D02*
X73843018Y-43730002D01*
X66225000Y-40388589D02*
X66225000Y-35775000D01*
X68743851Y-42907442D02*
X66225000Y-40388589D01*
X66225000Y-35775000D02*
X65650000Y-35200000D01*
%TO.N,Net-(R9-Pad1)*%
X65050000Y-39950000D02*
X65050000Y-37500000D01*
X74775000Y-43434430D02*
X74029417Y-44180013D01*
X68457453Y-43357453D02*
X65050000Y-39950000D01*
X71153017Y-44180013D02*
X70330457Y-43357453D01*
X74775000Y-42750000D02*
X74775000Y-43434430D01*
X74029417Y-44180013D02*
X71153017Y-44180013D01*
X70330457Y-43357453D02*
X68457453Y-43357453D01*
%TO.N,Net-(J4-Pad2)*%
X74275000Y-36151978D02*
X73923022Y-35800000D01*
X74275000Y-36700000D02*
X74275000Y-36151978D01*
X71100000Y-35800000D02*
X70600000Y-36300000D01*
X72100000Y-35800000D02*
X71100000Y-35800000D01*
X73923022Y-35800000D02*
X72100000Y-35800000D01*
X69750000Y-32150000D02*
X69750000Y-35450000D01*
X69750000Y-35450000D02*
X70600000Y-36300000D01*
X69750000Y-32150000D02*
X69750000Y-31650000D01*
X69750000Y-31650000D02*
X69750000Y-31550000D01*
X69750000Y-31550000D02*
X70000000Y-31300000D01*
X70000000Y-31300000D02*
X70000000Y-25800000D01*
X70000000Y-25800000D02*
X70050000Y-25750000D01*
X70050000Y-25750000D02*
X73250000Y-25750000D01*
X66750000Y-25750000D02*
X70050000Y-25750000D01*
%TD*%
M02*
