%TF.GenerationSoftware,KiCad,Pcbnew,(6.0.2-0)*%
%TF.CreationDate,2022-02-18T14:13:14+00:00*%
%TF.ProjectId,PN532,504e3533-322e-46b6-9963-61645f706362,7*%
%TF.SameCoordinates,Original*%
%TF.FileFunction,Copper,L2,Bot*%
%TF.FilePolarity,Positive*%
%FSLAX46Y46*%
G04 Gerber Fmt 4.6, Leading zero omitted, Abs format (unit mm)*
G04 Created by KiCad (PCBNEW (6.0.2-0)) date 2022-02-18 14:13:14*
%MOMM*%
%LPD*%
G01*
G04 APERTURE LIST*
G04 Aperture macros list*
%AMRoundRect*
0 Rectangle with rounded corners*
0 $1 Rounding radius*
0 $2 $3 $4 $5 $6 $7 $8 $9 X,Y pos of 4 corners*
0 Add a 4 corners polygon primitive as box body*
4,1,4,$2,$3,$4,$5,$6,$7,$8,$9,$2,$3,0*
0 Add four circle primitives for the rounded corners*
1,1,$1+$1,$2,$3*
1,1,$1+$1,$4,$5*
1,1,$1+$1,$6,$7*
1,1,$1+$1,$8,$9*
0 Add four rect primitives between the rounded corners*
20,1,$1+$1,$2,$3,$4,$5,0*
20,1,$1+$1,$4,$5,$6,$7,0*
20,1,$1+$1,$6,$7,$8,$9,0*
20,1,$1+$1,$8,$9,$2,$3,0*%
%AMFreePoly0*
4,1,403,12.516062,0.231610,13.029505,0.176532,13.537726,0.085047,14.038145,-0.042381,14.528225,-0.205107,15.005479,-0.402304,15.467485,-0.632973,15.911900,-0.895942,16.336470,-1.189878,16.739039,-1.513290,17.117567,-1.864537,17.470133,-2.241837,17.794948,-2.643276,18.090364,-3.066817,18.354883,-3.510311,18.587162,-3.971510,18.786024,-4.448072,18.950459,-4.937581,19.079633,-5.437553,19.172892,-5.945451,
19.229761,-6.458699,19.249952,-6.974693,19.247482,-6.987341,19.250000,-7.000000,19.250000,-31.000000,19.231610,-31.516062,19.176532,-32.029505,19.085047,-32.537726,18.957619,-33.038145,18.794893,-33.528225,18.597696,-34.005479,18.367027,-34.467485,18.104058,-34.911900,17.810122,-35.336470,17.486710,-35.739039,17.135463,-36.117567,16.758163,-36.470133,16.356724,-36.794948,15.933183,-37.090364,15.489689,-37.354883,
15.028490,-37.587162,14.551928,-37.786024,14.062419,-37.950459,13.562447,-38.079633,13.054549,-38.172892,12.541301,-38.229761,12.025307,-38.249952,12.012659,-38.247482,12.000000,-38.250000,-12.000000,-38.250000,-12.516062,-38.231610,-13.029505,-38.176532,-13.537726,-38.085047,-14.038145,-37.957619,-14.528225,-37.794893,-15.005479,-37.597696,-15.467485,-37.367027,-15.911900,-37.104058,-16.336470,-36.810122,-16.739039,-36.486710,
-17.117567,-36.135463,-17.470133,-35.758163,-17.794948,-35.356724,-18.090364,-34.933183,-18.354883,-34.489689,-18.587162,-34.028490,-18.786024,-33.551928,-18.950459,-33.062419,-19.079633,-32.562447,-19.172892,-32.054549,-19.229761,-31.541301,-19.249952,-31.025307,-19.247482,-31.012659,-19.250000,-31.000000,-19.250000,-6.999998,-19.232524,-6.532937,-19.180193,-6.068486,-19.093300,-5.609244,-18.972330,-5.157780,-18.817961,-4.716619,
-18.631056,-4.288227,-18.412659,-3.875000,-18.163993,-3.479250,-17.886448,-3.103189,-17.581575,-2.748921,-17.251081,-2.418426,-16.896812,-2.113554,-16.520752,-1.836008,-16.125001,-1.587342,-15.711775,-1.368945,-15.283383,-1.182039,-14.842222,-1.027670,-14.390758,-0.906701,-13.931516,-0.819807,-13.467065,-0.767476,-13.000002,-0.750000,12.000000,-0.750000,12.467063,-0.767476,12.931514,-0.819807,13.390756,-0.906700,
13.842220,-1.027670,14.283381,-1.182039,14.711773,-1.368944,15.125000,-1.587341,15.520750,-1.836007,15.896811,-2.113552,16.251079,-2.418425,16.581574,-2.748919,16.886446,-3.103188,17.163992,-3.479248,17.412658,-3.874999,17.631055,-4.288225,17.817961,-4.716617,17.972330,-5.157778,18.093299,-5.609242,18.180193,-6.068484,18.232524,-6.532935,18.250000,-6.999998,18.250000,-31.000000,18.232640,-31.465509,
18.180656,-31.928432,18.094338,-32.386198,17.974164,-32.836262,17.820803,-33.276126,17.635106,-33.703346,17.418104,-34.115548,17.171005,-34.510443,16.895179,-34.885836,16.592159,-35.239643,16.263629,-35.569897,15.911414,-35.874765,15.537470,-36.152553,15.143875,-36.401717,14.732814,-36.620874,14.306573,-36.808805,13.867518,-36.964468,13.418089,-37.086996,12.960781,-37.175710,12.498137,-37.230117,12.032731,-37.249914,
12.032725,-37.249915,12.016352,-37.246747,12.000000,-37.250000,-12.000000,-37.250000,-12.467063,-37.232524,-12.931514,-37.180193,-13.390756,-37.093300,-13.842220,-36.972330,-14.283381,-36.817961,-14.711773,-36.631056,-15.125000,-36.412659,-15.520750,-36.163993,-15.896811,-35.886448,-16.251079,-35.581575,-16.581574,-35.251081,-16.886446,-34.896812,-17.163992,-34.520752,-17.412658,-34.125001,-17.631055,-33.711775,-17.817961,-33.283383,
-17.972330,-32.842222,-18.093299,-32.390758,-18.180193,-31.931516,-18.232524,-31.467065,-18.250000,-31.000002,-18.250000,-6.999998,-18.232188,-6.567901,-18.178873,-6.138733,-18.090416,-5.715410,-17.967417,-5.300803,-17.810712,-4.897726,-17.621364,-4.508915,-17.400656,-4.137007,-17.150088,-3.784526,-16.871359,-3.453864,-16.566361,-3.147264,-16.237163,-2.866807,-15.885999,-2.614397,-15.515251,-2.391745,-15.127437,-2.200363,
-14.725186,-2.041549,-14.311229,-1.916382,-13.888375,-1.825709,-13.459492,-1.770147,-13.027492,-1.750073,-13.013742,-1.752733,-13.000000,-1.750000,-3.000000,-1.750000,-2.904329,-1.769030,-2.823223,-1.823223,-2.769030,-1.904329,-2.750000,-2.000000,-2.769030,-2.095671,-2.823223,-2.176777,-2.904329,-2.230970,-3.000000,-2.250000,-13.000000,-2.250000,-13.012439,-2.247526,-13.024874,-2.250067,-13.043563,-2.246451,
-13.437804,-2.265675,-13.847401,-2.321601,-14.250591,-2.412896,-14.644327,-2.538868,-15.025632,-2.698567,-15.391623,-2.890785,-15.739534,-3.114068,-16.066733,-3.366729,-16.370749,-3.646857,-16.649281,-3.952335,-16.900225,-4.280853,-17.121683,-4.629928,-17.311982,-4.996921,-17.469682,-5.379057,-17.593591,-5.773447,-17.682773,-6.177110,-17.736553,-6.586994,-17.753713,-6.981334,-17.750000,-7.000000,-17.750000,-31.000002,
-17.753704,-31.018625,-17.736697,-31.451490,-17.683589,-31.900194,-17.595440,-32.343348,-17.472794,-32.778220,-17.316405,-33.202129,-17.127240,-33.612461,-16.906463,-34.006686,-16.655436,-34.382374,-16.375707,-34.737208,-16.069000,-35.069002,-15.737207,-35.375708,-15.382372,-35.655437,-15.006684,-35.906464,-14.612459,-36.127241,-14.202127,-36.316406,-13.778218,-36.472794,-13.343346,-36.595441,-12.900192,-36.683590,-12.451488,-36.736697,
-12.018623,-36.753704,-12.000000,-36.750000,12.000000,-36.750000,12.015061,-36.752996,12.030107,-36.749921,12.048759,-36.753530,12.480018,-36.734380,12.926965,-36.679284,13.368236,-36.589406,13.801127,-36.465297,14.222988,-36.307717,14.631234,-36.117630,15.023366,-35.896202,15.396981,-35.644787,15.749793,-35.364927,16.079639,-35.058334,16.384501,-34.726886,16.662510,-34.372615,16.911965,-33.997688,17.131337,-33.604402,
17.319283,-33.195166,17.474653,-32.772486,17.596494,-32.338951,17.684060,-31.897216,17.736815,-31.449986,17.753706,-31.018633,17.750000,-31.000000,17.750000,-7.000000,17.753704,-6.981377,17.753704,-6.981375,17.736697,-6.548510,17.683589,-6.099806,17.595440,-5.656652,17.472794,-5.221780,17.316405,-4.797871,17.127240,-4.387539,16.906463,-3.993314,16.655436,-3.617626,16.375707,-3.262792,16.069000,-2.930998,
15.737207,-2.624292,15.382372,-2.344563,15.006684,-2.093536,14.612459,-1.872759,14.202127,-1.683594,13.778218,-1.527206,13.343346,-1.404559,12.900192,-1.316410,12.451488,-1.263303,12.018623,-1.246296,12.000000,-1.250000,-13.000002,-1.250000,-13.018625,-1.246296,-13.451490,-1.263303,-13.900194,-1.316411,-14.343348,-1.404560,-14.778220,-1.527206,-15.202129,-1.683595,-15.612461,-1.872760,-16.006686,-2.093537,
-16.382374,-2.344564,-16.737208,-2.624293,-17.069002,-2.931000,-17.375708,-3.262793,-17.655437,-3.617628,-17.906464,-3.993316,-18.127241,-4.387541,-18.316406,-4.797873,-18.472794,-5.221782,-18.595441,-5.656654,-18.683590,-6.099808,-18.736697,-6.548512,-18.753704,-6.981377,-18.750000,-7.000000,-18.750000,-31.000000,-18.752343,-31.011777,-18.749956,-31.023561,-18.753863,-31.043567,-18.734117,-31.527171,-18.676063,-32.027828,
-18.580839,-32.522763,-18.448976,-33.009220,-18.281207,-33.484491,-18.078467,-33.945929,-17.841885,-34.390965,-17.572777,-34.817122,-17.272643,-35.222026,-16.943153,-35.603424,-16.586141,-35.959192,-16.203595,-36.287350,-15.797646,-36.586069,-15.370552,-36.853688,-14.924693,-37.088716,-14.462550,-37.289844,-13.986697,-37.455953,-13.499783,-37.586117,-13.004519,-37.679613,-12.503661,-37.735920,-12.019996,-37.753977,-12.000000,-37.750000,
12.000000,-37.750000,12.011777,-37.752343,12.023561,-37.749956,12.043567,-37.753863,12.527171,-37.734117,13.027828,-37.676063,13.522763,-37.580839,14.009220,-37.448976,14.484491,-37.281207,14.945929,-37.078467,15.390965,-36.841885,15.817122,-36.572777,16.222026,-36.272643,16.603424,-35.943153,16.959192,-35.586141,17.287350,-35.203595,17.586069,-34.797646,17.853688,-34.370552,18.088716,-33.924693,18.289844,-33.462550,
18.455953,-32.986697,18.586117,-32.499783,18.679613,-32.004519,18.735920,-31.503661,18.753977,-31.019996,18.750000,-31.000000,18.750000,-7.000000,18.752343,-6.988223,18.749956,-6.976439,18.753863,-6.956433,18.734117,-6.472829,18.676063,-5.972172,18.580839,-5.477237,18.448976,-4.990780,18.281207,-4.515509,18.078467,-4.054071,17.841885,-3.609035,17.572777,-3.182878,17.272643,-2.777974,16.943153,-2.396576,
16.586141,-2.040808,16.203595,-1.712650,15.797646,-1.413931,15.370552,-1.146312,14.924693,-0.911284,14.462550,-0.710156,13.986697,-0.544047,13.499783,-0.413883,13.004519,-0.320387,12.503661,-0.264080,12.019996,-0.246023,12.000000,-0.250000,-1.000000,-0.250000,-1.095671,-0.230970,-1.176777,-0.176777,-1.230970,-0.095671,-1.250000,0.000000,-1.230970,0.095671,-1.176777,0.176777,-1.095671,0.230970,
-1.000000,0.250000,12.000000,0.250000,12.516062,0.231610,12.516062,0.231610,$1*%
G04 Aperture macros list end*
%ADD10C,0.100000*%
%TA.AperFunction,NonConductor*%
%ADD11C,0.100000*%
%TD*%
%TA.AperFunction,ComponentPad*%
%ADD12C,1.820000*%
%TD*%
%TA.AperFunction,ComponentPad*%
%ADD13C,0.350000*%
%TD*%
%TA.AperFunction,ComponentPad*%
%ADD14R,1.700000X1.700000*%
%TD*%
%TA.AperFunction,ComponentPad*%
%ADD15O,1.700000X1.700000*%
%TD*%
%TA.AperFunction,ComponentPad*%
%ADD16RoundRect,0.250000X-0.600000X-0.675000X0.600000X-0.675000X0.600000X0.675000X-0.600000X0.675000X0*%
%TD*%
%TA.AperFunction,ComponentPad*%
%ADD17O,1.700000X1.850000*%
%TD*%
%TA.AperFunction,ComponentPad*%
%ADD18C,1.200000*%
%TD*%
%TA.AperFunction,ComponentPad*%
%ADD19C,0.600000*%
%TD*%
%TA.AperFunction,SMDPad,CuDef*%
%ADD20FreePoly0,0.000000*%
%TD*%
%TA.AperFunction,SMDPad,CuDef*%
%ADD21R,1.400000X0.200000*%
%TD*%
%TA.AperFunction,SMDPad,CuDef*%
%ADD22R,0.200000X0.200000*%
%TD*%
%TA.AperFunction,SMDPad,CuDef*%
%ADD23R,0.200000X0.400000*%
%TD*%
%TA.AperFunction,SMDPad,CuDef*%
%ADD24R,0.200000X1.200000*%
%TD*%
%TA.AperFunction,SMDPad,CuDef*%
%ADD25R,0.600000X0.600000*%
%TD*%
%TA.AperFunction,SMDPad,CuDef*%
%ADD26R,0.400000X0.200000*%
%TD*%
%TA.AperFunction,SMDPad,CuDef*%
%ADD27R,0.200000X0.600000*%
%TD*%
%TA.AperFunction,SMDPad,CuDef*%
%ADD28R,1.000000X0.200000*%
%TD*%
%TA.AperFunction,SMDPad,CuDef*%
%ADD29R,0.600000X0.200000*%
%TD*%
%TA.AperFunction,SMDPad,CuDef*%
%ADD30R,0.800000X0.200000*%
%TD*%
%TA.AperFunction,SMDPad,CuDef*%
%ADD31R,0.400000X0.600000*%
%TD*%
%TA.AperFunction,SMDPad,CuDef*%
%ADD32R,0.200000X0.800000*%
%TD*%
%TA.AperFunction,ViaPad*%
%ADD33C,0.800000*%
%TD*%
%TA.AperFunction,Conductor*%
%ADD34C,0.250000*%
%TD*%
%TA.AperFunction,Conductor*%
%ADD35C,0.500000*%
%TD*%
G04 APERTURE END LIST*
D10*
%TO.C,U3*%
D11*
X91828571Y-113973809D02*
X91804761Y-113950000D01*
X91757142Y-113926190D01*
X91638095Y-113926190D01*
X91590476Y-113950000D01*
X91566666Y-113973809D01*
X91542857Y-114021428D01*
X91542857Y-114069047D01*
X91566666Y-114140476D01*
X91852380Y-114426190D01*
X91542857Y-114426190D01*
X91233333Y-113926190D02*
X91185714Y-113926190D01*
X91138095Y-113950000D01*
X91114285Y-113973809D01*
X91090476Y-114021428D01*
X91066666Y-114116666D01*
X91066666Y-114235714D01*
X91090476Y-114330952D01*
X91114285Y-114378571D01*
X91138095Y-114402380D01*
X91185714Y-114426190D01*
X91233333Y-114426190D01*
X91280952Y-114402380D01*
X91304761Y-114378571D01*
X91328571Y-114330952D01*
X91352380Y-114235714D01*
X91352380Y-114116666D01*
X91328571Y-114021428D01*
X91304761Y-113973809D01*
X91280952Y-113950000D01*
X91233333Y-113926190D01*
X90876190Y-113973809D02*
X90852380Y-113950000D01*
X90804761Y-113926190D01*
X90685714Y-113926190D01*
X90638095Y-113950000D01*
X90614285Y-113973809D01*
X90590476Y-114021428D01*
X90590476Y-114069047D01*
X90614285Y-114140476D01*
X90900000Y-114426190D01*
X90590476Y-114426190D01*
X90400000Y-113973809D02*
X90376190Y-113950000D01*
X90328571Y-113926190D01*
X90209523Y-113926190D01*
X90161904Y-113950000D01*
X90138095Y-113973809D01*
X90114285Y-114021428D01*
X90114285Y-114069047D01*
X90138095Y-114140476D01*
X90423809Y-114426190D01*
X90114285Y-114426190D01*
X89900000Y-114235714D02*
X89519047Y-114235714D01*
X89185714Y-113926190D02*
X89138095Y-113926190D01*
X89090476Y-113950000D01*
X89066666Y-113973809D01*
X89042857Y-114021428D01*
X89019047Y-114116666D01*
X89019047Y-114235714D01*
X89042857Y-114330952D01*
X89066666Y-114378571D01*
X89090476Y-114402380D01*
X89138095Y-114426190D01*
X89185714Y-114426190D01*
X89233333Y-114402380D01*
X89257142Y-114378571D01*
X89280952Y-114330952D01*
X89304761Y-114235714D01*
X89304761Y-114116666D01*
X89280952Y-114021428D01*
X89257142Y-113973809D01*
X89233333Y-113950000D01*
X89185714Y-113926190D01*
X88828571Y-113973809D02*
X88804761Y-113950000D01*
X88757142Y-113926190D01*
X88638095Y-113926190D01*
X88590476Y-113950000D01*
X88566666Y-113973809D01*
X88542857Y-114021428D01*
X88542857Y-114069047D01*
X88566666Y-114140476D01*
X88852380Y-114426190D01*
X88542857Y-114426190D01*
X88328571Y-114235714D02*
X87947619Y-114235714D01*
X87447619Y-114426190D02*
X87733333Y-114426190D01*
X87590476Y-114426190D02*
X87590476Y-113926190D01*
X87638095Y-113997619D01*
X87685714Y-114045238D01*
X87733333Y-114069047D01*
X87161904Y-114140476D02*
X87209523Y-114116666D01*
X87233333Y-114092857D01*
X87257142Y-114045238D01*
X87257142Y-114021428D01*
X87233333Y-113973809D01*
X87209523Y-113950000D01*
X87161904Y-113926190D01*
X87066666Y-113926190D01*
X87019047Y-113950000D01*
X86995238Y-113973809D01*
X86971428Y-114021428D01*
X86971428Y-114045238D01*
X86995238Y-114092857D01*
X87019047Y-114116666D01*
X87066666Y-114140476D01*
X87161904Y-114140476D01*
X87209523Y-114164285D01*
X87233333Y-114188095D01*
X87257142Y-114235714D01*
X87257142Y-114330952D01*
X87233333Y-114378571D01*
X87209523Y-114402380D01*
X87161904Y-114426190D01*
X87066666Y-114426190D01*
X87019047Y-114402380D01*
X86995238Y-114378571D01*
X86971428Y-114330952D01*
X86971428Y-114235714D01*
X86995238Y-114188095D01*
X87019047Y-114164285D01*
X87066666Y-114140476D01*
%TD*%
D12*
%TO.P,D2,*%
%TO.N,*%
X112000000Y-94000000D03*
%TD*%
%TO.P,D3,*%
%TO.N,*%
X112000000Y-88000000D03*
%TD*%
%TO.P,D1,*%
%TO.N,*%
X112000000Y-100000000D03*
%TD*%
D13*
%TO.P,U1,41,COPPER*%
%TO.N,GND*%
X99000000Y-99000000D03*
X100000000Y-100000000D03*
X99000000Y-101000000D03*
X101000000Y-101000000D03*
X101000000Y-99000000D03*
%TD*%
D14*
%TO.P,J1,1,Pin_1*%
%TO.N,GND*%
X112000000Y-107270000D03*
D15*
%TO.P,J1,2,Pin_2*%
%TO.N,Net-(J1-Pad2)*%
X112000000Y-104730000D03*
%TD*%
D16*
%TO.P,J2,1,Pin_1*%
%TO.N,GND*%
X96250000Y-108900000D03*
D17*
%TO.P,J2,2,Pin_2*%
%TO.N,+5V*%
X98750000Y-108900000D03*
%TO.P,J2,3,Pin_3*%
%TO.N,Net-(J2-Pad3)*%
X101250000Y-108900000D03*
%TO.P,J2,4,Pin_4*%
%TO.N,Net-(J2-Pad4)*%
X103750000Y-108900000D03*
%TD*%
D18*
%TO.P,TP1,1,1*%
%TO.N,Net-(L1-Pad1)*%
X101250000Y-92400000D03*
%TO.P,TP1,2,2*%
%TO.N,Net-(L2-Pad2)*%
X98750000Y-92400000D03*
%TD*%
D19*
%TO.P,A1,*%
%TO.N,*%
X99000000Y-81000000D03*
X97000000Y-83000000D03*
D20*
X100000000Y-81000000D03*
D19*
X101000000Y-81000000D03*
%TD*%
D21*
%TO.P,U3,*%
%TO.N,*%
X90800000Y-112600000D03*
D22*
X89400000Y-112600000D03*
D23*
X89000000Y-112500000D03*
D21*
X88000000Y-112600000D03*
D24*
X91400000Y-111900000D03*
X90200000Y-111900000D03*
D22*
X89600000Y-112400000D03*
D24*
X88600000Y-111900000D03*
X87400000Y-111900000D03*
D25*
X90800000Y-112000000D03*
D22*
X89800000Y-112200000D03*
D26*
X89300000Y-112200000D03*
D25*
X88000000Y-112000000D03*
D27*
X89600000Y-111800000D03*
D26*
X89100000Y-112000000D03*
D24*
X89400000Y-111100000D03*
D23*
X89000000Y-111500000D03*
D28*
X90800000Y-111400000D03*
D27*
X89800000Y-111200000D03*
D28*
X88000000Y-111400000D03*
D22*
X89200000Y-111200000D03*
D29*
X91200000Y-111000000D03*
D30*
X90300000Y-111000000D03*
D29*
X88800000Y-111000000D03*
D23*
X87800000Y-110900000D03*
D31*
X91300000Y-110600000D03*
D32*
X90000000Y-110500000D03*
D22*
X89600000Y-110800000D03*
X89200000Y-110800000D03*
D32*
X88600000Y-110500000D03*
D22*
X88000000Y-110800000D03*
D26*
X87500000Y-110800000D03*
X90900000Y-110600000D03*
D22*
X90200000Y-110600000D03*
D23*
X89000000Y-110500000D03*
D22*
X88200000Y-110600000D03*
D23*
X91000000Y-110300000D03*
X90600000Y-110300000D03*
D22*
X89800000Y-110400000D03*
X88800000Y-110400000D03*
D23*
X88400000Y-110300000D03*
D22*
X90200000Y-110200000D03*
D29*
X89400000Y-110200000D03*
D32*
X87400000Y-109900000D03*
D29*
X89600000Y-110000000D03*
D26*
X88900000Y-110000000D03*
D23*
X88200000Y-109900000D03*
D21*
X90800000Y-109800000D03*
D27*
X89800000Y-109600000D03*
D26*
X89100000Y-109800000D03*
D27*
X88400000Y-109600000D03*
D26*
X87900000Y-109800000D03*
D24*
X91400000Y-109100000D03*
X90200000Y-109100000D03*
D22*
X89600000Y-109600000D03*
X89200000Y-109600000D03*
D27*
X88800000Y-109400000D03*
D25*
X90800000Y-109200000D03*
D27*
X89400000Y-109200000D03*
D22*
X88600000Y-109400000D03*
X88200000Y-109400000D03*
X87800000Y-109400000D03*
X87600000Y-109200000D03*
D27*
X89800000Y-108800000D03*
X89200000Y-108800000D03*
D22*
X88400000Y-109000000D03*
D27*
X87400000Y-108800000D03*
D22*
X89600000Y-108800000D03*
D23*
X89000000Y-108700000D03*
X88000000Y-108700000D03*
D22*
X87600000Y-108800000D03*
D28*
X90800000Y-108600000D03*
D22*
X88400000Y-108600000D03*
%TD*%
D33*
%TO.N,GND*%
X104400000Y-103300000D03*
X110946011Y-90962647D03*
X93000000Y-103574500D03*
X105514175Y-100843682D03*
X100000000Y-92825000D03*
X109000000Y-107270000D03*
X111000000Y-103100000D03*
X110610000Y-96620000D03*
X97053825Y-103379076D03*
X91400000Y-102600000D03*
X106175000Y-95500000D03*
X109000000Y-102975500D03*
X109000000Y-105575000D03*
X95950000Y-98175000D03*
%TO.N,+3V3*%
X97350000Y-95200000D03*
X107100000Y-96400000D03*
X92200000Y-92850000D03*
X107100000Y-103899989D03*
X107100000Y-105900000D03*
X91400000Y-106000000D03*
X99522431Y-94680773D03*
%TO.N,+5V*%
X109000000Y-94375000D03*
X105250000Y-96100000D03*
X105250000Y-94375000D03*
%TO.N,Net-(D1-Pad2)*%
X112510000Y-97260000D03*
X110675000Y-101050000D03*
%TO.N,Net-(D2-Pad2)*%
X112004431Y-90962647D03*
X111560000Y-96940000D03*
%TO.N,Net-(D3-Pad2)*%
X109100000Y-99420000D03*
X109887592Y-90962647D03*
%TO.N,Net-(C9-Pad1)*%
X94200000Y-93700000D03*
X96424500Y-95924500D03*
%TO.N,Net-(J2-Pad4)*%
X105900000Y-107000000D03*
%TD*%
D34*
%TO.N,GND*%
X109000000Y-102975500D02*
X110875500Y-102975500D01*
X109000000Y-105575000D02*
X109000000Y-107270000D01*
D35*
X96250000Y-108900000D02*
X96250000Y-107150000D01*
D34*
X110946011Y-90962647D02*
X110717040Y-91191618D01*
X109000000Y-105575000D02*
X109000000Y-102975500D01*
D35*
X100499501Y-94393770D02*
X100499501Y-95689073D01*
D34*
X110305969Y-92184031D02*
X110305969Y-95886005D01*
D35*
X100750000Y-99000000D02*
X101000000Y-99000000D01*
X100000000Y-92825000D02*
X100000000Y-93187868D01*
D34*
X91400000Y-102600000D02*
X93625500Y-102600000D01*
D35*
X100250000Y-96291421D02*
X100250000Y-98500000D01*
D34*
X112000000Y-107270000D02*
X109000000Y-107270000D01*
D35*
X100150000Y-93550000D02*
G75*
G02*
X100000000Y-93187868I362126J362129D01*
G01*
D34*
X110305969Y-92184031D02*
G75*
G02*
X110717040Y-91191618I1403485J-1D01*
G01*
X110610000Y-96620000D02*
G75*
G02*
X110305969Y-95886005I733994J733995D01*
G01*
D35*
X100499500Y-94393770D02*
G75*
G03*
X100149999Y-93550001I-1193266J2D01*
G01*
X100350000Y-96050000D02*
G75*
G03*
X100499501Y-95689073I-360927J360927D01*
G01*
D34*
X111000000Y-103100000D02*
G75*
G03*
X110875500Y-102975500I-124499J1D01*
G01*
D35*
X106183142Y-95403429D02*
G75*
G03*
X105950000Y-95250000I-235306J-103708D01*
G01*
X100750000Y-99000000D02*
G75*
G02*
X100250000Y-98500000I1J500001D01*
G01*
X100250000Y-96291421D02*
G75*
G02*
X100350000Y-96050000I341419J0D01*
G01*
D34*
%TO.N,+3V3*%
X95649990Y-110150010D02*
X103849990Y-110150010D01*
X107100000Y-105900000D02*
X107100000Y-106570217D01*
X97350000Y-95200000D02*
X95900000Y-95200000D01*
X94000000Y-92850000D02*
X92200000Y-92850000D01*
X104510156Y-109876560D02*
X106593358Y-107793358D01*
X107100000Y-103899989D02*
X107100000Y-96400000D01*
X107100000Y-105900000D02*
X107100000Y-103899989D01*
X97350000Y-95200000D02*
X99003204Y-95200000D01*
X95000000Y-93850000D02*
X95000000Y-94300000D01*
X91753553Y-106853554D02*
X94625760Y-109725760D01*
X94000000Y-92850000D02*
G75*
G02*
X95000000Y-93850000I1J-999999D01*
G01*
X99522431Y-94680773D02*
G75*
G02*
X99003204Y-95200000I-519227J0D01*
G01*
X107100000Y-106570217D02*
G75*
G02*
X106593358Y-107793358I-1729783J1D01*
G01*
X91753553Y-106853554D02*
G75*
G02*
X91400000Y-106000000I853563J853557D01*
G01*
X95649990Y-110150010D02*
G75*
G02*
X94625760Y-109725760I-1J1448477D01*
G01*
X104510156Y-109876560D02*
G75*
G02*
X103849990Y-110150010I-660170J660174D01*
G01*
X95000000Y-94300000D02*
G75*
G03*
X95900000Y-95200000I900000J0D01*
G01*
%TO.N,+5V*%
X105250000Y-94375000D02*
X109000000Y-94375000D01*
D35*
X103649312Y-101649312D02*
X100049312Y-105249312D01*
X104638443Y-97576429D02*
X104638443Y-99261339D01*
X98750000Y-108386128D02*
X98750000Y-108900000D01*
X104638444Y-97576429D02*
G75*
G02*
X105250001Y-96100001I2087978J3D01*
G01*
X98750001Y-108386128D02*
G75*
G02*
X100049313Y-105249313I4436127J0D01*
G01*
X103649312Y-101649312D02*
G75*
G03*
X104638443Y-99261339I-2387978J2387975D01*
G01*
D34*
%TO.N,Net-(D1-Pad2)*%
X112329688Y-97695312D02*
X111150000Y-98875000D01*
X110700000Y-101100000D02*
X110700000Y-99961396D01*
X112329688Y-97695312D02*
G75*
G03*
X112510000Y-97260000I-435318J435314D01*
G01*
X110700000Y-99961396D02*
G75*
G02*
X111150000Y-98875000I1536390J2D01*
G01*
%TO.N,Net-(D2-Pad2)*%
X112004431Y-90962647D02*
X112004431Y-91142816D01*
X112004431Y-91142816D02*
X110962489Y-92184757D01*
X110755480Y-92684520D02*
X110755480Y-95144114D01*
X111110000Y-96000000D02*
X111213518Y-96103518D01*
X111110000Y-96000000D02*
G75*
G02*
X110755480Y-95144114I855888J855888D01*
G01*
X111560000Y-96940000D02*
G75*
G03*
X111213518Y-96103518I-1182971J-3D01*
G01*
X110755481Y-92684520D02*
G75*
G02*
X110962490Y-92184758I706770J0D01*
G01*
%TO.N,Net-(D3-Pad2)*%
X109850000Y-91053402D02*
X109850000Y-97609340D01*
X109850001Y-91053402D02*
G75*
G02*
X109887593Y-90962648I128344J1D01*
G01*
X109100000Y-99420000D02*
G75*
G03*
X109850000Y-97609340I-1810664J1810662D01*
G01*
%TO.N,Net-(C9-Pad1)*%
X95877378Y-95922622D02*
X96422622Y-95922622D01*
X94200000Y-93700000D02*
X94200000Y-94245244D01*
X96422622Y-95922622D02*
X96424500Y-95924500D01*
X95877378Y-95922622D02*
G75*
G02*
X94200000Y-94245244I1J1677379D01*
G01*
%TO.N,Net-(J2-Pad4)*%
X105900000Y-107000000D02*
X104176777Y-108723223D01*
X103750000Y-108900000D02*
G75*
G03*
X104176777Y-108723223I-1J603555D01*
G01*
%TD*%
%TA.AperFunction,Conductor*%
%TO.N,GND*%
G36*
X93570531Y-93245502D02*
G01*
X93617024Y-93299158D01*
X93627128Y-93369432D01*
X93619805Y-93397264D01*
X93565309Y-93537039D01*
X93544758Y-93693138D01*
X93562035Y-93849633D01*
X93616143Y-93997490D01*
X93620380Y-94003796D01*
X93620382Y-94003799D01*
X93645647Y-94041397D01*
X93703958Y-94128172D01*
X93709577Y-94133285D01*
X93709578Y-94133286D01*
X93781695Y-94198908D01*
X93818618Y-94259549D01*
X93822626Y-94283861D01*
X93834805Y-94469674D01*
X93837695Y-94513773D01*
X93838498Y-94517812D01*
X93838499Y-94517816D01*
X93889171Y-94772558D01*
X93890195Y-94777708D01*
X93891521Y-94781614D01*
X93891522Y-94781618D01*
X93973219Y-95022287D01*
X93976697Y-95032532D01*
X93978518Y-95036225D01*
X93978519Y-95036227D01*
X93978854Y-95036905D01*
X94095719Y-95273885D01*
X94098013Y-95277318D01*
X94178765Y-95398172D01*
X94200000Y-95468174D01*
X94200000Y-98100000D01*
X94300000Y-98100000D01*
X94300000Y-95870481D01*
X94320002Y-95802360D01*
X94373658Y-95755867D01*
X94443932Y-95745763D01*
X94509078Y-95775749D01*
X94621884Y-95874678D01*
X94621890Y-95874682D01*
X94624984Y-95877396D01*
X94628410Y-95879685D01*
X94628415Y-95879689D01*
X94760204Y-95967747D01*
X94848737Y-96026903D01*
X94852436Y-96028727D01*
X94852441Y-96028730D01*
X95031687Y-96117124D01*
X95090090Y-96145925D01*
X95093988Y-96147248D01*
X95093990Y-96147249D01*
X95214502Y-96188158D01*
X95272578Y-96228996D01*
X95299356Y-96294749D01*
X95300000Y-96307471D01*
X95300000Y-96900000D01*
X95307327Y-96906838D01*
X95307327Y-96906839D01*
X95717517Y-97289683D01*
X96050000Y-97600000D01*
X99274000Y-97600000D01*
X99342121Y-97620002D01*
X99388614Y-97673658D01*
X99400000Y-97726000D01*
X99400000Y-102800000D01*
X99500000Y-102800000D01*
X99500000Y-97726000D01*
X99520002Y-97657879D01*
X99573658Y-97611386D01*
X99626000Y-97600000D01*
X102200000Y-97600000D01*
X102200000Y-94026000D01*
X102220002Y-93957879D01*
X102273658Y-93911386D01*
X102326000Y-93900000D01*
X103074000Y-93900000D01*
X103142121Y-93920002D01*
X103188614Y-93973658D01*
X103200000Y-94026000D01*
X103200000Y-97000000D01*
X103300000Y-97000000D01*
X103300000Y-94026000D01*
X103320002Y-93957879D01*
X103373658Y-93911386D01*
X103426000Y-93900000D01*
X104202454Y-93900000D01*
X104270575Y-93920002D01*
X104285693Y-93931410D01*
X104563740Y-94176092D01*
X104601665Y-94236111D01*
X104605423Y-94287128D01*
X104603729Y-94300000D01*
X104594758Y-94368138D01*
X104612035Y-94524633D01*
X104666143Y-94672490D01*
X104670380Y-94678796D01*
X104670382Y-94678799D01*
X104691396Y-94710071D01*
X104753958Y-94803172D01*
X104870410Y-94909135D01*
X104877085Y-94912759D01*
X105002099Y-94980637D01*
X105002101Y-94980638D01*
X105008776Y-94984262D01*
X105016125Y-94986190D01*
X105153719Y-95022287D01*
X105153721Y-95022287D01*
X105161069Y-95024215D01*
X105244380Y-95025524D01*
X105310898Y-95026569D01*
X105310901Y-95026569D01*
X105318495Y-95026688D01*
X105325899Y-95024992D01*
X105325901Y-95024992D01*
X105444538Y-94997821D01*
X105490458Y-95000601D01*
X105490584Y-94998933D01*
X105499556Y-94999609D01*
X105500000Y-95000000D01*
X106447810Y-95000000D01*
X106515931Y-95020002D01*
X106536905Y-95036905D01*
X106963095Y-95463095D01*
X106997121Y-95525407D01*
X107000000Y-95552190D01*
X107000000Y-95655660D01*
X106979998Y-95723781D01*
X106926342Y-95770274D01*
X106903415Y-95778178D01*
X106878974Y-95784046D01*
X106878968Y-95784048D01*
X106871588Y-95785820D01*
X106731679Y-95858032D01*
X106725957Y-95863024D01*
X106725955Y-95863025D01*
X106618759Y-95956538D01*
X106618756Y-95956541D01*
X106613034Y-95961533D01*
X106608667Y-95967747D01*
X106529850Y-96079892D01*
X106522501Y-96090348D01*
X106465309Y-96237039D01*
X106444758Y-96393138D01*
X106462035Y-96549633D01*
X106516143Y-96697490D01*
X106520380Y-96703796D01*
X106520382Y-96703799D01*
X106542779Y-96737128D01*
X106603958Y-96828172D01*
X106609573Y-96833281D01*
X106609578Y-96833287D01*
X106683300Y-96900369D01*
X106720222Y-96961009D01*
X106724500Y-96993562D01*
X106724500Y-102374000D01*
X106704498Y-102442121D01*
X106650842Y-102488614D01*
X106598500Y-102500000D01*
X104400000Y-102500000D01*
X104400000Y-102600000D01*
X106598500Y-102600000D01*
X106666621Y-102620002D01*
X106713114Y-102673658D01*
X106724500Y-102726000D01*
X106724500Y-103306995D01*
X106704498Y-103375116D01*
X106681331Y-103401942D01*
X106613034Y-103461522D01*
X106522501Y-103590337D01*
X106465309Y-103737028D01*
X106444758Y-103893127D01*
X106462035Y-104049622D01*
X106464645Y-104056754D01*
X106492326Y-104132396D01*
X106500000Y-104175697D01*
X106500000Y-105274000D01*
X106479998Y-105342121D01*
X106426342Y-105388614D01*
X106374000Y-105400000D01*
X101400000Y-105400000D01*
X101400000Y-105500000D01*
X106373363Y-105500000D01*
X106441484Y-105520002D01*
X106487977Y-105573658D01*
X106498081Y-105643932D01*
X106490756Y-105671769D01*
X106468070Y-105729956D01*
X106468069Y-105729960D01*
X106465309Y-105737039D01*
X106464317Y-105744572D01*
X106464317Y-105744573D01*
X106449026Y-105860722D01*
X106444758Y-105893138D01*
X106462035Y-106049633D01*
X106464645Y-106056765D01*
X106492326Y-106132407D01*
X106500000Y-106175708D01*
X106500000Y-106382281D01*
X106479998Y-106450402D01*
X106426342Y-106496895D01*
X106356068Y-106506999D01*
X106290183Y-106476359D01*
X106273976Y-106461919D01*
X106134831Y-106388245D01*
X106082944Y-106375212D01*
X105989498Y-106351740D01*
X105989496Y-106351740D01*
X105982128Y-106349889D01*
X105974530Y-106349849D01*
X105974528Y-106349849D01*
X105907319Y-106349497D01*
X105824684Y-106349065D01*
X105817305Y-106350837D01*
X105817301Y-106350837D01*
X105678967Y-106384048D01*
X105678963Y-106384049D01*
X105671588Y-106385820D01*
X105531679Y-106458032D01*
X105525957Y-106463024D01*
X105525955Y-106463025D01*
X105418759Y-106556538D01*
X105418756Y-106556541D01*
X105413034Y-106561533D01*
X105396734Y-106584726D01*
X105364801Y-106630162D01*
X105322501Y-106690348D01*
X105265309Y-106837039D01*
X105264318Y-106844568D01*
X105254291Y-106920731D01*
X105244758Y-106993138D01*
X105251150Y-107051035D01*
X105238744Y-107120940D01*
X105215006Y-107153957D01*
X104493342Y-107875621D01*
X104431030Y-107909647D01*
X104360215Y-107904582D01*
X104341155Y-107895593D01*
X104210201Y-107819834D01*
X104090647Y-107778318D01*
X104017491Y-107752914D01*
X104017489Y-107752914D01*
X104011826Y-107750947D01*
X104005891Y-107750086D01*
X104005889Y-107750086D01*
X103809944Y-107721675D01*
X103809941Y-107721675D01*
X103804004Y-107720814D01*
X103594233Y-107730523D01*
X103462453Y-107762282D01*
X103395915Y-107778318D01*
X103395913Y-107778319D01*
X103390082Y-107779724D01*
X103384624Y-107782206D01*
X103384620Y-107782207D01*
X103292398Y-107824138D01*
X103198919Y-107866640D01*
X103132616Y-107913672D01*
X103043664Y-107976770D01*
X102970764Y-108000000D01*
X102025459Y-108000000D01*
X101957338Y-107979998D01*
X101942878Y-107969165D01*
X101896502Y-107928922D01*
X101891971Y-107924990D01*
X101710201Y-107819834D01*
X101590647Y-107778318D01*
X101517491Y-107752914D01*
X101517489Y-107752914D01*
X101511826Y-107750947D01*
X101505891Y-107750086D01*
X101505889Y-107750086D01*
X101309944Y-107721675D01*
X101309941Y-107721675D01*
X101304004Y-107720814D01*
X101094233Y-107730523D01*
X100962453Y-107762282D01*
X100895915Y-107778318D01*
X100895913Y-107778319D01*
X100890082Y-107779724D01*
X100884624Y-107782206D01*
X100884620Y-107782207D01*
X100792398Y-107824138D01*
X100698919Y-107866640D01*
X100632616Y-107913672D01*
X100543664Y-107976770D01*
X100470764Y-108000000D01*
X99525459Y-108000000D01*
X99457338Y-107979998D01*
X99442878Y-107969165D01*
X99396502Y-107928922D01*
X99391971Y-107924990D01*
X99361686Y-107907470D01*
X99312738Y-107856046D01*
X99299859Y-107781959D01*
X99309575Y-107708163D01*
X99311484Y-107697339D01*
X99383413Y-107372885D01*
X99386258Y-107362267D01*
X99416408Y-107266643D01*
X99486195Y-107045307D01*
X99489951Y-107034986D01*
X99617140Y-106727928D01*
X99621782Y-106717974D01*
X99633007Y-106696412D01*
X99775234Y-106423197D01*
X99780729Y-106413678D01*
X99794668Y-106391799D01*
X99959297Y-106133382D01*
X99965602Y-106124378D01*
X100167913Y-105860722D01*
X100174978Y-105852302D01*
X100374170Y-105634922D01*
X100392733Y-105618309D01*
X100395213Y-105616497D01*
X100395215Y-105616495D01*
X100402464Y-105611199D01*
X100421482Y-105586459D01*
X100432283Y-105574155D01*
X103966039Y-102040398D01*
X103982049Y-102026855D01*
X103998016Y-102015487D01*
X104006859Y-102006858D01*
X104011983Y-102000021D01*
X104019905Y-101990472D01*
X104232735Y-101758209D01*
X104234586Y-101756189D01*
X104440712Y-101487560D01*
X104622641Y-101201988D01*
X104778989Y-100901646D01*
X104908566Y-100588821D01*
X105010385Y-100265893D01*
X105083671Y-99935319D01*
X105127867Y-99599617D01*
X105130327Y-99543295D01*
X105141114Y-99296226D01*
X105142739Y-99280824D01*
X105143939Y-99273693D01*
X105144090Y-99261339D01*
X105140216Y-99234288D01*
X105138943Y-99216426D01*
X105138943Y-97625169D01*
X105140443Y-97605785D01*
X105142671Y-97591476D01*
X105142671Y-97591475D01*
X105144052Y-97582605D01*
X105142888Y-97573700D01*
X105141982Y-97566770D01*
X105141188Y-97542191D01*
X105151985Y-97377462D01*
X105154136Y-97361122D01*
X105191425Y-97173658D01*
X105195691Y-97157738D01*
X105257130Y-96976744D01*
X105263437Y-96961517D01*
X105346586Y-96792907D01*
X105394654Y-96740658D01*
X105431462Y-96725815D01*
X105464567Y-96718233D01*
X105471968Y-96716538D01*
X105612625Y-96645795D01*
X105638869Y-96623381D01*
X105726574Y-96548474D01*
X105726576Y-96548471D01*
X105732348Y-96543542D01*
X105824224Y-96415683D01*
X105882950Y-96269598D01*
X105893679Y-96194213D01*
X105904553Y-96117807D01*
X105904553Y-96117804D01*
X105905134Y-96113723D01*
X105905278Y-96100000D01*
X105886363Y-95943694D01*
X105830710Y-95796412D01*
X105741531Y-95666657D01*
X105639219Y-95575500D01*
X105629648Y-95566972D01*
X105629645Y-95566970D01*
X105623976Y-95561919D01*
X105484831Y-95488245D01*
X105468122Y-95484048D01*
X105339498Y-95451740D01*
X105339496Y-95451740D01*
X105332128Y-95449889D01*
X105324530Y-95449849D01*
X105324528Y-95449849D01*
X105257319Y-95449497D01*
X105174684Y-95449065D01*
X105167305Y-95450837D01*
X105167301Y-95450837D01*
X105028967Y-95484048D01*
X105028963Y-95484049D01*
X105021588Y-95485820D01*
X104881679Y-95558032D01*
X104875957Y-95563024D01*
X104875955Y-95563025D01*
X104768759Y-95656538D01*
X104768756Y-95656541D01*
X104763034Y-95661533D01*
X104672501Y-95790348D01*
X104615309Y-95937039D01*
X104614318Y-95944568D01*
X104596502Y-96079892D01*
X104574340Y-96136359D01*
X104533290Y-96194213D01*
X104533281Y-96194227D01*
X104531242Y-96197101D01*
X104390609Y-96451557D01*
X104389257Y-96454820D01*
X104389255Y-96454825D01*
X104282263Y-96713126D01*
X104279350Y-96720159D01*
X104278371Y-96723556D01*
X104278371Y-96723557D01*
X104274461Y-96737128D01*
X104198865Y-96999529D01*
X104150166Y-97286154D01*
X104135788Y-97542191D01*
X104135757Y-97542739D01*
X104134209Y-97556576D01*
X104132947Y-97564076D01*
X104132796Y-97576430D01*
X104136670Y-97603481D01*
X104137943Y-97621343D01*
X104137943Y-98074000D01*
X104117941Y-98142121D01*
X104064285Y-98188614D01*
X104011943Y-98200000D01*
X100900000Y-98200000D01*
X100900000Y-98300000D01*
X104011943Y-98300000D01*
X104080064Y-98320002D01*
X104126557Y-98373658D01*
X104137943Y-98426000D01*
X104137943Y-99212598D01*
X104136443Y-99231982D01*
X104132834Y-99255162D01*
X104133998Y-99264064D01*
X104133998Y-99264066D01*
X104135301Y-99274031D01*
X104136213Y-99296553D01*
X104124395Y-99537113D01*
X104123183Y-99549418D01*
X104083579Y-99816409D01*
X104081167Y-99828537D01*
X104015581Y-100090367D01*
X104011992Y-100102199D01*
X103921059Y-100356340D01*
X103916327Y-100367764D01*
X103811776Y-100588821D01*
X103800923Y-100611767D01*
X103795094Y-100622672D01*
X103656327Y-100854189D01*
X103649457Y-100864470D01*
X103488671Y-101081265D01*
X103480827Y-101090823D01*
X103323974Y-101263884D01*
X103304944Y-101281008D01*
X103303410Y-101282128D01*
X103303408Y-101282130D01*
X103296160Y-101287425D01*
X103290689Y-101294542D01*
X103290688Y-101294543D01*
X103277142Y-101312165D01*
X103266341Y-101324469D01*
X99732584Y-104858226D01*
X99716567Y-104871774D01*
X99704576Y-104880311D01*
X99704569Y-104880317D01*
X99700608Y-104883137D01*
X99691766Y-104891766D01*
X99687853Y-104896986D01*
X99679567Y-104906932D01*
X99429391Y-105177571D01*
X99189231Y-105482213D01*
X99187854Y-105484274D01*
X99187851Y-105484278D01*
X99177346Y-105500000D01*
X98973714Y-105804757D01*
X98784167Y-106143217D01*
X98783137Y-106145452D01*
X98783130Y-106145465D01*
X98657345Y-106418315D01*
X98621760Y-106495505D01*
X98487494Y-106859449D01*
X98382197Y-107232806D01*
X98306517Y-107613274D01*
X98289483Y-107757193D01*
X98289288Y-107758841D01*
X98261417Y-107824138D01*
X98216312Y-107858732D01*
X98198919Y-107866640D01*
X98098899Y-107937589D01*
X98031766Y-107960687D01*
X97962801Y-107943823D01*
X97913902Y-107892351D01*
X97900000Y-107834819D01*
X97900000Y-104900000D01*
X97800000Y-104900000D01*
X97800000Y-107874000D01*
X97779998Y-107942121D01*
X97726342Y-107988614D01*
X97674000Y-108000000D01*
X97664824Y-108000000D01*
X97596703Y-107979998D01*
X97550210Y-107926342D01*
X97545299Y-107913873D01*
X97543411Y-107908214D01*
X97537239Y-107895038D01*
X97451937Y-107757193D01*
X97442901Y-107745792D01*
X97328171Y-107631261D01*
X97316760Y-107622249D01*
X97178757Y-107537184D01*
X97165576Y-107531037D01*
X97011290Y-107479862D01*
X96997914Y-107476995D01*
X96903562Y-107467328D01*
X96897145Y-107467000D01*
X96522115Y-107467000D01*
X96506876Y-107471475D01*
X96505671Y-107472865D01*
X96504000Y-107480548D01*
X96504000Y-108000000D01*
X95996000Y-108000000D01*
X95996000Y-107485116D01*
X95991525Y-107469877D01*
X95990135Y-107468672D01*
X95982452Y-107467001D01*
X95602905Y-107467001D01*
X95596386Y-107467338D01*
X95500794Y-107477257D01*
X95487400Y-107480149D01*
X95333216Y-107531588D01*
X95320038Y-107537761D01*
X95182193Y-107623063D01*
X95170792Y-107632099D01*
X95056261Y-107746829D01*
X95047249Y-107758240D01*
X94962184Y-107896243D01*
X94956037Y-107909423D01*
X94954628Y-107913672D01*
X94914195Y-107972030D01*
X94848630Y-107999265D01*
X94835036Y-108000000D01*
X94526000Y-108000000D01*
X94457879Y-107979998D01*
X94411386Y-107926342D01*
X94400000Y-107874000D01*
X94400000Y-104900000D01*
X94300000Y-104900000D01*
X94300000Y-107874000D01*
X94279998Y-107942121D01*
X94226342Y-107988614D01*
X94174000Y-108000000D01*
X93483226Y-108000000D01*
X93415105Y-107979998D01*
X93394131Y-107963095D01*
X92046989Y-106615953D01*
X92034147Y-106600918D01*
X92028213Y-106592750D01*
X92028212Y-106592749D01*
X92022383Y-106584726D01*
X92014358Y-106578896D01*
X92007348Y-106571886D01*
X92007475Y-106571759D01*
X91996528Y-106561639D01*
X91952594Y-106510199D01*
X91923564Y-106445412D01*
X91934169Y-106375212D01*
X91946084Y-106354844D01*
X91969792Y-106321851D01*
X91969792Y-106321850D01*
X91974224Y-106315683D01*
X92032950Y-106169598D01*
X92055134Y-106013723D01*
X92055278Y-106000000D01*
X92036363Y-105843694D01*
X92020873Y-105802700D01*
X91983394Y-105703514D01*
X91983393Y-105703511D01*
X91980710Y-105696412D01*
X91891531Y-105566657D01*
X91842179Y-105522686D01*
X91804625Y-105462438D01*
X91800000Y-105428612D01*
X91800000Y-104226000D01*
X91820002Y-104157879D01*
X91873658Y-104111386D01*
X91926000Y-104100000D01*
X98600000Y-104100000D01*
X98600000Y-104000000D01*
X91926000Y-104000000D01*
X91857879Y-103979998D01*
X91811386Y-103926342D01*
X91800000Y-103874000D01*
X91800000Y-100926000D01*
X91820002Y-100857879D01*
X91873658Y-100811386D01*
X91926000Y-100800000D01*
X97700000Y-100800000D01*
X97700000Y-100700000D01*
X91926000Y-100700000D01*
X91857879Y-100679998D01*
X91811386Y-100626342D01*
X91800000Y-100574000D01*
X91800000Y-96117124D01*
X91804570Y-96083497D01*
X91819736Y-96028730D01*
X92534305Y-93448344D01*
X92573901Y-93386164D01*
X92682348Y-93293542D01*
X92686777Y-93287378D01*
X92686780Y-93287375D01*
X92693536Y-93277973D01*
X92749531Y-93234326D01*
X92795858Y-93225500D01*
X93502410Y-93225500D01*
X93570531Y-93245502D01*
G37*
%TD.AperFunction*%
%TD*%
M02*
