M48
; DRILL file {KiCad (5.1.10-1-10_14)} date Wednesday, May 12, 2021 at 02:49:04 PM
; FORMAT={-:-/ absolute / inch / decimal}
; #@! TF.CreationDate,2021-05-12T14:49:04+01:00
; #@! TF.GenerationSoftware,Kicad,Pcbnew,(5.1.10-1-10_14)
; #@! TF.FileFunction,Plated,1,2,PTH
FMAT,2
INCH
T1C0.0098
T2C0.0157
T3C0.0315
T4C0.0335
T5C0.0354
T6C0.0394
T7C0.0433
T8C0.1260
%
G90
G05
T1
X3.7795Y-3.2677
X3.8976Y-3.8976
X3.8976Y-3.9764
X3.8976Y-4.7244
X3.937Y-3.189
X3.937Y-3.937
X3.9764Y-3.8976
X3.9764Y-3.9764
X3.9764Y-4.6063
X4.0945Y-3.2677
T2
X3.6024Y-4.1496
X3.6663Y-3.7116
X3.6703Y-4.0778
X3.6909Y-3.6949
X3.6929Y-3.7992
X3.7165Y-4.0787
X3.7344Y-3.7981
X3.7913Y-4.0787
X3.7972Y-3.7539
X3.8465Y-3.6811
X3.9036Y-3.6811
X3.937Y-3.6024
X4.0571Y-3.6949
X4.0571Y-3.7539
X4.1063Y-3.7244
X4.123Y-3.7884
X4.1442Y-4.2293
X4.1811Y-3.7795
X4.1829Y-4.2222
X4.1831Y-3.9941
X4.2131Y-3.721
X4.2205Y-4.2825
X4.2229Y-4.0854
X4.2271Y-3.8038
X4.2513Y-3.7115
X4.2795Y-4.2835
X4.2864Y-3.6654
X4.2884Y-3.6083
X4.2895Y-4.0579
X4.2902Y-4.1184
X4.3081Y-3.7311
T3
X3.8878Y-3.6378
X3.9862Y-3.6378
T4
X3.7894Y-4.2874
X3.8878Y-4.2874
X3.9862Y-4.2874
X4.0846Y-4.2874
T5
X4.4094Y-3.4146
X4.4094Y-3.5146
X4.4094Y-3.6508
X4.4094Y-3.7508
X4.4094Y-3.887
X4.4094Y-3.987
T6
X3.787Y-4.4094
X3.887Y-4.4094
X3.987Y-4.4094
X4.087Y-4.4094
X4.3094Y-4.1732
X4.4094Y-4.1732
T7
X3.3957Y-3.8091
X3.3957Y-4.065
X3.5728Y-3.8091
X3.5728Y-4.065
T8
X3.4646Y-3.4646
X4.4094Y-4.4094
T0
M30
