%TF.GenerationSoftware,KiCad,Pcbnew,(6.0.5-0)*%
%TF.CreationDate,2022-06-21T18:01:51+01:00*%
%TF.ProjectId,PN532-Round,504e3533-322d-4526-9f75-6e642e6b6963,7*%
%TF.SameCoordinates,Original*%
%TF.FileFunction,Copper,L2,Bot*%
%TF.FilePolarity,Positive*%
%FSLAX46Y46*%
G04 Gerber Fmt 4.6, Leading zero omitted, Abs format (unit mm)*
G04 Created by KiCad (PCBNEW (6.0.5-0)) date 2022-06-21 18:01:51*
%MOMM*%
%LPD*%
G01*
G04 APERTURE LIST*
G04 Aperture macros list*
%AMRoundRect*
0 Rectangle with rounded corners*
0 $1 Rounding radius*
0 $2 $3 $4 $5 $6 $7 $8 $9 X,Y pos of 4 corners*
0 Add a 4 corners polygon primitive as box body*
4,1,4,$2,$3,$4,$5,$6,$7,$8,$9,$2,$3,0*
0 Add four circle primitives for the rounded corners*
1,1,$1+$1,$2,$3*
1,1,$1+$1,$4,$5*
1,1,$1+$1,$6,$7*
1,1,$1+$1,$8,$9*
0 Add four rect primitives between the rounded corners*
20,1,$1+$1,$2,$3,$4,$5,0*
20,1,$1+$1,$4,$5,$6,$7,0*
20,1,$1+$1,$6,$7,$8,$9,0*
20,1,$1+$1,$8,$9,$2,$3,0*%
%AMFreePoly0*
4,1,802,0.320307,0.247763,0.640551,0.241055,0.960670,0.229876,1.055460,0.206856,1.134226,0.149314,1.184975,0.066010,1.199982,-0.030374,1.176962,-0.125164,1.119420,-0.203930,1.036116,-0.254679,0.939732,-0.269686,0.937097,-0.269046,0.626605,-0.258203,0.313333,-0.251641,0.002657,-0.249472,0.000000,-0.250000,-0.037896,-0.242462,-0.077036,-0.250671,-0.097565,-0.246808,-0.972887,-0.273403,
-1.866885,-0.336429,-2.757648,-0.435162,-3.643749,-0.569444,-4.523769,-0.739060,-5.396301,-0.943740,-6.259949,-1.183155,-7.113329,-1.456922,-7.955076,-1.764604,-8.783843,-2.105707,-9.598303,-2.479686,-10.397154,-2.885942,-11.161239,-3.313814,-11.176847,-3.327693,-11.233426,-3.347335,-11.277971,-3.387366,-11.297363,-3.394212,-12.036220,-3.853000,-12.772902,-4.352194,-13.489098,-4.880357,-14.183671,-5.436651,
-14.855517,-6.020191,-15.503566,-6.630049,-16.126789,-7.265255,-16.724195,-7.924801,-17.294834,-8.607637,-17.837800,-9.312678,-18.352228,-10.038803,-18.837302,-10.784858,-19.281944,-11.532331,-19.288415,-11.551835,-19.314490,-11.581986,-19.326910,-11.619865,-19.340416,-11.635593,-19.751922,-12.401225,-20.141379,-13.200988,-20.498536,-14.015689,-20.822821,-14.844023,-21.113716,-15.684664,-21.370753,-16.536268,-21.593523,-17.397472,
-21.781669,-18.266896,-21.934889,-19.143150,-22.052938,-20.024832,-22.135628,-20.910529,-22.182826,-21.798825,-22.194190,-22.667968,-22.190006,-22.688268,-22.193774,-22.707923,-22.189699,-22.727518,-22.193550,-22.747801,-22.168553,-23.616374,-22.107323,-24.503449,-22.010542,-25.387353,-21.878367,-26.266660,-21.711010,-27.139954,-21.508741,-28.005829,-21.271886,-28.862889,-21.000827,-29.709752,-20.695999,-30.545056,-20.357895,-31.367453,
-19.987060,-32.175619,-19.584089,-32.968252,-19.159530,-33.726402,-19.145809,-33.741830,-19.139268,-33.760667,-19.125993,-33.775541,-19.119212,-33.794958,-18.664972,-34.531872,-18.170257,-35.266698,-17.646451,-35.981079,-17.094397,-36.673863,-16.514985,-37.343934,-15.909149,-37.990213,-15.277865,-38.611657,-14.622149,-39.207267,-13.943059,-39.776081,-13.241689,-40.317184,-12.519168,-40.829704,-11.776661,-41.312815,-11.032704,-41.755423,
-11.013182,-41.761898,-10.968550,-41.800492,-10.912452,-41.818771,-10.897069,-41.831932,-10.141719,-42.236204,-9.352984,-42.618709,-8.549629,-42.969468,-7.732929,-43.287924,-6.904184,-43.573571,-6.064711,-43.825954,-5.215844,-44.044671,-4.358933,-44.229376,-3.495340,-44.379775,-2.626439,-44.495629,-1.753609,-44.576753,-0.878240,-44.623018,-0.021578,-44.634094,-0.001752,-44.630006,0.055973,-44.641068,0.113477,-44.628895,
0.133301,-44.632586,0.986345,-44.605103,1.857346,-44.542212,2.725148,-44.444649,3.588370,-44.312570,4.445642,-44.146185,5.295599,-43.945759,6.136890,-43.711610,6.968180,-43.444109,7.788144,-43.143684,8.595481,-42.810810,9.388907,-42.446018,10.167160,-42.049887,10.911743,-41.632718,10.926813,-41.619313,10.982133,-41.600099,11.025679,-41.560953,11.044623,-41.554262,11.766866,-41.105634,12.486964,-40.617513,
13.187032,-40.101075,13.865957,-39.557140,14.522659,-38.986573,15.156094,-38.390281,15.765255,-37.769213,16.349174,-37.124354,16.906923,-36.456731,17.437614,-35.767405,17.940405,-35.057472,18.414495,-34.328060,18.849058,-33.597270,18.855382,-33.578199,18.880882,-33.548704,18.893025,-33.511649,18.906225,-33.496272,19.308357,-32.747799,19.688930,-31.965965,20.037927,-31.169535,20.354790,-30.359783,20.639010,-29.538006,
20.890135,-28.705518,21.107760,-27.863651,21.291539,-27.013754,21.441177,-26.157186,21.556435,-25.295319,21.637127,-24.429531,21.683126,-23.561209,21.694100,-22.711619,21.690006,-22.691772,21.693691,-22.672536,21.689706,-22.653391,21.693467,-22.633564,21.668899,-21.784604,21.608913,-20.917564,21.514180,-20.053631,21.384851,-19.194195,21.221137,-18.340641,21.023299,-17.494345,20.791658,-16.656671,20.526586,-15.828968,
20.228510,-15.012569,19.897911,-14.208790,19.535321,-13.418926,19.141324,-12.644250,18.726232,-11.903282,18.712818,-11.888204,18.700121,-11.851656,18.674315,-11.822854,18.667650,-11.803883,18.223906,-11.086952,17.740799,-10.371999,17.229482,-9.676941,16.690773,-9.002891,16.125535,-8.350928,15.534672,-7.722094,14.919130,-7.117397,14.279894,-6.537804,13.617988,-5.984243,12.934470,-5.457599,12.230434,-4.958716,
11.507008,-4.488392,10.782305,-4.057462,10.763216,-4.051134,10.719588,-4.013421,10.664755,-3.995563,10.649721,-3.982705,9.911488,-3.587748,9.140634,-3.214067,8.355497,-2.871413,7.557324,-2.560329,6.747385,-2.281311,5.926967,-2.034801,5.097374,-1.821192,4.259926,-1.640824,3.415953,-1.493982,2.566798,-1.380901,1.713809,-1.301760,0.858344,-1.256685,0.021170,-1.245995,0.001792,-1.249994,
0.001479,-1.249934,0.001169,-1.249998,-0.018672,-1.246200,-0.860488,-1.269218,-1.720468,-1.327452,-2.577405,-1.420267,-3.429909,-1.547513,-4.276599,-1.708981,-5.116100,-1.904412,-5.947051,-2.133488,-6.768105,-2.395836,-7.577928,-2.691033,-8.375209,-3.018598,-9.158653,-3.378001,-9.926991,-3.768658,-10.661689,-4.180253,-10.676778,-4.193679,-10.712909,-4.206235,-10.741393,-4.231760,-10.760145,-4.238350,
-11.468725,-4.677006,-12.175349,-5.154571,-12.862305,-5.660016,-13.528495,-6.192534,-14.172852,-6.751272,-14.794346,-7.335335,-15.391981,-7.943789,-15.964801,-8.575660,-16.511889,-9.229937,-17.032370,-9.905573,-17.525411,-10.601486,-17.990222,-11.316563,-18.416096,-12.032900,-18.422349,-12.051766,-18.447266,-12.080596,-18.459132,-12.116825,-18.472028,-12.131853,-18.864783,-12.863166,-19.236473,-13.627071,-19.577311,-14.405231,
-19.886752,-15.196402,-20.164300,-15.999316,-20.409511,-16.812689,-20.621993,-17.635219,-20.801406,-18.465590,-20.947463,-19.302472,-21.059929,-20.144526,-21.138625,-20.990405,-21.183425,-21.838755,-21.194009,-22.668801,-21.190007,-22.688187,-21.190067,-22.688498,-21.190002,-22.688811,-21.193753,-22.708415,-21.170935,-23.540400,-21.113310,-24.390327,-21.021508,-25.237244,-20.895679,-26.079778,-20.736026,-26.916562,-20.542809,-27.746239,
-20.316341,-28.567463,-20.056989,-29.378902,-19.765174,-30.179240,-19.441370,-30.967179,-19.086101,-31.741440,-18.699943,-32.500768,-18.293095,-33.226850,-18.279826,-33.241760,-18.279723,-33.242055,-18.279517,-33.242287,-18.272990,-33.261063,-17.838931,-33.967371,-17.365914,-34.671817,-16.864914,-35.356646,-16.336746,-36.020746,-15.782265,-36.663040,-15.202372,-37.282486,-14.598006,-37.878080,-13.970148,-38.448856,-13.319816,-38.993888,
-12.648066,-39.512291,-11.955987,-40.003225,-11.244701,-40.465894,-10.532124,-40.889581,-10.513253,-40.895833,-10.498888,-40.908246,-10.480857,-40.914185,-10.466038,-40.926944,-9.741463,-41.317570,-8.984557,-41.687220,-8.213426,-42.026197,-7.429313,-42.333954,-6.633481,-42.609995,-5.827212,-42.853875,-5.011805,-43.065202,-4.188574,-43.243635,-3.358845,-43.388887,-2.523956,-43.500723,-1.685251,-43.578963,-0.844082,-43.623482,
-0.020987,-43.633963,-0.001835,-43.630007,-0.001526,-43.630066,-0.001216,-43.630002,0.018155,-43.633707,0.840305,-43.611087,1.680180,-43.554071,2.517079,-43.463282,3.349642,-43.338869,4.176521,-43.181032,4.996374,-42.990029,5.807871,-42.766168,6.609696,-42.509813,7.400549,-42.221380,8.179146,-41.901336,8.944224,-41.550201,9.694544,-41.168544,10.412009,-40.766443,10.426741,-40.753330,10.462027,-40.741062,
10.489846,-40.716124,10.508161,-40.709684,11.200043,-40.281201,11.890011,-39.814721,12.560768,-39.321017,13.211242,-38.800880,13.840391,-38.255141,14.447208,-37.684674,15.030722,-37.090393,15.589999,-36.473248,16.124144,-35.834227,16.632303,-35.174353,17.113661,-34.494682,17.567449,-33.796301,17.983212,-33.096699,17.989316,-33.078272,18.001586,-33.064070,18.007456,-33.046242,18.020065,-33.031595,18.405971,-32.315624,
18.771151,-31.567706,19.106021,-30.805735,19.410043,-30.030939,19.682725,-29.244566,19.923630,-28.447884,20.132368,-27.642175,20.308603,-26.828739,20.452052,-26.008885,20.562483,-25.183935,20.639718,-24.355217,20.683633,-23.524068,20.693917,-22.710780,20.690007,-22.691857,20.700423,-22.637380,20.688914,-22.583129,20.692388,-22.564425,20.666134,-21.760098,20.606486,-20.938844,20.514147,-20.120621,20.389264,-19.306728,
20.232036,-18.498462,20.042713,-17.697105,19.821595,-16.903932,19.569035,-16.120204,19.285433,-15.347167,18.971240,-14.586050,18.626957,-13.838063,18.253130,-13.104394,17.859478,-12.402479,17.846835,-12.388278,17.840717,-12.370688,17.828312,-12.356803,17.821982,-12.338707,17.398279,-11.652107,16.936851,-10.967470,16.448320,-10.301901,15.933471,-9.656475,15.393136,-9.032230,14.828183,-8.430173,14.239524,-7.851273,
13.628107,-7.296464,12.994917,-6.766638,12.340974,-6.262651,11.667333,-5.785314,10.975077,-5.335395,10.281490,-4.923228,10.263291,-4.917202,10.235495,-4.893192,10.200596,-4.881774,10.184979,-4.868381,9.452411,-4.475976,8.686009,-4.105547,7.904885,-3.767265,7.110387,-3.461712,6.303886,-3.189415,5.486773,-2.950845,4.660457,-2.746413,3.826365,-2.576472,2.985935,-2.441315,2.160670,-2.343549,
2.140188,-2.345588,2.046814,-2.317369,1.971346,-2.255564,1.925276,-2.169584,1.915615,-2.072519,1.943834,-1.979145,2.005639,-1.903677,2.091619,-1.857607,2.188684,-1.847946,2.975922,-1.939699,3.759134,-2.061107,4.537204,-2.211999,5.309023,-2.392157,6.073490,-2.601327,6.829515,-2.839208,7.576020,-3.105463,8.311941,-3.399711,9.036228,-3.721533,9.747849,-4.070470,10.445778,-4.446018,
10.445790,-4.446022,10.474343,-4.470509,10.510043,-4.482330,10.510049,-4.482335,11.236908,-4.914273,11.945853,-5.375039,12.635735,-5.863884,13.305444,-6.380022,13.953899,-6.922621,14.580057,-7.490806,15.182907,-8.083662,15.761480,-8.700234,16.314843,-9.339529,16.842104,-10.000516,17.342413,-10.682130,17.814965,-11.383274,18.258998,-12.102817,18.265294,-12.120816,18.277971,-12.135057,18.690419,-12.870486,
19.073223,-13.621772,19.425774,-14.387721,19.747511,-15.167115,20.037923,-15.958715,20.296548,-16.761263,20.522975,-17.573482,20.716845,-18.394082,20.877849,-19.221759,21.005730,-20.055195,21.100286,-20.893067,21.161367,-21.734042,21.188874,-22.576783,21.178511,-22.632576,21.189993,-22.688143,21.179217,-23.540287,21.134251,-24.391312,21.055169,-25.239847,20.942098,-26.084525,20.795219,-26.923984,20.614769,-27.756873,
20.401039,-28.581848,20.154374,-29.397582,19.875171,-30.202760,19.563879,-30.996084,19.221001,-31.776276,18.847088,-32.542079,18.442744,-33.292260,18.430207,-33.306822,18.424166,-33.325062,17.988541,-34.058086,17.523945,-34.773100,17.031122,-35.468959,16.510861,-36.144549,15.963994,-36.798790,15.391396,-37.430633,14.793985,-38.039068,14.172715,-38.623121,13.528582,-39.181858,12.862616,-39.714384,12.175884,-40.219846,
11.469483,-40.697436,10.744546,-41.146390,10.708482,-41.159071,10.679925,-41.184490,10.679918,-41.184493,9.928164,-41.605810,9.160048,-41.996519,8.376823,-42.355983,7.579759,-42.683618,6.770149,-42.978892,5.949306,-43.241327,5.118561,-43.470498,4.279263,-43.666032,3.432771,-43.827612,2.580460,-43.954976,1.723712,-44.047918,0.863917,-44.106286,0.002468,-44.129988,0.002152,-44.129928,0.001835,-44.129993,
-0.860343,-44.119014,-1.721386,-44.073444,-2.579906,-43.993355,-3.434521,-43.878876,-4.283852,-43.730193,-5.126533,-43.547544,-5.961205,-43.331225,-6.786523,-43.081582,-7.601157,-42.799020,-8.403796,-42.483992,-9.193145,-42.137006,-9.967934,-41.758623,-10.726913,-41.349451,-10.741639,-41.336771,-10.760081,-41.330661,-11.506581,-40.886804,-12.234603,-40.413249,-12.942966,-39.910764,-13.630522,-39.380163,-14.296155,-38.822307,
-14.938786,-38.238101,-15.557372,-37.628493,-16.150910,-36.994472,-16.718437,-36.337065,-17.259033,-35.657339,-17.771820,-34.956397,-18.255968,-34.235376,-18.710691,-33.495445,-18.710797,-33.495141,-18.711006,-33.494906,-19.137185,-32.734326,-19.532392,-31.957203,-19.895987,-31.164796,-20.227380,-30.358392,-20.526034,-29.539298,-20.791463,-28.708842,-21.023239,-27.868372,-21.220984,-27.019251,-21.384378,-26.162857,-21.513156,-25.300577,
-21.607110,-24.433812,-21.666085,-23.563966,-21.689988,-22.692451,-21.689927,-22.692132,-21.689993,-22.691813,-21.678908,-21.822519,-21.633062,-20.954365,-21.552529,-20.088738,-21.437437,-19.227026,-21.287971,-18.370606,-21.104370,-17.520850,-20.886927,-16.679118,-20.635991,-15.846756,-20.351963,-15.025097,-20.035299,-14.215456,-19.686504,-13.419129,-19.306137,-12.637391,-18.894806,-11.871491,-18.869424,-11.841913,-18.857157,-11.804900,
-18.857152,-11.804894,-18.411183,-11.054758,-17.935564,-10.323053,-17.431058,-9.610958,-16.898474,-8.919611,-16.338664,-8.250120,-15.752524,-7.603556,-15.140992,-6.980953,-14.505047,-6.383308,-13.845706,-5.811578,-13.164025,-5.266678,-12.461094,-4.749479,-11.738040,-4.260809,-10.996019,-3.801450,-10.959110,-3.788478,-10.929888,-3.762477,-10.160488,-3.331442,-9.374357,-2.931738,-8.572768,-2.564011,-7.757023,-2.228860,
-6.928444,-1.926827,-6.088376,-1.658402,-5.238180,-1.424021,-4.379236,-1.224065,-3.512938,-1.058856,-2.640690,-0.928664,-1.763907,-0.833699,-0.884011,-0.774116,-0.002429,-0.750010,-0.002109,-0.750071,-0.001792,-0.750006,-0.001786,-0.750007,0.874555,-0.761197,1.749759,-0.807312,2.622429,-0.888279,3.491178,-1.003970,4.354625,-1.154199,5.211396,-1.338730,6.060131,-1.557268,6.899479,-1.809465,
7.728107,-2.094922,8.544697,-2.413183,9.347950,-2.763744,10.136591,-3.146047,10.909365,-3.559483,10.954162,-3.597796,11.010118,-3.616346,11.010124,-3.616351,11.768821,-4.067494,12.508873,-4.548627,13.229088,-5.058975,13.928314,-5.597722,14.605433,-6.164005,15.259359,-6.756918,15.889047,-7.375512,16.493488,-8.018797,17.071717,-8.685744,17.622806,-9.375284,18.145874,-10.086315,18.640084,-10.817699,
19.104645,-11.568264,19.117759,-11.605589,19.144040,-11.635130,19.578532,-12.410728,19.981548,-13.203138,20.352439,-14.011083,20.690606,-14.833262,20.995506,-15.668350,21.266646,-16.515002,21.503590,-17.371852,21.705957,-18.237522,21.873419,-19.110615,22.005708,-19.989725,22.102610,-20.873437,22.163969,-21.760325,22.189686,-22.648961,22.185953,-22.668639,22.189994,-22.688228,22.178507,-23.577523,22.131459,-24.465646,
22.048926,-25.351177,21.931040,-26.232698,21.777990,-27.108799,21.590020,-27.978077,21.367432,-28.839141,21.110581,-29.690613,20.819879,-30.531130,20.495791,-31.359347,20.138835,-32.173939,19.749583,-32.973601,19.328659,-33.757055,19.302697,-33.787298,19.290150,-33.825135,19.290147,-33.825139,18.835411,-34.589853,18.350549,-35.335836,17.836336,-36.061898,17.293588,-36.766885,16.723169,-37.449675,16.125984,-38.109183,
15.502983,-38.744362,14.855158,-39.354201,14.183537,-39.937730,13.489188,-40.494022,12.773216,-41.022193,12.036757,-41.521403,11.280985,-41.990859,11.224560,-42.010790,11.179853,-42.050557,10.400768,-42.487057,9.604902,-42.892153,8.793520,-43.265200,7.967912,-43.605607,7.129390,-43.912832,6.279288,-44.186386,5.418957,-44.425834,4.549764,-44.630797,3.673092,-44.800947,2.790333,-44.936015,1.902893,-45.035786,
1.012180,-45.100100,0.119611,-45.128857,0.060573,-45.117865,0.001752,-45.129994,0.001746,-45.129993,-0.894527,-45.118404,-1.789631,-45.071096,-2.682138,-44.988143,-3.570629,-44.869678,-4.453692,-44.715888,-5.329921,-44.527019,-6.197925,-44.303370,-7.056324,-44.045298,-7.903753,-43.753212,-8.738865,-43.427576,-9.560332,-43.068909,-10.366848,-42.677780,-11.157125,-42.254815,-11.157132,-42.254813,-11.202939,-42.215623,
-11.260152,-42.196646,-11.260156,-42.196643,-12.038545,-41.733551,-12.797726,-41.239591,-13.536472,-40.715562,-14.253593,-40.162307,-14.947933,-39.580719,-15.618373,-38.971735,-16.263833,-38.336335,-16.883274,-37.675544,-17.475697,-36.990425,-18.040148,-36.282084,-18.575717,-35.551661,-19.081542,-34.800333,-19.556807,-34.029311,-19.563527,-34.010067,-19.577073,-33.994836,-19.577075,-33.994831,-20.021246,-33.201657,-20.433232,-32.391293,
-20.812363,-31.565047,-21.158031,-30.724252,-21.469677,-29.870263,-21.746801,-29.004454,-21.988955,-28.128221,-22.195748,-27.242976,-22.366849,-26.350145,-22.501981,-25.451167,-22.600927,-24.547490,-22.663527,-23.640570,-22.689681,-22.731868,-22.685864,-22.711768,-22.689994,-22.691732,-22.689993,-22.691726,-22.678104,-21.782436,-22.629854,-20.874343,-22.545322,-19.968907,-22.424641,-19.067576,-22.268006,-18.171793,-22.075668,-17.282992,
-21.847933,-16.402596,-21.585167,-15.532013,-21.287790,-14.672637,-20.956278,-13.825842,-20.591161,-12.992985,-20.193024,-12.175399,-19.762504,-11.374391,-19.735969,-11.343490,-19.723143,-11.304831,-19.723140,-11.304827,-19.258092,-10.523051,-18.762248,-9.760430,-18.236396,-9.018181,-17.681374,-8.297485,-17.098064,-7.599487,-16.487392,-6.925296,-15.850331,-6.275984,-15.187892,-5.652585,-14.501128,-5.056088,-13.791133,-4.487441,
-13.059033,-3.947550,-12.305993,-3.437272,-11.533210,-2.957418,-11.533209,-2.957420,-11.475528,-2.937055,-11.429819,-2.896411,-10.630561,-2.448842,-9.814041,-2.033600,-8.981565,-1.651349,-8.134467,-1.302701,-7.274101,-0.988214,-6.401845,-0.708391,-5.519095,-0.463681,-4.627263,-0.254474,-3.727778,-0.081105,-2.822077,0.056147,-1.911612,0.157064,-0.997839,0.221483,-0.082220,0.249303,-0.041768,0.241692,
0.000000,0.250000,0.320307,0.247763,0.320307,0.247763,$1*%
G04 Aperture macros list end*
%ADD10C,0.100000*%
%TA.AperFunction,NonConductor*%
%ADD11C,0.100000*%
%TD*%
%TA.AperFunction,ComponentPad*%
%ADD12C,0.500000*%
%TD*%
%TA.AperFunction,SMDPad,CuDef*%
%ADD13FreePoly0,0.000000*%
%TD*%
%TA.AperFunction,ComponentPad*%
%ADD14C,1.820000*%
%TD*%
%TA.AperFunction,ComponentPad*%
%ADD15C,0.350000*%
%TD*%
%TA.AperFunction,ComponentPad*%
%ADD16R,1.700000X1.700000*%
%TD*%
%TA.AperFunction,ComponentPad*%
%ADD17O,1.700000X1.700000*%
%TD*%
%TA.AperFunction,ComponentPad*%
%ADD18RoundRect,0.250000X-0.600000X-0.675000X0.600000X-0.675000X0.600000X0.675000X-0.600000X0.675000X0*%
%TD*%
%TA.AperFunction,ComponentPad*%
%ADD19O,1.700000X1.850000*%
%TD*%
%TA.AperFunction,SMDPad,CuDef*%
%ADD20R,1.400000X0.200000*%
%TD*%
%TA.AperFunction,SMDPad,CuDef*%
%ADD21R,0.200000X0.200000*%
%TD*%
%TA.AperFunction,SMDPad,CuDef*%
%ADD22R,0.200000X0.400000*%
%TD*%
%TA.AperFunction,SMDPad,CuDef*%
%ADD23R,0.200000X1.200000*%
%TD*%
%TA.AperFunction,SMDPad,CuDef*%
%ADD24R,0.600000X0.600000*%
%TD*%
%TA.AperFunction,SMDPad,CuDef*%
%ADD25R,0.400000X0.200000*%
%TD*%
%TA.AperFunction,SMDPad,CuDef*%
%ADD26R,0.200000X0.600000*%
%TD*%
%TA.AperFunction,SMDPad,CuDef*%
%ADD27R,1.000000X0.200000*%
%TD*%
%TA.AperFunction,SMDPad,CuDef*%
%ADD28R,0.600000X0.200000*%
%TD*%
%TA.AperFunction,SMDPad,CuDef*%
%ADD29R,0.800000X0.200000*%
%TD*%
%TA.AperFunction,SMDPad,CuDef*%
%ADD30R,0.400000X0.600000*%
%TD*%
%TA.AperFunction,SMDPad,CuDef*%
%ADD31R,0.200000X0.800000*%
%TD*%
%TA.AperFunction,ViaPad*%
%ADD32C,0.800000*%
%TD*%
%TA.AperFunction,Conductor*%
%ADD33C,0.250000*%
%TD*%
%TA.AperFunction,Conductor*%
%ADD34C,0.500000*%
%TD*%
G04 APERTURE END LIST*
D10*
%TO.C,U3*%
D11*
X102428571Y-108173809D02*
X102404761Y-108150000D01*
X102357142Y-108126190D01*
X102238095Y-108126190D01*
X102190476Y-108150000D01*
X102166666Y-108173809D01*
X102142857Y-108221428D01*
X102142857Y-108269047D01*
X102166666Y-108340476D01*
X102452380Y-108626190D01*
X102142857Y-108626190D01*
X101833333Y-108126190D02*
X101785714Y-108126190D01*
X101738095Y-108150000D01*
X101714285Y-108173809D01*
X101690476Y-108221428D01*
X101666666Y-108316666D01*
X101666666Y-108435714D01*
X101690476Y-108530952D01*
X101714285Y-108578571D01*
X101738095Y-108602380D01*
X101785714Y-108626190D01*
X101833333Y-108626190D01*
X101880952Y-108602380D01*
X101904761Y-108578571D01*
X101928571Y-108530952D01*
X101952380Y-108435714D01*
X101952380Y-108316666D01*
X101928571Y-108221428D01*
X101904761Y-108173809D01*
X101880952Y-108150000D01*
X101833333Y-108126190D01*
X101476190Y-108173809D02*
X101452380Y-108150000D01*
X101404761Y-108126190D01*
X101285714Y-108126190D01*
X101238095Y-108150000D01*
X101214285Y-108173809D01*
X101190476Y-108221428D01*
X101190476Y-108269047D01*
X101214285Y-108340476D01*
X101500000Y-108626190D01*
X101190476Y-108626190D01*
X101000000Y-108173809D02*
X100976190Y-108150000D01*
X100928571Y-108126190D01*
X100809523Y-108126190D01*
X100761904Y-108150000D01*
X100738095Y-108173809D01*
X100714285Y-108221428D01*
X100714285Y-108269047D01*
X100738095Y-108340476D01*
X101023809Y-108626190D01*
X100714285Y-108626190D01*
X100500000Y-108435714D02*
X100119047Y-108435714D01*
X99785714Y-108126190D02*
X99738095Y-108126190D01*
X99690476Y-108150000D01*
X99666666Y-108173809D01*
X99642857Y-108221428D01*
X99619047Y-108316666D01*
X99619047Y-108435714D01*
X99642857Y-108530952D01*
X99666666Y-108578571D01*
X99690476Y-108602380D01*
X99738095Y-108626190D01*
X99785714Y-108626190D01*
X99833333Y-108602380D01*
X99857142Y-108578571D01*
X99880952Y-108530952D01*
X99904761Y-108435714D01*
X99904761Y-108316666D01*
X99880952Y-108221428D01*
X99857142Y-108173809D01*
X99833333Y-108150000D01*
X99785714Y-108126190D01*
X99428571Y-108173809D02*
X99404761Y-108150000D01*
X99357142Y-108126190D01*
X99238095Y-108126190D01*
X99190476Y-108150000D01*
X99166666Y-108173809D01*
X99142857Y-108221428D01*
X99142857Y-108269047D01*
X99166666Y-108340476D01*
X99452380Y-108626190D01*
X99142857Y-108626190D01*
X98928571Y-108435714D02*
X98547619Y-108435714D01*
X98047619Y-108626190D02*
X98333333Y-108626190D01*
X98190476Y-108626190D02*
X98190476Y-108126190D01*
X98238095Y-108197619D01*
X98285714Y-108245238D01*
X98333333Y-108269047D01*
X97761904Y-108340476D02*
X97809523Y-108316666D01*
X97833333Y-108292857D01*
X97857142Y-108245238D01*
X97857142Y-108221428D01*
X97833333Y-108173809D01*
X97809523Y-108150000D01*
X97761904Y-108126190D01*
X97666666Y-108126190D01*
X97619047Y-108150000D01*
X97595238Y-108173809D01*
X97571428Y-108221428D01*
X97571428Y-108245238D01*
X97595238Y-108292857D01*
X97619047Y-108316666D01*
X97666666Y-108340476D01*
X97761904Y-108340476D01*
X97809523Y-108364285D01*
X97833333Y-108388095D01*
X97857142Y-108435714D01*
X97857142Y-108530952D01*
X97833333Y-108578571D01*
X97809523Y-108602380D01*
X97761904Y-108626190D01*
X97666666Y-108626190D01*
X97619047Y-108602380D01*
X97595238Y-108578571D01*
X97571428Y-108530952D01*
X97571428Y-108435714D01*
X97595238Y-108388095D01*
X97619047Y-108364285D01*
X97666666Y-108340476D01*
%TD*%
D12*
%TO.P,A1,*%
%TO.N,*%
X102523846Y-79444921D03*
X99010276Y-77331596D03*
D13*
X100000000Y-77310000D03*
D12*
X100989724Y-77331596D03*
%TD*%
D14*
%TO.P,D2,*%
%TO.N,*%
X114000000Y-100000000D03*
%TD*%
%TO.P,D3,*%
%TO.N,*%
X114000000Y-95000000D03*
%TD*%
%TO.P,D1,*%
%TO.N,*%
X114000000Y-105000000D03*
%TD*%
D15*
%TO.P,U1,41,COPPER*%
%TO.N,GND*%
X99000000Y-95560000D03*
X100000000Y-96560000D03*
X99000000Y-97560000D03*
X101000000Y-97560000D03*
X101000000Y-95560000D03*
%TD*%
D16*
%TO.P,J1,1,Pin_1*%
%TO.N,GND*%
X106460000Y-109000000D03*
D17*
%TO.P,J1,2,Pin_2*%
%TO.N,Net-(J1-Pad2)*%
X109000000Y-109000000D03*
%TD*%
D18*
%TO.P,J2,1,Pin_1*%
%TO.N,GND*%
X96250000Y-105460000D03*
D19*
%TO.P,J2,2,Pin_2*%
%TO.N,+5V*%
X98750000Y-105460000D03*
%TO.P,J2,3,Pin_3*%
%TO.N,Net-(J2-Pad3)*%
X101250000Y-105460000D03*
%TO.P,J2,4,Pin_4*%
%TO.N,Net-(J2-Pad4)*%
X103750000Y-105460000D03*
%TD*%
D20*
%TO.P,U3,*%
%TO.N,*%
X98600000Y-110000000D03*
D21*
X100000000Y-110000000D03*
D22*
X100400000Y-110100000D03*
D20*
X101400000Y-110000000D03*
D23*
X98000000Y-110700000D03*
X99200000Y-110700000D03*
D21*
X99800000Y-110200000D03*
D23*
X100800000Y-110700000D03*
X102000000Y-110700000D03*
D24*
X98600000Y-110600000D03*
D21*
X99600000Y-110400000D03*
D25*
X100100000Y-110400000D03*
D24*
X101400000Y-110600000D03*
D26*
X99800000Y-110800000D03*
D25*
X100300000Y-110600000D03*
D23*
X100000000Y-111500000D03*
D22*
X100400000Y-111100000D03*
D27*
X98600000Y-111200000D03*
D26*
X99600000Y-111400000D03*
D27*
X101400000Y-111200000D03*
D21*
X100200000Y-111400000D03*
D28*
X98200000Y-111600000D03*
D29*
X99100000Y-111600000D03*
D28*
X100600000Y-111600000D03*
D22*
X101600000Y-111700000D03*
D30*
X98100000Y-112000000D03*
D31*
X99400000Y-112100000D03*
D21*
X99800000Y-111800000D03*
X100200000Y-111800000D03*
D31*
X100800000Y-112100000D03*
D21*
X101400000Y-111800000D03*
D25*
X101900000Y-111800000D03*
X98500000Y-112000000D03*
D21*
X99200000Y-112000000D03*
D22*
X100400000Y-112100000D03*
D21*
X101200000Y-112000000D03*
D22*
X98400000Y-112300000D03*
X98800000Y-112300000D03*
D21*
X99600000Y-112200000D03*
X100600000Y-112200000D03*
D22*
X101000000Y-112300000D03*
D21*
X99200000Y-112400000D03*
D28*
X100000000Y-112400000D03*
D31*
X102000000Y-112700000D03*
D28*
X99800000Y-112600000D03*
D25*
X100500000Y-112600000D03*
D22*
X101200000Y-112700000D03*
D20*
X98600000Y-112800000D03*
D26*
X99600000Y-113000000D03*
D25*
X100300000Y-112800000D03*
D26*
X101000000Y-113000000D03*
D25*
X101500000Y-112800000D03*
D23*
X98000000Y-113500000D03*
X99200000Y-113500000D03*
D21*
X99800000Y-113000000D03*
X100200000Y-113000000D03*
D26*
X100600000Y-113200000D03*
D24*
X98600000Y-113400000D03*
D26*
X100000000Y-113400000D03*
D21*
X100800000Y-113200000D03*
X101200000Y-113200000D03*
X101600000Y-113200000D03*
X101800000Y-113400000D03*
D26*
X99600000Y-113800000D03*
X100200000Y-113800000D03*
D21*
X101000000Y-113600000D03*
D26*
X102000000Y-113800000D03*
D21*
X99800000Y-113800000D03*
D22*
X100400000Y-113900000D03*
X101400000Y-113900000D03*
D21*
X101800000Y-113800000D03*
D27*
X98600000Y-114000000D03*
D21*
X101000000Y-114000000D03*
%TD*%
D32*
%TO.N,GND*%
X104400000Y-99860000D03*
X110946011Y-87522647D03*
X93000000Y-100134500D03*
X105514175Y-97403682D03*
X100000000Y-89385000D03*
X109000000Y-103830000D03*
X111000000Y-99660000D03*
X110610000Y-93180000D03*
X97053825Y-99939076D03*
X106175000Y-92060000D03*
X109000000Y-99535500D03*
X109000000Y-102135000D03*
X95950000Y-94735000D03*
%TO.N,+3V3*%
X97350000Y-91760000D03*
X107100000Y-92960000D03*
X92200000Y-89410000D03*
X107100000Y-100459989D03*
X107100000Y-102460000D03*
X91400000Y-102560000D03*
X99522431Y-91240773D03*
%TO.N,+5V*%
X109000000Y-90935000D03*
X105250000Y-92660000D03*
X105250000Y-90935000D03*
%TO.N,Net-(D2-Pad2)*%
X112004431Y-87522647D03*
X111560000Y-93500000D03*
%TO.N,Net-(C9-Pad1)*%
X94200000Y-90260000D03*
X96424500Y-92484500D03*
%TO.N,Net-(J2-Pad4)*%
X105900000Y-103560000D03*
%TD*%
D33*
%TO.N,GND*%
X109000000Y-99535500D02*
X110875500Y-99535500D01*
X109000000Y-102135000D02*
X109000000Y-103830000D01*
D34*
X96250000Y-105460000D02*
X96250000Y-103710000D01*
D33*
X110946011Y-87522647D02*
X110717040Y-87751618D01*
X109000000Y-102135000D02*
X109000000Y-99535500D01*
D34*
X100499501Y-90953770D02*
X100499501Y-92249073D01*
D33*
X110305969Y-88744031D02*
X110305969Y-92446005D01*
D34*
X100750000Y-95560000D02*
X101000000Y-95560000D01*
X100000000Y-89385000D02*
X100000000Y-89747868D01*
X100250000Y-92851421D02*
X100250000Y-95060000D01*
X100149991Y-90110009D02*
G75*
G02*
X100000000Y-89747868I362109J362109D01*
G01*
D33*
X110306005Y-88744031D02*
G75*
G02*
X110717040Y-87751618I1403495J31D01*
G01*
X110610001Y-93179999D02*
G75*
G02*
X110305969Y-92446005I733999J733999D01*
G01*
D34*
X100499513Y-90953770D02*
G75*
G03*
X100150000Y-90110000I-1193313J-30D01*
G01*
X100350008Y-92610008D02*
G75*
G03*
X100499501Y-92249073I-360908J360908D01*
G01*
D33*
X111000000Y-99660000D02*
G75*
G03*
X110875500Y-99535500I-124500J0D01*
G01*
D34*
X106183091Y-91963451D02*
G75*
G03*
X105950000Y-91810000I-235291J-103649D01*
G01*
X100750000Y-95560000D02*
G75*
G02*
X100250000Y-95060000I0J500000D01*
G01*
X100250009Y-92851421D02*
G75*
G02*
X100350000Y-92610000I341391J21D01*
G01*
D33*
%TO.N,+3V3*%
X95649990Y-106710010D02*
X103849990Y-106710010D01*
X107100000Y-102460000D02*
X107100000Y-103130217D01*
X97350000Y-91760000D02*
X95900000Y-91760000D01*
X94000000Y-89410000D02*
X92200000Y-89410000D01*
X104510156Y-106436560D02*
X106593358Y-104353358D01*
X107100000Y-100459989D02*
X107100000Y-92960000D01*
X107100000Y-102460000D02*
X107100000Y-100459989D01*
X97350000Y-91760000D02*
X99003204Y-91760000D01*
X95000000Y-90410000D02*
X95000000Y-90860000D01*
X91753553Y-103413554D02*
X94625760Y-106285760D01*
X94000000Y-89410000D02*
G75*
G02*
X95000000Y-90410000I0J-1000000D01*
G01*
X99522400Y-91240773D02*
G75*
G02*
X99003204Y-91760000I-519200J-27D01*
G01*
X107100006Y-103130217D02*
G75*
G02*
X106593358Y-104353358I-1729806J17D01*
G01*
X91753555Y-103413552D02*
G75*
G02*
X91400000Y-102560000I853545J853552D01*
G01*
X95649990Y-106710008D02*
G75*
G02*
X94625760Y-106285760I10J1448508D01*
G01*
X104510160Y-106436564D02*
G75*
G02*
X103849990Y-106710010I-660160J660164D01*
G01*
X95000000Y-90860000D02*
G75*
G03*
X95900000Y-91760000I900000J0D01*
G01*
%TO.N,+5V*%
X105250000Y-90935000D02*
X109000000Y-90935000D01*
D34*
X103649312Y-98209312D02*
X100049312Y-101809312D01*
X104638443Y-94136429D02*
X104638443Y-95821339D01*
X98750000Y-104946128D02*
X98750000Y-105460000D01*
X104638456Y-94136429D02*
G75*
G02*
X105250001Y-92660001I2087944J29D01*
G01*
X98750012Y-104946128D02*
G75*
G02*
X100049312Y-101809312I4436088J28D01*
G01*
X103649301Y-98209301D02*
G75*
G03*
X104638443Y-95821339I-2388001J2388001D01*
G01*
D33*
%TO.N,Net-(D2-Pad2)*%
X112004431Y-87522647D02*
X112004431Y-87702816D01*
X112004431Y-87702816D02*
X110962489Y-88744757D01*
X110755480Y-89244520D02*
X110755480Y-91704114D01*
X111110000Y-92560000D02*
X111213518Y-92663518D01*
X111110004Y-92559996D02*
G75*
G02*
X110755480Y-91704114I855896J855896D01*
G01*
X111559989Y-93500000D02*
G75*
G03*
X111213518Y-92663518I-1182989J0D01*
G01*
X110755509Y-89244520D02*
G75*
G02*
X110962489Y-88744757I706791J20D01*
G01*
%TO.N,Net-(C9-Pad1)*%
X95877378Y-92482622D02*
X96422622Y-92482622D01*
X94200000Y-90260000D02*
X94200000Y-90805244D01*
X96422622Y-92482622D02*
X96424500Y-92484500D01*
X95877378Y-92482600D02*
G75*
G02*
X94200000Y-90805244I22J1677400D01*
G01*
%TO.N,Net-(J2-Pad4)*%
X105900000Y-103560000D02*
X104176777Y-105283223D01*
X103750000Y-105459986D02*
G75*
G03*
X104176777Y-105283223I0J603586D01*
G01*
%TD*%
%TA.AperFunction,Conductor*%
%TO.N,GND*%
G36*
X93570531Y-89805502D02*
G01*
X93617024Y-89859158D01*
X93627128Y-89929432D01*
X93619805Y-89957264D01*
X93565309Y-90097039D01*
X93544758Y-90253138D01*
X93562035Y-90409633D01*
X93616143Y-90557490D01*
X93620380Y-90563796D01*
X93620382Y-90563799D01*
X93645647Y-90601397D01*
X93703958Y-90688172D01*
X93709577Y-90693285D01*
X93709578Y-90693286D01*
X93781695Y-90758908D01*
X93818618Y-90819549D01*
X93822626Y-90843858D01*
X93828746Y-90937185D01*
X93837702Y-91073779D01*
X93890206Y-91337709D01*
X93976711Y-91592528D01*
X93978534Y-91596224D01*
X94086246Y-91814634D01*
X94095735Y-91833876D01*
X94098033Y-91837315D01*
X94178764Y-91958134D01*
X94200000Y-92028137D01*
X94200000Y-94660000D01*
X94300000Y-94660000D01*
X94300000Y-92430448D01*
X94320002Y-92362327D01*
X94373658Y-92315834D01*
X94443932Y-92305730D01*
X94509077Y-92335716D01*
X94518576Y-92344046D01*
X94624997Y-92437374D01*
X94848748Y-92586878D01*
X94852441Y-92588699D01*
X95005407Y-92664134D01*
X95090097Y-92705899D01*
X95183058Y-92737456D01*
X95214502Y-92748130D01*
X95272578Y-92788968D01*
X95299356Y-92854721D01*
X95300000Y-92867443D01*
X95300000Y-93460000D01*
X95307327Y-93466838D01*
X95307327Y-93466839D01*
X96035484Y-94146452D01*
X96050000Y-94160000D01*
X99274000Y-94160000D01*
X99342121Y-94180002D01*
X99388614Y-94233658D01*
X99400000Y-94286000D01*
X99400000Y-99360000D01*
X99500000Y-99360000D01*
X99500000Y-94286000D01*
X99520002Y-94217879D01*
X99573658Y-94171386D01*
X99626000Y-94160000D01*
X102200000Y-94160000D01*
X102200000Y-90586000D01*
X102220002Y-90517879D01*
X102273658Y-90471386D01*
X102326000Y-90460000D01*
X103074000Y-90460000D01*
X103142121Y-90480002D01*
X103188614Y-90533658D01*
X103200000Y-90586000D01*
X103200000Y-93560000D01*
X103300000Y-93560000D01*
X103300000Y-90586000D01*
X103320002Y-90517879D01*
X103373658Y-90471386D01*
X103426000Y-90460000D01*
X104202454Y-90460000D01*
X104270575Y-90480002D01*
X104285693Y-90491410D01*
X104563740Y-90736092D01*
X104601665Y-90796111D01*
X104605423Y-90847128D01*
X104596703Y-90913365D01*
X104594758Y-90928138D01*
X104612035Y-91084633D01*
X104666143Y-91232490D01*
X104670380Y-91238796D01*
X104670382Y-91238799D01*
X104688786Y-91266186D01*
X104753958Y-91363172D01*
X104870410Y-91469135D01*
X104877085Y-91472759D01*
X105002099Y-91540637D01*
X105002101Y-91540638D01*
X105008776Y-91544262D01*
X105016125Y-91546190D01*
X105153719Y-91582287D01*
X105153721Y-91582287D01*
X105161069Y-91584215D01*
X105244380Y-91585524D01*
X105310898Y-91586569D01*
X105310901Y-91586569D01*
X105318495Y-91586688D01*
X105325899Y-91584992D01*
X105325901Y-91584992D01*
X105444538Y-91557821D01*
X105490458Y-91560601D01*
X105490584Y-91558933D01*
X105499556Y-91559609D01*
X105500000Y-91560000D01*
X106447810Y-91560000D01*
X106515931Y-91580002D01*
X106536905Y-91596905D01*
X106963095Y-92023095D01*
X106997121Y-92085407D01*
X107000000Y-92112190D01*
X107000000Y-92215660D01*
X106979998Y-92283781D01*
X106926342Y-92330274D01*
X106903415Y-92338178D01*
X106878974Y-92344046D01*
X106878968Y-92344048D01*
X106871588Y-92345820D01*
X106731679Y-92418032D01*
X106725957Y-92423024D01*
X106725955Y-92423025D01*
X106618759Y-92516538D01*
X106618756Y-92516541D01*
X106613034Y-92521533D01*
X106608667Y-92527747D01*
X106560608Y-92596128D01*
X106522501Y-92650348D01*
X106465309Y-92797039D01*
X106444758Y-92953138D01*
X106462035Y-93109633D01*
X106516143Y-93257490D01*
X106520380Y-93263796D01*
X106520382Y-93263799D01*
X106542779Y-93297128D01*
X106603958Y-93388172D01*
X106609573Y-93393281D01*
X106609578Y-93393287D01*
X106683300Y-93460369D01*
X106720222Y-93521009D01*
X106724500Y-93553562D01*
X106724500Y-98934000D01*
X106704498Y-99002121D01*
X106650842Y-99048614D01*
X106598500Y-99060000D01*
X104400000Y-99060000D01*
X104400000Y-99160000D01*
X106598500Y-99160000D01*
X106666621Y-99180002D01*
X106713114Y-99233658D01*
X106724500Y-99286000D01*
X106724500Y-99866995D01*
X106704498Y-99935116D01*
X106681331Y-99961942D01*
X106613034Y-100021522D01*
X106522501Y-100150337D01*
X106465309Y-100297028D01*
X106444758Y-100453127D01*
X106462035Y-100609622D01*
X106464645Y-100616754D01*
X106492326Y-100692396D01*
X106500000Y-100735697D01*
X106500000Y-101834000D01*
X106479998Y-101902121D01*
X106426342Y-101948614D01*
X106374000Y-101960000D01*
X101400000Y-101960000D01*
X101400000Y-102060000D01*
X106373363Y-102060000D01*
X106441484Y-102080002D01*
X106487977Y-102133658D01*
X106498081Y-102203932D01*
X106490756Y-102231769D01*
X106468070Y-102289956D01*
X106468069Y-102289960D01*
X106465309Y-102297039D01*
X106464317Y-102304572D01*
X106464317Y-102304573D01*
X106449027Y-102420714D01*
X106444758Y-102453138D01*
X106462035Y-102609633D01*
X106464645Y-102616765D01*
X106492326Y-102692407D01*
X106500000Y-102735708D01*
X106500000Y-102942281D01*
X106479998Y-103010402D01*
X106426342Y-103056895D01*
X106356068Y-103066999D01*
X106290183Y-103036359D01*
X106273976Y-103021919D01*
X106134831Y-102948245D01*
X106082932Y-102935209D01*
X105989498Y-102911740D01*
X105989496Y-102911740D01*
X105982128Y-102909889D01*
X105974530Y-102909849D01*
X105974528Y-102909849D01*
X105907319Y-102909497D01*
X105824684Y-102909065D01*
X105817305Y-102910837D01*
X105817301Y-102910837D01*
X105678967Y-102944048D01*
X105678963Y-102944049D01*
X105671588Y-102945820D01*
X105531679Y-103018032D01*
X105525957Y-103023024D01*
X105525955Y-103023025D01*
X105418759Y-103116538D01*
X105418756Y-103116541D01*
X105413034Y-103121533D01*
X105387047Y-103158509D01*
X105364801Y-103190162D01*
X105322501Y-103250348D01*
X105265309Y-103397039D01*
X105244758Y-103553138D01*
X105251150Y-103611035D01*
X105238744Y-103680940D01*
X105215006Y-103713957D01*
X104493342Y-104435621D01*
X104431030Y-104469647D01*
X104360215Y-104464582D01*
X104341155Y-104455593D01*
X104210201Y-104379834D01*
X104090647Y-104338318D01*
X104017491Y-104312914D01*
X104017489Y-104312914D01*
X104011826Y-104310947D01*
X104005891Y-104310086D01*
X104005889Y-104310086D01*
X103809944Y-104281675D01*
X103809941Y-104281675D01*
X103804004Y-104280814D01*
X103594233Y-104290523D01*
X103479226Y-104318240D01*
X103395915Y-104338318D01*
X103395913Y-104338319D01*
X103390082Y-104339724D01*
X103384624Y-104342206D01*
X103384620Y-104342207D01*
X103280952Y-104389342D01*
X103198919Y-104426640D01*
X103132616Y-104473672D01*
X103043664Y-104536770D01*
X102970764Y-104560000D01*
X102025459Y-104560000D01*
X101957338Y-104539998D01*
X101942878Y-104529165D01*
X101896502Y-104488922D01*
X101891971Y-104484990D01*
X101710201Y-104379834D01*
X101590647Y-104338318D01*
X101517491Y-104312914D01*
X101517489Y-104312914D01*
X101511826Y-104310947D01*
X101505891Y-104310086D01*
X101505889Y-104310086D01*
X101309944Y-104281675D01*
X101309941Y-104281675D01*
X101304004Y-104280814D01*
X101094233Y-104290523D01*
X100979226Y-104318240D01*
X100895915Y-104338318D01*
X100895913Y-104338319D01*
X100890082Y-104339724D01*
X100884624Y-104342206D01*
X100884620Y-104342207D01*
X100780952Y-104389342D01*
X100698919Y-104426640D01*
X100632616Y-104473672D01*
X100543664Y-104536770D01*
X100470764Y-104560000D01*
X99525459Y-104560000D01*
X99457338Y-104539998D01*
X99442878Y-104529165D01*
X99396502Y-104488922D01*
X99391971Y-104484990D01*
X99361693Y-104467474D01*
X99312745Y-104416051D01*
X99299865Y-104341964D01*
X99302989Y-104318240D01*
X99309582Y-104268154D01*
X99311490Y-104257337D01*
X99322159Y-104209215D01*
X99348358Y-104091037D01*
X99383418Y-103932890D01*
X99386262Y-103922273D01*
X99465431Y-103671174D01*
X99486200Y-103605302D01*
X99489958Y-103594978D01*
X99617142Y-103287926D01*
X99621784Y-103277973D01*
X99622435Y-103276724D01*
X99775236Y-102983195D01*
X99780731Y-102973676D01*
X99959293Y-102693389D01*
X99965597Y-102684385D01*
X100167918Y-102420714D01*
X100174984Y-102412294D01*
X100374171Y-102194920D01*
X100392734Y-102178307D01*
X100402464Y-102171199D01*
X100421482Y-102146459D01*
X100432283Y-102134155D01*
X103966039Y-98600398D01*
X103982049Y-98586855D01*
X103998016Y-98575487D01*
X104006858Y-98566858D01*
X104012065Y-98559911D01*
X104019984Y-98550362D01*
X104231731Y-98319281D01*
X104232708Y-98318215D01*
X104232715Y-98318207D01*
X104234573Y-98316179D01*
X104403239Y-98096371D01*
X104439027Y-98049732D01*
X104439035Y-98049720D01*
X104440699Y-98047552D01*
X104622629Y-97761981D01*
X104778978Y-97461642D01*
X104826692Y-97346452D01*
X104907506Y-97151353D01*
X104907511Y-97151341D01*
X104908555Y-97148819D01*
X105010376Y-96825893D01*
X105083665Y-96495321D01*
X105127864Y-96159620D01*
X105141114Y-95856223D01*
X105142739Y-95840829D01*
X105143939Y-95833699D01*
X105144090Y-95821345D01*
X105140215Y-95794284D01*
X105138943Y-95776424D01*
X105138943Y-94185163D01*
X105140443Y-94165781D01*
X105142670Y-94151473D01*
X105144052Y-94142599D01*
X105141989Y-94126826D01*
X105141195Y-94102247D01*
X105151994Y-93937457D01*
X105154145Y-93921116D01*
X105191432Y-93733653D01*
X105195698Y-93717732D01*
X105228092Y-93622299D01*
X105257134Y-93536744D01*
X105263439Y-93521520D01*
X105276616Y-93494799D01*
X105346587Y-93352907D01*
X105394655Y-93300658D01*
X105431463Y-93285815D01*
X105471968Y-93276538D01*
X105612625Y-93205795D01*
X105638869Y-93183381D01*
X105726574Y-93108474D01*
X105726576Y-93108471D01*
X105732348Y-93103542D01*
X105824224Y-92975683D01*
X105882950Y-92829598D01*
X105893679Y-92754211D01*
X105904553Y-92677807D01*
X105904553Y-92677804D01*
X105905134Y-92673723D01*
X105905278Y-92660000D01*
X105886363Y-92503694D01*
X105830710Y-92356412D01*
X105741531Y-92226657D01*
X105639219Y-92135500D01*
X105629648Y-92126972D01*
X105629645Y-92126970D01*
X105623976Y-92121919D01*
X105484831Y-92048245D01*
X105475177Y-92045820D01*
X105339498Y-92011740D01*
X105339496Y-92011740D01*
X105332128Y-92009889D01*
X105324530Y-92009849D01*
X105324528Y-92009849D01*
X105257319Y-92009497D01*
X105174684Y-92009065D01*
X105167305Y-92010837D01*
X105167301Y-92010837D01*
X105028967Y-92044048D01*
X105028963Y-92044049D01*
X105021588Y-92045820D01*
X104881679Y-92118032D01*
X104875957Y-92123024D01*
X104875955Y-92123025D01*
X104768759Y-92216538D01*
X104768756Y-92216541D01*
X104763034Y-92221533D01*
X104758667Y-92227747D01*
X104682785Y-92335716D01*
X104672501Y-92350348D01*
X104615309Y-92497039D01*
X104614318Y-92504567D01*
X104596501Y-92639897D01*
X104574340Y-92696361D01*
X104537610Y-92748130D01*
X104531243Y-92757103D01*
X104529534Y-92760195D01*
X104529531Y-92760200D01*
X104452811Y-92899016D01*
X104390611Y-93011560D01*
X104279354Y-93280163D01*
X104198871Y-93559534D01*
X104150175Y-93846160D01*
X104145512Y-93929215D01*
X104135775Y-94102634D01*
X104134228Y-94116468D01*
X104132947Y-94124082D01*
X104132796Y-94136436D01*
X104133487Y-94141260D01*
X104133487Y-94141262D01*
X104136670Y-94163485D01*
X104137943Y-94181349D01*
X104137943Y-94634000D01*
X104117941Y-94702121D01*
X104064285Y-94748614D01*
X104011943Y-94760000D01*
X100900000Y-94760000D01*
X100900000Y-94860000D01*
X104011943Y-94860000D01*
X104080064Y-94880002D01*
X104126557Y-94933658D01*
X104137943Y-94986000D01*
X104137943Y-95772592D01*
X104136443Y-95791978D01*
X104132834Y-95815156D01*
X104135259Y-95833699D01*
X104135301Y-95834024D01*
X104136213Y-95856542D01*
X104124392Y-96097106D01*
X104123180Y-96109408D01*
X104084263Y-96371756D01*
X104083573Y-96376404D01*
X104081161Y-96388531D01*
X104015573Y-96650364D01*
X104011983Y-96662197D01*
X103921049Y-96916334D01*
X103916317Y-96927757D01*
X103800917Y-97171748D01*
X103795089Y-97182653D01*
X103656321Y-97414172D01*
X103649451Y-97424454D01*
X103488656Y-97641259D01*
X103480813Y-97650815D01*
X103323907Y-97823935D01*
X103304881Y-97841054D01*
X103296160Y-97847425D01*
X103290689Y-97854542D01*
X103290688Y-97854543D01*
X103277142Y-97872165D01*
X103266341Y-97884469D01*
X99732584Y-101418226D01*
X99716567Y-101431774D01*
X99704576Y-101440311D01*
X99704569Y-101440317D01*
X99700608Y-101443137D01*
X99691766Y-101451766D01*
X99687853Y-101456986D01*
X99679567Y-101466932D01*
X99429391Y-101737571D01*
X99189231Y-102042213D01*
X99187854Y-102044274D01*
X99187851Y-102044278D01*
X99013928Y-102304573D01*
X98973714Y-102364758D01*
X98860627Y-102566690D01*
X98792274Y-102688744D01*
X98784168Y-102703218D01*
X98621762Y-103055506D01*
X98620904Y-103057832D01*
X98492988Y-103404568D01*
X98487497Y-103419451D01*
X98486821Y-103421848D01*
X98413751Y-103680940D01*
X98382201Y-103792808D01*
X98381720Y-103795227D01*
X98326651Y-104072089D01*
X98306524Y-104173276D01*
X98306236Y-104175709D01*
X98306234Y-104175722D01*
X98301978Y-104211688D01*
X98289368Y-104318240D01*
X98289297Y-104318836D01*
X98261427Y-104384134D01*
X98216320Y-104418728D01*
X98206126Y-104423363D01*
X98198919Y-104426640D01*
X98098899Y-104497589D01*
X98031766Y-104520687D01*
X97962801Y-104503823D01*
X97913902Y-104452351D01*
X97900000Y-104394819D01*
X97900000Y-101460000D01*
X97800000Y-101460000D01*
X97800000Y-104434000D01*
X97779998Y-104502121D01*
X97726342Y-104548614D01*
X97674000Y-104560000D01*
X97664824Y-104560000D01*
X97596703Y-104539998D01*
X97550210Y-104486342D01*
X97545299Y-104473873D01*
X97543411Y-104468214D01*
X97537239Y-104455038D01*
X97451937Y-104317193D01*
X97442901Y-104305792D01*
X97328171Y-104191261D01*
X97316760Y-104182249D01*
X97178757Y-104097184D01*
X97165576Y-104091037D01*
X97011290Y-104039862D01*
X96997914Y-104036995D01*
X96903562Y-104027328D01*
X96897145Y-104027000D01*
X96522115Y-104027000D01*
X96506876Y-104031475D01*
X96505671Y-104032865D01*
X96504000Y-104040548D01*
X96504000Y-104560000D01*
X95996000Y-104560000D01*
X95996000Y-104045116D01*
X95991525Y-104029877D01*
X95990135Y-104028672D01*
X95982452Y-104027001D01*
X95602905Y-104027001D01*
X95596386Y-104027338D01*
X95500794Y-104037257D01*
X95487400Y-104040149D01*
X95333216Y-104091588D01*
X95320038Y-104097761D01*
X95182193Y-104183063D01*
X95170792Y-104192099D01*
X95056261Y-104306829D01*
X95047249Y-104318240D01*
X94962184Y-104456243D01*
X94956037Y-104469423D01*
X94954628Y-104473672D01*
X94914195Y-104532030D01*
X94848630Y-104559265D01*
X94835036Y-104560000D01*
X94526000Y-104560000D01*
X94457879Y-104539998D01*
X94411386Y-104486342D01*
X94400000Y-104434000D01*
X94400000Y-101460000D01*
X94300000Y-101460000D01*
X94300000Y-104434000D01*
X94279998Y-104502121D01*
X94226342Y-104548614D01*
X94174000Y-104560000D01*
X93483226Y-104560000D01*
X93415105Y-104539998D01*
X93394131Y-104523095D01*
X92046983Y-103175947D01*
X92034142Y-103160913D01*
X92028207Y-103152744D01*
X92022380Y-103144724D01*
X92014361Y-103138898D01*
X92007346Y-103131883D01*
X92007473Y-103131756D01*
X91996538Y-103121648D01*
X91952594Y-103070196D01*
X91923565Y-103005409D01*
X91934170Y-102935209D01*
X91946083Y-102914846D01*
X91974224Y-102875683D01*
X92032950Y-102729598D01*
X92055134Y-102573723D01*
X92055278Y-102560000D01*
X92036363Y-102403694D01*
X92016116Y-102350111D01*
X91983394Y-102263514D01*
X91983393Y-102263511D01*
X91980710Y-102256412D01*
X91891531Y-102126657D01*
X91842179Y-102082686D01*
X91804625Y-102022438D01*
X91800000Y-101988612D01*
X91800000Y-100786000D01*
X91820002Y-100717879D01*
X91873658Y-100671386D01*
X91926000Y-100660000D01*
X98600000Y-100660000D01*
X98600000Y-100560000D01*
X91926000Y-100560000D01*
X91857879Y-100539998D01*
X91811386Y-100486342D01*
X91800000Y-100434000D01*
X91800000Y-97486000D01*
X91820002Y-97417879D01*
X91873658Y-97371386D01*
X91926000Y-97360000D01*
X97700000Y-97360000D01*
X97700000Y-97260000D01*
X91926000Y-97260000D01*
X91857879Y-97239998D01*
X91811386Y-97186342D01*
X91800000Y-97134000D01*
X91800000Y-92677124D01*
X91804570Y-92643497D01*
X91882104Y-92363514D01*
X92534305Y-90008344D01*
X92573901Y-89946164D01*
X92682348Y-89853542D01*
X92686777Y-89847378D01*
X92686780Y-89847375D01*
X92693536Y-89837973D01*
X92749531Y-89794326D01*
X92795858Y-89785500D01*
X93502410Y-89785500D01*
X93570531Y-89805502D01*
G37*
%TD.AperFunction*%
%TD*%
M02*
