M48
; DRILL file {KiCad (5.1.9-0-10_14)} date Saturday, July 24, 2021 at 09:59:58 AM
; FORMAT={-:-/ absolute / inch / decimal}
; #@! TF.CreationDate,2021-07-24T09:59:58+01:00
; #@! TF.GenerationSoftware,Kicad,Pcbnew,(5.1.9-0-10_14)
; #@! TF.FileFunction,Plated,1,2,PTH
FMAT,2
INCH
T1C0.0098
T2C0.0157
T3C0.0315
T4C0.0335
T5C0.0394
T6C0.0433
T7C0.1260
%
G90
G05
T1
X3.8583Y-3.2677
X3.8976Y-3.8976
X3.8976Y-3.9764
X3.937Y-3.189
X3.937Y-3.937
X3.9764Y-3.8976
X3.9764Y-3.9764
X4.0157Y-3.2677
T2
X3.6024Y-4.1732
X3.6663Y-3.6949
X3.6703Y-4.0778
X3.6929Y-3.7992
X3.7165Y-4.0787
X3.7403Y-3.804
X3.7913Y-4.0787
X3.7972Y-3.7539
X3.8465Y-3.685
X3.9036Y-3.685
X3.937Y-3.6024
X4.0571Y-3.6949
X4.0571Y-3.7539
X4.123Y-3.7884
X4.1442Y-4.2293
X4.1694Y-3.6839
X4.1811Y-3.7795
X4.1826Y-3.9936
X4.1829Y-4.2222
X4.2008Y-4.1417
X4.2175Y-3.7299
X4.2201Y-3.7996
X4.222Y-4.0843
X4.2874Y-3.7244
X4.2913Y-4.0541
X4.2913Y-4.1535
X4.2913Y-4.2165
X4.3504Y-3.5394
X4.3583Y-3.8465
X4.3622Y-3.7913
X4.3661Y-4.0118
X4.3972Y-3.8409
X4.4094Y-3.6299
X4.4094Y-4.0315
X4.4131Y-3.877
T3
X3.8878Y-3.6378
X3.9862Y-3.6378
T4
X3.7894Y-4.2874
X3.8878Y-4.2874
X3.9862Y-4.2874
X4.0846Y-4.2874
T5
X3.787Y-4.4094
X3.887Y-4.4094
X3.987Y-4.4094
X4.087Y-4.4094
X4.4094Y-4.1232
X4.4094Y-4.2232
T6
X3.3957Y-3.8091
X3.3957Y-4.065
X3.5728Y-3.8091
X3.5728Y-4.065
T7
X3.4646Y-3.4646
X4.4094Y-4.4094
T0
M30
