%TF.GenerationSoftware,KiCad,Pcbnew,(5.1.10-1-10_14)*%
%TF.CreationDate,2021-05-13T07:49:40+01:00*%
%TF.ProjectId,PN532,504e3533-322e-46b6-9963-61645f706362,6*%
%TF.SameCoordinates,Original*%
%TF.FileFunction,Legend,Top*%
%TF.FilePolarity,Positive*%
%FSLAX46Y46*%
G04 Gerber Fmt 4.6, Leading zero omitted, Abs format (unit mm)*
G04 Created by KiCad (PCBNEW (5.1.10-1-10_14)) date 2021-05-13 07:49:40*
%MOMM*%
%LPD*%
G01*
G04 APERTURE LIST*
%ADD10C,0.080000*%
%ADD11C,0.120000*%
%ADD12C,0.032000*%
%ADD13C,0.100000*%
%ADD14C,0.150000*%
%ADD15C,0.050000*%
G04 APERTURE END LIST*
D10*
X111559523Y-108664285D02*
X111630952Y-108688095D01*
X111654761Y-108711904D01*
X111678571Y-108759523D01*
X111678571Y-108830952D01*
X111654761Y-108878571D01*
X111630952Y-108902380D01*
X111583333Y-108926190D01*
X111392857Y-108926190D01*
X111392857Y-108426190D01*
X111559523Y-108426190D01*
X111607142Y-108450000D01*
X111630952Y-108473809D01*
X111654761Y-108521428D01*
X111654761Y-108569047D01*
X111630952Y-108616666D01*
X111607142Y-108640476D01*
X111559523Y-108664285D01*
X111392857Y-108664285D01*
X112083333Y-108902380D02*
X112035714Y-108926190D01*
X111940476Y-108926190D01*
X111892857Y-108902380D01*
X111869047Y-108854761D01*
X111869047Y-108664285D01*
X111892857Y-108616666D01*
X111940476Y-108592857D01*
X112035714Y-108592857D01*
X112083333Y-108616666D01*
X112107142Y-108664285D01*
X112107142Y-108711904D01*
X111869047Y-108759523D01*
X112392857Y-108926190D02*
X112345238Y-108902380D01*
X112321428Y-108854761D01*
X112321428Y-108426190D01*
X112654761Y-108926190D02*
X112607142Y-108902380D01*
X112583333Y-108854761D01*
X112583333Y-108426190D01*
D11*
X98750001Y-90750001D02*
G75*
G02*
X101249999Y-90750001I1249999J-1249999D01*
G01*
X98000001Y-90000001D02*
G75*
G02*
X101999999Y-90000001I1999999J-1999999D01*
G01*
X98250001Y-90250001D02*
G75*
G02*
X101749999Y-90250001I1749999J-1749999D01*
G01*
X98500001Y-90500001D02*
G75*
G02*
X101499999Y-90500001I1499999J-1499999D01*
G01*
D12*
X87043860Y-111360000D02*
X87043860Y-111360000D01*
X87074703Y-111360825D02*
X87043860Y-111360000D01*
X87105139Y-111363183D02*
X87074703Y-111360825D01*
X87135131Y-111367036D02*
X87105139Y-111363183D01*
X87164642Y-111372346D02*
X87135131Y-111367036D01*
X87193634Y-111379076D02*
X87164642Y-111372346D01*
X87222069Y-111387189D02*
X87193634Y-111379076D01*
X87249910Y-111396646D02*
X87222069Y-111387189D01*
X87277119Y-111407409D02*
X87249910Y-111396646D01*
X87303659Y-111419442D02*
X87277119Y-111407409D01*
X87329492Y-111432707D02*
X87303659Y-111419442D01*
X87354580Y-111447166D02*
X87329492Y-111432707D01*
X87378887Y-111462781D02*
X87354580Y-111447166D01*
X87402374Y-111479515D02*
X87378887Y-111462781D01*
X87425004Y-111497330D02*
X87402374Y-111479515D01*
X87446740Y-111516189D02*
X87425004Y-111497330D01*
X87467543Y-111536053D02*
X87446740Y-111516189D01*
X87487376Y-111556886D02*
X87467543Y-111536053D01*
X87506202Y-111578650D02*
X87487376Y-111556886D01*
X87523983Y-111601307D02*
X87506202Y-111578650D01*
X87540682Y-111624819D02*
X87523983Y-111601307D01*
X87556261Y-111649149D02*
X87540682Y-111624819D01*
X87570682Y-111674259D02*
X87556261Y-111649149D01*
X87583908Y-111700112D02*
X87570682Y-111674259D01*
X87595901Y-111726670D02*
X87583908Y-111700112D01*
X87606624Y-111753896D02*
X87595901Y-111726670D01*
X87616039Y-111781751D02*
X87606624Y-111753896D01*
X87624108Y-111810198D02*
X87616039Y-111781751D01*
X87630795Y-111839200D02*
X87624108Y-111810198D01*
X87636061Y-111868718D02*
X87630795Y-111839200D01*
X87639869Y-111898716D02*
X87636061Y-111868718D01*
X87642181Y-111929156D02*
X87639869Y-111898716D01*
X87642960Y-111960000D02*
X87642181Y-111929156D01*
X87642627Y-111980046D02*
X87642960Y-111960000D01*
X87641631Y-111999983D02*
X87642627Y-111980046D01*
X87639981Y-112019797D02*
X87641631Y-111999983D01*
X87637684Y-112039475D02*
X87639981Y-112019797D01*
X87634749Y-112059003D02*
X87637684Y-112039475D01*
X87631183Y-112078367D02*
X87634749Y-112059003D01*
X87626995Y-112097554D02*
X87631183Y-112078367D01*
X87622191Y-112116550D02*
X87626995Y-112097554D01*
X87616781Y-112135341D02*
X87622191Y-112116550D01*
X87610771Y-112153914D02*
X87616781Y-112135341D01*
X87604171Y-112172255D02*
X87610771Y-112153914D01*
X87596987Y-112190350D02*
X87604171Y-112172255D01*
X87589227Y-112208185D02*
X87596987Y-112190350D01*
X87580901Y-112225748D02*
X87589227Y-112208185D01*
X87572014Y-112243024D02*
X87580901Y-112225748D01*
X87562576Y-112260000D02*
X87572014Y-112243024D01*
X87552594Y-112276661D02*
X87562576Y-112260000D01*
X87542075Y-112292995D02*
X87552594Y-112276661D01*
X87531029Y-112308988D02*
X87542075Y-112292995D01*
X87519463Y-112324625D02*
X87531029Y-112308988D01*
X87507384Y-112339894D02*
X87519463Y-112324625D01*
X87494801Y-112354781D02*
X87507384Y-112339894D01*
X87481721Y-112369272D02*
X87494801Y-112354781D01*
X87468153Y-112383353D02*
X87481721Y-112369272D01*
X87454103Y-112397010D02*
X87468153Y-112383353D01*
X87439581Y-112410231D02*
X87454103Y-112397010D01*
X87424594Y-112423001D02*
X87439581Y-112410231D01*
X87409150Y-112435307D02*
X87424594Y-112423001D01*
X87393257Y-112447135D02*
X87409150Y-112435307D01*
X87376922Y-112458472D02*
X87393257Y-112447135D01*
X87360154Y-112469303D02*
X87376922Y-112458472D01*
X87342960Y-112479615D02*
X87360154Y-112469303D01*
X87325433Y-112489349D02*
X87342960Y-112479615D01*
X87307669Y-112498455D02*
X87325433Y-112489349D01*
X87289684Y-112506933D02*
X87307669Y-112498455D01*
X87271494Y-112514783D02*
X87289684Y-112506933D01*
X87253115Y-112522005D02*
X87271494Y-112514783D01*
X87234562Y-112528599D02*
X87253115Y-112522005D01*
X87215852Y-112534565D02*
X87234562Y-112528599D01*
X87196999Y-112539903D02*
X87215852Y-112534565D01*
X87178020Y-112544613D02*
X87196999Y-112539903D01*
X87158931Y-112548695D02*
X87178020Y-112544613D01*
X87139747Y-112552149D02*
X87158931Y-112548695D01*
X87120485Y-112554975D02*
X87139747Y-112552149D01*
X87101159Y-112557173D02*
X87120485Y-112554975D01*
X87081786Y-112558743D02*
X87101159Y-112557173D01*
X87062381Y-112559685D02*
X87081786Y-112558743D01*
X87042960Y-112560000D02*
X87062381Y-112559685D01*
X87023540Y-112559685D02*
X87042960Y-112560000D01*
X87004135Y-112558743D02*
X87023540Y-112559685D01*
X86984762Y-112557173D02*
X87004135Y-112558743D01*
X86965436Y-112554975D02*
X86984762Y-112557173D01*
X86946174Y-112552149D02*
X86965436Y-112554975D01*
X86926990Y-112548695D02*
X86946174Y-112552149D01*
X86907901Y-112544613D02*
X86926990Y-112548695D01*
X86888922Y-112539903D02*
X86907901Y-112544613D01*
X86870069Y-112534565D02*
X86888922Y-112539903D01*
X86851359Y-112528599D02*
X86870069Y-112534565D01*
X86832806Y-112522005D02*
X86851359Y-112528599D01*
X86814427Y-112514783D02*
X86832806Y-112522005D01*
X86796237Y-112506933D02*
X86814427Y-112514783D01*
X86778252Y-112498455D02*
X86796237Y-112506933D01*
X86760488Y-112489349D02*
X86778252Y-112498455D01*
X86742960Y-112479615D02*
X86760488Y-112489349D01*
X86725767Y-112469303D02*
X86742960Y-112479615D01*
X86708999Y-112458472D02*
X86725767Y-112469303D01*
X86692664Y-112447135D02*
X86708999Y-112458472D01*
X86676771Y-112435307D02*
X86692664Y-112447135D01*
X86661327Y-112423001D02*
X86676771Y-112435307D01*
X86646340Y-112410231D02*
X86661327Y-112423001D01*
X86631818Y-112397010D02*
X86646340Y-112410231D01*
X86617768Y-112383353D02*
X86631818Y-112397010D01*
X86604200Y-112369272D02*
X86617768Y-112383353D01*
X86591120Y-112354781D02*
X86604200Y-112369272D01*
X86578537Y-112339894D02*
X86591120Y-112354781D01*
X86566458Y-112324625D02*
X86578537Y-112339894D01*
X86554892Y-112308988D02*
X86566458Y-112324625D01*
X86543846Y-112292995D02*
X86554892Y-112308988D01*
X86533327Y-112276661D02*
X86543846Y-112292995D01*
X86523345Y-112260000D02*
X86533327Y-112276661D01*
X86513907Y-112243024D02*
X86523345Y-112260000D01*
X86505020Y-112225748D02*
X86513907Y-112243024D01*
X86496694Y-112208185D02*
X86505020Y-112225748D01*
X86488934Y-112190350D02*
X86496694Y-112208185D01*
X86481750Y-112172255D02*
X86488934Y-112190350D01*
X86475150Y-112153914D02*
X86481750Y-112172255D01*
X86469140Y-112135341D02*
X86475150Y-112153914D01*
X86463730Y-112116550D02*
X86469140Y-112135341D01*
X86458926Y-112097554D02*
X86463730Y-112116550D01*
X86454738Y-112078367D02*
X86458926Y-112097554D01*
X86451172Y-112059003D02*
X86454738Y-112078367D01*
X86448237Y-112039475D02*
X86451172Y-112059003D01*
X86445940Y-112019797D02*
X86448237Y-112039475D01*
X86444290Y-111999983D02*
X86445940Y-112019797D01*
X86443294Y-111980046D02*
X86444290Y-111999983D01*
X86442960Y-111960000D02*
X86443294Y-111980046D01*
X86443699Y-111930218D02*
X86442960Y-111960000D01*
X86445902Y-111900639D02*
X86443699Y-111930218D01*
X86449549Y-111871313D02*
X86445902Y-111900639D01*
X86454618Y-111842287D02*
X86449549Y-111871313D01*
X86461090Y-111813611D02*
X86454618Y-111842287D01*
X86468945Y-111785336D02*
X86461090Y-111813611D01*
X86478161Y-111757509D02*
X86468945Y-111785336D01*
X86488719Y-111730181D02*
X86478161Y-111757509D01*
X86500597Y-111703401D02*
X86488719Y-111730181D01*
X86513776Y-111677218D02*
X86500597Y-111703401D01*
X86528235Y-111651681D02*
X86513776Y-111677218D01*
X86543954Y-111626839D02*
X86528235Y-111651681D01*
X86560911Y-111602743D02*
X86543954Y-111626839D01*
X86579088Y-111579441D02*
X86560911Y-111602743D01*
X86598462Y-111556983D02*
X86579088Y-111579441D01*
X86619015Y-111535417D02*
X86598462Y-111556983D01*
X86640611Y-111514897D02*
X86619015Y-111535417D01*
X86663098Y-111495556D02*
X86640611Y-111514897D01*
X86686428Y-111477415D02*
X86663098Y-111495556D01*
X86710549Y-111460493D02*
X86686428Y-111477415D01*
X86735414Y-111444812D02*
X86710549Y-111460493D01*
X86760973Y-111430391D02*
X86735414Y-111444812D01*
X86787176Y-111417252D02*
X86760973Y-111430391D01*
X86813974Y-111405413D02*
X86787176Y-111417252D01*
X86841318Y-111394897D02*
X86813974Y-111405413D01*
X86869158Y-111385722D02*
X86841318Y-111394897D01*
X86897445Y-111377910D02*
X86869158Y-111385722D01*
X86926130Y-111371481D02*
X86897445Y-111377910D01*
X86955164Y-111366455D02*
X86926130Y-111371481D01*
X86984496Y-111362852D02*
X86955164Y-111366455D01*
X87014078Y-111360694D02*
X86984496Y-111362852D01*
X87043860Y-111360000D02*
X87014078Y-111360694D01*
X88963860Y-111360000D02*
X88963860Y-111360000D01*
X88994703Y-111360825D02*
X88963860Y-111360000D01*
X89025139Y-111363183D02*
X88994703Y-111360825D01*
X89055131Y-111367036D02*
X89025139Y-111363183D01*
X89084642Y-111372346D02*
X89055131Y-111367036D01*
X89113634Y-111379076D02*
X89084642Y-111372346D01*
X89142069Y-111387189D02*
X89113634Y-111379076D01*
X89169910Y-111396646D02*
X89142069Y-111387189D01*
X89197119Y-111407409D02*
X89169910Y-111396646D01*
X89223659Y-111419442D02*
X89197119Y-111407409D01*
X89249492Y-111432707D02*
X89223659Y-111419442D01*
X89274580Y-111447166D02*
X89249492Y-111432707D01*
X89298887Y-111462781D02*
X89274580Y-111447166D01*
X89322374Y-111479515D02*
X89298887Y-111462781D01*
X89345004Y-111497330D02*
X89322374Y-111479515D01*
X89366740Y-111516189D02*
X89345004Y-111497330D01*
X89387543Y-111536053D02*
X89366740Y-111516189D01*
X89407376Y-111556886D02*
X89387543Y-111536053D01*
X89426202Y-111578650D02*
X89407376Y-111556886D01*
X89443983Y-111601307D02*
X89426202Y-111578650D01*
X89460682Y-111624819D02*
X89443983Y-111601307D01*
X89476261Y-111649149D02*
X89460682Y-111624819D01*
X89490682Y-111674259D02*
X89476261Y-111649149D01*
X89503908Y-111700112D02*
X89490682Y-111674259D01*
X89515901Y-111726670D02*
X89503908Y-111700112D01*
X89526624Y-111753896D02*
X89515901Y-111726670D01*
X89536039Y-111781751D02*
X89526624Y-111753896D01*
X89544108Y-111810198D02*
X89536039Y-111781751D01*
X89550795Y-111839200D02*
X89544108Y-111810198D01*
X89556061Y-111868718D02*
X89550795Y-111839200D01*
X89559869Y-111898716D02*
X89556061Y-111868718D01*
X89562181Y-111929156D02*
X89559869Y-111898716D01*
X89562960Y-111960000D02*
X89562181Y-111929156D01*
X89562627Y-111980046D02*
X89562960Y-111960000D01*
X89561631Y-111999983D02*
X89562627Y-111980046D01*
X89559981Y-112019797D02*
X89561631Y-111999983D01*
X89557684Y-112039475D02*
X89559981Y-112019797D01*
X89554749Y-112059003D02*
X89557684Y-112039475D01*
X89551183Y-112078367D02*
X89554749Y-112059003D01*
X89546995Y-112097554D02*
X89551183Y-112078367D01*
X89542191Y-112116550D02*
X89546995Y-112097554D01*
X89536781Y-112135341D02*
X89542191Y-112116550D01*
X89530771Y-112153914D02*
X89536781Y-112135341D01*
X89524171Y-112172255D02*
X89530771Y-112153914D01*
X89516987Y-112190350D02*
X89524171Y-112172255D01*
X89509227Y-112208185D02*
X89516987Y-112190350D01*
X89500901Y-112225748D02*
X89509227Y-112208185D01*
X89492014Y-112243024D02*
X89500901Y-112225748D01*
X89482576Y-112260000D02*
X89492014Y-112243024D01*
X89472594Y-112276661D02*
X89482576Y-112260000D01*
X89462075Y-112292995D02*
X89472594Y-112276661D01*
X89451029Y-112308988D02*
X89462075Y-112292995D01*
X89439463Y-112324625D02*
X89451029Y-112308988D01*
X89427384Y-112339894D02*
X89439463Y-112324625D01*
X89414801Y-112354781D02*
X89427384Y-112339894D01*
X89401721Y-112369272D02*
X89414801Y-112354781D01*
X89388153Y-112383353D02*
X89401721Y-112369272D01*
X89374103Y-112397010D02*
X89388153Y-112383353D01*
X89359581Y-112410231D02*
X89374103Y-112397010D01*
X89344594Y-112423001D02*
X89359581Y-112410231D01*
X89329150Y-112435307D02*
X89344594Y-112423001D01*
X89313257Y-112447135D02*
X89329150Y-112435307D01*
X89296922Y-112458472D02*
X89313257Y-112447135D01*
X89280154Y-112469303D02*
X89296922Y-112458472D01*
X89262960Y-112479615D02*
X89280154Y-112469303D01*
X89245433Y-112489349D02*
X89262960Y-112479615D01*
X89227669Y-112498455D02*
X89245433Y-112489349D01*
X89209684Y-112506933D02*
X89227669Y-112498455D01*
X89191494Y-112514783D02*
X89209684Y-112506933D01*
X89173115Y-112522005D02*
X89191494Y-112514783D01*
X89154562Y-112528599D02*
X89173115Y-112522005D01*
X89135852Y-112534565D02*
X89154562Y-112528599D01*
X89116999Y-112539903D02*
X89135852Y-112534565D01*
X89098020Y-112544613D02*
X89116999Y-112539903D01*
X89078931Y-112548695D02*
X89098020Y-112544613D01*
X89059747Y-112552149D02*
X89078931Y-112548695D01*
X89040485Y-112554975D02*
X89059747Y-112552149D01*
X89021159Y-112557173D02*
X89040485Y-112554975D01*
X89001786Y-112558743D02*
X89021159Y-112557173D01*
X88982381Y-112559685D02*
X89001786Y-112558743D01*
X88962960Y-112560000D02*
X88982381Y-112559685D01*
X88943540Y-112559685D02*
X88962960Y-112560000D01*
X88924135Y-112558743D02*
X88943540Y-112559685D01*
X88904762Y-112557173D02*
X88924135Y-112558743D01*
X88885436Y-112554975D02*
X88904762Y-112557173D01*
X88866174Y-112552149D02*
X88885436Y-112554975D01*
X88846990Y-112548695D02*
X88866174Y-112552149D01*
X88827901Y-112544613D02*
X88846990Y-112548695D01*
X88808922Y-112539903D02*
X88827901Y-112544613D01*
X88790069Y-112534565D02*
X88808922Y-112539903D01*
X88771359Y-112528599D02*
X88790069Y-112534565D01*
X88752806Y-112522005D02*
X88771359Y-112528599D01*
X88734427Y-112514783D02*
X88752806Y-112522005D01*
X88716237Y-112506933D02*
X88734427Y-112514783D01*
X88698252Y-112498455D02*
X88716237Y-112506933D01*
X88680488Y-112489349D02*
X88698252Y-112498455D01*
X88662960Y-112479615D02*
X88680488Y-112489349D01*
X88645767Y-112469303D02*
X88662960Y-112479615D01*
X88628999Y-112458472D02*
X88645767Y-112469303D01*
X88612664Y-112447135D02*
X88628999Y-112458472D01*
X88596771Y-112435307D02*
X88612664Y-112447135D01*
X88581327Y-112423001D02*
X88596771Y-112435307D01*
X88566340Y-112410231D02*
X88581327Y-112423001D01*
X88551818Y-112397010D02*
X88566340Y-112410231D01*
X88537768Y-112383353D02*
X88551818Y-112397010D01*
X88524200Y-112369272D02*
X88537768Y-112383353D01*
X88511120Y-112354781D02*
X88524200Y-112369272D01*
X88498537Y-112339894D02*
X88511120Y-112354781D01*
X88486458Y-112324625D02*
X88498537Y-112339894D01*
X88474892Y-112308988D02*
X88486458Y-112324625D01*
X88463846Y-112292995D02*
X88474892Y-112308988D01*
X88453327Y-112276661D02*
X88463846Y-112292995D01*
X88443345Y-112260000D02*
X88453327Y-112276661D01*
X88433907Y-112243024D02*
X88443345Y-112260000D01*
X88425020Y-112225748D02*
X88433907Y-112243024D01*
X88416694Y-112208185D02*
X88425020Y-112225748D01*
X88408934Y-112190350D02*
X88416694Y-112208185D01*
X88401750Y-112172255D02*
X88408934Y-112190350D01*
X88395150Y-112153914D02*
X88401750Y-112172255D01*
X88389140Y-112135341D02*
X88395150Y-112153914D01*
X88383730Y-112116550D02*
X88389140Y-112135341D01*
X88378926Y-112097554D02*
X88383730Y-112116550D01*
X88374738Y-112078367D02*
X88378926Y-112097554D01*
X88371172Y-112059003D02*
X88374738Y-112078367D01*
X88368237Y-112039475D02*
X88371172Y-112059003D01*
X88365940Y-112019797D02*
X88368237Y-112039475D01*
X88364290Y-111999983D02*
X88365940Y-112019797D01*
X88363294Y-111980046D02*
X88364290Y-111999983D01*
X88362960Y-111960000D02*
X88363294Y-111980046D01*
X88363699Y-111930218D02*
X88362960Y-111960000D01*
X88365902Y-111900639D02*
X88363699Y-111930218D01*
X88369549Y-111871313D02*
X88365902Y-111900639D01*
X88374618Y-111842287D02*
X88369549Y-111871313D01*
X88381090Y-111813611D02*
X88374618Y-111842287D01*
X88388945Y-111785336D02*
X88381090Y-111813611D01*
X88398161Y-111757509D02*
X88388945Y-111785336D01*
X88408719Y-111730181D02*
X88398161Y-111757509D01*
X88420597Y-111703401D02*
X88408719Y-111730181D01*
X88433776Y-111677218D02*
X88420597Y-111703401D01*
X88448235Y-111651681D02*
X88433776Y-111677218D01*
X88463954Y-111626839D02*
X88448235Y-111651681D01*
X88480911Y-111602743D02*
X88463954Y-111626839D01*
X88499088Y-111579441D02*
X88480911Y-111602743D01*
X88518462Y-111556983D02*
X88499088Y-111579441D01*
X88539015Y-111535417D02*
X88518462Y-111556983D01*
X88560611Y-111514897D02*
X88539015Y-111535417D01*
X88583098Y-111495556D02*
X88560611Y-111514897D01*
X88606428Y-111477415D02*
X88583098Y-111495556D01*
X88630549Y-111460493D02*
X88606428Y-111477415D01*
X88655414Y-111444812D02*
X88630549Y-111460493D01*
X88680973Y-111430391D02*
X88655414Y-111444812D01*
X88707176Y-111417252D02*
X88680973Y-111430391D01*
X88733974Y-111405413D02*
X88707176Y-111417252D01*
X88761318Y-111394897D02*
X88733974Y-111405413D01*
X88789158Y-111385722D02*
X88761318Y-111394897D01*
X88817445Y-111377910D02*
X88789158Y-111385722D01*
X88846130Y-111371481D02*
X88817445Y-111377910D01*
X88875164Y-111366455D02*
X88846130Y-111371481D01*
X88904496Y-111362852D02*
X88875164Y-111366455D01*
X88934078Y-111360694D02*
X88904496Y-111362852D01*
X88963860Y-111360000D02*
X88934078Y-111360694D01*
X88005544Y-110140000D02*
X88005544Y-110140000D01*
X88047611Y-110140533D02*
X88005544Y-110140000D01*
X88089473Y-110142010D02*
X88047611Y-110140533D01*
X88131117Y-110144420D02*
X88089473Y-110142010D01*
X88172533Y-110147755D02*
X88131117Y-110144420D01*
X88213711Y-110152004D02*
X88172533Y-110147755D01*
X88254638Y-110157158D02*
X88213711Y-110152004D01*
X88295303Y-110163207D02*
X88254638Y-110157158D01*
X88335696Y-110170143D02*
X88295303Y-110163207D01*
X88375805Y-110177955D02*
X88335696Y-110170143D01*
X88415620Y-110186634D02*
X88375805Y-110177955D01*
X88455128Y-110196171D02*
X88415620Y-110186634D01*
X88494319Y-110206556D02*
X88455128Y-110196171D01*
X88533181Y-110217780D02*
X88494319Y-110206556D01*
X88571705Y-110229833D02*
X88533181Y-110217780D01*
X88609877Y-110242706D02*
X88571705Y-110229833D01*
X88647687Y-110256389D02*
X88609877Y-110242706D01*
X88685125Y-110270873D02*
X88647687Y-110256389D01*
X88722178Y-110286148D02*
X88685125Y-110270873D01*
X88758836Y-110302205D02*
X88722178Y-110286148D01*
X88795088Y-110319034D02*
X88758836Y-110302205D01*
X88830922Y-110336626D02*
X88795088Y-110319034D01*
X88866327Y-110354972D02*
X88830922Y-110336626D01*
X88901292Y-110374062D02*
X88866327Y-110354972D01*
X88935806Y-110393885D02*
X88901292Y-110374062D01*
X88969858Y-110414434D02*
X88935806Y-110393885D01*
X89003436Y-110435699D02*
X88969858Y-110414434D01*
X89036530Y-110457669D02*
X89003436Y-110435699D01*
X89069128Y-110480336D02*
X89036530Y-110457669D01*
X89101219Y-110503690D02*
X89069128Y-110480336D01*
X89132792Y-110527721D02*
X89101219Y-110503690D01*
X89163836Y-110552421D02*
X89132792Y-110527721D01*
X89194340Y-110577779D02*
X89163836Y-110552421D01*
X89224292Y-110603786D02*
X89194340Y-110577779D01*
X89253681Y-110630433D02*
X89224292Y-110603786D01*
X89282496Y-110657710D02*
X89253681Y-110630433D01*
X89310727Y-110685608D02*
X89282496Y-110657710D01*
X89338361Y-110714117D02*
X89310727Y-110685608D01*
X89365388Y-110743227D02*
X89338361Y-110714117D01*
X89391797Y-110772930D02*
X89365388Y-110743227D01*
X89417576Y-110803216D02*
X89391797Y-110772930D01*
X89442714Y-110834075D02*
X89417576Y-110803216D01*
X89467201Y-110865498D02*
X89442714Y-110834075D01*
X89491024Y-110897475D02*
X89467201Y-110865498D01*
X89514173Y-110929996D02*
X89491024Y-110897475D01*
X89536637Y-110963054D02*
X89514173Y-110929996D01*
X89558404Y-110996637D02*
X89536637Y-110963054D01*
X89579463Y-111030737D02*
X89558404Y-110996637D01*
X89599804Y-111065343D02*
X89579463Y-111030737D01*
X89619414Y-111100447D02*
X89599804Y-111065343D01*
X89638283Y-111136039D02*
X89619414Y-111100447D01*
X89656400Y-111172109D02*
X89638283Y-111136039D01*
X89673754Y-111208649D02*
X89656400Y-111172109D01*
X89690333Y-111245648D02*
X89673754Y-111208649D01*
X89706126Y-111283097D02*
X89690333Y-111245648D01*
X89721122Y-111320987D02*
X89706126Y-111283097D01*
X89735310Y-111359307D02*
X89721122Y-111320987D01*
X89748678Y-111398050D02*
X89735310Y-111359307D01*
X89761217Y-111437204D02*
X89748678Y-111398050D01*
X89772913Y-111476761D02*
X89761217Y-111437204D01*
X89783757Y-111516712D02*
X89772913Y-111476761D01*
X89793737Y-111557046D02*
X89783757Y-111516712D01*
X89802842Y-111597754D02*
X89793737Y-111557046D01*
X89811061Y-111638827D02*
X89802842Y-111597754D01*
X89818382Y-111680256D02*
X89811061Y-111638827D01*
X89809120Y-111653373D02*
X89818382Y-111680256D01*
X89799055Y-111626897D02*
X89809120Y-111653373D01*
X89788203Y-111600843D02*
X89799055Y-111626897D01*
X89776577Y-111575225D02*
X89788203Y-111600843D01*
X89764193Y-111550055D02*
X89776577Y-111575225D01*
X89751066Y-111525349D02*
X89764193Y-111550055D01*
X89737209Y-111501119D02*
X89751066Y-111525349D01*
X89722637Y-111477380D02*
X89737209Y-111501119D01*
X89707365Y-111454145D02*
X89722637Y-111477380D01*
X89691408Y-111431428D02*
X89707365Y-111454145D01*
X89674780Y-111409244D02*
X89691408Y-111431428D01*
X89657496Y-111387606D02*
X89674780Y-111409244D01*
X89639570Y-111366528D02*
X89657496Y-111387606D01*
X89621018Y-111346023D02*
X89639570Y-111366528D01*
X89601853Y-111326106D02*
X89621018Y-111346023D01*
X89582090Y-111306790D02*
X89601853Y-111326106D01*
X89561744Y-111288090D02*
X89582090Y-111306790D01*
X89540829Y-111270018D02*
X89561744Y-111288090D01*
X89519361Y-111252590D02*
X89540829Y-111270018D01*
X89497353Y-111235818D02*
X89519361Y-111252590D01*
X89474821Y-111219717D02*
X89497353Y-111235818D01*
X89451778Y-111204301D02*
X89474821Y-111219717D01*
X89428240Y-111189583D02*
X89451778Y-111204301D01*
X89404221Y-111175577D02*
X89428240Y-111189583D01*
X89379736Y-111162297D02*
X89404221Y-111175577D01*
X89354799Y-111149757D02*
X89379736Y-111162297D01*
X89329425Y-111137970D02*
X89354799Y-111149757D01*
X89303629Y-111126952D02*
X89329425Y-111137970D01*
X89277424Y-111116714D02*
X89303629Y-111126952D01*
X89250827Y-111107272D02*
X89277424Y-111116714D01*
X89223851Y-111098639D02*
X89250827Y-111107272D01*
X89196510Y-111090829D02*
X89223851Y-111098639D01*
X89168938Y-111083884D02*
X89196510Y-111090829D01*
X89141268Y-111077833D02*
X89168938Y-111083884D01*
X89113520Y-111072673D02*
X89141268Y-111077833D01*
X89085714Y-111068397D02*
X89113520Y-111072673D01*
X89057869Y-111065003D02*
X89085714Y-111068397D01*
X89030004Y-111062484D02*
X89057869Y-111065003D01*
X89002141Y-111060836D02*
X89030004Y-111062484D01*
X88974297Y-111060055D02*
X89002141Y-111060836D01*
X88946493Y-111060136D02*
X88974297Y-111060055D01*
X88918748Y-111061074D02*
X88946493Y-111060136D01*
X88891082Y-111062865D02*
X88918748Y-111061074D01*
X88863514Y-111065504D02*
X88891082Y-111062865D01*
X88836064Y-111068986D02*
X88863514Y-111065504D01*
X88808751Y-111073307D02*
X88836064Y-111068986D01*
X88781596Y-111078462D02*
X88808751Y-111073307D01*
X88754617Y-111084446D02*
X88781596Y-111078462D01*
X88727834Y-111091255D02*
X88754617Y-111084446D01*
X88701268Y-111098884D02*
X88727834Y-111091255D01*
X88674936Y-111107328D02*
X88701268Y-111098884D01*
X88648860Y-111116583D02*
X88674936Y-111107328D01*
X88623058Y-111126644D02*
X88648860Y-111116583D01*
X88597551Y-111137506D02*
X88623058Y-111126644D01*
X88572357Y-111149165D02*
X88597551Y-111137506D01*
X88547496Y-111161616D02*
X88572357Y-111149165D01*
X88522989Y-111174854D02*
X88547496Y-111161616D01*
X88498853Y-111188876D02*
X88522989Y-111174854D01*
X88475110Y-111203675D02*
X88498853Y-111188876D01*
X88451779Y-111219248D02*
X88475110Y-111203675D01*
X88428878Y-111235589D02*
X88451779Y-111219248D01*
X88406429Y-111252695D02*
X88428878Y-111235589D01*
X88384450Y-111270560D02*
X88406429Y-111252695D01*
X88362960Y-111289180D02*
X88384450Y-111270560D01*
X88362960Y-111100000D02*
X88362960Y-111289180D01*
X88062960Y-111100000D02*
X88362960Y-111100000D01*
X88062960Y-112860000D02*
X88062960Y-111100000D01*
X88362960Y-112720000D02*
X88062960Y-112860000D01*
X88362960Y-112630820D02*
X88362960Y-112720000D01*
X88384925Y-112649838D02*
X88362960Y-112630820D01*
X88407399Y-112668067D02*
X88384925Y-112649838D01*
X88430361Y-112685501D02*
X88407399Y-112668067D01*
X88453789Y-112702136D02*
X88430361Y-112685501D01*
X88477664Y-112717966D02*
X88453789Y-112702136D01*
X88501964Y-112732988D02*
X88477664Y-112717966D01*
X88526668Y-112747196D02*
X88501964Y-112732988D01*
X88551756Y-112760586D02*
X88526668Y-112747196D01*
X88577206Y-112773153D02*
X88551756Y-112760586D01*
X88602998Y-112784892D02*
X88577206Y-112773153D01*
X88629111Y-112795798D02*
X88602998Y-112784892D01*
X88655524Y-112805867D02*
X88629111Y-112795798D01*
X88682216Y-112815094D02*
X88655524Y-112805867D01*
X88709165Y-112823474D02*
X88682216Y-112815094D01*
X88736352Y-112831002D02*
X88709165Y-112823474D01*
X88763756Y-112837675D02*
X88736352Y-112831002D01*
X88791354Y-112843486D02*
X88763756Y-112837675D01*
X88819128Y-112848431D02*
X88791354Y-112843486D01*
X88847055Y-112852506D02*
X88819128Y-112848431D01*
X88875114Y-112855706D02*
X88847055Y-112852506D01*
X88903286Y-112858026D02*
X88875114Y-112855706D01*
X88931548Y-112859461D02*
X88903286Y-112858026D01*
X88959881Y-112860006D02*
X88931548Y-112859461D01*
X88988262Y-112859658D02*
X88959881Y-112860006D01*
X89016672Y-112858410D02*
X88988262Y-112859658D01*
X89045090Y-112856259D02*
X89016672Y-112858410D01*
X89073494Y-112853199D02*
X89045090Y-112856259D01*
X89101863Y-112849226D02*
X89073494Y-112853199D01*
X89130177Y-112844335D02*
X89101863Y-112849226D01*
X89158415Y-112838521D02*
X89130177Y-112844335D01*
X89186556Y-112831780D02*
X89158415Y-112838521D01*
X89214579Y-112824107D02*
X89186556Y-112831780D01*
X89242341Y-112815536D02*
X89214579Y-112824107D01*
X89269701Y-112806116D02*
X89242341Y-112815536D01*
X89296646Y-112795861D02*
X89269701Y-112806116D01*
X89323160Y-112784786D02*
X89296646Y-112795861D01*
X89349227Y-112772908D02*
X89323160Y-112784786D01*
X89374833Y-112760240D02*
X89349227Y-112772908D01*
X89399963Y-112746799D02*
X89374833Y-112760240D01*
X89424602Y-112732600D02*
X89399963Y-112746799D01*
X89448734Y-112717657D02*
X89424602Y-112732600D01*
X89472344Y-112701986D02*
X89448734Y-112717657D01*
X89495418Y-112685602D02*
X89472344Y-112701986D01*
X89517940Y-112668521D02*
X89495418Y-112685602D01*
X89539895Y-112650757D02*
X89517940Y-112668521D01*
X89561269Y-112632327D02*
X89539895Y-112650757D01*
X89582045Y-112613244D02*
X89561269Y-112632327D01*
X89602210Y-112593524D02*
X89582045Y-112613244D01*
X89621747Y-112573183D02*
X89602210Y-112593524D01*
X89640642Y-112552236D02*
X89621747Y-112573183D01*
X89658880Y-112530698D02*
X89640642Y-112552236D01*
X89676445Y-112508584D02*
X89658880Y-112530698D01*
X89693323Y-112485909D02*
X89676445Y-112508584D01*
X89709499Y-112462688D02*
X89693323Y-112485909D01*
X89724957Y-112438938D02*
X89709499Y-112462688D01*
X89739682Y-112414673D02*
X89724957Y-112438938D01*
X89753659Y-112389907D02*
X89739682Y-112414673D01*
X89766874Y-112364658D02*
X89753659Y-112389907D01*
X89779310Y-112338938D02*
X89766874Y-112364658D01*
X89790954Y-112312765D02*
X89779310Y-112338938D01*
X89801789Y-112286153D02*
X89790954Y-112312765D01*
X89811802Y-112259117D02*
X89801789Y-112286153D01*
X89820976Y-112231673D02*
X89811802Y-112259117D01*
X89829296Y-112203836D02*
X89820976Y-112231673D01*
X89823507Y-112246919D02*
X89829296Y-112203836D01*
X89816747Y-112289657D02*
X89823507Y-112246919D01*
X89809029Y-112332037D02*
X89816747Y-112289657D01*
X89800365Y-112374049D02*
X89809029Y-112332037D01*
X89790766Y-112415683D02*
X89800365Y-112374049D01*
X89780245Y-112456928D02*
X89790766Y-112415683D01*
X89768815Y-112497774D02*
X89780245Y-112456928D01*
X89756486Y-112538209D02*
X89768815Y-112497774D01*
X89743270Y-112578223D02*
X89756486Y-112538209D01*
X89729181Y-112617806D02*
X89743270Y-112578223D01*
X89714229Y-112656946D02*
X89729181Y-112617806D01*
X89698428Y-112695634D02*
X89714229Y-112656946D01*
X89681788Y-112733859D02*
X89698428Y-112695634D01*
X89664322Y-112771609D02*
X89681788Y-112733859D01*
X89646042Y-112808875D02*
X89664322Y-112771609D01*
X89626959Y-112845646D02*
X89646042Y-112808875D01*
X89607087Y-112881911D02*
X89626959Y-112845646D01*
X89586436Y-112917659D02*
X89607087Y-112881911D01*
X89565020Y-112952880D02*
X89586436Y-112917659D01*
X89542849Y-112987564D02*
X89565020Y-112952880D01*
X89519936Y-113021699D02*
X89542849Y-112987564D01*
X89496293Y-113055275D02*
X89519936Y-113021699D01*
X89471931Y-113088282D02*
X89496293Y-113055275D01*
X89446864Y-113120708D02*
X89471931Y-113088282D01*
X89421103Y-113152543D02*
X89446864Y-113120708D01*
X89394659Y-113183777D02*
X89421103Y-113152543D01*
X89367546Y-113214399D02*
X89394659Y-113183777D01*
X89339774Y-113244399D02*
X89367546Y-113214399D01*
X89311356Y-113273764D02*
X89339774Y-113244399D01*
X89282304Y-113302486D02*
X89311356Y-113273764D01*
X89252630Y-113330554D02*
X89282304Y-113302486D01*
X89222346Y-113357956D02*
X89252630Y-113330554D01*
X89191464Y-113384682D02*
X89222346Y-113357956D01*
X89159996Y-113410722D02*
X89191464Y-113384682D01*
X89127954Y-113436065D02*
X89159996Y-113410722D01*
X89095349Y-113460700D02*
X89127954Y-113436065D01*
X89062195Y-113484616D02*
X89095349Y-113460700D01*
X89028502Y-113507804D02*
X89062195Y-113484616D01*
X88994284Y-113530252D02*
X89028502Y-113507804D01*
X88959551Y-113551950D02*
X88994284Y-113530252D01*
X88924317Y-113572888D02*
X88959551Y-113551950D01*
X88888592Y-113593053D02*
X88924317Y-113572888D01*
X88852390Y-113612437D02*
X88888592Y-113593053D01*
X88815721Y-113631028D02*
X88852390Y-113612437D01*
X88778599Y-113648816D02*
X88815721Y-113631028D01*
X88741034Y-113665790D02*
X88778599Y-113648816D01*
X88703039Y-113681939D02*
X88741034Y-113665790D01*
X88664627Y-113697253D02*
X88703039Y-113681939D01*
X88625808Y-113711721D02*
X88664627Y-113697253D01*
X88586595Y-113725333D02*
X88625808Y-113711721D01*
X88547001Y-113738078D02*
X88586595Y-113725333D01*
X88507036Y-113749945D02*
X88547001Y-113738078D01*
X88466713Y-113760923D02*
X88507036Y-113749945D01*
X88426045Y-113771003D02*
X88466713Y-113760923D01*
X88385042Y-113780174D02*
X88426045Y-113771003D01*
X88343718Y-113788424D02*
X88385042Y-113780174D01*
X88302083Y-113795743D02*
X88343718Y-113788424D01*
X88260151Y-113802121D02*
X88302083Y-113795743D01*
X88217932Y-113807547D02*
X88260151Y-113802121D01*
X88175440Y-113812010D02*
X88217932Y-113807547D01*
X88132686Y-113815500D02*
X88175440Y-113812010D01*
X88089681Y-113818006D02*
X88132686Y-113815500D01*
X88046439Y-113819518D02*
X88089681Y-113818006D01*
X88002971Y-113820024D02*
X88046439Y-113819518D01*
X87959503Y-113819518D02*
X88002971Y-113820024D01*
X87916261Y-113818008D02*
X87959503Y-113819518D01*
X87873256Y-113815502D02*
X87916261Y-113818008D01*
X87830502Y-113812013D02*
X87873256Y-113815502D01*
X87788010Y-113807550D02*
X87830502Y-113812013D01*
X87745791Y-113802124D02*
X87788010Y-113807550D01*
X87703859Y-113795747D02*
X87745791Y-113802124D01*
X87662224Y-113788428D02*
X87703859Y-113795747D01*
X87620899Y-113780179D02*
X87662224Y-113788428D01*
X87579897Y-113771009D02*
X87620899Y-113780179D01*
X87539228Y-113760930D02*
X87579897Y-113771009D01*
X87498905Y-113749951D02*
X87539228Y-113760930D01*
X87458940Y-113738085D02*
X87498905Y-113749951D01*
X87419346Y-113725341D02*
X87458940Y-113738085D01*
X87380133Y-113711729D02*
X87419346Y-113725341D01*
X87341314Y-113697262D02*
X87380133Y-113711729D01*
X87302901Y-113681948D02*
X87341314Y-113697262D01*
X87264906Y-113665799D02*
X87302901Y-113681948D01*
X87227341Y-113648826D02*
X87264906Y-113665799D01*
X87190219Y-113631039D02*
X87227341Y-113648826D01*
X87153550Y-113612448D02*
X87190219Y-113631039D01*
X87117347Y-113593065D02*
X87153550Y-113612448D01*
X87081622Y-113572900D02*
X87117347Y-113593065D01*
X87046387Y-113551963D02*
X87081622Y-113572900D01*
X87011654Y-113530265D02*
X87046387Y-113551963D01*
X86977436Y-113507818D02*
X87011654Y-113530265D01*
X86943743Y-113484630D02*
X86977436Y-113507818D01*
X86910588Y-113460714D02*
X86943743Y-113484630D01*
X86877984Y-113436079D02*
X86910588Y-113460714D01*
X86845941Y-113410737D02*
X86877984Y-113436079D01*
X86814473Y-113384698D02*
X86845941Y-113410737D01*
X86783590Y-113357972D02*
X86814473Y-113384698D01*
X86753306Y-113330570D02*
X86783590Y-113357972D01*
X86723631Y-113302503D02*
X86753306Y-113330570D01*
X86694579Y-113273782D02*
X86723631Y-113302503D01*
X86666161Y-113244416D02*
X86694579Y-113273782D01*
X86638389Y-113214417D02*
X86666161Y-113244416D01*
X86611275Y-113183796D02*
X86638389Y-113214417D01*
X86584831Y-113152562D02*
X86611275Y-113183796D01*
X86559069Y-113120727D02*
X86584831Y-113152562D01*
X86534001Y-113088301D02*
X86559069Y-113120727D01*
X86509640Y-113055295D02*
X86534001Y-113088301D01*
X86485996Y-113021719D02*
X86509640Y-113055295D01*
X86463083Y-112987584D02*
X86485996Y-113021719D01*
X86440911Y-112952901D02*
X86463083Y-112987584D01*
X86419494Y-112917680D02*
X86440911Y-112952901D01*
X86398843Y-112881932D02*
X86419494Y-112917680D01*
X86378970Y-112845667D02*
X86398843Y-112881932D01*
X86359887Y-112808897D02*
X86378970Y-112845667D01*
X86341607Y-112771631D02*
X86359887Y-112808897D01*
X86324140Y-112733881D02*
X86341607Y-112771631D01*
X86307500Y-112695657D02*
X86324140Y-112733881D01*
X86291698Y-112656969D02*
X86307500Y-112695657D01*
X86276745Y-112617828D02*
X86291698Y-112656969D01*
X86262656Y-112578246D02*
X86276745Y-112617828D01*
X86249440Y-112538232D02*
X86262656Y-112578246D01*
X86237110Y-112497797D02*
X86249440Y-112538232D01*
X86225679Y-112456952D02*
X86237110Y-112497797D01*
X86215158Y-112415707D02*
X86225679Y-112456952D01*
X86205559Y-112374073D02*
X86215158Y-112415707D01*
X86196894Y-112332061D02*
X86205559Y-112374073D01*
X86189175Y-112289680D02*
X86196894Y-112332061D01*
X86182415Y-112246943D02*
X86189175Y-112289680D01*
X86176624Y-112203860D02*
X86182415Y-112246943D01*
X86184946Y-112231697D02*
X86176624Y-112203860D01*
X86194120Y-112259141D02*
X86184946Y-112231697D01*
X86204133Y-112286176D02*
X86194120Y-112259141D01*
X86214969Y-112312788D02*
X86204133Y-112286176D01*
X86226613Y-112338960D02*
X86214969Y-112312788D01*
X86239050Y-112364679D02*
X86226613Y-112338960D01*
X86252265Y-112389928D02*
X86239050Y-112364679D01*
X86266243Y-112414693D02*
X86252265Y-112389928D01*
X86280969Y-112438958D02*
X86266243Y-112414693D01*
X86296427Y-112462708D02*
X86280969Y-112438958D01*
X86312603Y-112485928D02*
X86296427Y-112462708D01*
X86329481Y-112508602D02*
X86312603Y-112485928D01*
X86347047Y-112530716D02*
X86329481Y-112508602D01*
X86365285Y-112552254D02*
X86347047Y-112530716D01*
X86384180Y-112573201D02*
X86365285Y-112552254D01*
X86403718Y-112593541D02*
X86384180Y-112573201D01*
X86423882Y-112613260D02*
X86403718Y-112593541D01*
X86444659Y-112632342D02*
X86423882Y-112613260D01*
X86466033Y-112650773D02*
X86444659Y-112632342D01*
X86487988Y-112668536D02*
X86466033Y-112650773D01*
X86510510Y-112685616D02*
X86487988Y-112668536D01*
X86533584Y-112702000D02*
X86510510Y-112685616D01*
X86557195Y-112717670D02*
X86533584Y-112702000D01*
X86581327Y-112732612D02*
X86557195Y-112717670D01*
X86605966Y-112746811D02*
X86581327Y-112732612D01*
X86631096Y-112760252D02*
X86605966Y-112746811D01*
X86656702Y-112772919D02*
X86631096Y-112760252D01*
X86682769Y-112784797D02*
X86656702Y-112772919D01*
X86709283Y-112795871D02*
X86682769Y-112784797D01*
X86736227Y-112806125D02*
X86709283Y-112795871D01*
X86763588Y-112815545D02*
X86736227Y-112806125D01*
X86791350Y-112824116D02*
X86763588Y-112815545D01*
X86819372Y-112831788D02*
X86791350Y-112824116D01*
X86847513Y-112838529D02*
X86819372Y-112831788D01*
X86875751Y-112844342D02*
X86847513Y-112838529D01*
X86904065Y-112849233D02*
X86875751Y-112844342D01*
X86932434Y-112853205D02*
X86904065Y-112849233D01*
X86960838Y-112856265D02*
X86932434Y-112853205D01*
X86989255Y-112858416D02*
X86960838Y-112856265D01*
X87017665Y-112859663D02*
X86989255Y-112858416D01*
X87046047Y-112860011D02*
X87017665Y-112859663D01*
X87074379Y-112859465D02*
X87046047Y-112860011D01*
X87102641Y-112858030D02*
X87074379Y-112859465D01*
X87130812Y-112855710D02*
X87102641Y-112858030D01*
X87158872Y-112852510D02*
X87130812Y-112855710D01*
X87186799Y-112848434D02*
X87158872Y-112852510D01*
X87214572Y-112843489D02*
X87186799Y-112848434D01*
X87242170Y-112837677D02*
X87214572Y-112843489D01*
X87269573Y-112831005D02*
X87242170Y-112837677D01*
X87296760Y-112823476D02*
X87269573Y-112831005D01*
X87323709Y-112815095D02*
X87296760Y-112823476D01*
X87350401Y-112805868D02*
X87323709Y-112815095D01*
X87376813Y-112795799D02*
X87350401Y-112805868D01*
X87402926Y-112784893D02*
X87376813Y-112795799D01*
X87428717Y-112773154D02*
X87402926Y-112784893D01*
X87454167Y-112760587D02*
X87428717Y-112773154D01*
X87479255Y-112747197D02*
X87454167Y-112760587D01*
X87503959Y-112732989D02*
X87479255Y-112747197D01*
X87528259Y-112717967D02*
X87503959Y-112732989D01*
X87552133Y-112702136D02*
X87528259Y-112717967D01*
X87575561Y-112685501D02*
X87552133Y-112702136D01*
X87598523Y-112668067D02*
X87575561Y-112685501D01*
X87620996Y-112649838D02*
X87598523Y-112668067D01*
X87642960Y-112630820D02*
X87620996Y-112649838D01*
X87642960Y-112720000D02*
X87642960Y-112630820D01*
X87942960Y-112860000D02*
X87642960Y-112720000D01*
X87942960Y-111962024D02*
X87942960Y-112860000D01*
X87942960Y-111960000D02*
X87942960Y-111962024D01*
X87942960Y-111100000D02*
X87942960Y-111960000D01*
X87642960Y-111100000D02*
X87942960Y-111100000D01*
X87642960Y-111289180D02*
X87642960Y-111100000D01*
X87621472Y-111270560D02*
X87642960Y-111289180D01*
X87599493Y-111252695D02*
X87621472Y-111270560D01*
X87577044Y-111235590D02*
X87599493Y-111252695D01*
X87554143Y-111219248D02*
X87577044Y-111235590D01*
X87530812Y-111203676D02*
X87554143Y-111219248D01*
X87507069Y-111188877D02*
X87530812Y-111203676D01*
X87482935Y-111174855D02*
X87507069Y-111188877D01*
X87458427Y-111161617D02*
X87482935Y-111174855D01*
X87433567Y-111149166D02*
X87458427Y-111161617D01*
X87408373Y-111137507D02*
X87433567Y-111149166D01*
X87382866Y-111126645D02*
X87408373Y-111137507D01*
X87357065Y-111116584D02*
X87382866Y-111126645D01*
X87330989Y-111107329D02*
X87357065Y-111116584D01*
X87304658Y-111098885D02*
X87330989Y-111107329D01*
X87278091Y-111091256D02*
X87304658Y-111098885D01*
X87251309Y-111084447D02*
X87278091Y-111091256D01*
X87224331Y-111078463D02*
X87251309Y-111084447D01*
X87197176Y-111073308D02*
X87224331Y-111078463D01*
X87169863Y-111068987D02*
X87197176Y-111073308D01*
X87142414Y-111065504D02*
X87169863Y-111068987D01*
X87114846Y-111062865D02*
X87142414Y-111065504D01*
X87087180Y-111061074D02*
X87114846Y-111062865D01*
X87059436Y-111060136D02*
X87087180Y-111061074D01*
X87031632Y-111060055D02*
X87059436Y-111060136D01*
X87003788Y-111060835D02*
X87031632Y-111060055D01*
X86975925Y-111062483D02*
X87003788Y-111060835D01*
X86948061Y-111065001D02*
X86975925Y-111062483D01*
X86920216Y-111068396D02*
X86948061Y-111065001D01*
X86892410Y-111072671D02*
X86920216Y-111068396D01*
X86864663Y-111077831D02*
X86892410Y-111072671D01*
X86836993Y-111083881D02*
X86864663Y-111077831D01*
X86809420Y-111090826D02*
X86836993Y-111083881D01*
X86782080Y-111098636D02*
X86809420Y-111090826D01*
X86755105Y-111107268D02*
X86782080Y-111098636D01*
X86728507Y-111116710D02*
X86755105Y-111107268D01*
X86702303Y-111126947D02*
X86728507Y-111116710D01*
X86676507Y-111137965D02*
X86702303Y-111126947D01*
X86651133Y-111149751D02*
X86676507Y-111137965D01*
X86626196Y-111162291D02*
X86651133Y-111149751D01*
X86601711Y-111175570D02*
X86626196Y-111162291D01*
X86577692Y-111189575D02*
X86601711Y-111175570D01*
X86554154Y-111204293D02*
X86577692Y-111189575D01*
X86531111Y-111219709D02*
X86554154Y-111204293D01*
X86508579Y-111235809D02*
X86531111Y-111219709D01*
X86486571Y-111252581D02*
X86508579Y-111235809D01*
X86465103Y-111270008D02*
X86486571Y-111252581D01*
X86444188Y-111288079D02*
X86465103Y-111270008D01*
X86423842Y-111306779D02*
X86444188Y-111288079D01*
X86404079Y-111326094D02*
X86423842Y-111306779D01*
X86384914Y-111346011D02*
X86404079Y-111326094D01*
X86366361Y-111366515D02*
X86384914Y-111346011D01*
X86348435Y-111387593D02*
X86366361Y-111366515D01*
X86331151Y-111409230D02*
X86348435Y-111387593D01*
X86314523Y-111431414D02*
X86331151Y-111409230D01*
X86298565Y-111454130D02*
X86314523Y-111431414D01*
X86283293Y-111477364D02*
X86298565Y-111454130D01*
X86268721Y-111501103D02*
X86283293Y-111477364D01*
X86254864Y-111525332D02*
X86268721Y-111501103D01*
X86241736Y-111550038D02*
X86254864Y-111525332D01*
X86229352Y-111575207D02*
X86241736Y-111550038D01*
X86217726Y-111600825D02*
X86229352Y-111575207D01*
X86206873Y-111626878D02*
X86217726Y-111600825D01*
X86196807Y-111653353D02*
X86206873Y-111626878D01*
X86187544Y-111680236D02*
X86196807Y-111653353D01*
X86194883Y-111638718D02*
X86187544Y-111680236D01*
X86203123Y-111597558D02*
X86194883Y-111638718D01*
X86212252Y-111556765D02*
X86203123Y-111597558D01*
X86222260Y-111516348D02*
X86212252Y-111556765D01*
X86233135Y-111476317D02*
X86222260Y-111516348D01*
X86244867Y-111436681D02*
X86233135Y-111476317D01*
X86257443Y-111397450D02*
X86244867Y-111436681D01*
X86270853Y-111358634D02*
X86257443Y-111397450D01*
X86285085Y-111320241D02*
X86270853Y-111358634D01*
X86300129Y-111282282D02*
X86285085Y-111320241D01*
X86315972Y-111244766D02*
X86300129Y-111282282D01*
X86332604Y-111207702D02*
X86315972Y-111244766D01*
X86350014Y-111171100D02*
X86332604Y-111207702D01*
X86368189Y-111134970D02*
X86350014Y-111171100D01*
X86387120Y-111099320D02*
X86368189Y-111134970D01*
X86406794Y-111064161D02*
X86387120Y-111099320D01*
X86427201Y-111029503D02*
X86406794Y-111064161D01*
X86448329Y-110995353D02*
X86427201Y-111029503D01*
X86470167Y-110961723D02*
X86448329Y-110995353D01*
X86492704Y-110928622D02*
X86470167Y-110961723D01*
X86515928Y-110896059D02*
X86492704Y-110928622D01*
X86539829Y-110864043D02*
X86515928Y-110896059D01*
X86564395Y-110832584D02*
X86539829Y-110864043D01*
X86589615Y-110801693D02*
X86564395Y-110832584D01*
X86615477Y-110771377D02*
X86589615Y-110801693D01*
X86641970Y-110741647D02*
X86615477Y-110771377D01*
X86669084Y-110712512D02*
X86641970Y-110741647D01*
X86696807Y-110683983D02*
X86669084Y-110712512D01*
X86725127Y-110656067D02*
X86696807Y-110683983D01*
X86754034Y-110628775D02*
X86725127Y-110656067D01*
X86783515Y-110602117D02*
X86754034Y-110628775D01*
X86813561Y-110576101D02*
X86783515Y-110602117D01*
X86844160Y-110550738D02*
X86813561Y-110576101D01*
X86875300Y-110526037D02*
X86844160Y-110550738D01*
X86906970Y-110502007D02*
X86875300Y-110526037D01*
X86939159Y-110478658D02*
X86906970Y-110502007D01*
X86971856Y-110456000D02*
X86939159Y-110478658D01*
X87005049Y-110434041D02*
X86971856Y-110456000D01*
X87038728Y-110412792D02*
X87005049Y-110434041D01*
X87072881Y-110392262D02*
X87038728Y-110412792D01*
X87107496Y-110372461D02*
X87072881Y-110392262D01*
X87142563Y-110353398D02*
X87107496Y-110372461D01*
X87178071Y-110335082D02*
X87142563Y-110353398D01*
X87214008Y-110317523D02*
X87178071Y-110335082D01*
X87250362Y-110300731D02*
X87214008Y-110317523D01*
X87287123Y-110284715D02*
X87250362Y-110300731D01*
X87324279Y-110269485D02*
X87287123Y-110284715D01*
X87361820Y-110255050D02*
X87324279Y-110269485D01*
X87399734Y-110241419D02*
X87361820Y-110255050D01*
X87438009Y-110228603D02*
X87399734Y-110241419D01*
X87476634Y-110216610D02*
X87438009Y-110228603D01*
X87515599Y-110205451D02*
X87476634Y-110216610D01*
X87554892Y-110195135D02*
X87515599Y-110205451D01*
X87594501Y-110185671D02*
X87554892Y-110195135D01*
X87634416Y-110177068D02*
X87594501Y-110185671D01*
X87674626Y-110169337D02*
X87634416Y-110177068D01*
X87715118Y-110162487D02*
X87674626Y-110169337D01*
X87755882Y-110156527D02*
X87715118Y-110162487D01*
X87796907Y-110151467D02*
X87755882Y-110156527D01*
X87838181Y-110147317D02*
X87796907Y-110151467D01*
X87879692Y-110144085D02*
X87838181Y-110147317D01*
X87921431Y-110141782D02*
X87879692Y-110144085D01*
X87963386Y-110140417D02*
X87921431Y-110141782D01*
X88005544Y-110140000D02*
X87963386Y-110140417D01*
X88000000Y-110000000D02*
X88000000Y-110000000D01*
X87948950Y-110000721D02*
X88000000Y-110000000D01*
X87898220Y-110002723D02*
X87948950Y-110000721D01*
X87847825Y-110005989D02*
X87898220Y-110002723D01*
X87797781Y-110010504D02*
X87847825Y-110005989D01*
X87748103Y-110016252D02*
X87797781Y-110010504D01*
X87698806Y-110023218D02*
X87748103Y-110016252D01*
X87649907Y-110031387D02*
X87698806Y-110023218D01*
X87601421Y-110040742D02*
X87649907Y-110031387D01*
X87553362Y-110051269D02*
X87601421Y-110040742D01*
X87505748Y-110062951D02*
X87553362Y-110051269D01*
X87458592Y-110075774D02*
X87505748Y-110062951D01*
X87411911Y-110089722D02*
X87458592Y-110075774D01*
X87365721Y-110104779D02*
X87411911Y-110089722D01*
X87320036Y-110120929D02*
X87365721Y-110104779D01*
X87274872Y-110138158D02*
X87320036Y-110120929D01*
X87230245Y-110156449D02*
X87274872Y-110138158D01*
X87186170Y-110175788D02*
X87230245Y-110156449D01*
X87142663Y-110196158D02*
X87186170Y-110175788D01*
X87099739Y-110217544D02*
X87142663Y-110196158D01*
X87057414Y-110239931D02*
X87099739Y-110217544D01*
X87015702Y-110263303D02*
X87057414Y-110239931D01*
X86974620Y-110287645D02*
X87015702Y-110263303D01*
X86934184Y-110312940D02*
X86974620Y-110287645D01*
X86894408Y-110339175D02*
X86934184Y-110312940D01*
X86855308Y-110366332D02*
X86894408Y-110339175D01*
X86816900Y-110394397D02*
X86855308Y-110366332D01*
X86779199Y-110423353D02*
X86816900Y-110394397D01*
X86742220Y-110453186D02*
X86779199Y-110423353D01*
X86705980Y-110483881D02*
X86742220Y-110453186D01*
X86670493Y-110515420D02*
X86705980Y-110483881D01*
X86635775Y-110547790D02*
X86670493Y-110515420D01*
X86601842Y-110580974D02*
X86635775Y-110547790D01*
X86568709Y-110614956D02*
X86601842Y-110580974D01*
X86536392Y-110649722D02*
X86568709Y-110614956D01*
X89831247Y-112740155D02*
X89805642Y-112799013D01*
X89854954Y-112680441D02*
X89831247Y-112740155D01*
X89876737Y-112619917D02*
X89854954Y-112680441D01*
X89896568Y-112558627D02*
X89876737Y-112619917D01*
X89914422Y-112496616D02*
X89896568Y-112558627D01*
X89930273Y-112433930D02*
X89914422Y-112496616D01*
X89944095Y-112370614D02*
X89930273Y-112433930D01*
X89955862Y-112306712D02*
X89944095Y-112370614D01*
X89965548Y-112242269D02*
X89955862Y-112306712D01*
X89973127Y-112177332D02*
X89965548Y-112242269D01*
X86027348Y-112111945D02*
X86024062Y-112046152D01*
X86032794Y-112177332D02*
X86027348Y-112111945D01*
X86040373Y-112242269D02*
X86032794Y-112177332D01*
X86050059Y-112306712D02*
X86040373Y-112242269D01*
X86061826Y-112370614D02*
X86050059Y-112306712D01*
X86075648Y-112433930D02*
X86061826Y-112370614D01*
X86091499Y-112496616D02*
X86075648Y-112433930D01*
X86109353Y-112558627D02*
X86091499Y-112496616D01*
X86129184Y-112619917D02*
X86109353Y-112558627D01*
X86150967Y-112680441D02*
X86129184Y-112619917D01*
X86174674Y-112740155D02*
X86150967Y-112680441D01*
X86200279Y-112799013D02*
X86174674Y-112740155D01*
X86227758Y-112856969D02*
X86200279Y-112799013D01*
X86257084Y-112913980D02*
X86227758Y-112856969D01*
X86288230Y-112970000D02*
X86257084Y-112913980D01*
X86321171Y-113024983D02*
X86288230Y-112970000D01*
X86355881Y-113078885D02*
X86321171Y-113024983D01*
X86392334Y-113131661D02*
X86355881Y-113078885D01*
X86430503Y-113183265D02*
X86392334Y-113131661D01*
X86470363Y-113233652D02*
X86430503Y-113183265D01*
X86511888Y-113282778D02*
X86470363Y-113233652D01*
X86555051Y-113330598D02*
X86511888Y-113282778D01*
X86599826Y-113377065D02*
X86555051Y-113330598D01*
X86646189Y-113422136D02*
X86599826Y-113377065D01*
X86694111Y-113465764D02*
X86646189Y-113422136D01*
X86743569Y-113507906D02*
X86694111Y-113465764D01*
X86794534Y-113548515D02*
X86743569Y-113507906D01*
X86846982Y-113587547D02*
X86794534Y-113548515D01*
X86900887Y-113624957D02*
X86846982Y-113587547D01*
X86956221Y-113660700D02*
X86900887Y-113624957D01*
X87012960Y-113694730D02*
X86956221Y-113660700D01*
X87070801Y-113726852D02*
X87012960Y-113694730D01*
X87129422Y-113756902D02*
X87070801Y-113726852D01*
X87188772Y-113784880D02*
X87129422Y-113756902D01*
X87248799Y-113810785D02*
X87188772Y-113784880D01*
X87309451Y-113834618D02*
X87248799Y-113810785D01*
X87370675Y-113856379D02*
X87309451Y-113834618D01*
X87432420Y-113876067D02*
X87370675Y-113856379D01*
X87494633Y-113893682D02*
X87432420Y-113876067D01*
X87557263Y-113909225D02*
X87494633Y-113893682D01*
X87620257Y-113922696D02*
X87557263Y-113909225D01*
X87683564Y-113934094D02*
X87620257Y-113922696D01*
X87747131Y-113943420D02*
X87683564Y-113934094D01*
X87810906Y-113950674D02*
X87747131Y-113943420D01*
X87874837Y-113955855D02*
X87810906Y-113950674D01*
X87938873Y-113958963D02*
X87874837Y-113955855D01*
X88002960Y-113960000D02*
X87938873Y-113958963D01*
X88067048Y-113958963D02*
X88002960Y-113960000D01*
X88131084Y-113955855D02*
X88067048Y-113958963D01*
X88195015Y-113950674D02*
X88131084Y-113955855D01*
X88258790Y-113943420D02*
X88195015Y-113950674D01*
X88322357Y-113934094D02*
X88258790Y-113943420D01*
X88385664Y-113922696D02*
X88322357Y-113934094D01*
X88448658Y-113909225D02*
X88385664Y-113922696D01*
X88511288Y-113893682D02*
X88448658Y-113909225D01*
X88573501Y-113876067D02*
X88511288Y-113893682D01*
X88635246Y-113856379D02*
X88573501Y-113876067D01*
X88696470Y-113834618D02*
X88635246Y-113856379D01*
X88757122Y-113810785D02*
X88696470Y-113834618D01*
X88817149Y-113784880D02*
X88757122Y-113810785D01*
X88876499Y-113756902D02*
X88817149Y-113784880D01*
X88935120Y-113726852D02*
X88876499Y-113756902D01*
X88992960Y-113694730D02*
X88935120Y-113726852D01*
X89049700Y-113660700D02*
X88992960Y-113694730D01*
X89105034Y-113624957D02*
X89049700Y-113660700D01*
X89158939Y-113587547D02*
X89105034Y-113624957D01*
X89211387Y-113548515D02*
X89158939Y-113587547D01*
X89262352Y-113507906D02*
X89211387Y-113548515D01*
X89311810Y-113465764D02*
X89262352Y-113507906D01*
X89359732Y-113422136D02*
X89311810Y-113465764D01*
X89406095Y-113377065D02*
X89359732Y-113422136D01*
X89450870Y-113330598D02*
X89406095Y-113377065D01*
X89494033Y-113282778D02*
X89450870Y-113330598D01*
X89535558Y-113233652D02*
X89494033Y-113282778D01*
X89575418Y-113183265D02*
X89535558Y-113233652D01*
X89613587Y-113131661D02*
X89575418Y-113183265D01*
X89650040Y-113078885D02*
X89613587Y-113131661D01*
X89684750Y-113024983D02*
X89650040Y-113078885D01*
X89717691Y-112970000D02*
X89684750Y-113024983D01*
X89748837Y-112913980D02*
X89717691Y-112970000D01*
X89778163Y-112856969D02*
X89748837Y-112913980D01*
X89805642Y-112799013D02*
X89778163Y-112856969D01*
X86504905Y-110685256D02*
X86536392Y-110649722D01*
X86474265Y-110721543D02*
X86504905Y-110685256D01*
X86444487Y-110758566D02*
X86474265Y-110721543D01*
X86415587Y-110796310D02*
X86444487Y-110758566D01*
X86387580Y-110834760D02*
X86415587Y-110796310D01*
X86360481Y-110873901D02*
X86387580Y-110834760D01*
X86334306Y-110913716D02*
X86360481Y-110873901D01*
X86309071Y-110954190D02*
X86334306Y-110913716D01*
X86284791Y-110995308D02*
X86309071Y-110954190D01*
X86261482Y-111037055D02*
X86284791Y-110995308D01*
X86239158Y-111079414D02*
X86261482Y-111037055D01*
X86217836Y-111122370D02*
X86239158Y-111079414D01*
X86197531Y-111165907D02*
X86217836Y-111122370D01*
X86178258Y-111210011D02*
X86197531Y-111165907D01*
X86160034Y-111254665D02*
X86178258Y-111210011D01*
X86142873Y-111299855D02*
X86160034Y-111254665D01*
X86126790Y-111345564D02*
X86142873Y-111299855D01*
X86111803Y-111391777D02*
X86126790Y-111345564D01*
X86097925Y-111438478D02*
X86111803Y-111391777D01*
X86085173Y-111485653D02*
X86097925Y-111438478D01*
X86073562Y-111533285D02*
X86085173Y-111485653D01*
X86063107Y-111581359D02*
X86073562Y-111533285D01*
X86053824Y-111629859D02*
X86063107Y-111581359D01*
X86045729Y-111678771D02*
X86053824Y-111629859D01*
X86038836Y-111728078D02*
X86045729Y-111678771D01*
X86033162Y-111777764D02*
X86038836Y-111728078D01*
X86028722Y-111827815D02*
X86033162Y-111777764D01*
X86025532Y-111878215D02*
X86028722Y-111827815D01*
X86023606Y-111928948D02*
X86025532Y-111878215D01*
X86022960Y-111980000D02*
X86023606Y-111928948D01*
X86024062Y-112046152D02*
X86022960Y-111980000D01*
X89961220Y-111687333D02*
X89967828Y-111735609D01*
X89953438Y-111639307D02*
X89961220Y-111687333D01*
X89944491Y-111591549D02*
X89953438Y-111639307D01*
X89934386Y-111544080D02*
X89944491Y-111591549D01*
X89923132Y-111496920D02*
X89934386Y-111544080D01*
X89910739Y-111450091D02*
X89923132Y-111496920D01*
X89897213Y-111403611D02*
X89910739Y-111450091D01*
X89882564Y-111357502D02*
X89897213Y-111403611D01*
X89866799Y-111311784D02*
X89882564Y-111357502D01*
X89849928Y-111266477D02*
X89866799Y-111311784D01*
X89831959Y-111221602D02*
X89849928Y-111266477D01*
X89812900Y-111177178D02*
X89831959Y-111221602D01*
X89792760Y-111133227D02*
X89812900Y-111177178D01*
X89771547Y-111089768D02*
X89792760Y-111133227D01*
X89401986Y-110578881D02*
X89436378Y-110614085D01*
X89366730Y-110544540D02*
X89401986Y-110578881D01*
X89330718Y-110511165D02*
X89366730Y-110544540D01*
X89293971Y-110478762D02*
X89330718Y-110511165D01*
X89256510Y-110447340D02*
X89293971Y-110478762D01*
X89218354Y-110416908D02*
X89256510Y-110447340D01*
X89179524Y-110387473D02*
X89218354Y-110416908D01*
X89140040Y-110359046D02*
X89179524Y-110387473D01*
X89099922Y-110331632D02*
X89140040Y-110359046D01*
X89059192Y-110305242D02*
X89099922Y-110331632D01*
X89017869Y-110279884D02*
X89059192Y-110305242D01*
X88975973Y-110255566D02*
X89017869Y-110279884D01*
X88933526Y-110232296D02*
X88975973Y-110255566D01*
X89982350Y-111930787D02*
X89982960Y-111980000D01*
X89980522Y-111881722D02*
X89982350Y-111930787D01*
X89977488Y-111832823D02*
X89980522Y-111881722D01*
X89973253Y-111784112D02*
X89977488Y-111832823D01*
X89967828Y-111735609D02*
X89973253Y-111784112D01*
X88890547Y-110210082D02*
X88933526Y-110232296D01*
X88847056Y-110188934D02*
X88890547Y-110210082D01*
X88803075Y-110168860D02*
X88847056Y-110188934D01*
X89676136Y-110921265D02*
X89701556Y-110962551D01*
X89649685Y-110880574D02*
X89676136Y-110921265D01*
X89622212Y-110840498D02*
X89649685Y-110880574D01*
X89593725Y-110801057D02*
X89622212Y-110840498D01*
X89564233Y-110762270D02*
X89593725Y-110801057D01*
X89533743Y-110724160D02*
X89564233Y-110762270D01*
X89502266Y-110686745D02*
X89533743Y-110724160D01*
X89469808Y-110650047D02*
X89502266Y-110686745D01*
X89436378Y-110614085D02*
X89469808Y-110650047D01*
X89978573Y-112111945D02*
X89973127Y-112177332D01*
X89981859Y-112046152D02*
X89978573Y-112111945D01*
X89982960Y-111980000D02*
X89981859Y-112046152D01*
X89749270Y-111046822D02*
X89771547Y-111089768D01*
X89725937Y-111004410D02*
X89749270Y-111046822D01*
X89701556Y-110962551D02*
X89725937Y-111004410D01*
X88758623Y-110149868D02*
X88803075Y-110168860D01*
X88713721Y-110131966D02*
X88758623Y-110149868D01*
X88668388Y-110115162D02*
X88713721Y-110131966D01*
X88622647Y-110099466D02*
X88668388Y-110115162D01*
X88576516Y-110084886D02*
X88622647Y-110099466D01*
X88530017Y-110071430D02*
X88576516Y-110084886D01*
X88483168Y-110059106D02*
X88530017Y-110071430D01*
X88435992Y-110047923D02*
X88483168Y-110059106D01*
X88388508Y-110037889D02*
X88435992Y-110047923D01*
X88340737Y-110029013D02*
X88388508Y-110037889D01*
X88292699Y-110021303D02*
X88340737Y-110029013D01*
X88244414Y-110014767D02*
X88292699Y-110021303D01*
X88195902Y-110009414D02*
X88244414Y-110014767D01*
X88147185Y-110005253D02*
X88195902Y-110009414D01*
X88098282Y-110002291D02*
X88147185Y-110005253D01*
X88049214Y-110000537D02*
X88098282Y-110002291D01*
X88000000Y-110000000D02*
X88049214Y-110000537D01*
D10*
X98071428Y-110626190D02*
X98071428Y-110126190D01*
X98238095Y-110483333D01*
X98404761Y-110126190D01*
X98404761Y-110626190D01*
X98642857Y-110626190D02*
X98642857Y-110292857D01*
X98642857Y-110126190D02*
X98619047Y-110150000D01*
X98642857Y-110173809D01*
X98666666Y-110150000D01*
X98642857Y-110126190D01*
X98642857Y-110173809D01*
X98880952Y-110292857D02*
X98880952Y-110626190D01*
X98880952Y-110340476D02*
X98904761Y-110316666D01*
X98952380Y-110292857D01*
X99023809Y-110292857D01*
X99071428Y-110316666D01*
X99095238Y-110364285D01*
X99095238Y-110626190D01*
X99333333Y-110626190D02*
X99333333Y-110292857D01*
X99333333Y-110126190D02*
X99309523Y-110150000D01*
X99333333Y-110173809D01*
X99357142Y-110150000D01*
X99333333Y-110126190D01*
X99333333Y-110173809D01*
X99571428Y-110435714D02*
X99952380Y-110435714D01*
X100166666Y-110602380D02*
X100238095Y-110626190D01*
X100357142Y-110626190D01*
X100404761Y-110602380D01*
X100428571Y-110578571D01*
X100452380Y-110530952D01*
X100452380Y-110483333D01*
X100428571Y-110435714D01*
X100404761Y-110411904D01*
X100357142Y-110388095D01*
X100261904Y-110364285D01*
X100214285Y-110340476D01*
X100190476Y-110316666D01*
X100166666Y-110269047D01*
X100166666Y-110221428D01*
X100190476Y-110173809D01*
X100214285Y-110150000D01*
X100261904Y-110126190D01*
X100380952Y-110126190D01*
X100452380Y-110150000D01*
X100666666Y-110626190D02*
X100666666Y-110126190D01*
X100857142Y-110126190D01*
X100904761Y-110150000D01*
X100928571Y-110173809D01*
X100952380Y-110221428D01*
X100952380Y-110292857D01*
X100928571Y-110340476D01*
X100904761Y-110364285D01*
X100857142Y-110388095D01*
X100666666Y-110388095D01*
X101261904Y-110126190D02*
X101357142Y-110126190D01*
X101404761Y-110150000D01*
X101452380Y-110197619D01*
X101476190Y-110292857D01*
X101476190Y-110459523D01*
X101452380Y-110554761D01*
X101404761Y-110602380D01*
X101357142Y-110626190D01*
X101261904Y-110626190D01*
X101214285Y-110602380D01*
X101166666Y-110554761D01*
X101142857Y-110459523D01*
X101142857Y-110292857D01*
X101166666Y-110197619D01*
X101214285Y-110150000D01*
X101261904Y-110126190D01*
X101642857Y-110126190D02*
X101976190Y-110626190D01*
X101976190Y-110126190D02*
X101642857Y-110626190D01*
X98076190Y-113326190D02*
X98123809Y-113326190D01*
X98171428Y-113350000D01*
X98195238Y-113373809D01*
X98219047Y-113421428D01*
X98242857Y-113516666D01*
X98242857Y-113635714D01*
X98219047Y-113730952D01*
X98195238Y-113778571D01*
X98171428Y-113802380D01*
X98123809Y-113826190D01*
X98076190Y-113826190D01*
X98028571Y-113802380D01*
X98004761Y-113778571D01*
X97980952Y-113730952D01*
X97957142Y-113635714D01*
X97957142Y-113516666D01*
X97980952Y-113421428D01*
X98004761Y-113373809D01*
X98028571Y-113350000D01*
X98076190Y-113326190D01*
X98457142Y-113778571D02*
X98480952Y-113802380D01*
X98457142Y-113826190D01*
X98433333Y-113802380D01*
X98457142Y-113778571D01*
X98457142Y-113826190D01*
X98957142Y-113826190D02*
X98671428Y-113826190D01*
X98814285Y-113826190D02*
X98814285Y-113326190D01*
X98766666Y-113397619D01*
X98719047Y-113445238D01*
X98671428Y-113469047D01*
X99171428Y-113326190D02*
X99171428Y-113350000D01*
X99147619Y-113397619D01*
X99123809Y-113421428D01*
X99361904Y-113326190D02*
X99361904Y-113350000D01*
X99338095Y-113397619D01*
X99314285Y-113421428D01*
X99933333Y-113826190D02*
X99933333Y-113326190D01*
X100147619Y-113826190D02*
X100147619Y-113564285D01*
X100123809Y-113516666D01*
X100076190Y-113492857D01*
X100004761Y-113492857D01*
X99957142Y-113516666D01*
X99933333Y-113540476D01*
X100576190Y-113802380D02*
X100528571Y-113826190D01*
X100433333Y-113826190D01*
X100385714Y-113802380D01*
X100361904Y-113754761D01*
X100361904Y-113564285D01*
X100385714Y-113516666D01*
X100433333Y-113492857D01*
X100528571Y-113492857D01*
X100576190Y-113516666D01*
X100600000Y-113564285D01*
X100600000Y-113611904D01*
X100361904Y-113659523D01*
X101028571Y-113826190D02*
X101028571Y-113564285D01*
X101004761Y-113516666D01*
X100957142Y-113492857D01*
X100861904Y-113492857D01*
X100814285Y-113516666D01*
X101028571Y-113802380D02*
X100980952Y-113826190D01*
X100861904Y-113826190D01*
X100814285Y-113802380D01*
X100790476Y-113754761D01*
X100790476Y-113707142D01*
X100814285Y-113659523D01*
X100861904Y-113635714D01*
X100980952Y-113635714D01*
X101028571Y-113611904D01*
X101480952Y-113826190D02*
X101480952Y-113326190D01*
X101480952Y-113802380D02*
X101433333Y-113826190D01*
X101338095Y-113826190D01*
X101290476Y-113802380D01*
X101266666Y-113778571D01*
X101242857Y-113730952D01*
X101242857Y-113588095D01*
X101266666Y-113540476D01*
X101290476Y-113516666D01*
X101338095Y-113492857D01*
X101433333Y-113492857D01*
X101480952Y-113516666D01*
X101909523Y-113802380D02*
X101861904Y-113826190D01*
X101766666Y-113826190D01*
X101719047Y-113802380D01*
X101695238Y-113754761D01*
X101695238Y-113564285D01*
X101719047Y-113516666D01*
X101766666Y-113492857D01*
X101861904Y-113492857D01*
X101909523Y-113516666D01*
X101933333Y-113564285D01*
X101933333Y-113611904D01*
X101695238Y-113659523D01*
X102147619Y-113826190D02*
X102147619Y-113492857D01*
X102147619Y-113588095D02*
X102171428Y-113540476D01*
X102195238Y-113516666D01*
X102242857Y-113492857D01*
X102290476Y-113492857D01*
D13*
X95511904Y-107226190D02*
X95511904Y-106726190D01*
X95726190Y-106773809D02*
X95750000Y-106750000D01*
X95797619Y-106726190D01*
X95916666Y-106726190D01*
X95964285Y-106750000D01*
X95988095Y-106773809D01*
X96011904Y-106821428D01*
X96011904Y-106869047D01*
X95988095Y-106940476D01*
X95702380Y-107226190D01*
X96011904Y-107226190D01*
X96511904Y-107178571D02*
X96488095Y-107202380D01*
X96416666Y-107226190D01*
X96369047Y-107226190D01*
X96297619Y-107202380D01*
X96250000Y-107154761D01*
X96226190Y-107107142D01*
X96202380Y-107011904D01*
X96202380Y-106940476D01*
X96226190Y-106845238D01*
X96250000Y-106797619D01*
X96297619Y-106750000D01*
X96369047Y-106726190D01*
X96416666Y-106726190D01*
X96488095Y-106750000D01*
X96511904Y-106773809D01*
X93107142Y-107276190D02*
X93107142Y-106776190D01*
X93107142Y-107014285D02*
X93392857Y-107014285D01*
X93392857Y-107276190D02*
X93392857Y-106776190D01*
X93607142Y-107252380D02*
X93678571Y-107276190D01*
X93797619Y-107276190D01*
X93845238Y-107252380D01*
X93869047Y-107228571D01*
X93892857Y-107180952D01*
X93892857Y-107133333D01*
X93869047Y-107085714D01*
X93845238Y-107061904D01*
X93797619Y-107038095D01*
X93702380Y-107014285D01*
X93654761Y-106990476D01*
X93630952Y-106966666D01*
X93607142Y-106919047D01*
X93607142Y-106871428D01*
X93630952Y-106823809D01*
X93654761Y-106800000D01*
X93702380Y-106776190D01*
X93821428Y-106776190D01*
X93892857Y-106800000D01*
X94107142Y-106776190D02*
X94107142Y-107180952D01*
X94130952Y-107228571D01*
X94154761Y-107252380D01*
X94202380Y-107276190D01*
X94297619Y-107276190D01*
X94345238Y-107252380D01*
X94369047Y-107228571D01*
X94392857Y-107180952D01*
X94392857Y-106776190D01*
D14*
X89047619Y-97404761D02*
X89047619Y-97976190D01*
X88047619Y-97690476D02*
X89047619Y-97690476D01*
X88047619Y-98738095D02*
X88571428Y-98738095D01*
X88666666Y-98690476D01*
X88714285Y-98595238D01*
X88714285Y-98404761D01*
X88666666Y-98309523D01*
X88095238Y-98738095D02*
X88047619Y-98642857D01*
X88047619Y-98404761D01*
X88095238Y-98309523D01*
X88190476Y-98261904D01*
X88285714Y-98261904D01*
X88380952Y-98309523D01*
X88428571Y-98404761D01*
X88428571Y-98642857D01*
X88476190Y-98738095D01*
X88047619Y-99214285D02*
X88714285Y-99214285D01*
X88619047Y-99214285D02*
X88666666Y-99261904D01*
X88714285Y-99357142D01*
X88714285Y-99500000D01*
X88666666Y-99595238D01*
X88571428Y-99642857D01*
X88047619Y-99642857D01*
X88571428Y-99642857D02*
X88666666Y-99690476D01*
X88714285Y-99785714D01*
X88714285Y-99928571D01*
X88666666Y-100023809D01*
X88571428Y-100071428D01*
X88047619Y-100071428D01*
X88714285Y-100547619D02*
X87714285Y-100547619D01*
X88666666Y-100547619D02*
X88714285Y-100642857D01*
X88714285Y-100833333D01*
X88666666Y-100928571D01*
X88619047Y-100976190D01*
X88523809Y-101023809D01*
X88238095Y-101023809D01*
X88142857Y-100976190D01*
X88095238Y-100928571D01*
X88047619Y-100833333D01*
X88047619Y-100642857D01*
X88095238Y-100547619D01*
X88095238Y-101833333D02*
X88047619Y-101738095D01*
X88047619Y-101547619D01*
X88095238Y-101452380D01*
X88190476Y-101404761D01*
X88571428Y-101404761D01*
X88666666Y-101452380D01*
X88714285Y-101547619D01*
X88714285Y-101738095D01*
X88666666Y-101833333D01*
X88571428Y-101880952D01*
X88476190Y-101880952D01*
X88380952Y-101404761D01*
X88047619Y-102309523D02*
X88714285Y-102309523D01*
X88523809Y-102309523D02*
X88619047Y-102357142D01*
X88666666Y-102404761D01*
X88714285Y-102500000D01*
X88714285Y-102595238D01*
X104202380Y-118892976D02*
X103726190Y-119226309D01*
X104202380Y-119464404D02*
X103202380Y-119464404D01*
X103202380Y-119083452D01*
X103250000Y-118988214D01*
X103297619Y-118940595D01*
X103392857Y-118892976D01*
X103535714Y-118892976D01*
X103630952Y-118940595D01*
X103678571Y-118988214D01*
X103726190Y-119083452D01*
X103726190Y-119464404D01*
X103202380Y-118559642D02*
X104202380Y-117892976D01*
X103202380Y-117892976D02*
X104202380Y-118559642D01*
X100702380Y-119607261D02*
X100702380Y-119035833D01*
X101702380Y-119321547D02*
X100702380Y-119321547D01*
X100702380Y-118797738D02*
X101702380Y-118131071D01*
X100702380Y-118131071D02*
X101702380Y-118797738D01*
X98202380Y-119607261D02*
X99202380Y-119273928D01*
X98202380Y-118940595D01*
X99107142Y-118035833D02*
X99154761Y-118083452D01*
X99202380Y-118226309D01*
X99202380Y-118321547D01*
X99154761Y-118464404D01*
X99059523Y-118559642D01*
X98964285Y-118607261D01*
X98773809Y-118654880D01*
X98630952Y-118654880D01*
X98440476Y-118607261D01*
X98345238Y-118559642D01*
X98250000Y-118464404D01*
X98202380Y-118321547D01*
X98202380Y-118226309D01*
X98250000Y-118083452D01*
X98297619Y-118035833D01*
X99107142Y-117035833D02*
X99154761Y-117083452D01*
X99202380Y-117226309D01*
X99202380Y-117321547D01*
X99154761Y-117464404D01*
X99059523Y-117559642D01*
X98964285Y-117607261D01*
X98773809Y-117654880D01*
X98630952Y-117654880D01*
X98440476Y-117607261D01*
X98345238Y-117559642D01*
X98250000Y-117464404D01*
X98202380Y-117321547D01*
X98202380Y-117226309D01*
X98250000Y-117083452D01*
X98297619Y-117035833D01*
X95750000Y-118940595D02*
X95702380Y-119035833D01*
X95702380Y-119178690D01*
X95750000Y-119321547D01*
X95845238Y-119416785D01*
X95940476Y-119464404D01*
X96130952Y-119512023D01*
X96273809Y-119512023D01*
X96464285Y-119464404D01*
X96559523Y-119416785D01*
X96654761Y-119321547D01*
X96702380Y-119178690D01*
X96702380Y-119083452D01*
X96654761Y-118940595D01*
X96607142Y-118892976D01*
X96273809Y-118892976D01*
X96273809Y-119083452D01*
X96702380Y-118464404D02*
X95702380Y-118464404D01*
X96702380Y-117892976D01*
X95702380Y-117892976D01*
X96702380Y-117416785D02*
X95702380Y-117416785D01*
X95702380Y-117178690D01*
X95750000Y-117035833D01*
X95845238Y-116940595D01*
X95940476Y-116892976D01*
X96130952Y-116845357D01*
X96273809Y-116845357D01*
X96464285Y-116892976D01*
X96559523Y-116940595D01*
X96654761Y-117035833D01*
X96702380Y-117178690D01*
X96702380Y-117416785D01*
D11*
%TO.C,C19*%
X108859420Y-107690000D02*
X109140580Y-107690000D01*
X108859420Y-108710000D02*
X109140580Y-108710000D01*
%TO.C,D6*%
X108300000Y-107460000D02*
X110200000Y-107460000D01*
X109700000Y-105140000D02*
X108300000Y-105140000D01*
%TO.C,D5*%
X109700000Y-102540000D02*
X107800000Y-102540000D01*
X108300000Y-104860000D02*
X109700000Y-104860000D01*
%TO.C,D4*%
X109700000Y-92740000D02*
X107800000Y-92740000D01*
X108300000Y-95060000D02*
X109700000Y-95060000D01*
%TO.C,C4*%
X95690000Y-87359420D02*
X95690000Y-87640580D01*
X96710000Y-87359420D02*
X96710000Y-87640580D01*
%TO.C,C3*%
X104310000Y-87640580D02*
X104310000Y-87359420D01*
X103290000Y-87640580D02*
X103290000Y-87359420D01*
%TO.C,R14*%
X105090000Y-105009420D02*
X105090000Y-105290580D01*
X106110000Y-105009420D02*
X106110000Y-105290580D01*
%TO.C,C2*%
X98440580Y-86635000D02*
X98159420Y-86635000D01*
X98440580Y-85615000D02*
X98159420Y-85615000D01*
X98440580Y-85435000D02*
X98159420Y-85435000D01*
X98440580Y-84415000D02*
X98159420Y-84415000D01*
%TO.C,C1*%
X101840580Y-86635000D02*
X101559420Y-86635000D01*
X101840580Y-85615000D02*
X101559420Y-85615000D01*
X101840580Y-85435000D02*
X101559420Y-85435000D01*
X101840580Y-84415000D02*
X101559420Y-84415000D01*
%TO.C,R13*%
X101509420Y-106410000D02*
X101790580Y-106410000D01*
X101509420Y-105390000D02*
X101790580Y-105390000D01*
%TO.C,R12*%
X101790580Y-103890000D02*
X101509420Y-103890000D01*
X101790580Y-104910000D02*
X101509420Y-104910000D01*
%TO.C,R11*%
X104510000Y-105290580D02*
X104510000Y-105009420D01*
X103490000Y-105290580D02*
X103490000Y-105009420D01*
%TO.C,R10*%
X99810000Y-105290580D02*
X99810000Y-105009420D01*
X98790000Y-105290580D02*
X98790000Y-105009420D01*
%TO.C,R9*%
X108859420Y-99310000D02*
X109140580Y-99310000D01*
X108859420Y-98290000D02*
X109140580Y-98290000D01*
%TO.C,R8*%
X108859420Y-100810000D02*
X109140580Y-100810000D01*
X108859420Y-99790000D02*
X109140580Y-99790000D01*
%TO.C,R7*%
X108859420Y-102310000D02*
X109140580Y-102310000D01*
X108859420Y-101290000D02*
X109140580Y-101290000D01*
%TO.C,R6*%
X108859420Y-97810000D02*
X109140580Y-97810000D01*
X108859420Y-96790000D02*
X109140580Y-96790000D01*
%TO.C,R5*%
X108859420Y-96310000D02*
X109140580Y-96310000D01*
X108859420Y-95290000D02*
X109140580Y-95290000D01*
%TO.C,R4*%
X93759420Y-92610000D02*
X94040580Y-92610000D01*
X93759420Y-91590000D02*
X94040580Y-91590000D01*
%TO.C,R3*%
X93759420Y-88760000D02*
X94040580Y-88760000D01*
X93759420Y-87740000D02*
X94040580Y-87740000D01*
%TO.C,R2*%
X96710000Y-84890580D02*
X96710000Y-84609420D01*
X95690000Y-84890580D02*
X95690000Y-84609420D01*
%TO.C,R1*%
X104310000Y-84890580D02*
X104310000Y-84609420D01*
X103290000Y-84890580D02*
X103290000Y-84609420D01*
%TO.C,C18*%
X94040580Y-94840000D02*
X93759420Y-94840000D01*
X94040580Y-95860000D02*
X93759420Y-95860000D01*
%TO.C,C17*%
X98210000Y-105290580D02*
X98210000Y-105009420D01*
X97190000Y-105290580D02*
X97190000Y-105009420D01*
%TO.C,C16*%
X94140580Y-101990000D02*
X93859420Y-101990000D01*
X94140580Y-103010000D02*
X93859420Y-103010000D01*
%TO.C,C15*%
X93859420Y-98010000D02*
X94140580Y-98010000D01*
X93859420Y-96990000D02*
X94140580Y-96990000D01*
%TO.C,C14*%
X105359420Y-97810000D02*
X105640580Y-97810000D01*
X105359420Y-96790000D02*
X105640580Y-96790000D01*
%TO.C,C13*%
X105740000Y-99459420D02*
X105740000Y-99740580D01*
X106760000Y-99459420D02*
X106760000Y-99740580D01*
%TO.C,C12*%
X104240000Y-99459420D02*
X104240000Y-99740580D01*
X105260000Y-99459420D02*
X105260000Y-99740580D01*
%TO.C,C11*%
X98215580Y-94840000D02*
X97934420Y-94840000D01*
X98215580Y-95860000D02*
X97934420Y-95860000D01*
%TO.C,C10*%
X95740580Y-93340000D02*
X95459420Y-93340000D01*
X95740580Y-94360000D02*
X95459420Y-94360000D01*
%TO.C,C9*%
X101059420Y-94360000D02*
X101340580Y-94360000D01*
X101059420Y-93340000D02*
X101340580Y-93340000D01*
%TO.C,C8*%
X93610000Y-90340580D02*
X93610000Y-90059420D01*
X92590000Y-90340580D02*
X92590000Y-90059420D01*
%TO.C,C7*%
X101059420Y-95860000D02*
X101340580Y-95860000D01*
X101059420Y-94840000D02*
X101340580Y-94840000D01*
%TO.C,C6*%
X98440580Y-87740000D02*
X98159420Y-87740000D01*
X98440580Y-88760000D02*
X98159420Y-88760000D01*
%TO.C,C5*%
X101559420Y-88760000D02*
X101840580Y-88760000D01*
X101559420Y-87740000D02*
X101840580Y-87740000D01*
%TO.C,L2*%
X97078634Y-89490156D02*
X98259844Y-90671366D01*
X95240156Y-91328634D02*
X96421366Y-92509844D01*
%TO.C,L1*%
X101740156Y-90671366D02*
X102921366Y-89490156D01*
X103578634Y-92509844D02*
X104759844Y-91328634D01*
%TO.C,A1*%
X79500000Y-112000000D02*
X79500000Y-88000000D01*
X112500000Y-120500000D02*
X88000000Y-120500000D01*
X120500000Y-88000000D02*
X120500000Y-112000000D01*
X88000000Y-79500000D02*
X112000000Y-79500000D01*
X88000000Y-83500000D02*
X112000000Y-83500000D01*
X83500000Y-112000000D02*
X83500000Y-88000000D01*
X112000000Y-116500000D02*
X88000000Y-116500000D01*
X116500000Y-88000000D02*
X116500000Y-112000000D01*
X83500000Y-112000000D02*
G75*
G03*
X88000000Y-116500000I4500000J0D01*
G01*
X88000000Y-83500000D02*
G75*
G03*
X83500000Y-88000000I0J-4500000D01*
G01*
X116500000Y-88000000D02*
G75*
G03*
X112000000Y-83500000I-4500000J0D01*
G01*
X88000000Y-79500000D02*
G75*
G03*
X79500000Y-88000000I0J-8500000D01*
G01*
X79500000Y-112000000D02*
G75*
G03*
X88000000Y-120500000I8500000J0D01*
G01*
X112499137Y-120485332D02*
G75*
G03*
X120500000Y-112000000I-499137J8485332D01*
G01*
X120500000Y-88000000D02*
G75*
G03*
X112000000Y-79500000I-8500000J0D01*
G01*
X112000000Y-116500000D02*
G75*
G03*
X116500000Y-112000000I0J4500000D01*
G01*
%TO.C,SW1*%
X91730000Y-103230000D02*
X91700000Y-103230000D01*
X85270000Y-103230000D02*
X85300000Y-103230000D01*
X85270000Y-96770000D02*
X85300000Y-96770000D01*
X91700000Y-96770000D02*
X91730000Y-96770000D01*
X89800000Y-103230000D02*
X87200000Y-103230000D01*
X91730000Y-96770000D02*
X91730000Y-103230000D01*
X89800000Y-96770000D02*
X87200000Y-96770000D01*
X85270000Y-96770000D02*
X85270000Y-103230000D01*
X85250000Y-97750000D02*
X85250000Y-102250000D01*
X89250000Y-96500000D02*
X87750000Y-96500000D01*
X91750000Y-102250000D02*
X91750000Y-97750000D01*
X87750000Y-103500000D02*
X89250000Y-103500000D01*
%TO.C,J3*%
X93650000Y-107500000D02*
X93650000Y-115500000D01*
X93650000Y-107500000D02*
X106350000Y-107500000D01*
X106350000Y-107500000D02*
X106350000Y-115500000D01*
%TO.C,JP1*%
X93250000Y-104400000D02*
X96050000Y-104400000D01*
X96700000Y-105100000D02*
X96700000Y-105700000D01*
X96050000Y-106400000D02*
X93250000Y-106400000D01*
X92600000Y-105700000D02*
X92600000Y-105100000D01*
X92600000Y-105100000D02*
G75*
G02*
X93300000Y-104400000I700000J0D01*
G01*
X93300000Y-106400000D02*
G75*
G02*
X92600000Y-105700000I0J700000D01*
G01*
X96700000Y-105700000D02*
G75*
G02*
X96000000Y-106400000I-700000J0D01*
G01*
X96000000Y-104400000D02*
G75*
G02*
X96700000Y-105100000I0J-700000D01*
G01*
%TO.C,U1*%
X103110000Y-97365000D02*
X103110000Y-96890000D01*
X96890000Y-103110000D02*
X97365000Y-103110000D01*
X96890000Y-102635000D02*
X96890000Y-103110000D01*
X96890000Y-96890000D02*
X97365000Y-96890000D01*
X96890000Y-97365000D02*
X96890000Y-96890000D01*
X103110000Y-103110000D02*
X102635000Y-103110000D01*
X103110000Y-102635000D02*
X103110000Y-103110000D01*
%TO.C,C19*%
D10*
X110878571Y-108521428D02*
X110902380Y-108545238D01*
X110926190Y-108616666D01*
X110926190Y-108664285D01*
X110902380Y-108735714D01*
X110854761Y-108783333D01*
X110807142Y-108807142D01*
X110711904Y-108830952D01*
X110640476Y-108830952D01*
X110545238Y-108807142D01*
X110497619Y-108783333D01*
X110450000Y-108735714D01*
X110426190Y-108664285D01*
X110426190Y-108616666D01*
X110450000Y-108545238D01*
X110473809Y-108521428D01*
X110926190Y-108045238D02*
X110926190Y-108330952D01*
X110926190Y-108188095D02*
X110426190Y-108188095D01*
X110497619Y-108235714D01*
X110545238Y-108283333D01*
X110569047Y-108330952D01*
X110926190Y-107807142D02*
X110926190Y-107711904D01*
X110902380Y-107664285D01*
X110878571Y-107640476D01*
X110807142Y-107592857D01*
X110711904Y-107569047D01*
X110521428Y-107569047D01*
X110473809Y-107592857D01*
X110450000Y-107616666D01*
X110426190Y-107664285D01*
X110426190Y-107759523D01*
X110450000Y-107807142D01*
X110473809Y-107830952D01*
X110521428Y-107854761D01*
X110640476Y-107854761D01*
X110688095Y-107830952D01*
X110711904Y-107807142D01*
X110735714Y-107759523D01*
X110735714Y-107664285D01*
X110711904Y-107616666D01*
X110688095Y-107592857D01*
X110640476Y-107569047D01*
%TO.C,D6*%
X110926190Y-106669047D02*
X110426190Y-106669047D01*
X110426190Y-106550000D01*
X110450000Y-106478571D01*
X110497619Y-106430952D01*
X110545238Y-106407142D01*
X110640476Y-106383333D01*
X110711904Y-106383333D01*
X110807142Y-106407142D01*
X110854761Y-106430952D01*
X110902380Y-106478571D01*
X110926190Y-106550000D01*
X110926190Y-106669047D01*
X110426190Y-105954761D02*
X110426190Y-106050000D01*
X110450000Y-106097619D01*
X110473809Y-106121428D01*
X110545238Y-106169047D01*
X110640476Y-106192857D01*
X110830952Y-106192857D01*
X110878571Y-106169047D01*
X110902380Y-106145238D01*
X110926190Y-106097619D01*
X110926190Y-106002380D01*
X110902380Y-105954761D01*
X110878571Y-105930952D01*
X110830952Y-105907142D01*
X110711904Y-105907142D01*
X110664285Y-105930952D01*
X110640476Y-105954761D01*
X110616666Y-106002380D01*
X110616666Y-106097619D01*
X110640476Y-106145238D01*
X110664285Y-106169047D01*
X110711904Y-106192857D01*
%TO.C,D5*%
X110926190Y-104069047D02*
X110426190Y-104069047D01*
X110426190Y-103950000D01*
X110450000Y-103878571D01*
X110497619Y-103830952D01*
X110545238Y-103807142D01*
X110640476Y-103783333D01*
X110711904Y-103783333D01*
X110807142Y-103807142D01*
X110854761Y-103830952D01*
X110902380Y-103878571D01*
X110926190Y-103950000D01*
X110926190Y-104069047D01*
X110426190Y-103330952D02*
X110426190Y-103569047D01*
X110664285Y-103592857D01*
X110640476Y-103569047D01*
X110616666Y-103521428D01*
X110616666Y-103402380D01*
X110640476Y-103354761D01*
X110664285Y-103330952D01*
X110711904Y-103307142D01*
X110830952Y-103307142D01*
X110878571Y-103330952D01*
X110902380Y-103354761D01*
X110926190Y-103402380D01*
X110926190Y-103521428D01*
X110902380Y-103569047D01*
X110878571Y-103592857D01*
%TO.C,D4*%
X110926190Y-94269047D02*
X110426190Y-94269047D01*
X110426190Y-94150000D01*
X110450000Y-94078571D01*
X110497619Y-94030952D01*
X110545238Y-94007142D01*
X110640476Y-93983333D01*
X110711904Y-93983333D01*
X110807142Y-94007142D01*
X110854761Y-94030952D01*
X110902380Y-94078571D01*
X110926190Y-94150000D01*
X110926190Y-94269047D01*
X110592857Y-93554761D02*
X110926190Y-93554761D01*
X110402380Y-93673809D02*
X110759523Y-93792857D01*
X110759523Y-93483333D01*
%TO.C,C4*%
X95378571Y-87358333D02*
X95402380Y-87382142D01*
X95426190Y-87453571D01*
X95426190Y-87501190D01*
X95402380Y-87572619D01*
X95354761Y-87620238D01*
X95307142Y-87644047D01*
X95211904Y-87667857D01*
X95140476Y-87667857D01*
X95045238Y-87644047D01*
X94997619Y-87620238D01*
X94950000Y-87572619D01*
X94926190Y-87501190D01*
X94926190Y-87453571D01*
X94950000Y-87382142D01*
X94973809Y-87358333D01*
X95092857Y-86929761D02*
X95426190Y-86929761D01*
X94902380Y-87048809D02*
X95259523Y-87167857D01*
X95259523Y-86858333D01*
%TO.C,C3*%
X105078571Y-87583333D02*
X105102380Y-87607142D01*
X105126190Y-87678571D01*
X105126190Y-87726190D01*
X105102380Y-87797619D01*
X105054761Y-87845238D01*
X105007142Y-87869047D01*
X104911904Y-87892857D01*
X104840476Y-87892857D01*
X104745238Y-87869047D01*
X104697619Y-87845238D01*
X104650000Y-87797619D01*
X104626190Y-87726190D01*
X104626190Y-87678571D01*
X104650000Y-87607142D01*
X104673809Y-87583333D01*
X104626190Y-87416666D02*
X104626190Y-87107142D01*
X104816666Y-87273809D01*
X104816666Y-87202380D01*
X104840476Y-87154761D01*
X104864285Y-87130952D01*
X104911904Y-87107142D01*
X105030952Y-87107142D01*
X105078571Y-87130952D01*
X105102380Y-87154761D01*
X105126190Y-87202380D01*
X105126190Y-87345238D01*
X105102380Y-87392857D01*
X105078571Y-87416666D01*
%TO.C,R14*%
X105328571Y-107026190D02*
X105161904Y-106788095D01*
X105042857Y-107026190D02*
X105042857Y-106526190D01*
X105233333Y-106526190D01*
X105280952Y-106550000D01*
X105304761Y-106573809D01*
X105328571Y-106621428D01*
X105328571Y-106692857D01*
X105304761Y-106740476D01*
X105280952Y-106764285D01*
X105233333Y-106788095D01*
X105042857Y-106788095D01*
X105804761Y-107026190D02*
X105519047Y-107026190D01*
X105661904Y-107026190D02*
X105661904Y-106526190D01*
X105614285Y-106597619D01*
X105566666Y-106645238D01*
X105519047Y-106669047D01*
X106233333Y-106692857D02*
X106233333Y-107026190D01*
X106114285Y-106502380D02*
X105995238Y-106859523D01*
X106304761Y-106859523D01*
%TO.C,C2*%
X98216666Y-84203571D02*
X98192857Y-84227380D01*
X98121428Y-84251190D01*
X98073809Y-84251190D01*
X98002380Y-84227380D01*
X97954761Y-84179761D01*
X97930952Y-84132142D01*
X97907142Y-84036904D01*
X97907142Y-83965476D01*
X97930952Y-83870238D01*
X97954761Y-83822619D01*
X98002380Y-83775000D01*
X98073809Y-83751190D01*
X98121428Y-83751190D01*
X98192857Y-83775000D01*
X98216666Y-83798809D01*
X98407142Y-83798809D02*
X98430952Y-83775000D01*
X98478571Y-83751190D01*
X98597619Y-83751190D01*
X98645238Y-83775000D01*
X98669047Y-83798809D01*
X98692857Y-83846428D01*
X98692857Y-83894047D01*
X98669047Y-83965476D01*
X98383333Y-84251190D01*
X98692857Y-84251190D01*
%TO.C,C1*%
X101616666Y-84203571D02*
X101592857Y-84227380D01*
X101521428Y-84251190D01*
X101473809Y-84251190D01*
X101402380Y-84227380D01*
X101354761Y-84179761D01*
X101330952Y-84132142D01*
X101307142Y-84036904D01*
X101307142Y-83965476D01*
X101330952Y-83870238D01*
X101354761Y-83822619D01*
X101402380Y-83775000D01*
X101473809Y-83751190D01*
X101521428Y-83751190D01*
X101592857Y-83775000D01*
X101616666Y-83798809D01*
X102092857Y-84251190D02*
X101807142Y-84251190D01*
X101950000Y-84251190D02*
X101950000Y-83751190D01*
X101902380Y-83822619D01*
X101854761Y-83870238D01*
X101807142Y-83894047D01*
%TO.C,R13*%
X100478571Y-107026190D02*
X100311904Y-106788095D01*
X100192857Y-107026190D02*
X100192857Y-106526190D01*
X100383333Y-106526190D01*
X100430952Y-106550000D01*
X100454761Y-106573809D01*
X100478571Y-106621428D01*
X100478571Y-106692857D01*
X100454761Y-106740476D01*
X100430952Y-106764285D01*
X100383333Y-106788095D01*
X100192857Y-106788095D01*
X100954761Y-107026190D02*
X100669047Y-107026190D01*
X100811904Y-107026190D02*
X100811904Y-106526190D01*
X100764285Y-106597619D01*
X100716666Y-106645238D01*
X100669047Y-106669047D01*
X101121428Y-106526190D02*
X101430952Y-106526190D01*
X101264285Y-106716666D01*
X101335714Y-106716666D01*
X101383333Y-106740476D01*
X101407142Y-106764285D01*
X101430952Y-106811904D01*
X101430952Y-106930952D01*
X101407142Y-106978571D01*
X101383333Y-107002380D01*
X101335714Y-107026190D01*
X101192857Y-107026190D01*
X101145238Y-107002380D01*
X101121428Y-106978571D01*
%TO.C,R12*%
X102078571Y-107026190D02*
X101911904Y-106788095D01*
X101792857Y-107026190D02*
X101792857Y-106526190D01*
X101983333Y-106526190D01*
X102030952Y-106550000D01*
X102054761Y-106573809D01*
X102078571Y-106621428D01*
X102078571Y-106692857D01*
X102054761Y-106740476D01*
X102030952Y-106764285D01*
X101983333Y-106788095D01*
X101792857Y-106788095D01*
X102554761Y-107026190D02*
X102269047Y-107026190D01*
X102411904Y-107026190D02*
X102411904Y-106526190D01*
X102364285Y-106597619D01*
X102316666Y-106645238D01*
X102269047Y-106669047D01*
X102745238Y-106573809D02*
X102769047Y-106550000D01*
X102816666Y-106526190D01*
X102935714Y-106526190D01*
X102983333Y-106550000D01*
X103007142Y-106573809D01*
X103030952Y-106621428D01*
X103030952Y-106669047D01*
X103007142Y-106740476D01*
X102721428Y-107026190D01*
X103030952Y-107026190D01*
%TO.C,R11*%
X103678571Y-107026190D02*
X103511904Y-106788095D01*
X103392857Y-107026190D02*
X103392857Y-106526190D01*
X103583333Y-106526190D01*
X103630952Y-106550000D01*
X103654761Y-106573809D01*
X103678571Y-106621428D01*
X103678571Y-106692857D01*
X103654761Y-106740476D01*
X103630952Y-106764285D01*
X103583333Y-106788095D01*
X103392857Y-106788095D01*
X104154761Y-107026190D02*
X103869047Y-107026190D01*
X104011904Y-107026190D02*
X104011904Y-106526190D01*
X103964285Y-106597619D01*
X103916666Y-106645238D01*
X103869047Y-106669047D01*
X104630952Y-107026190D02*
X104345238Y-107026190D01*
X104488095Y-107026190D02*
X104488095Y-106526190D01*
X104440476Y-106597619D01*
X104392857Y-106645238D01*
X104345238Y-106669047D01*
%TO.C,R10*%
X98978571Y-106976190D02*
X98811904Y-106738095D01*
X98692857Y-106976190D02*
X98692857Y-106476190D01*
X98883333Y-106476190D01*
X98930952Y-106500000D01*
X98954761Y-106523809D01*
X98978571Y-106571428D01*
X98978571Y-106642857D01*
X98954761Y-106690476D01*
X98930952Y-106714285D01*
X98883333Y-106738095D01*
X98692857Y-106738095D01*
X99454761Y-106976190D02*
X99169047Y-106976190D01*
X99311904Y-106976190D02*
X99311904Y-106476190D01*
X99264285Y-106547619D01*
X99216666Y-106595238D01*
X99169047Y-106619047D01*
X99764285Y-106476190D02*
X99811904Y-106476190D01*
X99859523Y-106500000D01*
X99883333Y-106523809D01*
X99907142Y-106571428D01*
X99930952Y-106666666D01*
X99930952Y-106785714D01*
X99907142Y-106880952D01*
X99883333Y-106928571D01*
X99859523Y-106952380D01*
X99811904Y-106976190D01*
X99764285Y-106976190D01*
X99716666Y-106952380D01*
X99692857Y-106928571D01*
X99669047Y-106880952D01*
X99645238Y-106785714D01*
X99645238Y-106666666D01*
X99669047Y-106571428D01*
X99692857Y-106523809D01*
X99716666Y-106500000D01*
X99764285Y-106476190D01*
%TO.C,R9*%
X110926190Y-98883333D02*
X110688095Y-99050000D01*
X110926190Y-99169047D02*
X110426190Y-99169047D01*
X110426190Y-98978571D01*
X110450000Y-98930952D01*
X110473809Y-98907142D01*
X110521428Y-98883333D01*
X110592857Y-98883333D01*
X110640476Y-98907142D01*
X110664285Y-98930952D01*
X110688095Y-98978571D01*
X110688095Y-99169047D01*
X110926190Y-98645238D02*
X110926190Y-98550000D01*
X110902380Y-98502380D01*
X110878571Y-98478571D01*
X110807142Y-98430952D01*
X110711904Y-98407142D01*
X110521428Y-98407142D01*
X110473809Y-98430952D01*
X110450000Y-98454761D01*
X110426190Y-98502380D01*
X110426190Y-98597619D01*
X110450000Y-98645238D01*
X110473809Y-98669047D01*
X110521428Y-98692857D01*
X110640476Y-98692857D01*
X110688095Y-98669047D01*
X110711904Y-98645238D01*
X110735714Y-98597619D01*
X110735714Y-98502380D01*
X110711904Y-98454761D01*
X110688095Y-98430952D01*
X110640476Y-98407142D01*
%TO.C,R8*%
X110926190Y-100383333D02*
X110688095Y-100550000D01*
X110926190Y-100669047D02*
X110426190Y-100669047D01*
X110426190Y-100478571D01*
X110450000Y-100430952D01*
X110473809Y-100407142D01*
X110521428Y-100383333D01*
X110592857Y-100383333D01*
X110640476Y-100407142D01*
X110664285Y-100430952D01*
X110688095Y-100478571D01*
X110688095Y-100669047D01*
X110640476Y-100097619D02*
X110616666Y-100145238D01*
X110592857Y-100169047D01*
X110545238Y-100192857D01*
X110521428Y-100192857D01*
X110473809Y-100169047D01*
X110450000Y-100145238D01*
X110426190Y-100097619D01*
X110426190Y-100002380D01*
X110450000Y-99954761D01*
X110473809Y-99930952D01*
X110521428Y-99907142D01*
X110545238Y-99907142D01*
X110592857Y-99930952D01*
X110616666Y-99954761D01*
X110640476Y-100002380D01*
X110640476Y-100097619D01*
X110664285Y-100145238D01*
X110688095Y-100169047D01*
X110735714Y-100192857D01*
X110830952Y-100192857D01*
X110878571Y-100169047D01*
X110902380Y-100145238D01*
X110926190Y-100097619D01*
X110926190Y-100002380D01*
X110902380Y-99954761D01*
X110878571Y-99930952D01*
X110830952Y-99907142D01*
X110735714Y-99907142D01*
X110688095Y-99930952D01*
X110664285Y-99954761D01*
X110640476Y-100002380D01*
%TO.C,R7*%
X110926190Y-101883333D02*
X110688095Y-102050000D01*
X110926190Y-102169047D02*
X110426190Y-102169047D01*
X110426190Y-101978571D01*
X110450000Y-101930952D01*
X110473809Y-101907142D01*
X110521428Y-101883333D01*
X110592857Y-101883333D01*
X110640476Y-101907142D01*
X110664285Y-101930952D01*
X110688095Y-101978571D01*
X110688095Y-102169047D01*
X110426190Y-101716666D02*
X110426190Y-101383333D01*
X110926190Y-101597619D01*
%TO.C,R6*%
X110926190Y-97383333D02*
X110688095Y-97550000D01*
X110926190Y-97669047D02*
X110426190Y-97669047D01*
X110426190Y-97478571D01*
X110450000Y-97430952D01*
X110473809Y-97407142D01*
X110521428Y-97383333D01*
X110592857Y-97383333D01*
X110640476Y-97407142D01*
X110664285Y-97430952D01*
X110688095Y-97478571D01*
X110688095Y-97669047D01*
X110426190Y-96954761D02*
X110426190Y-97050000D01*
X110450000Y-97097619D01*
X110473809Y-97121428D01*
X110545238Y-97169047D01*
X110640476Y-97192857D01*
X110830952Y-97192857D01*
X110878571Y-97169047D01*
X110902380Y-97145238D01*
X110926190Y-97097619D01*
X110926190Y-97002380D01*
X110902380Y-96954761D01*
X110878571Y-96930952D01*
X110830952Y-96907142D01*
X110711904Y-96907142D01*
X110664285Y-96930952D01*
X110640476Y-96954761D01*
X110616666Y-97002380D01*
X110616666Y-97097619D01*
X110640476Y-97145238D01*
X110664285Y-97169047D01*
X110711904Y-97192857D01*
%TO.C,R5*%
X110926190Y-95883333D02*
X110688095Y-96050000D01*
X110926190Y-96169047D02*
X110426190Y-96169047D01*
X110426190Y-95978571D01*
X110450000Y-95930952D01*
X110473809Y-95907142D01*
X110521428Y-95883333D01*
X110592857Y-95883333D01*
X110640476Y-95907142D01*
X110664285Y-95930952D01*
X110688095Y-95978571D01*
X110688095Y-96169047D01*
X110426190Y-95430952D02*
X110426190Y-95669047D01*
X110664285Y-95692857D01*
X110640476Y-95669047D01*
X110616666Y-95621428D01*
X110616666Y-95502380D01*
X110640476Y-95454761D01*
X110664285Y-95430952D01*
X110711904Y-95407142D01*
X110830952Y-95407142D01*
X110878571Y-95430952D01*
X110902380Y-95454761D01*
X110926190Y-95502380D01*
X110926190Y-95621428D01*
X110902380Y-95669047D01*
X110878571Y-95692857D01*
%TO.C,R4*%
X92526190Y-92183333D02*
X92288095Y-92350000D01*
X92526190Y-92469047D02*
X92026190Y-92469047D01*
X92026190Y-92278571D01*
X92050000Y-92230952D01*
X92073809Y-92207142D01*
X92121428Y-92183333D01*
X92192857Y-92183333D01*
X92240476Y-92207142D01*
X92264285Y-92230952D01*
X92288095Y-92278571D01*
X92288095Y-92469047D01*
X92192857Y-91754761D02*
X92526190Y-91754761D01*
X92002380Y-91873809D02*
X92359523Y-91992857D01*
X92359523Y-91683333D01*
%TO.C,R3*%
X92526190Y-88333333D02*
X92288095Y-88500000D01*
X92526190Y-88619047D02*
X92026190Y-88619047D01*
X92026190Y-88428571D01*
X92050000Y-88380952D01*
X92073809Y-88357142D01*
X92121428Y-88333333D01*
X92192857Y-88333333D01*
X92240476Y-88357142D01*
X92264285Y-88380952D01*
X92288095Y-88428571D01*
X92288095Y-88619047D01*
X92026190Y-88166666D02*
X92026190Y-87857142D01*
X92216666Y-88023809D01*
X92216666Y-87952380D01*
X92240476Y-87904761D01*
X92264285Y-87880952D01*
X92311904Y-87857142D01*
X92430952Y-87857142D01*
X92478571Y-87880952D01*
X92502380Y-87904761D01*
X92526190Y-87952380D01*
X92526190Y-88095238D01*
X92502380Y-88142857D01*
X92478571Y-88166666D01*
%TO.C,R2*%
X95426190Y-84808333D02*
X95188095Y-84975000D01*
X95426190Y-85094047D02*
X94926190Y-85094047D01*
X94926190Y-84903571D01*
X94950000Y-84855952D01*
X94973809Y-84832142D01*
X95021428Y-84808333D01*
X95092857Y-84808333D01*
X95140476Y-84832142D01*
X95164285Y-84855952D01*
X95188095Y-84903571D01*
X95188095Y-85094047D01*
X94973809Y-84617857D02*
X94950000Y-84594047D01*
X94926190Y-84546428D01*
X94926190Y-84427380D01*
X94950000Y-84379761D01*
X94973809Y-84355952D01*
X95021428Y-84332142D01*
X95069047Y-84332142D01*
X95140476Y-84355952D01*
X95426190Y-84641666D01*
X95426190Y-84332142D01*
%TO.C,R1*%
X105126190Y-84833333D02*
X104888095Y-85000000D01*
X105126190Y-85119047D02*
X104626190Y-85119047D01*
X104626190Y-84928571D01*
X104650000Y-84880952D01*
X104673809Y-84857142D01*
X104721428Y-84833333D01*
X104792857Y-84833333D01*
X104840476Y-84857142D01*
X104864285Y-84880952D01*
X104888095Y-84928571D01*
X104888095Y-85119047D01*
X105126190Y-84357142D02*
X105126190Y-84642857D01*
X105126190Y-84500000D02*
X104626190Y-84500000D01*
X104697619Y-84547619D01*
X104745238Y-84595238D01*
X104769047Y-84642857D01*
%TO.C,C18*%
X95678571Y-95671428D02*
X95702380Y-95695238D01*
X95726190Y-95766666D01*
X95726190Y-95814285D01*
X95702380Y-95885714D01*
X95654761Y-95933333D01*
X95607142Y-95957142D01*
X95511904Y-95980952D01*
X95440476Y-95980952D01*
X95345238Y-95957142D01*
X95297619Y-95933333D01*
X95250000Y-95885714D01*
X95226190Y-95814285D01*
X95226190Y-95766666D01*
X95250000Y-95695238D01*
X95273809Y-95671428D01*
X95726190Y-95195238D02*
X95726190Y-95480952D01*
X95726190Y-95338095D02*
X95226190Y-95338095D01*
X95297619Y-95385714D01*
X95345238Y-95433333D01*
X95369047Y-95480952D01*
X95440476Y-94909523D02*
X95416666Y-94957142D01*
X95392857Y-94980952D01*
X95345238Y-95004761D01*
X95321428Y-95004761D01*
X95273809Y-94980952D01*
X95250000Y-94957142D01*
X95226190Y-94909523D01*
X95226190Y-94814285D01*
X95250000Y-94766666D01*
X95273809Y-94742857D01*
X95321428Y-94719047D01*
X95345238Y-94719047D01*
X95392857Y-94742857D01*
X95416666Y-94766666D01*
X95440476Y-94814285D01*
X95440476Y-94909523D01*
X95464285Y-94957142D01*
X95488095Y-94980952D01*
X95535714Y-95004761D01*
X95630952Y-95004761D01*
X95678571Y-94980952D01*
X95702380Y-94957142D01*
X95726190Y-94909523D01*
X95726190Y-94814285D01*
X95702380Y-94766666D01*
X95678571Y-94742857D01*
X95630952Y-94719047D01*
X95535714Y-94719047D01*
X95488095Y-94742857D01*
X95464285Y-94766666D01*
X95440476Y-94814285D01*
%TO.C,C17*%
X97378571Y-106928571D02*
X97354761Y-106952380D01*
X97283333Y-106976190D01*
X97235714Y-106976190D01*
X97164285Y-106952380D01*
X97116666Y-106904761D01*
X97092857Y-106857142D01*
X97069047Y-106761904D01*
X97069047Y-106690476D01*
X97092857Y-106595238D01*
X97116666Y-106547619D01*
X97164285Y-106500000D01*
X97235714Y-106476190D01*
X97283333Y-106476190D01*
X97354761Y-106500000D01*
X97378571Y-106523809D01*
X97854761Y-106976190D02*
X97569047Y-106976190D01*
X97711904Y-106976190D02*
X97711904Y-106476190D01*
X97664285Y-106547619D01*
X97616666Y-106595238D01*
X97569047Y-106619047D01*
X98021428Y-106476190D02*
X98354761Y-106476190D01*
X98140476Y-106976190D01*
%TO.C,C16*%
X95928571Y-102821428D02*
X95952380Y-102845238D01*
X95976190Y-102916666D01*
X95976190Y-102964285D01*
X95952380Y-103035714D01*
X95904761Y-103083333D01*
X95857142Y-103107142D01*
X95761904Y-103130952D01*
X95690476Y-103130952D01*
X95595238Y-103107142D01*
X95547619Y-103083333D01*
X95500000Y-103035714D01*
X95476190Y-102964285D01*
X95476190Y-102916666D01*
X95500000Y-102845238D01*
X95523809Y-102821428D01*
X95976190Y-102345238D02*
X95976190Y-102630952D01*
X95976190Y-102488095D02*
X95476190Y-102488095D01*
X95547619Y-102535714D01*
X95595238Y-102583333D01*
X95619047Y-102630952D01*
X95476190Y-101916666D02*
X95476190Y-102011904D01*
X95500000Y-102059523D01*
X95523809Y-102083333D01*
X95595238Y-102130952D01*
X95690476Y-102154761D01*
X95880952Y-102154761D01*
X95928571Y-102130952D01*
X95952380Y-102107142D01*
X95976190Y-102059523D01*
X95976190Y-101964285D01*
X95952380Y-101916666D01*
X95928571Y-101892857D01*
X95880952Y-101869047D01*
X95761904Y-101869047D01*
X95714285Y-101892857D01*
X95690476Y-101916666D01*
X95666666Y-101964285D01*
X95666666Y-102059523D01*
X95690476Y-102107142D01*
X95714285Y-102130952D01*
X95761904Y-102154761D01*
%TO.C,C15*%
X95928571Y-97821428D02*
X95952380Y-97845238D01*
X95976190Y-97916666D01*
X95976190Y-97964285D01*
X95952380Y-98035714D01*
X95904761Y-98083333D01*
X95857142Y-98107142D01*
X95761904Y-98130952D01*
X95690476Y-98130952D01*
X95595238Y-98107142D01*
X95547619Y-98083333D01*
X95500000Y-98035714D01*
X95476190Y-97964285D01*
X95476190Y-97916666D01*
X95500000Y-97845238D01*
X95523809Y-97821428D01*
X95976190Y-97345238D02*
X95976190Y-97630952D01*
X95976190Y-97488095D02*
X95476190Y-97488095D01*
X95547619Y-97535714D01*
X95595238Y-97583333D01*
X95619047Y-97630952D01*
X95476190Y-96892857D02*
X95476190Y-97130952D01*
X95714285Y-97154761D01*
X95690476Y-97130952D01*
X95666666Y-97083333D01*
X95666666Y-96964285D01*
X95690476Y-96916666D01*
X95714285Y-96892857D01*
X95761904Y-96869047D01*
X95880952Y-96869047D01*
X95928571Y-96892857D01*
X95952380Y-96916666D01*
X95976190Y-96964285D01*
X95976190Y-97083333D01*
X95952380Y-97130952D01*
X95928571Y-97154761D01*
%TO.C,C14*%
X104078571Y-97621428D02*
X104102380Y-97645238D01*
X104126190Y-97716666D01*
X104126190Y-97764285D01*
X104102380Y-97835714D01*
X104054761Y-97883333D01*
X104007142Y-97907142D01*
X103911904Y-97930952D01*
X103840476Y-97930952D01*
X103745238Y-97907142D01*
X103697619Y-97883333D01*
X103650000Y-97835714D01*
X103626190Y-97764285D01*
X103626190Y-97716666D01*
X103650000Y-97645238D01*
X103673809Y-97621428D01*
X104126190Y-97145238D02*
X104126190Y-97430952D01*
X104126190Y-97288095D02*
X103626190Y-97288095D01*
X103697619Y-97335714D01*
X103745238Y-97383333D01*
X103769047Y-97430952D01*
X103792857Y-96716666D02*
X104126190Y-96716666D01*
X103602380Y-96835714D02*
X103959523Y-96954761D01*
X103959523Y-96645238D01*
%TO.C,C13*%
X105928571Y-102328571D02*
X105904761Y-102352380D01*
X105833333Y-102376190D01*
X105785714Y-102376190D01*
X105714285Y-102352380D01*
X105666666Y-102304761D01*
X105642857Y-102257142D01*
X105619047Y-102161904D01*
X105619047Y-102090476D01*
X105642857Y-101995238D01*
X105666666Y-101947619D01*
X105714285Y-101900000D01*
X105785714Y-101876190D01*
X105833333Y-101876190D01*
X105904761Y-101900000D01*
X105928571Y-101923809D01*
X106404761Y-102376190D02*
X106119047Y-102376190D01*
X106261904Y-102376190D02*
X106261904Y-101876190D01*
X106214285Y-101947619D01*
X106166666Y-101995238D01*
X106119047Y-102019047D01*
X106571428Y-101876190D02*
X106880952Y-101876190D01*
X106714285Y-102066666D01*
X106785714Y-102066666D01*
X106833333Y-102090476D01*
X106857142Y-102114285D01*
X106880952Y-102161904D01*
X106880952Y-102280952D01*
X106857142Y-102328571D01*
X106833333Y-102352380D01*
X106785714Y-102376190D01*
X106642857Y-102376190D01*
X106595238Y-102352380D01*
X106571428Y-102328571D01*
%TO.C,C12*%
X104428571Y-102328571D02*
X104404761Y-102352380D01*
X104333333Y-102376190D01*
X104285714Y-102376190D01*
X104214285Y-102352380D01*
X104166666Y-102304761D01*
X104142857Y-102257142D01*
X104119047Y-102161904D01*
X104119047Y-102090476D01*
X104142857Y-101995238D01*
X104166666Y-101947619D01*
X104214285Y-101900000D01*
X104285714Y-101876190D01*
X104333333Y-101876190D01*
X104404761Y-101900000D01*
X104428571Y-101923809D01*
X104904761Y-102376190D02*
X104619047Y-102376190D01*
X104761904Y-102376190D02*
X104761904Y-101876190D01*
X104714285Y-101947619D01*
X104666666Y-101995238D01*
X104619047Y-102019047D01*
X105095238Y-101923809D02*
X105119047Y-101900000D01*
X105166666Y-101876190D01*
X105285714Y-101876190D01*
X105333333Y-101900000D01*
X105357142Y-101923809D01*
X105380952Y-101971428D01*
X105380952Y-102019047D01*
X105357142Y-102090476D01*
X105071428Y-102376190D01*
X105380952Y-102376190D01*
%TO.C,C11*%
X97678571Y-94578571D02*
X97654761Y-94602380D01*
X97583333Y-94626190D01*
X97535714Y-94626190D01*
X97464285Y-94602380D01*
X97416666Y-94554761D01*
X97392857Y-94507142D01*
X97369047Y-94411904D01*
X97369047Y-94340476D01*
X97392857Y-94245238D01*
X97416666Y-94197619D01*
X97464285Y-94150000D01*
X97535714Y-94126190D01*
X97583333Y-94126190D01*
X97654761Y-94150000D01*
X97678571Y-94173809D01*
X98154761Y-94626190D02*
X97869047Y-94626190D01*
X98011904Y-94626190D02*
X98011904Y-94126190D01*
X97964285Y-94197619D01*
X97916666Y-94245238D01*
X97869047Y-94269047D01*
X98630952Y-94626190D02*
X98345238Y-94626190D01*
X98488095Y-94626190D02*
X98488095Y-94126190D01*
X98440476Y-94197619D01*
X98392857Y-94245238D01*
X98345238Y-94269047D01*
%TO.C,C10*%
X95278571Y-93078571D02*
X95254761Y-93102380D01*
X95183333Y-93126190D01*
X95135714Y-93126190D01*
X95064285Y-93102380D01*
X95016666Y-93054761D01*
X94992857Y-93007142D01*
X94969047Y-92911904D01*
X94969047Y-92840476D01*
X94992857Y-92745238D01*
X95016666Y-92697619D01*
X95064285Y-92650000D01*
X95135714Y-92626190D01*
X95183333Y-92626190D01*
X95254761Y-92650000D01*
X95278571Y-92673809D01*
X95754761Y-93126190D02*
X95469047Y-93126190D01*
X95611904Y-93126190D02*
X95611904Y-92626190D01*
X95564285Y-92697619D01*
X95516666Y-92745238D01*
X95469047Y-92769047D01*
X96064285Y-92626190D02*
X96111904Y-92626190D01*
X96159523Y-92650000D01*
X96183333Y-92673809D01*
X96207142Y-92721428D01*
X96230952Y-92816666D01*
X96230952Y-92935714D01*
X96207142Y-93030952D01*
X96183333Y-93078571D01*
X96159523Y-93102380D01*
X96111904Y-93126190D01*
X96064285Y-93126190D01*
X96016666Y-93102380D01*
X95992857Y-93078571D01*
X95969047Y-93030952D01*
X95945238Y-92935714D01*
X95945238Y-92816666D01*
X95969047Y-92721428D01*
X95992857Y-92673809D01*
X96016666Y-92650000D01*
X96064285Y-92626190D01*
%TO.C,C9*%
X104078571Y-93983333D02*
X104102380Y-94007142D01*
X104126190Y-94078571D01*
X104126190Y-94126190D01*
X104102380Y-94197619D01*
X104054761Y-94245238D01*
X104007142Y-94269047D01*
X103911904Y-94292857D01*
X103840476Y-94292857D01*
X103745238Y-94269047D01*
X103697619Y-94245238D01*
X103650000Y-94197619D01*
X103626190Y-94126190D01*
X103626190Y-94078571D01*
X103650000Y-94007142D01*
X103673809Y-93983333D01*
X104126190Y-93745238D02*
X104126190Y-93650000D01*
X104102380Y-93602380D01*
X104078571Y-93578571D01*
X104007142Y-93530952D01*
X103911904Y-93507142D01*
X103721428Y-93507142D01*
X103673809Y-93530952D01*
X103650000Y-93554761D01*
X103626190Y-93602380D01*
X103626190Y-93697619D01*
X103650000Y-93745238D01*
X103673809Y-93769047D01*
X103721428Y-93792857D01*
X103840476Y-93792857D01*
X103888095Y-93769047D01*
X103911904Y-93745238D01*
X103935714Y-93697619D01*
X103935714Y-93602380D01*
X103911904Y-93554761D01*
X103888095Y-93530952D01*
X103840476Y-93507142D01*
%TO.C,C8*%
X92378571Y-90183333D02*
X92402380Y-90207142D01*
X92426190Y-90278571D01*
X92426190Y-90326190D01*
X92402380Y-90397619D01*
X92354761Y-90445238D01*
X92307142Y-90469047D01*
X92211904Y-90492857D01*
X92140476Y-90492857D01*
X92045238Y-90469047D01*
X91997619Y-90445238D01*
X91950000Y-90397619D01*
X91926190Y-90326190D01*
X91926190Y-90278571D01*
X91950000Y-90207142D01*
X91973809Y-90183333D01*
X92140476Y-89897619D02*
X92116666Y-89945238D01*
X92092857Y-89969047D01*
X92045238Y-89992857D01*
X92021428Y-89992857D01*
X91973809Y-89969047D01*
X91950000Y-89945238D01*
X91926190Y-89897619D01*
X91926190Y-89802380D01*
X91950000Y-89754761D01*
X91973809Y-89730952D01*
X92021428Y-89707142D01*
X92045238Y-89707142D01*
X92092857Y-89730952D01*
X92116666Y-89754761D01*
X92140476Y-89802380D01*
X92140476Y-89897619D01*
X92164285Y-89945238D01*
X92188095Y-89969047D01*
X92235714Y-89992857D01*
X92330952Y-89992857D01*
X92378571Y-89969047D01*
X92402380Y-89945238D01*
X92426190Y-89897619D01*
X92426190Y-89802380D01*
X92402380Y-89754761D01*
X92378571Y-89730952D01*
X92330952Y-89707142D01*
X92235714Y-89707142D01*
X92188095Y-89730952D01*
X92164285Y-89754761D01*
X92140476Y-89802380D01*
%TO.C,C7*%
X104078571Y-95433333D02*
X104102380Y-95457142D01*
X104126190Y-95528571D01*
X104126190Y-95576190D01*
X104102380Y-95647619D01*
X104054761Y-95695238D01*
X104007142Y-95719047D01*
X103911904Y-95742857D01*
X103840476Y-95742857D01*
X103745238Y-95719047D01*
X103697619Y-95695238D01*
X103650000Y-95647619D01*
X103626190Y-95576190D01*
X103626190Y-95528571D01*
X103650000Y-95457142D01*
X103673809Y-95433333D01*
X103626190Y-95266666D02*
X103626190Y-94933333D01*
X104126190Y-95147619D01*
%TO.C,C6*%
X98216666Y-87578571D02*
X98192857Y-87602380D01*
X98121428Y-87626190D01*
X98073809Y-87626190D01*
X98002380Y-87602380D01*
X97954761Y-87554761D01*
X97930952Y-87507142D01*
X97907142Y-87411904D01*
X97907142Y-87340476D01*
X97930952Y-87245238D01*
X97954761Y-87197619D01*
X98002380Y-87150000D01*
X98073809Y-87126190D01*
X98121428Y-87126190D01*
X98192857Y-87150000D01*
X98216666Y-87173809D01*
X98645238Y-87126190D02*
X98550000Y-87126190D01*
X98502380Y-87150000D01*
X98478571Y-87173809D01*
X98430952Y-87245238D01*
X98407142Y-87340476D01*
X98407142Y-87530952D01*
X98430952Y-87578571D01*
X98454761Y-87602380D01*
X98502380Y-87626190D01*
X98597619Y-87626190D01*
X98645238Y-87602380D01*
X98669047Y-87578571D01*
X98692857Y-87530952D01*
X98692857Y-87411904D01*
X98669047Y-87364285D01*
X98645238Y-87340476D01*
X98597619Y-87316666D01*
X98502380Y-87316666D01*
X98454761Y-87340476D01*
X98430952Y-87364285D01*
X98407142Y-87411904D01*
%TO.C,C5*%
X101616666Y-87578571D02*
X101592857Y-87602380D01*
X101521428Y-87626190D01*
X101473809Y-87626190D01*
X101402380Y-87602380D01*
X101354761Y-87554761D01*
X101330952Y-87507142D01*
X101307142Y-87411904D01*
X101307142Y-87340476D01*
X101330952Y-87245238D01*
X101354761Y-87197619D01*
X101402380Y-87150000D01*
X101473809Y-87126190D01*
X101521428Y-87126190D01*
X101592857Y-87150000D01*
X101616666Y-87173809D01*
X102069047Y-87126190D02*
X101830952Y-87126190D01*
X101807142Y-87364285D01*
X101830952Y-87340476D01*
X101878571Y-87316666D01*
X101997619Y-87316666D01*
X102045238Y-87340476D01*
X102069047Y-87364285D01*
X102092857Y-87411904D01*
X102092857Y-87530952D01*
X102069047Y-87578571D01*
X102045238Y-87602380D01*
X101997619Y-87626190D01*
X101878571Y-87626190D01*
X101830952Y-87602380D01*
X101807142Y-87578571D01*
%TO.C,L2*%
X94851015Y-89968866D02*
X94682656Y-90137225D01*
X94329103Y-89783671D01*
X94632148Y-89547969D02*
X94632148Y-89514297D01*
X94648984Y-89463790D01*
X94733164Y-89379610D01*
X94783671Y-89362774D01*
X94817343Y-89362774D01*
X94867851Y-89379610D01*
X94901522Y-89413282D01*
X94935194Y-89480625D01*
X94935194Y-89884687D01*
X95154061Y-89665820D01*
%TO.C,L1*%
X105074026Y-89808122D02*
X104905667Y-89639763D01*
X105259221Y-89286210D01*
X105377072Y-90111168D02*
X105175041Y-89909137D01*
X105276057Y-90010152D02*
X105629610Y-89656599D01*
X105545431Y-89673435D01*
X105478087Y-89673435D01*
X105427580Y-89656599D01*
%TO.C,TP1*%
D15*
X99369047Y-92126190D02*
X99654761Y-92126190D01*
X99511904Y-92626190D02*
X99511904Y-92126190D01*
X99821428Y-92626190D02*
X99821428Y-92126190D01*
X100011904Y-92126190D01*
X100059523Y-92150000D01*
X100083333Y-92173809D01*
X100107142Y-92221428D01*
X100107142Y-92292857D01*
X100083333Y-92340476D01*
X100059523Y-92364285D01*
X100011904Y-92388095D01*
X99821428Y-92388095D01*
X100583333Y-92626190D02*
X100297619Y-92626190D01*
X100440476Y-92626190D02*
X100440476Y-92126190D01*
X100392857Y-92197619D01*
X100345238Y-92245238D01*
X100297619Y-92269047D01*
%TO.C,J3*%
D14*
X95035714Y-109352380D02*
X94464285Y-109352380D01*
X94750000Y-109352380D02*
X94750000Y-108352380D01*
X94654761Y-108495238D01*
X94559523Y-108590476D01*
X94464285Y-108638095D01*
%TO.C,Y1*%
D10*
X95838095Y-100238095D02*
X96076190Y-100238095D01*
X95576190Y-100404761D02*
X95838095Y-100238095D01*
X95576190Y-100071428D01*
X96076190Y-99642857D02*
X96076190Y-99928571D01*
X96076190Y-99785714D02*
X95576190Y-99785714D01*
X95647619Y-99833333D01*
X95695238Y-99880952D01*
X95719047Y-99928571D01*
%TD*%
M02*
