M48
; DRILL file {KiCad (6.0.2-0)} date Friday, 18 February 2022 at 13:44:47
; FORMAT={-:-/ absolute / inch / decimal}
; #@! TF.CreationDate,2022-02-18T13:44:47+00:00
; #@! TF.GenerationSoftware,Kicad,Pcbnew,(6.0.2-0)
; #@! TF.FileFunction,Plated,1,2,PTH
FMAT,2
INCH
; #@! TA.AperFunction,Plated,PTH,ComponentDrill
T1C0.0098
; #@! TA.AperFunction,Plated,PTH,ViaDrill
T2C0.0157
; #@! TA.AperFunction,Plated,PTH,ComponentDrill
T3C0.0315
; #@! TA.AperFunction,Plated,PTH,ComponentDrill
T4C0.0335
; #@! TA.AperFunction,Plated,PTH,ComponentDrill
T5C0.0394
; #@! TA.AperFunction,Plated,PTH,ComponentDrill
T6C0.0709
%
G90
G05
T1
X3.8189Y-3.2677
X3.8976Y-3.189
X3.8976Y-3.8976
X3.8976Y-3.9764
X3.937Y-3.937
X3.9764Y-3.189
X3.9764Y-3.8976
X3.9764Y-3.9764
T2
X3.5984Y-4.0394
X3.5984Y-4.1732
X3.6299Y-3.6555
X3.6614Y-4.0777
X3.7087Y-3.689
X3.7776Y-3.8652
X3.7962Y-3.7766
X3.821Y-4.07
X3.8327Y-3.748
X3.9182Y-3.7276
X3.937Y-3.6545
X4.1102Y-4.0669
X4.1437Y-3.7156
X4.1437Y-3.7835
X4.1541Y-3.9702
X4.1693Y-4.2126
X4.1801Y-3.7598
X4.2165Y-3.7953
X4.2165Y-4.0906
X4.2165Y-4.1693
X4.2913Y-3.7156
X4.2913Y-4.0542
X4.2913Y-4.1565
X4.2913Y-4.2232
X4.2953Y-3.9142
X4.3263Y-3.5812
X4.3547Y-3.8039
X4.3573Y-3.9783
X4.368Y-3.5812
X4.3701Y-4.0591
X4.3921Y-3.8165
X4.4096Y-3.5812
X4.4295Y-3.8291
T3
X3.8878Y-3.6378
X3.9862Y-3.6378
T4
X3.7894Y-4.2874
X3.8878Y-4.2874
X3.9862Y-4.2874
X4.0846Y-4.2874
T5
X4.4094Y-4.1232
X4.4094Y-4.2232
T6
X4.4094Y-3.4646
X4.4094Y-3.7008
X4.4094Y-3.937
T0
M30
