%TF.GenerationSoftware,KiCad,Pcbnew,(5.1.9-0-10_14)*%
%TF.CreationDate,2021-04-22T07:56:31+01:00*%
%TF.ProjectId,PN532,504e3533-322e-46b6-9963-61645f706362,rev?*%
%TF.SameCoordinates,Original*%
%TF.FileFunction,Legend,Bot*%
%TF.FilePolarity,Positive*%
%FSLAX46Y46*%
G04 Gerber Fmt 4.6, Leading zero omitted, Abs format (unit mm)*
G04 Created by KiCad (PCBNEW (5.1.9-0-10_14)) date 2021-04-22 07:56:31*
%MOMM*%
%LPD*%
G01*
G04 APERTURE LIST*
%ADD10C,0.150000*%
%ADD11C,0.300000*%
%ADD12C,0.120000*%
%ADD13C,0.200000*%
%ADD14C,0.250000*%
G04 APERTURE END LIST*
D10*
X125202380Y-93833333D02*
X124726190Y-93500000D01*
X125202380Y-93261904D02*
X124202380Y-93261904D01*
X124202380Y-93642857D01*
X124250000Y-93738095D01*
X124297619Y-93785714D01*
X124392857Y-93833333D01*
X124535714Y-93833333D01*
X124630952Y-93785714D01*
X124678571Y-93738095D01*
X124726190Y-93642857D01*
X124726190Y-93261904D01*
X124202380Y-94166666D02*
X125202380Y-94833333D01*
X124202380Y-94833333D02*
X125202380Y-94166666D01*
X135595238Y-90452380D02*
X135023809Y-90452380D01*
X135309523Y-91452380D02*
X135309523Y-90452380D01*
X134261904Y-91452380D02*
X134261904Y-90928571D01*
X134309523Y-90833333D01*
X134404761Y-90785714D01*
X134595238Y-90785714D01*
X134690476Y-90833333D01*
X134261904Y-91404761D02*
X134357142Y-91452380D01*
X134595238Y-91452380D01*
X134690476Y-91404761D01*
X134738095Y-91309523D01*
X134738095Y-91214285D01*
X134690476Y-91119047D01*
X134595238Y-91071428D01*
X134357142Y-91071428D01*
X134261904Y-91023809D01*
X133785714Y-91452380D02*
X133785714Y-90785714D01*
X133785714Y-90880952D02*
X133738095Y-90833333D01*
X133642857Y-90785714D01*
X133500000Y-90785714D01*
X133404761Y-90833333D01*
X133357142Y-90928571D01*
X133357142Y-91452380D01*
X133357142Y-90928571D02*
X133309523Y-90833333D01*
X133214285Y-90785714D01*
X133071428Y-90785714D01*
X132976190Y-90833333D01*
X132928571Y-90928571D01*
X132928571Y-91452380D01*
X132452380Y-90785714D02*
X132452380Y-91785714D01*
X132452380Y-90833333D02*
X132357142Y-90785714D01*
X132166666Y-90785714D01*
X132071428Y-90833333D01*
X132023809Y-90880952D01*
X131976190Y-90976190D01*
X131976190Y-91261904D01*
X132023809Y-91357142D01*
X132071428Y-91404761D01*
X132166666Y-91452380D01*
X132357142Y-91452380D01*
X132452380Y-91404761D01*
X131166666Y-91404761D02*
X131261904Y-91452380D01*
X131452380Y-91452380D01*
X131547619Y-91404761D01*
X131595238Y-91309523D01*
X131595238Y-90928571D01*
X131547619Y-90833333D01*
X131452380Y-90785714D01*
X131261904Y-90785714D01*
X131166666Y-90833333D01*
X131119047Y-90928571D01*
X131119047Y-91023809D01*
X131595238Y-91119047D01*
X130690476Y-91452380D02*
X130690476Y-90785714D01*
X130690476Y-90976190D02*
X130642857Y-90880952D01*
X130595238Y-90833333D01*
X130500000Y-90785714D01*
X130404761Y-90785714D01*
D11*
X128714285Y-65571428D02*
X128333333Y-66904761D01*
X127952380Y-65952380D01*
X127571428Y-66904761D01*
X127190476Y-65571428D01*
X126619047Y-65571428D02*
X126238095Y-66904761D01*
X125857142Y-65952380D01*
X125476190Y-66904761D01*
X125095238Y-65571428D01*
X124523809Y-65571428D02*
X124142857Y-66904761D01*
X123761904Y-65952380D01*
X123380952Y-66904761D01*
X123000000Y-65571428D01*
X122238095Y-66714285D02*
X122142857Y-66809523D01*
X122238095Y-66904761D01*
X122333333Y-66809523D01*
X122238095Y-66714285D01*
X122238095Y-66904761D01*
X121285714Y-66904761D02*
X121285714Y-65571428D01*
X121285714Y-65761904D02*
X121190476Y-65666666D01*
X121000000Y-65571428D01*
X120714285Y-65571428D01*
X120523809Y-65666666D01*
X120428571Y-65857142D01*
X120428571Y-66904761D01*
X120428571Y-65857142D02*
X120333333Y-65666666D01*
X120142857Y-65571428D01*
X119857142Y-65571428D01*
X119666666Y-65666666D01*
X119571428Y-65857142D01*
X119571428Y-66904761D01*
X117857142Y-66809523D02*
X118047619Y-66904761D01*
X118428571Y-66904761D01*
X118619047Y-66809523D01*
X118714285Y-66619047D01*
X118714285Y-65857142D01*
X118619047Y-65666666D01*
X118428571Y-65571428D01*
X118047619Y-65571428D01*
X117857142Y-65666666D01*
X117761904Y-65857142D01*
X117761904Y-66047619D01*
X118714285Y-66238095D01*
X116904761Y-66714285D02*
X116809523Y-66809523D01*
X116904761Y-66904761D01*
X117000000Y-66809523D01*
X116904761Y-66714285D01*
X116904761Y-66904761D01*
X115095238Y-65571428D02*
X115095238Y-66904761D01*
X115952380Y-65571428D02*
X115952380Y-66619047D01*
X115857142Y-66809523D01*
X115666666Y-66904761D01*
X115380952Y-66904761D01*
X115190476Y-66809523D01*
X115095238Y-66714285D01*
X114142857Y-66904761D02*
X114142857Y-64904761D01*
X113952380Y-66142857D02*
X113380952Y-66904761D01*
X113380952Y-65571428D02*
X114142857Y-66333333D01*
D10*
X118062267Y-75697969D02*
X118163282Y-76270389D01*
X117658206Y-76102030D02*
X118365312Y-76809137D01*
X118634687Y-76539763D01*
X118668358Y-76438748D01*
X118668358Y-76371404D01*
X118634687Y-76270389D01*
X118533671Y-76169374D01*
X118432656Y-76135702D01*
X118365312Y-76135702D01*
X118264297Y-76169374D01*
X117994923Y-76438748D01*
X119005076Y-76169374D02*
X118769374Y-74990862D01*
X119476480Y-75697969D02*
X118297969Y-75462267D01*
X122774026Y-75748477D02*
X123178087Y-76152538D01*
X123683164Y-75243400D02*
X122976057Y-75950507D01*
X123346446Y-76320896D02*
X124524957Y-76085194D01*
X123817851Y-76792301D02*
X124053553Y-75613790D01*
X117069965Y-81544416D02*
X118012774Y-81073011D01*
X117541370Y-82015820D01*
X118820896Y-82015820D02*
X118820896Y-81948477D01*
X118753553Y-81813790D01*
X118686209Y-81746446D01*
X118551522Y-81679103D01*
X118416835Y-81679103D01*
X118315820Y-81712774D01*
X118147461Y-81813790D01*
X118046446Y-81914805D01*
X117945431Y-82083164D01*
X117911759Y-82184179D01*
X117911759Y-82318866D01*
X117979103Y-82453553D01*
X118046446Y-82520896D01*
X118181133Y-82588240D01*
X118248477Y-82588240D01*
X119528003Y-82722927D02*
X119528003Y-82655583D01*
X119460660Y-82520896D01*
X119393316Y-82453553D01*
X119258629Y-82386209D01*
X119123942Y-82386209D01*
X119022927Y-82419881D01*
X118854568Y-82520896D01*
X118753553Y-82621912D01*
X118652538Y-82790270D01*
X118618866Y-82891286D01*
X118618866Y-83025973D01*
X118686209Y-83160660D01*
X118753553Y-83228003D01*
X118888240Y-83295347D01*
X118955583Y-83295347D01*
X123985194Y-81207698D02*
X124018866Y-81106683D01*
X124119881Y-81005668D01*
X124254568Y-80938324D01*
X124389255Y-80938324D01*
X124490270Y-80971996D01*
X124658629Y-81073011D01*
X124759644Y-81174026D01*
X124860660Y-81342385D01*
X124894331Y-81443400D01*
X124894331Y-81578087D01*
X124826988Y-81712774D01*
X124759644Y-81780118D01*
X124624957Y-81847461D01*
X124557614Y-81847461D01*
X124321912Y-81611759D01*
X124456599Y-81477072D01*
X124321912Y-82217851D02*
X123614805Y-81510744D01*
X123917851Y-82621912D01*
X123210744Y-81914805D01*
X123581133Y-82958629D02*
X122874026Y-82251522D01*
X122705668Y-82419881D01*
X122638324Y-82554568D01*
X122638324Y-82689255D01*
X122671996Y-82790270D01*
X122773011Y-82958629D01*
X122874026Y-83059644D01*
X123042385Y-83160660D01*
X123143400Y-83194331D01*
X123278087Y-83194331D01*
X123412774Y-83126988D01*
X123581133Y-82958629D01*
X106238095Y-73166666D02*
X105761904Y-73166666D01*
X106333333Y-73452380D02*
X106000000Y-72452380D01*
X105666666Y-73452380D01*
X105738095Y-78500000D02*
X105833333Y-78452380D01*
X105976190Y-78452380D01*
X106119047Y-78500000D01*
X106214285Y-78595238D01*
X106261904Y-78690476D01*
X106309523Y-78880952D01*
X106309523Y-79023809D01*
X106261904Y-79214285D01*
X106214285Y-79309523D01*
X106119047Y-79404761D01*
X105976190Y-79452380D01*
X105880952Y-79452380D01*
X105738095Y-79404761D01*
X105690476Y-79357142D01*
X105690476Y-79023809D01*
X105880952Y-79023809D01*
X105690476Y-67452380D02*
X106023809Y-66976190D01*
X106261904Y-67452380D02*
X106261904Y-66452380D01*
X105880952Y-66452380D01*
X105785714Y-66500000D01*
X105738095Y-66547619D01*
X105690476Y-66642857D01*
X105690476Y-66785714D01*
X105738095Y-66880952D01*
X105785714Y-66928571D01*
X105880952Y-66976190D01*
X106261904Y-66976190D01*
X119202380Y-92666666D02*
X120202380Y-93000000D01*
X119202380Y-93333333D01*
X120107142Y-94238095D02*
X120154761Y-94190476D01*
X120202380Y-94047619D01*
X120202380Y-93952380D01*
X120154761Y-93809523D01*
X120059523Y-93714285D01*
X119964285Y-93666666D01*
X119773809Y-93619047D01*
X119630952Y-93619047D01*
X119440476Y-93666666D01*
X119345238Y-93714285D01*
X119250000Y-93809523D01*
X119202380Y-93952380D01*
X119202380Y-94047619D01*
X119250000Y-94190476D01*
X119297619Y-94238095D01*
X120107142Y-95238095D02*
X120154761Y-95190476D01*
X120202380Y-95047619D01*
X120202380Y-94952380D01*
X120154761Y-94809523D01*
X120059523Y-94714285D01*
X119964285Y-94666666D01*
X119773809Y-94619047D01*
X119630952Y-94619047D01*
X119440476Y-94666666D01*
X119345238Y-94714285D01*
X119250000Y-94809523D01*
X119202380Y-94952380D01*
X119202380Y-95047619D01*
X119250000Y-95190476D01*
X119297619Y-95238095D01*
X121702380Y-93238095D02*
X121702380Y-93809523D01*
X122702380Y-93523809D02*
X121702380Y-93523809D01*
X121702380Y-94047619D02*
X122702380Y-94714285D01*
X121702380Y-94714285D02*
X122702380Y-94047619D01*
X116750000Y-93238095D02*
X116702380Y-93142857D01*
X116702380Y-93000000D01*
X116750000Y-92857142D01*
X116845238Y-92761904D01*
X116940476Y-92714285D01*
X117130952Y-92666666D01*
X117273809Y-92666666D01*
X117464285Y-92714285D01*
X117559523Y-92761904D01*
X117654761Y-92857142D01*
X117702380Y-93000000D01*
X117702380Y-93095238D01*
X117654761Y-93238095D01*
X117607142Y-93285714D01*
X117273809Y-93285714D01*
X117273809Y-93095238D01*
X117702380Y-93714285D02*
X116702380Y-93714285D01*
X117702380Y-94285714D01*
X116702380Y-94285714D01*
X117702380Y-94761904D02*
X116702380Y-94761904D01*
X116702380Y-95000000D01*
X116750000Y-95142857D01*
X116845238Y-95238095D01*
X116940476Y-95285714D01*
X117130952Y-95333333D01*
X117273809Y-95333333D01*
X117464285Y-95285714D01*
X117559523Y-95238095D01*
X117654761Y-95142857D01*
X117702380Y-95000000D01*
X117702380Y-94761904D01*
D12*
%TO.C,A1*%
X141500000Y-63000000D02*
X141500000Y-95000000D01*
X105000000Y-58500000D02*
X137000000Y-58500000D01*
X137000000Y-62500000D02*
X105000000Y-62500000D01*
X137500000Y-95000000D02*
X137500000Y-63000000D01*
X137000000Y-99500000D02*
X105000000Y-99500000D01*
X105000000Y-95500000D02*
X137000000Y-95500000D01*
X100500000Y-95000000D02*
X100500000Y-63000000D01*
X104500000Y-95000000D02*
X104500000Y-63000000D01*
X105000000Y-58500000D02*
G75*
G03*
X100500000Y-63000000I0J-4500000D01*
G01*
X100500000Y-95000000D02*
G75*
G03*
X105000000Y-99500000I4500000J0D01*
G01*
X137000000Y-99500000D02*
G75*
G03*
X141500000Y-95000000I0J4500000D01*
G01*
X141500000Y-63000000D02*
G75*
G03*
X137000000Y-58500000I-4500000J0D01*
G01*
X137500000Y-63000000D02*
G75*
G03*
X137000000Y-62500000I-500000J0D01*
G01*
X105000000Y-62500000D02*
G75*
G03*
X104500000Y-63000000I0J-500000D01*
G01*
X104500000Y-95000000D02*
G75*
G03*
X105000000Y-95500000I500000J0D01*
G01*
X137000000Y-95500000D02*
G75*
G03*
X137500000Y-95000000I0J500000D01*
G01*
%TO.C,J1*%
X126140000Y-89670000D02*
X126140000Y-92330000D01*
X118460000Y-89670000D02*
X126140000Y-89670000D01*
X118460000Y-92330000D02*
X126140000Y-92330000D01*
X118460000Y-89670000D02*
X118460000Y-92330000D01*
X117190000Y-89670000D02*
X115860000Y-89670000D01*
X115860000Y-89670000D02*
X115860000Y-91000000D01*
%TO.C,D3*%
X107440000Y-77920000D02*
X107440000Y-77764000D01*
X107440000Y-80236000D02*
X107440000Y-80080000D01*
X110041130Y-77920163D02*
G75*
G03*
X107959039Y-77920000I-1041130J-1079837D01*
G01*
X110041130Y-80079837D02*
G75*
G02*
X107959039Y-80080000I-1041130J1079837D01*
G01*
X110672335Y-77921392D02*
G75*
G03*
X107440000Y-77764484I-1672335J-1078608D01*
G01*
X110672335Y-80078608D02*
G75*
G02*
X107440000Y-80235516I-1672335J1078608D01*
G01*
%TO.C,SW1*%
X132250000Y-87500000D02*
X133750000Y-87500000D01*
X136250000Y-88750000D02*
X136250000Y-93250000D01*
X133750000Y-94500000D02*
X132250000Y-94500000D01*
X129750000Y-93250000D02*
X129750000Y-88750000D01*
D13*
%TO.C,AJK1*%
X130550000Y-80770000D02*
X132608820Y-79005290D01*
X132609000Y-79005300D02*
X132609000Y-77534700D01*
X132608820Y-79005290D02*
X134667650Y-80770000D01*
X135187579Y-77750074D02*
X134667650Y-77534712D01*
X135187579Y-78789938D02*
X135402940Y-78270006D01*
X135402940Y-78270006D02*
X135187579Y-77750074D01*
X130550000Y-79005300D02*
X134667650Y-79005300D01*
X134667650Y-79005300D02*
X135187579Y-78789938D01*
X134667650Y-76064120D02*
X130550000Y-79005300D01*
D12*
%TO.C,D1*%
X107440000Y-65920000D02*
X107440000Y-65764000D01*
X107440000Y-68236000D02*
X107440000Y-68080000D01*
X110041130Y-65920163D02*
G75*
G03*
X107959039Y-65920000I-1041130J-1079837D01*
G01*
X110041130Y-68079837D02*
G75*
G02*
X107959039Y-68080000I-1041130J1079837D01*
G01*
X110672335Y-65921392D02*
G75*
G03*
X107440000Y-65764484I-1672335J-1078608D01*
G01*
X110672335Y-68078608D02*
G75*
G02*
X107440000Y-68235516I-1672335J1078608D01*
G01*
%TO.C,D2*%
X107440000Y-71920000D02*
X107440000Y-71764000D01*
X107440000Y-74236000D02*
X107440000Y-74080000D01*
X110041130Y-71920163D02*
G75*
G03*
X107959039Y-71920000I-1041130J-1079837D01*
G01*
X110041130Y-74079837D02*
G75*
G02*
X107959039Y-74080000I-1041130J1079837D01*
G01*
X110672335Y-71921392D02*
G75*
G03*
X107440000Y-71764484I-1672335J-1078608D01*
G01*
X110672335Y-74078608D02*
G75*
G02*
X107440000Y-74235516I-1672335J1078608D01*
G01*
%TO.C,A1*%
D14*
X140857142Y-64428571D02*
X137857142Y-64428571D01*
X140857142Y-66142857D01*
X137857142Y-66142857D01*
X139285714Y-68571428D02*
X139285714Y-67571428D01*
X140857142Y-67571428D02*
X137857142Y-67571428D01*
X137857142Y-69000000D01*
X140571428Y-71857142D02*
X140714285Y-71714285D01*
X140857142Y-71285714D01*
X140857142Y-71000000D01*
X140714285Y-70571428D01*
X140428571Y-70285714D01*
X140142857Y-70142857D01*
X139571428Y-70000000D01*
X139142857Y-70000000D01*
X138571428Y-70142857D01*
X138285714Y-70285714D01*
X138000000Y-70571428D01*
X137857142Y-71000000D01*
X137857142Y-71285714D01*
X138000000Y-71714285D01*
X138142857Y-71857142D01*
X140000000Y-75285714D02*
X140000000Y-76714285D01*
X140857142Y-75000000D02*
X137857142Y-76000000D01*
X140857142Y-77000000D01*
X140857142Y-78000000D02*
X137857142Y-78000000D01*
X140857142Y-79714285D01*
X137857142Y-79714285D01*
X137857142Y-80714285D02*
X137857142Y-82428571D01*
X140857142Y-81571428D02*
X137857142Y-81571428D01*
X139285714Y-83428571D02*
X139285714Y-84428571D01*
X140857142Y-84857142D02*
X140857142Y-83428571D01*
X137857142Y-83428571D01*
X137857142Y-84857142D01*
X140857142Y-86142857D02*
X137857142Y-86142857D01*
X140857142Y-87857142D01*
X137857142Y-87857142D01*
X140857142Y-89285714D02*
X137857142Y-89285714D01*
X140857142Y-90999999D01*
X137857142Y-90999999D01*
X140000000Y-92285714D02*
X140000000Y-93714285D01*
X140857142Y-91999999D02*
X137857142Y-92999999D01*
X140857142Y-93999999D01*
X101142857Y-93571428D02*
X104142857Y-93571428D01*
X101142857Y-91857142D01*
X104142857Y-91857142D01*
X102714285Y-89428571D02*
X102714285Y-90428571D01*
X101142857Y-90428571D02*
X104142857Y-90428571D01*
X104142857Y-89000000D01*
X101428571Y-86142857D02*
X101285714Y-86285714D01*
X101142857Y-86714285D01*
X101142857Y-87000000D01*
X101285714Y-87428571D01*
X101571428Y-87714285D01*
X101857142Y-87857142D01*
X102428571Y-88000000D01*
X102857142Y-88000000D01*
X103428571Y-87857142D01*
X103714285Y-87714285D01*
X104000000Y-87428571D01*
X104142857Y-87000000D01*
X104142857Y-86714285D01*
X104000000Y-86285714D01*
X103857142Y-86142857D01*
X102000000Y-82714285D02*
X102000000Y-81285714D01*
X101142857Y-83000000D02*
X104142857Y-82000000D01*
X101142857Y-81000000D01*
X101142857Y-80000000D02*
X104142857Y-80000000D01*
X101142857Y-78285714D01*
X104142857Y-78285714D01*
X104142857Y-77285714D02*
X104142857Y-75571428D01*
X101142857Y-76428571D02*
X104142857Y-76428571D01*
X102714285Y-74571428D02*
X102714285Y-73571428D01*
X101142857Y-73142857D02*
X101142857Y-74571428D01*
X104142857Y-74571428D01*
X104142857Y-73142857D01*
X101142857Y-71857142D02*
X104142857Y-71857142D01*
X101142857Y-70142857D01*
X104142857Y-70142857D01*
X101142857Y-68714285D02*
X104142857Y-68714285D01*
X101142857Y-67000000D01*
X104142857Y-67000000D01*
X102000000Y-65714285D02*
X102000000Y-64285714D01*
X101142857Y-66000000D02*
X104142857Y-65000000D01*
X101142857Y-64000000D01*
X106428571Y-59142857D02*
X106428571Y-62142857D01*
X108142857Y-59142857D01*
X108142857Y-62142857D01*
X110571428Y-60714285D02*
X109571428Y-60714285D01*
X109571428Y-59142857D02*
X109571428Y-62142857D01*
X111000000Y-62142857D01*
X113857142Y-59428571D02*
X113714285Y-59285714D01*
X113285714Y-59142857D01*
X113000000Y-59142857D01*
X112571428Y-59285714D01*
X112285714Y-59571428D01*
X112142857Y-59857142D01*
X112000000Y-60428571D01*
X112000000Y-60857142D01*
X112142857Y-61428571D01*
X112285714Y-61714285D01*
X112571428Y-62000000D01*
X113000000Y-62142857D01*
X113285714Y-62142857D01*
X113714285Y-62000000D01*
X113857142Y-61857142D01*
X117285714Y-60000000D02*
X118714285Y-60000000D01*
X117000000Y-59142857D02*
X118000000Y-62142857D01*
X119000000Y-59142857D01*
X120000000Y-59142857D02*
X120000000Y-62142857D01*
X121714285Y-59142857D01*
X121714285Y-62142857D01*
X122714285Y-62142857D02*
X124428571Y-62142857D01*
X123571428Y-59142857D02*
X123571428Y-62142857D01*
X125428571Y-60714285D02*
X126428571Y-60714285D01*
X126857142Y-59142857D02*
X125428571Y-59142857D01*
X125428571Y-62142857D01*
X126857142Y-62142857D01*
X128142857Y-59142857D02*
X128142857Y-62142857D01*
X129857142Y-59142857D01*
X129857142Y-62142857D01*
X131285714Y-59142857D02*
X131285714Y-62142857D01*
X132999999Y-59142857D01*
X132999999Y-62142857D01*
X134285714Y-60000000D02*
X135714285Y-60000000D01*
X133999999Y-59142857D02*
X135000000Y-62142857D01*
X136000000Y-59142857D01*
X135571428Y-98857142D02*
X135571428Y-95857142D01*
X133857142Y-98857142D01*
X133857142Y-95857142D01*
X131428571Y-97285714D02*
X132428571Y-97285714D01*
X132428571Y-98857142D02*
X132428571Y-95857142D01*
X131000000Y-95857142D01*
X128142857Y-98571428D02*
X128285714Y-98714285D01*
X128714285Y-98857142D01*
X129000000Y-98857142D01*
X129428571Y-98714285D01*
X129714285Y-98428571D01*
X129857142Y-98142857D01*
X130000000Y-97571428D01*
X130000000Y-97142857D01*
X129857142Y-96571428D01*
X129714285Y-96285714D01*
X129428571Y-96000000D01*
X129000000Y-95857142D01*
X128714285Y-95857142D01*
X128285714Y-96000000D01*
X128142857Y-96142857D01*
X124714285Y-98000000D02*
X123285714Y-98000000D01*
X125000000Y-98857142D02*
X124000000Y-95857142D01*
X123000000Y-98857142D01*
X122000000Y-98857142D02*
X122000000Y-95857142D01*
X120285714Y-98857142D01*
X120285714Y-95857142D01*
X119285714Y-95857142D02*
X117571428Y-95857142D01*
X118428571Y-98857142D02*
X118428571Y-95857142D01*
X116571428Y-97285714D02*
X115571428Y-97285714D01*
X115142857Y-98857142D02*
X116571428Y-98857142D01*
X116571428Y-95857142D01*
X115142857Y-95857142D01*
X113857142Y-98857142D02*
X113857142Y-95857142D01*
X112142857Y-98857142D01*
X112142857Y-95857142D01*
X110714285Y-98857142D02*
X110714285Y-95857142D01*
X109000000Y-98857142D01*
X109000000Y-95857142D01*
X107714285Y-98000000D02*
X106285714Y-98000000D01*
X108000000Y-98857142D02*
X107000000Y-95857142D01*
X106000000Y-98857142D01*
%TO.C,D3*%
D10*
X108138095Y-77752380D02*
X108138095Y-76752380D01*
X107900000Y-76752380D01*
X107757142Y-76800000D01*
X107661904Y-76895238D01*
X107614285Y-76990476D01*
X107566666Y-77180952D01*
X107566666Y-77323809D01*
X107614285Y-77514285D01*
X107661904Y-77609523D01*
X107757142Y-77704761D01*
X107900000Y-77752380D01*
X108138095Y-77752380D01*
X107233333Y-76752380D02*
X106614285Y-76752380D01*
X106947619Y-77133333D01*
X106804761Y-77133333D01*
X106709523Y-77180952D01*
X106661904Y-77228571D01*
X106614285Y-77323809D01*
X106614285Y-77561904D01*
X106661904Y-77657142D01*
X106709523Y-77704761D01*
X106804761Y-77752380D01*
X107090476Y-77752380D01*
X107185714Y-77704761D01*
X107233333Y-77657142D01*
%TO.C,D1*%
X108138095Y-65752380D02*
X108138095Y-64752380D01*
X107900000Y-64752380D01*
X107757142Y-64800000D01*
X107661904Y-64895238D01*
X107614285Y-64990476D01*
X107566666Y-65180952D01*
X107566666Y-65323809D01*
X107614285Y-65514285D01*
X107661904Y-65609523D01*
X107757142Y-65704761D01*
X107900000Y-65752380D01*
X108138095Y-65752380D01*
X106614285Y-65752380D02*
X107185714Y-65752380D01*
X106900000Y-65752380D02*
X106900000Y-64752380D01*
X106995238Y-64895238D01*
X107090476Y-64990476D01*
X107185714Y-65038095D01*
%TO.C,D2*%
X108138095Y-71752380D02*
X108138095Y-70752380D01*
X107900000Y-70752380D01*
X107757142Y-70800000D01*
X107661904Y-70895238D01*
X107614285Y-70990476D01*
X107566666Y-71180952D01*
X107566666Y-71323809D01*
X107614285Y-71514285D01*
X107661904Y-71609523D01*
X107757142Y-71704761D01*
X107900000Y-71752380D01*
X108138095Y-71752380D01*
X107185714Y-70847619D02*
X107138095Y-70800000D01*
X107042857Y-70752380D01*
X106804761Y-70752380D01*
X106709523Y-70800000D01*
X106661904Y-70847619D01*
X106614285Y-70942857D01*
X106614285Y-71038095D01*
X106661904Y-71180952D01*
X107233333Y-71752380D01*
X106614285Y-71752380D01*
%TD*%
M02*
