%TF.GenerationSoftware,KiCad,Pcbnew,(6.0.0-0)*%
%TF.CreationDate,2021-12-29T19:20:11+00:00*%
%TF.ProjectId,PN532,504e3533-322e-46b6-9963-61645f706362,7*%
%TF.SameCoordinates,Original*%
%TF.FileFunction,Soldermask,Bot*%
%TF.FilePolarity,Negative*%
%FSLAX46Y46*%
G04 Gerber Fmt 4.6, Leading zero omitted, Abs format (unit mm)*
G04 Created by KiCad (PCBNEW (6.0.0-0)) date 2021-12-29 19:20:11*
%MOMM*%
%LPD*%
G01*
G04 APERTURE LIST*
G04 Aperture macros list*
%AMRoundRect*
0 Rectangle with rounded corners*
0 $1 Rounding radius*
0 $2 $3 $4 $5 $6 $7 $8 $9 X,Y pos of 4 corners*
0 Add a 4 corners polygon primitive as box body*
4,1,4,$2,$3,$4,$5,$6,$7,$8,$9,$2,$3,0*
0 Add four circle primitives for the rounded corners*
1,1,$1+$1,$2,$3*
1,1,$1+$1,$4,$5*
1,1,$1+$1,$6,$7*
1,1,$1+$1,$8,$9*
0 Add four rect primitives between the rounded corners*
20,1,$1+$1,$2,$3,$4,$5,0*
20,1,$1+$1,$4,$5,$6,$7,0*
20,1,$1+$1,$6,$7,$8,$9,0*
20,1,$1+$1,$8,$9,$2,$3,0*%
G04 Aperture macros list end*
%ADD10C,3.200000*%
%ADD11O,2.100000X1.450000*%
%ADD12RoundRect,0.125000X0.625000X-0.125000X0.625000X0.125000X-0.625000X0.125000X-0.625000X-0.125000X0*%
%ADD13C,2.000000*%
%ADD14R,1.300000X2.000000*%
%ADD15C,0.350000*%
%ADD16R,1.700000X1.700000*%
%ADD17O,1.700000X1.700000*%
%ADD18RoundRect,0.250000X-0.600000X-0.675000X0.600000X-0.675000X0.600000X0.675000X-0.600000X0.675000X0*%
%ADD19O,1.700000X1.850000*%
%ADD20C,1.200000*%
%ADD21C,0.600000*%
G04 APERTURE END LIST*
%TO.C,U2*%
G36*
X90900000Y-114900000D02*
G01*
X85100000Y-114900000D01*
X85100000Y-109100000D01*
X90900000Y-109100000D01*
X90900000Y-114900000D01*
G37*
%TD*%
D10*
%TO.C,H2*%
X88000000Y-88000000D03*
%TD*%
%TO.C,H1*%
X112000000Y-112000000D03*
%TD*%
D11*
%TO.C,D2*%
X112000000Y-94000000D03*
D12*
X112000000Y-94900000D03*
X112000000Y-93100000D03*
%TD*%
D11*
%TO.C,D3*%
X112000000Y-88000000D03*
D12*
X112000000Y-88900000D03*
X112000000Y-87100000D03*
%TD*%
D13*
%TO.C,SW1*%
X90750000Y-103250000D03*
X90750000Y-96750000D03*
D14*
X90750000Y-104200000D03*
X90750000Y-95800000D03*
D13*
X86250000Y-96750000D03*
D14*
X86250000Y-104200000D03*
D13*
X86250000Y-103250000D03*
D14*
X86250000Y-95800000D03*
%TD*%
D11*
%TO.C,D1*%
X112000000Y-100000000D03*
D12*
X112000000Y-100900000D03*
X112000000Y-99100000D03*
%TD*%
D15*
%TO.C,U1*%
X99000000Y-99000000D03*
X100000000Y-100000000D03*
X99000000Y-101000000D03*
X101000000Y-101000000D03*
X101000000Y-99000000D03*
%TD*%
D16*
%TO.C,J1*%
X112000000Y-107270000D03*
D17*
X112000000Y-104730000D03*
%TD*%
D18*
%TO.C,J3*%
X96250000Y-108900000D03*
D19*
X98750000Y-108900000D03*
X101250000Y-108900000D03*
X103750000Y-108900000D03*
%TD*%
D20*
%TO.C,TP1*%
X101250000Y-92400000D03*
X98750000Y-92400000D03*
%TD*%
D16*
%TO.C,J2*%
X96190000Y-112000000D03*
D17*
X98730000Y-112000000D03*
X101270000Y-112000000D03*
X103810000Y-112000000D03*
%TD*%
D21*
%TO.C,A1*%
X100000000Y-81000000D03*
X102000000Y-83000000D03*
X98000000Y-83000000D03*
%TD*%
M02*
