M48
; DRILL file {KiCad (5.1.9-0-10_14)} date Thursday, May 06, 2021 at 08:03:38 PM
; FORMAT={-:-/ absolute / inch / decimal}
; #@! TF.CreationDate,2021-05-06T20:03:38+01:00
; #@! TF.GenerationSoftware,Kicad,Pcbnew,(5.1.9-0-10_14)
; #@! TF.FileFunction,Plated,1,2,PTH
FMAT,2
INCH
T1C0.0098
T2C0.0157
T3C0.0197
T4C0.0300
T5C0.0335
T6C0.0354
T7C0.0394
T8C0.0433
T9C0.1260
%
G90
G05
T1
X5.1181Y-3.7008
X5.2362Y-3.7795
X6.5748Y-3.622
X6.5748Y-3.8583
X6.6535Y-3.7402
T2
X5.626Y-3.8386
X5.7569Y-3.5855
X5.8976Y-3.938
X5.9646Y-3.4567
X5.9828Y-3.5773
X6.0866Y-3.5591
X6.1102Y-3.9882
X6.2126Y-3.5591
X6.2677Y-3.8858
X6.311Y-3.5276
X6.311Y-3.7047
X6.311Y-3.7756
X6.5394Y-3.7402
T3
X6.1427Y-3.7303
T4
X5.8661Y-3.7008
X5.8661Y-3.7795
X5.9449Y-3.7008
X5.9449Y-3.7795
T5
X5.7579Y-4.0906
X5.8563Y-4.0906
X5.9547Y-4.0906
X6.0531Y-4.0906
T6
X5.4331Y-3.6902
X5.4331Y-3.7902
X5.4331Y-3.9264
X5.4331Y-4.0264
X5.4331Y-4.1626
X5.4331Y-4.2626
T7
X5.6299Y-3.2177
X5.6299Y-3.3177
X5.7555Y-4.2126
X5.8555Y-4.2126
X5.9555Y-4.2126
X6.0555Y-4.2126
T8
X5.7776Y-3.1791
X5.7776Y-3.3563
X6.0335Y-3.1791
X6.0335Y-3.3563
T9
X5.4331Y-3.2677
X6.378Y-4.2126
T0
M30
