%TF.GenerationSoftware,KiCad,Pcbnew,(5.1.9-0-10_14)*%
%TF.CreationDate,2021-04-23T09:41:42+01:00*%
%TF.ProjectId,PN532,504e3533-322e-46b6-9963-61645f706362,rev?*%
%TF.SameCoordinates,Original*%
%TF.FileFunction,Paste,Bot*%
%TF.FilePolarity,Positive*%
%FSLAX46Y46*%
G04 Gerber Fmt 4.6, Leading zero omitted, Abs format (unit mm)*
G04 Created by KiCad (PCBNEW (5.1.9-0-10_14)) date 2021-04-23 09:41:42*
%MOMM*%
%LPD*%
G01*
G04 APERTURE LIST*
G04 APERTURE END LIST*
%TO.C,D3*%
G36*
G01*
X107200000Y-79450001D02*
X107200000Y-78549999D01*
G75*
G02*
X107449999Y-78300000I249999J0D01*
G01*
X108150001Y-78300000D01*
G75*
G02*
X108400000Y-78549999I0J-249999D01*
G01*
X108400000Y-79450001D01*
G75*
G02*
X108150001Y-79700000I-249999J0D01*
G01*
X107449999Y-79700000D01*
G75*
G02*
X107200000Y-79450001I0J249999D01*
G01*
G37*
G36*
G01*
X109200000Y-79450001D02*
X109200000Y-78549999D01*
G75*
G02*
X109449999Y-78300000I249999J0D01*
G01*
X110150001Y-78300000D01*
G75*
G02*
X110400000Y-78549999I0J-249999D01*
G01*
X110400000Y-79450001D01*
G75*
G02*
X110150001Y-79700000I-249999J0D01*
G01*
X109449999Y-79700000D01*
G75*
G02*
X109200000Y-79450001I0J249999D01*
G01*
G37*
G36*
G01*
X110005000Y-79625000D02*
X110005000Y-78375000D01*
G75*
G02*
X110255000Y-78125000I250000J0D01*
G01*
X111180000Y-78125000D01*
G75*
G02*
X111430000Y-78375000I0J-250000D01*
G01*
X111430000Y-79625000D01*
G75*
G02*
X111180000Y-79875000I-250000J0D01*
G01*
X110255000Y-79875000D01*
G75*
G02*
X110005000Y-79625000I0J250000D01*
G01*
G37*
G36*
G01*
X107030000Y-79625000D02*
X107030000Y-78375000D01*
G75*
G02*
X107280000Y-78125000I250000J0D01*
G01*
X108205000Y-78125000D01*
G75*
G02*
X108455000Y-78375000I0J-250000D01*
G01*
X108455000Y-79625000D01*
G75*
G02*
X108205000Y-79875000I-250000J0D01*
G01*
X107280000Y-79875000D01*
G75*
G02*
X107030000Y-79625000I0J250000D01*
G01*
G37*
%TD*%
%TO.C,D1*%
G36*
G01*
X107200000Y-67450001D02*
X107200000Y-66549999D01*
G75*
G02*
X107449999Y-66300000I249999J0D01*
G01*
X108150001Y-66300000D01*
G75*
G02*
X108400000Y-66549999I0J-249999D01*
G01*
X108400000Y-67450001D01*
G75*
G02*
X108150001Y-67700000I-249999J0D01*
G01*
X107449999Y-67700000D01*
G75*
G02*
X107200000Y-67450001I0J249999D01*
G01*
G37*
G36*
G01*
X109200000Y-67450001D02*
X109200000Y-66549999D01*
G75*
G02*
X109449999Y-66300000I249999J0D01*
G01*
X110150001Y-66300000D01*
G75*
G02*
X110400000Y-66549999I0J-249999D01*
G01*
X110400000Y-67450001D01*
G75*
G02*
X110150001Y-67700000I-249999J0D01*
G01*
X109449999Y-67700000D01*
G75*
G02*
X109200000Y-67450001I0J249999D01*
G01*
G37*
G36*
G01*
X110005000Y-67625000D02*
X110005000Y-66375000D01*
G75*
G02*
X110255000Y-66125000I250000J0D01*
G01*
X111180000Y-66125000D01*
G75*
G02*
X111430000Y-66375000I0J-250000D01*
G01*
X111430000Y-67625000D01*
G75*
G02*
X111180000Y-67875000I-250000J0D01*
G01*
X110255000Y-67875000D01*
G75*
G02*
X110005000Y-67625000I0J250000D01*
G01*
G37*
G36*
G01*
X107030000Y-67625000D02*
X107030000Y-66375000D01*
G75*
G02*
X107280000Y-66125000I250000J0D01*
G01*
X108205000Y-66125000D01*
G75*
G02*
X108455000Y-66375000I0J-250000D01*
G01*
X108455000Y-67625000D01*
G75*
G02*
X108205000Y-67875000I-250000J0D01*
G01*
X107280000Y-67875000D01*
G75*
G02*
X107030000Y-67625000I0J250000D01*
G01*
G37*
%TD*%
%TO.C,D2*%
G36*
G01*
X107200000Y-73450001D02*
X107200000Y-72549999D01*
G75*
G02*
X107449999Y-72300000I249999J0D01*
G01*
X108150001Y-72300000D01*
G75*
G02*
X108400000Y-72549999I0J-249999D01*
G01*
X108400000Y-73450001D01*
G75*
G02*
X108150001Y-73700000I-249999J0D01*
G01*
X107449999Y-73700000D01*
G75*
G02*
X107200000Y-73450001I0J249999D01*
G01*
G37*
G36*
G01*
X109200000Y-73450001D02*
X109200000Y-72549999D01*
G75*
G02*
X109449999Y-72300000I249999J0D01*
G01*
X110150001Y-72300000D01*
G75*
G02*
X110400000Y-72549999I0J-249999D01*
G01*
X110400000Y-73450001D01*
G75*
G02*
X110150001Y-73700000I-249999J0D01*
G01*
X109449999Y-73700000D01*
G75*
G02*
X109200000Y-73450001I0J249999D01*
G01*
G37*
G36*
G01*
X110005000Y-73625000D02*
X110005000Y-72375000D01*
G75*
G02*
X110255000Y-72125000I250000J0D01*
G01*
X111180000Y-72125000D01*
G75*
G02*
X111430000Y-72375000I0J-250000D01*
G01*
X111430000Y-73625000D01*
G75*
G02*
X111180000Y-73875000I-250000J0D01*
G01*
X110255000Y-73875000D01*
G75*
G02*
X110005000Y-73625000I0J250000D01*
G01*
G37*
G36*
G01*
X107030000Y-73625000D02*
X107030000Y-72375000D01*
G75*
G02*
X107280000Y-72125000I250000J0D01*
G01*
X108205000Y-72125000D01*
G75*
G02*
X108455000Y-72375000I0J-250000D01*
G01*
X108455000Y-73625000D01*
G75*
G02*
X108205000Y-73875000I-250000J0D01*
G01*
X107280000Y-73875000D01*
G75*
G02*
X107030000Y-73625000I0J250000D01*
G01*
G37*
%TD*%
M02*
