%TF.GenerationSoftware,KiCad,Pcbnew,(6.0.0-0)*%
%TF.CreationDate,2021-12-29T19:14:38+00:00*%
%TF.ProjectId,PN532,504e3533-322e-46b6-9963-61645f706362,7*%
%TF.SameCoordinates,Original*%
%TF.FileFunction,Copper,L1,Top*%
%TF.FilePolarity,Positive*%
%FSLAX46Y46*%
G04 Gerber Fmt 4.6, Leading zero omitted, Abs format (unit mm)*
G04 Created by KiCad (PCBNEW (6.0.0-0)) date 2021-12-29 19:14:38*
%MOMM*%
%LPD*%
G01*
G04 APERTURE LIST*
G04 Aperture macros list*
%AMRoundRect*
0 Rectangle with rounded corners*
0 $1 Rounding radius*
0 $2 $3 $4 $5 $6 $7 $8 $9 X,Y pos of 4 corners*
0 Add a 4 corners polygon primitive as box body*
4,1,4,$2,$3,$4,$5,$6,$7,$8,$9,$2,$3,0*
0 Add four circle primitives for the rounded corners*
1,1,$1+$1,$2,$3*
1,1,$1+$1,$4,$5*
1,1,$1+$1,$6,$7*
1,1,$1+$1,$8,$9*
0 Add four rect primitives between the rounded corners*
20,1,$1+$1,$2,$3,$4,$5,0*
20,1,$1+$1,$4,$5,$6,$7,0*
20,1,$1+$1,$6,$7,$8,$9,0*
20,1,$1+$1,$8,$9,$2,$3,0*%
%AMFreePoly0*
4,1,6,2.200000,-2.200000,-2.200000,-2.200000,-2.200000,1.800000,-1.800000,2.200000,2.200000,2.200000,2.200000,-2.200000,2.200000,-2.200000,$1*%
%AMFreePoly1*
4,1,20,0.000000,0.744959,0.073905,0.744508,0.209726,0.703889,0.328688,0.626782,0.421226,0.519385,0.479903,0.390333,0.500000,0.250000,0.500000,-0.250000,0.499851,-0.262216,0.476331,-0.402017,0.414519,-0.529596,0.319384,-0.634700,0.198574,-0.708877,0.061801,-0.746166,0.000000,-0.745033,0.000000,-0.750000,-0.550000,-0.750000,-0.550000,0.750000,0.000000,0.750000,0.000000,0.744959,
0.000000,0.744959,$1*%
%AMFreePoly2*
4,1,22,0.550000,-0.750000,0.000000,-0.750000,0.000000,-0.745033,-0.079941,-0.743568,-0.215256,-0.701293,-0.333266,-0.622738,-0.424486,-0.514219,-0.481581,-0.384460,-0.499164,-0.250000,-0.500000,-0.250000,-0.500000,0.250000,-0.499164,0.250000,-0.499963,0.256109,-0.478152,0.396186,-0.417904,0.524511,-0.324060,0.630769,-0.204165,0.706417,-0.067858,0.745374,0.000000,0.744959,0.000000,0.750000,
0.550000,0.750000,0.550000,-0.750000,0.550000,-0.750000,$1*%
G04 Aperture macros list end*
%ADD10C,0.100000*%
%TA.AperFunction,NonConductor*%
%ADD11C,0.100000*%
%TD*%
%TA.AperFunction,EtchedComponent*%
%ADD12C,0.500000*%
%TD*%
%TA.AperFunction,SMDPad,CuDef*%
%ADD13RoundRect,0.125000X0.625000X-0.125000X0.625000X0.125000X-0.625000X0.125000X-0.625000X-0.125000X0*%
%TD*%
%TA.AperFunction,SMDPad,CuDef*%
%ADD14R,1.400000X0.200000*%
%TD*%
%TA.AperFunction,SMDPad,CuDef*%
%ADD15R,0.200000X0.200000*%
%TD*%
%TA.AperFunction,SMDPad,CuDef*%
%ADD16R,0.200000X0.400000*%
%TD*%
%TA.AperFunction,SMDPad,CuDef*%
%ADD17R,0.200000X1.200000*%
%TD*%
%TA.AperFunction,SMDPad,CuDef*%
%ADD18R,0.600000X0.600000*%
%TD*%
%TA.AperFunction,SMDPad,CuDef*%
%ADD19R,0.400000X0.200000*%
%TD*%
%TA.AperFunction,SMDPad,CuDef*%
%ADD20R,0.200000X0.600000*%
%TD*%
%TA.AperFunction,SMDPad,CuDef*%
%ADD21R,1.000000X0.200000*%
%TD*%
%TA.AperFunction,SMDPad,CuDef*%
%ADD22R,0.600000X0.200000*%
%TD*%
%TA.AperFunction,SMDPad,CuDef*%
%ADD23R,0.800000X0.200000*%
%TD*%
%TA.AperFunction,SMDPad,CuDef*%
%ADD24R,0.400000X0.600000*%
%TD*%
%TA.AperFunction,SMDPad,CuDef*%
%ADD25R,0.200000X0.800000*%
%TD*%
%TA.AperFunction,SMDPad,CuDef*%
%ADD26RoundRect,0.062500X-0.062500X0.287500X-0.062500X-0.287500X0.062500X-0.287500X0.062500X0.287500X0*%
%TD*%
%TA.AperFunction,SMDPad,CuDef*%
%ADD27RoundRect,0.062500X-0.287500X0.062500X-0.287500X-0.062500X0.287500X-0.062500X0.287500X0.062500X0*%
%TD*%
%TA.AperFunction,SMDPad,CuDef*%
%ADD28FreePoly0,270.000000*%
%TD*%
%TA.AperFunction,ComponentPad*%
%ADD29C,0.350000*%
%TD*%
%TA.AperFunction,ComponentPad*%
%ADD30R,1.700000X1.700000*%
%TD*%
%TA.AperFunction,ComponentPad*%
%ADD31O,1.700000X1.700000*%
%TD*%
%TA.AperFunction,ComponentPad*%
%ADD32C,2.000000*%
%TD*%
%TA.AperFunction,SMDPad,CuDef*%
%ADD33R,1.300000X2.000000*%
%TD*%
%TA.AperFunction,ComponentPad*%
%ADD34C,0.600000*%
%TD*%
%TA.AperFunction,SMDPad,CuDef*%
%ADD35R,1.500000X0.500000*%
%TD*%
%TA.AperFunction,SMDPad,CuDef*%
%ADD36R,1.200000X0.500000*%
%TD*%
%TA.AperFunction,SMDPad,CuDef*%
%ADD37R,0.650000X0.400000*%
%TD*%
%TA.AperFunction,SMDPad,CuDef*%
%ADD38RoundRect,0.225000X-0.225000X-0.250000X0.225000X-0.250000X0.225000X0.250000X-0.225000X0.250000X0*%
%TD*%
%TA.AperFunction,SMDPad,CuDef*%
%ADD39RoundRect,0.225000X-0.250000X0.225000X-0.250000X-0.225000X0.250000X-0.225000X0.250000X0.225000X0*%
%TD*%
%TA.AperFunction,SMDPad,CuDef*%
%ADD40RoundRect,0.225000X0.250000X-0.225000X0.250000X0.225000X-0.250000X0.225000X-0.250000X-0.225000X0*%
%TD*%
%TA.AperFunction,SMDPad,CuDef*%
%ADD41RoundRect,0.200000X-0.275000X0.200000X-0.275000X-0.200000X0.275000X-0.200000X0.275000X0.200000X0*%
%TD*%
%TA.AperFunction,SMDPad,CuDef*%
%ADD42RoundRect,0.225000X0.225000X0.250000X-0.225000X0.250000X-0.225000X-0.250000X0.225000X-0.250000X0*%
%TD*%
%TA.AperFunction,SMDPad,CuDef*%
%ADD43RoundRect,0.200000X-0.200000X-0.275000X0.200000X-0.275000X0.200000X0.275000X-0.200000X0.275000X0*%
%TD*%
%TA.AperFunction,SMDPad,CuDef*%
%ADD44RoundRect,0.200000X0.200000X0.275000X-0.200000X0.275000X-0.200000X-0.275000X0.200000X-0.275000X0*%
%TD*%
%TA.AperFunction,SMDPad,CuDef*%
%ADD45RoundRect,0.200000X0.275000X-0.200000X0.275000X0.200000X-0.275000X0.200000X-0.275000X-0.200000X0*%
%TD*%
%TA.AperFunction,SMDPad,CuDef*%
%ADD46RoundRect,0.166600X-0.895763X-0.636396X-0.636396X-0.895763X0.895763X0.636396X0.636396X0.895763X0*%
%TD*%
%TA.AperFunction,SMDPad,CuDef*%
%ADD47RoundRect,0.242760X-0.699668X-0.321734X-0.321734X-0.699668X0.699668X0.321734X0.321734X0.699668X0*%
%TD*%
%TA.AperFunction,SMDPad,CuDef*%
%ADD48RoundRect,0.166600X0.636396X-0.895763X0.895763X-0.636396X-0.636396X0.895763X-0.895763X0.636396X0*%
%TD*%
%TA.AperFunction,SMDPad,CuDef*%
%ADD49RoundRect,0.242760X0.321734X-0.699668X0.699668X-0.321734X-0.321734X0.699668X-0.699668X0.321734X0*%
%TD*%
%TA.AperFunction,ComponentPad*%
%ADD50C,3.200000*%
%TD*%
%TA.AperFunction,ComponentPad*%
%ADD51C,1.200000*%
%TD*%
%TA.AperFunction,ComponentPad*%
%ADD52RoundRect,0.250000X-0.600000X-0.675000X0.600000X-0.675000X0.600000X0.675000X-0.600000X0.675000X0*%
%TD*%
%TA.AperFunction,ComponentPad*%
%ADD53O,1.700000X1.850000*%
%TD*%
%TA.AperFunction,SMDPad,CuDef*%
%ADD54FreePoly1,0.000000*%
%TD*%
%TA.AperFunction,SMDPad,CuDef*%
%ADD55R,1.000000X1.500000*%
%TD*%
%TA.AperFunction,SMDPad,CuDef*%
%ADD56FreePoly2,0.000000*%
%TD*%
%TA.AperFunction,SMDPad,CuDef*%
%ADD57R,1.150000X1.900000*%
%TD*%
%TA.AperFunction,ViaPad*%
%ADD58C,0.800000*%
%TD*%
%TA.AperFunction,Conductor*%
%ADD59C,0.500000*%
%TD*%
%TA.AperFunction,Conductor*%
%ADD60C,0.250000*%
%TD*%
G04 APERTURE END LIST*
D10*
D11*
X85085714Y-107728571D02*
X85114285Y-107700000D01*
X85171428Y-107671428D01*
X85314285Y-107671428D01*
X85371428Y-107700000D01*
X85400000Y-107728571D01*
X85428571Y-107785714D01*
X85428571Y-107842857D01*
X85400000Y-107928571D01*
X85057142Y-108271428D01*
X85428571Y-108271428D01*
X85800000Y-107671428D02*
X85857142Y-107671428D01*
X85914285Y-107700000D01*
X85942857Y-107728571D01*
X85971428Y-107785714D01*
X86000000Y-107900000D01*
X86000000Y-108042857D01*
X85971428Y-108157142D01*
X85942857Y-108214285D01*
X85914285Y-108242857D01*
X85857142Y-108271428D01*
X85800000Y-108271428D01*
X85742857Y-108242857D01*
X85714285Y-108214285D01*
X85685714Y-108157142D01*
X85657142Y-108042857D01*
X85657142Y-107900000D01*
X85685714Y-107785714D01*
X85714285Y-107728571D01*
X85742857Y-107700000D01*
X85800000Y-107671428D01*
X86228571Y-107728571D02*
X86257142Y-107700000D01*
X86314285Y-107671428D01*
X86457142Y-107671428D01*
X86514285Y-107700000D01*
X86542857Y-107728571D01*
X86571428Y-107785714D01*
X86571428Y-107842857D01*
X86542857Y-107928571D01*
X86200000Y-108271428D01*
X86571428Y-108271428D01*
X87142857Y-108271428D02*
X86800000Y-108271428D01*
X86971428Y-108271428D02*
X86971428Y-107671428D01*
X86914285Y-107757142D01*
X86857142Y-107814285D01*
X86800000Y-107842857D01*
X87400000Y-108042857D02*
X87857142Y-108042857D01*
X88257142Y-107671428D02*
X88314285Y-107671428D01*
X88371428Y-107700000D01*
X88400000Y-107728571D01*
X88428571Y-107785714D01*
X88457142Y-107900000D01*
X88457142Y-108042857D01*
X88428571Y-108157142D01*
X88400000Y-108214285D01*
X88371428Y-108242857D01*
X88314285Y-108271428D01*
X88257142Y-108271428D01*
X88200000Y-108242857D01*
X88171428Y-108214285D01*
X88142857Y-108157142D01*
X88114285Y-108042857D01*
X88114285Y-107900000D01*
X88142857Y-107785714D01*
X88171428Y-107728571D01*
X88200000Y-107700000D01*
X88257142Y-107671428D01*
X88657142Y-107671428D02*
X89057142Y-107671428D01*
X88800000Y-108271428D01*
X89285714Y-108042857D02*
X89742857Y-108042857D01*
X90000000Y-107728571D02*
X90028571Y-107700000D01*
X90085714Y-107671428D01*
X90228571Y-107671428D01*
X90285714Y-107700000D01*
X90314285Y-107728571D01*
X90342857Y-107785714D01*
X90342857Y-107842857D01*
X90314285Y-107928571D01*
X89971428Y-108271428D01*
X90342857Y-108271428D01*
X90857142Y-107871428D02*
X90857142Y-108271428D01*
X90714285Y-107642857D02*
X90571428Y-108071428D01*
X90942857Y-108071428D01*
D12*
%TO.C,A1*%
X88000000Y-119000000D02*
X112000000Y-119000000D01*
X88000000Y-118000000D02*
X112000000Y-118000000D01*
X118000000Y-88000000D02*
X118000000Y-112000000D01*
X87000000Y-83000000D02*
X97000000Y-83000000D01*
X82000000Y-112000000D02*
X82000000Y-88000000D01*
X119000000Y-88000000D02*
X119000000Y-112000000D01*
X87000000Y-82000000D02*
X112000000Y-82000000D01*
X81000000Y-112000000D02*
X81000000Y-88000000D01*
X100000000Y-81000000D02*
X112000000Y-81000000D01*
X119000000Y-88000000D02*
G75*
G03*
X112000000Y-81000000I-7000000J0D01*
G01*
X87000000Y-83000000D02*
G75*
G03*
X82000000Y-88000000I0J-5000000D01*
G01*
X87000000Y-82000000D02*
G75*
G03*
X81000000Y-88000000I0J-6000000D01*
G01*
X118000000Y-88000000D02*
G75*
G03*
X112000000Y-82000000I-6000000J0D01*
G01*
X112000000Y-118000000D02*
G75*
G03*
X118000000Y-112000000I0J6000000D01*
G01*
X112000000Y-119000000D02*
G75*
G03*
X119000000Y-112000000I0J7000000D01*
G01*
X81000000Y-112000000D02*
G75*
G03*
X88000000Y-119000000I7000000J0D01*
G01*
X82000000Y-112000000D02*
G75*
G03*
X88000000Y-118000000I6000000J0D01*
G01*
%TO.C,JP1*%
G36*
X94250000Y-105200000D02*
G01*
X93750000Y-105200000D01*
X93750000Y-104800000D01*
X94250000Y-104800000D01*
X94250000Y-105200000D01*
G37*
G36*
X94250000Y-106000000D02*
G01*
X93750000Y-106000000D01*
X93750000Y-105600000D01*
X94250000Y-105600000D01*
X94250000Y-106000000D01*
G37*
%TD*%
D13*
%TO.P,D3,1*%
%TO.N,GND*%
X112000000Y-88900000D03*
%TO.P,D3,2*%
%TO.N,Net-(D3-Pad2)*%
X112000000Y-87100000D03*
%TD*%
%TO.P,D1,1*%
%TO.N,GND*%
X112000000Y-100900000D03*
%TO.P,D1,2*%
%TO.N,Net-(D1-Pad2)*%
X112000000Y-99100000D03*
%TD*%
%TO.P,D2,1*%
%TO.N,GND*%
X112000000Y-94900000D03*
%TO.P,D2,2*%
%TO.N,Net-(D2-Pad2)*%
X112000000Y-93100000D03*
%TD*%
D14*
%TO.P,U3,*%
%TO.N,*%
X89400000Y-110000000D03*
D15*
X88000000Y-110000000D03*
D16*
X87600000Y-110100000D03*
D14*
X86600000Y-110000000D03*
D17*
X90000000Y-110700000D03*
X88800000Y-110700000D03*
D15*
X88200000Y-110200000D03*
D17*
X87200000Y-110700000D03*
X86000000Y-110700000D03*
D18*
X89400000Y-110600000D03*
D15*
X88400000Y-110400000D03*
D19*
X87900000Y-110400000D03*
D18*
X86600000Y-110600000D03*
D20*
X88200000Y-110800000D03*
D19*
X87700000Y-110600000D03*
D17*
X88000000Y-111500000D03*
D16*
X87600000Y-111100000D03*
D21*
X89400000Y-111200000D03*
D20*
X88400000Y-111400000D03*
D21*
X86600000Y-111200000D03*
D15*
X87800000Y-111400000D03*
D22*
X89800000Y-111600000D03*
D23*
X88900000Y-111600000D03*
D22*
X87400000Y-111600000D03*
D16*
X86400000Y-111700000D03*
D24*
X89900000Y-112000000D03*
D25*
X88600000Y-112100000D03*
D15*
X88200000Y-111800000D03*
X87800000Y-111800000D03*
D25*
X87200000Y-112100000D03*
D15*
X86600000Y-111800000D03*
D19*
X86100000Y-111800000D03*
X89500000Y-112000000D03*
D15*
X88800000Y-112000000D03*
D16*
X87600000Y-112100000D03*
D15*
X86800000Y-112000000D03*
D16*
X89600000Y-112300000D03*
X89200000Y-112300000D03*
D15*
X88400000Y-112200000D03*
X87400000Y-112200000D03*
D16*
X87000000Y-112300000D03*
D15*
X88800000Y-112400000D03*
D22*
X88000000Y-112400000D03*
D25*
X86000000Y-112700000D03*
D22*
X88200000Y-112600000D03*
D19*
X87500000Y-112600000D03*
D16*
X86800000Y-112700000D03*
D14*
X89400000Y-112800000D03*
D20*
X88400000Y-113000000D03*
D19*
X87700000Y-112800000D03*
D20*
X87000000Y-113000000D03*
D19*
X86500000Y-112800000D03*
D17*
X90000000Y-113500000D03*
X88800000Y-113500000D03*
D15*
X88200000Y-113000000D03*
X87800000Y-113000000D03*
D20*
X87400000Y-113200000D03*
D18*
X89400000Y-113400000D03*
D20*
X88000000Y-113400000D03*
D15*
X87200000Y-113200000D03*
X86800000Y-113200000D03*
X86400000Y-113200000D03*
X86200000Y-113400000D03*
D20*
X88400000Y-113800000D03*
X87800000Y-113800000D03*
D15*
X87000000Y-113600000D03*
D20*
X86000000Y-113800000D03*
D15*
X88200000Y-113800000D03*
D16*
X87600000Y-113900000D03*
X86600000Y-113900000D03*
D15*
X86200000Y-113800000D03*
D21*
X89400000Y-114000000D03*
D15*
X87000000Y-114000000D03*
%TD*%
D26*
%TO.P,U1,1*%
%TO.N,GND*%
X102250000Y-97100000D03*
%TO.P,U1,2*%
%TO.N,Net-(U1-Pad2)*%
X101750000Y-97100000D03*
%TO.P,U1,3*%
%TO.N,GND*%
X101250000Y-97100000D03*
%TO.P,U1,4*%
%TO.N,Net-(L1-Pad1)*%
X100750000Y-97100000D03*
%TO.P,U1,5*%
%TO.N,+3V3*%
X100250000Y-97100000D03*
%TO.P,U1,6*%
%TO.N,Net-(L2-Pad2)*%
X99750000Y-97100000D03*
%TO.P,U1,7*%
%TO.N,GND*%
X99250000Y-97100000D03*
%TO.P,U1,8*%
%TO.N,+3V3*%
X98750000Y-97100000D03*
%TO.P,U1,9*%
%TO.N,Net-(C10-Pad1)*%
X98250000Y-97100000D03*
%TO.P,U1,10*%
%TO.N,Net-(C8-Pad1)*%
X97750000Y-97100000D03*
D27*
%TO.P,U1,11*%
%TO.N,GND*%
X97100000Y-97750000D03*
%TO.P,U1,12*%
%TO.N,Net-(U1-Pad12)*%
X97100000Y-98250000D03*
%TO.P,U1,13*%
%TO.N,Net-(U1-Pad13)*%
X97100000Y-98750000D03*
%TO.P,U1,14*%
%TO.N,Net-(C15-Pad1)*%
X97100000Y-99250000D03*
%TO.P,U1,15*%
%TO.N,Net-(C16-Pad1)*%
X97100000Y-99750000D03*
%TO.P,U1,16*%
%TO.N,GND*%
X97100000Y-100250000D03*
%TO.P,U1,17*%
%TO.N,Net-(JP1-Pad2)*%
X97100000Y-100750000D03*
%TO.P,U1,18*%
%TO.N,GND*%
X97100000Y-101250000D03*
%TO.P,U1,19*%
%TO.N,Net-(U1-Pad19)*%
X97100000Y-101750000D03*
%TO.P,U1,20*%
%TO.N,Net-(U1-Pad20)*%
X97100000Y-102250000D03*
D26*
%TO.P,U1,21*%
%TO.N,Net-(U1-Pad21)*%
X97750000Y-102900000D03*
%TO.P,U1,22*%
%TO.N,Net-(U1-Pad22)*%
X98250000Y-102900000D03*
%TO.P,U1,23*%
%TO.N,+3V3*%
X98750000Y-102900000D03*
%TO.P,U1,24*%
%TO.N,Net-(R10-Pad2)*%
X99250000Y-102900000D03*
%TO.P,U1,25*%
%TO.N,Net-(U1-Pad25)*%
X99750000Y-102900000D03*
%TO.P,U1,26*%
%TO.N,Net-(U1-Pad26)*%
X100250000Y-102900000D03*
%TO.P,U1,27*%
%TO.N,Net-(C19-Pad1)*%
X100750000Y-102900000D03*
%TO.P,U1,28*%
%TO.N,Net-(D6-Pad6)*%
X101250000Y-102900000D03*
%TO.P,U1,29*%
%TO.N,Net-(U1-Pad29)*%
X101750000Y-102900000D03*
%TO.P,U1,30*%
%TO.N,Net-(D5-Pad3)*%
X102250000Y-102900000D03*
D27*
%TO.P,U1,31*%
%TO.N,Net-(R7-Pad1)*%
X102900000Y-102250000D03*
%TO.P,U1,32*%
%TO.N,Net-(R8-Pad1)*%
X102900000Y-101750000D03*
%TO.P,U1,33*%
%TO.N,Net-(R9-Pad1)*%
X102900000Y-101250000D03*
%TO.P,U1,34*%
%TO.N,Net-(U1-Pad34)*%
X102900000Y-100750000D03*
%TO.P,U1,35*%
%TO.N,Net-(U1-Pad35)*%
X102900000Y-100250000D03*
%TO.P,U1,36*%
%TO.N,Net-(U1-Pad36)*%
X102900000Y-99750000D03*
%TO.P,U1,37*%
%TO.N,Net-(U1-Pad37)*%
X102900000Y-99250000D03*
%TO.P,U1,38*%
%TO.N,Net-(R5-Pad1)*%
X102900000Y-98750000D03*
%TO.P,U1,39*%
%TO.N,+3V3*%
X102900000Y-98250000D03*
%TO.P,U1,40*%
%TO.N,+5V*%
X102900000Y-97750000D03*
D28*
%TO.P,U1,41*%
%TO.N,GND*%
X100000000Y-100000000D03*
D29*
X99000000Y-99000000D03*
X100000000Y-100000000D03*
X99000000Y-101000000D03*
X101000000Y-101000000D03*
X101000000Y-99000000D03*
%TD*%
D30*
%TO.P,J1,1*%
%TO.N,GND*%
X112000000Y-107270000D03*
D31*
%TO.P,J1,2*%
%TO.N,Net-(J1-Pad2)*%
X112000000Y-104730000D03*
%TD*%
D32*
%TO.P,SW1,1*%
%TO.N,GND*%
X90750000Y-103250000D03*
X90750000Y-96750000D03*
D33*
X90750000Y-104200000D03*
X90750000Y-95800000D03*
D32*
%TO.P,SW1,2*%
%TO.N,Net-(R10-Pad2)*%
X86250000Y-96750000D03*
D33*
X86250000Y-104200000D03*
D32*
X86250000Y-103250000D03*
D33*
X86250000Y-95800000D03*
%TD*%
D34*
%TO.P,A1,~*%
%TO.N,N/C*%
X100000000Y-81000000D03*
%TO.P,A1,1*%
%TO.N,Net-(A1-Pad1)*%
X102000000Y-83000000D03*
%TO.P,A1,3*%
%TO.N,Net-(A1-Pad3)*%
X98000000Y-83000000D03*
D35*
%TO.P,A1,~*%
%TO.N,N/C*%
X100000000Y-81000000D03*
%TO.P,A1,2*%
%TO.N,GND*%
X100000000Y-83000000D03*
D36*
%TO.P,A1,3*%
%TO.N,Net-(A1-Pad3)*%
X97500000Y-83000000D03*
%TD*%
D37*
%TO.P,D6,1*%
%TO.N,GND*%
X109950000Y-106950000D03*
%TO.P,D6,2*%
%TO.N,+3V3*%
X109950000Y-106300000D03*
%TO.P,D6,3*%
%TO.N,Net-(C19-Pad1)*%
X109950000Y-105650000D03*
%TO.P,D6,4*%
%TO.N,GND*%
X108050000Y-105650000D03*
%TO.P,D6,5*%
%TO.N,+3V3*%
X108050000Y-106300000D03*
%TO.P,D6,6*%
%TO.N,Net-(D6-Pad6)*%
X108050000Y-106950000D03*
%TD*%
%TO.P,D5,1*%
%TO.N,GND*%
X108050000Y-103050000D03*
%TO.P,D5,2*%
%TO.N,+3V3*%
X108050000Y-103700000D03*
%TO.P,D5,3*%
%TO.N,Net-(D5-Pad3)*%
X108050000Y-104350000D03*
%TO.P,D5,4*%
%TO.N,GND*%
X109950000Y-104350000D03*
%TO.P,D5,5*%
%TO.N,+3V3*%
X109950000Y-103700000D03*
%TO.P,D5,6*%
%TO.N,Net-(D1-Pad2)*%
X109950000Y-103050000D03*
%TD*%
%TO.P,D4,1*%
%TO.N,GND*%
X108050000Y-93250000D03*
%TO.P,D4,2*%
%TO.N,+3V3*%
X108050000Y-93900000D03*
%TO.P,D4,3*%
%TO.N,Net-(D3-Pad2)*%
X108050000Y-94550000D03*
%TO.P,D4,4*%
%TO.N,GND*%
X109950000Y-94550000D03*
%TO.P,D4,5*%
%TO.N,+3V3*%
X109950000Y-93900000D03*
%TO.P,D4,6*%
%TO.N,Net-(D2-Pad2)*%
X109950000Y-93250000D03*
%TD*%
D38*
%TO.P,C19,1*%
%TO.N,Net-(C19-Pad1)*%
X108225000Y-108200000D03*
%TO.P,C19,2*%
%TO.N,GND*%
X109775000Y-108200000D03*
%TD*%
D39*
%TO.P,C4,1*%
%TO.N,Net-(C2-Pad2)*%
X96200000Y-86725000D03*
%TO.P,C4,2*%
%TO.N,Net-(C4-Pad2)*%
X96200000Y-88275000D03*
%TD*%
D40*
%TO.P,C3,1*%
%TO.N,Net-(C3-Pad1)*%
X103800000Y-88275000D03*
%TO.P,C3,2*%
%TO.N,Net-(C1-Pad1)*%
X103800000Y-86725000D03*
%TD*%
D41*
%TO.P,R14,1*%
%TO.N,Net-(D5-Pad3)*%
X105600000Y-104325000D03*
%TO.P,R14,2*%
%TO.N,Net-(J1-Pad2)*%
X105600000Y-105975000D03*
%TD*%
D42*
%TO.P,C2,1*%
%TO.N,GND*%
X99075000Y-84925000D03*
X99075000Y-86125000D03*
%TO.P,C2,2*%
%TO.N,Net-(C2-Pad2)*%
X97525000Y-86125000D03*
X97525000Y-84925000D03*
%TD*%
%TO.P,C1,1*%
%TO.N,Net-(C1-Pad1)*%
X102475000Y-84925000D03*
X102475000Y-86125000D03*
%TO.P,C1,2*%
%TO.N,GND*%
X100925000Y-86125000D03*
X100925000Y-84925000D03*
%TD*%
D43*
%TO.P,R13,1*%
%TO.N,Net-(J2-Pad3)*%
X100825000Y-105900000D03*
%TO.P,R13,2*%
%TO.N,Net-(D6-Pad6)*%
X102475000Y-105900000D03*
%TD*%
D44*
%TO.P,R12,1*%
%TO.N,Net-(J2-Pad4)*%
X102475000Y-104400000D03*
%TO.P,R12,2*%
%TO.N,Net-(C19-Pad1)*%
X100825000Y-104400000D03*
%TD*%
D45*
%TO.P,R11,1*%
%TO.N,+3V3*%
X104000000Y-105975000D03*
%TO.P,R11,2*%
%TO.N,Net-(D5-Pad3)*%
X104000000Y-104325000D03*
%TD*%
%TO.P,R10,1*%
%TO.N,+3V3*%
X99300000Y-105975000D03*
%TO.P,R10,2*%
%TO.N,Net-(R10-Pad2)*%
X99300000Y-104325000D03*
%TD*%
D43*
%TO.P,R9,1*%
%TO.N,Net-(R9-Pad1)*%
X108175000Y-98800000D03*
%TO.P,R9,2*%
%TO.N,Net-(D3-Pad2)*%
X109825000Y-98800000D03*
%TD*%
%TO.P,R8,1*%
%TO.N,Net-(R8-Pad1)*%
X108175000Y-100300000D03*
%TO.P,R8,2*%
%TO.N,Net-(D2-Pad2)*%
X109825000Y-100300000D03*
%TD*%
%TO.P,R7,1*%
%TO.N,Net-(R7-Pad1)*%
X108175000Y-101800000D03*
%TO.P,R7,2*%
%TO.N,Net-(D1-Pad2)*%
X109825000Y-101800000D03*
%TD*%
%TO.P,R6,1*%
%TO.N,Net-(R5-Pad1)*%
X108175000Y-97300000D03*
%TO.P,R6,2*%
%TO.N,GND*%
X109825000Y-97300000D03*
%TD*%
%TO.P,R5,1*%
%TO.N,Net-(R5-Pad1)*%
X108175000Y-95800000D03*
%TO.P,R5,2*%
%TO.N,+5V*%
X109825000Y-95800000D03*
%TD*%
%TO.P,R4,1*%
%TO.N,Net-(C8-Pad1)*%
X93075000Y-92100000D03*
%TO.P,R4,2*%
%TO.N,Net-(C10-Pad1)*%
X94725000Y-92100000D03*
%TD*%
%TO.P,R3,1*%
%TO.N,Net-(C8-Pad2)*%
X93075000Y-88250000D03*
%TO.P,R3,2*%
%TO.N,Net-(C4-Pad2)*%
X94725000Y-88250000D03*
%TD*%
D45*
%TO.P,R2,1*%
%TO.N,Net-(C2-Pad2)*%
X96200000Y-85575000D03*
%TO.P,R2,2*%
%TO.N,Net-(A1-Pad3)*%
X96200000Y-83925000D03*
%TD*%
%TO.P,R1,1*%
%TO.N,Net-(C1-Pad1)*%
X103800000Y-85575000D03*
%TO.P,R1,2*%
%TO.N,Net-(A1-Pad1)*%
X103800000Y-83925000D03*
%TD*%
D42*
%TO.P,C18,1*%
%TO.N,+3V3*%
X94675000Y-95350000D03*
%TO.P,C18,2*%
%TO.N,GND*%
X93125000Y-95350000D03*
%TD*%
D40*
%TO.P,C17,1*%
%TO.N,+3V3*%
X97700000Y-105925000D03*
%TO.P,C17,2*%
%TO.N,GND*%
X97700000Y-104375000D03*
%TD*%
D42*
%TO.P,C16,1*%
%TO.N,Net-(C16-Pad1)*%
X94775000Y-102500000D03*
%TO.P,C16,2*%
%TO.N,GND*%
X93225000Y-102500000D03*
%TD*%
D38*
%TO.P,C15,1*%
%TO.N,Net-(C15-Pad1)*%
X93225000Y-97500000D03*
%TO.P,C15,2*%
%TO.N,GND*%
X94775000Y-97500000D03*
%TD*%
%TO.P,C14,1*%
%TO.N,+5V*%
X104725000Y-97300000D03*
%TO.P,C14,2*%
%TO.N,GND*%
X106275000Y-97300000D03*
%TD*%
D39*
%TO.P,C13,1*%
%TO.N,+3V3*%
X106250000Y-98825000D03*
%TO.P,C13,2*%
%TO.N,GND*%
X106250000Y-100375000D03*
%TD*%
%TO.P,C12,1*%
%TO.N,+3V3*%
X104750000Y-98825000D03*
%TO.P,C12,2*%
%TO.N,GND*%
X104750000Y-100375000D03*
%TD*%
D42*
%TO.P,C11,1*%
%TO.N,+3V3*%
X98850000Y-95350000D03*
%TO.P,C11,2*%
%TO.N,GND*%
X97300000Y-95350000D03*
%TD*%
%TO.P,C10,1*%
%TO.N,Net-(C10-Pad1)*%
X96375000Y-93850000D03*
%TO.P,C10,2*%
%TO.N,GND*%
X94825000Y-93850000D03*
%TD*%
D38*
%TO.P,C9,1*%
%TO.N,+3V3*%
X100425000Y-93850000D03*
%TO.P,C9,2*%
%TO.N,GND*%
X101975000Y-93850000D03*
%TD*%
D40*
%TO.P,C8,1*%
%TO.N,Net-(C8-Pad1)*%
X93100000Y-90975000D03*
%TO.P,C8,2*%
%TO.N,Net-(C8-Pad2)*%
X93100000Y-89425000D03*
%TD*%
D38*
%TO.P,C7,1*%
%TO.N,+3V3*%
X100425000Y-95350000D03*
%TO.P,C7,2*%
%TO.N,GND*%
X101975000Y-95350000D03*
%TD*%
D42*
%TO.P,C6,1*%
%TO.N,GND*%
X99075000Y-88250000D03*
%TO.P,C6,2*%
%TO.N,Net-(C4-Pad2)*%
X97525000Y-88250000D03*
%TD*%
D38*
%TO.P,C5,1*%
%TO.N,GND*%
X100925000Y-88250000D03*
%TO.P,C5,2*%
%TO.N,Net-(C3-Pad1)*%
X102475000Y-88250000D03*
%TD*%
D46*
%TO.P,L2,1*%
%TO.N,Net-(C4-Pad2)*%
X96042893Y-90292893D03*
D47*
X95760051Y-90010051D03*
%TO.P,L2,2*%
%TO.N,Net-(L2-Pad2)*%
X97739949Y-91989949D03*
D46*
X97457107Y-91707107D03*
%TD*%
D48*
%TO.P,L1,1*%
%TO.N,Net-(L1-Pad1)*%
X102542893Y-91707107D03*
D49*
X102260051Y-91989949D03*
%TO.P,L1,2*%
%TO.N,Net-(C3-Pad1)*%
X104239949Y-90010051D03*
D48*
X103957107Y-90292893D03*
%TD*%
D50*
%TO.P,H2,1*%
%TO.N,N/C*%
X88000000Y-88000000D03*
%TD*%
%TO.P,H1,1*%
%TO.N,N/C*%
X112000000Y-112000000D03*
%TD*%
D51*
%TO.P,TP1,1*%
%TO.N,Net-(L1-Pad1)*%
X101250000Y-92400000D03*
%TO.P,TP1,2*%
%TO.N,Net-(L2-Pad2)*%
X98750000Y-92400000D03*
%TD*%
D52*
%TO.P,J3,1*%
%TO.N,GND*%
X96250000Y-108900000D03*
D53*
%TO.P,J3,2*%
%TO.N,+5V*%
X98750000Y-108900000D03*
%TO.P,J3,3*%
%TO.N,Net-(J2-Pad3)*%
X101250000Y-108900000D03*
%TO.P,J3,4*%
%TO.N,Net-(J2-Pad4)*%
X103750000Y-108900000D03*
%TD*%
D54*
%TO.P,JP1,3*%
%TO.N,+3V3*%
X95950000Y-105400000D03*
D55*
%TO.P,JP1,2*%
%TO.N,Net-(JP1-Pad2)*%
X94650000Y-105400000D03*
D56*
%TO.P,JP1,1*%
%TO.N,GND*%
X93350000Y-105400000D03*
%TD*%
D30*
%TO.P,J2,1*%
%TO.N,GND*%
X96190000Y-112000000D03*
D31*
%TO.P,J2,2*%
%TO.N,+5V*%
X98730000Y-112000000D03*
%TO.P,J2,3*%
%TO.N,Net-(J2-Pad3)*%
X101270000Y-112000000D03*
%TO.P,J2,4*%
%TO.N,Net-(J2-Pad4)*%
X103810000Y-112000000D03*
%TD*%
D57*
%TO.P,Y1,1*%
%TO.N,Net-(C15-Pad1)*%
X93200000Y-98650000D03*
%TO.P,Y1,2*%
%TO.N,GND*%
X93200000Y-101350000D03*
%TO.P,Y1,3*%
%TO.N,Net-(C16-Pad1)*%
X94800000Y-101350000D03*
%TO.P,Y1,4*%
%TO.N,GND*%
X94800000Y-98650000D03*
%TD*%
D58*
%TO.N,GND*%
X100000000Y-91500000D03*
X103050000Y-93850000D03*
X103050000Y-95350000D03*
X96450000Y-95350000D03*
X93225000Y-103575000D03*
X93125000Y-93850000D03*
X94400000Y-103600000D03*
X96300000Y-103600000D03*
X106200000Y-96000000D03*
X109000000Y-102974990D03*
X109000000Y-105500000D03*
X109000000Y-107100000D03*
X95003161Y-96622158D03*
X106238430Y-101438430D03*
X112000000Y-89600000D03*
X112000000Y-101600000D03*
X112000000Y-95600000D03*
X110642980Y-97631700D03*
%TO.N,+3V3*%
X91500000Y-106000000D03*
X97700000Y-93600000D03*
X99151497Y-93600000D03*
X93800000Y-96500000D03*
X106246541Y-107243575D03*
X107189453Y-96509732D03*
X107124997Y-94740321D03*
X107238947Y-103740856D03*
%TO.N,+5V*%
X104725000Y-96225000D03*
X105903346Y-93571334D03*
X110688884Y-96374744D03*
%TO.N,Net-(D1-Pad2)*%
X110900000Y-101900000D03*
X112000000Y-98400000D03*
%TO.N,Net-(D2-Pad2)*%
X112000000Y-92400000D03*
X112000000Y-97300000D03*
%TO.N,Net-(D3-Pad2)*%
X108900000Y-94600000D03*
X112000000Y-86400000D03*
%TO.N,Net-(J1-Pad2)*%
X106700000Y-105200000D03*
%TO.N,Net-(J2-Pad4)*%
X105263126Y-107425011D03*
%TD*%
D59*
%TO.N,GND*%
X94775000Y-98625000D02*
X94800000Y-98650000D01*
X94775000Y-97500000D02*
X94775000Y-98625000D01*
X93225000Y-101375000D02*
X93200000Y-101350000D01*
X93225000Y-102500000D02*
X93225000Y-101375000D01*
D60*
X109925000Y-97300000D02*
X109925000Y-97125000D01*
D59*
X104750000Y-100375000D02*
X106250000Y-100375000D01*
X109925000Y-97300000D02*
X109970000Y-97300000D01*
D60*
X99250000Y-98750000D02*
X99000000Y-99000000D01*
X99250000Y-96975000D02*
X99250000Y-98750000D01*
D59*
X96250000Y-111940000D02*
X96190000Y-112000000D01*
X96250000Y-108900000D02*
X96250000Y-111940000D01*
D60*
X97800010Y-97800010D02*
X99000000Y-99000000D01*
X97526988Y-97800010D02*
X97800010Y-97800010D01*
X97476978Y-97750000D02*
X97526988Y-97800010D01*
X96975000Y-97750000D02*
X97476978Y-97750000D01*
X98250000Y-100250000D02*
X99000000Y-101000000D01*
X96975000Y-100250000D02*
X98250000Y-100250000D01*
X98750000Y-101250000D02*
X99000000Y-101000000D01*
X96975000Y-101250000D02*
X98750000Y-101250000D01*
X101250000Y-98750000D02*
X101000000Y-99000000D01*
X101250000Y-96975000D02*
X101250000Y-98750000D01*
X102199990Y-97800010D02*
X101000000Y-99000000D01*
X102199990Y-97526988D02*
X102199990Y-97800010D01*
X102250000Y-97476978D02*
X102199990Y-97526988D01*
X102250000Y-96975000D02*
X102250000Y-97476978D01*
D59*
X101975000Y-93850000D02*
X103050000Y-93850000D01*
X101975000Y-95350000D02*
X103050000Y-95350000D01*
X97300000Y-95350000D02*
X96450000Y-95350000D01*
X93225000Y-102500000D02*
X93225000Y-103575000D01*
X106275000Y-97300000D02*
X106275000Y-96225000D01*
D60*
X90750000Y-96750000D02*
X90750000Y-103250000D01*
X93350000Y-104650000D02*
X94400000Y-103600000D01*
X93350000Y-105400000D02*
X93350000Y-104650000D01*
X97075000Y-104375000D02*
X96300000Y-103600000D01*
X97700000Y-104375000D02*
X97075000Y-104375000D01*
X106275000Y-96075000D02*
X106200000Y-96000000D01*
X106275000Y-96225000D02*
X106275000Y-96075000D01*
D59*
X99075000Y-85525000D02*
X99875000Y-85525000D01*
X99075000Y-84925000D02*
X99075000Y-85525000D01*
X99875000Y-85525000D02*
X100000000Y-85400000D01*
X99075000Y-85525000D02*
X99075000Y-86125000D01*
X100125000Y-85525000D02*
X100000000Y-85400000D01*
X100925000Y-85525000D02*
X100125000Y-85525000D01*
X100925000Y-84925000D02*
X100925000Y-85525000D01*
X100925000Y-85525000D02*
X100925000Y-86125000D01*
X99075000Y-88250000D02*
X99950000Y-88250000D01*
X100925000Y-88250000D02*
X99950000Y-88250000D01*
D60*
X108850000Y-105650000D02*
X109000000Y-105500000D01*
X108050000Y-105650000D02*
X108850000Y-105650000D01*
X109150000Y-106950000D02*
X109000000Y-107100000D01*
X109950000Y-106950000D02*
X109150000Y-106950000D01*
X108924990Y-103050000D02*
X109000000Y-102974990D01*
X108050000Y-103050000D02*
X108924990Y-103050000D01*
X109256885Y-104350000D02*
X109000000Y-104606885D01*
X109950000Y-104350000D02*
X109256885Y-104350000D01*
X109000000Y-104606885D02*
X109000000Y-105500000D01*
X109825000Y-97300000D02*
X109970000Y-97300000D01*
X109950000Y-104350000D02*
X110525000Y-104350000D01*
X109000000Y-107425000D02*
X109775000Y-108200000D01*
X109000000Y-107100000D02*
X109000000Y-107425000D01*
D59*
X94775000Y-96850319D02*
X95003161Y-96622158D01*
X94775000Y-97500000D02*
X94775000Y-96850319D01*
X106250000Y-101426860D02*
X106238430Y-101438430D01*
X106250000Y-100375000D02*
X106250000Y-101426860D01*
X100000000Y-83000000D02*
X100000000Y-88900000D01*
X100000000Y-88900000D02*
X100000000Y-91500000D01*
X94825000Y-93850000D02*
X93125000Y-93850000D01*
X93125000Y-95350000D02*
X93125000Y-93850000D01*
D60*
X112000000Y-102875000D02*
X112000000Y-102400000D01*
X110525000Y-104350000D02*
X112000000Y-102875000D01*
X107589998Y-93250000D02*
X108050000Y-93250000D01*
X106200000Y-96000000D02*
X106200000Y-94639998D01*
X106200000Y-94639998D02*
X107589998Y-93250000D01*
X112000000Y-102400000D02*
X112000000Y-100950010D01*
X108950000Y-93250000D02*
X112000000Y-90200000D01*
X108050000Y-93250000D02*
X108950000Y-93250000D01*
X112000000Y-90200000D02*
X112000000Y-89700000D01*
X112000000Y-89700000D02*
X112000000Y-88950010D01*
X111525001Y-96648001D02*
X111525001Y-95951999D01*
X110873002Y-97300000D02*
X111525001Y-96648001D01*
X112000000Y-95600000D02*
X112000000Y-94950010D01*
X111525001Y-95951999D02*
X111525001Y-95825001D01*
X110250000Y-94550000D02*
X109950000Y-94550000D01*
X111525001Y-95825001D02*
X110250000Y-94550000D01*
X111750002Y-95600000D02*
X111525001Y-95825001D01*
X112000000Y-95600000D02*
X111750002Y-95600000D01*
X110642980Y-97342980D02*
X110600000Y-97300000D01*
X110642980Y-97631700D02*
X110642980Y-97342980D01*
X110600000Y-97300000D02*
X110873002Y-97300000D01*
X109825000Y-97300000D02*
X110600000Y-97300000D01*
D59*
%TO.N,Net-(A1-Pad1)*%
X103800000Y-83925000D02*
X102425000Y-83925000D01*
X102000000Y-83500000D02*
X102000000Y-83000000D01*
X102425000Y-83925000D02*
X102000000Y-83500000D01*
%TO.N,Net-(A1-Pad3)*%
X96200000Y-83925000D02*
X97575000Y-83925000D01*
X98000000Y-83500000D02*
X98000000Y-83000000D01*
X97575000Y-83925000D02*
X98000000Y-83500000D01*
%TO.N,Net-(C3-Pad1)*%
X102500000Y-88275000D02*
X102475000Y-88250000D01*
X103800000Y-88275000D02*
X102300000Y-88275000D01*
X103800000Y-89570102D02*
X104239949Y-90010051D01*
X103800000Y-88275000D02*
X103800000Y-89570102D01*
%TO.N,Net-(C4-Pad2)*%
X96175000Y-88250000D02*
X96200000Y-88275000D01*
X94725000Y-88250000D02*
X96175000Y-88250000D01*
X96225000Y-88250000D02*
X96200000Y-88275000D01*
X97525000Y-88250000D02*
X96225000Y-88250000D01*
X96200000Y-89570102D02*
X95760051Y-90010051D01*
X96200000Y-88275000D02*
X96200000Y-89570102D01*
D60*
%TO.N,+3V3*%
X100100000Y-95675000D02*
X100425000Y-95350000D01*
X100425000Y-93850000D02*
X100425000Y-95350000D01*
X104175000Y-98250000D02*
X104750000Y-98825000D01*
X103025000Y-98250000D02*
X104175000Y-98250000D01*
X104750000Y-98825000D02*
X106250000Y-98825000D01*
X99300000Y-106025000D02*
X99275000Y-106025000D01*
X98750000Y-95450000D02*
X98850000Y-95350000D01*
X98750000Y-96975000D02*
X98750000Y-95450000D01*
X100250000Y-95525000D02*
X100425000Y-95350000D01*
X100250000Y-96975000D02*
X100250000Y-95525000D01*
X97700000Y-93600000D02*
X97700000Y-93860732D01*
X97700000Y-93860732D02*
X98850000Y-95010732D01*
X98850000Y-95010732D02*
X98850000Y-95350000D01*
X94675000Y-95625000D02*
X93800000Y-96500000D01*
X94675000Y-95350000D02*
X94675000Y-95625000D01*
X93685036Y-96614964D02*
X93800000Y-96500000D01*
X92814964Y-96614964D02*
X93685036Y-96614964D01*
X92138736Y-97291192D02*
X92814964Y-96614964D01*
X91800000Y-104900000D02*
X92138736Y-104561264D01*
X92138736Y-104561264D02*
X92138736Y-97291192D01*
X92175010Y-106475010D02*
X91800000Y-106100000D01*
X98750000Y-103025000D02*
X98750000Y-103657522D01*
X98750000Y-103657522D02*
X98503761Y-103903761D01*
X98503761Y-103903761D02*
X98500000Y-103907522D01*
X99250000Y-105925000D02*
X99300000Y-105975000D01*
X98503761Y-103903761D02*
X98499990Y-103907532D01*
X98499990Y-103907532D02*
X98499990Y-104099990D01*
X98499990Y-104099990D02*
X98500000Y-104100000D01*
X98500000Y-104100000D02*
X98500000Y-105900000D01*
X98500000Y-105900000D02*
X98525000Y-105925000D01*
X98525000Y-105925000D02*
X99250000Y-105925000D01*
X97700000Y-105925000D02*
X98525000Y-105925000D01*
X97175000Y-105400000D02*
X97700000Y-105925000D01*
X95950000Y-105400000D02*
X97175000Y-105400000D01*
X95622582Y-106475010D02*
X95225010Y-106475010D01*
X95225010Y-106475010D02*
X92175010Y-106475010D01*
X95722582Y-106475010D02*
X95225010Y-106475010D01*
X95950000Y-106247592D02*
X95722582Y-106475010D01*
X95950000Y-105400000D02*
X95950000Y-106247592D01*
X105702976Y-106700010D02*
X106246541Y-107243575D01*
X104725010Y-106700010D02*
X105702976Y-106700010D01*
X104000000Y-105975000D02*
X104725010Y-106700010D01*
X108050000Y-103700000D02*
X109950000Y-103700000D01*
X108050000Y-106300000D02*
X109950000Y-106300000D01*
X107190116Y-106300000D02*
X108050000Y-106300000D01*
X106246541Y-107243575D02*
X107190116Y-106300000D01*
X109924998Y-93925002D02*
X109950000Y-93900000D01*
X108050000Y-93900000D02*
X108075002Y-93925002D01*
X107050010Y-98024990D02*
X106250000Y-98825000D01*
X107050010Y-96649175D02*
X107050010Y-98024990D01*
X107189453Y-96509732D02*
X107050010Y-96649175D01*
X99401497Y-93850000D02*
X99151497Y-93600000D01*
X100425000Y-93850000D02*
X99401497Y-93850000D01*
X91750000Y-106000000D02*
X91800000Y-105950000D01*
X91500000Y-106000000D02*
X91750000Y-106000000D01*
X91800000Y-105950000D02*
X91800000Y-104900000D01*
X91800000Y-106100000D02*
X91800000Y-105950000D01*
X107576408Y-93900000D02*
X107124997Y-94351411D01*
X107124997Y-94351411D02*
X107124997Y-94740321D01*
X108050000Y-93900000D02*
X107576408Y-93900000D01*
X108050000Y-93900000D02*
X108075002Y-93874998D01*
X109924998Y-93874998D02*
X109950000Y-93900000D01*
X108075002Y-93874998D02*
X109924998Y-93874998D01*
X108050000Y-103700000D02*
X107279803Y-103700000D01*
X107279803Y-103700000D02*
X107238947Y-103740856D01*
D59*
%TO.N,Net-(C8-Pad2)*%
X93075000Y-89400000D02*
X93100000Y-89425000D01*
X93075000Y-88250000D02*
X93075000Y-89400000D01*
%TO.N,Net-(C8-Pad1)*%
X93100000Y-92075000D02*
X93075000Y-92100000D01*
X93100000Y-90975000D02*
X93100000Y-92075000D01*
D60*
X97750000Y-96975000D02*
X97750000Y-96475000D01*
X97750000Y-96475000D02*
X97719999Y-96444999D01*
X97719999Y-96444999D02*
X95971995Y-96444999D01*
X95971995Y-96444999D02*
X95600000Y-96073004D01*
X94024990Y-93049990D02*
X93075000Y-92100000D01*
X95600000Y-96073004D02*
X95600000Y-93336410D01*
X95600000Y-93336410D02*
X95313580Y-93049990D01*
X95313580Y-93049990D02*
X94024990Y-93049990D01*
%TO.N,+5V*%
X104275000Y-97750000D02*
X104725000Y-97300000D01*
X103025000Y-97750000D02*
X104275000Y-97750000D01*
D59*
X98750000Y-111980000D02*
X98730000Y-112000000D01*
X98750000Y-108900000D02*
X98750000Y-111980000D01*
X104725000Y-97300000D02*
X104725000Y-96225000D01*
D60*
X104725000Y-96225000D02*
X104725000Y-94749680D01*
X104725000Y-94749680D02*
X105903346Y-93571334D01*
X110114140Y-95800000D02*
X110688884Y-96374744D01*
X109825000Y-95800000D02*
X110114140Y-95800000D01*
D59*
%TO.N,Net-(C15-Pad1)*%
X93225000Y-98625000D02*
X93200000Y-98650000D01*
X93225000Y-97500000D02*
X93225000Y-98625000D01*
D60*
X93200000Y-99850000D02*
X93200000Y-98650000D01*
X96290568Y-99250000D02*
X95615567Y-99925001D01*
X95615567Y-99925001D02*
X93275001Y-99925001D01*
X96975000Y-99250000D02*
X96290568Y-99250000D01*
X93275001Y-99925001D02*
X93200000Y-99850000D01*
D59*
%TO.N,Net-(C16-Pad1)*%
X94775000Y-101375000D02*
X94800000Y-101350000D01*
X94775000Y-102500000D02*
X94775000Y-101375000D01*
D60*
X96426978Y-99750000D02*
X94826978Y-101350000D01*
X96975000Y-99750000D02*
X96426978Y-99750000D01*
X94826978Y-101350000D02*
X94800000Y-101350000D01*
%TO.N,Net-(L2-Pad2)*%
X99080651Y-94327817D02*
X98803496Y-94327817D01*
X99649990Y-96049990D02*
X99649990Y-94897156D01*
X99750000Y-96975000D02*
X99750000Y-96150000D01*
X99750000Y-96150000D02*
X99649990Y-96049990D01*
X99649990Y-94897156D02*
X99080651Y-94327817D01*
X98803496Y-94327817D02*
X98425001Y-93949322D01*
D59*
X98150000Y-92400000D02*
X97739949Y-91989949D01*
X98750000Y-92400000D02*
X98150000Y-92400000D01*
D60*
X98425001Y-93949322D02*
X98425001Y-92974999D01*
X98750000Y-92650000D02*
X98750000Y-92400000D01*
X98425001Y-92974999D02*
X98750000Y-92650000D01*
%TO.N,Net-(L1-Pad1)*%
X100750000Y-96426978D02*
X100750000Y-96975000D01*
X101200000Y-95976978D02*
X100750000Y-96426978D01*
X101200000Y-95976978D02*
X101200000Y-92450000D01*
D59*
X101850000Y-92400000D02*
X102260051Y-91989949D01*
X101250000Y-92400000D02*
X101850000Y-92400000D01*
D60*
%TO.N,Net-(D1-Pad2)*%
X109950000Y-101925000D02*
X109825000Y-101800000D01*
X109950000Y-103050000D02*
X109950000Y-101925000D01*
X110800000Y-101800000D02*
X110900000Y-101900000D01*
X109825000Y-101800000D02*
X110800000Y-101800000D01*
X112000000Y-98400000D02*
X112000000Y-99049990D01*
%TO.N,Net-(D2-Pad2)*%
X112000000Y-92200000D02*
X112000000Y-93049990D01*
X109950000Y-93250000D02*
X111000000Y-92200000D01*
X111000000Y-92200000D02*
X112000000Y-92200000D01*
X110908189Y-99216811D02*
X110908189Y-98391811D01*
X109825000Y-100300000D02*
X110908189Y-99216811D01*
X110908189Y-98391811D02*
X112000000Y-97300000D01*
%TO.N,Net-(D3-Pad2)*%
X108625000Y-94550000D02*
X108050000Y-94550000D01*
X109099990Y-95024990D02*
X108625000Y-94550000D01*
X109099990Y-98074990D02*
X109099990Y-95024990D01*
X109825000Y-98800000D02*
X109099990Y-98074990D01*
X108050000Y-94550000D02*
X108850000Y-94550000D01*
X108850000Y-94550000D02*
X108900000Y-94600000D01*
X112000000Y-86400000D02*
X112000000Y-87049990D01*
%TO.N,Net-(R5-Pad1)*%
X108175000Y-95800000D02*
X108175000Y-97300000D01*
X107050010Y-98707512D02*
X108175000Y-97582522D01*
X108175000Y-97582522D02*
X108175000Y-97300000D01*
X104200000Y-99600000D02*
X106727834Y-99600000D01*
X103949990Y-99126968D02*
X103949990Y-99349990D01*
X106727834Y-99600000D02*
X107050010Y-99277824D01*
X107050010Y-99277824D02*
X107050010Y-98707512D01*
X103949990Y-99349990D02*
X104200000Y-99600000D01*
X103573022Y-98750000D02*
X103949990Y-99126968D01*
X103025000Y-98750000D02*
X103573022Y-98750000D01*
D59*
%TO.N,Net-(C1-Pad1)*%
X102575000Y-85575000D02*
X102475000Y-85475000D01*
X103800000Y-85575000D02*
X102575000Y-85575000D01*
X102475000Y-85475000D02*
X102475000Y-86125000D01*
X102475000Y-84925000D02*
X102475000Y-85475000D01*
X103800000Y-85575000D02*
X103800000Y-86725000D01*
%TO.N,Net-(C2-Pad2)*%
X97475000Y-85575000D02*
X97525000Y-85525000D01*
X96200000Y-85575000D02*
X97475000Y-85575000D01*
X97525000Y-85525000D02*
X97525000Y-86125000D01*
X97525000Y-84925000D02*
X97525000Y-85525000D01*
X96200000Y-85575000D02*
X96200000Y-86725000D01*
D60*
%TO.N,Net-(J1-Pad2)*%
X111620000Y-104350000D02*
X112000000Y-104730000D01*
X105925000Y-105975000D02*
X106700000Y-105200000D01*
X105600000Y-105975000D02*
X105925000Y-105975000D01*
%TO.N,Net-(J2-Pad3)*%
X101250000Y-111980000D02*
X101270000Y-112000000D01*
X101250000Y-108900000D02*
X101250000Y-111980000D01*
X100825000Y-108475000D02*
X101250000Y-108900000D01*
X100825000Y-105900000D02*
X100825000Y-108475000D01*
%TO.N,Net-(R10-Pad2)*%
X99862208Y-106930270D02*
X91195268Y-106930270D01*
X91195268Y-106930270D02*
X87514998Y-103250000D01*
X86250000Y-96750000D02*
X86250000Y-103250000D01*
X87514998Y-103250000D02*
X86250000Y-103250000D01*
X99250000Y-104275000D02*
X99300000Y-104325000D01*
X99250000Y-103025000D02*
X99250000Y-104275000D01*
X99300000Y-104325000D02*
X99300000Y-104600000D01*
X99300000Y-104600000D02*
X100100000Y-105400000D01*
X100100000Y-106692478D02*
X99862208Y-106930270D01*
X100100000Y-105400000D02*
X100100000Y-106692478D01*
%TO.N,Net-(J2-Pad4)*%
X103750000Y-111940000D02*
X103810000Y-112000000D01*
X103750000Y-108900000D02*
X103750000Y-111940000D01*
X103200000Y-108350000D02*
X103750000Y-108900000D01*
X103400010Y-106700010D02*
X103972440Y-106700010D01*
X104697441Y-107425011D02*
X105263126Y-107425011D01*
X103200000Y-105125000D02*
X103200000Y-106500000D01*
X103200000Y-106500000D02*
X103400010Y-106700010D01*
X102475000Y-104400000D02*
X103200000Y-105125000D01*
X103972440Y-106700010D02*
X104697441Y-107425011D01*
%TO.N,Net-(JP1-Pad2)*%
X94650000Y-105400000D02*
X94650000Y-104376996D01*
X95574998Y-103251998D02*
X96000000Y-102826996D01*
X96000000Y-102826996D02*
X96000000Y-101176978D01*
X96426978Y-100750000D02*
X96975000Y-100750000D01*
X94650000Y-104376996D02*
X95574998Y-103451998D01*
X96000000Y-101176978D02*
X96426978Y-100750000D01*
X95574998Y-103451998D02*
X95574998Y-103251998D01*
%TO.N,Net-(C10-Pad1)*%
X94775000Y-92350000D02*
X94950000Y-92350000D01*
X98250000Y-96200000D02*
X98250000Y-96975000D01*
X98075000Y-94872142D02*
X98075000Y-96025000D01*
X98075000Y-96025000D02*
X98250000Y-96200000D01*
X96848617Y-94323617D02*
X97526474Y-94323617D01*
X97526474Y-94323617D02*
X98075000Y-94872142D01*
X96375000Y-93850000D02*
X96848617Y-94323617D01*
X96425000Y-93800000D02*
X96375000Y-93850000D01*
X96050010Y-93525010D02*
X96375000Y-93850000D01*
X96050010Y-93150010D02*
X96050010Y-93525010D01*
X95124980Y-92599980D02*
X95499981Y-92599981D01*
X95499981Y-92599981D02*
X96050010Y-93150010D01*
X94725000Y-92100000D02*
X94725000Y-92200000D01*
X94725000Y-92200000D02*
X95124980Y-92599980D01*
%TO.N,Net-(D5-Pad3)*%
X103174990Y-103599990D02*
X103900000Y-104325000D01*
X102324990Y-103599990D02*
X103174990Y-103599990D01*
X102250000Y-103525000D02*
X102324990Y-103599990D01*
X102250000Y-103025000D02*
X102250000Y-103525000D01*
X104000000Y-104325000D02*
X105600000Y-104325000D01*
X107586948Y-104465857D02*
X105740857Y-104465857D01*
X107702805Y-104350000D02*
X107586948Y-104465857D01*
X105740857Y-104465857D02*
X105600000Y-104325000D01*
X108050000Y-104350000D02*
X107702805Y-104350000D01*
%TO.N,Net-(D6-Pad6)*%
X101749990Y-104971102D02*
X102475000Y-105696112D01*
X102475000Y-105696112D02*
X102475000Y-105900000D01*
X101250000Y-103025000D02*
X101250000Y-103607522D01*
X101749990Y-104107512D02*
X101749990Y-104971102D01*
X101250000Y-103607522D02*
X101749990Y-104107512D01*
X103000000Y-107400000D02*
X102475000Y-106875000D01*
X103986715Y-107400000D02*
X103000000Y-107400000D01*
X102475000Y-106875000D02*
X102475000Y-105900000D01*
X104736736Y-108150021D02*
X103986715Y-107400000D01*
X106549979Y-108150021D02*
X104736736Y-108150021D01*
X107750000Y-106950000D02*
X106549979Y-108150021D01*
X108050000Y-106950000D02*
X107750000Y-106950000D01*
%TO.N,Net-(R7-Pad1)*%
X104750000Y-102250000D02*
X105636411Y-103136411D01*
X103025000Y-102250000D02*
X104750000Y-102250000D01*
X106838589Y-103136411D02*
X108175000Y-101800000D01*
X105636411Y-103136411D02*
X106838589Y-103136411D01*
%TO.N,Net-(R8-Pad1)*%
X104886410Y-101750000D02*
X103025000Y-101750000D01*
X108175000Y-100300000D02*
X107449990Y-101025010D01*
X107449990Y-101025010D02*
X107449990Y-101888600D01*
X106670385Y-102668206D02*
X105804616Y-102668206D01*
X107449990Y-101888600D02*
X106670385Y-102668206D01*
X105804616Y-102668206D02*
X104886410Y-101750000D01*
%TO.N,Net-(R9-Pad1)*%
X107075010Y-100763579D02*
X107075010Y-99899990D01*
X106558629Y-102143551D02*
X106999979Y-101702201D01*
X106999979Y-101702201D02*
X106999979Y-100838610D01*
X106999979Y-100838610D02*
X107075010Y-100763579D01*
X107075010Y-99899990D02*
X108175000Y-98800000D01*
X105022821Y-101250000D02*
X105991016Y-102218195D01*
X105991016Y-102218195D02*
X106483985Y-102218195D01*
X103025000Y-101250000D02*
X105022821Y-101250000D01*
X106483985Y-102218195D02*
X106999979Y-101702201D01*
%TO.N,Net-(C19-Pad1)*%
X100750000Y-104325000D02*
X100825000Y-104400000D01*
X100750000Y-103025000D02*
X100750000Y-104325000D01*
X109025010Y-109000010D02*
X108225000Y-108200000D01*
X110227824Y-109000010D02*
X109025010Y-109000010D01*
X110700000Y-108527834D02*
X110227824Y-109000010D01*
X110700000Y-105825000D02*
X110700000Y-108527834D01*
X110525000Y-105650000D02*
X110700000Y-105825000D01*
X109950000Y-105650000D02*
X110525000Y-105650000D01*
X107200000Y-108200000D02*
X108225000Y-108200000D01*
X104475001Y-113175001D02*
X105200000Y-112450002D01*
X102445001Y-112374003D02*
X103245999Y-113175001D01*
X105200000Y-112450002D02*
X105200000Y-110200000D01*
X102445001Y-108358286D02*
X102445001Y-112374003D01*
X105200000Y-110200000D02*
X107200000Y-108200000D01*
X101749990Y-107663275D02*
X102445001Y-108358286D01*
X103245999Y-113175001D02*
X104475001Y-113175001D01*
X101749990Y-105607512D02*
X101749990Y-107663275D01*
X100825000Y-104682522D02*
X101749990Y-105607512D01*
X100825000Y-104400000D02*
X100825000Y-104682522D01*
%TD*%
M02*
