%TF.GenerationSoftware,KiCad,Pcbnew,(6.0.5-0)*%
%TF.CreationDate,2022-06-21T18:01:51+01:00*%
%TF.ProjectId,PN532-Round,504e3533-322d-4526-9f75-6e642e6b6963,7*%
%TF.SameCoordinates,Original*%
%TF.FileFunction,Soldermask,Top*%
%TF.FilePolarity,Negative*%
%FSLAX46Y46*%
G04 Gerber Fmt 4.6, Leading zero omitted, Abs format (unit mm)*
G04 Created by KiCad (PCBNEW (6.0.5-0)) date 2022-06-21 18:01:51*
%MOMM*%
%LPD*%
G01*
G04 APERTURE LIST*
G04 Aperture macros list*
%AMRoundRect*
0 Rectangle with rounded corners*
0 $1 Rounding radius*
0 $2 $3 $4 $5 $6 $7 $8 $9 X,Y pos of 4 corners*
0 Add a 4 corners polygon primitive as box body*
4,1,4,$2,$3,$4,$5,$6,$7,$8,$9,$2,$3,0*
0 Add four circle primitives for the rounded corners*
1,1,$1+$1,$2,$3*
1,1,$1+$1,$4,$5*
1,1,$1+$1,$6,$7*
1,1,$1+$1,$8,$9*
0 Add four rect primitives between the rounded corners*
20,1,$1+$1,$2,$3,$4,$5,0*
20,1,$1+$1,$4,$5,$6,$7,0*
20,1,$1+$1,$6,$7,$8,$9,0*
20,1,$1+$1,$8,$9,$2,$3,0*%
%AMOutline5P*
0 Free polygon, 5 corners , with rotation*
0 The origin of the aperture is its center*
0 number of corners: always 5*
0 $1 to $10 corner X, Y*
0 $11 Rotation angle, in degrees counterclockwise*
0 create outline with 5 corners*
4,1,5,$1,$2,$3,$4,$5,$6,$7,$8,$9,$10,$1,$2,$11*%
%AMOutline6P*
0 Free polygon, 6 corners , with rotation*
0 The origin of the aperture is its center*
0 number of corners: always 6*
0 $1 to $12 corner X, Y*
0 $13 Rotation angle, in degrees counterclockwise*
0 create outline with 6 corners*
4,1,6,$1,$2,$3,$4,$5,$6,$7,$8,$9,$10,$11,$12,$1,$2,$13*%
%AMOutline7P*
0 Free polygon, 7 corners , with rotation*
0 The origin of the aperture is its center*
0 number of corners: always 7*
0 $1 to $14 corner X, Y*
0 $15 Rotation angle, in degrees counterclockwise*
0 create outline with 7 corners*
4,1,7,$1,$2,$3,$4,$5,$6,$7,$8,$9,$10,$11,$12,$13,$14,$1,$2,$15*%
%AMOutline8P*
0 Free polygon, 8 corners , with rotation*
0 The origin of the aperture is its center*
0 number of corners: always 8*
0 $1 to $16 corner X, Y*
0 $17 Rotation angle, in degrees counterclockwise*
0 create outline with 8 corners*
4,1,8,$1,$2,$3,$4,$5,$6,$7,$8,$9,$10,$11,$12,$13,$14,$15,$16,$1,$2,$17*%
%AMFreePoly0*
4,1,22,0.550000,-0.750000,0.000000,-0.750000,0.000000,-0.745033,-0.079941,-0.743568,-0.215256,-0.701293,-0.333266,-0.622738,-0.424486,-0.514219,-0.481581,-0.384460,-0.499164,-0.250000,-0.500000,-0.250000,-0.500000,0.250000,-0.499164,0.250000,-0.499963,0.256109,-0.478152,0.396186,-0.417904,0.524511,-0.324060,0.630769,-0.204165,0.706417,-0.067858,0.745374,0.000000,0.744959,0.000000,0.750000,
0.550000,0.750000,0.550000,-0.750000,0.550000,-0.750000,$1*%
%AMFreePoly1*
4,1,20,0.000000,0.744959,0.073905,0.744508,0.209726,0.703889,0.328688,0.626782,0.421226,0.519385,0.479903,0.390333,0.500000,0.250000,0.500000,-0.250000,0.499851,-0.262216,0.476331,-0.402017,0.414519,-0.529596,0.319384,-0.634700,0.198574,-0.708877,0.061801,-0.746166,0.000000,-0.745033,0.000000,-0.750000,-0.550000,-0.750000,-0.550000,0.750000,0.000000,0.750000,0.000000,0.744959,
0.000000,0.744959,$1*%
G04 Aperture macros list end*
%ADD10C,0.120000*%
%ADD11C,0.450000*%
%ADD12R,1.500000X0.500000*%
%ADD13RoundRect,0.200000X-0.275000X0.200000X-0.275000X-0.200000X0.275000X-0.200000X0.275000X0.200000X0*%
%ADD14R,1.150000X1.900000*%
%ADD15C,1.800000*%
%ADD16RoundRect,0.225000X0.575000X-0.225000X0.575000X0.225000X-0.575000X0.225000X-0.575000X-0.225000X0*%
%ADD17R,1.300000X2.000000*%
%ADD18RoundRect,0.200000X-0.200000X-0.275000X0.200000X-0.275000X0.200000X0.275000X-0.200000X0.275000X0*%
%ADD19RoundRect,0.200000X0.275000X-0.200000X0.275000X0.200000X-0.275000X0.200000X-0.275000X-0.200000X0*%
%ADD20RoundRect,0.062500X-0.062500X0.287500X-0.062500X-0.287500X0.062500X-0.287500X0.062500X0.287500X0*%
%ADD21RoundRect,0.062500X-0.287500X0.062500X-0.287500X-0.062500X0.287500X-0.062500X0.287500X0.062500X0*%
%ADD22Outline5P,-2.200000X1.804000X-1.804000X2.200000X2.200000X2.200000X2.200000X-2.200000X-2.200000X-2.200000X270.000000*%
%ADD23C,0.350000*%
%ADD24RoundRect,0.200000X0.200000X0.275000X-0.200000X0.275000X-0.200000X-0.275000X0.200000X-0.275000X0*%
%ADD25R,1.700000X1.700000*%
%ADD26O,1.700000X1.700000*%
%ADD27RoundRect,0.250000X-0.600000X-0.675000X0.600000X-0.675000X0.600000X0.675000X-0.600000X0.675000X0*%
%ADD28O,1.700000X1.850000*%
%ADD29RoundRect,0.225000X0.225000X0.250000X-0.225000X0.250000X-0.225000X-0.250000X0.225000X-0.250000X0*%
%ADD30FreePoly0,0.000000*%
%ADD31R,1.000000X1.500000*%
%ADD32FreePoly1,0.000000*%
%ADD33RoundRect,0.166600X0.636396X-0.895763X0.895763X-0.636396X-0.636396X0.895763X-0.895763X0.636396X0*%
%ADD34RoundRect,0.242760X0.321734X-0.699668X0.699668X-0.321734X-0.321734X0.699668X-0.699668X0.321734X0*%
%ADD35RoundRect,0.166600X-0.895763X-0.636396X-0.636396X-0.895763X0.895763X0.636396X0.636396X0.895763X0*%
%ADD36RoundRect,0.242760X-0.699668X-0.321734X-0.321734X-0.699668X0.699668X0.321734X0.321734X0.699668X0*%
%ADD37R,0.650000X0.400000*%
G04 APERTURE END LIST*
D10*
%TO.C,JP1*%
X95050000Y-101460000D02*
X95450000Y-101460000D01*
X95450000Y-101460000D02*
X95450000Y-102460000D01*
X95450000Y-102460000D02*
X95050000Y-102460000D01*
X95050000Y-102460000D02*
X95050000Y-101460000D01*
G36*
X95050000Y-101460000D02*
G01*
X95450000Y-101460000D01*
X95450000Y-102460000D01*
X95050000Y-102460000D01*
X95050000Y-101460000D01*
G37*
X93850000Y-101460000D02*
X94250000Y-101460000D01*
X94250000Y-101460000D02*
X94250000Y-102460000D01*
X94250000Y-102460000D02*
X93850000Y-102460000D01*
X93850000Y-102460000D02*
X93850000Y-101460000D01*
G36*
X93850000Y-101460000D02*
G01*
X94250000Y-101460000D01*
X94250000Y-102460000D01*
X93850000Y-102460000D01*
X93850000Y-101460000D01*
G37*
%TO.C,U2*%
G36*
X102900000Y-117900000D02*
G01*
X97100000Y-117900000D01*
X97100000Y-112100000D01*
X102900000Y-112100000D01*
X102900000Y-117900000D01*
G37*
D11*
%TO.C,AJK1*%
X89100000Y-87900000D02*
X86100000Y-92100000D01*
X90900000Y-88000000D02*
X89100000Y-90000000D01*
X89100000Y-90000000D02*
X87600000Y-90000000D01*
X89100000Y-87900000D02*
X89100000Y-92100000D01*
X89100000Y-90000000D02*
X90900000Y-92100000D01*
X87600000Y-92100000D02*
G75*
G03*
X89100000Y-92100000I750000J0D01*
G01*
%TD*%
D12*
%TO.C,A1*%
X100000000Y-77310000D03*
D13*
X98000000Y-79460000D03*
X102000000Y-79460000D03*
X102000000Y-81160000D03*
D12*
X100000000Y-79310000D03*
D13*
X98000000Y-81160000D03*
%TD*%
D14*
%TO.C,Y1*%
X93075000Y-95210000D03*
X93075000Y-97910000D03*
X94675000Y-97910000D03*
X94675000Y-95210000D03*
%TD*%
D15*
%TO.C,D2*%
X114000000Y-100000000D03*
D16*
X114000000Y-101400000D03*
X114000000Y-98600000D03*
%TD*%
D15*
%TO.C,D3*%
X114000000Y-95000000D03*
D16*
X114000000Y-96400000D03*
X114000000Y-93600000D03*
%TD*%
D17*
%TO.C,SW1*%
X86250000Y-95800000D03*
X90750000Y-95800000D03*
X90750000Y-104200000D03*
X86250000Y-104200000D03*
%TD*%
D15*
%TO.C,D1*%
X114000000Y-105000000D03*
D16*
X114000000Y-106400000D03*
X114000000Y-103600000D03*
%TD*%
D18*
%TO.C,C7*%
X100600000Y-91760000D03*
X102150000Y-91760000D03*
%TD*%
D19*
%TO.C,C3*%
X103800000Y-84860000D03*
X103800000Y-83310000D03*
%TD*%
D18*
%TO.C,C5*%
X100925000Y-84835000D03*
X102475000Y-84835000D03*
%TD*%
%TO.C,R6*%
X108175000Y-92360000D03*
X109825000Y-92360000D03*
%TD*%
%TO.C,R4*%
X93075000Y-84835000D03*
X94725000Y-84835000D03*
%TD*%
D13*
%TO.C,C13*%
X106150000Y-95385000D03*
X106150000Y-96935000D03*
%TD*%
D18*
%TO.C,C14*%
X104625000Y-93860000D03*
X106175000Y-93860000D03*
%TD*%
%TO.C,C9*%
X93100000Y-91310000D03*
X94650000Y-91310000D03*
%TD*%
%TO.C,C16*%
X93100000Y-94060000D03*
X94650000Y-94060000D03*
%TD*%
%TO.C,R9*%
X108175000Y-96860000D03*
X109825000Y-96860000D03*
%TD*%
%TO.C,R8*%
X108175000Y-98360000D03*
X109825000Y-98360000D03*
%TD*%
D19*
%TO.C,R11*%
X99300000Y-102535000D03*
X99300000Y-100885000D03*
%TD*%
D20*
%TO.C,U1*%
X102250000Y-93660000D03*
X101750000Y-93660000D03*
X101250000Y-93660000D03*
X100750000Y-93660000D03*
X100250000Y-93660000D03*
X99750000Y-93660000D03*
X99250000Y-93660000D03*
X98750000Y-93660000D03*
X98250000Y-93660000D03*
X97750000Y-93660000D03*
D21*
X97100000Y-94310000D03*
X97100000Y-94810000D03*
X97100000Y-95310000D03*
X97100000Y-95810000D03*
X97100000Y-96310000D03*
X97100000Y-96810000D03*
X97100000Y-97310000D03*
X97100000Y-97810000D03*
X97100000Y-98310000D03*
X97100000Y-98810000D03*
D20*
X97750000Y-99460000D03*
X98250000Y-99460000D03*
X98750000Y-99460000D03*
X99250000Y-99460000D03*
X99750000Y-99460000D03*
X100250000Y-99460000D03*
X100750000Y-99460000D03*
X101250000Y-99460000D03*
X101750000Y-99460000D03*
X102250000Y-99460000D03*
D21*
X102900000Y-98810000D03*
X102900000Y-98310000D03*
X102900000Y-97810000D03*
X102900000Y-97310000D03*
X102900000Y-96810000D03*
X102900000Y-96310000D03*
X102900000Y-95810000D03*
X102900000Y-95310000D03*
X102900000Y-94810000D03*
X102900000Y-94310000D03*
D22*
X100000000Y-96560000D03*
D23*
X99000000Y-95560000D03*
X100000000Y-96560000D03*
X99000000Y-97560000D03*
X101000000Y-97560000D03*
X101000000Y-95560000D03*
%TD*%
D24*
%TO.C,C17*%
X94650000Y-99060000D03*
X93100000Y-99060000D03*
%TD*%
D25*
%TO.C,J1*%
X106460000Y-109000000D03*
D26*
X109000000Y-109000000D03*
%TD*%
D24*
%TO.C,C12*%
X99400000Y-90410000D03*
X97850000Y-90410000D03*
%TD*%
D13*
%TO.C,R5*%
X93100000Y-88585000D03*
X93100000Y-90235000D03*
%TD*%
D18*
%TO.C,R7*%
X108175000Y-93860000D03*
X109825000Y-93860000D03*
%TD*%
%TO.C,R10*%
X108175000Y-95360000D03*
X109825000Y-95360000D03*
%TD*%
D19*
%TO.C,C18*%
X97700000Y-102485000D03*
X97700000Y-100935000D03*
%TD*%
D13*
%TO.C,C11*%
X104650000Y-95385000D03*
X104650000Y-96935000D03*
%TD*%
D19*
%TO.C,C8*%
X93100000Y-87535000D03*
X93100000Y-85985000D03*
%TD*%
D27*
%TO.C,J2*%
X96250000Y-105460000D03*
D28*
X98750000Y-105460000D03*
X101250000Y-105460000D03*
X103750000Y-105460000D03*
%TD*%
D18*
%TO.C,C10*%
X100600000Y-90410000D03*
X102150000Y-90410000D03*
%TD*%
D29*
%TO.C,C1*%
X102475000Y-82460000D03*
X102475000Y-83660000D03*
X100925000Y-83660000D03*
X100925000Y-82460000D03*
%TD*%
D24*
%TO.C,C6*%
X99075000Y-84835000D03*
X97525000Y-84835000D03*
%TD*%
D19*
%TO.C,R15*%
X105600000Y-102535000D03*
X105600000Y-100885000D03*
%TD*%
D30*
%TO.C,JP1*%
X93350000Y-101960000D03*
D31*
X94650000Y-101960000D03*
D32*
X95950000Y-101960000D03*
%TD*%
D18*
%TO.C,R13*%
X100825000Y-102460000D03*
X102475000Y-102460000D03*
%TD*%
%TO.C,C15*%
X93100000Y-92660000D03*
X94650000Y-92660000D03*
%TD*%
D24*
%TO.C,R14*%
X102475000Y-100960000D03*
X100825000Y-100960000D03*
%TD*%
D33*
%TO.C,L1*%
X102542893Y-88267107D03*
D34*
X102260051Y-88549949D03*
X104239949Y-86570051D03*
D33*
X103957107Y-86852893D03*
%TD*%
D35*
%TO.C,L2*%
X96042893Y-86852893D03*
D36*
X95760051Y-86570051D03*
X97739949Y-88549949D03*
D35*
X97457107Y-88267107D03*
%TD*%
D13*
%TO.C,C4*%
X96200000Y-83310000D03*
X96200000Y-84860000D03*
%TD*%
%TO.C,R12*%
X104000000Y-100885000D03*
X104000000Y-102535000D03*
%TD*%
D37*
%TO.C,D5*%
X108050000Y-89810000D03*
X108050000Y-90460000D03*
X108050000Y-91110000D03*
X109950000Y-91110000D03*
X109950000Y-90460000D03*
X109950000Y-89810000D03*
%TD*%
D18*
%TO.C,C19*%
X108225000Y-104760000D03*
X109775000Y-104760000D03*
%TD*%
D37*
%TO.C,D4*%
X108050000Y-99610000D03*
X108050000Y-100260000D03*
X108050000Y-100910000D03*
X109950000Y-100910000D03*
X109950000Y-100260000D03*
X109950000Y-99610000D03*
%TD*%
%TO.C,D6*%
X109950000Y-103510000D03*
X109950000Y-102860000D03*
X109950000Y-102210000D03*
X108050000Y-102210000D03*
X108050000Y-102860000D03*
X108050000Y-103510000D03*
%TD*%
D29*
%TO.C,C2*%
X99075000Y-82460000D03*
X99075000Y-83660000D03*
X97525000Y-83660000D03*
X97525000Y-82460000D03*
%TD*%
M02*
