%TF.GenerationSoftware,KiCad,Pcbnew,(5.1.9-0-10_14)*%
%TF.CreationDate,2021-04-25T16:58:11+01:00*%
%TF.ProjectId,PN532,504e3533-322e-46b6-9963-61645f706362,2*%
%TF.SameCoordinates,Original*%
%TF.FileFunction,Paste,Bot*%
%TF.FilePolarity,Positive*%
%FSLAX46Y46*%
G04 Gerber Fmt 4.6, Leading zero omitted, Abs format (unit mm)*
G04 Created by KiCad (PCBNEW (5.1.9-0-10_14)) date 2021-04-25 16:58:11*
%MOMM*%
%LPD*%
G01*
G04 APERTURE LIST*
G04 APERTURE END LIST*
%TO.C,D3*%
G36*
G01*
X140100000Y-94749999D02*
X140100000Y-95650001D01*
G75*
G02*
X139850001Y-95900000I-249999J0D01*
G01*
X139149999Y-95900000D01*
G75*
G02*
X138900000Y-95650001I0J249999D01*
G01*
X138900000Y-94749999D01*
G75*
G02*
X139149999Y-94500000I249999J0D01*
G01*
X139850001Y-94500000D01*
G75*
G02*
X140100000Y-94749999I0J-249999D01*
G01*
G37*
G36*
G01*
X138100000Y-94749999D02*
X138100000Y-95650001D01*
G75*
G02*
X137850001Y-95900000I-249999J0D01*
G01*
X137149999Y-95900000D01*
G75*
G02*
X136900000Y-95650001I0J249999D01*
G01*
X136900000Y-94749999D01*
G75*
G02*
X137149999Y-94500000I249999J0D01*
G01*
X137850001Y-94500000D01*
G75*
G02*
X138100000Y-94749999I0J-249999D01*
G01*
G37*
G36*
G01*
X137295000Y-94575000D02*
X137295000Y-95825000D01*
G75*
G02*
X137045000Y-96075000I-250000J0D01*
G01*
X136120000Y-96075000D01*
G75*
G02*
X135870000Y-95825000I0J250000D01*
G01*
X135870000Y-94575000D01*
G75*
G02*
X136120000Y-94325000I250000J0D01*
G01*
X137045000Y-94325000D01*
G75*
G02*
X137295000Y-94575000I0J-250000D01*
G01*
G37*
G36*
G01*
X140270000Y-94575000D02*
X140270000Y-95825000D01*
G75*
G02*
X140020000Y-96075000I-250000J0D01*
G01*
X139095000Y-96075000D01*
G75*
G02*
X138845000Y-95825000I0J250000D01*
G01*
X138845000Y-94575000D01*
G75*
G02*
X139095000Y-94325000I250000J0D01*
G01*
X140020000Y-94325000D01*
G75*
G02*
X140270000Y-94575000I0J-250000D01*
G01*
G37*
%TD*%
%TO.C,D1*%
G36*
G01*
X140100000Y-82749999D02*
X140100000Y-83650001D01*
G75*
G02*
X139850001Y-83900000I-249999J0D01*
G01*
X139149999Y-83900000D01*
G75*
G02*
X138900000Y-83650001I0J249999D01*
G01*
X138900000Y-82749999D01*
G75*
G02*
X139149999Y-82500000I249999J0D01*
G01*
X139850001Y-82500000D01*
G75*
G02*
X140100000Y-82749999I0J-249999D01*
G01*
G37*
G36*
G01*
X138100000Y-82749999D02*
X138100000Y-83650001D01*
G75*
G02*
X137850001Y-83900000I-249999J0D01*
G01*
X137149999Y-83900000D01*
G75*
G02*
X136900000Y-83650001I0J249999D01*
G01*
X136900000Y-82749999D01*
G75*
G02*
X137149999Y-82500000I249999J0D01*
G01*
X137850001Y-82500000D01*
G75*
G02*
X138100000Y-82749999I0J-249999D01*
G01*
G37*
G36*
G01*
X137295000Y-82575000D02*
X137295000Y-83825000D01*
G75*
G02*
X137045000Y-84075000I-250000J0D01*
G01*
X136120000Y-84075000D01*
G75*
G02*
X135870000Y-83825000I0J250000D01*
G01*
X135870000Y-82575000D01*
G75*
G02*
X136120000Y-82325000I250000J0D01*
G01*
X137045000Y-82325000D01*
G75*
G02*
X137295000Y-82575000I0J-250000D01*
G01*
G37*
G36*
G01*
X140270000Y-82575000D02*
X140270000Y-83825000D01*
G75*
G02*
X140020000Y-84075000I-250000J0D01*
G01*
X139095000Y-84075000D01*
G75*
G02*
X138845000Y-83825000I0J250000D01*
G01*
X138845000Y-82575000D01*
G75*
G02*
X139095000Y-82325000I250000J0D01*
G01*
X140020000Y-82325000D01*
G75*
G02*
X140270000Y-82575000I0J-250000D01*
G01*
G37*
%TD*%
%TO.C,D2*%
G36*
G01*
X140100000Y-88749999D02*
X140100000Y-89650001D01*
G75*
G02*
X139850001Y-89900000I-249999J0D01*
G01*
X139149999Y-89900000D01*
G75*
G02*
X138900000Y-89650001I0J249999D01*
G01*
X138900000Y-88749999D01*
G75*
G02*
X139149999Y-88500000I249999J0D01*
G01*
X139850001Y-88500000D01*
G75*
G02*
X140100000Y-88749999I0J-249999D01*
G01*
G37*
G36*
G01*
X138100000Y-88749999D02*
X138100000Y-89650001D01*
G75*
G02*
X137850001Y-89900000I-249999J0D01*
G01*
X137149999Y-89900000D01*
G75*
G02*
X136900000Y-89650001I0J249999D01*
G01*
X136900000Y-88749999D01*
G75*
G02*
X137149999Y-88500000I249999J0D01*
G01*
X137850001Y-88500000D01*
G75*
G02*
X138100000Y-88749999I0J-249999D01*
G01*
G37*
G36*
G01*
X137295000Y-88575000D02*
X137295000Y-89825000D01*
G75*
G02*
X137045000Y-90075000I-250000J0D01*
G01*
X136120000Y-90075000D01*
G75*
G02*
X135870000Y-89825000I0J250000D01*
G01*
X135870000Y-88575000D01*
G75*
G02*
X136120000Y-88325000I250000J0D01*
G01*
X137045000Y-88325000D01*
G75*
G02*
X137295000Y-88575000I0J-250000D01*
G01*
G37*
G36*
G01*
X140270000Y-88575000D02*
X140270000Y-89825000D01*
G75*
G02*
X140020000Y-90075000I-250000J0D01*
G01*
X139095000Y-90075000D01*
G75*
G02*
X138845000Y-89825000I0J250000D01*
G01*
X138845000Y-88575000D01*
G75*
G02*
X139095000Y-88325000I250000J0D01*
G01*
X140020000Y-88325000D01*
G75*
G02*
X140270000Y-88575000I0J-250000D01*
G01*
G37*
%TD*%
M02*
