%TF.GenerationSoftware,KiCad,Pcbnew,(6.0.0-0)*%
%TF.CreationDate,2022-01-01T18:12:16+00:00*%
%TF.ProjectId,PN532,504e3533-322e-46b6-9963-61645f706362,7*%
%TF.SameCoordinates,Original*%
%TF.FileFunction,Copper,L2,Bot*%
%TF.FilePolarity,Positive*%
%FSLAX46Y46*%
G04 Gerber Fmt 4.6, Leading zero omitted, Abs format (unit mm)*
G04 Created by KiCad (PCBNEW (6.0.0-0)) date 2022-01-01 18:12:16*
%MOMM*%
%LPD*%
G01*
G04 APERTURE LIST*
G04 Aperture macros list*
%AMRoundRect*
0 Rectangle with rounded corners*
0 $1 Rounding radius*
0 $2 $3 $4 $5 $6 $7 $8 $9 X,Y pos of 4 corners*
0 Add a 4 corners polygon primitive as box body*
4,1,4,$2,$3,$4,$5,$6,$7,$8,$9,$2,$3,0*
0 Add four circle primitives for the rounded corners*
1,1,$1+$1,$2,$3*
1,1,$1+$1,$4,$5*
1,1,$1+$1,$6,$7*
1,1,$1+$1,$8,$9*
0 Add four rect primitives between the rounded corners*
20,1,$1+$1,$2,$3,$4,$5,0*
20,1,$1+$1,$4,$5,$6,$7,0*
20,1,$1+$1,$6,$7,$8,$9,0*
20,1,$1+$1,$8,$9,$2,$3,0*%
%AMFreePoly0*
4,1,412,-4.981035,21.746228,-4.962039,21.749903,-4.962033,21.749902,-4.447227,21.728897,-3.935208,21.671382,-3.428566,21.577648,-2.929861,21.448167,-2.441611,21.283594,-1.966283,21.084760,-1.506277,20.852668,-1.063916,20.588492,-0.641435,20.293566,-0.240967,19.969378,0.135465,19.617567,0.485959,19.239909,0.808747,18.838312,1.102196,18.414803,1.364826,17.971523,1.595310,17.510709,1.792483,17.034690,
1.955351,16.545868,2.083090,16.046714,2.175055,15.539748,2.230781,15.027531,2.249988,14.512655,2.249989,14.512649,2.248742,14.506323,2.250000,14.500000,2.250000,2.500000,2.230970,2.404329,2.176777,2.323223,2.095671,2.269030,2.000000,2.250000,1.904329,2.269030,1.823223,2.323223,1.769030,2.404329,1.750000,2.500000,1.750000,14.500000,1.751171,14.505888,1.749989,14.511777,
1.753933,14.531787,1.735116,15.014294,1.678187,15.513952,1.584242,16.007989,1.453802,16.493668,1.287590,16.968297,1.086527,17.429244,0.851727,17.873955,0.584492,18.299965,0.286303,18.704912,-0.041187,19.086552,-0.396163,19.442770,-0.776658,19.771591,-1.180561,20.071192,-1.605635,20.339913,-2.049524,20.576264,-2.509766,20.778936,-2.983812,20.946804,-3.469032,21.078939,-3.962739,21.174608,
-4.462195,21.233281,-4.944637,21.253782,-4.964657,21.249909,-4.982315,21.253518,-5.000000,21.250000,-29.000000,21.250000,-29.005888,21.251171,-29.011777,21.249989,-29.031787,21.253933,-29.514294,21.235116,-30.013952,21.178187,-30.507989,21.084242,-30.993668,20.953802,-31.468297,20.787590,-31.929244,20.586527,-32.373955,20.351727,-32.799965,20.084492,-33.204912,19.786303,-33.586552,19.458813,-33.942770,19.103837,
-34.271591,18.723342,-34.571192,18.319439,-34.839913,17.894365,-35.076264,17.450476,-35.278936,16.990234,-35.446804,16.516188,-35.578939,16.030968,-35.674608,15.537261,-35.733281,15.037805,-35.753782,14.555363,-35.749909,14.535343,-35.753518,14.517685,-35.750000,14.500000,-35.750000,-9.500000,-35.751171,-9.505888,-35.749989,-9.511777,-35.753933,-9.531787,-35.735116,-10.014294,-35.678187,-10.513952,-35.584242,-11.007989,
-35.453802,-11.493668,-35.287590,-11.968297,-35.086527,-12.429244,-34.851727,-12.873955,-34.584492,-13.299965,-34.286303,-13.704912,-33.958813,-14.086552,-33.603837,-14.442770,-33.223342,-14.771591,-32.819439,-15.071192,-32.394365,-15.339913,-31.950476,-15.576264,-31.490234,-15.778936,-31.016188,-15.946804,-30.530968,-16.078939,-30.037261,-16.174608,-29.537805,-16.233281,-29.055363,-16.253782,-29.035343,-16.249909,-29.017685,-16.253518,
-29.000000,-16.250000,-5.000000,-16.250000,-4.979915,-16.253995,-4.959859,-16.249860,-4.941197,-16.253437,-4.510477,-16.233577,-4.064116,-16.177821,-3.623475,-16.087371,-3.191245,-15.962777,-2.770067,-15.804803,-2.362517,-15.614412,-1.971082,-15.392769,-1.598157,-15.141228,-1.246019,-14.861326,-0.916821,-14.554773,-0.612574,-14.223443,-0.335137,-13.869359,-0.086205,-13.494687,0.132700,-13.101715,0.320241,-12.692845,
0.475271,-12.270576,0.596844,-11.837486,0.684216,-11.396224,0.736854,-10.949485,0.753707,-10.518637,0.750000,-10.500000,0.750000,14.500002,0.753704,14.518625,0.736697,14.951490,0.683589,15.400194,0.595440,15.843348,0.472794,16.278220,0.316405,16.702129,0.127240,17.112461,-0.093537,17.506686,-0.344564,17.882374,-0.624293,18.237208,-0.931000,18.569002,-1.262793,18.875708,-1.617628,19.155437,
-1.993316,19.406464,-2.387541,19.627241,-2.797873,19.816406,-3.221782,19.972794,-3.656654,20.095441,-4.099808,20.183590,-4.548512,20.236697,-4.981377,20.253704,-5.000000,20.250000,-29.000002,20.250000,-29.018642,20.253708,-29.448987,20.236893,-29.895234,20.184373,-30.336022,20.097194,-30.768665,19.975889,-31.190525,19.821197,-31.599028,19.634062,-31.991686,19.415624,-32.366102,19.167215,-32.719996,18.890350,
-33.051208,18.586717,-33.357720,18.258167,-33.637663,17.906703,-33.889330,17.534468,-34.111186,17.143732,-34.301879,16.736877,-34.460246,16.316383,-34.585322,15.884815,-34.676344,15.444804,-34.732757,14.999032,-34.753326,14.568848,-34.749782,14.550179,-34.754995,14.525114,-34.750000,14.500000,-34.750000,-9.500002,-34.753704,-9.518625,-34.736697,-9.951490,-34.683589,-10.400194,-34.595440,-10.843348,-34.472794,-11.278220,
-34.316405,-11.702129,-34.127240,-12.112461,-33.906463,-12.506686,-33.655436,-12.882374,-33.375707,-13.237208,-33.069000,-13.569002,-32.737207,-13.875708,-32.382372,-14.155437,-32.006684,-14.406464,-31.612459,-14.627241,-31.202127,-14.816406,-30.778218,-14.972794,-30.343346,-15.095441,-29.900192,-15.183590,-29.451488,-15.236697,-29.018623,-15.253704,-29.000000,-15.250000,-5.000000,-15.250000,-4.981344,-15.253711,-4.585616,-15.236433,
-4.174385,-15.182293,-3.769438,-15.092518,-3.373857,-14.967792,-2.990651,-14.809063,-2.622737,-14.617539,-2.272916,-14.394679,-1.943850,-14.142177,-1.638043,-13.861957,-1.357823,-13.556150,-1.105321,-13.227084,-0.882461,-12.877263,-0.690937,-12.509349,-0.532208,-12.126143,-0.407482,-11.730562,-0.317707,-11.325615,-0.263567,-10.914384,-0.246289,-10.518656,-0.250000,-10.500000,-0.250000,0.600000,0.250000,0.600000,
0.250000,-10.500000,0.232069,-10.933542,0.178397,-11.364122,0.089351,-11.788799,-0.034459,-12.204672,-0.192190,-12.608901,-0.382763,-12.998724,-0.604876,-13.371478,-0.857012,-13.724617,-1.137449,-14.055728,-1.444272,-14.362551,-1.775383,-14.642988,-2.128522,-14.895124,-2.501276,-15.117237,-2.891099,-15.307810,-3.295328,-15.465541,-3.711201,-15.589351,-4.135878,-15.678397,-4.566458,-15.732069,-5.000000,-15.750000,
-29.000000,-15.750000,-29.467063,-15.732524,-29.931514,-15.680193,-30.390756,-15.593300,-30.842220,-15.472330,-31.283381,-15.317961,-31.711773,-15.131056,-32.125000,-14.912659,-32.520750,-14.663993,-32.896811,-14.386448,-33.251079,-14.081575,-33.581574,-13.751081,-33.886446,-13.396812,-34.163992,-13.020752,-34.412658,-12.625001,-34.631055,-12.211775,-34.817961,-11.783383,-34.972330,-11.342222,-35.093299,-10.890758,-35.180193,-10.431516,
-35.232524,-9.967065,-35.250000,-9.500002,-35.250000,14.500000,-35.244580,14.527248,-35.249762,14.554543,-35.228427,15.018847,-35.172645,15.480282,-35.082726,15.936296,-34.959167,16.384366,-34.802651,16.822015,-34.614043,17.246822,-34.394387,17.656437,-34.144898,18.048597,-33.866955,18.421130,-33.562095,18.771979,-33.232005,19.099201,-32.878510,19.400987,-32.503565,19.675669,-32.109243,19.921726,-31.697726,20.137799,
-31.271289,20.322693,-30.832291,20.475384,-30.383160,20.595029,-29.926379,20.680965,-29.464475,20.732717,-29.000002,20.750000,-5.000000,20.750000,-4.532937,20.732524,-4.068486,20.680193,-3.609244,20.593300,-3.157780,20.472330,-2.716619,20.317961,-2.288227,20.131056,-1.875000,19.912659,-1.479250,19.663993,-1.103189,19.386448,-0.748921,19.081575,-0.418426,18.751081,-0.113554,18.396812,0.163992,18.020752,
0.412658,17.625001,0.631055,17.211775,0.817961,16.783383,0.972330,16.342222,1.093299,15.890758,1.180193,15.431516,1.232524,14.967065,1.250000,14.500002,1.250000,-10.500000,1.232679,-10.964991,1.180811,-11.427405,1.094683,-11.884678,0.974774,-12.334277,0.821748,-12.773708,0.636453,-13.200536,0.419916,-13.612396,0.173337,-14.007005,-0.101916,-14.382174,-0.404319,-14.735826,-0.732195,-15.065998,
-1.083727,-15.370863,-1.456966,-15.648729,-1.849843,-15.898056,-2.260181,-16.117463,-2.685706,-16.305734,-3.124058,-16.461824,-3.572808,-16.584868,-4.029469,-16.674186,-4.491510,-16.729281,-4.956369,-16.749848,-4.978200,-16.745664,-5.000000,-16.750000,-29.000000,-16.750000,-29.018965,-16.746228,-29.037961,-16.749903,-29.037967,-16.749902,-29.552773,-16.728897,-30.064792,-16.671382,-30.571434,-16.577648,-31.070139,-16.448167,
-31.558389,-16.283594,-32.033717,-16.084760,-32.493723,-15.852668,-32.936084,-15.588492,-33.358565,-15.293566,-33.759033,-14.969378,-34.135465,-14.617567,-34.485959,-14.239909,-34.808747,-13.838312,-35.102196,-13.414803,-35.364826,-12.971523,-35.595310,-12.510709,-35.792483,-12.034690,-35.955351,-11.545868,-36.083090,-11.046714,-36.175055,-10.539748,-36.230781,-10.027531,-36.249988,-9.512655,-36.249989,-9.512649,-36.248742,-9.506323,
-36.250000,-9.500000,-36.250000,14.500000,-36.246228,14.518965,-36.249903,14.537961,-36.249902,14.537967,-36.228897,15.052773,-36.171382,15.564792,-36.077648,16.071434,-35.948167,16.570139,-35.783594,17.058389,-35.584760,17.533717,-35.352668,17.993723,-35.088492,18.436084,-34.793566,18.858565,-34.469378,19.259033,-34.117567,19.635465,-33.739909,19.985959,-33.338312,20.308747,-32.914803,20.602196,-32.471523,20.864826,
-32.010709,21.095310,-31.534690,21.292483,-31.045868,21.455351,-30.546714,21.583090,-30.039748,21.675055,-29.527531,21.730781,-29.012655,21.749988,-29.012649,21.749989,-29.006323,21.748742,-29.000000,21.750000,-5.000000,21.750000,-4.981035,21.746228,-4.981035,21.746228,$1*%
G04 Aperture macros list end*
%TA.AperFunction,EtchedComponent*%
%ADD10C,0.250000*%
%TD*%
%TA.AperFunction,ComponentPad*%
%ADD11C,3.200000*%
%TD*%
%TA.AperFunction,SMDPad,CuDef*%
%ADD12RoundRect,0.125000X0.625000X-0.125000X0.625000X0.125000X-0.625000X0.125000X-0.625000X-0.125000X0*%
%TD*%
%TA.AperFunction,ComponentPad*%
%ADD13C,2.000000*%
%TD*%
%TA.AperFunction,SMDPad,CuDef*%
%ADD14R,1.300000X2.000000*%
%TD*%
%TA.AperFunction,ComponentPad*%
%ADD15C,0.350000*%
%TD*%
%TA.AperFunction,ComponentPad*%
%ADD16R,1.700000X1.700000*%
%TD*%
%TA.AperFunction,ComponentPad*%
%ADD17O,1.700000X1.700000*%
%TD*%
%TA.AperFunction,ComponentPad*%
%ADD18RoundRect,0.250000X-0.600000X-0.675000X0.600000X-0.675000X0.600000X0.675000X-0.600000X0.675000X0*%
%TD*%
%TA.AperFunction,ComponentPad*%
%ADD19O,1.700000X1.850000*%
%TD*%
%TA.AperFunction,ComponentPad*%
%ADD20C,1.200000*%
%TD*%
%TA.AperFunction,ComponentPad*%
%ADD21C,0.600000*%
%TD*%
%TA.AperFunction,SMDPad,CuDef*%
%ADD22FreePoly0,90.000000*%
%TD*%
%TA.AperFunction,SMDPad,CuDef*%
%ADD23R,0.400000X0.200000*%
%TD*%
%TA.AperFunction,SMDPad,CuDef*%
%ADD24R,0.200000X0.200000*%
%TD*%
%TA.AperFunction,SMDPad,CuDef*%
%ADD25R,0.200000X1.000000*%
%TD*%
%TA.AperFunction,SMDPad,CuDef*%
%ADD26R,0.600000X0.600000*%
%TD*%
%TA.AperFunction,SMDPad,CuDef*%
%ADD27R,0.600000X0.200000*%
%TD*%
%TA.AperFunction,SMDPad,CuDef*%
%ADD28R,0.600000X0.400000*%
%TD*%
%TA.AperFunction,SMDPad,CuDef*%
%ADD29R,0.200000X1.400000*%
%TD*%
%TA.AperFunction,SMDPad,CuDef*%
%ADD30R,0.200000X0.600000*%
%TD*%
%TA.AperFunction,SMDPad,CuDef*%
%ADD31R,0.200000X0.400000*%
%TD*%
%TA.AperFunction,SMDPad,CuDef*%
%ADD32R,0.800000X0.200000*%
%TD*%
%TA.AperFunction,SMDPad,CuDef*%
%ADD33R,1.200000X0.200000*%
%TD*%
%TA.AperFunction,SMDPad,CuDef*%
%ADD34R,0.200000X0.800000*%
%TD*%
%TA.AperFunction,ViaPad*%
%ADD35C,0.800000*%
%TD*%
%TA.AperFunction,Conductor*%
%ADD36C,0.500000*%
%TD*%
%TA.AperFunction,Conductor*%
%ADD37C,0.250000*%
%TD*%
G04 APERTURE END LIST*
D10*
%TO.C,AJK2*%
X87900000Y-90100000D02*
X90900000Y-94300000D01*
X87900000Y-90100000D02*
X87900000Y-94300000D01*
X87900000Y-92200000D02*
X89400000Y-92200000D01*
X87900000Y-92200000D02*
X86100000Y-94300000D01*
X86100000Y-90200000D02*
X87900000Y-92200000D01*
X87900000Y-94300000D02*
G75*
G03*
X89400000Y-94300000I750000J0D01*
G01*
%TD*%
D11*
%TO.P,H2,*%
%TO.N,*%
X88000000Y-88000000D03*
%TD*%
%TO.P,H1,*%
%TO.N,*%
X112000000Y-112000000D03*
%TD*%
D12*
%TO.P,D2,1,K*%
%TO.N,GND*%
X112000000Y-94900000D03*
%TO.P,D2,2,A*%
%TO.N,Net-(D2-Pad2)*%
X112000000Y-93100000D03*
%TD*%
%TO.P,D3,1,K*%
%TO.N,GND*%
X112000000Y-88900000D03*
%TO.P,D3,2,A*%
%TO.N,Net-(D3-Pad2)*%
X112000000Y-87100000D03*
%TD*%
D13*
%TO.P,SW1,1,1*%
%TO.N,GND*%
X90750000Y-96750000D03*
D14*
X90750000Y-95800000D03*
X90750000Y-104200000D03*
D13*
X90750000Y-103250000D03*
%TO.P,SW1,2,2*%
%TO.N,Net-(R11-Pad2)*%
X86250000Y-96750000D03*
D14*
X86250000Y-104200000D03*
X86250000Y-95800000D03*
D13*
X86250000Y-103250000D03*
%TD*%
D12*
%TO.P,D1,1,K*%
%TO.N,GND*%
X112000000Y-100900000D03*
%TO.P,D1,2,A*%
%TO.N,Net-(D1-Pad2)*%
X112000000Y-99100000D03*
%TD*%
D15*
%TO.P,U1,41,COPPER*%
%TO.N,GND*%
X101000000Y-101000000D03*
X100000000Y-100000000D03*
X99000000Y-99000000D03*
X101000000Y-99000000D03*
X99000000Y-101000000D03*
%TD*%
D16*
%TO.P,J1,1,Pin_1*%
%TO.N,GND*%
X112000000Y-107270000D03*
D17*
%TO.P,J1,2,Pin_2*%
%TO.N,Net-(J1-Pad2)*%
X112000000Y-104730000D03*
%TD*%
D18*
%TO.P,J3,1,Pin_1*%
%TO.N,GND*%
X96250000Y-108900000D03*
D19*
%TO.P,J3,2,Pin_2*%
%TO.N,+5V*%
X98750000Y-108900000D03*
%TO.P,J3,3,Pin_3*%
%TO.N,Net-(J2-Pad3)*%
X101250000Y-108900000D03*
%TO.P,J3,4,Pin_4*%
%TO.N,Net-(J2-Pad4)*%
X103750000Y-108900000D03*
%TD*%
D20*
%TO.P,TP1,1,1*%
%TO.N,Net-(L1-Pad1)*%
X101250000Y-92400000D03*
%TO.P,TP1,2,2*%
%TO.N,Net-(L2-Pad2)*%
X98750000Y-92400000D03*
%TD*%
D21*
%TO.P,A1,*%
%TO.N,*%
X98000000Y-83000000D03*
X100000000Y-81000000D03*
X102000000Y-83000000D03*
D22*
X102500000Y-83000000D03*
%TD*%
D16*
%TO.P,J2,1,Pin_1*%
%TO.N,GND*%
X96190000Y-112000000D03*
D17*
%TO.P,J2,2,Pin_2*%
%TO.N,+5V*%
X98730000Y-112000000D03*
%TO.P,J2,3,Pin_3*%
%TO.N,Net-(J2-Pad3)*%
X101270000Y-112000000D03*
%TO.P,J2,4,Pin_4*%
%TO.N,Net-(J2-Pad4)*%
X103810000Y-112000000D03*
%TD*%
D23*
%TO.P,U3,*%
%TO.N,*%
X88400000Y-111900000D03*
D24*
X88500000Y-110700000D03*
D23*
X88200000Y-110300000D03*
D25*
X86500000Y-110100000D03*
D24*
X87100000Y-113300000D03*
X88700000Y-111300000D03*
X86500000Y-112500000D03*
D26*
X89900000Y-112900000D03*
D23*
X88200000Y-109900000D03*
D24*
X88700000Y-112900000D03*
D27*
X87100000Y-111500000D03*
D28*
X88500000Y-109600000D03*
D27*
X86700000Y-111100000D03*
D24*
X88500000Y-112700000D03*
X90300000Y-111300000D03*
X87500000Y-111700000D03*
X88100000Y-110700000D03*
D23*
X88800000Y-113100000D03*
D29*
X90500000Y-110100000D03*
D30*
X88900000Y-109700000D03*
X88900000Y-112100000D03*
D31*
X90100000Y-111600000D03*
D24*
X86700000Y-111300000D03*
D32*
X88400000Y-110900000D03*
D24*
X90500000Y-111500000D03*
D23*
X88200000Y-112500000D03*
D33*
X89800000Y-113500000D03*
D24*
X86900000Y-112500000D03*
D31*
X87700000Y-113000000D03*
D23*
X90400000Y-111900000D03*
D27*
X87300000Y-112100000D03*
D30*
X88100000Y-111500000D03*
D24*
X88700000Y-111700000D03*
D33*
X87000000Y-109500000D03*
D31*
X87700000Y-111800000D03*
D29*
X87700000Y-110100000D03*
D27*
X87500000Y-111100000D03*
D24*
X87300000Y-112700000D03*
D23*
X89400000Y-111900000D03*
D27*
X86700000Y-111700000D03*
D26*
X87100000Y-110100000D03*
D33*
X87000000Y-110700000D03*
D31*
X88500000Y-110000000D03*
D24*
X88300000Y-111100000D03*
D27*
X89700000Y-111300000D03*
D31*
X87900000Y-112000000D03*
D23*
X87800000Y-112700000D03*
D24*
X87300000Y-113100000D03*
X86700000Y-113300000D03*
D32*
X87800000Y-113500000D03*
X88400000Y-112300000D03*
D26*
X89900000Y-110100000D03*
D23*
X86600000Y-112900000D03*
D33*
X89000000Y-111500000D03*
D24*
X89100000Y-111700000D03*
D29*
X90500000Y-112900000D03*
D31*
X88700000Y-113400000D03*
D25*
X89300000Y-110100000D03*
D30*
X87900000Y-111300000D03*
D23*
X86600000Y-111900000D03*
D24*
X90100000Y-111100000D03*
D27*
X86700000Y-113500000D03*
D33*
X89800000Y-110700000D03*
D25*
X89300000Y-112900000D03*
D31*
X89900000Y-111800000D03*
D24*
X87300000Y-112300000D03*
D33*
X89800000Y-112300000D03*
D27*
X87500000Y-112500000D03*
X89100000Y-111100000D03*
D33*
X89800000Y-109500000D03*
D24*
X88300000Y-112100000D03*
D34*
X88900000Y-110600000D03*
D24*
X87500000Y-111300000D03*
%TD*%
D35*
%TO.N,+3V3*%
X99650000Y-94825000D03*
X92154664Y-92660718D03*
X96600000Y-94875000D03*
%TO.N,Net-(C9-Pad1)*%
X97189365Y-95786617D03*
X94150000Y-93275000D03*
%TO.N,+5V*%
X105376238Y-94400500D03*
%TO.N,+3V3*%
X107200000Y-96509732D03*
%TO.N,GND*%
X112000000Y-101600000D03*
X112000000Y-95600000D03*
X100000000Y-92825000D03*
X109000000Y-107100000D03*
X109000000Y-105500000D03*
X109000000Y-102974990D03*
X106200000Y-95500000D03*
X106204578Y-101328835D03*
X96311240Y-103613359D03*
X93225000Y-103575000D03*
X110642980Y-97631700D03*
X112000000Y-89600000D03*
%TO.N,+3V3*%
X107198632Y-103625500D03*
X106246541Y-107243575D03*
X91500000Y-106000000D03*
%TO.N,+5V*%
X110688884Y-96374744D03*
X104726275Y-96231010D03*
%TO.N,Net-(D1-Pad2)*%
X110900000Y-101900000D03*
X112000000Y-98400000D03*
%TO.N,Net-(D2-Pad2)*%
X112000000Y-92400000D03*
X112000000Y-97300000D03*
%TO.N,Net-(D3-Pad2)*%
X108900000Y-94600000D03*
X112000000Y-86400000D03*
%TO.N,Net-(J1-Pad2)*%
X106700000Y-105200000D03*
%TO.N,Net-(J2-Pad4)*%
X105263126Y-107425011D03*
%TD*%
D36*
%TO.N,GND*%
X100000000Y-93973623D02*
X100000000Y-92825000D01*
D37*
%TO.N,Net-(C9-Pad1)*%
X95475000Y-94600000D02*
G75*
G03*
X94150000Y-93275000I-1325002J-2D01*
G01*
X95475000Y-94600000D02*
X95475000Y-95000000D01*
X97150783Y-95748035D02*
X97189365Y-95786617D01*
X96140717Y-95748035D02*
X97150783Y-95748035D01*
X96140717Y-95748034D02*
G75*
G02*
X95475001Y-95000000I89753J750122D01*
G01*
D36*
%TO.N,GND*%
X100499501Y-94473124D02*
X100499501Y-99500499D01*
D37*
%TO.N,+3V3*%
X96600000Y-94875000D02*
G75*
G02*
X96650000Y-94825000I50001J-1D01*
G01*
D36*
%TO.N,GND*%
X100499501Y-99500499D02*
X100000000Y-100000000D01*
X100000000Y-93973623D02*
X100499501Y-94473124D01*
D37*
%TO.N,+3V3*%
X99650000Y-94825000D02*
X96650000Y-94825000D01*
X94175000Y-92450000D02*
G75*
G02*
X96600000Y-94875000I0J-2425000D01*
G01*
X92154664Y-92660718D02*
G75*
G02*
X92365382Y-92450000I210718J0D01*
G01*
X94175000Y-92450000D02*
X92365382Y-92450000D01*
%TO.N,+5V*%
X108066006Y-95733994D02*
G75*
G03*
X108706756Y-96374744I640749J-1D01*
G01*
X105376238Y-94400500D02*
G75*
G02*
X105376738Y-94400000I498J2D01*
G01*
X110688884Y-96374744D02*
X108706756Y-96374744D01*
X107250000Y-94400000D02*
G75*
G02*
X108066006Y-95216006I-1J-816007D01*
G01*
X108066006Y-95733994D02*
X108066006Y-95216006D01*
X107250000Y-94400000D02*
X105376738Y-94400000D01*
D36*
X104725000Y-96232285D02*
X104726275Y-96231010D01*
%TO.N,GND*%
X103100000Y-96950000D02*
G75*
G02*
X102950000Y-97100000I-150000J0D01*
G01*
X100000000Y-97100000D02*
X100000000Y-100000000D01*
%TO.N,+5V*%
X98750000Y-108900000D02*
X99160050Y-108489949D01*
%TO.N,GND*%
X103350000Y-95250000D02*
G75*
G03*
X103100000Y-95500000I-1J-249999D01*
G01*
%TO.N,+5V*%
X101550000Y-107500000D02*
X103440381Y-107500000D01*
%TO.N,GND*%
X106200000Y-95500000D02*
G75*
G03*
X105950000Y-95250000I-249999J1D01*
G01*
%TO.N,+5V*%
X101550000Y-107500001D02*
G75*
G03*
X99160050Y-108489949I-1J-3379899D01*
G01*
%TO.N,GND*%
X103100000Y-96950000D02*
X103100000Y-95500000D01*
%TO.N,+5V*%
X104724999Y-105967894D02*
G75*
G02*
X104224999Y-107174999I-1707107J1D01*
G01*
X104725000Y-105967894D02*
X104725000Y-96232285D01*
X104225000Y-107175000D02*
G75*
G02*
X103440381Y-107500000I-784617J784614D01*
G01*
%TO.N,GND*%
X100000000Y-97100000D02*
X102950000Y-97100000D01*
X103350000Y-95250000D02*
X105950000Y-95250000D01*
D37*
%TO.N,Net-(D1-Pad2)*%
X110500001Y-99200001D02*
X110500001Y-100934317D01*
X112000000Y-98400000D02*
X111300002Y-98400000D01*
X110500001Y-99200001D02*
G75*
G02*
X111300002Y-98400000I800001J0D01*
G01*
%TO.N,GND*%
X109000000Y-102974990D02*
X110875010Y-102974990D01*
X110875010Y-102974990D02*
G75*
G03*
X112000000Y-101850000I0J1124990D01*
G01*
X112000000Y-101600000D02*
X112000000Y-101850000D01*
%TO.N,Net-(D3-Pad2)*%
X110500000Y-87700000D02*
X110500000Y-91457538D01*
X112000000Y-86400000D02*
X111800000Y-86400000D01*
X110500000Y-87700000D02*
G75*
G02*
X111800000Y-86400000I1299999J1D01*
G01*
%TO.N,Net-(D2-Pad2)*%
X110674990Y-93474990D02*
X110674990Y-94562060D01*
X112000000Y-92400000D02*
X111749980Y-92400000D01*
X110674990Y-93474990D02*
G75*
G02*
X111749980Y-92400000I1074989J1D01*
G01*
%TO.N,+3V3*%
X94000000Y-109700000D02*
X92050000Y-107750000D01*
X91500000Y-106422183D02*
G75*
G03*
X92050000Y-107750000I1877821J2D01*
G01*
X91500000Y-106422183D02*
X91500000Y-106000000D01*
X105618358Y-108768358D02*
G75*
G03*
X106246541Y-107251791I-1516562J1516565D01*
G01*
X103849990Y-110150010D02*
G75*
G03*
X104510156Y-109876560I-4J933624D01*
G01*
X94000000Y-109700000D02*
G75*
G03*
X95086420Y-110150010I1086422J1086423D01*
G01*
X103849990Y-110150010D02*
X95086420Y-110150010D01*
X106246541Y-107243575D02*
X106246541Y-107251791D01*
X105618358Y-108768358D02*
X104510156Y-109876560D01*
%TO.N,GND*%
X98324999Y-110824999D02*
X103754862Y-110824999D01*
X96686180Y-111503820D02*
G75*
G02*
X98324999Y-110824999I1638821J-1638823D01*
G01*
X96686180Y-111503820D02*
X96190000Y-112000000D01*
X104511563Y-110511563D02*
G75*
G02*
X103754862Y-110824999I-756701J756699D01*
G01*
X108717296Y-107100000D02*
G75*
G03*
X107361563Y-107661563I-1J-1917293D01*
G01*
X104511563Y-110511563D02*
X107361563Y-107661563D01*
X108717296Y-107100000D02*
X109000000Y-107100000D01*
%TO.N,+3V3*%
X106475500Y-103625500D02*
X107198632Y-103625500D01*
X106475500Y-103625500D02*
G75*
G03*
X105750000Y-104351000I0J-725500D01*
G01*
X105750001Y-106044819D02*
G75*
G03*
X106246542Y-107243574I1695294J-1D01*
G01*
X105750000Y-106044819D02*
X105750000Y-104351000D01*
%TO.N,Net-(J1-Pad2)*%
X106700000Y-105200000D02*
G75*
G02*
X107170000Y-104730000I470001J-1D01*
G01*
X112000000Y-104730000D02*
X107170000Y-104730000D01*
%TO.N,Net-(D1-Pad2)*%
X110900000Y-101900000D02*
G75*
G02*
X110500001Y-100934317I965672J965678D01*
G01*
%TO.N,GND*%
X109000001Y-100150000D02*
G75*
G02*
X109618946Y-98655736I2113211J-1D01*
G01*
X110642980Y-97631700D02*
X109618945Y-98655735D01*
X109000000Y-100150000D02*
X109000000Y-102974990D01*
%TO.N,Net-(D2-Pad2)*%
X111205991Y-95844009D02*
X111655991Y-96294009D01*
X112000000Y-97300000D02*
X112000000Y-97124520D01*
X111655991Y-96294009D02*
G75*
G02*
X112000000Y-97124520I-830512J-830512D01*
G01*
X111205991Y-95844009D02*
G75*
G02*
X110674990Y-94562060I1281944J1281948D01*
G01*
X112000000Y-92400000D02*
X112000000Y-93050480D01*
%TO.N,Net-(D3-Pad2)*%
X109975000Y-92725000D02*
X109450000Y-93250000D01*
X109450000Y-93250000D02*
G75*
G03*
X108900000Y-94577817I1327814J-1327816D01*
G01*
X108900000Y-94600000D02*
X108900000Y-94577817D01*
X109975000Y-92725000D02*
G75*
G03*
X110500000Y-91457538I-1267464J1267463D01*
G01*
%TO.N,+3V3*%
X107200000Y-103624132D02*
X107198632Y-103625500D01*
X107200000Y-96509732D02*
X107200000Y-103624132D01*
%TO.N,GND*%
X109000000Y-105500000D02*
X109000000Y-107100000D01*
X112000000Y-89700000D02*
X112000000Y-88950010D01*
X90750000Y-103250000D02*
X92900000Y-103250000D01*
D36*
X96250000Y-108900000D02*
X96250000Y-107150000D01*
D37*
X111830000Y-107100000D02*
X112000000Y-107270000D01*
X109000000Y-107100000D02*
X111830000Y-107100000D01*
X112000000Y-95600000D02*
X112000000Y-94950010D01*
X112000000Y-101600000D02*
X112000000Y-100950010D01*
X92900000Y-103250000D02*
X93225000Y-103575000D01*
%TO.N,Net-(D1-Pad2)*%
X112000000Y-98400000D02*
X112000000Y-99049990D01*
%TO.N,Net-(D3-Pad2)*%
X112000000Y-86400000D02*
X112000000Y-87049990D01*
%TO.N,Net-(J2-Pad4)*%
X105224989Y-107425011D02*
X105263126Y-107425011D01*
X103750000Y-108900000D02*
X105224989Y-107425011D01*
%TD*%
%TA.AperFunction,Conductor*%
%TO.N,GND*%
G36*
X103545612Y-93058047D02*
G01*
X103584530Y-93084530D01*
X104483982Y-93983982D01*
X104518008Y-94046294D01*
X104514720Y-94112013D01*
X104482696Y-94210572D01*
X104482006Y-94217133D01*
X104482006Y-94217135D01*
X104466846Y-94361373D01*
X104462734Y-94400500D01*
X104482696Y-94590428D01*
X104541711Y-94772056D01*
X104637198Y-94937444D01*
X104641616Y-94942351D01*
X104641617Y-94942352D01*
X104727694Y-95037950D01*
X104764985Y-95079366D01*
X104770327Y-95083247D01*
X104770329Y-95083249D01*
X104785917Y-95094574D01*
X104829271Y-95150796D01*
X104835346Y-95221532D01*
X104802215Y-95284324D01*
X104740395Y-95319236D01*
X104711856Y-95322510D01*
X104630788Y-95322510D01*
X104624336Y-95323882D01*
X104624331Y-95323882D01*
X104537388Y-95342363D01*
X104443987Y-95362216D01*
X104437957Y-95364901D01*
X104437956Y-95364901D01*
X104275553Y-95437207D01*
X104275551Y-95437208D01*
X104269523Y-95439892D01*
X104115022Y-95552144D01*
X104110601Y-95557054D01*
X104110600Y-95557055D01*
X104035072Y-95640938D01*
X103987235Y-95694066D01*
X103891748Y-95859454D01*
X103832733Y-96041082D01*
X103832043Y-96047643D01*
X103832043Y-96047645D01*
X103817767Y-96183473D01*
X103812771Y-96231010D01*
X103813461Y-96237575D01*
X103828606Y-96381668D01*
X103832733Y-96420938D01*
X103891748Y-96602566D01*
X103947806Y-96699660D01*
X103949619Y-96702801D01*
X103966500Y-96765801D01*
X103966500Y-97274000D01*
X103946498Y-97342121D01*
X103892842Y-97388614D01*
X103840500Y-97400000D01*
X100900000Y-97400000D01*
X100900000Y-97500000D01*
X103840500Y-97500000D01*
X103908621Y-97520002D01*
X103955114Y-97573658D01*
X103966500Y-97626000D01*
X103966500Y-102374000D01*
X103946498Y-102442121D01*
X103892842Y-102488614D01*
X103840500Y-102500000D01*
X100900000Y-102500000D01*
X100900000Y-102600000D01*
X103840500Y-102600000D01*
X103908621Y-102620002D01*
X103955114Y-102673658D01*
X103966500Y-102726000D01*
X103966500Y-105911911D01*
X103965506Y-105927703D01*
X103961775Y-105957237D01*
X103962463Y-105964252D01*
X103963774Y-105977628D01*
X103963987Y-105999808D01*
X103955598Y-106106403D01*
X103952505Y-106125930D01*
X103938717Y-106183365D01*
X103922386Y-106251388D01*
X103916278Y-106270187D01*
X103866898Y-106389401D01*
X103857928Y-106407004D01*
X103830074Y-106452457D01*
X103790515Y-106517011D01*
X103778894Y-106533006D01*
X103716330Y-106606259D01*
X103703456Y-106618541D01*
X103703469Y-106618555D01*
X103698415Y-106623470D01*
X103692853Y-106627784D01*
X103688387Y-106633221D01*
X103688381Y-106633227D01*
X103685020Y-106637319D01*
X103664359Y-106657307D01*
X103629100Y-106684362D01*
X103600613Y-106700808D01*
X103546582Y-106723188D01*
X103514811Y-106731701D01*
X103477523Y-106736610D01*
X103459317Y-106737676D01*
X103458027Y-106737658D01*
X103451039Y-106736775D01*
X103444032Y-106737462D01*
X103444028Y-106737462D01*
X103408980Y-106740899D01*
X103396684Y-106741500D01*
X101612151Y-106741500D01*
X101594618Y-106740274D01*
X101585624Y-106739010D01*
X101575221Y-106737548D01*
X101575218Y-106737548D01*
X101571313Y-106736999D01*
X101563171Y-106736885D01*
X101553963Y-106736756D01*
X101553956Y-106736756D01*
X101550000Y-106736701D01*
X101546062Y-106737143D01*
X101546055Y-106737143D01*
X101541749Y-106737626D01*
X101533204Y-106738291D01*
X101191731Y-106753200D01*
X101191720Y-106753201D01*
X101188971Y-106753321D01*
X101009831Y-106776905D01*
X100833429Y-106800128D01*
X100833420Y-106800130D01*
X100830690Y-106800489D01*
X100827995Y-106801086D01*
X100827992Y-106801087D01*
X100547882Y-106863186D01*
X100477883Y-106878705D01*
X100475266Y-106879530D01*
X100475259Y-106879532D01*
X100352848Y-106918128D01*
X100133236Y-106987371D01*
X99799371Y-107125663D01*
X99478829Y-107292526D01*
X99174051Y-107486691D01*
X99173405Y-107485677D01*
X99110574Y-107506862D01*
X99068222Y-107501294D01*
X99047874Y-107494976D01*
X99047864Y-107494974D01*
X99042773Y-107493393D01*
X99037487Y-107492692D01*
X99037485Y-107492692D01*
X98909445Y-107475722D01*
X98844543Y-107446943D01*
X98805503Y-107387644D01*
X98800000Y-107350814D01*
X98800000Y-104900000D01*
X98700000Y-104900000D01*
X98700000Y-107346468D01*
X98679998Y-107414589D01*
X98626342Y-107461082D01*
X98589352Y-107471529D01*
X98589174Y-107471551D01*
X98583842Y-107471751D01*
X98578623Y-107472846D01*
X98564916Y-107475722D01*
X98358209Y-107519093D01*
X98353250Y-107521051D01*
X98353248Y-107521052D01*
X98148744Y-107601815D01*
X98148742Y-107601816D01*
X98143779Y-107603776D01*
X98139220Y-107606543D01*
X98139217Y-107606544D01*
X98113336Y-107622249D01*
X97946683Y-107723377D01*
X97772555Y-107874477D01*
X97769168Y-107878608D01*
X97742994Y-107910529D01*
X97684334Y-107950524D01*
X97613364Y-107952455D01*
X97552616Y-107915710D01*
X97538416Y-107896941D01*
X97451937Y-107757193D01*
X97442901Y-107745792D01*
X97328171Y-107631261D01*
X97316760Y-107622249D01*
X97178757Y-107537184D01*
X97165576Y-107531037D01*
X97011290Y-107479862D01*
X96997914Y-107476995D01*
X96903562Y-107467328D01*
X96897145Y-107467000D01*
X96522115Y-107467000D01*
X96506876Y-107471475D01*
X96505671Y-107472865D01*
X96504000Y-107480548D01*
X96504000Y-108000000D01*
X95996000Y-108000000D01*
X95996000Y-107485116D01*
X95991525Y-107469877D01*
X95990135Y-107468672D01*
X95982452Y-107467001D01*
X95602905Y-107467001D01*
X95596386Y-107467338D01*
X95500794Y-107477257D01*
X95487400Y-107480149D01*
X95333216Y-107531588D01*
X95320038Y-107537761D01*
X95182193Y-107623063D01*
X95170792Y-107632099D01*
X95056261Y-107746829D01*
X95047249Y-107758240D01*
X94962184Y-107896243D01*
X94956037Y-107909423D01*
X94954628Y-107913672D01*
X94914195Y-107972030D01*
X94848630Y-107999265D01*
X94835036Y-108000000D01*
X93248095Y-108000000D01*
X93179974Y-107979998D01*
X93159000Y-107963095D01*
X92533323Y-107337418D01*
X92522455Y-107325027D01*
X92510565Y-107309531D01*
X92510563Y-107309529D01*
X92505943Y-107303508D01*
X92493882Y-107293845D01*
X92476854Y-107277343D01*
X92377585Y-107161114D01*
X92365964Y-107145119D01*
X92274304Y-106995545D01*
X92265330Y-106977934D01*
X92198195Y-106815856D01*
X92192087Y-106797057D01*
X92177979Y-106738291D01*
X92168144Y-106697327D01*
X92171691Y-106626420D01*
X92197025Y-106583607D01*
X92239040Y-106536944D01*
X92334527Y-106371556D01*
X92393542Y-106189928D01*
X92413504Y-106000000D01*
X92409747Y-105964252D01*
X92394232Y-105816635D01*
X92394232Y-105816633D01*
X92393542Y-105810072D01*
X92334527Y-105628444D01*
X92239040Y-105463056D01*
X92149400Y-105363500D01*
X92115675Y-105326045D01*
X92115674Y-105326044D01*
X92111253Y-105321134D01*
X92051938Y-105278039D01*
X92008585Y-105221818D01*
X92000000Y-105176104D01*
X92000000Y-104176000D01*
X92020002Y-104107879D01*
X92073658Y-104061386D01*
X92126000Y-104050000D01*
X95150000Y-104050000D01*
X95150000Y-103950000D01*
X92280871Y-103950000D01*
X92212750Y-103929998D01*
X92166257Y-103876342D01*
X92156153Y-103806068D01*
X92164462Y-103775783D01*
X92186732Y-103722017D01*
X92189783Y-103712627D01*
X92242885Y-103491446D01*
X92244428Y-103481699D01*
X92262275Y-103254930D01*
X92262275Y-103245070D01*
X92244428Y-103018301D01*
X92242885Y-103008554D01*
X92189783Y-102787373D01*
X92186734Y-102777988D01*
X92099688Y-102567839D01*
X92095207Y-102559045D01*
X92018567Y-102433980D01*
X92000000Y-102368145D01*
X92000000Y-100926000D01*
X92020002Y-100857879D01*
X92073658Y-100811386D01*
X92126000Y-100800000D01*
X95100000Y-100800000D01*
X95100000Y-100700000D01*
X92126000Y-100700000D01*
X92057879Y-100679998D01*
X92011386Y-100626342D01*
X92000000Y-100574000D01*
X92000000Y-97631855D01*
X92018567Y-97566020D01*
X92095207Y-97440955D01*
X92099688Y-97432161D01*
X92186734Y-97222012D01*
X92189783Y-97212627D01*
X92242885Y-96991446D01*
X92244428Y-96981699D01*
X92262275Y-96754930D01*
X92262275Y-96745070D01*
X92244428Y-96518301D01*
X92242885Y-96508554D01*
X92189783Y-96287373D01*
X92186734Y-96277988D01*
X92099688Y-96067839D01*
X92095207Y-96059045D01*
X92051449Y-95987638D01*
X92032911Y-95919104D01*
X92039348Y-95881958D01*
X92943449Y-93169655D01*
X92983966Y-93111355D01*
X93049571Y-93084216D01*
X93062983Y-93083500D01*
X93116686Y-93083500D01*
X93184807Y-93103502D01*
X93231300Y-93157158D01*
X93241996Y-93222670D01*
X93236496Y-93275000D01*
X93237186Y-93281565D01*
X93247358Y-93378342D01*
X93256458Y-93464928D01*
X93315473Y-93646556D01*
X93410960Y-93811944D01*
X93415378Y-93816851D01*
X93415379Y-93816852D01*
X93508699Y-93920494D01*
X93538747Y-93953866D01*
X93693248Y-94066118D01*
X93699276Y-94068802D01*
X93699278Y-94068803D01*
X93861681Y-94141109D01*
X93867712Y-94143794D01*
X93961113Y-94163647D01*
X94048056Y-94182128D01*
X94048061Y-94182128D01*
X94054513Y-94183500D01*
X94245487Y-94183500D01*
X94251939Y-94182128D01*
X94251944Y-94182128D01*
X94338887Y-94163647D01*
X94432288Y-94143794D01*
X94515618Y-94106693D01*
X94585985Y-94097259D01*
X94650282Y-94127365D01*
X94664262Y-94141862D01*
X94717092Y-94206236D01*
X94730810Y-94226767D01*
X94783013Y-94324433D01*
X94792465Y-94347252D01*
X94824610Y-94453220D01*
X94829429Y-94477446D01*
X94837726Y-94561687D01*
X94837457Y-94578187D01*
X94837953Y-94578192D01*
X94837874Y-94585785D01*
X94836882Y-94593318D01*
X94837716Y-94600868D01*
X94840739Y-94628254D01*
X94841500Y-94642081D01*
X94841500Y-94947055D01*
X94840292Y-94964464D01*
X94836953Y-94988399D01*
X94836849Y-95001764D01*
X94837356Y-95005857D01*
X94838877Y-95018144D01*
X94839476Y-95024160D01*
X94843929Y-95083249D01*
X94852938Y-95202808D01*
X94896957Y-95399560D01*
X94898587Y-95403824D01*
X94898587Y-95403826D01*
X94955263Y-95552144D01*
X94968924Y-95587895D01*
X94971148Y-95591872D01*
X94971149Y-95591874D01*
X94994142Y-95632989D01*
X95067331Y-95763865D01*
X95190114Y-95923782D01*
X95193390Y-95926966D01*
X95193392Y-95926968D01*
X95272948Y-96004283D01*
X95334700Y-96064296D01*
X95338405Y-96066976D01*
X95347848Y-96073807D01*
X95391319Y-96129938D01*
X95400000Y-96175897D01*
X95400000Y-99100000D01*
X95500000Y-99100000D01*
X95500000Y-96390759D01*
X95520002Y-96322638D01*
X95573658Y-96276145D01*
X95643932Y-96266041D01*
X95674837Y-96274788D01*
X95676770Y-96275798D01*
X95867084Y-96342355D01*
X96022633Y-96372517D01*
X96031088Y-96374462D01*
X96047661Y-96378880D01*
X96047674Y-96378883D01*
X96051649Y-96379942D01*
X96057400Y-96380691D01*
X96060687Y-96381535D01*
X96063881Y-96381535D01*
X96064902Y-96381668D01*
X96068170Y-96381664D01*
X96068174Y-96381664D01*
X96163898Y-96381535D01*
X96446427Y-96381535D01*
X96514548Y-96401537D01*
X96540059Y-96423221D01*
X96578112Y-96465483D01*
X96732613Y-96577735D01*
X96738641Y-96580419D01*
X96738643Y-96580420D01*
X96901046Y-96652726D01*
X96907077Y-96655411D01*
X97000477Y-96675264D01*
X97087421Y-96693745D01*
X97087426Y-96693745D01*
X97093878Y-96695117D01*
X97284852Y-96695117D01*
X97291304Y-96693745D01*
X97291309Y-96693745D01*
X97378253Y-96675264D01*
X97471653Y-96655411D01*
X97477684Y-96652726D01*
X97640087Y-96580420D01*
X97640089Y-96580419D01*
X97646117Y-96577735D01*
X97800618Y-96465483D01*
X97894337Y-96361397D01*
X97954781Y-96324158D01*
X98025765Y-96325510D01*
X98084750Y-96365023D01*
X98098018Y-96386129D01*
X98100000Y-96400000D01*
X102500000Y-96500000D01*
X102500000Y-93956116D01*
X102520002Y-93887995D01*
X102541710Y-93862461D01*
X103411145Y-93079970D01*
X103475160Y-93049267D01*
X103545612Y-93058047D01*
G37*
%TD.AperFunction*%
%TA.AperFunction,Conductor*%
G36*
X106549431Y-95053502D02*
G01*
X106570405Y-95070405D01*
X106942534Y-95442534D01*
X106976560Y-95504846D01*
X106971495Y-95575661D01*
X106928948Y-95632497D01*
X106904688Y-95646736D01*
X106749278Y-95715929D01*
X106749276Y-95715930D01*
X106743248Y-95718614D01*
X106588747Y-95830866D01*
X106584326Y-95835776D01*
X106584325Y-95835777D01*
X106542744Y-95881958D01*
X106460960Y-95972788D01*
X106365473Y-96138176D01*
X106306458Y-96319804D01*
X106305768Y-96326365D01*
X106305768Y-96326367D01*
X106295588Y-96423225D01*
X106286496Y-96509732D01*
X106287186Y-96516297D01*
X106295593Y-96596281D01*
X106306458Y-96699660D01*
X106365473Y-96881288D01*
X106460960Y-97046676D01*
X106534137Y-97127947D01*
X106564853Y-97191953D01*
X106566500Y-97212256D01*
X106566500Y-102864163D01*
X106546498Y-102932284D01*
X106492842Y-102978777D01*
X106450386Y-102989775D01*
X106262248Y-103004581D01*
X106257441Y-103005735D01*
X106257435Y-103005736D01*
X106127542Y-103036921D01*
X106054247Y-103054518D01*
X106049676Y-103056411D01*
X106049674Y-103056412D01*
X105861193Y-103134483D01*
X105861189Y-103134485D01*
X105856619Y-103136378D01*
X105852399Y-103138964D01*
X105675335Y-103247469D01*
X105606801Y-103266007D01*
X105539125Y-103244551D01*
X105493792Y-103189911D01*
X105483500Y-103140036D01*
X105483500Y-96770218D01*
X105500381Y-96707218D01*
X105557498Y-96608289D01*
X105557499Y-96608288D01*
X105560802Y-96602566D01*
X105619817Y-96420938D01*
X105623945Y-96381668D01*
X105639089Y-96237575D01*
X105639779Y-96231010D01*
X105634783Y-96183473D01*
X105620507Y-96047645D01*
X105620507Y-96047643D01*
X105619817Y-96041082D01*
X105560802Y-95859454D01*
X105465315Y-95694066D01*
X105417479Y-95640938D01*
X105341950Y-95557055D01*
X105341949Y-95557054D01*
X105337528Y-95552144D01*
X105316596Y-95536936D01*
X105273242Y-95480714D01*
X105267167Y-95409978D01*
X105300298Y-95347186D01*
X105362118Y-95312274D01*
X105390657Y-95309000D01*
X105471725Y-95309000D01*
X105478177Y-95307628D01*
X105478182Y-95307628D01*
X105565125Y-95289147D01*
X105658526Y-95269294D01*
X105664557Y-95266609D01*
X105826960Y-95194303D01*
X105826962Y-95194302D01*
X105832990Y-95191618D01*
X105889177Y-95150796D01*
X105977046Y-95086955D01*
X105987491Y-95079366D01*
X105991906Y-95074463D01*
X105996818Y-95070040D01*
X105997814Y-95071146D01*
X106051698Y-95037950D01*
X106084888Y-95033500D01*
X106481310Y-95033500D01*
X106549431Y-95053502D01*
G37*
%TD.AperFunction*%
%TD*%
M02*
