%TF.GenerationSoftware,KiCad,Pcbnew,(5.1.9-0-10_14)*%
%TF.CreationDate,2021-05-09T13:33:21+01:00*%
%TF.ProjectId,PN532,504e3533-322e-46b6-9963-61645f706362,6*%
%TF.SameCoordinates,Original*%
%TF.FileFunction,Legend,Top*%
%TF.FilePolarity,Positive*%
%FSLAX46Y46*%
G04 Gerber Fmt 4.6, Leading zero omitted, Abs format (unit mm)*
G04 Created by KiCad (PCBNEW (5.1.9-0-10_14)) date 2021-05-09 13:33:21*
%MOMM*%
%LPD*%
G01*
G04 APERTURE LIST*
%ADD10C,0.032000*%
%ADD11C,0.080000*%
%ADD12C,0.100000*%
%ADD13C,0.150000*%
%ADD14C,0.120000*%
%ADD15C,0.050000*%
G04 APERTURE END LIST*
D10*
X111043860Y-105360000D02*
X111043860Y-105360000D01*
X111074703Y-105360825D02*
X111043860Y-105360000D01*
X111105139Y-105363183D02*
X111074703Y-105360825D01*
X111135131Y-105367036D02*
X111105139Y-105363183D01*
X111164642Y-105372346D02*
X111135131Y-105367036D01*
X111193634Y-105379076D02*
X111164642Y-105372346D01*
X111222069Y-105387189D02*
X111193634Y-105379076D01*
X111249910Y-105396646D02*
X111222069Y-105387189D01*
X111277119Y-105407409D02*
X111249910Y-105396646D01*
X111303659Y-105419442D02*
X111277119Y-105407409D01*
X111329492Y-105432707D02*
X111303659Y-105419442D01*
X111354580Y-105447166D02*
X111329492Y-105432707D01*
X111378887Y-105462781D02*
X111354580Y-105447166D01*
X111402374Y-105479515D02*
X111378887Y-105462781D01*
X111425004Y-105497330D02*
X111402374Y-105479515D01*
X111446740Y-105516189D02*
X111425004Y-105497330D01*
X111467543Y-105536053D02*
X111446740Y-105516189D01*
X111487376Y-105556886D02*
X111467543Y-105536053D01*
X111506202Y-105578650D02*
X111487376Y-105556886D01*
X111523983Y-105601307D02*
X111506202Y-105578650D01*
X111540682Y-105624819D02*
X111523983Y-105601307D01*
X111556261Y-105649149D02*
X111540682Y-105624819D01*
X111570682Y-105674259D02*
X111556261Y-105649149D01*
X111583908Y-105700112D02*
X111570682Y-105674259D01*
X111595901Y-105726670D02*
X111583908Y-105700112D01*
X111606624Y-105753896D02*
X111595901Y-105726670D01*
X111616039Y-105781751D02*
X111606624Y-105753896D01*
X111624108Y-105810198D02*
X111616039Y-105781751D01*
X111630795Y-105839200D02*
X111624108Y-105810198D01*
X111636061Y-105868718D02*
X111630795Y-105839200D01*
X111639869Y-105898716D02*
X111636061Y-105868718D01*
X111642181Y-105929156D02*
X111639869Y-105898716D01*
X111642960Y-105960000D02*
X111642181Y-105929156D01*
X111642627Y-105980046D02*
X111642960Y-105960000D01*
X111641631Y-105999983D02*
X111642627Y-105980046D01*
X111639981Y-106019797D02*
X111641631Y-105999983D01*
X111637684Y-106039475D02*
X111639981Y-106019797D01*
X111634749Y-106059003D02*
X111637684Y-106039475D01*
X111631183Y-106078367D02*
X111634749Y-106059003D01*
X111626995Y-106097554D02*
X111631183Y-106078367D01*
X111622191Y-106116550D02*
X111626995Y-106097554D01*
X111616781Y-106135341D02*
X111622191Y-106116550D01*
X111610771Y-106153914D02*
X111616781Y-106135341D01*
X111604171Y-106172255D02*
X111610771Y-106153914D01*
X111596987Y-106190350D02*
X111604171Y-106172255D01*
X111589227Y-106208185D02*
X111596987Y-106190350D01*
X111580901Y-106225748D02*
X111589227Y-106208185D01*
X111572014Y-106243024D02*
X111580901Y-106225748D01*
X111562576Y-106260000D02*
X111572014Y-106243024D01*
X111552594Y-106276661D02*
X111562576Y-106260000D01*
X111542075Y-106292995D02*
X111552594Y-106276661D01*
X111531029Y-106308988D02*
X111542075Y-106292995D01*
X111519463Y-106324625D02*
X111531029Y-106308988D01*
X111507384Y-106339894D02*
X111519463Y-106324625D01*
X111494801Y-106354781D02*
X111507384Y-106339894D01*
X111481721Y-106369272D02*
X111494801Y-106354781D01*
X111468153Y-106383353D02*
X111481721Y-106369272D01*
X111454103Y-106397010D02*
X111468153Y-106383353D01*
X111439581Y-106410231D02*
X111454103Y-106397010D01*
X111424594Y-106423001D02*
X111439581Y-106410231D01*
X111409150Y-106435307D02*
X111424594Y-106423001D01*
X111393257Y-106447135D02*
X111409150Y-106435307D01*
X111376922Y-106458472D02*
X111393257Y-106447135D01*
X111360154Y-106469303D02*
X111376922Y-106458472D01*
X111342960Y-106479615D02*
X111360154Y-106469303D01*
X111325433Y-106489349D02*
X111342960Y-106479615D01*
X111307669Y-106498455D02*
X111325433Y-106489349D01*
X111289684Y-106506933D02*
X111307669Y-106498455D01*
X111271494Y-106514783D02*
X111289684Y-106506933D01*
X111253115Y-106522005D02*
X111271494Y-106514783D01*
X111234562Y-106528599D02*
X111253115Y-106522005D01*
X111215852Y-106534565D02*
X111234562Y-106528599D01*
X111196999Y-106539903D02*
X111215852Y-106534565D01*
X111178020Y-106544613D02*
X111196999Y-106539903D01*
X111158931Y-106548695D02*
X111178020Y-106544613D01*
X111139747Y-106552149D02*
X111158931Y-106548695D01*
X111120485Y-106554975D02*
X111139747Y-106552149D01*
X111101159Y-106557173D02*
X111120485Y-106554975D01*
X111081786Y-106558743D02*
X111101159Y-106557173D01*
X111062381Y-106559685D02*
X111081786Y-106558743D01*
X111042960Y-106560000D02*
X111062381Y-106559685D01*
X111023540Y-106559685D02*
X111042960Y-106560000D01*
X111004135Y-106558743D02*
X111023540Y-106559685D01*
X110984762Y-106557173D02*
X111004135Y-106558743D01*
X110965436Y-106554975D02*
X110984762Y-106557173D01*
X110946174Y-106552149D02*
X110965436Y-106554975D01*
X110926990Y-106548695D02*
X110946174Y-106552149D01*
X110907901Y-106544613D02*
X110926990Y-106548695D01*
X110888922Y-106539903D02*
X110907901Y-106544613D01*
X110870069Y-106534565D02*
X110888922Y-106539903D01*
X110851359Y-106528599D02*
X110870069Y-106534565D01*
X110832806Y-106522005D02*
X110851359Y-106528599D01*
X110814427Y-106514783D02*
X110832806Y-106522005D01*
X110796237Y-106506933D02*
X110814427Y-106514783D01*
X110778252Y-106498455D02*
X110796237Y-106506933D01*
X110760488Y-106489349D02*
X110778252Y-106498455D01*
X110742960Y-106479615D02*
X110760488Y-106489349D01*
X110725767Y-106469303D02*
X110742960Y-106479615D01*
X110708999Y-106458472D02*
X110725767Y-106469303D01*
X110692664Y-106447135D02*
X110708999Y-106458472D01*
X110676771Y-106435307D02*
X110692664Y-106447135D01*
X110661327Y-106423001D02*
X110676771Y-106435307D01*
X110646340Y-106410231D02*
X110661327Y-106423001D01*
X110631818Y-106397010D02*
X110646340Y-106410231D01*
X110617768Y-106383353D02*
X110631818Y-106397010D01*
X110604200Y-106369272D02*
X110617768Y-106383353D01*
X110591120Y-106354781D02*
X110604200Y-106369272D01*
X110578537Y-106339894D02*
X110591120Y-106354781D01*
X110566458Y-106324625D02*
X110578537Y-106339894D01*
X110554892Y-106308988D02*
X110566458Y-106324625D01*
X110543846Y-106292995D02*
X110554892Y-106308988D01*
X110533327Y-106276661D02*
X110543846Y-106292995D01*
X110523345Y-106260000D02*
X110533327Y-106276661D01*
X110513907Y-106243024D02*
X110523345Y-106260000D01*
X110505020Y-106225748D02*
X110513907Y-106243024D01*
X110496694Y-106208185D02*
X110505020Y-106225748D01*
X110488934Y-106190350D02*
X110496694Y-106208185D01*
X110481750Y-106172255D02*
X110488934Y-106190350D01*
X110475150Y-106153914D02*
X110481750Y-106172255D01*
X110469140Y-106135341D02*
X110475150Y-106153914D01*
X110463730Y-106116550D02*
X110469140Y-106135341D01*
X110458926Y-106097554D02*
X110463730Y-106116550D01*
X110454738Y-106078367D02*
X110458926Y-106097554D01*
X110451172Y-106059003D02*
X110454738Y-106078367D01*
X110448237Y-106039475D02*
X110451172Y-106059003D01*
X110445940Y-106019797D02*
X110448237Y-106039475D01*
X110444290Y-105999983D02*
X110445940Y-106019797D01*
X110443294Y-105980046D02*
X110444290Y-105999983D01*
X110442960Y-105960000D02*
X110443294Y-105980046D01*
X110443699Y-105930218D02*
X110442960Y-105960000D01*
X110445902Y-105900639D02*
X110443699Y-105930218D01*
X110449549Y-105871313D02*
X110445902Y-105900639D01*
X110454618Y-105842287D02*
X110449549Y-105871313D01*
X110461090Y-105813611D02*
X110454618Y-105842287D01*
X110468945Y-105785336D02*
X110461090Y-105813611D01*
X110478161Y-105757509D02*
X110468945Y-105785336D01*
X110488719Y-105730181D02*
X110478161Y-105757509D01*
X110500597Y-105703401D02*
X110488719Y-105730181D01*
X110513776Y-105677218D02*
X110500597Y-105703401D01*
X110528235Y-105651681D02*
X110513776Y-105677218D01*
X110543954Y-105626839D02*
X110528235Y-105651681D01*
X110560911Y-105602743D02*
X110543954Y-105626839D01*
X110579088Y-105579441D02*
X110560911Y-105602743D01*
X110598462Y-105556983D02*
X110579088Y-105579441D01*
X110619015Y-105535417D02*
X110598462Y-105556983D01*
X110640611Y-105514897D02*
X110619015Y-105535417D01*
X110663098Y-105495556D02*
X110640611Y-105514897D01*
X110686428Y-105477415D02*
X110663098Y-105495556D01*
X110710549Y-105460493D02*
X110686428Y-105477415D01*
X110735414Y-105444812D02*
X110710549Y-105460493D01*
X110760973Y-105430391D02*
X110735414Y-105444812D01*
X110787176Y-105417252D02*
X110760973Y-105430391D01*
X110813974Y-105405413D02*
X110787176Y-105417252D01*
X110841318Y-105394897D02*
X110813974Y-105405413D01*
X110869158Y-105385722D02*
X110841318Y-105394897D01*
X110897445Y-105377910D02*
X110869158Y-105385722D01*
X110926130Y-105371481D02*
X110897445Y-105377910D01*
X110955164Y-105366455D02*
X110926130Y-105371481D01*
X110984496Y-105362852D02*
X110955164Y-105366455D01*
X111014078Y-105360694D02*
X110984496Y-105362852D01*
X111043860Y-105360000D02*
X111014078Y-105360694D01*
X112963860Y-105360000D02*
X112963860Y-105360000D01*
X112994703Y-105360825D02*
X112963860Y-105360000D01*
X113025139Y-105363183D02*
X112994703Y-105360825D01*
X113055131Y-105367036D02*
X113025139Y-105363183D01*
X113084642Y-105372346D02*
X113055131Y-105367036D01*
X113113634Y-105379076D02*
X113084642Y-105372346D01*
X113142069Y-105387189D02*
X113113634Y-105379076D01*
X113169910Y-105396646D02*
X113142069Y-105387189D01*
X113197119Y-105407409D02*
X113169910Y-105396646D01*
X113223659Y-105419442D02*
X113197119Y-105407409D01*
X113249492Y-105432707D02*
X113223659Y-105419442D01*
X113274580Y-105447166D02*
X113249492Y-105432707D01*
X113298887Y-105462781D02*
X113274580Y-105447166D01*
X113322374Y-105479515D02*
X113298887Y-105462781D01*
X113345004Y-105497330D02*
X113322374Y-105479515D01*
X113366740Y-105516189D02*
X113345004Y-105497330D01*
X113387543Y-105536053D02*
X113366740Y-105516189D01*
X113407376Y-105556886D02*
X113387543Y-105536053D01*
X113426202Y-105578650D02*
X113407376Y-105556886D01*
X113443983Y-105601307D02*
X113426202Y-105578650D01*
X113460682Y-105624819D02*
X113443983Y-105601307D01*
X113476261Y-105649149D02*
X113460682Y-105624819D01*
X113490682Y-105674259D02*
X113476261Y-105649149D01*
X113503908Y-105700112D02*
X113490682Y-105674259D01*
X113515901Y-105726670D02*
X113503908Y-105700112D01*
X113526624Y-105753896D02*
X113515901Y-105726670D01*
X113536039Y-105781751D02*
X113526624Y-105753896D01*
X113544108Y-105810198D02*
X113536039Y-105781751D01*
X113550795Y-105839200D02*
X113544108Y-105810198D01*
X113556061Y-105868718D02*
X113550795Y-105839200D01*
X113559869Y-105898716D02*
X113556061Y-105868718D01*
X113562181Y-105929156D02*
X113559869Y-105898716D01*
X113562960Y-105960000D02*
X113562181Y-105929156D01*
X113562627Y-105980046D02*
X113562960Y-105960000D01*
X113561631Y-105999983D02*
X113562627Y-105980046D01*
X113559981Y-106019797D02*
X113561631Y-105999983D01*
X113557684Y-106039475D02*
X113559981Y-106019797D01*
X113554749Y-106059003D02*
X113557684Y-106039475D01*
X113551183Y-106078367D02*
X113554749Y-106059003D01*
X113546995Y-106097554D02*
X113551183Y-106078367D01*
X113542191Y-106116550D02*
X113546995Y-106097554D01*
X113536781Y-106135341D02*
X113542191Y-106116550D01*
X113530771Y-106153914D02*
X113536781Y-106135341D01*
X113524171Y-106172255D02*
X113530771Y-106153914D01*
X113516987Y-106190350D02*
X113524171Y-106172255D01*
X113509227Y-106208185D02*
X113516987Y-106190350D01*
X113500901Y-106225748D02*
X113509227Y-106208185D01*
X113492014Y-106243024D02*
X113500901Y-106225748D01*
X113482576Y-106260000D02*
X113492014Y-106243024D01*
X113472594Y-106276661D02*
X113482576Y-106260000D01*
X113462075Y-106292995D02*
X113472594Y-106276661D01*
X113451029Y-106308988D02*
X113462075Y-106292995D01*
X113439463Y-106324625D02*
X113451029Y-106308988D01*
X113427384Y-106339894D02*
X113439463Y-106324625D01*
X113414801Y-106354781D02*
X113427384Y-106339894D01*
X113401721Y-106369272D02*
X113414801Y-106354781D01*
X113388153Y-106383353D02*
X113401721Y-106369272D01*
X113374103Y-106397010D02*
X113388153Y-106383353D01*
X113359581Y-106410231D02*
X113374103Y-106397010D01*
X113344594Y-106423001D02*
X113359581Y-106410231D01*
X113329150Y-106435307D02*
X113344594Y-106423001D01*
X113313257Y-106447135D02*
X113329150Y-106435307D01*
X113296922Y-106458472D02*
X113313257Y-106447135D01*
X113280154Y-106469303D02*
X113296922Y-106458472D01*
X113262960Y-106479615D02*
X113280154Y-106469303D01*
X113245433Y-106489349D02*
X113262960Y-106479615D01*
X113227669Y-106498455D02*
X113245433Y-106489349D01*
X113209684Y-106506933D02*
X113227669Y-106498455D01*
X113191494Y-106514783D02*
X113209684Y-106506933D01*
X113173115Y-106522005D02*
X113191494Y-106514783D01*
X113154562Y-106528599D02*
X113173115Y-106522005D01*
X113135852Y-106534565D02*
X113154562Y-106528599D01*
X113116999Y-106539903D02*
X113135852Y-106534565D01*
X113098020Y-106544613D02*
X113116999Y-106539903D01*
X113078931Y-106548695D02*
X113098020Y-106544613D01*
X113059747Y-106552149D02*
X113078931Y-106548695D01*
X113040485Y-106554975D02*
X113059747Y-106552149D01*
X113021159Y-106557173D02*
X113040485Y-106554975D01*
X113001786Y-106558743D02*
X113021159Y-106557173D01*
X112982381Y-106559685D02*
X113001786Y-106558743D01*
X112962960Y-106560000D02*
X112982381Y-106559685D01*
X112943540Y-106559685D02*
X112962960Y-106560000D01*
X112924135Y-106558743D02*
X112943540Y-106559685D01*
X112904762Y-106557173D02*
X112924135Y-106558743D01*
X112885436Y-106554975D02*
X112904762Y-106557173D01*
X112866174Y-106552149D02*
X112885436Y-106554975D01*
X112846990Y-106548695D02*
X112866174Y-106552149D01*
X112827901Y-106544613D02*
X112846990Y-106548695D01*
X112808922Y-106539903D02*
X112827901Y-106544613D01*
X112790069Y-106534565D02*
X112808922Y-106539903D01*
X112771359Y-106528599D02*
X112790069Y-106534565D01*
X112752806Y-106522005D02*
X112771359Y-106528599D01*
X112734427Y-106514783D02*
X112752806Y-106522005D01*
X112716237Y-106506933D02*
X112734427Y-106514783D01*
X112698252Y-106498455D02*
X112716237Y-106506933D01*
X112680488Y-106489349D02*
X112698252Y-106498455D01*
X112662960Y-106479615D02*
X112680488Y-106489349D01*
X112645767Y-106469303D02*
X112662960Y-106479615D01*
X112628999Y-106458472D02*
X112645767Y-106469303D01*
X112612664Y-106447135D02*
X112628999Y-106458472D01*
X112596771Y-106435307D02*
X112612664Y-106447135D01*
X112581327Y-106423001D02*
X112596771Y-106435307D01*
X112566340Y-106410231D02*
X112581327Y-106423001D01*
X112551818Y-106397010D02*
X112566340Y-106410231D01*
X112537768Y-106383353D02*
X112551818Y-106397010D01*
X112524200Y-106369272D02*
X112537768Y-106383353D01*
X112511120Y-106354781D02*
X112524200Y-106369272D01*
X112498537Y-106339894D02*
X112511120Y-106354781D01*
X112486458Y-106324625D02*
X112498537Y-106339894D01*
X112474892Y-106308988D02*
X112486458Y-106324625D01*
X112463846Y-106292995D02*
X112474892Y-106308988D01*
X112453327Y-106276661D02*
X112463846Y-106292995D01*
X112443345Y-106260000D02*
X112453327Y-106276661D01*
X112433907Y-106243024D02*
X112443345Y-106260000D01*
X112425020Y-106225748D02*
X112433907Y-106243024D01*
X112416694Y-106208185D02*
X112425020Y-106225748D01*
X112408934Y-106190350D02*
X112416694Y-106208185D01*
X112401750Y-106172255D02*
X112408934Y-106190350D01*
X112395150Y-106153914D02*
X112401750Y-106172255D01*
X112389140Y-106135341D02*
X112395150Y-106153914D01*
X112383730Y-106116550D02*
X112389140Y-106135341D01*
X112378926Y-106097554D02*
X112383730Y-106116550D01*
X112374738Y-106078367D02*
X112378926Y-106097554D01*
X112371172Y-106059003D02*
X112374738Y-106078367D01*
X112368237Y-106039475D02*
X112371172Y-106059003D01*
X112365940Y-106019797D02*
X112368237Y-106039475D01*
X112364290Y-105999983D02*
X112365940Y-106019797D01*
X112363294Y-105980046D02*
X112364290Y-105999983D01*
X112362960Y-105960000D02*
X112363294Y-105980046D01*
X112363699Y-105930218D02*
X112362960Y-105960000D01*
X112365902Y-105900639D02*
X112363699Y-105930218D01*
X112369549Y-105871313D02*
X112365902Y-105900639D01*
X112374618Y-105842287D02*
X112369549Y-105871313D01*
X112381090Y-105813611D02*
X112374618Y-105842287D01*
X112388945Y-105785336D02*
X112381090Y-105813611D01*
X112398161Y-105757509D02*
X112388945Y-105785336D01*
X112408719Y-105730181D02*
X112398161Y-105757509D01*
X112420597Y-105703401D02*
X112408719Y-105730181D01*
X112433776Y-105677218D02*
X112420597Y-105703401D01*
X112448235Y-105651681D02*
X112433776Y-105677218D01*
X112463954Y-105626839D02*
X112448235Y-105651681D01*
X112480911Y-105602743D02*
X112463954Y-105626839D01*
X112499088Y-105579441D02*
X112480911Y-105602743D01*
X112518462Y-105556983D02*
X112499088Y-105579441D01*
X112539015Y-105535417D02*
X112518462Y-105556983D01*
X112560611Y-105514897D02*
X112539015Y-105535417D01*
X112583098Y-105495556D02*
X112560611Y-105514897D01*
X112606428Y-105477415D02*
X112583098Y-105495556D01*
X112630549Y-105460493D02*
X112606428Y-105477415D01*
X112655414Y-105444812D02*
X112630549Y-105460493D01*
X112680973Y-105430391D02*
X112655414Y-105444812D01*
X112707176Y-105417252D02*
X112680973Y-105430391D01*
X112733974Y-105405413D02*
X112707176Y-105417252D01*
X112761318Y-105394897D02*
X112733974Y-105405413D01*
X112789158Y-105385722D02*
X112761318Y-105394897D01*
X112817445Y-105377910D02*
X112789158Y-105385722D01*
X112846130Y-105371481D02*
X112817445Y-105377910D01*
X112875164Y-105366455D02*
X112846130Y-105371481D01*
X112904496Y-105362852D02*
X112875164Y-105366455D01*
X112934078Y-105360694D02*
X112904496Y-105362852D01*
X112963860Y-105360000D02*
X112934078Y-105360694D01*
X112005544Y-104140000D02*
X112005544Y-104140000D01*
X112047611Y-104140533D02*
X112005544Y-104140000D01*
X112089473Y-104142010D02*
X112047611Y-104140533D01*
X112131117Y-104144420D02*
X112089473Y-104142010D01*
X112172533Y-104147755D02*
X112131117Y-104144420D01*
X112213711Y-104152004D02*
X112172533Y-104147755D01*
X112254638Y-104157158D02*
X112213711Y-104152004D01*
X112295303Y-104163207D02*
X112254638Y-104157158D01*
X112335696Y-104170143D02*
X112295303Y-104163207D01*
X112375805Y-104177955D02*
X112335696Y-104170143D01*
X112415620Y-104186634D02*
X112375805Y-104177955D01*
X112455128Y-104196171D02*
X112415620Y-104186634D01*
X112494319Y-104206556D02*
X112455128Y-104196171D01*
X112533181Y-104217780D02*
X112494319Y-104206556D01*
X112571705Y-104229833D02*
X112533181Y-104217780D01*
X112609877Y-104242706D02*
X112571705Y-104229833D01*
X112647687Y-104256389D02*
X112609877Y-104242706D01*
X112685125Y-104270873D02*
X112647687Y-104256389D01*
X112722178Y-104286148D02*
X112685125Y-104270873D01*
X112758836Y-104302205D02*
X112722178Y-104286148D01*
X112795088Y-104319034D02*
X112758836Y-104302205D01*
X112830922Y-104336626D02*
X112795088Y-104319034D01*
X112866327Y-104354972D02*
X112830922Y-104336626D01*
X112901292Y-104374062D02*
X112866327Y-104354972D01*
X112935806Y-104393885D02*
X112901292Y-104374062D01*
X112969858Y-104414434D02*
X112935806Y-104393885D01*
X113003436Y-104435699D02*
X112969858Y-104414434D01*
X113036530Y-104457669D02*
X113003436Y-104435699D01*
X113069128Y-104480336D02*
X113036530Y-104457669D01*
X113101219Y-104503690D02*
X113069128Y-104480336D01*
X113132792Y-104527721D02*
X113101219Y-104503690D01*
X113163836Y-104552421D02*
X113132792Y-104527721D01*
X113194340Y-104577779D02*
X113163836Y-104552421D01*
X113224292Y-104603786D02*
X113194340Y-104577779D01*
X113253681Y-104630433D02*
X113224292Y-104603786D01*
X113282496Y-104657710D02*
X113253681Y-104630433D01*
X113310727Y-104685608D02*
X113282496Y-104657710D01*
X113338361Y-104714117D02*
X113310727Y-104685608D01*
X113365388Y-104743227D02*
X113338361Y-104714117D01*
X113391797Y-104772930D02*
X113365388Y-104743227D01*
X113417576Y-104803216D02*
X113391797Y-104772930D01*
X113442714Y-104834075D02*
X113417576Y-104803216D01*
X113467201Y-104865498D02*
X113442714Y-104834075D01*
X113491024Y-104897475D02*
X113467201Y-104865498D01*
X113514173Y-104929996D02*
X113491024Y-104897475D01*
X113536637Y-104963054D02*
X113514173Y-104929996D01*
X113558404Y-104996637D02*
X113536637Y-104963054D01*
X113579463Y-105030737D02*
X113558404Y-104996637D01*
X113599804Y-105065343D02*
X113579463Y-105030737D01*
X113619414Y-105100447D02*
X113599804Y-105065343D01*
X113638283Y-105136039D02*
X113619414Y-105100447D01*
X113656400Y-105172109D02*
X113638283Y-105136039D01*
X113673754Y-105208649D02*
X113656400Y-105172109D01*
X113690333Y-105245648D02*
X113673754Y-105208649D01*
X113706126Y-105283097D02*
X113690333Y-105245648D01*
X113721122Y-105320987D02*
X113706126Y-105283097D01*
X113735310Y-105359307D02*
X113721122Y-105320987D01*
X113748678Y-105398050D02*
X113735310Y-105359307D01*
X113761217Y-105437204D02*
X113748678Y-105398050D01*
X113772913Y-105476761D02*
X113761217Y-105437204D01*
X113783757Y-105516712D02*
X113772913Y-105476761D01*
X113793737Y-105557046D02*
X113783757Y-105516712D01*
X113802842Y-105597754D02*
X113793737Y-105557046D01*
X113811061Y-105638827D02*
X113802842Y-105597754D01*
X113818382Y-105680256D02*
X113811061Y-105638827D01*
X113809120Y-105653373D02*
X113818382Y-105680256D01*
X113799055Y-105626897D02*
X113809120Y-105653373D01*
X113788203Y-105600843D02*
X113799055Y-105626897D01*
X113776577Y-105575225D02*
X113788203Y-105600843D01*
X113764193Y-105550055D02*
X113776577Y-105575225D01*
X113751066Y-105525349D02*
X113764193Y-105550055D01*
X113737209Y-105501119D02*
X113751066Y-105525349D01*
X113722637Y-105477380D02*
X113737209Y-105501119D01*
X113707365Y-105454145D02*
X113722637Y-105477380D01*
X113691408Y-105431428D02*
X113707365Y-105454145D01*
X113674780Y-105409244D02*
X113691408Y-105431428D01*
X113657496Y-105387606D02*
X113674780Y-105409244D01*
X113639570Y-105366528D02*
X113657496Y-105387606D01*
X113621018Y-105346023D02*
X113639570Y-105366528D01*
X113601853Y-105326106D02*
X113621018Y-105346023D01*
X113582090Y-105306790D02*
X113601853Y-105326106D01*
X113561744Y-105288090D02*
X113582090Y-105306790D01*
X113540829Y-105270018D02*
X113561744Y-105288090D01*
X113519361Y-105252590D02*
X113540829Y-105270018D01*
X113497353Y-105235818D02*
X113519361Y-105252590D01*
X113474821Y-105219717D02*
X113497353Y-105235818D01*
X113451778Y-105204301D02*
X113474821Y-105219717D01*
X113428240Y-105189583D02*
X113451778Y-105204301D01*
X113404221Y-105175577D02*
X113428240Y-105189583D01*
X113379736Y-105162297D02*
X113404221Y-105175577D01*
X113354799Y-105149757D02*
X113379736Y-105162297D01*
X113329425Y-105137970D02*
X113354799Y-105149757D01*
X113303629Y-105126952D02*
X113329425Y-105137970D01*
X113277424Y-105116714D02*
X113303629Y-105126952D01*
X113250827Y-105107272D02*
X113277424Y-105116714D01*
X113223851Y-105098639D02*
X113250827Y-105107272D01*
X113196510Y-105090829D02*
X113223851Y-105098639D01*
X113168938Y-105083884D02*
X113196510Y-105090829D01*
X113141268Y-105077833D02*
X113168938Y-105083884D01*
X113113520Y-105072673D02*
X113141268Y-105077833D01*
X113085714Y-105068397D02*
X113113520Y-105072673D01*
X113057869Y-105065003D02*
X113085714Y-105068397D01*
X113030004Y-105062484D02*
X113057869Y-105065003D01*
X113002141Y-105060836D02*
X113030004Y-105062484D01*
X112974297Y-105060055D02*
X113002141Y-105060836D01*
X112946493Y-105060136D02*
X112974297Y-105060055D01*
X112918748Y-105061074D02*
X112946493Y-105060136D01*
X112891082Y-105062865D02*
X112918748Y-105061074D01*
X112863514Y-105065504D02*
X112891082Y-105062865D01*
X112836064Y-105068986D02*
X112863514Y-105065504D01*
X112808751Y-105073307D02*
X112836064Y-105068986D01*
X112781596Y-105078462D02*
X112808751Y-105073307D01*
X112754617Y-105084446D02*
X112781596Y-105078462D01*
X112727834Y-105091255D02*
X112754617Y-105084446D01*
X112701268Y-105098884D02*
X112727834Y-105091255D01*
X112674936Y-105107328D02*
X112701268Y-105098884D01*
X112648860Y-105116583D02*
X112674936Y-105107328D01*
X112623058Y-105126644D02*
X112648860Y-105116583D01*
X112597551Y-105137506D02*
X112623058Y-105126644D01*
X112572357Y-105149165D02*
X112597551Y-105137506D01*
X112547496Y-105161616D02*
X112572357Y-105149165D01*
X112522989Y-105174854D02*
X112547496Y-105161616D01*
X112498853Y-105188876D02*
X112522989Y-105174854D01*
X112475110Y-105203675D02*
X112498853Y-105188876D01*
X112451779Y-105219248D02*
X112475110Y-105203675D01*
X112428878Y-105235589D02*
X112451779Y-105219248D01*
X112406429Y-105252695D02*
X112428878Y-105235589D01*
X112384450Y-105270560D02*
X112406429Y-105252695D01*
X112362960Y-105289180D02*
X112384450Y-105270560D01*
X112362960Y-105100000D02*
X112362960Y-105289180D01*
X112062960Y-105100000D02*
X112362960Y-105100000D01*
X112062960Y-106860000D02*
X112062960Y-105100000D01*
X112362960Y-106720000D02*
X112062960Y-106860000D01*
X112362960Y-106630820D02*
X112362960Y-106720000D01*
X112384925Y-106649838D02*
X112362960Y-106630820D01*
X112407399Y-106668067D02*
X112384925Y-106649838D01*
X112430361Y-106685501D02*
X112407399Y-106668067D01*
X112453789Y-106702136D02*
X112430361Y-106685501D01*
X112477664Y-106717966D02*
X112453789Y-106702136D01*
X112501964Y-106732988D02*
X112477664Y-106717966D01*
X112526668Y-106747196D02*
X112501964Y-106732988D01*
X112551756Y-106760586D02*
X112526668Y-106747196D01*
X112577206Y-106773153D02*
X112551756Y-106760586D01*
X112602998Y-106784892D02*
X112577206Y-106773153D01*
X112629111Y-106795798D02*
X112602998Y-106784892D01*
X112655524Y-106805867D02*
X112629111Y-106795798D01*
X112682216Y-106815094D02*
X112655524Y-106805867D01*
X112709165Y-106823474D02*
X112682216Y-106815094D01*
X112736352Y-106831002D02*
X112709165Y-106823474D01*
X112763756Y-106837675D02*
X112736352Y-106831002D01*
X112791354Y-106843486D02*
X112763756Y-106837675D01*
X112819128Y-106848431D02*
X112791354Y-106843486D01*
X112847055Y-106852506D02*
X112819128Y-106848431D01*
X112875114Y-106855706D02*
X112847055Y-106852506D01*
X112903286Y-106858026D02*
X112875114Y-106855706D01*
X112931548Y-106859461D02*
X112903286Y-106858026D01*
X112959881Y-106860006D02*
X112931548Y-106859461D01*
X112988262Y-106859658D02*
X112959881Y-106860006D01*
X113016672Y-106858410D02*
X112988262Y-106859658D01*
X113045090Y-106856259D02*
X113016672Y-106858410D01*
X113073494Y-106853199D02*
X113045090Y-106856259D01*
X113101863Y-106849226D02*
X113073494Y-106853199D01*
X113130177Y-106844335D02*
X113101863Y-106849226D01*
X113158415Y-106838521D02*
X113130177Y-106844335D01*
X113186556Y-106831780D02*
X113158415Y-106838521D01*
X113214579Y-106824107D02*
X113186556Y-106831780D01*
X113242341Y-106815536D02*
X113214579Y-106824107D01*
X113269701Y-106806116D02*
X113242341Y-106815536D01*
X113296646Y-106795861D02*
X113269701Y-106806116D01*
X113323160Y-106784786D02*
X113296646Y-106795861D01*
X113349227Y-106772908D02*
X113323160Y-106784786D01*
X113374833Y-106760240D02*
X113349227Y-106772908D01*
X113399963Y-106746799D02*
X113374833Y-106760240D01*
X113424602Y-106732600D02*
X113399963Y-106746799D01*
X113448734Y-106717657D02*
X113424602Y-106732600D01*
X113472344Y-106701986D02*
X113448734Y-106717657D01*
X113495418Y-106685602D02*
X113472344Y-106701986D01*
X113517940Y-106668521D02*
X113495418Y-106685602D01*
X113539895Y-106650757D02*
X113517940Y-106668521D01*
X113561269Y-106632327D02*
X113539895Y-106650757D01*
X113582045Y-106613244D02*
X113561269Y-106632327D01*
X113602210Y-106593524D02*
X113582045Y-106613244D01*
X113621747Y-106573183D02*
X113602210Y-106593524D01*
X113640642Y-106552236D02*
X113621747Y-106573183D01*
X113658880Y-106530698D02*
X113640642Y-106552236D01*
X113676445Y-106508584D02*
X113658880Y-106530698D01*
X113693323Y-106485909D02*
X113676445Y-106508584D01*
X113709499Y-106462688D02*
X113693323Y-106485909D01*
X113724957Y-106438938D02*
X113709499Y-106462688D01*
X113739682Y-106414673D02*
X113724957Y-106438938D01*
X113753659Y-106389907D02*
X113739682Y-106414673D01*
X113766874Y-106364658D02*
X113753659Y-106389907D01*
X113779310Y-106338938D02*
X113766874Y-106364658D01*
X113790954Y-106312765D02*
X113779310Y-106338938D01*
X113801789Y-106286153D02*
X113790954Y-106312765D01*
X113811802Y-106259117D02*
X113801789Y-106286153D01*
X113820976Y-106231673D02*
X113811802Y-106259117D01*
X113829296Y-106203836D02*
X113820976Y-106231673D01*
X113823507Y-106246919D02*
X113829296Y-106203836D01*
X113816747Y-106289657D02*
X113823507Y-106246919D01*
X113809029Y-106332037D02*
X113816747Y-106289657D01*
X113800365Y-106374049D02*
X113809029Y-106332037D01*
X113790766Y-106415683D02*
X113800365Y-106374049D01*
X113780245Y-106456928D02*
X113790766Y-106415683D01*
X113768815Y-106497774D02*
X113780245Y-106456928D01*
X113756486Y-106538209D02*
X113768815Y-106497774D01*
X113743270Y-106578223D02*
X113756486Y-106538209D01*
X113729181Y-106617806D02*
X113743270Y-106578223D01*
X113714229Y-106656946D02*
X113729181Y-106617806D01*
X113698428Y-106695634D02*
X113714229Y-106656946D01*
X113681788Y-106733859D02*
X113698428Y-106695634D01*
X113664322Y-106771609D02*
X113681788Y-106733859D01*
X113646042Y-106808875D02*
X113664322Y-106771609D01*
X113626959Y-106845646D02*
X113646042Y-106808875D01*
X113607087Y-106881911D02*
X113626959Y-106845646D01*
X113586436Y-106917659D02*
X113607087Y-106881911D01*
X113565020Y-106952880D02*
X113586436Y-106917659D01*
X113542849Y-106987564D02*
X113565020Y-106952880D01*
X113519936Y-107021699D02*
X113542849Y-106987564D01*
X113496293Y-107055275D02*
X113519936Y-107021699D01*
X113471931Y-107088282D02*
X113496293Y-107055275D01*
X113446864Y-107120708D02*
X113471931Y-107088282D01*
X113421103Y-107152543D02*
X113446864Y-107120708D01*
X113394659Y-107183777D02*
X113421103Y-107152543D01*
X113367546Y-107214399D02*
X113394659Y-107183777D01*
X113339774Y-107244399D02*
X113367546Y-107214399D01*
X113311356Y-107273764D02*
X113339774Y-107244399D01*
X113282304Y-107302486D02*
X113311356Y-107273764D01*
X113252630Y-107330554D02*
X113282304Y-107302486D01*
X113222346Y-107357956D02*
X113252630Y-107330554D01*
X113191464Y-107384682D02*
X113222346Y-107357956D01*
X113159996Y-107410722D02*
X113191464Y-107384682D01*
X113127954Y-107436065D02*
X113159996Y-107410722D01*
X113095349Y-107460700D02*
X113127954Y-107436065D01*
X113062195Y-107484616D02*
X113095349Y-107460700D01*
X113028502Y-107507804D02*
X113062195Y-107484616D01*
X112994284Y-107530252D02*
X113028502Y-107507804D01*
X112959551Y-107551950D02*
X112994284Y-107530252D01*
X112924317Y-107572888D02*
X112959551Y-107551950D01*
X112888592Y-107593053D02*
X112924317Y-107572888D01*
X112852390Y-107612437D02*
X112888592Y-107593053D01*
X112815721Y-107631028D02*
X112852390Y-107612437D01*
X112778599Y-107648816D02*
X112815721Y-107631028D01*
X112741034Y-107665790D02*
X112778599Y-107648816D01*
X112703039Y-107681939D02*
X112741034Y-107665790D01*
X112664627Y-107697253D02*
X112703039Y-107681939D01*
X112625808Y-107711721D02*
X112664627Y-107697253D01*
X112586595Y-107725333D02*
X112625808Y-107711721D01*
X112547001Y-107738078D02*
X112586595Y-107725333D01*
X112507036Y-107749945D02*
X112547001Y-107738078D01*
X112466713Y-107760923D02*
X112507036Y-107749945D01*
X112426045Y-107771003D02*
X112466713Y-107760923D01*
X112385042Y-107780174D02*
X112426045Y-107771003D01*
X112343718Y-107788424D02*
X112385042Y-107780174D01*
X112302083Y-107795743D02*
X112343718Y-107788424D01*
X112260151Y-107802121D02*
X112302083Y-107795743D01*
X112217932Y-107807547D02*
X112260151Y-107802121D01*
X112175440Y-107812010D02*
X112217932Y-107807547D01*
X112132686Y-107815500D02*
X112175440Y-107812010D01*
X112089681Y-107818006D02*
X112132686Y-107815500D01*
X112046439Y-107819518D02*
X112089681Y-107818006D01*
X112002971Y-107820024D02*
X112046439Y-107819518D01*
X111959503Y-107819518D02*
X112002971Y-107820024D01*
X111916261Y-107818008D02*
X111959503Y-107819518D01*
X111873256Y-107815502D02*
X111916261Y-107818008D01*
X111830502Y-107812013D02*
X111873256Y-107815502D01*
X111788010Y-107807550D02*
X111830502Y-107812013D01*
X111745791Y-107802124D02*
X111788010Y-107807550D01*
X111703859Y-107795747D02*
X111745791Y-107802124D01*
X111662224Y-107788428D02*
X111703859Y-107795747D01*
X111620899Y-107780179D02*
X111662224Y-107788428D01*
X111579897Y-107771009D02*
X111620899Y-107780179D01*
X111539228Y-107760930D02*
X111579897Y-107771009D01*
X111498905Y-107749951D02*
X111539228Y-107760930D01*
X111458940Y-107738085D02*
X111498905Y-107749951D01*
X111419346Y-107725341D02*
X111458940Y-107738085D01*
X111380133Y-107711729D02*
X111419346Y-107725341D01*
X111341314Y-107697262D02*
X111380133Y-107711729D01*
X111302901Y-107681948D02*
X111341314Y-107697262D01*
X111264906Y-107665799D02*
X111302901Y-107681948D01*
X111227341Y-107648826D02*
X111264906Y-107665799D01*
X111190219Y-107631039D02*
X111227341Y-107648826D01*
X111153550Y-107612448D02*
X111190219Y-107631039D01*
X111117347Y-107593065D02*
X111153550Y-107612448D01*
X111081622Y-107572900D02*
X111117347Y-107593065D01*
X111046387Y-107551963D02*
X111081622Y-107572900D01*
X111011654Y-107530265D02*
X111046387Y-107551963D01*
X110977436Y-107507818D02*
X111011654Y-107530265D01*
X110943743Y-107484630D02*
X110977436Y-107507818D01*
X110910588Y-107460714D02*
X110943743Y-107484630D01*
X110877984Y-107436079D02*
X110910588Y-107460714D01*
X110845941Y-107410737D02*
X110877984Y-107436079D01*
X110814473Y-107384698D02*
X110845941Y-107410737D01*
X110783590Y-107357972D02*
X110814473Y-107384698D01*
X110753306Y-107330570D02*
X110783590Y-107357972D01*
X110723631Y-107302503D02*
X110753306Y-107330570D01*
X110694579Y-107273782D02*
X110723631Y-107302503D01*
X110666161Y-107244416D02*
X110694579Y-107273782D01*
X110638389Y-107214417D02*
X110666161Y-107244416D01*
X110611275Y-107183796D02*
X110638389Y-107214417D01*
X110584831Y-107152562D02*
X110611275Y-107183796D01*
X110559069Y-107120727D02*
X110584831Y-107152562D01*
X110534001Y-107088301D02*
X110559069Y-107120727D01*
X110509640Y-107055295D02*
X110534001Y-107088301D01*
X110485996Y-107021719D02*
X110509640Y-107055295D01*
X110463083Y-106987584D02*
X110485996Y-107021719D01*
X110440911Y-106952901D02*
X110463083Y-106987584D01*
X110419494Y-106917680D02*
X110440911Y-106952901D01*
X110398843Y-106881932D02*
X110419494Y-106917680D01*
X110378970Y-106845667D02*
X110398843Y-106881932D01*
X110359887Y-106808897D02*
X110378970Y-106845667D01*
X110341607Y-106771631D02*
X110359887Y-106808897D01*
X110324140Y-106733881D02*
X110341607Y-106771631D01*
X110307500Y-106695657D02*
X110324140Y-106733881D01*
X110291698Y-106656969D02*
X110307500Y-106695657D01*
X110276745Y-106617828D02*
X110291698Y-106656969D01*
X110262656Y-106578246D02*
X110276745Y-106617828D01*
X110249440Y-106538232D02*
X110262656Y-106578246D01*
X110237110Y-106497797D02*
X110249440Y-106538232D01*
X110225679Y-106456952D02*
X110237110Y-106497797D01*
X110215158Y-106415707D02*
X110225679Y-106456952D01*
X110205559Y-106374073D02*
X110215158Y-106415707D01*
X110196894Y-106332061D02*
X110205559Y-106374073D01*
X110189175Y-106289680D02*
X110196894Y-106332061D01*
X110182415Y-106246943D02*
X110189175Y-106289680D01*
X110176624Y-106203860D02*
X110182415Y-106246943D01*
X110184946Y-106231697D02*
X110176624Y-106203860D01*
X110194120Y-106259141D02*
X110184946Y-106231697D01*
X110204133Y-106286176D02*
X110194120Y-106259141D01*
X110214969Y-106312788D02*
X110204133Y-106286176D01*
X110226613Y-106338960D02*
X110214969Y-106312788D01*
X110239050Y-106364679D02*
X110226613Y-106338960D01*
X110252265Y-106389928D02*
X110239050Y-106364679D01*
X110266243Y-106414693D02*
X110252265Y-106389928D01*
X110280969Y-106438958D02*
X110266243Y-106414693D01*
X110296427Y-106462708D02*
X110280969Y-106438958D01*
X110312603Y-106485928D02*
X110296427Y-106462708D01*
X110329481Y-106508602D02*
X110312603Y-106485928D01*
X110347047Y-106530716D02*
X110329481Y-106508602D01*
X110365285Y-106552254D02*
X110347047Y-106530716D01*
X110384180Y-106573201D02*
X110365285Y-106552254D01*
X110403718Y-106593541D02*
X110384180Y-106573201D01*
X110423882Y-106613260D02*
X110403718Y-106593541D01*
X110444659Y-106632342D02*
X110423882Y-106613260D01*
X110466033Y-106650773D02*
X110444659Y-106632342D01*
X110487988Y-106668536D02*
X110466033Y-106650773D01*
X110510510Y-106685616D02*
X110487988Y-106668536D01*
X110533584Y-106702000D02*
X110510510Y-106685616D01*
X110557195Y-106717670D02*
X110533584Y-106702000D01*
X110581327Y-106732612D02*
X110557195Y-106717670D01*
X110605966Y-106746811D02*
X110581327Y-106732612D01*
X110631096Y-106760252D02*
X110605966Y-106746811D01*
X110656702Y-106772919D02*
X110631096Y-106760252D01*
X110682769Y-106784797D02*
X110656702Y-106772919D01*
X110709283Y-106795871D02*
X110682769Y-106784797D01*
X110736227Y-106806125D02*
X110709283Y-106795871D01*
X110763588Y-106815545D02*
X110736227Y-106806125D01*
X110791350Y-106824116D02*
X110763588Y-106815545D01*
X110819372Y-106831788D02*
X110791350Y-106824116D01*
X110847513Y-106838529D02*
X110819372Y-106831788D01*
X110875751Y-106844342D02*
X110847513Y-106838529D01*
X110904065Y-106849233D02*
X110875751Y-106844342D01*
X110932434Y-106853205D02*
X110904065Y-106849233D01*
X110960838Y-106856265D02*
X110932434Y-106853205D01*
X110989255Y-106858416D02*
X110960838Y-106856265D01*
X111017665Y-106859663D02*
X110989255Y-106858416D01*
X111046047Y-106860011D02*
X111017665Y-106859663D01*
X111074379Y-106859465D02*
X111046047Y-106860011D01*
X111102641Y-106858030D02*
X111074379Y-106859465D01*
X111130812Y-106855710D02*
X111102641Y-106858030D01*
X111158872Y-106852510D02*
X111130812Y-106855710D01*
X111186799Y-106848434D02*
X111158872Y-106852510D01*
X111214572Y-106843489D02*
X111186799Y-106848434D01*
X111242170Y-106837677D02*
X111214572Y-106843489D01*
X111269573Y-106831005D02*
X111242170Y-106837677D01*
X111296760Y-106823476D02*
X111269573Y-106831005D01*
X111323709Y-106815095D02*
X111296760Y-106823476D01*
X111350401Y-106805868D02*
X111323709Y-106815095D01*
X111376813Y-106795799D02*
X111350401Y-106805868D01*
X111402926Y-106784893D02*
X111376813Y-106795799D01*
X111428717Y-106773154D02*
X111402926Y-106784893D01*
X111454167Y-106760587D02*
X111428717Y-106773154D01*
X111479255Y-106747197D02*
X111454167Y-106760587D01*
X111503959Y-106732989D02*
X111479255Y-106747197D01*
X111528259Y-106717967D02*
X111503959Y-106732989D01*
X111552133Y-106702136D02*
X111528259Y-106717967D01*
X111575561Y-106685501D02*
X111552133Y-106702136D01*
X111598523Y-106668067D02*
X111575561Y-106685501D01*
X111620996Y-106649838D02*
X111598523Y-106668067D01*
X111642960Y-106630820D02*
X111620996Y-106649838D01*
X111642960Y-106720000D02*
X111642960Y-106630820D01*
X111942960Y-106860000D02*
X111642960Y-106720000D01*
X111942960Y-105962024D02*
X111942960Y-106860000D01*
X111942960Y-105960000D02*
X111942960Y-105962024D01*
X111942960Y-105100000D02*
X111942960Y-105960000D01*
X111642960Y-105100000D02*
X111942960Y-105100000D01*
X111642960Y-105289180D02*
X111642960Y-105100000D01*
X111621472Y-105270560D02*
X111642960Y-105289180D01*
X111599493Y-105252695D02*
X111621472Y-105270560D01*
X111577044Y-105235590D02*
X111599493Y-105252695D01*
X111554143Y-105219248D02*
X111577044Y-105235590D01*
X111530812Y-105203676D02*
X111554143Y-105219248D01*
X111507069Y-105188877D02*
X111530812Y-105203676D01*
X111482935Y-105174855D02*
X111507069Y-105188877D01*
X111458427Y-105161617D02*
X111482935Y-105174855D01*
X111433567Y-105149166D02*
X111458427Y-105161617D01*
X111408373Y-105137507D02*
X111433567Y-105149166D01*
X111382866Y-105126645D02*
X111408373Y-105137507D01*
X111357065Y-105116584D02*
X111382866Y-105126645D01*
X111330989Y-105107329D02*
X111357065Y-105116584D01*
X111304658Y-105098885D02*
X111330989Y-105107329D01*
X111278091Y-105091256D02*
X111304658Y-105098885D01*
X111251309Y-105084447D02*
X111278091Y-105091256D01*
X111224331Y-105078463D02*
X111251309Y-105084447D01*
X111197176Y-105073308D02*
X111224331Y-105078463D01*
X111169863Y-105068987D02*
X111197176Y-105073308D01*
X111142414Y-105065504D02*
X111169863Y-105068987D01*
X111114846Y-105062865D02*
X111142414Y-105065504D01*
X111087180Y-105061074D02*
X111114846Y-105062865D01*
X111059436Y-105060136D02*
X111087180Y-105061074D01*
X111031632Y-105060055D02*
X111059436Y-105060136D01*
X111003788Y-105060835D02*
X111031632Y-105060055D01*
X110975925Y-105062483D02*
X111003788Y-105060835D01*
X110948061Y-105065001D02*
X110975925Y-105062483D01*
X110920216Y-105068396D02*
X110948061Y-105065001D01*
X110892410Y-105072671D02*
X110920216Y-105068396D01*
X110864663Y-105077831D02*
X110892410Y-105072671D01*
X110836993Y-105083881D02*
X110864663Y-105077831D01*
X110809420Y-105090826D02*
X110836993Y-105083881D01*
X110782080Y-105098636D02*
X110809420Y-105090826D01*
X110755105Y-105107268D02*
X110782080Y-105098636D01*
X110728507Y-105116710D02*
X110755105Y-105107268D01*
X110702303Y-105126947D02*
X110728507Y-105116710D01*
X110676507Y-105137965D02*
X110702303Y-105126947D01*
X110651133Y-105149751D02*
X110676507Y-105137965D01*
X110626196Y-105162291D02*
X110651133Y-105149751D01*
X110601711Y-105175570D02*
X110626196Y-105162291D01*
X110577692Y-105189575D02*
X110601711Y-105175570D01*
X110554154Y-105204293D02*
X110577692Y-105189575D01*
X110531111Y-105219709D02*
X110554154Y-105204293D01*
X110508579Y-105235809D02*
X110531111Y-105219709D01*
X110486571Y-105252581D02*
X110508579Y-105235809D01*
X110465103Y-105270008D02*
X110486571Y-105252581D01*
X110444188Y-105288079D02*
X110465103Y-105270008D01*
X110423842Y-105306779D02*
X110444188Y-105288079D01*
X110404079Y-105326094D02*
X110423842Y-105306779D01*
X110384914Y-105346011D02*
X110404079Y-105326094D01*
X110366361Y-105366515D02*
X110384914Y-105346011D01*
X110348435Y-105387593D02*
X110366361Y-105366515D01*
X110331151Y-105409230D02*
X110348435Y-105387593D01*
X110314523Y-105431414D02*
X110331151Y-105409230D01*
X110298565Y-105454130D02*
X110314523Y-105431414D01*
X110283293Y-105477364D02*
X110298565Y-105454130D01*
X110268721Y-105501103D02*
X110283293Y-105477364D01*
X110254864Y-105525332D02*
X110268721Y-105501103D01*
X110241736Y-105550038D02*
X110254864Y-105525332D01*
X110229352Y-105575207D02*
X110241736Y-105550038D01*
X110217726Y-105600825D02*
X110229352Y-105575207D01*
X110206873Y-105626878D02*
X110217726Y-105600825D01*
X110196807Y-105653353D02*
X110206873Y-105626878D01*
X110187544Y-105680236D02*
X110196807Y-105653353D01*
X110194883Y-105638718D02*
X110187544Y-105680236D01*
X110203123Y-105597558D02*
X110194883Y-105638718D01*
X110212252Y-105556765D02*
X110203123Y-105597558D01*
X110222260Y-105516348D02*
X110212252Y-105556765D01*
X110233135Y-105476317D02*
X110222260Y-105516348D01*
X110244867Y-105436681D02*
X110233135Y-105476317D01*
X110257443Y-105397450D02*
X110244867Y-105436681D01*
X110270853Y-105358634D02*
X110257443Y-105397450D01*
X110285085Y-105320241D02*
X110270853Y-105358634D01*
X110300129Y-105282282D02*
X110285085Y-105320241D01*
X110315972Y-105244766D02*
X110300129Y-105282282D01*
X110332604Y-105207702D02*
X110315972Y-105244766D01*
X110350014Y-105171100D02*
X110332604Y-105207702D01*
X110368189Y-105134970D02*
X110350014Y-105171100D01*
X110387120Y-105099320D02*
X110368189Y-105134970D01*
X110406794Y-105064161D02*
X110387120Y-105099320D01*
X110427201Y-105029503D02*
X110406794Y-105064161D01*
X110448329Y-104995353D02*
X110427201Y-105029503D01*
X110470167Y-104961723D02*
X110448329Y-104995353D01*
X110492704Y-104928622D02*
X110470167Y-104961723D01*
X110515928Y-104896059D02*
X110492704Y-104928622D01*
X110539829Y-104864043D02*
X110515928Y-104896059D01*
X110564395Y-104832584D02*
X110539829Y-104864043D01*
X110589615Y-104801693D02*
X110564395Y-104832584D01*
X110615477Y-104771377D02*
X110589615Y-104801693D01*
X110641970Y-104741647D02*
X110615477Y-104771377D01*
X110669084Y-104712512D02*
X110641970Y-104741647D01*
X110696807Y-104683983D02*
X110669084Y-104712512D01*
X110725127Y-104656067D02*
X110696807Y-104683983D01*
X110754034Y-104628775D02*
X110725127Y-104656067D01*
X110783515Y-104602117D02*
X110754034Y-104628775D01*
X110813561Y-104576101D02*
X110783515Y-104602117D01*
X110844160Y-104550738D02*
X110813561Y-104576101D01*
X110875300Y-104526037D02*
X110844160Y-104550738D01*
X110906970Y-104502007D02*
X110875300Y-104526037D01*
X110939159Y-104478658D02*
X110906970Y-104502007D01*
X110971856Y-104456000D02*
X110939159Y-104478658D01*
X111005049Y-104434041D02*
X110971856Y-104456000D01*
X111038728Y-104412792D02*
X111005049Y-104434041D01*
X111072881Y-104392262D02*
X111038728Y-104412792D01*
X111107496Y-104372461D02*
X111072881Y-104392262D01*
X111142563Y-104353398D02*
X111107496Y-104372461D01*
X111178071Y-104335082D02*
X111142563Y-104353398D01*
X111214008Y-104317523D02*
X111178071Y-104335082D01*
X111250362Y-104300731D02*
X111214008Y-104317523D01*
X111287123Y-104284715D02*
X111250362Y-104300731D01*
X111324279Y-104269485D02*
X111287123Y-104284715D01*
X111361820Y-104255050D02*
X111324279Y-104269485D01*
X111399734Y-104241419D02*
X111361820Y-104255050D01*
X111438009Y-104228603D02*
X111399734Y-104241419D01*
X111476634Y-104216610D02*
X111438009Y-104228603D01*
X111515599Y-104205451D02*
X111476634Y-104216610D01*
X111554892Y-104195135D02*
X111515599Y-104205451D01*
X111594501Y-104185671D02*
X111554892Y-104195135D01*
X111634416Y-104177068D02*
X111594501Y-104185671D01*
X111674626Y-104169337D02*
X111634416Y-104177068D01*
X111715118Y-104162487D02*
X111674626Y-104169337D01*
X111755882Y-104156527D02*
X111715118Y-104162487D01*
X111796907Y-104151467D02*
X111755882Y-104156527D01*
X111838181Y-104147317D02*
X111796907Y-104151467D01*
X111879692Y-104144085D02*
X111838181Y-104147317D01*
X111921431Y-104141782D02*
X111879692Y-104144085D01*
X111963386Y-104140417D02*
X111921431Y-104141782D01*
X112005544Y-104140000D02*
X111963386Y-104140417D01*
X112000000Y-104000000D02*
X112000000Y-104000000D01*
X111948950Y-104000721D02*
X112000000Y-104000000D01*
X111898220Y-104002723D02*
X111948950Y-104000721D01*
X111847825Y-104005989D02*
X111898220Y-104002723D01*
X111797781Y-104010504D02*
X111847825Y-104005989D01*
X111748103Y-104016252D02*
X111797781Y-104010504D01*
X111698806Y-104023218D02*
X111748103Y-104016252D01*
X111649907Y-104031387D02*
X111698806Y-104023218D01*
X111601421Y-104040742D02*
X111649907Y-104031387D01*
X111553362Y-104051269D02*
X111601421Y-104040742D01*
X111505748Y-104062951D02*
X111553362Y-104051269D01*
X111458592Y-104075774D02*
X111505748Y-104062951D01*
X111411911Y-104089722D02*
X111458592Y-104075774D01*
X111365721Y-104104779D02*
X111411911Y-104089722D01*
X111320036Y-104120929D02*
X111365721Y-104104779D01*
X111274872Y-104138158D02*
X111320036Y-104120929D01*
X111230245Y-104156449D02*
X111274872Y-104138158D01*
X111186170Y-104175788D02*
X111230245Y-104156449D01*
X111142663Y-104196158D02*
X111186170Y-104175788D01*
X111099739Y-104217544D02*
X111142663Y-104196158D01*
X111057414Y-104239931D02*
X111099739Y-104217544D01*
X111015702Y-104263303D02*
X111057414Y-104239931D01*
X110974620Y-104287645D02*
X111015702Y-104263303D01*
X110934184Y-104312940D02*
X110974620Y-104287645D01*
X110894408Y-104339175D02*
X110934184Y-104312940D01*
X110855308Y-104366332D02*
X110894408Y-104339175D01*
X110816900Y-104394397D02*
X110855308Y-104366332D01*
X110779199Y-104423353D02*
X110816900Y-104394397D01*
X110742220Y-104453186D02*
X110779199Y-104423353D01*
X110705980Y-104483881D02*
X110742220Y-104453186D01*
X110670493Y-104515420D02*
X110705980Y-104483881D01*
X110635775Y-104547790D02*
X110670493Y-104515420D01*
X110601842Y-104580974D02*
X110635775Y-104547790D01*
X110568709Y-104614956D02*
X110601842Y-104580974D01*
X110536392Y-104649722D02*
X110568709Y-104614956D01*
X113831247Y-106740155D02*
X113805642Y-106799013D01*
X113854954Y-106680441D02*
X113831247Y-106740155D01*
X113876737Y-106619917D02*
X113854954Y-106680441D01*
X113896568Y-106558627D02*
X113876737Y-106619917D01*
X113914422Y-106496616D02*
X113896568Y-106558627D01*
X113930273Y-106433930D02*
X113914422Y-106496616D01*
X113944095Y-106370614D02*
X113930273Y-106433930D01*
X113955862Y-106306712D02*
X113944095Y-106370614D01*
X113965548Y-106242269D02*
X113955862Y-106306712D01*
X113973127Y-106177332D02*
X113965548Y-106242269D01*
X110027348Y-106111945D02*
X110024062Y-106046152D01*
X110032794Y-106177332D02*
X110027348Y-106111945D01*
X110040373Y-106242269D02*
X110032794Y-106177332D01*
X110050059Y-106306712D02*
X110040373Y-106242269D01*
X110061826Y-106370614D02*
X110050059Y-106306712D01*
X110075648Y-106433930D02*
X110061826Y-106370614D01*
X110091499Y-106496616D02*
X110075648Y-106433930D01*
X110109353Y-106558627D02*
X110091499Y-106496616D01*
X110129184Y-106619917D02*
X110109353Y-106558627D01*
X110150967Y-106680441D02*
X110129184Y-106619917D01*
X110174674Y-106740155D02*
X110150967Y-106680441D01*
X110200279Y-106799013D02*
X110174674Y-106740155D01*
X110227758Y-106856969D02*
X110200279Y-106799013D01*
X110257084Y-106913980D02*
X110227758Y-106856969D01*
X110288230Y-106970000D02*
X110257084Y-106913980D01*
X110321171Y-107024983D02*
X110288230Y-106970000D01*
X110355881Y-107078885D02*
X110321171Y-107024983D01*
X110392334Y-107131661D02*
X110355881Y-107078885D01*
X110430503Y-107183265D02*
X110392334Y-107131661D01*
X110470363Y-107233652D02*
X110430503Y-107183265D01*
X110511888Y-107282778D02*
X110470363Y-107233652D01*
X110555051Y-107330598D02*
X110511888Y-107282778D01*
X110599826Y-107377065D02*
X110555051Y-107330598D01*
X110646189Y-107422136D02*
X110599826Y-107377065D01*
X110694111Y-107465764D02*
X110646189Y-107422136D01*
X110743569Y-107507906D02*
X110694111Y-107465764D01*
X110794534Y-107548515D02*
X110743569Y-107507906D01*
X110846982Y-107587547D02*
X110794534Y-107548515D01*
X110900887Y-107624957D02*
X110846982Y-107587547D01*
X110956221Y-107660700D02*
X110900887Y-107624957D01*
X111012960Y-107694730D02*
X110956221Y-107660700D01*
X111070801Y-107726852D02*
X111012960Y-107694730D01*
X111129422Y-107756902D02*
X111070801Y-107726852D01*
X111188772Y-107784880D02*
X111129422Y-107756902D01*
X111248799Y-107810785D02*
X111188772Y-107784880D01*
X111309451Y-107834618D02*
X111248799Y-107810785D01*
X111370675Y-107856379D02*
X111309451Y-107834618D01*
X111432420Y-107876067D02*
X111370675Y-107856379D01*
X111494633Y-107893682D02*
X111432420Y-107876067D01*
X111557263Y-107909225D02*
X111494633Y-107893682D01*
X111620257Y-107922696D02*
X111557263Y-107909225D01*
X111683564Y-107934094D02*
X111620257Y-107922696D01*
X111747131Y-107943420D02*
X111683564Y-107934094D01*
X111810906Y-107950674D02*
X111747131Y-107943420D01*
X111874837Y-107955855D02*
X111810906Y-107950674D01*
X111938873Y-107958963D02*
X111874837Y-107955855D01*
X112002960Y-107960000D02*
X111938873Y-107958963D01*
X112067048Y-107958963D02*
X112002960Y-107960000D01*
X112131084Y-107955855D02*
X112067048Y-107958963D01*
X112195015Y-107950674D02*
X112131084Y-107955855D01*
X112258790Y-107943420D02*
X112195015Y-107950674D01*
X112322357Y-107934094D02*
X112258790Y-107943420D01*
X112385664Y-107922696D02*
X112322357Y-107934094D01*
X112448658Y-107909225D02*
X112385664Y-107922696D01*
X112511288Y-107893682D02*
X112448658Y-107909225D01*
X112573501Y-107876067D02*
X112511288Y-107893682D01*
X112635246Y-107856379D02*
X112573501Y-107876067D01*
X112696470Y-107834618D02*
X112635246Y-107856379D01*
X112757122Y-107810785D02*
X112696470Y-107834618D01*
X112817149Y-107784880D02*
X112757122Y-107810785D01*
X112876499Y-107756902D02*
X112817149Y-107784880D01*
X112935120Y-107726852D02*
X112876499Y-107756902D01*
X112992960Y-107694730D02*
X112935120Y-107726852D01*
X113049700Y-107660700D02*
X112992960Y-107694730D01*
X113105034Y-107624957D02*
X113049700Y-107660700D01*
X113158939Y-107587547D02*
X113105034Y-107624957D01*
X113211387Y-107548515D02*
X113158939Y-107587547D01*
X113262352Y-107507906D02*
X113211387Y-107548515D01*
X113311810Y-107465764D02*
X113262352Y-107507906D01*
X113359732Y-107422136D02*
X113311810Y-107465764D01*
X113406095Y-107377065D02*
X113359732Y-107422136D01*
X113450870Y-107330598D02*
X113406095Y-107377065D01*
X113494033Y-107282778D02*
X113450870Y-107330598D01*
X113535558Y-107233652D02*
X113494033Y-107282778D01*
X113575418Y-107183265D02*
X113535558Y-107233652D01*
X113613587Y-107131661D02*
X113575418Y-107183265D01*
X113650040Y-107078885D02*
X113613587Y-107131661D01*
X113684750Y-107024983D02*
X113650040Y-107078885D01*
X113717691Y-106970000D02*
X113684750Y-107024983D01*
X113748837Y-106913980D02*
X113717691Y-106970000D01*
X113778163Y-106856969D02*
X113748837Y-106913980D01*
X113805642Y-106799013D02*
X113778163Y-106856969D01*
X110504905Y-104685256D02*
X110536392Y-104649722D01*
X110474265Y-104721543D02*
X110504905Y-104685256D01*
X110444487Y-104758566D02*
X110474265Y-104721543D01*
X110415587Y-104796310D02*
X110444487Y-104758566D01*
X110387580Y-104834760D02*
X110415587Y-104796310D01*
X110360481Y-104873901D02*
X110387580Y-104834760D01*
X110334306Y-104913716D02*
X110360481Y-104873901D01*
X110309071Y-104954190D02*
X110334306Y-104913716D01*
X110284791Y-104995308D02*
X110309071Y-104954190D01*
X110261482Y-105037055D02*
X110284791Y-104995308D01*
X110239158Y-105079414D02*
X110261482Y-105037055D01*
X110217836Y-105122370D02*
X110239158Y-105079414D01*
X110197531Y-105165907D02*
X110217836Y-105122370D01*
X110178258Y-105210011D02*
X110197531Y-105165907D01*
X110160034Y-105254665D02*
X110178258Y-105210011D01*
X110142873Y-105299855D02*
X110160034Y-105254665D01*
X110126790Y-105345564D02*
X110142873Y-105299855D01*
X110111803Y-105391777D02*
X110126790Y-105345564D01*
X110097925Y-105438478D02*
X110111803Y-105391777D01*
X110085173Y-105485653D02*
X110097925Y-105438478D01*
X110073562Y-105533285D02*
X110085173Y-105485653D01*
X110063107Y-105581359D02*
X110073562Y-105533285D01*
X110053824Y-105629859D02*
X110063107Y-105581359D01*
X110045729Y-105678771D02*
X110053824Y-105629859D01*
X110038836Y-105728078D02*
X110045729Y-105678771D01*
X110033162Y-105777764D02*
X110038836Y-105728078D01*
X110028722Y-105827815D02*
X110033162Y-105777764D01*
X110025532Y-105878215D02*
X110028722Y-105827815D01*
X110023606Y-105928948D02*
X110025532Y-105878215D01*
X110022960Y-105980000D02*
X110023606Y-105928948D01*
X110024062Y-106046152D02*
X110022960Y-105980000D01*
X113961220Y-105687333D02*
X113967828Y-105735609D01*
X113953438Y-105639307D02*
X113961220Y-105687333D01*
X113944491Y-105591549D02*
X113953438Y-105639307D01*
X113934386Y-105544080D02*
X113944491Y-105591549D01*
X113923132Y-105496920D02*
X113934386Y-105544080D01*
X113910739Y-105450091D02*
X113923132Y-105496920D01*
X113897213Y-105403611D02*
X113910739Y-105450091D01*
X113882564Y-105357502D02*
X113897213Y-105403611D01*
X113866799Y-105311784D02*
X113882564Y-105357502D01*
X113849928Y-105266477D02*
X113866799Y-105311784D01*
X113831959Y-105221602D02*
X113849928Y-105266477D01*
X113812900Y-105177178D02*
X113831959Y-105221602D01*
X113792760Y-105133227D02*
X113812900Y-105177178D01*
X113771547Y-105089768D02*
X113792760Y-105133227D01*
X113401986Y-104578881D02*
X113436378Y-104614085D01*
X113366730Y-104544540D02*
X113401986Y-104578881D01*
X113330718Y-104511165D02*
X113366730Y-104544540D01*
X113293971Y-104478762D02*
X113330718Y-104511165D01*
X113256510Y-104447340D02*
X113293971Y-104478762D01*
X113218354Y-104416908D02*
X113256510Y-104447340D01*
X113179524Y-104387473D02*
X113218354Y-104416908D01*
X113140040Y-104359046D02*
X113179524Y-104387473D01*
X113099922Y-104331632D02*
X113140040Y-104359046D01*
X113059192Y-104305242D02*
X113099922Y-104331632D01*
X113017869Y-104279884D02*
X113059192Y-104305242D01*
X112975973Y-104255566D02*
X113017869Y-104279884D01*
X112933526Y-104232296D02*
X112975973Y-104255566D01*
X113982350Y-105930787D02*
X113982960Y-105980000D01*
X113980522Y-105881722D02*
X113982350Y-105930787D01*
X113977488Y-105832823D02*
X113980522Y-105881722D01*
X113973253Y-105784112D02*
X113977488Y-105832823D01*
X113967828Y-105735609D02*
X113973253Y-105784112D01*
X112890547Y-104210082D02*
X112933526Y-104232296D01*
X112847056Y-104188934D02*
X112890547Y-104210082D01*
X112803075Y-104168860D02*
X112847056Y-104188934D01*
X113676136Y-104921265D02*
X113701556Y-104962551D01*
X113649685Y-104880574D02*
X113676136Y-104921265D01*
X113622212Y-104840498D02*
X113649685Y-104880574D01*
X113593725Y-104801057D02*
X113622212Y-104840498D01*
X113564233Y-104762270D02*
X113593725Y-104801057D01*
X113533743Y-104724160D02*
X113564233Y-104762270D01*
X113502266Y-104686745D02*
X113533743Y-104724160D01*
X113469808Y-104650047D02*
X113502266Y-104686745D01*
X113436378Y-104614085D02*
X113469808Y-104650047D01*
X113978573Y-106111945D02*
X113973127Y-106177332D01*
X113981859Y-106046152D02*
X113978573Y-106111945D01*
X113982960Y-105980000D02*
X113981859Y-106046152D01*
X113749270Y-105046822D02*
X113771547Y-105089768D01*
X113725937Y-105004410D02*
X113749270Y-105046822D01*
X113701556Y-104962551D02*
X113725937Y-105004410D01*
X112758623Y-104149868D02*
X112803075Y-104168860D01*
X112713721Y-104131966D02*
X112758623Y-104149868D01*
X112668388Y-104115162D02*
X112713721Y-104131966D01*
X112622647Y-104099466D02*
X112668388Y-104115162D01*
X112576516Y-104084886D02*
X112622647Y-104099466D01*
X112530017Y-104071430D02*
X112576516Y-104084886D01*
X112483168Y-104059106D02*
X112530017Y-104071430D01*
X112435992Y-104047923D02*
X112483168Y-104059106D01*
X112388508Y-104037889D02*
X112435992Y-104047923D01*
X112340737Y-104029013D02*
X112388508Y-104037889D01*
X112292699Y-104021303D02*
X112340737Y-104029013D01*
X112244414Y-104014767D02*
X112292699Y-104021303D01*
X112195902Y-104009414D02*
X112244414Y-104014767D01*
X112147185Y-104005253D02*
X112195902Y-104009414D01*
X112098282Y-104002291D02*
X112147185Y-104005253D01*
X112049214Y-104000537D02*
X112098282Y-104002291D01*
X112000000Y-104000000D02*
X112049214Y-104000537D01*
D11*
X96914285Y-110761904D02*
X96914285Y-109961904D01*
X97180952Y-110533333D01*
X97447619Y-109961904D01*
X97447619Y-110761904D01*
X97828571Y-110761904D02*
X97828571Y-110228571D01*
X97828571Y-109961904D02*
X97790476Y-110000000D01*
X97828571Y-110038095D01*
X97866666Y-110000000D01*
X97828571Y-109961904D01*
X97828571Y-110038095D01*
X98209523Y-110228571D02*
X98209523Y-110761904D01*
X98209523Y-110304761D02*
X98247619Y-110266666D01*
X98323809Y-110228571D01*
X98438095Y-110228571D01*
X98514285Y-110266666D01*
X98552380Y-110342857D01*
X98552380Y-110761904D01*
X98933333Y-110761904D02*
X98933333Y-110228571D01*
X98933333Y-109961904D02*
X98895238Y-110000000D01*
X98933333Y-110038095D01*
X98971428Y-110000000D01*
X98933333Y-109961904D01*
X98933333Y-110038095D01*
X99314285Y-110457142D02*
X99923809Y-110457142D01*
X100266666Y-110723809D02*
X100380952Y-110761904D01*
X100571428Y-110761904D01*
X100647619Y-110723809D01*
X100685714Y-110685714D01*
X100723809Y-110609523D01*
X100723809Y-110533333D01*
X100685714Y-110457142D01*
X100647619Y-110419047D01*
X100571428Y-110380952D01*
X100419047Y-110342857D01*
X100342857Y-110304761D01*
X100304761Y-110266666D01*
X100266666Y-110190476D01*
X100266666Y-110114285D01*
X100304761Y-110038095D01*
X100342857Y-110000000D01*
X100419047Y-109961904D01*
X100609523Y-109961904D01*
X100723809Y-110000000D01*
X101066666Y-110761904D02*
X101066666Y-109961904D01*
X101371428Y-109961904D01*
X101447619Y-110000000D01*
X101485714Y-110038095D01*
X101523809Y-110114285D01*
X101523809Y-110228571D01*
X101485714Y-110304761D01*
X101447619Y-110342857D01*
X101371428Y-110380952D01*
X101066666Y-110380952D01*
X102019047Y-109961904D02*
X102171428Y-109961904D01*
X102247619Y-110000000D01*
X102323809Y-110076190D01*
X102361904Y-110228571D01*
X102361904Y-110495238D01*
X102323809Y-110647619D01*
X102247619Y-110723809D01*
X102171428Y-110761904D01*
X102019047Y-110761904D01*
X101942857Y-110723809D01*
X101866666Y-110647619D01*
X101828571Y-110495238D01*
X101828571Y-110228571D01*
X101866666Y-110076190D01*
X101942857Y-110000000D01*
X102019047Y-109961904D01*
X102628571Y-109961904D02*
X103161904Y-110761904D01*
X103161904Y-109961904D02*
X102628571Y-110761904D01*
X96861904Y-113161904D02*
X96938095Y-113161904D01*
X97014285Y-113200000D01*
X97052380Y-113238095D01*
X97090476Y-113314285D01*
X97128571Y-113466666D01*
X97128571Y-113657142D01*
X97090476Y-113809523D01*
X97052380Y-113885714D01*
X97014285Y-113923809D01*
X96938095Y-113961904D01*
X96861904Y-113961904D01*
X96785714Y-113923809D01*
X96747619Y-113885714D01*
X96709523Y-113809523D01*
X96671428Y-113657142D01*
X96671428Y-113466666D01*
X96709523Y-113314285D01*
X96747619Y-113238095D01*
X96785714Y-113200000D01*
X96861904Y-113161904D01*
X97471428Y-113885714D02*
X97509523Y-113923809D01*
X97471428Y-113961904D01*
X97433333Y-113923809D01*
X97471428Y-113885714D01*
X97471428Y-113961904D01*
X98271428Y-113961904D02*
X97814285Y-113961904D01*
X98042857Y-113961904D02*
X98042857Y-113161904D01*
X97966666Y-113276190D01*
X97890476Y-113352380D01*
X97814285Y-113390476D01*
X98614285Y-113161904D02*
X98614285Y-113200000D01*
X98576190Y-113276190D01*
X98538095Y-113314285D01*
X98919047Y-113161904D02*
X98919047Y-113200000D01*
X98880952Y-113276190D01*
X98842857Y-113314285D01*
X99833333Y-113961904D02*
X99833333Y-113161904D01*
X100176190Y-113961904D02*
X100176190Y-113542857D01*
X100138095Y-113466666D01*
X100061904Y-113428571D01*
X99947619Y-113428571D01*
X99871428Y-113466666D01*
X99833333Y-113504761D01*
X100861904Y-113923809D02*
X100785714Y-113961904D01*
X100633333Y-113961904D01*
X100557142Y-113923809D01*
X100519047Y-113847619D01*
X100519047Y-113542857D01*
X100557142Y-113466666D01*
X100633333Y-113428571D01*
X100785714Y-113428571D01*
X100861904Y-113466666D01*
X100900000Y-113542857D01*
X100900000Y-113619047D01*
X100519047Y-113695238D01*
X101585714Y-113961904D02*
X101585714Y-113542857D01*
X101547619Y-113466666D01*
X101471428Y-113428571D01*
X101319047Y-113428571D01*
X101242857Y-113466666D01*
X101585714Y-113923809D02*
X101509523Y-113961904D01*
X101319047Y-113961904D01*
X101242857Y-113923809D01*
X101204761Y-113847619D01*
X101204761Y-113771428D01*
X101242857Y-113695238D01*
X101319047Y-113657142D01*
X101509523Y-113657142D01*
X101585714Y-113619047D01*
X102309523Y-113961904D02*
X102309523Y-113161904D01*
X102309523Y-113923809D02*
X102233333Y-113961904D01*
X102080952Y-113961904D01*
X102004761Y-113923809D01*
X101966666Y-113885714D01*
X101928571Y-113809523D01*
X101928571Y-113580952D01*
X101966666Y-113504761D01*
X102004761Y-113466666D01*
X102080952Y-113428571D01*
X102233333Y-113428571D01*
X102309523Y-113466666D01*
X102995238Y-113923809D02*
X102919047Y-113961904D01*
X102766666Y-113961904D01*
X102690476Y-113923809D01*
X102652380Y-113847619D01*
X102652380Y-113542857D01*
X102690476Y-113466666D01*
X102766666Y-113428571D01*
X102919047Y-113428571D01*
X102995238Y-113466666D01*
X103033333Y-113542857D01*
X103033333Y-113619047D01*
X102652380Y-113695238D01*
X103376190Y-113961904D02*
X103376190Y-113428571D01*
X103376190Y-113580952D02*
X103414285Y-113504761D01*
X103452380Y-113466666D01*
X103528571Y-113428571D01*
X103604761Y-113428571D01*
D12*
X95511904Y-107226190D02*
X95511904Y-106726190D01*
X95726190Y-106773809D02*
X95750000Y-106750000D01*
X95797619Y-106726190D01*
X95916666Y-106726190D01*
X95964285Y-106750000D01*
X95988095Y-106773809D01*
X96011904Y-106821428D01*
X96011904Y-106869047D01*
X95988095Y-106940476D01*
X95702380Y-107226190D01*
X96011904Y-107226190D01*
X96511904Y-107178571D02*
X96488095Y-107202380D01*
X96416666Y-107226190D01*
X96369047Y-107226190D01*
X96297619Y-107202380D01*
X96250000Y-107154761D01*
X96226190Y-107107142D01*
X96202380Y-107011904D01*
X96202380Y-106940476D01*
X96226190Y-106845238D01*
X96250000Y-106797619D01*
X96297619Y-106750000D01*
X96369047Y-106726190D01*
X96416666Y-106726190D01*
X96488095Y-106750000D01*
X96511904Y-106773809D01*
X93107142Y-107276190D02*
X93107142Y-106776190D01*
X93107142Y-107014285D02*
X93392857Y-107014285D01*
X93392857Y-107276190D02*
X93392857Y-106776190D01*
X93607142Y-107252380D02*
X93678571Y-107276190D01*
X93797619Y-107276190D01*
X93845238Y-107252380D01*
X93869047Y-107228571D01*
X93892857Y-107180952D01*
X93892857Y-107133333D01*
X93869047Y-107085714D01*
X93845238Y-107061904D01*
X93797619Y-107038095D01*
X93702380Y-107014285D01*
X93654761Y-106990476D01*
X93630952Y-106966666D01*
X93607142Y-106919047D01*
X93607142Y-106871428D01*
X93630952Y-106823809D01*
X93654761Y-106800000D01*
X93702380Y-106776190D01*
X93821428Y-106776190D01*
X93892857Y-106800000D01*
X94107142Y-106776190D02*
X94107142Y-107180952D01*
X94130952Y-107228571D01*
X94154761Y-107252380D01*
X94202380Y-107276190D01*
X94297619Y-107276190D01*
X94345238Y-107252380D01*
X94369047Y-107228571D01*
X94392857Y-107180952D01*
X94392857Y-106776190D01*
D13*
X113761904Y-94066666D02*
X114238095Y-94066666D01*
X113666666Y-94352380D02*
X114000000Y-93352380D01*
X114333333Y-94352380D01*
X88647619Y-97404761D02*
X88647619Y-97976190D01*
X87647619Y-97690476D02*
X88647619Y-97690476D01*
X87647619Y-98738095D02*
X88171428Y-98738095D01*
X88266666Y-98690476D01*
X88314285Y-98595238D01*
X88314285Y-98404761D01*
X88266666Y-98309523D01*
X87695238Y-98738095D02*
X87647619Y-98642857D01*
X87647619Y-98404761D01*
X87695238Y-98309523D01*
X87790476Y-98261904D01*
X87885714Y-98261904D01*
X87980952Y-98309523D01*
X88028571Y-98404761D01*
X88028571Y-98642857D01*
X88076190Y-98738095D01*
X87647619Y-99214285D02*
X88314285Y-99214285D01*
X88219047Y-99214285D02*
X88266666Y-99261904D01*
X88314285Y-99357142D01*
X88314285Y-99500000D01*
X88266666Y-99595238D01*
X88171428Y-99642857D01*
X87647619Y-99642857D01*
X88171428Y-99642857D02*
X88266666Y-99690476D01*
X88314285Y-99785714D01*
X88314285Y-99928571D01*
X88266666Y-100023809D01*
X88171428Y-100071428D01*
X87647619Y-100071428D01*
X88314285Y-100547619D02*
X87314285Y-100547619D01*
X88266666Y-100547619D02*
X88314285Y-100642857D01*
X88314285Y-100833333D01*
X88266666Y-100928571D01*
X88219047Y-100976190D01*
X88123809Y-101023809D01*
X87838095Y-101023809D01*
X87742857Y-100976190D01*
X87695238Y-100928571D01*
X87647619Y-100833333D01*
X87647619Y-100642857D01*
X87695238Y-100547619D01*
X87695238Y-101833333D02*
X87647619Y-101738095D01*
X87647619Y-101547619D01*
X87695238Y-101452380D01*
X87790476Y-101404761D01*
X88171428Y-101404761D01*
X88266666Y-101452380D01*
X88314285Y-101547619D01*
X88314285Y-101738095D01*
X88266666Y-101833333D01*
X88171428Y-101880952D01*
X88076190Y-101880952D01*
X87980952Y-101404761D01*
X87647619Y-102309523D02*
X88314285Y-102309523D01*
X88123809Y-102309523D02*
X88219047Y-102357142D01*
X88266666Y-102404761D01*
X88314285Y-102500000D01*
X88314285Y-102595238D01*
D12*
X90473571Y-115136190D02*
X90306904Y-114898095D01*
X90187857Y-115136190D02*
X90187857Y-114636190D01*
X90378333Y-114636190D01*
X90425952Y-114660000D01*
X90449761Y-114683809D01*
X90473571Y-114731428D01*
X90473571Y-114802857D01*
X90449761Y-114850476D01*
X90425952Y-114874285D01*
X90378333Y-114898095D01*
X90187857Y-114898095D01*
X90640238Y-114636190D02*
X90973571Y-115136190D01*
X90973571Y-114636190D02*
X90640238Y-115136190D01*
X85022619Y-114636190D02*
X85308333Y-114636190D01*
X85165476Y-115136190D02*
X85165476Y-114636190D01*
X85427380Y-114636190D02*
X85760714Y-115136190D01*
X85760714Y-114636190D02*
X85427380Y-115136190D01*
X89664047Y-108826190D02*
X89830714Y-109326190D01*
X89997380Y-108826190D01*
X90449761Y-109278571D02*
X90425952Y-109302380D01*
X90354523Y-109326190D01*
X90306904Y-109326190D01*
X90235476Y-109302380D01*
X90187857Y-109254761D01*
X90164047Y-109207142D01*
X90140238Y-109111904D01*
X90140238Y-109040476D01*
X90164047Y-108945238D01*
X90187857Y-108897619D01*
X90235476Y-108850000D01*
X90306904Y-108826190D01*
X90354523Y-108826190D01*
X90425952Y-108850000D01*
X90449761Y-108873809D01*
X90949761Y-109278571D02*
X90925952Y-109302380D01*
X90854523Y-109326190D01*
X90806904Y-109326190D01*
X90735476Y-109302380D01*
X90687857Y-109254761D01*
X90664047Y-109207142D01*
X90640238Y-109111904D01*
X90640238Y-109040476D01*
X90664047Y-108945238D01*
X90687857Y-108897619D01*
X90735476Y-108850000D01*
X90806904Y-108826190D01*
X90854523Y-108826190D01*
X90925952Y-108850000D01*
X90949761Y-108873809D01*
X85325952Y-108850000D02*
X85278333Y-108826190D01*
X85206904Y-108826190D01*
X85135476Y-108850000D01*
X85087857Y-108897619D01*
X85064047Y-108945238D01*
X85040238Y-109040476D01*
X85040238Y-109111904D01*
X85064047Y-109207142D01*
X85087857Y-109254761D01*
X85135476Y-109302380D01*
X85206904Y-109326190D01*
X85254523Y-109326190D01*
X85325952Y-109302380D01*
X85349761Y-109278571D01*
X85349761Y-109111904D01*
X85254523Y-109111904D01*
X85564047Y-109326190D02*
X85564047Y-108826190D01*
X85849761Y-109326190D01*
X85849761Y-108826190D01*
X86087857Y-109326190D02*
X86087857Y-108826190D01*
X86206904Y-108826190D01*
X86278333Y-108850000D01*
X86325952Y-108897619D01*
X86349761Y-108945238D01*
X86373571Y-109040476D01*
X86373571Y-109111904D01*
X86349761Y-109207142D01*
X86325952Y-109254761D01*
X86278333Y-109302380D01*
X86206904Y-109326190D01*
X86087857Y-109326190D01*
D13*
X114261904Y-99400000D02*
X114166666Y-99352380D01*
X114023809Y-99352380D01*
X113880952Y-99400000D01*
X113785714Y-99495238D01*
X113738095Y-99590476D01*
X113690476Y-99780952D01*
X113690476Y-99923809D01*
X113738095Y-100114285D01*
X113785714Y-100209523D01*
X113880952Y-100304761D01*
X114023809Y-100352380D01*
X114119047Y-100352380D01*
X114261904Y-100304761D01*
X114309523Y-100257142D01*
X114309523Y-99923809D01*
X114119047Y-99923809D01*
X114309523Y-88452380D02*
X113976190Y-87976190D01*
X113738095Y-88452380D02*
X113738095Y-87452380D01*
X114119047Y-87452380D01*
X114214285Y-87500000D01*
X114261904Y-87547619D01*
X114309523Y-87642857D01*
X114309523Y-87785714D01*
X114261904Y-87880952D01*
X114214285Y-87928571D01*
X114119047Y-87976190D01*
X113738095Y-87976190D01*
X104352380Y-118716666D02*
X103876190Y-119050000D01*
X104352380Y-119288095D02*
X103352380Y-119288095D01*
X103352380Y-118907142D01*
X103400000Y-118811904D01*
X103447619Y-118764285D01*
X103542857Y-118716666D01*
X103685714Y-118716666D01*
X103780952Y-118764285D01*
X103828571Y-118811904D01*
X103876190Y-118907142D01*
X103876190Y-119288095D01*
X103352380Y-118383333D02*
X104352380Y-117716666D01*
X103352380Y-117716666D02*
X104352380Y-118383333D01*
X100852380Y-119311904D02*
X100852380Y-118740476D01*
X101852380Y-119026190D02*
X100852380Y-119026190D01*
X100852380Y-118502380D02*
X101852380Y-117835714D01*
X100852380Y-117835714D02*
X101852380Y-118502380D01*
X98352380Y-119883333D02*
X99352380Y-119550000D01*
X98352380Y-119216666D01*
X99257142Y-118311904D02*
X99304761Y-118359523D01*
X99352380Y-118502380D01*
X99352380Y-118597619D01*
X99304761Y-118740476D01*
X99209523Y-118835714D01*
X99114285Y-118883333D01*
X98923809Y-118930952D01*
X98780952Y-118930952D01*
X98590476Y-118883333D01*
X98495238Y-118835714D01*
X98400000Y-118740476D01*
X98352380Y-118597619D01*
X98352380Y-118502380D01*
X98400000Y-118359523D01*
X98447619Y-118311904D01*
X99257142Y-117311904D02*
X99304761Y-117359523D01*
X99352380Y-117502380D01*
X99352380Y-117597619D01*
X99304761Y-117740476D01*
X99209523Y-117835714D01*
X99114285Y-117883333D01*
X98923809Y-117930952D01*
X98780952Y-117930952D01*
X98590476Y-117883333D01*
X98495238Y-117835714D01*
X98400000Y-117740476D01*
X98352380Y-117597619D01*
X98352380Y-117502380D01*
X98400000Y-117359523D01*
X98447619Y-117311904D01*
X95900000Y-119311904D02*
X95852380Y-119407142D01*
X95852380Y-119550000D01*
X95900000Y-119692857D01*
X95995238Y-119788095D01*
X96090476Y-119835714D01*
X96280952Y-119883333D01*
X96423809Y-119883333D01*
X96614285Y-119835714D01*
X96709523Y-119788095D01*
X96804761Y-119692857D01*
X96852380Y-119550000D01*
X96852380Y-119454761D01*
X96804761Y-119311904D01*
X96757142Y-119264285D01*
X96423809Y-119264285D01*
X96423809Y-119454761D01*
X96852380Y-118835714D02*
X95852380Y-118835714D01*
X96852380Y-118264285D01*
X95852380Y-118264285D01*
X96852380Y-117788095D02*
X95852380Y-117788095D01*
X95852380Y-117550000D01*
X95900000Y-117407142D01*
X95995238Y-117311904D01*
X96090476Y-117264285D01*
X96280952Y-117216666D01*
X96423809Y-117216666D01*
X96614285Y-117264285D01*
X96709523Y-117311904D01*
X96804761Y-117407142D01*
X96852380Y-117550000D01*
X96852380Y-117788095D01*
D14*
%TO.C,J4*%
X84850000Y-108675000D02*
X91150000Y-108675000D01*
X84850000Y-115325000D02*
X84850000Y-108675000D01*
X91150000Y-115325000D02*
X84850000Y-115325000D01*
X91150000Y-108675000D02*
X91150000Y-115325000D01*
%TO.C,J1*%
X109330000Y-103400000D02*
X106670000Y-103400000D01*
X109330000Y-106000000D02*
X109330000Y-103400000D01*
X106670000Y-106000000D02*
X106670000Y-103400000D01*
X109330000Y-106000000D02*
X106670000Y-106000000D01*
X109330000Y-107270000D02*
X109330000Y-108600000D01*
X109330000Y-108600000D02*
X108000000Y-108600000D01*
%TO.C,A1*%
X116500000Y-88000000D02*
X116500000Y-112000000D01*
X112000000Y-116500000D02*
X88000000Y-116500000D01*
X83500000Y-112000000D02*
X83500000Y-88000000D01*
X88000000Y-83500000D02*
X112000000Y-83500000D01*
X88000000Y-79500000D02*
X112000000Y-79500000D01*
X120500000Y-88000000D02*
X120500000Y-112000000D01*
X112500000Y-120500000D02*
X88000000Y-120500000D01*
X79500000Y-112000000D02*
X79500000Y-88000000D01*
X83500000Y-112000000D02*
G75*
G03*
X88000000Y-116500000I4500000J0D01*
G01*
X88000000Y-83500000D02*
G75*
G03*
X83500000Y-88000000I0J-4500000D01*
G01*
X116500000Y-88000000D02*
G75*
G03*
X112000000Y-83500000I-4500000J0D01*
G01*
X88000000Y-79500000D02*
G75*
G03*
X79500000Y-88000000I0J-8500000D01*
G01*
X79500000Y-112000000D02*
G75*
G03*
X88000000Y-120500000I8500000J0D01*
G01*
X112499137Y-120485332D02*
G75*
G03*
X120500000Y-112000000I-499137J8485332D01*
G01*
X120500000Y-88000000D02*
G75*
G03*
X112000000Y-79500000I-8500000J0D01*
G01*
X112000000Y-116500000D02*
G75*
G03*
X116500000Y-112000000I0J4500000D01*
G01*
%TO.C,R12*%
X102337258Y-105277500D02*
X101862742Y-105277500D01*
X102337258Y-106322500D02*
X101862742Y-106322500D01*
%TO.C,C5*%
X101359420Y-88760000D02*
X101640580Y-88760000D01*
X101359420Y-87740000D02*
X101640580Y-87740000D01*
%TO.C,C2*%
X98640580Y-85490000D02*
X98359420Y-85490000D01*
X98640580Y-86510000D02*
X98359420Y-86510000D01*
%TO.C,L2*%
X96564758Y-89490000D02*
X98235242Y-89490000D01*
X96564758Y-91310000D02*
X98235242Y-91310000D01*
%TO.C,L1*%
X101764758Y-89490000D02*
X103435242Y-89490000D01*
X101764758Y-91310000D02*
X103435242Y-91310000D01*
%TO.C,R11*%
X105022500Y-105287258D02*
X105022500Y-104812742D01*
X103977500Y-105287258D02*
X103977500Y-104812742D01*
%TO.C,R10*%
X100222500Y-105287258D02*
X100222500Y-104812742D01*
X99177500Y-105287258D02*
X99177500Y-104812742D01*
%TO.C,R9*%
X108862742Y-99322500D02*
X109337258Y-99322500D01*
X108862742Y-98277500D02*
X109337258Y-98277500D01*
%TO.C,R8*%
X108862742Y-100822500D02*
X109337258Y-100822500D01*
X108862742Y-99777500D02*
X109337258Y-99777500D01*
%TO.C,R7*%
X108862742Y-102322500D02*
X109337258Y-102322500D01*
X108862742Y-101277500D02*
X109337258Y-101277500D01*
%TO.C,R6*%
X108862742Y-97822500D02*
X109337258Y-97822500D01*
X108862742Y-96777500D02*
X109337258Y-96777500D01*
%TO.C,R5*%
X108862742Y-96322500D02*
X109337258Y-96322500D01*
X108862742Y-95277500D02*
X109337258Y-95277500D01*
%TO.C,R4*%
X95362742Y-92872500D02*
X95837258Y-92872500D01*
X95362742Y-91827500D02*
X95837258Y-91827500D01*
%TO.C,R3*%
X93662742Y-88772500D02*
X94137258Y-88772500D01*
X93662742Y-87727500D02*
X94137258Y-87727500D01*
%TO.C,R2*%
X96722500Y-84762258D02*
X96722500Y-84287742D01*
X95677500Y-84762258D02*
X95677500Y-84287742D01*
%TO.C,R1*%
X104322500Y-84737258D02*
X104322500Y-84262742D01*
X103277500Y-84737258D02*
X103277500Y-84262742D01*
%TO.C,C17*%
X97690000Y-104909420D02*
X97690000Y-105190580D01*
X98710000Y-104909420D02*
X98710000Y-105190580D01*
%TO.C,C16*%
X94140580Y-101990000D02*
X93859420Y-101990000D01*
X94140580Y-103010000D02*
X93859420Y-103010000D01*
%TO.C,C15*%
X93859420Y-98010000D02*
X94140580Y-98010000D01*
X93859420Y-96990000D02*
X94140580Y-96990000D01*
%TO.C,C14*%
X105359420Y-97810000D02*
X105640580Y-97810000D01*
X105359420Y-96790000D02*
X105640580Y-96790000D01*
%TO.C,C13*%
X105740000Y-99459420D02*
X105740000Y-99740580D01*
X106760000Y-99459420D02*
X106760000Y-99740580D01*
%TO.C,C12*%
X104240000Y-99459420D02*
X104240000Y-99740580D01*
X105260000Y-99459420D02*
X105260000Y-99740580D01*
%TO.C,C11*%
X98215580Y-94840000D02*
X97934420Y-94840000D01*
X98215580Y-95860000D02*
X97934420Y-95860000D01*
%TO.C,C10*%
X95740580Y-93340000D02*
X95459420Y-93340000D01*
X95740580Y-94360000D02*
X95459420Y-94360000D01*
%TO.C,C9*%
X101059420Y-94360000D02*
X101340580Y-94360000D01*
X101059420Y-93340000D02*
X101340580Y-93340000D01*
%TO.C,C8*%
X93610000Y-90740580D02*
X93610000Y-90459420D01*
X92590000Y-90740580D02*
X92590000Y-90459420D01*
%TO.C,C7*%
X101059420Y-95860000D02*
X101340580Y-95860000D01*
X101059420Y-94840000D02*
X101340580Y-94840000D01*
%TO.C,C6*%
X98640580Y-87740000D02*
X98359420Y-87740000D01*
X98640580Y-88760000D02*
X98359420Y-88760000D01*
%TO.C,C4*%
X95690000Y-87359420D02*
X95690000Y-87640580D01*
X96710000Y-87359420D02*
X96710000Y-87640580D01*
%TO.C,C3*%
X104310000Y-87640580D02*
X104310000Y-87359420D01*
X103290000Y-87640580D02*
X103290000Y-87359420D01*
%TO.C,C1*%
X101640580Y-85490000D02*
X101359420Y-85490000D01*
X101640580Y-86510000D02*
X101359420Y-86510000D01*
%TO.C,SW1*%
X87250000Y-103500000D02*
X88750000Y-103500000D01*
X91250000Y-102250000D02*
X91250000Y-97750000D01*
X88750000Y-96500000D02*
X87250000Y-96500000D01*
X84750000Y-97750000D02*
X84750000Y-102250000D01*
X84770000Y-96770000D02*
X84770000Y-103230000D01*
X89300000Y-96770000D02*
X86700000Y-96770000D01*
X91230000Y-96770000D02*
X91230000Y-103230000D01*
X89300000Y-103230000D02*
X86700000Y-103230000D01*
X91200000Y-96770000D02*
X91230000Y-96770000D01*
X84770000Y-96770000D02*
X84800000Y-96770000D01*
X84770000Y-103230000D02*
X84800000Y-103230000D01*
X91230000Y-103230000D02*
X91200000Y-103230000D01*
%TO.C,J3*%
X106350000Y-107500000D02*
X106350000Y-115500000D01*
X93650000Y-107500000D02*
X106350000Y-107500000D01*
X93650000Y-107500000D02*
X93650000Y-115500000D01*
%TO.C,JP1*%
X92750000Y-105700000D02*
X92750000Y-105100000D01*
X96200000Y-106400000D02*
X93400000Y-106400000D01*
X96850000Y-105100000D02*
X96850000Y-105700000D01*
X93400000Y-104400000D02*
X96200000Y-104400000D01*
X92750000Y-105100000D02*
G75*
G02*
X93450000Y-104400000I700000J0D01*
G01*
X93450000Y-106400000D02*
G75*
G02*
X92750000Y-105700000I0J700000D01*
G01*
X96850000Y-105700000D02*
G75*
G02*
X96150000Y-106400000I-700000J0D01*
G01*
X96150000Y-104400000D02*
G75*
G02*
X96850000Y-105100000I0J-700000D01*
G01*
%TO.C,U1*%
X103110000Y-97365000D02*
X103110000Y-96890000D01*
X96890000Y-103110000D02*
X97365000Y-103110000D01*
X96890000Y-102635000D02*
X96890000Y-103110000D01*
X96890000Y-96890000D02*
X97365000Y-96890000D01*
X96890000Y-97365000D02*
X96890000Y-96890000D01*
X103110000Y-103110000D02*
X102635000Y-103110000D01*
X103110000Y-102635000D02*
X103110000Y-103110000D01*
%TO.C,J4*%
D13*
X87666666Y-113952380D02*
X87666666Y-114666666D01*
X87619047Y-114809523D01*
X87523809Y-114904761D01*
X87380952Y-114952380D01*
X87285714Y-114952380D01*
X88571428Y-114285714D02*
X88571428Y-114952380D01*
X88333333Y-113904761D02*
X88095238Y-114619047D01*
X88714285Y-114619047D01*
%TO.C,J1*%
X107666666Y-109052380D02*
X107666666Y-109766666D01*
X107619047Y-109909523D01*
X107523809Y-110004761D01*
X107380952Y-110052380D01*
X107285714Y-110052380D01*
X108666666Y-110052380D02*
X108095238Y-110052380D01*
X108380952Y-110052380D02*
X108380952Y-109052380D01*
X108285714Y-109195238D01*
X108190476Y-109290476D01*
X108095238Y-109338095D01*
%TO.C,TP1*%
D15*
X99369047Y-92126190D02*
X99654761Y-92126190D01*
X99511904Y-92626190D02*
X99511904Y-92126190D01*
X99821428Y-92626190D02*
X99821428Y-92126190D01*
X100011904Y-92126190D01*
X100059523Y-92150000D01*
X100083333Y-92173809D01*
X100107142Y-92221428D01*
X100107142Y-92292857D01*
X100083333Y-92340476D01*
X100059523Y-92364285D01*
X100011904Y-92388095D01*
X99821428Y-92388095D01*
X100583333Y-92626190D02*
X100297619Y-92626190D01*
X100440476Y-92626190D02*
X100440476Y-92126190D01*
X100392857Y-92197619D01*
X100345238Y-92245238D01*
X100297619Y-92269047D01*
%TO.C,R12*%
X101842857Y-104880952D02*
X101709523Y-104690476D01*
X101614285Y-104880952D02*
X101614285Y-104480952D01*
X101766666Y-104480952D01*
X101804761Y-104500000D01*
X101823809Y-104519047D01*
X101842857Y-104557142D01*
X101842857Y-104614285D01*
X101823809Y-104652380D01*
X101804761Y-104671428D01*
X101766666Y-104690476D01*
X101614285Y-104690476D01*
X102223809Y-104880952D02*
X101995238Y-104880952D01*
X102109523Y-104880952D02*
X102109523Y-104480952D01*
X102071428Y-104538095D01*
X102033333Y-104576190D01*
X101995238Y-104595238D01*
X102376190Y-104519047D02*
X102395238Y-104500000D01*
X102433333Y-104480952D01*
X102528571Y-104480952D01*
X102566666Y-104500000D01*
X102585714Y-104519047D01*
X102604761Y-104557142D01*
X102604761Y-104595238D01*
X102585714Y-104652380D01*
X102357142Y-104880952D01*
X102604761Y-104880952D01*
%TO.C,C5*%
X101433333Y-87292857D02*
X101414285Y-87311904D01*
X101357142Y-87330952D01*
X101319047Y-87330952D01*
X101261904Y-87311904D01*
X101223809Y-87273809D01*
X101204761Y-87235714D01*
X101185714Y-87159523D01*
X101185714Y-87102380D01*
X101204761Y-87026190D01*
X101223809Y-86988095D01*
X101261904Y-86950000D01*
X101319047Y-86930952D01*
X101357142Y-86930952D01*
X101414285Y-86950000D01*
X101433333Y-86969047D01*
X101795238Y-86930952D02*
X101604761Y-86930952D01*
X101585714Y-87121428D01*
X101604761Y-87102380D01*
X101642857Y-87083333D01*
X101738095Y-87083333D01*
X101776190Y-87102380D01*
X101795238Y-87121428D01*
X101814285Y-87159523D01*
X101814285Y-87254761D01*
X101795238Y-87292857D01*
X101776190Y-87311904D01*
X101738095Y-87330952D01*
X101642857Y-87330952D01*
X101604761Y-87311904D01*
X101585714Y-87292857D01*
%TO.C,C2*%
X98433333Y-84992857D02*
X98414285Y-85011904D01*
X98357142Y-85030952D01*
X98319047Y-85030952D01*
X98261904Y-85011904D01*
X98223809Y-84973809D01*
X98204761Y-84935714D01*
X98185714Y-84859523D01*
X98185714Y-84802380D01*
X98204761Y-84726190D01*
X98223809Y-84688095D01*
X98261904Y-84650000D01*
X98319047Y-84630952D01*
X98357142Y-84630952D01*
X98414285Y-84650000D01*
X98433333Y-84669047D01*
X98585714Y-84669047D02*
X98604761Y-84650000D01*
X98642857Y-84630952D01*
X98738095Y-84630952D01*
X98776190Y-84650000D01*
X98795238Y-84669047D01*
X98814285Y-84707142D01*
X98814285Y-84745238D01*
X98795238Y-84802380D01*
X98566666Y-85030952D01*
X98814285Y-85030952D01*
%TO.C,L2*%
X97333333Y-91980952D02*
X97142857Y-91980952D01*
X97142857Y-91580952D01*
X97447619Y-91619047D02*
X97466666Y-91600000D01*
X97504761Y-91580952D01*
X97600000Y-91580952D01*
X97638095Y-91600000D01*
X97657142Y-91619047D01*
X97676190Y-91657142D01*
X97676190Y-91695238D01*
X97657142Y-91752380D01*
X97428571Y-91980952D01*
X97676190Y-91980952D01*
%TO.C,L1*%
X102583333Y-92030952D02*
X102392857Y-92030952D01*
X102392857Y-91630952D01*
X102926190Y-92030952D02*
X102697619Y-92030952D01*
X102811904Y-92030952D02*
X102811904Y-91630952D01*
X102773809Y-91688095D01*
X102735714Y-91726190D01*
X102697619Y-91745238D01*
%TO.C,R11*%
X105780952Y-105257142D02*
X105590476Y-105390476D01*
X105780952Y-105485714D02*
X105380952Y-105485714D01*
X105380952Y-105333333D01*
X105400000Y-105295238D01*
X105419047Y-105276190D01*
X105457142Y-105257142D01*
X105514285Y-105257142D01*
X105552380Y-105276190D01*
X105571428Y-105295238D01*
X105590476Y-105333333D01*
X105590476Y-105485714D01*
X105780952Y-104876190D02*
X105780952Y-105104761D01*
X105780952Y-104990476D02*
X105380952Y-104990476D01*
X105438095Y-105028571D01*
X105476190Y-105066666D01*
X105495238Y-105104761D01*
X105780952Y-104495238D02*
X105780952Y-104723809D01*
X105780952Y-104609523D02*
X105380952Y-104609523D01*
X105438095Y-104647619D01*
X105476190Y-104685714D01*
X105495238Y-104723809D01*
%TO.C,R10*%
X100980952Y-104357142D02*
X100790476Y-104490476D01*
X100980952Y-104585714D02*
X100580952Y-104585714D01*
X100580952Y-104433333D01*
X100600000Y-104395238D01*
X100619047Y-104376190D01*
X100657142Y-104357142D01*
X100714285Y-104357142D01*
X100752380Y-104376190D01*
X100771428Y-104395238D01*
X100790476Y-104433333D01*
X100790476Y-104585714D01*
X100980952Y-103976190D02*
X100980952Y-104204761D01*
X100980952Y-104090476D02*
X100580952Y-104090476D01*
X100638095Y-104128571D01*
X100676190Y-104166666D01*
X100695238Y-104204761D01*
X100580952Y-103728571D02*
X100580952Y-103690476D01*
X100600000Y-103652380D01*
X100619047Y-103633333D01*
X100657142Y-103614285D01*
X100733333Y-103595238D01*
X100828571Y-103595238D01*
X100904761Y-103614285D01*
X100942857Y-103633333D01*
X100961904Y-103652380D01*
X100980952Y-103690476D01*
X100980952Y-103728571D01*
X100961904Y-103766666D01*
X100942857Y-103785714D01*
X100904761Y-103804761D01*
X100828571Y-103823809D01*
X100733333Y-103823809D01*
X100657142Y-103804761D01*
X100619047Y-103785714D01*
X100600000Y-103766666D01*
X100580952Y-103728571D01*
%TO.C,R9*%
X110930952Y-98866666D02*
X110740476Y-99000000D01*
X110930952Y-99095238D02*
X110530952Y-99095238D01*
X110530952Y-98942857D01*
X110550000Y-98904761D01*
X110569047Y-98885714D01*
X110607142Y-98866666D01*
X110664285Y-98866666D01*
X110702380Y-98885714D01*
X110721428Y-98904761D01*
X110740476Y-98942857D01*
X110740476Y-99095238D01*
X110930952Y-98676190D02*
X110930952Y-98600000D01*
X110911904Y-98561904D01*
X110892857Y-98542857D01*
X110835714Y-98504761D01*
X110759523Y-98485714D01*
X110607142Y-98485714D01*
X110569047Y-98504761D01*
X110550000Y-98523809D01*
X110530952Y-98561904D01*
X110530952Y-98638095D01*
X110550000Y-98676190D01*
X110569047Y-98695238D01*
X110607142Y-98714285D01*
X110702380Y-98714285D01*
X110740476Y-98695238D01*
X110759523Y-98676190D01*
X110778571Y-98638095D01*
X110778571Y-98561904D01*
X110759523Y-98523809D01*
X110740476Y-98504761D01*
X110702380Y-98485714D01*
%TO.C,R8*%
X110930952Y-100366666D02*
X110740476Y-100500000D01*
X110930952Y-100595238D02*
X110530952Y-100595238D01*
X110530952Y-100442857D01*
X110550000Y-100404761D01*
X110569047Y-100385714D01*
X110607142Y-100366666D01*
X110664285Y-100366666D01*
X110702380Y-100385714D01*
X110721428Y-100404761D01*
X110740476Y-100442857D01*
X110740476Y-100595238D01*
X110702380Y-100138095D02*
X110683333Y-100176190D01*
X110664285Y-100195238D01*
X110626190Y-100214285D01*
X110607142Y-100214285D01*
X110569047Y-100195238D01*
X110550000Y-100176190D01*
X110530952Y-100138095D01*
X110530952Y-100061904D01*
X110550000Y-100023809D01*
X110569047Y-100004761D01*
X110607142Y-99985714D01*
X110626190Y-99985714D01*
X110664285Y-100004761D01*
X110683333Y-100023809D01*
X110702380Y-100061904D01*
X110702380Y-100138095D01*
X110721428Y-100176190D01*
X110740476Y-100195238D01*
X110778571Y-100214285D01*
X110854761Y-100214285D01*
X110892857Y-100195238D01*
X110911904Y-100176190D01*
X110930952Y-100138095D01*
X110930952Y-100061904D01*
X110911904Y-100023809D01*
X110892857Y-100004761D01*
X110854761Y-99985714D01*
X110778571Y-99985714D01*
X110740476Y-100004761D01*
X110721428Y-100023809D01*
X110702380Y-100061904D01*
%TO.C,R7*%
X110930952Y-101866666D02*
X110740476Y-102000000D01*
X110930952Y-102095238D02*
X110530952Y-102095238D01*
X110530952Y-101942857D01*
X110550000Y-101904761D01*
X110569047Y-101885714D01*
X110607142Y-101866666D01*
X110664285Y-101866666D01*
X110702380Y-101885714D01*
X110721428Y-101904761D01*
X110740476Y-101942857D01*
X110740476Y-102095238D01*
X110530952Y-101733333D02*
X110530952Y-101466666D01*
X110930952Y-101638095D01*
%TO.C,R6*%
X110930952Y-97366666D02*
X110740476Y-97500000D01*
X110930952Y-97595238D02*
X110530952Y-97595238D01*
X110530952Y-97442857D01*
X110550000Y-97404761D01*
X110569047Y-97385714D01*
X110607142Y-97366666D01*
X110664285Y-97366666D01*
X110702380Y-97385714D01*
X110721428Y-97404761D01*
X110740476Y-97442857D01*
X110740476Y-97595238D01*
X110530952Y-97023809D02*
X110530952Y-97100000D01*
X110550000Y-97138095D01*
X110569047Y-97157142D01*
X110626190Y-97195238D01*
X110702380Y-97214285D01*
X110854761Y-97214285D01*
X110892857Y-97195238D01*
X110911904Y-97176190D01*
X110930952Y-97138095D01*
X110930952Y-97061904D01*
X110911904Y-97023809D01*
X110892857Y-97004761D01*
X110854761Y-96985714D01*
X110759523Y-96985714D01*
X110721428Y-97004761D01*
X110702380Y-97023809D01*
X110683333Y-97061904D01*
X110683333Y-97138095D01*
X110702380Y-97176190D01*
X110721428Y-97195238D01*
X110759523Y-97214285D01*
%TO.C,R5*%
X110930952Y-95866666D02*
X110740476Y-96000000D01*
X110930952Y-96095238D02*
X110530952Y-96095238D01*
X110530952Y-95942857D01*
X110550000Y-95904761D01*
X110569047Y-95885714D01*
X110607142Y-95866666D01*
X110664285Y-95866666D01*
X110702380Y-95885714D01*
X110721428Y-95904761D01*
X110740476Y-95942857D01*
X110740476Y-96095238D01*
X110530952Y-95504761D02*
X110530952Y-95695238D01*
X110721428Y-95714285D01*
X110702380Y-95695238D01*
X110683333Y-95657142D01*
X110683333Y-95561904D01*
X110702380Y-95523809D01*
X110721428Y-95504761D01*
X110759523Y-95485714D01*
X110854761Y-95485714D01*
X110892857Y-95504761D01*
X110911904Y-95523809D01*
X110930952Y-95561904D01*
X110930952Y-95657142D01*
X110911904Y-95695238D01*
X110892857Y-95714285D01*
%TO.C,R4*%
X93033333Y-92530952D02*
X92900000Y-92340476D01*
X92804761Y-92530952D02*
X92804761Y-92130952D01*
X92957142Y-92130952D01*
X92995238Y-92150000D01*
X93014285Y-92169047D01*
X93033333Y-92207142D01*
X93033333Y-92264285D01*
X93014285Y-92302380D01*
X92995238Y-92321428D01*
X92957142Y-92340476D01*
X92804761Y-92340476D01*
X93376190Y-92264285D02*
X93376190Y-92530952D01*
X93280952Y-92111904D02*
X93185714Y-92397619D01*
X93433333Y-92397619D01*
%TO.C,R3*%
X93833333Y-87280952D02*
X93700000Y-87090476D01*
X93604761Y-87280952D02*
X93604761Y-86880952D01*
X93757142Y-86880952D01*
X93795238Y-86900000D01*
X93814285Y-86919047D01*
X93833333Y-86957142D01*
X93833333Y-87014285D01*
X93814285Y-87052380D01*
X93795238Y-87071428D01*
X93757142Y-87090476D01*
X93604761Y-87090476D01*
X93966666Y-86880952D02*
X94214285Y-86880952D01*
X94080952Y-87033333D01*
X94138095Y-87033333D01*
X94176190Y-87052380D01*
X94195238Y-87071428D01*
X94214285Y-87109523D01*
X94214285Y-87204761D01*
X94195238Y-87242857D01*
X94176190Y-87261904D01*
X94138095Y-87280952D01*
X94023809Y-87280952D01*
X93985714Y-87261904D01*
X93966666Y-87242857D01*
%TO.C,R2*%
X95280952Y-84566666D02*
X95090476Y-84700000D01*
X95280952Y-84795238D02*
X94880952Y-84795238D01*
X94880952Y-84642857D01*
X94900000Y-84604761D01*
X94919047Y-84585714D01*
X94957142Y-84566666D01*
X95014285Y-84566666D01*
X95052380Y-84585714D01*
X95071428Y-84604761D01*
X95090476Y-84642857D01*
X95090476Y-84795238D01*
X94919047Y-84414285D02*
X94900000Y-84395238D01*
X94880952Y-84357142D01*
X94880952Y-84261904D01*
X94900000Y-84223809D01*
X94919047Y-84204761D01*
X94957142Y-84185714D01*
X94995238Y-84185714D01*
X95052380Y-84204761D01*
X95280952Y-84433333D01*
X95280952Y-84185714D01*
%TO.C,R1*%
X105080952Y-84566666D02*
X104890476Y-84700000D01*
X105080952Y-84795238D02*
X104680952Y-84795238D01*
X104680952Y-84642857D01*
X104700000Y-84604761D01*
X104719047Y-84585714D01*
X104757142Y-84566666D01*
X104814285Y-84566666D01*
X104852380Y-84585714D01*
X104871428Y-84604761D01*
X104890476Y-84642857D01*
X104890476Y-84795238D01*
X105080952Y-84185714D02*
X105080952Y-84414285D01*
X105080952Y-84300000D02*
X104680952Y-84300000D01*
X104738095Y-84338095D01*
X104776190Y-84376190D01*
X104795238Y-84414285D01*
%TO.C,C17*%
X97242857Y-104457142D02*
X97261904Y-104476190D01*
X97280952Y-104533333D01*
X97280952Y-104571428D01*
X97261904Y-104628571D01*
X97223809Y-104666666D01*
X97185714Y-104685714D01*
X97109523Y-104704761D01*
X97052380Y-104704761D01*
X96976190Y-104685714D01*
X96938095Y-104666666D01*
X96900000Y-104628571D01*
X96880952Y-104571428D01*
X96880952Y-104533333D01*
X96900000Y-104476190D01*
X96919047Y-104457142D01*
X97280952Y-104076190D02*
X97280952Y-104304761D01*
X97280952Y-104190476D02*
X96880952Y-104190476D01*
X96938095Y-104228571D01*
X96976190Y-104266666D01*
X96995238Y-104304761D01*
X96880952Y-103942857D02*
X96880952Y-103676190D01*
X97280952Y-103847619D01*
%TO.C,C16*%
X93742857Y-103542857D02*
X93723809Y-103561904D01*
X93666666Y-103580952D01*
X93628571Y-103580952D01*
X93571428Y-103561904D01*
X93533333Y-103523809D01*
X93514285Y-103485714D01*
X93495238Y-103409523D01*
X93495238Y-103352380D01*
X93514285Y-103276190D01*
X93533333Y-103238095D01*
X93571428Y-103200000D01*
X93628571Y-103180952D01*
X93666666Y-103180952D01*
X93723809Y-103200000D01*
X93742857Y-103219047D01*
X94123809Y-103580952D02*
X93895238Y-103580952D01*
X94009523Y-103580952D02*
X94009523Y-103180952D01*
X93971428Y-103238095D01*
X93933333Y-103276190D01*
X93895238Y-103295238D01*
X94466666Y-103180952D02*
X94390476Y-103180952D01*
X94352380Y-103200000D01*
X94333333Y-103219047D01*
X94295238Y-103276190D01*
X94276190Y-103352380D01*
X94276190Y-103504761D01*
X94295238Y-103542857D01*
X94314285Y-103561904D01*
X94352380Y-103580952D01*
X94428571Y-103580952D01*
X94466666Y-103561904D01*
X94485714Y-103542857D01*
X94504761Y-103504761D01*
X94504761Y-103409523D01*
X94485714Y-103371428D01*
X94466666Y-103352380D01*
X94428571Y-103333333D01*
X94352380Y-103333333D01*
X94314285Y-103352380D01*
X94295238Y-103371428D01*
X94276190Y-103409523D01*
%TO.C,C15*%
X93742857Y-96742857D02*
X93723809Y-96761904D01*
X93666666Y-96780952D01*
X93628571Y-96780952D01*
X93571428Y-96761904D01*
X93533333Y-96723809D01*
X93514285Y-96685714D01*
X93495238Y-96609523D01*
X93495238Y-96552380D01*
X93514285Y-96476190D01*
X93533333Y-96438095D01*
X93571428Y-96400000D01*
X93628571Y-96380952D01*
X93666666Y-96380952D01*
X93723809Y-96400000D01*
X93742857Y-96419047D01*
X94123809Y-96780952D02*
X93895238Y-96780952D01*
X94009523Y-96780952D02*
X94009523Y-96380952D01*
X93971428Y-96438095D01*
X93933333Y-96476190D01*
X93895238Y-96495238D01*
X94485714Y-96380952D02*
X94295238Y-96380952D01*
X94276190Y-96571428D01*
X94295238Y-96552380D01*
X94333333Y-96533333D01*
X94428571Y-96533333D01*
X94466666Y-96552380D01*
X94485714Y-96571428D01*
X94504761Y-96609523D01*
X94504761Y-96704761D01*
X94485714Y-96742857D01*
X94466666Y-96761904D01*
X94428571Y-96780952D01*
X94333333Y-96780952D01*
X94295238Y-96761904D01*
X94276190Y-96742857D01*
%TO.C,C14*%
X105242857Y-95842857D02*
X105223809Y-95861904D01*
X105166666Y-95880952D01*
X105128571Y-95880952D01*
X105071428Y-95861904D01*
X105033333Y-95823809D01*
X105014285Y-95785714D01*
X104995238Y-95709523D01*
X104995238Y-95652380D01*
X105014285Y-95576190D01*
X105033333Y-95538095D01*
X105071428Y-95500000D01*
X105128571Y-95480952D01*
X105166666Y-95480952D01*
X105223809Y-95500000D01*
X105242857Y-95519047D01*
X105623809Y-95880952D02*
X105395238Y-95880952D01*
X105509523Y-95880952D02*
X105509523Y-95480952D01*
X105471428Y-95538095D01*
X105433333Y-95576190D01*
X105395238Y-95595238D01*
X105966666Y-95614285D02*
X105966666Y-95880952D01*
X105871428Y-95461904D02*
X105776190Y-95747619D01*
X106023809Y-95747619D01*
%TO.C,C13*%
X106442857Y-102557142D02*
X106461904Y-102576190D01*
X106480952Y-102633333D01*
X106480952Y-102671428D01*
X106461904Y-102728571D01*
X106423809Y-102766666D01*
X106385714Y-102785714D01*
X106309523Y-102804761D01*
X106252380Y-102804761D01*
X106176190Y-102785714D01*
X106138095Y-102766666D01*
X106100000Y-102728571D01*
X106080952Y-102671428D01*
X106080952Y-102633333D01*
X106100000Y-102576190D01*
X106119047Y-102557142D01*
X106480952Y-102176190D02*
X106480952Y-102404761D01*
X106480952Y-102290476D02*
X106080952Y-102290476D01*
X106138095Y-102328571D01*
X106176190Y-102366666D01*
X106195238Y-102404761D01*
X106080952Y-102042857D02*
X106080952Y-101795238D01*
X106233333Y-101928571D01*
X106233333Y-101871428D01*
X106252380Y-101833333D01*
X106271428Y-101814285D01*
X106309523Y-101795238D01*
X106404761Y-101795238D01*
X106442857Y-101814285D01*
X106461904Y-101833333D01*
X106480952Y-101871428D01*
X106480952Y-101985714D01*
X106461904Y-102023809D01*
X106442857Y-102042857D01*
%TO.C,C12*%
X104892857Y-102607142D02*
X104911904Y-102626190D01*
X104930952Y-102683333D01*
X104930952Y-102721428D01*
X104911904Y-102778571D01*
X104873809Y-102816666D01*
X104835714Y-102835714D01*
X104759523Y-102854761D01*
X104702380Y-102854761D01*
X104626190Y-102835714D01*
X104588095Y-102816666D01*
X104550000Y-102778571D01*
X104530952Y-102721428D01*
X104530952Y-102683333D01*
X104550000Y-102626190D01*
X104569047Y-102607142D01*
X104930952Y-102226190D02*
X104930952Y-102454761D01*
X104930952Y-102340476D02*
X104530952Y-102340476D01*
X104588095Y-102378571D01*
X104626190Y-102416666D01*
X104645238Y-102454761D01*
X104569047Y-102073809D02*
X104550000Y-102054761D01*
X104530952Y-102016666D01*
X104530952Y-101921428D01*
X104550000Y-101883333D01*
X104569047Y-101864285D01*
X104607142Y-101845238D01*
X104645238Y-101845238D01*
X104702380Y-101864285D01*
X104930952Y-102092857D01*
X104930952Y-101845238D01*
%TO.C,C11*%
X97817857Y-94392857D02*
X97798809Y-94411904D01*
X97741666Y-94430952D01*
X97703571Y-94430952D01*
X97646428Y-94411904D01*
X97608333Y-94373809D01*
X97589285Y-94335714D01*
X97570238Y-94259523D01*
X97570238Y-94202380D01*
X97589285Y-94126190D01*
X97608333Y-94088095D01*
X97646428Y-94050000D01*
X97703571Y-94030952D01*
X97741666Y-94030952D01*
X97798809Y-94050000D01*
X97817857Y-94069047D01*
X98198809Y-94430952D02*
X97970238Y-94430952D01*
X98084523Y-94430952D02*
X98084523Y-94030952D01*
X98046428Y-94088095D01*
X98008333Y-94126190D01*
X97970238Y-94145238D01*
X98579761Y-94430952D02*
X98351190Y-94430952D01*
X98465476Y-94430952D02*
X98465476Y-94030952D01*
X98427380Y-94088095D01*
X98389285Y-94126190D01*
X98351190Y-94145238D01*
%TO.C,C10*%
X92442857Y-94042857D02*
X92423809Y-94061904D01*
X92366666Y-94080952D01*
X92328571Y-94080952D01*
X92271428Y-94061904D01*
X92233333Y-94023809D01*
X92214285Y-93985714D01*
X92195238Y-93909523D01*
X92195238Y-93852380D01*
X92214285Y-93776190D01*
X92233333Y-93738095D01*
X92271428Y-93700000D01*
X92328571Y-93680952D01*
X92366666Y-93680952D01*
X92423809Y-93700000D01*
X92442857Y-93719047D01*
X92823809Y-94080952D02*
X92595238Y-94080952D01*
X92709523Y-94080952D02*
X92709523Y-93680952D01*
X92671428Y-93738095D01*
X92633333Y-93776190D01*
X92595238Y-93795238D01*
X93071428Y-93680952D02*
X93109523Y-93680952D01*
X93147619Y-93700000D01*
X93166666Y-93719047D01*
X93185714Y-93757142D01*
X93204761Y-93833333D01*
X93204761Y-93928571D01*
X93185714Y-94004761D01*
X93166666Y-94042857D01*
X93147619Y-94061904D01*
X93109523Y-94080952D01*
X93071428Y-94080952D01*
X93033333Y-94061904D01*
X93014285Y-94042857D01*
X92995238Y-94004761D01*
X92976190Y-93928571D01*
X92976190Y-93833333D01*
X92995238Y-93757142D01*
X93014285Y-93719047D01*
X93033333Y-93700000D01*
X93071428Y-93680952D01*
%TO.C,C9*%
X103883333Y-93992857D02*
X103864285Y-94011904D01*
X103807142Y-94030952D01*
X103769047Y-94030952D01*
X103711904Y-94011904D01*
X103673809Y-93973809D01*
X103654761Y-93935714D01*
X103635714Y-93859523D01*
X103635714Y-93802380D01*
X103654761Y-93726190D01*
X103673809Y-93688095D01*
X103711904Y-93650000D01*
X103769047Y-93630952D01*
X103807142Y-93630952D01*
X103864285Y-93650000D01*
X103883333Y-93669047D01*
X104073809Y-94030952D02*
X104150000Y-94030952D01*
X104188095Y-94011904D01*
X104207142Y-93992857D01*
X104245238Y-93935714D01*
X104264285Y-93859523D01*
X104264285Y-93707142D01*
X104245238Y-93669047D01*
X104226190Y-93650000D01*
X104188095Y-93630952D01*
X104111904Y-93630952D01*
X104073809Y-93650000D01*
X104054761Y-93669047D01*
X104035714Y-93707142D01*
X104035714Y-93802380D01*
X104054761Y-93840476D01*
X104073809Y-93859523D01*
X104111904Y-93878571D01*
X104188095Y-93878571D01*
X104226190Y-93859523D01*
X104245238Y-93840476D01*
X104264285Y-93802380D01*
%TO.C,C8*%
X92142857Y-90666666D02*
X92161904Y-90685714D01*
X92180952Y-90742857D01*
X92180952Y-90780952D01*
X92161904Y-90838095D01*
X92123809Y-90876190D01*
X92085714Y-90895238D01*
X92009523Y-90914285D01*
X91952380Y-90914285D01*
X91876190Y-90895238D01*
X91838095Y-90876190D01*
X91800000Y-90838095D01*
X91780952Y-90780952D01*
X91780952Y-90742857D01*
X91800000Y-90685714D01*
X91819047Y-90666666D01*
X91952380Y-90438095D02*
X91933333Y-90476190D01*
X91914285Y-90495238D01*
X91876190Y-90514285D01*
X91857142Y-90514285D01*
X91819047Y-90495238D01*
X91800000Y-90476190D01*
X91780952Y-90438095D01*
X91780952Y-90361904D01*
X91800000Y-90323809D01*
X91819047Y-90304761D01*
X91857142Y-90285714D01*
X91876190Y-90285714D01*
X91914285Y-90304761D01*
X91933333Y-90323809D01*
X91952380Y-90361904D01*
X91952380Y-90438095D01*
X91971428Y-90476190D01*
X91990476Y-90495238D01*
X92028571Y-90514285D01*
X92104761Y-90514285D01*
X92142857Y-90495238D01*
X92161904Y-90476190D01*
X92180952Y-90438095D01*
X92180952Y-90361904D01*
X92161904Y-90323809D01*
X92142857Y-90304761D01*
X92104761Y-90285714D01*
X92028571Y-90285714D01*
X91990476Y-90304761D01*
X91971428Y-90323809D01*
X91952380Y-90361904D01*
%TO.C,C7*%
X103883333Y-95492857D02*
X103864285Y-95511904D01*
X103807142Y-95530952D01*
X103769047Y-95530952D01*
X103711904Y-95511904D01*
X103673809Y-95473809D01*
X103654761Y-95435714D01*
X103635714Y-95359523D01*
X103635714Y-95302380D01*
X103654761Y-95226190D01*
X103673809Y-95188095D01*
X103711904Y-95150000D01*
X103769047Y-95130952D01*
X103807142Y-95130952D01*
X103864285Y-95150000D01*
X103883333Y-95169047D01*
X104016666Y-95130952D02*
X104283333Y-95130952D01*
X104111904Y-95530952D01*
%TO.C,C6*%
X98433333Y-87292857D02*
X98414285Y-87311904D01*
X98357142Y-87330952D01*
X98319047Y-87330952D01*
X98261904Y-87311904D01*
X98223809Y-87273809D01*
X98204761Y-87235714D01*
X98185714Y-87159523D01*
X98185714Y-87102380D01*
X98204761Y-87026190D01*
X98223809Y-86988095D01*
X98261904Y-86950000D01*
X98319047Y-86930952D01*
X98357142Y-86930952D01*
X98414285Y-86950000D01*
X98433333Y-86969047D01*
X98776190Y-86930952D02*
X98700000Y-86930952D01*
X98661904Y-86950000D01*
X98642857Y-86969047D01*
X98604761Y-87026190D01*
X98585714Y-87102380D01*
X98585714Y-87254761D01*
X98604761Y-87292857D01*
X98623809Y-87311904D01*
X98661904Y-87330952D01*
X98738095Y-87330952D01*
X98776190Y-87311904D01*
X98795238Y-87292857D01*
X98814285Y-87254761D01*
X98814285Y-87159523D01*
X98795238Y-87121428D01*
X98776190Y-87102380D01*
X98738095Y-87083333D01*
X98661904Y-87083333D01*
X98623809Y-87102380D01*
X98604761Y-87121428D01*
X98585714Y-87159523D01*
%TO.C,C4*%
X95242857Y-87016666D02*
X95261904Y-87035714D01*
X95280952Y-87092857D01*
X95280952Y-87130952D01*
X95261904Y-87188095D01*
X95223809Y-87226190D01*
X95185714Y-87245238D01*
X95109523Y-87264285D01*
X95052380Y-87264285D01*
X94976190Y-87245238D01*
X94938095Y-87226190D01*
X94900000Y-87188095D01*
X94880952Y-87130952D01*
X94880952Y-87092857D01*
X94900000Y-87035714D01*
X94919047Y-87016666D01*
X95014285Y-86673809D02*
X95280952Y-86673809D01*
X94861904Y-86769047D02*
X95147619Y-86864285D01*
X95147619Y-86616666D01*
%TO.C,C3*%
X105042857Y-87066666D02*
X105061904Y-87085714D01*
X105080952Y-87142857D01*
X105080952Y-87180952D01*
X105061904Y-87238095D01*
X105023809Y-87276190D01*
X104985714Y-87295238D01*
X104909523Y-87314285D01*
X104852380Y-87314285D01*
X104776190Y-87295238D01*
X104738095Y-87276190D01*
X104700000Y-87238095D01*
X104680952Y-87180952D01*
X104680952Y-87142857D01*
X104700000Y-87085714D01*
X104719047Y-87066666D01*
X104680952Y-86933333D02*
X104680952Y-86685714D01*
X104833333Y-86819047D01*
X104833333Y-86761904D01*
X104852380Y-86723809D01*
X104871428Y-86704761D01*
X104909523Y-86685714D01*
X105004761Y-86685714D01*
X105042857Y-86704761D01*
X105061904Y-86723809D01*
X105080952Y-86761904D01*
X105080952Y-86876190D01*
X105061904Y-86914285D01*
X105042857Y-86933333D01*
%TO.C,C1*%
X101433333Y-84992857D02*
X101414285Y-85011904D01*
X101357142Y-85030952D01*
X101319047Y-85030952D01*
X101261904Y-85011904D01*
X101223809Y-84973809D01*
X101204761Y-84935714D01*
X101185714Y-84859523D01*
X101185714Y-84802380D01*
X101204761Y-84726190D01*
X101223809Y-84688095D01*
X101261904Y-84650000D01*
X101319047Y-84630952D01*
X101357142Y-84630952D01*
X101414285Y-84650000D01*
X101433333Y-84669047D01*
X101814285Y-85030952D02*
X101585714Y-85030952D01*
X101700000Y-85030952D02*
X101700000Y-84630952D01*
X101661904Y-84688095D01*
X101623809Y-84726190D01*
X101585714Y-84745238D01*
%TO.C,J3*%
D13*
X104952380Y-109233333D02*
X105666666Y-109233333D01*
X105809523Y-109280952D01*
X105904761Y-109376190D01*
X105952380Y-109519047D01*
X105952380Y-109614285D01*
X104952380Y-108852380D02*
X104952380Y-108233333D01*
X105333333Y-108566666D01*
X105333333Y-108423809D01*
X105380952Y-108328571D01*
X105428571Y-108280952D01*
X105523809Y-108233333D01*
X105761904Y-108233333D01*
X105857142Y-108280952D01*
X105904761Y-108328571D01*
X105952380Y-108423809D01*
X105952380Y-108709523D01*
X105904761Y-108804761D01*
X105857142Y-108852380D01*
X95035714Y-109352380D02*
X94464285Y-109352380D01*
X94750000Y-109352380D02*
X94750000Y-108352380D01*
X94654761Y-108495238D01*
X94559523Y-108590476D01*
X94464285Y-108638095D01*
%TO.C,Y1*%
D15*
X91888095Y-100238095D02*
X92126190Y-100238095D01*
X91626190Y-100404761D02*
X91888095Y-100238095D01*
X91626190Y-100071428D01*
X92126190Y-99642857D02*
X92126190Y-99928571D01*
X92126190Y-99785714D02*
X91626190Y-99785714D01*
X91697619Y-99833333D01*
X91745238Y-99880952D01*
X91769047Y-99928571D01*
%TD*%
M02*
