%TF.GenerationSoftware,KiCad,Pcbnew,(5.1.9-0-10_14)*%
%TF.CreationDate,2021-07-24T09:59:56+01:00*%
%TF.ProjectId,PN532,504e3533-322e-46b6-9963-61645f706362,7*%
%TF.SameCoordinates,Original*%
%TF.FileFunction,Legend,Top*%
%TF.FilePolarity,Positive*%
%FSLAX46Y46*%
G04 Gerber Fmt 4.6, Leading zero omitted, Abs format (unit mm)*
G04 Created by KiCad (PCBNEW (5.1.9-0-10_14)) date 2021-07-24 09:59:56*
%MOMM*%
%LPD*%
G01*
G04 APERTURE LIST*
%ADD10C,0.080000*%
%ADD11C,0.120000*%
%ADD12C,0.100000*%
%ADD13C,0.150000*%
%ADD14C,0.050000*%
G04 APERTURE END LIST*
D10*
X113864285Y-106440476D02*
X113888095Y-106369047D01*
X113911904Y-106345238D01*
X113959523Y-106321428D01*
X114030952Y-106321428D01*
X114078571Y-106345238D01*
X114102380Y-106369047D01*
X114126190Y-106416666D01*
X114126190Y-106607142D01*
X113626190Y-106607142D01*
X113626190Y-106440476D01*
X113650000Y-106392857D01*
X113673809Y-106369047D01*
X113721428Y-106345238D01*
X113769047Y-106345238D01*
X113816666Y-106369047D01*
X113840476Y-106392857D01*
X113864285Y-106440476D01*
X113864285Y-106607142D01*
X114102380Y-105916666D02*
X114126190Y-105964285D01*
X114126190Y-106059523D01*
X114102380Y-106107142D01*
X114054761Y-106130952D01*
X113864285Y-106130952D01*
X113816666Y-106107142D01*
X113792857Y-106059523D01*
X113792857Y-105964285D01*
X113816666Y-105916666D01*
X113864285Y-105892857D01*
X113911904Y-105892857D01*
X113959523Y-106130952D01*
X114126190Y-105607142D02*
X114102380Y-105654761D01*
X114054761Y-105678571D01*
X113626190Y-105678571D01*
X114126190Y-105345238D02*
X114102380Y-105392857D01*
X114054761Y-105416666D01*
X113626190Y-105416666D01*
D11*
X98750001Y-90750001D02*
G75*
G02*
X101249999Y-90750001I1249999J-1249999D01*
G01*
X98000001Y-90000001D02*
G75*
G02*
X101999999Y-90000001I1999999J-1999999D01*
G01*
X98250001Y-90250001D02*
G75*
G02*
X101749999Y-90250001I1749999J-1749999D01*
G01*
X98500001Y-90500001D02*
G75*
G02*
X101499999Y-90500001I1499999J-1499999D01*
G01*
D10*
X98071428Y-110626190D02*
X98071428Y-110126190D01*
X98238095Y-110483333D01*
X98404761Y-110126190D01*
X98404761Y-110626190D01*
X98642857Y-110626190D02*
X98642857Y-110292857D01*
X98642857Y-110126190D02*
X98619047Y-110150000D01*
X98642857Y-110173809D01*
X98666666Y-110150000D01*
X98642857Y-110126190D01*
X98642857Y-110173809D01*
X98880952Y-110292857D02*
X98880952Y-110626190D01*
X98880952Y-110340476D02*
X98904761Y-110316666D01*
X98952380Y-110292857D01*
X99023809Y-110292857D01*
X99071428Y-110316666D01*
X99095238Y-110364285D01*
X99095238Y-110626190D01*
X99333333Y-110626190D02*
X99333333Y-110292857D01*
X99333333Y-110126190D02*
X99309523Y-110150000D01*
X99333333Y-110173809D01*
X99357142Y-110150000D01*
X99333333Y-110126190D01*
X99333333Y-110173809D01*
X99571428Y-110435714D02*
X99952380Y-110435714D01*
X100166666Y-110602380D02*
X100238095Y-110626190D01*
X100357142Y-110626190D01*
X100404761Y-110602380D01*
X100428571Y-110578571D01*
X100452380Y-110530952D01*
X100452380Y-110483333D01*
X100428571Y-110435714D01*
X100404761Y-110411904D01*
X100357142Y-110388095D01*
X100261904Y-110364285D01*
X100214285Y-110340476D01*
X100190476Y-110316666D01*
X100166666Y-110269047D01*
X100166666Y-110221428D01*
X100190476Y-110173809D01*
X100214285Y-110150000D01*
X100261904Y-110126190D01*
X100380952Y-110126190D01*
X100452380Y-110150000D01*
X100666666Y-110626190D02*
X100666666Y-110126190D01*
X100857142Y-110126190D01*
X100904761Y-110150000D01*
X100928571Y-110173809D01*
X100952380Y-110221428D01*
X100952380Y-110292857D01*
X100928571Y-110340476D01*
X100904761Y-110364285D01*
X100857142Y-110388095D01*
X100666666Y-110388095D01*
X101261904Y-110126190D02*
X101357142Y-110126190D01*
X101404761Y-110150000D01*
X101452380Y-110197619D01*
X101476190Y-110292857D01*
X101476190Y-110459523D01*
X101452380Y-110554761D01*
X101404761Y-110602380D01*
X101357142Y-110626190D01*
X101261904Y-110626190D01*
X101214285Y-110602380D01*
X101166666Y-110554761D01*
X101142857Y-110459523D01*
X101142857Y-110292857D01*
X101166666Y-110197619D01*
X101214285Y-110150000D01*
X101261904Y-110126190D01*
X101642857Y-110126190D02*
X101976190Y-110626190D01*
X101976190Y-110126190D02*
X101642857Y-110626190D01*
X100576190Y-113226190D02*
X100623809Y-113226190D01*
X100671428Y-113250000D01*
X100695238Y-113273809D01*
X100719047Y-113321428D01*
X100742857Y-113416666D01*
X100742857Y-113535714D01*
X100719047Y-113630952D01*
X100695238Y-113678571D01*
X100671428Y-113702380D01*
X100623809Y-113726190D01*
X100576190Y-113726190D01*
X100528571Y-113702380D01*
X100504761Y-113678571D01*
X100480952Y-113630952D01*
X100457142Y-113535714D01*
X100457142Y-113416666D01*
X100480952Y-113321428D01*
X100504761Y-113273809D01*
X100528571Y-113250000D01*
X100576190Y-113226190D01*
X100957142Y-113678571D02*
X100980952Y-113702380D01*
X100957142Y-113726190D01*
X100933333Y-113702380D01*
X100957142Y-113678571D01*
X100957142Y-113726190D01*
X101457142Y-113726190D02*
X101171428Y-113726190D01*
X101314285Y-113726190D02*
X101314285Y-113226190D01*
X101266666Y-113297619D01*
X101219047Y-113345238D01*
X101171428Y-113369047D01*
X101671428Y-113226190D02*
X101671428Y-113250000D01*
X101647619Y-113297619D01*
X101623809Y-113321428D01*
X101861904Y-113226190D02*
X101861904Y-113250000D01*
X101838095Y-113297619D01*
X101814285Y-113321428D01*
X102433333Y-113726190D02*
X102433333Y-113226190D01*
X102647619Y-113726190D02*
X102647619Y-113464285D01*
X102623809Y-113416666D01*
X102576190Y-113392857D01*
X102504761Y-113392857D01*
X102457142Y-113416666D01*
X102433333Y-113440476D01*
X103076190Y-113702380D02*
X103028571Y-113726190D01*
X102933333Y-113726190D01*
X102885714Y-113702380D01*
X102861904Y-113654761D01*
X102861904Y-113464285D01*
X102885714Y-113416666D01*
X102933333Y-113392857D01*
X103028571Y-113392857D01*
X103076190Y-113416666D01*
X103100000Y-113464285D01*
X103100000Y-113511904D01*
X102861904Y-113559523D01*
X103528571Y-113726190D02*
X103528571Y-113464285D01*
X103504761Y-113416666D01*
X103457142Y-113392857D01*
X103361904Y-113392857D01*
X103314285Y-113416666D01*
X103528571Y-113702380D02*
X103480952Y-113726190D01*
X103361904Y-113726190D01*
X103314285Y-113702380D01*
X103290476Y-113654761D01*
X103290476Y-113607142D01*
X103314285Y-113559523D01*
X103361904Y-113535714D01*
X103480952Y-113535714D01*
X103528571Y-113511904D01*
X103980952Y-113726190D02*
X103980952Y-113226190D01*
X103980952Y-113702380D02*
X103933333Y-113726190D01*
X103838095Y-113726190D01*
X103790476Y-113702380D01*
X103766666Y-113678571D01*
X103742857Y-113630952D01*
X103742857Y-113488095D01*
X103766666Y-113440476D01*
X103790476Y-113416666D01*
X103838095Y-113392857D01*
X103933333Y-113392857D01*
X103980952Y-113416666D01*
X104409523Y-113702380D02*
X104361904Y-113726190D01*
X104266666Y-113726190D01*
X104219047Y-113702380D01*
X104195238Y-113654761D01*
X104195238Y-113464285D01*
X104219047Y-113416666D01*
X104266666Y-113392857D01*
X104361904Y-113392857D01*
X104409523Y-113416666D01*
X104433333Y-113464285D01*
X104433333Y-113511904D01*
X104195238Y-113559523D01*
X104647619Y-113726190D02*
X104647619Y-113392857D01*
X104647619Y-113488095D02*
X104671428Y-113440476D01*
X104695238Y-113416666D01*
X104742857Y-113392857D01*
X104790476Y-113392857D01*
D12*
X95511904Y-107226190D02*
X95511904Y-106726190D01*
X95726190Y-106773809D02*
X95750000Y-106750000D01*
X95797619Y-106726190D01*
X95916666Y-106726190D01*
X95964285Y-106750000D01*
X95988095Y-106773809D01*
X96011904Y-106821428D01*
X96011904Y-106869047D01*
X95988095Y-106940476D01*
X95702380Y-107226190D01*
X96011904Y-107226190D01*
X96511904Y-107178571D02*
X96488095Y-107202380D01*
X96416666Y-107226190D01*
X96369047Y-107226190D01*
X96297619Y-107202380D01*
X96250000Y-107154761D01*
X96226190Y-107107142D01*
X96202380Y-107011904D01*
X96202380Y-106940476D01*
X96226190Y-106845238D01*
X96250000Y-106797619D01*
X96297619Y-106750000D01*
X96369047Y-106726190D01*
X96416666Y-106726190D01*
X96488095Y-106750000D01*
X96511904Y-106773809D01*
X93107142Y-107276190D02*
X93107142Y-106776190D01*
X93107142Y-107014285D02*
X93392857Y-107014285D01*
X93392857Y-107276190D02*
X93392857Y-106776190D01*
X93607142Y-107252380D02*
X93678571Y-107276190D01*
X93797619Y-107276190D01*
X93845238Y-107252380D01*
X93869047Y-107228571D01*
X93892857Y-107180952D01*
X93892857Y-107133333D01*
X93869047Y-107085714D01*
X93845238Y-107061904D01*
X93797619Y-107038095D01*
X93702380Y-107014285D01*
X93654761Y-106990476D01*
X93630952Y-106966666D01*
X93607142Y-106919047D01*
X93607142Y-106871428D01*
X93630952Y-106823809D01*
X93654761Y-106800000D01*
X93702380Y-106776190D01*
X93821428Y-106776190D01*
X93892857Y-106800000D01*
X94107142Y-106776190D02*
X94107142Y-107180952D01*
X94130952Y-107228571D01*
X94154761Y-107252380D01*
X94202380Y-107276190D01*
X94297619Y-107276190D01*
X94345238Y-107252380D01*
X94369047Y-107228571D01*
X94392857Y-107180952D01*
X94392857Y-106776190D01*
D13*
X89047619Y-97404761D02*
X89047619Y-97976190D01*
X88047619Y-97690476D02*
X89047619Y-97690476D01*
X88047619Y-98738095D02*
X88571428Y-98738095D01*
X88666666Y-98690476D01*
X88714285Y-98595238D01*
X88714285Y-98404761D01*
X88666666Y-98309523D01*
X88095238Y-98738095D02*
X88047619Y-98642857D01*
X88047619Y-98404761D01*
X88095238Y-98309523D01*
X88190476Y-98261904D01*
X88285714Y-98261904D01*
X88380952Y-98309523D01*
X88428571Y-98404761D01*
X88428571Y-98642857D01*
X88476190Y-98738095D01*
X88047619Y-99214285D02*
X88714285Y-99214285D01*
X88619047Y-99214285D02*
X88666666Y-99261904D01*
X88714285Y-99357142D01*
X88714285Y-99500000D01*
X88666666Y-99595238D01*
X88571428Y-99642857D01*
X88047619Y-99642857D01*
X88571428Y-99642857D02*
X88666666Y-99690476D01*
X88714285Y-99785714D01*
X88714285Y-99928571D01*
X88666666Y-100023809D01*
X88571428Y-100071428D01*
X88047619Y-100071428D01*
X88714285Y-100547619D02*
X87714285Y-100547619D01*
X88666666Y-100547619D02*
X88714285Y-100642857D01*
X88714285Y-100833333D01*
X88666666Y-100928571D01*
X88619047Y-100976190D01*
X88523809Y-101023809D01*
X88238095Y-101023809D01*
X88142857Y-100976190D01*
X88095238Y-100928571D01*
X88047619Y-100833333D01*
X88047619Y-100642857D01*
X88095238Y-100547619D01*
X88095238Y-101833333D02*
X88047619Y-101738095D01*
X88047619Y-101547619D01*
X88095238Y-101452380D01*
X88190476Y-101404761D01*
X88571428Y-101404761D01*
X88666666Y-101452380D01*
X88714285Y-101547619D01*
X88714285Y-101738095D01*
X88666666Y-101833333D01*
X88571428Y-101880952D01*
X88476190Y-101880952D01*
X88380952Y-101404761D01*
X88047619Y-102309523D02*
X88714285Y-102309523D01*
X88523809Y-102309523D02*
X88619047Y-102357142D01*
X88666666Y-102404761D01*
X88714285Y-102500000D01*
X88714285Y-102595238D01*
X104202380Y-115392976D02*
X103726190Y-115726309D01*
X104202380Y-115964404D02*
X103202380Y-115964404D01*
X103202380Y-115583452D01*
X103250000Y-115488214D01*
X103297619Y-115440595D01*
X103392857Y-115392976D01*
X103535714Y-115392976D01*
X103630952Y-115440595D01*
X103678571Y-115488214D01*
X103726190Y-115583452D01*
X103726190Y-115964404D01*
X103202380Y-115059642D02*
X104202380Y-114392976D01*
X103202380Y-114392976D02*
X104202380Y-115059642D01*
X100702380Y-116107261D02*
X100702380Y-115535833D01*
X101702380Y-115821547D02*
X100702380Y-115821547D01*
X100702380Y-115297738D02*
X101702380Y-114631071D01*
X100702380Y-114631071D02*
X101702380Y-115297738D01*
X98202380Y-116107261D02*
X99202380Y-115773928D01*
X98202380Y-115440595D01*
X99107142Y-114535833D02*
X99154761Y-114583452D01*
X99202380Y-114726309D01*
X99202380Y-114821547D01*
X99154761Y-114964404D01*
X99059523Y-115059642D01*
X98964285Y-115107261D01*
X98773809Y-115154880D01*
X98630952Y-115154880D01*
X98440476Y-115107261D01*
X98345238Y-115059642D01*
X98250000Y-114964404D01*
X98202380Y-114821547D01*
X98202380Y-114726309D01*
X98250000Y-114583452D01*
X98297619Y-114535833D01*
X99107142Y-113535833D02*
X99154761Y-113583452D01*
X99202380Y-113726309D01*
X99202380Y-113821547D01*
X99154761Y-113964404D01*
X99059523Y-114059642D01*
X98964285Y-114107261D01*
X98773809Y-114154880D01*
X98630952Y-114154880D01*
X98440476Y-114107261D01*
X98345238Y-114059642D01*
X98250000Y-113964404D01*
X98202380Y-113821547D01*
X98202380Y-113726309D01*
X98250000Y-113583452D01*
X98297619Y-113535833D01*
X95750000Y-115440595D02*
X95702380Y-115535833D01*
X95702380Y-115678690D01*
X95750000Y-115821547D01*
X95845238Y-115916785D01*
X95940476Y-115964404D01*
X96130952Y-116012023D01*
X96273809Y-116012023D01*
X96464285Y-115964404D01*
X96559523Y-115916785D01*
X96654761Y-115821547D01*
X96702380Y-115678690D01*
X96702380Y-115583452D01*
X96654761Y-115440595D01*
X96607142Y-115392976D01*
X96273809Y-115392976D01*
X96273809Y-115583452D01*
X96702380Y-114964404D02*
X95702380Y-114964404D01*
X96702380Y-114392976D01*
X95702380Y-114392976D01*
X96702380Y-113916785D02*
X95702380Y-113916785D01*
X95702380Y-113678690D01*
X95750000Y-113535833D01*
X95845238Y-113440595D01*
X95940476Y-113392976D01*
X96130952Y-113345357D01*
X96273809Y-113345357D01*
X96464285Y-113392976D01*
X96559523Y-113440595D01*
X96654761Y-113535833D01*
X96702380Y-113678690D01*
X96702380Y-113916785D01*
D11*
%TO.C,D3*%
X111400000Y-89200000D02*
X111000000Y-88800000D01*
X113000000Y-89200000D02*
X111400000Y-89200000D01*
X113000000Y-86800000D02*
X113000000Y-89200000D01*
X111000000Y-86800000D02*
X113000000Y-86800000D01*
X111000000Y-88800000D02*
X111000000Y-86800000D01*
%TO.C,D2*%
X111400000Y-95200000D02*
X111000000Y-94800000D01*
X113000000Y-95200000D02*
X111400000Y-95200000D01*
X113000000Y-92800000D02*
X113000000Y-95200000D01*
X111000000Y-92800000D02*
X113000000Y-92800000D01*
X111000000Y-94800000D02*
X111000000Y-92800000D01*
%TO.C,D1*%
X111400000Y-101200000D02*
X111000000Y-100800000D01*
X113000000Y-101200000D02*
X111400000Y-101200000D01*
X113000000Y-98800000D02*
X113000000Y-101200000D01*
X111000000Y-98800000D02*
X113000000Y-98800000D01*
X111000000Y-100800000D02*
X111000000Y-98800000D01*
%TO.C,U1*%
X103110000Y-97365000D02*
X103110000Y-96890000D01*
X96890000Y-103110000D02*
X97365000Y-103110000D01*
X96890000Y-102635000D02*
X96890000Y-103110000D01*
X96890000Y-96890000D02*
X97365000Y-96890000D01*
X96890000Y-97365000D02*
X96890000Y-96890000D01*
X103110000Y-103110000D02*
X102635000Y-103110000D01*
X103110000Y-102635000D02*
X103110000Y-103110000D01*
%TO.C,SW1*%
X91730000Y-103230000D02*
X91700000Y-103230000D01*
X85270000Y-103230000D02*
X85300000Y-103230000D01*
X85270000Y-96770000D02*
X85300000Y-96770000D01*
X91700000Y-96770000D02*
X91730000Y-96770000D01*
X89800000Y-103230000D02*
X87200000Y-103230000D01*
X91730000Y-96770000D02*
X91730000Y-103230000D01*
X89800000Y-96770000D02*
X87200000Y-96770000D01*
X85270000Y-96770000D02*
X85270000Y-103230000D01*
X85250000Y-97750000D02*
X85250000Y-102250000D01*
X89250000Y-96500000D02*
X87750000Y-96500000D01*
X91750000Y-102250000D02*
X91750000Y-97750000D01*
X87750000Y-103500000D02*
X89250000Y-103500000D01*
%TO.C,A1*%
X99250000Y-82500000D02*
X99250000Y-81500000D01*
X100750000Y-82500000D02*
X100750000Y-81500000D01*
X116500000Y-88000000D02*
X116500000Y-112000000D01*
X112000000Y-116500000D02*
X88000000Y-116500000D01*
X83500000Y-112000000D02*
X83500000Y-88000000D01*
X88000000Y-83500000D02*
X112000000Y-83500000D01*
X83500000Y-112000000D02*
G75*
G03*
X88000000Y-116500000I4500000J0D01*
G01*
X88000000Y-83500000D02*
G75*
G03*
X83500000Y-88000000I0J-4500000D01*
G01*
X116500000Y-88000000D02*
G75*
G03*
X112000000Y-83500000I-4500000J0D01*
G01*
X112000000Y-116500000D02*
G75*
G03*
X116500000Y-112000000I0J4500000D01*
G01*
%TO.C,D6*%
X109700000Y-105140000D02*
X108300000Y-105140000D01*
X108300000Y-107460000D02*
X110200000Y-107460000D01*
%TO.C,D5*%
X108300000Y-104860000D02*
X109700000Y-104860000D01*
X109700000Y-102540000D02*
X107800000Y-102540000D01*
%TO.C,D4*%
X108300000Y-95060000D02*
X109700000Y-95060000D01*
X109700000Y-92740000D02*
X107800000Y-92740000D01*
%TO.C,C19*%
X108859420Y-108710000D02*
X109140580Y-108710000D01*
X108859420Y-107690000D02*
X109140580Y-107690000D01*
%TO.C,C4*%
X95690000Y-87359420D02*
X95690000Y-87640580D01*
X96710000Y-87359420D02*
X96710000Y-87640580D01*
%TO.C,C3*%
X104310000Y-87640580D02*
X104310000Y-87359420D01*
X103290000Y-87640580D02*
X103290000Y-87359420D01*
%TO.C,R14*%
X105090000Y-105009420D02*
X105090000Y-105290580D01*
X106110000Y-105009420D02*
X106110000Y-105290580D01*
%TO.C,C2*%
X98440580Y-84415000D02*
X98159420Y-84415000D01*
X98440580Y-85435000D02*
X98159420Y-85435000D01*
X98440580Y-85615000D02*
X98159420Y-85615000D01*
X98440580Y-86635000D02*
X98159420Y-86635000D01*
%TO.C,C1*%
X101840580Y-84415000D02*
X101559420Y-84415000D01*
X101840580Y-85435000D02*
X101559420Y-85435000D01*
X101840580Y-85615000D02*
X101559420Y-85615000D01*
X101840580Y-86635000D02*
X101559420Y-86635000D01*
%TO.C,R13*%
X101509420Y-106410000D02*
X101790580Y-106410000D01*
X101509420Y-105390000D02*
X101790580Y-105390000D01*
%TO.C,R12*%
X101790580Y-103890000D02*
X101509420Y-103890000D01*
X101790580Y-104910000D02*
X101509420Y-104910000D01*
%TO.C,R11*%
X104510000Y-105290580D02*
X104510000Y-105009420D01*
X103490000Y-105290580D02*
X103490000Y-105009420D01*
%TO.C,R10*%
X99810000Y-105290580D02*
X99810000Y-105009420D01*
X98790000Y-105290580D02*
X98790000Y-105009420D01*
%TO.C,R9*%
X108859420Y-99310000D02*
X109140580Y-99310000D01*
X108859420Y-98290000D02*
X109140580Y-98290000D01*
%TO.C,R8*%
X108859420Y-100810000D02*
X109140580Y-100810000D01*
X108859420Y-99790000D02*
X109140580Y-99790000D01*
%TO.C,R7*%
X108859420Y-102310000D02*
X109140580Y-102310000D01*
X108859420Y-101290000D02*
X109140580Y-101290000D01*
%TO.C,R6*%
X108859420Y-97810000D02*
X109140580Y-97810000D01*
X108859420Y-96790000D02*
X109140580Y-96790000D01*
%TO.C,R5*%
X108859420Y-96310000D02*
X109140580Y-96310000D01*
X108859420Y-95290000D02*
X109140580Y-95290000D01*
%TO.C,R4*%
X93759420Y-92610000D02*
X94040580Y-92610000D01*
X93759420Y-91590000D02*
X94040580Y-91590000D01*
%TO.C,R3*%
X93759420Y-88760000D02*
X94040580Y-88760000D01*
X93759420Y-87740000D02*
X94040580Y-87740000D01*
%TO.C,R2*%
X96710000Y-84890580D02*
X96710000Y-84609420D01*
X95690000Y-84890580D02*
X95690000Y-84609420D01*
%TO.C,R1*%
X104310000Y-84890580D02*
X104310000Y-84609420D01*
X103290000Y-84890580D02*
X103290000Y-84609420D01*
%TO.C,C18*%
X94040580Y-94840000D02*
X93759420Y-94840000D01*
X94040580Y-95860000D02*
X93759420Y-95860000D01*
%TO.C,C17*%
X98210000Y-105290580D02*
X98210000Y-105009420D01*
X97190000Y-105290580D02*
X97190000Y-105009420D01*
%TO.C,C16*%
X94140580Y-101990000D02*
X93859420Y-101990000D01*
X94140580Y-103010000D02*
X93859420Y-103010000D01*
%TO.C,C15*%
X93859420Y-98010000D02*
X94140580Y-98010000D01*
X93859420Y-96990000D02*
X94140580Y-96990000D01*
%TO.C,C14*%
X105359420Y-97810000D02*
X105640580Y-97810000D01*
X105359420Y-96790000D02*
X105640580Y-96790000D01*
%TO.C,C13*%
X105740000Y-99459420D02*
X105740000Y-99740580D01*
X106760000Y-99459420D02*
X106760000Y-99740580D01*
%TO.C,C12*%
X104240000Y-99459420D02*
X104240000Y-99740580D01*
X105260000Y-99459420D02*
X105260000Y-99740580D01*
%TO.C,C11*%
X98215580Y-94840000D02*
X97934420Y-94840000D01*
X98215580Y-95860000D02*
X97934420Y-95860000D01*
%TO.C,C10*%
X95740580Y-93340000D02*
X95459420Y-93340000D01*
X95740580Y-94360000D02*
X95459420Y-94360000D01*
%TO.C,C9*%
X101059420Y-94360000D02*
X101340580Y-94360000D01*
X101059420Y-93340000D02*
X101340580Y-93340000D01*
%TO.C,C8*%
X93610000Y-90340580D02*
X93610000Y-90059420D01*
X92590000Y-90340580D02*
X92590000Y-90059420D01*
%TO.C,C7*%
X101059420Y-95860000D02*
X101340580Y-95860000D01*
X101059420Y-94840000D02*
X101340580Y-94840000D01*
%TO.C,C6*%
X98440580Y-87740000D02*
X98159420Y-87740000D01*
X98440580Y-88760000D02*
X98159420Y-88760000D01*
%TO.C,C5*%
X101559420Y-88760000D02*
X101840580Y-88760000D01*
X101559420Y-87740000D02*
X101840580Y-87740000D01*
%TO.C,L2*%
X97078634Y-89490156D02*
X98259844Y-90671366D01*
X95240156Y-91328634D02*
X96421366Y-92509844D01*
%TO.C,L1*%
X101740156Y-90671366D02*
X102921366Y-89490156D01*
X103578634Y-92509844D02*
X104759844Y-91328634D01*
%TO.C,J3*%
X93650000Y-107500000D02*
X93650000Y-115500000D01*
X93650000Y-107500000D02*
X106350000Y-107500000D01*
X106350000Y-107500000D02*
X106350000Y-115500000D01*
%TO.C,JP1*%
X93250000Y-104400000D02*
X96050000Y-104400000D01*
X96700000Y-105100000D02*
X96700000Y-105700000D01*
X96050000Y-106400000D02*
X93250000Y-106400000D01*
X92600000Y-105700000D02*
X92600000Y-105100000D01*
X92600000Y-105100000D02*
G75*
G02*
X93300000Y-104400000I700000J0D01*
G01*
X93300000Y-106400000D02*
G75*
G02*
X92600000Y-105700000I0J700000D01*
G01*
X96700000Y-105700000D02*
G75*
G02*
X96000000Y-106400000I-700000J0D01*
G01*
X96000000Y-104400000D02*
G75*
G02*
X96700000Y-105100000I0J-700000D01*
G01*
%TO.C,D3*%
D10*
X113726190Y-88369047D02*
X113226190Y-88369047D01*
X113226190Y-88250000D01*
X113250000Y-88178571D01*
X113297619Y-88130952D01*
X113345238Y-88107142D01*
X113440476Y-88083333D01*
X113511904Y-88083333D01*
X113607142Y-88107142D01*
X113654761Y-88130952D01*
X113702380Y-88178571D01*
X113726190Y-88250000D01*
X113726190Y-88369047D01*
X113226190Y-87916666D02*
X113226190Y-87607142D01*
X113416666Y-87773809D01*
X113416666Y-87702380D01*
X113440476Y-87654761D01*
X113464285Y-87630952D01*
X113511904Y-87607142D01*
X113630952Y-87607142D01*
X113678571Y-87630952D01*
X113702380Y-87654761D01*
X113726190Y-87702380D01*
X113726190Y-87845238D01*
X113702380Y-87892857D01*
X113678571Y-87916666D01*
%TO.C,D2*%
X113726190Y-94369047D02*
X113226190Y-94369047D01*
X113226190Y-94250000D01*
X113250000Y-94178571D01*
X113297619Y-94130952D01*
X113345238Y-94107142D01*
X113440476Y-94083333D01*
X113511904Y-94083333D01*
X113607142Y-94107142D01*
X113654761Y-94130952D01*
X113702380Y-94178571D01*
X113726190Y-94250000D01*
X113726190Y-94369047D01*
X113273809Y-93892857D02*
X113250000Y-93869047D01*
X113226190Y-93821428D01*
X113226190Y-93702380D01*
X113250000Y-93654761D01*
X113273809Y-93630952D01*
X113321428Y-93607142D01*
X113369047Y-93607142D01*
X113440476Y-93630952D01*
X113726190Y-93916666D01*
X113726190Y-93607142D01*
%TO.C,D1*%
X113726190Y-100369047D02*
X113226190Y-100369047D01*
X113226190Y-100250000D01*
X113250000Y-100178571D01*
X113297619Y-100130952D01*
X113345238Y-100107142D01*
X113440476Y-100083333D01*
X113511904Y-100083333D01*
X113607142Y-100107142D01*
X113654761Y-100130952D01*
X113702380Y-100178571D01*
X113726190Y-100250000D01*
X113726190Y-100369047D01*
X113726190Y-99607142D02*
X113726190Y-99892857D01*
X113726190Y-99750000D02*
X113226190Y-99750000D01*
X113297619Y-99797619D01*
X113345238Y-99845238D01*
X113369047Y-99892857D01*
%TO.C,U1*%
D13*
X103752380Y-100761904D02*
X104561904Y-100761904D01*
X104657142Y-100714285D01*
X104704761Y-100666666D01*
X104752380Y-100571428D01*
X104752380Y-100380952D01*
X104704761Y-100285714D01*
X104657142Y-100238095D01*
X104561904Y-100190476D01*
X103752380Y-100190476D01*
X104752380Y-99190476D02*
X104752380Y-99761904D01*
X104752380Y-99476190D02*
X103752380Y-99476190D01*
X103895238Y-99571428D01*
X103990476Y-99666666D01*
X104038095Y-99761904D01*
%TO.C,D6*%
D10*
X110926190Y-106669047D02*
X110426190Y-106669047D01*
X110426190Y-106550000D01*
X110450000Y-106478571D01*
X110497619Y-106430952D01*
X110545238Y-106407142D01*
X110640476Y-106383333D01*
X110711904Y-106383333D01*
X110807142Y-106407142D01*
X110854761Y-106430952D01*
X110902380Y-106478571D01*
X110926190Y-106550000D01*
X110926190Y-106669047D01*
X110426190Y-105954761D02*
X110426190Y-106050000D01*
X110450000Y-106097619D01*
X110473809Y-106121428D01*
X110545238Y-106169047D01*
X110640476Y-106192857D01*
X110830952Y-106192857D01*
X110878571Y-106169047D01*
X110902380Y-106145238D01*
X110926190Y-106097619D01*
X110926190Y-106002380D01*
X110902380Y-105954761D01*
X110878571Y-105930952D01*
X110830952Y-105907142D01*
X110711904Y-105907142D01*
X110664285Y-105930952D01*
X110640476Y-105954761D01*
X110616666Y-106002380D01*
X110616666Y-106097619D01*
X110640476Y-106145238D01*
X110664285Y-106169047D01*
X110711904Y-106192857D01*
%TO.C,D5*%
X110926190Y-104069047D02*
X110426190Y-104069047D01*
X110426190Y-103950000D01*
X110450000Y-103878571D01*
X110497619Y-103830952D01*
X110545238Y-103807142D01*
X110640476Y-103783333D01*
X110711904Y-103783333D01*
X110807142Y-103807142D01*
X110854761Y-103830952D01*
X110902380Y-103878571D01*
X110926190Y-103950000D01*
X110926190Y-104069047D01*
X110426190Y-103330952D02*
X110426190Y-103569047D01*
X110664285Y-103592857D01*
X110640476Y-103569047D01*
X110616666Y-103521428D01*
X110616666Y-103402380D01*
X110640476Y-103354761D01*
X110664285Y-103330952D01*
X110711904Y-103307142D01*
X110830952Y-103307142D01*
X110878571Y-103330952D01*
X110902380Y-103354761D01*
X110926190Y-103402380D01*
X110926190Y-103521428D01*
X110902380Y-103569047D01*
X110878571Y-103592857D01*
%TO.C,D4*%
X110926190Y-94269047D02*
X110426190Y-94269047D01*
X110426190Y-94150000D01*
X110450000Y-94078571D01*
X110497619Y-94030952D01*
X110545238Y-94007142D01*
X110640476Y-93983333D01*
X110711904Y-93983333D01*
X110807142Y-94007142D01*
X110854761Y-94030952D01*
X110902380Y-94078571D01*
X110926190Y-94150000D01*
X110926190Y-94269047D01*
X110592857Y-93554761D02*
X110926190Y-93554761D01*
X110402380Y-93673809D02*
X110759523Y-93792857D01*
X110759523Y-93483333D01*
%TO.C,C19*%
X110878571Y-108521428D02*
X110902380Y-108545238D01*
X110926190Y-108616666D01*
X110926190Y-108664285D01*
X110902380Y-108735714D01*
X110854761Y-108783333D01*
X110807142Y-108807142D01*
X110711904Y-108830952D01*
X110640476Y-108830952D01*
X110545238Y-108807142D01*
X110497619Y-108783333D01*
X110450000Y-108735714D01*
X110426190Y-108664285D01*
X110426190Y-108616666D01*
X110450000Y-108545238D01*
X110473809Y-108521428D01*
X110926190Y-108045238D02*
X110926190Y-108330952D01*
X110926190Y-108188095D02*
X110426190Y-108188095D01*
X110497619Y-108235714D01*
X110545238Y-108283333D01*
X110569047Y-108330952D01*
X110926190Y-107807142D02*
X110926190Y-107711904D01*
X110902380Y-107664285D01*
X110878571Y-107640476D01*
X110807142Y-107592857D01*
X110711904Y-107569047D01*
X110521428Y-107569047D01*
X110473809Y-107592857D01*
X110450000Y-107616666D01*
X110426190Y-107664285D01*
X110426190Y-107759523D01*
X110450000Y-107807142D01*
X110473809Y-107830952D01*
X110521428Y-107854761D01*
X110640476Y-107854761D01*
X110688095Y-107830952D01*
X110711904Y-107807142D01*
X110735714Y-107759523D01*
X110735714Y-107664285D01*
X110711904Y-107616666D01*
X110688095Y-107592857D01*
X110640476Y-107569047D01*
%TO.C,C4*%
X95378571Y-87358333D02*
X95402380Y-87382142D01*
X95426190Y-87453571D01*
X95426190Y-87501190D01*
X95402380Y-87572619D01*
X95354761Y-87620238D01*
X95307142Y-87644047D01*
X95211904Y-87667857D01*
X95140476Y-87667857D01*
X95045238Y-87644047D01*
X94997619Y-87620238D01*
X94950000Y-87572619D01*
X94926190Y-87501190D01*
X94926190Y-87453571D01*
X94950000Y-87382142D01*
X94973809Y-87358333D01*
X95092857Y-86929761D02*
X95426190Y-86929761D01*
X94902380Y-87048809D02*
X95259523Y-87167857D01*
X95259523Y-86858333D01*
%TO.C,C3*%
X105078571Y-87583333D02*
X105102380Y-87607142D01*
X105126190Y-87678571D01*
X105126190Y-87726190D01*
X105102380Y-87797619D01*
X105054761Y-87845238D01*
X105007142Y-87869047D01*
X104911904Y-87892857D01*
X104840476Y-87892857D01*
X104745238Y-87869047D01*
X104697619Y-87845238D01*
X104650000Y-87797619D01*
X104626190Y-87726190D01*
X104626190Y-87678571D01*
X104650000Y-87607142D01*
X104673809Y-87583333D01*
X104626190Y-87416666D02*
X104626190Y-87107142D01*
X104816666Y-87273809D01*
X104816666Y-87202380D01*
X104840476Y-87154761D01*
X104864285Y-87130952D01*
X104911904Y-87107142D01*
X105030952Y-87107142D01*
X105078571Y-87130952D01*
X105102380Y-87154761D01*
X105126190Y-87202380D01*
X105126190Y-87345238D01*
X105102380Y-87392857D01*
X105078571Y-87416666D01*
%TO.C,R14*%
X105328571Y-107026190D02*
X105161904Y-106788095D01*
X105042857Y-107026190D02*
X105042857Y-106526190D01*
X105233333Y-106526190D01*
X105280952Y-106550000D01*
X105304761Y-106573809D01*
X105328571Y-106621428D01*
X105328571Y-106692857D01*
X105304761Y-106740476D01*
X105280952Y-106764285D01*
X105233333Y-106788095D01*
X105042857Y-106788095D01*
X105804761Y-107026190D02*
X105519047Y-107026190D01*
X105661904Y-107026190D02*
X105661904Y-106526190D01*
X105614285Y-106597619D01*
X105566666Y-106645238D01*
X105519047Y-106669047D01*
X106233333Y-106692857D02*
X106233333Y-107026190D01*
X106114285Y-106502380D02*
X105995238Y-106859523D01*
X106304761Y-106859523D01*
%TO.C,C2*%
X98216666Y-84203571D02*
X98192857Y-84227380D01*
X98121428Y-84251190D01*
X98073809Y-84251190D01*
X98002380Y-84227380D01*
X97954761Y-84179761D01*
X97930952Y-84132142D01*
X97907142Y-84036904D01*
X97907142Y-83965476D01*
X97930952Y-83870238D01*
X97954761Y-83822619D01*
X98002380Y-83775000D01*
X98073809Y-83751190D01*
X98121428Y-83751190D01*
X98192857Y-83775000D01*
X98216666Y-83798809D01*
X98407142Y-83798809D02*
X98430952Y-83775000D01*
X98478571Y-83751190D01*
X98597619Y-83751190D01*
X98645238Y-83775000D01*
X98669047Y-83798809D01*
X98692857Y-83846428D01*
X98692857Y-83894047D01*
X98669047Y-83965476D01*
X98383333Y-84251190D01*
X98692857Y-84251190D01*
%TO.C,C1*%
X101616666Y-84203571D02*
X101592857Y-84227380D01*
X101521428Y-84251190D01*
X101473809Y-84251190D01*
X101402380Y-84227380D01*
X101354761Y-84179761D01*
X101330952Y-84132142D01*
X101307142Y-84036904D01*
X101307142Y-83965476D01*
X101330952Y-83870238D01*
X101354761Y-83822619D01*
X101402380Y-83775000D01*
X101473809Y-83751190D01*
X101521428Y-83751190D01*
X101592857Y-83775000D01*
X101616666Y-83798809D01*
X102092857Y-84251190D02*
X101807142Y-84251190D01*
X101950000Y-84251190D02*
X101950000Y-83751190D01*
X101902380Y-83822619D01*
X101854761Y-83870238D01*
X101807142Y-83894047D01*
%TO.C,R13*%
X100478571Y-107026190D02*
X100311904Y-106788095D01*
X100192857Y-107026190D02*
X100192857Y-106526190D01*
X100383333Y-106526190D01*
X100430952Y-106550000D01*
X100454761Y-106573809D01*
X100478571Y-106621428D01*
X100478571Y-106692857D01*
X100454761Y-106740476D01*
X100430952Y-106764285D01*
X100383333Y-106788095D01*
X100192857Y-106788095D01*
X100954761Y-107026190D02*
X100669047Y-107026190D01*
X100811904Y-107026190D02*
X100811904Y-106526190D01*
X100764285Y-106597619D01*
X100716666Y-106645238D01*
X100669047Y-106669047D01*
X101121428Y-106526190D02*
X101430952Y-106526190D01*
X101264285Y-106716666D01*
X101335714Y-106716666D01*
X101383333Y-106740476D01*
X101407142Y-106764285D01*
X101430952Y-106811904D01*
X101430952Y-106930952D01*
X101407142Y-106978571D01*
X101383333Y-107002380D01*
X101335714Y-107026190D01*
X101192857Y-107026190D01*
X101145238Y-107002380D01*
X101121428Y-106978571D01*
%TO.C,R12*%
X102078571Y-107026190D02*
X101911904Y-106788095D01*
X101792857Y-107026190D02*
X101792857Y-106526190D01*
X101983333Y-106526190D01*
X102030952Y-106550000D01*
X102054761Y-106573809D01*
X102078571Y-106621428D01*
X102078571Y-106692857D01*
X102054761Y-106740476D01*
X102030952Y-106764285D01*
X101983333Y-106788095D01*
X101792857Y-106788095D01*
X102554761Y-107026190D02*
X102269047Y-107026190D01*
X102411904Y-107026190D02*
X102411904Y-106526190D01*
X102364285Y-106597619D01*
X102316666Y-106645238D01*
X102269047Y-106669047D01*
X102745238Y-106573809D02*
X102769047Y-106550000D01*
X102816666Y-106526190D01*
X102935714Y-106526190D01*
X102983333Y-106550000D01*
X103007142Y-106573809D01*
X103030952Y-106621428D01*
X103030952Y-106669047D01*
X103007142Y-106740476D01*
X102721428Y-107026190D01*
X103030952Y-107026190D01*
%TO.C,R11*%
X103678571Y-107026190D02*
X103511904Y-106788095D01*
X103392857Y-107026190D02*
X103392857Y-106526190D01*
X103583333Y-106526190D01*
X103630952Y-106550000D01*
X103654761Y-106573809D01*
X103678571Y-106621428D01*
X103678571Y-106692857D01*
X103654761Y-106740476D01*
X103630952Y-106764285D01*
X103583333Y-106788095D01*
X103392857Y-106788095D01*
X104154761Y-107026190D02*
X103869047Y-107026190D01*
X104011904Y-107026190D02*
X104011904Y-106526190D01*
X103964285Y-106597619D01*
X103916666Y-106645238D01*
X103869047Y-106669047D01*
X104630952Y-107026190D02*
X104345238Y-107026190D01*
X104488095Y-107026190D02*
X104488095Y-106526190D01*
X104440476Y-106597619D01*
X104392857Y-106645238D01*
X104345238Y-106669047D01*
%TO.C,R10*%
X98978571Y-106976190D02*
X98811904Y-106738095D01*
X98692857Y-106976190D02*
X98692857Y-106476190D01*
X98883333Y-106476190D01*
X98930952Y-106500000D01*
X98954761Y-106523809D01*
X98978571Y-106571428D01*
X98978571Y-106642857D01*
X98954761Y-106690476D01*
X98930952Y-106714285D01*
X98883333Y-106738095D01*
X98692857Y-106738095D01*
X99454761Y-106976190D02*
X99169047Y-106976190D01*
X99311904Y-106976190D02*
X99311904Y-106476190D01*
X99264285Y-106547619D01*
X99216666Y-106595238D01*
X99169047Y-106619047D01*
X99764285Y-106476190D02*
X99811904Y-106476190D01*
X99859523Y-106500000D01*
X99883333Y-106523809D01*
X99907142Y-106571428D01*
X99930952Y-106666666D01*
X99930952Y-106785714D01*
X99907142Y-106880952D01*
X99883333Y-106928571D01*
X99859523Y-106952380D01*
X99811904Y-106976190D01*
X99764285Y-106976190D01*
X99716666Y-106952380D01*
X99692857Y-106928571D01*
X99669047Y-106880952D01*
X99645238Y-106785714D01*
X99645238Y-106666666D01*
X99669047Y-106571428D01*
X99692857Y-106523809D01*
X99716666Y-106500000D01*
X99764285Y-106476190D01*
%TO.C,R9*%
X110926190Y-98883333D02*
X110688095Y-99050000D01*
X110926190Y-99169047D02*
X110426190Y-99169047D01*
X110426190Y-98978571D01*
X110450000Y-98930952D01*
X110473809Y-98907142D01*
X110521428Y-98883333D01*
X110592857Y-98883333D01*
X110640476Y-98907142D01*
X110664285Y-98930952D01*
X110688095Y-98978571D01*
X110688095Y-99169047D01*
X110926190Y-98645238D02*
X110926190Y-98550000D01*
X110902380Y-98502380D01*
X110878571Y-98478571D01*
X110807142Y-98430952D01*
X110711904Y-98407142D01*
X110521428Y-98407142D01*
X110473809Y-98430952D01*
X110450000Y-98454761D01*
X110426190Y-98502380D01*
X110426190Y-98597619D01*
X110450000Y-98645238D01*
X110473809Y-98669047D01*
X110521428Y-98692857D01*
X110640476Y-98692857D01*
X110688095Y-98669047D01*
X110711904Y-98645238D01*
X110735714Y-98597619D01*
X110735714Y-98502380D01*
X110711904Y-98454761D01*
X110688095Y-98430952D01*
X110640476Y-98407142D01*
%TO.C,R8*%
X110926190Y-100383333D02*
X110688095Y-100550000D01*
X110926190Y-100669047D02*
X110426190Y-100669047D01*
X110426190Y-100478571D01*
X110450000Y-100430952D01*
X110473809Y-100407142D01*
X110521428Y-100383333D01*
X110592857Y-100383333D01*
X110640476Y-100407142D01*
X110664285Y-100430952D01*
X110688095Y-100478571D01*
X110688095Y-100669047D01*
X110640476Y-100097619D02*
X110616666Y-100145238D01*
X110592857Y-100169047D01*
X110545238Y-100192857D01*
X110521428Y-100192857D01*
X110473809Y-100169047D01*
X110450000Y-100145238D01*
X110426190Y-100097619D01*
X110426190Y-100002380D01*
X110450000Y-99954761D01*
X110473809Y-99930952D01*
X110521428Y-99907142D01*
X110545238Y-99907142D01*
X110592857Y-99930952D01*
X110616666Y-99954761D01*
X110640476Y-100002380D01*
X110640476Y-100097619D01*
X110664285Y-100145238D01*
X110688095Y-100169047D01*
X110735714Y-100192857D01*
X110830952Y-100192857D01*
X110878571Y-100169047D01*
X110902380Y-100145238D01*
X110926190Y-100097619D01*
X110926190Y-100002380D01*
X110902380Y-99954761D01*
X110878571Y-99930952D01*
X110830952Y-99907142D01*
X110735714Y-99907142D01*
X110688095Y-99930952D01*
X110664285Y-99954761D01*
X110640476Y-100002380D01*
%TO.C,R7*%
X110926190Y-101883333D02*
X110688095Y-102050000D01*
X110926190Y-102169047D02*
X110426190Y-102169047D01*
X110426190Y-101978571D01*
X110450000Y-101930952D01*
X110473809Y-101907142D01*
X110521428Y-101883333D01*
X110592857Y-101883333D01*
X110640476Y-101907142D01*
X110664285Y-101930952D01*
X110688095Y-101978571D01*
X110688095Y-102169047D01*
X110426190Y-101716666D02*
X110426190Y-101383333D01*
X110926190Y-101597619D01*
%TO.C,R6*%
X110926190Y-97383333D02*
X110688095Y-97550000D01*
X110926190Y-97669047D02*
X110426190Y-97669047D01*
X110426190Y-97478571D01*
X110450000Y-97430952D01*
X110473809Y-97407142D01*
X110521428Y-97383333D01*
X110592857Y-97383333D01*
X110640476Y-97407142D01*
X110664285Y-97430952D01*
X110688095Y-97478571D01*
X110688095Y-97669047D01*
X110426190Y-96954761D02*
X110426190Y-97050000D01*
X110450000Y-97097619D01*
X110473809Y-97121428D01*
X110545238Y-97169047D01*
X110640476Y-97192857D01*
X110830952Y-97192857D01*
X110878571Y-97169047D01*
X110902380Y-97145238D01*
X110926190Y-97097619D01*
X110926190Y-97002380D01*
X110902380Y-96954761D01*
X110878571Y-96930952D01*
X110830952Y-96907142D01*
X110711904Y-96907142D01*
X110664285Y-96930952D01*
X110640476Y-96954761D01*
X110616666Y-97002380D01*
X110616666Y-97097619D01*
X110640476Y-97145238D01*
X110664285Y-97169047D01*
X110711904Y-97192857D01*
%TO.C,R5*%
X110926190Y-95883333D02*
X110688095Y-96050000D01*
X110926190Y-96169047D02*
X110426190Y-96169047D01*
X110426190Y-95978571D01*
X110450000Y-95930952D01*
X110473809Y-95907142D01*
X110521428Y-95883333D01*
X110592857Y-95883333D01*
X110640476Y-95907142D01*
X110664285Y-95930952D01*
X110688095Y-95978571D01*
X110688095Y-96169047D01*
X110426190Y-95430952D02*
X110426190Y-95669047D01*
X110664285Y-95692857D01*
X110640476Y-95669047D01*
X110616666Y-95621428D01*
X110616666Y-95502380D01*
X110640476Y-95454761D01*
X110664285Y-95430952D01*
X110711904Y-95407142D01*
X110830952Y-95407142D01*
X110878571Y-95430952D01*
X110902380Y-95454761D01*
X110926190Y-95502380D01*
X110926190Y-95621428D01*
X110902380Y-95669047D01*
X110878571Y-95692857D01*
%TO.C,R4*%
X92526190Y-92183333D02*
X92288095Y-92350000D01*
X92526190Y-92469047D02*
X92026190Y-92469047D01*
X92026190Y-92278571D01*
X92050000Y-92230952D01*
X92073809Y-92207142D01*
X92121428Y-92183333D01*
X92192857Y-92183333D01*
X92240476Y-92207142D01*
X92264285Y-92230952D01*
X92288095Y-92278571D01*
X92288095Y-92469047D01*
X92192857Y-91754761D02*
X92526190Y-91754761D01*
X92002380Y-91873809D02*
X92359523Y-91992857D01*
X92359523Y-91683333D01*
%TO.C,R3*%
X92526190Y-88333333D02*
X92288095Y-88500000D01*
X92526190Y-88619047D02*
X92026190Y-88619047D01*
X92026190Y-88428571D01*
X92050000Y-88380952D01*
X92073809Y-88357142D01*
X92121428Y-88333333D01*
X92192857Y-88333333D01*
X92240476Y-88357142D01*
X92264285Y-88380952D01*
X92288095Y-88428571D01*
X92288095Y-88619047D01*
X92026190Y-88166666D02*
X92026190Y-87857142D01*
X92216666Y-88023809D01*
X92216666Y-87952380D01*
X92240476Y-87904761D01*
X92264285Y-87880952D01*
X92311904Y-87857142D01*
X92430952Y-87857142D01*
X92478571Y-87880952D01*
X92502380Y-87904761D01*
X92526190Y-87952380D01*
X92526190Y-88095238D01*
X92502380Y-88142857D01*
X92478571Y-88166666D01*
%TO.C,R2*%
X95426190Y-84808333D02*
X95188095Y-84975000D01*
X95426190Y-85094047D02*
X94926190Y-85094047D01*
X94926190Y-84903571D01*
X94950000Y-84855952D01*
X94973809Y-84832142D01*
X95021428Y-84808333D01*
X95092857Y-84808333D01*
X95140476Y-84832142D01*
X95164285Y-84855952D01*
X95188095Y-84903571D01*
X95188095Y-85094047D01*
X94973809Y-84617857D02*
X94950000Y-84594047D01*
X94926190Y-84546428D01*
X94926190Y-84427380D01*
X94950000Y-84379761D01*
X94973809Y-84355952D01*
X95021428Y-84332142D01*
X95069047Y-84332142D01*
X95140476Y-84355952D01*
X95426190Y-84641666D01*
X95426190Y-84332142D01*
%TO.C,R1*%
X105126190Y-84833333D02*
X104888095Y-85000000D01*
X105126190Y-85119047D02*
X104626190Y-85119047D01*
X104626190Y-84928571D01*
X104650000Y-84880952D01*
X104673809Y-84857142D01*
X104721428Y-84833333D01*
X104792857Y-84833333D01*
X104840476Y-84857142D01*
X104864285Y-84880952D01*
X104888095Y-84928571D01*
X104888095Y-85119047D01*
X105126190Y-84357142D02*
X105126190Y-84642857D01*
X105126190Y-84500000D02*
X104626190Y-84500000D01*
X104697619Y-84547619D01*
X104745238Y-84595238D01*
X104769047Y-84642857D01*
%TO.C,C18*%
X95678571Y-95671428D02*
X95702380Y-95695238D01*
X95726190Y-95766666D01*
X95726190Y-95814285D01*
X95702380Y-95885714D01*
X95654761Y-95933333D01*
X95607142Y-95957142D01*
X95511904Y-95980952D01*
X95440476Y-95980952D01*
X95345238Y-95957142D01*
X95297619Y-95933333D01*
X95250000Y-95885714D01*
X95226190Y-95814285D01*
X95226190Y-95766666D01*
X95250000Y-95695238D01*
X95273809Y-95671428D01*
X95726190Y-95195238D02*
X95726190Y-95480952D01*
X95726190Y-95338095D02*
X95226190Y-95338095D01*
X95297619Y-95385714D01*
X95345238Y-95433333D01*
X95369047Y-95480952D01*
X95440476Y-94909523D02*
X95416666Y-94957142D01*
X95392857Y-94980952D01*
X95345238Y-95004761D01*
X95321428Y-95004761D01*
X95273809Y-94980952D01*
X95250000Y-94957142D01*
X95226190Y-94909523D01*
X95226190Y-94814285D01*
X95250000Y-94766666D01*
X95273809Y-94742857D01*
X95321428Y-94719047D01*
X95345238Y-94719047D01*
X95392857Y-94742857D01*
X95416666Y-94766666D01*
X95440476Y-94814285D01*
X95440476Y-94909523D01*
X95464285Y-94957142D01*
X95488095Y-94980952D01*
X95535714Y-95004761D01*
X95630952Y-95004761D01*
X95678571Y-94980952D01*
X95702380Y-94957142D01*
X95726190Y-94909523D01*
X95726190Y-94814285D01*
X95702380Y-94766666D01*
X95678571Y-94742857D01*
X95630952Y-94719047D01*
X95535714Y-94719047D01*
X95488095Y-94742857D01*
X95464285Y-94766666D01*
X95440476Y-94814285D01*
%TO.C,C17*%
X97378571Y-106928571D02*
X97354761Y-106952380D01*
X97283333Y-106976190D01*
X97235714Y-106976190D01*
X97164285Y-106952380D01*
X97116666Y-106904761D01*
X97092857Y-106857142D01*
X97069047Y-106761904D01*
X97069047Y-106690476D01*
X97092857Y-106595238D01*
X97116666Y-106547619D01*
X97164285Y-106500000D01*
X97235714Y-106476190D01*
X97283333Y-106476190D01*
X97354761Y-106500000D01*
X97378571Y-106523809D01*
X97854761Y-106976190D02*
X97569047Y-106976190D01*
X97711904Y-106976190D02*
X97711904Y-106476190D01*
X97664285Y-106547619D01*
X97616666Y-106595238D01*
X97569047Y-106619047D01*
X98021428Y-106476190D02*
X98354761Y-106476190D01*
X98140476Y-106976190D01*
%TO.C,C16*%
X95928571Y-102821428D02*
X95952380Y-102845238D01*
X95976190Y-102916666D01*
X95976190Y-102964285D01*
X95952380Y-103035714D01*
X95904761Y-103083333D01*
X95857142Y-103107142D01*
X95761904Y-103130952D01*
X95690476Y-103130952D01*
X95595238Y-103107142D01*
X95547619Y-103083333D01*
X95500000Y-103035714D01*
X95476190Y-102964285D01*
X95476190Y-102916666D01*
X95500000Y-102845238D01*
X95523809Y-102821428D01*
X95976190Y-102345238D02*
X95976190Y-102630952D01*
X95976190Y-102488095D02*
X95476190Y-102488095D01*
X95547619Y-102535714D01*
X95595238Y-102583333D01*
X95619047Y-102630952D01*
X95476190Y-101916666D02*
X95476190Y-102011904D01*
X95500000Y-102059523D01*
X95523809Y-102083333D01*
X95595238Y-102130952D01*
X95690476Y-102154761D01*
X95880952Y-102154761D01*
X95928571Y-102130952D01*
X95952380Y-102107142D01*
X95976190Y-102059523D01*
X95976190Y-101964285D01*
X95952380Y-101916666D01*
X95928571Y-101892857D01*
X95880952Y-101869047D01*
X95761904Y-101869047D01*
X95714285Y-101892857D01*
X95690476Y-101916666D01*
X95666666Y-101964285D01*
X95666666Y-102059523D01*
X95690476Y-102107142D01*
X95714285Y-102130952D01*
X95761904Y-102154761D01*
%TO.C,C15*%
X95928571Y-97821428D02*
X95952380Y-97845238D01*
X95976190Y-97916666D01*
X95976190Y-97964285D01*
X95952380Y-98035714D01*
X95904761Y-98083333D01*
X95857142Y-98107142D01*
X95761904Y-98130952D01*
X95690476Y-98130952D01*
X95595238Y-98107142D01*
X95547619Y-98083333D01*
X95500000Y-98035714D01*
X95476190Y-97964285D01*
X95476190Y-97916666D01*
X95500000Y-97845238D01*
X95523809Y-97821428D01*
X95976190Y-97345238D02*
X95976190Y-97630952D01*
X95976190Y-97488095D02*
X95476190Y-97488095D01*
X95547619Y-97535714D01*
X95595238Y-97583333D01*
X95619047Y-97630952D01*
X95476190Y-96892857D02*
X95476190Y-97130952D01*
X95714285Y-97154761D01*
X95690476Y-97130952D01*
X95666666Y-97083333D01*
X95666666Y-96964285D01*
X95690476Y-96916666D01*
X95714285Y-96892857D01*
X95761904Y-96869047D01*
X95880952Y-96869047D01*
X95928571Y-96892857D01*
X95952380Y-96916666D01*
X95976190Y-96964285D01*
X95976190Y-97083333D01*
X95952380Y-97130952D01*
X95928571Y-97154761D01*
%TO.C,C14*%
X104078571Y-97621428D02*
X104102380Y-97645238D01*
X104126190Y-97716666D01*
X104126190Y-97764285D01*
X104102380Y-97835714D01*
X104054761Y-97883333D01*
X104007142Y-97907142D01*
X103911904Y-97930952D01*
X103840476Y-97930952D01*
X103745238Y-97907142D01*
X103697619Y-97883333D01*
X103650000Y-97835714D01*
X103626190Y-97764285D01*
X103626190Y-97716666D01*
X103650000Y-97645238D01*
X103673809Y-97621428D01*
X104126190Y-97145238D02*
X104126190Y-97430952D01*
X104126190Y-97288095D02*
X103626190Y-97288095D01*
X103697619Y-97335714D01*
X103745238Y-97383333D01*
X103769047Y-97430952D01*
X103792857Y-96716666D02*
X104126190Y-96716666D01*
X103602380Y-96835714D02*
X103959523Y-96954761D01*
X103959523Y-96645238D01*
%TO.C,C13*%
X105928571Y-102328571D02*
X105904761Y-102352380D01*
X105833333Y-102376190D01*
X105785714Y-102376190D01*
X105714285Y-102352380D01*
X105666666Y-102304761D01*
X105642857Y-102257142D01*
X105619047Y-102161904D01*
X105619047Y-102090476D01*
X105642857Y-101995238D01*
X105666666Y-101947619D01*
X105714285Y-101900000D01*
X105785714Y-101876190D01*
X105833333Y-101876190D01*
X105904761Y-101900000D01*
X105928571Y-101923809D01*
X106404761Y-102376190D02*
X106119047Y-102376190D01*
X106261904Y-102376190D02*
X106261904Y-101876190D01*
X106214285Y-101947619D01*
X106166666Y-101995238D01*
X106119047Y-102019047D01*
X106571428Y-101876190D02*
X106880952Y-101876190D01*
X106714285Y-102066666D01*
X106785714Y-102066666D01*
X106833333Y-102090476D01*
X106857142Y-102114285D01*
X106880952Y-102161904D01*
X106880952Y-102280952D01*
X106857142Y-102328571D01*
X106833333Y-102352380D01*
X106785714Y-102376190D01*
X106642857Y-102376190D01*
X106595238Y-102352380D01*
X106571428Y-102328571D01*
%TO.C,C12*%
X104428571Y-102328571D02*
X104404761Y-102352380D01*
X104333333Y-102376190D01*
X104285714Y-102376190D01*
X104214285Y-102352380D01*
X104166666Y-102304761D01*
X104142857Y-102257142D01*
X104119047Y-102161904D01*
X104119047Y-102090476D01*
X104142857Y-101995238D01*
X104166666Y-101947619D01*
X104214285Y-101900000D01*
X104285714Y-101876190D01*
X104333333Y-101876190D01*
X104404761Y-101900000D01*
X104428571Y-101923809D01*
X104904761Y-102376190D02*
X104619047Y-102376190D01*
X104761904Y-102376190D02*
X104761904Y-101876190D01*
X104714285Y-101947619D01*
X104666666Y-101995238D01*
X104619047Y-102019047D01*
X105095238Y-101923809D02*
X105119047Y-101900000D01*
X105166666Y-101876190D01*
X105285714Y-101876190D01*
X105333333Y-101900000D01*
X105357142Y-101923809D01*
X105380952Y-101971428D01*
X105380952Y-102019047D01*
X105357142Y-102090476D01*
X105071428Y-102376190D01*
X105380952Y-102376190D01*
%TO.C,C11*%
X97678571Y-94578571D02*
X97654761Y-94602380D01*
X97583333Y-94626190D01*
X97535714Y-94626190D01*
X97464285Y-94602380D01*
X97416666Y-94554761D01*
X97392857Y-94507142D01*
X97369047Y-94411904D01*
X97369047Y-94340476D01*
X97392857Y-94245238D01*
X97416666Y-94197619D01*
X97464285Y-94150000D01*
X97535714Y-94126190D01*
X97583333Y-94126190D01*
X97654761Y-94150000D01*
X97678571Y-94173809D01*
X98154761Y-94626190D02*
X97869047Y-94626190D01*
X98011904Y-94626190D02*
X98011904Y-94126190D01*
X97964285Y-94197619D01*
X97916666Y-94245238D01*
X97869047Y-94269047D01*
X98630952Y-94626190D02*
X98345238Y-94626190D01*
X98488095Y-94626190D02*
X98488095Y-94126190D01*
X98440476Y-94197619D01*
X98392857Y-94245238D01*
X98345238Y-94269047D01*
%TO.C,C10*%
X95278571Y-93078571D02*
X95254761Y-93102380D01*
X95183333Y-93126190D01*
X95135714Y-93126190D01*
X95064285Y-93102380D01*
X95016666Y-93054761D01*
X94992857Y-93007142D01*
X94969047Y-92911904D01*
X94969047Y-92840476D01*
X94992857Y-92745238D01*
X95016666Y-92697619D01*
X95064285Y-92650000D01*
X95135714Y-92626190D01*
X95183333Y-92626190D01*
X95254761Y-92650000D01*
X95278571Y-92673809D01*
X95754761Y-93126190D02*
X95469047Y-93126190D01*
X95611904Y-93126190D02*
X95611904Y-92626190D01*
X95564285Y-92697619D01*
X95516666Y-92745238D01*
X95469047Y-92769047D01*
X96064285Y-92626190D02*
X96111904Y-92626190D01*
X96159523Y-92650000D01*
X96183333Y-92673809D01*
X96207142Y-92721428D01*
X96230952Y-92816666D01*
X96230952Y-92935714D01*
X96207142Y-93030952D01*
X96183333Y-93078571D01*
X96159523Y-93102380D01*
X96111904Y-93126190D01*
X96064285Y-93126190D01*
X96016666Y-93102380D01*
X95992857Y-93078571D01*
X95969047Y-93030952D01*
X95945238Y-92935714D01*
X95945238Y-92816666D01*
X95969047Y-92721428D01*
X95992857Y-92673809D01*
X96016666Y-92650000D01*
X96064285Y-92626190D01*
%TO.C,C9*%
X104078571Y-93983333D02*
X104102380Y-94007142D01*
X104126190Y-94078571D01*
X104126190Y-94126190D01*
X104102380Y-94197619D01*
X104054761Y-94245238D01*
X104007142Y-94269047D01*
X103911904Y-94292857D01*
X103840476Y-94292857D01*
X103745238Y-94269047D01*
X103697619Y-94245238D01*
X103650000Y-94197619D01*
X103626190Y-94126190D01*
X103626190Y-94078571D01*
X103650000Y-94007142D01*
X103673809Y-93983333D01*
X104126190Y-93745238D02*
X104126190Y-93650000D01*
X104102380Y-93602380D01*
X104078571Y-93578571D01*
X104007142Y-93530952D01*
X103911904Y-93507142D01*
X103721428Y-93507142D01*
X103673809Y-93530952D01*
X103650000Y-93554761D01*
X103626190Y-93602380D01*
X103626190Y-93697619D01*
X103650000Y-93745238D01*
X103673809Y-93769047D01*
X103721428Y-93792857D01*
X103840476Y-93792857D01*
X103888095Y-93769047D01*
X103911904Y-93745238D01*
X103935714Y-93697619D01*
X103935714Y-93602380D01*
X103911904Y-93554761D01*
X103888095Y-93530952D01*
X103840476Y-93507142D01*
%TO.C,C8*%
X92378571Y-90183333D02*
X92402380Y-90207142D01*
X92426190Y-90278571D01*
X92426190Y-90326190D01*
X92402380Y-90397619D01*
X92354761Y-90445238D01*
X92307142Y-90469047D01*
X92211904Y-90492857D01*
X92140476Y-90492857D01*
X92045238Y-90469047D01*
X91997619Y-90445238D01*
X91950000Y-90397619D01*
X91926190Y-90326190D01*
X91926190Y-90278571D01*
X91950000Y-90207142D01*
X91973809Y-90183333D01*
X92140476Y-89897619D02*
X92116666Y-89945238D01*
X92092857Y-89969047D01*
X92045238Y-89992857D01*
X92021428Y-89992857D01*
X91973809Y-89969047D01*
X91950000Y-89945238D01*
X91926190Y-89897619D01*
X91926190Y-89802380D01*
X91950000Y-89754761D01*
X91973809Y-89730952D01*
X92021428Y-89707142D01*
X92045238Y-89707142D01*
X92092857Y-89730952D01*
X92116666Y-89754761D01*
X92140476Y-89802380D01*
X92140476Y-89897619D01*
X92164285Y-89945238D01*
X92188095Y-89969047D01*
X92235714Y-89992857D01*
X92330952Y-89992857D01*
X92378571Y-89969047D01*
X92402380Y-89945238D01*
X92426190Y-89897619D01*
X92426190Y-89802380D01*
X92402380Y-89754761D01*
X92378571Y-89730952D01*
X92330952Y-89707142D01*
X92235714Y-89707142D01*
X92188095Y-89730952D01*
X92164285Y-89754761D01*
X92140476Y-89802380D01*
%TO.C,C7*%
X104078571Y-95433333D02*
X104102380Y-95457142D01*
X104126190Y-95528571D01*
X104126190Y-95576190D01*
X104102380Y-95647619D01*
X104054761Y-95695238D01*
X104007142Y-95719047D01*
X103911904Y-95742857D01*
X103840476Y-95742857D01*
X103745238Y-95719047D01*
X103697619Y-95695238D01*
X103650000Y-95647619D01*
X103626190Y-95576190D01*
X103626190Y-95528571D01*
X103650000Y-95457142D01*
X103673809Y-95433333D01*
X103626190Y-95266666D02*
X103626190Y-94933333D01*
X104126190Y-95147619D01*
%TO.C,C6*%
X98216666Y-87578571D02*
X98192857Y-87602380D01*
X98121428Y-87626190D01*
X98073809Y-87626190D01*
X98002380Y-87602380D01*
X97954761Y-87554761D01*
X97930952Y-87507142D01*
X97907142Y-87411904D01*
X97907142Y-87340476D01*
X97930952Y-87245238D01*
X97954761Y-87197619D01*
X98002380Y-87150000D01*
X98073809Y-87126190D01*
X98121428Y-87126190D01*
X98192857Y-87150000D01*
X98216666Y-87173809D01*
X98645238Y-87126190D02*
X98550000Y-87126190D01*
X98502380Y-87150000D01*
X98478571Y-87173809D01*
X98430952Y-87245238D01*
X98407142Y-87340476D01*
X98407142Y-87530952D01*
X98430952Y-87578571D01*
X98454761Y-87602380D01*
X98502380Y-87626190D01*
X98597619Y-87626190D01*
X98645238Y-87602380D01*
X98669047Y-87578571D01*
X98692857Y-87530952D01*
X98692857Y-87411904D01*
X98669047Y-87364285D01*
X98645238Y-87340476D01*
X98597619Y-87316666D01*
X98502380Y-87316666D01*
X98454761Y-87340476D01*
X98430952Y-87364285D01*
X98407142Y-87411904D01*
%TO.C,C5*%
X101616666Y-87578571D02*
X101592857Y-87602380D01*
X101521428Y-87626190D01*
X101473809Y-87626190D01*
X101402380Y-87602380D01*
X101354761Y-87554761D01*
X101330952Y-87507142D01*
X101307142Y-87411904D01*
X101307142Y-87340476D01*
X101330952Y-87245238D01*
X101354761Y-87197619D01*
X101402380Y-87150000D01*
X101473809Y-87126190D01*
X101521428Y-87126190D01*
X101592857Y-87150000D01*
X101616666Y-87173809D01*
X102069047Y-87126190D02*
X101830952Y-87126190D01*
X101807142Y-87364285D01*
X101830952Y-87340476D01*
X101878571Y-87316666D01*
X101997619Y-87316666D01*
X102045238Y-87340476D01*
X102069047Y-87364285D01*
X102092857Y-87411904D01*
X102092857Y-87530952D01*
X102069047Y-87578571D01*
X102045238Y-87602380D01*
X101997619Y-87626190D01*
X101878571Y-87626190D01*
X101830952Y-87602380D01*
X101807142Y-87578571D01*
%TO.C,L2*%
X94851015Y-89968866D02*
X94682656Y-90137225D01*
X94329103Y-89783671D01*
X94632148Y-89547969D02*
X94632148Y-89514297D01*
X94648984Y-89463790D01*
X94733164Y-89379610D01*
X94783671Y-89362774D01*
X94817343Y-89362774D01*
X94867851Y-89379610D01*
X94901522Y-89413282D01*
X94935194Y-89480625D01*
X94935194Y-89884687D01*
X95154061Y-89665820D01*
%TO.C,L1*%
X105074026Y-89808122D02*
X104905667Y-89639763D01*
X105259221Y-89286210D01*
X105377072Y-90111168D02*
X105175041Y-89909137D01*
X105276057Y-90010152D02*
X105629610Y-89656599D01*
X105545431Y-89673435D01*
X105478087Y-89673435D01*
X105427580Y-89656599D01*
%TO.C,TP1*%
D14*
X99369047Y-92126190D02*
X99654761Y-92126190D01*
X99511904Y-92626190D02*
X99511904Y-92126190D01*
X99821428Y-92626190D02*
X99821428Y-92126190D01*
X100011904Y-92126190D01*
X100059523Y-92150000D01*
X100083333Y-92173809D01*
X100107142Y-92221428D01*
X100107142Y-92292857D01*
X100083333Y-92340476D01*
X100059523Y-92364285D01*
X100011904Y-92388095D01*
X99821428Y-92388095D01*
X100583333Y-92626190D02*
X100297619Y-92626190D01*
X100440476Y-92626190D02*
X100440476Y-92126190D01*
X100392857Y-92197619D01*
X100345238Y-92245238D01*
X100297619Y-92269047D01*
%TO.C,J3*%
D13*
X95035714Y-109352380D02*
X94464285Y-109352380D01*
X94750000Y-109352380D02*
X94750000Y-108352380D01*
X94654761Y-108495238D01*
X94559523Y-108590476D01*
X94464285Y-108638095D01*
%TO.C,Y1*%
D10*
X95838095Y-100238095D02*
X96076190Y-100238095D01*
X95576190Y-100404761D02*
X95838095Y-100238095D01*
X95576190Y-100071428D01*
X96076190Y-99642857D02*
X96076190Y-99928571D01*
X96076190Y-99785714D02*
X95576190Y-99785714D01*
X95647619Y-99833333D01*
X95695238Y-99880952D01*
X95719047Y-99928571D01*
%TD*%
M02*
