%TF.GenerationSoftware,KiCad,Pcbnew,(5.1.9-0-10_14)*%
%TF.CreationDate,2021-06-01T08:55:54+01:00*%
%TF.ProjectId,PN532,504e3533-322e-46b6-9963-61645f706362,6*%
%TF.SameCoordinates,Original*%
%TF.FileFunction,Soldermask,Bot*%
%TF.FilePolarity,Negative*%
%FSLAX46Y46*%
G04 Gerber Fmt 4.6, Leading zero omitted, Abs format (unit mm)*
G04 Created by KiCad (PCBNEW (5.1.9-0-10_14)) date 2021-06-01 08:55:54*
%MOMM*%
%LPD*%
G01*
G04 APERTURE LIST*
%ADD10C,0.100000*%
%ADD11O,1.700000X1.700000*%
%ADD12R,1.700000X1.700000*%
%ADD13C,3.200000*%
%ADD14C,0.600000*%
%ADD15C,1.200000*%
%ADD16R,1.300000X1.550000*%
%ADD17C,2.000000*%
%ADD18O,1.700000X1.850000*%
%ADD19C,0.350000*%
%ADD20C,1.800000*%
%ADD21R,1.800000X1.800000*%
G04 APERTURE END LIST*
D10*
%TO.C,U2*%
G36*
X85100000Y-109100000D02*
G01*
X90900000Y-109100000D01*
X90900000Y-114900000D01*
X85100000Y-114900000D01*
X85100000Y-109100000D01*
G37*
X85100000Y-109100000D02*
X90900000Y-109100000D01*
X90900000Y-114900000D01*
X85100000Y-114900000D01*
X85100000Y-109100000D01*
%TD*%
D11*
%TO.C,J1*%
X112000000Y-104730000D03*
D12*
X112000000Y-107270000D03*
%TD*%
D13*
%TO.C,H2*%
X88000000Y-88000000D03*
%TD*%
%TO.C,H1*%
X112000000Y-112000000D03*
%TD*%
D14*
%TO.C,A1*%
X99000000Y-120000000D03*
X101000000Y-117000000D03*
X96000000Y-83000000D03*
X104000000Y-83000000D03*
X100000000Y-81000000D03*
%TD*%
D15*
%TO.C,TP1*%
X98750000Y-92400000D03*
X101250000Y-92400000D03*
%TD*%
D16*
%TO.C,SW1*%
X86250000Y-96025000D03*
X90750000Y-96025000D03*
X90750000Y-103975000D03*
X86250000Y-103975000D03*
D17*
X90750000Y-103250000D03*
X86250000Y-103250000D03*
X90750000Y-96750000D03*
X86250000Y-96750000D03*
%TD*%
D18*
%TO.C,J3*%
X103750000Y-108900000D03*
X101250000Y-108900000D03*
X98750000Y-108900000D03*
G36*
G01*
X95400000Y-109575000D02*
X95400000Y-108225000D01*
G75*
G02*
X95650000Y-107975000I250000J0D01*
G01*
X96850000Y-107975000D01*
G75*
G02*
X97100000Y-108225000I0J-250000D01*
G01*
X97100000Y-109575000D01*
G75*
G02*
X96850000Y-109825000I-250000J0D01*
G01*
X95650000Y-109825000D01*
G75*
G02*
X95400000Y-109575000I0J250000D01*
G01*
G37*
%TD*%
D19*
%TO.C,U1*%
X100000000Y-100000000D03*
X99000000Y-101000000D03*
X99000000Y-99000000D03*
X101000000Y-99000000D03*
X101000000Y-101000000D03*
%TD*%
%TO.C,D1*%
G36*
G01*
X112350000Y-101100000D02*
X111650000Y-101100000D01*
G75*
G02*
X111525000Y-100975000I0J125000D01*
G01*
X111525000Y-100725000D01*
G75*
G02*
X111650000Y-100600000I125000J0D01*
G01*
X112350000Y-100600000D01*
G75*
G02*
X112475000Y-100725000I0J-125000D01*
G01*
X112475000Y-100975000D01*
G75*
G02*
X112350000Y-101100000I-125000J0D01*
G01*
G37*
G36*
G01*
X112350000Y-99400000D02*
X111650000Y-99400000D01*
G75*
G02*
X111525000Y-99275000I0J125000D01*
G01*
X111525000Y-99025000D01*
G75*
G02*
X111650000Y-98900000I125000J0D01*
G01*
X112350000Y-98900000D01*
G75*
G02*
X112475000Y-99025000I0J-125000D01*
G01*
X112475000Y-99275000D01*
G75*
G02*
X112350000Y-99400000I-125000J0D01*
G01*
G37*
D20*
X112000000Y-98730000D03*
D21*
X112000000Y-101270000D03*
%TD*%
D11*
%TO.C,J2*%
X103810000Y-112000000D03*
X101270000Y-112000000D03*
X98730000Y-112000000D03*
D12*
X96190000Y-112000000D03*
%TD*%
%TO.C,D3*%
G36*
G01*
X112350000Y-89100000D02*
X111650000Y-89100000D01*
G75*
G02*
X111525000Y-88975000I0J125000D01*
G01*
X111525000Y-88725000D01*
G75*
G02*
X111650000Y-88600000I125000J0D01*
G01*
X112350000Y-88600000D01*
G75*
G02*
X112475000Y-88725000I0J-125000D01*
G01*
X112475000Y-88975000D01*
G75*
G02*
X112350000Y-89100000I-125000J0D01*
G01*
G37*
G36*
G01*
X112350000Y-87400000D02*
X111650000Y-87400000D01*
G75*
G02*
X111525000Y-87275000I0J125000D01*
G01*
X111525000Y-87025000D01*
G75*
G02*
X111650000Y-86900000I125000J0D01*
G01*
X112350000Y-86900000D01*
G75*
G02*
X112475000Y-87025000I0J-125000D01*
G01*
X112475000Y-87275000D01*
G75*
G02*
X112350000Y-87400000I-125000J0D01*
G01*
G37*
D20*
X112000000Y-86730000D03*
D21*
X112000000Y-89270000D03*
%TD*%
%TO.C,D2*%
G36*
G01*
X112350000Y-95100000D02*
X111650000Y-95100000D01*
G75*
G02*
X111525000Y-94975000I0J125000D01*
G01*
X111525000Y-94725000D01*
G75*
G02*
X111650000Y-94600000I125000J0D01*
G01*
X112350000Y-94600000D01*
G75*
G02*
X112475000Y-94725000I0J-125000D01*
G01*
X112475000Y-94975000D01*
G75*
G02*
X112350000Y-95100000I-125000J0D01*
G01*
G37*
G36*
G01*
X112350000Y-93400000D02*
X111650000Y-93400000D01*
G75*
G02*
X111525000Y-93275000I0J125000D01*
G01*
X111525000Y-93025000D01*
G75*
G02*
X111650000Y-92900000I125000J0D01*
G01*
X112350000Y-92900000D01*
G75*
G02*
X112475000Y-93025000I0J-125000D01*
G01*
X112475000Y-93275000D01*
G75*
G02*
X112350000Y-93400000I-125000J0D01*
G01*
G37*
D20*
X112000000Y-92730000D03*
D21*
X112000000Y-95270000D03*
%TD*%
M02*
