%TF.GenerationSoftware,KiCad,Pcbnew,(6.0.0-0)*%
%TF.CreationDate,2022-01-03T16:53:51+00:00*%
%TF.ProjectId,PN532,504e3533-322e-46b6-9963-61645f706362,7*%
%TF.SameCoordinates,Original*%
%TF.FileFunction,Legend,Top*%
%TF.FilePolarity,Positive*%
%FSLAX46Y46*%
G04 Gerber Fmt 4.6, Leading zero omitted, Abs format (unit mm)*
G04 Created by KiCad (PCBNEW (6.0.0-0)) date 2022-01-03 16:53:51*
%MOMM*%
%LPD*%
G01*
G04 APERTURE LIST*
%ADD10C,0.120000*%
%ADD11C,0.150000*%
%ADD12C,0.100000*%
%ADD13C,0.300000*%
G04 APERTURE END LIST*
D10*
X101749999Y-90250001D02*
G75*
G03*
X98250001Y-90250001I-1749999J-1750000D01*
G01*
X100316228Y-92825000D02*
G75*
G03*
X100316228Y-92825000I-316228J0D01*
G01*
X101250000Y-91400000D02*
G75*
G03*
X100250000Y-92400000I-1J-999999D01*
G01*
X101249999Y-90750001D02*
G75*
G03*
X98750001Y-90750001I-1249999J-1249997D01*
G01*
X101999999Y-90000001D02*
G75*
G03*
X98000001Y-90000001I-1999999J-1999998D01*
G01*
X99750000Y-92400000D02*
G75*
G03*
X98750000Y-91400000I-999999J1D01*
G01*
X101499999Y-90500001D02*
G75*
G03*
X98500001Y-90500001I-1499999J-1499999D01*
G01*
D11*
X89047619Y-97404761D02*
X89047619Y-97976190D01*
X88047619Y-97690476D02*
X89047619Y-97690476D01*
X88047619Y-98738095D02*
X88571428Y-98738095D01*
X88666666Y-98690476D01*
X88714285Y-98595238D01*
X88714285Y-98404761D01*
X88666666Y-98309523D01*
X88095238Y-98738095D02*
X88047619Y-98642857D01*
X88047619Y-98404761D01*
X88095238Y-98309523D01*
X88190476Y-98261904D01*
X88285714Y-98261904D01*
X88380952Y-98309523D01*
X88428571Y-98404761D01*
X88428571Y-98642857D01*
X88476190Y-98738095D01*
X88047619Y-99214285D02*
X88714285Y-99214285D01*
X88619047Y-99214285D02*
X88666666Y-99261904D01*
X88714285Y-99357142D01*
X88714285Y-99500000D01*
X88666666Y-99595238D01*
X88571428Y-99642857D01*
X88047619Y-99642857D01*
X88571428Y-99642857D02*
X88666666Y-99690476D01*
X88714285Y-99785714D01*
X88714285Y-99928571D01*
X88666666Y-100023809D01*
X88571428Y-100071428D01*
X88047619Y-100071428D01*
X88714285Y-100547619D02*
X87714285Y-100547619D01*
X88666666Y-100547619D02*
X88714285Y-100642857D01*
X88714285Y-100833333D01*
X88666666Y-100928571D01*
X88619047Y-100976190D01*
X88523809Y-101023809D01*
X88238095Y-101023809D01*
X88142857Y-100976190D01*
X88095238Y-100928571D01*
X88047619Y-100833333D01*
X88047619Y-100642857D01*
X88095238Y-100547619D01*
X88095238Y-101833333D02*
X88047619Y-101738095D01*
X88047619Y-101547619D01*
X88095238Y-101452380D01*
X88190476Y-101404761D01*
X88571428Y-101404761D01*
X88666666Y-101452380D01*
X88714285Y-101547619D01*
X88714285Y-101738095D01*
X88666666Y-101833333D01*
X88571428Y-101880952D01*
X88476190Y-101880952D01*
X88380952Y-101404761D01*
X88047619Y-102309523D02*
X88714285Y-102309523D01*
X88523809Y-102309523D02*
X88619047Y-102357142D01*
X88666666Y-102404761D01*
X88714285Y-102500000D01*
X88714285Y-102595238D01*
D12*
X95539761Y-104226190D02*
X95539761Y-103726190D01*
X95754047Y-103773809D02*
X95777857Y-103750000D01*
X95825476Y-103726190D01*
X95944523Y-103726190D01*
X95992142Y-103750000D01*
X96015952Y-103773809D01*
X96039761Y-103821428D01*
X96039761Y-103869047D01*
X96015952Y-103940476D01*
X95730238Y-104226190D01*
X96039761Y-104226190D01*
X96539761Y-104178571D02*
X96515952Y-104202380D01*
X96444523Y-104226190D01*
X96396904Y-104226190D01*
X96325476Y-104202380D01*
X96277857Y-104154761D01*
X96254047Y-104107142D01*
X96230238Y-104011904D01*
X96230238Y-103940476D01*
X96254047Y-103845238D01*
X96277857Y-103797619D01*
X96325476Y-103750000D01*
X96396904Y-103726190D01*
X96444523Y-103726190D01*
X96515952Y-103750000D01*
X96539761Y-103773809D01*
X92784047Y-104226190D02*
X92784047Y-103726190D01*
X92784047Y-103964285D02*
X93069761Y-103964285D01*
X93069761Y-104226190D02*
X93069761Y-103726190D01*
X93284047Y-104202380D02*
X93355476Y-104226190D01*
X93474523Y-104226190D01*
X93522142Y-104202380D01*
X93545952Y-104178571D01*
X93569761Y-104130952D01*
X93569761Y-104083333D01*
X93545952Y-104035714D01*
X93522142Y-104011904D01*
X93474523Y-103988095D01*
X93379285Y-103964285D01*
X93331666Y-103940476D01*
X93307857Y-103916666D01*
X93284047Y-103869047D01*
X93284047Y-103821428D01*
X93307857Y-103773809D01*
X93331666Y-103750000D01*
X93379285Y-103726190D01*
X93498333Y-103726190D01*
X93569761Y-103750000D01*
X93784047Y-103726190D02*
X93784047Y-104130952D01*
X93807857Y-104178571D01*
X93831666Y-104202380D01*
X93879285Y-104226190D01*
X93974523Y-104226190D01*
X94022142Y-104202380D01*
X94045952Y-104178571D01*
X94069761Y-104130952D01*
X94069761Y-103726190D01*
D11*
X101035714Y-111235595D02*
X101321428Y-111997500D01*
X101607142Y-111235595D01*
X103535714Y-111997500D02*
X103821428Y-111235595D01*
X104107142Y-111997500D01*
X96630952Y-111678571D02*
X95869047Y-111678571D01*
X99130952Y-111678571D02*
X98369047Y-111678571D01*
X98750000Y-111297619D02*
X98750000Y-112059523D01*
D13*
X106757380Y-82704761D02*
X106090714Y-81752380D01*
X105614523Y-82704761D02*
X105614523Y-80704761D01*
X106376428Y-80704761D01*
X106566904Y-80800000D01*
X106662142Y-80895238D01*
X106757380Y-81085714D01*
X106757380Y-81371428D01*
X106662142Y-81561904D01*
X106566904Y-81657142D01*
X106376428Y-81752380D01*
X105614523Y-81752380D01*
X108281190Y-81657142D02*
X107614523Y-81657142D01*
X107614523Y-82704761D02*
X107614523Y-80704761D01*
X108566904Y-80704761D01*
X109328809Y-82704761D02*
X109328809Y-80704761D01*
X110281190Y-82704761D02*
X110281190Y-80704761D01*
X110757380Y-80704761D01*
X111043095Y-80800000D01*
X111233571Y-80990476D01*
X111328809Y-81180952D01*
X111424047Y-81561904D01*
X111424047Y-81847619D01*
X111328809Y-82228571D01*
X111233571Y-82419047D01*
X111043095Y-82609523D01*
X110757380Y-82704761D01*
X110281190Y-82704761D01*
X88671190Y-82704761D02*
X88671190Y-80704761D01*
X89814047Y-82704761D01*
X89814047Y-80704761D01*
X91433095Y-81657142D02*
X90766428Y-81657142D01*
X90766428Y-82704761D02*
X90766428Y-80704761D01*
X91718809Y-80704761D01*
X93623571Y-82514285D02*
X93528333Y-82609523D01*
X93242619Y-82704761D01*
X93052142Y-82704761D01*
X92766428Y-82609523D01*
X92575952Y-82419047D01*
X92480714Y-82228571D01*
X92385476Y-81847619D01*
X92385476Y-81561904D01*
X92480714Y-81180952D01*
X92575952Y-80990476D01*
X92766428Y-80800000D01*
X93052142Y-80704761D01*
X93242619Y-80704761D01*
X93528333Y-80800000D01*
X93623571Y-80895238D01*
X87761904Y-119254761D02*
X87761904Y-117254761D01*
X88523809Y-117254761D01*
X88714285Y-117350000D01*
X88809523Y-117445238D01*
X88904761Y-117635714D01*
X88904761Y-117921428D01*
X88809523Y-118111904D01*
X88714285Y-118207142D01*
X88523809Y-118302380D01*
X87761904Y-118302380D01*
X89761904Y-119254761D02*
X89761904Y-117254761D01*
X90904761Y-119254761D01*
X90904761Y-117254761D01*
X92809523Y-117254761D02*
X91857142Y-117254761D01*
X91761904Y-118207142D01*
X91857142Y-118111904D01*
X92047619Y-118016666D01*
X92523809Y-118016666D01*
X92714285Y-118111904D01*
X92809523Y-118207142D01*
X92904761Y-118397619D01*
X92904761Y-118873809D01*
X92809523Y-119064285D01*
X92714285Y-119159523D01*
X92523809Y-119254761D01*
X92047619Y-119254761D01*
X91857142Y-119159523D01*
X91761904Y-119064285D01*
X93571428Y-117254761D02*
X94809523Y-117254761D01*
X94142857Y-118016666D01*
X94428571Y-118016666D01*
X94619047Y-118111904D01*
X94714285Y-118207142D01*
X94809523Y-118397619D01*
X94809523Y-118873809D01*
X94714285Y-119064285D01*
X94619047Y-119159523D01*
X94428571Y-119254761D01*
X93857142Y-119254761D01*
X93666666Y-119159523D01*
X93571428Y-119064285D01*
X95571428Y-117445238D02*
X95666666Y-117350000D01*
X95857142Y-117254761D01*
X96333333Y-117254761D01*
X96523809Y-117350000D01*
X96619047Y-117445238D01*
X96714285Y-117635714D01*
X96714285Y-117826190D01*
X96619047Y-118111904D01*
X95476190Y-119254761D01*
X96714285Y-119254761D01*
X99095238Y-119254761D02*
X99095238Y-117254761D01*
X99095238Y-118207142D02*
X100238095Y-118207142D01*
X100238095Y-119254761D02*
X100238095Y-117254761D01*
X101095238Y-119159523D02*
X101380952Y-119254761D01*
X101857142Y-119254761D01*
X102047619Y-119159523D01*
X102142857Y-119064285D01*
X102238095Y-118873809D01*
X102238095Y-118683333D01*
X102142857Y-118492857D01*
X102047619Y-118397619D01*
X101857142Y-118302380D01*
X101476190Y-118207142D01*
X101285714Y-118111904D01*
X101190476Y-118016666D01*
X101095238Y-117826190D01*
X101095238Y-117635714D01*
X101190476Y-117445238D01*
X101285714Y-117350000D01*
X101476190Y-117254761D01*
X101952380Y-117254761D01*
X102238095Y-117350000D01*
X103095238Y-117254761D02*
X103095238Y-118873809D01*
X103190476Y-119064285D01*
X103285714Y-119159523D01*
X103476190Y-119254761D01*
X103857142Y-119254761D01*
X104047619Y-119159523D01*
X104142857Y-119064285D01*
X104238095Y-118873809D01*
X104238095Y-117254761D01*
X106523809Y-117254761D02*
X107761904Y-117254761D01*
X107095238Y-118016666D01*
X107380952Y-118016666D01*
X107571428Y-118111904D01*
X107666666Y-118207142D01*
X107761904Y-118397619D01*
X107761904Y-118873809D01*
X107666666Y-119064285D01*
X107571428Y-119159523D01*
X107380952Y-119254761D01*
X106809523Y-119254761D01*
X106619047Y-119159523D01*
X106523809Y-119064285D01*
X108619047Y-119064285D02*
X108714285Y-119159523D01*
X108619047Y-119254761D01*
X108523809Y-119159523D01*
X108619047Y-119064285D01*
X108619047Y-119254761D01*
X109380952Y-117254761D02*
X110619047Y-117254761D01*
X109952380Y-118016666D01*
X110238095Y-118016666D01*
X110428571Y-118111904D01*
X110523809Y-118207142D01*
X110619047Y-118397619D01*
X110619047Y-118873809D01*
X110523809Y-119064285D01*
X110428571Y-119159523D01*
X110238095Y-119254761D01*
X109666666Y-119254761D01*
X109476190Y-119159523D01*
X109380952Y-119064285D01*
X111190476Y-117254761D02*
X111857142Y-119254761D01*
X112523809Y-117254761D01*
D11*
X96142857Y-115285714D02*
X96333333Y-115952380D01*
X96523809Y-115476190D01*
X96714285Y-115952380D01*
X96904761Y-115285714D01*
X97190476Y-115285714D02*
X97380952Y-115952380D01*
X97571428Y-115476190D01*
X97761904Y-115952380D01*
X97952380Y-115285714D01*
X98238095Y-115285714D02*
X98428571Y-115952380D01*
X98619047Y-115476190D01*
X98809523Y-115952380D01*
X99000000Y-115285714D01*
X99380952Y-115857142D02*
X99428571Y-115904761D01*
X99380952Y-115952380D01*
X99333333Y-115904761D01*
X99380952Y-115857142D01*
X99380952Y-115952380D01*
X99857142Y-115952380D02*
X99857142Y-115285714D01*
X99857142Y-115380952D02*
X99904761Y-115333333D01*
X100000000Y-115285714D01*
X100142857Y-115285714D01*
X100238095Y-115333333D01*
X100285714Y-115428571D01*
X100285714Y-115952380D01*
X100285714Y-115428571D02*
X100333333Y-115333333D01*
X100428571Y-115285714D01*
X100571428Y-115285714D01*
X100666666Y-115333333D01*
X100714285Y-115428571D01*
X100714285Y-115952380D01*
X101571428Y-115904761D02*
X101476190Y-115952380D01*
X101285714Y-115952380D01*
X101190476Y-115904761D01*
X101142857Y-115809523D01*
X101142857Y-115428571D01*
X101190476Y-115333333D01*
X101285714Y-115285714D01*
X101476190Y-115285714D01*
X101571428Y-115333333D01*
X101619047Y-115428571D01*
X101619047Y-115523809D01*
X101142857Y-115619047D01*
X102047619Y-115857142D02*
X102095238Y-115904761D01*
X102047619Y-115952380D01*
X102000000Y-115904761D01*
X102047619Y-115857142D01*
X102047619Y-115952380D01*
X102952380Y-115285714D02*
X102952380Y-115952380D01*
X102523809Y-115285714D02*
X102523809Y-115809523D01*
X102571428Y-115904761D01*
X102666666Y-115952380D01*
X102809523Y-115952380D01*
X102904761Y-115904761D01*
X102952380Y-115857142D01*
X103428571Y-115952380D02*
X103428571Y-114952380D01*
X103523809Y-115571428D02*
X103809523Y-115952380D01*
X103809523Y-115285714D02*
X103428571Y-115666666D01*
%TO.C,J2*%
X95035714Y-109352380D02*
X94464285Y-109352380D01*
X94750000Y-109352380D02*
X94750000Y-108352380D01*
X94654761Y-108495238D01*
X94559523Y-108590476D01*
X94464285Y-108638095D01*
D10*
%TO.C,D2*%
X111500000Y-95200000D02*
X112500000Y-95200000D01*
X112900000Y-95600000D02*
X112900000Y-92400000D01*
X111100000Y-95600000D02*
X111100000Y-92400000D01*
%TO.C,D3*%
X111500000Y-89200000D02*
X112500000Y-89200000D01*
X112900000Y-89600000D02*
X112900000Y-86400000D01*
X111100000Y-89600000D02*
X111100000Y-86400000D01*
%TO.C,SW1*%
X85270000Y-103230000D02*
X85300000Y-103230000D01*
X91730000Y-103230000D02*
X91700000Y-103230000D01*
X85270000Y-96770000D02*
X85300000Y-96770000D01*
X91700000Y-96770000D02*
X91730000Y-96770000D01*
X91730000Y-96770000D02*
X91730000Y-103230000D01*
X89800000Y-96770000D02*
X87200000Y-96770000D01*
X85270000Y-96770000D02*
X85270000Y-103230000D01*
X89800000Y-103230000D02*
X87200000Y-103230000D01*
%TO.C,D1*%
X111500000Y-101200000D02*
X112500000Y-101200000D01*
X112900000Y-101600000D02*
X112900000Y-98400000D01*
X111100000Y-101600000D02*
X111100000Y-98400000D01*
%TO.C,C7*%
X101075000Y-95850000D02*
X101675000Y-95850000D01*
X101075000Y-94850000D02*
X101675000Y-94850000D01*
%TO.C,C3*%
X104300000Y-87825000D02*
X104300000Y-87225000D01*
X103300000Y-87825000D02*
X103300000Y-87225000D01*
%TO.C,C5*%
X101400000Y-88775000D02*
X102000000Y-88775000D01*
X101400000Y-87775000D02*
X102000000Y-87775000D01*
%TO.C,R6*%
X108700000Y-95300000D02*
X109300000Y-95300000D01*
X108700000Y-96300000D02*
X109300000Y-96300000D01*
%TO.C,R4*%
X93600000Y-87775000D02*
X94200000Y-87775000D01*
X93600000Y-88775000D02*
X94200000Y-88775000D01*
%TO.C,C13*%
X105650000Y-99300000D02*
X105650000Y-99900000D01*
X106650000Y-99300000D02*
X106650000Y-99900000D01*
%TO.C,C14*%
X105100000Y-97800000D02*
X105700000Y-97800000D01*
X105100000Y-96800000D02*
X105700000Y-96800000D01*
%TO.C,C9*%
X93575000Y-95250000D02*
X94175000Y-95250000D01*
X93575000Y-94250000D02*
X94175000Y-94250000D01*
%TO.C,C16*%
X93575000Y-98000000D02*
X94175000Y-98000000D01*
X93575000Y-97000000D02*
X94175000Y-97000000D01*
%TO.C,R9*%
X108700000Y-99800000D02*
X109300000Y-99800000D01*
X108700000Y-100800000D02*
X109300000Y-100800000D01*
%TO.C,R8*%
X108700000Y-101300000D02*
X109300000Y-101300000D01*
X108700000Y-102300000D02*
X109300000Y-102300000D01*
%TO.C,R11*%
X98800000Y-105450000D02*
X98800000Y-104850000D01*
X99800000Y-105450000D02*
X99800000Y-104850000D01*
%TO.C,U1*%
X96890000Y-102635000D02*
X96890000Y-103110000D01*
X103110000Y-97365000D02*
X103110000Y-96890000D01*
X96890000Y-97365000D02*
X96890000Y-96890000D01*
X103110000Y-103110000D02*
X102635000Y-103110000D01*
X103110000Y-102635000D02*
X103110000Y-103110000D01*
X96890000Y-96890000D02*
X97365000Y-96890000D01*
X96890000Y-103110000D02*
X97365000Y-103110000D01*
%TO.C,C17*%
X94175000Y-102000000D02*
X93575000Y-102000000D01*
X94175000Y-103000000D02*
X93575000Y-103000000D01*
%TO.C,C12*%
X98925000Y-93350000D02*
X98325000Y-93350000D01*
X98925000Y-94350000D02*
X98325000Y-94350000D01*
%TO.C,R5*%
X93600000Y-92550000D02*
X93600000Y-93150000D01*
X92600000Y-92550000D02*
X92600000Y-93150000D01*
%TO.C,R7*%
X108700000Y-96800000D02*
X109300000Y-96800000D01*
X108700000Y-97800000D02*
X109300000Y-97800000D01*
%TO.C,R10*%
X108700000Y-98300000D02*
X109300000Y-98300000D01*
X108700000Y-99300000D02*
X109300000Y-99300000D01*
%TO.C,C18*%
X98200000Y-105450000D02*
X98200000Y-104850000D01*
X97200000Y-105450000D02*
X97200000Y-104850000D01*
%TO.C,C11*%
X104150000Y-99300000D02*
X104150000Y-99900000D01*
X105150000Y-99300000D02*
X105150000Y-99900000D01*
%TO.C,C8*%
X93600000Y-90500000D02*
X93600000Y-89900000D01*
X92600000Y-90500000D02*
X92600000Y-89900000D01*
%TO.C,C10*%
X101075000Y-94350000D02*
X101675000Y-94350000D01*
X101075000Y-93350000D02*
X101675000Y-93350000D01*
%TO.C,C1*%
X102000000Y-85400000D02*
X101400000Y-85400000D01*
X102000000Y-86400000D02*
X101400000Y-86400000D01*
X102000000Y-86600000D02*
X101400000Y-86600000D01*
X102000000Y-87600000D02*
X101400000Y-87600000D01*
%TO.C,C6*%
X98600000Y-87775000D02*
X98000000Y-87775000D01*
X98600000Y-88775000D02*
X98000000Y-88775000D01*
%TO.C,R15*%
X105100000Y-105450000D02*
X105100000Y-104850000D01*
X106100000Y-105450000D02*
X106100000Y-104850000D01*
%TO.C,JP1*%
X92600000Y-105700000D02*
X92600000Y-105100000D01*
X96050000Y-106400000D02*
X93250000Y-106400000D01*
X96700000Y-105100000D02*
X96700000Y-105700000D01*
X93250000Y-104400000D02*
X96050000Y-104400000D01*
X96700000Y-105100000D02*
G75*
G03*
X96000000Y-104400000I-700000J0D01*
G01*
X96000000Y-106400000D02*
G75*
G03*
X96700000Y-105700000I0J700000D01*
G01*
X92600000Y-105700000D02*
G75*
G03*
X93300000Y-106400000I700000J0D01*
G01*
X93300000Y-104400000D02*
G75*
G03*
X92600000Y-105100000I0J-700000D01*
G01*
%TO.C,R13*%
X101350000Y-105400000D02*
X101950000Y-105400000D01*
X101350000Y-106400000D02*
X101950000Y-106400000D01*
%TO.C,C15*%
X93575000Y-96600000D02*
X94175000Y-96600000D01*
X93575000Y-95600000D02*
X94175000Y-95600000D01*
%TO.C,R14*%
X101950000Y-104900000D02*
X101350000Y-104900000D01*
X101950000Y-103900000D02*
X101350000Y-103900000D01*
%TO.C,L1*%
X101740156Y-90671366D02*
X102921366Y-89490156D01*
X103578634Y-92509844D02*
X104759844Y-91328634D01*
%TO.C,L2*%
X97078634Y-89490156D02*
X98259844Y-90671366D01*
X95240156Y-91328634D02*
X96421366Y-92509844D01*
%TO.C,C4*%
X95700000Y-87225000D02*
X95700000Y-87825000D01*
X96700000Y-87225000D02*
X96700000Y-87825000D01*
%TO.C,R12*%
X104500000Y-104850000D02*
X104500000Y-105450000D01*
X103500000Y-104850000D02*
X103500000Y-105450000D01*
%TO.C,D5*%
X109700000Y-92740000D02*
X107800000Y-92740000D01*
X108300000Y-95060000D02*
X109700000Y-95060000D01*
%TO.C,C19*%
X108700000Y-108700000D02*
X109300000Y-108700000D01*
X108700000Y-107700000D02*
X109300000Y-107700000D01*
%TO.C,D4*%
X109700000Y-102540000D02*
X107800000Y-102540000D01*
X108300000Y-104860000D02*
X109700000Y-104860000D01*
%TO.C,D6*%
X108300000Y-107460000D02*
X110200000Y-107460000D01*
X109700000Y-105140000D02*
X108300000Y-105140000D01*
%TO.C,A1*%
X112000000Y-116500000D02*
X88000000Y-116500000D01*
X100750000Y-82500000D02*
X100750000Y-81500000D01*
X101500000Y-83700000D02*
X101500000Y-84300000D01*
X97500000Y-83700000D02*
X97500000Y-84300000D01*
X98500000Y-83700000D02*
X98500000Y-84300000D01*
X83500000Y-112000000D02*
X83500000Y-88000000D01*
X116500000Y-88000000D02*
X116500000Y-112000000D01*
X99250000Y-82500000D02*
X99250000Y-81500000D01*
X102500000Y-83700000D02*
X102500000Y-84300000D01*
X88000000Y-83500000D02*
X112000000Y-83500000D01*
X116500000Y-88000000D02*
G75*
G03*
X112000000Y-83500000I-4499998J2D01*
G01*
X83500000Y-112000000D02*
G75*
G03*
X88000000Y-116500000I4499998J-2D01*
G01*
X88000000Y-83500000D02*
G75*
G03*
X83500000Y-88000000I-2J-4499998D01*
G01*
X112000000Y-116500000D02*
G75*
G03*
X116500000Y-112000000I2J4499998D01*
G01*
%TO.C,C2*%
X98600000Y-85400000D02*
X98000000Y-85400000D01*
X98600000Y-86400000D02*
X98000000Y-86400000D01*
X98600000Y-86600000D02*
X98000000Y-86600000D01*
X98600000Y-87600000D02*
X98000000Y-87600000D01*
%TD*%
M02*
