M48
; DRILL file {KiCad (5.1.9-0-10_14)} date Saturday, April 24, 2021 at 08:39:15 AM
; FORMAT={-:-/ absolute / inch / decimal}
; #@! TF.CreationDate,2021-04-24T08:39:15+01:00
; #@! TF.GenerationSoftware,Kicad,Pcbnew,(5.1.9-0-10_14)
; #@! TF.FileFunction,Plated,1,2,PTH
FMAT,2
INCH
T1C0.0098
T2C0.0157
T3C0.0197
T4C0.0300
T5C0.0335
T6C0.0354
T7C0.0394
T8C0.0433
T9C0.1260
%
G90
G05
T1
X1.9685Y-1.5354
X2.0866Y-1.6142
X3.4252Y-1.4567
X3.4252Y-1.6929
X3.5039Y-1.5748
T2
X2.4764Y-1.815
X2.7047Y-1.2756
X2.7874Y-1.2766
X2.8031Y-1.8031
X2.8858Y-1.8031
X2.9616Y-1.8031
X2.9803Y-1.122
X3.0433Y-1.8031
X3.0512Y-1.3583
X3.0591Y-1.0472
X3.1083Y-1.4113
X3.1267Y-1.7558
X3.1368Y-1.3552
X3.2126Y-1.6142
X3.2904Y-1.2913
X3.2904Y-1.8583
X3.3701Y-1.5748
T3
X2.9341Y-1.5049
X2.9341Y-1.623
X2.9931Y-1.564
X3.0522Y-1.5049
X3.0522Y-1.623
T4
X2.7165Y-1.5354
X2.7165Y-1.6142
X2.7953Y-1.5354
X2.7953Y-1.6142
T5
X2.6083Y-1.9252
X2.7067Y-1.9252
X2.8051Y-1.9252
X2.9035Y-1.9252
T6
X2.2335Y-1.1024
X2.2335Y-1.3386
X2.2335Y-1.5748
X2.3335Y-1.1024
X2.3335Y-1.3386
X2.3335Y-1.5748
T7
X2.6059Y-2.0472
X2.7059Y-1.1024
X2.7059Y-2.0472
X2.8059Y-1.1024
X2.8059Y-2.0472
X2.9059Y-2.0472
T8
X2.628Y-1.0138
X2.628Y-1.1909
X2.8839Y-1.0138
X2.8839Y-1.1909
T9
X2.2835Y-2.0472
X3.2283Y-1.1024
T0
M30
