%TF.GenerationSoftware,KiCad,Pcbnew,(6.0.0-0)*%
%TF.CreationDate,2022-01-03T17:19:55+00:00*%
%TF.ProjectId,PN532,504e3533-322e-46b6-9963-61645f706362,7*%
%TF.SameCoordinates,Original*%
%TF.FileFunction,Soldermask,Top*%
%TF.FilePolarity,Negative*%
%FSLAX46Y46*%
G04 Gerber Fmt 4.6, Leading zero omitted, Abs format (unit mm)*
G04 Created by KiCad (PCBNEW (6.0.0-0)) date 2022-01-03 17:19:55*
%MOMM*%
%LPD*%
G01*
G04 APERTURE LIST*
G04 Aperture macros list*
%AMRoundRect*
0 Rectangle with rounded corners*
0 $1 Rounding radius*
0 $2 $3 $4 $5 $6 $7 $8 $9 X,Y pos of 4 corners*
0 Add a 4 corners polygon primitive as box body*
4,1,4,$2,$3,$4,$5,$6,$7,$8,$9,$2,$3,0*
0 Add four circle primitives for the rounded corners*
1,1,$1+$1,$2,$3*
1,1,$1+$1,$4,$5*
1,1,$1+$1,$6,$7*
1,1,$1+$1,$8,$9*
0 Add four rect primitives between the rounded corners*
20,1,$1+$1,$2,$3,$4,$5,0*
20,1,$1+$1,$4,$5,$6,$7,0*
20,1,$1+$1,$6,$7,$8,$9,0*
20,1,$1+$1,$8,$9,$2,$3,0*%
%AMFreePoly0*
4,1,6,2.200000,-2.200000,-2.200000,-2.200000,-2.200000,1.800000,-1.800000,2.200000,2.200000,2.200000,2.200000,-2.200000,2.200000,-2.200000,$1*%
%AMFreePoly1*
4,1,22,0.550000,-0.750000,0.000000,-0.750000,0.000000,-0.745033,-0.079941,-0.743568,-0.215256,-0.701293,-0.333266,-0.622738,-0.424486,-0.514219,-0.481581,-0.384460,-0.499164,-0.250000,-0.500000,-0.250000,-0.500000,0.250000,-0.499164,0.250000,-0.499963,0.256109,-0.478152,0.396186,-0.417904,0.524511,-0.324060,0.630769,-0.204165,0.706417,-0.067858,0.745374,0.000000,0.744959,0.000000,0.750000,
0.550000,0.750000,0.550000,-0.750000,0.550000,-0.750000,$1*%
%AMFreePoly2*
4,1,20,0.000000,0.744959,0.073905,0.744508,0.209726,0.703889,0.328688,0.626782,0.421226,0.519385,0.479903,0.390333,0.500000,0.250000,0.500000,-0.250000,0.499851,-0.262216,0.476331,-0.402017,0.414519,-0.529596,0.319384,-0.634700,0.198574,-0.708877,0.061801,-0.746166,0.000000,-0.745033,0.000000,-0.750000,-0.550000,-0.750000,-0.550000,0.750000,0.000000,0.750000,0.000000,0.744959,
0.000000,0.744959,$1*%
G04 Aperture macros list end*
%ADD10C,0.450000*%
%ADD11R,1.150000X1.900000*%
%ADD12C,3.200000*%
%ADD13C,2.000000*%
%ADD14RoundRect,0.250000X0.550000X-0.250000X0.550000X0.250000X-0.550000X0.250000X-0.550000X-0.250000X0*%
%ADD15R,1.300000X2.000000*%
%ADD16RoundRect,0.225000X-0.225000X-0.250000X0.225000X-0.250000X0.225000X0.250000X-0.225000X0.250000X0*%
%ADD17RoundRect,0.225000X0.250000X-0.225000X0.250000X0.225000X-0.250000X0.225000X-0.250000X-0.225000X0*%
%ADD18RoundRect,0.200000X-0.200000X-0.275000X0.200000X-0.275000X0.200000X0.275000X-0.200000X0.275000X0*%
%ADD19RoundRect,0.225000X-0.250000X0.225000X-0.250000X-0.225000X0.250000X-0.225000X0.250000X0.225000X0*%
%ADD20RoundRect,0.200000X0.275000X-0.200000X0.275000X0.200000X-0.275000X0.200000X-0.275000X-0.200000X0*%
%ADD21RoundRect,0.062500X-0.062500X0.287500X-0.062500X-0.287500X0.062500X-0.287500X0.062500X0.287500X0*%
%ADD22RoundRect,0.062500X-0.287500X0.062500X-0.287500X-0.062500X0.287500X-0.062500X0.287500X0.062500X0*%
%ADD23C,0.350000*%
%ADD24FreePoly0,270.000000*%
%ADD25RoundRect,0.225000X0.225000X0.250000X-0.225000X0.250000X-0.225000X-0.250000X0.225000X-0.250000X0*%
%ADD26R,1.700000X1.700000*%
%ADD27O,1.700000X1.700000*%
%ADD28RoundRect,0.200000X-0.275000X0.200000X-0.275000X-0.200000X0.275000X-0.200000X0.275000X0.200000X0*%
%ADD29RoundRect,0.250000X-0.600000X-0.675000X0.600000X-0.675000X0.600000X0.675000X-0.600000X0.675000X0*%
%ADD30O,1.700000X1.850000*%
%ADD31C,1.200000*%
%ADD32FreePoly1,0.000000*%
%ADD33R,1.000000X1.500000*%
%ADD34FreePoly2,0.000000*%
%ADD35RoundRect,0.200000X0.200000X0.275000X-0.200000X0.275000X-0.200000X-0.275000X0.200000X-0.275000X0*%
%ADD36RoundRect,0.166600X0.636396X-0.895763X0.895763X-0.636396X-0.636396X0.895763X-0.895763X0.636396X0*%
%ADD37RoundRect,0.242760X0.321734X-0.699668X0.699668X-0.321734X-0.321734X0.699668X-0.699668X0.321734X0*%
%ADD38RoundRect,0.166600X-0.895763X-0.636396X-0.636396X-0.895763X0.895763X0.636396X0.636396X0.895763X0*%
%ADD39RoundRect,0.242760X-0.699668X-0.321734X-0.321734X-0.699668X0.699668X0.321734X0.321734X0.699668X0*%
%ADD40R,0.650000X0.400000*%
%ADD41R,1.500000X0.500000*%
G04 APERTURE END LIST*
%TO.C,U2*%
G36*
X92300000Y-113500000D02*
G01*
X86500000Y-113500000D01*
X86500000Y-107700000D01*
X92300000Y-107700000D01*
X92300000Y-113500000D01*
G37*
D10*
%TO.C,AJK1*%
X89100000Y-92200000D02*
X90900000Y-94300000D01*
X89100000Y-90100000D02*
X86100000Y-94300000D01*
X89100000Y-92200000D02*
X87600000Y-92200000D01*
X89100000Y-90100000D02*
X89100000Y-94300000D01*
X90900000Y-90200000D02*
X89100000Y-92200000D01*
X87600000Y-94300000D02*
G75*
G03*
X89100000Y-94300000I750000J0D01*
G01*
%TD*%
D11*
%TO.C,Y1*%
X93075000Y-98650000D03*
X93075000Y-101350000D03*
X94675000Y-101350000D03*
X94675000Y-98650000D03*
%TD*%
D12*
%TO.C,H2*%
X88000000Y-88000000D03*
%TD*%
%TO.C,H1*%
X112000000Y-112000000D03*
%TD*%
D13*
%TO.C,D2*%
X112000000Y-94000000D03*
D14*
X112000000Y-95800000D03*
X112000000Y-92200000D03*
%TD*%
D13*
%TO.C,D3*%
X112000000Y-88000000D03*
D14*
X112000000Y-89800000D03*
X112000000Y-86200000D03*
%TD*%
D15*
%TO.C,SW1*%
X86250000Y-95800000D03*
X90750000Y-95800000D03*
X90750000Y-104200000D03*
X86250000Y-104200000D03*
%TD*%
D13*
%TO.C,D1*%
X112000000Y-100000000D03*
D14*
X112000000Y-101800000D03*
X112000000Y-98200000D03*
%TD*%
D16*
%TO.C,C7*%
X100600000Y-95200000D03*
X102150000Y-95200000D03*
%TD*%
D17*
%TO.C,C3*%
X103800000Y-88300000D03*
X103800000Y-86750000D03*
%TD*%
D16*
%TO.C,C5*%
X100925000Y-88275000D03*
X102475000Y-88275000D03*
%TD*%
D18*
%TO.C,R6*%
X108175000Y-95800000D03*
X109825000Y-95800000D03*
%TD*%
%TO.C,R4*%
X93075000Y-88275000D03*
X94725000Y-88275000D03*
%TD*%
D19*
%TO.C,C13*%
X106150000Y-98825000D03*
X106150000Y-100375000D03*
%TD*%
D16*
%TO.C,C14*%
X104625000Y-97300000D03*
X106175000Y-97300000D03*
%TD*%
%TO.C,C9*%
X93100000Y-94750000D03*
X94650000Y-94750000D03*
%TD*%
%TO.C,C16*%
X93100000Y-97500000D03*
X94650000Y-97500000D03*
%TD*%
D18*
%TO.C,R9*%
X108175000Y-100300000D03*
X109825000Y-100300000D03*
%TD*%
%TO.C,R8*%
X108175000Y-101800000D03*
X109825000Y-101800000D03*
%TD*%
D20*
%TO.C,R11*%
X99300000Y-105975000D03*
X99300000Y-104325000D03*
%TD*%
D21*
%TO.C,U1*%
X102250000Y-97100000D03*
X101750000Y-97100000D03*
X101250000Y-97100000D03*
X100750000Y-97100000D03*
X100250000Y-97100000D03*
X99750000Y-97100000D03*
X99250000Y-97100000D03*
X98750000Y-97100000D03*
X98250000Y-97100000D03*
X97750000Y-97100000D03*
D22*
X97100000Y-97750000D03*
X97100000Y-98250000D03*
X97100000Y-98750000D03*
X97100000Y-99250000D03*
X97100000Y-99750000D03*
X97100000Y-100250000D03*
X97100000Y-100750000D03*
X97100000Y-101250000D03*
X97100000Y-101750000D03*
X97100000Y-102250000D03*
D21*
X97750000Y-102900000D03*
X98250000Y-102900000D03*
X98750000Y-102900000D03*
X99250000Y-102900000D03*
X99750000Y-102900000D03*
X100250000Y-102900000D03*
X100750000Y-102900000D03*
X101250000Y-102900000D03*
X101750000Y-102900000D03*
X102250000Y-102900000D03*
D22*
X102900000Y-102250000D03*
X102900000Y-101750000D03*
X102900000Y-101250000D03*
X102900000Y-100750000D03*
X102900000Y-100250000D03*
X102900000Y-99750000D03*
X102900000Y-99250000D03*
X102900000Y-98750000D03*
X102900000Y-98250000D03*
X102900000Y-97750000D03*
D23*
X101000000Y-99000000D03*
X99000000Y-101000000D03*
X101000000Y-101000000D03*
X100000000Y-100000000D03*
D24*
X100000000Y-100000000D03*
D23*
X99000000Y-99000000D03*
%TD*%
D25*
%TO.C,C17*%
X94650000Y-102500000D03*
X93100000Y-102500000D03*
%TD*%
D26*
%TO.C,J1*%
X112000000Y-107270000D03*
D27*
X112000000Y-104730000D03*
%TD*%
D25*
%TO.C,C12*%
X99400000Y-93850000D03*
X97850000Y-93850000D03*
%TD*%
D28*
%TO.C,R5*%
X93100000Y-92025000D03*
X93100000Y-93675000D03*
%TD*%
D18*
%TO.C,R7*%
X108175000Y-97300000D03*
X109825000Y-97300000D03*
%TD*%
%TO.C,R10*%
X108175000Y-98800000D03*
X109825000Y-98800000D03*
%TD*%
D17*
%TO.C,C18*%
X97700000Y-105925000D03*
X97700000Y-104375000D03*
%TD*%
D19*
%TO.C,C11*%
X104650000Y-98825000D03*
X104650000Y-100375000D03*
%TD*%
D17*
%TO.C,C8*%
X93100000Y-90975000D03*
X93100000Y-89425000D03*
%TD*%
D29*
%TO.C,J2*%
X96250000Y-108900000D03*
D30*
X98750000Y-108900000D03*
X101250000Y-108900000D03*
X103750000Y-108900000D03*
%TD*%
D16*
%TO.C,C10*%
X100600000Y-93850000D03*
X102150000Y-93850000D03*
%TD*%
D25*
%TO.C,C1*%
X102475000Y-85900000D03*
X102475000Y-87100000D03*
X100925000Y-87100000D03*
X100925000Y-85900000D03*
%TD*%
%TO.C,C6*%
X99075000Y-88275000D03*
X97525000Y-88275000D03*
%TD*%
D20*
%TO.C,R15*%
X105600000Y-105975000D03*
X105600000Y-104325000D03*
%TD*%
D31*
%TO.C,TP1*%
X101250000Y-92400000D03*
X98750000Y-92400000D03*
%TD*%
D32*
%TO.C,JP1*%
X93350000Y-105400000D03*
D33*
X94650000Y-105400000D03*
D34*
X95950000Y-105400000D03*
%TD*%
D18*
%TO.C,R13*%
X100825000Y-105900000D03*
X102475000Y-105900000D03*
%TD*%
D16*
%TO.C,C15*%
X93100000Y-96100000D03*
X94650000Y-96100000D03*
%TD*%
D35*
%TO.C,R14*%
X102475000Y-104400000D03*
X100825000Y-104400000D03*
%TD*%
D36*
%TO.C,L1*%
X102542893Y-91707107D03*
D37*
X102260051Y-91989949D03*
D36*
X103957107Y-90292893D03*
D37*
X104239949Y-90010051D03*
%TD*%
D38*
%TO.C,L2*%
X96042893Y-90292893D03*
D39*
X95760051Y-90010051D03*
X97739949Y-91989949D03*
D38*
X97457107Y-91707107D03*
%TD*%
D19*
%TO.C,C4*%
X96200000Y-86750000D03*
X96200000Y-88300000D03*
%TD*%
D28*
%TO.C,R12*%
X104000000Y-104325000D03*
X104000000Y-105975000D03*
%TD*%
D40*
%TO.C,D5*%
X108050000Y-93250000D03*
X108050000Y-93900000D03*
X108050000Y-94550000D03*
X109950000Y-94550000D03*
X109950000Y-93900000D03*
X109950000Y-93250000D03*
%TD*%
D16*
%TO.C,C19*%
X108225000Y-108200000D03*
X109775000Y-108200000D03*
%TD*%
D40*
%TO.C,D4*%
X108050000Y-103050000D03*
X108050000Y-103700000D03*
X108050000Y-104350000D03*
X109950000Y-104350000D03*
X109950000Y-103700000D03*
X109950000Y-103050000D03*
%TD*%
%TO.C,D6*%
X109950000Y-106950000D03*
X109950000Y-106300000D03*
X109950000Y-105650000D03*
X108050000Y-105650000D03*
X108050000Y-106300000D03*
X108050000Y-106950000D03*
%TD*%
D41*
%TO.C,A1*%
X100000000Y-81000000D03*
D28*
X102000000Y-83150000D03*
X98000000Y-83150000D03*
X102000000Y-84850000D03*
D41*
X100000000Y-83000000D03*
D28*
X98000000Y-84850000D03*
%TD*%
D25*
%TO.C,C2*%
X99075000Y-87100000D03*
X99075000Y-85900000D03*
X97525000Y-87100000D03*
X97525000Y-85900000D03*
%TD*%
M02*
