%TF.GenerationSoftware,KiCad,Pcbnew,(6.0.0-0)*%
%TF.CreationDate,2021-12-30T11:04:56+00:00*%
%TF.ProjectId,PN532,504e3533-322e-46b6-9963-61645f706362,7*%
%TF.SameCoordinates,Original*%
%TF.FileFunction,Copper,L1,Top*%
%TF.FilePolarity,Positive*%
%FSLAX46Y46*%
G04 Gerber Fmt 4.6, Leading zero omitted, Abs format (unit mm)*
G04 Created by KiCad (PCBNEW (6.0.0-0)) date 2021-12-30 11:04:56*
%MOMM*%
%LPD*%
G01*
G04 APERTURE LIST*
G04 Aperture macros list*
%AMRoundRect*
0 Rectangle with rounded corners*
0 $1 Rounding radius*
0 $2 $3 $4 $5 $6 $7 $8 $9 X,Y pos of 4 corners*
0 Add a 4 corners polygon primitive as box body*
4,1,4,$2,$3,$4,$5,$6,$7,$8,$9,$2,$3,0*
0 Add four circle primitives for the rounded corners*
1,1,$1+$1,$2,$3*
1,1,$1+$1,$4,$5*
1,1,$1+$1,$6,$7*
1,1,$1+$1,$8,$9*
0 Add four rect primitives between the rounded corners*
20,1,$1+$1,$2,$3,$4,$5,0*
20,1,$1+$1,$4,$5,$6,$7,0*
20,1,$1+$1,$6,$7,$8,$9,0*
20,1,$1+$1,$8,$9,$2,$3,0*%
%AMFreePoly0*
4,1,6,2.200000,-2.200000,-2.200000,-2.200000,-2.200000,1.800000,-1.800000,2.200000,2.200000,2.200000,2.200000,-2.200000,2.200000,-2.200000,$1*%
%AMFreePoly1*
4,1,20,0.000000,0.744959,0.073905,0.744508,0.209726,0.703889,0.328688,0.626782,0.421226,0.519385,0.479903,0.390333,0.500000,0.250000,0.500000,-0.250000,0.499851,-0.262216,0.476331,-0.402017,0.414519,-0.529596,0.319384,-0.634700,0.198574,-0.708877,0.061801,-0.746166,0.000000,-0.745033,0.000000,-0.750000,-0.550000,-0.750000,-0.550000,0.750000,0.000000,0.750000,0.000000,0.744959,
0.000000,0.744959,$1*%
%AMFreePoly2*
4,1,22,0.550000,-0.750000,0.000000,-0.750000,0.000000,-0.745033,-0.079941,-0.743568,-0.215256,-0.701293,-0.333266,-0.622738,-0.424486,-0.514219,-0.481581,-0.384460,-0.499164,-0.250000,-0.500000,-0.250000,-0.500000,0.250000,-0.499164,0.250000,-0.499963,0.256109,-0.478152,0.396186,-0.417904,0.524511,-0.324060,0.630769,-0.204165,0.706417,-0.067858,0.745374,0.000000,0.744959,0.000000,0.750000,
0.550000,0.750000,0.550000,-0.750000,0.550000,-0.750000,$1*%
%AMFreePoly3*
4,1,396,-4.978199,16.745664,-4.956367,16.749848,-4.491508,16.729281,-4.029468,16.674186,-3.572807,16.584868,-3.124057,16.461823,-2.685704,16.305733,-2.260180,16.117463,-1.849842,15.898056,-1.456965,15.648728,-1.083726,15.370862,-0.732194,15.065998,-0.404319,14.735825,-0.101916,14.382173,0.173338,14.007004,0.419916,13.612396,0.636453,13.200536,0.821748,12.773707,0.974775,12.334276,1.094683,11.884678,
1.180811,11.427405,1.232679,10.964991,1.250000,10.500000,1.250000,-14.500002,1.232524,-14.967065,1.180193,-15.431516,1.093299,-15.890758,0.972330,-16.342222,0.817961,-16.783383,0.631055,-17.211775,0.412658,-17.625001,0.163992,-18.020752,-0.113554,-18.396812,-0.418426,-18.751081,-0.748921,-19.081575,-1.103189,-19.386448,-1.479250,-19.663993,-1.875000,-19.912659,-2.288227,-20.131056,-2.716619,-20.317961,
-3.157780,-20.472330,-3.609244,-20.593300,-4.068486,-20.680193,-4.532937,-20.732524,-5.000000,-20.750000,-29.000002,-20.750000,-29.467065,-20.732524,-29.931516,-20.680193,-30.390758,-20.593299,-30.842222,-20.472330,-31.283383,-20.317961,-31.711775,-20.131055,-32.125001,-19.912658,-32.520752,-19.663992,-32.896812,-19.386446,-33.251081,-19.081574,-33.581575,-18.751079,-33.886448,-18.396811,-34.163993,-18.020750,-34.412659,-17.625000,
-34.631056,-17.211773,-34.817961,-16.783381,-34.972330,-16.342220,-35.093300,-15.890756,-35.180193,-15.431514,-35.232524,-14.967063,-35.250000,-14.500000,-35.250000,9.500002,-35.232524,9.967065,-35.180193,10.431516,-35.093299,10.890758,-34.972330,11.342222,-34.817961,11.783383,-34.631055,12.211775,-34.412658,12.625001,-34.163992,13.020752,-33.886446,13.396812,-33.581574,13.751081,-33.251079,14.081575,-32.896811,14.386448,
-32.520750,14.663993,-32.125000,14.912659,-31.711773,15.131056,-31.283381,15.317961,-30.842220,15.472330,-30.390756,15.593300,-29.931514,15.680193,-29.467063,15.732524,-29.000000,15.750000,-5.000000,15.750000,-4.566458,15.732069,-4.135878,15.678397,-3.711201,15.589351,-3.295328,15.465541,-2.891099,15.307810,-2.501276,15.117237,-2.128522,14.895124,-1.775383,14.642988,-1.444272,14.362551,-1.137449,14.055728,
-0.857012,13.724617,-0.604876,13.371478,-0.382763,12.998724,-0.192190,12.608901,-0.034459,12.204672,0.089351,11.788799,0.178397,11.364122,0.232069,10.933542,0.250000,10.500000,0.250000,-0.600000,-0.250000,-0.600000,-0.250000,10.500000,-0.246289,10.518656,-0.263567,10.914384,-0.317707,11.325615,-0.407482,11.730562,-0.532208,12.126143,-0.690937,12.509349,-0.882461,12.877263,-1.105321,13.227084,
-1.357823,13.556150,-1.638043,13.861957,-1.943850,14.142177,-2.272916,14.394679,-2.622738,14.617539,-2.990651,14.809063,-3.373857,14.967792,-3.769438,15.092518,-4.174385,15.182293,-4.585616,15.236433,-4.981344,15.253711,-5.000000,15.250000,-29.000000,15.250000,-29.018623,15.253704,-29.451488,15.236697,-29.900192,15.183590,-30.343346,15.095441,-30.778218,14.972794,-31.202127,14.816406,-31.612459,14.627241,
-32.006684,14.406464,-32.382372,14.155437,-32.737207,13.875708,-33.069000,13.569002,-33.375707,13.237208,-33.655436,12.882374,-33.906463,12.506686,-34.127240,12.112461,-34.316405,11.702129,-34.472794,11.278220,-34.595440,10.843348,-34.683589,10.400194,-34.736697,9.951490,-34.753704,9.518625,-34.750000,9.500002,-34.750000,-14.500000,-34.753704,-14.518623,-34.736697,-14.951488,-34.683590,-15.400192,-34.595441,-15.843346,
-34.472794,-16.278218,-34.316406,-16.702127,-34.127241,-17.112459,-33.906464,-17.506684,-33.655437,-17.882372,-33.375708,-18.237207,-33.069002,-18.569000,-32.737208,-18.875707,-32.382374,-19.155436,-32.006686,-19.406463,-31.612461,-19.627240,-31.202129,-19.816405,-30.778220,-19.972794,-30.343348,-20.095440,-29.900194,-20.183589,-29.451490,-20.236697,-29.018625,-20.253704,-29.000002,-20.250000,-5.000000,-20.250000,-4.981377,-20.253704,
-4.548512,-20.236697,-4.099808,-20.183590,-3.656654,-20.095441,-3.221782,-19.972794,-2.797873,-19.816406,-2.387541,-19.627241,-1.993316,-19.406464,-1.617628,-19.155437,-1.262793,-18.875708,-0.931000,-18.569002,-0.624293,-18.237208,-0.344564,-17.882374,-0.093537,-17.506686,0.127240,-17.112461,0.316405,-16.702129,0.472794,-16.278220,0.595440,-15.843348,0.683589,-15.400194,0.736697,-14.951490,0.753704,-14.518625,
0.750000,-14.500002,0.750000,10.500000,0.753707,10.518637,0.736854,10.949485,0.684216,11.396224,0.596844,11.837486,0.475271,12.270575,0.320241,12.692845,0.132700,13.101715,-0.086205,13.494687,-0.335136,13.869359,-0.612573,14.223442,-0.916820,14.554772,-1.246019,14.861325,-1.598156,15.141228,-1.971081,15.392769,-2.362515,15.614412,-2.770066,15.804802,-3.191243,15.962777,-3.623473,16.087370,
-4.064114,16.177821,-4.510475,16.233576,-4.941195,16.253437,-4.959857,16.249860,-4.979914,16.253995,-5.000000,16.250000,-29.000000,16.250000,-29.019995,16.253977,-29.503101,16.235961,-30.003408,16.179779,-30.498140,16.086490,-30.984550,15.956611,-31.459935,15.790865,-31.921655,15.590172,-32.367144,15.355647,-32.793929,15.088592,-33.199637,14.790492,-33.582015,14.463001,-33.938940,14.107941,-34.268427,13.727282,
-34.568648,13.323140,-34.837933,12.897760,-35.074787,12.453505,-35.277895,11.992842,-35.446128,11.518331,-35.578551,11.032608,-35.674429,10.538370,-35.733230,10.038365,-35.753775,9.555360,-35.749902,9.535344,-35.753514,9.517668,-35.750000,9.500000,-35.750000,-14.500000,-35.753977,-14.519995,-35.735961,-15.003101,-35.679779,-15.503408,-35.586490,-15.998140,-35.456611,-16.484550,-35.290865,-16.959935,-35.090172,-17.421655,
-34.855647,-17.867144,-34.588592,-18.293929,-34.290492,-18.699637,-33.963001,-19.082015,-33.607941,-19.438940,-33.227282,-19.768427,-32.823140,-20.068648,-32.397760,-20.337933,-31.953505,-20.574787,-31.492842,-20.777895,-31.018331,-20.946128,-30.532608,-21.078551,-30.038370,-21.174429,-29.538365,-21.233230,-29.055360,-21.253775,-29.035344,-21.249902,-29.017668,-21.253514,-29.000000,-21.250000,-5.000000,-21.250000,-4.980005,-21.253977,
-4.496899,-21.235961,-3.996592,-21.179779,-3.501860,-21.086490,-3.015450,-20.956611,-2.540065,-20.790865,-2.078345,-20.590172,-1.632856,-20.355647,-1.206071,-20.088592,-0.800363,-19.790492,-0.417985,-19.463001,-0.061060,-19.107941,0.268427,-18.727282,0.568648,-18.323140,0.837933,-17.897760,1.074787,-17.453505,1.277895,-16.992842,1.446128,-16.518331,1.578551,-16.032608,1.674429,-15.538370,1.733230,-15.038365,
1.753775,-14.555360,1.749902,-14.535344,1.753514,-14.517668,1.750000,-14.500000,1.750000,-2.500000,1.769030,-2.404329,1.823223,-2.323223,1.904329,-2.269030,2.000000,-2.250000,2.095671,-2.269030,2.176777,-2.323223,2.230970,-2.404329,2.250000,-2.500000,2.250000,-14.500000,2.246224,-14.518983,2.249896,-14.537962,2.249895,-14.537968,2.228847,-15.053346,2.171207,-15.565930,2.077268,-16.073118,
1.947504,-16.572343,1.782574,-17.061078,1.583310,-17.536849,1.350723,-17.997249,1.085989,-18.439945,0.790449,-18.862698,0.465599,-19.263368,0.113082,-19.639926,-0.265317,-19.990467,-0.667682,-20.313215,-1.091977,-20.606538,-1.536053,-20.868951,-1.997664,-21.099124,-2.474472,-21.295894,-2.964064,-21.458264,-3.463961,-21.585412,-3.971634,-21.676694,-4.484512,-21.731650,-4.999994,-21.749999,-5.000000,-21.750000,
-29.000000,-21.750000,-29.018983,-21.746224,-29.037962,-21.749896,-29.037968,-21.749895,-29.553346,-21.728847,-30.065930,-21.671207,-30.573118,-21.577268,-31.072343,-21.447504,-31.561078,-21.282574,-32.036849,-21.083310,-32.497249,-20.850723,-32.939945,-20.585989,-33.362698,-20.290449,-33.763368,-19.965599,-34.139926,-19.613082,-34.490467,-19.234683,-34.813215,-18.832318,-35.106538,-18.408023,-35.368951,-17.963947,-35.599124,-17.502336,
-35.795894,-17.025528,-35.958264,-16.535936,-36.085412,-16.036039,-36.176694,-15.528366,-36.231650,-15.015488,-36.249999,-14.500006,-36.250000,-14.500000,-36.250000,9.500000,-36.246224,9.518983,-36.249896,9.537962,-36.249895,9.537968,-36.228847,10.053346,-36.171207,10.565930,-36.077268,11.073118,-35.947504,11.572343,-35.782574,12.061078,-35.583310,12.536849,-35.350723,12.997249,-35.085989,13.439945,-34.790449,13.862698,
-34.465599,14.263368,-34.113082,14.639926,-33.734683,14.990467,-33.332318,15.313215,-32.908023,15.606538,-32.463947,15.868951,-32.002336,16.099124,-31.525528,16.295894,-31.035936,16.458264,-30.536039,16.585412,-30.028366,16.676694,-29.515488,16.731650,-29.000006,16.749999,-29.000000,16.750000,-5.000000,16.750000,-4.978199,16.745664,-4.978199,16.745664,$1*%
G04 Aperture macros list end*
%ADD10C,0.100000*%
%TA.AperFunction,NonConductor*%
%ADD11C,0.100000*%
%TD*%
%TA.AperFunction,EtchedComponent*%
%ADD12C,0.250000*%
%TD*%
%TA.AperFunction,SMDPad,CuDef*%
%ADD13R,1.150000X1.900000*%
%TD*%
%TA.AperFunction,ComponentPad*%
%ADD14C,3.200000*%
%TD*%
%TA.AperFunction,SMDPad,CuDef*%
%ADD15RoundRect,0.125000X0.625000X-0.125000X0.625000X0.125000X-0.625000X0.125000X-0.625000X-0.125000X0*%
%TD*%
%TA.AperFunction,ComponentPad*%
%ADD16C,2.000000*%
%TD*%
%TA.AperFunction,SMDPad,CuDef*%
%ADD17R,1.300000X2.000000*%
%TD*%
%TA.AperFunction,SMDPad,CuDef*%
%ADD18RoundRect,0.225000X-0.225000X-0.250000X0.225000X-0.250000X0.225000X0.250000X-0.225000X0.250000X0*%
%TD*%
%TA.AperFunction,SMDPad,CuDef*%
%ADD19RoundRect,0.200000X0.275000X-0.200000X0.275000X0.200000X-0.275000X0.200000X-0.275000X-0.200000X0*%
%TD*%
%TA.AperFunction,SMDPad,CuDef*%
%ADD20RoundRect,0.225000X0.250000X-0.225000X0.250000X0.225000X-0.250000X0.225000X-0.250000X-0.225000X0*%
%TD*%
%TA.AperFunction,SMDPad,CuDef*%
%ADD21RoundRect,0.200000X-0.200000X-0.275000X0.200000X-0.275000X0.200000X0.275000X-0.200000X0.275000X0*%
%TD*%
%TA.AperFunction,SMDPad,CuDef*%
%ADD22RoundRect,0.225000X-0.250000X0.225000X-0.250000X-0.225000X0.250000X-0.225000X0.250000X0.225000X0*%
%TD*%
%TA.AperFunction,SMDPad,CuDef*%
%ADD23RoundRect,0.225000X0.225000X0.250000X-0.225000X0.250000X-0.225000X-0.250000X0.225000X-0.250000X0*%
%TD*%
%TA.AperFunction,SMDPad,CuDef*%
%ADD24RoundRect,0.062500X-0.062500X0.287500X-0.062500X-0.287500X0.062500X-0.287500X0.062500X0.287500X0*%
%TD*%
%TA.AperFunction,SMDPad,CuDef*%
%ADD25RoundRect,0.062500X-0.287500X0.062500X-0.287500X-0.062500X0.287500X-0.062500X0.287500X0.062500X0*%
%TD*%
%TA.AperFunction,SMDPad,CuDef*%
%ADD26FreePoly0,270.000000*%
%TD*%
%TA.AperFunction,ComponentPad*%
%ADD27C,0.350000*%
%TD*%
%TA.AperFunction,ComponentPad*%
%ADD28R,1.700000X1.700000*%
%TD*%
%TA.AperFunction,ComponentPad*%
%ADD29O,1.700000X1.700000*%
%TD*%
%TA.AperFunction,ComponentPad*%
%ADD30RoundRect,0.250000X-0.600000X-0.675000X0.600000X-0.675000X0.600000X0.675000X-0.600000X0.675000X0*%
%TD*%
%TA.AperFunction,ComponentPad*%
%ADD31O,1.700000X1.850000*%
%TD*%
%TA.AperFunction,ComponentPad*%
%ADD32C,1.200000*%
%TD*%
%TA.AperFunction,SMDPad,CuDef*%
%ADD33FreePoly1,0.000000*%
%TD*%
%TA.AperFunction,SMDPad,CuDef*%
%ADD34R,1.000000X1.500000*%
%TD*%
%TA.AperFunction,SMDPad,CuDef*%
%ADD35FreePoly2,0.000000*%
%TD*%
%TA.AperFunction,SMDPad,CuDef*%
%ADD36RoundRect,0.200000X0.200000X0.275000X-0.200000X0.275000X-0.200000X-0.275000X0.200000X-0.275000X0*%
%TD*%
%TA.AperFunction,SMDPad,CuDef*%
%ADD37RoundRect,0.166600X0.636396X-0.895763X0.895763X-0.636396X-0.636396X0.895763X-0.895763X0.636396X0*%
%TD*%
%TA.AperFunction,SMDPad,CuDef*%
%ADD38RoundRect,0.242760X0.321734X-0.699668X0.699668X-0.321734X-0.321734X0.699668X-0.699668X0.321734X0*%
%TD*%
%TA.AperFunction,SMDPad,CuDef*%
%ADD39RoundRect,0.166600X-0.895763X-0.636396X-0.636396X-0.895763X0.895763X0.636396X0.636396X0.895763X0*%
%TD*%
%TA.AperFunction,SMDPad,CuDef*%
%ADD40RoundRect,0.242760X-0.699668X-0.321734X-0.321734X-0.699668X0.699668X0.321734X0.321734X0.699668X0*%
%TD*%
%TA.AperFunction,SMDPad,CuDef*%
%ADD41RoundRect,0.200000X-0.275000X0.200000X-0.275000X-0.200000X0.275000X-0.200000X0.275000X0.200000X0*%
%TD*%
%TA.AperFunction,SMDPad,CuDef*%
%ADD42R,0.650000X0.400000*%
%TD*%
%TA.AperFunction,SMDPad,CuDef*%
%ADD43R,1.400000X0.200000*%
%TD*%
%TA.AperFunction,SMDPad,CuDef*%
%ADD44R,0.200000X0.200000*%
%TD*%
%TA.AperFunction,SMDPad,CuDef*%
%ADD45R,0.200000X0.400000*%
%TD*%
%TA.AperFunction,SMDPad,CuDef*%
%ADD46R,0.200000X1.200000*%
%TD*%
%TA.AperFunction,SMDPad,CuDef*%
%ADD47R,0.600000X0.600000*%
%TD*%
%TA.AperFunction,SMDPad,CuDef*%
%ADD48R,0.400000X0.200000*%
%TD*%
%TA.AperFunction,SMDPad,CuDef*%
%ADD49R,0.200000X0.600000*%
%TD*%
%TA.AperFunction,SMDPad,CuDef*%
%ADD50R,1.000000X0.200000*%
%TD*%
%TA.AperFunction,SMDPad,CuDef*%
%ADD51R,0.600000X0.200000*%
%TD*%
%TA.AperFunction,SMDPad,CuDef*%
%ADD52R,0.800000X0.200000*%
%TD*%
%TA.AperFunction,SMDPad,CuDef*%
%ADD53R,0.400000X0.600000*%
%TD*%
%TA.AperFunction,SMDPad,CuDef*%
%ADD54R,0.200000X0.800000*%
%TD*%
%TA.AperFunction,ComponentPad*%
%ADD55C,0.600000*%
%TD*%
%TA.AperFunction,SMDPad,CuDef*%
%ADD56R,1.500000X0.500000*%
%TD*%
%TA.AperFunction,SMDPad,CuDef*%
%ADD57FreePoly3,90.000000*%
%TD*%
%TA.AperFunction,ViaPad*%
%ADD58C,0.800000*%
%TD*%
%TA.AperFunction,Conductor*%
%ADD59C,0.500000*%
%TD*%
%TA.AperFunction,Conductor*%
%ADD60C,0.250000*%
%TD*%
G04 APERTURE END LIST*
D10*
D11*
X91828571Y-114414285D02*
X91800000Y-114385714D01*
X91771428Y-114328571D01*
X91771428Y-114185714D01*
X91800000Y-114128571D01*
X91828571Y-114100000D01*
X91885714Y-114071428D01*
X91942857Y-114071428D01*
X92028571Y-114100000D01*
X92371428Y-114442857D01*
X92371428Y-114071428D01*
X91771428Y-113700000D02*
X91771428Y-113642857D01*
X91800000Y-113585714D01*
X91828571Y-113557142D01*
X91885714Y-113528571D01*
X92000000Y-113500000D01*
X92142857Y-113500000D01*
X92257142Y-113528571D01*
X92314285Y-113557142D01*
X92342857Y-113585714D01*
X92371428Y-113642857D01*
X92371428Y-113700000D01*
X92342857Y-113757142D01*
X92314285Y-113785714D01*
X92257142Y-113814285D01*
X92142857Y-113842857D01*
X92000000Y-113842857D01*
X91885714Y-113814285D01*
X91828571Y-113785714D01*
X91800000Y-113757142D01*
X91771428Y-113700000D01*
X91828571Y-113271428D02*
X91800000Y-113242857D01*
X91771428Y-113185714D01*
X91771428Y-113042857D01*
X91800000Y-112985714D01*
X91828571Y-112957142D01*
X91885714Y-112928571D01*
X91942857Y-112928571D01*
X92028571Y-112957142D01*
X92371428Y-113300000D01*
X92371428Y-112928571D01*
X92371428Y-112357142D02*
X92371428Y-112700000D01*
X92371428Y-112528571D02*
X91771428Y-112528571D01*
X91857142Y-112585714D01*
X91914285Y-112642857D01*
X91942857Y-112700000D01*
X92142857Y-112100000D02*
X92142857Y-111642857D01*
X92371428Y-111042857D02*
X92371428Y-111385714D01*
X92371428Y-111214285D02*
X91771428Y-111214285D01*
X91857142Y-111271428D01*
X91914285Y-111328571D01*
X91942857Y-111385714D01*
X91828571Y-110814285D02*
X91800000Y-110785714D01*
X91771428Y-110728571D01*
X91771428Y-110585714D01*
X91800000Y-110528571D01*
X91828571Y-110500000D01*
X91885714Y-110471428D01*
X91942857Y-110471428D01*
X92028571Y-110500000D01*
X92371428Y-110842857D01*
X92371428Y-110471428D01*
X92142857Y-110214285D02*
X92142857Y-109757142D01*
X91771428Y-109528571D02*
X91771428Y-109157142D01*
X92000000Y-109357142D01*
X92000000Y-109271428D01*
X92028571Y-109214285D01*
X92057142Y-109185714D01*
X92114285Y-109157142D01*
X92257142Y-109157142D01*
X92314285Y-109185714D01*
X92342857Y-109214285D01*
X92371428Y-109271428D01*
X92371428Y-109442857D01*
X92342857Y-109500000D01*
X92314285Y-109528571D01*
X91771428Y-108785714D02*
X91771428Y-108728571D01*
X91800000Y-108671428D01*
X91828571Y-108642857D01*
X91885714Y-108614285D01*
X92000000Y-108585714D01*
X92142857Y-108585714D01*
X92257142Y-108614285D01*
X92314285Y-108642857D01*
X92342857Y-108671428D01*
X92371428Y-108728571D01*
X92371428Y-108785714D01*
X92342857Y-108842857D01*
X92314285Y-108871428D01*
X92257142Y-108900000D01*
X92142857Y-108928571D01*
X92000000Y-108928571D01*
X91885714Y-108900000D01*
X91828571Y-108871428D01*
X91800000Y-108842857D01*
X91771428Y-108785714D01*
%TO.C,JP1*%
G36*
X94250000Y-105200000D02*
G01*
X93750000Y-105200000D01*
X93750000Y-104800000D01*
X94250000Y-104800000D01*
X94250000Y-105200000D01*
G37*
G36*
X94250000Y-106000000D02*
G01*
X93750000Y-106000000D01*
X93750000Y-105600000D01*
X94250000Y-105600000D01*
X94250000Y-106000000D01*
G37*
D12*
%TO.C,AJK2*%
X89000000Y-92200000D02*
X87500000Y-92200000D01*
X89000000Y-90100000D02*
X89000000Y-94300000D01*
X89000000Y-90100000D02*
X86000000Y-94300000D01*
X90800000Y-90200000D02*
X89000000Y-92200000D01*
X89000000Y-92200000D02*
X90800000Y-94300000D01*
X87500000Y-94300000D02*
G75*
G03*
X89000000Y-94300000I750000J0D01*
G01*
%TD*%
D13*
%TO.P,Y1,1,1*%
%TO.N,Net-(C15-Pad1)*%
X93200000Y-98650000D03*
%TO.P,Y1,2,2*%
%TO.N,GND*%
X93200000Y-101350000D03*
%TO.P,Y1,3,3*%
%TO.N,Net-(C16-Pad1)*%
X94800000Y-101350000D03*
%TO.P,Y1,4,4*%
%TO.N,GND*%
X94800000Y-98650000D03*
%TD*%
D14*
%TO.P,H2,1*%
%TO.N,N/C*%
X88000000Y-88000000D03*
%TD*%
%TO.P,H1,1*%
%TO.N,N/C*%
X112000000Y-112000000D03*
%TD*%
D15*
%TO.P,D2,1,K*%
%TO.N,GND*%
X112000000Y-94900000D03*
%TO.P,D2,2,A*%
%TO.N,Net-(D2-Pad2)*%
X112000000Y-93100000D03*
%TD*%
%TO.P,D3,1,K*%
%TO.N,GND*%
X112000000Y-88900000D03*
%TO.P,D3,2,A*%
%TO.N,Net-(D3-Pad2)*%
X112000000Y-87100000D03*
%TD*%
D16*
%TO.P,SW1,1,1*%
%TO.N,GND*%
X90750000Y-103250000D03*
X90750000Y-96750000D03*
D17*
X90750000Y-104200000D03*
X90750000Y-95800000D03*
D16*
%TO.P,SW1,2,2*%
%TO.N,Net-(R10-Pad2)*%
X86250000Y-96750000D03*
D17*
X86250000Y-104200000D03*
D16*
X86250000Y-103250000D03*
D17*
X86250000Y-95800000D03*
%TD*%
D15*
%TO.P,D1,1,K*%
%TO.N,GND*%
X112000000Y-100900000D03*
%TO.P,D1,2,A*%
%TO.N,Net-(D1-Pad2)*%
X112000000Y-99100000D03*
%TD*%
D18*
%TO.P,C7,1*%
%TO.N,+3V3*%
X100425000Y-95350000D03*
%TO.P,C7,2*%
%TO.N,GND*%
X101975000Y-95350000D03*
%TD*%
D19*
%TO.P,R1,1*%
%TO.N,Net-(C1-Pad1)*%
X103800000Y-85575000D03*
%TO.P,R1,2*%
%TO.N,Net-(A1-Pad1)*%
X103800000Y-83925000D03*
%TD*%
D20*
%TO.P,C3,1*%
%TO.N,Net-(C3-Pad1)*%
X103800000Y-88275000D03*
%TO.P,C3,2*%
%TO.N,Net-(C1-Pad1)*%
X103800000Y-86725000D03*
%TD*%
D18*
%TO.P,C5,1*%
%TO.N,GND*%
X100925000Y-88250000D03*
%TO.P,C5,2*%
%TO.N,Net-(C3-Pad1)*%
X102475000Y-88250000D03*
%TD*%
D21*
%TO.P,R5,1*%
%TO.N,Net-(R5-Pad1)*%
X108175000Y-95800000D03*
%TO.P,R5,2*%
%TO.N,+5V*%
X109825000Y-95800000D03*
%TD*%
%TO.P,R3,1*%
%TO.N,Net-(C8-Pad2)*%
X93075000Y-88250000D03*
%TO.P,R3,2*%
%TO.N,Net-(C4-Pad2)*%
X94725000Y-88250000D03*
%TD*%
D22*
%TO.P,C13,1*%
%TO.N,+3V3*%
X106250000Y-98825000D03*
%TO.P,C13,2*%
%TO.N,GND*%
X106250000Y-100375000D03*
%TD*%
D18*
%TO.P,C14,1*%
%TO.N,+5V*%
X104725000Y-97300000D03*
%TO.P,C14,2*%
%TO.N,GND*%
X106275000Y-97300000D03*
%TD*%
D23*
%TO.P,C10,1*%
%TO.N,Net-(C10-Pad1)*%
X96375000Y-93850000D03*
%TO.P,C10,2*%
%TO.N,GND*%
X94825000Y-93850000D03*
%TD*%
D18*
%TO.P,C15,1*%
%TO.N,Net-(C15-Pad1)*%
X93225000Y-97500000D03*
%TO.P,C15,2*%
%TO.N,GND*%
X94775000Y-97500000D03*
%TD*%
D21*
%TO.P,R8,1*%
%TO.N,Net-(R8-Pad1)*%
X108175000Y-100300000D03*
%TO.P,R8,2*%
%TO.N,Net-(D2-Pad2)*%
X109825000Y-100300000D03*
%TD*%
%TO.P,R7,1*%
%TO.N,Net-(R7-Pad1)*%
X108175000Y-101800000D03*
%TO.P,R7,2*%
%TO.N,Net-(D1-Pad2)*%
X109825000Y-101800000D03*
%TD*%
D19*
%TO.P,R10,1*%
%TO.N,+3V3*%
X99300000Y-105975000D03*
%TO.P,R10,2*%
%TO.N,Net-(R10-Pad2)*%
X99300000Y-104325000D03*
%TD*%
D24*
%TO.P,U1,1,DVSS*%
%TO.N,GND*%
X102250000Y-97100000D03*
%TO.P,U1,2,LOADMOD*%
%TO.N,unconnected-(U1-Pad2)*%
X101750000Y-97100000D03*
%TO.P,U1,3,TVSS1*%
%TO.N,GND*%
X101250000Y-97100000D03*
%TO.P,U1,4,TX1*%
%TO.N,Net-(L1-Pad1)*%
X100750000Y-97100000D03*
%TO.P,U1,5,TVDD*%
%TO.N,+3V3*%
X100250000Y-97100000D03*
%TO.P,U1,6,TX2*%
%TO.N,Net-(L2-Pad2)*%
X99750000Y-97100000D03*
%TO.P,U1,7,TVSS2*%
%TO.N,GND*%
X99250000Y-97100000D03*
%TO.P,U1,8,AVDD*%
%TO.N,+3V3*%
X98750000Y-97100000D03*
%TO.P,U1,9,VMID*%
%TO.N,Net-(C10-Pad1)*%
X98250000Y-97100000D03*
%TO.P,U1,10,RX*%
%TO.N,Net-(C8-Pad1)*%
X97750000Y-97100000D03*
D25*
%TO.P,U1,11,AVSS*%
%TO.N,GND*%
X97100000Y-97750000D03*
%TO.P,U1,12,AUX1*%
%TO.N,unconnected-(U1-Pad12)*%
X97100000Y-98250000D03*
%TO.P,U1,13,AUX2*%
%TO.N,unconnected-(U1-Pad13)*%
X97100000Y-98750000D03*
%TO.P,U1,14,OSCIN*%
%TO.N,Net-(C15-Pad1)*%
X97100000Y-99250000D03*
%TO.P,U1,15,OSCOUT*%
%TO.N,Net-(C16-Pad1)*%
X97100000Y-99750000D03*
%TO.P,U1,16,I0*%
%TO.N,GND*%
X97100000Y-100250000D03*
%TO.P,U1,17,I1*%
%TO.N,Net-(JP1-Pad2)*%
X97100000Y-100750000D03*
%TO.P,U1,18,TESTEN*%
%TO.N,GND*%
X97100000Y-101250000D03*
%TO.P,U1,19,P35*%
%TO.N,unconnected-(U1-Pad19)*%
X97100000Y-101750000D03*
%TO.P,U1,20,NC*%
%TO.N,unconnected-(U1-Pad20)*%
X97100000Y-102250000D03*
D24*
%TO.P,U1,21,NC*%
%TO.N,unconnected-(U1-Pad21)*%
X97750000Y-102900000D03*
%TO.P,U1,22,NC*%
%TO.N,unconnected-(U1-Pad22)*%
X98250000Y-102900000D03*
%TO.P,U1,23,PVDD*%
%TO.N,+3V3*%
X98750000Y-102900000D03*
%TO.P,U1,24,P30/UART_RX*%
%TO.N,Net-(R10-Pad2)*%
X99250000Y-102900000D03*
%TO.P,U1,25,P70_IRQ*%
%TO.N,unconnected-(U1-Pad25)*%
X99750000Y-102900000D03*
%TO.P,U1,26,RSTOUT_N*%
%TO.N,unconnected-(U1-Pad26)*%
X100250000Y-102900000D03*
%TO.P,U1,27,NSS/P50_SCL/HSU_RX*%
%TO.N,Net-(C19-Pad1)*%
X100750000Y-102900000D03*
%TO.P,U1,28,MOSI/SDA/HSU_TX*%
%TO.N,Net-(D6-Pad6)*%
X101250000Y-102900000D03*
%TO.P,U1,29,MISO/P71*%
%TO.N,unconnected-(U1-Pad29)*%
X101750000Y-102900000D03*
%TO.P,U1,30,SCK/P72*%
%TO.N,Net-(D5-Pad3)*%
X102250000Y-102900000D03*
D25*
%TO.P,U1,31,P31/DBG_TX*%
%TO.N,Net-(R7-Pad1)*%
X102900000Y-102250000D03*
%TO.P,U1,32,P32_INT0*%
%TO.N,Net-(R8-Pad1)*%
X102900000Y-101750000D03*
%TO.P,U1,33,P33_INT1*%
%TO.N,Net-(R9-Pad1)*%
X102900000Y-101250000D03*
%TO.P,U1,34,P34/SIG_CLK*%
%TO.N,unconnected-(U1-Pad34)*%
X102900000Y-100750000D03*
%TO.P,U1,35,SIGOUT*%
%TO.N,unconnected-(U1-Pad35)*%
X102900000Y-100250000D03*
%TO.P,U1,36,SIGN*%
%TO.N,unconnected-(U1-Pad36)*%
X102900000Y-99750000D03*
%TO.P,U1,37,SVDD*%
%TO.N,unconnected-(U1-Pad37)*%
X102900000Y-99250000D03*
%TO.P,U1,38,RSTPD_N*%
%TO.N,Net-(R5-Pad1)*%
X102900000Y-98750000D03*
%TO.P,U1,39,DVDD*%
%TO.N,+3V3*%
X102900000Y-98250000D03*
%TO.P,U1,40,VBAT*%
%TO.N,+5V*%
X102900000Y-97750000D03*
D26*
%TO.P,U1,41,COPPER*%
%TO.N,GND*%
X100000000Y-100000000D03*
D27*
X99000000Y-99000000D03*
X100000000Y-100000000D03*
X99000000Y-101000000D03*
X101000000Y-101000000D03*
X101000000Y-99000000D03*
%TD*%
D23*
%TO.P,C16,1*%
%TO.N,Net-(C16-Pad1)*%
X94775000Y-102500000D03*
%TO.P,C16,2*%
%TO.N,GND*%
X93225000Y-102500000D03*
%TD*%
D28*
%TO.P,J1,1,Pin_1*%
%TO.N,GND*%
X112000000Y-107270000D03*
D29*
%TO.P,J1,2,Pin_2*%
%TO.N,Net-(J1-Pad2)*%
X112000000Y-104730000D03*
%TD*%
D23*
%TO.P,C11,1*%
%TO.N,+3V3*%
X98850000Y-95350000D03*
%TO.P,C11,2*%
%TO.N,GND*%
X97300000Y-95350000D03*
%TD*%
D21*
%TO.P,R4,1*%
%TO.N,Net-(C8-Pad1)*%
X93075000Y-92100000D03*
%TO.P,R4,2*%
%TO.N,Net-(C10-Pad1)*%
X94725000Y-92100000D03*
%TD*%
D19*
%TO.P,R2,1*%
%TO.N,Net-(C2-Pad2)*%
X96200000Y-85575000D03*
%TO.P,R2,2*%
%TO.N,Net-(A1-Pad3)*%
X96200000Y-83925000D03*
%TD*%
D21*
%TO.P,R6,1*%
%TO.N,Net-(R5-Pad1)*%
X108175000Y-97300000D03*
%TO.P,R6,2*%
%TO.N,GND*%
X109825000Y-97300000D03*
%TD*%
%TO.P,R9,1*%
%TO.N,Net-(R9-Pad1)*%
X108175000Y-98800000D03*
%TO.P,R9,2*%
%TO.N,Net-(D3-Pad2)*%
X109825000Y-98800000D03*
%TD*%
D20*
%TO.P,C17,1*%
%TO.N,+3V3*%
X97700000Y-105925000D03*
%TO.P,C17,2*%
%TO.N,GND*%
X97700000Y-104375000D03*
%TD*%
D22*
%TO.P,C12,1*%
%TO.N,+3V3*%
X104750000Y-98825000D03*
%TO.P,C12,2*%
%TO.N,GND*%
X104750000Y-100375000D03*
%TD*%
D20*
%TO.P,C8,1*%
%TO.N,Net-(C8-Pad1)*%
X93100000Y-90975000D03*
%TO.P,C8,2*%
%TO.N,Net-(C8-Pad2)*%
X93100000Y-89425000D03*
%TD*%
D30*
%TO.P,J3,1,Pin_1*%
%TO.N,GND*%
X96250000Y-108900000D03*
D31*
%TO.P,J3,2,Pin_2*%
%TO.N,+5V*%
X98750000Y-108900000D03*
%TO.P,J3,3,Pin_3*%
%TO.N,Net-(J2-Pad3)*%
X101250000Y-108900000D03*
%TO.P,J3,4,Pin_4*%
%TO.N,Net-(J2-Pad4)*%
X103750000Y-108900000D03*
%TD*%
D18*
%TO.P,C9,1*%
%TO.N,+3V3*%
X100425000Y-93850000D03*
%TO.P,C9,2*%
%TO.N,GND*%
X101975000Y-93850000D03*
%TD*%
D23*
%TO.P,C1,1*%
%TO.N,Net-(C1-Pad1)*%
X102475000Y-84925000D03*
X102475000Y-86125000D03*
%TO.P,C1,2*%
%TO.N,GND*%
X100925000Y-86125000D03*
X100925000Y-84925000D03*
%TD*%
%TO.P,C6,1*%
%TO.N,GND*%
X99075000Y-88250000D03*
%TO.P,C6,2*%
%TO.N,Net-(C4-Pad2)*%
X97525000Y-88250000D03*
%TD*%
D19*
%TO.P,R11,1*%
%TO.N,+3V3*%
X104000000Y-105975000D03*
%TO.P,R11,2*%
%TO.N,Net-(D5-Pad3)*%
X104000000Y-104325000D03*
%TD*%
D32*
%TO.P,TP1,1,1*%
%TO.N,Net-(L1-Pad1)*%
X101250000Y-92400000D03*
%TO.P,TP1,2,2*%
%TO.N,Net-(L2-Pad2)*%
X98750000Y-92400000D03*
%TD*%
D33*
%TO.P,JP1,3,B*%
%TO.N,+3V3*%
X95950000Y-105400000D03*
D34*
%TO.P,JP1,2,C*%
%TO.N,Net-(JP1-Pad2)*%
X94650000Y-105400000D03*
D35*
%TO.P,JP1,1,A*%
%TO.N,GND*%
X93350000Y-105400000D03*
%TD*%
D21*
%TO.P,R13,1*%
%TO.N,Net-(J2-Pad3)*%
X100825000Y-105900000D03*
%TO.P,R13,2*%
%TO.N,Net-(D6-Pad6)*%
X102475000Y-105900000D03*
%TD*%
D23*
%TO.P,C18,1*%
%TO.N,+3V3*%
X94675000Y-95350000D03*
%TO.P,C18,2*%
%TO.N,GND*%
X93125000Y-95350000D03*
%TD*%
D36*
%TO.P,R12,1*%
%TO.N,Net-(J2-Pad4)*%
X102475000Y-104400000D03*
%TO.P,R12,2*%
%TO.N,Net-(C19-Pad1)*%
X100825000Y-104400000D03*
%TD*%
D37*
%TO.P,L1,1,1*%
%TO.N,Net-(L1-Pad1)*%
X102542893Y-91707107D03*
D38*
X102260051Y-91989949D03*
%TO.P,L1,2,2*%
%TO.N,Net-(C3-Pad1)*%
X104239949Y-90010051D03*
D37*
X103957107Y-90292893D03*
%TD*%
D39*
%TO.P,L2,1,1*%
%TO.N,Net-(C4-Pad2)*%
X96042893Y-90292893D03*
D40*
X95760051Y-90010051D03*
%TO.P,L2,2,2*%
%TO.N,Net-(L2-Pad2)*%
X97739949Y-91989949D03*
D39*
X97457107Y-91707107D03*
%TD*%
D22*
%TO.P,C4,1*%
%TO.N,Net-(C2-Pad2)*%
X96200000Y-86725000D03*
%TO.P,C4,2*%
%TO.N,Net-(C4-Pad2)*%
X96200000Y-88275000D03*
%TD*%
D41*
%TO.P,R14,1*%
%TO.N,Net-(D5-Pad3)*%
X105600000Y-104325000D03*
%TO.P,R14,2*%
%TO.N,Net-(J1-Pad2)*%
X105600000Y-105975000D03*
%TD*%
D42*
%TO.P,D4,1,A1*%
%TO.N,GND*%
X108050000Y-93250000D03*
%TO.P,D4,2,K2*%
%TO.N,+3V3*%
X108050000Y-93900000D03*
%TO.P,D4,3,K1A2*%
%TO.N,Net-(D3-Pad2)*%
X108050000Y-94550000D03*
%TO.P,D4,4,A3*%
%TO.N,GND*%
X109950000Y-94550000D03*
%TO.P,D4,5,K4*%
%TO.N,+3V3*%
X109950000Y-93900000D03*
%TO.P,D4,6,K3A4*%
%TO.N,Net-(D2-Pad2)*%
X109950000Y-93250000D03*
%TD*%
D23*
%TO.P,C2,1*%
%TO.N,GND*%
X99075000Y-84925000D03*
X99075000Y-86125000D03*
%TO.P,C2,2*%
%TO.N,Net-(C2-Pad2)*%
X97525000Y-86125000D03*
X97525000Y-84925000D03*
%TD*%
D43*
%TO.P,U3,*%
%TO.N,*%
X89900000Y-109500000D03*
D44*
X88500000Y-109500000D03*
D45*
X88100000Y-109600000D03*
D43*
X87100000Y-109500000D03*
D46*
X90500000Y-110200000D03*
X89300000Y-110200000D03*
D44*
X88700000Y-109700000D03*
D46*
X87700000Y-110200000D03*
X86500000Y-110200000D03*
D47*
X89900000Y-110100000D03*
D44*
X88900000Y-109900000D03*
D48*
X88400000Y-109900000D03*
D47*
X87100000Y-110100000D03*
D49*
X88700000Y-110300000D03*
D48*
X88200000Y-110100000D03*
D46*
X88500000Y-111000000D03*
D45*
X88100000Y-110600000D03*
D50*
X89900000Y-110700000D03*
D49*
X88900000Y-110900000D03*
D50*
X87100000Y-110700000D03*
D44*
X88300000Y-110900000D03*
D51*
X90300000Y-111100000D03*
D52*
X89400000Y-111100000D03*
D51*
X87900000Y-111100000D03*
D45*
X86900000Y-111200000D03*
D53*
X90400000Y-111500000D03*
D54*
X89100000Y-111600000D03*
D44*
X88700000Y-111300000D03*
X88300000Y-111300000D03*
D54*
X87700000Y-111600000D03*
D44*
X87100000Y-111300000D03*
D48*
X86600000Y-111300000D03*
X90000000Y-111500000D03*
D44*
X89300000Y-111500000D03*
D45*
X88100000Y-111600000D03*
D44*
X87300000Y-111500000D03*
D45*
X90100000Y-111800000D03*
X89700000Y-111800000D03*
D44*
X88900000Y-111700000D03*
X87900000Y-111700000D03*
D45*
X87500000Y-111800000D03*
D44*
X89300000Y-111900000D03*
D51*
X88500000Y-111900000D03*
D54*
X86500000Y-112200000D03*
D51*
X88700000Y-112100000D03*
D48*
X88000000Y-112100000D03*
D45*
X87300000Y-112200000D03*
D43*
X89900000Y-112300000D03*
D49*
X88900000Y-112500000D03*
D48*
X88200000Y-112300000D03*
D49*
X87500000Y-112500000D03*
D48*
X87000000Y-112300000D03*
D46*
X90500000Y-113000000D03*
X89300000Y-113000000D03*
D44*
X88700000Y-112500000D03*
X88300000Y-112500000D03*
D49*
X87900000Y-112700000D03*
D47*
X89900000Y-112900000D03*
D49*
X88500000Y-112900000D03*
D44*
X87700000Y-112700000D03*
X87300000Y-112700000D03*
X86900000Y-112700000D03*
X86700000Y-112900000D03*
D49*
X88900000Y-113300000D03*
X88300000Y-113300000D03*
D44*
X87500000Y-113100000D03*
D49*
X86500000Y-113300000D03*
D44*
X88700000Y-113300000D03*
D45*
X88100000Y-113400000D03*
X87100000Y-113400000D03*
D44*
X86700000Y-113300000D03*
D50*
X89900000Y-113500000D03*
D44*
X87500000Y-113500000D03*
%TD*%
D18*
%TO.P,C19,1*%
%TO.N,Net-(C19-Pad1)*%
X108225000Y-108200000D03*
%TO.P,C19,2*%
%TO.N,GND*%
X109775000Y-108200000D03*
%TD*%
D42*
%TO.P,D5,1,A1*%
%TO.N,GND*%
X108050000Y-103050000D03*
%TO.P,D5,2,K2*%
%TO.N,+3V3*%
X108050000Y-103700000D03*
%TO.P,D5,3,K1A2*%
%TO.N,Net-(D5-Pad3)*%
X108050000Y-104350000D03*
%TO.P,D5,4,A3*%
%TO.N,GND*%
X109950000Y-104350000D03*
%TO.P,D5,5,K4*%
%TO.N,+3V3*%
X109950000Y-103700000D03*
%TO.P,D5,6,K3A4*%
%TO.N,Net-(D1-Pad2)*%
X109950000Y-103050000D03*
%TD*%
%TO.P,D6,1,A1*%
%TO.N,GND*%
X109950000Y-106950000D03*
%TO.P,D6,2,K2*%
%TO.N,+3V3*%
X109950000Y-106300000D03*
%TO.P,D6,3,K1A2*%
%TO.N,Net-(C19-Pad1)*%
X109950000Y-105650000D03*
%TO.P,D6,4,A3*%
%TO.N,GND*%
X108050000Y-105650000D03*
%TO.P,D6,5,K4*%
%TO.N,+3V3*%
X108050000Y-106300000D03*
%TO.P,D6,6,K3A4*%
%TO.N,Net-(D6-Pad6)*%
X108050000Y-106950000D03*
%TD*%
D28*
%TO.P,J2,1,Pin_1*%
%TO.N,GND*%
X96190000Y-112000000D03*
D29*
%TO.P,J2,2,Pin_2*%
%TO.N,+5V*%
X98730000Y-112000000D03*
%TO.P,J2,3,Pin_3*%
%TO.N,Net-(J2-Pad3)*%
X101270000Y-112000000D03*
%TO.P,J2,4,Pin_4*%
%TO.N,Net-(J2-Pad4)*%
X103810000Y-112000000D03*
%TD*%
D55*
%TO.P,A1,*%
%TO.N,*%
X100000000Y-81000000D03*
%TO.P,A1,1*%
%TO.N,Net-(A1-Pad1)*%
X102000000Y-83000000D03*
D56*
%TO.P,A1,2*%
%TO.N,GND*%
X100000000Y-83000000D03*
D57*
%TO.P,A1,3*%
%TO.N,Net-(A1-Pad3)*%
X97500000Y-83000000D03*
D55*
X98000000Y-83000000D03*
D56*
X100000000Y-81000000D03*
%TD*%
D58*
%TO.N,GND*%
X112000000Y-101600000D03*
X112000000Y-95600000D03*
X95003161Y-96622158D03*
X100000000Y-91500000D03*
X109000000Y-107100000D03*
X109000000Y-105500000D03*
X94400000Y-103600000D03*
X109000000Y-102974990D03*
X103050000Y-95350000D03*
X103050000Y-93850000D03*
X106200000Y-96000000D03*
X93125000Y-93850000D03*
X106238430Y-101438430D03*
X96300000Y-103600000D03*
X96450000Y-95350000D03*
X93225000Y-103575000D03*
X110642980Y-97631700D03*
X112000000Y-89600000D03*
%TO.N,+3V3*%
X107238947Y-103740856D03*
X93800000Y-96500000D03*
X107189453Y-96509732D03*
X106246541Y-107243575D03*
X107124997Y-94740321D03*
X97700000Y-93600000D03*
X91500000Y-106000000D03*
X99151497Y-93600000D03*
%TO.N,+5V*%
X110688884Y-96374744D03*
X104725000Y-96225000D03*
X105903346Y-93571334D03*
%TO.N,Net-(D1-Pad2)*%
X110900000Y-101900000D03*
X112000000Y-98400000D03*
%TO.N,Net-(D2-Pad2)*%
X112000000Y-92400000D03*
X112000000Y-97300000D03*
%TO.N,Net-(D3-Pad2)*%
X108900000Y-94600000D03*
X112000000Y-86400000D03*
%TO.N,Net-(J1-Pad2)*%
X106700000Y-105200000D03*
%TO.N,Net-(J2-Pad4)*%
X105263126Y-107425011D03*
%TD*%
D59*
%TO.N,GND*%
X100925000Y-85525000D02*
X100925000Y-86125000D01*
X99875000Y-85525000D02*
X100000000Y-85400000D01*
X100925000Y-85525000D02*
X100125000Y-85525000D01*
X93225000Y-101375000D02*
X93200000Y-101350000D01*
X99075000Y-88250000D02*
X99950000Y-88250000D01*
D60*
X110525000Y-104350000D02*
X112000000Y-102875000D01*
D59*
X100125000Y-85525000D02*
X100000000Y-85400000D01*
X93225000Y-102500000D02*
X93225000Y-101375000D01*
D60*
X101250000Y-96975000D02*
X101250000Y-98750000D01*
D59*
X100925000Y-84925000D02*
X100925000Y-85525000D01*
X97300000Y-95350000D02*
X96450000Y-95350000D01*
D60*
X110873002Y-97300000D02*
X111525001Y-96648001D01*
X97476978Y-97750000D02*
X97526988Y-97800010D01*
D59*
X94775000Y-98625000D02*
X94800000Y-98650000D01*
X96250000Y-108900000D02*
X96250000Y-111940000D01*
X94775000Y-97500000D02*
X94775000Y-96850319D01*
D60*
X110600000Y-97300000D02*
X110873002Y-97300000D01*
X106275000Y-96225000D02*
X106275000Y-96075000D01*
X109825000Y-97300000D02*
X110600000Y-97300000D01*
X90750000Y-96750000D02*
X90750000Y-103250000D01*
X112000000Y-102875000D02*
X112000000Y-102400000D01*
X99250000Y-96975000D02*
X99250000Y-98750000D01*
D59*
X101975000Y-95350000D02*
X103050000Y-95350000D01*
D60*
X112000000Y-90200000D02*
X112000000Y-89700000D01*
X112000000Y-102400000D02*
X112000000Y-100950010D01*
D59*
X99075000Y-85525000D02*
X99075000Y-86125000D01*
D60*
X108050000Y-105650000D02*
X108850000Y-105650000D01*
D59*
X104750000Y-100375000D02*
X106250000Y-100375000D01*
X93125000Y-95350000D02*
X93125000Y-93850000D01*
D60*
X109000000Y-107100000D02*
X109000000Y-107425000D01*
D59*
X101975000Y-93850000D02*
X103050000Y-93850000D01*
D60*
X97800010Y-97800010D02*
X99000000Y-99000000D01*
X106200000Y-96000000D02*
X106200000Y-94639998D01*
D59*
X100000000Y-83000000D02*
X100000000Y-88900000D01*
D60*
X97700000Y-104375000D02*
X97075000Y-104375000D01*
X102199990Y-97526988D02*
X102199990Y-97800010D01*
X97075000Y-104375000D02*
X96300000Y-103600000D01*
X110642980Y-97342980D02*
X110600000Y-97300000D01*
X102199990Y-97800010D02*
X101000000Y-99000000D01*
D59*
X96250000Y-111940000D02*
X96190000Y-112000000D01*
D60*
X93350000Y-105400000D02*
X93350000Y-104650000D01*
X111525001Y-95825001D02*
X110250000Y-94550000D01*
X110250000Y-94550000D02*
X109950000Y-94550000D01*
X106200000Y-94639998D02*
X107589998Y-93250000D01*
X109950000Y-104350000D02*
X109256885Y-104350000D01*
X108050000Y-93250000D02*
X108950000Y-93250000D01*
D59*
X94775000Y-97500000D02*
X94775000Y-98625000D01*
D60*
X112000000Y-95600000D02*
X111750002Y-95600000D01*
X99250000Y-98750000D02*
X99000000Y-99000000D01*
X109256885Y-104350000D02*
X109000000Y-104606885D01*
X107589998Y-93250000D02*
X108050000Y-93250000D01*
X98750000Y-101250000D02*
X99000000Y-101000000D01*
X110642980Y-97631700D02*
X110642980Y-97342980D01*
X108050000Y-103050000D02*
X108924990Y-103050000D01*
X96975000Y-100250000D02*
X98250000Y-100250000D01*
X96975000Y-97750000D02*
X97476978Y-97750000D01*
D59*
X99075000Y-84925000D02*
X99075000Y-85525000D01*
D60*
X98250000Y-100250000D02*
X99000000Y-101000000D01*
D59*
X100925000Y-88250000D02*
X99950000Y-88250000D01*
X94775000Y-96850319D02*
X95003161Y-96622158D01*
D60*
X111750002Y-95600000D02*
X111525001Y-95825001D01*
X109000000Y-104606885D02*
X109000000Y-105500000D01*
D59*
X106250000Y-100375000D02*
X106250000Y-101426860D01*
X100000000Y-88900000D02*
X100000000Y-91500000D01*
D60*
X102250000Y-97476978D02*
X102199990Y-97526988D01*
X108850000Y-105650000D02*
X109000000Y-105500000D01*
X108924990Y-103050000D02*
X109000000Y-102974990D01*
D59*
X94825000Y-93850000D02*
X93125000Y-93850000D01*
X106275000Y-97300000D02*
X106275000Y-96225000D01*
D60*
X97526988Y-97800010D02*
X97800010Y-97800010D01*
X111525001Y-96648001D02*
X111525001Y-95951999D01*
X109950000Y-106950000D02*
X109150000Y-106950000D01*
X106275000Y-96075000D02*
X106200000Y-96000000D01*
X102250000Y-96975000D02*
X102250000Y-97476978D01*
X101250000Y-98750000D02*
X101000000Y-99000000D01*
X108950000Y-93250000D02*
X112000000Y-90200000D01*
X109950000Y-104350000D02*
X110525000Y-104350000D01*
X111525001Y-95951999D02*
X111525001Y-95825001D01*
D59*
X93225000Y-102500000D02*
X93225000Y-103575000D01*
D60*
X112000000Y-89700000D02*
X112000000Y-88950010D01*
D59*
X99075000Y-85525000D02*
X99875000Y-85525000D01*
D60*
X96975000Y-101250000D02*
X98750000Y-101250000D01*
D59*
X106250000Y-101426860D02*
X106238430Y-101438430D01*
D60*
X109000000Y-107425000D02*
X109775000Y-108200000D01*
X93350000Y-104650000D02*
X94400000Y-103600000D01*
X109150000Y-106950000D02*
X109000000Y-107100000D01*
X112000000Y-95600000D02*
X112000000Y-94950010D01*
D59*
%TO.N,Net-(C3-Pad1)*%
X103800000Y-88275000D02*
X103800000Y-89570102D01*
X103800000Y-88275000D02*
X102300000Y-88275000D01*
X103800000Y-89570102D02*
X104239949Y-90010051D01*
%TO.N,Net-(C4-Pad2)*%
X96175000Y-88250000D02*
X96200000Y-88275000D01*
X96200000Y-89570102D02*
X95760051Y-90010051D01*
X94725000Y-88250000D02*
X96175000Y-88250000D01*
X97525000Y-88250000D02*
X96225000Y-88250000D01*
X96200000Y-88275000D02*
X96200000Y-89570102D01*
X96225000Y-88250000D02*
X96200000Y-88275000D01*
D60*
%TO.N,+3V3*%
X108050000Y-106300000D02*
X109950000Y-106300000D01*
X95950000Y-106247592D02*
X95722582Y-106475010D01*
X95950000Y-105400000D02*
X97175000Y-105400000D01*
X107576408Y-93900000D02*
X107124997Y-94351411D01*
X107190116Y-106300000D02*
X108050000Y-106300000D01*
X91500000Y-106000000D02*
X91750000Y-106000000D01*
X98850000Y-95010732D02*
X98850000Y-95350000D01*
X98499990Y-103907532D02*
X98499990Y-104099990D01*
X100425000Y-93850000D02*
X99401497Y-93850000D01*
X98750000Y-95450000D02*
X98850000Y-95350000D01*
X93685036Y-96614964D02*
X93800000Y-96500000D01*
X91800000Y-104900000D02*
X92138736Y-104561264D01*
X97175000Y-105400000D02*
X97700000Y-105925000D01*
X95622582Y-106475010D02*
X95225010Y-106475010D01*
X107189453Y-96509732D02*
X107050010Y-96649175D01*
X104175000Y-98250000D02*
X104750000Y-98825000D01*
X107050010Y-96649175D02*
X107050010Y-98024990D01*
X98500000Y-104100000D02*
X98500000Y-105900000D01*
X91750000Y-106000000D02*
X91800000Y-105950000D01*
X103025000Y-98250000D02*
X104175000Y-98250000D01*
X107279803Y-103700000D02*
X107238947Y-103740856D01*
X92814964Y-96614964D02*
X93685036Y-96614964D01*
X99300000Y-106025000D02*
X99275000Y-106025000D01*
X98750000Y-103657522D02*
X98503761Y-103903761D01*
X98500000Y-105900000D02*
X98525000Y-105925000D01*
X98503761Y-103903761D02*
X98499990Y-103907532D01*
X95722582Y-106475010D02*
X95225010Y-106475010D01*
X94675000Y-95350000D02*
X94675000Y-95625000D01*
X108050000Y-93900000D02*
X107576408Y-93900000D01*
X98750000Y-96975000D02*
X98750000Y-95450000D01*
X99250000Y-105925000D02*
X99300000Y-105975000D01*
X97700000Y-105925000D02*
X98525000Y-105925000D01*
X107050010Y-98024990D02*
X106250000Y-98825000D01*
X100100000Y-95675000D02*
X100425000Y-95350000D01*
X94675000Y-95625000D02*
X93800000Y-96500000D01*
X100425000Y-93850000D02*
X100425000Y-95350000D01*
X104750000Y-98825000D02*
X106250000Y-98825000D01*
X92138736Y-104561264D02*
X92138736Y-97291192D01*
X92138736Y-97291192D02*
X92814964Y-96614964D01*
X98499990Y-104099990D02*
X98500000Y-104100000D01*
X105702976Y-106700010D02*
X106246541Y-107243575D01*
X98750000Y-103025000D02*
X98750000Y-103657522D01*
X95225010Y-106475010D02*
X92175010Y-106475010D01*
X108050000Y-103700000D02*
X109950000Y-103700000D01*
X108050000Y-103700000D02*
X107279803Y-103700000D01*
X107124997Y-94351411D02*
X107124997Y-94740321D01*
X97700000Y-93600000D02*
X97700000Y-93860732D01*
X100250000Y-95525000D02*
X100425000Y-95350000D01*
X92175010Y-106475010D02*
X91800000Y-106100000D01*
X106246541Y-107243575D02*
X107190116Y-106300000D01*
X98503761Y-103903761D02*
X98500000Y-103907522D01*
X91800000Y-105950000D02*
X91800000Y-104900000D01*
X98525000Y-105925000D02*
X99250000Y-105925000D01*
X108075002Y-93874998D02*
X109924998Y-93874998D01*
X100250000Y-96975000D02*
X100250000Y-95525000D01*
X99401497Y-93850000D02*
X99151497Y-93600000D01*
X91800000Y-106100000D02*
X91800000Y-105950000D01*
X95950000Y-105400000D02*
X95950000Y-106247592D01*
X104000000Y-105975000D02*
X104725010Y-106700010D01*
X104725010Y-106700010D02*
X105702976Y-106700010D01*
X97700000Y-93860732D02*
X98850000Y-95010732D01*
D59*
%TO.N,Net-(C8-Pad2)*%
X93075000Y-89400000D02*
X93100000Y-89425000D01*
X93075000Y-88250000D02*
X93075000Y-89400000D01*
%TO.N,Net-(C8-Pad1)*%
X93100000Y-90975000D02*
X93100000Y-92075000D01*
D60*
X95600000Y-93336410D02*
X95313580Y-93049990D01*
D59*
X93100000Y-92075000D02*
X93075000Y-92100000D01*
D60*
X97719999Y-96444999D02*
X95971995Y-96444999D01*
X95600000Y-96073004D02*
X95600000Y-93336410D01*
X94024990Y-93049990D02*
X93075000Y-92100000D01*
X95313580Y-93049990D02*
X94024990Y-93049990D01*
X97750000Y-96975000D02*
X97750000Y-96475000D01*
X97750000Y-96475000D02*
X97719999Y-96444999D01*
X95971995Y-96444999D02*
X95600000Y-96073004D01*
%TO.N,+5V*%
X103025000Y-97750000D02*
X104275000Y-97750000D01*
X110114140Y-95800000D02*
X110688884Y-96374744D01*
D59*
X104725000Y-97300000D02*
X104725000Y-96225000D01*
D60*
X104275000Y-97750000D02*
X104725000Y-97300000D01*
D59*
X98750000Y-108900000D02*
X98750000Y-111980000D01*
D60*
X104725000Y-96225000D02*
X104725000Y-94749680D01*
X109825000Y-95800000D02*
X110114140Y-95800000D01*
X104725000Y-94749680D02*
X105903346Y-93571334D01*
D59*
X98750000Y-111980000D02*
X98730000Y-112000000D01*
D60*
%TO.N,Net-(C15-Pad1)*%
X93275001Y-99925001D02*
X93200000Y-99850000D01*
X96975000Y-99250000D02*
X96290568Y-99250000D01*
D59*
X93225000Y-98625000D02*
X93200000Y-98650000D01*
D60*
X96290568Y-99250000D02*
X95615567Y-99925001D01*
D59*
X93225000Y-97500000D02*
X93225000Y-98625000D01*
D60*
X93200000Y-99850000D02*
X93200000Y-98650000D01*
X95615567Y-99925001D02*
X93275001Y-99925001D01*
%TO.N,Net-(C16-Pad1)*%
X96426978Y-99750000D02*
X94826978Y-101350000D01*
X96975000Y-99750000D02*
X96426978Y-99750000D01*
D59*
X94775000Y-102500000D02*
X94775000Y-101375000D01*
X94775000Y-101375000D02*
X94800000Y-101350000D01*
D60*
X94826978Y-101350000D02*
X94800000Y-101350000D01*
%TO.N,Net-(L2-Pad2)*%
X98803496Y-94327817D02*
X98425001Y-93949322D01*
X99080651Y-94327817D02*
X98803496Y-94327817D01*
X98425001Y-92974999D02*
X98750000Y-92650000D01*
X99649990Y-96049990D02*
X99649990Y-94897156D01*
X99750000Y-96975000D02*
X99750000Y-96150000D01*
X98750000Y-92650000D02*
X98750000Y-92400000D01*
D59*
X98750000Y-92400000D02*
X98150000Y-92400000D01*
D60*
X99649990Y-94897156D02*
X99080651Y-94327817D01*
X99750000Y-96150000D02*
X99649990Y-96049990D01*
D59*
X98150000Y-92400000D02*
X97739949Y-91989949D01*
D60*
X98425001Y-93949322D02*
X98425001Y-92974999D01*
%TO.N,Net-(L1-Pad1)*%
X100750000Y-96426978D02*
X100750000Y-96975000D01*
D59*
X101250000Y-92400000D02*
X101850000Y-92400000D01*
D60*
X101200000Y-95976978D02*
X101200000Y-92450000D01*
D59*
X101850000Y-92400000D02*
X102260051Y-91989949D01*
D60*
X101200000Y-95976978D02*
X100750000Y-96426978D01*
%TO.N,Net-(D1-Pad2)*%
X109950000Y-101925000D02*
X109825000Y-101800000D01*
X109950000Y-103050000D02*
X109950000Y-101925000D01*
X112000000Y-98400000D02*
X112000000Y-99049990D01*
X109825000Y-101800000D02*
X110800000Y-101800000D01*
X110800000Y-101800000D02*
X110900000Y-101900000D01*
%TO.N,Net-(D2-Pad2)*%
X110908189Y-98391811D02*
X112000000Y-97300000D01*
X109825000Y-100300000D02*
X110908189Y-99216811D01*
X110908189Y-99216811D02*
X110908189Y-98391811D01*
X111000000Y-92200000D02*
X112000000Y-92200000D01*
X109950000Y-93250000D02*
X111000000Y-92200000D01*
X112000000Y-92200000D02*
X112000000Y-93049990D01*
%TO.N,Net-(D3-Pad2)*%
X108050000Y-94550000D02*
X108850000Y-94550000D01*
X108850000Y-94550000D02*
X108900000Y-94600000D01*
X109099990Y-98074990D02*
X109099990Y-95024990D01*
X108625000Y-94550000D02*
X108050000Y-94550000D01*
X109099990Y-95024990D02*
X108625000Y-94550000D01*
X112000000Y-86400000D02*
X112000000Y-87049990D01*
X109825000Y-98800000D02*
X109099990Y-98074990D01*
%TO.N,Net-(R5-Pad1)*%
X108175000Y-95800000D02*
X108175000Y-97300000D01*
X104200000Y-99600000D02*
X106727834Y-99600000D01*
X103025000Y-98750000D02*
X103573022Y-98750000D01*
X103573022Y-98750000D02*
X103949990Y-99126968D01*
X106727834Y-99600000D02*
X107050010Y-99277824D01*
X107050010Y-98707512D02*
X108175000Y-97582522D01*
X103949990Y-99349990D02*
X104200000Y-99600000D01*
X108175000Y-97582522D02*
X108175000Y-97300000D01*
X103949990Y-99126968D02*
X103949990Y-99349990D01*
X107050010Y-99277824D02*
X107050010Y-98707512D01*
D59*
%TO.N,Net-(C1-Pad1)*%
X102475000Y-85475000D02*
X102475000Y-86125000D01*
X103800000Y-85575000D02*
X103800000Y-86725000D01*
X103800000Y-85575000D02*
X102575000Y-85575000D01*
X102575000Y-85575000D02*
X102475000Y-85475000D01*
X102475000Y-84925000D02*
X102475000Y-85475000D01*
%TO.N,Net-(C2-Pad2)*%
X96200000Y-85575000D02*
X96200000Y-86725000D01*
X97475000Y-85575000D02*
X97525000Y-85525000D01*
X96200000Y-85575000D02*
X97475000Y-85575000D01*
X97525000Y-84925000D02*
X97525000Y-85525000D01*
X97525000Y-85525000D02*
X97525000Y-86125000D01*
D60*
%TO.N,Net-(J1-Pad2)*%
X105925000Y-105975000D02*
X106700000Y-105200000D01*
X105600000Y-105975000D02*
X105925000Y-105975000D01*
%TO.N,Net-(J2-Pad3)*%
X100825000Y-108475000D02*
X101250000Y-108900000D01*
X101250000Y-111980000D02*
X101270000Y-112000000D01*
X100825000Y-105900000D02*
X100825000Y-108475000D01*
X101250000Y-108900000D02*
X101250000Y-111980000D01*
%TO.N,Net-(R10-Pad2)*%
X99250000Y-104275000D02*
X99300000Y-104325000D01*
X87514998Y-103250000D02*
X86250000Y-103250000D01*
X86250000Y-96750000D02*
X86250000Y-103250000D01*
X99300000Y-104600000D02*
X100100000Y-105400000D01*
X100100000Y-106692478D02*
X99862208Y-106930270D01*
X91195268Y-106930270D02*
X87514998Y-103250000D01*
X99250000Y-103025000D02*
X99250000Y-104275000D01*
X99300000Y-104325000D02*
X99300000Y-104600000D01*
X100100000Y-105400000D02*
X100100000Y-106692478D01*
X99862208Y-106930270D02*
X91195268Y-106930270D01*
%TO.N,Net-(J2-Pad4)*%
X103200000Y-105125000D02*
X103200000Y-106500000D01*
X103200000Y-106500000D02*
X103400010Y-106700010D01*
X103400010Y-106700010D02*
X103972440Y-106700010D01*
X104697441Y-107425011D02*
X105263126Y-107425011D01*
X103972440Y-106700010D02*
X104697441Y-107425011D01*
X103750000Y-108900000D02*
X103750000Y-111940000D01*
X103750000Y-111940000D02*
X103810000Y-112000000D01*
X102475000Y-104400000D02*
X103200000Y-105125000D01*
%TO.N,Net-(JP1-Pad2)*%
X96000000Y-101176978D02*
X96426978Y-100750000D01*
X95574998Y-103251998D02*
X96000000Y-102826996D01*
X96000000Y-102826996D02*
X96000000Y-101176978D01*
X96426978Y-100750000D02*
X96975000Y-100750000D01*
X95574998Y-103451998D02*
X95574998Y-103251998D01*
X94650000Y-105400000D02*
X94650000Y-104376996D01*
X94650000Y-104376996D02*
X95574998Y-103451998D01*
%TO.N,Net-(C10-Pad1)*%
X97526474Y-94323617D02*
X98075000Y-94872142D01*
X98075000Y-96025000D02*
X98250000Y-96200000D01*
X96050010Y-93150010D02*
X96050010Y-93525010D01*
X98075000Y-94872142D02*
X98075000Y-96025000D01*
X94725000Y-92200000D02*
X95124980Y-92599980D01*
X98250000Y-96200000D02*
X98250000Y-96975000D01*
X96375000Y-93850000D02*
X96848617Y-94323617D01*
X96848617Y-94323617D02*
X97526474Y-94323617D01*
X95499981Y-92599981D02*
X96050010Y-93150010D01*
X95124980Y-92599980D02*
X95499981Y-92599981D01*
%TO.N,Net-(D5-Pad3)*%
X107586948Y-104465857D02*
X105740857Y-104465857D01*
X102250000Y-103525000D02*
X102324990Y-103599990D01*
X105740857Y-104465857D02*
X105600000Y-104325000D01*
X104000000Y-104325000D02*
X105600000Y-104325000D01*
X102250000Y-103025000D02*
X102250000Y-103525000D01*
X103174990Y-103599990D02*
X103900000Y-104325000D01*
X107702805Y-104350000D02*
X107586948Y-104465857D01*
X108050000Y-104350000D02*
X107702805Y-104350000D01*
X102324990Y-103599990D02*
X103174990Y-103599990D01*
%TO.N,Net-(D6-Pad6)*%
X107750000Y-106950000D02*
X106549979Y-108150021D01*
X102475000Y-106875000D02*
X102475000Y-105900000D01*
X108050000Y-106950000D02*
X107750000Y-106950000D01*
X103986715Y-107400000D02*
X103000000Y-107400000D01*
X106549979Y-108150021D02*
X104736736Y-108150021D01*
X101749990Y-104107512D02*
X101749990Y-104971102D01*
X101250000Y-103025000D02*
X101250000Y-103607522D01*
X101749990Y-104971102D02*
X102475000Y-105696112D01*
X104736736Y-108150021D02*
X103986715Y-107400000D01*
X101250000Y-103607522D02*
X101749990Y-104107512D01*
X103000000Y-107400000D02*
X102475000Y-106875000D01*
X102475000Y-105696112D02*
X102475000Y-105900000D01*
%TO.N,Net-(R7-Pad1)*%
X105636411Y-103136411D02*
X106838589Y-103136411D01*
X103025000Y-102250000D02*
X104750000Y-102250000D01*
X104750000Y-102250000D02*
X105636411Y-103136411D01*
X106838589Y-103136411D02*
X108175000Y-101800000D01*
%TO.N,Net-(R8-Pad1)*%
X108175000Y-100300000D02*
X107449990Y-101025010D01*
X104886410Y-101750000D02*
X103025000Y-101750000D01*
X106670385Y-102668206D02*
X105804616Y-102668206D01*
X107449990Y-101025010D02*
X107449990Y-101888600D01*
X105804616Y-102668206D02*
X104886410Y-101750000D01*
X107449990Y-101888600D02*
X106670385Y-102668206D01*
%TO.N,Net-(R9-Pad1)*%
X106999979Y-100838610D02*
X107075010Y-100763579D01*
X106483985Y-102218195D02*
X106999979Y-101702201D01*
X107075010Y-99899990D02*
X108175000Y-98800000D01*
X106999979Y-101702201D02*
X106999979Y-100838610D01*
X105022821Y-101250000D02*
X105991016Y-102218195D01*
X103025000Y-101250000D02*
X105022821Y-101250000D01*
X107075010Y-100763579D02*
X107075010Y-99899990D01*
X105991016Y-102218195D02*
X106483985Y-102218195D01*
X106558629Y-102143551D02*
X106999979Y-101702201D01*
%TO.N,Net-(C19-Pad1)*%
X100750000Y-104325000D02*
X100825000Y-104400000D01*
X103245999Y-113175001D02*
X104475001Y-113175001D01*
X110700000Y-108527834D02*
X110227824Y-109000010D01*
X104475001Y-113175001D02*
X105200000Y-112450002D01*
X100825000Y-104400000D02*
X100825000Y-104682522D01*
X109025010Y-109000010D02*
X108225000Y-108200000D01*
X105200000Y-110200000D02*
X107200000Y-108200000D01*
X109950000Y-105650000D02*
X110525000Y-105650000D01*
X102445001Y-112374003D02*
X103245999Y-113175001D01*
X110700000Y-105825000D02*
X110700000Y-108527834D01*
X107200000Y-108200000D02*
X108225000Y-108200000D01*
X101749990Y-105607512D02*
X101749990Y-107663275D01*
X100825000Y-104682522D02*
X101749990Y-105607512D01*
X100750000Y-103025000D02*
X100750000Y-104325000D01*
X102445001Y-108358286D02*
X102445001Y-112374003D01*
X101749990Y-107663275D02*
X102445001Y-108358286D01*
X105200000Y-112450002D02*
X105200000Y-110200000D01*
X110525000Y-105650000D02*
X110700000Y-105825000D01*
X110227824Y-109000010D02*
X109025010Y-109000010D01*
D59*
%TO.N,Net-(A1-Pad1)*%
X102425000Y-83925000D02*
X102000000Y-83500000D01*
X103800000Y-83925000D02*
X102425000Y-83925000D01*
X102000000Y-83500000D02*
X102000000Y-83000000D01*
%TO.N,Net-(A1-Pad3)*%
X96200000Y-83925000D02*
X97575000Y-83925000D01*
X97575000Y-83925000D02*
X98000000Y-83500000D01*
X98000000Y-83500000D02*
X98000000Y-83000000D01*
%TD*%
M02*
