%TF.GenerationSoftware,KiCad,Pcbnew,(6.0.2-0)*%
%TF.CreationDate,2022-02-18T14:13:14+00:00*%
%TF.ProjectId,PN532,504e3533-322e-46b6-9963-61645f706362,7*%
%TF.SameCoordinates,Original*%
%TF.FileFunction,Copper,L1,Top*%
%TF.FilePolarity,Positive*%
%FSLAX46Y46*%
G04 Gerber Fmt 4.6, Leading zero omitted, Abs format (unit mm)*
G04 Created by KiCad (PCBNEW (6.0.2-0)) date 2022-02-18 14:13:14*
%MOMM*%
%LPD*%
G01*
G04 APERTURE LIST*
G04 Aperture macros list*
%AMRoundRect*
0 Rectangle with rounded corners*
0 $1 Rounding radius*
0 $2 $3 $4 $5 $6 $7 $8 $9 X,Y pos of 4 corners*
0 Add a 4 corners polygon primitive as box body*
4,1,4,$2,$3,$4,$5,$6,$7,$8,$9,$2,$3,0*
0 Add four circle primitives for the rounded corners*
1,1,$1+$1,$2,$3*
1,1,$1+$1,$4,$5*
1,1,$1+$1,$6,$7*
1,1,$1+$1,$8,$9*
0 Add four rect primitives between the rounded corners*
20,1,$1+$1,$2,$3,$4,$5,0*
20,1,$1+$1,$4,$5,$6,$7,0*
20,1,$1+$1,$6,$7,$8,$9,0*
20,1,$1+$1,$8,$9,$2,$3,0*%
%AMFreePoly0*
4,1,6,2.200000,-2.200000,-2.200000,-2.200000,-2.200000,1.800000,-1.800000,2.200000,2.200000,2.200000,2.200000,-2.200000,2.200000,-2.200000,$1*%
%AMFreePoly1*
4,1,22,0.550000,-0.750000,0.000000,-0.750000,0.000000,-0.745033,-0.079941,-0.743568,-0.215256,-0.701293,-0.333266,-0.622738,-0.424486,-0.514219,-0.481581,-0.384460,-0.499164,-0.250000,-0.500000,-0.250000,-0.500000,0.250000,-0.499164,0.250000,-0.499963,0.256109,-0.478152,0.396186,-0.417904,0.524511,-0.324060,0.630769,-0.204165,0.706417,-0.067858,0.745374,0.000000,0.744959,0.000000,0.750000,
0.550000,0.750000,0.550000,-0.750000,0.550000,-0.750000,$1*%
%AMFreePoly2*
4,1,20,0.000000,0.744959,0.073905,0.744508,0.209726,0.703889,0.328688,0.626782,0.421226,0.519385,0.479903,0.390333,0.500000,0.250000,0.500000,-0.250000,0.499851,-0.262216,0.476331,-0.402017,0.414519,-0.529596,0.319384,-0.634700,0.198574,-0.708877,0.061801,-0.746166,0.000000,-0.745033,0.000000,-0.750000,-0.550000,-0.750000,-0.550000,0.750000,0.000000,0.750000,0.000000,0.744959,
0.000000,0.744959,$1*%
%AMFreePoly3*
4,1,425,1.095671,0.230970,1.176777,0.176777,1.230970,0.095671,1.250000,0.000000,1.230970,-0.095671,1.176777,-0.176777,1.095671,-0.230970,1.000000,-0.250000,-12.000000,-0.250000,-12.005896,-0.248827,-12.011784,-0.250009,-12.031787,-0.246066,-12.515420,-0.264968,-13.016178,-0.322149,-13.511279,-0.416510,-13.997965,-0.547525,-14.473528,-0.714464,-14.935319,-0.916399,-15.380767,-1.152205,-15.807393,-1.420568,
-16.212820,-1.719996,-16.594792,-2.048821,-16.951183,-2.405212,-17.280007,-2.787185,-17.579434,-3.192613,-17.847798,-3.619239,-18.083603,-4.064687,-18.285537,-4.526478,-18.452476,-5.002041,-18.583490,-5.488728,-18.677850,-5.983829,-18.735030,-6.484587,-18.753932,-6.968220,-18.749989,-6.988223,-18.751171,-6.994112,-18.750000,-7.000000,-18.750000,-31.000000,-18.751173,-31.005896,-18.749991,-31.011784,-18.753934,-31.031787,
-18.735032,-31.515420,-18.677851,-32.016178,-18.583490,-32.511279,-18.452475,-32.997965,-18.285536,-33.473528,-18.083601,-33.935319,-17.847795,-34.380767,-17.579432,-34.807393,-17.280004,-35.212820,-16.951179,-35.594792,-16.594788,-35.951183,-16.212815,-36.280007,-15.807387,-36.579434,-15.380761,-36.847798,-14.935313,-37.083603,-14.473522,-37.285537,-13.997959,-37.452476,-13.511272,-37.583490,-13.016171,-37.677850,-12.515413,-37.735030,
-12.031780,-37.753932,-12.011777,-37.749989,-12.005888,-37.751171,-12.000000,-37.750000,12.000000,-37.750000,12.005896,-37.751173,12.011784,-37.749991,12.031787,-37.753934,12.515420,-37.735032,13.016178,-37.677851,13.511279,-37.583490,13.997965,-37.452475,14.473528,-37.285536,14.935319,-37.083601,15.380767,-36.847795,15.807393,-36.579432,16.212820,-36.280004,16.594792,-35.951179,16.951183,-35.594788,17.280007,-35.212815,
17.579434,-34.807387,17.847798,-34.380761,18.083603,-33.935313,18.285537,-33.473522,18.452476,-32.997959,18.583490,-32.511272,18.677850,-32.016171,18.735030,-31.515413,18.753932,-31.031780,18.749989,-31.011777,18.751171,-31.005888,18.750000,-31.000000,18.750000,-7.000000,18.751997,-6.989962,18.749964,-6.979926,18.753605,-6.961282,18.735167,-6.529488,18.680732,-6.081954,18.591429,-5.640055,18.467806,-5.206503,
18.310621,-4.783960,18.120841,-4.375019,17.899628,-3.982189,17.648342,-3.607883,17.368524,-3.254398,17.061893,-2.923903,16.730329,-2.618427,16.375869,-2.339845,16.000688,-2.089867,15.607089,-1.870027,15.197488,-1.681674,14.774398,-1.525966,14.340418,-1.403857,13.898210,-1.316097,13.450488,-1.263224,13.018632,-1.246294,13.000002,-1.250000,-12.000000,-1.250000,-12.018623,-1.246296,-12.451488,-1.263303,
-12.900192,-1.316410,-13.343346,-1.404559,-13.778218,-1.527206,-14.202127,-1.683594,-14.612459,-1.872759,-15.006684,-2.093536,-15.382372,-2.344563,-15.737207,-2.624292,-16.069000,-2.930998,-16.375707,-3.262792,-16.655436,-3.617626,-16.906463,-3.993314,-17.127240,-4.387539,-17.316405,-4.797871,-17.472794,-5.221780,-17.595440,-5.656652,-17.683589,-6.099806,-17.736697,-6.548510,-17.753704,-6.981375,-17.750000,-6.999998,
-17.750000,-31.000000,-17.753704,-31.018623,-17.736697,-31.451488,-17.683590,-31.900192,-17.595441,-32.343346,-17.472794,-32.778218,-17.316406,-33.202127,-17.127241,-33.612459,-16.906464,-34.006684,-16.655437,-34.382372,-16.375708,-34.737207,-16.069002,-35.069000,-15.737208,-35.375707,-15.382374,-35.655436,-15.006686,-35.906463,-14.612461,-36.127240,-14.202129,-36.316405,-13.778220,-36.472794,-13.343348,-36.595440,-12.900194,-36.683589,
-12.451490,-36.736697,-12.018625,-36.753704,-12.000002,-36.750000,12.000000,-36.750000,12.018623,-36.753704,12.451488,-36.736697,12.900192,-36.683590,13.343346,-36.595441,13.778218,-36.472794,14.202127,-36.316406,14.612459,-36.127241,15.006684,-35.906464,15.382372,-35.655437,15.737207,-35.375708,16.069000,-35.069002,16.375707,-34.737208,16.655436,-34.382374,16.906463,-34.006686,17.127240,-33.612461,17.316405,-33.202129,
17.472794,-32.778220,17.595440,-32.343348,17.683589,-31.900194,17.736697,-31.451490,17.753704,-31.018625,17.750000,-31.000002,17.750000,-7.000000,17.752475,-6.987560,17.749934,-6.975128,17.753550,-6.956436,17.734409,-6.563116,17.678727,-6.154416,17.587831,-5.752079,17.462406,-5.359135,17.303395,-4.978541,17.111995,-4.613161,16.889648,-4.265745,16.638025,-3.938908,16.359021,-3.635110,16.054736,-3.356637,
15.727461,-3.105585,15.379657,-2.883844,15.013944,-2.693082,14.633072,-2.534736,14.239910,-2.409996,13.837416,-2.319803,13.428619,-2.264834,13.035263,-2.246380,13.016580,-2.250028,13.008295,-2.248350,13.000000,-2.250000,2.000000,-2.250000,1.904329,-2.230970,1.823223,-2.176777,1.769030,-2.095671,1.750000,-2.000000,1.769030,-1.904329,1.823223,-1.823223,1.904329,-1.769030,2.000000,-1.750000,
13.000000,-1.750000,13.009160,-1.751822,13.018326,-1.750032,13.449399,-1.769270,13.877437,-1.823843,14.299548,-1.913383,14.712880,-2.037285,15.114640,-2.194711,15.502116,-2.384600,15.872688,-2.605667,16.223855,-2.856419,16.553243,-3.135163,16.858628,-3.440015,17.137946,-3.768917,17.389311,-4.119645,17.611025,-4.489831,17.801589,-4.876975,17.959717,-5.278460,18.084340,-5.691575,18.174617,-6.113528,
18.229937,-6.541470,18.249927,-6.972504,18.249928,-6.972510,18.247267,-6.986262,18.250000,-7.000000,18.250000,-31.000002,18.232524,-31.467065,18.180193,-31.931516,18.093299,-32.390758,17.972330,-32.842222,17.817961,-33.283383,17.631055,-33.711775,17.412658,-34.125001,17.163992,-34.520752,16.886446,-34.896812,16.581574,-35.251081,16.251079,-35.581575,15.896811,-35.886448,15.520750,-36.163993,15.125000,-36.412659,
14.711773,-36.631056,14.283381,-36.817961,13.842220,-36.972330,13.390756,-37.093300,12.931514,-37.180193,12.467063,-37.232524,12.000000,-37.250000,-12.000002,-37.250000,-12.467065,-37.232524,-12.931516,-37.180193,-13.390758,-37.093299,-13.842222,-36.972330,-14.283383,-36.817961,-14.711775,-36.631055,-15.125001,-36.412658,-15.520752,-36.163992,-15.896812,-35.886446,-16.251081,-35.581574,-16.581575,-35.251079,-16.886448,-34.896811,
-17.163993,-34.520750,-17.412659,-34.125000,-17.631056,-33.711773,-17.817961,-33.283381,-17.972330,-32.842220,-18.093300,-32.390756,-18.180193,-31.931514,-18.232524,-31.467063,-18.250000,-31.000000,-18.250000,-6.999998,-18.232524,-6.532935,-18.180193,-6.068484,-18.093299,-5.609242,-17.972330,-5.157778,-17.817961,-4.716617,-17.631055,-4.288225,-17.412658,-3.874999,-17.163992,-3.479248,-16.886446,-3.103188,-16.581574,-2.748919,
-16.251079,-2.418425,-15.896811,-2.113552,-15.520750,-1.836007,-15.125000,-1.587341,-14.711773,-1.368944,-14.283381,-1.182039,-13.842220,-1.027670,-13.390756,-0.906700,-12.931514,-0.819807,-12.467063,-0.767476,-12.000000,-0.750000,13.000002,-0.750000,13.466029,-0.767399,13.929461,-0.819498,14.387718,-0.906008,14.838250,-1.026446,15.278546,-1.180143,15.706157,-1.366243,16.118700,-1.583708,16.513881,-1.831330,
16.889497,-2.107728,17.243458,-2.411365,17.573793,-2.740549,17.878664,-3.093449,18.156372,-3.468098,18.405371,-3.862411,18.624276,-4.274193,18.811867,-4.701152,18.967100,-5.140909,19.089110,-5.591017,19.177219,-6.048969,19.230936,-6.512217,19.249961,-6.978180,19.249960,-6.978180,19.247830,-6.989089,19.250000,-7.000000,19.250000,-31.000000,19.248742,-31.006323,19.249989,-31.012649,19.249988,-31.012655,
19.230697,-31.528678,19.174724,-32.042025,19.082353,-32.550085,18.954051,-33.050282,18.790471,-33.540077,18.592441,-34.016986,18.360967,-34.478589,18.097223,-34.922545,17.802547,-35.346602,17.478433,-35.748607,17.126526,-36.126522,16.748612,-36.478429,16.346607,-36.802543,15.922551,-37.097220,15.478596,-37.360965,15.016993,-37.592439,14.540084,-37.790470,14.050289,-37.954051,13.550092,-38.082353,13.042032,-38.174725,
12.528685,-38.230699,12.012662,-38.249990,12.012656,-38.249991,12.006322,-38.248743,12.000000,-38.250000,-12.000000,-38.250000,-12.006323,-38.248742,-12.012649,-38.249989,-12.012655,-38.249988,-12.528678,-38.230697,-13.042025,-38.174724,-13.550085,-38.082353,-14.050282,-37.954051,-14.540077,-37.790471,-15.016986,-37.592441,-15.478589,-37.360967,-15.922545,-37.097223,-16.346602,-36.802547,-16.748607,-36.478433,-17.126522,-36.126526,
-17.478429,-35.748612,-17.802543,-35.346607,-18.097220,-34.922551,-18.360965,-34.478596,-18.592439,-34.016993,-18.790470,-33.540084,-18.954051,-33.050289,-19.082353,-32.550092,-19.174725,-32.042032,-19.230699,-31.528685,-19.249990,-31.012662,-19.249991,-31.012656,-19.248743,-31.006322,-19.250000,-31.000000,-19.250000,-7.000000,-19.248742,-6.993677,-19.249989,-6.987351,-19.249988,-6.987345,-19.230697,-6.471322,-19.174724,-5.957975,
-19.082353,-5.449915,-18.954051,-4.949718,-18.790471,-4.459923,-18.592441,-3.983014,-18.360967,-3.521411,-18.097223,-3.077455,-17.802547,-2.653398,-17.478433,-2.251393,-17.126526,-1.873478,-16.748612,-1.521571,-16.346607,-1.197457,-15.922551,-0.902780,-15.478596,-0.639035,-15.016993,-0.407561,-14.540084,-0.209530,-14.050289,-0.045949,-13.550092,0.082353,-13.042032,0.174725,-12.528685,0.230699,-12.012662,0.249990,
-12.012656,0.249991,-12.006322,0.248743,-12.000000,0.250000,1.000000,0.250000,1.095671,0.230970,1.095671,0.230970,$1*%
%AMFreePoly4*
4,1,19,1.095671,0.230970,1.176777,0.176777,1.230970,0.095671,1.250000,0.000000,1.230970,-0.095671,1.176777,-0.176777,1.095671,-0.230970,1.000000,-0.250000,0.000000,-0.250000,-0.095671,-0.230970,-0.176777,-0.176777,-0.230970,-0.095671,-0.250000,0.000000,-0.230970,0.095671,-0.176777,0.176777,-0.095671,0.230970,0.000000,0.250000,1.000000,0.250000,1.095671,0.230970,1.095671,0.230970,
$1*%
G04 Aperture macros list end*
%ADD10C,0.100000*%
%TA.AperFunction,NonConductor*%
%ADD11C,0.100000*%
%TD*%
%TA.AperFunction,EtchedComponent*%
%ADD12C,0.080000*%
%TD*%
%TA.AperFunction,EtchedComponent*%
%ADD13C,0.250000*%
%TD*%
%TA.AperFunction,SMDPad,CuDef*%
%ADD14R,1.150000X1.900000*%
%TD*%
%TA.AperFunction,ComponentPad*%
%ADD15C,1.820000*%
%TD*%
%TA.AperFunction,SMDPad,CuDef*%
%ADD16RoundRect,0.225000X0.575000X-0.225000X0.575000X0.225000X-0.575000X0.225000X-0.575000X-0.225000X0*%
%TD*%
%TA.AperFunction,SMDPad,CuDef*%
%ADD17R,1.300000X2.000000*%
%TD*%
%TA.AperFunction,SMDPad,CuDef*%
%ADD18RoundRect,0.225000X-0.225000X-0.250000X0.225000X-0.250000X0.225000X0.250000X-0.225000X0.250000X0*%
%TD*%
%TA.AperFunction,SMDPad,CuDef*%
%ADD19RoundRect,0.225000X0.250000X-0.225000X0.250000X0.225000X-0.250000X0.225000X-0.250000X-0.225000X0*%
%TD*%
%TA.AperFunction,SMDPad,CuDef*%
%ADD20RoundRect,0.200000X-0.200000X-0.275000X0.200000X-0.275000X0.200000X0.275000X-0.200000X0.275000X0*%
%TD*%
%TA.AperFunction,SMDPad,CuDef*%
%ADD21RoundRect,0.225000X-0.250000X0.225000X-0.250000X-0.225000X0.250000X-0.225000X0.250000X0.225000X0*%
%TD*%
%TA.AperFunction,SMDPad,CuDef*%
%ADD22RoundRect,0.200000X0.275000X-0.200000X0.275000X0.200000X-0.275000X0.200000X-0.275000X-0.200000X0*%
%TD*%
%TA.AperFunction,SMDPad,CuDef*%
%ADD23RoundRect,0.062500X-0.062500X0.287500X-0.062500X-0.287500X0.062500X-0.287500X0.062500X0.287500X0*%
%TD*%
%TA.AperFunction,SMDPad,CuDef*%
%ADD24RoundRect,0.062500X-0.287500X0.062500X-0.287500X-0.062500X0.287500X-0.062500X0.287500X0.062500X0*%
%TD*%
%TA.AperFunction,SMDPad,CuDef*%
%ADD25FreePoly0,270.000000*%
%TD*%
%TA.AperFunction,ComponentPad*%
%ADD26C,0.350000*%
%TD*%
%TA.AperFunction,SMDPad,CuDef*%
%ADD27RoundRect,0.225000X0.225000X0.250000X-0.225000X0.250000X-0.225000X-0.250000X0.225000X-0.250000X0*%
%TD*%
%TA.AperFunction,ComponentPad*%
%ADD28R,1.700000X1.700000*%
%TD*%
%TA.AperFunction,ComponentPad*%
%ADD29O,1.700000X1.700000*%
%TD*%
%TA.AperFunction,SMDPad,CuDef*%
%ADD30RoundRect,0.200000X-0.275000X0.200000X-0.275000X-0.200000X0.275000X-0.200000X0.275000X0.200000X0*%
%TD*%
%TA.AperFunction,ComponentPad*%
%ADD31RoundRect,0.250000X-0.600000X-0.675000X0.600000X-0.675000X0.600000X0.675000X-0.600000X0.675000X0*%
%TD*%
%TA.AperFunction,ComponentPad*%
%ADD32O,1.700000X1.850000*%
%TD*%
%TA.AperFunction,ComponentPad*%
%ADD33C,1.200000*%
%TD*%
%TA.AperFunction,SMDPad,CuDef*%
%ADD34FreePoly1,0.000000*%
%TD*%
%TA.AperFunction,SMDPad,CuDef*%
%ADD35R,1.000000X1.500000*%
%TD*%
%TA.AperFunction,SMDPad,CuDef*%
%ADD36FreePoly2,0.000000*%
%TD*%
%TA.AperFunction,SMDPad,CuDef*%
%ADD37RoundRect,0.200000X0.200000X0.275000X-0.200000X0.275000X-0.200000X-0.275000X0.200000X-0.275000X0*%
%TD*%
%TA.AperFunction,SMDPad,CuDef*%
%ADD38RoundRect,0.166600X0.636396X-0.895763X0.895763X-0.636396X-0.636396X0.895763X-0.895763X0.636396X0*%
%TD*%
%TA.AperFunction,SMDPad,CuDef*%
%ADD39RoundRect,0.242760X0.321734X-0.699668X0.699668X-0.321734X-0.321734X0.699668X-0.699668X0.321734X0*%
%TD*%
%TA.AperFunction,SMDPad,CuDef*%
%ADD40RoundRect,0.166600X-0.895763X-0.636396X-0.636396X-0.895763X0.895763X0.636396X0.636396X0.895763X0*%
%TD*%
%TA.AperFunction,SMDPad,CuDef*%
%ADD41RoundRect,0.242760X-0.699668X-0.321734X-0.321734X-0.699668X0.699668X0.321734X0.321734X0.699668X0*%
%TD*%
%TA.AperFunction,SMDPad,CuDef*%
%ADD42R,0.650000X0.400000*%
%TD*%
%TA.AperFunction,SMDPad,CuDef*%
%ADD43R,1.400000X0.200000*%
%TD*%
%TA.AperFunction,SMDPad,CuDef*%
%ADD44R,0.200000X0.200000*%
%TD*%
%TA.AperFunction,SMDPad,CuDef*%
%ADD45R,0.200000X0.400000*%
%TD*%
%TA.AperFunction,SMDPad,CuDef*%
%ADD46R,0.200000X1.200000*%
%TD*%
%TA.AperFunction,SMDPad,CuDef*%
%ADD47R,0.600000X0.600000*%
%TD*%
%TA.AperFunction,SMDPad,CuDef*%
%ADD48R,0.400000X0.200000*%
%TD*%
%TA.AperFunction,SMDPad,CuDef*%
%ADD49R,0.200000X0.600000*%
%TD*%
%TA.AperFunction,SMDPad,CuDef*%
%ADD50R,1.000000X0.200000*%
%TD*%
%TA.AperFunction,SMDPad,CuDef*%
%ADD51R,0.600000X0.200000*%
%TD*%
%TA.AperFunction,SMDPad,CuDef*%
%ADD52R,0.800000X0.200000*%
%TD*%
%TA.AperFunction,SMDPad,CuDef*%
%ADD53R,0.400000X0.600000*%
%TD*%
%TA.AperFunction,SMDPad,CuDef*%
%ADD54R,0.200000X0.800000*%
%TD*%
%TA.AperFunction,ComponentPad*%
%ADD55C,0.600000*%
%TD*%
%TA.AperFunction,SMDPad,CuDef*%
%ADD56FreePoly3,0.000000*%
%TD*%
%TA.AperFunction,SMDPad,CuDef*%
%ADD57FreePoly4,0.000000*%
%TD*%
%TA.AperFunction,SMDPad,CuDef*%
%ADD58R,1.500000X0.500000*%
%TD*%
%TA.AperFunction,ViaPad*%
%ADD59C,0.800000*%
%TD*%
%TA.AperFunction,Conductor*%
%ADD60C,0.500000*%
%TD*%
%TA.AperFunction,Conductor*%
%ADD61C,0.250000*%
%TD*%
G04 APERTURE END LIST*
D10*
%TO.C,U2*%
D11*
X86971428Y-113973809D02*
X86995238Y-113950000D01*
X87042857Y-113926190D01*
X87161904Y-113926190D01*
X87209523Y-113950000D01*
X87233333Y-113973809D01*
X87257142Y-114021428D01*
X87257142Y-114069047D01*
X87233333Y-114140476D01*
X86947619Y-114426190D01*
X87257142Y-114426190D01*
X87566666Y-113926190D02*
X87614285Y-113926190D01*
X87661904Y-113950000D01*
X87685714Y-113973809D01*
X87709523Y-114021428D01*
X87733333Y-114116666D01*
X87733333Y-114235714D01*
X87709523Y-114330952D01*
X87685714Y-114378571D01*
X87661904Y-114402380D01*
X87614285Y-114426190D01*
X87566666Y-114426190D01*
X87519047Y-114402380D01*
X87495238Y-114378571D01*
X87471428Y-114330952D01*
X87447619Y-114235714D01*
X87447619Y-114116666D01*
X87471428Y-114021428D01*
X87495238Y-113973809D01*
X87519047Y-113950000D01*
X87566666Y-113926190D01*
X87923809Y-113973809D02*
X87947619Y-113950000D01*
X87995238Y-113926190D01*
X88114285Y-113926190D01*
X88161904Y-113950000D01*
X88185714Y-113973809D01*
X88209523Y-114021428D01*
X88209523Y-114069047D01*
X88185714Y-114140476D01*
X87900000Y-114426190D01*
X88209523Y-114426190D01*
X88400000Y-113973809D02*
X88423809Y-113950000D01*
X88471428Y-113926190D01*
X88590476Y-113926190D01*
X88638095Y-113950000D01*
X88661904Y-113973809D01*
X88685714Y-114021428D01*
X88685714Y-114069047D01*
X88661904Y-114140476D01*
X88376190Y-114426190D01*
X88685714Y-114426190D01*
X88900000Y-114235714D02*
X89280952Y-114235714D01*
X89614285Y-113926190D02*
X89661904Y-113926190D01*
X89709523Y-113950000D01*
X89733333Y-113973809D01*
X89757142Y-114021428D01*
X89780952Y-114116666D01*
X89780952Y-114235714D01*
X89757142Y-114330952D01*
X89733333Y-114378571D01*
X89709523Y-114402380D01*
X89661904Y-114426190D01*
X89614285Y-114426190D01*
X89566666Y-114402380D01*
X89542857Y-114378571D01*
X89519047Y-114330952D01*
X89495238Y-114235714D01*
X89495238Y-114116666D01*
X89519047Y-114021428D01*
X89542857Y-113973809D01*
X89566666Y-113950000D01*
X89614285Y-113926190D01*
X89971428Y-113973809D02*
X89995238Y-113950000D01*
X90042857Y-113926190D01*
X90161904Y-113926190D01*
X90209523Y-113950000D01*
X90233333Y-113973809D01*
X90257142Y-114021428D01*
X90257142Y-114069047D01*
X90233333Y-114140476D01*
X89947619Y-114426190D01*
X90257142Y-114426190D01*
X90471428Y-114235714D02*
X90852380Y-114235714D01*
X91352380Y-114426190D02*
X91066666Y-114426190D01*
X91209523Y-114426190D02*
X91209523Y-113926190D01*
X91161904Y-113997619D01*
X91114285Y-114045238D01*
X91066666Y-114069047D01*
X91638095Y-114140476D02*
X91590476Y-114116666D01*
X91566666Y-114092857D01*
X91542857Y-114045238D01*
X91542857Y-114021428D01*
X91566666Y-113973809D01*
X91590476Y-113950000D01*
X91638095Y-113926190D01*
X91733333Y-113926190D01*
X91780952Y-113950000D01*
X91804761Y-113973809D01*
X91828571Y-114021428D01*
X91828571Y-114045238D01*
X91804761Y-114092857D01*
X91780952Y-114116666D01*
X91733333Y-114140476D01*
X91638095Y-114140476D01*
X91590476Y-114164285D01*
X91566666Y-114188095D01*
X91542857Y-114235714D01*
X91542857Y-114330952D01*
X91566666Y-114378571D01*
X91590476Y-114402380D01*
X91638095Y-114426190D01*
X91733333Y-114426190D01*
X91780952Y-114402380D01*
X91804761Y-114378571D01*
X91828571Y-114330952D01*
X91828571Y-114235714D01*
X91804761Y-114188095D01*
X91780952Y-114164285D01*
X91733333Y-114140476D01*
%TO.C,JP1*%
G36*
X94250000Y-105600000D02*
G01*
X93750000Y-105600000D01*
X93750000Y-105200000D01*
X94250000Y-105200000D01*
X94250000Y-105600000D01*
G37*
D12*
%TO.C,AJK1*%
X88250000Y-94310000D02*
X88350000Y-94310000D01*
D13*
X89100000Y-90100000D02*
X89100000Y-94300000D01*
D12*
X88250000Y-94150000D02*
X88250000Y-94450000D01*
D13*
X90900000Y-90200000D02*
X89100000Y-92200000D01*
X89100000Y-92200000D02*
X90900000Y-94300000D01*
D12*
X88350000Y-94310000D02*
X88450000Y-94450000D01*
D13*
X89100000Y-92200000D02*
X87600000Y-92200000D01*
X89100000Y-90100000D02*
X86100000Y-94300000D01*
D12*
X88250000Y-94150000D02*
X88350000Y-94150000D01*
X88350000Y-94310000D02*
G75*
G03*
X88350000Y-94150000I0J80000D01*
G01*
D13*
X87600000Y-94300000D02*
G75*
G03*
X89100000Y-94300000I750000J0D01*
G01*
D12*
X88630000Y-94310000D02*
G75*
G03*
X88630000Y-94310000I-300000J0D01*
G01*
%TD*%
D14*
%TO.P,Y1,1,1*%
%TO.N,Net-(C16-Pad1)*%
X93075000Y-98650000D03*
%TO.P,Y1,2,2*%
%TO.N,GND*%
X93075000Y-101350000D03*
%TO.P,Y1,3,3*%
%TO.N,Net-(C17-Pad1)*%
X94675000Y-101350000D03*
%TO.P,Y1,4,4*%
%TO.N,GND*%
X94675000Y-98650000D03*
%TD*%
D15*
%TO.P,D2,*%
%TO.N,*%
X112000000Y-94000000D03*
D16*
%TO.P,D2,1,K*%
%TO.N,GND*%
X112000000Y-95650000D03*
%TO.P,D2,2,A*%
%TO.N,Net-(D2-Pad2)*%
X112000000Y-92350000D03*
%TD*%
D15*
%TO.P,D3,*%
%TO.N,*%
X112000000Y-88000000D03*
D16*
%TO.P,D3,1,K*%
%TO.N,GND*%
X112000000Y-89650000D03*
%TO.P,D3,2,A*%
%TO.N,Net-(D3-Pad2)*%
X112000000Y-86350000D03*
%TD*%
D17*
%TO.P,SW1,*%
%TO.N,*%
X86250000Y-95800000D03*
X90750000Y-95800000D03*
%TO.P,SW1,1,1*%
%TO.N,GND*%
X90750000Y-104200000D03*
%TO.P,SW1,2,2*%
%TO.N,Net-(R11-Pad2)*%
X86250000Y-104200000D03*
%TD*%
D15*
%TO.P,D1,*%
%TO.N,*%
X112000000Y-100000000D03*
D16*
%TO.P,D1,1,K*%
%TO.N,GND*%
X112000000Y-101650000D03*
%TO.P,D1,2,A*%
%TO.N,Net-(D1-Pad2)*%
X112000000Y-98350000D03*
%TD*%
D18*
%TO.P,C7,1*%
%TO.N,+3V3*%
X100600000Y-95200000D03*
%TO.P,C7,2*%
%TO.N,GND*%
X102150000Y-95200000D03*
%TD*%
D19*
%TO.P,C3,1*%
%TO.N,Net-(C3-Pad1)*%
X103800000Y-88300000D03*
%TO.P,C3,2*%
%TO.N,Net-(A1-Pad1)*%
X103800000Y-86750000D03*
%TD*%
D18*
%TO.P,C5,1*%
%TO.N,GND*%
X100925000Y-88275000D03*
%TO.P,C5,2*%
%TO.N,Net-(C3-Pad1)*%
X102475000Y-88275000D03*
%TD*%
D20*
%TO.P,R6,1*%
%TO.N,Net-(R6-Pad1)*%
X108175000Y-95800000D03*
%TO.P,R6,2*%
%TO.N,+5V*%
X109825000Y-95800000D03*
%TD*%
%TO.P,R4,1*%
%TO.N,Net-(C8-Pad2)*%
X93075000Y-88275000D03*
%TO.P,R4,2*%
%TO.N,Net-(C4-Pad2)*%
X94725000Y-88275000D03*
%TD*%
D21*
%TO.P,C13,1*%
%TO.N,+3V3*%
X106150000Y-98825000D03*
%TO.P,C13,2*%
%TO.N,GND*%
X106150000Y-100375000D03*
%TD*%
D18*
%TO.P,C14,1*%
%TO.N,+5V*%
X104625000Y-97300000D03*
%TO.P,C14,2*%
%TO.N,GND*%
X106175000Y-97300000D03*
%TD*%
%TO.P,C9,1*%
%TO.N,Net-(C9-Pad1)*%
X93100000Y-94750000D03*
%TO.P,C9,2*%
%TO.N,GND*%
X94650000Y-94750000D03*
%TD*%
%TO.P,C16,1*%
%TO.N,Net-(C16-Pad1)*%
X93100000Y-97500000D03*
%TO.P,C16,2*%
%TO.N,GND*%
X94650000Y-97500000D03*
%TD*%
D20*
%TO.P,R9,1*%
%TO.N,Net-(R9-Pad1)*%
X108175000Y-100300000D03*
%TO.P,R9,2*%
%TO.N,Net-(D2-Pad2)*%
X109825000Y-100300000D03*
%TD*%
%TO.P,R8,1*%
%TO.N,Net-(R8-Pad1)*%
X108175000Y-101800000D03*
%TO.P,R8,2*%
%TO.N,Net-(D1-Pad2)*%
X109825000Y-101800000D03*
%TD*%
D22*
%TO.P,R11,1*%
%TO.N,+3V3*%
X99300000Y-105975000D03*
%TO.P,R11,2*%
%TO.N,Net-(R11-Pad2)*%
X99300000Y-104325000D03*
%TD*%
D23*
%TO.P,U1,1,DVSS*%
%TO.N,GND*%
X102250000Y-97100000D03*
%TO.P,U1,2,LOADMOD*%
%TO.N,unconnected-(U1-Pad2)*%
X101750000Y-97100000D03*
%TO.P,U1,3,TVSS1*%
%TO.N,GND*%
X101250000Y-97100000D03*
%TO.P,U1,4,TX1*%
%TO.N,Net-(L1-Pad1)*%
X100750000Y-97100000D03*
%TO.P,U1,5,TVDD*%
%TO.N,+3V3*%
X100250000Y-97100000D03*
%TO.P,U1,6,TX2*%
%TO.N,Net-(L2-Pad2)*%
X99750000Y-97100000D03*
%TO.P,U1,7,TVSS2*%
%TO.N,GND*%
X99250000Y-97100000D03*
%TO.P,U1,8,AVDD*%
%TO.N,+3V3*%
X98750000Y-97100000D03*
%TO.P,U1,9,VMID*%
%TO.N,Net-(C9-Pad1)*%
X98250000Y-97100000D03*
%TO.P,U1,10,RX*%
%TO.N,Net-(C8-Pad1)*%
X97750000Y-97100000D03*
D24*
%TO.P,U1,11,AVSS*%
%TO.N,GND*%
X97100000Y-97750000D03*
%TO.P,U1,12,AUX1*%
%TO.N,unconnected-(U1-Pad12)*%
X97100000Y-98250000D03*
%TO.P,U1,13,AUX2*%
%TO.N,unconnected-(U1-Pad13)*%
X97100000Y-98750000D03*
%TO.P,U1,14,OSCIN*%
%TO.N,Net-(C16-Pad1)*%
X97100000Y-99250000D03*
%TO.P,U1,15,OSCOUT*%
%TO.N,Net-(C17-Pad1)*%
X97100000Y-99750000D03*
%TO.P,U1,16,I0*%
%TO.N,GND*%
X97100000Y-100250000D03*
%TO.P,U1,17,I1*%
%TO.N,Net-(JP1-Pad2)*%
X97100000Y-100750000D03*
%TO.P,U1,18,TESTEN*%
%TO.N,GND*%
X97100000Y-101250000D03*
%TO.P,U1,19,P35*%
%TO.N,unconnected-(U1-Pad19)*%
X97100000Y-101750000D03*
%TO.P,U1,20,NC*%
%TO.N,unconnected-(U1-Pad20)*%
X97100000Y-102250000D03*
D23*
%TO.P,U1,21,NC*%
%TO.N,unconnected-(U1-Pad21)*%
X97750000Y-102900000D03*
%TO.P,U1,22,NC*%
%TO.N,unconnected-(U1-Pad22)*%
X98250000Y-102900000D03*
%TO.P,U1,23,PVDD*%
%TO.N,+3V3*%
X98750000Y-102900000D03*
%TO.P,U1,24,P30/UART_RX*%
%TO.N,Net-(R11-Pad2)*%
X99250000Y-102900000D03*
%TO.P,U1,25,P70_IRQ*%
%TO.N,unconnected-(U1-Pad25)*%
X99750000Y-102900000D03*
%TO.P,U1,26,RSTOUT_N*%
%TO.N,unconnected-(U1-Pad26)*%
X100250000Y-102900000D03*
%TO.P,U1,27,NSS/P50_SCL/HSU_RX*%
%TO.N,Net-(C19-Pad1)*%
X100750000Y-102900000D03*
%TO.P,U1,28,MOSI/SDA/HSU_TX*%
%TO.N,Net-(D6-Pad6)*%
X101250000Y-102900000D03*
%TO.P,U1,29,MISO/P71*%
%TO.N,unconnected-(U1-Pad29)*%
X101750000Y-102900000D03*
%TO.P,U1,30,SCK/P72*%
%TO.N,Net-(D4-Pad3)*%
X102250000Y-102900000D03*
D24*
%TO.P,U1,31,P31/DBG_TX*%
%TO.N,Net-(R8-Pad1)*%
X102900000Y-102250000D03*
%TO.P,U1,32,P32_INT0*%
%TO.N,Net-(R9-Pad1)*%
X102900000Y-101750000D03*
%TO.P,U1,33,P33_INT1*%
%TO.N,Net-(R10-Pad1)*%
X102900000Y-101250000D03*
%TO.P,U1,34,P34/SIG_CLK*%
%TO.N,unconnected-(U1-Pad34)*%
X102900000Y-100750000D03*
%TO.P,U1,35,SIGOUT*%
%TO.N,unconnected-(U1-Pad35)*%
X102900000Y-100250000D03*
%TO.P,U1,36,SIGN*%
%TO.N,unconnected-(U1-Pad36)*%
X102900000Y-99750000D03*
%TO.P,U1,37,SVDD*%
%TO.N,unconnected-(U1-Pad37)*%
X102900000Y-99250000D03*
%TO.P,U1,38,RSTPD_N*%
%TO.N,Net-(R6-Pad1)*%
X102900000Y-98750000D03*
%TO.P,U1,39,DVDD*%
%TO.N,+3V3*%
X102900000Y-98250000D03*
%TO.P,U1,40,VBAT*%
%TO.N,+5V*%
X102900000Y-97750000D03*
D25*
%TO.P,U1,41,COPPER*%
%TO.N,GND*%
X100000000Y-100000000D03*
D26*
X99000000Y-99000000D03*
X100000000Y-100000000D03*
X99000000Y-101000000D03*
X101000000Y-101000000D03*
X101000000Y-99000000D03*
%TD*%
D27*
%TO.P,C17,1*%
%TO.N,Net-(C17-Pad1)*%
X94650000Y-102500000D03*
%TO.P,C17,2*%
%TO.N,GND*%
X93100000Y-102500000D03*
%TD*%
D28*
%TO.P,J1,1,Pin_1*%
%TO.N,GND*%
X112000000Y-107270000D03*
D29*
%TO.P,J1,2,Pin_2*%
%TO.N,Net-(J1-Pad2)*%
X112000000Y-104730000D03*
%TD*%
D27*
%TO.P,C12,1*%
%TO.N,+3V3*%
X99400000Y-93850000D03*
%TO.P,C12,2*%
%TO.N,GND*%
X97850000Y-93850000D03*
%TD*%
D30*
%TO.P,R5,1*%
%TO.N,Net-(C8-Pad1)*%
X93100000Y-92025000D03*
%TO.P,R5,2*%
%TO.N,Net-(C9-Pad1)*%
X93100000Y-93675000D03*
%TD*%
D20*
%TO.P,R7,1*%
%TO.N,Net-(R6-Pad1)*%
X108175000Y-97300000D03*
%TO.P,R7,2*%
%TO.N,GND*%
X109825000Y-97300000D03*
%TD*%
%TO.P,R10,1*%
%TO.N,Net-(R10-Pad1)*%
X108175000Y-98800000D03*
%TO.P,R10,2*%
%TO.N,Net-(D3-Pad2)*%
X109825000Y-98800000D03*
%TD*%
D19*
%TO.P,C18,1*%
%TO.N,+3V3*%
X97700000Y-105925000D03*
%TO.P,C18,2*%
%TO.N,GND*%
X97700000Y-104375000D03*
%TD*%
D21*
%TO.P,C11,1*%
%TO.N,+3V3*%
X104650000Y-98825000D03*
%TO.P,C11,2*%
%TO.N,GND*%
X104650000Y-100375000D03*
%TD*%
D19*
%TO.P,C8,1*%
%TO.N,Net-(C8-Pad1)*%
X93100000Y-90975000D03*
%TO.P,C8,2*%
%TO.N,Net-(C8-Pad2)*%
X93100000Y-89425000D03*
%TD*%
D31*
%TO.P,J2,1,Pin_1*%
%TO.N,GND*%
X96250000Y-108900000D03*
D32*
%TO.P,J2,2,Pin_2*%
%TO.N,+5V*%
X98750000Y-108900000D03*
%TO.P,J2,3,Pin_3*%
%TO.N,Net-(J2-Pad3)*%
X101250000Y-108900000D03*
%TO.P,J2,4,Pin_4*%
%TO.N,Net-(J2-Pad4)*%
X103750000Y-108900000D03*
%TD*%
D18*
%TO.P,C10,1*%
%TO.N,+3V3*%
X100600000Y-93850000D03*
%TO.P,C10,2*%
%TO.N,GND*%
X102150000Y-93850000D03*
%TD*%
D27*
%TO.P,C1,1*%
%TO.N,Net-(A1-Pad1)*%
X102475000Y-85900000D03*
X102475000Y-87100000D03*
%TO.P,C1,2*%
%TO.N,GND*%
X100925000Y-87100000D03*
X100925000Y-85900000D03*
%TD*%
%TO.P,C6,1*%
%TO.N,GND*%
X99075000Y-88275000D03*
%TO.P,C6,2*%
%TO.N,Net-(C4-Pad2)*%
X97525000Y-88275000D03*
%TD*%
D22*
%TO.P,R15,1*%
%TO.N,+3V3*%
X105600000Y-105975000D03*
%TO.P,R15,2*%
%TO.N,Net-(D4-Pad3)*%
X105600000Y-104325000D03*
%TD*%
D33*
%TO.P,TP1,1,1*%
%TO.N,Net-(L1-Pad1)*%
X101250000Y-92400000D03*
%TO.P,TP1,2,2*%
%TO.N,Net-(L2-Pad2)*%
X98750000Y-92400000D03*
%TD*%
D34*
%TO.P,JP1,1,A*%
%TO.N,GND*%
X93350000Y-105400000D03*
D35*
%TO.P,JP1,2,C*%
%TO.N,Net-(JP1-Pad2)*%
X94650000Y-105400000D03*
D36*
%TO.P,JP1,3,B*%
%TO.N,+3V3*%
X95950000Y-105400000D03*
%TD*%
D20*
%TO.P,R13,1*%
%TO.N,Net-(J2-Pad3)*%
X100825000Y-105900000D03*
%TO.P,R13,2*%
%TO.N,Net-(D6-Pad6)*%
X102475000Y-105900000D03*
%TD*%
D18*
%TO.P,C15,1*%
%TO.N,+3V3*%
X93100000Y-96100000D03*
%TO.P,C15,2*%
%TO.N,GND*%
X94650000Y-96100000D03*
%TD*%
D37*
%TO.P,R14,1*%
%TO.N,Net-(J2-Pad4)*%
X102475000Y-104400000D03*
%TO.P,R14,2*%
%TO.N,Net-(C19-Pad1)*%
X100825000Y-104400000D03*
%TD*%
D38*
%TO.P,L1,1,1*%
%TO.N,Net-(L1-Pad1)*%
X102542893Y-91707107D03*
D39*
X102260051Y-91989949D03*
%TO.P,L1,2,2*%
%TO.N,Net-(C3-Pad1)*%
X104239949Y-90010051D03*
D38*
X103957107Y-90292893D03*
%TD*%
D40*
%TO.P,L2,1,1*%
%TO.N,Net-(C4-Pad2)*%
X96042893Y-90292893D03*
D41*
X95760051Y-90010051D03*
%TO.P,L2,2,2*%
%TO.N,Net-(L2-Pad2)*%
X97739949Y-91989949D03*
D40*
X97457107Y-91707107D03*
%TD*%
D21*
%TO.P,C4,1*%
%TO.N,Net-(A1-Pad3)*%
X96200000Y-86750000D03*
%TO.P,C4,2*%
%TO.N,Net-(C4-Pad2)*%
X96200000Y-88300000D03*
%TD*%
D30*
%TO.P,R12,1*%
%TO.N,Net-(D4-Pad3)*%
X104000000Y-104325000D03*
%TO.P,R12,2*%
%TO.N,Net-(J1-Pad2)*%
X104000000Y-105975000D03*
%TD*%
D42*
%TO.P,D5,1,A1*%
%TO.N,GND*%
X108050000Y-93250000D03*
%TO.P,D5,2,K2*%
%TO.N,+3V3*%
X108050000Y-93900000D03*
%TO.P,D5,3,K1A2*%
%TO.N,Net-(D3-Pad2)*%
X108050000Y-94550000D03*
%TO.P,D5,4,A3*%
%TO.N,GND*%
X109950000Y-94550000D03*
%TO.P,D5,5,K4*%
%TO.N,+3V3*%
X109950000Y-93900000D03*
%TO.P,D5,6,K3A4*%
%TO.N,Net-(D2-Pad2)*%
X109950000Y-93250000D03*
%TD*%
D43*
%TO.P,U2,*%
%TO.N,*%
X88000000Y-112600000D03*
D44*
X89400000Y-112600000D03*
D45*
X89800000Y-112500000D03*
D43*
X90800000Y-112600000D03*
D46*
X87400000Y-111900000D03*
X88600000Y-111900000D03*
D44*
X89200000Y-112400000D03*
D46*
X90200000Y-111900000D03*
X91400000Y-111900000D03*
D47*
X88000000Y-112000000D03*
D44*
X89000000Y-112200000D03*
D48*
X89500000Y-112200000D03*
D47*
X90800000Y-112000000D03*
D49*
X89200000Y-111800000D03*
D48*
X89700000Y-112000000D03*
D46*
X89400000Y-111100000D03*
D45*
X89800000Y-111500000D03*
D50*
X88000000Y-111400000D03*
D49*
X89000000Y-111200000D03*
D50*
X90800000Y-111400000D03*
D44*
X89600000Y-111200000D03*
D51*
X87600000Y-111000000D03*
D52*
X88500000Y-111000000D03*
D51*
X90000000Y-111000000D03*
D45*
X91000000Y-110900000D03*
D53*
X87500000Y-110600000D03*
D54*
X88800000Y-110500000D03*
D44*
X89200000Y-110800000D03*
X89600000Y-110800000D03*
D54*
X90200000Y-110500000D03*
D44*
X90800000Y-110800000D03*
D48*
X91300000Y-110800000D03*
X87900000Y-110600000D03*
D44*
X88600000Y-110600000D03*
D45*
X89800000Y-110500000D03*
D44*
X90600000Y-110600000D03*
D45*
X87800000Y-110300000D03*
X88200000Y-110300000D03*
D44*
X89000000Y-110400000D03*
X90000000Y-110400000D03*
D45*
X90400000Y-110300000D03*
D44*
X88600000Y-110200000D03*
D51*
X89400000Y-110200000D03*
D54*
X91400000Y-109900000D03*
D51*
X89200000Y-110000000D03*
D48*
X89900000Y-110000000D03*
D45*
X90600000Y-109900000D03*
D43*
X88000000Y-109800000D03*
D49*
X89000000Y-109600000D03*
D48*
X89700000Y-109800000D03*
D49*
X90400000Y-109600000D03*
D48*
X90900000Y-109800000D03*
D46*
X87400000Y-109100000D03*
X88600000Y-109100000D03*
D44*
X89200000Y-109600000D03*
X89600000Y-109600000D03*
D49*
X90000000Y-109400000D03*
D47*
X88000000Y-109200000D03*
D49*
X89400000Y-109200000D03*
D44*
X90200000Y-109400000D03*
X90600000Y-109400000D03*
X91000000Y-109400000D03*
X91200000Y-109200000D03*
D49*
X89000000Y-108800000D03*
X89600000Y-108800000D03*
D44*
X90400000Y-109000000D03*
D49*
X91400000Y-108800000D03*
D44*
X89200000Y-108800000D03*
D45*
X89800000Y-108700000D03*
X90800000Y-108700000D03*
D44*
X91200000Y-108800000D03*
D50*
X88000000Y-108600000D03*
D44*
X90400000Y-108600000D03*
%TD*%
D18*
%TO.P,C19,1*%
%TO.N,Net-(C19-Pad1)*%
X108225000Y-108200000D03*
%TO.P,C19,2*%
%TO.N,GND*%
X109775000Y-108200000D03*
%TD*%
D42*
%TO.P,D4,1,A1*%
%TO.N,GND*%
X108050000Y-103050000D03*
%TO.P,D4,2,K2*%
%TO.N,+3V3*%
X108050000Y-103700000D03*
%TO.P,D4,3,K1A2*%
%TO.N,Net-(D4-Pad3)*%
X108050000Y-104350000D03*
%TO.P,D4,4,A3*%
%TO.N,GND*%
X109950000Y-104350000D03*
%TO.P,D4,5,K4*%
%TO.N,+3V3*%
X109950000Y-103700000D03*
%TO.P,D4,6,K3A4*%
%TO.N,Net-(D1-Pad2)*%
X109950000Y-103050000D03*
%TD*%
%TO.P,D6,1,A1*%
%TO.N,GND*%
X109950000Y-106950000D03*
%TO.P,D6,2,K2*%
%TO.N,+3V3*%
X109950000Y-106300000D03*
%TO.P,D6,3,K1A2*%
%TO.N,Net-(C19-Pad1)*%
X109950000Y-105650000D03*
%TO.P,D6,4,A3*%
%TO.N,GND*%
X108050000Y-105650000D03*
%TO.P,D6,5,K4*%
%TO.N,+3V3*%
X108050000Y-106300000D03*
%TO.P,D6,6,K3A4*%
%TO.N,Net-(D6-Pad6)*%
X108050000Y-106950000D03*
%TD*%
D55*
%TO.P,A1,*%
%TO.N,*%
X99000000Y-81000000D03*
D30*
X102000000Y-83150000D03*
D55*
X97000000Y-83000000D03*
D56*
X100000000Y-81000000D03*
D30*
X98000000Y-83150000D03*
D57*
X97000000Y-83000000D03*
D58*
X100000000Y-81000000D03*
D55*
X101000000Y-81000000D03*
D30*
%TO.P,A1,1*%
%TO.N,Net-(A1-Pad1)*%
X102000000Y-84850000D03*
D58*
%TO.P,A1,2*%
%TO.N,GND*%
X100000000Y-83000000D03*
D30*
%TO.P,A1,3*%
%TO.N,Net-(A1-Pad3)*%
X98000000Y-84850000D03*
%TD*%
D27*
%TO.P,C2,1*%
%TO.N,GND*%
X99075000Y-85900000D03*
X99075000Y-87100000D03*
%TO.P,C2,2*%
%TO.N,Net-(A1-Pad3)*%
X97525000Y-87100000D03*
X97525000Y-85900000D03*
%TD*%
D59*
%TO.N,GND*%
X104400000Y-103300000D03*
X110946011Y-90962647D03*
X93000000Y-103574500D03*
X105514175Y-100843682D03*
X100000000Y-92825000D03*
X109000000Y-107270000D03*
X111000000Y-103100000D03*
X110610000Y-96620000D03*
X97053825Y-103379076D03*
X91400000Y-102600000D03*
X106175000Y-95500000D03*
X109000000Y-102975500D03*
X109000000Y-105575000D03*
X95950000Y-98175000D03*
%TO.N,+3V3*%
X97350000Y-95200000D03*
X107100000Y-96400000D03*
X92200000Y-92850000D03*
X107100000Y-103899989D03*
X107100000Y-105900000D03*
X91400000Y-106000000D03*
X99522431Y-94680773D03*
%TO.N,+5V*%
X109000000Y-94375000D03*
X105250000Y-96100000D03*
X105250000Y-94375000D03*
%TO.N,Net-(D1-Pad2)*%
X112510000Y-97260000D03*
X110675000Y-101050000D03*
%TO.N,Net-(D2-Pad2)*%
X112004431Y-90962647D03*
X111560000Y-96940000D03*
%TO.N,Net-(D3-Pad2)*%
X109100000Y-99420000D03*
X109887592Y-90962647D03*
%TO.N,Net-(C9-Pad1)*%
X94200000Y-93700000D03*
X96424500Y-95924500D03*
%TO.N,Net-(J2-Pad4)*%
X105900000Y-107000000D03*
%TD*%
D60*
%TO.N,GND*%
X106175000Y-95500000D02*
X106175000Y-97300000D01*
X105525000Y-100832857D02*
X105514175Y-100843682D01*
D61*
X109950000Y-108025000D02*
X109775000Y-108200000D01*
X108340000Y-92590000D02*
X109330000Y-92590000D01*
X108949253Y-103050000D02*
X109023753Y-102975500D01*
D60*
X99975000Y-87125000D02*
X100000000Y-87100000D01*
D61*
X111000000Y-103100000D02*
X111000000Y-103700000D01*
D60*
X93350000Y-105400000D02*
X93350000Y-104419474D01*
X93225000Y-101375000D02*
X93200000Y-101350000D01*
X99075000Y-88275000D02*
X99950000Y-88275000D01*
D61*
X102250000Y-97100000D02*
X102250000Y-95441421D01*
X90750000Y-103250000D02*
X90750000Y-104200000D01*
D60*
X99075000Y-85925000D02*
X99975000Y-85925000D01*
X93225000Y-102500000D02*
X93225000Y-101375000D01*
D61*
X101250000Y-96975000D02*
X101250000Y-98750000D01*
X110612500Y-95812500D02*
X110612500Y-96987500D01*
X108925000Y-105650000D02*
X109000000Y-105575000D01*
D60*
X94650000Y-96100000D02*
X94650000Y-97500000D01*
D61*
X110350000Y-104350000D02*
X109950000Y-104350000D01*
X99250000Y-96975000D02*
X99250000Y-98750000D01*
X112000000Y-95650000D02*
X110811672Y-95650000D01*
X104400000Y-103300000D02*
X106358579Y-103300000D01*
X106962132Y-103050000D02*
X108050000Y-103050000D01*
X106920000Y-93250000D02*
X108050000Y-93250000D01*
D60*
X102150000Y-93850000D02*
X102150000Y-95200000D01*
D61*
X110612500Y-95567500D02*
X110612500Y-95812500D01*
X102250000Y-97100000D02*
X102250000Y-97479290D01*
X110300000Y-97300000D02*
X109825000Y-97300000D01*
X102200000Y-97600000D02*
X101141422Y-98658578D01*
X97850000Y-93850000D02*
X97850000Y-94122451D01*
D60*
X94650000Y-94750000D02*
X94650000Y-96100000D01*
D61*
X109320000Y-106950000D02*
X109950000Y-106950000D01*
D60*
X105525000Y-100375000D02*
X106250000Y-100375000D01*
D61*
X110460000Y-91850000D02*
X109995772Y-92314228D01*
D60*
X93100000Y-102500000D02*
X93100000Y-103333079D01*
D61*
X99250000Y-98750000D02*
X99000000Y-99000000D01*
D60*
X100000000Y-83000000D02*
X100000000Y-92825000D01*
D61*
X110612500Y-95087500D02*
X110612500Y-95567500D01*
X98750000Y-101250000D02*
X99000000Y-101000000D01*
X110946011Y-90113989D02*
X110946011Y-90962647D01*
X96975000Y-100250000D02*
X98250000Y-100250000D01*
D60*
X95500000Y-98700000D02*
X94725000Y-98700000D01*
X104750000Y-100375000D02*
X105525000Y-100375000D01*
D61*
X98250000Y-100250000D02*
X99000000Y-101000000D01*
D60*
X100925000Y-88275000D02*
X99950000Y-88275000D01*
D61*
X98828475Y-95671525D02*
X98253475Y-95096525D01*
D60*
X105525000Y-100375000D02*
X105525000Y-100832857D01*
D61*
X109950000Y-94550000D02*
X110075000Y-94550000D01*
X110662219Y-91647780D02*
X110460000Y-91850000D01*
X112000000Y-101800000D02*
X112000000Y-102600000D01*
X111990000Y-89660000D02*
X111400000Y-89660000D01*
X108050000Y-105650000D02*
X108925000Y-105650000D01*
D60*
X99075000Y-87125000D02*
X99975000Y-87125000D01*
D61*
X97583466Y-97783466D02*
X98658578Y-98858578D01*
X111000000Y-103100000D02*
X111500000Y-103100000D01*
X108050000Y-93250000D02*
X108050000Y-92880000D01*
X97700000Y-104375000D02*
X97700000Y-104025251D01*
X101250000Y-98750000D02*
X101000000Y-99000000D01*
D60*
X100900000Y-87100000D02*
X100000000Y-87100000D01*
D61*
X109950000Y-106950000D02*
X109950000Y-108025000D01*
X108050000Y-103050000D02*
X108949253Y-103050000D01*
X96975000Y-101250000D02*
X98750000Y-101250000D01*
X97100000Y-97750000D02*
X97502672Y-97750000D01*
X106175000Y-95500000D02*
X106175000Y-93995000D01*
D60*
X95950000Y-98175000D02*
X95950000Y-98250000D01*
X100925000Y-85925000D02*
X99975000Y-85925000D01*
D61*
X99250000Y-97100000D02*
X99250000Y-96689176D01*
X97583466Y-97783466D02*
G75*
G03*
X97502672Y-97750000I-80797J-80801D01*
G01*
X102200000Y-97600000D02*
G75*
G03*
X102250000Y-97479290I-120706J120709D01*
G01*
X112000000Y-102600000D02*
G75*
G02*
X111500000Y-103100000I-500001J1D01*
G01*
X106920000Y-93250000D02*
G75*
G03*
X106175000Y-93995000I-2J-744998D01*
G01*
X106600000Y-103200000D02*
G75*
G02*
X106358579Y-103300000I-241421J241419D01*
G01*
X110612500Y-95567500D02*
G75*
G03*
X110811672Y-95650000I199172J199171D01*
G01*
D60*
X93000000Y-103574500D02*
G75*
G02*
X93350000Y-104419474I-844976J-844975D01*
G01*
D61*
X110946011Y-90113989D02*
G75*
G02*
X111400000Y-89660000I453988J1D01*
G01*
X109320000Y-106950000D02*
G75*
G03*
X109000000Y-107270000I1J-320001D01*
G01*
X98253475Y-95096525D02*
G75*
G02*
X97850000Y-94122451I974076J974075D01*
G01*
X101000000Y-99000000D02*
G75*
G02*
X101141422Y-98658578I482846J-2D01*
G01*
X102150000Y-95200000D02*
G75*
G02*
X102250000Y-95441421I-241419J-241421D01*
G01*
X106962132Y-103050001D02*
G75*
G03*
X106600001Y-103200001I0J-512131D01*
G01*
D60*
X93000000Y-103574500D02*
G75*
G03*
X93100000Y-103333079I-241419J241421D01*
G01*
D61*
X97053825Y-103379076D02*
G75*
G02*
X97700000Y-104025251I1J-646174D01*
G01*
X111990000Y-89660000D02*
G75*
G03*
X112000000Y-89650000I0J10000D01*
G01*
D60*
X95500000Y-98700000D02*
G75*
G03*
X95950000Y-98250000I0J450000D01*
G01*
D61*
X90750000Y-103250000D02*
G75*
G02*
X91400000Y-102600000I650001J-1D01*
G01*
X108340000Y-92590000D02*
G75*
G03*
X108050000Y-92880000I0J-290000D01*
G01*
X110662219Y-91647780D02*
G75*
G03*
X110946011Y-90962647I-685127J685131D01*
G01*
X109330000Y-92589999D02*
G75*
G03*
X109995772Y-92314228I-1J941546D01*
G01*
D60*
X94675000Y-98650000D02*
G75*
G03*
X94725000Y-98700000I50001J1D01*
G01*
D61*
X110350000Y-104350000D02*
G75*
G03*
X111000000Y-103700000I-1J650001D01*
G01*
X99000000Y-99000000D02*
G75*
G02*
X98658578Y-98858578I2J482846D01*
G01*
X110300000Y-97300000D02*
G75*
G03*
X110612500Y-96987500I0J312500D01*
G01*
X98828475Y-95671525D02*
G75*
G02*
X99250000Y-96689176I-1017645J-1017649D01*
G01*
X110612500Y-95087500D02*
G75*
G03*
X110075000Y-94550000I-537500J0D01*
G01*
D60*
%TO.N,Net-(C3-Pad1)*%
X103800000Y-88275000D02*
X103800000Y-89570102D01*
X103800000Y-88300000D02*
X102300000Y-88300000D01*
X103800000Y-89570102D02*
X104239949Y-90010051D01*
%TO.N,Net-(C4-Pad2)*%
X96175000Y-88275000D02*
X96200000Y-88300000D01*
X96200000Y-89570102D02*
X95760051Y-90010051D01*
X94725000Y-88275000D02*
X96175000Y-88275000D01*
X97525000Y-88275000D02*
X96225000Y-88275000D01*
X96200000Y-88275000D02*
X96200000Y-89570102D01*
X96225000Y-88275000D02*
X96200000Y-88300000D01*
D61*
%TO.N,+3V3*%
X93100000Y-96100000D02*
X92950000Y-96100000D01*
X107100000Y-97400000D02*
X107100000Y-96400000D01*
X100600000Y-95200000D02*
X100600000Y-95617158D01*
X108430000Y-93900000D02*
X108750000Y-93580000D01*
X98500000Y-103741421D02*
X98500000Y-105864645D01*
X107100000Y-96400000D02*
X107100000Y-94300000D01*
X98750000Y-97100000D02*
X98750000Y-96832957D01*
X97824149Y-95396399D02*
X98388875Y-95961125D01*
X105600000Y-105975000D02*
X106918934Y-105975000D01*
X95950000Y-105400000D02*
X95950000Y-106050000D01*
X92175489Y-96874511D02*
X92175489Y-105649511D01*
X108050000Y-93900000D02*
X108430000Y-93900000D01*
X99300000Y-106025000D02*
X99275000Y-106025000D01*
X107500000Y-106300000D02*
X108050000Y-106300000D01*
X109560000Y-93900000D02*
X109950000Y-93900000D01*
X102900000Y-98250000D02*
X104075000Y-98250000D01*
X99250000Y-105925000D02*
X99300000Y-105975000D01*
X97700000Y-105925000D02*
X98525000Y-105925000D01*
X92200000Y-92850000D02*
X92200000Y-95200000D01*
X100600000Y-93850000D02*
X99400000Y-93850000D01*
X91400000Y-106000000D02*
X91825000Y-106000000D01*
X97424264Y-105900000D02*
X97700000Y-105900000D01*
X108750000Y-93580000D02*
X109240000Y-93580000D01*
X95950000Y-105400000D02*
X96217158Y-105400000D01*
X109240000Y-93580000D02*
X109560000Y-93900000D01*
X99400000Y-93850000D02*
X99400000Y-94525000D01*
X108050000Y-106300000D02*
X109950000Y-106300000D01*
X106150000Y-98825000D02*
X106687500Y-98287500D01*
X108050000Y-103700000D02*
X107561290Y-103700000D01*
X106150000Y-98825000D02*
X104650000Y-98825000D01*
X106764124Y-98210875D02*
X106687500Y-98287500D01*
X98750000Y-102900000D02*
X98750000Y-103137868D01*
X107500000Y-93900000D02*
X108050000Y-93900000D01*
X98525000Y-105925000D02*
X99250000Y-105925000D01*
X108050000Y-103700000D02*
X109950000Y-103700000D01*
X100250000Y-96462132D02*
X100250000Y-97100000D01*
X93125978Y-106600000D02*
X95400000Y-106600000D01*
X100600000Y-93850000D02*
X100600000Y-95200000D01*
X96700000Y-105600000D02*
G75*
G03*
X96217158Y-105400000I-482841J-482839D01*
G01*
X97424264Y-105900000D02*
G75*
G02*
X96700000Y-105600000I-4J1024253D01*
G01*
X100400000Y-96100000D02*
G75*
G03*
X100600000Y-95617158I-482839J482841D01*
G01*
X107078474Y-103899989D02*
G75*
G02*
X107561290Y-103700000I482814J-482811D01*
G01*
X93100000Y-96100000D02*
G75*
G02*
X92200000Y-95200000I0J900000D01*
G01*
X106764124Y-98210875D02*
G75*
G03*
X107100000Y-97400000I-810867J810872D01*
G01*
X107100000Y-105900000D02*
G75*
G02*
X106918934Y-105975000I-181062J181057D01*
G01*
X92175489Y-105649511D02*
G75*
G02*
X91825000Y-106000000I-350490J1D01*
G01*
X98388875Y-95961125D02*
G75*
G02*
X98750000Y-96832957I-871828J-871831D01*
G01*
X95950000Y-106050000D02*
G75*
G02*
X95400000Y-106600000I-549999J-1D01*
G01*
X99500000Y-94625000D02*
G75*
G02*
X99400000Y-94525000I-1J99999D01*
G01*
X107500000Y-93900000D02*
G75*
G03*
X107100000Y-94300000I-1J-399999D01*
G01*
X107500000Y-106300000D02*
G75*
G02*
X107100000Y-105900000I-1J399999D01*
G01*
X92175489Y-96874511D02*
G75*
G02*
X92950000Y-96100000I774511J0D01*
G01*
X100250001Y-96462132D02*
G75*
G02*
X100400001Y-96100001I512131J0D01*
G01*
X104650000Y-98825000D02*
G75*
G03*
X104075000Y-98250000I-575001J-1D01*
G01*
X97824149Y-95396399D02*
G75*
G03*
X97350000Y-95200000I-474146J-474142D01*
G01*
X98600000Y-103500000D02*
G75*
G03*
X98500000Y-103741421I241419J-241421D01*
G01*
X93125978Y-106600000D02*
G75*
G02*
X92175489Y-105649511I1J950490D01*
G01*
X98525000Y-105925000D02*
G75*
G02*
X98500000Y-105864645I60344J60351D01*
G01*
X98600000Y-103500000D02*
G75*
G03*
X98750000Y-103137868I-362137J362134D01*
G01*
D60*
%TO.N,Net-(C8-Pad2)*%
X93075000Y-89400000D02*
X93100000Y-89425000D01*
X93075000Y-88250000D02*
X93075000Y-89400000D01*
D61*
%TO.N,Net-(C8-Pad1)*%
X97750000Y-97100000D02*
X96600000Y-97100000D01*
X95700000Y-96200000D02*
X95700000Y-93550000D01*
X94175000Y-92025000D02*
X93100000Y-92025000D01*
D60*
X93100000Y-90975000D02*
X93100000Y-92025000D01*
D61*
X94175000Y-92025000D02*
G75*
G02*
X95700000Y-93550000I1J-1524999D01*
G01*
X95700000Y-96200000D02*
G75*
G03*
X96600000Y-97100000I900000J0D01*
G01*
%TO.N,+5V*%
X109300489Y-94999511D02*
X109300489Y-94724778D01*
X109600000Y-95200000D02*
X109500978Y-95200000D01*
D60*
X104625000Y-97300000D02*
X103300000Y-97300000D01*
X104625000Y-97300000D02*
X104625000Y-96725000D01*
D61*
X105250000Y-94400000D02*
X105250000Y-96100000D01*
X109300489Y-94999511D02*
G75*
G03*
X109500978Y-95200000I200489J0D01*
G01*
D60*
X103000000Y-97600000D02*
G75*
G02*
X103300000Y-97300000I300000J0D01*
G01*
X105250000Y-96100000D02*
G75*
G03*
X104625000Y-96725000I-1J-624999D01*
G01*
D61*
X109600000Y-95200000D02*
G75*
G02*
X109825000Y-95425000I0J-225000D01*
G01*
X109000000Y-94375000D02*
G75*
G02*
X109300489Y-94675489I1J-300488D01*
G01*
%TO.N,Net-(C16-Pad1)*%
X96000000Y-99400000D02*
X95558579Y-99841421D01*
X97100000Y-99250000D02*
X96362132Y-99250000D01*
X95175736Y-100000000D02*
X93400000Y-100000000D01*
X93075000Y-98650000D02*
X93075000Y-99675000D01*
X96000000Y-99400000D02*
G75*
G02*
X96362132Y-99250000I362129J-362126D01*
G01*
X93400000Y-100000000D02*
G75*
G02*
X93075000Y-99675000I-1J324999D01*
G01*
X95175736Y-99999999D02*
G75*
G03*
X95558578Y-99841420I-3J541428D01*
G01*
D60*
%TO.N,Net-(L2-Pad2)*%
X98750000Y-92400000D02*
X98150000Y-92400000D01*
D61*
X98968989Y-95155737D02*
X99181626Y-95368374D01*
X98624806Y-94324806D02*
X98624806Y-92600194D01*
D60*
X98150000Y-92400000D02*
X97739949Y-91989949D01*
D61*
X99750000Y-97100000D02*
X99750000Y-96740550D01*
X99181626Y-95368374D02*
G75*
G02*
X99750000Y-96740550I-1372171J-1372174D01*
G01*
X98968989Y-95155737D02*
G75*
G02*
X98624806Y-94324806I830926J830929D01*
G01*
D60*
%TO.N,Net-(L1-Pad1)*%
X101250000Y-92400000D02*
X101850000Y-92400000D01*
D61*
X101375000Y-92701776D02*
X101375000Y-95652513D01*
D60*
X101850000Y-92400000D02*
X102260051Y-91989949D01*
D61*
X100750000Y-96807842D02*
X100750000Y-97100000D01*
X101200000Y-96075000D02*
X100950000Y-96325000D01*
X101375000Y-92701776D02*
G75*
G03*
X101250000Y-92400000I-426770J2D01*
G01*
X101200000Y-96075000D02*
G75*
G03*
X101375000Y-95652513I-422488J422488D01*
G01*
X100750001Y-96807842D02*
G75*
G02*
X100950001Y-96325001I682838J1D01*
G01*
%TO.N,Net-(D1-Pad2)*%
X112510000Y-97260000D02*
X112304057Y-97465943D01*
X109950000Y-101925000D02*
X109825000Y-101800000D01*
X109925000Y-101800000D02*
X109825000Y-101800000D01*
X109950000Y-103050000D02*
X109950000Y-101925000D01*
X109925000Y-101800000D02*
G75*
G03*
X110675000Y-101050000I0J750000D01*
G01*
X112000000Y-98200000D02*
G75*
G02*
X112304057Y-97465943I1038108J1D01*
G01*
%TO.N,Net-(D2-Pad2)*%
X110435525Y-93048889D02*
X110767207Y-92717207D01*
X110100000Y-100300000D02*
X109825000Y-100300000D01*
X110783848Y-97756152D02*
X111540000Y-97000000D01*
X112000000Y-92350000D02*
X111653723Y-92350000D01*
X110600000Y-98200000D02*
X110600000Y-99800000D01*
X112004431Y-90962647D02*
X112004431Y-92339303D01*
X110767207Y-92717207D02*
G75*
G02*
X111653723Y-92350000I886516J-886516D01*
G01*
X110100000Y-100300000D02*
G75*
G03*
X110600000Y-99800000I-1J500001D01*
G01*
X110783848Y-97756152D02*
G75*
G03*
X110600000Y-98200000I443852J-443850D01*
G01*
X110435525Y-93048889D02*
G75*
G02*
X109950000Y-93250000I-485525J485526D01*
G01*
X112000000Y-92350000D02*
G75*
G03*
X112004431Y-92339303I-10702J10699D01*
G01*
%TO.N,Net-(D3-Pad2)*%
X109006835Y-98312318D02*
X109107872Y-98463532D01*
X109887592Y-90962647D02*
X109887592Y-90085640D01*
X109107872Y-98463532D02*
X109236468Y-98592128D01*
X109555701Y-98762761D02*
X109734069Y-98798240D01*
X108937239Y-98144299D02*
X109006835Y-98312318D01*
X112000000Y-86350000D02*
X111250000Y-86350000D01*
X108050000Y-94550000D02*
X108050000Y-94850000D01*
X109387682Y-98693165D02*
X109555701Y-98762761D01*
X108200000Y-95000000D02*
X108400000Y-95000000D01*
X110755479Y-87990377D02*
X110755479Y-86844521D01*
X109734069Y-98798240D02*
X109825000Y-98800000D01*
X108900000Y-95500000D02*
X108900000Y-97875000D01*
X109236468Y-98592128D02*
X109387682Y-98693165D01*
X108900000Y-97875000D02*
X108901760Y-97965931D01*
X109645754Y-98874246D02*
X109100000Y-99420000D01*
X108901760Y-97965931D02*
X108937239Y-98144299D01*
X109645754Y-98874246D02*
G75*
G02*
X109825000Y-98800000I179247J-179248D01*
G01*
X108900000Y-95500000D02*
G75*
G03*
X108400000Y-95000000I-500001J-1D01*
G01*
X110755479Y-87990377D02*
G75*
G02*
X110300000Y-89090000I-1555098J-1D01*
G01*
X110300000Y-89090000D02*
G75*
G03*
X109887592Y-90085640I995637J-995639D01*
G01*
X108200000Y-95000000D02*
G75*
G02*
X108050000Y-94850000I0J150000D01*
G01*
X110755479Y-86844521D02*
G75*
G02*
X111250000Y-86350000I494522J-1D01*
G01*
D60*
%TO.N,Net-(C9-Pad1)*%
X93100000Y-93675000D02*
X93100000Y-94750000D01*
D61*
X96897538Y-96120439D02*
X97667767Y-96120439D01*
X98250000Y-96702672D02*
X98250000Y-97100000D01*
X94200000Y-93700000D02*
X93125000Y-93700000D01*
X93100000Y-93675000D02*
G75*
G03*
X93125000Y-93700000I24999J-1D01*
G01*
X96897538Y-96120438D02*
G75*
G02*
X96424501Y-95924499I-1J668973D01*
G01*
X98250000Y-96702672D02*
G75*
G03*
X97667767Y-96120439I-582233J0D01*
G01*
%TO.N,Net-(C17-Pad1)*%
X96200000Y-99900000D02*
X95841422Y-100258578D01*
X95700000Y-100600000D02*
X95700000Y-101000000D01*
X94675000Y-101350000D02*
X95350000Y-101350000D01*
X97100000Y-99750000D02*
X96562132Y-99750000D01*
X96200000Y-99900000D02*
G75*
G02*
X96562132Y-99750000I362129J-362126D01*
G01*
X95700000Y-100600000D02*
G75*
G02*
X95841422Y-100258578I482846J-2D01*
G01*
X95700000Y-101000000D02*
G75*
G02*
X95350000Y-101350000I-350001J1D01*
G01*
%TO.N,Net-(J1-Pad2)*%
X109314511Y-104874511D02*
X111855489Y-104874511D01*
X108326000Y-105074000D02*
X108700000Y-104700000D01*
X104000000Y-105975000D02*
X104000000Y-105400000D01*
X104326000Y-105074000D02*
X108326000Y-105074000D01*
X109140000Y-104700000D02*
X109314511Y-104874511D01*
X111855489Y-104874511D02*
X112000000Y-104730000D01*
X108700000Y-104700000D02*
X109140000Y-104700000D01*
X104326000Y-105074000D02*
G75*
G03*
X104000000Y-105400000I-1J-325999D01*
G01*
%TO.N,Net-(JP1-Pad2)*%
X95800000Y-104300000D02*
X95100000Y-104300000D01*
X94650000Y-105400000D02*
X94650000Y-104750000D01*
X96213249Y-101086751D02*
X96213249Y-103886751D01*
X97100000Y-100750000D02*
X96550000Y-100750000D01*
X95800000Y-104300000D02*
G75*
G03*
X96213249Y-103886751I-1J413250D01*
G01*
X96213249Y-101086751D02*
G75*
G02*
X96550000Y-100750000I336751J0D01*
G01*
X95100000Y-104300000D02*
G75*
G03*
X94650000Y-104750000I0J-450000D01*
G01*
%TO.N,Net-(D6-Pad6)*%
X102475000Y-105900000D02*
X102475000Y-106824075D01*
X101749990Y-104750010D02*
X101749990Y-104450010D01*
X105578995Y-107750489D02*
X106550489Y-107750489D01*
X106900000Y-107300000D02*
X106900000Y-107400978D01*
X102800346Y-107149421D02*
X104977927Y-107149421D01*
X101989444Y-105210556D02*
X101906326Y-105127438D01*
X102330830Y-105551942D02*
X101989444Y-105210556D01*
X107250000Y-106950000D02*
X108050000Y-106950000D01*
X101250000Y-102900000D02*
X101250000Y-103242928D01*
X107250000Y-106950000D02*
G75*
G03*
X106900000Y-107300000I1J-350001D01*
G01*
X102330830Y-105551942D02*
G75*
G02*
X102475000Y-105900000I-348062J-348059D01*
G01*
X101507807Y-103865329D02*
G75*
G02*
X101749990Y-104450010I-584677J-584680D01*
G01*
X101749990Y-104750010D02*
G75*
G03*
X101906326Y-105127438I533768J2D01*
G01*
X106900000Y-107400978D02*
G75*
G02*
X106550489Y-107750489I-349510J-1D01*
G01*
X101507807Y-103865329D02*
G75*
G02*
X101250000Y-103242928I622402J622402D01*
G01*
X105264253Y-107435747D02*
G75*
G03*
X104977927Y-107149421I-286326J0D01*
G01*
X105578995Y-107750489D02*
G75*
G02*
X105264253Y-107435747I1J314743D01*
G01*
X102800346Y-107149421D02*
G75*
G02*
X102475000Y-106824075I1J325347D01*
G01*
%TO.N,Net-(R8-Pad1)*%
X108175000Y-101925000D02*
X108175000Y-101800000D01*
X104341421Y-102500000D02*
X107600000Y-102500000D01*
X102900000Y-102250000D02*
X103737868Y-102250000D01*
X108175000Y-101925000D02*
G75*
G02*
X107600000Y-102500000I-575001J1D01*
G01*
X104100000Y-102400000D02*
G75*
G03*
X103737868Y-102250000I-362134J-362137D01*
G01*
X104341421Y-102500000D02*
G75*
G02*
X104100000Y-102400000I0J341419D01*
G01*
%TO.N,Net-(R9-Pad1)*%
X104563312Y-102050489D02*
X106649511Y-102050489D01*
X107400000Y-101300000D02*
X107400000Y-101075000D01*
X102900000Y-101750000D02*
X103837868Y-101750000D01*
X107400000Y-101300000D02*
G75*
G02*
X106649511Y-102050489I-750489J0D01*
G01*
X104563312Y-102050488D02*
G75*
G02*
X104200001Y-101899999I1J513802D01*
G01*
X108175000Y-100300000D02*
G75*
G03*
X107400000Y-101075000I-1J-774999D01*
G01*
X104200000Y-101900000D02*
G75*
G03*
X103837868Y-101750000I-362134J-362137D01*
G01*
%TO.N,Net-(C19-Pad1)*%
X101748410Y-105854247D02*
X101718457Y-105703664D01*
X109950000Y-105650000D02*
X110150000Y-105650000D01*
X100750000Y-104325000D02*
X100825000Y-104400000D01*
X104522794Y-107600000D02*
X102494988Y-107600000D01*
X101521239Y-105378761D02*
X100825000Y-104682522D01*
X101749990Y-105931014D02*
X101748410Y-105854247D01*
X101718457Y-105703664D02*
X101659703Y-105561818D01*
X108225000Y-108200000D02*
X105122794Y-108200000D01*
X101574404Y-105434160D02*
X101521239Y-105378761D01*
X110700000Y-106200000D02*
X110700000Y-108527834D01*
X101749990Y-106855002D02*
X101749990Y-105931014D01*
X101659703Y-105561818D02*
X101574404Y-105434160D01*
X108225000Y-108625000D02*
X108225000Y-108200000D01*
X100750000Y-103025000D02*
X100750000Y-104325000D01*
X110227824Y-109000010D02*
X108600010Y-109000010D01*
X100825000Y-104682522D02*
X100825000Y-104400000D01*
X101749990Y-106855002D02*
G75*
G03*
X102494988Y-107600000I744998J0D01*
G01*
X110700000Y-106200000D02*
G75*
G03*
X110150000Y-105650000I-549999J1D01*
G01*
X104811397Y-107888603D02*
G75*
G03*
X105122794Y-108200000I311397J0D01*
G01*
X104522794Y-107600000D02*
G75*
G02*
X104811397Y-107888603I0J-288603D01*
G01*
X108225000Y-108625000D02*
G75*
G03*
X108600000Y-109000000I375000J0D01*
G01*
X110227824Y-109000010D02*
G75*
G03*
X110700000Y-108527834I1J472175D01*
G01*
X108600000Y-109000000D02*
G75*
G03*
X108600010Y-109000010I10J0D01*
G01*
D60*
%TO.N,Net-(A1-Pad1)*%
X102475000Y-85900000D02*
X102475000Y-87100000D01*
X102475000Y-85325000D02*
X102475000Y-85900000D01*
X103800000Y-86750000D02*
X102825000Y-86750000D01*
X102475000Y-85325000D02*
G75*
G03*
X102000000Y-84850000I-474999J1D01*
G01*
X102475000Y-87100000D02*
G75*
G02*
X102825000Y-86750000I350001J-1D01*
G01*
%TO.N,Net-(A1-Pad3)*%
X97525000Y-85325000D02*
X97525000Y-85900000D01*
X96200000Y-86750000D02*
X97175000Y-86750000D01*
X97525000Y-85900000D02*
X97525000Y-87100000D01*
X97525000Y-87100000D02*
G75*
G03*
X97175000Y-86750000I-350001J-1D01*
G01*
X97525000Y-85325000D02*
G75*
G02*
X98000000Y-84850000I474999J1D01*
G01*
D61*
%TO.N,Net-(D4-Pad3)*%
X103400000Y-103600000D02*
X102800000Y-103600000D01*
X102475099Y-103600099D02*
X102799901Y-103600099D01*
X104000000Y-104325000D02*
X105600000Y-104325000D01*
X106820545Y-104624490D02*
X107775510Y-104624490D01*
X105600000Y-104325000D02*
X106097513Y-104325000D01*
X102250000Y-102900000D02*
X102250000Y-103375000D01*
X104000000Y-104325000D02*
X104000000Y-104200000D01*
X102475099Y-103600099D02*
G75*
G02*
X102250000Y-103375000I0J225099D01*
G01*
X106820545Y-104624489D02*
G75*
G02*
X106520001Y-104499999I-2J425029D01*
G01*
X106520000Y-104500000D02*
G75*
G03*
X106097513Y-104325000I-422488J-422488D01*
G01*
X103400000Y-103600000D02*
G75*
G02*
X104000000Y-104200000I0J-600000D01*
G01*
X102799901Y-103600099D02*
G75*
G02*
X102800000Y-103600000I99J0D01*
G01*
X108050000Y-104350000D02*
G75*
G02*
X107775510Y-104624490I-274489J-1D01*
G01*
%TO.N,Net-(R6-Pad1)*%
X108175000Y-95800000D02*
X108175000Y-97300000D01*
X107994928Y-97734732D02*
X107361870Y-98367790D01*
X103550000Y-98750000D02*
X102900000Y-98750000D01*
X106604907Y-99600000D02*
X104272862Y-99600000D01*
X107100000Y-99000000D02*
X107100000Y-99104907D01*
X103800000Y-99127138D02*
X103800000Y-99000000D01*
X107013569Y-99313569D02*
X106813569Y-99513569D01*
X107100001Y-99000000D02*
G75*
G02*
X107361871Y-98367791I894079J0D01*
G01*
X107013569Y-99313569D02*
G75*
G03*
X107100000Y-99104907I-208665J208664D01*
G01*
X107994928Y-97734732D02*
G75*
G03*
X108175000Y-97300000I-434731J434732D01*
G01*
X103550000Y-98750000D02*
G75*
G02*
X103800000Y-99000000I1J-249999D01*
G01*
X103800000Y-99127138D02*
G75*
G03*
X104272862Y-99600000I472862J0D01*
G01*
X106604907Y-99600000D02*
G75*
G03*
X106813569Y-99513569I-2J295096D01*
G01*
%TO.N,Net-(R10-Pad1)*%
X102900000Y-101250000D02*
X104037868Y-101250000D01*
X106949520Y-101186844D02*
X106949520Y-100549520D01*
X107320072Y-99654928D02*
X108175000Y-98800000D01*
X104806027Y-101568182D02*
X106568182Y-101568182D01*
X106949520Y-101186844D02*
G75*
G02*
X106568182Y-101568182I-381337J-1D01*
G01*
X104400000Y-101400000D02*
G75*
G03*
X104037868Y-101250000I-362134J-362137D01*
G01*
X104806027Y-101568181D02*
G75*
G02*
X104400001Y-101399999I-2J574203D01*
G01*
X107320072Y-99654928D02*
G75*
G03*
X106949520Y-100549520I894587J-894590D01*
G01*
%TO.N,Net-(R11-Pad2)*%
X99250000Y-104275000D02*
X99300000Y-104325000D01*
X99300000Y-104325000D02*
X99300000Y-104800000D01*
X99459900Y-107059900D02*
X87259900Y-107059900D01*
X100100000Y-105600000D02*
X100100000Y-106419800D01*
X99250000Y-103025000D02*
X99250000Y-104275000D01*
X86250000Y-104200000D02*
X86250000Y-106050000D01*
X87259900Y-107059900D02*
G75*
G02*
X86250000Y-106050000I0J1009900D01*
G01*
X100100000Y-105600000D02*
G75*
G03*
X99600000Y-105100000I-500001J-1D01*
G01*
X99600000Y-105100000D02*
G75*
G02*
X99300000Y-104800000I0J300000D01*
G01*
X99459900Y-107059900D02*
G75*
G03*
X100100000Y-106419800I0J640100D01*
G01*
%TO.N,Net-(J2-Pad3)*%
X100825000Y-105900000D02*
X100825000Y-106675000D01*
X101100000Y-107300000D02*
X101072488Y-107272488D01*
X101250000Y-108900000D02*
X101250000Y-107662132D01*
X100825001Y-106675000D02*
G75*
G03*
X101072488Y-107272488I844970J-2D01*
G01*
X101100000Y-107300000D02*
G75*
G02*
X101250000Y-107662132I-362126J-362129D01*
G01*
%TO.N,Net-(J2-Pad4)*%
X103200480Y-106392263D02*
X103200480Y-104700480D01*
X102900000Y-104400000D02*
X102475000Y-104400000D01*
X105174578Y-106699520D02*
X103507737Y-106699520D01*
X103200480Y-106392263D02*
G75*
G03*
X103507737Y-106699520I307255J-2D01*
G01*
X105174578Y-106699521D02*
G75*
G02*
X105899999Y-107000001I0J-1025900D01*
G01*
X102900000Y-104400000D02*
G75*
G02*
X103200480Y-104700480I-2J-300482D01*
G01*
%TD*%
M02*
