%TF.GenerationSoftware,KiCad,Pcbnew,(6.0.5-0)*%
%TF.CreationDate,2022-07-08T15:47:18+01:00*%
%TF.ProjectId,PN532-Round,504e3533-322d-4526-9f75-6e642e6b6963,7*%
%TF.SameCoordinates,Original*%
%TF.FileFunction,Copper,L2,Bot*%
%TF.FilePolarity,Positive*%
%FSLAX46Y46*%
G04 Gerber Fmt 4.6, Leading zero omitted, Abs format (unit mm)*
G04 Created by KiCad (PCBNEW (6.0.5-0)) date 2022-07-08 15:47:18*
%MOMM*%
%LPD*%
G01*
G04 APERTURE LIST*
G04 Aperture macros list*
%AMFreePoly0*
4,1,810,0.005746,0.248857,0.011538,0.249734,0.011543,0.249733,0.856319,0.194888,1.698464,0.108558,2.536802,-0.009136,3.370164,-0.158029,4.197389,-0.337916,5.017327,-0.548545,5.828834,-0.789623,6.630779,-1.060814,7.422047,-1.361740,8.201535,-1.691983,8.968158,-2.051081,9.720847,-2.438536,10.458554,-2.853807,10.466372,-2.860772,10.476082,-2.864122,11.203160,-3.307265,11.913102,-3.777372,
12.604907,-4.273783,13.277602,-4.795798,13.930240,-5.342682,14.561902,-5.913665,15.171698,-6.507944,15.758770,-7.124681,16.322291,-7.763009,16.861469,-8.422028,17.375543,-9.100811,17.863790,-9.798402,18.325523,-10.513819,18.760092,-11.246054,18.765717,-11.262998,18.777281,-11.276353,19.213669,-12.080578,19.617210,-12.901778,19.987246,-13.738610,20.323171,-14.589708,20.624437,-15.453683,20.890553,-16.329123,
21.121084,-17.214601,21.315653,-18.108668,21.473942,-19.009866,21.595694,-19.916724,21.680710,-20.827760,21.728850,-21.741486,21.740037,-22.656412,21.739531,-22.658854,21.739997,-22.661261,21.739996,-22.661267,21.716918,-23.572703,21.656913,-24.482460,21.560082,-25.389038,21.426583,-26.290946,21.256636,-27.186701,21.050519,-28.074831,20.808572,-28.953877,20.531193,-29.822392,20.218837,-30.678951,19.872018,-31.522145,
19.491305,-32.350588,19.077325,-33.162918,18.630759,-33.957800,18.627331,-33.961642,18.625663,-33.966450,18.625658,-33.966456,18.150506,-34.740672,17.644561,-35.495135,17.108646,-36.228613,16.543633,-36.939917,15.950436,-37.627893,15.330018,-38.291426,14.683386,-38.929439,14.011587,-39.540898,13.315713,-40.124810,12.596892,-40.680228,11.856288,-41.206252,11.095105,-41.702028,10.314577,-42.166753,10.313710,-42.167041,
10.313012,-42.167642,9.517835,-42.596391,8.706198,-42.993101,7.879393,-43.357141,7.038732,-43.687932,6.185554,-43.984949,5.321213,-44.247718,4.447085,-44.475824,3.564558,-44.668902,2.675036,-44.826646,1.779933,-44.948805,0.880671,-45.035186,-0.021319,-45.085649,-0.924604,-45.100117,-0.938181,-45.097361,-0.951978,-45.099992,-1.851898,-45.074801,-2.750082,-45.013514,-3.645083,-44.916232,-4.535458,-44.783110,
-5.419774,-44.614363,-6.296605,-44.410262,-7.164539,-44.171138,-8.022178,-43.897374,-8.868138,-43.589412,-9.701059,-43.247749,-10.519596,-42.872934,-11.322433,-42.465571,-12.108274,-42.026318,-12.116285,-42.019204,-12.126369,-42.015710,-12.891058,-41.546800,-13.636246,-41.047480,-14.360724,-40.518559,-15.063317,-39.960895,-15.742885,-39.375392,-16.398327,-38.763001,-17.028578,-38.124715,-17.632617,-37.461569,-18.209464,-36.774638,
-18.758183,-36.065037,-19.277884,-35.333917,-19.767725,-34.582464,-20.226911,-33.811896,-20.230321,-33.801637,-20.237383,-33.793468,-20.662823,-33.008126,-21.056403,-32.206343,-21.417489,-31.389411,-21.745499,-30.558646,-22.039905,-29.715387,-22.300233,-28.860991,-22.526062,-27.996837,-22.717029,-27.124316,-22.872826,-26.244834,-22.993203,-25.359808,-23.077965,-24.470664,-23.126976,-23.578835,-23.140157,-22.685758,-23.137337,-22.671965,
-23.139992,-22.658051,-23.115139,-21.766402,-23.054523,-20.876467,-22.958241,-19.989683,-22.826448,-19.107476,-22.659357,-18.231270,-22.457237,-17.362475,-22.220413,-16.502491,-21.949268,-15.652705,-21.644237,-14.814484,-21.305813,-13.989181,-20.934541,-13.178123,-20.531018,-12.382619,-20.095896,-11.603950,-20.095805,-11.603848,-20.095759,-11.603714,-20.095756,-11.603710,-19.631498,-10.846069,-19.137008,-10.107799,-18.613095,-9.390108,
-18.060616,-8.694170,-17.480471,-8.021120,-16.873609,-7.372058,-16.241020,-6.748042,-15.583737,-6.150093,-14.902834,-5.579187,-14.199422,-5.036255,-13.474650,-4.522184,-12.729700,-4.037814,-11.965791,-3.583934,-11.964249,-3.583424,-11.963010,-3.582357,-11.184112,-3.162463,-10.389043,-2.774060,-9.579075,-2.417768,-8.755505,-2.094157,-7.919649,-1.803747,-7.072847,-1.547001,-6.216454,-1.324331,-5.351839,-1.136093,
-4.480387,-0.982588,-3.603493,-0.864062,-2.722560,-0.780704,-1.838997,-0.732648,-0.954220,-0.719971,-0.951201,-0.720589,-0.948155,-0.720007,-0.066890,-0.744266,0.812683,-0.803990,1.689138,-0.899082,2.561054,-1.029388,3.427015,-1.194697,4.285618,-1.394741,5.135469,-1.629195,5.975191,-1.897679,6.803420,-2.199758,7.618815,-2.534940,8.420052,-2.902684,9.205832,-3.302392,9.974880,-3.733415,
9.975468,-3.733939,9.976201,-3.734192,10.724289,-4.192192,11.453263,-4.680041,12.161933,-5.196943,12.849142,-5.742052,13.513767,-6.314480,14.154723,-6.913292,14.770964,-7.537509,15.361483,-8.186113,15.925316,-8.858044,16.461544,-9.552206,16.969289,-10.267464,17.447723,-11.002652,17.896065,-11.756567,17.899756,-11.767707,17.907379,-11.776523,17.907381,-11.776528,18.323885,-12.545428,18.709093,-13.330481,
19.062378,-14.130408,19.383166,-14.943911,19.670938,-15.769671,19.925226,-16.606349,20.145618,-17.452588,20.331758,-18.307014,20.483342,-19.168243,20.600124,-20.034877,20.681917,-20.905511,20.728586,-21.778731,20.740056,-22.653123,20.739161,-22.657464,20.739993,-22.661813,20.716213,-23.531867,20.657536,-24.400266,20.564055,-25.265610,20.435923,-26.126506,20.273344,-26.981566,20.076581,-27.829413,19.845951,-28.668680,
19.581825,-29.498015,19.284630,-30.316083,18.954843,-31.121564,18.592997,-31.913162,18.199674,-32.689600,17.775509,-33.449628,17.768740,-33.457261,17.765321,-33.467031,17.765316,-33.467037,17.309388,-34.205681,16.824276,-34.925504,16.310761,-35.625348,15.769664,-36.304092,15.201853,-36.960651,14.608235,-37.593973,13.989761,-38.203045,13.347420,-38.786892,12.682241,-39.344579,11.995287,-39.875215,11.287660,-40.377950,
10.560490,-40.851979,9.814942,-41.296544,9.814282,-41.296764,9.813757,-41.297219,9.054589,-41.709653,8.279378,-42.091081,7.489391,-42.440878,6.685916,-42.758475,5.870267,-43.043351,5.043774,-43.295043,4.207788,-43.513139,3.363674,-43.697283,2.512809,-43.847174,1.656583,-43.962568,0.796394,-44.043277,-0.066353,-44.089167,-0.930250,-44.100166,-0.941009,-44.097942,-0.951706,-44.099994,-1.811313,-44.076811,
-2.669289,-44.019034,-3.524243,-43.926757,-4.374788,-43.800130,-5.219545,-43.639356,-6.057143,-43.444699,-6.886223,-43.216473,-7.705441,-42.955048,-8.513469,-42.660848,-9.308994,-42.334351,-10.090728,-41.976087,-10.857402,-41.586635,-11.607773,-41.166629,-11.615902,-41.159401,-11.626026,-41.155911,-11.626032,-41.155906,-12.357404,-40.708889,-13.070061,-40.232590,-13.762826,-39.727796,-14.434561,-39.195335,-15.084161,-38.636084,
-15.710558,-38.050961,-16.312722,-37.440929,-16.889665,-36.806990,-17.440437,-36.150186,-17.964134,-35.471596,-18.459894,-34.772337,-18.926902,-34.053557,-19.364392,-33.316439,-19.368636,-33.303590,-19.377374,-33.293485,-19.377376,-33.293480,-19.783579,-32.543668,-20.159262,-31.778102,-20.503815,-30.998030,-20.816679,-30.204717,-21.097345,-29.399449,-21.345358,-28.583534,-21.560317,-27.758293,-21.741872,-26.925066,-21.889730,-26.085205,
-22.003650,-25.240071,-22.083447,-24.391035,-22.128992,-23.539475,-22.140213,-22.686772,-22.137287,-22.672580,-22.139996,-22.658528,-22.139995,-22.658522,-22.117835,-21.809456,-22.061390,-20.961972,-21.970754,-20.117460,-21.846072,-19.277300,-21.687551,-18.442863,-21.495447,-17.615511,-21.270075,-16.796595,-21.011803,-15.987454,-20.721052,-15.189407,-20.398297,-14.403758,-20.044066,-13.631789,-19.658936,-12.874762,-19.243538,-12.133912,
-19.231519,-12.120416,-19.225680,-12.103580,-18.783293,-11.382529,-18.312232,-10.679875,-17.813260,-9.996759,-17.287185,-9.334288,-16.734863,-8.693538,-16.157188,-8.075547,-15.555098,-7.481318,-14.929568,-6.911814,-14.281615,-6.367960,-13.612288,-5.850637,-12.922673,-5.360685,-12.213889,-4.898899,-11.487087,-4.466026,-11.473799,-4.461613,-11.463164,-4.452444,-10.723131,-4.052722,-9.967782,-3.682757,-9.198313,-3.343135,
-8.415941,-3.034394,-7.621906,-2.757023,-6.817466,-2.511460,-6.003892,-2.298095,-5.182475,-2.117265,-4.354514,-1.969257,-3.521320,-1.854304,-3.424080,-1.862016,-3.337193,-1.906353,-3.273888,-1.980566,-3.243801,-2.073355,-3.251513,-2.170595,-3.295850,-2.257482,-3.370063,-2.320787,-3.462852,-2.350874,-3.481804,-2.349371,-4.276975,-2.459077,-5.085511,-2.603613,-5.887657,-2.780201,-6.682143,-2.988560,
-7.467710,-3.228362,-8.243116,-3.499226,-9.007131,-3.800723,-9.758548,-4.132377,-10.496176,-4.493662,-11.202438,-4.875143,-11.216836,-4.887556,-11.229680,-4.891795,-11.239937,-4.900672,-11.258307,-4.906773,-11.951639,-5.319711,-12.643691,-5.770597,-13.317026,-6.248983,-13.970553,-6.754093,-14.603211,-7.285109,-15.213974,-7.841169,-15.801851,-8.421370,-16.365889,-9.024773,-16.905173,-9.650398,-17.418829,-10.297230,
-17.906022,-10.964220,-18.365964,-11.650287,-18.787978,-12.338134,-18.794320,-12.356420,-18.806502,-12.370128,-18.812446,-12.387210,-18.825486,-12.401853,-19.221681,-13.108450,-19.597726,-13.847622,-19.943602,-14.601382,-20.258744,-15.368499,-20.542637,-16.147723,-20.794817,-16.937779,-21.014873,-17.737379,-21.202446,-18.545216,-21.357229,-19.359972,-21.478969,-20.180315,-21.567468,-21.004907,-21.622581,-21.832402,-21.643716,-22.642218,
-21.640004,-22.661472,-21.642970,-22.675939,-21.640225,-22.690262,-21.644165,-22.709372,-21.633460,-23.522970,-21.588981,-24.354591,-21.511053,-25.183746,-21.399800,-26.009090,-21.255405,-26.829286,-21.078101,-27.643003,-20.868175,-28.448920,-20.625969,-29.245730,-20.351875,-30.032142,-20.046338,-30.806879,-19.709852,-31.568686,-19.342965,-32.316325,-18.955388,-33.031757,-18.942626,-33.046515,-18.938266,-33.059659,-18.929336,-33.070013,
-18.923150,-33.088741,-18.505794,-33.791938,-18.049736,-34.493863,-17.565601,-35.176726,-17.054184,-35.839404,-16.516327,-36.480807,-15.952912,-37.099881,-15.364868,-37.695609,-14.753159,-38.267011,-14.118791,-38.813149,-13.462808,-39.333124,-12.786287,-39.826082,-12.090340,-40.291212,-11.392622,-40.717660,-11.373974,-40.724089,-11.365433,-40.731651,-11.354825,-40.735333,-11.340118,-40.748409,-10.624016,-41.149234,-9.875144,-41.529643,
-9.111561,-41.879589,-8.334507,-42.198505,-7.545241,-42.485873,-6.745045,-42.741228,-5.935215,-42.964155,-5.117066,-43.154293,-4.291924,-43.311333,-3.461128,-43.435020,-2.626025,-43.525155,-1.787970,-43.581590,-0.967621,-43.603714,-0.948294,-43.600006,-0.937372,-43.602256,-0.926512,-43.600180,-0.906968,-43.604220,-0.082677,-43.593726,0.760068,-43.548899,1.600313,-43.470062,2.436688,-43.357344,3.267826,-43.210928,
4.092370,-43.031053,4.908974,-42.818013,5.716305,-42.572157,6.513043,-42.293885,7.297889,-41.983652,8.069561,-41.641965,8.826799,-41.269380,9.551162,-40.875854,9.566243,-40.862781,9.566946,-40.862547,9.567508,-40.862060,9.586262,-40.855817,10.298121,-40.431341,11.008676,-39.968143,11.700136,-39.476895,12.371394,-38.958384,13.021375,-38.413438,13.649039,-37.842931,14.253383,-37.247775,14.833437,-36.628923,
15.388275,-35.987366,15.917009,-35.324130,16.418791,-34.640276,16.892819,-33.936900,17.328149,-33.231626,17.334679,-33.212969,17.340821,-33.206097,17.343879,-33.197248,17.356982,-33.182472,17.762009,-32.456737,18.146339,-31.698050,18.499912,-30.924551,18.822159,-30.137486,19.112560,-29.338122,19.370646,-28.527748,19.596003,-27.707669,19.788268,-26.879207,19.947130,-26.043696,20.072333,-25.202484,20.163676,-24.356924,
20.221012,-23.508379,20.243719,-22.677582,20.240007,-22.658187,20.240891,-22.653906,20.240068,-22.649613,20.244112,-22.630001,20.233162,-21.795213,20.187558,-20.941928,20.107633,-20.091170,19.993516,-19.244321,19.845393,-18.402754,19.663503,-17.567834,19.448142,-16.740915,19.199659,-15.923338,18.918457,-15.116429,18.604993,-14.321498,18.259773,-13.539833,17.883359,-12.772703,17.485719,-12.038625,17.472621,-12.023477,
17.468904,-12.012269,17.461239,-12.003399,17.454864,-11.984158,17.026922,-11.264546,16.559412,-10.546145,16.063260,-9.847218,15.539277,-9.168906,14.988317,-8.512317,14.411281,-7.878523,13.809111,-7.268559,13.182790,-6.683420,12.533340,-6.124062,11.861823,-5.591399,11.169334,-5.086300,10.457005,-4.609590,9.742955,-4.172430,9.723799,-4.165808,9.722865,-4.164979,9.721690,-4.164571,9.706610,-4.151148,
8.972253,-3.739567,8.204266,-3.348909,7.421171,-2.989493,6.624240,-2.661900,5.814764,-2.366661,4.994057,-2.104257,4.163449,-1.875112,3.324288,-1.679597,2.477935,-1.518031,1.625763,-1.390676,0.769153,-1.297737,-0.090503,-1.239365,-0.932017,-1.216201,-0.951845,-1.219993,-0.954438,-1.219457,-0.957058,-1.219963,-0.976810,-1.215917,-1.821984,-1.228027,-2.685746,-1.275006,-3.546938,-1.356496,
-4.404181,-1.472366,-5.256104,-1.622431,-6.101343,-1.806451,-6.938545,-2.024131,-7.766370,-2.275123,-8.583494,-2.559025,-9.388609,-2.875384,-10.180426,-3.223691,-10.957677,-3.603391,-11.701713,-4.004491,-11.716990,-4.017643,-11.718176,-4.018034,-11.719131,-4.018858,-11.738631,-4.025310,-12.468002,-4.458668,-13.196162,-4.932122,-13.904600,-5.434607,-14.592160,-5.965303,-15.257717,-6.523343,-15.900187,-7.107816,
-16.518519,-7.717768,-17.111705,-8.352203,-17.678774,-9.010084,-18.218803,-9.690338,-18.730908,-10.391854,-19.214254,-11.113486,-19.657522,-11.836874,-19.664241,-11.856286,-19.664350,-11.856409,-19.664404,-11.856564,-19.677846,-11.871706,-20.093575,-12.615668,-20.488097,-13.393429,-20.851088,-14.186397,-21.181964,-14.993293,-21.480191,-15.812817,-21.745289,-16.643650,-21.976830,-17.484452,-22.174442,-18.333869,-22.337807,-19.190533,
-22.466660,-20.053062,-22.560794,-20.920067,-22.620059,-21.790152,-22.643804,-22.642058,-22.640008,-22.661949,-22.642735,-22.675123,-22.640165,-22.688414,-22.644226,-22.708276,-22.631632,-23.561576,-22.583713,-24.433540,-22.500838,-25.302878,-22.383143,-26.168191,-22.230816,-27.028083,-22.044102,-27.881168,-21.823304,-28.726074,-21.568775,-29.561438,-21.280927,-30.385914,-20.960223,-31.198174,-20.607180,-31.996909,-20.222366,-32.780833,
-19.815877,-33.531194,-19.802617,-33.546531,-19.799272,-33.556618,-19.792323,-33.564644,-19.785840,-33.584149,-19.347193,-34.320250,-18.868252,-35.054982,-18.360114,-35.769834,-17.823604,-36.463646,-17.259593,-37.135292,-16.668994,-37.783683,-16.052767,-38.407766,-15.411909,-39.006531,-14.747462,-39.579006,-14.060502,-40.124261,-13.352144,-40.641414,-12.623538,-41.129624,-11.893051,-41.577560,-11.873631,-41.584290,-11.865652,-41.591377,
-11.855608,-41.594856,-11.840321,-41.608430,-11.089350,-42.028192,-10.304255,-42.426552,-9.503805,-42.793085,-8.689290,-43.127199,-7.862023,-43.428355,-7.023336,-43.696070,-6.174581,-43.929910,-5.317125,-44.129501,-4.452350,-44.294519,-3.581650,-44.424699,-2.706426,-44.519832,-1.828090,-44.579764,-0.968101,-44.603837,-0.948022,-44.600008,-0.935439,-44.602614,-0.922642,-44.600121,-0.902640,-44.604181,-0.039133,-44.590351,
0.843126,-44.540991,1.722717,-44.456500,2.598241,-44.337013,3.468306,-44.182719,4.331528,-43.993864,5.186536,-43.770749,6.031970,-43.513727,6.866486,-43.223207,7.688757,-42.899652,8.497477,-42.543575,9.291360,-42.155542,10.051522,-41.745673,10.066988,-41.732358,10.067262,-41.732268,10.067487,-41.732073,10.087243,-41.725514,10.833079,-41.281446,11.577539,-40.796562,12.301872,-40.282094,13.004902,-39.738878,
13.685488,-39.167794,14.342528,-38.569769,14.974954,-37.945772,15.581742,-37.296817,16.161906,-36.623955,16.714507,-35.928277,17.238648,-35.210913,17.733478,-34.473026,18.187514,-33.733216,18.194337,-33.713550,18.198066,-33.709355,18.199895,-33.704114,18.213882,-33.688437,18.640515,-32.929037,19.045374,-32.134605,19.417698,-31.324415,19.756876,-30.499800,20.062350,-29.662113,20.333618,-28.812733,20.570234,-27.953056,
20.771809,-27.084494,20.938012,-26.208475,21.068570,-25.326439,21.163267,-24.439835,21.221949,-23.550122,21.243997,-22.679364,21.240003,-22.658739,21.240652,-22.655562,21.240053,-22.652422,21.244347,-22.631699,21.233659,-21.757552,21.186573,-20.863818,21.103417,-19.972715,20.984329,-19.085700,20.829503,-18.204221,20.639191,-17.329716,20.413705,-16.463613,20.153412,-15.607327,19.858737,-14.762256,19.530162,-13.929781,
19.168223,-13.111259,18.773512,-12.308027,18.356572,-11.539644,18.342719,-11.523648,18.337045,-11.506584,18.325402,-11.493126,18.318720,-11.472996,17.870478,-10.720197,17.380829,-9.968690,16.861220,-9.237577,16.312497,-8.528054,15.735558,-7.841278,15.131344,-7.178372,14.500842,-6.540417,13.845082,-5.928455,13.165133,-5.343486,12.462106,-4.786464,11.737150,-4.258299,10.991448,-3.759854,10.243970,-3.302797,
10.223918,-3.295878,10.215555,-3.288469,10.205196,-3.284863,10.189366,-3.270761,9.425102,-2.842105,8.625601,-2.435260,7.810307,-2.061065,6.980554,-1.720132,6.137697,-1.413019,5.283116,-1.140227,4.418205,-0.902202,3.544381,-0.699333,2.663069,-0.531953,1.775713,-0.400334,0.883761,-0.304691,0.015315,-0.246954,0.000000,-0.250000,-0.005745,-0.248857,-0.011538,-0.249734,-0.053388,-0.239381,
-0.095671,-0.230970,-0.100543,-0.227715,-0.106229,-0.226308,-0.140927,-0.200731,-0.176777,-0.176777,-0.180032,-0.171906,-0.184747,-0.168430,-0.207015,-0.131522,-0.230970,-0.095671,-0.232113,-0.089924,-0.235139,-0.084909,-0.241589,-0.042283,-0.250000,0.000000,-0.248857,0.005745,-0.249734,0.011538,-0.239381,0.053388,-0.230970,0.095671,-0.227715,0.100543,-0.226308,0.106229,-0.200731,0.140927,
-0.176777,0.176777,-0.171906,0.180032,-0.168430,0.184747,-0.131522,0.207015,-0.095671,0.230970,-0.089924,0.232113,-0.084909,0.235139,-0.042293,0.241588,0.000000,0.250000,0.005746,0.248857,0.005746,0.248857,$1*%
G04 Aperture macros list end*
%TA.AperFunction,SMDPad,CuDef*%
%ADD10R,1.900000X0.500000*%
%TD*%
%TA.AperFunction,ComponentPad*%
%ADD11C,0.500000*%
%TD*%
%TA.AperFunction,SMDPad,CuDef*%
%ADD12FreePoly0,0.000000*%
%TD*%
%TA.AperFunction,ComponentPad*%
%ADD13C,1.820000*%
%TD*%
%TA.AperFunction,ViaPad*%
%ADD14C,0.800000*%
%TD*%
%TA.AperFunction,Conductor*%
%ADD15C,0.250000*%
%TD*%
%TA.AperFunction,Conductor*%
%ADD16C,0.500000*%
%TD*%
G04 APERTURE END LIST*
D10*
%TO.P,A1,*%
%TO.N,*%
X100000000Y-77590000D03*
D11*
X99050000Y-77590000D03*
X100950000Y-77590000D03*
D12*
X100950000Y-77590000D03*
D11*
X97480000Y-79690000D03*
%TD*%
D13*
%TO.P,D2,*%
%TO.N,*%
X112500000Y-100000000D03*
%TD*%
%TO.P,D3,*%
%TO.N,*%
X112500000Y-95000000D03*
%TD*%
%TO.P,D1,*%
%TO.N,*%
X112500000Y-105000000D03*
%TD*%
D14*
%TO.N,GND*%
X104400000Y-99860000D03*
X93000000Y-100134500D03*
X101000000Y-97600000D03*
X105514175Y-97403682D03*
X100000000Y-89385000D03*
X100000000Y-96600000D03*
X109000000Y-103830000D03*
X99000000Y-95560000D03*
X99000000Y-97560000D03*
X97053825Y-99939076D03*
X104250000Y-91750000D03*
X97195244Y-103717690D03*
X106175000Y-92060000D03*
X109000000Y-99535500D03*
X98769153Y-104068465D03*
X109000000Y-102135000D03*
X101000000Y-95560000D03*
X112250000Y-102500000D03*
X95950000Y-94735000D03*
%TO.N,+3V3*%
X97350000Y-91760000D03*
X107100000Y-92960000D03*
X92200000Y-89410000D03*
X107100000Y-100459989D03*
X107100000Y-102460000D03*
X91400000Y-102560000D03*
X99522431Y-91240773D03*
%TO.N,+5V*%
X105250000Y-92660000D03*
X109000000Y-90935000D03*
X100000000Y-104250000D03*
X105250000Y-90935000D03*
%TO.N,Net-(D2-Pad2)*%
X109013557Y-96242734D03*
X110799502Y-90500000D03*
%TO.N,Net-(C9-Pad1)*%
X94200000Y-90260000D03*
X96424500Y-92484500D03*
%TO.N,Net-(D6-Pad6)*%
X103000000Y-103750000D03*
X106250000Y-103500000D03*
%TO.N,Net-(C19-Pad1)*%
X105432888Y-104149500D03*
X102294502Y-104500000D03*
%TD*%
D15*
%TO.N,GND*%
X109000000Y-102135000D02*
X111885000Y-102135000D01*
X109000000Y-102135000D02*
X109000000Y-103830000D01*
X109000000Y-102135000D02*
X109000000Y-99535500D01*
D16*
X100499501Y-90953770D02*
X100499501Y-92249073D01*
X100750000Y-95560000D02*
X101000000Y-95560000D01*
X100000000Y-89385000D02*
X100000000Y-89747868D01*
X100250000Y-92851421D02*
X100250000Y-95060000D01*
X100149991Y-90110009D02*
G75*
G02*
X100000000Y-89747868I362109J362109D01*
G01*
X100499513Y-90953770D02*
G75*
G03*
X100150000Y-90110000I-1193313J-30D01*
G01*
X100350008Y-92610008D02*
G75*
G03*
X100499501Y-92249073I-360908J360908D01*
G01*
D15*
X112250000Y-102500000D02*
G75*
G03*
X111885000Y-102135000I-365000J0D01*
G01*
D16*
X100750000Y-95560000D02*
G75*
G02*
X100250000Y-95060000I0J500000D01*
G01*
X100250009Y-92851421D02*
G75*
G02*
X100350000Y-92610000I341391J21D01*
G01*
D15*
%TO.N,+3V3*%
X105388825Y-105149501D02*
X95149501Y-105149501D01*
X97350000Y-91760000D02*
X95900000Y-91760000D01*
X94000000Y-89410000D02*
X92200000Y-89410000D01*
X107100000Y-100459989D02*
X107100000Y-92960000D01*
X107100000Y-102460000D02*
X107100000Y-100459989D01*
X97350000Y-91760000D02*
X99003204Y-91760000D01*
X95000000Y-90410000D02*
X95000000Y-90860000D01*
X91400000Y-102560000D02*
X93169257Y-104329257D01*
X107100000Y-102460000D02*
X107100000Y-103438326D01*
X94000000Y-89410000D02*
G75*
G02*
X95000000Y-90410000I0J-1000000D01*
G01*
X99522400Y-91240773D02*
G75*
G02*
X99003204Y-91760000I-519200J-27D01*
G01*
X105388825Y-105149500D02*
G75*
G03*
X107100000Y-103438326I-25J1711200D01*
G01*
X95149501Y-105149496D02*
G75*
G02*
X93169257Y-104329257I-1J2800496D01*
G01*
X95000000Y-90860000D02*
G75*
G03*
X95900000Y-91760000I900000J0D01*
G01*
%TO.N,+5V*%
X105250000Y-90935000D02*
X109000000Y-90935000D01*
D16*
X102250000Y-95660000D02*
X102250000Y-101500000D01*
X102250000Y-102000000D02*
X102250000Y-101500000D01*
X102250000Y-95660000D02*
G75*
G02*
X105250000Y-92660000I3000000J0D01*
G01*
X102250000Y-102000000D02*
G75*
G02*
X100000000Y-104250000I-2250000J0D01*
G01*
D15*
%TO.N,Net-(D2-Pad2)*%
X110799502Y-90500000D02*
X110799502Y-91931082D01*
X109013567Y-96242744D02*
G75*
G03*
X110799502Y-91931082I-4311667J4311644D01*
G01*
%TO.N,Net-(C9-Pad1)*%
X95877378Y-92482622D02*
X96422622Y-92482622D01*
X94200000Y-90260000D02*
X94200000Y-90805244D01*
X96422622Y-92482622D02*
X96424500Y-92484500D01*
X95877378Y-92482600D02*
G75*
G02*
X94200000Y-90805244I22J1677400D01*
G01*
%TO.N,Net-(D6-Pad6)*%
X103250000Y-103500000D02*
X106250000Y-103500000D01*
X103250000Y-103500000D02*
G75*
G03*
X103000000Y-103750000I0J-250000D01*
G01*
%TO.N,Net-(C19-Pad1)*%
X105426434Y-104372348D02*
X105432888Y-104365894D01*
X105432888Y-104365894D02*
X105432888Y-104149500D01*
X102294502Y-104500000D02*
X105000000Y-104500000D01*
X105426446Y-104372367D02*
G75*
G02*
X105000000Y-104499999I-438346J688367D01*
G01*
%TD*%
%TA.AperFunction,Conductor*%
%TO.N,GND*%
G36*
X93570531Y-89805502D02*
G01*
X93617024Y-89859158D01*
X93627128Y-89929432D01*
X93619805Y-89957264D01*
X93565309Y-90097039D01*
X93544758Y-90253138D01*
X93562035Y-90409633D01*
X93616143Y-90557490D01*
X93620380Y-90563796D01*
X93620382Y-90563799D01*
X93645647Y-90601397D01*
X93703958Y-90688172D01*
X93709577Y-90693285D01*
X93709578Y-90693286D01*
X93781695Y-90758908D01*
X93818618Y-90819549D01*
X93822626Y-90843858D01*
X93828746Y-90937185D01*
X93837702Y-91073779D01*
X93890206Y-91337709D01*
X93976711Y-91592528D01*
X94095735Y-91833876D01*
X94098033Y-91837315D01*
X94178764Y-91958134D01*
X94200000Y-92028137D01*
X94200000Y-94660000D01*
X94300000Y-94660000D01*
X94300000Y-92430448D01*
X94320002Y-92362327D01*
X94373658Y-92315834D01*
X94443932Y-92305730D01*
X94509077Y-92335716D01*
X94515232Y-92341114D01*
X94624997Y-92437374D01*
X94848748Y-92586878D01*
X94852441Y-92588699D01*
X95005407Y-92664134D01*
X95090097Y-92705899D01*
X95183058Y-92737456D01*
X95214502Y-92748130D01*
X95272578Y-92788968D01*
X95299356Y-92854721D01*
X95300000Y-92867443D01*
X95300000Y-93460000D01*
X95307327Y-93466838D01*
X95307327Y-93466839D01*
X95647568Y-93784397D01*
X96050000Y-94160000D01*
X99274000Y-94160000D01*
X99342121Y-94180002D01*
X99388614Y-94233658D01*
X99400000Y-94286000D01*
X99400000Y-99360000D01*
X99500000Y-99360000D01*
X99500000Y-94286000D01*
X99520002Y-94217879D01*
X99573658Y-94171386D01*
X99626000Y-94160000D01*
X101889972Y-94160000D01*
X101958093Y-94180002D01*
X102004586Y-94233658D01*
X102014690Y-94303932D01*
X102008607Y-94328448D01*
X101917782Y-94582288D01*
X101896190Y-94642633D01*
X101890684Y-94664615D01*
X101854731Y-94725833D01*
X101791387Y-94757896D01*
X101768460Y-94760000D01*
X100900000Y-94760000D01*
X100900000Y-95000000D01*
X101663030Y-95000000D01*
X101731151Y-95020002D01*
X101777644Y-95073658D01*
X101787666Y-95144488D01*
X101762154Y-95316477D01*
X101747148Y-95621943D01*
X101746456Y-95636020D01*
X101745804Y-95642408D01*
X101745773Y-95644946D01*
X101744391Y-95653823D01*
X101745555Y-95662725D01*
X101745555Y-95662728D01*
X101748436Y-95684756D01*
X101749500Y-95701093D01*
X101749500Y-101951259D01*
X101748000Y-101970643D01*
X101744391Y-101993823D01*
X101746179Y-102007493D01*
X101746328Y-102008635D01*
X101747071Y-102033959D01*
X101738314Y-102156412D01*
X101732336Y-102239994D01*
X101729778Y-102257785D01*
X101682803Y-102473723D01*
X101680550Y-102484080D01*
X101675488Y-102501323D01*
X101594548Y-102718332D01*
X101587082Y-102734678D01*
X101476090Y-102937944D01*
X101466371Y-102953067D01*
X101327582Y-103138468D01*
X101315809Y-103152054D01*
X101152054Y-103315809D01*
X101138468Y-103327582D01*
X100953067Y-103466371D01*
X100937944Y-103476090D01*
X100734678Y-103587082D01*
X100718326Y-103594550D01*
X100598344Y-103639301D01*
X100501331Y-103675485D01*
X100484082Y-103680549D01*
X100409070Y-103696867D01*
X100338255Y-103691803D01*
X100323328Y-103685102D01*
X100241543Y-103641799D01*
X100241544Y-103641799D01*
X100234831Y-103638245D01*
X100218122Y-103634048D01*
X100089498Y-103601740D01*
X100089496Y-103601740D01*
X100082128Y-103599889D01*
X100074530Y-103599849D01*
X100074528Y-103599849D01*
X100007319Y-103599497D01*
X99924684Y-103599065D01*
X99917305Y-103600837D01*
X99917301Y-103600837D01*
X99778967Y-103634048D01*
X99778963Y-103634049D01*
X99771588Y-103635820D01*
X99631679Y-103708032D01*
X99625957Y-103713024D01*
X99625955Y-103713025D01*
X99518759Y-103806538D01*
X99518756Y-103806541D01*
X99513034Y-103811533D01*
X99422501Y-103940348D01*
X99365309Y-104087039D01*
X99364318Y-104094568D01*
X99347356Y-104223408D01*
X99344758Y-104243138D01*
X99362035Y-104399633D01*
X99364258Y-104405709D01*
X99360367Y-104476115D01*
X99318746Y-104533632D01*
X99252636Y-104559517D01*
X99241614Y-104560000D01*
X98126000Y-104560000D01*
X98057879Y-104539998D01*
X98011386Y-104486342D01*
X98000000Y-104434000D01*
X98000000Y-101460000D01*
X97800000Y-101460000D01*
X97800000Y-104434000D01*
X97779998Y-104502121D01*
X97726342Y-104548614D01*
X97674000Y-104560000D01*
X94626000Y-104560000D01*
X94557879Y-104539998D01*
X94511386Y-104486342D01*
X94500000Y-104434000D01*
X94500000Y-101460000D01*
X94300000Y-101460000D01*
X94300000Y-104429221D01*
X94279998Y-104497342D01*
X94226342Y-104543835D01*
X94156068Y-104553939D01*
X94125785Y-104545631D01*
X94103865Y-104536551D01*
X94091147Y-104530426D01*
X93865523Y-104405729D01*
X93853562Y-104398213D01*
X93643315Y-104249036D01*
X93632273Y-104240231D01*
X93461121Y-104087281D01*
X93445848Y-104070383D01*
X93443911Y-104068446D01*
X93438085Y-104060427D01*
X93421893Y-104048663D01*
X93406858Y-104035821D01*
X92085901Y-102714864D01*
X92051875Y-102652552D01*
X92050253Y-102608019D01*
X92055134Y-102573723D01*
X92055278Y-102560000D01*
X92036363Y-102403694D01*
X92016116Y-102350111D01*
X91983394Y-102263514D01*
X91983393Y-102263511D01*
X91980710Y-102256412D01*
X91891531Y-102126657D01*
X91842179Y-102082686D01*
X91804625Y-102022438D01*
X91800000Y-101988612D01*
X91800000Y-100926000D01*
X91820002Y-100857879D01*
X91873658Y-100811386D01*
X91926000Y-100800000D01*
X98600000Y-100800000D01*
X98600000Y-100560000D01*
X91926000Y-100560000D01*
X91857879Y-100539998D01*
X91811386Y-100486342D01*
X91800000Y-100434000D01*
X91800000Y-97526000D01*
X91820002Y-97457879D01*
X91873658Y-97411386D01*
X91926000Y-97400000D01*
X97700000Y-97400000D01*
X97700000Y-97200000D01*
X91926000Y-97200000D01*
X91857879Y-97179998D01*
X91811386Y-97126342D01*
X91800000Y-97074000D01*
X91800000Y-92677124D01*
X91804570Y-92643497D01*
X91836624Y-92527747D01*
X92534305Y-90008344D01*
X92573901Y-89946164D01*
X92682348Y-89853542D01*
X92686777Y-89847378D01*
X92686780Y-89847375D01*
X92693536Y-89837973D01*
X92749531Y-89794326D01*
X92795858Y-89785500D01*
X93502410Y-89785500D01*
X93570531Y-89805502D01*
G37*
%TD.AperFunction*%
%TA.AperFunction,Conductor*%
G36*
X104270575Y-90480002D02*
G01*
X104285693Y-90491410D01*
X104563740Y-90736092D01*
X104601665Y-90796111D01*
X104605423Y-90847128D01*
X104596703Y-90913365D01*
X104594758Y-90928138D01*
X104612035Y-91084633D01*
X104666143Y-91232490D01*
X104670380Y-91238796D01*
X104670382Y-91238799D01*
X104691396Y-91270071D01*
X104753958Y-91363172D01*
X104870410Y-91469135D01*
X104877085Y-91472759D01*
X105002099Y-91540637D01*
X105002101Y-91540638D01*
X105008776Y-91544262D01*
X105016125Y-91546190D01*
X105153719Y-91582287D01*
X105153721Y-91582287D01*
X105161069Y-91584215D01*
X105244380Y-91585524D01*
X105310898Y-91586569D01*
X105310901Y-91586569D01*
X105318495Y-91586688D01*
X105325899Y-91584992D01*
X105325901Y-91584992D01*
X105444538Y-91557821D01*
X105490458Y-91560601D01*
X105490584Y-91558933D01*
X105499556Y-91559609D01*
X105500000Y-91560000D01*
X106447810Y-91560000D01*
X106515931Y-91580002D01*
X106536905Y-91596905D01*
X106963095Y-92023095D01*
X106997121Y-92085407D01*
X107000000Y-92112190D01*
X107000000Y-92215660D01*
X106979998Y-92283781D01*
X106926342Y-92330274D01*
X106903415Y-92338178D01*
X106878974Y-92344046D01*
X106878968Y-92344048D01*
X106871588Y-92345820D01*
X106731679Y-92418032D01*
X106725957Y-92423024D01*
X106725955Y-92423025D01*
X106618759Y-92516538D01*
X106618756Y-92516541D01*
X106613034Y-92521533D01*
X106608667Y-92527747D01*
X106537467Y-92629054D01*
X106522501Y-92650348D01*
X106465309Y-92797039D01*
X106444758Y-92953138D01*
X106462035Y-93109633D01*
X106516143Y-93257490D01*
X106520380Y-93263796D01*
X106520382Y-93263799D01*
X106549605Y-93307287D01*
X106603958Y-93388172D01*
X106609573Y-93393281D01*
X106609578Y-93393287D01*
X106683300Y-93460369D01*
X106720222Y-93521009D01*
X106724500Y-93553562D01*
X106724500Y-98874000D01*
X106704498Y-98942121D01*
X106650842Y-98988614D01*
X106598500Y-99000000D01*
X104400000Y-99000000D01*
X104400000Y-99160000D01*
X106598500Y-99160000D01*
X106666621Y-99180002D01*
X106713114Y-99233658D01*
X106724500Y-99286000D01*
X106724500Y-99866995D01*
X106704498Y-99935116D01*
X106681331Y-99961942D01*
X106613034Y-100021522D01*
X106522501Y-100150337D01*
X106465309Y-100297028D01*
X106444758Y-100453127D01*
X106462035Y-100609622D01*
X106464645Y-100616754D01*
X106492326Y-100692396D01*
X106500000Y-100735697D01*
X106500000Y-102184367D01*
X106491393Y-102230136D01*
X106465309Y-102297039D01*
X106464317Y-102304572D01*
X106464317Y-102304573D01*
X106450275Y-102411234D01*
X106444758Y-102453138D01*
X106462035Y-102609633D01*
X106464645Y-102616765D01*
X106490224Y-102686664D01*
X106494850Y-102757510D01*
X106460440Y-102819610D01*
X106397918Y-102853249D01*
X106347085Y-102852279D01*
X106347033Y-102852692D01*
X106343176Y-102852205D01*
X106341197Y-102852167D01*
X106332128Y-102849889D01*
X106324530Y-102849849D01*
X106324528Y-102849849D01*
X106257319Y-102849497D01*
X106174684Y-102849065D01*
X106167305Y-102850837D01*
X106167301Y-102850837D01*
X106028967Y-102884048D01*
X106028963Y-102884049D01*
X106021588Y-102885820D01*
X105968670Y-102913133D01*
X105891299Y-102953067D01*
X105881679Y-102958032D01*
X105875957Y-102963024D01*
X105875955Y-102963025D01*
X105768759Y-103056538D01*
X105768756Y-103056541D01*
X105763034Y-103061533D01*
X105758667Y-103067747D01*
X105758664Y-103067750D01*
X105756415Y-103070950D01*
X105754179Y-103072731D01*
X105753582Y-103073394D01*
X105753471Y-103073294D01*
X105700881Y-103115182D01*
X105653328Y-103124500D01*
X103289473Y-103124500D01*
X103269762Y-103122949D01*
X103259793Y-103121370D01*
X103250000Y-103119819D01*
X103236978Y-103121881D01*
X103231385Y-103122639D01*
X103213545Y-103124649D01*
X103168743Y-103121645D01*
X103089498Y-103101740D01*
X103089496Y-103101740D01*
X103082128Y-103099889D01*
X103074530Y-103099849D01*
X103074528Y-103099849D01*
X103007319Y-103099497D01*
X102924684Y-103099065D01*
X102917305Y-103100837D01*
X102917301Y-103100837D01*
X102778967Y-103134048D01*
X102778963Y-103134049D01*
X102771588Y-103135820D01*
X102764846Y-103139300D01*
X102764840Y-103139302D01*
X102740564Y-103151832D01*
X102670857Y-103165301D01*
X102604934Y-103138945D01*
X102563724Y-103081133D01*
X102560313Y-103010218D01*
X102566366Y-102991648D01*
X102598888Y-102913133D01*
X102598888Y-102913132D01*
X102600242Y-102909864D01*
X102607680Y-102884048D01*
X102642430Y-102763426D01*
X102685765Y-102613008D01*
X102737512Y-102308444D01*
X102753070Y-102031412D01*
X102754618Y-102017574D01*
X102754689Y-102017152D01*
X102754689Y-102017149D01*
X102755496Y-102012354D01*
X102755647Y-102000000D01*
X102751773Y-101972949D01*
X102750500Y-101955087D01*
X102750500Y-95712576D01*
X102752246Y-95691671D01*
X102754689Y-95677148D01*
X102755496Y-95672354D01*
X102755647Y-95660000D01*
X102753844Y-95647410D01*
X102752802Y-95621943D01*
X102768264Y-95366326D01*
X102770098Y-95351222D01*
X102815534Y-95103288D01*
X102847488Y-95039888D01*
X102908645Y-95003829D01*
X102939470Y-95000000D01*
X105000000Y-95000000D01*
X105000000Y-94760000D01*
X103113958Y-94760000D01*
X103045837Y-94739998D01*
X102999344Y-94686342D01*
X102989240Y-94616068D01*
X102999057Y-94582293D01*
X103033681Y-94505361D01*
X103040745Y-94491903D01*
X103189011Y-94246642D01*
X103197654Y-94234121D01*
X103374397Y-94008524D01*
X103384487Y-93997135D01*
X103587135Y-93794487D01*
X103598524Y-93784397D01*
X103824121Y-93607654D01*
X103836642Y-93599011D01*
X104081903Y-93450745D01*
X104095376Y-93443674D01*
X104111032Y-93436628D01*
X104356716Y-93326054D01*
X104370934Y-93320662D01*
X104644555Y-93235398D01*
X104659328Y-93231757D01*
X104825202Y-93201359D01*
X104895812Y-93208754D01*
X104908024Y-93214558D01*
X105008776Y-93269262D01*
X105016125Y-93271190D01*
X105153719Y-93307287D01*
X105153721Y-93307287D01*
X105161069Y-93309215D01*
X105244380Y-93310524D01*
X105310898Y-93311569D01*
X105310901Y-93311569D01*
X105318495Y-93311688D01*
X105471968Y-93276538D01*
X105612625Y-93205795D01*
X105646447Y-93176908D01*
X105726574Y-93108474D01*
X105726576Y-93108471D01*
X105732348Y-93103542D01*
X105824224Y-92975683D01*
X105882950Y-92829598D01*
X105893025Y-92758809D01*
X105904553Y-92677807D01*
X105904553Y-92677804D01*
X105905134Y-92673723D01*
X105905278Y-92660000D01*
X105886363Y-92503694D01*
X105830710Y-92356412D01*
X105741531Y-92226657D01*
X105639219Y-92135500D01*
X105629648Y-92126972D01*
X105629645Y-92126970D01*
X105623976Y-92121919D01*
X105484831Y-92048245D01*
X105468122Y-92044048D01*
X105339498Y-92011740D01*
X105339496Y-92011740D01*
X105332128Y-92009889D01*
X105324530Y-92009849D01*
X105324528Y-92009849D01*
X105257319Y-92009497D01*
X105174684Y-92009065D01*
X105167305Y-92010837D01*
X105167301Y-92010837D01*
X105028967Y-92044048D01*
X105028963Y-92044049D01*
X105021588Y-92045820D01*
X104881679Y-92118032D01*
X104875957Y-92123024D01*
X104875955Y-92123025D01*
X104829668Y-92163404D01*
X104765327Y-92193091D01*
X104569329Y-92222165D01*
X104569325Y-92222166D01*
X104566263Y-92222620D01*
X104563264Y-92223371D01*
X104563260Y-92223372D01*
X104417257Y-92259944D01*
X104232633Y-92306190D01*
X104229736Y-92307227D01*
X104229728Y-92307229D01*
X104092272Y-92356412D01*
X103908801Y-92422059D01*
X103597885Y-92569111D01*
X103595243Y-92570694D01*
X103595244Y-92570694D01*
X103490777Y-92633309D01*
X103422065Y-92651174D01*
X103354602Y-92629054D01*
X103309807Y-92573972D01*
X103300000Y-92525235D01*
X103300000Y-90586000D01*
X103320002Y-90517879D01*
X103373658Y-90471386D01*
X103426000Y-90460000D01*
X104202454Y-90460000D01*
X104270575Y-90480002D01*
G37*
%TD.AperFunction*%
%TD*%
M02*
