%TF.GenerationSoftware,KiCad,Pcbnew,(5.1.9-0-10_14)*%
%TF.CreationDate,2021-04-25T14:06:56+01:00*%
%TF.ProjectId,PN532,504e3533-322e-46b6-9963-61645f706362,2*%
%TF.SameCoordinates,Original*%
%TF.FileFunction,Copper,L1,Top*%
%TF.FilePolarity,Positive*%
%FSLAX46Y46*%
G04 Gerber Fmt 4.6, Leading zero omitted, Abs format (unit mm)*
G04 Created by KiCad (PCBNEW (5.1.9-0-10_14)) date 2021-04-25 14:06:56*
%MOMM*%
%LPD*%
G01*
G04 APERTURE LIST*
%TA.AperFunction,NonConductor*%
%ADD10C,0.200000*%
%TD*%
%TA.AperFunction,NonConductor*%
%ADD11C,0.150000*%
%TD*%
%TA.AperFunction,EtchedComponent*%
%ADD12C,0.500000*%
%TD*%
%TA.AperFunction,ComponentPad*%
%ADD13O,1.700000X1.700000*%
%TD*%
%TA.AperFunction,ComponentPad*%
%ADD14R,1.700000X1.700000*%
%TD*%
%TA.AperFunction,ComponentPad*%
%ADD15C,0.600000*%
%TD*%
%TA.AperFunction,ComponentPad*%
%ADD16C,5.700000*%
%TD*%
%TA.AperFunction,ComponentPad*%
%ADD17C,5.500000*%
%TD*%
%TA.AperFunction,ComponentPad*%
%ADD18O,1.700000X1.850000*%
%TD*%
%TA.AperFunction,ComponentPad*%
%ADD19C,1.800000*%
%TD*%
%TA.AperFunction,ComponentPad*%
%ADD20R,1.800000X1.800000*%
%TD*%
%TA.AperFunction,ComponentPad*%
%ADD21C,2.000000*%
%TD*%
%TA.AperFunction,ComponentPad*%
%ADD22C,1.000000*%
%TD*%
%TA.AperFunction,SMDPad,CuDef*%
%ADD23C,0.500000*%
%TD*%
%TA.AperFunction,SMDPad,CuDef*%
%ADD24R,0.200000X0.200000*%
%TD*%
%TA.AperFunction,SMDPad,CuDef*%
%ADD25R,4.600000X4.600000*%
%TD*%
%TA.AperFunction,ComponentPad*%
%ADD26C,1.300000*%
%TD*%
%TA.AperFunction,ComponentPad*%
%ADD27R,1.300000X1.300000*%
%TD*%
%TA.AperFunction,SMDPad,CuDef*%
%ADD28R,1.900000X1.150000*%
%TD*%
%TA.AperFunction,ViaPad*%
%ADD29C,0.800000*%
%TD*%
%TA.AperFunction,Conductor*%
%ADD30C,0.250000*%
%TD*%
%TA.AperFunction,Conductor*%
%ADD31C,0.500000*%
%TD*%
G04 APERTURE END LIST*
D10*
X157442857Y-106985714D02*
X157633333Y-107652380D01*
X157823809Y-107176190D01*
X158014285Y-107652380D01*
X158204761Y-106985714D01*
X158490476Y-106985714D02*
X158680952Y-107652380D01*
X158871428Y-107176190D01*
X159061904Y-107652380D01*
X159252380Y-106985714D01*
X159538095Y-106985714D02*
X159728571Y-107652380D01*
X159919047Y-107176190D01*
X160109523Y-107652380D01*
X160300000Y-106985714D01*
X160680952Y-107557142D02*
X160728571Y-107604761D01*
X160680952Y-107652380D01*
X160633333Y-107604761D01*
X160680952Y-107557142D01*
X160680952Y-107652380D01*
X161157142Y-107652380D02*
X161157142Y-106985714D01*
X161157142Y-107080952D02*
X161204761Y-107033333D01*
X161300000Y-106985714D01*
X161442857Y-106985714D01*
X161538095Y-107033333D01*
X161585714Y-107128571D01*
X161585714Y-107652380D01*
X161585714Y-107128571D02*
X161633333Y-107033333D01*
X161728571Y-106985714D01*
X161871428Y-106985714D01*
X161966666Y-107033333D01*
X162014285Y-107128571D01*
X162014285Y-107652380D01*
X162871428Y-107604761D02*
X162776190Y-107652380D01*
X162585714Y-107652380D01*
X162490476Y-107604761D01*
X162442857Y-107509523D01*
X162442857Y-107128571D01*
X162490476Y-107033333D01*
X162585714Y-106985714D01*
X162776190Y-106985714D01*
X162871428Y-107033333D01*
X162919047Y-107128571D01*
X162919047Y-107223809D01*
X162442857Y-107319047D01*
X163347619Y-107557142D02*
X163395238Y-107604761D01*
X163347619Y-107652380D01*
X163300000Y-107604761D01*
X163347619Y-107557142D01*
X163347619Y-107652380D01*
X164252380Y-106985714D02*
X164252380Y-107652380D01*
X163823809Y-106985714D02*
X163823809Y-107509523D01*
X163871428Y-107604761D01*
X163966666Y-107652380D01*
X164109523Y-107652380D01*
X164204761Y-107604761D01*
X164252380Y-107557142D01*
X164728571Y-107652380D02*
X164728571Y-106652380D01*
X164823809Y-107271428D02*
X165109523Y-107652380D01*
X165109523Y-106985714D02*
X164728571Y-107366666D01*
D11*
X141238095Y-101850119D02*
X141200000Y-101812023D01*
X141161904Y-101735833D01*
X141161904Y-101545357D01*
X141200000Y-101469166D01*
X141238095Y-101431071D01*
X141314285Y-101392976D01*
X141390476Y-101392976D01*
X141504761Y-101431071D01*
X141961904Y-101888214D01*
X141961904Y-101392976D01*
X141161904Y-100897738D02*
X141161904Y-100821547D01*
X141200000Y-100745357D01*
X141238095Y-100707261D01*
X141314285Y-100669166D01*
X141466666Y-100631071D01*
X141657142Y-100631071D01*
X141809523Y-100669166D01*
X141885714Y-100707261D01*
X141923809Y-100745357D01*
X141961904Y-100821547D01*
X141961904Y-100897738D01*
X141923809Y-100973928D01*
X141885714Y-101012023D01*
X141809523Y-101050119D01*
X141657142Y-101088214D01*
X141466666Y-101088214D01*
X141314285Y-101050119D01*
X141238095Y-101012023D01*
X141200000Y-100973928D01*
X141161904Y-100897738D01*
X141238095Y-100326309D02*
X141200000Y-100288214D01*
X141161904Y-100212023D01*
X141161904Y-100021547D01*
X141200000Y-99945357D01*
X141238095Y-99907261D01*
X141314285Y-99869166D01*
X141390476Y-99869166D01*
X141504761Y-99907261D01*
X141961904Y-100364404D01*
X141961904Y-99869166D01*
X141961904Y-99107261D02*
X141961904Y-99564404D01*
X141961904Y-99335833D02*
X141161904Y-99335833D01*
X141276190Y-99412023D01*
X141352380Y-99488214D01*
X141390476Y-99564404D01*
X141657142Y-98764404D02*
X141657142Y-98154880D01*
X141161904Y-97621547D02*
X141161904Y-97545357D01*
X141200000Y-97469166D01*
X141238095Y-97431071D01*
X141314285Y-97392976D01*
X141466666Y-97354880D01*
X141657142Y-97354880D01*
X141809523Y-97392976D01*
X141885714Y-97431071D01*
X141923809Y-97469166D01*
X141961904Y-97545357D01*
X141961904Y-97621547D01*
X141923809Y-97697738D01*
X141885714Y-97735833D01*
X141809523Y-97773928D01*
X141657142Y-97812023D01*
X141466666Y-97812023D01*
X141314285Y-97773928D01*
X141238095Y-97735833D01*
X141200000Y-97697738D01*
X141161904Y-97621547D01*
X141428571Y-96669166D02*
X141961904Y-96669166D01*
X141123809Y-96859642D02*
X141695238Y-97050119D01*
X141695238Y-96554880D01*
X141657142Y-96250119D02*
X141657142Y-95640595D01*
X141238095Y-95297738D02*
X141200000Y-95259642D01*
X141161904Y-95183452D01*
X141161904Y-94992976D01*
X141200000Y-94916785D01*
X141238095Y-94878690D01*
X141314285Y-94840595D01*
X141390476Y-94840595D01*
X141504761Y-94878690D01*
X141961904Y-95335833D01*
X141961904Y-94840595D01*
X141161904Y-94116785D02*
X141161904Y-94497738D01*
X141542857Y-94535833D01*
X141504761Y-94497738D01*
X141466666Y-94421547D01*
X141466666Y-94231071D01*
X141504761Y-94154880D01*
X141542857Y-94116785D01*
X141619047Y-94078690D01*
X141809523Y-94078690D01*
X141885714Y-94116785D01*
X141923809Y-94154880D01*
X141961904Y-94231071D01*
X141961904Y-94421547D01*
X141923809Y-94497738D01*
X141885714Y-94535833D01*
D12*
%TO.C,A1*%
X133300000Y-96200000D02*
X130300000Y-94200000D01*
%TD*%
D13*
%TO.P,J4,2*%
%TO.N,Net-(J4-Pad2)*%
X151570000Y-83200000D03*
D14*
%TO.P,J4,1*%
%TO.N,GND*%
X149030000Y-83200000D03*
%TD*%
%TO.P,R4,2*%
%TO.N,Net-(C10-Pad1)*%
%TA.AperFunction,SMDPad,CuDef*%
G36*
G01*
X157400000Y-82250001D02*
X157400000Y-81349999D01*
G75*
G02*
X157649999Y-81100000I249999J0D01*
G01*
X158350001Y-81100000D01*
G75*
G02*
X158600000Y-81349999I0J-249999D01*
G01*
X158600000Y-82250001D01*
G75*
G02*
X158350001Y-82500000I-249999J0D01*
G01*
X157649999Y-82500000D01*
G75*
G02*
X157400000Y-82250001I0J249999D01*
G01*
G37*
%TD.AperFunction*%
%TO.P,R4,1*%
%TO.N,Net-(C8-Pad1)*%
%TA.AperFunction,SMDPad,CuDef*%
G36*
G01*
X155400000Y-82250001D02*
X155400000Y-81349999D01*
G75*
G02*
X155649999Y-81100000I249999J0D01*
G01*
X156350001Y-81100000D01*
G75*
G02*
X156600000Y-81349999I0J-249999D01*
G01*
X156600000Y-82250001D01*
G75*
G02*
X156350001Y-82500000I-249999J0D01*
G01*
X155649999Y-82500000D01*
G75*
G02*
X155400000Y-82250001I0J249999D01*
G01*
G37*
%TD.AperFunction*%
%TD*%
D15*
%TO.P,A1,~*%
%TO.N,N/C*%
X130300000Y-94200000D03*
X133300000Y-96200000D03*
%TO.P,A1,3*%
%TO.N,Net-(A1-Pad3)*%
X167300000Y-92200000D03*
%TO.P,A1,1*%
%TO.N,Net-(A1-Pad1)*%
X167300000Y-98200000D03*
%TO.P,A1,2*%
%TO.N,GND*%
X169300000Y-95200000D03*
%TD*%
D16*
%TO.P,H2,1*%
%TO.N,N/C*%
X138300000Y-107200000D03*
%TD*%
D17*
%TO.P,H1,1*%
%TO.N,N/C*%
X162300000Y-83200000D03*
%TD*%
D18*
%TO.P,J2,4*%
%TO.N,Net-(J1-Pad4)*%
X154050000Y-104100000D03*
%TO.P,J2,3*%
%TO.N,Net-(J1-Pad3)*%
X151550000Y-104100000D03*
%TO.P,J2,2*%
%TO.N,+5V*%
X149050000Y-104100000D03*
%TO.P,J2,1*%
%TO.N,GND*%
%TA.AperFunction,ComponentPad*%
G36*
G01*
X145700000Y-104775000D02*
X145700000Y-103425000D01*
G75*
G02*
X145950000Y-103175000I250000J0D01*
G01*
X147150000Y-103175000D01*
G75*
G02*
X147400000Y-103425000I0J-250000D01*
G01*
X147400000Y-104775000D01*
G75*
G02*
X147150000Y-105025000I-250000J0D01*
G01*
X145950000Y-105025000D01*
G75*
G02*
X145700000Y-104775000I0J250000D01*
G01*
G37*
%TD.AperFunction*%
%TD*%
%TO.P,C14,2*%
%TO.N,GND*%
%TA.AperFunction,SMDPad,CuDef*%
G36*
G01*
X159225000Y-101287500D02*
X160175000Y-101287500D01*
G75*
G02*
X160425000Y-101537500I0J-250000D01*
G01*
X160425000Y-102212500D01*
G75*
G02*
X160175000Y-102462500I-250000J0D01*
G01*
X159225000Y-102462500D01*
G75*
G02*
X158975000Y-102212500I0J250000D01*
G01*
X158975000Y-101537500D01*
G75*
G02*
X159225000Y-101287500I250000J0D01*
G01*
G37*
%TD.AperFunction*%
%TO.P,C14,1*%
%TO.N,+5V*%
%TA.AperFunction,SMDPad,CuDef*%
G36*
G01*
X159225000Y-99212500D02*
X160175000Y-99212500D01*
G75*
G02*
X160425000Y-99462500I0J-250000D01*
G01*
X160425000Y-100137500D01*
G75*
G02*
X160175000Y-100387500I-250000J0D01*
G01*
X159225000Y-100387500D01*
G75*
G02*
X158975000Y-100137500I0J250000D01*
G01*
X158975000Y-99462500D01*
G75*
G02*
X159225000Y-99212500I250000J0D01*
G01*
G37*
%TD.AperFunction*%
%TD*%
%TO.P,C17,2*%
%TO.N,GND*%
%TA.AperFunction,SMDPad,CuDef*%
G36*
G01*
X149475000Y-88212500D02*
X148525000Y-88212500D01*
G75*
G02*
X148275000Y-87962500I0J250000D01*
G01*
X148275000Y-87287500D01*
G75*
G02*
X148525000Y-87037500I250000J0D01*
G01*
X149475000Y-87037500D01*
G75*
G02*
X149725000Y-87287500I0J-250000D01*
G01*
X149725000Y-87962500D01*
G75*
G02*
X149475000Y-88212500I-250000J0D01*
G01*
G37*
%TD.AperFunction*%
%TO.P,C17,1*%
%TO.N,+3V3*%
%TA.AperFunction,SMDPad,CuDef*%
G36*
G01*
X149475000Y-90287500D02*
X148525000Y-90287500D01*
G75*
G02*
X148275000Y-90037500I0J250000D01*
G01*
X148275000Y-89362500D01*
G75*
G02*
X148525000Y-89112500I250000J0D01*
G01*
X149475000Y-89112500D01*
G75*
G02*
X149725000Y-89362500I0J-250000D01*
G01*
X149725000Y-90037500D01*
G75*
G02*
X149475000Y-90287500I-250000J0D01*
G01*
G37*
%TD.AperFunction*%
%TD*%
%TO.P,C16,2*%
%TO.N,GND*%
%TA.AperFunction,SMDPad,CuDef*%
G36*
G01*
X151575000Y-88212500D02*
X150625000Y-88212500D01*
G75*
G02*
X150375000Y-87962500I0J250000D01*
G01*
X150375000Y-87287500D01*
G75*
G02*
X150625000Y-87037500I250000J0D01*
G01*
X151575000Y-87037500D01*
G75*
G02*
X151825000Y-87287500I0J-250000D01*
G01*
X151825000Y-87962500D01*
G75*
G02*
X151575000Y-88212500I-250000J0D01*
G01*
G37*
%TD.AperFunction*%
%TO.P,C16,1*%
%TO.N,Net-(C16-Pad1)*%
%TA.AperFunction,SMDPad,CuDef*%
G36*
G01*
X151575000Y-90287500D02*
X150625000Y-90287500D01*
G75*
G02*
X150375000Y-90037500I0J250000D01*
G01*
X150375000Y-89362500D01*
G75*
G02*
X150625000Y-89112500I250000J0D01*
G01*
X151575000Y-89112500D01*
G75*
G02*
X151825000Y-89362500I0J-250000D01*
G01*
X151825000Y-90037500D01*
G75*
G02*
X151575000Y-90287500I-250000J0D01*
G01*
G37*
%TD.AperFunction*%
%TD*%
%TO.P,C15,2*%
%TO.N,GND*%
%TA.AperFunction,SMDPad,CuDef*%
G36*
G01*
X157325000Y-89112500D02*
X158275000Y-89112500D01*
G75*
G02*
X158525000Y-89362500I0J-250000D01*
G01*
X158525000Y-90037500D01*
G75*
G02*
X158275000Y-90287500I-250000J0D01*
G01*
X157325000Y-90287500D01*
G75*
G02*
X157075000Y-90037500I0J250000D01*
G01*
X157075000Y-89362500D01*
G75*
G02*
X157325000Y-89112500I250000J0D01*
G01*
G37*
%TD.AperFunction*%
%TO.P,C15,1*%
%TO.N,Net-(C15-Pad1)*%
%TA.AperFunction,SMDPad,CuDef*%
G36*
G01*
X157325000Y-87037500D02*
X158275000Y-87037500D01*
G75*
G02*
X158525000Y-87287500I0J-250000D01*
G01*
X158525000Y-87962500D01*
G75*
G02*
X158275000Y-88212500I-250000J0D01*
G01*
X157325000Y-88212500D01*
G75*
G02*
X157075000Y-87962500I0J250000D01*
G01*
X157075000Y-87287500D01*
G75*
G02*
X157325000Y-87037500I250000J0D01*
G01*
G37*
%TD.AperFunction*%
%TD*%
%TO.P,C13,2*%
%TO.N,GND*%
%TA.AperFunction,SMDPad,CuDef*%
G36*
G01*
X152112500Y-100425000D02*
X152112500Y-101375000D01*
G75*
G02*
X151862500Y-101625000I-250000J0D01*
G01*
X151187500Y-101625000D01*
G75*
G02*
X150937500Y-101375000I0J250000D01*
G01*
X150937500Y-100425000D01*
G75*
G02*
X151187500Y-100175000I250000J0D01*
G01*
X151862500Y-100175000D01*
G75*
G02*
X152112500Y-100425000I0J-250000D01*
G01*
G37*
%TD.AperFunction*%
%TO.P,C13,1*%
%TO.N,+3V3*%
%TA.AperFunction,SMDPad,CuDef*%
G36*
G01*
X154187500Y-100425000D02*
X154187500Y-101375000D01*
G75*
G02*
X153937500Y-101625000I-250000J0D01*
G01*
X153262500Y-101625000D01*
G75*
G02*
X153012500Y-101375000I0J250000D01*
G01*
X153012500Y-100425000D01*
G75*
G02*
X153262500Y-100175000I250000J0D01*
G01*
X153937500Y-100175000D01*
G75*
G02*
X154187500Y-100425000I0J-250000D01*
G01*
G37*
%TD.AperFunction*%
%TD*%
%TO.P,C12,2*%
%TO.N,GND*%
%TA.AperFunction,SMDPad,CuDef*%
G36*
G01*
X157012500Y-101375000D02*
X157012500Y-100425000D01*
G75*
G02*
X157262500Y-100175000I250000J0D01*
G01*
X157937500Y-100175000D01*
G75*
G02*
X158187500Y-100425000I0J-250000D01*
G01*
X158187500Y-101375000D01*
G75*
G02*
X157937500Y-101625000I-250000J0D01*
G01*
X157262500Y-101625000D01*
G75*
G02*
X157012500Y-101375000I0J250000D01*
G01*
G37*
%TD.AperFunction*%
%TO.P,C12,1*%
%TO.N,+3V3*%
%TA.AperFunction,SMDPad,CuDef*%
G36*
G01*
X154937500Y-101375000D02*
X154937500Y-100425000D01*
G75*
G02*
X155187500Y-100175000I250000J0D01*
G01*
X155862500Y-100175000D01*
G75*
G02*
X156112500Y-100425000I0J-250000D01*
G01*
X156112500Y-101375000D01*
G75*
G02*
X155862500Y-101625000I-250000J0D01*
G01*
X155187500Y-101625000D01*
G75*
G02*
X154937500Y-101375000I0J250000D01*
G01*
G37*
%TD.AperFunction*%
%TD*%
%TO.P,C11,2*%
%TO.N,GND*%
%TA.AperFunction,SMDPad,CuDef*%
G36*
G01*
X161425000Y-95650000D02*
X162375000Y-95650000D01*
G75*
G02*
X162625000Y-95900000I0J-250000D01*
G01*
X162625000Y-96575000D01*
G75*
G02*
X162375000Y-96825000I-250000J0D01*
G01*
X161425000Y-96825000D01*
G75*
G02*
X161175000Y-96575000I0J250000D01*
G01*
X161175000Y-95900000D01*
G75*
G02*
X161425000Y-95650000I250000J0D01*
G01*
G37*
%TD.AperFunction*%
%TO.P,C11,1*%
%TO.N,+3V3*%
%TA.AperFunction,SMDPad,CuDef*%
G36*
G01*
X161425000Y-93575000D02*
X162375000Y-93575000D01*
G75*
G02*
X162625000Y-93825000I0J-250000D01*
G01*
X162625000Y-94500000D01*
G75*
G02*
X162375000Y-94750000I-250000J0D01*
G01*
X161425000Y-94750000D01*
G75*
G02*
X161175000Y-94500000I0J250000D01*
G01*
X161175000Y-93825000D01*
G75*
G02*
X161425000Y-93575000I250000J0D01*
G01*
G37*
%TD.AperFunction*%
%TD*%
%TO.P,C10,2*%
%TO.N,GND*%
%TA.AperFunction,SMDPad,CuDef*%
G36*
G01*
X160375000Y-88212500D02*
X159425000Y-88212500D01*
G75*
G02*
X159175000Y-87962500I0J250000D01*
G01*
X159175000Y-87287500D01*
G75*
G02*
X159425000Y-87037500I250000J0D01*
G01*
X160375000Y-87037500D01*
G75*
G02*
X160625000Y-87287500I0J-250000D01*
G01*
X160625000Y-87962500D01*
G75*
G02*
X160375000Y-88212500I-250000J0D01*
G01*
G37*
%TD.AperFunction*%
%TO.P,C10,1*%
%TO.N,Net-(C10-Pad1)*%
%TA.AperFunction,SMDPad,CuDef*%
G36*
G01*
X160375000Y-90287500D02*
X159425000Y-90287500D01*
G75*
G02*
X159175000Y-90037500I0J250000D01*
G01*
X159175000Y-89362500D01*
G75*
G02*
X159425000Y-89112500I250000J0D01*
G01*
X160375000Y-89112500D01*
G75*
G02*
X160625000Y-89362500I0J-250000D01*
G01*
X160625000Y-90037500D01*
G75*
G02*
X160375000Y-90287500I-250000J0D01*
G01*
G37*
%TD.AperFunction*%
%TD*%
%TO.P,C9,2*%
%TO.N,GND*%
%TA.AperFunction,SMDPad,CuDef*%
G36*
G01*
X165312500Y-94575000D02*
X165312500Y-93625000D01*
G75*
G02*
X165562500Y-93375000I250000J0D01*
G01*
X166237500Y-93375000D01*
G75*
G02*
X166487500Y-93625000I0J-250000D01*
G01*
X166487500Y-94575000D01*
G75*
G02*
X166237500Y-94825000I-250000J0D01*
G01*
X165562500Y-94825000D01*
G75*
G02*
X165312500Y-94575000I0J250000D01*
G01*
G37*
%TD.AperFunction*%
%TO.P,C9,1*%
%TO.N,+3V3*%
%TA.AperFunction,SMDPad,CuDef*%
G36*
G01*
X163237500Y-94575000D02*
X163237500Y-93625000D01*
G75*
G02*
X163487500Y-93375000I250000J0D01*
G01*
X164162500Y-93375000D01*
G75*
G02*
X164412500Y-93625000I0J-250000D01*
G01*
X164412500Y-94575000D01*
G75*
G02*
X164162500Y-94825000I-250000J0D01*
G01*
X163487500Y-94825000D01*
G75*
G02*
X163237500Y-94575000I0J250000D01*
G01*
G37*
%TD.AperFunction*%
%TD*%
%TO.P,C8,2*%
%TO.N,Net-(C8-Pad2)*%
%TA.AperFunction,SMDPad,CuDef*%
G36*
G01*
X155525000Y-85212500D02*
X156475000Y-85212500D01*
G75*
G02*
X156725000Y-85462500I0J-250000D01*
G01*
X156725000Y-86137500D01*
G75*
G02*
X156475000Y-86387500I-250000J0D01*
G01*
X155525000Y-86387500D01*
G75*
G02*
X155275000Y-86137500I0J250000D01*
G01*
X155275000Y-85462500D01*
G75*
G02*
X155525000Y-85212500I250000J0D01*
G01*
G37*
%TD.AperFunction*%
%TO.P,C8,1*%
%TO.N,Net-(C8-Pad1)*%
%TA.AperFunction,SMDPad,CuDef*%
G36*
G01*
X155525000Y-83137500D02*
X156475000Y-83137500D01*
G75*
G02*
X156725000Y-83387500I0J-250000D01*
G01*
X156725000Y-84062500D01*
G75*
G02*
X156475000Y-84312500I-250000J0D01*
G01*
X155525000Y-84312500D01*
G75*
G02*
X155275000Y-84062500I0J250000D01*
G01*
X155275000Y-83387500D01*
G75*
G02*
X155525000Y-83137500I250000J0D01*
G01*
G37*
%TD.AperFunction*%
%TD*%
%TO.P,C7,2*%
%TO.N,GND*%
%TA.AperFunction,SMDPad,CuDef*%
G36*
G01*
X165312500Y-96775000D02*
X165312500Y-95825000D01*
G75*
G02*
X165562500Y-95575000I250000J0D01*
G01*
X166237500Y-95575000D01*
G75*
G02*
X166487500Y-95825000I0J-250000D01*
G01*
X166487500Y-96775000D01*
G75*
G02*
X166237500Y-97025000I-250000J0D01*
G01*
X165562500Y-97025000D01*
G75*
G02*
X165312500Y-96775000I0J250000D01*
G01*
G37*
%TD.AperFunction*%
%TO.P,C7,1*%
%TO.N,+3V3*%
%TA.AperFunction,SMDPad,CuDef*%
G36*
G01*
X163237500Y-96775000D02*
X163237500Y-95825000D01*
G75*
G02*
X163487500Y-95575000I250000J0D01*
G01*
X164162500Y-95575000D01*
G75*
G02*
X164412500Y-95825000I0J-250000D01*
G01*
X164412500Y-96775000D01*
G75*
G02*
X164162500Y-97025000I-250000J0D01*
G01*
X163487500Y-97025000D01*
G75*
G02*
X163237500Y-96775000I0J250000D01*
G01*
G37*
%TD.AperFunction*%
%TD*%
%TO.P,C6,2*%
%TO.N,Net-(C4-Pad2)*%
%TA.AperFunction,SMDPad,CuDef*%
G36*
G01*
X162387500Y-87525000D02*
X162387500Y-88475000D01*
G75*
G02*
X162137500Y-88725000I-250000J0D01*
G01*
X161462500Y-88725000D01*
G75*
G02*
X161212500Y-88475000I0J250000D01*
G01*
X161212500Y-87525000D01*
G75*
G02*
X161462500Y-87275000I250000J0D01*
G01*
X162137500Y-87275000D01*
G75*
G02*
X162387500Y-87525000I0J-250000D01*
G01*
G37*
%TD.AperFunction*%
%TO.P,C6,1*%
%TO.N,GND*%
%TA.AperFunction,SMDPad,CuDef*%
G36*
G01*
X164462500Y-87525000D02*
X164462500Y-88475000D01*
G75*
G02*
X164212500Y-88725000I-250000J0D01*
G01*
X163537500Y-88725000D01*
G75*
G02*
X163287500Y-88475000I0J250000D01*
G01*
X163287500Y-87525000D01*
G75*
G02*
X163537500Y-87275000I250000J0D01*
G01*
X164212500Y-87275000D01*
G75*
G02*
X164462500Y-87525000I0J-250000D01*
G01*
G37*
%TD.AperFunction*%
%TD*%
%TO.P,C5,2*%
%TO.N,Net-(C3-Pad1)*%
%TA.AperFunction,SMDPad,CuDef*%
G36*
G01*
X162387500Y-101925000D02*
X162387500Y-102875000D01*
G75*
G02*
X162137500Y-103125000I-250000J0D01*
G01*
X161462500Y-103125000D01*
G75*
G02*
X161212500Y-102875000I0J250000D01*
G01*
X161212500Y-101925000D01*
G75*
G02*
X161462500Y-101675000I250000J0D01*
G01*
X162137500Y-101675000D01*
G75*
G02*
X162387500Y-101925000I0J-250000D01*
G01*
G37*
%TD.AperFunction*%
%TO.P,C5,1*%
%TO.N,GND*%
%TA.AperFunction,SMDPad,CuDef*%
G36*
G01*
X164462500Y-101925000D02*
X164462500Y-102875000D01*
G75*
G02*
X164212500Y-103125000I-250000J0D01*
G01*
X163537500Y-103125000D01*
G75*
G02*
X163287500Y-102875000I0J250000D01*
G01*
X163287500Y-101925000D01*
G75*
G02*
X163537500Y-101675000I250000J0D01*
G01*
X164212500Y-101675000D01*
G75*
G02*
X164462500Y-101925000I0J-250000D01*
G01*
G37*
%TD.AperFunction*%
%TD*%
%TO.P,C4,2*%
%TO.N,Net-(C4-Pad2)*%
%TA.AperFunction,SMDPad,CuDef*%
G36*
G01*
X162387500Y-89656428D02*
X162387500Y-90606428D01*
G75*
G02*
X162137500Y-90856428I-250000J0D01*
G01*
X161462500Y-90856428D01*
G75*
G02*
X161212500Y-90606428I0J250000D01*
G01*
X161212500Y-89656428D01*
G75*
G02*
X161462500Y-89406428I250000J0D01*
G01*
X162137500Y-89406428D01*
G75*
G02*
X162387500Y-89656428I0J-250000D01*
G01*
G37*
%TD.AperFunction*%
%TO.P,C4,1*%
%TO.N,Net-(C2-Pad2)*%
%TA.AperFunction,SMDPad,CuDef*%
G36*
G01*
X164462500Y-89656428D02*
X164462500Y-90606428D01*
G75*
G02*
X164212500Y-90856428I-250000J0D01*
G01*
X163537500Y-90856428D01*
G75*
G02*
X163287500Y-90606428I0J250000D01*
G01*
X163287500Y-89656428D01*
G75*
G02*
X163537500Y-89406428I250000J0D01*
G01*
X164212500Y-89406428D01*
G75*
G02*
X164462500Y-89656428I0J-250000D01*
G01*
G37*
%TD.AperFunction*%
%TD*%
%TO.P,C3,2*%
%TO.N,Net-(C1-Pad1)*%
%TA.AperFunction,SMDPad,CuDef*%
G36*
G01*
X163287500Y-100743568D02*
X163287500Y-99793568D01*
G75*
G02*
X163537500Y-99543568I250000J0D01*
G01*
X164212500Y-99543568D01*
G75*
G02*
X164462500Y-99793568I0J-250000D01*
G01*
X164462500Y-100743568D01*
G75*
G02*
X164212500Y-100993568I-250000J0D01*
G01*
X163537500Y-100993568D01*
G75*
G02*
X163287500Y-100743568I0J250000D01*
G01*
G37*
%TD.AperFunction*%
%TO.P,C3,1*%
%TO.N,Net-(C3-Pad1)*%
%TA.AperFunction,SMDPad,CuDef*%
G36*
G01*
X161212500Y-100743568D02*
X161212500Y-99793568D01*
G75*
G02*
X161462500Y-99543568I250000J0D01*
G01*
X162137500Y-99543568D01*
G75*
G02*
X162387500Y-99793568I0J-250000D01*
G01*
X162387500Y-100743568D01*
G75*
G02*
X162137500Y-100993568I-250000J0D01*
G01*
X161462500Y-100993568D01*
G75*
G02*
X161212500Y-100743568I0J250000D01*
G01*
G37*
%TD.AperFunction*%
%TD*%
%TO.P,L2,2*%
%TO.N,Net-(L2-Pad2)*%
%TA.AperFunction,SMDPad,CuDef*%
G36*
G01*
X162212500Y-91782855D02*
X162212500Y-92482857D01*
G75*
G02*
X161962501Y-92732856I-249999J0D01*
G01*
X161412499Y-92732856D01*
G75*
G02*
X161162500Y-92482857I0J249999D01*
G01*
X161162500Y-91782855D01*
G75*
G02*
X161412499Y-91532856I249999J0D01*
G01*
X161962501Y-91532856D01*
G75*
G02*
X162212500Y-91782855I0J-249999D01*
G01*
G37*
%TD.AperFunction*%
%TO.P,L2,1*%
%TO.N,Net-(C4-Pad2)*%
%TA.AperFunction,SMDPad,CuDef*%
G36*
G01*
X164512500Y-91782855D02*
X164512500Y-92482857D01*
G75*
G02*
X164262501Y-92732856I-249999J0D01*
G01*
X163712499Y-92732856D01*
G75*
G02*
X163462500Y-92482857I0J249999D01*
G01*
X163462500Y-91782855D01*
G75*
G02*
X163712499Y-91532856I249999J0D01*
G01*
X164262501Y-91532856D01*
G75*
G02*
X164512500Y-91782855I0J-249999D01*
G01*
G37*
%TD.AperFunction*%
%TD*%
%TO.P,L1,2*%
%TO.N,Net-(C3-Pad1)*%
%TA.AperFunction,SMDPad,CuDef*%
G36*
G01*
X163462500Y-98617141D02*
X163462500Y-97917139D01*
G75*
G02*
X163712499Y-97667140I249999J0D01*
G01*
X164262501Y-97667140D01*
G75*
G02*
X164512500Y-97917139I0J-249999D01*
G01*
X164512500Y-98617141D01*
G75*
G02*
X164262501Y-98867140I-249999J0D01*
G01*
X163712499Y-98867140D01*
G75*
G02*
X163462500Y-98617141I0J249999D01*
G01*
G37*
%TD.AperFunction*%
%TO.P,L1,1*%
%TO.N,Net-(L1-Pad1)*%
%TA.AperFunction,SMDPad,CuDef*%
G36*
G01*
X161162500Y-98617141D02*
X161162500Y-97917139D01*
G75*
G02*
X161412499Y-97667140I249999J0D01*
G01*
X161962501Y-97667140D01*
G75*
G02*
X162212500Y-97917139I0J-249999D01*
G01*
X162212500Y-98617141D01*
G75*
G02*
X161962501Y-98867140I-249999J0D01*
G01*
X161412499Y-98867140D01*
G75*
G02*
X161162500Y-98617141I0J249999D01*
G01*
G37*
%TD.AperFunction*%
%TD*%
%TO.P,C2,2*%
%TO.N,Net-(C2-Pad2)*%
%TA.AperFunction,SMDPad,CuDef*%
G36*
G01*
X165325000Y-87650000D02*
X166275000Y-87650000D01*
G75*
G02*
X166525000Y-87900000I0J-250000D01*
G01*
X166525000Y-88575000D01*
G75*
G02*
X166275000Y-88825000I-250000J0D01*
G01*
X165325000Y-88825000D01*
G75*
G02*
X165075000Y-88575000I0J250000D01*
G01*
X165075000Y-87900000D01*
G75*
G02*
X165325000Y-87650000I250000J0D01*
G01*
G37*
%TD.AperFunction*%
%TO.P,C2,1*%
%TO.N,GND*%
%TA.AperFunction,SMDPad,CuDef*%
G36*
G01*
X165325000Y-85575000D02*
X166275000Y-85575000D01*
G75*
G02*
X166525000Y-85825000I0J-250000D01*
G01*
X166525000Y-86500000D01*
G75*
G02*
X166275000Y-86750000I-250000J0D01*
G01*
X165325000Y-86750000D01*
G75*
G02*
X165075000Y-86500000I0J250000D01*
G01*
X165075000Y-85825000D01*
G75*
G02*
X165325000Y-85575000I250000J0D01*
G01*
G37*
%TD.AperFunction*%
%TD*%
%TO.P,C1,2*%
%TO.N,GND*%
%TA.AperFunction,SMDPad,CuDef*%
G36*
G01*
X165325000Y-103650000D02*
X166275000Y-103650000D01*
G75*
G02*
X166525000Y-103900000I0J-250000D01*
G01*
X166525000Y-104575000D01*
G75*
G02*
X166275000Y-104825000I-250000J0D01*
G01*
X165325000Y-104825000D01*
G75*
G02*
X165075000Y-104575000I0J250000D01*
G01*
X165075000Y-103900000D01*
G75*
G02*
X165325000Y-103650000I250000J0D01*
G01*
G37*
%TD.AperFunction*%
%TO.P,C1,1*%
%TO.N,Net-(C1-Pad1)*%
%TA.AperFunction,SMDPad,CuDef*%
G36*
G01*
X165325000Y-101575000D02*
X166275000Y-101575000D01*
G75*
G02*
X166525000Y-101825000I0J-250000D01*
G01*
X166525000Y-102500000D01*
G75*
G02*
X166275000Y-102750000I-250000J0D01*
G01*
X165325000Y-102750000D01*
G75*
G02*
X165075000Y-102500000I0J250000D01*
G01*
X165075000Y-101825000D01*
G75*
G02*
X165325000Y-101575000I250000J0D01*
G01*
G37*
%TD.AperFunction*%
%TD*%
%TO.P,R10,2*%
%TO.N,Net-(J4-Pad2)*%
%TA.AperFunction,SMDPad,CuDef*%
G36*
G01*
X150300000Y-91950001D02*
X150300000Y-91049999D01*
G75*
G02*
X150549999Y-90800000I249999J0D01*
G01*
X151250001Y-90800000D01*
G75*
G02*
X151500000Y-91049999I0J-249999D01*
G01*
X151500000Y-91950001D01*
G75*
G02*
X151250001Y-92200000I-249999J0D01*
G01*
X150549999Y-92200000D01*
G75*
G02*
X150300000Y-91950001I0J249999D01*
G01*
G37*
%TD.AperFunction*%
%TO.P,R10,1*%
%TO.N,+3V3*%
%TA.AperFunction,SMDPad,CuDef*%
G36*
G01*
X148300000Y-91950001D02*
X148300000Y-91049999D01*
G75*
G02*
X148549999Y-90800000I249999J0D01*
G01*
X149250001Y-90800000D01*
G75*
G02*
X149500000Y-91049999I0J-249999D01*
G01*
X149500000Y-91950001D01*
G75*
G02*
X149250001Y-92200000I-249999J0D01*
G01*
X148549999Y-92200000D01*
G75*
G02*
X148300000Y-91950001I0J249999D01*
G01*
G37*
%TD.AperFunction*%
%TD*%
%TO.P,R9,2*%
%TO.N,Net-(D3-Pad2)*%
%TA.AperFunction,SMDPad,CuDef*%
G36*
G01*
X143950000Y-92249999D02*
X143950000Y-93150001D01*
G75*
G02*
X143700001Y-93400000I-249999J0D01*
G01*
X142999999Y-93400000D01*
G75*
G02*
X142750000Y-93150001I0J249999D01*
G01*
X142750000Y-92249999D01*
G75*
G02*
X142999999Y-92000000I249999J0D01*
G01*
X143700001Y-92000000D01*
G75*
G02*
X143950000Y-92249999I0J-249999D01*
G01*
G37*
%TD.AperFunction*%
%TO.P,R9,1*%
%TO.N,Net-(R9-Pad1)*%
%TA.AperFunction,SMDPad,CuDef*%
G36*
G01*
X145950000Y-92249999D02*
X145950000Y-93150001D01*
G75*
G02*
X145700001Y-93400000I-249999J0D01*
G01*
X144999999Y-93400000D01*
G75*
G02*
X144750000Y-93150001I0J249999D01*
G01*
X144750000Y-92249999D01*
G75*
G02*
X144999999Y-92000000I249999J0D01*
G01*
X145700001Y-92000000D01*
G75*
G02*
X145950000Y-92249999I0J-249999D01*
G01*
G37*
%TD.AperFunction*%
%TD*%
%TO.P,R8,2*%
%TO.N,Net-(D2-Pad2)*%
%TA.AperFunction,SMDPad,CuDef*%
G36*
G01*
X143950000Y-89949999D02*
X143950000Y-90850001D01*
G75*
G02*
X143700001Y-91100000I-249999J0D01*
G01*
X142999999Y-91100000D01*
G75*
G02*
X142750000Y-90850001I0J249999D01*
G01*
X142750000Y-89949999D01*
G75*
G02*
X142999999Y-89700000I249999J0D01*
G01*
X143700001Y-89700000D01*
G75*
G02*
X143950000Y-89949999I0J-249999D01*
G01*
G37*
%TD.AperFunction*%
%TO.P,R8,1*%
%TO.N,Net-(R8-Pad1)*%
%TA.AperFunction,SMDPad,CuDef*%
G36*
G01*
X145950000Y-89949999D02*
X145950000Y-90850001D01*
G75*
G02*
X145700001Y-91100000I-249999J0D01*
G01*
X144999999Y-91100000D01*
G75*
G02*
X144750000Y-90850001I0J249999D01*
G01*
X144750000Y-89949999D01*
G75*
G02*
X144999999Y-89700000I249999J0D01*
G01*
X145700001Y-89700000D01*
G75*
G02*
X145950000Y-89949999I0J-249999D01*
G01*
G37*
%TD.AperFunction*%
%TD*%
%TO.P,R7,2*%
%TO.N,Net-(D1-Pad2)*%
%TA.AperFunction,SMDPad,CuDef*%
G36*
G01*
X143950000Y-87649999D02*
X143950000Y-88550001D01*
G75*
G02*
X143700001Y-88800000I-249999J0D01*
G01*
X142999999Y-88800000D01*
G75*
G02*
X142750000Y-88550001I0J249999D01*
G01*
X142750000Y-87649999D01*
G75*
G02*
X142999999Y-87400000I249999J0D01*
G01*
X143700001Y-87400000D01*
G75*
G02*
X143950000Y-87649999I0J-249999D01*
G01*
G37*
%TD.AperFunction*%
%TO.P,R7,1*%
%TO.N,Net-(R7-Pad1)*%
%TA.AperFunction,SMDPad,CuDef*%
G36*
G01*
X145950000Y-87649999D02*
X145950000Y-88550001D01*
G75*
G02*
X145700001Y-88800000I-249999J0D01*
G01*
X144999999Y-88800000D01*
G75*
G02*
X144750000Y-88550001I0J249999D01*
G01*
X144750000Y-87649999D01*
G75*
G02*
X144999999Y-87400000I249999J0D01*
G01*
X145700001Y-87400000D01*
G75*
G02*
X145950000Y-87649999I0J-249999D01*
G01*
G37*
%TD.AperFunction*%
%TD*%
%TO.P,R6,2*%
%TO.N,Net-(R5-Pad1)*%
%TA.AperFunction,SMDPad,CuDef*%
G36*
G01*
X143650001Y-99300000D02*
X142749999Y-99300000D01*
G75*
G02*
X142500000Y-99050001I0J249999D01*
G01*
X142500000Y-98349999D01*
G75*
G02*
X142749999Y-98100000I249999J0D01*
G01*
X143650001Y-98100000D01*
G75*
G02*
X143900000Y-98349999I0J-249999D01*
G01*
X143900000Y-99050001D01*
G75*
G02*
X143650001Y-99300000I-249999J0D01*
G01*
G37*
%TD.AperFunction*%
%TO.P,R6,1*%
%TO.N,GND*%
%TA.AperFunction,SMDPad,CuDef*%
G36*
G01*
X143650001Y-101300000D02*
X142749999Y-101300000D01*
G75*
G02*
X142500000Y-101050001I0J249999D01*
G01*
X142500000Y-100349999D01*
G75*
G02*
X142749999Y-100100000I249999J0D01*
G01*
X143650001Y-100100000D01*
G75*
G02*
X143900000Y-100349999I0J-249999D01*
G01*
X143900000Y-101050001D01*
G75*
G02*
X143650001Y-101300000I-249999J0D01*
G01*
G37*
%TD.AperFunction*%
%TD*%
%TO.P,R5,2*%
%TO.N,+5V*%
%TA.AperFunction,SMDPad,CuDef*%
G36*
G01*
X144749999Y-100100000D02*
X145650001Y-100100000D01*
G75*
G02*
X145900000Y-100349999I0J-249999D01*
G01*
X145900000Y-101050001D01*
G75*
G02*
X145650001Y-101300000I-249999J0D01*
G01*
X144749999Y-101300000D01*
G75*
G02*
X144500000Y-101050001I0J249999D01*
G01*
X144500000Y-100349999D01*
G75*
G02*
X144749999Y-100100000I249999J0D01*
G01*
G37*
%TD.AperFunction*%
%TO.P,R5,1*%
%TO.N,Net-(R5-Pad1)*%
%TA.AperFunction,SMDPad,CuDef*%
G36*
G01*
X144749999Y-98100000D02*
X145650001Y-98100000D01*
G75*
G02*
X145900000Y-98349999I0J-249999D01*
G01*
X145900000Y-99050001D01*
G75*
G02*
X145650001Y-99300000I-249999J0D01*
G01*
X144749999Y-99300000D01*
G75*
G02*
X144500000Y-99050001I0J249999D01*
G01*
X144500000Y-98349999D01*
G75*
G02*
X144749999Y-98100000I249999J0D01*
G01*
G37*
%TD.AperFunction*%
%TD*%
%TO.P,R3,2*%
%TO.N,Net-(C4-Pad2)*%
%TA.AperFunction,SMDPad,CuDef*%
G36*
G01*
X157549999Y-85200000D02*
X158450001Y-85200000D01*
G75*
G02*
X158700000Y-85449999I0J-249999D01*
G01*
X158700000Y-86150001D01*
G75*
G02*
X158450001Y-86400000I-249999J0D01*
G01*
X157549999Y-86400000D01*
G75*
G02*
X157300000Y-86150001I0J249999D01*
G01*
X157300000Y-85449999D01*
G75*
G02*
X157549999Y-85200000I249999J0D01*
G01*
G37*
%TD.AperFunction*%
%TO.P,R3,1*%
%TO.N,Net-(C8-Pad2)*%
%TA.AperFunction,SMDPad,CuDef*%
G36*
G01*
X157549999Y-83200000D02*
X158450001Y-83200000D01*
G75*
G02*
X158700000Y-83449999I0J-249999D01*
G01*
X158700000Y-84150001D01*
G75*
G02*
X158450001Y-84400000I-249999J0D01*
G01*
X157549999Y-84400000D01*
G75*
G02*
X157300000Y-84150001I0J249999D01*
G01*
X157300000Y-83449999D01*
G75*
G02*
X157549999Y-83200000I249999J0D01*
G01*
G37*
%TD.AperFunction*%
%TD*%
%TO.P,R2,2*%
%TO.N,Net-(A1-Pad3)*%
%TA.AperFunction,SMDPad,CuDef*%
G36*
G01*
X165349999Y-91600000D02*
X166250001Y-91600000D01*
G75*
G02*
X166500000Y-91849999I0J-249999D01*
G01*
X166500000Y-92550001D01*
G75*
G02*
X166250001Y-92800000I-249999J0D01*
G01*
X165349999Y-92800000D01*
G75*
G02*
X165100000Y-92550001I0J249999D01*
G01*
X165100000Y-91849999D01*
G75*
G02*
X165349999Y-91600000I249999J0D01*
G01*
G37*
%TD.AperFunction*%
%TO.P,R2,1*%
%TO.N,Net-(C2-Pad2)*%
%TA.AperFunction,SMDPad,CuDef*%
G36*
G01*
X165349999Y-89600000D02*
X166250001Y-89600000D01*
G75*
G02*
X166500000Y-89849999I0J-249999D01*
G01*
X166500000Y-90550001D01*
G75*
G02*
X166250001Y-90800000I-249999J0D01*
G01*
X165349999Y-90800000D01*
G75*
G02*
X165100000Y-90550001I0J249999D01*
G01*
X165100000Y-89849999D01*
G75*
G02*
X165349999Y-89600000I249999J0D01*
G01*
G37*
%TD.AperFunction*%
%TD*%
%TO.P,R1,2*%
%TO.N,Net-(A1-Pad1)*%
%TA.AperFunction,SMDPad,CuDef*%
G36*
G01*
X166250001Y-98800000D02*
X165349999Y-98800000D01*
G75*
G02*
X165100000Y-98550001I0J249999D01*
G01*
X165100000Y-97849999D01*
G75*
G02*
X165349999Y-97600000I249999J0D01*
G01*
X166250001Y-97600000D01*
G75*
G02*
X166500000Y-97849999I0J-249999D01*
G01*
X166500000Y-98550001D01*
G75*
G02*
X166250001Y-98800000I-249999J0D01*
G01*
G37*
%TD.AperFunction*%
%TO.P,R1,1*%
%TO.N,Net-(C1-Pad1)*%
%TA.AperFunction,SMDPad,CuDef*%
G36*
G01*
X166250001Y-100800000D02*
X165349999Y-100800000D01*
G75*
G02*
X165100000Y-100550001I0J249999D01*
G01*
X165100000Y-99849999D01*
G75*
G02*
X165349999Y-99600000I249999J0D01*
G01*
X166250001Y-99600000D01*
G75*
G02*
X166500000Y-99849999I0J-249999D01*
G01*
X166500000Y-100550001D01*
G75*
G02*
X166250001Y-100800000I-249999J0D01*
G01*
G37*
%TD.AperFunction*%
%TD*%
D13*
%TO.P,J1,4*%
%TO.N,Net-(J1-Pad4)*%
X154110000Y-107200000D03*
%TO.P,J1,3*%
%TO.N,Net-(J1-Pad3)*%
X151570000Y-107200000D03*
%TO.P,J1,2*%
%TO.N,+5V*%
X149030000Y-107200000D03*
D14*
%TO.P,J1,1*%
%TO.N,GND*%
X146490000Y-107200000D03*
%TD*%
D19*
%TO.P,D3,2*%
%TO.N,Net-(D3-Pad2)*%
X139570000Y-95200000D03*
D20*
%TO.P,D3,1*%
%TO.N,GND*%
X137030000Y-95200000D03*
%TD*%
D21*
%TO.P,SW1,1*%
%TO.N,GND*%
X147050000Y-85450000D03*
%TO.P,SW1,2*%
%TO.N,Net-(J4-Pad2)*%
X147050000Y-80950000D03*
%TO.P,SW1,1*%
%TO.N,GND*%
X153550000Y-85450000D03*
%TO.P,SW1,2*%
%TO.N,Net-(J4-Pad2)*%
X153550000Y-80950000D03*
%TD*%
D22*
%TO.P,U1,41*%
%TO.N,GND*%
X156325000Y-94925000D03*
X157825000Y-93425000D03*
X154825000Y-93425000D03*
X154825000Y-96425000D03*
X157825000Y-96425000D03*
D23*
%TO.P,U1,~*%
%TO.N,N/C*%
X159325000Y-97925000D03*
D24*
X159325000Y-97925000D03*
X153325000Y-97925000D03*
X153325000Y-91925000D03*
X159325000Y-91925000D03*
D25*
%TO.P,U1,41*%
%TO.N,GND*%
X156325000Y-94925000D03*
%TO.P,U1,40*%
%TO.N,+5V*%
%TA.AperFunction,SMDPad,CuDef*%
G36*
G01*
X158700000Y-97512500D02*
X158700000Y-98387500D01*
G75*
G02*
X158637500Y-98450000I-62500J0D01*
G01*
X158512500Y-98450000D01*
G75*
G02*
X158450000Y-98387500I0J62500D01*
G01*
X158450000Y-97512500D01*
G75*
G02*
X158512500Y-97450000I62500J0D01*
G01*
X158637500Y-97450000D01*
G75*
G02*
X158700000Y-97512500I0J-62500D01*
G01*
G37*
%TD.AperFunction*%
%TO.P,U1,39*%
%TO.N,+3V3*%
%TA.AperFunction,SMDPad,CuDef*%
G36*
G01*
X158200000Y-97512500D02*
X158200000Y-98387500D01*
G75*
G02*
X158137500Y-98450000I-62500J0D01*
G01*
X158012500Y-98450000D01*
G75*
G02*
X157950000Y-98387500I0J62500D01*
G01*
X157950000Y-97512500D01*
G75*
G02*
X158012500Y-97450000I62500J0D01*
G01*
X158137500Y-97450000D01*
G75*
G02*
X158200000Y-97512500I0J-62500D01*
G01*
G37*
%TD.AperFunction*%
%TO.P,U1,38*%
%TO.N,Net-(R5-Pad1)*%
%TA.AperFunction,SMDPad,CuDef*%
G36*
G01*
X157700000Y-97512500D02*
X157700000Y-98387500D01*
G75*
G02*
X157637500Y-98450000I-62500J0D01*
G01*
X157512500Y-98450000D01*
G75*
G02*
X157450000Y-98387500I0J62500D01*
G01*
X157450000Y-97512500D01*
G75*
G02*
X157512500Y-97450000I62500J0D01*
G01*
X157637500Y-97450000D01*
G75*
G02*
X157700000Y-97512500I0J-62500D01*
G01*
G37*
%TD.AperFunction*%
%TO.P,U1,37*%
%TO.N,Net-(U1-Pad37)*%
%TA.AperFunction,SMDPad,CuDef*%
G36*
G01*
X157200000Y-97512500D02*
X157200000Y-98387500D01*
G75*
G02*
X157137500Y-98450000I-62500J0D01*
G01*
X157012500Y-98450000D01*
G75*
G02*
X156950000Y-98387500I0J62500D01*
G01*
X156950000Y-97512500D01*
G75*
G02*
X157012500Y-97450000I62500J0D01*
G01*
X157137500Y-97450000D01*
G75*
G02*
X157200000Y-97512500I0J-62500D01*
G01*
G37*
%TD.AperFunction*%
%TO.P,U1,36*%
%TO.N,Net-(U1-Pad36)*%
%TA.AperFunction,SMDPad,CuDef*%
G36*
G01*
X156700000Y-97512500D02*
X156700000Y-98387500D01*
G75*
G02*
X156637500Y-98450000I-62500J0D01*
G01*
X156512500Y-98450000D01*
G75*
G02*
X156450000Y-98387500I0J62500D01*
G01*
X156450000Y-97512500D01*
G75*
G02*
X156512500Y-97450000I62500J0D01*
G01*
X156637500Y-97450000D01*
G75*
G02*
X156700000Y-97512500I0J-62500D01*
G01*
G37*
%TD.AperFunction*%
%TO.P,U1,35*%
%TO.N,Net-(U1-Pad35)*%
%TA.AperFunction,SMDPad,CuDef*%
G36*
G01*
X156200000Y-97512500D02*
X156200000Y-98387500D01*
G75*
G02*
X156137500Y-98450000I-62500J0D01*
G01*
X156012500Y-98450000D01*
G75*
G02*
X155950000Y-98387500I0J62500D01*
G01*
X155950000Y-97512500D01*
G75*
G02*
X156012500Y-97450000I62500J0D01*
G01*
X156137500Y-97450000D01*
G75*
G02*
X156200000Y-97512500I0J-62500D01*
G01*
G37*
%TD.AperFunction*%
%TO.P,U1,34*%
%TO.N,Net-(U1-Pad34)*%
%TA.AperFunction,SMDPad,CuDef*%
G36*
G01*
X155700000Y-97512500D02*
X155700000Y-98387500D01*
G75*
G02*
X155637500Y-98450000I-62500J0D01*
G01*
X155512500Y-98450000D01*
G75*
G02*
X155450000Y-98387500I0J62500D01*
G01*
X155450000Y-97512500D01*
G75*
G02*
X155512500Y-97450000I62500J0D01*
G01*
X155637500Y-97450000D01*
G75*
G02*
X155700000Y-97512500I0J-62500D01*
G01*
G37*
%TD.AperFunction*%
%TO.P,U1,33*%
%TO.N,Net-(R9-Pad1)*%
%TA.AperFunction,SMDPad,CuDef*%
G36*
G01*
X155200000Y-97512500D02*
X155200000Y-98387500D01*
G75*
G02*
X155137500Y-98450000I-62500J0D01*
G01*
X155012500Y-98450000D01*
G75*
G02*
X154950000Y-98387500I0J62500D01*
G01*
X154950000Y-97512500D01*
G75*
G02*
X155012500Y-97450000I62500J0D01*
G01*
X155137500Y-97450000D01*
G75*
G02*
X155200000Y-97512500I0J-62500D01*
G01*
G37*
%TD.AperFunction*%
%TO.P,U1,32*%
%TO.N,Net-(R8-Pad1)*%
%TA.AperFunction,SMDPad,CuDef*%
G36*
G01*
X154700000Y-97512500D02*
X154700000Y-98387500D01*
G75*
G02*
X154637500Y-98450000I-62500J0D01*
G01*
X154512500Y-98450000D01*
G75*
G02*
X154450000Y-98387500I0J62500D01*
G01*
X154450000Y-97512500D01*
G75*
G02*
X154512500Y-97450000I62500J0D01*
G01*
X154637500Y-97450000D01*
G75*
G02*
X154700000Y-97512500I0J-62500D01*
G01*
G37*
%TD.AperFunction*%
%TO.P,U1,31*%
%TO.N,Net-(R7-Pad1)*%
%TA.AperFunction,SMDPad,CuDef*%
G36*
G01*
X154200000Y-97512500D02*
X154200000Y-98387500D01*
G75*
G02*
X154137500Y-98450000I-62500J0D01*
G01*
X154012500Y-98450000D01*
G75*
G02*
X153950000Y-98387500I0J62500D01*
G01*
X153950000Y-97512500D01*
G75*
G02*
X154012500Y-97450000I62500J0D01*
G01*
X154137500Y-97450000D01*
G75*
G02*
X154200000Y-97512500I0J-62500D01*
G01*
G37*
%TD.AperFunction*%
%TO.P,U1,30*%
%TO.N,Net-(U1-Pad30)*%
%TA.AperFunction,SMDPad,CuDef*%
G36*
G01*
X153800000Y-97112500D02*
X153800000Y-97237500D01*
G75*
G02*
X153737500Y-97300000I-62500J0D01*
G01*
X152862500Y-97300000D01*
G75*
G02*
X152800000Y-97237500I0J62500D01*
G01*
X152800000Y-97112500D01*
G75*
G02*
X152862500Y-97050000I62500J0D01*
G01*
X153737500Y-97050000D01*
G75*
G02*
X153800000Y-97112500I0J-62500D01*
G01*
G37*
%TD.AperFunction*%
%TO.P,U1,29*%
%TO.N,Net-(U1-Pad29)*%
%TA.AperFunction,SMDPad,CuDef*%
G36*
G01*
X153800000Y-96612500D02*
X153800000Y-96737500D01*
G75*
G02*
X153737500Y-96800000I-62500J0D01*
G01*
X152862500Y-96800000D01*
G75*
G02*
X152800000Y-96737500I0J62500D01*
G01*
X152800000Y-96612500D01*
G75*
G02*
X152862500Y-96550000I62500J0D01*
G01*
X153737500Y-96550000D01*
G75*
G02*
X153800000Y-96612500I0J-62500D01*
G01*
G37*
%TD.AperFunction*%
%TO.P,U1,28*%
%TO.N,Net-(J1-Pad3)*%
%TA.AperFunction,SMDPad,CuDef*%
G36*
G01*
X153800000Y-96112500D02*
X153800000Y-96237500D01*
G75*
G02*
X153737500Y-96300000I-62500J0D01*
G01*
X152862500Y-96300000D01*
G75*
G02*
X152800000Y-96237500I0J62500D01*
G01*
X152800000Y-96112500D01*
G75*
G02*
X152862500Y-96050000I62500J0D01*
G01*
X153737500Y-96050000D01*
G75*
G02*
X153800000Y-96112500I0J-62500D01*
G01*
G37*
%TD.AperFunction*%
%TO.P,U1,27*%
%TO.N,Net-(J1-Pad4)*%
%TA.AperFunction,SMDPad,CuDef*%
G36*
G01*
X153800000Y-95612500D02*
X153800000Y-95737500D01*
G75*
G02*
X153737500Y-95800000I-62500J0D01*
G01*
X152862500Y-95800000D01*
G75*
G02*
X152800000Y-95737500I0J62500D01*
G01*
X152800000Y-95612500D01*
G75*
G02*
X152862500Y-95550000I62500J0D01*
G01*
X153737500Y-95550000D01*
G75*
G02*
X153800000Y-95612500I0J-62500D01*
G01*
G37*
%TD.AperFunction*%
%TO.P,U1,26*%
%TO.N,Net-(U1-Pad26)*%
%TA.AperFunction,SMDPad,CuDef*%
G36*
G01*
X153800000Y-95112500D02*
X153800000Y-95237500D01*
G75*
G02*
X153737500Y-95300000I-62500J0D01*
G01*
X152862500Y-95300000D01*
G75*
G02*
X152800000Y-95237500I0J62500D01*
G01*
X152800000Y-95112500D01*
G75*
G02*
X152862500Y-95050000I62500J0D01*
G01*
X153737500Y-95050000D01*
G75*
G02*
X153800000Y-95112500I0J-62500D01*
G01*
G37*
%TD.AperFunction*%
%TO.P,U1,25*%
%TO.N,Net-(U1-Pad25)*%
%TA.AperFunction,SMDPad,CuDef*%
G36*
G01*
X153800000Y-94612500D02*
X153800000Y-94737500D01*
G75*
G02*
X153737500Y-94800000I-62500J0D01*
G01*
X152862500Y-94800000D01*
G75*
G02*
X152800000Y-94737500I0J62500D01*
G01*
X152800000Y-94612500D01*
G75*
G02*
X152862500Y-94550000I62500J0D01*
G01*
X153737500Y-94550000D01*
G75*
G02*
X153800000Y-94612500I0J-62500D01*
G01*
G37*
%TD.AperFunction*%
%TO.P,U1,24*%
%TO.N,Net-(U1-Pad24)*%
%TA.AperFunction,SMDPad,CuDef*%
G36*
G01*
X153800000Y-94112500D02*
X153800000Y-94237500D01*
G75*
G02*
X153737500Y-94300000I-62500J0D01*
G01*
X152862500Y-94300000D01*
G75*
G02*
X152800000Y-94237500I0J62500D01*
G01*
X152800000Y-94112500D01*
G75*
G02*
X152862500Y-94050000I62500J0D01*
G01*
X153737500Y-94050000D01*
G75*
G02*
X153800000Y-94112500I0J-62500D01*
G01*
G37*
%TD.AperFunction*%
%TO.P,U1,23*%
%TO.N,+3V3*%
%TA.AperFunction,SMDPad,CuDef*%
G36*
G01*
X153800000Y-93612500D02*
X153800000Y-93737500D01*
G75*
G02*
X153737500Y-93800000I-62500J0D01*
G01*
X152862500Y-93800000D01*
G75*
G02*
X152800000Y-93737500I0J62500D01*
G01*
X152800000Y-93612500D01*
G75*
G02*
X152862500Y-93550000I62500J0D01*
G01*
X153737500Y-93550000D01*
G75*
G02*
X153800000Y-93612500I0J-62500D01*
G01*
G37*
%TD.AperFunction*%
%TO.P,U1,22*%
%TO.N,Net-(U1-Pad22)*%
%TA.AperFunction,SMDPad,CuDef*%
G36*
G01*
X153800000Y-93112500D02*
X153800000Y-93237500D01*
G75*
G02*
X153737500Y-93300000I-62500J0D01*
G01*
X152862500Y-93300000D01*
G75*
G02*
X152800000Y-93237500I0J62500D01*
G01*
X152800000Y-93112500D01*
G75*
G02*
X152862500Y-93050000I62500J0D01*
G01*
X153737500Y-93050000D01*
G75*
G02*
X153800000Y-93112500I0J-62500D01*
G01*
G37*
%TD.AperFunction*%
%TO.P,U1,21*%
%TO.N,Net-(U1-Pad21)*%
%TA.AperFunction,SMDPad,CuDef*%
G36*
G01*
X153800000Y-92612500D02*
X153800000Y-92737500D01*
G75*
G02*
X153737500Y-92800000I-62500J0D01*
G01*
X152862500Y-92800000D01*
G75*
G02*
X152800000Y-92737500I0J62500D01*
G01*
X152800000Y-92612500D01*
G75*
G02*
X152862500Y-92550000I62500J0D01*
G01*
X153737500Y-92550000D01*
G75*
G02*
X153800000Y-92612500I0J-62500D01*
G01*
G37*
%TD.AperFunction*%
%TO.P,U1,20*%
%TO.N,Net-(U1-Pad20)*%
%TA.AperFunction,SMDPad,CuDef*%
G36*
G01*
X154200000Y-91462500D02*
X154200000Y-92337500D01*
G75*
G02*
X154137500Y-92400000I-62500J0D01*
G01*
X154012500Y-92400000D01*
G75*
G02*
X153950000Y-92337500I0J62500D01*
G01*
X153950000Y-91462500D01*
G75*
G02*
X154012500Y-91400000I62500J0D01*
G01*
X154137500Y-91400000D01*
G75*
G02*
X154200000Y-91462500I0J-62500D01*
G01*
G37*
%TD.AperFunction*%
%TO.P,U1,19*%
%TO.N,Net-(J4-Pad2)*%
%TA.AperFunction,SMDPad,CuDef*%
G36*
G01*
X154700000Y-91462500D02*
X154700000Y-92337500D01*
G75*
G02*
X154637500Y-92400000I-62500J0D01*
G01*
X154512500Y-92400000D01*
G75*
G02*
X154450000Y-92337500I0J62500D01*
G01*
X154450000Y-91462500D01*
G75*
G02*
X154512500Y-91400000I62500J0D01*
G01*
X154637500Y-91400000D01*
G75*
G02*
X154700000Y-91462500I0J-62500D01*
G01*
G37*
%TD.AperFunction*%
%TO.P,U1,18*%
%TO.N,GND*%
%TA.AperFunction,SMDPad,CuDef*%
G36*
G01*
X155200000Y-91462500D02*
X155200000Y-92337500D01*
G75*
G02*
X155137500Y-92400000I-62500J0D01*
G01*
X155012500Y-92400000D01*
G75*
G02*
X154950000Y-92337500I0J62500D01*
G01*
X154950000Y-91462500D01*
G75*
G02*
X155012500Y-91400000I62500J0D01*
G01*
X155137500Y-91400000D01*
G75*
G02*
X155200000Y-91462500I0J-62500D01*
G01*
G37*
%TD.AperFunction*%
%TO.P,U1,17*%
%TA.AperFunction,SMDPad,CuDef*%
G36*
G01*
X155700000Y-91462500D02*
X155700000Y-92337500D01*
G75*
G02*
X155637500Y-92400000I-62500J0D01*
G01*
X155512500Y-92400000D01*
G75*
G02*
X155450000Y-92337500I0J62500D01*
G01*
X155450000Y-91462500D01*
G75*
G02*
X155512500Y-91400000I62500J0D01*
G01*
X155637500Y-91400000D01*
G75*
G02*
X155700000Y-91462500I0J-62500D01*
G01*
G37*
%TD.AperFunction*%
%TO.P,U1,16*%
%TA.AperFunction,SMDPad,CuDef*%
G36*
G01*
X156200000Y-91462500D02*
X156200000Y-92337500D01*
G75*
G02*
X156137500Y-92400000I-62500J0D01*
G01*
X156012500Y-92400000D01*
G75*
G02*
X155950000Y-92337500I0J62500D01*
G01*
X155950000Y-91462500D01*
G75*
G02*
X156012500Y-91400000I62500J0D01*
G01*
X156137500Y-91400000D01*
G75*
G02*
X156200000Y-91462500I0J-62500D01*
G01*
G37*
%TD.AperFunction*%
%TO.P,U1,15*%
%TO.N,Net-(C16-Pad1)*%
%TA.AperFunction,SMDPad,CuDef*%
G36*
G01*
X156700000Y-91462500D02*
X156700000Y-92337500D01*
G75*
G02*
X156637500Y-92400000I-62500J0D01*
G01*
X156512500Y-92400000D01*
G75*
G02*
X156450000Y-92337500I0J62500D01*
G01*
X156450000Y-91462500D01*
G75*
G02*
X156512500Y-91400000I62500J0D01*
G01*
X156637500Y-91400000D01*
G75*
G02*
X156700000Y-91462500I0J-62500D01*
G01*
G37*
%TD.AperFunction*%
%TO.P,U1,14*%
%TO.N,Net-(C15-Pad1)*%
%TA.AperFunction,SMDPad,CuDef*%
G36*
G01*
X157200000Y-91462500D02*
X157200000Y-92337500D01*
G75*
G02*
X157137500Y-92400000I-62500J0D01*
G01*
X157012500Y-92400000D01*
G75*
G02*
X156950000Y-92337500I0J62500D01*
G01*
X156950000Y-91462500D01*
G75*
G02*
X157012500Y-91400000I62500J0D01*
G01*
X157137500Y-91400000D01*
G75*
G02*
X157200000Y-91462500I0J-62500D01*
G01*
G37*
%TD.AperFunction*%
%TO.P,U1,13*%
%TO.N,Net-(U1-Pad13)*%
%TA.AperFunction,SMDPad,CuDef*%
G36*
G01*
X157700000Y-91462500D02*
X157700000Y-92337500D01*
G75*
G02*
X157637500Y-92400000I-62500J0D01*
G01*
X157512500Y-92400000D01*
G75*
G02*
X157450000Y-92337500I0J62500D01*
G01*
X157450000Y-91462500D01*
G75*
G02*
X157512500Y-91400000I62500J0D01*
G01*
X157637500Y-91400000D01*
G75*
G02*
X157700000Y-91462500I0J-62500D01*
G01*
G37*
%TD.AperFunction*%
%TO.P,U1,12*%
%TO.N,Net-(U1-Pad12)*%
%TA.AperFunction,SMDPad,CuDef*%
G36*
G01*
X158200000Y-91462500D02*
X158200000Y-92337500D01*
G75*
G02*
X158137500Y-92400000I-62500J0D01*
G01*
X158012500Y-92400000D01*
G75*
G02*
X157950000Y-92337500I0J62500D01*
G01*
X157950000Y-91462500D01*
G75*
G02*
X158012500Y-91400000I62500J0D01*
G01*
X158137500Y-91400000D01*
G75*
G02*
X158200000Y-91462500I0J-62500D01*
G01*
G37*
%TD.AperFunction*%
%TO.P,U1,11*%
%TO.N,GND*%
%TA.AperFunction,SMDPad,CuDef*%
G36*
G01*
X158700000Y-91462500D02*
X158700000Y-92337500D01*
G75*
G02*
X158637500Y-92400000I-62500J0D01*
G01*
X158512500Y-92400000D01*
G75*
G02*
X158450000Y-92337500I0J62500D01*
G01*
X158450000Y-91462500D01*
G75*
G02*
X158512500Y-91400000I62500J0D01*
G01*
X158637500Y-91400000D01*
G75*
G02*
X158700000Y-91462500I0J-62500D01*
G01*
G37*
%TD.AperFunction*%
%TO.P,U1,10*%
%TO.N,Net-(C8-Pad1)*%
%TA.AperFunction,SMDPad,CuDef*%
G36*
G01*
X159850000Y-92612500D02*
X159850000Y-92737500D01*
G75*
G02*
X159787500Y-92800000I-62500J0D01*
G01*
X158912500Y-92800000D01*
G75*
G02*
X158850000Y-92737500I0J62500D01*
G01*
X158850000Y-92612500D01*
G75*
G02*
X158912500Y-92550000I62500J0D01*
G01*
X159787500Y-92550000D01*
G75*
G02*
X159850000Y-92612500I0J-62500D01*
G01*
G37*
%TD.AperFunction*%
%TO.P,U1,9*%
%TO.N,Net-(C10-Pad1)*%
%TA.AperFunction,SMDPad,CuDef*%
G36*
G01*
X159850000Y-93112500D02*
X159850000Y-93237500D01*
G75*
G02*
X159787500Y-93300000I-62500J0D01*
G01*
X158912500Y-93300000D01*
G75*
G02*
X158850000Y-93237500I0J62500D01*
G01*
X158850000Y-93112500D01*
G75*
G02*
X158912500Y-93050000I62500J0D01*
G01*
X159787500Y-93050000D01*
G75*
G02*
X159850000Y-93112500I0J-62500D01*
G01*
G37*
%TD.AperFunction*%
%TO.P,U1,8*%
%TO.N,+3V3*%
%TA.AperFunction,SMDPad,CuDef*%
G36*
G01*
X159850000Y-93612500D02*
X159850000Y-93737500D01*
G75*
G02*
X159787500Y-93800000I-62500J0D01*
G01*
X158912500Y-93800000D01*
G75*
G02*
X158850000Y-93737500I0J62500D01*
G01*
X158850000Y-93612500D01*
G75*
G02*
X158912500Y-93550000I62500J0D01*
G01*
X159787500Y-93550000D01*
G75*
G02*
X159850000Y-93612500I0J-62500D01*
G01*
G37*
%TD.AperFunction*%
%TO.P,U1,7*%
%TO.N,GND*%
%TA.AperFunction,SMDPad,CuDef*%
G36*
G01*
X159850000Y-94112500D02*
X159850000Y-94237500D01*
G75*
G02*
X159787500Y-94300000I-62500J0D01*
G01*
X158912500Y-94300000D01*
G75*
G02*
X158850000Y-94237500I0J62500D01*
G01*
X158850000Y-94112500D01*
G75*
G02*
X158912500Y-94050000I62500J0D01*
G01*
X159787500Y-94050000D01*
G75*
G02*
X159850000Y-94112500I0J-62500D01*
G01*
G37*
%TD.AperFunction*%
%TO.P,U1,6*%
%TO.N,Net-(L2-Pad2)*%
%TA.AperFunction,SMDPad,CuDef*%
G36*
G01*
X159850000Y-94612500D02*
X159850000Y-94737500D01*
G75*
G02*
X159787500Y-94800000I-62500J0D01*
G01*
X158912500Y-94800000D01*
G75*
G02*
X158850000Y-94737500I0J62500D01*
G01*
X158850000Y-94612500D01*
G75*
G02*
X158912500Y-94550000I62500J0D01*
G01*
X159787500Y-94550000D01*
G75*
G02*
X159850000Y-94612500I0J-62500D01*
G01*
G37*
%TD.AperFunction*%
%TO.P,U1,5*%
%TO.N,+3V3*%
%TA.AperFunction,SMDPad,CuDef*%
G36*
G01*
X159850000Y-95112500D02*
X159850000Y-95237500D01*
G75*
G02*
X159787500Y-95300000I-62500J0D01*
G01*
X158912500Y-95300000D01*
G75*
G02*
X158850000Y-95237500I0J62500D01*
G01*
X158850000Y-95112500D01*
G75*
G02*
X158912500Y-95050000I62500J0D01*
G01*
X159787500Y-95050000D01*
G75*
G02*
X159850000Y-95112500I0J-62500D01*
G01*
G37*
%TD.AperFunction*%
%TO.P,U1,4*%
%TO.N,Net-(L1-Pad1)*%
%TA.AperFunction,SMDPad,CuDef*%
G36*
G01*
X159850000Y-95612500D02*
X159850000Y-95737500D01*
G75*
G02*
X159787500Y-95800000I-62500J0D01*
G01*
X158912500Y-95800000D01*
G75*
G02*
X158850000Y-95737500I0J62500D01*
G01*
X158850000Y-95612500D01*
G75*
G02*
X158912500Y-95550000I62500J0D01*
G01*
X159787500Y-95550000D01*
G75*
G02*
X159850000Y-95612500I0J-62500D01*
G01*
G37*
%TD.AperFunction*%
%TO.P,U1,3*%
%TO.N,GND*%
%TA.AperFunction,SMDPad,CuDef*%
G36*
G01*
X159850000Y-96112500D02*
X159850000Y-96237500D01*
G75*
G02*
X159787500Y-96300000I-62500J0D01*
G01*
X158912500Y-96300000D01*
G75*
G02*
X158850000Y-96237500I0J62500D01*
G01*
X158850000Y-96112500D01*
G75*
G02*
X158912500Y-96050000I62500J0D01*
G01*
X159787500Y-96050000D01*
G75*
G02*
X159850000Y-96112500I0J-62500D01*
G01*
G37*
%TD.AperFunction*%
%TO.P,U1,2*%
%TO.N,Net-(U1-Pad2)*%
%TA.AperFunction,SMDPad,CuDef*%
G36*
G01*
X159850000Y-96612500D02*
X159850000Y-96737500D01*
G75*
G02*
X159787500Y-96800000I-62500J0D01*
G01*
X158912500Y-96800000D01*
G75*
G02*
X158850000Y-96737500I0J62500D01*
G01*
X158850000Y-96612500D01*
G75*
G02*
X158912500Y-96550000I62500J0D01*
G01*
X159787500Y-96550000D01*
G75*
G02*
X159850000Y-96612500I0J-62500D01*
G01*
G37*
%TD.AperFunction*%
%TO.P,U1,1*%
%TO.N,GND*%
%TA.AperFunction,SMDPad,CuDef*%
G36*
G01*
X159850000Y-97112500D02*
X159850000Y-97237500D01*
G75*
G02*
X159787500Y-97300000I-62500J0D01*
G01*
X158912500Y-97300000D01*
G75*
G02*
X158850000Y-97237500I0J62500D01*
G01*
X158850000Y-97112500D01*
G75*
G02*
X158912500Y-97050000I62500J0D01*
G01*
X159787500Y-97050000D01*
G75*
G02*
X159850000Y-97112500I0J-62500D01*
G01*
G37*
%TD.AperFunction*%
%TD*%
D26*
%TO.P,J3,4*%
%TO.N,Net-(J1-Pad4)*%
X149300000Y-94200000D03*
%TO.P,J3,3*%
%TO.N,Net-(J1-Pad3)*%
X151300000Y-94200000D03*
%TO.P,J3,2*%
%TO.N,+5V*%
X149300000Y-96200000D03*
D27*
%TO.P,J3,1*%
%TO.N,GND*%
X151300000Y-96200000D03*
%TD*%
D19*
%TO.P,D1,2*%
%TO.N,Net-(D1-Pad2)*%
X139570000Y-83200000D03*
D20*
%TO.P,D1,1*%
%TO.N,GND*%
X137030000Y-83200000D03*
%TD*%
D19*
%TO.P,D2,2*%
%TO.N,Net-(D2-Pad2)*%
X139570000Y-89200000D03*
D20*
%TO.P,D2,1*%
%TO.N,GND*%
X137030000Y-89200000D03*
%TD*%
D28*
%TO.P,Y1,1*%
%TO.N,Net-(C15-Pad1)*%
X155800000Y-87525000D03*
%TO.P,Y1,4*%
%TO.N,GND*%
X155800000Y-89125000D03*
%TO.P,Y1,3*%
%TO.N,Net-(C16-Pad1)*%
X153100000Y-89125000D03*
%TO.P,Y1,2*%
%TO.N,GND*%
X153100000Y-87525000D03*
%TD*%
D29*
%TO.N,GND*%
X157600000Y-100900000D03*
X151500000Y-100900000D03*
X149000000Y-87600000D03*
X163875000Y-88000000D03*
X163875000Y-102400000D03*
X151100000Y-87625000D03*
X157800000Y-89700000D03*
X165900000Y-95200000D03*
X161900000Y-96200000D03*
X143200000Y-100700000D03*
%TO.N,+3V3*%
X153600000Y-100900000D03*
X155525000Y-100900000D03*
%TO.N,Net-(C8-Pad1)*%
X159250810Y-91047094D03*
X156000000Y-83700000D03*
%TO.N,+5V*%
X159700000Y-99800000D03*
%TO.N,Net-(C10-Pad1)*%
X158000000Y-81800000D03*
X159900000Y-89700000D03*
%TD*%
D30*
%TO.N,GND*%
X157075000Y-94175000D02*
X156325000Y-94925000D01*
X159350000Y-94175000D02*
X157075000Y-94175000D01*
X157575000Y-96175000D02*
X156325000Y-94925000D01*
X159350000Y-96175000D02*
X157575000Y-96175000D01*
X158524990Y-97124990D02*
X157825000Y-96425000D01*
X158848022Y-97175000D02*
X158798012Y-97124990D01*
X158798012Y-97124990D02*
X158524990Y-97124990D01*
X159350000Y-97175000D02*
X158848022Y-97175000D01*
D31*
X165550000Y-86325000D02*
X163875000Y-88000000D01*
X165800000Y-86275000D02*
X165550000Y-86275000D01*
X164000000Y-102400000D02*
X165800000Y-104200000D01*
X152925000Y-87625000D02*
X153100000Y-87800000D01*
D30*
X156075000Y-94675000D02*
X156325000Y-94925000D01*
X156075000Y-91900000D02*
X156075000Y-94675000D01*
X155575000Y-94175000D02*
X156325000Y-94925000D01*
X155575000Y-91900000D02*
X155575000Y-94175000D01*
X155075000Y-93675000D02*
X156325000Y-94925000D01*
X155075000Y-91900000D02*
X155075000Y-93675000D01*
X158525010Y-92498012D02*
X157825000Y-93198022D01*
X158525010Y-92451968D02*
X158525010Y-92498012D01*
X158575000Y-92401978D02*
X158525010Y-92451968D01*
X157825000Y-93198022D02*
X157825000Y-93425000D01*
X158575000Y-91900000D02*
X158575000Y-92401978D01*
D31*
X159700000Y-87800000D02*
X157800000Y-89700000D01*
X163875000Y-102400000D02*
X164000000Y-102400000D01*
X153000000Y-87625000D02*
X153100000Y-87525000D01*
X157225000Y-89125000D02*
X157800000Y-89700000D01*
X155800000Y-89125000D02*
X157225000Y-89125000D01*
X151100000Y-87625000D02*
X153000000Y-87625000D01*
D30*
X161800000Y-96200000D02*
X161900000Y-96200000D01*
D31*
X169300000Y-95200000D02*
X165900000Y-95200000D01*
X165900000Y-95200000D02*
X165900000Y-96300000D01*
X165900000Y-94100000D02*
X165900000Y-95200000D01*
X146550000Y-107140000D02*
X146490000Y-107200000D01*
X146550000Y-104600000D02*
X146550000Y-107140000D01*
X143200000Y-100700000D02*
X143350000Y-100700000D01*
X158675000Y-101875000D02*
X159700000Y-101875000D01*
X157600000Y-100800000D02*
X158675000Y-101875000D01*
X146000000Y-104100000D02*
X146550000Y-104100000D01*
X146490000Y-104160000D02*
X146550000Y-104100000D01*
X146490000Y-107200000D02*
X146490000Y-104160000D01*
%TO.N,Net-(A1-Pad1)*%
X165800000Y-98200000D02*
X167300000Y-98200000D01*
%TO.N,Net-(A1-Pad3)*%
X165800000Y-92200000D02*
X167300000Y-92200000D01*
%TO.N,Net-(C3-Pad1)*%
X161986072Y-100268568D02*
X163987500Y-98267140D01*
X161800000Y-100268568D02*
X161986072Y-100268568D01*
X161800000Y-100268568D02*
X161800000Y-102400000D01*
%TO.N,Net-(C4-Pad2)*%
X161986072Y-90131428D02*
X163987500Y-92132856D01*
X161800000Y-90131428D02*
X161986072Y-90131428D01*
X161800000Y-88000000D02*
X161800000Y-90131428D01*
X160975000Y-86450000D02*
X158650000Y-86450000D01*
X161800000Y-88000000D02*
X161800000Y-87275000D01*
X161800000Y-87275000D02*
X160975000Y-86450000D01*
X158650000Y-86450000D02*
X158000000Y-85800000D01*
D30*
%TO.N,+3V3*%
X158075000Y-97950000D02*
X158075000Y-99325000D01*
X162174272Y-99218558D02*
X160881442Y-99218558D01*
X162850000Y-98542830D02*
X162174272Y-99218558D01*
X160881442Y-99218558D02*
X160881442Y-100518558D01*
X160881442Y-100518558D02*
X160550000Y-100850000D01*
X163762500Y-94162500D02*
X163825000Y-94100000D01*
X161962500Y-94100000D02*
X161900000Y-94162500D01*
X159350000Y-95175000D02*
X163825000Y-95175000D01*
X162850000Y-97275000D02*
X162850000Y-98542830D01*
X163825000Y-96300000D02*
X162850000Y-97275000D01*
X163825000Y-95175000D02*
X163825000Y-96300000D01*
X163825000Y-94100000D02*
X163825000Y-95175000D01*
X162200680Y-91207846D02*
X161092154Y-91207846D01*
X160780022Y-91519978D02*
X160780021Y-92929411D01*
X161092154Y-91207846D02*
X160780022Y-91519978D01*
X160034432Y-93675000D02*
X159350000Y-93675000D01*
X160780021Y-92929411D02*
X160034432Y-93675000D01*
X162796417Y-93071417D02*
X162796417Y-91803583D01*
X162796417Y-91803583D02*
X162200680Y-91207846D01*
X162796417Y-93071417D02*
X163825000Y-94100000D01*
X161900000Y-93967834D02*
X162796417Y-93071417D01*
X161900000Y-94162500D02*
X161900000Y-93967834D01*
X158649990Y-100549990D02*
X158649990Y-99899990D01*
X160550000Y-100850000D02*
X158950000Y-100850000D01*
X158649990Y-99899990D02*
X158075000Y-99325000D01*
X158950000Y-100850000D02*
X158649990Y-100549990D01*
X155974310Y-100900000D02*
X155525000Y-100900000D01*
X155525000Y-100900000D02*
X155525000Y-100900000D01*
X153300000Y-93675000D02*
X152598002Y-93675000D01*
X149000000Y-91400000D02*
X148900000Y-91500000D01*
X149000000Y-89700000D02*
X149000000Y-91400000D01*
X151448012Y-92525010D02*
X152461501Y-93538499D01*
X149925010Y-92525010D02*
X151448012Y-92525010D01*
X148900000Y-91500000D02*
X149925010Y-92525010D01*
X152598002Y-93675000D02*
X152461501Y-93538499D01*
X155525000Y-99875000D02*
X155525000Y-100900000D01*
X156075000Y-99325000D02*
X155525000Y-99875000D01*
X158075000Y-99325000D02*
X156075000Y-99325000D01*
X153349990Y-99849990D02*
X153600000Y-100100000D01*
X148625019Y-99074999D02*
X150375019Y-99074999D01*
X144275010Y-94724990D02*
X148625019Y-99074999D01*
X144275010Y-87324990D02*
X144275010Y-94724990D01*
X153600000Y-100100000D02*
X153600000Y-100900000D01*
X148563190Y-89700000D02*
X145938180Y-87074990D01*
X145938180Y-87074990D02*
X144525010Y-87074990D01*
X144525010Y-87074990D02*
X144275010Y-87324990D01*
X151150010Y-99849990D02*
X153349990Y-99849990D01*
X150375019Y-99074999D02*
X151150010Y-99849990D01*
X149000000Y-89700000D02*
X148563190Y-89700000D01*
D31*
%TO.N,Net-(C8-Pad2)*%
X158000000Y-83800000D02*
X156000000Y-85800000D01*
D30*
%TO.N,Net-(C8-Pad1)*%
X159816495Y-91047094D02*
X159250810Y-91047094D01*
X159880001Y-91110600D02*
X159816495Y-91047094D01*
X159594002Y-92675000D02*
X159880001Y-92389001D01*
X159350000Y-92675000D02*
X159594002Y-92675000D01*
X159880001Y-92389001D02*
X159880001Y-91110600D01*
D31*
X156000000Y-83725000D02*
X156000000Y-81800000D01*
D30*
%TO.N,+5V*%
X149050000Y-107180000D02*
X149030000Y-107200000D01*
X149050000Y-104600000D02*
X149050000Y-107180000D01*
X149050000Y-104550000D02*
X149050000Y-104600000D01*
X149030000Y-104120000D02*
X149050000Y-104100000D01*
X149030000Y-107200000D02*
X149030000Y-104120000D01*
X149050000Y-101850000D02*
X149050000Y-104100000D01*
X145200000Y-100700000D02*
X147900000Y-100700000D01*
X147900000Y-100700000D02*
X148650000Y-101450000D01*
X148650000Y-101450000D02*
X149050000Y-101850000D01*
X158575000Y-98675000D02*
X159700000Y-99800000D01*
X158575000Y-97950000D02*
X158575000Y-98675000D01*
%TO.N,Net-(C15-Pad1)*%
X157700000Y-87525000D02*
X157800000Y-87625000D01*
X155800000Y-87525000D02*
X157700000Y-87525000D01*
X157075000Y-91900000D02*
X157075000Y-91215567D01*
X154636410Y-90025000D02*
X154524999Y-89913589D01*
X157075000Y-91215567D02*
X155884433Y-90025000D01*
X154600000Y-87525000D02*
X155800000Y-87525000D01*
X155884433Y-90025000D02*
X154636410Y-90025000D01*
X154524999Y-89913589D02*
X154524999Y-87600001D01*
X154524999Y-87600001D02*
X154600000Y-87525000D01*
%TO.N,Net-(C16-Pad1)*%
X151675000Y-89125000D02*
X151100000Y-89700000D01*
X153100000Y-89125000D02*
X151675000Y-89125000D01*
X156575000Y-91351978D02*
X155698033Y-90475011D01*
X156575000Y-91900000D02*
X156575000Y-91351978D01*
X154450011Y-90475011D02*
X153100000Y-89125000D01*
X155698033Y-90475011D02*
X154450011Y-90475011D01*
%TO.N,Net-(L2-Pad2)*%
X160175010Y-94398012D02*
X159898022Y-94675000D01*
X160175010Y-94261800D02*
X160175010Y-94398012D01*
X161687500Y-92749310D02*
X160175010Y-94261800D01*
X159898022Y-94675000D02*
X159350000Y-94675000D01*
X161687500Y-92132856D02*
X161687500Y-92749310D01*
%TO.N,Net-(L1-Pad1)*%
X161687500Y-98267140D02*
X160749990Y-97329630D01*
X160749990Y-97329630D02*
X160749990Y-96526968D01*
X160749990Y-96526968D02*
X159898022Y-95675000D01*
X159898022Y-95675000D02*
X159350000Y-95675000D01*
%TO.N,Net-(J1-Pad4)*%
X152660002Y-95675000D02*
X152160003Y-95175001D01*
X149379412Y-94200000D02*
X149300000Y-94200000D01*
X152160003Y-95175001D02*
X150354413Y-95175001D01*
X153300000Y-95675000D02*
X152660002Y-95675000D01*
X150354413Y-95175001D02*
X149379412Y-94200000D01*
X154050000Y-107140000D02*
X154110000Y-107200000D01*
X154050000Y-104600000D02*
X154050000Y-107140000D01*
X154110000Y-104160000D02*
X154050000Y-104100000D01*
X154110000Y-107200000D02*
X154110000Y-104160000D01*
%TO.N,Net-(J1-Pad3)*%
X148831999Y-95175001D02*
X148324999Y-94668001D01*
X149718003Y-95175001D02*
X148831999Y-95175001D01*
X148324999Y-94668001D02*
X148324999Y-93731999D01*
X150275001Y-95731999D02*
X149718003Y-95175001D01*
X150275001Y-97060003D02*
X150275001Y-95731999D01*
X150324999Y-93224999D02*
X151300000Y-94200000D01*
X150389999Y-97175001D02*
X150275001Y-97060003D01*
X152275001Y-97110001D02*
X152210001Y-97175001D01*
X152751978Y-96175000D02*
X152275001Y-96651977D01*
X152210001Y-97175001D02*
X150389999Y-97175001D01*
X153300000Y-96175000D02*
X152751978Y-96175000D01*
X152275001Y-96651977D02*
X152275001Y-97110001D01*
X148324999Y-93731999D02*
X148831999Y-93224999D01*
X148831999Y-93224999D02*
X150324999Y-93224999D01*
X151550000Y-107180000D02*
X151570000Y-107200000D01*
X151550000Y-104600000D02*
X151550000Y-107180000D01*
X151570000Y-104120000D02*
X151550000Y-104100000D01*
X151570000Y-107200000D02*
X151570000Y-104120000D01*
%TO.N,Net-(D1-Pad2)*%
X143350000Y-88100000D02*
X141000000Y-88100000D01*
X139570000Y-86670000D02*
X139570000Y-83200000D01*
X141000000Y-88100000D02*
X139570000Y-86670000D01*
%TO.N,Net-(D2-Pad2)*%
X143350000Y-90400000D02*
X142700000Y-90400000D01*
X141500000Y-89200000D02*
X139570000Y-89200000D01*
X142700000Y-90400000D02*
X141500000Y-89200000D01*
%TO.N,Net-(D3-Pad2)*%
X143350000Y-92700000D02*
X141000000Y-92700000D01*
X139570000Y-94130000D02*
X139570000Y-95200000D01*
X141000000Y-92700000D02*
X139570000Y-94130000D01*
%TO.N,Net-(R5-Pad1)*%
X143200000Y-98700000D02*
X145200000Y-98700000D01*
X145200000Y-98700000D02*
X145600000Y-98700000D01*
X154612490Y-100087510D02*
X154612490Y-101513200D01*
X157198033Y-98874989D02*
X155825011Y-98874989D01*
X155825011Y-98874989D02*
X154612490Y-100087510D01*
X157575000Y-98498022D02*
X157198033Y-98874989D01*
X157575000Y-97950000D02*
X157575000Y-98498022D01*
X150211400Y-99611400D02*
X150500000Y-99900000D01*
X147613610Y-98700000D02*
X148525010Y-99611400D01*
X148525010Y-99611400D02*
X150211400Y-99611400D01*
X145200000Y-98700000D02*
X147613610Y-98700000D01*
X154175680Y-101950010D02*
X154612490Y-101513200D01*
X150949320Y-101950010D02*
X154175680Y-101950010D01*
X150500000Y-101500690D02*
X150949320Y-101950010D01*
X150500000Y-101400000D02*
X150500000Y-101500690D01*
X150500000Y-99900000D02*
X150500000Y-101400000D01*
%TO.N,Net-(R7-Pad1)*%
X154075000Y-98194002D02*
X153789001Y-98480001D01*
X149230251Y-97657431D02*
X147150000Y-95577178D01*
X147150000Y-95577178D02*
X147150000Y-89900000D01*
X153789001Y-98480001D02*
X152860999Y-98480001D01*
X147150000Y-89900000D02*
X145350000Y-88100000D01*
X152038429Y-97657431D02*
X149230251Y-97657431D01*
X154075000Y-97950000D02*
X154075000Y-98194002D01*
X152860999Y-98480001D02*
X152038429Y-97657431D01*
%TO.N,Net-(C10-Pad1)*%
X159350000Y-93175000D02*
X159898022Y-93175000D01*
X159898022Y-93175000D02*
X160330012Y-92743010D01*
X160330012Y-90130012D02*
X159900000Y-89700000D01*
X160330012Y-90730012D02*
X160330012Y-90130012D01*
X160330012Y-92743010D02*
X160330012Y-90730012D01*
%TO.N,Net-(C1-Pad1)*%
X165800000Y-100162500D02*
X165800000Y-102075000D01*
X163931068Y-100212500D02*
X163875000Y-100268568D01*
X165800000Y-100212500D02*
X163931068Y-100212500D01*
D31*
X163875000Y-100268568D02*
X165731432Y-100268568D01*
X165800000Y-100200000D02*
X165731432Y-100268568D01*
X165800000Y-100200000D02*
X165800000Y-102162500D01*
D30*
%TO.N,Net-(C2-Pad2)*%
X165800000Y-88350000D02*
X165800000Y-90262500D01*
X164056072Y-90312500D02*
X163875000Y-90131428D01*
X165800000Y-90312500D02*
X164056072Y-90312500D01*
D31*
X165800000Y-88237500D02*
X165800000Y-90200000D01*
X165731428Y-90131428D02*
X165800000Y-90200000D01*
X163875000Y-90131428D02*
X165731428Y-90131428D01*
D30*
%TO.N,Net-(R8-Pad1)*%
X152674589Y-98930002D02*
X151852029Y-98107442D01*
X151852029Y-98107442D02*
X149043851Y-98107442D01*
X145950000Y-90400000D02*
X145350000Y-90400000D01*
X154575000Y-97950000D02*
X154575000Y-98498020D01*
X154143018Y-98930002D02*
X152674589Y-98930002D01*
X154575000Y-98498020D02*
X154143018Y-98930002D01*
X146525000Y-95588589D02*
X146525000Y-90975000D01*
X149043851Y-98107442D02*
X146525000Y-95588589D01*
X146525000Y-90975000D02*
X145950000Y-90400000D01*
%TO.N,Net-(R9-Pad1)*%
X145350000Y-95150000D02*
X145350000Y-92700000D01*
X155075000Y-98634430D02*
X154329417Y-99380013D01*
X148757453Y-98557453D02*
X145350000Y-95150000D01*
X151453017Y-99380013D02*
X150630457Y-98557453D01*
X155075000Y-97950000D02*
X155075000Y-98634430D01*
X154329417Y-99380013D02*
X151453017Y-99380013D01*
X150630457Y-98557453D02*
X148757453Y-98557453D01*
%TO.N,Net-(J4-Pad2)*%
X154575000Y-91351978D02*
X154223022Y-91000000D01*
X154575000Y-91900000D02*
X154575000Y-91351978D01*
X151400000Y-91000000D02*
X150900000Y-91500000D01*
X152400000Y-91000000D02*
X151400000Y-91000000D01*
X154223022Y-91000000D02*
X152400000Y-91000000D01*
X150050000Y-87350000D02*
X150050000Y-90650000D01*
X150050000Y-90650000D02*
X150900000Y-91500000D01*
X150050000Y-87350000D02*
X150050000Y-86850000D01*
X150050000Y-86850000D02*
X150050000Y-86750000D01*
X150050000Y-86750000D02*
X150300000Y-86500000D01*
X150300000Y-86500000D02*
X150300000Y-81000000D01*
X150300000Y-81000000D02*
X150350000Y-80950000D01*
X150350000Y-80950000D02*
X153550000Y-80950000D01*
X147050000Y-80950000D02*
X150350000Y-80950000D01*
%TD*%
M02*
