%TF.GenerationSoftware,KiCad,Pcbnew,(6.0.0-0)*%
%TF.CreationDate,2021-12-31T16:55:24+00:00*%
%TF.ProjectId,PN532,504e3533-322e-46b6-9963-61645f706362,7*%
%TF.SameCoordinates,Original*%
%TF.FileFunction,Copper,L2,Bot*%
%TF.FilePolarity,Positive*%
%FSLAX46Y46*%
G04 Gerber Fmt 4.6, Leading zero omitted, Abs format (unit mm)*
G04 Created by KiCad (PCBNEW (6.0.0-0)) date 2021-12-31 16:55:24*
%MOMM*%
%LPD*%
G01*
G04 APERTURE LIST*
G04 Aperture macros list*
%AMRoundRect*
0 Rectangle with rounded corners*
0 $1 Rounding radius*
0 $2 $3 $4 $5 $6 $7 $8 $9 X,Y pos of 4 corners*
0 Add a 4 corners polygon primitive as box body*
4,1,4,$2,$3,$4,$5,$6,$7,$8,$9,$2,$3,0*
0 Add four circle primitives for the rounded corners*
1,1,$1+$1,$2,$3*
1,1,$1+$1,$4,$5*
1,1,$1+$1,$6,$7*
1,1,$1+$1,$8,$9*
0 Add four rect primitives between the rounded corners*
20,1,$1+$1,$2,$3,$4,$5,0*
20,1,$1+$1,$4,$5,$6,$7,0*
20,1,$1+$1,$6,$7,$8,$9,0*
20,1,$1+$1,$8,$9,$2,$3,0*%
%AMFreePoly0*
4,1,408,29.018965,16.746228,29.037961,16.749903,29.037967,16.749902,29.552773,16.728897,30.064792,16.671382,30.571434,16.577648,31.070139,16.448167,31.558389,16.283594,32.033717,16.084760,32.493723,15.852668,32.936084,15.588492,33.358565,15.293566,33.759033,14.969378,34.135465,14.617567,34.485959,14.239909,34.808747,13.838312,35.102196,13.414803,35.364826,12.971523,35.595310,12.510709,35.792483,12.034690,
35.955351,11.545868,36.083090,11.046714,36.175055,10.539748,36.230781,10.027531,36.249988,9.512655,36.249989,9.512649,36.248742,9.506323,36.250000,9.500000,36.250000,-14.500000,36.246228,-14.518965,36.249903,-14.537961,36.249902,-14.537967,36.228897,-15.052773,36.171382,-15.564792,36.077648,-16.071434,35.948167,-16.570139,35.783594,-17.058389,35.584760,-17.533717,35.352668,-17.993723,35.088492,-18.436084,
34.793566,-18.858565,34.469378,-19.259033,34.117567,-19.635465,33.739909,-19.985959,33.338312,-20.308747,32.914803,-20.602196,32.471523,-20.864826,32.010709,-21.095310,31.534690,-21.292483,31.045868,-21.455351,30.546714,-21.583090,30.039748,-21.675055,29.527531,-21.730781,29.012655,-21.749988,29.012649,-21.749989,29.006323,-21.748742,29.000000,-21.750000,5.000000,-21.750000,4.981035,-21.746228,4.962039,-21.749903,
4.962033,-21.749902,4.447227,-21.728897,3.935208,-21.671382,3.428566,-21.577648,2.929861,-21.448167,2.441611,-21.283594,1.966283,-21.084760,1.506277,-20.852668,1.063916,-20.588492,0.641435,-20.293566,0.240967,-19.969378,-0.135465,-19.617567,-0.485959,-19.239909,-0.808747,-18.838312,-1.102196,-18.414803,-1.364826,-17.971523,-1.595310,-17.510709,-1.792483,-17.034690,-1.955351,-16.545868,-2.083090,-16.046714,
-2.175055,-15.539748,-2.230781,-15.027531,-2.249988,-14.512655,-2.249989,-14.512649,-2.248742,-14.506323,-2.250000,-14.500000,-2.250000,-2.500000,-2.230970,-2.404329,-2.176777,-2.323223,-2.095671,-2.269030,-2.000000,-2.250000,-1.904329,-2.269030,-1.823223,-2.323223,-1.769030,-2.404329,-1.750000,-2.500000,-1.750000,-14.500000,-1.751171,-14.505888,-1.749989,-14.511777,-1.753933,-14.531787,-1.735116,-15.014294,
-1.678187,-15.513952,-1.584242,-16.007989,-1.453802,-16.493668,-1.287590,-16.968297,-1.086527,-17.429244,-0.851727,-17.873955,-0.584492,-18.299965,-0.286303,-18.704912,0.041187,-19.086552,0.396163,-19.442770,0.776658,-19.771591,1.180561,-20.071192,1.605635,-20.339913,2.049524,-20.576264,2.509766,-20.778936,2.983812,-20.946804,3.469032,-21.078939,3.962739,-21.174608,4.462195,-21.233281,4.944637,-21.253782,
4.964657,-21.249909,4.982315,-21.253518,5.000000,-21.250000,29.000000,-21.250000,29.005888,-21.251171,29.011777,-21.249989,29.031787,-21.253933,29.514294,-21.235116,30.013952,-21.178187,30.507989,-21.084242,30.993668,-20.953802,31.468297,-20.787590,31.929244,-20.586527,32.373955,-20.351727,32.799965,-20.084492,33.204912,-19.786303,33.586552,-19.458813,33.942770,-19.103837,34.271591,-18.723342,34.571192,-18.319439,
34.839913,-17.894365,35.076264,-17.450476,35.278936,-16.990234,35.446804,-16.516188,35.578939,-16.030968,35.674608,-15.537261,35.733281,-15.037805,35.753782,-14.555363,35.749909,-14.535343,35.753518,-14.517685,35.750000,-14.500000,35.750000,9.500000,35.751171,9.505888,35.749989,9.511777,35.753933,9.531787,35.735116,10.014294,35.678187,10.513952,35.584242,11.007989,35.453802,11.493668,35.287590,11.968297,
35.086527,12.429244,34.851727,12.873955,34.584492,13.299965,34.286303,13.704912,33.958813,14.086552,33.603837,14.442770,33.223342,14.771591,32.819439,15.071192,32.394365,15.339913,31.950476,15.576264,31.490234,15.778936,31.016188,15.946804,30.530968,16.078939,30.037261,16.174608,29.537805,16.233281,29.055363,16.253782,29.035343,16.249909,29.017685,16.253518,29.000000,16.250000,4.999998,16.250000,
4.981375,16.253704,4.548510,16.236697,4.099806,16.183589,3.656652,16.095440,3.221780,15.972794,2.797871,15.816405,2.387539,15.627240,1.993314,15.406463,1.617626,15.155436,1.262792,14.875707,0.930998,14.569000,0.624292,14.237207,0.344563,13.882372,0.093536,13.506684,-0.127241,13.112459,-0.316406,12.702127,-0.472794,12.278218,-0.595441,11.843346,-0.683590,11.400192,-0.736697,10.951488,
-0.753704,10.518623,-0.750000,10.500000,-0.750000,-14.500002,-0.753704,-14.518625,-0.736697,-14.951490,-0.683589,-15.400194,-0.595440,-15.843348,-0.472794,-16.278220,-0.316405,-16.702129,-0.127240,-17.112461,0.093537,-17.506686,0.344564,-17.882374,0.624293,-18.237208,0.931000,-18.569002,1.262793,-18.875708,1.617628,-19.155437,1.993316,-19.406464,2.387541,-19.627241,2.797873,-19.816406,3.221782,-19.972794,
3.656654,-20.095441,4.099808,-20.183590,4.548512,-20.236697,4.981377,-20.253704,5.000000,-20.250000,29.000002,-20.250000,29.018642,-20.253708,29.448987,-20.236893,29.895234,-20.184373,30.336022,-20.097194,30.768665,-19.975889,31.190525,-19.821197,31.599028,-19.634062,31.991686,-19.415624,32.366102,-19.167215,32.719996,-18.890350,33.051208,-18.586717,33.357720,-18.258167,33.637663,-17.906703,33.889330,-17.534468,
34.111186,-17.143732,34.301879,-16.736877,34.460246,-16.316383,34.585322,-15.884815,34.676344,-15.444804,34.732757,-14.999032,34.753326,-14.568848,34.749782,-14.550179,34.754995,-14.525114,34.750000,-14.500000,34.750000,9.500002,34.753704,9.518625,34.736697,9.951490,34.683589,10.400194,34.595440,10.843348,34.472794,11.278220,34.316405,11.702129,34.127240,12.112461,33.906463,12.506686,33.655436,12.882374,
33.375707,13.237208,33.069000,13.569002,32.737207,13.875708,32.382372,14.155437,32.006684,14.406464,31.612459,14.627241,31.202127,14.816406,30.778218,14.972794,30.343346,15.095441,29.900192,15.183590,29.451488,15.236697,29.018623,15.253704,29.000000,15.250000,5.000000,15.250000,4.981344,15.253711,4.585616,15.236433,4.174385,15.182293,3.769438,15.092518,3.373857,14.967792,2.990651,14.809063,
2.622737,14.617539,2.272916,14.394679,1.943850,14.142177,1.638043,13.861957,1.357823,13.556150,1.105321,13.227084,0.882461,12.877263,0.690937,12.509349,0.532208,12.126143,0.407482,11.730562,0.317707,11.325615,0.263567,10.914384,0.246289,10.518656,0.250000,10.500000,0.250000,-0.600000,-0.250000,-0.600000,-0.250000,10.500000,-0.232069,10.933542,-0.178397,11.364122,-0.089351,11.788799,
0.034459,12.204672,0.192190,12.608901,0.382763,12.998724,0.604876,13.371478,0.857012,13.724617,1.137449,14.055728,1.444272,14.362551,1.775383,14.642988,2.128522,14.895124,2.501276,15.117237,2.891099,15.307810,3.295328,15.465541,3.711201,15.589351,4.135878,15.678397,4.566458,15.732069,5.000000,15.750000,29.000000,15.750000,29.467063,15.732524,29.931514,15.680193,30.390756,15.593300,
30.842220,15.472330,31.283381,15.317961,31.711773,15.131056,32.125000,14.912659,32.520750,14.663993,32.896811,14.386448,33.251079,14.081575,33.581574,13.751081,33.886446,13.396812,34.163992,13.020752,34.412658,12.625001,34.631055,12.211775,34.817961,11.783383,34.972330,11.342222,35.093299,10.890758,35.180193,10.431516,35.232524,9.967065,35.250000,9.500002,35.250000,-14.500000,35.244580,-14.527248,
35.249762,-14.554543,35.228427,-15.018847,35.172645,-15.480282,35.082726,-15.936296,34.959167,-16.384366,34.802651,-16.822015,34.614043,-17.246822,34.394387,-17.656437,34.144898,-18.048597,33.866955,-18.421130,33.562095,-18.771979,33.232005,-19.099201,32.878510,-19.400987,32.503565,-19.675669,32.109243,-19.921726,31.697726,-20.137799,31.271289,-20.322693,30.832291,-20.475384,30.383160,-20.595029,29.926379,-20.680965,
29.464475,-20.732717,29.000002,-20.750000,5.000000,-20.750000,4.532937,-20.732524,4.068486,-20.680193,3.609244,-20.593300,3.157780,-20.472330,2.716619,-20.317961,2.288227,-20.131056,1.875000,-19.912659,1.479250,-19.663993,1.103189,-19.386448,0.748921,-19.081575,0.418426,-18.751081,0.113554,-18.396812,-0.163992,-18.020752,-0.412658,-17.625001,-0.631055,-17.211775,-0.817961,-16.783383,-0.972330,-16.342222,
-1.093299,-15.890758,-1.180193,-15.431516,-1.232524,-14.967065,-1.250000,-14.500002,-1.250000,10.500000,-1.232524,10.967063,-1.180193,11.431514,-1.093300,11.890756,-0.972330,12.342220,-0.817961,12.783381,-0.631056,13.211773,-0.412659,13.625000,-0.163993,14.020750,0.113552,14.396811,0.418425,14.751079,0.748919,15.081574,1.103188,15.386446,1.479248,15.663992,1.874999,15.912658,2.288225,16.131055,
2.716617,16.317961,3.157778,16.472330,3.609242,16.593299,4.068484,16.680193,4.532935,16.732524,4.999998,16.750000,29.000000,16.750000,29.018965,16.746228,29.018965,16.746228,$1*%
%AMFreePoly1*
4,1,110,2.420704,0.858187,2.584848,0.808395,2.736124,0.727536,2.868718,0.618718,2.977536,0.486124,3.058395,0.334848,3.108187,0.170704,3.125000,0.000000,3.125000,-1.762093,4.705093,0.081349,4.732106,0.104954,4.799566,0.124999,4.867164,0.105422,4.913473,0.052429,4.923813,-0.017184,4.894907,-0.081349,3.166360,-2.097988,4.892912,-4.016380,4.912835,-4.046212,4.924011,-4.115694,
4.895878,-4.180203,4.837354,-4.219289,4.766989,-4.220563,4.707088,-4.183621,3.125000,-2.425745,3.125000,-4.200000,3.121281,-4.225647,3.121463,-4.229524,3.120469,-4.231244,3.119852,-4.235502,3.102373,-4.262572,3.086262,-4.290464,3.083416,-4.291932,3.081678,-4.294624,3.052343,-4.307962,3.023718,-4.322729,3.020530,-4.322427,3.017613,-4.323753,2.985720,-4.319129,2.953655,-4.316091,
2.951136,-4.314115,2.947965,-4.313655,2.923632,-4.292540,2.898283,-4.272655,1.435672,-2.225000,1.742899,-2.225000,2.875000,-3.809941,2.875000,-2.225000,1.742899,-2.225000,1.435672,-2.225000,-0.101717,-0.072655,-0.105573,-0.065180,-0.108253,-0.062500,-0.109656,-0.057265,-0.118163,-0.040773,-0.119031,-0.022275,-0.120395,-0.017184,-0.125000,0.000000,-0.120811,0.015634,-0.121463,0.029524,
-0.113304,0.043649,-0.110951,0.052429,-0.108253,0.062500,-0.094432,0.076321,-0.086262,0.090465,-0.073922,0.096831,-0.062500,0.108253,-0.040194,0.114230,-0.023718,0.122730,-0.012455,0.121663,0.000000,0.125000,0.026083,0.118011,0.046345,0.116091,0.053138,0.110761,0.062500,0.108253,0.084928,0.085825,0.101717,0.072655,1.564328,-1.975000,2.875000,-1.975000,2.875000,0.000000,
2.877498,0.017229,2.861295,0.150671,2.807474,0.292585,2.721255,0.417495,2.607648,0.518142,2.473256,0.588677,2.325889,0.625000,2.174111,0.625000,2.026744,0.588677,1.892352,0.518142,1.778745,0.417495,1.692526,0.292585,1.638705,0.150671,1.621841,0.011788,1.625000,0.000000,1.608253,-0.062500,1.562500,-0.108253,1.500000,-0.125000,1.437500,-0.108253,1.391747,-0.062500,
1.375000,0.000000,1.391813,0.170704,1.441605,0.334848,1.522464,0.486124,1.631282,0.618718,1.763876,0.727536,1.915152,0.808395,2.079296,0.858187,2.250000,0.875000,2.420704,0.858187,2.420704,0.858187,$1*%
G04 Aperture macros list end*
%TA.AperFunction,ComponentPad*%
%ADD10C,3.200000*%
%TD*%
%TA.AperFunction,SMDPad,CuDef*%
%ADD11RoundRect,0.125000X0.625000X-0.125000X0.625000X0.125000X-0.625000X0.125000X-0.625000X-0.125000X0*%
%TD*%
%TA.AperFunction,ComponentPad*%
%ADD12C,2.000000*%
%TD*%
%TA.AperFunction,SMDPad,CuDef*%
%ADD13R,1.300000X2.000000*%
%TD*%
%TA.AperFunction,ComponentPad*%
%ADD14C,0.350000*%
%TD*%
%TA.AperFunction,ComponentPad*%
%ADD15R,1.700000X1.700000*%
%TD*%
%TA.AperFunction,ComponentPad*%
%ADD16O,1.700000X1.700000*%
%TD*%
%TA.AperFunction,ComponentPad*%
%ADD17RoundRect,0.250000X-0.600000X-0.675000X0.600000X-0.675000X0.600000X0.675000X-0.600000X0.675000X0*%
%TD*%
%TA.AperFunction,ComponentPad*%
%ADD18O,1.700000X1.850000*%
%TD*%
%TA.AperFunction,ComponentPad*%
%ADD19C,1.200000*%
%TD*%
%TA.AperFunction,SMDPad,CuDef*%
%ADD20R,0.200000X1.400000*%
%TD*%
%TA.AperFunction,SMDPad,CuDef*%
%ADD21R,0.200000X0.200000*%
%TD*%
%TA.AperFunction,SMDPad,CuDef*%
%ADD22R,0.400000X0.200000*%
%TD*%
%TA.AperFunction,SMDPad,CuDef*%
%ADD23R,1.200000X0.200000*%
%TD*%
%TA.AperFunction,SMDPad,CuDef*%
%ADD24R,0.600000X0.600000*%
%TD*%
%TA.AperFunction,SMDPad,CuDef*%
%ADD25R,0.200000X0.400000*%
%TD*%
%TA.AperFunction,SMDPad,CuDef*%
%ADD26R,0.600000X0.200000*%
%TD*%
%TA.AperFunction,SMDPad,CuDef*%
%ADD27R,0.200000X1.000000*%
%TD*%
%TA.AperFunction,SMDPad,CuDef*%
%ADD28R,0.200000X0.600000*%
%TD*%
%TA.AperFunction,SMDPad,CuDef*%
%ADD29R,0.200000X0.800000*%
%TD*%
%TA.AperFunction,SMDPad,CuDef*%
%ADD30R,0.600000X0.400000*%
%TD*%
%TA.AperFunction,SMDPad,CuDef*%
%ADD31R,0.800000X0.200000*%
%TD*%
%TA.AperFunction,ComponentPad*%
%ADD32C,0.600000*%
%TD*%
%TA.AperFunction,SMDPad,CuDef*%
%ADD33FreePoly0,270.000000*%
%TD*%
%TA.AperFunction,SMDPad,CuDef*%
%ADD34FreePoly1,180.000000*%
%TD*%
%TA.AperFunction,ViaPad*%
%ADD35C,0.800000*%
%TD*%
%TA.AperFunction,Conductor*%
%ADD36C,0.250000*%
%TD*%
%TA.AperFunction,Conductor*%
%ADD37C,0.500000*%
%TD*%
G04 APERTURE END LIST*
D10*
%TO.P,H2,1*%
%TO.N,N/C*%
X88000000Y-88000000D03*
%TD*%
%TO.P,H1,1*%
%TO.N,N/C*%
X112000000Y-112000000D03*
%TD*%
D11*
%TO.P,D2,1,K*%
%TO.N,GND*%
X112000000Y-94900000D03*
%TO.P,D2,2,A*%
%TO.N,Net-(D2-Pad2)*%
X112000000Y-93100000D03*
%TD*%
%TO.P,D3,1,K*%
%TO.N,GND*%
X112000000Y-88900000D03*
%TO.P,D3,2,A*%
%TO.N,Net-(D3-Pad2)*%
X112000000Y-87100000D03*
%TD*%
D12*
%TO.P,SW1,1,1*%
%TO.N,GND*%
X90750000Y-103250000D03*
X90750000Y-96750000D03*
D13*
X90750000Y-104200000D03*
X90750000Y-95800000D03*
D12*
%TO.P,SW1,2,2*%
%TO.N,Net-(R11-Pad2)*%
X86250000Y-96750000D03*
D13*
X86250000Y-104200000D03*
D12*
X86250000Y-103250000D03*
D13*
X86250000Y-95800000D03*
%TD*%
D11*
%TO.P,D1,1,K*%
%TO.N,GND*%
X112000000Y-100900000D03*
%TO.P,D1,2,A*%
%TO.N,Net-(D1-Pad2)*%
X112000000Y-99100000D03*
%TD*%
D14*
%TO.P,U1,41,COPPER*%
%TO.N,GND*%
X99000000Y-99000000D03*
X100000000Y-100000000D03*
X99000000Y-101000000D03*
X101000000Y-101000000D03*
X101000000Y-99000000D03*
%TD*%
D15*
%TO.P,J1,1,Pin_1*%
%TO.N,GND*%
X112000000Y-107270000D03*
D16*
%TO.P,J1,2,Pin_2*%
%TO.N,Net-(J1-Pad2)*%
X112000000Y-104730000D03*
%TD*%
D17*
%TO.P,J3,1,Pin_1*%
%TO.N,GND*%
X96250000Y-108900000D03*
D18*
%TO.P,J3,2,Pin_2*%
%TO.N,+5V*%
X98750000Y-108900000D03*
%TO.P,J3,3,Pin_3*%
%TO.N,Net-(J2-Pad3)*%
X101250000Y-108900000D03*
%TO.P,J3,4,Pin_4*%
%TO.N,Net-(J2-Pad4)*%
X103750000Y-108900000D03*
%TD*%
D19*
%TO.P,TP1,1,1*%
%TO.N,Net-(L1-Pad1)*%
X101250000Y-92400000D03*
%TO.P,TP1,2,2*%
%TO.N,Net-(L2-Pad2)*%
X98750000Y-92400000D03*
%TD*%
D15*
%TO.P,J2,1,Pin_1*%
%TO.N,GND*%
X96190000Y-112000000D03*
D16*
%TO.P,J2,2,Pin_2*%
%TO.N,+5V*%
X98730000Y-112000000D03*
%TO.P,J2,3,Pin_3*%
%TO.N,Net-(J2-Pad3)*%
X101270000Y-112000000D03*
%TO.P,J2,4,Pin_4*%
%TO.N,Net-(J2-Pad4)*%
X103810000Y-112000000D03*
%TD*%
D20*
%TO.P,U3,*%
%TO.N,*%
X90500000Y-110100000D03*
D21*
X90500000Y-111500000D03*
D22*
X90400000Y-111900000D03*
D20*
X90500000Y-112900000D03*
D23*
X89800000Y-109500000D03*
X89800000Y-110700000D03*
D21*
X90300000Y-111300000D03*
D23*
X89800000Y-112300000D03*
X89800000Y-113500000D03*
D24*
X89900000Y-110100000D03*
D21*
X90100000Y-111100000D03*
D25*
X90100000Y-111600000D03*
D24*
X89900000Y-112900000D03*
D26*
X89700000Y-111300000D03*
D25*
X89900000Y-111800000D03*
D23*
X89000000Y-111500000D03*
D22*
X89400000Y-111900000D03*
D27*
X89300000Y-110100000D03*
D26*
X89100000Y-111100000D03*
D27*
X89300000Y-112900000D03*
D21*
X89100000Y-111700000D03*
D28*
X88900000Y-109700000D03*
D29*
X88900000Y-110600000D03*
D28*
X88900000Y-112100000D03*
D22*
X88800000Y-113100000D03*
D30*
X88500000Y-109600000D03*
D31*
X88400000Y-110900000D03*
D21*
X88700000Y-111300000D03*
X88700000Y-111700000D03*
D31*
X88400000Y-112300000D03*
D21*
X88700000Y-112900000D03*
D25*
X88700000Y-113400000D03*
X88500000Y-110000000D03*
D21*
X88500000Y-110700000D03*
D22*
X88400000Y-111900000D03*
D21*
X88500000Y-112700000D03*
D22*
X88200000Y-109900000D03*
X88200000Y-110300000D03*
D21*
X88300000Y-111100000D03*
X88300000Y-112100000D03*
D22*
X88200000Y-112500000D03*
D21*
X88100000Y-110700000D03*
D28*
X88100000Y-111500000D03*
D31*
X87800000Y-113500000D03*
D28*
X87900000Y-111300000D03*
D25*
X87900000Y-112000000D03*
D22*
X87800000Y-112700000D03*
D20*
X87700000Y-110100000D03*
D26*
X87500000Y-111100000D03*
D25*
X87700000Y-111800000D03*
D26*
X87500000Y-112500000D03*
D25*
X87700000Y-113000000D03*
D23*
X87000000Y-109500000D03*
X87000000Y-110700000D03*
D21*
X87500000Y-111300000D03*
X87500000Y-111700000D03*
D26*
X87300000Y-112100000D03*
D24*
X87100000Y-110100000D03*
D26*
X87100000Y-111500000D03*
D21*
X87300000Y-112300000D03*
X87300000Y-112700000D03*
X87300000Y-113100000D03*
X87100000Y-113300000D03*
D26*
X86700000Y-111100000D03*
X86700000Y-111700000D03*
D21*
X86900000Y-112500000D03*
D26*
X86700000Y-113500000D03*
D21*
X86700000Y-111300000D03*
D22*
X86600000Y-111900000D03*
X86600000Y-112900000D03*
D21*
X86700000Y-113300000D03*
D27*
X86500000Y-110100000D03*
D21*
X86500000Y-112500000D03*
%TD*%
D32*
%TO.P,A1,*%
%TO.N,*%
X100000000Y-81000000D03*
X102000000Y-83000000D03*
X98000000Y-83000000D03*
D33*
X102500000Y-83000000D03*
%TD*%
D34*
%TO.P,AJK2,*%
%TO.N,*%
X90800000Y-94300000D03*
%TD*%
D35*
%TO.N,GND*%
X112000000Y-101600000D03*
X112000000Y-95600000D03*
X95003161Y-96622158D03*
X100000000Y-91500000D03*
X109000000Y-107100000D03*
X109000000Y-105500000D03*
X94400000Y-103600000D03*
X109000000Y-102974990D03*
X103050000Y-95350000D03*
X103050000Y-93850000D03*
X106200000Y-96000000D03*
X93125000Y-93850000D03*
X106238430Y-101438430D03*
X96300000Y-103600000D03*
X96450000Y-95350000D03*
X93225000Y-103575000D03*
X110642980Y-97631700D03*
X112000000Y-89600000D03*
%TO.N,+3V3*%
X107238947Y-103740856D03*
X93800000Y-96500000D03*
X107189453Y-96509732D03*
X106246541Y-107243575D03*
X107124997Y-94740321D03*
X97700000Y-93600000D03*
X91500000Y-106000000D03*
X99151497Y-93600000D03*
%TO.N,+5V*%
X110688884Y-96374744D03*
X104725000Y-96225000D03*
X105903346Y-93571334D03*
%TO.N,Net-(D1-Pad2)*%
X110900000Y-101900000D03*
X112000000Y-98400000D03*
%TO.N,Net-(D2-Pad2)*%
X112000000Y-92400000D03*
X112000000Y-97300000D03*
%TO.N,Net-(D3-Pad2)*%
X108900000Y-94600000D03*
X112000000Y-86400000D03*
%TO.N,Net-(J1-Pad2)*%
X106700000Y-105200000D03*
%TO.N,Net-(J2-Pad4)*%
X105263126Y-107425011D03*
%TD*%
D36*
%TO.N,GND*%
X109000000Y-99274680D02*
X110642980Y-97631700D01*
X109000000Y-105500000D02*
X109000000Y-107100000D01*
X112000000Y-89700000D02*
X112000000Y-88950010D01*
X104224999Y-110824999D02*
X104224999Y-110798127D01*
X90750000Y-103250000D02*
X92900000Y-103250000D01*
X111425010Y-102974990D02*
X112000000Y-102400000D01*
D37*
X96250000Y-108900000D02*
X96250000Y-107150000D01*
X100000000Y-91500000D02*
X100000000Y-93090501D01*
D36*
X109000000Y-102974990D02*
X111425010Y-102974990D01*
X107923126Y-107100000D02*
X109000000Y-107100000D01*
D37*
X100000000Y-93090501D02*
X100001498Y-93091999D01*
D36*
X109000000Y-102974990D02*
X109000000Y-99274680D01*
X111830000Y-107100000D02*
X112000000Y-107270000D01*
X96190000Y-112000000D02*
X97365001Y-110824999D01*
X112000000Y-102400000D02*
X112000000Y-101600000D01*
X109000000Y-107100000D02*
X111830000Y-107100000D01*
X112000000Y-95600000D02*
X112000000Y-94950010D01*
D37*
X100001498Y-93091999D02*
X100001498Y-99898502D01*
D36*
X104224999Y-110798127D02*
X107923126Y-107100000D01*
X112000000Y-101600000D02*
X112000000Y-100950010D01*
X92900000Y-103250000D02*
X93225000Y-103575000D01*
X97365001Y-110824999D02*
X104224999Y-110824999D01*
%TO.N,+3V3*%
X94450010Y-110150010D02*
X91500000Y-107200000D01*
X106246541Y-108140175D02*
X104236706Y-110150010D01*
X105306019Y-106406019D02*
X106143575Y-107243575D01*
X107189453Y-94804777D02*
X107124997Y-94740321D01*
X106246541Y-107243575D02*
X106246541Y-108140175D01*
X96700000Y-93600000D02*
X97000000Y-93600000D01*
X91500000Y-107200000D02*
X91500000Y-106000000D01*
X106143575Y-107243575D02*
X106246541Y-107243575D01*
X93800000Y-96500000D02*
X96700000Y-93600000D01*
X105300000Y-103500000D02*
X105300000Y-106400000D01*
X104236706Y-110150010D02*
X94450010Y-110150010D01*
X106998091Y-103500000D02*
X107238947Y-103740856D01*
X97700000Y-93600000D02*
X97000000Y-93600000D01*
X105300000Y-102600000D02*
X105700000Y-102200000D01*
X105700000Y-102200000D02*
X106600000Y-102200000D01*
X97700000Y-93600000D02*
X99151497Y-93600000D01*
X107189453Y-96509732D02*
X107189453Y-94804777D01*
X107050000Y-96649185D02*
X107189453Y-96509732D01*
X105300000Y-103500000D02*
X106998091Y-103500000D01*
X106600000Y-102200000D02*
X107050000Y-101750000D01*
X105300000Y-103500000D02*
X105300000Y-102600000D01*
X107050000Y-101750000D02*
X107050000Y-96649185D01*
D37*
%TO.N,+5V*%
X104725000Y-106675000D02*
X104725000Y-96225000D01*
X98750000Y-108900000D02*
X98750000Y-108850097D01*
D36*
X108000000Y-95400000D02*
X108974744Y-96374744D01*
X107671334Y-93571334D02*
X108000000Y-93900000D01*
X108000000Y-93900000D02*
X108000000Y-95400000D01*
D37*
X103900000Y-107500000D02*
X104725000Y-106675000D01*
X100100096Y-107500000D02*
X103900000Y-107500000D01*
D36*
X105903346Y-93571334D02*
X107671334Y-93571334D01*
D37*
X98750000Y-108850097D02*
X100100096Y-107500000D01*
D36*
X108974744Y-96374744D02*
X110688884Y-96374744D01*
%TO.N,Net-(D1-Pad2)*%
X110900000Y-98400000D02*
X110500001Y-98799999D01*
X110500001Y-101500001D02*
X110900000Y-101900000D01*
X112000000Y-98400000D02*
X110900000Y-98400000D01*
X112000000Y-98400000D02*
X112000000Y-99049990D01*
X110500001Y-98799999D02*
X110500001Y-101500001D01*
%TO.N,Net-(D2-Pad2)*%
X112000000Y-96638018D02*
X110674990Y-95313008D01*
X110674990Y-92825010D02*
X111300000Y-92200000D01*
X112000000Y-97300000D02*
X112000000Y-96638018D01*
X112000000Y-92200000D02*
X112000000Y-93049990D01*
X111300000Y-92200000D02*
X112000000Y-92200000D01*
X110674990Y-95313008D02*
X110674990Y-92825010D01*
%TO.N,Net-(D3-Pad2)*%
X108900000Y-93800000D02*
X108900000Y-94600000D01*
X110500000Y-87000000D02*
X110500000Y-92200000D01*
X112000000Y-86400000D02*
X112000000Y-87049990D01*
X112000000Y-86400000D02*
X111100000Y-86400000D01*
X111100000Y-86400000D02*
X110500000Y-87000000D01*
X110500000Y-92200000D02*
X108900000Y-93800000D01*
%TO.N,Net-(J1-Pad2)*%
X112000000Y-104730000D02*
X107170000Y-104730000D01*
X107170000Y-104730000D02*
X106700000Y-105200000D01*
%TO.N,Net-(J2-Pad4)*%
X105224989Y-107425011D02*
X105263126Y-107425011D01*
X103750000Y-108900000D02*
X105224989Y-107425011D01*
%TD*%
%TA.AperFunction,Conductor*%
%TO.N,GND*%
G36*
X94505121Y-93020002D02*
G01*
X94537800Y-93050400D01*
X95250475Y-94000633D01*
X95275345Y-94067129D01*
X95260316Y-94136516D01*
X95238769Y-94165326D01*
X93849500Y-95554595D01*
X93787188Y-95588621D01*
X93760405Y-95591500D01*
X93704513Y-95591500D01*
X93698061Y-95592872D01*
X93698056Y-95592872D01*
X93611112Y-95611353D01*
X93517712Y-95631206D01*
X93511682Y-95633891D01*
X93511681Y-95633891D01*
X93349278Y-95706197D01*
X93349276Y-95706198D01*
X93343248Y-95708882D01*
X93188747Y-95821134D01*
X93184326Y-95826044D01*
X93184325Y-95826045D01*
X93100535Y-95919104D01*
X93060960Y-95963056D01*
X92965473Y-96128444D01*
X92906458Y-96310072D01*
X92886496Y-96500000D01*
X92906458Y-96689928D01*
X92965473Y-96871556D01*
X93060960Y-97036944D01*
X93188747Y-97178866D01*
X93343248Y-97291118D01*
X93349276Y-97293802D01*
X93349278Y-97293803D01*
X93457803Y-97342121D01*
X93517712Y-97368794D01*
X93610957Y-97388614D01*
X93698056Y-97407128D01*
X93698061Y-97407128D01*
X93704513Y-97408500D01*
X93895487Y-97408500D01*
X93901939Y-97407128D01*
X93901944Y-97407128D01*
X93989043Y-97388614D01*
X94082288Y-97368794D01*
X94142197Y-97342121D01*
X94250722Y-97293803D01*
X94250724Y-97293802D01*
X94256752Y-97291118D01*
X94411253Y-97178866D01*
X94539040Y-97036944D01*
X94634527Y-96871556D01*
X94693542Y-96689928D01*
X94710907Y-96524706D01*
X94737920Y-96459050D01*
X94747122Y-96448782D01*
X95184905Y-96010999D01*
X95247217Y-95976973D01*
X95318032Y-95982038D01*
X95374868Y-96024585D01*
X95399679Y-96091105D01*
X95400000Y-96100094D01*
X95400000Y-99100000D01*
X95500000Y-99100000D01*
X95500000Y-95748094D01*
X95520002Y-95679973D01*
X95536905Y-95658999D01*
X96158999Y-95036905D01*
X96221311Y-95002879D01*
X96248094Y-95000000D01*
X96874000Y-95000000D01*
X96942121Y-95020002D01*
X96988614Y-95073658D01*
X97000000Y-95126000D01*
X97000000Y-96500000D01*
X102500000Y-96500000D01*
X102500000Y-93126000D01*
X102520002Y-93057879D01*
X102573658Y-93011386D01*
X102626000Y-93000000D01*
X103447810Y-93000000D01*
X103515931Y-93020002D01*
X103536905Y-93036905D01*
X105500000Y-95000000D01*
X106162575Y-95000000D01*
X106230696Y-95020002D01*
X106277189Y-95073658D01*
X106282408Y-95087065D01*
X106290470Y-95111877D01*
X106385957Y-95277265D01*
X106390375Y-95282172D01*
X106390376Y-95282173D01*
X106455800Y-95354834D01*
X106513744Y-95419187D01*
X106515201Y-95420245D01*
X106551504Y-95479175D01*
X106555953Y-95512362D01*
X106555953Y-95807208D01*
X106535951Y-95875329D01*
X106523595Y-95891511D01*
X106450413Y-95972788D01*
X106428352Y-96010999D01*
X106382103Y-96091105D01*
X106354926Y-96138176D01*
X106295911Y-96319804D01*
X106275949Y-96509732D01*
X106295911Y-96699660D01*
X106354926Y-96881288D01*
X106358229Y-96887010D01*
X106358230Y-96887011D01*
X106399619Y-96958698D01*
X106416500Y-97021698D01*
X106416500Y-101435405D01*
X106396498Y-101503526D01*
X106379587Y-101524509D01*
X106374491Y-101529604D01*
X106312175Y-101563623D01*
X106285404Y-101566500D01*
X105778763Y-101566500D01*
X105767579Y-101565973D01*
X105760091Y-101564299D01*
X105752168Y-101564548D01*
X105692033Y-101566438D01*
X105688075Y-101566500D01*
X105660144Y-101566500D01*
X105656229Y-101566995D01*
X105656225Y-101566995D01*
X105656167Y-101567003D01*
X105656138Y-101567006D01*
X105644300Y-101567939D01*
X105613457Y-101568908D01*
X105544742Y-101551055D01*
X105496587Y-101498886D01*
X105483500Y-101442970D01*
X105483500Y-96761999D01*
X105500381Y-96698999D01*
X105509408Y-96683365D01*
X105559527Y-96596556D01*
X105618542Y-96414928D01*
X105638504Y-96225000D01*
X105618542Y-96035072D01*
X105559527Y-95853444D01*
X105464040Y-95688056D01*
X105374509Y-95588621D01*
X105340675Y-95551045D01*
X105340674Y-95551044D01*
X105336253Y-95546134D01*
X105237157Y-95474136D01*
X105187094Y-95437763D01*
X105187093Y-95437762D01*
X105181752Y-95433882D01*
X105175724Y-95431198D01*
X105175722Y-95431197D01*
X105013319Y-95358891D01*
X105013318Y-95358891D01*
X105007288Y-95356206D01*
X104913888Y-95336353D01*
X104826944Y-95317872D01*
X104826939Y-95317872D01*
X104820487Y-95316500D01*
X104629513Y-95316500D01*
X104623061Y-95317872D01*
X104623056Y-95317872D01*
X104536113Y-95336353D01*
X104442712Y-95356206D01*
X104436682Y-95358891D01*
X104436681Y-95358891D01*
X104274278Y-95431197D01*
X104274276Y-95431198D01*
X104268248Y-95433882D01*
X104262907Y-95437762D01*
X104262906Y-95437763D01*
X104212843Y-95474136D01*
X104113747Y-95546134D01*
X104109326Y-95551044D01*
X104109325Y-95551045D01*
X104075492Y-95588621D01*
X103985960Y-95688056D01*
X103890473Y-95853444D01*
X103831458Y-96035072D01*
X103811496Y-96225000D01*
X103831458Y-96414928D01*
X103890473Y-96596556D01*
X103940593Y-96683365D01*
X103949619Y-96698999D01*
X103966500Y-96761999D01*
X103966500Y-97274000D01*
X103946498Y-97342121D01*
X103892842Y-97388614D01*
X103840500Y-97400000D01*
X100900000Y-97400000D01*
X100900000Y-97500000D01*
X103840500Y-97500000D01*
X103908621Y-97520002D01*
X103955114Y-97573658D01*
X103966500Y-97626000D01*
X103966500Y-102374000D01*
X103946498Y-102442121D01*
X103892842Y-102488614D01*
X103840500Y-102500000D01*
X100900000Y-102500000D01*
X100900000Y-102600000D01*
X103840500Y-102600000D01*
X103908621Y-102620002D01*
X103955114Y-102673658D01*
X103966500Y-102726000D01*
X103966500Y-106308629D01*
X103946498Y-106376750D01*
X103929595Y-106397724D01*
X103622724Y-106704595D01*
X103560412Y-106738621D01*
X103533629Y-106741500D01*
X100167165Y-106741500D01*
X100148217Y-106740067D01*
X100140876Y-106738950D01*
X100133979Y-106737901D01*
X100133977Y-106737901D01*
X100126747Y-106736801D01*
X100119455Y-106737394D01*
X100119452Y-106737394D01*
X100074078Y-106741085D01*
X100063863Y-106741500D01*
X100055803Y-106741500D01*
X100042513Y-106743049D01*
X100027589Y-106744789D01*
X100023214Y-106745222D01*
X99957757Y-106750546D01*
X99957754Y-106750547D01*
X99950459Y-106751140D01*
X99943495Y-106753396D01*
X99937536Y-106754587D01*
X99931681Y-106755971D01*
X99924415Y-106756818D01*
X99855769Y-106781735D01*
X99851641Y-106783152D01*
X99789160Y-106803393D01*
X99789158Y-106803394D01*
X99782197Y-106805649D01*
X99775942Y-106809445D01*
X99770468Y-106811951D01*
X99765038Y-106814670D01*
X99758159Y-106817167D01*
X99752039Y-106821180D01*
X99752038Y-106821180D01*
X99697120Y-106857186D01*
X99693416Y-106859523D01*
X99630989Y-106897405D01*
X99622612Y-106904803D01*
X99622588Y-106904776D01*
X99619597Y-106907428D01*
X99616363Y-106910132D01*
X99610244Y-106914144D01*
X99605211Y-106919457D01*
X99556985Y-106970365D01*
X99554608Y-106972807D01*
X99079032Y-107448383D01*
X99016720Y-107482409D01*
X98973382Y-107484196D01*
X98909445Y-107475722D01*
X98844543Y-107446943D01*
X98805503Y-107387644D01*
X98800000Y-107350814D01*
X98800000Y-104900000D01*
X98700000Y-104900000D01*
X98700000Y-107346468D01*
X98679998Y-107414589D01*
X98626342Y-107461082D01*
X98589352Y-107471529D01*
X98589174Y-107471551D01*
X98583842Y-107471751D01*
X98578623Y-107472846D01*
X98564916Y-107475722D01*
X98358209Y-107519093D01*
X98353250Y-107521051D01*
X98353248Y-107521052D01*
X98148744Y-107601815D01*
X98148742Y-107601816D01*
X98143779Y-107603776D01*
X98139220Y-107606543D01*
X98139217Y-107606544D01*
X98113336Y-107622249D01*
X97946683Y-107723377D01*
X97772555Y-107874477D01*
X97769168Y-107878608D01*
X97742994Y-107910529D01*
X97684334Y-107950524D01*
X97613364Y-107952455D01*
X97552616Y-107915710D01*
X97538416Y-107896941D01*
X97451937Y-107757193D01*
X97442901Y-107745792D01*
X97328171Y-107631261D01*
X97316760Y-107622249D01*
X97178757Y-107537184D01*
X97165576Y-107531037D01*
X97011290Y-107479862D01*
X96997914Y-107476995D01*
X96903562Y-107467328D01*
X96897145Y-107467000D01*
X96522115Y-107467000D01*
X96506876Y-107471475D01*
X96505671Y-107472865D01*
X96504000Y-107480548D01*
X96504000Y-108000000D01*
X95996000Y-108000000D01*
X95996000Y-107485116D01*
X95991525Y-107469877D01*
X95990135Y-107468672D01*
X95982452Y-107467001D01*
X95602905Y-107467001D01*
X95596386Y-107467338D01*
X95500794Y-107477257D01*
X95487400Y-107480149D01*
X95333216Y-107531588D01*
X95320038Y-107537761D01*
X95182193Y-107623063D01*
X95170792Y-107632099D01*
X95056261Y-107746829D01*
X95047249Y-107758240D01*
X94962184Y-107896243D01*
X94956037Y-107909423D01*
X94954628Y-107913672D01*
X94914195Y-107972030D01*
X94848630Y-107999265D01*
X94835036Y-108000000D01*
X93248095Y-108000000D01*
X93179974Y-107979998D01*
X93159000Y-107963095D01*
X92170405Y-106974500D01*
X92136379Y-106912188D01*
X92133500Y-106885405D01*
X92133500Y-106702524D01*
X92153502Y-106634403D01*
X92165858Y-106618221D01*
X92239040Y-106536944D01*
X92334527Y-106371556D01*
X92393542Y-106189928D01*
X92399043Y-106137595D01*
X92412814Y-106006565D01*
X92413504Y-106000000D01*
X92412570Y-105991118D01*
X92394232Y-105816635D01*
X92394232Y-105816633D01*
X92393542Y-105810072D01*
X92334527Y-105628444D01*
X92239040Y-105463056D01*
X92149400Y-105363500D01*
X92115675Y-105326045D01*
X92115674Y-105326044D01*
X92111253Y-105321134D01*
X92051938Y-105278039D01*
X92008585Y-105221818D01*
X92000000Y-105176104D01*
X92000000Y-104176000D01*
X92020002Y-104107879D01*
X92073658Y-104061386D01*
X92126000Y-104050000D01*
X95150000Y-104050000D01*
X95150000Y-103950000D01*
X92280871Y-103950000D01*
X92212750Y-103929998D01*
X92166257Y-103876342D01*
X92156153Y-103806068D01*
X92164462Y-103775783D01*
X92186732Y-103722017D01*
X92189783Y-103712627D01*
X92242885Y-103491446D01*
X92244428Y-103481699D01*
X92262275Y-103254930D01*
X92262275Y-103245070D01*
X92244428Y-103018301D01*
X92242885Y-103008554D01*
X92189783Y-102787373D01*
X92186734Y-102777988D01*
X92099688Y-102567839D01*
X92095207Y-102559045D01*
X92018567Y-102433980D01*
X92000000Y-102368145D01*
X92000000Y-100926000D01*
X92020002Y-100857879D01*
X92073658Y-100811386D01*
X92126000Y-100800000D01*
X95100000Y-100800000D01*
X95100000Y-100700000D01*
X92126000Y-100700000D01*
X92057879Y-100679998D01*
X92011386Y-100626342D01*
X92000000Y-100574000D01*
X92000000Y-97631855D01*
X92018567Y-97566020D01*
X92095207Y-97440955D01*
X92099688Y-97432161D01*
X92186734Y-97222012D01*
X92189783Y-97212627D01*
X92242885Y-96991446D01*
X92244428Y-96981699D01*
X92262275Y-96754930D01*
X92262275Y-96745070D01*
X92244428Y-96518301D01*
X92242885Y-96508554D01*
X92189783Y-96287373D01*
X92186734Y-96277988D01*
X92099688Y-96067839D01*
X92095207Y-96059045D01*
X92051449Y-95987638D01*
X92032911Y-95919104D01*
X92039348Y-95881958D01*
X92971282Y-93086155D01*
X93011799Y-93027856D01*
X93077404Y-93000716D01*
X93090816Y-93000000D01*
X94437000Y-93000000D01*
X94505121Y-93020002D01*
G37*
%TD.AperFunction*%
%TD*%
M02*
