%TF.GenerationSoftware,KiCad,Pcbnew,(6.0.5-0)*%
%TF.CreationDate,2022-06-29T15:59:16+01:00*%
%TF.ProjectId,PN532-Round,504e3533-322d-4526-9f75-6e642e6b6963,7*%
%TF.SameCoordinates,Original*%
%TF.FileFunction,Copper,L1,Top*%
%TF.FilePolarity,Positive*%
%FSLAX46Y46*%
G04 Gerber Fmt 4.6, Leading zero omitted, Abs format (unit mm)*
G04 Created by KiCad (PCBNEW (6.0.5-0)) date 2022-06-29 15:59:16*
%MOMM*%
%LPD*%
G01*
G04 APERTURE LIST*
G04 Aperture macros list*
%AMRoundRect*
0 Rectangle with rounded corners*
0 $1 Rounding radius*
0 $2 $3 $4 $5 $6 $7 $8 $9 X,Y pos of 4 corners*
0 Add a 4 corners polygon primitive as box body*
4,1,4,$2,$3,$4,$5,$6,$7,$8,$9,$2,$3,0*
0 Add four circle primitives for the rounded corners*
1,1,$1+$1,$2,$3*
1,1,$1+$1,$4,$5*
1,1,$1+$1,$6,$7*
1,1,$1+$1,$8,$9*
0 Add four rect primitives between the rounded corners*
20,1,$1+$1,$2,$3,$4,$5,0*
20,1,$1+$1,$4,$5,$6,$7,0*
20,1,$1+$1,$6,$7,$8,$9,0*
20,1,$1+$1,$8,$9,$2,$3,0*%
%AMOutline5P*
0 Free polygon, 5 corners , with rotation*
0 The origin of the aperture is its center*
0 number of corners: always 5*
0 $1 to $10 corner X, Y*
0 $11 Rotation angle, in degrees counterclockwise*
0 create outline with 5 corners*
4,1,5,$1,$2,$3,$4,$5,$6,$7,$8,$9,$10,$1,$2,$11*%
%AMOutline6P*
0 Free polygon, 6 corners , with rotation*
0 The origin of the aperture is its center*
0 number of corners: always 6*
0 $1 to $12 corner X, Y*
0 $13 Rotation angle, in degrees counterclockwise*
0 create outline with 6 corners*
4,1,6,$1,$2,$3,$4,$5,$6,$7,$8,$9,$10,$11,$12,$1,$2,$13*%
%AMOutline7P*
0 Free polygon, 7 corners , with rotation*
0 The origin of the aperture is its center*
0 number of corners: always 7*
0 $1 to $14 corner X, Y*
0 $15 Rotation angle, in degrees counterclockwise*
0 create outline with 7 corners*
4,1,7,$1,$2,$3,$4,$5,$6,$7,$8,$9,$10,$11,$12,$13,$14,$1,$2,$15*%
%AMOutline8P*
0 Free polygon, 8 corners , with rotation*
0 The origin of the aperture is its center*
0 number of corners: always 8*
0 $1 to $16 corner X, Y*
0 $17 Rotation angle, in degrees counterclockwise*
0 create outline with 8 corners*
4,1,8,$1,$2,$3,$4,$5,$6,$7,$8,$9,$10,$11,$12,$13,$14,$15,$16,$1,$2,$17*%
%AMFreePoly0*
4,1,31,0.495671,0.780970,0.576777,0.726777,0.630970,0.645671,0.650000,0.550000,0.630970,0.454329,0.576777,0.373223,0.495671,0.319030,0.400000,0.300000,0.250000,0.300000,0.250000,-0.300000,0.400000,-0.300000,0.495671,-0.319030,0.576777,-0.373223,0.630970,-0.454329,0.650000,-0.550000,0.630970,-0.645671,0.576777,-0.726777,0.495671,-0.780970,0.400000,-0.800000,0.000000,-0.800000,
-0.095671,-0.780970,-0.176777,-0.726777,-0.230970,-0.645671,-0.250000,-0.550000,-0.250000,0.550000,-0.230970,0.645671,-0.176777,0.726777,-0.095671,0.780970,0.000000,0.800000,0.400000,0.800000,0.495671,0.780970,0.495671,0.780970,$1*%
%AMFreePoly1*
4,1,22,0.550000,-0.750000,0.000000,-0.750000,0.000000,-0.745033,-0.079941,-0.743568,-0.215256,-0.701293,-0.333266,-0.622738,-0.424486,-0.514219,-0.481581,-0.384460,-0.499164,-0.250000,-0.500000,-0.250000,-0.500000,0.250000,-0.499164,0.250000,-0.499963,0.256109,-0.478152,0.396186,-0.417904,0.524511,-0.324060,0.630769,-0.204165,0.706417,-0.067858,0.745374,0.000000,0.744959,0.000000,0.750000,
0.550000,0.750000,0.550000,-0.750000,0.550000,-0.750000,$1*%
%AMFreePoly2*
4,1,20,0.000000,0.744959,0.073905,0.744508,0.209726,0.703889,0.328688,0.626782,0.421226,0.519385,0.479903,0.390333,0.500000,0.250000,0.500000,-0.250000,0.499851,-0.262216,0.476331,-0.402017,0.414519,-0.529596,0.319384,-0.634700,0.198574,-0.708877,0.061801,-0.746166,0.000000,-0.745033,0.000000,-0.750000,-0.550000,-0.750000,-0.550000,0.750000,0.000000,0.750000,0.000000,0.744959,
0.000000,0.744959,$1*%
%AMFreePoly3*
4,1,815,0.044070,0.241234,0.083758,0.235335,0.088736,0.232350,0.095671,0.230970,0.136316,0.203812,0.167411,0.185162,0.170533,0.180949,0.176777,0.176777,0.205614,0.133619,0.225495,0.106796,0.226667,0.102111,0.230970,0.095671,0.241417,0.043152,0.249168,0.012167,0.248489,0.007597,0.250000,0.000000,0.239554,-0.052518,0.234827,-0.084318,0.232435,-0.088306,0.230970,-0.095671,
0.202130,-0.138833,0.184654,-0.167971,0.180705,-0.170898,0.176777,-0.176777,0.136132,-0.203935,0.106288,-0.226055,0.101075,-0.227359,0.095671,-0.230970,0.051598,-0.239737,0.011659,-0.249728,0.005769,-0.248853,0.000000,-0.250000,-0.001367,-0.249728,-0.014786,-0.247059,-0.885519,-0.307115,-1.779273,-0.404927,-2.668382,-0.538528,-3.551413,-0.707702,-4.426943,-0.912179,-5.293562,-1.151627,
-6.149873,-1.425661,-6.994497,-1.733839,-7.826073,-2.075666,-8.643261,-2.450589,-9.444744,-2.858006,-10.211363,-3.287255,-10.226962,-3.301127,-10.227254,-3.301228,-10.227476,-3.301426,-10.247374,-3.308334,-10.995778,-3.767846,-11.742230,-4.268631,-12.467913,-4.799067,-13.171649,-5.358293,-13.852296,-5.945402,-14.508751,-6.559442,-15.139949,-7.199416,-15.744865,-7.864288,-16.322519,-8.552977,-16.871974,-9.264368,
-17.392339,-9.997306,-17.882769,-10.750603,-18.331903,-11.505283,-18.338535,-11.525272,-18.338728,-11.525495,-18.338823,-11.525781,-18.352544,-11.541647,-18.769347,-12.310931,-19.163902,-13.114847,-19.525767,-13.933998,-19.854355,-14.767056,-20.149132,-15.612669,-20.409621,-16.469465,-20.635399,-17.336056,-20.826100,-18.211035,-20.981414,-19.092983,-21.101089,-19.980469,-21.184932,-20.872055,-21.232807,-21.766294,-21.244363,-22.641153,
-21.240127,-22.661704,-21.243891,-22.681338,-21.239818,-22.700923,-21.243672,-22.721220,-21.218675,-23.589782,-21.157445,-24.476859,-21.060665,-25.360765,-20.928491,-26.240075,-20.761134,-27.113372,-20.558865,-27.979249,-20.322010,-28.836311,-20.050950,-29.683177,-19.746123,-30.518483,-19.408019,-31.340883,-19.037182,-32.149052,-18.634211,-32.941687,-18.209651,-33.699839,-18.195930,-33.715267,-18.189392,-33.734096,-18.176128,-33.748957,
-18.169347,-33.768374,-17.715107,-34.505290,-17.220391,-35.240118,-16.696584,-35.954501,-16.144529,-36.647287,-15.565116,-37.317360,-14.959279,-37.963640,-14.327993,-38.585086,-13.672277,-39.180697,-12.993185,-39.749513,-12.291813,-40.290618,-11.569291,-40.803139,-10.826782,-41.286252,-10.082827,-41.728859,-10.063302,-41.735335,-10.063078,-41.735528,-10.062796,-41.735622,-10.047100,-41.749193,-9.286442,-42.161245,-8.491536,-42.551302,
-7.681568,-42.909034,-6.857853,-43.233863,-6.021726,-43.525260,-5.174544,-43.782753,-4.317681,-44.005925,-3.452526,-44.194414,-2.580484,-44.347913,-1.702968,-44.466174,-0.821401,-44.549006,0.062785,-44.596273,0.927809,-44.607632,0.948127,-44.603442,0.967559,-44.607166,0.986928,-44.603136,1.006979,-44.606941,1.865751,-44.582158,2.742810,-44.521551,3.616729,-44.425795,4.486102,-44.295043,5.349527,-44.129508,
6.205614,-43.929455,7.052982,-43.695207,7.890267,-43.427142,8.716119,-43.125690,9.529208,-42.791339,10.328224,-42.424626,11.111880,-42.026143,11.861438,-41.606318,11.876693,-41.592749,11.895319,-41.586280,11.910021,-41.573156,11.929218,-41.566450,12.657747,-41.117299,13.384210,-40.628132,14.090456,-40.110204,14.775348,-39.564351,15.437782,-38.991451,16.076691,-38.392428,16.691046,-37.768248,17.279856,-37.119915,
17.842173,-36.448474,18.377091,-35.755007,18.883748,-35.040632,19.361327,-34.306499,19.798861,-33.570938,19.805262,-33.551635,19.818108,-33.536777,19.824253,-33.518134,19.837474,-33.502787,20.242251,-32.752413,20.625313,-31.968545,20.976608,-31.169936,21.295571,-30.357872,21.581687,-29.533661,21.834495,-28.698633,22.053589,-27.854131,22.238614,-27.001517,22.389274,-26.142165,22.505325,-25.277458,22.586580,-24.408791,
22.632909,-23.537563,22.643978,-22.685049,22.639885,-22.665208,22.643566,-22.645991,22.639579,-22.626835,22.643340,-22.607008,22.618772,-21.758048,22.558787,-20.891007,22.464054,-20.027073,22.334727,-19.167636,22.171012,-18.314082,21.973176,-17.467786,21.741535,-16.630111,21.476463,-15.802407,21.178387,-14.986008,20.847788,-14.182228,20.485199,-13.392364,20.091203,-12.617687,19.676112,-11.876720,19.662696,-11.861640,
19.656301,-11.843231,19.643318,-11.828690,19.636687,-11.809711,19.192626,-11.089570,18.709007,-10.371471,18.196958,-9.673360,17.657306,-8.996360,17.090919,-8.341564,16.498710,-7.710024,15.881634,-7.102760,15.240684,-6.520750,14.576893,-5.964930,13.891331,-5.436198,13.185102,-4.935405,12.459344,-4.463357,11.732178,-4.030896,11.713095,-4.024570,11.698401,-4.011869,11.679959,-4.005791,11.664789,-3.992725,
10.923014,-3.592664,10.148134,-3.214073,9.358684,-2.866884,8.555938,-2.551656,7.741187,-2.268899,6.915745,-2.019066,6.080942,-1.802562,5.238123,-1.619734,4.388645,-1.470877,3.533878,-1.356231,2.675198,-1.275981,1.813990,-1.230256,0.971283,-1.219382,0.951671,-1.223430,0.951369,-1.223372,0.951064,-1.223435,0.931223,-1.219637,0.089405,-1.242654,-0.770575,-1.300888,-1.627513,-1.393703,
-2.480019,-1.520948,-3.326710,-1.682417,-4.166213,-1.877847,-4.997165,-2.106923,-5.818220,-2.369271,-6.628045,-2.664468,-7.425326,-2.992033,-8.208772,-3.351436,-8.977111,-3.742094,-9.711810,-4.153689,-9.726899,-4.167115,-9.745107,-4.173442,-9.759487,-4.186283,-9.778257,-4.192843,-10.490002,-4.631808,-11.199735,-5.109879,-11.889710,-5.616049,-12.558815,-6.149500,-13.205973,-6.709374,-13.830141,-7.294769,
-14.430314,-7.904741,-15.005523,-8.538308,-15.554843,-9.194449,-16.077389,-9.872106,-16.572317,-10.570187,-17.038832,-11.287569,-17.466218,-12.006338,-17.472470,-12.025202,-17.485025,-12.039729,-17.491033,-12.057965,-17.503945,-12.072958,-17.899289,-12.806135,-18.273410,-13.572028,-18.616493,-14.352318,-18.927985,-15.145748,-19.207385,-15.951040,-19.454241,-16.766896,-19.668157,-17.592001,-19.848788,-18.425026,-19.995843,-19.264630,
-20.109084,-20.109458,-20.188329,-20.958150,-20.233451,-21.809340,-20.244128,-22.642247,-20.240128,-22.661623,-20.240186,-22.661926,-20.240123,-22.662231,-20.243872,-22.681825,-20.221054,-23.513821,-20.163429,-24.363749,-20.071627,-25.210668,-19.945798,-26.053203,-19.786146,-26.889989,-19.592929,-27.719667,-19.366461,-28.540892,-19.107109,-29.352332,-18.815294,-30.152672,-18.491489,-30.940612,-18.136220,-31.714874,-17.750063,-32.474204,
-17.343215,-33.200287,-17.329946,-33.215197,-17.323691,-33.233193,-17.310994,-33.247409,-17.304515,-33.265943,-16.870632,-33.969316,-16.398108,-34.670685,-15.897818,-35.352524,-15.370568,-36.013737,-14.817206,-36.653258,-14.238626,-37.270056,-13.635758,-37.863138,-13.009575,-38.431548,-12.361084,-38.974370,-11.691332,-39.490730,-11.001397,-39.979795,-10.292390,-40.440778,-9.582010,-40.863094,-9.563373,-40.869269,-9.549014,-40.881677,
-9.530982,-40.887616,-9.516160,-40.900378,-8.791588,-41.291002,-8.034682,-41.660653,-7.263551,-41.999630,-6.479437,-42.307387,-5.683605,-42.583428,-4.877335,-42.827309,-4.061928,-43.038636,-3.238697,-43.217070,-2.408968,-43.362322,-1.574078,-43.474158,-0.735373,-43.552399,0.105797,-43.596918,0.928892,-43.607399,0.948044,-43.603443,0.948374,-43.603506,0.948679,-43.603443,0.968050,-43.607148,1.790199,-43.584527,
2.630073,-43.527510,3.466970,-43.436721,4.299533,-43.312307,5.126411,-43.154470,5.946263,-42.963466,6.757759,-42.739605,7.559582,-42.483250,8.350434,-42.194817,9.129029,-41.874773,9.894107,-41.523637,10.644425,-41.141980,11.361890,-40.739878,11.376621,-40.726767,11.394419,-40.720579,11.408469,-40.708028,11.426790,-40.701622,12.121771,-40.272831,12.814773,-39.805856,13.488477,-39.311445,14.141797,-38.790395,
14.773679,-38.243547,15.383106,-37.671780,15.969097,-37.076017,16.530706,-36.457217,17.067029,-35.816377,17.577203,-35.154529,18.060404,-34.472741,18.515854,-33.772110,18.933093,-33.070130,18.939195,-33.051708,18.939406,-33.051464,18.939506,-33.051162,18.952304,-33.036348,19.340619,-32.318792,19.708179,-31.568937,20.045248,-30.804890,20.351278,-30.027891,20.625773,-29.239199,20.868288,-28.440094,21.078430,-27.631872,
21.255857,-26.815844,21.400283,-25.993334,21.511472,-25.165675,21.589245,-24.334210,21.633475,-23.500288,21.643846,-22.684456,21.639886,-22.665293,21.639946,-22.664979,21.639881,-22.664665,21.643542,-22.645513,21.621122,-21.833213,21.564714,-21.003391,21.474939,-20.176512,21.351941,-19.353920,21.195920,-18.536947,21.007130,-17.726919,20.785877,-16.925150,20.532519,-16.132940,20.247467,-15.351574,19.931184,-14.582319,
19.584183,-13.826424,19.207026,-13.085115,18.809676,-12.376273,18.796715,-12.361714,18.790598,-12.344125,18.778197,-12.330245,18.771868,-12.312152,18.348163,-11.625549,17.886735,-10.940910,17.398204,-10.275341,16.883355,-9.629914,16.343019,-9.005669,15.778066,-8.403611,15.189407,-7.824711,14.577989,-7.269901,13.944798,-6.740076,13.290855,-6.236088,12.617213,-5.758750,11.924957,-5.308832,11.231369,-4.896664,
11.213170,-4.890638,11.212985,-4.890479,11.212751,-4.890401,11.198296,-4.877917,10.491230,-4.495359,9.752556,-4.133237,8.999946,-3.801052,8.234610,-3.499337,7.457782,-3.228580,6.670715,-2.989217,5.874675,-2.781633,5.070946,-2.606163,4.260823,-2.463089,3.464176,-2.355157,3.445141,-2.356717,3.352273,-2.326873,3.277896,-2.263762,3.233332,-2.176991,3.225366,-2.079772,3.255210,-1.986904,
3.318321,-1.912527,3.405092,-1.867963,3.502311,-1.859997,4.337249,-1.973117,5.166974,-2.119652,5.990150,-2.299368,6.805451,-2.511975,7.611563,-2.757130,8.407187,-3.034438,9.191040,-3.343453,9.961861,-3.683676,10.718408,-4.054560,11.459461,-4.455505,11.459664,-4.455681,11.459924,-4.455768,12.186787,-4.887710,12.895733,-5.348475,13.585616,-5.837321,14.255325,-6.353459,14.903781,-6.896058,
15.529939,-7.464244,16.132790,-8.057101,16.711364,-8.673673,17.264727,-9.312968,17.791988,-9.973956,18.292297,-10.655571,18.764849,-11.356715,19.208883,-12.076259,19.215179,-12.094257,19.227851,-12.108492,19.644315,-12.851433,20.030527,-13.610540,20.385859,-14.384582,20.709735,-15.172305,21.001631,-15.972430,21.261071,-16.783659,21.487637,-17.604677,21.680959,-18.434152,21.840726,-19.270739,21.966676,-20.113081,
22.058607,-20.959811,22.116369,-21.809555,22.139867,-22.660937,22.139806,-22.661258,22.139872,-22.661579,22.129002,-23.516572,22.083715,-24.370434,22.004083,-25.221780,21.890235,-26.069228,21.742356,-26.911406,21.560686,-27.746946,21.345519,-28.574493,21.097206,-29.392705,20.816147,-30.200255,20.502800,-30.995833,20.157672,-31.778148,19.781323,-32.545932,19.374364,-33.297940,19.374146,-33.298192,19.374045,-33.298498,
18.936910,-34.033951,18.470612,-34.751269,17.975903,-35.449296,17.453579,-36.126906,16.904482,-36.783009,16.329497,-37.416547,15.729551,-38.026500,15.105608,-38.611884,14.458677,-39.171757,13.789797,-39.705216,13.100048,-40.211402,12.390540,-40.689499,11.662417,-41.138738,11.644208,-41.145105,11.629805,-41.157925,10.878045,-41.579246,10.109931,-41.969956,9.326707,-42.329419,8.529644,-42.657054,7.720035,-42.952329,
6.899193,-43.214764,6.068450,-43.443935,5.229152,-43.639469,4.382662,-43.801050,3.530352,-43.928415,2.673605,-44.021357,1.813811,-44.079727,0.952363,-44.103429,0.952026,-44.103365,0.951714,-44.103429,0.089535,-44.092450,-0.771508,-44.046879,-1.630028,-43.966790,-2.484643,-43.852311,-3.333975,-43.703628,-4.176656,-43.520979,-5.011329,-43.304658,-5.836647,-43.055016,-6.651282,-42.772453,-7.453921,-42.457424,
-8.243270,-42.110439,-9.018059,-41.732054,-9.777038,-41.322882,-9.791758,-41.310208,-9.810201,-41.304097,-10.554242,-40.861769,-11.279933,-40.389939,-11.986104,-39.889365,-12.671616,-39.360854,-13.335367,-38.805258,-13.976285,-38.223473,-14.593340,-37.616435,-15.185535,-36.985122,-15.751918,-36.330552,-16.291576,-35.653780,-16.803638,-34.955895,-17.287281,-34.238022,-17.741726,-33.501319,-17.748161,-33.482911,-17.761126,-33.468343,
-18.187304,-32.707762,-18.582512,-31.930637,-18.946107,-31.138229,-19.277500,-30.331823,-19.576153,-29.512728,-19.841583,-28.682271,-20.073359,-27.841800,-20.271104,-26.992677,-20.434498,-26.136281,-20.563276,-25.274001,-20.657229,-24.407234,-20.716205,-23.537387,-20.740107,-22.665882,-20.740109,-22.665871,-20.740050,-22.665561,-20.740114,-22.665249,-20.740113,-22.665243,-20.728932,-21.793037,-20.682757,-20.921977,-20.601661,-20.053471,
-20.485777,-19.188920,-20.335289,-18.329716,-20.150441,-17.477243,-19.931531,-16.632875,-19.678912,-15.797973,-19.392989,-14.973881,-19.074225,-14.161928,-18.723133,-13.363422,-18.340277,-12.579649,-17.926277,-11.811871,-17.913458,-11.796986,-17.907278,-11.778338,-17.459759,-11.025708,-16.982396,-10.291645,-16.475958,-9.577330,-15.941262,-8.883915,-15.379168,-8.212517,-14.790583,-7.564218,-14.176455,-6.940062,-13.537773,-6.341055,
-12.875566,-5.768161,-12.190901,-5.222305,-11.484882,-4.704366,-10.758646,-4.215177,-10.013363,-3.755528,-10.013361,-3.755531,-9.994745,-3.749025,-9.980009,-3.735913,-9.210608,-3.304878,-8.424475,-2.905173,-7.622885,-2.537446,-6.807139,-2.202295,-5.978559,-1.900262,-5.138489,-1.631837,-4.288292,-1.397456,-3.429347,-1.197500,-2.563048,-1.032292,-1.690798,-0.902100,-0.814014,-0.807135,0.065883,-0.747553,
0.947466,-0.723447,0.947776,-0.723506,0.948087,-0.723442,0.948093,-0.723443,1.830332,-0.734826,2.711409,-0.781606,3.589900,-0.863708,4.464388,-0.980999,5.333464,-1.133290,6.195728,-1.320336,7.049792,-1.541836,7.894278,-1.797432,8.727826,-2.086713,9.549093,-2.409213,10.356756,-2.764413,11.149514,-3.151738,11.926089,-3.570567,11.941140,-3.583531,11.959997,-3.589782,11.960003,-3.589787,
12.721214,-4.042495,13.463651,-4.525391,14.186110,-5.037693,14.887427,-5.578577,15.566473,-6.147170,16.222153,-6.742556,16.853411,-7.363776,17.459229,-8.009829,18.038633,-8.679674,18.590687,-9.372232,19.114503,-10.086387,19.609237,-10.820988,20.074092,-11.574852,20.080667,-11.593669,20.093920,-11.608566,20.093922,-11.608571,20.528411,-12.384165,20.931427,-13.176575,21.302317,-13.984522,21.640484,-14.806701,
21.945383,-15.641790,22.216523,-16.488442,22.453466,-17.345293,22.655832,-18.210963,22.823294,-19.084057,22.955582,-19.963168,23.052484,-20.846880,23.113842,-21.733768,23.139559,-22.622405,23.135830,-22.642064,23.139873,-22.661664,23.128287,-23.553943,23.080902,-24.445039,22.997794,-25.333515,22.879096,-26.217940,22.725001,-27.096889,22.535756,-27.968945,22.311666,-28.832705,22.053093,-29.686775,21.760453,-30.529781,
21.434217,-31.360363,21.074911,-32.177183,20.683114,-32.978926,20.259457,-33.764300,20.246349,-33.779516,20.240030,-33.798571,20.240027,-33.798575,19.782126,-34.568377,19.293698,-35.319186,18.775532,-36.049789,18.228463,-36.759008,17.653372,-37.445701,17.051187,-38.108762,16.422877,-38.747121,15.769454,-39.359751,15.091972,-39.945665,14.391522,-40.503918,13.669233,-41.033610,12.926268,-41.533890,12.163825,-42.003950,
12.144792,-42.010598,12.129733,-42.023993,12.129728,-42.023995,11.345343,-42.463326,10.543955,-42.870826,9.726858,-43.245837,8.895370,-43.587754,8.050830,-43.896027,7.194598,-44.170159,6.328055,-44.409707,5.452597,-44.614287,4.569634,-44.783568,3.680588,-44.917278,2.786893,-45.015202,1.889988,-45.077180,0.991318,-45.103116,0.971445,-45.099344,0.951631,-45.103430,0.951625,-45.103429,0.046302,-45.091541,
-0.857813,-45.043208,-1.759250,-44.958510,-2.656545,-44.837583,-3.548242,-44.680624,-4.432897,-44.487887,-5.309073,-44.259685,-6.175350,-43.996388,-7.030323,-43.698422,-7.872604,-43.366273,-8.700828,-43.000477,-9.513651,-42.601629,-10.309749,-42.170378,-10.309756,-42.170376,-10.309985,-42.170178,-10.310272,-42.170083,-11.088667,-41.706987,-11.847849,-41.213025,-12.586597,-40.688995,-13.303719,-40.135739,-13.998060,-39.554149,
-14.668501,-38.945163,-15.313963,-38.309762,-15.933405,-37.648969,-16.525829,-36.963849,-17.090281,-36.255506,-17.625851,-35.525081,-18.131676,-34.773751,-18.606942,-34.002727,-18.613659,-33.983491,-18.627194,-33.968273,-18.627196,-33.968268,-19.071369,-33.175092,-19.483354,-32.364725,-19.862487,-31.538477,-20.208155,-30.697680,-20.519801,-29.843687,-20.796925,-28.977876,-21.039079,-28.101641,-21.245872,-27.216393,-21.416973,-26.323560,
-21.552104,-25.424579,-21.651050,-24.520899,-21.713649,-23.613977,-21.739800,-22.705273,-21.735987,-22.685193,-21.740115,-22.665168,-21.740114,-22.665162,-21.728022,-21.749774,-21.679081,-20.835608,-21.593370,-19.924154,-21.471027,-19.016891,-21.312252,-18.115290,-21.117302,-17.220814,-20.886493,-16.334912,-20.620200,-15.459023,-20.318854,-14.594567,-19.982944,-13.742946,-19.613015,-12.905541,-19.209668,-12.083711,-18.773561,-11.278799,
-18.773557,-11.278787,-18.773359,-11.278558,-18.773263,-11.278268,-18.337973,-10.544452,-17.875549,-9.827425,-17.386639,-9.128190,-16.871925,-8.447724,-16.332127,-7.786981,-15.768001,-7.146883,-15.180336,-6.528326,-14.569952,-5.932175,-13.937705,-5.359263,-13.284479,-4.810393,-12.611186,-4.286332,-11.918768,-3.787813,-11.208195,-3.315532,-10.480460,-2.870150,-10.480168,-2.870049,-10.479943,-2.869850,-9.740417,-2.454270,
-8.986001,-2.066371,-8.217733,-1.706686,-7.436667,-1.375710,-6.643875,-1.073896,-5.840447,-0.801660,-5.027485,-0.559374,-4.206105,-0.347372,-3.377436,-0.165944,-2.542614,-0.015340,-1.702785,0.104234,-0.859104,0.192613,-0.012727,0.249676,-0.006375,0.248732,0.000000,0.250000,0.044070,0.241234,0.044070,0.241234,$1*%
G04 Aperture macros list end*
%ADD10C,0.100000*%
%TA.AperFunction,NonConductor*%
%ADD11C,0.100000*%
%TD*%
%TA.AperFunction,EtchedComponent*%
%ADD12C,0.080000*%
%TD*%
%TA.AperFunction,EtchedComponent*%
%ADD13C,0.250000*%
%TD*%
%TA.AperFunction,SMDPad,CuDef*%
%ADD14R,1.150000X1.900000*%
%TD*%
%TA.AperFunction,ComponentPad*%
%ADD15C,1.820000*%
%TD*%
%TA.AperFunction,SMDPad,CuDef*%
%ADD16FreePoly0,90.000000*%
%TD*%
%TA.AperFunction,SMDPad,CuDef*%
%ADD17FreePoly0,270.000000*%
%TD*%
%TA.AperFunction,SMDPad,CuDef*%
%ADD18R,1.300000X2.000000*%
%TD*%
%TA.AperFunction,SMDPad,CuDef*%
%ADD19RoundRect,0.200000X-0.200000X-0.275000X0.200000X-0.275000X0.200000X0.275000X-0.200000X0.275000X0*%
%TD*%
%TA.AperFunction,SMDPad,CuDef*%
%ADD20RoundRect,0.200000X0.275000X-0.200000X0.275000X0.200000X-0.275000X0.200000X-0.275000X-0.200000X0*%
%TD*%
%TA.AperFunction,SMDPad,CuDef*%
%ADD21RoundRect,0.200000X-0.275000X0.200000X-0.275000X-0.200000X0.275000X-0.200000X0.275000X0.200000X0*%
%TD*%
%TA.AperFunction,SMDPad,CuDef*%
%ADD22RoundRect,0.062500X-0.062500X0.287500X-0.062500X-0.287500X0.062500X-0.287500X0.062500X0.287500X0*%
%TD*%
%TA.AperFunction,SMDPad,CuDef*%
%ADD23RoundRect,0.062500X-0.287500X0.062500X-0.287500X-0.062500X0.287500X-0.062500X0.287500X0.062500X0*%
%TD*%
%TA.AperFunction,SMDPad,CuDef*%
%ADD24Outline5P,-2.200000X1.804000X-1.804000X2.200000X2.200000X2.200000X2.200000X-2.200000X-2.200000X-2.200000X270.000000*%
%TD*%
%TA.AperFunction,SMDPad,CuDef*%
%ADD25RoundRect,0.200000X0.200000X0.275000X-0.200000X0.275000X-0.200000X-0.275000X0.200000X-0.275000X0*%
%TD*%
%TA.AperFunction,SMDPad,CuDef*%
%ADD26R,2.510000X1.000000*%
%TD*%
%TA.AperFunction,SMDPad,CuDef*%
%ADD27R,1.000000X2.510000*%
%TD*%
%TA.AperFunction,SMDPad,CuDef*%
%ADD28FreePoly1,0.000000*%
%TD*%
%TA.AperFunction,SMDPad,CuDef*%
%ADD29R,1.000000X1.500000*%
%TD*%
%TA.AperFunction,SMDPad,CuDef*%
%ADD30FreePoly2,0.000000*%
%TD*%
%TA.AperFunction,SMDPad,CuDef*%
%ADD31RoundRect,0.242760X0.321734X-0.699668X0.699668X-0.321734X-0.321734X0.699668X-0.699668X0.321734X0*%
%TD*%
%TA.AperFunction,SMDPad,CuDef*%
%ADD32RoundRect,0.166600X0.636396X-0.895763X0.895763X-0.636396X-0.636396X0.895763X-0.895763X0.636396X0*%
%TD*%
%TA.AperFunction,SMDPad,CuDef*%
%ADD33RoundRect,0.166600X-0.895763X-0.636396X-0.636396X-0.895763X0.895763X0.636396X0.636396X0.895763X0*%
%TD*%
%TA.AperFunction,SMDPad,CuDef*%
%ADD34RoundRect,0.242760X-0.699668X-0.321734X-0.321734X-0.699668X0.699668X0.321734X0.321734X0.699668X0*%
%TD*%
%TA.AperFunction,SMDPad,CuDef*%
%ADD35R,0.650000X0.400000*%
%TD*%
%TA.AperFunction,SMDPad,CuDef*%
%ADD36R,0.200000X0.800000*%
%TD*%
%TA.AperFunction,SMDPad,CuDef*%
%ADD37R,1.000000X0.200000*%
%TD*%
%TA.AperFunction,SMDPad,CuDef*%
%ADD38R,1.400000X0.200000*%
%TD*%
%TA.AperFunction,SMDPad,CuDef*%
%ADD39R,0.200000X0.600000*%
%TD*%
%TA.AperFunction,SMDPad,CuDef*%
%ADD40R,0.200000X0.200000*%
%TD*%
%TA.AperFunction,SMDPad,CuDef*%
%ADD41R,0.600000X0.200000*%
%TD*%
%TA.AperFunction,SMDPad,CuDef*%
%ADD42R,0.600000X0.600000*%
%TD*%
%TA.AperFunction,SMDPad,CuDef*%
%ADD43R,0.400000X0.600000*%
%TD*%
%TA.AperFunction,SMDPad,CuDef*%
%ADD44R,0.400000X0.200000*%
%TD*%
%TA.AperFunction,SMDPad,CuDef*%
%ADD45R,0.200000X1.200000*%
%TD*%
%TA.AperFunction,SMDPad,CuDef*%
%ADD46R,0.200000X0.400000*%
%TD*%
%TA.AperFunction,SMDPad,CuDef*%
%ADD47R,0.800000X0.200000*%
%TD*%
%TA.AperFunction,SMDPad,CuDef*%
%ADD48R,1.250000X0.500000*%
%TD*%
%TA.AperFunction,ComponentPad*%
%ADD49C,0.500000*%
%TD*%
%TA.AperFunction,SMDPad,CuDef*%
%ADD50R,1.899759X0.500000*%
%TD*%
%TA.AperFunction,SMDPad,CuDef*%
%ADD51FreePoly3,0.000000*%
%TD*%
%TA.AperFunction,SMDPad,CuDef*%
%ADD52R,1.000000X0.500000*%
%TD*%
%TA.AperFunction,SMDPad,CuDef*%
%ADD53R,1.400000X0.500000*%
%TD*%
%TA.AperFunction,ViaPad*%
%ADD54C,0.800000*%
%TD*%
%TA.AperFunction,Conductor*%
%ADD55C,0.500000*%
%TD*%
%TA.AperFunction,Conductor*%
%ADD56C,0.250000*%
%TD*%
G04 APERTURE END LIST*
D10*
%TO.C,U2*%
D11*
X97571428Y-115873809D02*
X97595238Y-115850000D01*
X97642857Y-115826190D01*
X97761904Y-115826190D01*
X97809523Y-115850000D01*
X97833333Y-115873809D01*
X97857142Y-115921428D01*
X97857142Y-115969047D01*
X97833333Y-116040476D01*
X97547619Y-116326190D01*
X97857142Y-116326190D01*
X98166666Y-115826190D02*
X98214285Y-115826190D01*
X98261904Y-115850000D01*
X98285714Y-115873809D01*
X98309523Y-115921428D01*
X98333333Y-116016666D01*
X98333333Y-116135714D01*
X98309523Y-116230952D01*
X98285714Y-116278571D01*
X98261904Y-116302380D01*
X98214285Y-116326190D01*
X98166666Y-116326190D01*
X98119047Y-116302380D01*
X98095238Y-116278571D01*
X98071428Y-116230952D01*
X98047619Y-116135714D01*
X98047619Y-116016666D01*
X98071428Y-115921428D01*
X98095238Y-115873809D01*
X98119047Y-115850000D01*
X98166666Y-115826190D01*
X98523809Y-115873809D02*
X98547619Y-115850000D01*
X98595238Y-115826190D01*
X98714285Y-115826190D01*
X98761904Y-115850000D01*
X98785714Y-115873809D01*
X98809523Y-115921428D01*
X98809523Y-115969047D01*
X98785714Y-116040476D01*
X98500000Y-116326190D01*
X98809523Y-116326190D01*
X99000000Y-115873809D02*
X99023809Y-115850000D01*
X99071428Y-115826190D01*
X99190476Y-115826190D01*
X99238095Y-115850000D01*
X99261904Y-115873809D01*
X99285714Y-115921428D01*
X99285714Y-115969047D01*
X99261904Y-116040476D01*
X98976190Y-116326190D01*
X99285714Y-116326190D01*
X99500000Y-116135714D02*
X99880952Y-116135714D01*
X100214285Y-115826190D02*
X100261904Y-115826190D01*
X100309523Y-115850000D01*
X100333333Y-115873809D01*
X100357142Y-115921428D01*
X100380952Y-116016666D01*
X100380952Y-116135714D01*
X100357142Y-116230952D01*
X100333333Y-116278571D01*
X100309523Y-116302380D01*
X100261904Y-116326190D01*
X100214285Y-116326190D01*
X100166666Y-116302380D01*
X100142857Y-116278571D01*
X100119047Y-116230952D01*
X100095238Y-116135714D01*
X100095238Y-116016666D01*
X100119047Y-115921428D01*
X100142857Y-115873809D01*
X100166666Y-115850000D01*
X100214285Y-115826190D01*
X100809523Y-115826190D02*
X100714285Y-115826190D01*
X100666666Y-115850000D01*
X100642857Y-115873809D01*
X100595238Y-115945238D01*
X100571428Y-116040476D01*
X100571428Y-116230952D01*
X100595238Y-116278571D01*
X100619047Y-116302380D01*
X100666666Y-116326190D01*
X100761904Y-116326190D01*
X100809523Y-116302380D01*
X100833333Y-116278571D01*
X100857142Y-116230952D01*
X100857142Y-116111904D01*
X100833333Y-116064285D01*
X100809523Y-116040476D01*
X100761904Y-116016666D01*
X100666666Y-116016666D01*
X100619047Y-116040476D01*
X100595238Y-116064285D01*
X100571428Y-116111904D01*
X101071428Y-116135714D02*
X101452380Y-116135714D01*
X101666666Y-115873809D02*
X101690476Y-115850000D01*
X101738095Y-115826190D01*
X101857142Y-115826190D01*
X101904761Y-115850000D01*
X101928571Y-115873809D01*
X101952380Y-115921428D01*
X101952380Y-115969047D01*
X101928571Y-116040476D01*
X101642857Y-116326190D01*
X101952380Y-116326190D01*
X102190476Y-116326190D02*
X102285714Y-116326190D01*
X102333333Y-116302380D01*
X102357142Y-116278571D01*
X102404761Y-116207142D01*
X102428571Y-116111904D01*
X102428571Y-115921428D01*
X102404761Y-115873809D01*
X102380952Y-115850000D01*
X102333333Y-115826190D01*
X102238095Y-115826190D01*
X102190476Y-115850000D01*
X102166666Y-115873809D01*
X102142857Y-115921428D01*
X102142857Y-116040476D01*
X102166666Y-116088095D01*
X102190476Y-116111904D01*
X102238095Y-116135714D01*
X102333333Y-116135714D01*
X102380952Y-116111904D01*
X102404761Y-116088095D01*
X102428571Y-116040476D01*
%TO.C,JP1*%
G36*
X94250000Y-102160000D02*
G01*
X93750000Y-102160000D01*
X93750000Y-101760000D01*
X94250000Y-101760000D01*
X94250000Y-102160000D01*
G37*
D12*
%TO.C,AJK1*%
X88250000Y-94235000D02*
X88350000Y-94235000D01*
X88250000Y-94075000D02*
X88250000Y-94375000D01*
D13*
X89100000Y-90025000D02*
X86100000Y-94225000D01*
D12*
X88350000Y-94235000D02*
X88450000Y-94375000D01*
D13*
X89100000Y-92125000D02*
X87600000Y-92125000D01*
X89100000Y-90025000D02*
X89100000Y-94225000D01*
D12*
X88250000Y-94075000D02*
X88350000Y-94075000D01*
D13*
X90900000Y-90125000D02*
X89100000Y-92125000D01*
X89100000Y-92125000D02*
X90900000Y-94225000D01*
X87600000Y-94225000D02*
G75*
G03*
X89100000Y-94225000I750000J0D01*
G01*
D12*
X88350000Y-94235000D02*
G75*
G03*
X88350000Y-94075000I0J80000D01*
G01*
X88630000Y-94235000D02*
G75*
G03*
X88630000Y-94235000I-300000J0D01*
G01*
%TD*%
D14*
%TO.P,Y1,1,1*%
%TO.N,Net-(C16-Pad1)*%
X93075000Y-95210000D03*
%TO.P,Y1,2,2*%
%TO.N,GND*%
X93075000Y-97910000D03*
%TO.P,Y1,3,3*%
%TO.N,Net-(C17-Pad1)*%
X94675000Y-97910000D03*
%TO.P,Y1,4,4*%
%TO.N,GND*%
X94675000Y-95210000D03*
%TD*%
D15*
%TO.P,D2,*%
%TO.N,*%
X112500000Y-100000000D03*
D16*
%TO.P,D2,1,K*%
%TO.N,GND*%
X112500000Y-101625000D03*
D17*
%TO.P,D2,2,A*%
%TO.N,Net-(D2-Pad2)*%
X112500000Y-98375000D03*
%TD*%
D15*
%TO.P,D3,*%
%TO.N,*%
X112500000Y-95000000D03*
D16*
%TO.P,D3,1,K*%
%TO.N,GND*%
X112500000Y-96625000D03*
D17*
%TO.P,D3,2,A*%
%TO.N,Net-(D3-Pad2)*%
X112500000Y-93375000D03*
%TD*%
D18*
%TO.P,SW1,*%
%TO.N,*%
X86250000Y-95800000D03*
X90750000Y-95800000D03*
%TO.P,SW1,1,1*%
%TO.N,GND*%
X90750000Y-104200000D03*
%TO.P,SW1,2,2*%
%TO.N,Net-(J2-Pad2)*%
X86250000Y-104200000D03*
%TD*%
D15*
%TO.P,D1,*%
%TO.N,*%
X112500000Y-105000000D03*
D16*
%TO.P,D1,1,K*%
%TO.N,GND*%
X112500000Y-106625000D03*
D17*
%TO.P,D1,2,A*%
%TO.N,Net-(D1-Pad2)*%
X112500000Y-103375000D03*
%TD*%
D19*
%TO.P,C7,1*%
%TO.N,+3V3*%
X100600000Y-91760000D03*
%TO.P,C7,2*%
%TO.N,GND*%
X102150000Y-91760000D03*
%TD*%
D20*
%TO.P,C3,1*%
%TO.N,Net-(C3-Pad1)*%
X103800000Y-84860000D03*
%TO.P,C3,2*%
%TO.N,Net-(A1-Pad1)*%
X103800000Y-83310000D03*
%TD*%
D19*
%TO.P,C5,1*%
%TO.N,GND*%
X100925000Y-84835000D03*
%TO.P,C5,2*%
%TO.N,Net-(C3-Pad1)*%
X102475000Y-84835000D03*
%TD*%
%TO.P,R6,1*%
%TO.N,Net-(R6-Pad1)*%
X108175000Y-92360000D03*
%TO.P,R6,2*%
%TO.N,+5V*%
X109825000Y-92360000D03*
%TD*%
%TO.P,R4,1*%
%TO.N,Net-(C8-Pad2)*%
X93075000Y-84835000D03*
%TO.P,R4,2*%
%TO.N,Net-(C4-Pad2)*%
X94725000Y-84835000D03*
%TD*%
D21*
%TO.P,C13,1*%
%TO.N,+3V3*%
X106150000Y-95385000D03*
%TO.P,C13,2*%
%TO.N,GND*%
X106150000Y-96935000D03*
%TD*%
D19*
%TO.P,C14,1*%
%TO.N,+5V*%
X104625000Y-93860000D03*
%TO.P,C14,2*%
%TO.N,GND*%
X106175000Y-93860000D03*
%TD*%
%TO.P,C9,1*%
%TO.N,Net-(C9-Pad1)*%
X93100000Y-91310000D03*
%TO.P,C9,2*%
%TO.N,GND*%
X94650000Y-91310000D03*
%TD*%
%TO.P,C16,1*%
%TO.N,Net-(C16-Pad1)*%
X93100000Y-94060000D03*
%TO.P,C16,2*%
%TO.N,GND*%
X94650000Y-94060000D03*
%TD*%
%TO.P,R9,1*%
%TO.N,Net-(R9-Pad1)*%
X108175000Y-96860000D03*
%TO.P,R9,2*%
%TO.N,Net-(D2-Pad2)*%
X109825000Y-96860000D03*
%TD*%
%TO.P,R8,1*%
%TO.N,Net-(R8-Pad1)*%
X108175000Y-98360000D03*
%TO.P,R8,2*%
%TO.N,Net-(D1-Pad2)*%
X109825000Y-98360000D03*
%TD*%
D20*
%TO.P,R11,1*%
%TO.N,+3V3*%
X99300000Y-102535000D03*
%TO.P,R11,2*%
%TO.N,Net-(J2-Pad2)*%
X99300000Y-100885000D03*
%TD*%
D22*
%TO.P,U1,1,DVSS*%
%TO.N,GND*%
X102250000Y-93660000D03*
%TO.P,U1,2,LOADMOD*%
%TO.N,unconnected-(U1-Pad2)*%
X101750000Y-93660000D03*
%TO.P,U1,3,TVSS1*%
%TO.N,GND*%
X101250000Y-93660000D03*
%TO.P,U1,4,TX1*%
%TO.N,Net-(L1-Pad1)*%
X100750000Y-93660000D03*
%TO.P,U1,5,TVDD*%
%TO.N,+3V3*%
X100250000Y-93660000D03*
%TO.P,U1,6,TX2*%
%TO.N,Net-(L2-Pad2)*%
X99750000Y-93660000D03*
%TO.P,U1,7,TVSS2*%
%TO.N,GND*%
X99250000Y-93660000D03*
%TO.P,U1,8,AVDD*%
%TO.N,+3V3*%
X98750000Y-93660000D03*
%TO.P,U1,9,VMID*%
%TO.N,Net-(C9-Pad1)*%
X98250000Y-93660000D03*
%TO.P,U1,10,RX*%
%TO.N,Net-(C8-Pad1)*%
X97750000Y-93660000D03*
D23*
%TO.P,U1,11,AVSS*%
%TO.N,GND*%
X97100000Y-94310000D03*
%TO.P,U1,12,AUX1*%
%TO.N,unconnected-(U1-Pad12)*%
X97100000Y-94810000D03*
%TO.P,U1,13,AUX2*%
%TO.N,unconnected-(U1-Pad13)*%
X97100000Y-95310000D03*
%TO.P,U1,14,OSCIN*%
%TO.N,Net-(C16-Pad1)*%
X97100000Y-95810000D03*
%TO.P,U1,15,OSCOUT*%
%TO.N,Net-(C17-Pad1)*%
X97100000Y-96310000D03*
%TO.P,U1,16,I0*%
%TO.N,GND*%
X97100000Y-96810000D03*
%TO.P,U1,17,I1*%
%TO.N,Net-(JP1-Pad2)*%
X97100000Y-97310000D03*
%TO.P,U1,18,TESTEN*%
%TO.N,GND*%
X97100000Y-97810000D03*
%TO.P,U1,19,P35*%
%TO.N,unconnected-(U1-Pad19)*%
X97100000Y-98310000D03*
%TO.P,U1,20,NC*%
%TO.N,unconnected-(U1-Pad20)*%
X97100000Y-98810000D03*
D22*
%TO.P,U1,21,NC*%
%TO.N,unconnected-(U1-Pad21)*%
X97750000Y-99460000D03*
%TO.P,U1,22,NC*%
%TO.N,unconnected-(U1-Pad22)*%
X98250000Y-99460000D03*
%TO.P,U1,23,PVDD*%
%TO.N,+3V3*%
X98750000Y-99460000D03*
%TO.P,U1,24,P30/UART_RX*%
%TO.N,Net-(J2-Pad2)*%
X99250000Y-99460000D03*
%TO.P,U1,25,P70_IRQ*%
%TO.N,unconnected-(U1-Pad25)*%
X99750000Y-99460000D03*
%TO.P,U1,26,RSTOUT_N*%
%TO.N,unconnected-(U1-Pad26)*%
X100250000Y-99460000D03*
%TO.P,U1,27,NSS/P50_SCL/HSU_RX*%
%TO.N,Net-(C19-Pad1)*%
X100750000Y-99460000D03*
%TO.P,U1,28,MOSI/SDA/HSU_TX*%
%TO.N,Net-(D6-Pad6)*%
X101250000Y-99460000D03*
%TO.P,U1,29,MISO/P71*%
%TO.N,unconnected-(U1-Pad29)*%
X101750000Y-99460000D03*
%TO.P,U1,30,SCK/P72*%
%TO.N,Net-(D4-Pad3)*%
X102250000Y-99460000D03*
D23*
%TO.P,U1,31,P31/DBG_TX*%
%TO.N,Net-(R8-Pad1)*%
X102900000Y-98810000D03*
%TO.P,U1,32,P32_INT0*%
%TO.N,Net-(R9-Pad1)*%
X102900000Y-98310000D03*
%TO.P,U1,33,P33_INT1*%
%TO.N,Net-(R10-Pad1)*%
X102900000Y-97810000D03*
%TO.P,U1,34,P34/SIG_CLK*%
%TO.N,unconnected-(U1-Pad34)*%
X102900000Y-97310000D03*
%TO.P,U1,35,SIGOUT*%
%TO.N,unconnected-(U1-Pad35)*%
X102900000Y-96810000D03*
%TO.P,U1,36,SIGN*%
%TO.N,unconnected-(U1-Pad36)*%
X102900000Y-96310000D03*
%TO.P,U1,37,SVDD*%
%TO.N,unconnected-(U1-Pad37)*%
X102900000Y-95810000D03*
%TO.P,U1,38,RSTPD_N*%
%TO.N,Net-(R6-Pad1)*%
X102900000Y-95310000D03*
%TO.P,U1,39,DVDD*%
%TO.N,+3V3*%
X102900000Y-94810000D03*
%TO.P,U1,40,VBAT*%
%TO.N,+5V*%
X102900000Y-94310000D03*
D24*
%TO.P,U1,41,COPPER*%
%TO.N,GND*%
X100000000Y-96560000D03*
%TD*%
D25*
%TO.P,C17,1*%
%TO.N,Net-(C17-Pad1)*%
X94650000Y-99060000D03*
%TO.P,C17,2*%
%TO.N,GND*%
X93100000Y-99060000D03*
%TD*%
D26*
%TO.P,J1,1,Pin_1*%
%TO.N,GND*%
X106345000Y-109270000D03*
%TO.P,J1,2,Pin_2*%
%TO.N,Net-(J1-Pad2)*%
X109655000Y-106730000D03*
%TD*%
D25*
%TO.P,C12,1*%
%TO.N,+3V3*%
X99400000Y-90410000D03*
%TO.P,C12,2*%
%TO.N,GND*%
X97850000Y-90410000D03*
%TD*%
D21*
%TO.P,R5,1*%
%TO.N,Net-(C8-Pad1)*%
X93100000Y-88585000D03*
%TO.P,R5,2*%
%TO.N,Net-(C9-Pad1)*%
X93100000Y-90235000D03*
%TD*%
D19*
%TO.P,R7,1*%
%TO.N,Net-(R6-Pad1)*%
X108175000Y-93860000D03*
%TO.P,R7,2*%
%TO.N,GND*%
X109825000Y-93860000D03*
%TD*%
%TO.P,R10,1*%
%TO.N,Net-(R10-Pad1)*%
X108175000Y-95360000D03*
%TO.P,R10,2*%
%TO.N,Net-(D3-Pad2)*%
X109825000Y-95360000D03*
%TD*%
D20*
%TO.P,C18,1*%
%TO.N,+3V3*%
X97700000Y-102485000D03*
%TO.P,C18,2*%
%TO.N,GND*%
X97700000Y-100935000D03*
%TD*%
D21*
%TO.P,C11,1*%
%TO.N,+3V3*%
X104650000Y-95385000D03*
%TO.P,C11,2*%
%TO.N,GND*%
X104650000Y-96935000D03*
%TD*%
D20*
%TO.P,C8,1*%
%TO.N,Net-(C8-Pad1)*%
X93100000Y-87535000D03*
%TO.P,C8,2*%
%TO.N,Net-(C8-Pad2)*%
X93100000Y-85985000D03*
%TD*%
D27*
%TO.P,J3,1,Pin_1*%
%TO.N,GND*%
X96190000Y-104845000D03*
%TO.P,J3,2,Pin_2*%
%TO.N,+5V*%
X98730000Y-108155000D03*
%TO.P,J3,3,Pin_3*%
%TO.N,Net-(J3-Pad3)*%
X101270000Y-104845000D03*
%TO.P,J3,4,Pin_4*%
%TO.N,Net-(J3-Pad4)*%
X103810000Y-108155000D03*
%TD*%
D19*
%TO.P,C10,1*%
%TO.N,+3V3*%
X100600000Y-90410000D03*
%TO.P,C10,2*%
%TO.N,GND*%
X102150000Y-90410000D03*
%TD*%
D25*
%TO.P,C1,1*%
%TO.N,Net-(A1-Pad1)*%
X102475000Y-83300000D03*
%TO.P,C1,2*%
%TO.N,GND*%
X100925000Y-83300000D03*
%TD*%
%TO.P,C6,1*%
%TO.N,GND*%
X99075000Y-84835000D03*
%TO.P,C6,2*%
%TO.N,Net-(C4-Pad2)*%
X97525000Y-84835000D03*
%TD*%
D20*
%TO.P,R15,1*%
%TO.N,+3V3*%
X105600000Y-102535000D03*
%TO.P,R15,2*%
%TO.N,Net-(D4-Pad3)*%
X105600000Y-100885000D03*
%TD*%
D28*
%TO.P,JP1,1,A*%
%TO.N,GND*%
X93350000Y-101960000D03*
D29*
%TO.P,JP1,2,C*%
%TO.N,Net-(JP1-Pad2)*%
X94650000Y-101960000D03*
D30*
%TO.P,JP1,3,B*%
%TO.N,+3V3*%
X95950000Y-101960000D03*
%TD*%
D19*
%TO.P,R13,1*%
%TO.N,Net-(J3-Pad3)*%
X100825000Y-102460000D03*
%TO.P,R13,2*%
%TO.N,Net-(D6-Pad6)*%
X102475000Y-102460000D03*
%TD*%
%TO.P,C15,1*%
%TO.N,+3V3*%
X93100000Y-92660000D03*
%TO.P,C15,2*%
%TO.N,GND*%
X94650000Y-92660000D03*
%TD*%
D25*
%TO.P,R14,1*%
%TO.N,Net-(J3-Pad4)*%
X102475000Y-100960000D03*
%TO.P,R14,2*%
%TO.N,Net-(C19-Pad1)*%
X100825000Y-100960000D03*
%TD*%
D31*
%TO.P,L1,1,1*%
%TO.N,Net-(L1-Pad1)*%
X102260051Y-88549949D03*
D32*
X102542893Y-88267107D03*
D31*
%TO.P,L1,2,2*%
%TO.N,Net-(C3-Pad1)*%
X104239949Y-86570051D03*
D32*
X103957107Y-86852893D03*
%TD*%
D33*
%TO.P,L2,1,1*%
%TO.N,Net-(C4-Pad2)*%
X96042893Y-86852893D03*
D34*
X95760051Y-86570051D03*
D33*
%TO.P,L2,2,2*%
%TO.N,Net-(L2-Pad2)*%
X97457107Y-88267107D03*
D34*
X97739949Y-88549949D03*
%TD*%
D21*
%TO.P,C4,1*%
%TO.N,Net-(A1-Pad3)*%
X96200000Y-83310000D03*
%TO.P,C4,2*%
%TO.N,Net-(C4-Pad2)*%
X96200000Y-84860000D03*
%TD*%
%TO.P,R12,1*%
%TO.N,Net-(D4-Pad3)*%
X104000000Y-100885000D03*
%TO.P,R12,2*%
%TO.N,Net-(J1-Pad2)*%
X104000000Y-102535000D03*
%TD*%
D35*
%TO.P,D5,1,A1*%
%TO.N,GND*%
X108050000Y-89810000D03*
%TO.P,D5,2,K2*%
%TO.N,+3V3*%
X108050000Y-90460000D03*
%TO.P,D5,3,K1A2*%
%TO.N,Net-(D3-Pad2)*%
X108050000Y-91110000D03*
%TO.P,D5,4,A3*%
%TO.N,GND*%
X109950000Y-91110000D03*
%TO.P,D5,5,K4*%
%TO.N,+3V3*%
X109950000Y-90460000D03*
%TO.P,D5,6,K3A4*%
%TO.N,Net-(D2-Pad2)*%
X109950000Y-89810000D03*
%TD*%
D36*
%TO.P,U2,*%
%TO.N,*%
X100800000Y-112400000D03*
D37*
X98600000Y-110500000D03*
D38*
X101400000Y-114500000D03*
X98600000Y-114500000D03*
D39*
X99600000Y-113100000D03*
D40*
X100200000Y-111500000D03*
D39*
X101000000Y-111500000D03*
D40*
X101800000Y-110700000D03*
D41*
X98200000Y-112900000D03*
D40*
X99200000Y-112100000D03*
D42*
X101400000Y-113900000D03*
D39*
X99800000Y-113700000D03*
D40*
X100000000Y-114500000D03*
D42*
X98600000Y-111100000D03*
D39*
X100000000Y-111100000D03*
D40*
X99600000Y-114100000D03*
D43*
X98100000Y-112500000D03*
D44*
X101500000Y-111700000D03*
D40*
X101200000Y-111300000D03*
X99800000Y-110700000D03*
D45*
X102000000Y-113800000D03*
D46*
X101000000Y-112200000D03*
D39*
X100600000Y-111300000D03*
D46*
X100400000Y-113400000D03*
D37*
X98600000Y-113300000D03*
D44*
X101900000Y-112700000D03*
D46*
X101400000Y-110600000D03*
D40*
X100800000Y-111300000D03*
D46*
X98400000Y-112200000D03*
D45*
X99200000Y-113800000D03*
D44*
X100500000Y-111900000D03*
D39*
X99600000Y-111500000D03*
D40*
X100200000Y-112700000D03*
D42*
X98600000Y-113900000D03*
D39*
X100200000Y-110700000D03*
D40*
X101000000Y-110900000D03*
D41*
X100600000Y-112900000D03*
D44*
X100300000Y-113900000D03*
D45*
X99200000Y-111000000D03*
D40*
X101400000Y-112700000D03*
D46*
X100400000Y-112400000D03*
D45*
X98000000Y-111000000D03*
D46*
X98800000Y-112200000D03*
D45*
X98000000Y-113800000D03*
X100000000Y-113000000D03*
D38*
X98600000Y-111700000D03*
D40*
X99600000Y-112300000D03*
D44*
X100300000Y-111700000D03*
D40*
X101600000Y-111300000D03*
D46*
X100400000Y-114400000D03*
D37*
X101400000Y-113300000D03*
D40*
X101800000Y-111100000D03*
D36*
X102000000Y-111800000D03*
D40*
X99800000Y-112700000D03*
X100200000Y-113100000D03*
D46*
X101200000Y-111800000D03*
D44*
X98500000Y-112500000D03*
D40*
X101200000Y-112500000D03*
X99800000Y-111500000D03*
X99800000Y-114300000D03*
D36*
X99400000Y-112400000D03*
D39*
X99600000Y-110700000D03*
D40*
X99200000Y-112500000D03*
D45*
X100800000Y-113800000D03*
D39*
X102000000Y-110700000D03*
D47*
X99100000Y-112900000D03*
D41*
X100000000Y-112100000D03*
D46*
X100400000Y-110600000D03*
D44*
X100100000Y-114100000D03*
D41*
X99800000Y-111900000D03*
D40*
X100600000Y-112300000D03*
D46*
X101600000Y-112800000D03*
D40*
X101000000Y-110500000D03*
%TD*%
D19*
%TO.P,C19,1*%
%TO.N,Net-(C19-Pad1)*%
X108225000Y-104760000D03*
%TO.P,C19,2*%
%TO.N,GND*%
X109775000Y-104760000D03*
%TD*%
D35*
%TO.P,D4,1,A1*%
%TO.N,GND*%
X108050000Y-99610000D03*
%TO.P,D4,2,K2*%
%TO.N,+3V3*%
X108050000Y-100260000D03*
%TO.P,D4,3,K1A2*%
%TO.N,Net-(D4-Pad3)*%
X108050000Y-100910000D03*
%TO.P,D4,4,A3*%
%TO.N,GND*%
X109950000Y-100910000D03*
%TO.P,D4,5,K4*%
%TO.N,+3V3*%
X109950000Y-100260000D03*
%TO.P,D4,6,K3A4*%
%TO.N,Net-(D1-Pad2)*%
X109950000Y-99610000D03*
%TD*%
%TO.P,D6,1,A1*%
%TO.N,GND*%
X109950000Y-103510000D03*
%TO.P,D6,2,K2*%
%TO.N,+3V3*%
X109950000Y-102860000D03*
%TO.P,D6,3,K1A2*%
%TO.N,Net-(C19-Pad1)*%
X109950000Y-102210000D03*
%TO.P,D6,4,A3*%
%TO.N,GND*%
X108050000Y-102210000D03*
%TO.P,D6,5,K4*%
%TO.N,+3V3*%
X108050000Y-102860000D03*
%TO.P,D6,6,K3A4*%
%TO.N,Net-(D6-Pad6)*%
X108050000Y-103510000D03*
%TD*%
D25*
%TO.P,C2,1*%
%TO.N,GND*%
X99075000Y-83300000D03*
%TO.P,C2,2*%
%TO.N,Net-(A1-Pad3)*%
X97525000Y-83300000D03*
%TD*%
D26*
%TO.P,J2,1,Pin_1*%
%TO.N,GND*%
X93655000Y-109270000D03*
%TO.P,J2,2,Pin_2*%
%TO.N,Net-(J2-Pad2)*%
X90345000Y-106730000D03*
%TD*%
D48*
%TO.P,A1,*%
%TO.N,*%
X101898846Y-79694921D03*
D49*
X97476154Y-79694921D03*
D50*
X100000000Y-77586564D03*
D49*
X99050121Y-77586564D03*
D48*
X98101154Y-79694921D03*
D51*
X99050121Y-77586564D03*
D49*
X100949879Y-77586564D03*
D52*
%TO.P,A1,1*%
%TO.N,Net-(A1-Pad1)*%
X101773846Y-81294921D03*
D53*
%TO.P,A1,2*%
%TO.N,GND*%
X100000000Y-79586564D03*
D52*
%TO.P,A1,3*%
%TO.N,Net-(A1-Pad3)*%
X98226154Y-81294921D03*
%TD*%
D54*
%TO.N,GND*%
X104400000Y-99860000D03*
X93000000Y-100134500D03*
X101000000Y-97600000D03*
X105514175Y-97403682D03*
X100000000Y-89385000D03*
X100000000Y-96600000D03*
X109000000Y-103830000D03*
X99000000Y-95560000D03*
X99000000Y-97560000D03*
X97053825Y-99939076D03*
X104250000Y-91750000D03*
X97195244Y-103717690D03*
X106175000Y-92060000D03*
X109000000Y-99535500D03*
X98769153Y-104068465D03*
X109000000Y-102135000D03*
X101000000Y-95560000D03*
X112250000Y-102500000D03*
X95950000Y-94735000D03*
%TO.N,+3V3*%
X97350000Y-91760000D03*
X107100000Y-92960000D03*
X92200000Y-89410000D03*
X107100000Y-100459989D03*
X107100000Y-102460000D03*
X91400000Y-102560000D03*
X99522431Y-91240773D03*
%TO.N,+5V*%
X105250000Y-92660000D03*
X109000000Y-90935000D03*
X100000000Y-104250000D03*
X105250000Y-90935000D03*
%TO.N,Net-(D2-Pad2)*%
X109013557Y-96242734D03*
X110799502Y-90500000D03*
%TO.N,Net-(C9-Pad1)*%
X94200000Y-90260000D03*
X96424500Y-92484500D03*
%TO.N,Net-(D6-Pad6)*%
X103000000Y-103750000D03*
X106250000Y-103500000D03*
%TO.N,Net-(C19-Pad1)*%
X105432888Y-104149500D03*
X102294502Y-104500000D03*
%TD*%
D55*
%TO.N,GND*%
X106175000Y-92060000D02*
X106175000Y-93860000D01*
X105525000Y-97392857D02*
X105514175Y-97403682D01*
D56*
X109950000Y-104585000D02*
X109775000Y-104760000D01*
X112250000Y-102500000D02*
X112250000Y-101875000D01*
X108949253Y-99610000D02*
X109023753Y-99535500D01*
X96975066Y-103783932D02*
X97129002Y-103783932D01*
D55*
X93350000Y-101960000D02*
X93350000Y-100979474D01*
D56*
X94678479Y-109270000D02*
X93655000Y-109270000D01*
D55*
X93225000Y-97935000D02*
X93200000Y-97910000D01*
X99075000Y-84835000D02*
X99950000Y-84835000D01*
D56*
X102160000Y-91750000D02*
X104250000Y-91750000D01*
X102250000Y-93660000D02*
X102250000Y-92001421D01*
D55*
X93225000Y-99060000D02*
X93225000Y-97935000D01*
D56*
X101250000Y-93535000D02*
X101250000Y-95310000D01*
X108925000Y-102210000D02*
X109000000Y-102135000D01*
X111750000Y-90250000D02*
X111750000Y-91000000D01*
D55*
X94650000Y-92660000D02*
X94650000Y-94060000D01*
D56*
X99250000Y-93535000D02*
X99250000Y-95310000D01*
D55*
X99075000Y-83300000D02*
X100925000Y-83300000D01*
D56*
X104400000Y-99860000D02*
X106358579Y-99860000D01*
X110612500Y-91887500D02*
X110612500Y-93547500D01*
X106962132Y-99610000D02*
X108050000Y-99610000D01*
X106920000Y-89810000D02*
X108050000Y-89810000D01*
X111000000Y-91750000D02*
X110750000Y-91750000D01*
D55*
X102150000Y-90410000D02*
X102150000Y-91760000D01*
D56*
X109855000Y-109270000D02*
X106845000Y-109270000D01*
X112500000Y-101625000D02*
X113125000Y-101625000D01*
X102250000Y-93660000D02*
X102250000Y-94039290D01*
X110300000Y-93860000D02*
X109825000Y-93860000D01*
X102200000Y-94160000D02*
X101141422Y-95218578D01*
X97850000Y-90410000D02*
X97850000Y-90682451D01*
X113750000Y-97250000D02*
X113750000Y-100375000D01*
X97129002Y-103783932D02*
X97195244Y-103717690D01*
D55*
X94650000Y-91310000D02*
X94650000Y-92660000D01*
D56*
X109320000Y-103510000D02*
X109950000Y-103510000D01*
D55*
X105525000Y-96935000D02*
X106250000Y-96935000D01*
X93100000Y-99060000D02*
X93100000Y-99893079D01*
D56*
X99250000Y-95310000D02*
X99000000Y-95560000D01*
D55*
X100000000Y-79560000D02*
X100000000Y-89385000D01*
D56*
X109000000Y-101860000D02*
X109000000Y-102135000D01*
X98750000Y-97810000D02*
X99000000Y-97560000D01*
X96975000Y-96810000D02*
X98250000Y-96810000D01*
D55*
X95500000Y-95260000D02*
X94725000Y-95260000D01*
X104750000Y-96935000D02*
X105525000Y-96935000D01*
D56*
X98250000Y-96810000D02*
X99000000Y-97560000D01*
X96190000Y-104845000D02*
X96190000Y-104810000D01*
D55*
X100925000Y-84835000D02*
X99950000Y-84835000D01*
D56*
X98828475Y-92231525D02*
X98253475Y-91656525D01*
D55*
X105525000Y-96935000D02*
X105525000Y-97392857D01*
D56*
X109950000Y-91110000D02*
X110075000Y-91110000D01*
X95545000Y-104200000D02*
X90750000Y-104200000D01*
X113750000Y-102250000D02*
X113750000Y-105375000D01*
X108050000Y-102210000D02*
X108925000Y-102210000D01*
X110612500Y-91647500D02*
X110612500Y-91887500D01*
X97583466Y-94343466D02*
X98658578Y-95418578D01*
X97700000Y-100935000D02*
X97700000Y-100585251D01*
X101250000Y-95310000D02*
X101000000Y-95560000D01*
X109950000Y-103510000D02*
X109950000Y-104585000D01*
X108050000Y-99610000D02*
X108949253Y-99610000D01*
X108610000Y-89250000D02*
X110750000Y-89250000D01*
X97517510Y-107090197D02*
X96178854Y-108428854D01*
X96178854Y-108428854D02*
X95803854Y-108803854D01*
X96975000Y-97810000D02*
X98750000Y-97810000D01*
X97100000Y-94310000D02*
X97502672Y-94310000D01*
X106175000Y-92060000D02*
X106175000Y-90555000D01*
D55*
X95950000Y-94735000D02*
X95950000Y-94810000D01*
D56*
X112500000Y-96625000D02*
X113125000Y-96625000D01*
X99250000Y-93660000D02*
X99250000Y-93249176D01*
X97583488Y-94343444D02*
G75*
G03*
X97502672Y-94310000I-80788J-80856D01*
G01*
X102200003Y-94160003D02*
G75*
G03*
X102250000Y-94039290I-120703J120703D01*
G01*
X96975075Y-103783963D02*
G75*
G03*
X96190001Y-104810000I280425J-1027937D01*
G01*
X106920000Y-89810000D02*
G75*
G03*
X106175000Y-90555000I0J-745000D01*
G01*
X106600006Y-99760006D02*
G75*
G02*
X106358579Y-99860000I-241406J241406D01*
G01*
X112500000Y-106625000D02*
G75*
G03*
X113750000Y-105375000I0J1250000D01*
G01*
X111000000Y-91750000D02*
G75*
G03*
X111750000Y-91000000I0J750000D01*
G01*
X95545000Y-104200000D02*
G75*
G02*
X96190000Y-104845000I0J-645000D01*
G01*
D55*
X92999993Y-100134507D02*
G75*
G02*
X93350000Y-100979474I-844993J-844993D01*
G01*
D56*
X97517523Y-107090210D02*
G75*
G03*
X98769153Y-104068465I-3021723J3021710D01*
G01*
X113750000Y-102250000D02*
G75*
G03*
X113125000Y-101625000I-625000J0D01*
G01*
X109320000Y-103510000D02*
G75*
G03*
X109000000Y-103830000I0J-320000D01*
G01*
X98253490Y-91656510D02*
G75*
G02*
X97850000Y-90682451I974110J974110D01*
G01*
X102160000Y-91750000D02*
G75*
G03*
X102150000Y-91760000I0J-10000D01*
G01*
X100999988Y-95560000D02*
G75*
G02*
X101141422Y-95218578I482812J0D01*
G01*
X113750000Y-97250000D02*
G75*
G03*
X113125000Y-96625000I-625000J0D01*
G01*
X102150006Y-91759994D02*
G75*
G02*
X102250000Y-92001421I-241406J-241406D01*
G01*
X111750000Y-90250000D02*
G75*
G03*
X110750000Y-89250000I-1000000J0D01*
G01*
X109000000Y-101860000D02*
G75*
G02*
X109950000Y-100910000I950000J0D01*
G01*
X108610000Y-89250000D02*
G75*
G03*
X108050000Y-89810000I0J-560000D01*
G01*
X106962132Y-99610014D02*
G75*
G03*
X106600001Y-99760001I-32J-512086D01*
G01*
D55*
X93000006Y-100134506D02*
G75*
G03*
X93100000Y-99893079I-241406J241406D01*
G01*
D56*
X110612500Y-91887500D02*
G75*
G02*
X110750000Y-91750000I137500J0D01*
G01*
X112500000Y-101625000D02*
G75*
G03*
X112250000Y-101875000I0J-250000D01*
G01*
X97053825Y-99939100D02*
G75*
G02*
X97700000Y-100585251I-25J-646200D01*
G01*
D55*
X95500000Y-95260000D02*
G75*
G03*
X95950000Y-94810000I0J450000D01*
G01*
D56*
X112500000Y-101625000D02*
G75*
G03*
X113750000Y-100375000I0J1250000D01*
G01*
X94678479Y-109269990D02*
G75*
G03*
X95803853Y-108803853I21J1591490D01*
G01*
X109855000Y-109270000D02*
G75*
G03*
X112500000Y-106625000I0J2645000D01*
G01*
D55*
X94675000Y-95210000D02*
G75*
G03*
X94725000Y-95260000I50000J0D01*
G01*
D56*
X99000000Y-95560012D02*
G75*
G02*
X98658578Y-95418578I0J482812D01*
G01*
X110300000Y-93860000D02*
G75*
G03*
X110612500Y-93547500I0J312500D01*
G01*
X98828468Y-92231532D02*
G75*
G02*
X99250000Y-93249176I-1017668J-1017668D01*
G01*
X110612500Y-91647500D02*
G75*
G03*
X110075000Y-91110000I-537500J0D01*
G01*
D55*
%TO.N,Net-(C3-Pad1)*%
X103800000Y-84835000D02*
X103800000Y-86130102D01*
X103800000Y-84860000D02*
X102300000Y-84860000D01*
X103800000Y-86130102D02*
X104239949Y-86570051D01*
%TO.N,Net-(C4-Pad2)*%
X96175000Y-84835000D02*
X96200000Y-84860000D01*
X96200000Y-86130102D02*
X95760051Y-86570051D01*
X94725000Y-84835000D02*
X96175000Y-84835000D01*
X97525000Y-84835000D02*
X96225000Y-84835000D01*
X96200000Y-84835000D02*
X96200000Y-86130102D01*
X96225000Y-84835000D02*
X96200000Y-84860000D01*
D56*
%TO.N,+3V3*%
X93100000Y-92660000D02*
X92950000Y-92660000D01*
X107100000Y-93960000D02*
X107100000Y-92960000D01*
X100600000Y-91760000D02*
X100600000Y-92177158D01*
X108430000Y-90460000D02*
X108750000Y-90140000D01*
X98500000Y-100301421D02*
X98500000Y-102424645D01*
X107100000Y-92960000D02*
X107100000Y-90860000D01*
X98750000Y-93660000D02*
X98750000Y-93392957D01*
X97824149Y-91956399D02*
X98388875Y-92521125D01*
X95950000Y-101960000D02*
X95950000Y-102610000D01*
X92175489Y-93434511D02*
X92175489Y-102209511D01*
X108050000Y-90460000D02*
X108430000Y-90460000D01*
X99300000Y-102585000D02*
X99275000Y-102585000D01*
X107500000Y-102860000D02*
X108050000Y-102860000D01*
X109560000Y-90460000D02*
X109950000Y-90460000D01*
X102900000Y-94810000D02*
X104075000Y-94810000D01*
X99250000Y-102485000D02*
X99300000Y-102535000D01*
X97700000Y-102485000D02*
X98525000Y-102485000D01*
X92200000Y-89410000D02*
X92200000Y-91760000D01*
X100600000Y-90410000D02*
X99400000Y-90410000D01*
X91400000Y-102560000D02*
X91825000Y-102560000D01*
X97424264Y-102460000D02*
X97700000Y-102460000D01*
X108750000Y-90140000D02*
X109240000Y-90140000D01*
X95950000Y-101960000D02*
X96217158Y-101960000D01*
X109240000Y-90140000D02*
X109560000Y-90460000D01*
X99400000Y-90410000D02*
X99400000Y-91085000D01*
X108050000Y-102860000D02*
X109950000Y-102860000D01*
X106150000Y-95385000D02*
X106687500Y-94847500D01*
X108050000Y-100260000D02*
X107561290Y-100260000D01*
X107100000Y-102460000D02*
X105781066Y-102460000D01*
X106150000Y-95385000D02*
X104650000Y-95385000D01*
X106764124Y-94770875D02*
X106687500Y-94847500D01*
X98750000Y-99460000D02*
X98750000Y-99697868D01*
X107500000Y-90460000D02*
X108050000Y-90460000D01*
X98525000Y-102485000D02*
X99250000Y-102485000D01*
X108050000Y-100260000D02*
X109950000Y-100260000D01*
X100250000Y-93022132D02*
X100250000Y-93660000D01*
X93125978Y-103160000D02*
X95400000Y-103160000D01*
X100600000Y-90410000D02*
X100600000Y-91760000D01*
X96700013Y-102159987D02*
G75*
G03*
X96217158Y-101960000I-482813J-482813D01*
G01*
X97424264Y-102460014D02*
G75*
G02*
X96700001Y-102159999I36J1024314D01*
G01*
X100400013Y-92660013D02*
G75*
G03*
X100600000Y-92177158I-482813J482813D01*
G01*
X107078480Y-100459995D02*
G75*
G02*
X107561290Y-100260000I482820J-482805D01*
G01*
X93100000Y-92660000D02*
G75*
G02*
X92200000Y-91760000I0J900000D01*
G01*
X106764114Y-94770865D02*
G75*
G03*
X107100000Y-93960000I-810814J810865D01*
G01*
X92175500Y-102209511D02*
G75*
G02*
X91825000Y-102560000I-350500J11D01*
G01*
X98388863Y-92521137D02*
G75*
G02*
X98750000Y-93392957I-871863J-871863D01*
G01*
X95950000Y-102610000D02*
G75*
G02*
X95400000Y-103160000I-550000J0D01*
G01*
X99500000Y-91185000D02*
G75*
G02*
X99400000Y-91085000I0J100000D01*
G01*
X107500000Y-90460000D02*
G75*
G03*
X107100000Y-90860000I0J-400000D01*
G01*
X107500000Y-102860000D02*
G75*
G02*
X107100000Y-102460000I0J400000D01*
G01*
X92175500Y-93434511D02*
G75*
G02*
X92950000Y-92660000I774500J11D01*
G01*
X100250014Y-93022132D02*
G75*
G02*
X100400001Y-92660001I512086J32D01*
G01*
X104650000Y-95385000D02*
G75*
G03*
X104075000Y-94810000I-575000J0D01*
G01*
X97824139Y-91956409D02*
G75*
G03*
X97350000Y-91760000I-474139J-474091D01*
G01*
X98599994Y-100059994D02*
G75*
G03*
X98500000Y-100301421I241406J-241406D01*
G01*
X93125978Y-103160011D02*
G75*
G02*
X92175489Y-102209511I22J950511D01*
G01*
X98525034Y-102484966D02*
G75*
G02*
X98500000Y-102424645I60266J60366D01*
G01*
X98600009Y-100060009D02*
G75*
G03*
X98750000Y-99697868I-362109J362109D01*
G01*
X105600010Y-102535010D02*
G75*
G02*
X105781066Y-102460000I181090J-181090D01*
G01*
D55*
%TO.N,Net-(C8-Pad2)*%
X93075000Y-85960000D02*
X93100000Y-85985000D01*
X93075000Y-84810000D02*
X93075000Y-85960000D01*
D56*
%TO.N,Net-(C8-Pad1)*%
X97750000Y-93660000D02*
X96600000Y-93660000D01*
X95700000Y-92760000D02*
X95700000Y-90110000D01*
X94175000Y-88585000D02*
X93100000Y-88585000D01*
D55*
X93100000Y-87535000D02*
X93100000Y-88585000D01*
D56*
X94175000Y-88585000D02*
G75*
G02*
X95700000Y-90110000I0J-1525000D01*
G01*
X95700000Y-92760000D02*
G75*
G03*
X96600000Y-93660000I900000J0D01*
G01*
%TO.N,+5V*%
X109300489Y-91559511D02*
X109300489Y-91284778D01*
X109600000Y-91760000D02*
X109500978Y-91760000D01*
D55*
X98730000Y-107316051D02*
X98730000Y-108155000D01*
X104625000Y-93860000D02*
X103300000Y-93860000D01*
X104625000Y-93860000D02*
X104625000Y-93285000D01*
D56*
X105250000Y-90960000D02*
X105250000Y-92660000D01*
X109300500Y-91559511D02*
G75*
G03*
X109500978Y-91760000I200500J11D01*
G01*
D55*
X103000000Y-94160000D02*
G75*
G02*
X103300000Y-93860000I300000J0D01*
G01*
X98730022Y-107316051D02*
G75*
G02*
X100000001Y-104250001I4335978J51D01*
G01*
X105250000Y-92660000D02*
G75*
G03*
X104625000Y-93285000I0J-625000D01*
G01*
D56*
X109600000Y-91760000D02*
G75*
G02*
X109825000Y-91985000I0J-225000D01*
G01*
X109000000Y-90935011D02*
G75*
G02*
X109300489Y-91235489I0J-300489D01*
G01*
%TO.N,Net-(C16-Pad1)*%
X96000000Y-95960000D02*
X95558579Y-96401421D01*
X97100000Y-95810000D02*
X96362132Y-95810000D01*
X95175736Y-96560000D02*
X93400000Y-96560000D01*
X93075000Y-95210000D02*
X93075000Y-96235000D01*
X95999991Y-95959991D02*
G75*
G02*
X96362132Y-95810000I362109J-362109D01*
G01*
X93400000Y-96560000D02*
G75*
G02*
X93075000Y-96235000I0J325000D01*
G01*
X95175736Y-96560031D02*
G75*
G03*
X95558579Y-96401421I-36J541431D01*
G01*
%TO.N,Net-(L2-Pad2)*%
X98968989Y-91715737D02*
X99181626Y-91928374D01*
X99750000Y-93660000D02*
X99750000Y-93300550D01*
X98624806Y-90884806D02*
X98624806Y-89434806D01*
X99181641Y-91928359D02*
G75*
G02*
X99750000Y-93300550I-1372141J-1372141D01*
G01*
X97739949Y-88549894D02*
G75*
G02*
X98624806Y-89434806I-49J-884906D01*
G01*
X98968996Y-91715730D02*
G75*
G02*
X98624806Y-90884806I830904J830930D01*
G01*
%TO.N,Net-(L1-Pad1)*%
X101375000Y-89435000D02*
X101375000Y-92212513D01*
X100750000Y-93367842D02*
X100750000Y-93660000D01*
X101200000Y-92635000D02*
X100950000Y-92885000D01*
X101199996Y-92634996D02*
G75*
G03*
X101375000Y-92212513I-422496J422496D01*
G01*
X100750018Y-93367842D02*
G75*
G02*
X100950000Y-92885000I682782J42D01*
G01*
X101374949Y-89435000D02*
G75*
G02*
X102260051Y-88549949I885051J0D01*
G01*
%TO.N,Net-(D1-Pad2)*%
X109950000Y-99610000D02*
X110525000Y-99610000D01*
X109950000Y-98485000D02*
X109825000Y-98360000D01*
X109925000Y-98360000D02*
X109825000Y-98360000D01*
X109950000Y-99610000D02*
X109950000Y-98485000D01*
X112125000Y-103375000D02*
X112500000Y-103375000D01*
X111250000Y-100335000D02*
X111250000Y-102500000D01*
X112125000Y-103375000D02*
G75*
G02*
X111250000Y-102500000I0J875000D01*
G01*
X111250000Y-100335000D02*
G75*
G03*
X110525000Y-99610000I-725000J0D01*
G01*
%TO.N,Net-(D2-Pad2)*%
X109013557Y-96242734D02*
X109207734Y-96242734D01*
X109825000Y-96860000D02*
X110110000Y-96860000D01*
X111625000Y-98375000D02*
X112500000Y-98375000D01*
X109950000Y-89810000D02*
X110109502Y-89810000D01*
X110799500Y-90500000D02*
G75*
G03*
X110109502Y-89810000I-690000J0D01*
G01*
X110750000Y-97500000D02*
G75*
G03*
X110110000Y-96860000I-640000J0D01*
G01*
X109824966Y-96860000D02*
G75*
G03*
X109207734Y-96242734I-617266J0D01*
G01*
X111625000Y-98375000D02*
G75*
G02*
X110750000Y-97500000I0J875000D01*
G01*
%TO.N,Net-(D3-Pad2)*%
X109006835Y-94872318D02*
X109107872Y-95023532D01*
X112125000Y-93375000D02*
X112500000Y-93375000D01*
X109107872Y-95023532D02*
X109236468Y-95152128D01*
X109555701Y-95322761D02*
X109734069Y-95358240D01*
X108937239Y-94704299D02*
X109006835Y-94872318D01*
X108050000Y-91110000D02*
X108050000Y-91410000D01*
X109387682Y-95253165D02*
X109555701Y-95322761D01*
X108200000Y-91560000D02*
X108400000Y-91560000D01*
X109734069Y-95358240D02*
X109825000Y-95360000D01*
X109825000Y-95360000D02*
X110140000Y-95360000D01*
X108900000Y-92060000D02*
X108900000Y-94435000D01*
X109236468Y-95152128D02*
X109387682Y-95253165D01*
X108900000Y-94435000D02*
X108901760Y-94525931D01*
X108901760Y-94525931D02*
X108937239Y-94704299D01*
X109645752Y-95434244D02*
G75*
G02*
X109825000Y-95360000I179248J-179256D01*
G01*
X108900000Y-92060000D02*
G75*
G03*
X108400000Y-91560000I-500000J0D01*
G01*
X111000000Y-94500000D02*
G75*
G02*
X110140000Y-95360000I-860000J0D01*
G01*
X112125000Y-93375000D02*
G75*
G03*
X111000000Y-94500000I0J-1125000D01*
G01*
X108200000Y-91560000D02*
G75*
G02*
X108050000Y-91410000I0J150000D01*
G01*
D55*
%TO.N,Net-(C9-Pad1)*%
X93100000Y-90235000D02*
X93100000Y-91310000D01*
D56*
X96897538Y-92680439D02*
X97667767Y-92680439D01*
X98250000Y-93262672D02*
X98250000Y-93660000D01*
X94200000Y-90260000D02*
X93125000Y-90260000D01*
X93100000Y-90235000D02*
G75*
G03*
X93125000Y-90260000I25000J0D01*
G01*
X96897538Y-92680423D02*
G75*
G02*
X96424500Y-92484500I-38J668923D01*
G01*
X98250061Y-93262672D02*
G75*
G03*
X97667767Y-92680439I-582261J-28D01*
G01*
%TO.N,Net-(C17-Pad1)*%
X96200000Y-96460000D02*
X95841422Y-96818578D01*
X95700000Y-97160000D02*
X95700000Y-97560000D01*
X94675000Y-97910000D02*
X95350000Y-97910000D01*
X97100000Y-96310000D02*
X96562132Y-96310000D01*
X96199991Y-96459991D02*
G75*
G02*
X96562132Y-96310000I362109J-362109D01*
G01*
X95699988Y-97160000D02*
G75*
G02*
X95841422Y-96818578I482812J0D01*
G01*
X95700000Y-97560000D02*
G75*
G02*
X95350000Y-97910000I-350000J0D01*
G01*
%TO.N,Net-(J1-Pad2)*%
X110155000Y-106730000D02*
X108195000Y-106730000D01*
X104000000Y-102535000D02*
G75*
G03*
X108195000Y-106730000I4195000J0D01*
G01*
%TO.N,Net-(JP1-Pad2)*%
X95800000Y-100860000D02*
X95100000Y-100860000D01*
X94650000Y-101960000D02*
X94650000Y-101310000D01*
X96213249Y-97646751D02*
X96213249Y-100446751D01*
X97100000Y-97310000D02*
X96550000Y-97310000D01*
X95800000Y-100860049D02*
G75*
G03*
X96213249Y-100446751I0J413249D01*
G01*
X96213200Y-97646751D02*
G75*
G02*
X96550000Y-97310000I336800J-49D01*
G01*
X95100000Y-100860000D02*
G75*
G03*
X94650000Y-101310000I0J-450000D01*
G01*
%TO.N,Net-(D6-Pad6)*%
X101749990Y-101310010D02*
X101749990Y-101010010D01*
X102475000Y-102460000D02*
X102475000Y-103225000D01*
X101989444Y-101770556D02*
X101906326Y-101687438D01*
X102330830Y-102111942D02*
X101989444Y-101770556D01*
X106250000Y-103500000D02*
X108040000Y-103500000D01*
X101250000Y-99460000D02*
X101250000Y-99802928D01*
X102330824Y-102111948D02*
G75*
G02*
X102475000Y-102460000I-348024J-348052D01*
G01*
X101507818Y-100425318D02*
G75*
G02*
X101749990Y-101010010I-584718J-584682D01*
G01*
X101749997Y-101310010D02*
G75*
G03*
X101906326Y-101687438I533803J10D01*
G01*
X101507823Y-100425313D02*
G75*
G02*
X101250000Y-99802928I622377J622413D01*
G01*
X103000000Y-103750000D02*
G75*
G02*
X102475000Y-103225000I0J525000D01*
G01*
X108050000Y-103510000D02*
G75*
G03*
X108040000Y-103500000I-10000J0D01*
G01*
%TO.N,Net-(R8-Pad1)*%
X108175000Y-98485000D02*
X108175000Y-98360000D01*
X104341421Y-99060000D02*
X107600000Y-99060000D01*
X102900000Y-98810000D02*
X103737868Y-98810000D01*
X108175000Y-98485000D02*
G75*
G02*
X107600000Y-99060000I-575000J0D01*
G01*
X104100009Y-98959991D02*
G75*
G03*
X103737868Y-98810000I-362109J-362109D01*
G01*
X104341421Y-99059991D02*
G75*
G02*
X104100000Y-98960000I-21J341391D01*
G01*
%TO.N,Net-(R9-Pad1)*%
X104563312Y-98610489D02*
X106649511Y-98610489D01*
X107400000Y-97860000D02*
X107400000Y-97635000D01*
X102900000Y-98310000D02*
X103837868Y-98310000D01*
X107399989Y-97860000D02*
G75*
G02*
X106649511Y-98610489I-750489J0D01*
G01*
X104563312Y-98610483D02*
G75*
G02*
X104200001Y-98459999I-12J513783D01*
G01*
X108175000Y-96860000D02*
G75*
G03*
X107400000Y-97635000I0J-775000D01*
G01*
X104200009Y-98459991D02*
G75*
G03*
X103837868Y-98310000I-362109J-362109D01*
G01*
%TO.N,Net-(C19-Pad1)*%
X109950000Y-102210000D02*
X110150000Y-102210000D01*
X100750000Y-100885000D02*
X100825000Y-100960000D01*
X102100499Y-103899501D02*
X102100499Y-104305997D01*
X101048776Y-101384773D02*
X101185472Y-101450600D01*
X110700000Y-102760000D02*
X110700000Y-105087834D01*
X102100499Y-104305997D02*
X102294502Y-104500000D01*
X100825000Y-101349283D02*
X100900860Y-101351012D01*
X100900860Y-101351012D02*
X101048776Y-101384773D01*
X101787055Y-103212945D02*
X101836668Y-103262558D01*
X101398690Y-101663813D02*
X101464522Y-101800507D01*
X101185472Y-101450600D02*
X101304093Y-101545195D01*
X108225000Y-105185000D02*
X108225000Y-104760000D01*
X101464522Y-101800507D02*
X101498286Y-101948423D01*
X105432888Y-104149500D02*
X106751123Y-104149500D01*
X100750000Y-99585000D02*
X100750000Y-100885000D01*
X110227824Y-105560010D02*
X108600010Y-105560010D01*
X100825000Y-100960000D02*
X100825000Y-101349283D01*
X101498286Y-101948423D02*
X101498286Y-102515795D01*
X101304093Y-101545195D02*
X101398690Y-101663813D01*
X108224993Y-104760007D02*
G75*
G03*
X106751123Y-104149500I-1473893J-1473893D01*
G01*
X110700000Y-102760000D02*
G75*
G03*
X110150000Y-102210000I-550000J0D01*
G01*
X102100490Y-103899501D02*
G75*
G03*
X101836668Y-103262558I-900790J1D01*
G01*
X108225000Y-105185000D02*
G75*
G03*
X108600000Y-105560000I375000J0D01*
G01*
X101787054Y-103212946D02*
G75*
G02*
X101498286Y-102515795I697146J697146D01*
G01*
X110227824Y-105560000D02*
G75*
G03*
X110700000Y-105087834I-24J472200D01*
G01*
X108600014Y-105560000D02*
G75*
G02*
X108600010Y-105560010I-14J0D01*
G01*
D55*
%TO.N,Net-(A1-Pad1)*%
X102475000Y-83300000D02*
X102475000Y-81996075D01*
X102485000Y-83310000D02*
X102475000Y-83300000D01*
X103800000Y-83310000D02*
X102485000Y-83310000D01*
X101773846Y-81294900D02*
G75*
G02*
X102475000Y-81996075I-46J-701200D01*
G01*
%TO.N,Net-(A1-Pad3)*%
X97525000Y-83300000D02*
X96210000Y-83300000D01*
X96210000Y-83300000D02*
X96200000Y-83310000D01*
X97525000Y-81996075D02*
X97525000Y-83300000D01*
X97525021Y-81996075D02*
G75*
G02*
X98226154Y-81294921I701179J-25D01*
G01*
D56*
%TO.N,Net-(D4-Pad3)*%
X103400000Y-100160000D02*
X102800000Y-100160000D01*
X102475099Y-100160099D02*
X102799901Y-100160099D01*
X104000000Y-100885000D02*
X105600000Y-100885000D01*
X106820545Y-101184490D02*
X107775510Y-101184490D01*
X105600000Y-100885000D02*
X106097513Y-100885000D01*
X102250000Y-99460000D02*
X102250000Y-99935000D01*
X104000000Y-100885000D02*
X104000000Y-100760000D01*
X102475099Y-100160100D02*
G75*
G02*
X102250000Y-99935000I1J225100D01*
G01*
X106820545Y-101184471D02*
G75*
G02*
X106520000Y-101060000I-45J424971D01*
G01*
X106519996Y-101060004D02*
G75*
G03*
X106097513Y-100885000I-422496J-422496D01*
G01*
X103400000Y-100160000D02*
G75*
G02*
X104000000Y-100760000I0J-600000D01*
G01*
X102799900Y-100160099D02*
G75*
G02*
X102800000Y-100160000I100J-1D01*
G01*
X108049990Y-100910000D02*
G75*
G02*
X107775510Y-101184490I-274490J0D01*
G01*
%TO.N,Net-(R6-Pad1)*%
X108175000Y-92360000D02*
X108175000Y-93860000D01*
X107994928Y-94294732D02*
X107361870Y-94927790D01*
X103550000Y-95310000D02*
X102900000Y-95310000D01*
X106604907Y-96160000D02*
X104272862Y-96160000D01*
X107100000Y-95560000D02*
X107100000Y-95664907D01*
X103800000Y-95687138D02*
X103800000Y-95560000D01*
X107013569Y-95873569D02*
X106813569Y-96073569D01*
X107100006Y-95560000D02*
G75*
G02*
X107361870Y-94927790I894094J0D01*
G01*
X107013567Y-95873567D02*
G75*
G03*
X107100000Y-95664907I-208667J208667D01*
G01*
X107994927Y-94294731D02*
G75*
G03*
X108175000Y-93860000I-434727J434731D01*
G01*
X103550000Y-95310000D02*
G75*
G02*
X103800000Y-95560000I0J-250000D01*
G01*
X103800000Y-95687138D02*
G75*
G03*
X104272862Y-96160000I472900J38D01*
G01*
X106604907Y-96160002D02*
G75*
G03*
X106813569Y-96073569I-7J295102D01*
G01*
%TO.N,Net-(R10-Pad1)*%
X102900000Y-97810000D02*
X104037868Y-97810000D01*
X106949520Y-97746844D02*
X106949520Y-97109520D01*
X107320072Y-96214928D02*
X108175000Y-95360000D01*
X104806027Y-98128182D02*
X106568182Y-98128182D01*
X106949582Y-97746844D02*
G75*
G02*
X106568182Y-98128182I-381382J44D01*
G01*
X104400009Y-97959991D02*
G75*
G03*
X104037868Y-97810000I-362109J-362109D01*
G01*
X104806027Y-98128170D02*
G75*
G02*
X104400000Y-97960000I-27J574170D01*
G01*
X107320055Y-96214911D02*
G75*
G03*
X106949520Y-97109520I894645J-894589D01*
G01*
%TO.N,Net-(J2-Pad2)*%
X100156658Y-102156658D02*
X100156658Y-102593342D01*
X99250000Y-100835000D02*
X99300000Y-100885000D01*
X97618853Y-105670169D02*
X97269511Y-106019511D01*
X99398448Y-103350499D02*
X98649501Y-103350499D01*
X98000000Y-104000000D02*
X98000000Y-104750000D01*
X99250000Y-99585000D02*
X99250000Y-100835000D01*
X95554239Y-106730000D02*
X88780000Y-106730000D01*
X99300000Y-100885000D02*
X99863208Y-101448208D01*
X97618850Y-105670166D02*
G75*
G03*
X98000000Y-104750000I-920150J920166D01*
G01*
X97999999Y-104000000D02*
G75*
G02*
X98649501Y-103350499I649501J0D01*
G01*
X99935099Y-103128195D02*
G75*
G03*
X100156658Y-102593342I-534899J534895D01*
G01*
X95554239Y-106730016D02*
G75*
G03*
X97269511Y-106019511I-39J2425816D01*
G01*
X86250000Y-104200000D02*
G75*
G03*
X88780000Y-106730000I2530000J0D01*
G01*
X100156699Y-102156658D02*
G75*
G03*
X99863208Y-101448208I-1001899J-42D01*
G01*
X99398448Y-103350519D02*
G75*
G03*
X99935109Y-103128205I-48J759019D01*
G01*
%TO.N,Net-(J3-Pad3)*%
X100825000Y-102460000D02*
X100825000Y-104400000D01*
X101270000Y-104845000D02*
G75*
G02*
X100825000Y-104400000I0J445000D01*
G01*
%TO.N,Net-(J3-Pad4)*%
X103252538Y-102898254D02*
X103427142Y-103072858D01*
X103649501Y-103609680D02*
X103649501Y-107994501D01*
X102475000Y-100960000D02*
X102819990Y-101304990D01*
X103649501Y-107994501D02*
X103810000Y-108155000D01*
X103149501Y-102100499D02*
X103149501Y-102649501D01*
X103649509Y-103609680D02*
G75*
G03*
X103427142Y-103072858I-759209J-20D01*
G01*
X103252537Y-102898255D02*
G75*
G02*
X103149501Y-102649501I248763J248755D01*
G01*
X103149506Y-102100499D02*
G75*
G03*
X102819989Y-101304991I-1125006J-1D01*
G01*
%TD*%
M02*
