%TF.GenerationSoftware,KiCad,Pcbnew,(5.1.9-0-10_14)*%
%TF.CreationDate,2021-05-05T07:14:21+01:00*%
%TF.ProjectId,PN532,504e3533-322e-46b6-9963-61645f706362,5*%
%TF.SameCoordinates,Original*%
%TF.FileFunction,Copper,L2,Bot*%
%TF.FilePolarity,Positive*%
%FSLAX46Y46*%
G04 Gerber Fmt 4.6, Leading zero omitted, Abs format (unit mm)*
G04 Created by KiCad (PCBNEW (5.1.9-0-10_14)) date 2021-05-05 07:14:21*
%MOMM*%
%LPD*%
G01*
G04 APERTURE LIST*
%TA.AperFunction,EtchedComponent*%
%ADD10C,0.100000*%
%TD*%
%TA.AperFunction,EtchedComponent*%
%ADD11C,0.500000*%
%TD*%
%TA.AperFunction,ComponentPad*%
%ADD12O,1.700000X1.850000*%
%TD*%
%TA.AperFunction,SMDPad,CuDef*%
%ADD13C,0.100000*%
%TD*%
%TA.AperFunction,SMDPad,CuDef*%
%ADD14R,1.000000X1.500000*%
%TD*%
%TA.AperFunction,ComponentPad*%
%ADD15C,0.800000*%
%TD*%
%TA.AperFunction,ComponentPad*%
%ADD16C,1.000000*%
%TD*%
%TA.AperFunction,SMDPad,CuDef*%
%ADD17R,0.200000X0.200000*%
%TD*%
%TA.AperFunction,ComponentPad*%
%ADD18C,0.600000*%
%TD*%
%TA.AperFunction,ComponentPad*%
%ADD19C,1.800000*%
%TD*%
%TA.AperFunction,ComponentPad*%
%ADD20R,1.800000X1.800000*%
%TD*%
%TA.AperFunction,ComponentPad*%
%ADD21O,1.700000X1.700000*%
%TD*%
%TA.AperFunction,ComponentPad*%
%ADD22R,1.700000X1.700000*%
%TD*%
%TA.AperFunction,ComponentPad*%
%ADD23C,2.000000*%
%TD*%
%TA.AperFunction,ComponentPad*%
%ADD24C,1.300000*%
%TD*%
%TA.AperFunction,ComponentPad*%
%ADD25R,1.300000X1.300000*%
%TD*%
%TA.AperFunction,ComponentPad*%
%ADD26C,3.200000*%
%TD*%
%TA.AperFunction,ViaPad*%
%ADD27C,0.800000*%
%TD*%
%TA.AperFunction,Conductor*%
%ADD28C,0.250000*%
%TD*%
%TA.AperFunction,Conductor*%
%ADD29C,0.500000*%
%TD*%
%TA.AperFunction,Conductor*%
%ADD30C,0.254000*%
%TD*%
%TA.AperFunction,Conductor*%
%ADD31C,0.100000*%
%TD*%
G04 APERTURE END LIST*
D10*
%TO.C,JP1*%
G36*
X155500000Y-88500000D02*
G01*
X155000000Y-88500000D01*
X155000000Y-88900000D01*
X155500000Y-88900000D01*
X155500000Y-88500000D01*
G37*
G36*
X155500000Y-89300000D02*
G01*
X155000000Y-89300000D01*
X155000000Y-89700000D01*
X155500000Y-89700000D01*
X155500000Y-89300000D01*
G37*
D11*
%TO.C,A1*%
X162000000Y-115000000D02*
G75*
G03*
X170000000Y-107000000I0J8000000D01*
G01*
X162000000Y-114000000D02*
G75*
G03*
X169000000Y-107000000I0J7000000D01*
G01*
X162000000Y-112000000D02*
G75*
G03*
X167000000Y-107000000I0J5000000D01*
G01*
X162000000Y-113000000D02*
G75*
G03*
X168000000Y-107000000I0J6000000D01*
G01*
X170000000Y-83000000D02*
G75*
G03*
X162000000Y-75000000I-8000000J0D01*
G01*
X169000000Y-83000000D02*
G75*
G03*
X162000000Y-76000000I-7000000J0D01*
G01*
X167000000Y-83000000D02*
G75*
G03*
X162000000Y-78000000I-5000000J0D01*
G01*
X168000000Y-83000000D02*
G75*
G03*
X162000000Y-77000000I-6000000J0D01*
G01*
X138000000Y-75000000D02*
G75*
G03*
X130000000Y-83000000I0J-8000000D01*
G01*
X138000000Y-76000000D02*
G75*
G03*
X131000000Y-83000000I0J-7000000D01*
G01*
X138000000Y-78000000D02*
G75*
G03*
X133000000Y-83000000I0J-5000000D01*
G01*
X138000000Y-77000000D02*
G75*
G03*
X132000000Y-83000000I0J-6000000D01*
G01*
X130000000Y-107000000D02*
G75*
G03*
X138000000Y-115000000I8000000J0D01*
G01*
X131000000Y-107000000D02*
G75*
G03*
X138000000Y-114000000I7000000J0D01*
G01*
X132000000Y-107000000D02*
G75*
G03*
X138000000Y-113000000I6000000J0D01*
G01*
X133000000Y-107000000D02*
G75*
G03*
X138000000Y-112000000I5000000J0D01*
G01*
X130000000Y-83000000D02*
X130000000Y-94000000D01*
X131000000Y-94000000D02*
X131000000Y-83000000D01*
X130000000Y-96000000D02*
X131000000Y-94000000D01*
X130000000Y-107000000D02*
X130000000Y-96000000D01*
X132000000Y-94000000D02*
X132000000Y-83000000D01*
X131000000Y-96000000D02*
X132000000Y-94000000D01*
X131000000Y-107000000D02*
X131000000Y-96000000D01*
X133000000Y-94000000D02*
X133000000Y-83000000D01*
X132000000Y-96000000D02*
X133000000Y-94000000D01*
X132000000Y-107000000D02*
X132000000Y-96000000D01*
X133000000Y-107000000D02*
X133000000Y-96000000D01*
X162000000Y-78000000D02*
X138000000Y-78000000D01*
X167000000Y-83000000D02*
X167000000Y-92000000D01*
X167000000Y-107000000D02*
X167000000Y-98000000D01*
X138000000Y-112000000D02*
X162000000Y-112000000D01*
X162000000Y-77000000D02*
X138000000Y-77000000D01*
X168000000Y-107000000D02*
X168000000Y-83000000D01*
X138000000Y-113000000D02*
X162000000Y-113000000D01*
X162000000Y-114000000D02*
X138000000Y-114000000D01*
X162000000Y-76000000D02*
X138000000Y-76000000D01*
X169000000Y-107000000D02*
X169000000Y-83000000D01*
X162000000Y-75000000D02*
X138000000Y-75000000D01*
X170000000Y-107000000D02*
X170000000Y-83000000D01*
X138000000Y-115000000D02*
X162000000Y-115000000D01*
%TD*%
D12*
%TO.P,J3,4*%
%TO.N,Net-(J2-Pad4)*%
X153750000Y-103900000D03*
%TO.P,J3,3*%
%TO.N,Net-(J2-Pad3)*%
X151250000Y-103900000D03*
%TO.P,J3,2*%
%TO.N,+5V*%
X148750000Y-103900000D03*
%TO.P,J3,1*%
%TO.N,GND*%
%TA.AperFunction,ComponentPad*%
G36*
G01*
X145400000Y-104575000D02*
X145400000Y-103225000D01*
G75*
G02*
X145650000Y-102975000I250000J0D01*
G01*
X146850000Y-102975000D01*
G75*
G02*
X147100000Y-103225000I0J-250000D01*
G01*
X147100000Y-104575000D01*
G75*
G02*
X146850000Y-104825000I-250000J0D01*
G01*
X145650000Y-104825000D01*
G75*
G02*
X145400000Y-104575000I0J250000D01*
G01*
G37*
%TD.AperFunction*%
%TD*%
%TA.AperFunction,SMDPad,CuDef*%
D13*
%TO.P,JP1,1*%
%TO.N,GND*%
G36*
X155350000Y-88350000D02*
G01*
X155900000Y-88350000D01*
X155900000Y-88350602D01*
X155924534Y-88350602D01*
X155973365Y-88355412D01*
X156021490Y-88364984D01*
X156068445Y-88379228D01*
X156113778Y-88398005D01*
X156157051Y-88421136D01*
X156197850Y-88448396D01*
X156235779Y-88479524D01*
X156270476Y-88514221D01*
X156301604Y-88552150D01*
X156328864Y-88592949D01*
X156351995Y-88636222D01*
X156370772Y-88681555D01*
X156385016Y-88728510D01*
X156394588Y-88776635D01*
X156399398Y-88825466D01*
X156399398Y-88850000D01*
X156400000Y-88850000D01*
X156400000Y-89350000D01*
X156399398Y-89350000D01*
X156399398Y-89374534D01*
X156394588Y-89423365D01*
X156385016Y-89471490D01*
X156370772Y-89518445D01*
X156351995Y-89563778D01*
X156328864Y-89607051D01*
X156301604Y-89647850D01*
X156270476Y-89685779D01*
X156235779Y-89720476D01*
X156197850Y-89751604D01*
X156157051Y-89778864D01*
X156113778Y-89801995D01*
X156068445Y-89820772D01*
X156021490Y-89835016D01*
X155973365Y-89844588D01*
X155924534Y-89849398D01*
X155900000Y-89849398D01*
X155900000Y-89850000D01*
X155350000Y-89850000D01*
X155350000Y-88350000D01*
G37*
%TD.AperFunction*%
D14*
%TO.P,JP1,2*%
%TO.N,Net-(JP1-Pad2)*%
X154600000Y-89100000D03*
%TA.AperFunction,SMDPad,CuDef*%
D13*
%TO.P,JP1,3*%
%TO.N,+3V3*%
G36*
X153300000Y-89849398D02*
G01*
X153275466Y-89849398D01*
X153226635Y-89844588D01*
X153178510Y-89835016D01*
X153131555Y-89820772D01*
X153086222Y-89801995D01*
X153042949Y-89778864D01*
X153002150Y-89751604D01*
X152964221Y-89720476D01*
X152929524Y-89685779D01*
X152898396Y-89647850D01*
X152871136Y-89607051D01*
X152848005Y-89563778D01*
X152829228Y-89518445D01*
X152814984Y-89471490D01*
X152805412Y-89423365D01*
X152800602Y-89374534D01*
X152800602Y-89350000D01*
X152800000Y-89350000D01*
X152800000Y-88850000D01*
X152800602Y-88850000D01*
X152800602Y-88825466D01*
X152805412Y-88776635D01*
X152814984Y-88728510D01*
X152829228Y-88681555D01*
X152848005Y-88636222D01*
X152871136Y-88592949D01*
X152898396Y-88552150D01*
X152929524Y-88514221D01*
X152964221Y-88479524D01*
X153002150Y-88448396D01*
X153042949Y-88421136D01*
X153086222Y-88398005D01*
X153131555Y-88379228D01*
X153178510Y-88364984D01*
X153226635Y-88355412D01*
X153275466Y-88350602D01*
X153300000Y-88350602D01*
X153300000Y-88350000D01*
X153850000Y-88350000D01*
X153850000Y-89850000D01*
X153300000Y-89850000D01*
X153300000Y-89849398D01*
G37*
%TD.AperFunction*%
%TD*%
D15*
%TO.P,TP2,1*%
%TO.N,Net-(L2-Pad2)*%
X160300000Y-94100000D03*
%TD*%
%TO.P,TP1,1*%
%TO.N,Net-(L1-Pad1)*%
X160300000Y-95900000D03*
%TD*%
D16*
%TO.P,U1,41*%
%TO.N,GND*%
X156025000Y-94750000D03*
X157525000Y-93250000D03*
X154525000Y-93250000D03*
X154525000Y-96250000D03*
X157525000Y-96250000D03*
%TD*%
D17*
%TO.P,U2,~*%
%TO.N,N/C*%
X160000000Y-85000000D03*
X160000000Y-84400000D03*
X160000000Y-84000000D03*
X160000000Y-83400000D03*
X160000000Y-83200000D03*
X160000000Y-82600000D03*
X160000000Y-82200000D03*
X160000000Y-82000000D03*
X160000000Y-81800000D03*
X160000000Y-81600000D03*
X160000000Y-81400000D03*
X160000000Y-81200000D03*
X160000000Y-81000000D03*
X160200000Y-85000000D03*
X160200000Y-84800000D03*
X160200000Y-84400000D03*
X160200000Y-83400000D03*
X160200000Y-83200000D03*
X160200000Y-82800000D03*
X160200000Y-82600000D03*
X160200000Y-82200000D03*
X160200000Y-81000000D03*
X160400000Y-85000000D03*
X160400000Y-84000000D03*
X160400000Y-83200000D03*
X160400000Y-83000000D03*
X160400000Y-82600000D03*
X160400000Y-82200000D03*
X160400000Y-81800000D03*
X160400000Y-81600000D03*
X160400000Y-81400000D03*
X160400000Y-81000000D03*
X160600000Y-84800000D03*
X160600000Y-83600000D03*
X160600000Y-83000000D03*
X160600000Y-82200000D03*
X160600000Y-81800000D03*
X160600000Y-81600000D03*
X160600000Y-81400000D03*
X160600000Y-81000000D03*
X160800000Y-84600000D03*
X160800000Y-84200000D03*
X160800000Y-84000000D03*
X160800000Y-83800000D03*
X160800000Y-83600000D03*
X160800000Y-83000000D03*
X160800000Y-82600000D03*
X160800000Y-82200000D03*
X160800000Y-81800000D03*
X160800000Y-81600000D03*
X160800000Y-81400000D03*
X160800000Y-81000000D03*
X161000000Y-85000000D03*
X161000000Y-84000000D03*
X161000000Y-83600000D03*
X161000000Y-83200000D03*
X161000000Y-82800000D03*
X161000000Y-82600000D03*
X161000000Y-82200000D03*
X161000000Y-81000000D03*
X161200000Y-85000000D03*
X161200000Y-84600000D03*
X161200000Y-84400000D03*
X161200000Y-84200000D03*
X161200000Y-84000000D03*
X161200000Y-83400000D03*
X161200000Y-83200000D03*
X161200000Y-82600000D03*
X161200000Y-82200000D03*
X161200000Y-82000000D03*
X161200000Y-81800000D03*
X161200000Y-81600000D03*
X161200000Y-81400000D03*
X161200000Y-81200000D03*
X161200000Y-81000000D03*
X161400000Y-85000000D03*
X161400000Y-84200000D03*
X161400000Y-83600000D03*
X161400000Y-83400000D03*
X161400000Y-83000000D03*
X161400000Y-82800000D03*
X161400000Y-82600000D03*
X161600000Y-85000000D03*
X161600000Y-84000000D03*
X161600000Y-83800000D03*
X161600000Y-83200000D03*
X161600000Y-83000000D03*
X161600000Y-82800000D03*
X161600000Y-82400000D03*
X161600000Y-82200000D03*
X161600000Y-81800000D03*
X161600000Y-81400000D03*
X161800000Y-84000000D03*
X161800000Y-83800000D03*
X161800000Y-83600000D03*
X161800000Y-83400000D03*
X161800000Y-82600000D03*
X161800000Y-82400000D03*
X161800000Y-81800000D03*
X161800000Y-81400000D03*
X161800000Y-81200000D03*
X161800000Y-81000000D03*
X162000000Y-84200000D03*
X162000000Y-83800000D03*
X162000000Y-83400000D03*
X162000000Y-83000000D03*
X162000000Y-82400000D03*
X162000000Y-82200000D03*
X162000000Y-81600000D03*
X162000000Y-81400000D03*
X162000000Y-81200000D03*
X162000000Y-81000000D03*
X162200000Y-85000000D03*
X162200000Y-84800000D03*
X162200000Y-84600000D03*
X162200000Y-84400000D03*
X162200000Y-83800000D03*
X162200000Y-83200000D03*
X162200000Y-83000000D03*
X162200000Y-82800000D03*
X162200000Y-82400000D03*
X162200000Y-81200000D03*
X162200000Y-81000000D03*
X162400000Y-84600000D03*
X162400000Y-83800000D03*
X162400000Y-83600000D03*
X162400000Y-83400000D03*
X162400000Y-83000000D03*
X162400000Y-82600000D03*
X162400000Y-82400000D03*
X162400000Y-82200000D03*
X162400000Y-82000000D03*
X162400000Y-81800000D03*
X162400000Y-81400000D03*
X162400000Y-81200000D03*
X162400000Y-81000000D03*
X162600000Y-83200000D03*
X162600000Y-83000000D03*
X162600000Y-82600000D03*
X162800000Y-85000000D03*
X162800000Y-84800000D03*
X162800000Y-84600000D03*
X162800000Y-84400000D03*
X162800000Y-84200000D03*
X162800000Y-84000000D03*
X162800000Y-83800000D03*
X162800000Y-83400000D03*
X162800000Y-83000000D03*
X162800000Y-82600000D03*
X162800000Y-82200000D03*
X162800000Y-82000000D03*
X162800000Y-81800000D03*
X162800000Y-81600000D03*
X162800000Y-81400000D03*
X162800000Y-81200000D03*
X162800000Y-81000000D03*
X163000000Y-85000000D03*
X163000000Y-83800000D03*
X163000000Y-83400000D03*
X163000000Y-83000000D03*
X163000000Y-82800000D03*
X163000000Y-82200000D03*
X163000000Y-81000000D03*
X163200000Y-85000000D03*
X163200000Y-84600000D03*
X163200000Y-84400000D03*
X163200000Y-84200000D03*
X163200000Y-83800000D03*
X163200000Y-82800000D03*
X163200000Y-82200000D03*
X163200000Y-81800000D03*
X163200000Y-81600000D03*
X163200000Y-81400000D03*
X163200000Y-81000000D03*
X163400000Y-85000000D03*
X163400000Y-84600000D03*
X163400000Y-84400000D03*
X163400000Y-84200000D03*
X163400000Y-83800000D03*
X163400000Y-83400000D03*
X163400000Y-83200000D03*
X163400000Y-82800000D03*
X163400000Y-82200000D03*
X163400000Y-81800000D03*
X163400000Y-81600000D03*
X163400000Y-81400000D03*
X163400000Y-81000000D03*
X163600000Y-85000000D03*
X163600000Y-84600000D03*
X163600000Y-84400000D03*
X163600000Y-84200000D03*
X163600000Y-83800000D03*
X163600000Y-83200000D03*
X163600000Y-83000000D03*
X163600000Y-82600000D03*
X163600000Y-82200000D03*
X163600000Y-81800000D03*
X163600000Y-81600000D03*
X163600000Y-81400000D03*
X163600000Y-81000000D03*
X163800000Y-85000000D03*
X163800000Y-83800000D03*
X163800000Y-83400000D03*
X163800000Y-82800000D03*
X163800000Y-82200000D03*
X163800000Y-81000000D03*
X164000000Y-85000000D03*
X164000000Y-84800000D03*
X164000000Y-84600000D03*
X164000000Y-84400000D03*
X164000000Y-84200000D03*
X164000000Y-84000000D03*
X164000000Y-83800000D03*
X164000000Y-83400000D03*
X164000000Y-83000000D03*
X164000000Y-82200000D03*
X164000000Y-82000000D03*
X164000000Y-81800000D03*
X164000000Y-81600000D03*
X164000000Y-81400000D03*
X164000000Y-81200000D03*
X164000000Y-81000000D03*
%TD*%
D18*
%TO.P,A1,~*%
%TO.N,N/C*%
X130000000Y-94000000D03*
X133000000Y-96000000D03*
%TO.P,A1,3*%
%TO.N,Net-(A1-Pad3)*%
X167000000Y-92000000D03*
%TO.P,A1,1*%
%TO.N,Net-(A1-Pad1)*%
X167000000Y-98000000D03*
%TO.P,A1,2*%
%TO.N,GND*%
X169000000Y-95000000D03*
%TD*%
%TO.P,D1,1*%
%TO.N,GND*%
%TA.AperFunction,SMDPad,CuDef*%
G36*
G01*
X137762500Y-93600000D02*
X138237500Y-93600000D01*
G75*
G02*
X138475000Y-93837500I0J-237500D01*
G01*
X138475000Y-94412500D01*
G75*
G02*
X138237500Y-94650000I-237500J0D01*
G01*
X137762500Y-94650000D01*
G75*
G02*
X137525000Y-94412500I0J237500D01*
G01*
X137525000Y-93837500D01*
G75*
G02*
X137762500Y-93600000I237500J0D01*
G01*
G37*
%TD.AperFunction*%
%TO.P,D1,2*%
%TO.N,Net-(D1-Pad2)*%
%TA.AperFunction,SMDPad,CuDef*%
G36*
G01*
X137762500Y-95350000D02*
X138237500Y-95350000D01*
G75*
G02*
X138475000Y-95587500I0J-237500D01*
G01*
X138475000Y-96162500D01*
G75*
G02*
X138237500Y-96400000I-237500J0D01*
G01*
X137762500Y-96400000D01*
G75*
G02*
X137525000Y-96162500I0J237500D01*
G01*
X137525000Y-95587500D01*
G75*
G02*
X137762500Y-95350000I237500J0D01*
G01*
G37*
%TD.AperFunction*%
D19*
X138000000Y-96270000D03*
D20*
%TO.P,D1,1*%
%TO.N,GND*%
X138000000Y-93730000D03*
%TD*%
D21*
%TO.P,J1,2*%
%TO.N,Net-(J1-Pad2)*%
X143000000Y-81730000D03*
D22*
%TO.P,J1,1*%
%TO.N,GND*%
X143000000Y-84270000D03*
%TD*%
D21*
%TO.P,J2,4*%
%TO.N,Net-(J2-Pad4)*%
X153810000Y-107000000D03*
%TO.P,J2,3*%
%TO.N,Net-(J2-Pad3)*%
X151270000Y-107000000D03*
%TO.P,J2,2*%
%TO.N,+5V*%
X148730000Y-107000000D03*
D22*
%TO.P,J2,1*%
%TO.N,GND*%
X146190000Y-107000000D03*
%TD*%
%TO.P,D3,1*%
%TO.N,GND*%
%TA.AperFunction,SMDPad,CuDef*%
G36*
G01*
X137762500Y-105600000D02*
X138237500Y-105600000D01*
G75*
G02*
X138475000Y-105837500I0J-237500D01*
G01*
X138475000Y-106412500D01*
G75*
G02*
X138237500Y-106650000I-237500J0D01*
G01*
X137762500Y-106650000D01*
G75*
G02*
X137525000Y-106412500I0J237500D01*
G01*
X137525000Y-105837500D01*
G75*
G02*
X137762500Y-105600000I237500J0D01*
G01*
G37*
%TD.AperFunction*%
%TO.P,D3,2*%
%TO.N,Net-(D3-Pad2)*%
%TA.AperFunction,SMDPad,CuDef*%
G36*
G01*
X137762500Y-107350000D02*
X138237500Y-107350000D01*
G75*
G02*
X138475000Y-107587500I0J-237500D01*
G01*
X138475000Y-108162500D01*
G75*
G02*
X138237500Y-108400000I-237500J0D01*
G01*
X137762500Y-108400000D01*
G75*
G02*
X137525000Y-108162500I0J237500D01*
G01*
X137525000Y-107587500D01*
G75*
G02*
X137762500Y-107350000I237500J0D01*
G01*
G37*
%TD.AperFunction*%
D19*
X138000000Y-108270000D03*
D20*
%TO.P,D3,1*%
%TO.N,GND*%
X138000000Y-105730000D03*
%TD*%
D23*
%TO.P,SW1,1*%
%TO.N,GND*%
X146750000Y-85250000D03*
%TO.P,SW1,2*%
%TO.N,Net-(R10-Pad2)*%
X146750000Y-80750000D03*
%TO.P,SW1,1*%
%TO.N,GND*%
X153250000Y-85250000D03*
%TO.P,SW1,2*%
%TO.N,Net-(R10-Pad2)*%
X153250000Y-80750000D03*
%TD*%
D24*
%TO.P,J4,4*%
%TO.N,Net-(J2-Pad4)*%
X151000000Y-96000000D03*
%TO.P,J4,3*%
%TO.N,Net-(J2-Pad3)*%
X149000000Y-96000000D03*
%TO.P,J4,2*%
%TO.N,+5V*%
X151000000Y-94000000D03*
D25*
%TO.P,J4,1*%
%TO.N,GND*%
X149000000Y-94000000D03*
%TD*%
%TO.P,D2,1*%
%TO.N,GND*%
%TA.AperFunction,SMDPad,CuDef*%
G36*
G01*
X137762500Y-99600000D02*
X138237500Y-99600000D01*
G75*
G02*
X138475000Y-99837500I0J-237500D01*
G01*
X138475000Y-100412500D01*
G75*
G02*
X138237500Y-100650000I-237500J0D01*
G01*
X137762500Y-100650000D01*
G75*
G02*
X137525000Y-100412500I0J237500D01*
G01*
X137525000Y-99837500D01*
G75*
G02*
X137762500Y-99600000I237500J0D01*
G01*
G37*
%TD.AperFunction*%
%TO.P,D2,2*%
%TO.N,Net-(D2-Pad2)*%
%TA.AperFunction,SMDPad,CuDef*%
G36*
G01*
X137762500Y-101350000D02*
X138237500Y-101350000D01*
G75*
G02*
X138475000Y-101587500I0J-237500D01*
G01*
X138475000Y-102162500D01*
G75*
G02*
X138237500Y-102400000I-237500J0D01*
G01*
X137762500Y-102400000D01*
G75*
G02*
X137525000Y-102162500I0J237500D01*
G01*
X137525000Y-101587500D01*
G75*
G02*
X137762500Y-101350000I237500J0D01*
G01*
G37*
%TD.AperFunction*%
D19*
X138000000Y-102270000D03*
D20*
%TO.P,D2,1*%
%TO.N,GND*%
X138000000Y-99730000D03*
%TD*%
D26*
%TO.P,H2,1*%
%TO.N,N/C*%
X138000000Y-83000000D03*
%TD*%
%TO.P,H1,1*%
%TO.N,N/C*%
X162000000Y-107000000D03*
%TD*%
D27*
%TO.N,GND*%
X145900000Y-90900000D03*
X157800000Y-90400000D03*
X151500000Y-87800000D03*
X142900000Y-97500000D03*
X155200000Y-101300000D03*
X165881250Y-94218750D03*
X160300000Y-89600000D03*
%TO.N,+3V3*%
X151962500Y-90862500D03*
X149800000Y-100000000D03*
%TO.N,+5V*%
X159200000Y-98700000D03*
%TO.N,Net-(JP1-Pad2)*%
X154600000Y-90400000D03*
%TD*%
D28*
%TO.N,GND*%
X138000000Y-93730000D02*
X142730000Y-93730000D01*
X138000000Y-99800000D02*
X141800000Y-99800000D01*
X138000000Y-105742500D02*
X138357500Y-105742500D01*
X138000000Y-105800000D02*
X138700000Y-105800000D01*
X138700000Y-105800000D02*
X142900000Y-101600000D01*
D29*
X146750000Y-85250000D02*
X146750000Y-87450000D01*
D28*
X145770000Y-84270000D02*
X146750000Y-85250000D01*
X143000000Y-84270000D02*
X145770000Y-84270000D01*
X158262500Y-89737500D02*
X157900000Y-90100000D01*
D29*
X158400000Y-89600000D02*
X157900000Y-90100000D01*
D28*
X146250000Y-103900000D02*
X146250000Y-101450000D01*
D29*
X153250000Y-85250000D02*
X153250000Y-86850000D01*
D28*
X155900000Y-90400000D02*
X156800000Y-90400000D01*
X156800000Y-90400000D02*
X156500000Y-90700000D01*
X156500000Y-92225000D02*
X157525000Y-93250000D01*
X156500000Y-90700000D02*
X156500000Y-92225000D01*
D29*
X165881250Y-94218750D02*
X165100000Y-95000000D01*
X165100000Y-95000000D02*
X157900000Y-95000000D01*
X160300000Y-89600000D02*
X158400000Y-89600000D01*
D28*
X156500000Y-89100000D02*
X157800000Y-90400000D01*
X155900000Y-89100000D02*
X156500000Y-89100000D01*
%TO.N,+3V3*%
X151975001Y-96824999D02*
X151975001Y-90875001D01*
X150000000Y-97200000D02*
X151600000Y-97200000D01*
X149600000Y-97600000D02*
X150000000Y-97200000D01*
X151975001Y-90875001D02*
X151962500Y-90862500D01*
X149600000Y-99400000D02*
X149600000Y-97600000D01*
X151600000Y-97200000D02*
X151975001Y-96824999D01*
X149600000Y-99800000D02*
X149600000Y-99400000D01*
X149800000Y-100000000D02*
X149600000Y-99800000D01*
X151962500Y-90437500D02*
X153300000Y-89100000D01*
X151962500Y-90862500D02*
X151962500Y-90437500D01*
D29*
%TO.N,+5V*%
X151000000Y-94000000D02*
X149800000Y-92800000D01*
X147899999Y-92989999D02*
X147899999Y-103049999D01*
X148089998Y-92800000D02*
X147899999Y-92989999D01*
X147899999Y-103049999D02*
X148750000Y-103900000D01*
X149800000Y-92800000D02*
X148089998Y-92800000D01*
X148750000Y-104350000D02*
X148750000Y-103900000D01*
X154300000Y-105600000D02*
X150000000Y-105600000D01*
X155300000Y-104600000D02*
X154300000Y-105600000D01*
X159200000Y-102400000D02*
X157000000Y-104600000D01*
X157000000Y-104600000D02*
X155300000Y-104600000D01*
X150000000Y-105600000D02*
X148750000Y-104350000D01*
X159200000Y-98700000D02*
X159200000Y-102400000D01*
D28*
%TO.N,Net-(J2-Pad3)*%
X151250000Y-103825000D02*
X151250000Y-103900000D01*
X148624988Y-102124988D02*
X149037500Y-102537500D01*
X148624988Y-97294250D02*
X148624988Y-102124988D01*
X149962500Y-102537500D02*
X151250000Y-103825000D01*
X149000000Y-96919238D02*
X148624988Y-97294250D01*
X149037500Y-102537500D02*
X149962500Y-102537500D01*
X149000000Y-96000000D02*
X149000000Y-96919238D01*
%TO.N,Net-(J2-Pad4)*%
X152499990Y-102649990D02*
X153750000Y-103900000D01*
X150763499Y-102036501D02*
X151376988Y-102649990D01*
X149074999Y-101874999D02*
X149236501Y-102036501D01*
X149074999Y-97488590D02*
X149074999Y-101874999D01*
X150563589Y-96000000D02*
X149074999Y-97488590D01*
X149236501Y-102036501D02*
X150763499Y-102036501D01*
X151376988Y-102649990D02*
X152499990Y-102649990D01*
X151000000Y-96000000D02*
X150563589Y-96000000D01*
%TO.N,Net-(JP1-Pad2)*%
X154600000Y-89100000D02*
X154600000Y-90400000D01*
%TD*%
D30*
%TO.N,GND*%
X145889956Y-86649814D02*
X146179571Y-86790704D01*
X146491108Y-86872384D01*
X146812595Y-86891718D01*
X147131675Y-86847961D01*
X147436088Y-86742795D01*
X147610044Y-86649814D01*
X147618307Y-86627000D01*
X152381693Y-86627000D01*
X152389956Y-86649814D01*
X152679571Y-86790704D01*
X152991108Y-86872384D01*
X153312595Y-86891718D01*
X153631675Y-86847961D01*
X153936088Y-86742795D01*
X154110044Y-86649814D01*
X154118307Y-86627000D01*
X156447394Y-86627000D01*
X158373000Y-88552606D01*
X158373000Y-92662928D01*
X158303166Y-92651439D01*
X157704605Y-93250000D01*
X158303166Y-93848561D01*
X158373000Y-93837072D01*
X158373000Y-95662928D01*
X158303166Y-95651439D01*
X157704605Y-96250000D01*
X158303166Y-96848561D01*
X158373000Y-96837072D01*
X158373000Y-98074742D01*
X158282795Y-98209744D01*
X158204774Y-98398102D01*
X158165000Y-98598061D01*
X158165000Y-98801939D01*
X158204774Y-99001898D01*
X158282795Y-99190256D01*
X158315000Y-99238455D01*
X158315001Y-101505393D01*
X156447394Y-103373000D01*
X155164708Y-103373000D01*
X155128599Y-103253966D01*
X154990706Y-102995986D01*
X154805134Y-102769866D01*
X154579013Y-102584294D01*
X154321033Y-102446401D01*
X154041110Y-102361487D01*
X153750000Y-102332815D01*
X153458889Y-102361487D01*
X153326460Y-102401659D01*
X153063794Y-102138993D01*
X153039991Y-102109989D01*
X152924266Y-102015016D01*
X152792237Y-101944444D01*
X152648976Y-101900987D01*
X152537323Y-101889990D01*
X152537312Y-101889990D01*
X152499990Y-101886314D01*
X152462668Y-101889990D01*
X151691790Y-101889990D01*
X151327302Y-101525503D01*
X151303500Y-101496500D01*
X151187775Y-101401527D01*
X151055746Y-101330955D01*
X150912485Y-101287498D01*
X150800832Y-101276501D01*
X150800821Y-101276501D01*
X150763499Y-101272825D01*
X150726177Y-101276501D01*
X149834999Y-101276501D01*
X149834999Y-101035000D01*
X149901939Y-101035000D01*
X150101898Y-100995226D01*
X150290256Y-100917205D01*
X150459774Y-100803937D01*
X150603937Y-100659774D01*
X150717205Y-100490256D01*
X150795226Y-100301898D01*
X150835000Y-100101939D01*
X150835000Y-99898061D01*
X150795226Y-99698102D01*
X150717205Y-99509744D01*
X150603937Y-99340226D01*
X150459774Y-99196063D01*
X150360000Y-99129396D01*
X150360000Y-97960000D01*
X151562678Y-97960000D01*
X151600000Y-97963676D01*
X151637322Y-97960000D01*
X151637333Y-97960000D01*
X151748986Y-97949003D01*
X151892247Y-97905546D01*
X152024276Y-97834974D01*
X152140001Y-97740001D01*
X152163804Y-97710997D01*
X152485999Y-97388802D01*
X152515002Y-97365000D01*
X152609975Y-97249275D01*
X152680547Y-97117246D01*
X152707568Y-97028166D01*
X153926439Y-97028166D01*
X153961550Y-97241588D01*
X154165826Y-97332458D01*
X154383905Y-97381731D01*
X154607406Y-97387511D01*
X154827740Y-97349577D01*
X155036440Y-97269387D01*
X155088450Y-97241588D01*
X155123561Y-97028166D01*
X156926439Y-97028166D01*
X156961550Y-97241588D01*
X157165826Y-97332458D01*
X157383905Y-97381731D01*
X157607406Y-97387511D01*
X157827740Y-97349577D01*
X158036440Y-97269387D01*
X158088450Y-97241588D01*
X158123561Y-97028166D01*
X157525000Y-96429605D01*
X156926439Y-97028166D01*
X155123561Y-97028166D01*
X154525000Y-96429605D01*
X153926439Y-97028166D01*
X152707568Y-97028166D01*
X152724004Y-96973985D01*
X152735001Y-96862332D01*
X152735001Y-96862331D01*
X152738678Y-96824999D01*
X152735001Y-96787666D01*
X152735001Y-96332406D01*
X153387489Y-96332406D01*
X153425423Y-96552740D01*
X153505613Y-96761440D01*
X153533412Y-96813450D01*
X153746834Y-96848561D01*
X154345395Y-96250000D01*
X154704605Y-96250000D01*
X155303166Y-96848561D01*
X155516588Y-96813450D01*
X155607458Y-96609174D01*
X155656731Y-96391095D01*
X155662511Y-96167594D01*
X155624577Y-95947260D01*
X155562868Y-95786658D01*
X155665826Y-95832458D01*
X155883905Y-95881731D01*
X156107406Y-95887511D01*
X156327740Y-95849577D01*
X156488342Y-95787868D01*
X156442542Y-95890826D01*
X156393269Y-96108905D01*
X156387489Y-96332406D01*
X156425423Y-96552740D01*
X156505613Y-96761440D01*
X156533412Y-96813450D01*
X156746834Y-96848561D01*
X157345395Y-96250000D01*
X156746834Y-95651439D01*
X156599287Y-95675713D01*
X156623561Y-95528166D01*
X156025000Y-94929605D01*
X155426439Y-95528166D01*
X155450713Y-95675713D01*
X155303166Y-95651439D01*
X154704605Y-96250000D01*
X154345395Y-96250000D01*
X153746834Y-95651439D01*
X153533412Y-95686550D01*
X153442542Y-95890826D01*
X153393269Y-96108905D01*
X153387489Y-96332406D01*
X152735001Y-96332406D01*
X152735001Y-94028166D01*
X153926439Y-94028166D01*
X153961550Y-94241588D01*
X154165826Y-94332458D01*
X154383905Y-94381731D01*
X154607406Y-94387511D01*
X154827740Y-94349577D01*
X154988342Y-94287868D01*
X154942542Y-94390826D01*
X154893269Y-94608905D01*
X154887489Y-94832406D01*
X154925423Y-95052740D01*
X154987132Y-95213342D01*
X154884174Y-95167542D01*
X154666095Y-95118269D01*
X154442594Y-95112489D01*
X154222260Y-95150423D01*
X154013560Y-95230613D01*
X153961550Y-95258412D01*
X153926439Y-95471834D01*
X154525000Y-96070395D01*
X155123561Y-95471834D01*
X155099287Y-95324287D01*
X155246834Y-95348561D01*
X155845395Y-94750000D01*
X156204605Y-94750000D01*
X156803166Y-95348561D01*
X156950713Y-95324287D01*
X156926439Y-95471834D01*
X157525000Y-96070395D01*
X158123561Y-95471834D01*
X158088450Y-95258412D01*
X157884174Y-95167542D01*
X157666095Y-95118269D01*
X157442594Y-95112489D01*
X157222260Y-95150423D01*
X157061658Y-95212132D01*
X157107458Y-95109174D01*
X157156731Y-94891095D01*
X157162511Y-94667594D01*
X157124577Y-94447260D01*
X157062868Y-94286658D01*
X157165826Y-94332458D01*
X157383905Y-94381731D01*
X157607406Y-94387511D01*
X157827740Y-94349577D01*
X158036440Y-94269387D01*
X158088450Y-94241588D01*
X158123561Y-94028166D01*
X157525000Y-93429605D01*
X156926439Y-94028166D01*
X156950713Y-94175713D01*
X156803166Y-94151439D01*
X156204605Y-94750000D01*
X155845395Y-94750000D01*
X155246834Y-94151439D01*
X155099287Y-94175713D01*
X155123561Y-94028166D01*
X154525000Y-93429605D01*
X153926439Y-94028166D01*
X152735001Y-94028166D01*
X152735001Y-93332406D01*
X153387489Y-93332406D01*
X153425423Y-93552740D01*
X153505613Y-93761440D01*
X153533412Y-93813450D01*
X153746834Y-93848561D01*
X154345395Y-93250000D01*
X154704605Y-93250000D01*
X155303166Y-93848561D01*
X155450713Y-93824287D01*
X155426439Y-93971834D01*
X156025000Y-94570395D01*
X156623561Y-93971834D01*
X156599287Y-93824287D01*
X156746834Y-93848561D01*
X157345395Y-93250000D01*
X156746834Y-92651439D01*
X156533412Y-92686550D01*
X156442542Y-92890826D01*
X156393269Y-93108905D01*
X156387489Y-93332406D01*
X156425423Y-93552740D01*
X156487132Y-93713342D01*
X156384174Y-93667542D01*
X156166095Y-93618269D01*
X155942594Y-93612489D01*
X155722260Y-93650423D01*
X155561658Y-93712132D01*
X155607458Y-93609174D01*
X155656731Y-93391095D01*
X155662511Y-93167594D01*
X155624577Y-92947260D01*
X155544387Y-92738560D01*
X155516588Y-92686550D01*
X155303166Y-92651439D01*
X154704605Y-93250000D01*
X154345395Y-93250000D01*
X153746834Y-92651439D01*
X153533412Y-92686550D01*
X153442542Y-92890826D01*
X153393269Y-93108905D01*
X153387489Y-93332406D01*
X152735001Y-93332406D01*
X152735001Y-92471834D01*
X153926439Y-92471834D01*
X154525000Y-93070395D01*
X155123561Y-92471834D01*
X156926439Y-92471834D01*
X157525000Y-93070395D01*
X158123561Y-92471834D01*
X158088450Y-92258412D01*
X157884174Y-92167542D01*
X157666095Y-92118269D01*
X157442594Y-92112489D01*
X157222260Y-92150423D01*
X157013560Y-92230613D01*
X156961550Y-92258412D01*
X156926439Y-92471834D01*
X155123561Y-92471834D01*
X155088450Y-92258412D01*
X154884174Y-92167542D01*
X154666095Y-92118269D01*
X154442594Y-92112489D01*
X154222260Y-92150423D01*
X154013560Y-92230613D01*
X153961550Y-92258412D01*
X153926439Y-92471834D01*
X152735001Y-92471834D01*
X152735001Y-91553710D01*
X152766437Y-91522274D01*
X152879705Y-91352756D01*
X152957726Y-91164398D01*
X152997500Y-90964439D01*
X152997500Y-90760561D01*
X152957726Y-90560602D01*
X152944977Y-90529824D01*
X153022814Y-90451988D01*
X153030377Y-90454282D01*
X153126510Y-90473404D01*
X153250991Y-90485664D01*
X153275550Y-90485664D01*
X153300000Y-90488072D01*
X153565000Y-90488072D01*
X153565000Y-90501939D01*
X153604774Y-90701898D01*
X153682795Y-90890256D01*
X153796063Y-91059774D01*
X153940226Y-91203937D01*
X154109744Y-91317205D01*
X154298102Y-91395226D01*
X154498061Y-91435000D01*
X154701939Y-91435000D01*
X154901898Y-91395226D01*
X155090256Y-91317205D01*
X155259774Y-91203937D01*
X155403937Y-91059774D01*
X155517205Y-90890256D01*
X155595226Y-90701898D01*
X155635000Y-90501939D01*
X155635000Y-90319386D01*
X155680621Y-90305612D01*
X155737875Y-90288762D01*
X155739847Y-90287731D01*
X155741980Y-90287087D01*
X155794781Y-90259012D01*
X155847703Y-90231345D01*
X155849437Y-90229951D01*
X155851404Y-90228905D01*
X155897737Y-90191117D01*
X155944286Y-90153690D01*
X155945717Y-90151985D01*
X155947443Y-90150577D01*
X155985539Y-90104527D01*
X156023947Y-90058754D01*
X156025020Y-90056802D01*
X156026439Y-90055087D01*
X156054851Y-90002539D01*
X156083651Y-89950153D01*
X156084325Y-89948029D01*
X156085383Y-89946072D01*
X156103034Y-89889050D01*
X156121124Y-89832024D01*
X156121373Y-89829808D01*
X156122030Y-89827684D01*
X156128276Y-89768257D01*
X156134938Y-89708866D01*
X156134968Y-89704596D01*
X156134985Y-89704433D01*
X156134970Y-89704270D01*
X156135000Y-89700000D01*
X156135000Y-89300000D01*
X156129166Y-89240495D01*
X156123752Y-89181013D01*
X156123125Y-89178882D01*
X156122907Y-89176661D01*
X156105612Y-89119379D01*
X156099780Y-89099562D01*
X156103034Y-89089050D01*
X156121124Y-89032024D01*
X156121373Y-89029808D01*
X156122030Y-89027684D01*
X156128276Y-88968257D01*
X156134938Y-88908866D01*
X156134968Y-88904596D01*
X156134985Y-88904433D01*
X156134970Y-88904270D01*
X156135000Y-88900000D01*
X156135000Y-88500000D01*
X156129166Y-88440495D01*
X156123752Y-88381013D01*
X156123125Y-88378882D01*
X156122907Y-88376661D01*
X156105612Y-88319379D01*
X156088762Y-88262125D01*
X156087731Y-88260153D01*
X156087087Y-88258020D01*
X156059012Y-88205219D01*
X156031345Y-88152297D01*
X156029951Y-88150563D01*
X156028905Y-88148596D01*
X155991117Y-88102263D01*
X155953690Y-88055714D01*
X155951985Y-88054283D01*
X155950577Y-88052557D01*
X155904527Y-88014461D01*
X155858754Y-87976053D01*
X155856802Y-87974980D01*
X155855087Y-87973561D01*
X155802539Y-87945149D01*
X155750153Y-87916349D01*
X155748029Y-87915675D01*
X155746072Y-87914617D01*
X155689050Y-87896966D01*
X155632024Y-87878876D01*
X155629808Y-87878627D01*
X155627684Y-87877970D01*
X155568257Y-87871724D01*
X155510245Y-87865217D01*
X155454494Y-87819463D01*
X155344180Y-87760498D01*
X155224482Y-87724188D01*
X155100000Y-87711928D01*
X154100000Y-87711928D01*
X153975518Y-87724188D01*
X153975000Y-87724345D01*
X153974482Y-87724188D01*
X153850000Y-87711928D01*
X153300000Y-87711928D01*
X153275550Y-87714336D01*
X153250991Y-87714336D01*
X153126510Y-87726596D01*
X153030377Y-87745718D01*
X152910681Y-87782027D01*
X152820125Y-87819536D01*
X152709808Y-87878502D01*
X152628309Y-87932958D01*
X152531618Y-88012310D01*
X152462310Y-88081618D01*
X152382958Y-88178309D01*
X152328502Y-88259808D01*
X152269536Y-88370125D01*
X152232027Y-88460681D01*
X152195718Y-88580377D01*
X152176596Y-88676510D01*
X152164336Y-88800991D01*
X152164336Y-88825550D01*
X152161928Y-88850000D01*
X152161928Y-89163270D01*
X151451498Y-89873701D01*
X151422500Y-89897499D01*
X151327526Y-90013224D01*
X151303606Y-90057975D01*
X151302726Y-90058563D01*
X151158563Y-90202726D01*
X151045295Y-90372244D01*
X150967274Y-90560602D01*
X150927500Y-90760561D01*
X150927500Y-90964439D01*
X150967274Y-91164398D01*
X151045295Y-91352756D01*
X151158563Y-91522274D01*
X151215002Y-91578713D01*
X151215002Y-92732592D01*
X151126561Y-92715000D01*
X150966578Y-92715000D01*
X150456534Y-92204956D01*
X150428817Y-92171183D01*
X150294059Y-92060589D01*
X150140313Y-91978411D01*
X149973490Y-91927805D01*
X149843477Y-91915000D01*
X149843469Y-91915000D01*
X149800000Y-91910719D01*
X149756531Y-91915000D01*
X148133463Y-91915000D01*
X148089997Y-91910719D01*
X148046531Y-91915000D01*
X148046521Y-91915000D01*
X147916508Y-91927805D01*
X147749685Y-91978411D01*
X147595939Y-92060589D01*
X147461181Y-92171183D01*
X147433464Y-92204956D01*
X147304955Y-92333465D01*
X147271182Y-92361182D01*
X147160588Y-92495941D01*
X147078410Y-92649687D01*
X147027804Y-92816510D01*
X147014999Y-92946523D01*
X147014999Y-92946530D01*
X147010718Y-92989999D01*
X147014999Y-93033468D01*
X147015000Y-102337391D01*
X146535750Y-102340000D01*
X146377000Y-102498750D01*
X146377000Y-103373000D01*
X146123000Y-103373000D01*
X146123000Y-102498750D01*
X145964250Y-102340000D01*
X145400000Y-102336928D01*
X145275518Y-102349188D01*
X145155820Y-102385498D01*
X145045506Y-102444463D01*
X144948815Y-102523815D01*
X144869463Y-102620506D01*
X144810498Y-102730820D01*
X144774188Y-102850518D01*
X144761928Y-102975000D01*
X144763841Y-103373000D01*
X143552606Y-103373000D01*
X141627000Y-101447394D01*
X141627000Y-88552606D01*
X143552606Y-86627000D01*
X145881693Y-86627000D01*
X145889956Y-86649814D01*
%TA.AperFunction,Conductor*%
D31*
G36*
X145889956Y-86649814D02*
G01*
X146179571Y-86790704D01*
X146491108Y-86872384D01*
X146812595Y-86891718D01*
X147131675Y-86847961D01*
X147436088Y-86742795D01*
X147610044Y-86649814D01*
X147618307Y-86627000D01*
X152381693Y-86627000D01*
X152389956Y-86649814D01*
X152679571Y-86790704D01*
X152991108Y-86872384D01*
X153312595Y-86891718D01*
X153631675Y-86847961D01*
X153936088Y-86742795D01*
X154110044Y-86649814D01*
X154118307Y-86627000D01*
X156447394Y-86627000D01*
X158373000Y-88552606D01*
X158373000Y-92662928D01*
X158303166Y-92651439D01*
X157704605Y-93250000D01*
X158303166Y-93848561D01*
X158373000Y-93837072D01*
X158373000Y-95662928D01*
X158303166Y-95651439D01*
X157704605Y-96250000D01*
X158303166Y-96848561D01*
X158373000Y-96837072D01*
X158373000Y-98074742D01*
X158282795Y-98209744D01*
X158204774Y-98398102D01*
X158165000Y-98598061D01*
X158165000Y-98801939D01*
X158204774Y-99001898D01*
X158282795Y-99190256D01*
X158315000Y-99238455D01*
X158315001Y-101505393D01*
X156447394Y-103373000D01*
X155164708Y-103373000D01*
X155128599Y-103253966D01*
X154990706Y-102995986D01*
X154805134Y-102769866D01*
X154579013Y-102584294D01*
X154321033Y-102446401D01*
X154041110Y-102361487D01*
X153750000Y-102332815D01*
X153458889Y-102361487D01*
X153326460Y-102401659D01*
X153063794Y-102138993D01*
X153039991Y-102109989D01*
X152924266Y-102015016D01*
X152792237Y-101944444D01*
X152648976Y-101900987D01*
X152537323Y-101889990D01*
X152537312Y-101889990D01*
X152499990Y-101886314D01*
X152462668Y-101889990D01*
X151691790Y-101889990D01*
X151327302Y-101525503D01*
X151303500Y-101496500D01*
X151187775Y-101401527D01*
X151055746Y-101330955D01*
X150912485Y-101287498D01*
X150800832Y-101276501D01*
X150800821Y-101276501D01*
X150763499Y-101272825D01*
X150726177Y-101276501D01*
X149834999Y-101276501D01*
X149834999Y-101035000D01*
X149901939Y-101035000D01*
X150101898Y-100995226D01*
X150290256Y-100917205D01*
X150459774Y-100803937D01*
X150603937Y-100659774D01*
X150717205Y-100490256D01*
X150795226Y-100301898D01*
X150835000Y-100101939D01*
X150835000Y-99898061D01*
X150795226Y-99698102D01*
X150717205Y-99509744D01*
X150603937Y-99340226D01*
X150459774Y-99196063D01*
X150360000Y-99129396D01*
X150360000Y-97960000D01*
X151562678Y-97960000D01*
X151600000Y-97963676D01*
X151637322Y-97960000D01*
X151637333Y-97960000D01*
X151748986Y-97949003D01*
X151892247Y-97905546D01*
X152024276Y-97834974D01*
X152140001Y-97740001D01*
X152163804Y-97710997D01*
X152485999Y-97388802D01*
X152515002Y-97365000D01*
X152609975Y-97249275D01*
X152680547Y-97117246D01*
X152707568Y-97028166D01*
X153926439Y-97028166D01*
X153961550Y-97241588D01*
X154165826Y-97332458D01*
X154383905Y-97381731D01*
X154607406Y-97387511D01*
X154827740Y-97349577D01*
X155036440Y-97269387D01*
X155088450Y-97241588D01*
X155123561Y-97028166D01*
X156926439Y-97028166D01*
X156961550Y-97241588D01*
X157165826Y-97332458D01*
X157383905Y-97381731D01*
X157607406Y-97387511D01*
X157827740Y-97349577D01*
X158036440Y-97269387D01*
X158088450Y-97241588D01*
X158123561Y-97028166D01*
X157525000Y-96429605D01*
X156926439Y-97028166D01*
X155123561Y-97028166D01*
X154525000Y-96429605D01*
X153926439Y-97028166D01*
X152707568Y-97028166D01*
X152724004Y-96973985D01*
X152735001Y-96862332D01*
X152735001Y-96862331D01*
X152738678Y-96824999D01*
X152735001Y-96787666D01*
X152735001Y-96332406D01*
X153387489Y-96332406D01*
X153425423Y-96552740D01*
X153505613Y-96761440D01*
X153533412Y-96813450D01*
X153746834Y-96848561D01*
X154345395Y-96250000D01*
X154704605Y-96250000D01*
X155303166Y-96848561D01*
X155516588Y-96813450D01*
X155607458Y-96609174D01*
X155656731Y-96391095D01*
X155662511Y-96167594D01*
X155624577Y-95947260D01*
X155562868Y-95786658D01*
X155665826Y-95832458D01*
X155883905Y-95881731D01*
X156107406Y-95887511D01*
X156327740Y-95849577D01*
X156488342Y-95787868D01*
X156442542Y-95890826D01*
X156393269Y-96108905D01*
X156387489Y-96332406D01*
X156425423Y-96552740D01*
X156505613Y-96761440D01*
X156533412Y-96813450D01*
X156746834Y-96848561D01*
X157345395Y-96250000D01*
X156746834Y-95651439D01*
X156599287Y-95675713D01*
X156623561Y-95528166D01*
X156025000Y-94929605D01*
X155426439Y-95528166D01*
X155450713Y-95675713D01*
X155303166Y-95651439D01*
X154704605Y-96250000D01*
X154345395Y-96250000D01*
X153746834Y-95651439D01*
X153533412Y-95686550D01*
X153442542Y-95890826D01*
X153393269Y-96108905D01*
X153387489Y-96332406D01*
X152735001Y-96332406D01*
X152735001Y-94028166D01*
X153926439Y-94028166D01*
X153961550Y-94241588D01*
X154165826Y-94332458D01*
X154383905Y-94381731D01*
X154607406Y-94387511D01*
X154827740Y-94349577D01*
X154988342Y-94287868D01*
X154942542Y-94390826D01*
X154893269Y-94608905D01*
X154887489Y-94832406D01*
X154925423Y-95052740D01*
X154987132Y-95213342D01*
X154884174Y-95167542D01*
X154666095Y-95118269D01*
X154442594Y-95112489D01*
X154222260Y-95150423D01*
X154013560Y-95230613D01*
X153961550Y-95258412D01*
X153926439Y-95471834D01*
X154525000Y-96070395D01*
X155123561Y-95471834D01*
X155099287Y-95324287D01*
X155246834Y-95348561D01*
X155845395Y-94750000D01*
X156204605Y-94750000D01*
X156803166Y-95348561D01*
X156950713Y-95324287D01*
X156926439Y-95471834D01*
X157525000Y-96070395D01*
X158123561Y-95471834D01*
X158088450Y-95258412D01*
X157884174Y-95167542D01*
X157666095Y-95118269D01*
X157442594Y-95112489D01*
X157222260Y-95150423D01*
X157061658Y-95212132D01*
X157107458Y-95109174D01*
X157156731Y-94891095D01*
X157162511Y-94667594D01*
X157124577Y-94447260D01*
X157062868Y-94286658D01*
X157165826Y-94332458D01*
X157383905Y-94381731D01*
X157607406Y-94387511D01*
X157827740Y-94349577D01*
X158036440Y-94269387D01*
X158088450Y-94241588D01*
X158123561Y-94028166D01*
X157525000Y-93429605D01*
X156926439Y-94028166D01*
X156950713Y-94175713D01*
X156803166Y-94151439D01*
X156204605Y-94750000D01*
X155845395Y-94750000D01*
X155246834Y-94151439D01*
X155099287Y-94175713D01*
X155123561Y-94028166D01*
X154525000Y-93429605D01*
X153926439Y-94028166D01*
X152735001Y-94028166D01*
X152735001Y-93332406D01*
X153387489Y-93332406D01*
X153425423Y-93552740D01*
X153505613Y-93761440D01*
X153533412Y-93813450D01*
X153746834Y-93848561D01*
X154345395Y-93250000D01*
X154704605Y-93250000D01*
X155303166Y-93848561D01*
X155450713Y-93824287D01*
X155426439Y-93971834D01*
X156025000Y-94570395D01*
X156623561Y-93971834D01*
X156599287Y-93824287D01*
X156746834Y-93848561D01*
X157345395Y-93250000D01*
X156746834Y-92651439D01*
X156533412Y-92686550D01*
X156442542Y-92890826D01*
X156393269Y-93108905D01*
X156387489Y-93332406D01*
X156425423Y-93552740D01*
X156487132Y-93713342D01*
X156384174Y-93667542D01*
X156166095Y-93618269D01*
X155942594Y-93612489D01*
X155722260Y-93650423D01*
X155561658Y-93712132D01*
X155607458Y-93609174D01*
X155656731Y-93391095D01*
X155662511Y-93167594D01*
X155624577Y-92947260D01*
X155544387Y-92738560D01*
X155516588Y-92686550D01*
X155303166Y-92651439D01*
X154704605Y-93250000D01*
X154345395Y-93250000D01*
X153746834Y-92651439D01*
X153533412Y-92686550D01*
X153442542Y-92890826D01*
X153393269Y-93108905D01*
X153387489Y-93332406D01*
X152735001Y-93332406D01*
X152735001Y-92471834D01*
X153926439Y-92471834D01*
X154525000Y-93070395D01*
X155123561Y-92471834D01*
X156926439Y-92471834D01*
X157525000Y-93070395D01*
X158123561Y-92471834D01*
X158088450Y-92258412D01*
X157884174Y-92167542D01*
X157666095Y-92118269D01*
X157442594Y-92112489D01*
X157222260Y-92150423D01*
X157013560Y-92230613D01*
X156961550Y-92258412D01*
X156926439Y-92471834D01*
X155123561Y-92471834D01*
X155088450Y-92258412D01*
X154884174Y-92167542D01*
X154666095Y-92118269D01*
X154442594Y-92112489D01*
X154222260Y-92150423D01*
X154013560Y-92230613D01*
X153961550Y-92258412D01*
X153926439Y-92471834D01*
X152735001Y-92471834D01*
X152735001Y-91553710D01*
X152766437Y-91522274D01*
X152879705Y-91352756D01*
X152957726Y-91164398D01*
X152997500Y-90964439D01*
X152997500Y-90760561D01*
X152957726Y-90560602D01*
X152944977Y-90529824D01*
X153022814Y-90451988D01*
X153030377Y-90454282D01*
X153126510Y-90473404D01*
X153250991Y-90485664D01*
X153275550Y-90485664D01*
X153300000Y-90488072D01*
X153565000Y-90488072D01*
X153565000Y-90501939D01*
X153604774Y-90701898D01*
X153682795Y-90890256D01*
X153796063Y-91059774D01*
X153940226Y-91203937D01*
X154109744Y-91317205D01*
X154298102Y-91395226D01*
X154498061Y-91435000D01*
X154701939Y-91435000D01*
X154901898Y-91395226D01*
X155090256Y-91317205D01*
X155259774Y-91203937D01*
X155403937Y-91059774D01*
X155517205Y-90890256D01*
X155595226Y-90701898D01*
X155635000Y-90501939D01*
X155635000Y-90319386D01*
X155680621Y-90305612D01*
X155737875Y-90288762D01*
X155739847Y-90287731D01*
X155741980Y-90287087D01*
X155794781Y-90259012D01*
X155847703Y-90231345D01*
X155849437Y-90229951D01*
X155851404Y-90228905D01*
X155897737Y-90191117D01*
X155944286Y-90153690D01*
X155945717Y-90151985D01*
X155947443Y-90150577D01*
X155985539Y-90104527D01*
X156023947Y-90058754D01*
X156025020Y-90056802D01*
X156026439Y-90055087D01*
X156054851Y-90002539D01*
X156083651Y-89950153D01*
X156084325Y-89948029D01*
X156085383Y-89946072D01*
X156103034Y-89889050D01*
X156121124Y-89832024D01*
X156121373Y-89829808D01*
X156122030Y-89827684D01*
X156128276Y-89768257D01*
X156134938Y-89708866D01*
X156134968Y-89704596D01*
X156134985Y-89704433D01*
X156134970Y-89704270D01*
X156135000Y-89700000D01*
X156135000Y-89300000D01*
X156129166Y-89240495D01*
X156123752Y-89181013D01*
X156123125Y-89178882D01*
X156122907Y-89176661D01*
X156105612Y-89119379D01*
X156099780Y-89099562D01*
X156103034Y-89089050D01*
X156121124Y-89032024D01*
X156121373Y-89029808D01*
X156122030Y-89027684D01*
X156128276Y-88968257D01*
X156134938Y-88908866D01*
X156134968Y-88904596D01*
X156134985Y-88904433D01*
X156134970Y-88904270D01*
X156135000Y-88900000D01*
X156135000Y-88500000D01*
X156129166Y-88440495D01*
X156123752Y-88381013D01*
X156123125Y-88378882D01*
X156122907Y-88376661D01*
X156105612Y-88319379D01*
X156088762Y-88262125D01*
X156087731Y-88260153D01*
X156087087Y-88258020D01*
X156059012Y-88205219D01*
X156031345Y-88152297D01*
X156029951Y-88150563D01*
X156028905Y-88148596D01*
X155991117Y-88102263D01*
X155953690Y-88055714D01*
X155951985Y-88054283D01*
X155950577Y-88052557D01*
X155904527Y-88014461D01*
X155858754Y-87976053D01*
X155856802Y-87974980D01*
X155855087Y-87973561D01*
X155802539Y-87945149D01*
X155750153Y-87916349D01*
X155748029Y-87915675D01*
X155746072Y-87914617D01*
X155689050Y-87896966D01*
X155632024Y-87878876D01*
X155629808Y-87878627D01*
X155627684Y-87877970D01*
X155568257Y-87871724D01*
X155510245Y-87865217D01*
X155454494Y-87819463D01*
X155344180Y-87760498D01*
X155224482Y-87724188D01*
X155100000Y-87711928D01*
X154100000Y-87711928D01*
X153975518Y-87724188D01*
X153975000Y-87724345D01*
X153974482Y-87724188D01*
X153850000Y-87711928D01*
X153300000Y-87711928D01*
X153275550Y-87714336D01*
X153250991Y-87714336D01*
X153126510Y-87726596D01*
X153030377Y-87745718D01*
X152910681Y-87782027D01*
X152820125Y-87819536D01*
X152709808Y-87878502D01*
X152628309Y-87932958D01*
X152531618Y-88012310D01*
X152462310Y-88081618D01*
X152382958Y-88178309D01*
X152328502Y-88259808D01*
X152269536Y-88370125D01*
X152232027Y-88460681D01*
X152195718Y-88580377D01*
X152176596Y-88676510D01*
X152164336Y-88800991D01*
X152164336Y-88825550D01*
X152161928Y-88850000D01*
X152161928Y-89163270D01*
X151451498Y-89873701D01*
X151422500Y-89897499D01*
X151327526Y-90013224D01*
X151303606Y-90057975D01*
X151302726Y-90058563D01*
X151158563Y-90202726D01*
X151045295Y-90372244D01*
X150967274Y-90560602D01*
X150927500Y-90760561D01*
X150927500Y-90964439D01*
X150967274Y-91164398D01*
X151045295Y-91352756D01*
X151158563Y-91522274D01*
X151215002Y-91578713D01*
X151215002Y-92732592D01*
X151126561Y-92715000D01*
X150966578Y-92715000D01*
X150456534Y-92204956D01*
X150428817Y-92171183D01*
X150294059Y-92060589D01*
X150140313Y-91978411D01*
X149973490Y-91927805D01*
X149843477Y-91915000D01*
X149843469Y-91915000D01*
X149800000Y-91910719D01*
X149756531Y-91915000D01*
X148133463Y-91915000D01*
X148089997Y-91910719D01*
X148046531Y-91915000D01*
X148046521Y-91915000D01*
X147916508Y-91927805D01*
X147749685Y-91978411D01*
X147595939Y-92060589D01*
X147461181Y-92171183D01*
X147433464Y-92204956D01*
X147304955Y-92333465D01*
X147271182Y-92361182D01*
X147160588Y-92495941D01*
X147078410Y-92649687D01*
X147027804Y-92816510D01*
X147014999Y-92946523D01*
X147014999Y-92946530D01*
X147010718Y-92989999D01*
X147014999Y-93033468D01*
X147015000Y-102337391D01*
X146535750Y-102340000D01*
X146377000Y-102498750D01*
X146377000Y-103373000D01*
X146123000Y-103373000D01*
X146123000Y-102498750D01*
X145964250Y-102340000D01*
X145400000Y-102336928D01*
X145275518Y-102349188D01*
X145155820Y-102385498D01*
X145045506Y-102444463D01*
X144948815Y-102523815D01*
X144869463Y-102620506D01*
X144810498Y-102730820D01*
X144774188Y-102850518D01*
X144761928Y-102975000D01*
X144763841Y-103373000D01*
X143552606Y-103373000D01*
X141627000Y-101447394D01*
X141627000Y-88552606D01*
X143552606Y-86627000D01*
X145881693Y-86627000D01*
X145889956Y-86649814D01*
G37*
%TD.AperFunction*%
D30*
X149127000Y-93873000D02*
X149147000Y-93873000D01*
X149147000Y-94127000D01*
X149127000Y-94127000D01*
X149127000Y-94147000D01*
X148873000Y-94147000D01*
X148873000Y-94127000D01*
X148853000Y-94127000D01*
X148853000Y-93873000D01*
X148873000Y-93873000D01*
X148873000Y-93853000D01*
X149127000Y-93853000D01*
X149127000Y-93873000D01*
%TA.AperFunction,Conductor*%
D31*
G36*
X149127000Y-93873000D02*
G01*
X149147000Y-93873000D01*
X149147000Y-94127000D01*
X149127000Y-94127000D01*
X149127000Y-94147000D01*
X148873000Y-94147000D01*
X148873000Y-94127000D01*
X148853000Y-94127000D01*
X148853000Y-93873000D01*
X148873000Y-93873000D01*
X148873000Y-93853000D01*
X149127000Y-93853000D01*
X149127000Y-93873000D01*
G37*
%TD.AperFunction*%
%TD*%
M02*
