%TF.GenerationSoftware,KiCad,Pcbnew,(5.1.9-0-10_14)*%
%TF.CreationDate,2021-04-24T08:39:16+01:00*%
%TF.ProjectId,PN532,504e3533-322e-46b6-9963-61645f706362,2*%
%TF.SameCoordinates,Original*%
%TF.FileFunction,Soldermask,Top*%
%TF.FilePolarity,Negative*%
%FSLAX46Y46*%
G04 Gerber Fmt 4.6, Leading zero omitted, Abs format (unit mm)*
G04 Created by KiCad (PCBNEW (5.1.9-0-10_14)) date 2021-04-24 08:39:16*
%MOMM*%
%LPD*%
G01*
G04 APERTURE LIST*
%ADD10O,1.700000X1.700000*%
%ADD11R,1.700000X1.700000*%
%ADD12C,0.600000*%
%ADD13C,5.700000*%
%ADD14C,5.500000*%
%ADD15O,1.700000X1.850000*%
%ADD16C,1.800000*%
%ADD17R,1.800000X1.800000*%
%ADD18C,2.000000*%
%ADD19C,1.000000*%
%ADD20C,0.500000*%
%ADD21R,0.200000X0.200000*%
%ADD22R,4.600000X4.600000*%
%ADD23C,1.300000*%
%ADD24R,1.300000X1.300000*%
%ADD25R,1.900000X1.150000*%
G04 APERTURE END LIST*
D10*
%TO.C,J4*%
X71270000Y-28000000D03*
D11*
X68730000Y-28000000D03*
%TD*%
%TO.C,R4*%
G36*
G01*
X77100000Y-27050001D02*
X77100000Y-26149999D01*
G75*
G02*
X77349999Y-25900000I249999J0D01*
G01*
X78050001Y-25900000D01*
G75*
G02*
X78300000Y-26149999I0J-249999D01*
G01*
X78300000Y-27050001D01*
G75*
G02*
X78050001Y-27300000I-249999J0D01*
G01*
X77349999Y-27300000D01*
G75*
G02*
X77100000Y-27050001I0J249999D01*
G01*
G37*
G36*
G01*
X75100000Y-27050001D02*
X75100000Y-26149999D01*
G75*
G02*
X75349999Y-25900000I249999J0D01*
G01*
X76050001Y-25900000D01*
G75*
G02*
X76300000Y-26149999I0J-249999D01*
G01*
X76300000Y-27050001D01*
G75*
G02*
X76050001Y-27300000I-249999J0D01*
G01*
X75349999Y-27300000D01*
G75*
G02*
X75100000Y-27050001I0J249999D01*
G01*
G37*
%TD*%
D12*
%TO.C,A1*%
X50000000Y-39000000D03*
X53000000Y-41000000D03*
X87000000Y-37000000D03*
X87000000Y-43000000D03*
X89000000Y-40000000D03*
%TD*%
D13*
%TO.C,H2*%
X58000000Y-52000000D03*
%TD*%
D14*
%TO.C,H1*%
X82000000Y-28000000D03*
%TD*%
D15*
%TO.C,J2*%
X73750000Y-48900000D03*
X71250000Y-48900000D03*
X68750000Y-48900000D03*
G36*
G01*
X65400000Y-49575000D02*
X65400000Y-48225000D01*
G75*
G02*
X65650000Y-47975000I250000J0D01*
G01*
X66850000Y-47975000D01*
G75*
G02*
X67100000Y-48225000I0J-250000D01*
G01*
X67100000Y-49575000D01*
G75*
G02*
X66850000Y-49825000I-250000J0D01*
G01*
X65650000Y-49825000D01*
G75*
G02*
X65400000Y-49575000I0J250000D01*
G01*
G37*
%TD*%
%TO.C,C14*%
G36*
G01*
X78925000Y-46087500D02*
X79875000Y-46087500D01*
G75*
G02*
X80125000Y-46337500I0J-250000D01*
G01*
X80125000Y-47012500D01*
G75*
G02*
X79875000Y-47262500I-250000J0D01*
G01*
X78925000Y-47262500D01*
G75*
G02*
X78675000Y-47012500I0J250000D01*
G01*
X78675000Y-46337500D01*
G75*
G02*
X78925000Y-46087500I250000J0D01*
G01*
G37*
G36*
G01*
X78925000Y-44012500D02*
X79875000Y-44012500D01*
G75*
G02*
X80125000Y-44262500I0J-250000D01*
G01*
X80125000Y-44937500D01*
G75*
G02*
X79875000Y-45187500I-250000J0D01*
G01*
X78925000Y-45187500D01*
G75*
G02*
X78675000Y-44937500I0J250000D01*
G01*
X78675000Y-44262500D01*
G75*
G02*
X78925000Y-44012500I250000J0D01*
G01*
G37*
%TD*%
%TO.C,C17*%
G36*
G01*
X69175000Y-33012500D02*
X68225000Y-33012500D01*
G75*
G02*
X67975000Y-32762500I0J250000D01*
G01*
X67975000Y-32087500D01*
G75*
G02*
X68225000Y-31837500I250000J0D01*
G01*
X69175000Y-31837500D01*
G75*
G02*
X69425000Y-32087500I0J-250000D01*
G01*
X69425000Y-32762500D01*
G75*
G02*
X69175000Y-33012500I-250000J0D01*
G01*
G37*
G36*
G01*
X69175000Y-35087500D02*
X68225000Y-35087500D01*
G75*
G02*
X67975000Y-34837500I0J250000D01*
G01*
X67975000Y-34162500D01*
G75*
G02*
X68225000Y-33912500I250000J0D01*
G01*
X69175000Y-33912500D01*
G75*
G02*
X69425000Y-34162500I0J-250000D01*
G01*
X69425000Y-34837500D01*
G75*
G02*
X69175000Y-35087500I-250000J0D01*
G01*
G37*
%TD*%
%TO.C,C16*%
G36*
G01*
X71275000Y-33012500D02*
X70325000Y-33012500D01*
G75*
G02*
X70075000Y-32762500I0J250000D01*
G01*
X70075000Y-32087500D01*
G75*
G02*
X70325000Y-31837500I250000J0D01*
G01*
X71275000Y-31837500D01*
G75*
G02*
X71525000Y-32087500I0J-250000D01*
G01*
X71525000Y-32762500D01*
G75*
G02*
X71275000Y-33012500I-250000J0D01*
G01*
G37*
G36*
G01*
X71275000Y-35087500D02*
X70325000Y-35087500D01*
G75*
G02*
X70075000Y-34837500I0J250000D01*
G01*
X70075000Y-34162500D01*
G75*
G02*
X70325000Y-33912500I250000J0D01*
G01*
X71275000Y-33912500D01*
G75*
G02*
X71525000Y-34162500I0J-250000D01*
G01*
X71525000Y-34837500D01*
G75*
G02*
X71275000Y-35087500I-250000J0D01*
G01*
G37*
%TD*%
%TO.C,C15*%
G36*
G01*
X77025000Y-33912500D02*
X77975000Y-33912500D01*
G75*
G02*
X78225000Y-34162500I0J-250000D01*
G01*
X78225000Y-34837500D01*
G75*
G02*
X77975000Y-35087500I-250000J0D01*
G01*
X77025000Y-35087500D01*
G75*
G02*
X76775000Y-34837500I0J250000D01*
G01*
X76775000Y-34162500D01*
G75*
G02*
X77025000Y-33912500I250000J0D01*
G01*
G37*
G36*
G01*
X77025000Y-31837500D02*
X77975000Y-31837500D01*
G75*
G02*
X78225000Y-32087500I0J-250000D01*
G01*
X78225000Y-32762500D01*
G75*
G02*
X77975000Y-33012500I-250000J0D01*
G01*
X77025000Y-33012500D01*
G75*
G02*
X76775000Y-32762500I0J250000D01*
G01*
X76775000Y-32087500D01*
G75*
G02*
X77025000Y-31837500I250000J0D01*
G01*
G37*
%TD*%
%TO.C,C13*%
G36*
G01*
X71812500Y-45325000D02*
X71812500Y-46275000D01*
G75*
G02*
X71562500Y-46525000I-250000J0D01*
G01*
X70887500Y-46525000D01*
G75*
G02*
X70637500Y-46275000I0J250000D01*
G01*
X70637500Y-45325000D01*
G75*
G02*
X70887500Y-45075000I250000J0D01*
G01*
X71562500Y-45075000D01*
G75*
G02*
X71812500Y-45325000I0J-250000D01*
G01*
G37*
G36*
G01*
X73887500Y-45325000D02*
X73887500Y-46275000D01*
G75*
G02*
X73637500Y-46525000I-250000J0D01*
G01*
X72962500Y-46525000D01*
G75*
G02*
X72712500Y-46275000I0J250000D01*
G01*
X72712500Y-45325000D01*
G75*
G02*
X72962500Y-45075000I250000J0D01*
G01*
X73637500Y-45075000D01*
G75*
G02*
X73887500Y-45325000I0J-250000D01*
G01*
G37*
%TD*%
%TO.C,C12*%
G36*
G01*
X76712500Y-46275000D02*
X76712500Y-45325000D01*
G75*
G02*
X76962500Y-45075000I250000J0D01*
G01*
X77637500Y-45075000D01*
G75*
G02*
X77887500Y-45325000I0J-250000D01*
G01*
X77887500Y-46275000D01*
G75*
G02*
X77637500Y-46525000I-250000J0D01*
G01*
X76962500Y-46525000D01*
G75*
G02*
X76712500Y-46275000I0J250000D01*
G01*
G37*
G36*
G01*
X74637500Y-46275000D02*
X74637500Y-45325000D01*
G75*
G02*
X74887500Y-45075000I250000J0D01*
G01*
X75562500Y-45075000D01*
G75*
G02*
X75812500Y-45325000I0J-250000D01*
G01*
X75812500Y-46275000D01*
G75*
G02*
X75562500Y-46525000I-250000J0D01*
G01*
X74887500Y-46525000D01*
G75*
G02*
X74637500Y-46275000I0J250000D01*
G01*
G37*
%TD*%
%TO.C,C11*%
G36*
G01*
X81125000Y-40450000D02*
X82075000Y-40450000D01*
G75*
G02*
X82325000Y-40700000I0J-250000D01*
G01*
X82325000Y-41375000D01*
G75*
G02*
X82075000Y-41625000I-250000J0D01*
G01*
X81125000Y-41625000D01*
G75*
G02*
X80875000Y-41375000I0J250000D01*
G01*
X80875000Y-40700000D01*
G75*
G02*
X81125000Y-40450000I250000J0D01*
G01*
G37*
G36*
G01*
X81125000Y-38375000D02*
X82075000Y-38375000D01*
G75*
G02*
X82325000Y-38625000I0J-250000D01*
G01*
X82325000Y-39300000D01*
G75*
G02*
X82075000Y-39550000I-250000J0D01*
G01*
X81125000Y-39550000D01*
G75*
G02*
X80875000Y-39300000I0J250000D01*
G01*
X80875000Y-38625000D01*
G75*
G02*
X81125000Y-38375000I250000J0D01*
G01*
G37*
%TD*%
%TO.C,C10*%
G36*
G01*
X80075000Y-33012500D02*
X79125000Y-33012500D01*
G75*
G02*
X78875000Y-32762500I0J250000D01*
G01*
X78875000Y-32087500D01*
G75*
G02*
X79125000Y-31837500I250000J0D01*
G01*
X80075000Y-31837500D01*
G75*
G02*
X80325000Y-32087500I0J-250000D01*
G01*
X80325000Y-32762500D01*
G75*
G02*
X80075000Y-33012500I-250000J0D01*
G01*
G37*
G36*
G01*
X80075000Y-35087500D02*
X79125000Y-35087500D01*
G75*
G02*
X78875000Y-34837500I0J250000D01*
G01*
X78875000Y-34162500D01*
G75*
G02*
X79125000Y-33912500I250000J0D01*
G01*
X80075000Y-33912500D01*
G75*
G02*
X80325000Y-34162500I0J-250000D01*
G01*
X80325000Y-34837500D01*
G75*
G02*
X80075000Y-35087500I-250000J0D01*
G01*
G37*
%TD*%
%TO.C,C9*%
G36*
G01*
X85012500Y-39375000D02*
X85012500Y-38425000D01*
G75*
G02*
X85262500Y-38175000I250000J0D01*
G01*
X85937500Y-38175000D01*
G75*
G02*
X86187500Y-38425000I0J-250000D01*
G01*
X86187500Y-39375000D01*
G75*
G02*
X85937500Y-39625000I-250000J0D01*
G01*
X85262500Y-39625000D01*
G75*
G02*
X85012500Y-39375000I0J250000D01*
G01*
G37*
G36*
G01*
X82937500Y-39375000D02*
X82937500Y-38425000D01*
G75*
G02*
X83187500Y-38175000I250000J0D01*
G01*
X83862500Y-38175000D01*
G75*
G02*
X84112500Y-38425000I0J-250000D01*
G01*
X84112500Y-39375000D01*
G75*
G02*
X83862500Y-39625000I-250000J0D01*
G01*
X83187500Y-39625000D01*
G75*
G02*
X82937500Y-39375000I0J250000D01*
G01*
G37*
%TD*%
%TO.C,C8*%
G36*
G01*
X75225000Y-30012500D02*
X76175000Y-30012500D01*
G75*
G02*
X76425000Y-30262500I0J-250000D01*
G01*
X76425000Y-30937500D01*
G75*
G02*
X76175000Y-31187500I-250000J0D01*
G01*
X75225000Y-31187500D01*
G75*
G02*
X74975000Y-30937500I0J250000D01*
G01*
X74975000Y-30262500D01*
G75*
G02*
X75225000Y-30012500I250000J0D01*
G01*
G37*
G36*
G01*
X75225000Y-27937500D02*
X76175000Y-27937500D01*
G75*
G02*
X76425000Y-28187500I0J-250000D01*
G01*
X76425000Y-28862500D01*
G75*
G02*
X76175000Y-29112500I-250000J0D01*
G01*
X75225000Y-29112500D01*
G75*
G02*
X74975000Y-28862500I0J250000D01*
G01*
X74975000Y-28187500D01*
G75*
G02*
X75225000Y-27937500I250000J0D01*
G01*
G37*
%TD*%
%TO.C,C7*%
G36*
G01*
X85012500Y-41575000D02*
X85012500Y-40625000D01*
G75*
G02*
X85262500Y-40375000I250000J0D01*
G01*
X85937500Y-40375000D01*
G75*
G02*
X86187500Y-40625000I0J-250000D01*
G01*
X86187500Y-41575000D01*
G75*
G02*
X85937500Y-41825000I-250000J0D01*
G01*
X85262500Y-41825000D01*
G75*
G02*
X85012500Y-41575000I0J250000D01*
G01*
G37*
G36*
G01*
X82937500Y-41575000D02*
X82937500Y-40625000D01*
G75*
G02*
X83187500Y-40375000I250000J0D01*
G01*
X83862500Y-40375000D01*
G75*
G02*
X84112500Y-40625000I0J-250000D01*
G01*
X84112500Y-41575000D01*
G75*
G02*
X83862500Y-41825000I-250000J0D01*
G01*
X83187500Y-41825000D01*
G75*
G02*
X82937500Y-41575000I0J250000D01*
G01*
G37*
%TD*%
%TO.C,C6*%
G36*
G01*
X82087500Y-32325000D02*
X82087500Y-33275000D01*
G75*
G02*
X81837500Y-33525000I-250000J0D01*
G01*
X81162500Y-33525000D01*
G75*
G02*
X80912500Y-33275000I0J250000D01*
G01*
X80912500Y-32325000D01*
G75*
G02*
X81162500Y-32075000I250000J0D01*
G01*
X81837500Y-32075000D01*
G75*
G02*
X82087500Y-32325000I0J-250000D01*
G01*
G37*
G36*
G01*
X84162500Y-32325000D02*
X84162500Y-33275000D01*
G75*
G02*
X83912500Y-33525000I-250000J0D01*
G01*
X83237500Y-33525000D01*
G75*
G02*
X82987500Y-33275000I0J250000D01*
G01*
X82987500Y-32325000D01*
G75*
G02*
X83237500Y-32075000I250000J0D01*
G01*
X83912500Y-32075000D01*
G75*
G02*
X84162500Y-32325000I0J-250000D01*
G01*
G37*
%TD*%
%TO.C,C5*%
G36*
G01*
X82087500Y-46725000D02*
X82087500Y-47675000D01*
G75*
G02*
X81837500Y-47925000I-250000J0D01*
G01*
X81162500Y-47925000D01*
G75*
G02*
X80912500Y-47675000I0J250000D01*
G01*
X80912500Y-46725000D01*
G75*
G02*
X81162500Y-46475000I250000J0D01*
G01*
X81837500Y-46475000D01*
G75*
G02*
X82087500Y-46725000I0J-250000D01*
G01*
G37*
G36*
G01*
X84162500Y-46725000D02*
X84162500Y-47675000D01*
G75*
G02*
X83912500Y-47925000I-250000J0D01*
G01*
X83237500Y-47925000D01*
G75*
G02*
X82987500Y-47675000I0J250000D01*
G01*
X82987500Y-46725000D01*
G75*
G02*
X83237500Y-46475000I250000J0D01*
G01*
X83912500Y-46475000D01*
G75*
G02*
X84162500Y-46725000I0J-250000D01*
G01*
G37*
%TD*%
%TO.C,C4*%
G36*
G01*
X82087500Y-34456428D02*
X82087500Y-35406428D01*
G75*
G02*
X81837500Y-35656428I-250000J0D01*
G01*
X81162500Y-35656428D01*
G75*
G02*
X80912500Y-35406428I0J250000D01*
G01*
X80912500Y-34456428D01*
G75*
G02*
X81162500Y-34206428I250000J0D01*
G01*
X81837500Y-34206428D01*
G75*
G02*
X82087500Y-34456428I0J-250000D01*
G01*
G37*
G36*
G01*
X84162500Y-34456428D02*
X84162500Y-35406428D01*
G75*
G02*
X83912500Y-35656428I-250000J0D01*
G01*
X83237500Y-35656428D01*
G75*
G02*
X82987500Y-35406428I0J250000D01*
G01*
X82987500Y-34456428D01*
G75*
G02*
X83237500Y-34206428I250000J0D01*
G01*
X83912500Y-34206428D01*
G75*
G02*
X84162500Y-34456428I0J-250000D01*
G01*
G37*
%TD*%
%TO.C,C3*%
G36*
G01*
X82987500Y-45543568D02*
X82987500Y-44593568D01*
G75*
G02*
X83237500Y-44343568I250000J0D01*
G01*
X83912500Y-44343568D01*
G75*
G02*
X84162500Y-44593568I0J-250000D01*
G01*
X84162500Y-45543568D01*
G75*
G02*
X83912500Y-45793568I-250000J0D01*
G01*
X83237500Y-45793568D01*
G75*
G02*
X82987500Y-45543568I0J250000D01*
G01*
G37*
G36*
G01*
X80912500Y-45543568D02*
X80912500Y-44593568D01*
G75*
G02*
X81162500Y-44343568I250000J0D01*
G01*
X81837500Y-44343568D01*
G75*
G02*
X82087500Y-44593568I0J-250000D01*
G01*
X82087500Y-45543568D01*
G75*
G02*
X81837500Y-45793568I-250000J0D01*
G01*
X81162500Y-45793568D01*
G75*
G02*
X80912500Y-45543568I0J250000D01*
G01*
G37*
%TD*%
%TO.C,L2*%
G36*
G01*
X81912500Y-36582855D02*
X81912500Y-37282857D01*
G75*
G02*
X81662501Y-37532856I-249999J0D01*
G01*
X81112499Y-37532856D01*
G75*
G02*
X80862500Y-37282857I0J249999D01*
G01*
X80862500Y-36582855D01*
G75*
G02*
X81112499Y-36332856I249999J0D01*
G01*
X81662501Y-36332856D01*
G75*
G02*
X81912500Y-36582855I0J-249999D01*
G01*
G37*
G36*
G01*
X84212500Y-36582855D02*
X84212500Y-37282857D01*
G75*
G02*
X83962501Y-37532856I-249999J0D01*
G01*
X83412499Y-37532856D01*
G75*
G02*
X83162500Y-37282857I0J249999D01*
G01*
X83162500Y-36582855D01*
G75*
G02*
X83412499Y-36332856I249999J0D01*
G01*
X83962501Y-36332856D01*
G75*
G02*
X84212500Y-36582855I0J-249999D01*
G01*
G37*
%TD*%
%TO.C,L1*%
G36*
G01*
X83162500Y-43417141D02*
X83162500Y-42717139D01*
G75*
G02*
X83412499Y-42467140I249999J0D01*
G01*
X83962501Y-42467140D01*
G75*
G02*
X84212500Y-42717139I0J-249999D01*
G01*
X84212500Y-43417141D01*
G75*
G02*
X83962501Y-43667140I-249999J0D01*
G01*
X83412499Y-43667140D01*
G75*
G02*
X83162500Y-43417141I0J249999D01*
G01*
G37*
G36*
G01*
X80862500Y-43417141D02*
X80862500Y-42717139D01*
G75*
G02*
X81112499Y-42467140I249999J0D01*
G01*
X81662501Y-42467140D01*
G75*
G02*
X81912500Y-42717139I0J-249999D01*
G01*
X81912500Y-43417141D01*
G75*
G02*
X81662501Y-43667140I-249999J0D01*
G01*
X81112499Y-43667140D01*
G75*
G02*
X80862500Y-43417141I0J249999D01*
G01*
G37*
%TD*%
%TO.C,C2*%
G36*
G01*
X85025000Y-32450000D02*
X85975000Y-32450000D01*
G75*
G02*
X86225000Y-32700000I0J-250000D01*
G01*
X86225000Y-33375000D01*
G75*
G02*
X85975000Y-33625000I-250000J0D01*
G01*
X85025000Y-33625000D01*
G75*
G02*
X84775000Y-33375000I0J250000D01*
G01*
X84775000Y-32700000D01*
G75*
G02*
X85025000Y-32450000I250000J0D01*
G01*
G37*
G36*
G01*
X85025000Y-30375000D02*
X85975000Y-30375000D01*
G75*
G02*
X86225000Y-30625000I0J-250000D01*
G01*
X86225000Y-31300000D01*
G75*
G02*
X85975000Y-31550000I-250000J0D01*
G01*
X85025000Y-31550000D01*
G75*
G02*
X84775000Y-31300000I0J250000D01*
G01*
X84775000Y-30625000D01*
G75*
G02*
X85025000Y-30375000I250000J0D01*
G01*
G37*
%TD*%
%TO.C,C1*%
G36*
G01*
X85025000Y-48450000D02*
X85975000Y-48450000D01*
G75*
G02*
X86225000Y-48700000I0J-250000D01*
G01*
X86225000Y-49375000D01*
G75*
G02*
X85975000Y-49625000I-250000J0D01*
G01*
X85025000Y-49625000D01*
G75*
G02*
X84775000Y-49375000I0J250000D01*
G01*
X84775000Y-48700000D01*
G75*
G02*
X85025000Y-48450000I250000J0D01*
G01*
G37*
G36*
G01*
X85025000Y-46375000D02*
X85975000Y-46375000D01*
G75*
G02*
X86225000Y-46625000I0J-250000D01*
G01*
X86225000Y-47300000D01*
G75*
G02*
X85975000Y-47550000I-250000J0D01*
G01*
X85025000Y-47550000D01*
G75*
G02*
X84775000Y-47300000I0J250000D01*
G01*
X84775000Y-46625000D01*
G75*
G02*
X85025000Y-46375000I250000J0D01*
G01*
G37*
%TD*%
%TO.C,R10*%
G36*
G01*
X70000000Y-36750001D02*
X70000000Y-35849999D01*
G75*
G02*
X70249999Y-35600000I249999J0D01*
G01*
X70950001Y-35600000D01*
G75*
G02*
X71200000Y-35849999I0J-249999D01*
G01*
X71200000Y-36750001D01*
G75*
G02*
X70950001Y-37000000I-249999J0D01*
G01*
X70249999Y-37000000D01*
G75*
G02*
X70000000Y-36750001I0J249999D01*
G01*
G37*
G36*
G01*
X68000000Y-36750001D02*
X68000000Y-35849999D01*
G75*
G02*
X68249999Y-35600000I249999J0D01*
G01*
X68950001Y-35600000D01*
G75*
G02*
X69200000Y-35849999I0J-249999D01*
G01*
X69200000Y-36750001D01*
G75*
G02*
X68950001Y-37000000I-249999J0D01*
G01*
X68249999Y-37000000D01*
G75*
G02*
X68000000Y-36750001I0J249999D01*
G01*
G37*
%TD*%
%TO.C,R9*%
G36*
G01*
X63650000Y-37049999D02*
X63650000Y-37950001D01*
G75*
G02*
X63400001Y-38200000I-249999J0D01*
G01*
X62699999Y-38200000D01*
G75*
G02*
X62450000Y-37950001I0J249999D01*
G01*
X62450000Y-37049999D01*
G75*
G02*
X62699999Y-36800000I249999J0D01*
G01*
X63400001Y-36800000D01*
G75*
G02*
X63650000Y-37049999I0J-249999D01*
G01*
G37*
G36*
G01*
X65650000Y-37049999D02*
X65650000Y-37950001D01*
G75*
G02*
X65400001Y-38200000I-249999J0D01*
G01*
X64699999Y-38200000D01*
G75*
G02*
X64450000Y-37950001I0J249999D01*
G01*
X64450000Y-37049999D01*
G75*
G02*
X64699999Y-36800000I249999J0D01*
G01*
X65400001Y-36800000D01*
G75*
G02*
X65650000Y-37049999I0J-249999D01*
G01*
G37*
%TD*%
%TO.C,R8*%
G36*
G01*
X63650000Y-34749999D02*
X63650000Y-35650001D01*
G75*
G02*
X63400001Y-35900000I-249999J0D01*
G01*
X62699999Y-35900000D01*
G75*
G02*
X62450000Y-35650001I0J249999D01*
G01*
X62450000Y-34749999D01*
G75*
G02*
X62699999Y-34500000I249999J0D01*
G01*
X63400001Y-34500000D01*
G75*
G02*
X63650000Y-34749999I0J-249999D01*
G01*
G37*
G36*
G01*
X65650000Y-34749999D02*
X65650000Y-35650001D01*
G75*
G02*
X65400001Y-35900000I-249999J0D01*
G01*
X64699999Y-35900000D01*
G75*
G02*
X64450000Y-35650001I0J249999D01*
G01*
X64450000Y-34749999D01*
G75*
G02*
X64699999Y-34500000I249999J0D01*
G01*
X65400001Y-34500000D01*
G75*
G02*
X65650000Y-34749999I0J-249999D01*
G01*
G37*
%TD*%
%TO.C,R7*%
G36*
G01*
X63650000Y-32449999D02*
X63650000Y-33350001D01*
G75*
G02*
X63400001Y-33600000I-249999J0D01*
G01*
X62699999Y-33600000D01*
G75*
G02*
X62450000Y-33350001I0J249999D01*
G01*
X62450000Y-32449999D01*
G75*
G02*
X62699999Y-32200000I249999J0D01*
G01*
X63400001Y-32200000D01*
G75*
G02*
X63650000Y-32449999I0J-249999D01*
G01*
G37*
G36*
G01*
X65650000Y-32449999D02*
X65650000Y-33350001D01*
G75*
G02*
X65400001Y-33600000I-249999J0D01*
G01*
X64699999Y-33600000D01*
G75*
G02*
X64450000Y-33350001I0J249999D01*
G01*
X64450000Y-32449999D01*
G75*
G02*
X64699999Y-32200000I249999J0D01*
G01*
X65400001Y-32200000D01*
G75*
G02*
X65650000Y-32449999I0J-249999D01*
G01*
G37*
%TD*%
%TO.C,R6*%
G36*
G01*
X63350001Y-44700000D02*
X62449999Y-44700000D01*
G75*
G02*
X62200000Y-44450001I0J249999D01*
G01*
X62200000Y-43749999D01*
G75*
G02*
X62449999Y-43500000I249999J0D01*
G01*
X63350001Y-43500000D01*
G75*
G02*
X63600000Y-43749999I0J-249999D01*
G01*
X63600000Y-44450001D01*
G75*
G02*
X63350001Y-44700000I-249999J0D01*
G01*
G37*
G36*
G01*
X63350001Y-46700000D02*
X62449999Y-46700000D01*
G75*
G02*
X62200000Y-46450001I0J249999D01*
G01*
X62200000Y-45749999D01*
G75*
G02*
X62449999Y-45500000I249999J0D01*
G01*
X63350001Y-45500000D01*
G75*
G02*
X63600000Y-45749999I0J-249999D01*
G01*
X63600000Y-46450001D01*
G75*
G02*
X63350001Y-46700000I-249999J0D01*
G01*
G37*
%TD*%
%TO.C,R5*%
G36*
G01*
X64449999Y-45500000D02*
X65350001Y-45500000D01*
G75*
G02*
X65600000Y-45749999I0J-249999D01*
G01*
X65600000Y-46450001D01*
G75*
G02*
X65350001Y-46700000I-249999J0D01*
G01*
X64449999Y-46700000D01*
G75*
G02*
X64200000Y-46450001I0J249999D01*
G01*
X64200000Y-45749999D01*
G75*
G02*
X64449999Y-45500000I249999J0D01*
G01*
G37*
G36*
G01*
X64449999Y-43500000D02*
X65350001Y-43500000D01*
G75*
G02*
X65600000Y-43749999I0J-249999D01*
G01*
X65600000Y-44450001D01*
G75*
G02*
X65350001Y-44700000I-249999J0D01*
G01*
X64449999Y-44700000D01*
G75*
G02*
X64200000Y-44450001I0J249999D01*
G01*
X64200000Y-43749999D01*
G75*
G02*
X64449999Y-43500000I249999J0D01*
G01*
G37*
%TD*%
%TO.C,R3*%
G36*
G01*
X77249999Y-30000000D02*
X78150001Y-30000000D01*
G75*
G02*
X78400000Y-30249999I0J-249999D01*
G01*
X78400000Y-30950001D01*
G75*
G02*
X78150001Y-31200000I-249999J0D01*
G01*
X77249999Y-31200000D01*
G75*
G02*
X77000000Y-30950001I0J249999D01*
G01*
X77000000Y-30249999D01*
G75*
G02*
X77249999Y-30000000I249999J0D01*
G01*
G37*
G36*
G01*
X77249999Y-28000000D02*
X78150001Y-28000000D01*
G75*
G02*
X78400000Y-28249999I0J-249999D01*
G01*
X78400000Y-28950001D01*
G75*
G02*
X78150001Y-29200000I-249999J0D01*
G01*
X77249999Y-29200000D01*
G75*
G02*
X77000000Y-28950001I0J249999D01*
G01*
X77000000Y-28249999D01*
G75*
G02*
X77249999Y-28000000I249999J0D01*
G01*
G37*
%TD*%
%TO.C,R2*%
G36*
G01*
X85049999Y-36400000D02*
X85950001Y-36400000D01*
G75*
G02*
X86200000Y-36649999I0J-249999D01*
G01*
X86200000Y-37350001D01*
G75*
G02*
X85950001Y-37600000I-249999J0D01*
G01*
X85049999Y-37600000D01*
G75*
G02*
X84800000Y-37350001I0J249999D01*
G01*
X84800000Y-36649999D01*
G75*
G02*
X85049999Y-36400000I249999J0D01*
G01*
G37*
G36*
G01*
X85049999Y-34400000D02*
X85950001Y-34400000D01*
G75*
G02*
X86200000Y-34649999I0J-249999D01*
G01*
X86200000Y-35350001D01*
G75*
G02*
X85950001Y-35600000I-249999J0D01*
G01*
X85049999Y-35600000D01*
G75*
G02*
X84800000Y-35350001I0J249999D01*
G01*
X84800000Y-34649999D01*
G75*
G02*
X85049999Y-34400000I249999J0D01*
G01*
G37*
%TD*%
%TO.C,R1*%
G36*
G01*
X85950001Y-43600000D02*
X85049999Y-43600000D01*
G75*
G02*
X84800000Y-43350001I0J249999D01*
G01*
X84800000Y-42649999D01*
G75*
G02*
X85049999Y-42400000I249999J0D01*
G01*
X85950001Y-42400000D01*
G75*
G02*
X86200000Y-42649999I0J-249999D01*
G01*
X86200000Y-43350001D01*
G75*
G02*
X85950001Y-43600000I-249999J0D01*
G01*
G37*
G36*
G01*
X85950001Y-45600000D02*
X85049999Y-45600000D01*
G75*
G02*
X84800000Y-45350001I0J249999D01*
G01*
X84800000Y-44649999D01*
G75*
G02*
X85049999Y-44400000I249999J0D01*
G01*
X85950001Y-44400000D01*
G75*
G02*
X86200000Y-44649999I0J-249999D01*
G01*
X86200000Y-45350001D01*
G75*
G02*
X85950001Y-45600000I-249999J0D01*
G01*
G37*
%TD*%
D10*
%TO.C,J1*%
X73810000Y-52000000D03*
X71270000Y-52000000D03*
X68730000Y-52000000D03*
D11*
X66190000Y-52000000D03*
%TD*%
D16*
%TO.C,D3*%
X59270000Y-40000000D03*
D17*
X56730000Y-40000000D03*
%TD*%
D18*
%TO.C,SW1*%
X66750000Y-30250000D03*
X66750000Y-25750000D03*
X73250000Y-30250000D03*
X73250000Y-25750000D03*
%TD*%
D19*
%TO.C,U1*%
X76025000Y-39725000D03*
X77525000Y-38225000D03*
X74525000Y-38225000D03*
X74525000Y-41225000D03*
X77525000Y-41225000D03*
D20*
X79025000Y-42725000D03*
D21*
X79025000Y-42725000D03*
X73025000Y-42725000D03*
X73025000Y-36725000D03*
X79025000Y-36725000D03*
D22*
X76025000Y-39725000D03*
G36*
G01*
X78400000Y-42312500D02*
X78400000Y-43187500D01*
G75*
G02*
X78337500Y-43250000I-62500J0D01*
G01*
X78212500Y-43250000D01*
G75*
G02*
X78150000Y-43187500I0J62500D01*
G01*
X78150000Y-42312500D01*
G75*
G02*
X78212500Y-42250000I62500J0D01*
G01*
X78337500Y-42250000D01*
G75*
G02*
X78400000Y-42312500I0J-62500D01*
G01*
G37*
G36*
G01*
X77900000Y-42312500D02*
X77900000Y-43187500D01*
G75*
G02*
X77837500Y-43250000I-62500J0D01*
G01*
X77712500Y-43250000D01*
G75*
G02*
X77650000Y-43187500I0J62500D01*
G01*
X77650000Y-42312500D01*
G75*
G02*
X77712500Y-42250000I62500J0D01*
G01*
X77837500Y-42250000D01*
G75*
G02*
X77900000Y-42312500I0J-62500D01*
G01*
G37*
G36*
G01*
X77400000Y-42312500D02*
X77400000Y-43187500D01*
G75*
G02*
X77337500Y-43250000I-62500J0D01*
G01*
X77212500Y-43250000D01*
G75*
G02*
X77150000Y-43187500I0J62500D01*
G01*
X77150000Y-42312500D01*
G75*
G02*
X77212500Y-42250000I62500J0D01*
G01*
X77337500Y-42250000D01*
G75*
G02*
X77400000Y-42312500I0J-62500D01*
G01*
G37*
G36*
G01*
X76900000Y-42312500D02*
X76900000Y-43187500D01*
G75*
G02*
X76837500Y-43250000I-62500J0D01*
G01*
X76712500Y-43250000D01*
G75*
G02*
X76650000Y-43187500I0J62500D01*
G01*
X76650000Y-42312500D01*
G75*
G02*
X76712500Y-42250000I62500J0D01*
G01*
X76837500Y-42250000D01*
G75*
G02*
X76900000Y-42312500I0J-62500D01*
G01*
G37*
G36*
G01*
X76400000Y-42312500D02*
X76400000Y-43187500D01*
G75*
G02*
X76337500Y-43250000I-62500J0D01*
G01*
X76212500Y-43250000D01*
G75*
G02*
X76150000Y-43187500I0J62500D01*
G01*
X76150000Y-42312500D01*
G75*
G02*
X76212500Y-42250000I62500J0D01*
G01*
X76337500Y-42250000D01*
G75*
G02*
X76400000Y-42312500I0J-62500D01*
G01*
G37*
G36*
G01*
X75900000Y-42312500D02*
X75900000Y-43187500D01*
G75*
G02*
X75837500Y-43250000I-62500J0D01*
G01*
X75712500Y-43250000D01*
G75*
G02*
X75650000Y-43187500I0J62500D01*
G01*
X75650000Y-42312500D01*
G75*
G02*
X75712500Y-42250000I62500J0D01*
G01*
X75837500Y-42250000D01*
G75*
G02*
X75900000Y-42312500I0J-62500D01*
G01*
G37*
G36*
G01*
X75400000Y-42312500D02*
X75400000Y-43187500D01*
G75*
G02*
X75337500Y-43250000I-62500J0D01*
G01*
X75212500Y-43250000D01*
G75*
G02*
X75150000Y-43187500I0J62500D01*
G01*
X75150000Y-42312500D01*
G75*
G02*
X75212500Y-42250000I62500J0D01*
G01*
X75337500Y-42250000D01*
G75*
G02*
X75400000Y-42312500I0J-62500D01*
G01*
G37*
G36*
G01*
X74900000Y-42312500D02*
X74900000Y-43187500D01*
G75*
G02*
X74837500Y-43250000I-62500J0D01*
G01*
X74712500Y-43250000D01*
G75*
G02*
X74650000Y-43187500I0J62500D01*
G01*
X74650000Y-42312500D01*
G75*
G02*
X74712500Y-42250000I62500J0D01*
G01*
X74837500Y-42250000D01*
G75*
G02*
X74900000Y-42312500I0J-62500D01*
G01*
G37*
G36*
G01*
X74400000Y-42312500D02*
X74400000Y-43187500D01*
G75*
G02*
X74337500Y-43250000I-62500J0D01*
G01*
X74212500Y-43250000D01*
G75*
G02*
X74150000Y-43187500I0J62500D01*
G01*
X74150000Y-42312500D01*
G75*
G02*
X74212500Y-42250000I62500J0D01*
G01*
X74337500Y-42250000D01*
G75*
G02*
X74400000Y-42312500I0J-62500D01*
G01*
G37*
G36*
G01*
X73900000Y-42312500D02*
X73900000Y-43187500D01*
G75*
G02*
X73837500Y-43250000I-62500J0D01*
G01*
X73712500Y-43250000D01*
G75*
G02*
X73650000Y-43187500I0J62500D01*
G01*
X73650000Y-42312500D01*
G75*
G02*
X73712500Y-42250000I62500J0D01*
G01*
X73837500Y-42250000D01*
G75*
G02*
X73900000Y-42312500I0J-62500D01*
G01*
G37*
G36*
G01*
X73500000Y-41912500D02*
X73500000Y-42037500D01*
G75*
G02*
X73437500Y-42100000I-62500J0D01*
G01*
X72562500Y-42100000D01*
G75*
G02*
X72500000Y-42037500I0J62500D01*
G01*
X72500000Y-41912500D01*
G75*
G02*
X72562500Y-41850000I62500J0D01*
G01*
X73437500Y-41850000D01*
G75*
G02*
X73500000Y-41912500I0J-62500D01*
G01*
G37*
G36*
G01*
X73500000Y-41412500D02*
X73500000Y-41537500D01*
G75*
G02*
X73437500Y-41600000I-62500J0D01*
G01*
X72562500Y-41600000D01*
G75*
G02*
X72500000Y-41537500I0J62500D01*
G01*
X72500000Y-41412500D01*
G75*
G02*
X72562500Y-41350000I62500J0D01*
G01*
X73437500Y-41350000D01*
G75*
G02*
X73500000Y-41412500I0J-62500D01*
G01*
G37*
G36*
G01*
X73500000Y-40912500D02*
X73500000Y-41037500D01*
G75*
G02*
X73437500Y-41100000I-62500J0D01*
G01*
X72562500Y-41100000D01*
G75*
G02*
X72500000Y-41037500I0J62500D01*
G01*
X72500000Y-40912500D01*
G75*
G02*
X72562500Y-40850000I62500J0D01*
G01*
X73437500Y-40850000D01*
G75*
G02*
X73500000Y-40912500I0J-62500D01*
G01*
G37*
G36*
G01*
X73500000Y-40412500D02*
X73500000Y-40537500D01*
G75*
G02*
X73437500Y-40600000I-62500J0D01*
G01*
X72562500Y-40600000D01*
G75*
G02*
X72500000Y-40537500I0J62500D01*
G01*
X72500000Y-40412500D01*
G75*
G02*
X72562500Y-40350000I62500J0D01*
G01*
X73437500Y-40350000D01*
G75*
G02*
X73500000Y-40412500I0J-62500D01*
G01*
G37*
G36*
G01*
X73500000Y-39912500D02*
X73500000Y-40037500D01*
G75*
G02*
X73437500Y-40100000I-62500J0D01*
G01*
X72562500Y-40100000D01*
G75*
G02*
X72500000Y-40037500I0J62500D01*
G01*
X72500000Y-39912500D01*
G75*
G02*
X72562500Y-39850000I62500J0D01*
G01*
X73437500Y-39850000D01*
G75*
G02*
X73500000Y-39912500I0J-62500D01*
G01*
G37*
G36*
G01*
X73500000Y-39412500D02*
X73500000Y-39537500D01*
G75*
G02*
X73437500Y-39600000I-62500J0D01*
G01*
X72562500Y-39600000D01*
G75*
G02*
X72500000Y-39537500I0J62500D01*
G01*
X72500000Y-39412500D01*
G75*
G02*
X72562500Y-39350000I62500J0D01*
G01*
X73437500Y-39350000D01*
G75*
G02*
X73500000Y-39412500I0J-62500D01*
G01*
G37*
G36*
G01*
X73500000Y-38912500D02*
X73500000Y-39037500D01*
G75*
G02*
X73437500Y-39100000I-62500J0D01*
G01*
X72562500Y-39100000D01*
G75*
G02*
X72500000Y-39037500I0J62500D01*
G01*
X72500000Y-38912500D01*
G75*
G02*
X72562500Y-38850000I62500J0D01*
G01*
X73437500Y-38850000D01*
G75*
G02*
X73500000Y-38912500I0J-62500D01*
G01*
G37*
G36*
G01*
X73500000Y-38412500D02*
X73500000Y-38537500D01*
G75*
G02*
X73437500Y-38600000I-62500J0D01*
G01*
X72562500Y-38600000D01*
G75*
G02*
X72500000Y-38537500I0J62500D01*
G01*
X72500000Y-38412500D01*
G75*
G02*
X72562500Y-38350000I62500J0D01*
G01*
X73437500Y-38350000D01*
G75*
G02*
X73500000Y-38412500I0J-62500D01*
G01*
G37*
G36*
G01*
X73500000Y-37912500D02*
X73500000Y-38037500D01*
G75*
G02*
X73437500Y-38100000I-62500J0D01*
G01*
X72562500Y-38100000D01*
G75*
G02*
X72500000Y-38037500I0J62500D01*
G01*
X72500000Y-37912500D01*
G75*
G02*
X72562500Y-37850000I62500J0D01*
G01*
X73437500Y-37850000D01*
G75*
G02*
X73500000Y-37912500I0J-62500D01*
G01*
G37*
G36*
G01*
X73500000Y-37412500D02*
X73500000Y-37537500D01*
G75*
G02*
X73437500Y-37600000I-62500J0D01*
G01*
X72562500Y-37600000D01*
G75*
G02*
X72500000Y-37537500I0J62500D01*
G01*
X72500000Y-37412500D01*
G75*
G02*
X72562500Y-37350000I62500J0D01*
G01*
X73437500Y-37350000D01*
G75*
G02*
X73500000Y-37412500I0J-62500D01*
G01*
G37*
G36*
G01*
X73900000Y-36262500D02*
X73900000Y-37137500D01*
G75*
G02*
X73837500Y-37200000I-62500J0D01*
G01*
X73712500Y-37200000D01*
G75*
G02*
X73650000Y-37137500I0J62500D01*
G01*
X73650000Y-36262500D01*
G75*
G02*
X73712500Y-36200000I62500J0D01*
G01*
X73837500Y-36200000D01*
G75*
G02*
X73900000Y-36262500I0J-62500D01*
G01*
G37*
G36*
G01*
X74400000Y-36262500D02*
X74400000Y-37137500D01*
G75*
G02*
X74337500Y-37200000I-62500J0D01*
G01*
X74212500Y-37200000D01*
G75*
G02*
X74150000Y-37137500I0J62500D01*
G01*
X74150000Y-36262500D01*
G75*
G02*
X74212500Y-36200000I62500J0D01*
G01*
X74337500Y-36200000D01*
G75*
G02*
X74400000Y-36262500I0J-62500D01*
G01*
G37*
G36*
G01*
X74900000Y-36262500D02*
X74900000Y-37137500D01*
G75*
G02*
X74837500Y-37200000I-62500J0D01*
G01*
X74712500Y-37200000D01*
G75*
G02*
X74650000Y-37137500I0J62500D01*
G01*
X74650000Y-36262500D01*
G75*
G02*
X74712500Y-36200000I62500J0D01*
G01*
X74837500Y-36200000D01*
G75*
G02*
X74900000Y-36262500I0J-62500D01*
G01*
G37*
G36*
G01*
X75400000Y-36262500D02*
X75400000Y-37137500D01*
G75*
G02*
X75337500Y-37200000I-62500J0D01*
G01*
X75212500Y-37200000D01*
G75*
G02*
X75150000Y-37137500I0J62500D01*
G01*
X75150000Y-36262500D01*
G75*
G02*
X75212500Y-36200000I62500J0D01*
G01*
X75337500Y-36200000D01*
G75*
G02*
X75400000Y-36262500I0J-62500D01*
G01*
G37*
G36*
G01*
X75900000Y-36262500D02*
X75900000Y-37137500D01*
G75*
G02*
X75837500Y-37200000I-62500J0D01*
G01*
X75712500Y-37200000D01*
G75*
G02*
X75650000Y-37137500I0J62500D01*
G01*
X75650000Y-36262500D01*
G75*
G02*
X75712500Y-36200000I62500J0D01*
G01*
X75837500Y-36200000D01*
G75*
G02*
X75900000Y-36262500I0J-62500D01*
G01*
G37*
G36*
G01*
X76400000Y-36262500D02*
X76400000Y-37137500D01*
G75*
G02*
X76337500Y-37200000I-62500J0D01*
G01*
X76212500Y-37200000D01*
G75*
G02*
X76150000Y-37137500I0J62500D01*
G01*
X76150000Y-36262500D01*
G75*
G02*
X76212500Y-36200000I62500J0D01*
G01*
X76337500Y-36200000D01*
G75*
G02*
X76400000Y-36262500I0J-62500D01*
G01*
G37*
G36*
G01*
X76900000Y-36262500D02*
X76900000Y-37137500D01*
G75*
G02*
X76837500Y-37200000I-62500J0D01*
G01*
X76712500Y-37200000D01*
G75*
G02*
X76650000Y-37137500I0J62500D01*
G01*
X76650000Y-36262500D01*
G75*
G02*
X76712500Y-36200000I62500J0D01*
G01*
X76837500Y-36200000D01*
G75*
G02*
X76900000Y-36262500I0J-62500D01*
G01*
G37*
G36*
G01*
X77400000Y-36262500D02*
X77400000Y-37137500D01*
G75*
G02*
X77337500Y-37200000I-62500J0D01*
G01*
X77212500Y-37200000D01*
G75*
G02*
X77150000Y-37137500I0J62500D01*
G01*
X77150000Y-36262500D01*
G75*
G02*
X77212500Y-36200000I62500J0D01*
G01*
X77337500Y-36200000D01*
G75*
G02*
X77400000Y-36262500I0J-62500D01*
G01*
G37*
G36*
G01*
X77900000Y-36262500D02*
X77900000Y-37137500D01*
G75*
G02*
X77837500Y-37200000I-62500J0D01*
G01*
X77712500Y-37200000D01*
G75*
G02*
X77650000Y-37137500I0J62500D01*
G01*
X77650000Y-36262500D01*
G75*
G02*
X77712500Y-36200000I62500J0D01*
G01*
X77837500Y-36200000D01*
G75*
G02*
X77900000Y-36262500I0J-62500D01*
G01*
G37*
G36*
G01*
X78400000Y-36262500D02*
X78400000Y-37137500D01*
G75*
G02*
X78337500Y-37200000I-62500J0D01*
G01*
X78212500Y-37200000D01*
G75*
G02*
X78150000Y-37137500I0J62500D01*
G01*
X78150000Y-36262500D01*
G75*
G02*
X78212500Y-36200000I62500J0D01*
G01*
X78337500Y-36200000D01*
G75*
G02*
X78400000Y-36262500I0J-62500D01*
G01*
G37*
G36*
G01*
X79550000Y-37412500D02*
X79550000Y-37537500D01*
G75*
G02*
X79487500Y-37600000I-62500J0D01*
G01*
X78612500Y-37600000D01*
G75*
G02*
X78550000Y-37537500I0J62500D01*
G01*
X78550000Y-37412500D01*
G75*
G02*
X78612500Y-37350000I62500J0D01*
G01*
X79487500Y-37350000D01*
G75*
G02*
X79550000Y-37412500I0J-62500D01*
G01*
G37*
G36*
G01*
X79550000Y-37912500D02*
X79550000Y-38037500D01*
G75*
G02*
X79487500Y-38100000I-62500J0D01*
G01*
X78612500Y-38100000D01*
G75*
G02*
X78550000Y-38037500I0J62500D01*
G01*
X78550000Y-37912500D01*
G75*
G02*
X78612500Y-37850000I62500J0D01*
G01*
X79487500Y-37850000D01*
G75*
G02*
X79550000Y-37912500I0J-62500D01*
G01*
G37*
G36*
G01*
X79550000Y-38412500D02*
X79550000Y-38537500D01*
G75*
G02*
X79487500Y-38600000I-62500J0D01*
G01*
X78612500Y-38600000D01*
G75*
G02*
X78550000Y-38537500I0J62500D01*
G01*
X78550000Y-38412500D01*
G75*
G02*
X78612500Y-38350000I62500J0D01*
G01*
X79487500Y-38350000D01*
G75*
G02*
X79550000Y-38412500I0J-62500D01*
G01*
G37*
G36*
G01*
X79550000Y-38912500D02*
X79550000Y-39037500D01*
G75*
G02*
X79487500Y-39100000I-62500J0D01*
G01*
X78612500Y-39100000D01*
G75*
G02*
X78550000Y-39037500I0J62500D01*
G01*
X78550000Y-38912500D01*
G75*
G02*
X78612500Y-38850000I62500J0D01*
G01*
X79487500Y-38850000D01*
G75*
G02*
X79550000Y-38912500I0J-62500D01*
G01*
G37*
G36*
G01*
X79550000Y-39412500D02*
X79550000Y-39537500D01*
G75*
G02*
X79487500Y-39600000I-62500J0D01*
G01*
X78612500Y-39600000D01*
G75*
G02*
X78550000Y-39537500I0J62500D01*
G01*
X78550000Y-39412500D01*
G75*
G02*
X78612500Y-39350000I62500J0D01*
G01*
X79487500Y-39350000D01*
G75*
G02*
X79550000Y-39412500I0J-62500D01*
G01*
G37*
G36*
G01*
X79550000Y-39912500D02*
X79550000Y-40037500D01*
G75*
G02*
X79487500Y-40100000I-62500J0D01*
G01*
X78612500Y-40100000D01*
G75*
G02*
X78550000Y-40037500I0J62500D01*
G01*
X78550000Y-39912500D01*
G75*
G02*
X78612500Y-39850000I62500J0D01*
G01*
X79487500Y-39850000D01*
G75*
G02*
X79550000Y-39912500I0J-62500D01*
G01*
G37*
G36*
G01*
X79550000Y-40412500D02*
X79550000Y-40537500D01*
G75*
G02*
X79487500Y-40600000I-62500J0D01*
G01*
X78612500Y-40600000D01*
G75*
G02*
X78550000Y-40537500I0J62500D01*
G01*
X78550000Y-40412500D01*
G75*
G02*
X78612500Y-40350000I62500J0D01*
G01*
X79487500Y-40350000D01*
G75*
G02*
X79550000Y-40412500I0J-62500D01*
G01*
G37*
G36*
G01*
X79550000Y-40912500D02*
X79550000Y-41037500D01*
G75*
G02*
X79487500Y-41100000I-62500J0D01*
G01*
X78612500Y-41100000D01*
G75*
G02*
X78550000Y-41037500I0J62500D01*
G01*
X78550000Y-40912500D01*
G75*
G02*
X78612500Y-40850000I62500J0D01*
G01*
X79487500Y-40850000D01*
G75*
G02*
X79550000Y-40912500I0J-62500D01*
G01*
G37*
G36*
G01*
X79550000Y-41412500D02*
X79550000Y-41537500D01*
G75*
G02*
X79487500Y-41600000I-62500J0D01*
G01*
X78612500Y-41600000D01*
G75*
G02*
X78550000Y-41537500I0J62500D01*
G01*
X78550000Y-41412500D01*
G75*
G02*
X78612500Y-41350000I62500J0D01*
G01*
X79487500Y-41350000D01*
G75*
G02*
X79550000Y-41412500I0J-62500D01*
G01*
G37*
G36*
G01*
X79550000Y-41912500D02*
X79550000Y-42037500D01*
G75*
G02*
X79487500Y-42100000I-62500J0D01*
G01*
X78612500Y-42100000D01*
G75*
G02*
X78550000Y-42037500I0J62500D01*
G01*
X78550000Y-41912500D01*
G75*
G02*
X78612500Y-41850000I62500J0D01*
G01*
X79487500Y-41850000D01*
G75*
G02*
X79550000Y-41912500I0J-62500D01*
G01*
G37*
%TD*%
D23*
%TO.C,J3*%
X69000000Y-39000000D03*
X71000000Y-39000000D03*
X69000000Y-41000000D03*
D24*
X71000000Y-41000000D03*
%TD*%
D16*
%TO.C,D1*%
X59270000Y-28000000D03*
D17*
X56730000Y-28000000D03*
%TD*%
D16*
%TO.C,D2*%
X59270000Y-34000000D03*
D17*
X56730000Y-34000000D03*
%TD*%
D25*
%TO.C,Y1*%
X75500000Y-32325000D03*
X75500000Y-33925000D03*
X72800000Y-33925000D03*
X72800000Y-32325000D03*
%TD*%
M02*
