%TF.GenerationSoftware,KiCad,Pcbnew,(6.0.5-0)*%
%TF.CreationDate,2022-07-08T15:31:12+01:00*%
%TF.ProjectId,PN532-Round,504e3533-322d-4526-9f75-6e642e6b6963,7*%
%TF.SameCoordinates,Original*%
%TF.FileFunction,Legend,Top*%
%TF.FilePolarity,Positive*%
%FSLAX46Y46*%
G04 Gerber Fmt 4.6, Leading zero omitted, Abs format (unit mm)*
G04 Created by KiCad (PCBNEW (6.0.5-0)) date 2022-07-08 15:31:12*
%MOMM*%
%LPD*%
G01*
G04 APERTURE LIST*
%ADD10C,0.120000*%
%ADD11C,0.100000*%
%ADD12C,0.150000*%
%ADD13C,0.400000*%
G04 APERTURE END LIST*
D10*
X101749999Y-86810001D02*
G75*
G03*
X98250001Y-86810001I-1749999J-1750000D01*
G01*
X101249999Y-87310001D02*
G75*
G03*
X98750001Y-87310001I-1249999J-1249997D01*
G01*
X101999999Y-86560001D02*
G75*
G03*
X98000001Y-86560001I-1999999J-1999998D01*
G01*
X101499999Y-87060001D02*
G75*
G03*
X98500001Y-87060001I-1499999J-1499999D01*
G01*
D11*
X95539761Y-100686190D02*
X95539761Y-100186190D01*
X95754047Y-100233809D02*
X95777857Y-100210000D01*
X95825476Y-100186190D01*
X95944523Y-100186190D01*
X95992142Y-100210000D01*
X96015952Y-100233809D01*
X96039761Y-100281428D01*
X96039761Y-100329047D01*
X96015952Y-100400476D01*
X95730238Y-100686190D01*
X96039761Y-100686190D01*
X96539761Y-100638571D02*
X96515952Y-100662380D01*
X96444523Y-100686190D01*
X96396904Y-100686190D01*
X96325476Y-100662380D01*
X96277857Y-100614761D01*
X96254047Y-100567142D01*
X96230238Y-100471904D01*
X96230238Y-100400476D01*
X96254047Y-100305238D01*
X96277857Y-100257619D01*
X96325476Y-100210000D01*
X96396904Y-100186190D01*
X96444523Y-100186190D01*
X96515952Y-100210000D01*
X96539761Y-100233809D01*
X92784047Y-103686190D02*
X92784047Y-103186190D01*
X92784047Y-103424285D02*
X93069761Y-103424285D01*
X93069761Y-103686190D02*
X93069761Y-103186190D01*
X93284047Y-103662380D02*
X93355476Y-103686190D01*
X93474523Y-103686190D01*
X93522142Y-103662380D01*
X93545952Y-103638571D01*
X93569761Y-103590952D01*
X93569761Y-103543333D01*
X93545952Y-103495714D01*
X93522142Y-103471904D01*
X93474523Y-103448095D01*
X93379285Y-103424285D01*
X93331666Y-103400476D01*
X93307857Y-103376666D01*
X93284047Y-103329047D01*
X93284047Y-103281428D01*
X93307857Y-103233809D01*
X93331666Y-103210000D01*
X93379285Y-103186190D01*
X93498333Y-103186190D01*
X93569761Y-103210000D01*
X93784047Y-103186190D02*
X93784047Y-103590952D01*
X93807857Y-103638571D01*
X93831666Y-103662380D01*
X93879285Y-103686190D01*
X93974523Y-103686190D01*
X94022142Y-103662380D01*
X94045952Y-103638571D01*
X94069761Y-103590952D01*
X94069761Y-103186190D01*
D12*
X101035714Y-108235595D02*
X101321428Y-108997500D01*
X101607142Y-108235595D01*
X103535714Y-104847500D02*
X103821428Y-104085595D01*
X104107142Y-104847500D01*
X96630952Y-108678571D02*
X95869047Y-108678571D01*
X99130952Y-104528571D02*
X98369047Y-104528571D01*
X98750000Y-104147619D02*
X98750000Y-104909523D01*
D13*
%TO.C,A1*%
X109037179Y-85411501D02*
X110732136Y-82936200D01*
X111675108Y-83581898D01*
X111830139Y-83861194D01*
X111867298Y-84059778D01*
X111823745Y-84376233D01*
X111581609Y-84729847D01*
X111302312Y-84884878D01*
X111103729Y-84922037D01*
X110787273Y-84878484D01*
X109844301Y-84232786D01*
X111178894Y-86975233D02*
X113244005Y-84799154D01*
X112422368Y-88155296D01*
X114487478Y-85979217D01*
X116435854Y-88333484D02*
X115568197Y-87198588D01*
X114346536Y-87952756D01*
X114546791Y-87979480D01*
X114833812Y-88119693D01*
X115267640Y-88687141D01*
X115327682Y-89000885D01*
X115300958Y-89201141D01*
X115160745Y-89488162D01*
X114593297Y-89921990D01*
X114279552Y-89982032D01*
X114079297Y-89955308D01*
X113792276Y-89815095D01*
X113358448Y-89247647D01*
X113298406Y-88933902D01*
X113325130Y-88733647D01*
X117261435Y-89570352D02*
X118141854Y-91205541D01*
X116661512Y-90866851D01*
X116864686Y-91244202D01*
X116874351Y-91563494D01*
X116816292Y-91757002D01*
X116632449Y-92018235D01*
X116003530Y-92356858D01*
X115684238Y-92366523D01*
X115490730Y-92308464D01*
X115229497Y-92124621D01*
X114823150Y-91369919D01*
X114813484Y-91050627D01*
X114871544Y-90857118D01*
X118470856Y-92660499D02*
X118652746Y-92748432D01*
X118881615Y-92971277D01*
X119116509Y-93645836D01*
X119075554Y-93962638D01*
X118987621Y-94144528D01*
X118764776Y-94373397D01*
X118494953Y-94467354D01*
X118043239Y-94473379D01*
X115860555Y-93418181D01*
X116471277Y-95172034D01*
X117125303Y-98844048D02*
X120124847Y-98791734D01*
X118696493Y-98816645D02*
X118726387Y-100530670D01*
X117155197Y-100558073D02*
X120154741Y-100505759D01*
X117234018Y-101587208D02*
X117032194Y-101991373D01*
X116931541Y-102698531D01*
X117032712Y-103001525D01*
X117154013Y-103163088D01*
X117416746Y-103344781D01*
X117699609Y-103385042D01*
X118002603Y-103283871D01*
X118164165Y-103162570D01*
X118345858Y-102899837D01*
X118567812Y-102354241D01*
X118749505Y-102091508D01*
X118911067Y-101970207D01*
X119214061Y-101869036D01*
X119496925Y-101909298D01*
X119759657Y-102090990D01*
X119880959Y-102252553D01*
X119982129Y-102555547D01*
X119881476Y-103262705D01*
X119679653Y-103666870D01*
X119495440Y-105137817D02*
X117175487Y-104419643D01*
X116860305Y-104471619D01*
X116681592Y-104565842D01*
X116460633Y-104796532D01*
X116291651Y-105342403D01*
X116343627Y-105657585D01*
X116437850Y-105836298D01*
X116668540Y-106057257D01*
X118988493Y-106775432D01*
X114470066Y-109231977D02*
X116915435Y-110969842D01*
X113477001Y-110629330D01*
X115922369Y-112367195D01*
X113047486Y-113422788D02*
X113748400Y-112709543D01*
X112627586Y-111608106D02*
X114767322Y-113710849D01*
X113766016Y-114729771D01*
X109594958Y-114579235D02*
X109625170Y-114379476D01*
X109885352Y-114010171D01*
X110115323Y-113840624D01*
X110545052Y-113701289D01*
X110944570Y-113761712D01*
X111229102Y-113906910D01*
X111683181Y-114282077D01*
X111937502Y-114627033D01*
X112161610Y-115171748D01*
X112216172Y-115486492D01*
X112155748Y-115886010D01*
X111895566Y-116255315D01*
X111665595Y-116424862D01*
X111235866Y-116564197D01*
X111036107Y-116533986D01*
X104472148Y-116575273D02*
X105868310Y-117620045D01*
X106100673Y-116039847D02*
X107037670Y-118889765D01*
X105951987Y-119246717D01*
X105635947Y-119200244D01*
X105455618Y-119109152D01*
X105230669Y-118882350D01*
X105096813Y-118475219D01*
X105143285Y-118159179D01*
X105234377Y-117978850D01*
X105461179Y-117753902D01*
X106546862Y-117396951D01*
X103594554Y-118377076D02*
X102607140Y-118535233D01*
X101935431Y-117051364D02*
X103346022Y-116825425D01*
X103820492Y-119787668D01*
X102409901Y-120013606D01*
X100714285Y-118000000D02*
X99285714Y-118000000D01*
X101000000Y-117142857D02*
X100000000Y-120142857D01*
X99000000Y-117142857D01*
X98064568Y-117051364D02*
X97590098Y-120013606D01*
X96884802Y-119900637D01*
X96484219Y-119691796D01*
X96247288Y-119364490D01*
X96151416Y-119059778D01*
X96100733Y-118472948D01*
X96168514Y-118049770D01*
X96399948Y-117508127D01*
X96586195Y-117248603D01*
X96913501Y-117011672D01*
X97359272Y-116938395D01*
X98064568Y-117051364D01*
X94765622Y-117978850D02*
X93815649Y-117666518D01*
X93899326Y-116039847D02*
X95256430Y-116486035D01*
X94319433Y-119335954D01*
X92962329Y-118889765D01*
X91312355Y-114807586D02*
X91545766Y-116535688D01*
X92835702Y-115593836D02*
X91459765Y-118259693D01*
X90444200Y-117735527D01*
X90255830Y-117477540D01*
X90194405Y-117285073D01*
X90198501Y-116965661D01*
X90395063Y-116584824D01*
X90653051Y-116396454D01*
X90845517Y-116335029D01*
X91164929Y-116339125D01*
X92180494Y-116863292D01*
X88323654Y-112576082D02*
X86183918Y-114678825D01*
X85382873Y-113863687D01*
X85284504Y-113559772D01*
X85286265Y-113357749D01*
X85389919Y-113055596D01*
X85695596Y-112755204D01*
X85999511Y-112656835D01*
X86201533Y-112658597D01*
X86503687Y-112762250D01*
X87304732Y-113577388D01*
X86522998Y-110629330D02*
X84077630Y-112367195D01*
X85529933Y-109231977D01*
X83084564Y-110969842D01*
X81625805Y-108284556D02*
X82258777Y-109565244D01*
X83602762Y-109060341D01*
X83411396Y-108995570D01*
X83156733Y-108802729D01*
X82840247Y-108162385D01*
X82841722Y-107842950D01*
X82906493Y-107651584D01*
X83099334Y-107396921D01*
X83739678Y-107080435D01*
X84059113Y-107081909D01*
X84250479Y-107146681D01*
X84505142Y-107339522D01*
X84821628Y-107979866D01*
X84820154Y-108299301D01*
X84755382Y-108490667D01*
X81053751Y-106911900D02*
X80504559Y-105137817D01*
X81892021Y-105755128D01*
X81765284Y-105345724D01*
X81817261Y-105030543D01*
X81911483Y-104851830D01*
X82142173Y-104630871D01*
X82824512Y-104419643D01*
X83139694Y-104471619D01*
X83318407Y-104565842D01*
X83539366Y-104796532D01*
X83792839Y-105615339D01*
X83740863Y-105930520D01*
X83646640Y-106109234D01*
X80461778Y-103646739D02*
X80300216Y-103525438D01*
X80118523Y-103262705D01*
X80017870Y-102555547D01*
X80119040Y-102252553D01*
X80240342Y-102090990D01*
X80503074Y-101909298D01*
X80785938Y-101869036D01*
X81230363Y-101950076D01*
X83169111Y-103405690D01*
X82907413Y-101567078D01*
X82575748Y-100388048D02*
X82715389Y-100242046D01*
X82861392Y-100381687D01*
X82721751Y-100527689D01*
X82575748Y-100388048D01*
X82861392Y-100381687D01*
X83027273Y-97418076D02*
X81508697Y-98275247D01*
X82861502Y-99124328D02*
X79875561Y-98834229D01*
X79986075Y-97696728D01*
X80155891Y-97426167D01*
X80311893Y-97297793D01*
X80610082Y-97183234D01*
X81036645Y-97224677D01*
X81307206Y-97394493D01*
X81435580Y-97550495D01*
X81550139Y-97848684D01*
X81439626Y-98986186D01*
X81731482Y-95889158D02*
X81984380Y-94921665D01*
X83613111Y-94904436D02*
X83251829Y-96286569D01*
X80349350Y-95527875D01*
X80710632Y-94145742D01*
X81160135Y-92803179D02*
X84308822Y-93096051D01*
X81965596Y-90972541D01*
X85172024Y-91361362D02*
X82651712Y-89734086D01*
X86101896Y-89921183D02*
X83964314Y-90071445D01*
X83581584Y-88293908D02*
X84091891Y-90663958D01*
X86585381Y-88873315D02*
X86786539Y-88854561D01*
X86805292Y-89055720D01*
X86604134Y-89074473D01*
X86585381Y-88873315D01*
X86805292Y-89055720D01*
X85512521Y-85979217D02*
X87184277Y-87740804D01*
X87484577Y-87849711D01*
X87686538Y-87854996D01*
X87992123Y-87761941D01*
X88406614Y-87368587D01*
X88515521Y-87068287D01*
X88520805Y-86866326D01*
X88427751Y-86560741D01*
X86755994Y-84799154D01*
X89666234Y-86299336D02*
X87971276Y-83824035D01*
X91080692Y-85330789D02*
X89051301Y-84642741D01*
X89385734Y-82855487D02*
X88939823Y-85238493D01*
D10*
%TO.C,D2*%
X113400000Y-98400000D02*
X113400000Y-99600000D01*
X113400000Y-101600000D02*
X113400000Y-100400000D01*
X111600000Y-101600000D02*
X111600000Y-100400000D01*
X112000000Y-102000000D02*
X113000000Y-102000000D01*
X111600000Y-98400000D02*
X111600000Y-99600000D01*
%TO.C,D3*%
X111600000Y-93400000D02*
X111600000Y-94600000D01*
X113400000Y-93400000D02*
X113400000Y-94600000D01*
X111600000Y-96600000D02*
X111600000Y-95400000D01*
X113400000Y-96600000D02*
X113400000Y-95400000D01*
X112000000Y-97000000D02*
X113000000Y-97000000D01*
%TO.C,SW1*%
X85270000Y-96770000D02*
X85270000Y-103230000D01*
X91730000Y-103230000D02*
X91700000Y-103230000D01*
X85270000Y-96770000D02*
X85300000Y-96770000D01*
X85270000Y-103230000D02*
X85300000Y-103230000D01*
X91730000Y-96770000D02*
X91730000Y-103230000D01*
X91700000Y-96770000D02*
X91730000Y-96770000D01*
%TO.C,D1*%
X113400000Y-103400000D02*
X113400000Y-104600000D01*
X111600000Y-106600000D02*
X111600000Y-105400000D01*
X111600000Y-103400000D02*
X111600000Y-104600000D01*
X113400000Y-106600000D02*
X113400000Y-105400000D01*
X112000000Y-107000000D02*
X113000000Y-107000000D01*
%TO.C,C7*%
X101075000Y-91260000D02*
X101675000Y-91260000D01*
X101075000Y-92260000D02*
X101675000Y-92260000D01*
%TO.C,C3*%
X104300000Y-84385000D02*
X104300000Y-83785000D01*
X103300000Y-84385000D02*
X103300000Y-83785000D01*
%TO.C,C5*%
X101400000Y-85335000D02*
X102000000Y-85335000D01*
X101400000Y-84335000D02*
X102000000Y-84335000D01*
%TO.C,R6*%
X108700000Y-91860000D02*
X109300000Y-91860000D01*
X108700000Y-92860000D02*
X109300000Y-92860000D01*
%TO.C,R4*%
X93600000Y-85335000D02*
X94200000Y-85335000D01*
X93600000Y-84335000D02*
X94200000Y-84335000D01*
%TO.C,C13*%
X106650000Y-95860000D02*
X106650000Y-96460000D01*
X105650000Y-95860000D02*
X105650000Y-96460000D01*
%TO.C,C14*%
X105100000Y-94360000D02*
X105700000Y-94360000D01*
X105100000Y-93360000D02*
X105700000Y-93360000D01*
%TO.C,C9*%
X93575000Y-90810000D02*
X94175000Y-90810000D01*
X93575000Y-91810000D02*
X94175000Y-91810000D01*
%TO.C,C16*%
X93575000Y-93560000D02*
X94175000Y-93560000D01*
X93575000Y-94560000D02*
X94175000Y-94560000D01*
%TO.C,R9*%
X108700000Y-96360000D02*
X109300000Y-96360000D01*
X108700000Y-97360000D02*
X109300000Y-97360000D01*
%TO.C,R8*%
X108700000Y-98860000D02*
X109300000Y-98860000D01*
X108700000Y-97860000D02*
X109300000Y-97860000D01*
%TO.C,R11*%
X99800000Y-102010000D02*
X99800000Y-101410000D01*
X98800000Y-102010000D02*
X98800000Y-101410000D01*
%TO.C,U1*%
X96890000Y-93450000D02*
X97365000Y-93450000D01*
X96890000Y-99195000D02*
X96890000Y-99670000D01*
X96890000Y-93925000D02*
X96890000Y-93450000D01*
X103110000Y-99670000D02*
X102635000Y-99670000D01*
X103110000Y-99195000D02*
X103110000Y-99670000D01*
X103110000Y-93925000D02*
X103110000Y-93450000D01*
X96890000Y-99670000D02*
X97365000Y-99670000D01*
%TO.C,C17*%
X94175000Y-98560000D02*
X93575000Y-98560000D01*
X94175000Y-99560000D02*
X93575000Y-99560000D01*
%TO.C,C12*%
X98925000Y-89910000D02*
X98325000Y-89910000D01*
X98925000Y-90910000D02*
X98325000Y-90910000D01*
%TO.C,R5*%
X93600000Y-89110000D02*
X93600000Y-89710000D01*
X92600000Y-89110000D02*
X92600000Y-89710000D01*
%TO.C,R7*%
X108700000Y-94360000D02*
X109300000Y-94360000D01*
X108700000Y-93360000D02*
X109300000Y-93360000D01*
%TO.C,R10*%
X108700000Y-95860000D02*
X109300000Y-95860000D01*
X108700000Y-94860000D02*
X109300000Y-94860000D01*
%TO.C,C18*%
X98200000Y-102010000D02*
X98200000Y-101410000D01*
X97200000Y-102010000D02*
X97200000Y-101410000D01*
%TO.C,C11*%
X104150000Y-95860000D02*
X104150000Y-96460000D01*
X105150000Y-95860000D02*
X105150000Y-96460000D01*
%TO.C,C8*%
X93600000Y-87060000D02*
X93600000Y-86460000D01*
X92600000Y-87060000D02*
X92600000Y-86460000D01*
%TO.C,C10*%
X101075000Y-90910000D02*
X101675000Y-90910000D01*
X101075000Y-89910000D02*
X101675000Y-89910000D01*
%TO.C,C1*%
X102000000Y-82800000D02*
X101400000Y-82800000D01*
X102000000Y-83800000D02*
X101400000Y-83800000D01*
%TO.C,C6*%
X98600000Y-85335000D02*
X98000000Y-85335000D01*
X98600000Y-84335000D02*
X98000000Y-84335000D01*
%TO.C,R15*%
X106100000Y-102010000D02*
X106100000Y-101410000D01*
X105100000Y-102010000D02*
X105100000Y-101410000D01*
%TO.C,JP1*%
X93250000Y-100960000D02*
X96050000Y-100960000D01*
X92600000Y-102260000D02*
X92600000Y-101660000D01*
X96050000Y-102960000D02*
X93250000Y-102960000D01*
X96700000Y-101660000D02*
X96700000Y-102260000D01*
X96700000Y-101660000D02*
G75*
G03*
X96000000Y-100960000I-700000J0D01*
G01*
X92600000Y-102260000D02*
G75*
G03*
X93300000Y-102960000I699999J-1D01*
G01*
X93300000Y-100960000D02*
G75*
G03*
X92600000Y-101660000I-1J-699999D01*
G01*
X96000000Y-102960000D02*
G75*
G03*
X96700000Y-102260000I0J700000D01*
G01*
%TO.C,R13*%
X101350000Y-101960000D02*
X101950000Y-101960000D01*
X101350000Y-102960000D02*
X101950000Y-102960000D01*
%TO.C,C15*%
X93575000Y-92160000D02*
X94175000Y-92160000D01*
X93575000Y-93160000D02*
X94175000Y-93160000D01*
%TO.C,R14*%
X101950000Y-100460000D02*
X101350000Y-100460000D01*
X101950000Y-101460000D02*
X101350000Y-101460000D01*
%TO.C,L1*%
X101881748Y-87089774D02*
X102779774Y-86191748D01*
X103720226Y-88928252D02*
X104618252Y-88030226D01*
%TO.C,L2*%
X97220226Y-86191748D02*
X98118252Y-87089774D01*
X95381748Y-88030226D02*
X96279774Y-88928252D01*
%TO.C,C4*%
X95700000Y-83785000D02*
X95700000Y-84385000D01*
X96700000Y-83785000D02*
X96700000Y-84385000D01*
%TO.C,R12*%
X103500000Y-101410000D02*
X103500000Y-102010000D01*
X104500000Y-101410000D02*
X104500000Y-102010000D01*
%TO.C,D5*%
X107750000Y-89435000D02*
X108350000Y-89435000D01*
%TO.C,C19*%
X108700000Y-105260000D02*
X109300000Y-105260000D01*
X108700000Y-104260000D02*
X109300000Y-104260000D01*
%TO.C,D4*%
X107750000Y-99235000D02*
X108350000Y-99235000D01*
%TO.C,D6*%
X110250000Y-103885000D02*
X109650000Y-103885000D01*
%TO.C,C2*%
X98600000Y-82800000D02*
X98000000Y-82800000D01*
X98600000Y-83800000D02*
X98000000Y-83800000D01*
%TO.C,R2*%
X99300000Y-78860000D02*
X99300000Y-78260000D01*
X100700000Y-78860000D02*
X100700000Y-78260000D01*
%TO.C,R3*%
X101280000Y-80800000D02*
X101280000Y-80200000D01*
X102280000Y-80800000D02*
X102280000Y-80200000D01*
%TO.C,R1*%
X97700000Y-80790000D02*
X97700000Y-80190000D01*
X98700000Y-80790000D02*
X98700000Y-80190000D01*
%TD*%
M02*
