M48
; DRILL file {KiCad (5.1.9-0-10_14)} date Friday, April 23, 2021 at 09:41:41 AM
; FORMAT={-:-/ absolute / inch / decimal}
; #@! TF.CreationDate,2021-04-23T09:41:41+01:00
; #@! TF.GenerationSoftware,Kicad,Pcbnew,(5.1.9-0-10_14)
; #@! TF.FileFunction,Plated,1,2,PTH
FMAT,2
INCH
T1C0.0098
T2C0.0157
T3C0.0197
T4C0.0300
T5C0.0335
T6C0.0354
T7C0.0394
T8C0.0433
T9C0.1260
%
G90
G05
T1
X3.9764Y-3.0709
X4.0945Y-3.1496
X5.4331Y-2.9921
X5.4331Y-3.2283
X5.5118Y-3.1102
T2
X4.4843Y-3.3504
X4.6576Y-3.3385
X4.7126Y-2.811
X4.7953Y-2.812
X4.811Y-3.3386
X4.8465Y-2.9606
X4.8937Y-3.3386
X4.9094Y-2.7402
X4.9695Y-3.3386
X4.9882Y-2.7402
X5.0512Y-3.3386
X5.0591Y-2.8937
X5.1162Y-2.9467
X5.1346Y-3.2912
X5.1407Y-2.8936
X5.2205Y-3.1496
X5.2982Y-2.8268
X5.2982Y-3.3937
X5.378Y-3.1102
T3
X4.9419Y-3.0404
X4.9419Y-3.1585
X5.001Y-3.0994
X5.06Y-3.0404
X5.06Y-3.1585
T4
X4.7244Y-3.0709
X4.7244Y-3.1496
X4.8031Y-3.0709
X4.8031Y-3.1496
T5
X4.6161Y-3.4646
X4.7146Y-3.4646
X4.813Y-3.4646
X4.9114Y-3.4646
T6
X4.2413Y-2.6378
X4.2413Y-2.874
X4.2413Y-3.1102
X4.3413Y-2.6378
X4.3413Y-2.874
X4.3413Y-3.1102
T7
X4.6138Y-3.5827
X4.7138Y-3.5827
X4.8138Y-3.5827
X4.9138Y-3.5827
T8
X5.1476Y-3.4547
X5.1476Y-3.7106
X5.3248Y-3.4547
X5.3248Y-3.7106
T9
X4.2913Y-3.5827
X5.2362Y-2.6378
T0
M30
