M48
; DRILL file {KiCad (6.0.0-0)} date Sunday, 02 January 2022 at 09:35:31
; FORMAT={-:-/ absolute / inch / decimal}
; #@! TF.CreationDate,2022-01-02T09:35:31+00:00
; #@! TF.GenerationSoftware,Kicad,Pcbnew,(6.0.0-0)
; #@! TF.FileFunction,Plated,1,2,PTH
FMAT,2
INCH
; #@! TA.AperFunction,Plated,PTH,ComponentDrill
T1C0.0098
; #@! TA.AperFunction,Plated,PTH,ViaDrill
T2C0.0157
; #@! TA.AperFunction,Plated,PTH,ComponentDrill
T3C0.0315
; #@! TA.AperFunction,Plated,PTH,ComponentDrill
T4C0.0335
; #@! TA.AperFunction,Plated,PTH,ComponentDrill
T5C0.0394
; #@! TA.AperFunction,Plated,PTH,ComponentDrill
T6C0.0433
; #@! TA.AperFunction,Plated,PTH,ComponentDrill
T7C0.1260
%
G90
G05
T1
X3.8189Y-3.2677
X3.8976Y-3.189
X3.8976Y-3.8976
X3.8976Y-3.9764
X3.937Y-3.937
X3.9764Y-3.189
X3.9764Y-3.8976
X3.9764Y-3.9764
T2
X3.6024Y-4.1732
X3.6299Y-3.6555
X3.6703Y-4.0778
X3.7131Y-3.684
X3.7776Y-3.8652
X3.7825Y-4.0886
X3.8031Y-3.7283
X3.8031Y-3.7717
X3.9173Y-3.7283
X3.937Y-3.6545
X4.1437Y-3.7156
X4.1437Y-3.7835
X4.1693Y-4.2126
X4.1811Y-3.7598
X4.1813Y-3.9893
X4.2198Y-4.1775
X4.2204Y-4.0797
X4.2205Y-3.7996
X4.2205Y-4.1378
X4.2874Y-3.7244
X4.2913Y-4.0541
X4.2915Y-4.1663
X4.2932Y-4.2234
X4.3583Y-3.7972
X4.3583Y-3.8386
X4.3583Y-4.0118
X4.4094Y-3.4016
X4.4094Y-3.5276
X4.4094Y-3.6378
X4.4094Y-3.7638
X4.4094Y-3.8307
X4.4094Y-3.874
X4.4094Y-4.0
T3
X3.8878Y-3.6378
X3.9862Y-3.6378
T4
X3.7894Y-4.2874
X3.8878Y-4.2874
X3.9862Y-4.2874
X4.0846Y-4.2874
T5
X3.787Y-4.4094
X3.887Y-4.4094
X3.987Y-4.4094
X4.087Y-4.4094
X4.4094Y-4.1232
X4.4094Y-4.2232
T6
X3.3957Y-3.8091
X3.3957Y-4.065
X3.5728Y-3.8091
X3.5728Y-4.065
T7
X3.4646Y-3.4646
X4.4094Y-4.4094
T0
M30
