%TF.GenerationSoftware,KiCad,Pcbnew,(5.1.9-0-10_14)*%
%TF.CreationDate,2021-05-01T08:51:05+01:00*%
%TF.ProjectId,PN532,504e3533-322e-46b6-9963-61645f706362,2*%
%TF.SameCoordinates,Original*%
%TF.FileFunction,Paste,Bot*%
%TF.FilePolarity,Positive*%
%FSLAX46Y46*%
G04 Gerber Fmt 4.6, Leading zero omitted, Abs format (unit mm)*
G04 Created by KiCad (PCBNEW (5.1.9-0-10_14)) date 2021-05-01 08:51:05*
%MOMM*%
%LPD*%
G01*
G04 APERTURE LIST*
G04 APERTURE END LIST*
%TO.C,D1*%
G36*
G01*
X137549999Y-93200000D02*
X138450001Y-93200000D01*
G75*
G02*
X138700000Y-93449999I0J-249999D01*
G01*
X138700000Y-94150001D01*
G75*
G02*
X138450001Y-94400000I-249999J0D01*
G01*
X137549999Y-94400000D01*
G75*
G02*
X137300000Y-94150001I0J249999D01*
G01*
X137300000Y-93449999D01*
G75*
G02*
X137549999Y-93200000I249999J0D01*
G01*
G37*
G36*
G01*
X137549999Y-95200000D02*
X138450001Y-95200000D01*
G75*
G02*
X138700000Y-95449999I0J-249999D01*
G01*
X138700000Y-96150001D01*
G75*
G02*
X138450001Y-96400000I-249999J0D01*
G01*
X137549999Y-96400000D01*
G75*
G02*
X137300000Y-96150001I0J249999D01*
G01*
X137300000Y-95449999D01*
G75*
G02*
X137549999Y-95200000I249999J0D01*
G01*
G37*
G36*
G01*
X137375000Y-96005000D02*
X138625000Y-96005000D01*
G75*
G02*
X138875000Y-96255000I0J-250000D01*
G01*
X138875000Y-97180000D01*
G75*
G02*
X138625000Y-97430000I-250000J0D01*
G01*
X137375000Y-97430000D01*
G75*
G02*
X137125000Y-97180000I0J250000D01*
G01*
X137125000Y-96255000D01*
G75*
G02*
X137375000Y-96005000I250000J0D01*
G01*
G37*
G36*
G01*
X137375000Y-93030000D02*
X138625000Y-93030000D01*
G75*
G02*
X138875000Y-93280000I0J-250000D01*
G01*
X138875000Y-94205000D01*
G75*
G02*
X138625000Y-94455000I-250000J0D01*
G01*
X137375000Y-94455000D01*
G75*
G02*
X137125000Y-94205000I0J250000D01*
G01*
X137125000Y-93280000D01*
G75*
G02*
X137375000Y-93030000I250000J0D01*
G01*
G37*
%TD*%
%TO.C,D3*%
G36*
G01*
X137549999Y-105200000D02*
X138450001Y-105200000D01*
G75*
G02*
X138700000Y-105449999I0J-249999D01*
G01*
X138700000Y-106150001D01*
G75*
G02*
X138450001Y-106400000I-249999J0D01*
G01*
X137549999Y-106400000D01*
G75*
G02*
X137300000Y-106150001I0J249999D01*
G01*
X137300000Y-105449999D01*
G75*
G02*
X137549999Y-105200000I249999J0D01*
G01*
G37*
G36*
G01*
X137549999Y-107200000D02*
X138450001Y-107200000D01*
G75*
G02*
X138700000Y-107449999I0J-249999D01*
G01*
X138700000Y-108150001D01*
G75*
G02*
X138450001Y-108400000I-249999J0D01*
G01*
X137549999Y-108400000D01*
G75*
G02*
X137300000Y-108150001I0J249999D01*
G01*
X137300000Y-107449999D01*
G75*
G02*
X137549999Y-107200000I249999J0D01*
G01*
G37*
G36*
G01*
X137375000Y-108005000D02*
X138625000Y-108005000D01*
G75*
G02*
X138875000Y-108255000I0J-250000D01*
G01*
X138875000Y-109180000D01*
G75*
G02*
X138625000Y-109430000I-250000J0D01*
G01*
X137375000Y-109430000D01*
G75*
G02*
X137125000Y-109180000I0J250000D01*
G01*
X137125000Y-108255000D01*
G75*
G02*
X137375000Y-108005000I250000J0D01*
G01*
G37*
G36*
G01*
X137375000Y-105030000D02*
X138625000Y-105030000D01*
G75*
G02*
X138875000Y-105280000I0J-250000D01*
G01*
X138875000Y-106205000D01*
G75*
G02*
X138625000Y-106455000I-250000J0D01*
G01*
X137375000Y-106455000D01*
G75*
G02*
X137125000Y-106205000I0J250000D01*
G01*
X137125000Y-105280000D01*
G75*
G02*
X137375000Y-105030000I250000J0D01*
G01*
G37*
%TD*%
%TO.C,D2*%
G36*
G01*
X137549999Y-99200000D02*
X138450001Y-99200000D01*
G75*
G02*
X138700000Y-99449999I0J-249999D01*
G01*
X138700000Y-100150001D01*
G75*
G02*
X138450001Y-100400000I-249999J0D01*
G01*
X137549999Y-100400000D01*
G75*
G02*
X137300000Y-100150001I0J249999D01*
G01*
X137300000Y-99449999D01*
G75*
G02*
X137549999Y-99200000I249999J0D01*
G01*
G37*
G36*
G01*
X137549999Y-101200000D02*
X138450001Y-101200000D01*
G75*
G02*
X138700000Y-101449999I0J-249999D01*
G01*
X138700000Y-102150001D01*
G75*
G02*
X138450001Y-102400000I-249999J0D01*
G01*
X137549999Y-102400000D01*
G75*
G02*
X137300000Y-102150001I0J249999D01*
G01*
X137300000Y-101449999D01*
G75*
G02*
X137549999Y-101200000I249999J0D01*
G01*
G37*
G36*
G01*
X137375000Y-102005000D02*
X138625000Y-102005000D01*
G75*
G02*
X138875000Y-102255000I0J-250000D01*
G01*
X138875000Y-103180000D01*
G75*
G02*
X138625000Y-103430000I-250000J0D01*
G01*
X137375000Y-103430000D01*
G75*
G02*
X137125000Y-103180000I0J250000D01*
G01*
X137125000Y-102255000D01*
G75*
G02*
X137375000Y-102005000I250000J0D01*
G01*
G37*
G36*
G01*
X137375000Y-99030000D02*
X138625000Y-99030000D01*
G75*
G02*
X138875000Y-99280000I0J-250000D01*
G01*
X138875000Y-100205000D01*
G75*
G02*
X138625000Y-100455000I-250000J0D01*
G01*
X137375000Y-100455000D01*
G75*
G02*
X137125000Y-100205000I0J250000D01*
G01*
X137125000Y-99280000D01*
G75*
G02*
X137375000Y-99030000I250000J0D01*
G01*
G37*
%TD*%
M02*
