%TF.GenerationSoftware,KiCad,Pcbnew,(6.0.0-0)*%
%TF.CreationDate,2022-01-02T11:13:45+00:00*%
%TF.ProjectId,PN532,504e3533-322e-46b6-9963-61645f706362,7*%
%TF.SameCoordinates,Original*%
%TF.FileFunction,Copper,L2,Bot*%
%TF.FilePolarity,Positive*%
%FSLAX46Y46*%
G04 Gerber Fmt 4.6, Leading zero omitted, Abs format (unit mm)*
G04 Created by KiCad (PCBNEW (6.0.0-0)) date 2022-01-02 11:13:45*
%MOMM*%
%LPD*%
G01*
G04 APERTURE LIST*
G04 Aperture macros list*
%AMRoundRect*
0 Rectangle with rounded corners*
0 $1 Rounding radius*
0 $2 $3 $4 $5 $6 $7 $8 $9 X,Y pos of 4 corners*
0 Add a 4 corners polygon primitive as box body*
4,1,4,$2,$3,$4,$5,$6,$7,$8,$9,$2,$3,0*
0 Add four circle primitives for the rounded corners*
1,1,$1+$1,$2,$3*
1,1,$1+$1,$4,$5*
1,1,$1+$1,$6,$7*
1,1,$1+$1,$8,$9*
0 Add four rect primitives between the rounded corners*
20,1,$1+$1,$2,$3,$4,$5,0*
20,1,$1+$1,$4,$5,$6,$7,0*
20,1,$1+$1,$6,$7,$8,$9,0*
20,1,$1+$1,$8,$9,$2,$3,0*%
%AMFreePoly0*
4,1,402,12.515488,0.231651,13.028366,0.176695,13.536039,0.085413,14.035937,-0.041735,14.525529,-0.204105,15.002337,-0.400875,15.463947,-0.631048,15.908024,-0.893461,16.332319,-1.186784,16.734684,-1.509532,17.113082,-1.860073,17.465599,-2.236631,17.790450,-2.637301,18.085990,-3.060054,18.350724,-3.502751,18.583311,-3.963150,18.782575,-4.438921,18.947505,-4.927657,19.077269,-5.426882,19.171208,-5.934070,
19.228848,-6.446653,19.249896,-6.962038,19.246224,-6.981017,19.250000,-7.000000,19.250000,-31.000000,19.231651,-31.515488,19.176695,-32.028366,19.085413,-32.536039,18.958265,-33.035937,18.795895,-33.525529,18.599125,-34.002337,18.368952,-34.463947,18.106539,-34.908024,17.813216,-35.332319,17.490468,-35.734684,17.139927,-36.113082,16.763369,-36.465599,16.362699,-36.790450,15.939946,-37.085990,15.497249,-37.350724,
15.036850,-37.583311,14.561079,-37.782575,14.072343,-37.947505,13.573118,-38.077269,13.065930,-38.171208,12.553347,-38.228848,12.037962,-38.249896,12.018983,-38.246224,12.000000,-38.250000,-12.000000,-38.250000,-12.515488,-38.231651,-13.028366,-38.176695,-13.536039,-38.085413,-14.035937,-37.958265,-14.525529,-37.795895,-15.002337,-37.599125,-15.463947,-37.368952,-15.908024,-37.106539,-16.332319,-36.813216,-16.734684,-36.490468,
-17.113082,-36.139927,-17.465599,-35.763369,-17.790450,-35.362699,-18.085990,-34.939946,-18.350724,-34.497249,-18.583311,-34.036850,-18.782575,-33.561079,-18.947505,-33.072343,-19.077269,-32.573118,-19.171208,-32.065930,-19.228848,-31.553347,-19.249896,-31.037962,-19.246224,-31.018983,-19.250000,-31.000000,-19.250000,-6.999998,-19.232524,-6.532937,-19.180193,-6.068486,-19.093300,-5.609244,-18.972330,-5.157780,-18.817961,-4.716619,
-18.631056,-4.288227,-18.412659,-3.875000,-18.163993,-3.479250,-17.886448,-3.103189,-17.581575,-2.748921,-17.251081,-2.418426,-16.896812,-2.113554,-16.520752,-1.836008,-16.125001,-1.587342,-15.711775,-1.368945,-15.283383,-1.182039,-14.842222,-1.027670,-14.390758,-0.906701,-13.931516,-0.819807,-13.467065,-0.767476,-13.000002,-0.750000,12.000000,-0.750000,12.467063,-0.767476,12.931514,-0.819807,13.390756,-0.906700,
13.842220,-1.027670,14.283381,-1.182039,14.711773,-1.368944,15.125000,-1.587341,15.520750,-1.836007,15.896811,-2.113552,16.251079,-2.418425,16.581574,-2.748919,16.886446,-3.103188,17.163992,-3.479248,17.412658,-3.874999,17.631055,-4.288225,17.817961,-4.716617,17.972330,-5.157778,18.093299,-5.609242,18.180193,-6.068484,18.232524,-6.532935,18.250000,-6.999998,18.250000,-31.000000,18.232679,-31.464991,
18.180811,-31.927405,18.094683,-32.384678,17.974775,-32.834276,17.821748,-33.273707,17.636453,-33.700536,17.419916,-34.112396,17.173338,-34.507004,16.898084,-34.882173,16.595681,-35.235825,16.267806,-35.565998,15.916274,-35.870862,15.543035,-36.148728,15.150158,-36.398056,14.739820,-36.617463,14.314296,-36.805733,13.875943,-36.961823,13.427193,-37.084868,12.970532,-37.174186,12.508492,-37.229281,12.043633,-37.249848,
12.021801,-37.245664,12.000000,-37.250000,-12.000000,-37.250000,-12.467063,-37.232524,-12.931514,-37.180193,-13.390756,-37.093300,-13.842220,-36.972330,-14.283381,-36.817961,-14.711773,-36.631056,-15.125000,-36.412659,-15.520750,-36.163993,-15.896811,-35.886448,-16.251079,-35.581575,-16.581574,-35.251081,-16.886446,-34.896812,-17.163992,-34.520752,-17.412658,-34.125001,-17.631055,-33.711775,-17.817961,-33.283383,-17.972330,-32.842222,
-18.093299,-32.390758,-18.127565,-32.209659,-18.176777,-32.176777,-18.230970,-32.095671,-18.250000,-32.000000,-18.250000,-6.999998,-18.232228,-6.568381,-18.179031,-6.139685,-18.090770,-5.716813,-17.968042,-5.302629,-17.811678,-4.899936,-17.622736,-4.511463,-17.402497,-4.139837,-17.152451,-3.787577,-16.874290,-3.457066,-16.569899,-3.150542,-16.241338,-2.870081,-15.890832,-2.617581,-15.520754,-2.394752,-15.133609,-2.203103,
-14.732018,-2.043931,-14.318701,-1.918315,-13.896455,-1.827103,-13.468141,-1.770914,-13.036656,-1.750129,-13.018318,-1.753644,-13.000000,-1.750000,-3.000000,-1.750000,-2.904329,-1.769030,-2.823223,-1.823223,-2.769030,-1.904329,-2.750000,-2.000000,-2.769030,-2.095671,-2.823223,-2.176777,-2.904329,-2.230970,-3.000000,-2.250000,-13.000000,-2.250000,-13.016592,-2.246700,-13.033166,-2.250117,-13.051861,-2.246534,
-13.445609,-2.266404,-13.854659,-2.322922,-14.257263,-2.414719,-14.650383,-2.541105,-15.031053,-2.701124,-15.396404,-2.893571,-15.743678,-3.116992,-16.070256,-3.369704,-16.373674,-3.649800,-16.651645,-3.955167,-16.902070,-4.283501,-17.123062,-4.632327,-17.312953,-4.999012,-17.470311,-5.380791,-17.593948,-5.774783,-17.682933,-6.178018,-17.736593,-6.587453,-17.753714,-6.981329,-17.750000,-7.000000,-17.750000,-31.112900,
-17.736697,-31.451490,-17.683589,-31.900194,-17.595440,-32.343348,-17.472794,-32.778220,-17.316405,-33.202129,-17.127240,-33.612461,-16.906463,-34.006686,-16.655436,-34.382374,-16.375707,-34.737208,-16.069000,-35.069002,-15.737207,-35.375708,-15.382372,-35.655437,-15.006684,-35.906464,-14.612459,-36.127241,-14.202127,-36.316406,-13.778218,-36.472794,-13.343346,-36.595441,-12.900192,-36.683590,-12.451488,-36.736697,-12.018623,-36.753704,
-12.000000,-36.750000,12.000000,-36.750000,12.020086,-36.753995,12.040143,-36.749860,12.058805,-36.753437,12.489525,-36.733576,12.935886,-36.677821,13.376527,-36.587370,13.808757,-36.462777,14.229934,-36.304802,14.637485,-36.114412,15.028919,-35.892769,15.401844,-35.641228,15.753981,-35.361325,16.083180,-35.054772,16.387427,-34.723442,16.664864,-34.369359,16.913795,-33.994687,17.132700,-33.601715,17.320241,-33.192845,
17.475271,-32.770575,17.596844,-32.337486,17.684216,-31.896224,17.736854,-31.449485,17.753707,-31.018637,17.750000,-31.000000,17.750000,-7.000000,17.753704,-6.981377,17.753704,-6.981375,17.736697,-6.548510,17.683589,-6.099806,17.595440,-5.656652,17.472794,-5.221780,17.316405,-4.797871,17.127240,-4.387539,16.906463,-3.993314,16.655436,-3.617626,16.375707,-3.262792,16.069000,-2.930998,15.737207,-2.624292,
15.382372,-2.344563,15.006684,-2.093536,14.612459,-1.872759,14.202127,-1.683594,13.778218,-1.527206,13.343346,-1.404559,12.900192,-1.316410,12.451488,-1.263303,12.018623,-1.246296,12.000000,-1.250000,-13.000002,-1.250000,-13.018625,-1.246296,-13.451490,-1.263303,-13.900194,-1.316411,-14.343348,-1.404560,-14.778220,-1.527206,-15.202129,-1.683595,-15.612461,-1.872760,-16.006686,-2.093537,-16.382374,-2.344564,
-16.737208,-2.624293,-17.069002,-2.931000,-17.375708,-3.262793,-17.655437,-3.617628,-17.906464,-3.993316,-18.127241,-4.387541,-18.316406,-4.797873,-18.472794,-5.221782,-18.595441,-5.656654,-18.683590,-6.099808,-18.736697,-6.548512,-18.753704,-6.981377,-18.750000,-7.000000,-18.750000,-31.000000,-18.753514,-31.017668,-18.749902,-31.035344,-18.753775,-31.055365,-18.733231,-31.538365,-18.674430,-32.038371,-18.578552,-32.532608,
-18.446129,-33.018331,-18.277896,-33.492842,-18.074788,-33.953505,-17.837934,-34.397761,-17.568648,-34.823141,-17.268428,-35.227283,-16.938940,-35.607942,-16.582016,-35.963002,-16.199638,-36.290492,-15.793929,-36.588593,-15.367145,-36.855647,-14.921655,-37.090173,-14.459936,-37.290866,-13.984550,-37.456612,-13.498140,-37.586491,-13.003408,-37.679780,-12.503101,-37.735962,-12.020000,-37.753978,-12.000000,-37.750000,12.000000,-37.750000,
12.017668,-37.753514,12.035344,-37.749902,12.055365,-37.753775,12.538365,-37.733231,13.038371,-37.674430,13.532608,-37.578552,14.018331,-37.446129,14.492842,-37.277896,14.953505,-37.074788,15.397761,-36.837934,15.823141,-36.568648,16.227283,-36.268428,16.607942,-35.938940,16.963002,-35.582016,17.290492,-35.199638,17.588593,-34.793929,17.855647,-34.367145,18.090173,-33.921655,18.290866,-33.459936,18.456612,-32.984550,
18.586491,-32.498140,18.679780,-32.003408,18.735962,-31.503101,18.753978,-31.020000,18.750000,-31.000000,18.750000,-7.000000,18.753514,-6.982332,18.749902,-6.964656,18.753775,-6.944635,18.733231,-6.461635,18.674430,-5.961629,18.578552,-5.467392,18.446129,-4.981669,18.277896,-4.507158,18.074788,-4.046495,17.837934,-3.602239,17.568648,-3.176859,17.268428,-2.772717,16.938940,-2.392058,16.582016,-2.036998,
16.199638,-1.709508,15.793929,-1.411407,15.367145,-1.144353,14.921655,-0.909827,14.459936,-0.709134,13.984550,-0.543388,13.498140,-0.413509,13.003408,-0.320220,12.503101,-0.264038,12.020000,-0.246022,12.000000,-0.250000,-1.000000,-0.250000,-1.095671,-0.230970,-1.176777,-0.176777,-1.230970,-0.095671,-1.250000,0.000000,-1.230970,0.095671,-1.176777,0.176777,-1.095671,0.230970,-1.000000,0.250000,
12.000000,0.250000,12.515488,0.231651,12.515488,0.231651,$1*%
G04 Aperture macros list end*
%TA.AperFunction,ComponentPad*%
%ADD10C,3.200000*%
%TD*%
%TA.AperFunction,SMDPad,CuDef*%
%ADD11RoundRect,0.125000X0.625000X-0.125000X0.625000X0.125000X-0.625000X0.125000X-0.625000X-0.125000X0*%
%TD*%
%TA.AperFunction,ComponentPad*%
%ADD12C,2.000000*%
%TD*%
%TA.AperFunction,SMDPad,CuDef*%
%ADD13R,1.300000X2.000000*%
%TD*%
%TA.AperFunction,ComponentPad*%
%ADD14C,0.350000*%
%TD*%
%TA.AperFunction,ComponentPad*%
%ADD15R,1.700000X1.700000*%
%TD*%
%TA.AperFunction,ComponentPad*%
%ADD16O,1.700000X1.700000*%
%TD*%
%TA.AperFunction,ComponentPad*%
%ADD17RoundRect,0.250000X-0.600000X-0.675000X0.600000X-0.675000X0.600000X0.675000X-0.600000X0.675000X0*%
%TD*%
%TA.AperFunction,ComponentPad*%
%ADD18O,1.700000X1.850000*%
%TD*%
%TA.AperFunction,ComponentPad*%
%ADD19C,1.200000*%
%TD*%
%TA.AperFunction,ComponentPad*%
%ADD20C,0.600000*%
%TD*%
%TA.AperFunction,SMDPad,CuDef*%
%ADD21FreePoly0,0.000000*%
%TD*%
%TA.AperFunction,SMDPad,CuDef*%
%ADD22R,0.200000X0.200000*%
%TD*%
%TA.AperFunction,SMDPad,CuDef*%
%ADD23R,0.600000X0.200000*%
%TD*%
%TA.AperFunction,SMDPad,CuDef*%
%ADD24R,0.600000X0.600000*%
%TD*%
%TA.AperFunction,SMDPad,CuDef*%
%ADD25R,1.200000X0.200000*%
%TD*%
%TA.AperFunction,SMDPad,CuDef*%
%ADD26R,0.200000X0.400000*%
%TD*%
%TA.AperFunction,SMDPad,CuDef*%
%ADD27R,0.200000X1.400000*%
%TD*%
%TA.AperFunction,SMDPad,CuDef*%
%ADD28R,0.800000X0.200000*%
%TD*%
%TA.AperFunction,SMDPad,CuDef*%
%ADD29R,0.400000X0.200000*%
%TD*%
%TA.AperFunction,SMDPad,CuDef*%
%ADD30R,0.200000X1.000000*%
%TD*%
%TA.AperFunction,SMDPad,CuDef*%
%ADD31R,0.200000X0.600000*%
%TD*%
%TA.AperFunction,SMDPad,CuDef*%
%ADD32R,0.600000X0.400000*%
%TD*%
%TA.AperFunction,SMDPad,CuDef*%
%ADD33R,0.200000X0.800000*%
%TD*%
%TA.AperFunction,ViaPad*%
%ADD34C,0.800000*%
%TD*%
%TA.AperFunction,Conductor*%
%ADD35C,0.250000*%
%TD*%
%TA.AperFunction,Conductor*%
%ADD36C,0.500000*%
%TD*%
G04 APERTURE END LIST*
D10*
%TO.P,H2,*%
%TO.N,*%
X88000000Y-88000000D03*
%TD*%
%TO.P,H1,*%
%TO.N,*%
X112000000Y-112000000D03*
%TD*%
D11*
%TO.P,D2,1,K*%
%TO.N,GND*%
X112000000Y-94900000D03*
%TO.P,D2,2,A*%
%TO.N,Net-(D2-Pad2)*%
X112000000Y-93100000D03*
%TD*%
%TO.P,D3,1,K*%
%TO.N,GND*%
X112000000Y-88900000D03*
%TO.P,D3,2,A*%
%TO.N,Net-(D3-Pad2)*%
X112000000Y-87100000D03*
%TD*%
D12*
%TO.P,SW1,*%
%TO.N,*%
X90750000Y-96750000D03*
X86250000Y-96750000D03*
D13*
X86250000Y-95800000D03*
X90750000Y-95800000D03*
D12*
%TO.P,SW1,1,1*%
%TO.N,GND*%
X90750000Y-103250000D03*
D13*
X90750000Y-104200000D03*
%TO.P,SW1,2,2*%
%TO.N,Net-(R11-Pad2)*%
X86250000Y-104200000D03*
D12*
X86250000Y-103250000D03*
%TD*%
D11*
%TO.P,D1,1,K*%
%TO.N,GND*%
X112000000Y-100900000D03*
%TO.P,D1,2,A*%
%TO.N,Net-(D1-Pad2)*%
X112000000Y-99100000D03*
%TD*%
D14*
%TO.P,U1,41,COPPER*%
%TO.N,GND*%
X101000000Y-99000000D03*
X100000000Y-100000000D03*
X99000000Y-99000000D03*
X99000000Y-101000000D03*
X101000000Y-101000000D03*
%TD*%
D15*
%TO.P,J1,1,Pin_1*%
%TO.N,GND*%
X112000000Y-107270000D03*
D16*
%TO.P,J1,2,Pin_2*%
%TO.N,Net-(J1-Pad2)*%
X112000000Y-104730000D03*
%TD*%
D17*
%TO.P,J3,1,Pin_1*%
%TO.N,GND*%
X96250000Y-108900000D03*
D18*
%TO.P,J3,2,Pin_2*%
%TO.N,+5V*%
X98750000Y-108900000D03*
%TO.P,J3,3,Pin_3*%
%TO.N,Net-(J2-Pad3)*%
X101250000Y-108900000D03*
%TO.P,J3,4,Pin_4*%
%TO.N,Net-(J2-Pad4)*%
X103750000Y-108900000D03*
%TD*%
D19*
%TO.P,TP1,1,1*%
%TO.N,Net-(L1-Pad1)*%
X101250000Y-92400000D03*
%TO.P,TP1,2,2*%
%TO.N,Net-(L2-Pad2)*%
X98750000Y-92400000D03*
%TD*%
D20*
%TO.P,A1,*%
%TO.N,*%
X101000000Y-81000000D03*
D21*
X100000000Y-81000000D03*
D20*
X97000000Y-83000000D03*
X99000000Y-81000000D03*
%TD*%
D15*
%TO.P,J2,1,Pin_1*%
%TO.N,GND*%
X96190000Y-112000000D03*
D16*
%TO.P,J2,2,Pin_2*%
%TO.N,+5V*%
X98730000Y-112000000D03*
%TO.P,J2,3,Pin_3*%
%TO.N,Net-(J2-Pad3)*%
X101270000Y-112000000D03*
%TO.P,J2,4,Pin_4*%
%TO.N,Net-(J2-Pad4)*%
X103810000Y-112000000D03*
%TD*%
D22*
%TO.P,U3,*%
%TO.N,*%
X86700000Y-110400000D03*
D23*
X86700000Y-112600000D03*
D22*
X86900000Y-111600000D03*
X88700000Y-112000000D03*
D24*
X89900000Y-109200000D03*
D25*
X89800000Y-111400000D03*
X89800000Y-109800000D03*
D22*
X87300000Y-111400000D03*
D26*
X88500000Y-109100000D03*
D22*
X88500000Y-109800000D03*
D25*
X87000000Y-108600000D03*
D22*
X90100000Y-110200000D03*
X86500000Y-111600000D03*
D27*
X90500000Y-109200000D03*
D25*
X89800000Y-112600000D03*
D22*
X87300000Y-111800000D03*
X88300000Y-111200000D03*
X90500000Y-110600000D03*
D27*
X90500000Y-112000000D03*
D28*
X88400000Y-110000000D03*
D26*
X88700000Y-112500000D03*
D29*
X88800000Y-112200000D03*
D22*
X88300000Y-110200000D03*
D24*
X87100000Y-109200000D03*
X89900000Y-112000000D03*
D29*
X86600000Y-112000000D03*
X88400000Y-111000000D03*
D30*
X89300000Y-109200000D03*
D25*
X87000000Y-109800000D03*
D28*
X87800000Y-112600000D03*
D29*
X88200000Y-109400000D03*
X88200000Y-111600000D03*
D31*
X87900000Y-110400000D03*
D23*
X86700000Y-110800000D03*
D30*
X86500000Y-109200000D03*
X89300000Y-112000000D03*
D22*
X89100000Y-110800000D03*
D23*
X87300000Y-111200000D03*
D29*
X88200000Y-109000000D03*
D26*
X87900000Y-111100000D03*
D31*
X88100000Y-110600000D03*
D29*
X89400000Y-111000000D03*
D22*
X88100000Y-109800000D03*
X87300000Y-112200000D03*
D32*
X88500000Y-108700000D03*
D31*
X88900000Y-111200000D03*
D23*
X89700000Y-110400000D03*
D26*
X89900000Y-110900000D03*
D31*
X88900000Y-108800000D03*
D22*
X87500000Y-110800000D03*
D23*
X87500000Y-111600000D03*
D25*
X89800000Y-108600000D03*
D29*
X87800000Y-111800000D03*
D26*
X87700000Y-110900000D03*
X87700000Y-112100000D03*
D22*
X88700000Y-110800000D03*
X88500000Y-111800000D03*
X86700000Y-112400000D03*
D27*
X87700000Y-109200000D03*
D23*
X87100000Y-110600000D03*
X89100000Y-110200000D03*
D28*
X88400000Y-111400000D03*
D23*
X87500000Y-110200000D03*
D22*
X90300000Y-110400000D03*
X88700000Y-110400000D03*
D23*
X86700000Y-110200000D03*
D29*
X86600000Y-111000000D03*
D22*
X87500000Y-110400000D03*
D29*
X90400000Y-111000000D03*
D25*
X89000000Y-110600000D03*
D22*
X87100000Y-112400000D03*
D26*
X90100000Y-110700000D03*
D33*
X88900000Y-109700000D03*
%TD*%
D34*
%TO.N,GND*%
X112000000Y-101600000D03*
X112000000Y-95600000D03*
X100000000Y-92825000D03*
X109046955Y-107273501D03*
X109005086Y-105824500D03*
X109000000Y-102974990D03*
X106200000Y-95500000D03*
X106204578Y-101328835D03*
X96075000Y-103850000D03*
X93225000Y-103575000D03*
X110700000Y-97500000D03*
X112000000Y-89600000D03*
X95950000Y-98175000D03*
%TO.N,+3V3*%
X107198632Y-103625500D03*
X97350000Y-95200000D03*
X92200000Y-92850000D03*
X107200000Y-96509732D03*
X107183734Y-106107746D03*
X91500000Y-106000000D03*
X99522431Y-94680773D03*
%TO.N,+5V*%
X110700000Y-96450000D03*
X105250000Y-96100000D03*
X105250000Y-94375000D03*
%TO.N,Net-(D1-Pad2)*%
X110700000Y-101900000D03*
X112000000Y-98400000D03*
%TO.N,Net-(D2-Pad2)*%
X112000000Y-92400000D03*
X112000000Y-97300000D03*
%TO.N,Net-(D3-Pad2)*%
X108900000Y-94600000D03*
X112000000Y-86400000D03*
%TO.N,Net-(C9-Pad1)*%
X94200000Y-93700000D03*
X96424500Y-95924500D03*
%TO.N,Net-(J1-Pad2)*%
X107200000Y-105100000D03*
%TO.N,Net-(J2-Pad4)*%
X105900000Y-107000000D03*
%TD*%
D35*
%TO.N,GND*%
X112000000Y-89700000D02*
X112000000Y-88950010D01*
X112000000Y-101600000D02*
X112000000Y-101850000D01*
X90750000Y-103250000D02*
X92900000Y-103250000D01*
X103903371Y-110600000D02*
X96600000Y-110600000D01*
D36*
X96250000Y-108900000D02*
X96250000Y-107150000D01*
X103350000Y-95250000D02*
X105950000Y-95250000D01*
D35*
X109050456Y-107270000D02*
X109046955Y-107273501D01*
X112000000Y-107270000D02*
X109050456Y-107270000D01*
X109046955Y-107273501D02*
X108257294Y-107273501D01*
X109005086Y-107231632D02*
X109046955Y-107273501D01*
X109000000Y-102974990D02*
X110875010Y-102974990D01*
D36*
X100499501Y-94393770D02*
X100499501Y-95689073D01*
D35*
X110700000Y-97500000D02*
X109700000Y-97500000D01*
D36*
X100750000Y-99000000D02*
X101000000Y-99000000D01*
D35*
X112000000Y-95600000D02*
X112000000Y-94950010D01*
X109005086Y-105824500D02*
X109005086Y-107231632D01*
D36*
X100000000Y-92825000D02*
X100000000Y-93187868D01*
D35*
X112000000Y-101600000D02*
X112000000Y-100950010D01*
X109000000Y-98200000D02*
X109000000Y-102974990D01*
D36*
X106204578Y-101328835D02*
X106204578Y-95504578D01*
D35*
X92900000Y-103250000D02*
X93225000Y-103575000D01*
X96200000Y-111000000D02*
X96200000Y-111990000D01*
D36*
X100250000Y-96291421D02*
X100250000Y-98500000D01*
D35*
X107420226Y-107620226D02*
X104820226Y-110220226D01*
X110875010Y-102974990D02*
G75*
G03*
X112000000Y-101850000I0J1124990D01*
G01*
D36*
X100150000Y-93550000D02*
G75*
G02*
X100000000Y-93187868I362126J362129D01*
G01*
X100499500Y-94393770D02*
G75*
G03*
X100149999Y-93550001I-1193266J2D01*
G01*
D35*
X109000000Y-98200000D02*
G75*
G02*
X109700000Y-97500000I699999J1D01*
G01*
D36*
X100350000Y-96050000D02*
G75*
G03*
X100499501Y-95689073I-360927J360927D01*
G01*
D35*
X96200000Y-111000000D02*
G75*
G02*
X96600000Y-110600000I399999J1D01*
G01*
X103903371Y-110600000D02*
G75*
G03*
X104820226Y-110220226I4J1296618D01*
G01*
D36*
X106200000Y-95500000D02*
G75*
G03*
X105950000Y-95250000I-249999J1D01*
G01*
X100750000Y-99000000D02*
G75*
G02*
X100250000Y-98500000I1J500001D01*
G01*
X106200000Y-95500000D02*
G75*
G02*
X106204578Y-95504578I0J-4578D01*
G01*
D35*
X107420226Y-107620226D02*
G75*
G02*
X108257294Y-107273501I837066J-837062D01*
G01*
X96190000Y-112000000D02*
G75*
G03*
X96200000Y-111990000I0J10000D01*
G01*
D36*
X100250000Y-96291421D02*
G75*
G02*
X100350000Y-96050000I341419J0D01*
G01*
D35*
%TO.N,+3V3*%
X92050000Y-107750000D02*
X94000000Y-109700000D01*
X97350000Y-95200000D02*
X95900000Y-95200000D01*
X94000000Y-92850000D02*
X92200000Y-92850000D01*
X106400000Y-105324012D02*
X106400000Y-104424132D01*
X107183734Y-106739270D02*
X107183734Y-106107746D01*
X97350000Y-95200000D02*
X99003204Y-95200000D01*
X95000000Y-93850000D02*
X95000000Y-94300000D01*
X91500000Y-106000000D02*
X91500000Y-106422183D01*
X107200000Y-96509732D02*
X107200000Y-103624132D01*
X95086420Y-110150010D02*
X103849990Y-110150010D01*
X107200000Y-103624132D02*
X107198632Y-103625500D01*
X104510156Y-109876560D02*
X106855840Y-107530876D01*
X94000000Y-92850000D02*
G75*
G02*
X95000000Y-93850000I1J-999999D01*
G01*
X92050000Y-107750000D02*
G75*
G02*
X91500000Y-106422183I1327821J1327819D01*
G01*
X106400000Y-105324012D02*
G75*
G03*
X107183734Y-106107746I783733J-1D01*
G01*
X99522431Y-94680773D02*
G75*
G02*
X99003204Y-95200000I-519227J0D01*
G01*
X107198632Y-103625500D02*
G75*
G03*
X106400000Y-104424132I0J-798632D01*
G01*
X107183734Y-106739270D02*
G75*
G02*
X106855840Y-107530876I-1119502J1D01*
G01*
X95086420Y-110150010D02*
G75*
G02*
X94000000Y-109700000I2J1536433D01*
G01*
X104510156Y-109876560D02*
G75*
G02*
X103849990Y-110150010I-660170J660174D01*
G01*
X95000000Y-94300000D02*
G75*
G03*
X95900000Y-95200000I900000J0D01*
G01*
D36*
%TO.N,+5V*%
X104725000Y-105967894D02*
X104725000Y-96625000D01*
D35*
X108066006Y-95733994D02*
X108066006Y-95216006D01*
X108782012Y-96450000D02*
X110700000Y-96450000D01*
X107225000Y-94375000D02*
X105250000Y-94375000D01*
D36*
X101550000Y-107500000D02*
X103440381Y-107500000D01*
X98750000Y-108900000D02*
X99160050Y-108489949D01*
X105250000Y-96100000D02*
G75*
G03*
X104725000Y-96625000I0J-525000D01*
G01*
D35*
X108782012Y-96450000D02*
G75*
G02*
X108066006Y-95733994I-1J716005D01*
G01*
D36*
X104724999Y-105967894D02*
G75*
G02*
X104224999Y-107174999I-1707107J1D01*
G01*
X104225000Y-107175000D02*
G75*
G02*
X103440381Y-107500000I-784617J784614D01*
G01*
D35*
X107225000Y-94375000D02*
G75*
G02*
X108066006Y-95216006I0J-841006D01*
G01*
D36*
X101550000Y-107500001D02*
G75*
G03*
X99160050Y-108489949I-1J-3379899D01*
G01*
D35*
%TO.N,Net-(D1-Pad2)*%
X112000000Y-98400000D02*
X111300002Y-98400000D01*
X110700000Y-101900000D02*
X110700000Y-99000002D01*
X112000000Y-98400000D02*
X112000000Y-99049990D01*
X111300002Y-98400000D02*
G75*
G03*
X110700000Y-99000002I2J-600004D01*
G01*
%TO.N,Net-(D2-Pad2)*%
X112000000Y-92400000D02*
X112000000Y-93050480D01*
X112000000Y-97300000D02*
X112000000Y-97124520D01*
X111205991Y-95844009D02*
X111655991Y-96294009D01*
X112000000Y-92400000D02*
X111749980Y-92400000D01*
X110674990Y-93474990D02*
X110674990Y-94562060D01*
X111655991Y-96294009D02*
G75*
G02*
X112000000Y-97124520I-830512J-830512D01*
G01*
X111205991Y-95844009D02*
G75*
G02*
X110674990Y-94562060I1281944J1281948D01*
G01*
X110674990Y-93474990D02*
G75*
G02*
X111749980Y-92400000I1074989J1D01*
G01*
%TO.N,Net-(D3-Pad2)*%
X110500000Y-87700000D02*
X110500000Y-91457538D01*
X108900000Y-94600000D02*
X108900000Y-94577817D01*
X112000000Y-86400000D02*
X111800000Y-86400000D01*
X109975000Y-92725000D02*
X109450000Y-93250000D01*
X112000000Y-86400000D02*
X112000000Y-87049990D01*
X109975000Y-92725000D02*
G75*
G03*
X110500000Y-91457538I-1267464J1267463D01*
G01*
X109450000Y-93250000D02*
G75*
G03*
X108900000Y-94577817I1327814J-1327816D01*
G01*
X110500000Y-87700000D02*
G75*
G02*
X111800000Y-86400000I1299999J1D01*
G01*
%TO.N,Net-(C9-Pad1)*%
X95512537Y-95922622D02*
X96422622Y-95922622D01*
X94200000Y-93700000D02*
X94200000Y-94500000D01*
X96422622Y-95922622D02*
X96424500Y-95924500D01*
X95512537Y-95922621D02*
G75*
G02*
X94200000Y-94500000I116717J1424481D01*
G01*
%TO.N,Net-(J1-Pad2)*%
X107200000Y-105100000D02*
X111106741Y-105100000D01*
X112000000Y-104730000D02*
G75*
G02*
X111106741Y-105100000I-893256J893251D01*
G01*
%TO.N,Net-(J2-Pad4)*%
X105900000Y-107000000D02*
X104176777Y-108723223D01*
X103750000Y-108900000D02*
G75*
G03*
X104176777Y-108723223I-1J603555D01*
G01*
%TD*%
%TA.AperFunction,Conductor*%
%TO.N,GND*%
G36*
X93237435Y-93503502D02*
G01*
X93283928Y-93557158D01*
X93294624Y-93622669D01*
X93286496Y-93700000D01*
X93287186Y-93706565D01*
X93302262Y-93850001D01*
X93306458Y-93889928D01*
X93365473Y-94071556D01*
X93368776Y-94077278D01*
X93368777Y-94077279D01*
X93402686Y-94136010D01*
X93460960Y-94236944D01*
X93534137Y-94318215D01*
X93564853Y-94382221D01*
X93566500Y-94402524D01*
X93566500Y-94446498D01*
X93565266Y-94464090D01*
X93561970Y-94487466D01*
X93561848Y-94500830D01*
X93562923Y-94509620D01*
X93563601Y-94516925D01*
X93578154Y-94746556D01*
X93578776Y-94756376D01*
X93626448Y-95007958D01*
X93704865Y-95251714D01*
X93706510Y-95255252D01*
X93706512Y-95255257D01*
X93793589Y-95442534D01*
X93812824Y-95483902D01*
X93948666Y-95700958D01*
X93951130Y-95703986D01*
X93951132Y-95703988D01*
X94107839Y-95896517D01*
X94110307Y-95899549D01*
X94113125Y-95902247D01*
X94113126Y-95902248D01*
X94114741Y-95903794D01*
X94295265Y-96076627D01*
X94500702Y-96229473D01*
X94504087Y-96231392D01*
X94504092Y-96231395D01*
X94586017Y-96277833D01*
X94723463Y-96355743D01*
X94960128Y-96453496D01*
X95159202Y-96508103D01*
X95219600Y-96545410D01*
X95250243Y-96609453D01*
X95251850Y-96631573D01*
X95250000Y-96750000D01*
X95257502Y-96757971D01*
X95315753Y-96819863D01*
X95347875Y-96883178D01*
X95350000Y-96906219D01*
X95350000Y-99700000D01*
X95450000Y-99700000D01*
X95450000Y-97280219D01*
X95470002Y-97212098D01*
X95523658Y-97165605D01*
X95593932Y-97155501D01*
X95658512Y-97184995D01*
X95667753Y-97193863D01*
X95892250Y-97432391D01*
X96050000Y-97600000D01*
X101600000Y-97600000D01*
X101946320Y-94752482D01*
X102036526Y-94010788D01*
X102064606Y-93945580D01*
X102123482Y-93905905D01*
X102161604Y-93900000D01*
X104202454Y-93900000D01*
X104270575Y-93920002D01*
X104285693Y-93931410D01*
X104342621Y-93981507D01*
X104380546Y-94041526D01*
X104379215Y-94115033D01*
X104356458Y-94185072D01*
X104336496Y-94375000D01*
X104337186Y-94381565D01*
X104348317Y-94487466D01*
X104356458Y-94564928D01*
X104415473Y-94746556D01*
X104418776Y-94752278D01*
X104418777Y-94752279D01*
X104423357Y-94760212D01*
X104510960Y-94911944D01*
X104515378Y-94916851D01*
X104515379Y-94916852D01*
X104600754Y-95011671D01*
X104638747Y-95053866D01*
X104722251Y-95114536D01*
X104751194Y-95135564D01*
X104794548Y-95191787D01*
X104800623Y-95262523D01*
X104767491Y-95325314D01*
X104751194Y-95339436D01*
X104638747Y-95421134D01*
X104634326Y-95426044D01*
X104634325Y-95426045D01*
X104579257Y-95487204D01*
X104510960Y-95563056D01*
X104509606Y-95565401D01*
X104491854Y-95584604D01*
X104339622Y-95714622D01*
X104208416Y-95868245D01*
X104102857Y-96040501D01*
X104100964Y-96045071D01*
X104100962Y-96045075D01*
X104027438Y-96222577D01*
X104025544Y-96227150D01*
X104024389Y-96231962D01*
X103994672Y-96355743D01*
X103978382Y-96423595D01*
X103977994Y-96428529D01*
X103972071Y-96503779D01*
X103968850Y-96523833D01*
X103967192Y-96530610D01*
X103966500Y-96541764D01*
X103966500Y-96569018D01*
X103965506Y-96584810D01*
X103963162Y-96603366D01*
X103961775Y-96614343D01*
X103962660Y-96623365D01*
X103962531Y-96625000D01*
X103962820Y-96625000D01*
X103963313Y-96630029D01*
X103963313Y-96630030D01*
X103965899Y-96656403D01*
X103966500Y-96668698D01*
X103966500Y-98074000D01*
X103946498Y-98142121D01*
X103892842Y-98188614D01*
X103840500Y-98200000D01*
X100900000Y-98200000D01*
X100900000Y-98300000D01*
X103840500Y-98300000D01*
X103908621Y-98320002D01*
X103955114Y-98373658D01*
X103966500Y-98426000D01*
X103966500Y-102374000D01*
X103946498Y-102442121D01*
X103892842Y-102488614D01*
X103840500Y-102500000D01*
X100900000Y-102500000D01*
X100900000Y-102600000D01*
X103840500Y-102600000D01*
X103908621Y-102620002D01*
X103955114Y-102673658D01*
X103966500Y-102726000D01*
X103966500Y-105911911D01*
X103965506Y-105927703D01*
X103961775Y-105957237D01*
X103962463Y-105964252D01*
X103963774Y-105977628D01*
X103963987Y-105999808D01*
X103955598Y-106106403D01*
X103952505Y-106125930D01*
X103938717Y-106183365D01*
X103922386Y-106251388D01*
X103916278Y-106270187D01*
X103866898Y-106389401D01*
X103857928Y-106407004D01*
X103813623Y-106479302D01*
X103790515Y-106517011D01*
X103778894Y-106533006D01*
X103716331Y-106606258D01*
X103703460Y-106618537D01*
X103703473Y-106618551D01*
X103698417Y-106623468D01*
X103692854Y-106627783D01*
X103688386Y-106633223D01*
X103685025Y-106637315D01*
X103664361Y-106657305D01*
X103629099Y-106684362D01*
X103600613Y-106700808D01*
X103546582Y-106723188D01*
X103514811Y-106731701D01*
X103477523Y-106736610D01*
X103459317Y-106737676D01*
X103458027Y-106737658D01*
X103451039Y-106736775D01*
X103444032Y-106737462D01*
X103444028Y-106737462D01*
X103408980Y-106740899D01*
X103396684Y-106741500D01*
X101612151Y-106741500D01*
X101594618Y-106740274D01*
X101585624Y-106739010D01*
X101575221Y-106737548D01*
X101575218Y-106737548D01*
X101571313Y-106736999D01*
X101563171Y-106736885D01*
X101553963Y-106736756D01*
X101553956Y-106736756D01*
X101550000Y-106736701D01*
X101546062Y-106737143D01*
X101546055Y-106737143D01*
X101541749Y-106737626D01*
X101533204Y-106738291D01*
X101191731Y-106753200D01*
X101191720Y-106753201D01*
X101188971Y-106753321D01*
X101033135Y-106773837D01*
X100833429Y-106800128D01*
X100833420Y-106800130D01*
X100830690Y-106800489D01*
X100827995Y-106801086D01*
X100827992Y-106801087D01*
X100547882Y-106863186D01*
X100477883Y-106878705D01*
X100475266Y-106879530D01*
X100475259Y-106879532D01*
X100352848Y-106918128D01*
X100133236Y-106987371D01*
X99799371Y-107125663D01*
X99478829Y-107292526D01*
X99174051Y-107486691D01*
X99173405Y-107485677D01*
X99110574Y-107506862D01*
X99068222Y-107501294D01*
X99047874Y-107494976D01*
X99047864Y-107494974D01*
X99042773Y-107493393D01*
X99037487Y-107492692D01*
X99037485Y-107492692D01*
X98909445Y-107475722D01*
X98844543Y-107446943D01*
X98805503Y-107387644D01*
X98800000Y-107350814D01*
X98800000Y-104900000D01*
X98700000Y-104900000D01*
X98700000Y-107346468D01*
X98679998Y-107414589D01*
X98626342Y-107461082D01*
X98589352Y-107471529D01*
X98589174Y-107471551D01*
X98583842Y-107471751D01*
X98578623Y-107472846D01*
X98564916Y-107475722D01*
X98358209Y-107519093D01*
X98353250Y-107521051D01*
X98353248Y-107521052D01*
X98148744Y-107601815D01*
X98148742Y-107601816D01*
X98143779Y-107603776D01*
X97946683Y-107723377D01*
X97772555Y-107874477D01*
X97769168Y-107878608D01*
X97742994Y-107910529D01*
X97684334Y-107950524D01*
X97613364Y-107952455D01*
X97552616Y-107915710D01*
X97538416Y-107896941D01*
X97451937Y-107757193D01*
X97442901Y-107745792D01*
X97328171Y-107631261D01*
X97316760Y-107622249D01*
X97178757Y-107537184D01*
X97165576Y-107531037D01*
X97011290Y-107479862D01*
X96997914Y-107476995D01*
X96903562Y-107467328D01*
X96897145Y-107467000D01*
X96522115Y-107467000D01*
X96506876Y-107471475D01*
X96505671Y-107472865D01*
X96504000Y-107480548D01*
X96504000Y-108000000D01*
X95996000Y-108000000D01*
X95996000Y-107485116D01*
X95991525Y-107469877D01*
X95990135Y-107468672D01*
X95982452Y-107467001D01*
X95602905Y-107467001D01*
X95596386Y-107467338D01*
X95500794Y-107477257D01*
X95487400Y-107480149D01*
X95333216Y-107531588D01*
X95320038Y-107537761D01*
X95182193Y-107623063D01*
X95170792Y-107632099D01*
X95056261Y-107746829D01*
X95047249Y-107758240D01*
X94962184Y-107896243D01*
X94956037Y-107909423D01*
X94954628Y-107913672D01*
X94914195Y-107972030D01*
X94848630Y-107999265D01*
X94835036Y-108000000D01*
X93248095Y-108000000D01*
X93179974Y-107979998D01*
X93159000Y-107963095D01*
X92533323Y-107337418D01*
X92522455Y-107325027D01*
X92510565Y-107309531D01*
X92510563Y-107309529D01*
X92505943Y-107303508D01*
X92493882Y-107293845D01*
X92476854Y-107277343D01*
X92377585Y-107161114D01*
X92365964Y-107145119D01*
X92274304Y-106995545D01*
X92265330Y-106977934D01*
X92198195Y-106815856D01*
X92192087Y-106797057D01*
X92186513Y-106773837D01*
X92168144Y-106697327D01*
X92171691Y-106626420D01*
X92197025Y-106583607D01*
X92239040Y-106536944D01*
X92334527Y-106371556D01*
X92393542Y-106189928D01*
X92413504Y-106000000D01*
X92409747Y-105964252D01*
X92394232Y-105816635D01*
X92394232Y-105816633D01*
X92393542Y-105810072D01*
X92334527Y-105628444D01*
X92239040Y-105463056D01*
X92111253Y-105321134D01*
X92051938Y-105278039D01*
X92008585Y-105221818D01*
X92000000Y-105176104D01*
X92000000Y-104176000D01*
X92020002Y-104107879D01*
X92073658Y-104061386D01*
X92126000Y-104050000D01*
X95150000Y-104050000D01*
X95150000Y-103950000D01*
X92280871Y-103950000D01*
X92212750Y-103929998D01*
X92166257Y-103876342D01*
X92156153Y-103806068D01*
X92164462Y-103775783D01*
X92186732Y-103722017D01*
X92189783Y-103712627D01*
X92242885Y-103491446D01*
X92244428Y-103481699D01*
X92262275Y-103254930D01*
X92262275Y-103245070D01*
X92244428Y-103018301D01*
X92242885Y-103008554D01*
X92189783Y-102787373D01*
X92186734Y-102777988D01*
X92099688Y-102567839D01*
X92095207Y-102559045D01*
X92018567Y-102433980D01*
X92000000Y-102368145D01*
X92000000Y-100926000D01*
X92020002Y-100857879D01*
X92073658Y-100811386D01*
X92126000Y-100800000D01*
X95100000Y-100800000D01*
X95100000Y-100700000D01*
X92126000Y-100700000D01*
X92057879Y-100679998D01*
X92011386Y-100626342D01*
X92000000Y-100574000D01*
X92000000Y-97632810D01*
X92018568Y-97566975D01*
X92095652Y-97441186D01*
X92098240Y-97436963D01*
X92189105Y-97217594D01*
X92230139Y-97046676D01*
X92243380Y-96991524D01*
X92243381Y-96991518D01*
X92244535Y-96986711D01*
X92263165Y-96750000D01*
X92244535Y-96513289D01*
X92243290Y-96508100D01*
X92190260Y-96287218D01*
X92189105Y-96282406D01*
X92167180Y-96229473D01*
X92100135Y-96067611D01*
X92100133Y-96067607D01*
X92098240Y-96063037D01*
X92095655Y-96058818D01*
X92095649Y-96058807D01*
X92042483Y-95972049D01*
X92023944Y-95903516D01*
X92026915Y-95878881D01*
X92028342Y-95872462D01*
X92495872Y-93768574D01*
X92530176Y-93706415D01*
X92567623Y-93680801D01*
X92650722Y-93643803D01*
X92650724Y-93643802D01*
X92656752Y-93641118D01*
X92811253Y-93528866D01*
X92815668Y-93523963D01*
X92820580Y-93519540D01*
X92821705Y-93520789D01*
X92875014Y-93487949D01*
X92908200Y-93483500D01*
X93169314Y-93483500D01*
X93237435Y-93503502D01*
G37*
%TD.AperFunction*%
%TA.AperFunction,Conductor*%
G36*
X106245109Y-96481282D02*
G01*
X106286291Y-96539114D01*
X106292531Y-96567154D01*
X106303204Y-96668698D01*
X106306458Y-96699660D01*
X106365473Y-96881288D01*
X106368776Y-96887010D01*
X106368777Y-96887011D01*
X106379867Y-96906219D01*
X106460960Y-97046676D01*
X106534137Y-97127947D01*
X106564853Y-97191953D01*
X106566500Y-97212256D01*
X106566500Y-102921456D01*
X106546498Y-102989577D01*
X106534137Y-103005765D01*
X106459592Y-103088556D01*
X106375426Y-103234335D01*
X106348134Y-103267149D01*
X106345011Y-103269816D01*
X106280220Y-103298843D01*
X106263186Y-103300000D01*
X105609500Y-103300000D01*
X105541379Y-103279998D01*
X105494886Y-103226342D01*
X105483500Y-103174000D01*
X105483500Y-97072342D01*
X105503502Y-97004221D01*
X105558251Y-96957235D01*
X105700722Y-96893803D01*
X105700724Y-96893802D01*
X105706752Y-96891118D01*
X105717681Y-96883178D01*
X105786744Y-96833000D01*
X105861253Y-96778866D01*
X105960449Y-96668698D01*
X105984621Y-96641852D01*
X105984622Y-96641851D01*
X105989040Y-96636944D01*
X106058102Y-96517325D01*
X106109484Y-96468332D01*
X106179198Y-96454896D01*
X106245109Y-96481282D01*
G37*
%TD.AperFunction*%
%TA.AperFunction,Conductor*%
G36*
X106524431Y-95028502D02*
G01*
X106545405Y-95045405D01*
X106942534Y-95442534D01*
X106976560Y-95504846D01*
X106971495Y-95575661D01*
X106928948Y-95632497D01*
X106904688Y-95646736D01*
X106749278Y-95715929D01*
X106749276Y-95715930D01*
X106743248Y-95718614D01*
X106588747Y-95830866D01*
X106584326Y-95835776D01*
X106584325Y-95835777D01*
X106526905Y-95899549D01*
X106460960Y-95972788D01*
X106391898Y-96092407D01*
X106340516Y-96141400D01*
X106270802Y-96154836D01*
X106204891Y-96128450D01*
X106163709Y-96070618D01*
X106157469Y-96042578D01*
X106144232Y-95916635D01*
X106144232Y-95916633D01*
X106143542Y-95910072D01*
X106084527Y-95728444D01*
X106081093Y-95722495D01*
X106000795Y-95583416D01*
X105989040Y-95563056D01*
X105976895Y-95549567D01*
X105865675Y-95426045D01*
X105865674Y-95426044D01*
X105861253Y-95421134D01*
X105748806Y-95339436D01*
X105705452Y-95283213D01*
X105699377Y-95212477D01*
X105732509Y-95149686D01*
X105748806Y-95135564D01*
X105839300Y-95069816D01*
X105861253Y-95053866D01*
X105865668Y-95048963D01*
X105870580Y-95044540D01*
X105871705Y-95045789D01*
X105925014Y-95012949D01*
X105958200Y-95008500D01*
X106456310Y-95008500D01*
X106524431Y-95028502D01*
G37*
%TD.AperFunction*%
%TD*%
M02*
