%TF.GenerationSoftware,KiCad,Pcbnew,(5.1.9-0-10_14)*%
%TF.CreationDate,2021-04-27T08:38:35+01:00*%
%TF.ProjectId,PN532,504e3533-322e-46b6-9963-61645f706362,2*%
%TF.SameCoordinates,Original*%
%TF.FileFunction,Legend,Top*%
%TF.FilePolarity,Positive*%
%FSLAX46Y46*%
G04 Gerber Fmt 4.6, Leading zero omitted, Abs format (unit mm)*
G04 Created by KiCad (PCBNEW (5.1.9-0-10_14)) date 2021-04-27 08:38:35*
%MOMM*%
%LPD*%
G01*
G04 APERTURE LIST*
%ADD10C,0.150000*%
%ADD11C,0.120000*%
G04 APERTURE END LIST*
D10*
X136138095Y-100833333D02*
X135661904Y-100833333D01*
X136233333Y-100547619D02*
X135900000Y-101547619D01*
X135566666Y-100547619D01*
X153857142Y-76714285D02*
X153666666Y-76047619D01*
X153476190Y-76523809D01*
X153285714Y-76047619D01*
X153095238Y-76714285D01*
X152809523Y-76714285D02*
X152619047Y-76047619D01*
X152428571Y-76523809D01*
X152238095Y-76047619D01*
X152047619Y-76714285D01*
X151761904Y-76714285D02*
X151571428Y-76047619D01*
X151380952Y-76523809D01*
X151190476Y-76047619D01*
X151000000Y-76714285D01*
X150619047Y-76142857D02*
X150571428Y-76095238D01*
X150619047Y-76047619D01*
X150666666Y-76095238D01*
X150619047Y-76142857D01*
X150619047Y-76047619D01*
X150142857Y-76047619D02*
X150142857Y-76714285D01*
X150142857Y-76619047D02*
X150095238Y-76666666D01*
X150000000Y-76714285D01*
X149857142Y-76714285D01*
X149761904Y-76666666D01*
X149714285Y-76571428D01*
X149714285Y-76047619D01*
X149714285Y-76571428D02*
X149666666Y-76666666D01*
X149571428Y-76714285D01*
X149428571Y-76714285D01*
X149333333Y-76666666D01*
X149285714Y-76571428D01*
X149285714Y-76047619D01*
X148428571Y-76095238D02*
X148523809Y-76047619D01*
X148714285Y-76047619D01*
X148809523Y-76095238D01*
X148857142Y-76190476D01*
X148857142Y-76571428D01*
X148809523Y-76666666D01*
X148714285Y-76714285D01*
X148523809Y-76714285D01*
X148428571Y-76666666D01*
X148380952Y-76571428D01*
X148380952Y-76476190D01*
X148857142Y-76380952D01*
X147952380Y-76142857D02*
X147904761Y-76095238D01*
X147952380Y-76047619D01*
X148000000Y-76095238D01*
X147952380Y-76142857D01*
X147952380Y-76047619D01*
X147047619Y-76714285D02*
X147047619Y-76047619D01*
X147476190Y-76714285D02*
X147476190Y-76190476D01*
X147428571Y-76095238D01*
X147333333Y-76047619D01*
X147190476Y-76047619D01*
X147095238Y-76095238D01*
X147047619Y-76142857D01*
X146571428Y-76047619D02*
X146571428Y-77047619D01*
X146476190Y-76428571D02*
X146190476Y-76047619D01*
X146190476Y-76714285D02*
X146571428Y-76333333D01*
X152595238Y-83547619D02*
X152023809Y-83547619D01*
X152309523Y-82547619D02*
X152309523Y-83547619D01*
X151261904Y-82547619D02*
X151261904Y-83071428D01*
X151309523Y-83166666D01*
X151404761Y-83214285D01*
X151595238Y-83214285D01*
X151690476Y-83166666D01*
X151261904Y-82595238D02*
X151357142Y-82547619D01*
X151595238Y-82547619D01*
X151690476Y-82595238D01*
X151738095Y-82690476D01*
X151738095Y-82785714D01*
X151690476Y-82880952D01*
X151595238Y-82928571D01*
X151357142Y-82928571D01*
X151261904Y-82976190D01*
X150785714Y-82547619D02*
X150785714Y-83214285D01*
X150785714Y-83119047D02*
X150738095Y-83166666D01*
X150642857Y-83214285D01*
X150500000Y-83214285D01*
X150404761Y-83166666D01*
X150357142Y-83071428D01*
X150357142Y-82547619D01*
X150357142Y-83071428D02*
X150309523Y-83166666D01*
X150214285Y-83214285D01*
X150071428Y-83214285D01*
X149976190Y-83166666D01*
X149928571Y-83071428D01*
X149928571Y-82547619D01*
X149452380Y-83214285D02*
X149452380Y-82214285D01*
X149452380Y-83166666D02*
X149357142Y-83214285D01*
X149166666Y-83214285D01*
X149071428Y-83166666D01*
X149023809Y-83119047D01*
X148976190Y-83023809D01*
X148976190Y-82738095D01*
X149023809Y-82642857D01*
X149071428Y-82595238D01*
X149166666Y-82547619D01*
X149357142Y-82547619D01*
X149452380Y-82595238D01*
X148166666Y-82595238D02*
X148261904Y-82547619D01*
X148452380Y-82547619D01*
X148547619Y-82595238D01*
X148595238Y-82690476D01*
X148595238Y-83071428D01*
X148547619Y-83166666D01*
X148452380Y-83214285D01*
X148261904Y-83214285D01*
X148166666Y-83166666D01*
X148119047Y-83071428D01*
X148119047Y-82976190D01*
X148595238Y-82880952D01*
X147690476Y-82547619D02*
X147690476Y-83214285D01*
X147690476Y-83023809D02*
X147642857Y-83119047D01*
X147595238Y-83166666D01*
X147500000Y-83214285D01*
X147404761Y-83214285D01*
X135638095Y-95500000D02*
X135733333Y-95547619D01*
X135876190Y-95547619D01*
X136019047Y-95500000D01*
X136114285Y-95404761D01*
X136161904Y-95309523D01*
X136209523Y-95119047D01*
X136209523Y-94976190D01*
X136161904Y-94785714D01*
X136114285Y-94690476D01*
X136019047Y-94595238D01*
X135876190Y-94547619D01*
X135780952Y-94547619D01*
X135638095Y-94595238D01*
X135590476Y-94642857D01*
X135590476Y-94976190D01*
X135780952Y-94976190D01*
X135590476Y-106447619D02*
X135923809Y-106923809D01*
X136161904Y-106447619D02*
X136161904Y-107447619D01*
X135780952Y-107447619D01*
X135685714Y-107400000D01*
X135638095Y-107352380D01*
X135590476Y-107257142D01*
X135590476Y-107114285D01*
X135638095Y-107019047D01*
X135685714Y-106971428D01*
X135780952Y-106923809D01*
X136161904Y-106923809D01*
X154202380Y-113666666D02*
X153726190Y-114000000D01*
X154202380Y-114238095D02*
X153202380Y-114238095D01*
X153202380Y-113857142D01*
X153250000Y-113761904D01*
X153297619Y-113714285D01*
X153392857Y-113666666D01*
X153535714Y-113666666D01*
X153630952Y-113714285D01*
X153678571Y-113761904D01*
X153726190Y-113857142D01*
X153726190Y-114238095D01*
X153202380Y-113333333D02*
X154202380Y-112666666D01*
X153202380Y-112666666D02*
X154202380Y-113333333D01*
X150702380Y-114261904D02*
X150702380Y-113690476D01*
X151702380Y-113976190D02*
X150702380Y-113976190D01*
X150702380Y-113452380D02*
X151702380Y-112785714D01*
X150702380Y-112785714D02*
X151702380Y-113452380D01*
X148202380Y-114833333D02*
X149202380Y-114500000D01*
X148202380Y-114166666D01*
X149107142Y-113261904D02*
X149154761Y-113309523D01*
X149202380Y-113452380D01*
X149202380Y-113547619D01*
X149154761Y-113690476D01*
X149059523Y-113785714D01*
X148964285Y-113833333D01*
X148773809Y-113880952D01*
X148630952Y-113880952D01*
X148440476Y-113833333D01*
X148345238Y-113785714D01*
X148250000Y-113690476D01*
X148202380Y-113547619D01*
X148202380Y-113452380D01*
X148250000Y-113309523D01*
X148297619Y-113261904D01*
X149107142Y-112261904D02*
X149154761Y-112309523D01*
X149202380Y-112452380D01*
X149202380Y-112547619D01*
X149154761Y-112690476D01*
X149059523Y-112785714D01*
X148964285Y-112833333D01*
X148773809Y-112880952D01*
X148630952Y-112880952D01*
X148440476Y-112833333D01*
X148345238Y-112785714D01*
X148250000Y-112690476D01*
X148202380Y-112547619D01*
X148202380Y-112452380D01*
X148250000Y-112309523D01*
X148297619Y-112261904D01*
X145750000Y-114261904D02*
X145702380Y-114357142D01*
X145702380Y-114500000D01*
X145750000Y-114642857D01*
X145845238Y-114738095D01*
X145940476Y-114785714D01*
X146130952Y-114833333D01*
X146273809Y-114833333D01*
X146464285Y-114785714D01*
X146559523Y-114738095D01*
X146654761Y-114642857D01*
X146702380Y-114500000D01*
X146702380Y-114404761D01*
X146654761Y-114261904D01*
X146607142Y-114214285D01*
X146273809Y-114214285D01*
X146273809Y-114404761D01*
X146702380Y-113785714D02*
X145702380Y-113785714D01*
X146702380Y-113214285D01*
X145702380Y-113214285D01*
X146702380Y-112738095D02*
X145702380Y-112738095D01*
X145702380Y-112500000D01*
X145750000Y-112357142D01*
X145845238Y-112261904D01*
X145940476Y-112214285D01*
X146130952Y-112166666D01*
X146273809Y-112166666D01*
X146464285Y-112214285D01*
X146559523Y-112261904D01*
X146654761Y-112357142D01*
X146702380Y-112500000D01*
X146702380Y-112738095D01*
D11*
%TO.C,R11*%
X147335000Y-88727064D02*
X147335000Y-88272936D01*
X145865000Y-88727064D02*
X145865000Y-88272936D01*
%TO.C,J1*%
X144330000Y-85600000D02*
X143000000Y-85600000D01*
X144330000Y-84270000D02*
X144330000Y-85600000D01*
X144330000Y-83000000D02*
X141670000Y-83000000D01*
X141670000Y-83000000D02*
X141670000Y-80400000D01*
X144330000Y-83000000D02*
X144330000Y-80400000D01*
X144330000Y-80400000D02*
X141670000Y-80400000D01*
%TO.C,R4*%
X156472936Y-82335000D02*
X156927064Y-82335000D01*
X156472936Y-80865000D02*
X156927064Y-80865000D01*
%TO.C,A1*%
X166000000Y-111500000D02*
X134000000Y-111500000D01*
X133500000Y-111000000D02*
X133500000Y-79000000D01*
X134000000Y-78500000D02*
X166000000Y-78500000D01*
X166500000Y-79000000D02*
X166500000Y-111000000D01*
X170500000Y-79000000D02*
X170500000Y-111000000D01*
X166000000Y-115500000D02*
X134000000Y-115500000D01*
X129500000Y-111000000D02*
X129500000Y-79000000D01*
X134000000Y-74500000D02*
X166000000Y-74500000D01*
X170500000Y-79000000D02*
G75*
G03*
X166000000Y-74500000I-4500000J0D01*
G01*
X134000000Y-74500000D02*
G75*
G03*
X129500000Y-79000000I0J-4500000D01*
G01*
X129500000Y-111000000D02*
G75*
G03*
X134000000Y-115500000I4500000J0D01*
G01*
X166000000Y-115500000D02*
G75*
G03*
X170500000Y-111000000I0J4500000D01*
G01*
X166500000Y-79000000D02*
G75*
G03*
X166000000Y-78500000I-500000J0D01*
G01*
X134000000Y-78500000D02*
G75*
G03*
X133500000Y-79000000I0J-500000D01*
G01*
X133500000Y-111000000D02*
G75*
G03*
X134000000Y-111500000I500000J0D01*
G01*
X166000000Y-111500000D02*
G75*
G03*
X166500000Y-111000000I0J500000D01*
G01*
%TO.C,J3*%
X143690000Y-102490000D02*
X143690000Y-110610000D01*
X143690000Y-110610000D02*
X156310000Y-110610000D01*
X156310000Y-110610000D02*
X156310000Y-102490000D01*
X156310000Y-102490000D02*
X143690000Y-102490000D01*
X143390000Y-104600000D02*
X143390000Y-102190000D01*
X143390000Y-102190000D02*
X145800000Y-102190000D01*
%TO.C,C14*%
X158665000Y-100376248D02*
X158665000Y-100898752D01*
X160135000Y-100376248D02*
X160135000Y-100898752D01*
%TO.C,C17*%
X149435000Y-88723752D02*
X149435000Y-88201248D01*
X147965000Y-88723752D02*
X147965000Y-88201248D01*
%TO.C,C16*%
X151535000Y-88723752D02*
X151535000Y-88201248D01*
X150065000Y-88723752D02*
X150065000Y-88201248D01*
%TO.C,C15*%
X156765000Y-88201248D02*
X156765000Y-88723752D01*
X158235000Y-88201248D02*
X158235000Y-88723752D01*
%TO.C,C13*%
X152523752Y-99965000D02*
X152001248Y-99965000D01*
X152523752Y-101435000D02*
X152001248Y-101435000D01*
%TO.C,C12*%
X156001248Y-101435000D02*
X156523752Y-101435000D01*
X156001248Y-99965000D02*
X156523752Y-99965000D01*
%TO.C,C11*%
X160865000Y-94738748D02*
X160865000Y-95261252D01*
X162335000Y-94738748D02*
X162335000Y-95261252D01*
%TO.C,C10*%
X160335000Y-88723752D02*
X160335000Y-88201248D01*
X158865000Y-88723752D02*
X158865000Y-88201248D01*
%TO.C,C9*%
X164301248Y-94635000D02*
X164823752Y-94635000D01*
X164301248Y-93165000D02*
X164823752Y-93165000D01*
%TO.C,C8*%
X154965000Y-84301248D02*
X154965000Y-84823752D01*
X156435000Y-84301248D02*
X156435000Y-84823752D01*
%TO.C,C7*%
X164301248Y-96835000D02*
X164823752Y-96835000D01*
X164301248Y-95365000D02*
X164823752Y-95365000D01*
%TO.C,C6*%
X162798752Y-87065000D02*
X162276248Y-87065000D01*
X162798752Y-88535000D02*
X162276248Y-88535000D01*
%TO.C,C5*%
X162798752Y-101465000D02*
X162276248Y-101465000D01*
X162798752Y-102935000D02*
X162276248Y-102935000D01*
%TO.C,C4*%
X162798752Y-89196428D02*
X162276248Y-89196428D01*
X162798752Y-90666428D02*
X162276248Y-90666428D01*
%TO.C,C3*%
X162276248Y-100803568D02*
X162798752Y-100803568D01*
X162276248Y-99333568D02*
X162798752Y-99333568D01*
%TO.C,L2*%
X162947742Y-91440000D02*
X162127258Y-91440000D01*
X162947742Y-92560000D02*
X162127258Y-92560000D01*
%TO.C,L1*%
X162127258Y-98560000D02*
X162947742Y-98560000D01*
X162127258Y-97440000D02*
X162947742Y-97440000D01*
%TO.C,C2*%
X164765000Y-86738748D02*
X164765000Y-87261252D01*
X166235000Y-86738748D02*
X166235000Y-87261252D01*
%TO.C,C1*%
X164765000Y-102738748D02*
X164765000Y-103261252D01*
X166235000Y-102738748D02*
X166235000Y-103261252D01*
%TO.C,R10*%
X149372936Y-92035000D02*
X149827064Y-92035000D01*
X149372936Y-90565000D02*
X149827064Y-90565000D01*
%TO.C,R9*%
X144077064Y-95565000D02*
X143622936Y-95565000D01*
X144077064Y-97035000D02*
X143622936Y-97035000D01*
%TO.C,R8*%
X144077064Y-93265000D02*
X143622936Y-93265000D01*
X144077064Y-94735000D02*
X143622936Y-94735000D01*
%TO.C,R7*%
X144077064Y-90965000D02*
X143622936Y-90965000D01*
X144077064Y-92435000D02*
X143622936Y-92435000D01*
%TO.C,R6*%
X143635000Y-99727064D02*
X143635000Y-99272936D01*
X142165000Y-99727064D02*
X142165000Y-99272936D01*
%TO.C,R5*%
X144165000Y-99272936D02*
X144165000Y-99727064D01*
X145635000Y-99272936D02*
X145635000Y-99727064D01*
%TO.C,R3*%
X156965000Y-84372936D02*
X156965000Y-84827064D01*
X158435000Y-84372936D02*
X158435000Y-84827064D01*
%TO.C,R2*%
X164765000Y-90772936D02*
X164765000Y-91227064D01*
X166235000Y-90772936D02*
X166235000Y-91227064D01*
%TO.C,R1*%
X166235000Y-99227064D02*
X166235000Y-98772936D01*
X164765000Y-99227064D02*
X164765000Y-98772936D01*
%TO.C,SW1*%
X152250000Y-79750000D02*
X147750000Y-79750000D01*
X153500000Y-83750000D02*
X153500000Y-82250000D01*
X147750000Y-86250000D02*
X152250000Y-86250000D01*
X146500000Y-82250000D02*
X146500000Y-83750000D01*
%TO.C,U1*%
X158660000Y-97835000D02*
X159135000Y-97835000D01*
X152915000Y-91615000D02*
X152915000Y-92090000D01*
X153390000Y-91615000D02*
X152915000Y-91615000D01*
X159135000Y-91615000D02*
X159135000Y-92090000D01*
X158660000Y-91615000D02*
X159135000Y-91615000D01*
X152915000Y-97835000D02*
X152915000Y-97360000D01*
X153390000Y-97835000D02*
X152915000Y-97835000D01*
%TO.C,J4*%
X146850000Y-91675000D02*
X153150000Y-91675000D01*
X146850000Y-98325000D02*
X146850000Y-91675000D01*
X153150000Y-98325000D02*
X146850000Y-98325000D01*
X153150000Y-91675000D02*
X153150000Y-98325000D01*
%TO.C,H2*%
D10*
X137238095Y-79602380D02*
X137238095Y-78602380D01*
X137238095Y-79078571D02*
X137809523Y-79078571D01*
X137809523Y-79602380D02*
X137809523Y-78602380D01*
X138238095Y-78697619D02*
X138285714Y-78650000D01*
X138380952Y-78602380D01*
X138619047Y-78602380D01*
X138714285Y-78650000D01*
X138761904Y-78697619D01*
X138809523Y-78792857D01*
X138809523Y-78888095D01*
X138761904Y-79030952D01*
X138190476Y-79602380D01*
X138809523Y-79602380D01*
%TO.C,H1*%
X161238095Y-103602380D02*
X161238095Y-102602380D01*
X161238095Y-103078571D02*
X161809523Y-103078571D01*
X161809523Y-103602380D02*
X161809523Y-102602380D01*
X162809523Y-103602380D02*
X162238095Y-103602380D01*
X162523809Y-103602380D02*
X162523809Y-102602380D01*
X162428571Y-102745238D01*
X162333333Y-102840476D01*
X162238095Y-102888095D01*
%TO.C,R11*%
X146652380Y-92142857D02*
X146176190Y-92476190D01*
X146652380Y-92714285D02*
X145652380Y-92714285D01*
X145652380Y-92333333D01*
X145700000Y-92238095D01*
X145747619Y-92190476D01*
X145842857Y-92142857D01*
X145985714Y-92142857D01*
X146080952Y-92190476D01*
X146128571Y-92238095D01*
X146176190Y-92333333D01*
X146176190Y-92714285D01*
X146652380Y-91190476D02*
X146652380Y-91761904D01*
X146652380Y-91476190D02*
X145652380Y-91476190D01*
X145795238Y-91571428D01*
X145890476Y-91666666D01*
X145938095Y-91761904D01*
X146652380Y-90238095D02*
X146652380Y-90809523D01*
X146652380Y-90523809D02*
X145652380Y-90523809D01*
X145795238Y-90619047D01*
X145890476Y-90714285D01*
X145938095Y-90809523D01*
%TO.C,R4*%
X156533333Y-80452380D02*
X156200000Y-79976190D01*
X155961904Y-80452380D02*
X155961904Y-79452380D01*
X156342857Y-79452380D01*
X156438095Y-79500000D01*
X156485714Y-79547619D01*
X156533333Y-79642857D01*
X156533333Y-79785714D01*
X156485714Y-79880952D01*
X156438095Y-79928571D01*
X156342857Y-79976190D01*
X155961904Y-79976190D01*
X157390476Y-79785714D02*
X157390476Y-80452380D01*
X157152380Y-79404761D02*
X156914285Y-80119047D01*
X157533333Y-80119047D01*
%TO.C,C14*%
X159857142Y-104542857D02*
X159904761Y-104590476D01*
X159952380Y-104733333D01*
X159952380Y-104828571D01*
X159904761Y-104971428D01*
X159809523Y-105066666D01*
X159714285Y-105114285D01*
X159523809Y-105161904D01*
X159380952Y-105161904D01*
X159190476Y-105114285D01*
X159095238Y-105066666D01*
X159000000Y-104971428D01*
X158952380Y-104828571D01*
X158952380Y-104733333D01*
X159000000Y-104590476D01*
X159047619Y-104542857D01*
X159952380Y-103590476D02*
X159952380Y-104161904D01*
X159952380Y-103876190D02*
X158952380Y-103876190D01*
X159095238Y-103971428D01*
X159190476Y-104066666D01*
X159238095Y-104161904D01*
X159285714Y-102733333D02*
X159952380Y-102733333D01*
X158904761Y-102971428D02*
X159619047Y-103209523D01*
X159619047Y-102590476D01*
%TO.C,C17*%
X149057142Y-85792857D02*
X149104761Y-85840476D01*
X149152380Y-85983333D01*
X149152380Y-86078571D01*
X149104761Y-86221428D01*
X149009523Y-86316666D01*
X148914285Y-86364285D01*
X148723809Y-86411904D01*
X148580952Y-86411904D01*
X148390476Y-86364285D01*
X148295238Y-86316666D01*
X148200000Y-86221428D01*
X148152380Y-86078571D01*
X148152380Y-85983333D01*
X148200000Y-85840476D01*
X148247619Y-85792857D01*
X149152380Y-84840476D02*
X149152380Y-85411904D01*
X149152380Y-85126190D02*
X148152380Y-85126190D01*
X148295238Y-85221428D01*
X148390476Y-85316666D01*
X148438095Y-85411904D01*
X148152380Y-84507142D02*
X148152380Y-83840476D01*
X149152380Y-84269047D01*
%TO.C,C16*%
X151157142Y-85792857D02*
X151204761Y-85840476D01*
X151252380Y-85983333D01*
X151252380Y-86078571D01*
X151204761Y-86221428D01*
X151109523Y-86316666D01*
X151014285Y-86364285D01*
X150823809Y-86411904D01*
X150680952Y-86411904D01*
X150490476Y-86364285D01*
X150395238Y-86316666D01*
X150300000Y-86221428D01*
X150252380Y-86078571D01*
X150252380Y-85983333D01*
X150300000Y-85840476D01*
X150347619Y-85792857D01*
X151252380Y-84840476D02*
X151252380Y-85411904D01*
X151252380Y-85126190D02*
X150252380Y-85126190D01*
X150395238Y-85221428D01*
X150490476Y-85316666D01*
X150538095Y-85411904D01*
X150252380Y-83983333D02*
X150252380Y-84173809D01*
X150300000Y-84269047D01*
X150347619Y-84316666D01*
X150490476Y-84411904D01*
X150680952Y-84459523D01*
X151061904Y-84459523D01*
X151157142Y-84411904D01*
X151204761Y-84364285D01*
X151252380Y-84269047D01*
X151252380Y-84078571D01*
X151204761Y-83983333D01*
X151157142Y-83935714D01*
X151061904Y-83888095D01*
X150823809Y-83888095D01*
X150728571Y-83935714D01*
X150680952Y-83983333D01*
X150633333Y-84078571D01*
X150633333Y-84269047D01*
X150680952Y-84364285D01*
X150728571Y-84411904D01*
X150823809Y-84459523D01*
%TO.C,C15*%
X156757142Y-91007142D02*
X156709523Y-91054761D01*
X156566666Y-91102380D01*
X156471428Y-91102380D01*
X156328571Y-91054761D01*
X156233333Y-90959523D01*
X156185714Y-90864285D01*
X156138095Y-90673809D01*
X156138095Y-90530952D01*
X156185714Y-90340476D01*
X156233333Y-90245238D01*
X156328571Y-90150000D01*
X156471428Y-90102380D01*
X156566666Y-90102380D01*
X156709523Y-90150000D01*
X156757142Y-90197619D01*
X157709523Y-91102380D02*
X157138095Y-91102380D01*
X157423809Y-91102380D02*
X157423809Y-90102380D01*
X157328571Y-90245238D01*
X157233333Y-90340476D01*
X157138095Y-90388095D01*
X158614285Y-90102380D02*
X158138095Y-90102380D01*
X158090476Y-90578571D01*
X158138095Y-90530952D01*
X158233333Y-90483333D01*
X158471428Y-90483333D01*
X158566666Y-90530952D01*
X158614285Y-90578571D01*
X158661904Y-90673809D01*
X158661904Y-90911904D01*
X158614285Y-91007142D01*
X158566666Y-91054761D01*
X158471428Y-91102380D01*
X158233333Y-91102380D01*
X158138095Y-91054761D01*
X158090476Y-91007142D01*
%TO.C,C13*%
X151619642Y-99457142D02*
X151572023Y-99504761D01*
X151429166Y-99552380D01*
X151333928Y-99552380D01*
X151191071Y-99504761D01*
X151095833Y-99409523D01*
X151048214Y-99314285D01*
X151000595Y-99123809D01*
X151000595Y-98980952D01*
X151048214Y-98790476D01*
X151095833Y-98695238D01*
X151191071Y-98600000D01*
X151333928Y-98552380D01*
X151429166Y-98552380D01*
X151572023Y-98600000D01*
X151619642Y-98647619D01*
X152572023Y-99552380D02*
X152000595Y-99552380D01*
X152286309Y-99552380D02*
X152286309Y-98552380D01*
X152191071Y-98695238D01*
X152095833Y-98790476D01*
X152000595Y-98838095D01*
X152905357Y-98552380D02*
X153524404Y-98552380D01*
X153191071Y-98933333D01*
X153333928Y-98933333D01*
X153429166Y-98980952D01*
X153476785Y-99028571D01*
X153524404Y-99123809D01*
X153524404Y-99361904D01*
X153476785Y-99457142D01*
X153429166Y-99504761D01*
X153333928Y-99552380D01*
X153048214Y-99552380D01*
X152952976Y-99504761D01*
X152905357Y-99457142D01*
%TO.C,C12*%
X155657142Y-99457142D02*
X155609523Y-99504761D01*
X155466666Y-99552380D01*
X155371428Y-99552380D01*
X155228571Y-99504761D01*
X155133333Y-99409523D01*
X155085714Y-99314285D01*
X155038095Y-99123809D01*
X155038095Y-98980952D01*
X155085714Y-98790476D01*
X155133333Y-98695238D01*
X155228571Y-98600000D01*
X155371428Y-98552380D01*
X155466666Y-98552380D01*
X155609523Y-98600000D01*
X155657142Y-98647619D01*
X156609523Y-99552380D02*
X156038095Y-99552380D01*
X156323809Y-99552380D02*
X156323809Y-98552380D01*
X156228571Y-98695238D01*
X156133333Y-98790476D01*
X156038095Y-98838095D01*
X156990476Y-98647619D02*
X157038095Y-98600000D01*
X157133333Y-98552380D01*
X157371428Y-98552380D01*
X157466666Y-98600000D01*
X157514285Y-98647619D01*
X157561904Y-98742857D01*
X157561904Y-98838095D01*
X157514285Y-98980952D01*
X156942857Y-99552380D01*
X157561904Y-99552380D01*
%TO.C,C11*%
X167757142Y-95642857D02*
X167804761Y-95690476D01*
X167852380Y-95833333D01*
X167852380Y-95928571D01*
X167804761Y-96071428D01*
X167709523Y-96166666D01*
X167614285Y-96214285D01*
X167423809Y-96261904D01*
X167280952Y-96261904D01*
X167090476Y-96214285D01*
X166995238Y-96166666D01*
X166900000Y-96071428D01*
X166852380Y-95928571D01*
X166852380Y-95833333D01*
X166900000Y-95690476D01*
X166947619Y-95642857D01*
X167852380Y-94690476D02*
X167852380Y-95261904D01*
X167852380Y-94976190D02*
X166852380Y-94976190D01*
X166995238Y-95071428D01*
X167090476Y-95166666D01*
X167138095Y-95261904D01*
X167852380Y-93738095D02*
X167852380Y-94309523D01*
X167852380Y-94023809D02*
X166852380Y-94023809D01*
X166995238Y-94119047D01*
X167090476Y-94214285D01*
X167138095Y-94309523D01*
%TO.C,C10*%
X159257142Y-86557142D02*
X159209523Y-86604761D01*
X159066666Y-86652380D01*
X158971428Y-86652380D01*
X158828571Y-86604761D01*
X158733333Y-86509523D01*
X158685714Y-86414285D01*
X158638095Y-86223809D01*
X158638095Y-86080952D01*
X158685714Y-85890476D01*
X158733333Y-85795238D01*
X158828571Y-85700000D01*
X158971428Y-85652380D01*
X159066666Y-85652380D01*
X159209523Y-85700000D01*
X159257142Y-85747619D01*
X160209523Y-86652380D02*
X159638095Y-86652380D01*
X159923809Y-86652380D02*
X159923809Y-85652380D01*
X159828571Y-85795238D01*
X159733333Y-85890476D01*
X159638095Y-85938095D01*
X160828571Y-85652380D02*
X160923809Y-85652380D01*
X161019047Y-85700000D01*
X161066666Y-85747619D01*
X161114285Y-85842857D01*
X161161904Y-86033333D01*
X161161904Y-86271428D01*
X161114285Y-86461904D01*
X161066666Y-86557142D01*
X161019047Y-86604761D01*
X160923809Y-86652380D01*
X160828571Y-86652380D01*
X160733333Y-86604761D01*
X160685714Y-86557142D01*
X160638095Y-86461904D01*
X160590476Y-86271428D01*
X160590476Y-86033333D01*
X160638095Y-85842857D01*
X160685714Y-85747619D01*
X160733333Y-85700000D01*
X160828571Y-85652380D01*
%TO.C,C9*%
X168933333Y-94257142D02*
X168885714Y-94304761D01*
X168742857Y-94352380D01*
X168647619Y-94352380D01*
X168504761Y-94304761D01*
X168409523Y-94209523D01*
X168361904Y-94114285D01*
X168314285Y-93923809D01*
X168314285Y-93780952D01*
X168361904Y-93590476D01*
X168409523Y-93495238D01*
X168504761Y-93400000D01*
X168647619Y-93352380D01*
X168742857Y-93352380D01*
X168885714Y-93400000D01*
X168933333Y-93447619D01*
X169409523Y-94352380D02*
X169600000Y-94352380D01*
X169695238Y-94304761D01*
X169742857Y-94257142D01*
X169838095Y-94114285D01*
X169885714Y-93923809D01*
X169885714Y-93542857D01*
X169838095Y-93447619D01*
X169790476Y-93400000D01*
X169695238Y-93352380D01*
X169504761Y-93352380D01*
X169409523Y-93400000D01*
X169361904Y-93447619D01*
X169314285Y-93542857D01*
X169314285Y-93780952D01*
X169361904Y-93876190D01*
X169409523Y-93923809D01*
X169504761Y-93971428D01*
X169695238Y-93971428D01*
X169790476Y-93923809D01*
X169838095Y-93876190D01*
X169885714Y-93780952D01*
%TO.C,C8*%
X155457142Y-79866666D02*
X155504761Y-79914285D01*
X155552380Y-80057142D01*
X155552380Y-80152380D01*
X155504761Y-80295238D01*
X155409523Y-80390476D01*
X155314285Y-80438095D01*
X155123809Y-80485714D01*
X154980952Y-80485714D01*
X154790476Y-80438095D01*
X154695238Y-80390476D01*
X154600000Y-80295238D01*
X154552380Y-80152380D01*
X154552380Y-80057142D01*
X154600000Y-79914285D01*
X154647619Y-79866666D01*
X154980952Y-79295238D02*
X154933333Y-79390476D01*
X154885714Y-79438095D01*
X154790476Y-79485714D01*
X154742857Y-79485714D01*
X154647619Y-79438095D01*
X154600000Y-79390476D01*
X154552380Y-79295238D01*
X154552380Y-79104761D01*
X154600000Y-79009523D01*
X154647619Y-78961904D01*
X154742857Y-78914285D01*
X154790476Y-78914285D01*
X154885714Y-78961904D01*
X154933333Y-79009523D01*
X154980952Y-79104761D01*
X154980952Y-79295238D01*
X155028571Y-79390476D01*
X155076190Y-79438095D01*
X155171428Y-79485714D01*
X155361904Y-79485714D01*
X155457142Y-79438095D01*
X155504761Y-79390476D01*
X155552380Y-79295238D01*
X155552380Y-79104761D01*
X155504761Y-79009523D01*
X155457142Y-78961904D01*
X155361904Y-78914285D01*
X155171428Y-78914285D01*
X155076190Y-78961904D01*
X155028571Y-79009523D01*
X154980952Y-79104761D01*
%TO.C,C7*%
X169033333Y-96507142D02*
X168985714Y-96554761D01*
X168842857Y-96602380D01*
X168747619Y-96602380D01*
X168604761Y-96554761D01*
X168509523Y-96459523D01*
X168461904Y-96364285D01*
X168414285Y-96173809D01*
X168414285Y-96030952D01*
X168461904Y-95840476D01*
X168509523Y-95745238D01*
X168604761Y-95650000D01*
X168747619Y-95602380D01*
X168842857Y-95602380D01*
X168985714Y-95650000D01*
X169033333Y-95697619D01*
X169366666Y-95602380D02*
X170033333Y-95602380D01*
X169604761Y-96602380D01*
%TO.C,C6*%
X167333333Y-88157142D02*
X167285714Y-88204761D01*
X167142857Y-88252380D01*
X167047619Y-88252380D01*
X166904761Y-88204761D01*
X166809523Y-88109523D01*
X166761904Y-88014285D01*
X166714285Y-87823809D01*
X166714285Y-87680952D01*
X166761904Y-87490476D01*
X166809523Y-87395238D01*
X166904761Y-87300000D01*
X167047619Y-87252380D01*
X167142857Y-87252380D01*
X167285714Y-87300000D01*
X167333333Y-87347619D01*
X168190476Y-87252380D02*
X168000000Y-87252380D01*
X167904761Y-87300000D01*
X167857142Y-87347619D01*
X167761904Y-87490476D01*
X167714285Y-87680952D01*
X167714285Y-88061904D01*
X167761904Y-88157142D01*
X167809523Y-88204761D01*
X167904761Y-88252380D01*
X168095238Y-88252380D01*
X168190476Y-88204761D01*
X168238095Y-88157142D01*
X168285714Y-88061904D01*
X168285714Y-87823809D01*
X168238095Y-87728571D01*
X168190476Y-87680952D01*
X168095238Y-87633333D01*
X167904761Y-87633333D01*
X167809523Y-87680952D01*
X167761904Y-87728571D01*
X167714285Y-87823809D01*
%TO.C,C5*%
X167333333Y-102657142D02*
X167285714Y-102704761D01*
X167142857Y-102752380D01*
X167047619Y-102752380D01*
X166904761Y-102704761D01*
X166809523Y-102609523D01*
X166761904Y-102514285D01*
X166714285Y-102323809D01*
X166714285Y-102180952D01*
X166761904Y-101990476D01*
X166809523Y-101895238D01*
X166904761Y-101800000D01*
X167047619Y-101752380D01*
X167142857Y-101752380D01*
X167285714Y-101800000D01*
X167333333Y-101847619D01*
X168238095Y-101752380D02*
X167761904Y-101752380D01*
X167714285Y-102228571D01*
X167761904Y-102180952D01*
X167857142Y-102133333D01*
X168095238Y-102133333D01*
X168190476Y-102180952D01*
X168238095Y-102228571D01*
X168285714Y-102323809D01*
X168285714Y-102561904D01*
X168238095Y-102657142D01*
X168190476Y-102704761D01*
X168095238Y-102752380D01*
X167857142Y-102752380D01*
X167761904Y-102704761D01*
X167714285Y-102657142D01*
%TO.C,C4*%
X167333333Y-90257142D02*
X167285714Y-90304761D01*
X167142857Y-90352380D01*
X167047619Y-90352380D01*
X166904761Y-90304761D01*
X166809523Y-90209523D01*
X166761904Y-90114285D01*
X166714285Y-89923809D01*
X166714285Y-89780952D01*
X166761904Y-89590476D01*
X166809523Y-89495238D01*
X166904761Y-89400000D01*
X167047619Y-89352380D01*
X167142857Y-89352380D01*
X167285714Y-89400000D01*
X167333333Y-89447619D01*
X168190476Y-89685714D02*
X168190476Y-90352380D01*
X167952380Y-89304761D02*
X167714285Y-90019047D01*
X168333333Y-90019047D01*
%TO.C,C3*%
X167333333Y-100457142D02*
X167285714Y-100504761D01*
X167142857Y-100552380D01*
X167047619Y-100552380D01*
X166904761Y-100504761D01*
X166809523Y-100409523D01*
X166761904Y-100314285D01*
X166714285Y-100123809D01*
X166714285Y-99980952D01*
X166761904Y-99790476D01*
X166809523Y-99695238D01*
X166904761Y-99600000D01*
X167047619Y-99552380D01*
X167142857Y-99552380D01*
X167285714Y-99600000D01*
X167333333Y-99647619D01*
X167666666Y-99552380D02*
X168285714Y-99552380D01*
X167952380Y-99933333D01*
X168095238Y-99933333D01*
X168190476Y-99980952D01*
X168238095Y-100028571D01*
X168285714Y-100123809D01*
X168285714Y-100361904D01*
X168238095Y-100457142D01*
X168190476Y-100504761D01*
X168095238Y-100552380D01*
X167809523Y-100552380D01*
X167714285Y-100504761D01*
X167666666Y-100457142D01*
%TO.C,L2*%
X167333333Y-92419524D02*
X166857142Y-92419524D01*
X166857142Y-91419524D01*
X167619047Y-91514763D02*
X167666666Y-91467144D01*
X167761904Y-91419524D01*
X168000000Y-91419524D01*
X168095238Y-91467144D01*
X168142857Y-91514763D01*
X168190476Y-91610001D01*
X168190476Y-91705239D01*
X168142857Y-91848096D01*
X167571428Y-92419524D01*
X168190476Y-92419524D01*
%TO.C,L1*%
X167433333Y-98485240D02*
X166957142Y-98485240D01*
X166957142Y-97485240D01*
X168290476Y-98485240D02*
X167719047Y-98485240D01*
X168004761Y-98485240D02*
X168004761Y-97485240D01*
X167909523Y-97628098D01*
X167814285Y-97723336D01*
X167719047Y-97770955D01*
%TO.C,C2*%
X169457142Y-87166666D02*
X169504761Y-87214285D01*
X169552380Y-87357142D01*
X169552380Y-87452380D01*
X169504761Y-87595238D01*
X169409523Y-87690476D01*
X169314285Y-87738095D01*
X169123809Y-87785714D01*
X168980952Y-87785714D01*
X168790476Y-87738095D01*
X168695238Y-87690476D01*
X168600000Y-87595238D01*
X168552380Y-87452380D01*
X168552380Y-87357142D01*
X168600000Y-87214285D01*
X168647619Y-87166666D01*
X168647619Y-86785714D02*
X168600000Y-86738095D01*
X168552380Y-86642857D01*
X168552380Y-86404761D01*
X168600000Y-86309523D01*
X168647619Y-86261904D01*
X168742857Y-86214285D01*
X168838095Y-86214285D01*
X168980952Y-86261904D01*
X169552380Y-86833333D01*
X169552380Y-86214285D01*
%TO.C,C1*%
X169657142Y-103166666D02*
X169704761Y-103214285D01*
X169752380Y-103357142D01*
X169752380Y-103452380D01*
X169704761Y-103595238D01*
X169609523Y-103690476D01*
X169514285Y-103738095D01*
X169323809Y-103785714D01*
X169180952Y-103785714D01*
X168990476Y-103738095D01*
X168895238Y-103690476D01*
X168800000Y-103595238D01*
X168752380Y-103452380D01*
X168752380Y-103357142D01*
X168800000Y-103214285D01*
X168847619Y-103166666D01*
X169752380Y-102214285D02*
X169752380Y-102785714D01*
X169752380Y-102500000D02*
X168752380Y-102500000D01*
X168895238Y-102595238D01*
X168990476Y-102690476D01*
X169038095Y-102785714D01*
%TO.C,R10*%
X151857142Y-91152380D02*
X151523809Y-90676190D01*
X151285714Y-91152380D02*
X151285714Y-90152380D01*
X151666666Y-90152380D01*
X151761904Y-90200000D01*
X151809523Y-90247619D01*
X151857142Y-90342857D01*
X151857142Y-90485714D01*
X151809523Y-90580952D01*
X151761904Y-90628571D01*
X151666666Y-90676190D01*
X151285714Y-90676190D01*
X152809523Y-91152380D02*
X152238095Y-91152380D01*
X152523809Y-91152380D02*
X152523809Y-90152380D01*
X152428571Y-90295238D01*
X152333333Y-90390476D01*
X152238095Y-90438095D01*
X153428571Y-90152380D02*
X153523809Y-90152380D01*
X153619047Y-90200000D01*
X153666666Y-90247619D01*
X153714285Y-90342857D01*
X153761904Y-90533333D01*
X153761904Y-90771428D01*
X153714285Y-90961904D01*
X153666666Y-91057142D01*
X153619047Y-91104761D01*
X153523809Y-91152380D01*
X153428571Y-91152380D01*
X153333333Y-91104761D01*
X153285714Y-91057142D01*
X153238095Y-90961904D01*
X153190476Y-90771428D01*
X153190476Y-90533333D01*
X153238095Y-90342857D01*
X153285714Y-90247619D01*
X153333333Y-90200000D01*
X153428571Y-90152380D01*
%TO.C,R9*%
X140933333Y-96752380D02*
X140600000Y-96276190D01*
X140361904Y-96752380D02*
X140361904Y-95752380D01*
X140742857Y-95752380D01*
X140838095Y-95800000D01*
X140885714Y-95847619D01*
X140933333Y-95942857D01*
X140933333Y-96085714D01*
X140885714Y-96180952D01*
X140838095Y-96228571D01*
X140742857Y-96276190D01*
X140361904Y-96276190D01*
X141409523Y-96752380D02*
X141600000Y-96752380D01*
X141695238Y-96704761D01*
X141742857Y-96657142D01*
X141838095Y-96514285D01*
X141885714Y-96323809D01*
X141885714Y-95942857D01*
X141838095Y-95847619D01*
X141790476Y-95800000D01*
X141695238Y-95752380D01*
X141504761Y-95752380D01*
X141409523Y-95800000D01*
X141361904Y-95847619D01*
X141314285Y-95942857D01*
X141314285Y-96180952D01*
X141361904Y-96276190D01*
X141409523Y-96323809D01*
X141504761Y-96371428D01*
X141695238Y-96371428D01*
X141790476Y-96323809D01*
X141838095Y-96276190D01*
X141885714Y-96180952D01*
%TO.C,R8*%
X140933333Y-94452380D02*
X140600000Y-93976190D01*
X140361904Y-94452380D02*
X140361904Y-93452380D01*
X140742857Y-93452380D01*
X140838095Y-93500000D01*
X140885714Y-93547619D01*
X140933333Y-93642857D01*
X140933333Y-93785714D01*
X140885714Y-93880952D01*
X140838095Y-93928571D01*
X140742857Y-93976190D01*
X140361904Y-93976190D01*
X141504761Y-93880952D02*
X141409523Y-93833333D01*
X141361904Y-93785714D01*
X141314285Y-93690476D01*
X141314285Y-93642857D01*
X141361904Y-93547619D01*
X141409523Y-93500000D01*
X141504761Y-93452380D01*
X141695238Y-93452380D01*
X141790476Y-93500000D01*
X141838095Y-93547619D01*
X141885714Y-93642857D01*
X141885714Y-93690476D01*
X141838095Y-93785714D01*
X141790476Y-93833333D01*
X141695238Y-93880952D01*
X141504761Y-93880952D01*
X141409523Y-93928571D01*
X141361904Y-93976190D01*
X141314285Y-94071428D01*
X141314285Y-94261904D01*
X141361904Y-94357142D01*
X141409523Y-94404761D01*
X141504761Y-94452380D01*
X141695238Y-94452380D01*
X141790476Y-94404761D01*
X141838095Y-94357142D01*
X141885714Y-94261904D01*
X141885714Y-94071428D01*
X141838095Y-93976190D01*
X141790476Y-93928571D01*
X141695238Y-93880952D01*
%TO.C,R7*%
X140933333Y-92152380D02*
X140600000Y-91676190D01*
X140361904Y-92152380D02*
X140361904Y-91152380D01*
X140742857Y-91152380D01*
X140838095Y-91200000D01*
X140885714Y-91247619D01*
X140933333Y-91342857D01*
X140933333Y-91485714D01*
X140885714Y-91580952D01*
X140838095Y-91628571D01*
X140742857Y-91676190D01*
X140361904Y-91676190D01*
X141266666Y-91152380D02*
X141933333Y-91152380D01*
X141504761Y-92152380D01*
%TO.C,R6*%
X141752380Y-99666666D02*
X141276190Y-100000000D01*
X141752380Y-100238095D02*
X140752380Y-100238095D01*
X140752380Y-99857142D01*
X140800000Y-99761904D01*
X140847619Y-99714285D01*
X140942857Y-99666666D01*
X141085714Y-99666666D01*
X141180952Y-99714285D01*
X141228571Y-99761904D01*
X141276190Y-99857142D01*
X141276190Y-100238095D01*
X140752380Y-98809523D02*
X140752380Y-99000000D01*
X140800000Y-99095238D01*
X140847619Y-99142857D01*
X140990476Y-99238095D01*
X141180952Y-99285714D01*
X141561904Y-99285714D01*
X141657142Y-99238095D01*
X141704761Y-99190476D01*
X141752380Y-99095238D01*
X141752380Y-98904761D01*
X141704761Y-98809523D01*
X141657142Y-98761904D01*
X141561904Y-98714285D01*
X141323809Y-98714285D01*
X141228571Y-98761904D01*
X141180952Y-98809523D01*
X141133333Y-98904761D01*
X141133333Y-99095238D01*
X141180952Y-99190476D01*
X141228571Y-99238095D01*
X141323809Y-99285714D01*
%TO.C,R5*%
X147052380Y-99666666D02*
X146576190Y-100000000D01*
X147052380Y-100238095D02*
X146052380Y-100238095D01*
X146052380Y-99857142D01*
X146100000Y-99761904D01*
X146147619Y-99714285D01*
X146242857Y-99666666D01*
X146385714Y-99666666D01*
X146480952Y-99714285D01*
X146528571Y-99761904D01*
X146576190Y-99857142D01*
X146576190Y-100238095D01*
X146052380Y-98761904D02*
X146052380Y-99238095D01*
X146528571Y-99285714D01*
X146480952Y-99238095D01*
X146433333Y-99142857D01*
X146433333Y-98904761D01*
X146480952Y-98809523D01*
X146528571Y-98761904D01*
X146623809Y-98714285D01*
X146861904Y-98714285D01*
X146957142Y-98761904D01*
X147004761Y-98809523D01*
X147052380Y-98904761D01*
X147052380Y-99142857D01*
X147004761Y-99238095D01*
X146957142Y-99285714D01*
%TO.C,R3*%
X158852380Y-79866666D02*
X158376190Y-80200000D01*
X158852380Y-80438095D02*
X157852380Y-80438095D01*
X157852380Y-80057142D01*
X157900000Y-79961904D01*
X157947619Y-79914285D01*
X158042857Y-79866666D01*
X158185714Y-79866666D01*
X158280952Y-79914285D01*
X158328571Y-79961904D01*
X158376190Y-80057142D01*
X158376190Y-80438095D01*
X157852380Y-79533333D02*
X157852380Y-78914285D01*
X158233333Y-79247619D01*
X158233333Y-79104761D01*
X158280952Y-79009523D01*
X158328571Y-78961904D01*
X158423809Y-78914285D01*
X158661904Y-78914285D01*
X158757142Y-78961904D01*
X158804761Y-79009523D01*
X158852380Y-79104761D01*
X158852380Y-79390476D01*
X158804761Y-79485714D01*
X158757142Y-79533333D01*
%TO.C,R2*%
X169552380Y-91166666D02*
X169076190Y-91500000D01*
X169552380Y-91738095D02*
X168552380Y-91738095D01*
X168552380Y-91357142D01*
X168600000Y-91261904D01*
X168647619Y-91214285D01*
X168742857Y-91166666D01*
X168885714Y-91166666D01*
X168980952Y-91214285D01*
X169028571Y-91261904D01*
X169076190Y-91357142D01*
X169076190Y-91738095D01*
X168647619Y-90785714D02*
X168600000Y-90738095D01*
X168552380Y-90642857D01*
X168552380Y-90404761D01*
X168600000Y-90309523D01*
X168647619Y-90261904D01*
X168742857Y-90214285D01*
X168838095Y-90214285D01*
X168980952Y-90261904D01*
X169552380Y-90833333D01*
X169552380Y-90214285D01*
%TO.C,R1*%
X169752380Y-99166666D02*
X169276190Y-99500000D01*
X169752380Y-99738095D02*
X168752380Y-99738095D01*
X168752380Y-99357142D01*
X168800000Y-99261904D01*
X168847619Y-99214285D01*
X168942857Y-99166666D01*
X169085714Y-99166666D01*
X169180952Y-99214285D01*
X169228571Y-99261904D01*
X169276190Y-99357142D01*
X169276190Y-99738095D01*
X169752380Y-98214285D02*
X169752380Y-98785714D01*
X169752380Y-98500000D02*
X168752380Y-98500000D01*
X168895238Y-98595238D01*
X168990476Y-98690476D01*
X169038095Y-98785714D01*
%TO.C,Y1*%
X154773809Y-90176190D02*
X154773809Y-90652380D01*
X154440476Y-89652380D02*
X154773809Y-90176190D01*
X155107142Y-89652380D01*
X155964285Y-90652380D02*
X155392857Y-90652380D01*
X155678571Y-90652380D02*
X155678571Y-89652380D01*
X155583333Y-89795238D01*
X155488095Y-89890476D01*
X155392857Y-89938095D01*
%TD*%
M02*
