%TF.GenerationSoftware,KiCad,Pcbnew,(6.0.5-0)*%
%TF.CreationDate,2022-06-29T15:59:16+01:00*%
%TF.ProjectId,PN532-Round,504e3533-322d-4526-9f75-6e642e6b6963,7*%
%TF.SameCoordinates,Original*%
%TF.FileFunction,Copper,L2,Bot*%
%TF.FilePolarity,Positive*%
%FSLAX46Y46*%
G04 Gerber Fmt 4.6, Leading zero omitted, Abs format (unit mm)*
G04 Created by KiCad (PCBNEW (6.0.5-0)) date 2022-06-29 15:59:16*
%MOMM*%
%LPD*%
G01*
G04 APERTURE LIST*
G04 Aperture macros list*
%AMFreePoly0*
4,1,814,0.006068,0.248793,0.012187,0.249703,0.012193,0.249702,0.925675,0.186785,1.835916,0.087392,2.741455,-0.048320,3.640844,-0.220132,4.532642,-0.427770,5.415425,-0.670902,6.287780,-0.949138,7.148311,-1.262035,7.995642,-1.609091,8.828419,-1.989751,9.645308,-2.403407,10.445003,-2.849395,10.460449,-2.863082,10.479940,-2.869848,11.207687,-3.315209,11.918273,-3.787471,12.610704,-4.285972,
13.284010,-4.810016,13.937252,-5.358868,14.569514,-5.931762,15.179913,-6.527897,15.767595,-7.146438,16.331738,-7.786521,16.871552,-8.447251,17.386284,-9.127702,17.875213,-9.826925,18.337656,-10.543939,18.772965,-11.277744,18.773062,-11.278035,18.773263,-11.278268,19.209396,-12.083179,19.612765,-12.904999,19.982715,-13.742394,20.318647,-14.594006,20.620015,-15.458455,20.886332,-16.334337,21.117164,-17.220232,
21.312137,-18.114704,21.470936,-19.016301,21.593302,-19.923561,21.679037,-20.835012,21.728002,-21.749176,21.740119,-22.664571,21.740058,-22.664869,21.740115,-22.665168,21.740114,-22.665174,21.715428,-23.576954,21.654048,-24.487006,21.556074,-25.393848,21.421664,-26.296010,21.251037,-27.192029,21.044469,-28.080450,20.802295,-28.959833,20.524909,-29.828751,20.212760,-30.685796,19.866354,-31.529576,19.486254,-32.358724,
19.073076,-33.171894,18.627490,-33.967768,18.627292,-33.967991,18.627194,-33.968273,18.151658,-34.742687,17.645326,-35.497324,17.109018,-36.230962,16.543605,-36.942410,15.950003,-37.630514,15.329175,-38.294158,14.682129,-38.932266,14.009913,-39.543802,13.313618,-40.127775,12.594374,-40.683238,11.853347,-41.209288,11.091739,-41.705074,10.310785,-42.169792,10.310499,-42.169887,10.310272,-42.170083,10.310267,-42.170085,
9.514180,-42.601356,8.701367,-43.000226,7.873153,-43.366043,7.030881,-43.698215,6.175917,-43.996203,5.309647,-44.259523,4.433477,-44.487748,3.548827,-44.680508,2.657134,-44.837491,1.759843,-44.958442,0.858409,-45.043164,-0.045705,-45.091521,-0.951033,-45.103434,-0.951331,-45.103373,-0.951631,-45.103430,-0.951637,-45.103429,-1.850346,-45.079087,-2.747359,-45.018697,-3.641227,-44.922358,-4.530508,-44.790223,
-5.413770,-44.622506,-6.289590,-44.419478,-7.156556,-44.181465,-8.013272,-43.908851,-8.858357,-43.602075,-9.690450,-43.261631,-10.508210,-42.888069,-11.310320,-42.481989,-12.095487,-42.044047,-12.110625,-42.030629,-12.129733,-42.023993,-12.129737,-42.023990,-12.895529,-41.553666,-13.641766,-41.052886,-14.367233,-40.522464,-15.070754,-39.963260,-15.751188,-39.376182,-16.407430,-38.762182,-17.038417,-38.122255,-17.643125,-37.457441,
-18.220574,-36.768816,-18.769826,-36.057498,-19.289990,-35.324641,-19.780224,-34.571433,-20.239731,-33.799097,-20.239829,-33.798803,-20.240029,-33.798571,-20.666446,-33.011299,-21.060816,-32.207495,-21.422500,-31.388463,-21.750912,-30.555531,-22.045519,-29.710052,-22.305843,-28.853395,-22.531461,-27.986951,-22.722009,-27.112125,-22.877176,-26.230336,-22.996711,-25.343014,-23.080420,-24.451599,-23.128168,-23.557536,-23.139877,-22.662275,
-23.139814,-22.661971,-23.139873,-22.661664,-23.139872,-22.661658,-23.115731,-21.772984,-23.055944,-20.885988,-22.960610,-20.002106,-22.829880,-19.122762,-22.663966,-18.249373,-22.463135,-17.383346,-22.227711,-16.526076,-21.958072,-15.678945,-21.654654,-14.843318,-21.317945,-14.020540,-20.948488,-13.211938,-20.546878,-12.418814,-20.113763,-11.642446,-20.100487,-11.627470,-20.093920,-11.608566,-20.093917,-11.608562,-19.630402,-10.853879,
-19.136971,-10.118402,-18.614421,-9.403320,-18.063595,-8.709784,-17.485380,-8.038913,-16.880708,-7.391787,-16.250552,-6.769449,-15.595928,-6.172902,-14.917891,-5.603106,-14.217534,-5.060980,-13.495984,-4.547398,-12.754405,-4.063187,-11.993991,-3.609126,-11.975079,-3.602819,-11.959997,-3.589782,-11.959990,-3.589780,-11.181543,-3.168226,-10.386747,-2.778355,-9.576897,-2.420804,-8.753306,-2.096152,-7.917311,-1.804927,
-7.070268,-1.547599,-6.213550,-1.324587,-5.348547,-1.136253,-4.476662,-0.982901,-3.599309,-0.864781,-2.717912,-0.782084,-1.833899,-0.734945,-0.948717,-0.723440,-0.948706,-0.723438,-0.948398,-0.723502,-0.948087,-0.723442,-0.948081,-0.723443,-0.066503,-0.747523,0.813396,-0.807081,1.690183,-0.902020,2.562437,-1.032188,3.428742,-1.197372,4.287693,-1.397304,5.137896,-1.631661,5.977974,-1.900062,
6.806563,-2.202072,7.622319,-2.537201,8.423920,-2.904905,9.210064,-3.304588,9.979478,-3.735601,9.979713,-3.735810,9.980009,-3.735913,9.980015,-3.735918,10.728570,-4.195823,11.458005,-4.685500,12.167132,-5.204152,12.854800,-5.750937,13.519893,-6.324968,14.161332,-6.925314,14.778079,-7.551002,15.369131,-8.201015,15.933530,-8.874301,16.470361,-9.569767,16.978753,-10.286285,17.457882,-11.022693,
17.906970,-11.777795,17.907070,-11.778096,17.907278,-11.778337,17.907280,-11.778344,18.323976,-12.547972,18.709348,-13.333761,19.062766,-14.134429,19.383658,-14.948679,19.671503,-15.775190,19.925834,-16.612621,20.146239,-17.459614,20.332361,-18.314794,20.483897,-19.176775,20.600601,-20.044159,20.682285,-20.915539,20.728816,-21.789501,20.740118,-22.664628,20.740054,-22.664937,20.740114,-22.665249,20.716236,-23.536766,
20.657285,-24.406615,20.563357,-25.273384,20.434604,-26.135669,20.271234,-26.992070,20.073513,-27.841198,19.841762,-28.681675,19.576356,-29.512140,19.277725,-30.331244,18.946355,-31.137660,18.582783,-31.930078,18.187597,-32.707214,17.761441,-33.467808,17.761231,-33.468044,17.761127,-33.468343,17.306426,-34.208287,16.822300,-34.929321,16.309534,-35.630278,15.768958,-36.310018,15.201451,-36.967441,14.607932,-37.601479,
13.989364,-38.211105,13.346751,-38.795329,12.681135,-39.353203,11.993595,-39.883824,11.285247,-40.386330,10.557239,-40.859906,9.810753,-41.303784,9.810445,-41.303886,9.810201,-41.304097,9.051949,-41.714616,8.277833,-42.094374,7.489100,-42.442760,6.687021,-42.759212,5.872889,-43.043220,5.048015,-43.294326,4.213728,-43.512127,3.371372,-43.696271,2.522305,-43.846461,1.667895,-43.962456,0.809517,-44.044068,
-0.051444,-44.091166,-0.913601,-44.103675,-0.932633,-44.099779,-0.951713,-44.103429,-1.810293,-44.079890,-2.667237,-44.021914,-3.521163,-43.929594,-4.370696,-43.803079,-5.214468,-43.642572,-6.051119,-43.448333,-6.879300,-43.220673,-7.697678,-42.959961,-8.504934,-42.666616,-9.299767,-42.341110,-10.080896,-41.983968,-10.847064,-41.595767,-11.597035,-41.177130,-11.611519,-41.164284,-11.629805,-41.157926,-11.629811,-41.157921,
-12.358724,-40.709980,-13.069080,-40.233143,-13.759728,-39.728181,-14.429554,-39.195910,-15.077479,-38.637186,-15.702460,-38.052910,-16.303489,-37.444023,-16.879598,-36.811506,-17.429859,-36.156379,-17.953386,-35.479696,-18.449334,-34.782548,-18.916904,-34.066058,-19.355345,-33.331382,-19.361441,-33.313086,-19.374045,-33.298498,-19.779721,-32.549036,-20.154993,-31.783898,-20.499256,-31.004315,-20.811956,-30.211544,-21.092589,-29.406863,
-21.340702,-28.591568,-21.555897,-27.766973,-21.737825,-26.934405,-21.886194,-26.095207,-22.000766,-25.250731,-22.081354,-24.402338,-22.127830,-23.551393,-22.140119,-22.699269,-22.136265,-22.680447,-22.139872,-22.661580,-22.116398,-21.810197,-22.058662,-20.960451,-21.966757,-20.113718,-21.840832,-19.271372,-21.681091,-18.434781,-21.487794,-17.605299,-21.261253,-16.784274,-21.001837,-15.973037,-20.709966,-15.172903,-20.386114,-14.385170,
-20.030805,-13.611117,-19.644617,-12.851998,-19.228175,-12.109045,-19.227959,-12.108802,-19.227849,-12.108490,-18.783567,-11.385783,-18.310543,-10.681549,-17.809546,-9.996933,-17.281389,-9.333045,-16.726928,-8.690963,-16.147062,-8.071727,-15.542733,-7.476342,-14.914920,-6.905774,-14.264642,-6.360948,-13.592953,-5.842748,-12.900943,-5.352014,-12.189735,-4.889543,-11.460481,-4.456084,-11.460162,-4.455979,-11.459906,-4.455757,
-11.459901,-4.455755,-10.722119,-4.056472,-9.968967,-3.686985,-9.201652,-3.347888,-8.421401,-3.039721,-7.629460,-2.762977,-6.827093,-2.518098,-6.015582,-2.305474,-5.196223,-2.125447,-4.370325,-1.978302,-3.539208,-1.864276,-3.441974,-1.872070,-3.355125,-1.916480,-3.291882,-1.990746,-3.261874,-2.083560,-3.269668,-2.180794,-3.314078,-2.267643,-3.388344,-2.330886,-3.481158,-2.360894,-3.500203,-2.359367,
-4.293118,-2.468152,-5.099504,-2.611820,-5.899506,-2.787595,-6.691845,-2.995195,-7.475256,-3.234289,-8.248489,-3.504495,-9.010307,-3.805382,-9.759494,-4.136468,-10.494853,-4.497226,-11.198726,-4.878158,-11.213186,-4.890647,-11.213482,-4.890745,-11.213717,-4.890948,-11.232144,-4.897050,-11.927863,-5.310577,-12.622330,-5.762162,-13.298051,-6.241344,-13.953929,-6.747347,-14.588901,-7.279348,-15.201936,-7.836486,
-15.792040,-8.417856,-16.358256,-9.022516,-16.899666,-9.649485,-17.415391,-10.297745,-17.904595,-10.966246,-18.366485,-11.653904,-18.790338,-12.343378,-18.796715,-12.361714,-18.796926,-12.361951,-18.797031,-12.362253,-18.809992,-12.376812,-19.207320,-13.085667,-19.584454,-13.826988,-19.931433,-14.582894,-20.247692,-15.352158,-20.532720,-16.133532,-20.786054,-16.925750,-21.007284,-17.727526,-21.196049,-18.537560,-21.352045,-19.354538,
-21.475018,-20.177134,-21.564768,-21.004015,-21.621151,-21.833840,-21.643547,-22.646145,-21.639886,-22.665292,-21.643684,-22.683670,-21.640127,-22.702095,-21.644005,-22.721030,-21.632276,-23.534294,-21.586886,-24.365365,-21.508179,-25.193944,-21.396284,-26.018698,-21.251379,-26.838296,-21.073700,-27.651419,-20.863532,-28.456756,-20.621213,-29.253010,-20.347134,-30.038898,-20.041737,-30.813154,-19.705514,-31.574529,-19.339007,-32.321798,
-18.951830,-33.037084,-18.939195,-33.051708,-18.933272,-33.069589,-18.920933,-33.083820,-18.914799,-33.102231,-18.496314,-33.803470,-18.039620,-34.503292,-17.555209,-35.184222,-17.043861,-35.845163,-16.506401,-36.485051,-15.943694,-37.102854,-15.356646,-37.697576,-14.746204,-38.268261,-14.113351,-38.813987,-13.459107,-39.333876,-12.784526,-39.827090,-12.090695,-40.292835,-11.394951,-40.720393,-11.376621,-40.726766,-11.362492,-40.739343,
-11.344617,-40.745522,-11.330042,-40.758449,-10.614136,-41.158070,-9.865722,-41.537277,-9.102692,-41.886143,-8.326277,-42.204106,-7.537726,-42.490654,-6.738312,-42.745325,-5.929320,-42.967709,-5.112056,-43.157448,-4.287836,-43.314236,-3.457987,-43.437819,-2.623847,-43.528000,-1.786761,-43.584633,-0.967175,-43.607102,-0.948045,-43.603443,-0.929456,-43.607282,-0.910819,-43.603683,-0.891661,-43.607605,-0.068584,-43.595663,
0.772505,-43.549652,1.611071,-43.469924,2.445761,-43.356606,3.275231,-43.209883,4.098144,-43.029989,4.913175,-42.817215,5.719011,-42.571904,6.514352,-42.294451,7.297918,-41.985304,8.068446,-41.644959,8.824695,-41.273965,9.548579,-40.882053,9.563373,-40.869269,9.563673,-40.869170,9.563913,-40.868962,9.582785,-40.862709,10.295347,-40.439003,11.006619,-39.976314,11.698684,-39.485360,12.370418,-38.966937,
13.020733,-38.421887,13.648574,-37.851094,14.252921,-37.255483,14.832796,-36.636020,15.387258,-35.993710,15.915406,-35.329595,16.416385,-34.644753,16.889382,-33.940294,17.323417,-33.233979,17.329945,-33.215197,17.330152,-33.214964,17.330253,-33.214674,17.343522,-33.199763,17.750349,-32.473669,18.136485,-31.714328,18.491732,-30.940055,18.815514,-30.152106,19.107307,-29.351758,19.366635,-28.540310,19.593080,-27.719079,
19.786273,-26.889395,19.945902,-26.052605,20.071707,-25.210066,20.163484,-24.363144,20.221085,-23.513214,20.243880,-22.681227,20.240128,-22.661623,20.240190,-22.661321,20.240132,-22.661016,20.244183,-22.641391,20.233393,-21.805882,20.187923,-20.951855,20.108103,-20.100352,19.994060,-19.252754,19.845981,-18.410434,19.664105,-17.574761,19.448727,-16.747089,19.200197,-15.928760,18.918918,-15.121102,18.605346,-14.325425,
18.259989,-13.543020,17.883408,-12.775155,17.485574,-12.040365,17.472470,-12.025203,17.472372,-12.024906,17.472170,-12.024673,17.465841,-12.005579,17.037045,-11.284593,16.568803,-10.564919,16.071963,-9.864682,15.547330,-9.185019,14.995755,-8.527032,14.418133,-7.891788,13.815401,-7.280317,13.188536,-6.693613,12.538556,-6.132625,11.866514,-5.598264,11.173500,-5.091398,10.460639,-4.612847,9.745900,-4.173718,
9.726899,-4.167115,9.726671,-4.166912,9.726380,-4.166811,9.711288,-4.153383,8.976579,-3.741810,8.208229,-3.351174,7.424773,-2.991793,6.627482,-2.664250,5.817648,-2.369076,4.996586,-2.106751,4.165626,-1.877699,3.326118,-1.682292,2.479422,-1.520847,1.626912,-1.393626,0.769971,-1.300835,-0.090011,-1.242625,-0.931830,-1.219631,-0.951671,-1.223430,-0.951972,-1.223368,-0.952276,-1.223426,
-0.972133,-1.219329,-1.817479,-1.230316,-2.681558,-1.276392,-3.543081,-1.357224,-4.400651,-1.472681,-5.252876,-1.622575,-6.098374,-1.806662,-6.935775,-2.024646,-7.763718,-2.276171,-8.580863,-2.560830,-9.385882,-2.878161,-10.177472,-3.227650,-10.954346,-3.608730,-11.697756,-4.011311,-11.713095,-4.024570,-11.731599,-4.030704,-11.746319,-4.043474,-11.765387,-4.049833,-12.491789,-4.483584,-13.216709,-4.956917,
-13.922049,-5.458962,-14.606673,-5.988909,-15.269477,-6.545904,-15.909395,-7.129049,-16.525394,-7.737406,-17.116482,-8.369995,-17.681708,-9.025794,-18.220159,-9.703750,-18.730970,-10.402768,-19.213316,-11.121722,-19.656099,-11.842650,-19.662696,-11.861640,-19.675702,-11.876259,-19.682091,-11.894756,-19.695477,-11.909857,-20.109256,-12.651561,-20.501879,-13.426935,-20.863067,-14.217440,-21.192241,-15.021804,-21.488868,-15.838731,
-21.752472,-16.666903,-21.982628,-17.504987,-22.178964,-18.351632,-22.341165,-19.205475,-22.468969,-20.065139,-22.562170,-20.929240,-22.620618,-21.796385,-22.643681,-22.645389,-22.639885,-22.665208,-22.639946,-22.665506,-22.639889,-22.665805,-22.644033,-22.685895,-22.632849,-23.541077,-22.586165,-24.415209,-22.504322,-25.286752,-22.387451,-26.154293,-22.235743,-27.016425,-22.049444,-27.871749,-21.828855,-28.718877,-21.574335,-29.556436,
-21.286295,-30.383068,-20.965205,-31.197431,-20.611583,-31.998204,-20.226005,-32.784089,-19.818678,-33.536118,-19.805263,-33.551635,-19.805168,-33.551921,-19.804971,-33.552149,-19.798490,-33.571691,-19.359515,-34.309518,-18.880169,-35.045997,-18.371557,-35.762579,-17.834503,-36.458099,-17.269879,-37.131430,-16.678601,-37.781480,-16.061627,-38.407195,-15.419959,-39.007559,-14.754637,-39.581598,-14.066740,-40.128383,-13.357385,-40.647025,
-12.627721,-41.136684,-11.896146,-41.585992,-11.876693,-41.592749,-11.861911,-41.605897,-11.843211,-41.612355,-11.827931,-41.625898,-11.077631,-42.044393,-10.293270,-42.441487,-9.493606,-42.806784,-8.679925,-43.139694,-7.853540,-43.439682,-7.015781,-43.706263,-6.167999,-43.939010,-5.311559,-44.137545,-4.447842,-44.301551,-3.578239,-44.430761,-2.704151,-44.524969,-1.826986,-44.584023,-0.968175,-44.607284,-0.948127,-44.603442,
-0.947836,-44.603502,-0.947543,-44.603446,-0.927225,-44.607635,-0.062202,-44.596253,0.821984,-44.548963,1.703547,-44.466108,2.581060,-44.347823,3.453098,-44.194301,4.318248,-44.005789,5.175105,-43.782595,6.022280,-43.525079,6.858398,-43.233660,7.682105,-42.908810,8.492063,-42.551056,9.286959,-42.160979,10.047609,-41.748905,10.063302,-41.735335,10.063580,-41.735243,10.063803,-41.735050,10.083571,-41.728493,
10.829817,-41.284430,11.574700,-40.799531,12.299454,-40.285033,13.002903,-39.741769,13.683907,-39.170620,14.341360,-38.572513,14.974197,-37.948419,15.581391,-37.299349,16.161958,-36.626356,16.714954,-35.930531,17.239485,-35.213005,17.734698,-34.474939,18.189098,-33.734943,18.195930,-33.715267,18.196125,-33.715048,18.196220,-33.714774,18.210111,-33.699154,18.635931,-32.938585,19.040070,-32.143206,19.411854,-31.332199,
19.750681,-30.506880,20.056000,-29.668586,20.327318,-28.818679,20.564193,-27.958536,20.766241,-27.089553,20.933135,-26.213138,21.064604,-25.330714,21.160435,-24.443713,21.220472,-23.553571,21.244063,-22.682234,21.240127,-22.661704,21.240187,-22.661412,21.240131,-22.661119,21.244367,-22.640568,21.232787,-21.765709,21.184889,-20.871472,21.101023,-19.979888,20.981324,-19.092405,20.825987,-18.210461,20.635264,-17.335487,
20.409463,-16.468902,20.148952,-15.612113,19.854153,-14.766507,19.525544,-13.933458,19.163657,-13.114317,18.769081,-12.310411,18.352262,-11.541145,18.338535,-11.525272,18.338441,-11.524989,18.338243,-11.524760,18.331609,-11.504766,17.882457,-10.750103,17.392008,-9.996819,16.871624,-9.263895,16.322150,-8.552518,15.744478,-7.863844,15.139544,-7.198989,14.508329,-6.559031,13.851858,-5.945009,13.171195,-5.357918,
12.467445,-4.798711,11.741748,-4.268294,10.995282,-3.767529,10.246866,-3.308038,10.226968,-3.301130,10.211875,-3.287710,10.192783,-3.281119,10.177154,-3.267270,9.412658,-2.840911,8.613449,-2.436209,7.798697,-2.063787,6.969705,-1.724243,6.127798,-1.418118,5.274324,-1.145903,4.410648,-0.908034,3.538151,-0.704890,2.658229,-0.536796,1.772289,-0.404022,0.881748,-0.306780,0.014751,-0.247066,
0.000000,-0.250000,-0.006068,-0.248793,-0.012187,-0.249703,-0.053707,-0.239317,-0.095671,-0.230970,-0.100814,-0.227534,-0.106817,-0.226032,-0.141188,-0.200557,-0.176777,-0.176777,-0.180215,-0.171632,-0.185184,-0.167949,-0.207193,-0.131257,-0.230970,-0.095671,-0.232177,-0.089603,-0.235359,-0.084298,-0.241652,-0.041970,-0.250000,0.000000,-0.248793,0.006067,-0.249703,0.012187,-0.239317,0.053707,
-0.230970,0.095671,-0.227534,0.100814,-0.226032,0.106817,-0.200557,0.141188,-0.176777,0.176777,-0.171632,0.180215,-0.167949,0.185184,-0.131257,0.207193,-0.095671,0.230970,-0.089603,0.232177,-0.084298,0.235359,-0.041970,0.241652,0.000000,0.250000,0.006068,0.248793,0.006068,0.248793,$1*%
G04 Aperture macros list end*
%TA.AperFunction,ComponentPad*%
%ADD10C,1.820000*%
%TD*%
%TA.AperFunction,ComponentPad*%
%ADD11C,0.500000*%
%TD*%
%TA.AperFunction,SMDPad,CuDef*%
%ADD12R,1.899759X0.500000*%
%TD*%
%TA.AperFunction,SMDPad,CuDef*%
%ADD13FreePoly0,0.000000*%
%TD*%
%TA.AperFunction,ViaPad*%
%ADD14C,0.800000*%
%TD*%
%TA.AperFunction,Conductor*%
%ADD15C,0.250000*%
%TD*%
%TA.AperFunction,Conductor*%
%ADD16C,0.500000*%
%TD*%
G04 APERTURE END LIST*
D10*
%TO.P,D2,*%
%TO.N,*%
X112500000Y-100000000D03*
%TD*%
%TO.P,D3,*%
%TO.N,*%
X112500000Y-95000000D03*
%TD*%
%TO.P,D1,*%
%TO.N,*%
X112500000Y-105000000D03*
%TD*%
D11*
%TO.P,A1,*%
%TO.N,*%
X97476154Y-79694921D03*
D12*
X100000000Y-77586564D03*
D11*
X99050121Y-77586564D03*
D13*
X100949879Y-77586564D03*
D11*
X100949879Y-77586564D03*
%TD*%
D14*
%TO.N,GND*%
X104400000Y-99860000D03*
X93000000Y-100134500D03*
X101000000Y-97600000D03*
X105514175Y-97403682D03*
X100000000Y-89385000D03*
X100000000Y-96600000D03*
X109000000Y-103830000D03*
X99000000Y-95560000D03*
X99000000Y-97560000D03*
X97053825Y-99939076D03*
X104250000Y-91750000D03*
X97195244Y-103717690D03*
X106175000Y-92060000D03*
X109000000Y-99535500D03*
X98769153Y-104068465D03*
X109000000Y-102135000D03*
X101000000Y-95560000D03*
X112250000Y-102500000D03*
X95950000Y-94735000D03*
%TO.N,+3V3*%
X97350000Y-91760000D03*
X107100000Y-92960000D03*
X92200000Y-89410000D03*
X107100000Y-100459989D03*
X107100000Y-102460000D03*
X91400000Y-102560000D03*
X99522431Y-91240773D03*
%TO.N,+5V*%
X105250000Y-92660000D03*
X109000000Y-90935000D03*
X100000000Y-104250000D03*
X105250000Y-90935000D03*
%TO.N,Net-(D2-Pad2)*%
X109013557Y-96242734D03*
X110799502Y-90500000D03*
%TO.N,Net-(C9-Pad1)*%
X94200000Y-90260000D03*
X96424500Y-92484500D03*
%TO.N,Net-(D6-Pad6)*%
X103000000Y-103750000D03*
X106250000Y-103500000D03*
%TO.N,Net-(C19-Pad1)*%
X105432888Y-104149500D03*
X102294502Y-104500000D03*
%TD*%
D15*
%TO.N,GND*%
X109000000Y-102135000D02*
X111885000Y-102135000D01*
X109000000Y-102135000D02*
X109000000Y-103830000D01*
X109000000Y-102135000D02*
X109000000Y-99535500D01*
D16*
X100499501Y-90953770D02*
X100499501Y-92249073D01*
X100750000Y-95560000D02*
X101000000Y-95560000D01*
X100000000Y-89385000D02*
X100000000Y-89747868D01*
X100250000Y-92851421D02*
X100250000Y-95060000D01*
X100149991Y-90110009D02*
G75*
G02*
X100000000Y-89747868I362109J362109D01*
G01*
X100499513Y-90953770D02*
G75*
G03*
X100150000Y-90110000I-1193313J-30D01*
G01*
X100350008Y-92610008D02*
G75*
G03*
X100499501Y-92249073I-360908J360908D01*
G01*
D15*
X112250000Y-102500000D02*
G75*
G03*
X111885000Y-102135000I-365000J0D01*
G01*
D16*
X100750000Y-95560000D02*
G75*
G02*
X100250000Y-95060000I0J500000D01*
G01*
X100250009Y-92851421D02*
G75*
G02*
X100350000Y-92610000I341391J21D01*
G01*
D15*
%TO.N,+3V3*%
X105388825Y-105149501D02*
X95149501Y-105149501D01*
X97350000Y-91760000D02*
X95900000Y-91760000D01*
X94000000Y-89410000D02*
X92200000Y-89410000D01*
X107100000Y-100459989D02*
X107100000Y-92960000D01*
X107100000Y-102460000D02*
X107100000Y-100459989D01*
X97350000Y-91760000D02*
X99003204Y-91760000D01*
X95000000Y-90410000D02*
X95000000Y-90860000D01*
X91400000Y-102560000D02*
X93169257Y-104329257D01*
X107100000Y-102460000D02*
X107100000Y-103438326D01*
X94000000Y-89410000D02*
G75*
G02*
X95000000Y-90410000I0J-1000000D01*
G01*
X99522400Y-91240773D02*
G75*
G02*
X99003204Y-91760000I-519200J-27D01*
G01*
X105388825Y-105149500D02*
G75*
G03*
X107100000Y-103438326I-25J1711200D01*
G01*
X95149501Y-105149496D02*
G75*
G02*
X93169257Y-104329257I-1J2800496D01*
G01*
X95000000Y-90860000D02*
G75*
G03*
X95900000Y-91760000I900000J0D01*
G01*
%TO.N,+5V*%
X105250000Y-90935000D02*
X109000000Y-90935000D01*
D16*
X102250000Y-95660000D02*
X102250000Y-101500000D01*
X102250000Y-102000000D02*
X102250000Y-101500000D01*
X102250000Y-95660000D02*
G75*
G02*
X105250000Y-92660000I3000000J0D01*
G01*
X102250000Y-102000000D02*
G75*
G02*
X100000000Y-104250000I-2250000J0D01*
G01*
D15*
%TO.N,Net-(D2-Pad2)*%
X110799502Y-90500000D02*
X110799502Y-91931082D01*
X109013567Y-96242744D02*
G75*
G03*
X110799502Y-91931082I-4311667J4311644D01*
G01*
%TO.N,Net-(C9-Pad1)*%
X95877378Y-92482622D02*
X96422622Y-92482622D01*
X94200000Y-90260000D02*
X94200000Y-90805244D01*
X96422622Y-92482622D02*
X96424500Y-92484500D01*
X95877378Y-92482600D02*
G75*
G02*
X94200000Y-90805244I22J1677400D01*
G01*
%TO.N,Net-(D6-Pad6)*%
X103250000Y-103500000D02*
X106250000Y-103500000D01*
X103250000Y-103500000D02*
G75*
G03*
X103000000Y-103750000I0J-250000D01*
G01*
%TO.N,Net-(C19-Pad1)*%
X105426434Y-104372348D02*
X105432888Y-104365894D01*
X105432888Y-104365894D02*
X105432888Y-104149500D01*
X102294502Y-104500000D02*
X105000000Y-104500000D01*
X105426446Y-104372367D02*
G75*
G02*
X105000000Y-104499999I-438346J688367D01*
G01*
%TD*%
%TA.AperFunction,Conductor*%
%TO.N,GND*%
G36*
X93570531Y-89805502D02*
G01*
X93617024Y-89859158D01*
X93627128Y-89929432D01*
X93619805Y-89957264D01*
X93565309Y-90097039D01*
X93544758Y-90253138D01*
X93562035Y-90409633D01*
X93616143Y-90557490D01*
X93620380Y-90563796D01*
X93620382Y-90563799D01*
X93645647Y-90601397D01*
X93703958Y-90688172D01*
X93709577Y-90693285D01*
X93709578Y-90693286D01*
X93781695Y-90758908D01*
X93818618Y-90819549D01*
X93822626Y-90843858D01*
X93828746Y-90937185D01*
X93837702Y-91073779D01*
X93890206Y-91337709D01*
X93976711Y-91592528D01*
X94095735Y-91833876D01*
X94098033Y-91837315D01*
X94178764Y-91958134D01*
X94200000Y-92028137D01*
X94200000Y-94660000D01*
X94300000Y-94660000D01*
X94300000Y-92430448D01*
X94320002Y-92362327D01*
X94373658Y-92315834D01*
X94443932Y-92305730D01*
X94509077Y-92335716D01*
X94515232Y-92341114D01*
X94624997Y-92437374D01*
X94848748Y-92586878D01*
X94852441Y-92588699D01*
X95005407Y-92664134D01*
X95090097Y-92705899D01*
X95183058Y-92737456D01*
X95214502Y-92748130D01*
X95272578Y-92788968D01*
X95299356Y-92854721D01*
X95300000Y-92867443D01*
X95300000Y-93460000D01*
X95307327Y-93466838D01*
X95307327Y-93466839D01*
X95647568Y-93784397D01*
X96050000Y-94160000D01*
X99274000Y-94160000D01*
X99342121Y-94180002D01*
X99388614Y-94233658D01*
X99400000Y-94286000D01*
X99400000Y-99360000D01*
X99500000Y-99360000D01*
X99500000Y-94286000D01*
X99520002Y-94217879D01*
X99573658Y-94171386D01*
X99626000Y-94160000D01*
X101889972Y-94160000D01*
X101958093Y-94180002D01*
X102004586Y-94233658D01*
X102014690Y-94303932D01*
X102008607Y-94328448D01*
X101917782Y-94582288D01*
X101896190Y-94642633D01*
X101890684Y-94664615D01*
X101854731Y-94725833D01*
X101791387Y-94757896D01*
X101768460Y-94760000D01*
X100900000Y-94760000D01*
X100900000Y-95000000D01*
X101663030Y-95000000D01*
X101731151Y-95020002D01*
X101777644Y-95073658D01*
X101787666Y-95144488D01*
X101762154Y-95316477D01*
X101747148Y-95621943D01*
X101746456Y-95636020D01*
X101745804Y-95642408D01*
X101745773Y-95644946D01*
X101744391Y-95653823D01*
X101745555Y-95662725D01*
X101745555Y-95662728D01*
X101748436Y-95684756D01*
X101749500Y-95701093D01*
X101749500Y-101951259D01*
X101748000Y-101970643D01*
X101744391Y-101993823D01*
X101746179Y-102007493D01*
X101746328Y-102008635D01*
X101747071Y-102033959D01*
X101738314Y-102156412D01*
X101732336Y-102239994D01*
X101729778Y-102257785D01*
X101682803Y-102473723D01*
X101680550Y-102484080D01*
X101675488Y-102501323D01*
X101594548Y-102718332D01*
X101587082Y-102734678D01*
X101476090Y-102937944D01*
X101466371Y-102953067D01*
X101327582Y-103138468D01*
X101315809Y-103152054D01*
X101152054Y-103315809D01*
X101138468Y-103327582D01*
X100953067Y-103466371D01*
X100937944Y-103476090D01*
X100734678Y-103587082D01*
X100718326Y-103594550D01*
X100598344Y-103639301D01*
X100501331Y-103675485D01*
X100484082Y-103680549D01*
X100409070Y-103696867D01*
X100338255Y-103691803D01*
X100323328Y-103685102D01*
X100241543Y-103641799D01*
X100241544Y-103641799D01*
X100234831Y-103638245D01*
X100218122Y-103634048D01*
X100089498Y-103601740D01*
X100089496Y-103601740D01*
X100082128Y-103599889D01*
X100074530Y-103599849D01*
X100074528Y-103599849D01*
X100007319Y-103599497D01*
X99924684Y-103599065D01*
X99917305Y-103600837D01*
X99917301Y-103600837D01*
X99778967Y-103634048D01*
X99778963Y-103634049D01*
X99771588Y-103635820D01*
X99631679Y-103708032D01*
X99625957Y-103713024D01*
X99625955Y-103713025D01*
X99518759Y-103806538D01*
X99518756Y-103806541D01*
X99513034Y-103811533D01*
X99422501Y-103940348D01*
X99365309Y-104087039D01*
X99364318Y-104094568D01*
X99347356Y-104223408D01*
X99344758Y-104243138D01*
X99362035Y-104399633D01*
X99364258Y-104405709D01*
X99360367Y-104476115D01*
X99318746Y-104533632D01*
X99252636Y-104559517D01*
X99241614Y-104560000D01*
X98126000Y-104560000D01*
X98057879Y-104539998D01*
X98011386Y-104486342D01*
X98000000Y-104434000D01*
X98000000Y-101460000D01*
X97800000Y-101460000D01*
X97800000Y-104434000D01*
X97779998Y-104502121D01*
X97726342Y-104548614D01*
X97674000Y-104560000D01*
X94626000Y-104560000D01*
X94557879Y-104539998D01*
X94511386Y-104486342D01*
X94500000Y-104434000D01*
X94500000Y-101460000D01*
X94300000Y-101460000D01*
X94300000Y-104429221D01*
X94279998Y-104497342D01*
X94226342Y-104543835D01*
X94156068Y-104553939D01*
X94125785Y-104545631D01*
X94103865Y-104536551D01*
X94091147Y-104530426D01*
X93865523Y-104405729D01*
X93853562Y-104398213D01*
X93643315Y-104249036D01*
X93632273Y-104240231D01*
X93461121Y-104087281D01*
X93445848Y-104070383D01*
X93443911Y-104068446D01*
X93438085Y-104060427D01*
X93421893Y-104048663D01*
X93406858Y-104035821D01*
X92085901Y-102714864D01*
X92051875Y-102652552D01*
X92050253Y-102608019D01*
X92055134Y-102573723D01*
X92055278Y-102560000D01*
X92036363Y-102403694D01*
X92016116Y-102350111D01*
X91983394Y-102263514D01*
X91983393Y-102263511D01*
X91980710Y-102256412D01*
X91891531Y-102126657D01*
X91842179Y-102082686D01*
X91804625Y-102022438D01*
X91800000Y-101988612D01*
X91800000Y-100926000D01*
X91820002Y-100857879D01*
X91873658Y-100811386D01*
X91926000Y-100800000D01*
X98600000Y-100800000D01*
X98600000Y-100560000D01*
X91926000Y-100560000D01*
X91857879Y-100539998D01*
X91811386Y-100486342D01*
X91800000Y-100434000D01*
X91800000Y-97526000D01*
X91820002Y-97457879D01*
X91873658Y-97411386D01*
X91926000Y-97400000D01*
X97700000Y-97400000D01*
X97700000Y-97200000D01*
X91926000Y-97200000D01*
X91857879Y-97179998D01*
X91811386Y-97126342D01*
X91800000Y-97074000D01*
X91800000Y-92677124D01*
X91804570Y-92643497D01*
X91836624Y-92527747D01*
X92534305Y-90008344D01*
X92573901Y-89946164D01*
X92682348Y-89853542D01*
X92686777Y-89847378D01*
X92686780Y-89847375D01*
X92693536Y-89837973D01*
X92749531Y-89794326D01*
X92795858Y-89785500D01*
X93502410Y-89785500D01*
X93570531Y-89805502D01*
G37*
%TD.AperFunction*%
%TA.AperFunction,Conductor*%
G36*
X104270575Y-90480002D02*
G01*
X104285693Y-90491410D01*
X104563740Y-90736092D01*
X104601665Y-90796111D01*
X104605423Y-90847128D01*
X104596703Y-90913365D01*
X104594758Y-90928138D01*
X104612035Y-91084633D01*
X104666143Y-91232490D01*
X104670380Y-91238796D01*
X104670382Y-91238799D01*
X104691396Y-91270071D01*
X104753958Y-91363172D01*
X104870410Y-91469135D01*
X104877085Y-91472759D01*
X105002099Y-91540637D01*
X105002101Y-91540638D01*
X105008776Y-91544262D01*
X105016125Y-91546190D01*
X105153719Y-91582287D01*
X105153721Y-91582287D01*
X105161069Y-91584215D01*
X105244380Y-91585524D01*
X105310898Y-91586569D01*
X105310901Y-91586569D01*
X105318495Y-91586688D01*
X105325899Y-91584992D01*
X105325901Y-91584992D01*
X105444538Y-91557821D01*
X105490458Y-91560601D01*
X105490584Y-91558933D01*
X105499556Y-91559609D01*
X105500000Y-91560000D01*
X106447810Y-91560000D01*
X106515931Y-91580002D01*
X106536905Y-91596905D01*
X106963095Y-92023095D01*
X106997121Y-92085407D01*
X107000000Y-92112190D01*
X107000000Y-92215660D01*
X106979998Y-92283781D01*
X106926342Y-92330274D01*
X106903415Y-92338178D01*
X106878974Y-92344046D01*
X106878968Y-92344048D01*
X106871588Y-92345820D01*
X106731679Y-92418032D01*
X106725957Y-92423024D01*
X106725955Y-92423025D01*
X106618759Y-92516538D01*
X106618756Y-92516541D01*
X106613034Y-92521533D01*
X106608667Y-92527747D01*
X106537467Y-92629054D01*
X106522501Y-92650348D01*
X106465309Y-92797039D01*
X106444758Y-92953138D01*
X106462035Y-93109633D01*
X106516143Y-93257490D01*
X106520380Y-93263796D01*
X106520382Y-93263799D01*
X106549605Y-93307287D01*
X106603958Y-93388172D01*
X106609573Y-93393281D01*
X106609578Y-93393287D01*
X106683300Y-93460369D01*
X106720222Y-93521009D01*
X106724500Y-93553562D01*
X106724500Y-98874000D01*
X106704498Y-98942121D01*
X106650842Y-98988614D01*
X106598500Y-99000000D01*
X104400000Y-99000000D01*
X104400000Y-99160000D01*
X106598500Y-99160000D01*
X106666621Y-99180002D01*
X106713114Y-99233658D01*
X106724500Y-99286000D01*
X106724500Y-99866995D01*
X106704498Y-99935116D01*
X106681331Y-99961942D01*
X106613034Y-100021522D01*
X106522501Y-100150337D01*
X106465309Y-100297028D01*
X106444758Y-100453127D01*
X106462035Y-100609622D01*
X106464645Y-100616754D01*
X106492326Y-100692396D01*
X106500000Y-100735697D01*
X106500000Y-102184367D01*
X106491393Y-102230136D01*
X106465309Y-102297039D01*
X106464317Y-102304572D01*
X106464317Y-102304573D01*
X106450275Y-102411234D01*
X106444758Y-102453138D01*
X106462035Y-102609633D01*
X106464645Y-102616765D01*
X106490224Y-102686664D01*
X106494850Y-102757510D01*
X106460440Y-102819610D01*
X106397918Y-102853249D01*
X106347085Y-102852279D01*
X106347033Y-102852692D01*
X106343176Y-102852205D01*
X106341197Y-102852167D01*
X106332128Y-102849889D01*
X106324530Y-102849849D01*
X106324528Y-102849849D01*
X106257319Y-102849497D01*
X106174684Y-102849065D01*
X106167305Y-102850837D01*
X106167301Y-102850837D01*
X106028967Y-102884048D01*
X106028963Y-102884049D01*
X106021588Y-102885820D01*
X105968670Y-102913133D01*
X105891299Y-102953067D01*
X105881679Y-102958032D01*
X105875957Y-102963024D01*
X105875955Y-102963025D01*
X105768759Y-103056538D01*
X105768756Y-103056541D01*
X105763034Y-103061533D01*
X105758667Y-103067747D01*
X105758664Y-103067750D01*
X105756415Y-103070950D01*
X105754179Y-103072731D01*
X105753582Y-103073394D01*
X105753471Y-103073294D01*
X105700881Y-103115182D01*
X105653328Y-103124500D01*
X103289473Y-103124500D01*
X103269762Y-103122949D01*
X103259793Y-103121370D01*
X103250000Y-103119819D01*
X103236978Y-103121881D01*
X103231385Y-103122639D01*
X103213545Y-103124649D01*
X103168743Y-103121645D01*
X103089498Y-103101740D01*
X103089496Y-103101740D01*
X103082128Y-103099889D01*
X103074530Y-103099849D01*
X103074528Y-103099849D01*
X103007319Y-103099497D01*
X102924684Y-103099065D01*
X102917305Y-103100837D01*
X102917301Y-103100837D01*
X102778967Y-103134048D01*
X102778963Y-103134049D01*
X102771588Y-103135820D01*
X102764846Y-103139300D01*
X102764840Y-103139302D01*
X102740564Y-103151832D01*
X102670857Y-103165301D01*
X102604934Y-103138945D01*
X102563724Y-103081133D01*
X102560313Y-103010218D01*
X102566366Y-102991648D01*
X102598888Y-102913133D01*
X102598888Y-102913132D01*
X102600242Y-102909864D01*
X102607680Y-102884048D01*
X102642430Y-102763426D01*
X102685765Y-102613008D01*
X102737512Y-102308444D01*
X102753070Y-102031412D01*
X102754618Y-102017574D01*
X102754689Y-102017152D01*
X102754689Y-102017149D01*
X102755496Y-102012354D01*
X102755647Y-102000000D01*
X102751773Y-101972949D01*
X102750500Y-101955087D01*
X102750500Y-95712576D01*
X102752246Y-95691671D01*
X102754689Y-95677148D01*
X102755496Y-95672354D01*
X102755647Y-95660000D01*
X102753844Y-95647410D01*
X102752802Y-95621943D01*
X102768264Y-95366326D01*
X102770098Y-95351222D01*
X102815534Y-95103288D01*
X102847488Y-95039888D01*
X102908645Y-95003829D01*
X102939470Y-95000000D01*
X105000000Y-95000000D01*
X105000000Y-94760000D01*
X103113958Y-94760000D01*
X103045837Y-94739998D01*
X102999344Y-94686342D01*
X102989240Y-94616068D01*
X102999057Y-94582293D01*
X103033681Y-94505361D01*
X103040745Y-94491903D01*
X103189011Y-94246642D01*
X103197654Y-94234121D01*
X103374397Y-94008524D01*
X103384487Y-93997135D01*
X103587135Y-93794487D01*
X103598524Y-93784397D01*
X103824121Y-93607654D01*
X103836642Y-93599011D01*
X104081903Y-93450745D01*
X104095376Y-93443674D01*
X104111032Y-93436628D01*
X104356716Y-93326054D01*
X104370934Y-93320662D01*
X104644555Y-93235398D01*
X104659328Y-93231757D01*
X104825202Y-93201359D01*
X104895812Y-93208754D01*
X104908024Y-93214558D01*
X105008776Y-93269262D01*
X105016125Y-93271190D01*
X105153719Y-93307287D01*
X105153721Y-93307287D01*
X105161069Y-93309215D01*
X105244380Y-93310524D01*
X105310898Y-93311569D01*
X105310901Y-93311569D01*
X105318495Y-93311688D01*
X105471968Y-93276538D01*
X105612625Y-93205795D01*
X105646447Y-93176908D01*
X105726574Y-93108474D01*
X105726576Y-93108471D01*
X105732348Y-93103542D01*
X105824224Y-92975683D01*
X105882950Y-92829598D01*
X105893025Y-92758809D01*
X105904553Y-92677807D01*
X105904553Y-92677804D01*
X105905134Y-92673723D01*
X105905278Y-92660000D01*
X105886363Y-92503694D01*
X105830710Y-92356412D01*
X105741531Y-92226657D01*
X105639219Y-92135500D01*
X105629648Y-92126972D01*
X105629645Y-92126970D01*
X105623976Y-92121919D01*
X105484831Y-92048245D01*
X105468122Y-92044048D01*
X105339498Y-92011740D01*
X105339496Y-92011740D01*
X105332128Y-92009889D01*
X105324530Y-92009849D01*
X105324528Y-92009849D01*
X105257319Y-92009497D01*
X105174684Y-92009065D01*
X105167305Y-92010837D01*
X105167301Y-92010837D01*
X105028967Y-92044048D01*
X105028963Y-92044049D01*
X105021588Y-92045820D01*
X104881679Y-92118032D01*
X104875957Y-92123024D01*
X104875955Y-92123025D01*
X104829668Y-92163404D01*
X104765327Y-92193091D01*
X104569329Y-92222165D01*
X104569325Y-92222166D01*
X104566263Y-92222620D01*
X104563264Y-92223371D01*
X104563260Y-92223372D01*
X104417257Y-92259944D01*
X104232633Y-92306190D01*
X104229736Y-92307227D01*
X104229728Y-92307229D01*
X104092272Y-92356412D01*
X103908801Y-92422059D01*
X103597885Y-92569111D01*
X103595243Y-92570694D01*
X103595244Y-92570694D01*
X103490777Y-92633309D01*
X103422065Y-92651174D01*
X103354602Y-92629054D01*
X103309807Y-92573972D01*
X103300000Y-92525235D01*
X103300000Y-90586000D01*
X103320002Y-90517879D01*
X103373658Y-90471386D01*
X103426000Y-90460000D01*
X104202454Y-90460000D01*
X104270575Y-90480002D01*
G37*
%TD.AperFunction*%
%TD*%
M02*
