%TF.GenerationSoftware,KiCad,Pcbnew,(5.1.9-0-10_14)*%
%TF.CreationDate,2021-05-08T16:29:39+01:00*%
%TF.ProjectId,PN532,504e3533-322e-46b6-9963-61645f706362,6*%
%TF.SameCoordinates,Original*%
%TF.FileFunction,Copper,L1,Top*%
%TF.FilePolarity,Positive*%
%FSLAX46Y46*%
G04 Gerber Fmt 4.6, Leading zero omitted, Abs format (unit mm)*
G04 Created by KiCad (PCBNEW (5.1.9-0-10_14)) date 2021-05-08 16:29:39*
%MOMM*%
%LPD*%
G01*
G04 APERTURE LIST*
%TA.AperFunction,NonConductor*%
%ADD10C,0.150000*%
%TD*%
%TA.AperFunction,EtchedComponent*%
%ADD11C,0.500000*%
%TD*%
%TA.AperFunction,ComponentPad*%
%ADD12C,0.600000*%
%TD*%
%TA.AperFunction,SMDPad,CuDef*%
%ADD13R,1.550000X1.300000*%
%TD*%
%TA.AperFunction,ComponentPad*%
%ADD14C,2.000000*%
%TD*%
%TA.AperFunction,ComponentPad*%
%ADD15O,1.700000X1.850000*%
%TD*%
%TA.AperFunction,ComponentPad*%
%ADD16C,0.800000*%
%TD*%
%TA.AperFunction,ComponentPad*%
%ADD17C,0.350000*%
%TD*%
%TA.AperFunction,SMDPad,CuDef*%
%ADD18C,0.500000*%
%TD*%
%TA.AperFunction,SMDPad,CuDef*%
%ADD19R,0.200000X0.200000*%
%TD*%
%TA.AperFunction,SMDPad,CuDef*%
%ADD20R,4.100000X4.100000*%
%TD*%
%TA.AperFunction,ComponentPad*%
%ADD21C,1.800000*%
%TD*%
%TA.AperFunction,ComponentPad*%
%ADD22R,1.800000X1.800000*%
%TD*%
%TA.AperFunction,ComponentPad*%
%ADD23O,1.700000X1.700000*%
%TD*%
%TA.AperFunction,ComponentPad*%
%ADD24R,1.700000X1.700000*%
%TD*%
%TA.AperFunction,ComponentPad*%
%ADD25C,1.300000*%
%TD*%
%TA.AperFunction,ComponentPad*%
%ADD26R,1.300000X1.300000*%
%TD*%
%TA.AperFunction,SMDPad,CuDef*%
%ADD27R,1.900000X1.150000*%
%TD*%
%TA.AperFunction,ComponentPad*%
%ADD28C,3.200000*%
%TD*%
%TA.AperFunction,ViaPad*%
%ADD29C,0.800000*%
%TD*%
%TA.AperFunction,Conductor*%
%ADD30C,0.250000*%
%TD*%
%TA.AperFunction,Conductor*%
%ADD31C,0.500000*%
%TD*%
G04 APERTURE END LIST*
D10*
X144454642Y-88214285D02*
X144264166Y-87547619D01*
X144073690Y-88023809D01*
X143883214Y-87547619D01*
X143692738Y-88214285D01*
X143407023Y-88214285D02*
X143216547Y-87547619D01*
X143026071Y-88023809D01*
X142835595Y-87547619D01*
X142645119Y-88214285D01*
X142359404Y-88214285D02*
X142168928Y-87547619D01*
X141978452Y-88023809D01*
X141787976Y-87547619D01*
X141597500Y-88214285D01*
X141216547Y-87642857D02*
X141168928Y-87595238D01*
X141216547Y-87547619D01*
X141264166Y-87595238D01*
X141216547Y-87642857D01*
X141216547Y-87547619D01*
X140740357Y-87547619D02*
X140740357Y-88214285D01*
X140740357Y-88119047D02*
X140692738Y-88166666D01*
X140597500Y-88214285D01*
X140454642Y-88214285D01*
X140359404Y-88166666D01*
X140311785Y-88071428D01*
X140311785Y-87547619D01*
X140311785Y-88071428D02*
X140264166Y-88166666D01*
X140168928Y-88214285D01*
X140026071Y-88214285D01*
X139930833Y-88166666D01*
X139883214Y-88071428D01*
X139883214Y-87547619D01*
X139026071Y-87595238D02*
X139121309Y-87547619D01*
X139311785Y-87547619D01*
X139407023Y-87595238D01*
X139454642Y-87690476D01*
X139454642Y-88071428D01*
X139407023Y-88166666D01*
X139311785Y-88214285D01*
X139121309Y-88214285D01*
X139026071Y-88166666D01*
X138978452Y-88071428D01*
X138978452Y-87976190D01*
X139454642Y-87880952D01*
X138549880Y-87642857D02*
X138502261Y-87595238D01*
X138549880Y-87547619D01*
X138597500Y-87595238D01*
X138549880Y-87642857D01*
X138549880Y-87547619D01*
X137645119Y-88214285D02*
X137645119Y-87547619D01*
X138073690Y-88214285D02*
X138073690Y-87690476D01*
X138026071Y-87595238D01*
X137930833Y-87547619D01*
X137787976Y-87547619D01*
X137692738Y-87595238D01*
X137645119Y-87642857D01*
X137168928Y-87547619D02*
X137168928Y-88547619D01*
X137073690Y-87928571D02*
X136787976Y-87547619D01*
X136787976Y-88214285D02*
X137168928Y-87833333D01*
X144521309Y-89861904D02*
X144483214Y-89900000D01*
X144407023Y-89938095D01*
X144216547Y-89938095D01*
X144140357Y-89900000D01*
X144102261Y-89861904D01*
X144064166Y-89785714D01*
X144064166Y-89709523D01*
X144102261Y-89595238D01*
X144559404Y-89138095D01*
X144064166Y-89138095D01*
X143568928Y-89938095D02*
X143492738Y-89938095D01*
X143416547Y-89900000D01*
X143378452Y-89861904D01*
X143340357Y-89785714D01*
X143302261Y-89633333D01*
X143302261Y-89442857D01*
X143340357Y-89290476D01*
X143378452Y-89214285D01*
X143416547Y-89176190D01*
X143492738Y-89138095D01*
X143568928Y-89138095D01*
X143645119Y-89176190D01*
X143683214Y-89214285D01*
X143721309Y-89290476D01*
X143759404Y-89442857D01*
X143759404Y-89633333D01*
X143721309Y-89785714D01*
X143683214Y-89861904D01*
X143645119Y-89900000D01*
X143568928Y-89938095D01*
X142997500Y-89861904D02*
X142959404Y-89900000D01*
X142883214Y-89938095D01*
X142692738Y-89938095D01*
X142616547Y-89900000D01*
X142578452Y-89861904D01*
X142540357Y-89785714D01*
X142540357Y-89709523D01*
X142578452Y-89595238D01*
X143035595Y-89138095D01*
X142540357Y-89138095D01*
X141778452Y-89138095D02*
X142235595Y-89138095D01*
X142007023Y-89138095D02*
X142007023Y-89938095D01*
X142083214Y-89823809D01*
X142159404Y-89747619D01*
X142235595Y-89709523D01*
X141435595Y-89442857D02*
X140826071Y-89442857D01*
X140292738Y-89938095D02*
X140216547Y-89938095D01*
X140140357Y-89900000D01*
X140102261Y-89861904D01*
X140064166Y-89785714D01*
X140026071Y-89633333D01*
X140026071Y-89442857D01*
X140064166Y-89290476D01*
X140102261Y-89214285D01*
X140140357Y-89176190D01*
X140216547Y-89138095D01*
X140292738Y-89138095D01*
X140368928Y-89176190D01*
X140407023Y-89214285D01*
X140445119Y-89290476D01*
X140483214Y-89442857D01*
X140483214Y-89633333D01*
X140445119Y-89785714D01*
X140407023Y-89861904D01*
X140368928Y-89900000D01*
X140292738Y-89938095D01*
X139302261Y-89938095D02*
X139683214Y-89938095D01*
X139721309Y-89557142D01*
X139683214Y-89595238D01*
X139607023Y-89633333D01*
X139416547Y-89633333D01*
X139340357Y-89595238D01*
X139302261Y-89557142D01*
X139264166Y-89480952D01*
X139264166Y-89290476D01*
X139302261Y-89214285D01*
X139340357Y-89176190D01*
X139416547Y-89138095D01*
X139607023Y-89138095D01*
X139683214Y-89176190D01*
X139721309Y-89214285D01*
X138921309Y-89442857D02*
X138311785Y-89442857D01*
X137778452Y-89938095D02*
X137702261Y-89938095D01*
X137626071Y-89900000D01*
X137587976Y-89861904D01*
X137549880Y-89785714D01*
X137511785Y-89633333D01*
X137511785Y-89442857D01*
X137549880Y-89290476D01*
X137587976Y-89214285D01*
X137626071Y-89176190D01*
X137702261Y-89138095D01*
X137778452Y-89138095D01*
X137854642Y-89176190D01*
X137892738Y-89214285D01*
X137930833Y-89290476D01*
X137968928Y-89442857D01*
X137968928Y-89633333D01*
X137930833Y-89785714D01*
X137892738Y-89861904D01*
X137854642Y-89900000D01*
X137778452Y-89938095D01*
X137054642Y-89595238D02*
X137130833Y-89633333D01*
X137168928Y-89671428D01*
X137207023Y-89747619D01*
X137207023Y-89785714D01*
X137168928Y-89861904D01*
X137130833Y-89900000D01*
X137054642Y-89938095D01*
X136902261Y-89938095D01*
X136826071Y-89900000D01*
X136787976Y-89861904D01*
X136749880Y-89785714D01*
X136749880Y-89747619D01*
X136787976Y-89671428D01*
X136826071Y-89633333D01*
X136902261Y-89595238D01*
X137054642Y-89595238D01*
X137130833Y-89557142D01*
X137168928Y-89519047D01*
X137207023Y-89442857D01*
X137207023Y-89290476D01*
X137168928Y-89214285D01*
X137130833Y-89176190D01*
X137054642Y-89138095D01*
X136902261Y-89138095D01*
X136826071Y-89176190D01*
X136787976Y-89214285D01*
X136749880Y-89290476D01*
X136749880Y-89442857D01*
X136787976Y-89519047D01*
X136826071Y-89557142D01*
X136902261Y-89595238D01*
D11*
%TO.C,A1*%
X133000000Y-96000000D02*
X130000000Y-94000000D01*
%TD*%
%TO.P,L2,2*%
%TO.N,Net-(L2-Pad2)*%
%TA.AperFunction,SMDPad,CuDef*%
G36*
G01*
X161860000Y-92427760D02*
X161860000Y-93872240D01*
G75*
G02*
X161617240Y-94115000I-242760J0D01*
G01*
X161082760Y-94115000D01*
G75*
G02*
X160840000Y-93872240I0J242760D01*
G01*
X160840000Y-92427760D01*
G75*
G02*
X161082760Y-92185000I242760J0D01*
G01*
X161617240Y-92185000D01*
G75*
G02*
X161860000Y-92427760I0J-242760D01*
G01*
G37*
%TD.AperFunction*%
%TO.P,L2,1*%
%TO.N,Net-(C4-Pad2)*%
%TA.AperFunction,SMDPad,CuDef*%
G36*
G01*
X164660000Y-92427760D02*
X164660000Y-93872240D01*
G75*
G02*
X164417240Y-94115000I-242760J0D01*
G01*
X163882760Y-94115000D01*
G75*
G02*
X163640000Y-93872240I0J242760D01*
G01*
X163640000Y-92427760D01*
G75*
G02*
X163882760Y-92185000I242760J0D01*
G01*
X164417240Y-92185000D01*
G75*
G02*
X164660000Y-92427760I0J-242760D01*
G01*
G37*
%TD.AperFunction*%
%TD*%
%TO.P,L1,2*%
%TO.N,Net-(C3-Pad1)*%
%TA.AperFunction,SMDPad,CuDef*%
G36*
G01*
X163640000Y-97572240D02*
X163640000Y-96127760D01*
G75*
G02*
X163882760Y-95885000I242760J0D01*
G01*
X164417240Y-95885000D01*
G75*
G02*
X164660000Y-96127760I0J-242760D01*
G01*
X164660000Y-97572240D01*
G75*
G02*
X164417240Y-97815000I-242760J0D01*
G01*
X163882760Y-97815000D01*
G75*
G02*
X163640000Y-97572240I0J242760D01*
G01*
G37*
%TD.AperFunction*%
%TO.P,L1,1*%
%TO.N,Net-(L1-Pad1)*%
%TA.AperFunction,SMDPad,CuDef*%
G36*
G01*
X160840000Y-97572240D02*
X160840000Y-96127760D01*
G75*
G02*
X161082760Y-95885000I242760J0D01*
G01*
X161617240Y-95885000D01*
G75*
G02*
X161860000Y-96127760I0J-242760D01*
G01*
X161860000Y-97572240D01*
G75*
G02*
X161617240Y-97815000I-242760J0D01*
G01*
X161082760Y-97815000D01*
G75*
G02*
X160840000Y-97572240I0J242760D01*
G01*
G37*
%TD.AperFunction*%
%TD*%
%TO.P,R11,2*%
%TO.N,Net-(J1-Pad2)*%
%TA.AperFunction,SMDPad,CuDef*%
G36*
G01*
X148275000Y-89575000D02*
X147725000Y-89575000D01*
G75*
G02*
X147525000Y-89375000I0J200000D01*
G01*
X147525000Y-88975000D01*
G75*
G02*
X147725000Y-88775000I200000J0D01*
G01*
X148275000Y-88775000D01*
G75*
G02*
X148475000Y-88975000I0J-200000D01*
G01*
X148475000Y-89375000D01*
G75*
G02*
X148275000Y-89575000I-200000J0D01*
G01*
G37*
%TD.AperFunction*%
%TO.P,R11,1*%
%TO.N,+3V3*%
%TA.AperFunction,SMDPad,CuDef*%
G36*
G01*
X148275000Y-91225000D02*
X147725000Y-91225000D01*
G75*
G02*
X147525000Y-91025000I0J200000D01*
G01*
X147525000Y-90625000D01*
G75*
G02*
X147725000Y-90425000I200000J0D01*
G01*
X148275000Y-90425000D01*
G75*
G02*
X148475000Y-90625000I0J-200000D01*
G01*
X148475000Y-91025000D01*
G75*
G02*
X148275000Y-91225000I-200000J0D01*
G01*
G37*
%TD.AperFunction*%
%TD*%
%TO.P,R10,2*%
%TO.N,Net-(R10-Pad2)*%
%TA.AperFunction,SMDPad,CuDef*%
G36*
G01*
X149775000Y-89575000D02*
X149225000Y-89575000D01*
G75*
G02*
X149025000Y-89375000I0J200000D01*
G01*
X149025000Y-88975000D01*
G75*
G02*
X149225000Y-88775000I200000J0D01*
G01*
X149775000Y-88775000D01*
G75*
G02*
X149975000Y-88975000I0J-200000D01*
G01*
X149975000Y-89375000D01*
G75*
G02*
X149775000Y-89575000I-200000J0D01*
G01*
G37*
%TD.AperFunction*%
%TO.P,R10,1*%
%TO.N,+3V3*%
%TA.AperFunction,SMDPad,CuDef*%
G36*
G01*
X149775000Y-91225000D02*
X149225000Y-91225000D01*
G75*
G02*
X149025000Y-91025000I0J200000D01*
G01*
X149025000Y-90625000D01*
G75*
G02*
X149225000Y-90425000I200000J0D01*
G01*
X149775000Y-90425000D01*
G75*
G02*
X149975000Y-90625000I0J-200000D01*
G01*
X149975000Y-91025000D01*
G75*
G02*
X149775000Y-91225000I-200000J0D01*
G01*
G37*
%TD.AperFunction*%
%TD*%
%TO.P,R9,2*%
%TO.N,Net-(D3-Pad2)*%
%TA.AperFunction,SMDPad,CuDef*%
G36*
G01*
X144175000Y-95725000D02*
X144175000Y-96275000D01*
G75*
G02*
X143975000Y-96475000I-200000J0D01*
G01*
X143575000Y-96475000D01*
G75*
G02*
X143375000Y-96275000I0J200000D01*
G01*
X143375000Y-95725000D01*
G75*
G02*
X143575000Y-95525000I200000J0D01*
G01*
X143975000Y-95525000D01*
G75*
G02*
X144175000Y-95725000I0J-200000D01*
G01*
G37*
%TD.AperFunction*%
%TO.P,R9,1*%
%TO.N,Net-(R9-Pad1)*%
%TA.AperFunction,SMDPad,CuDef*%
G36*
G01*
X145825000Y-95725000D02*
X145825000Y-96275000D01*
G75*
G02*
X145625000Y-96475000I-200000J0D01*
G01*
X145225000Y-96475000D01*
G75*
G02*
X145025000Y-96275000I0J200000D01*
G01*
X145025000Y-95725000D01*
G75*
G02*
X145225000Y-95525000I200000J0D01*
G01*
X145625000Y-95525000D01*
G75*
G02*
X145825000Y-95725000I0J-200000D01*
G01*
G37*
%TD.AperFunction*%
%TD*%
%TO.P,R8,2*%
%TO.N,Net-(D2-Pad2)*%
%TA.AperFunction,SMDPad,CuDef*%
G36*
G01*
X144175000Y-94225000D02*
X144175000Y-94775000D01*
G75*
G02*
X143975000Y-94975000I-200000J0D01*
G01*
X143575000Y-94975000D01*
G75*
G02*
X143375000Y-94775000I0J200000D01*
G01*
X143375000Y-94225000D01*
G75*
G02*
X143575000Y-94025000I200000J0D01*
G01*
X143975000Y-94025000D01*
G75*
G02*
X144175000Y-94225000I0J-200000D01*
G01*
G37*
%TD.AperFunction*%
%TO.P,R8,1*%
%TO.N,Net-(R8-Pad1)*%
%TA.AperFunction,SMDPad,CuDef*%
G36*
G01*
X145825000Y-94225000D02*
X145825000Y-94775000D01*
G75*
G02*
X145625000Y-94975000I-200000J0D01*
G01*
X145225000Y-94975000D01*
G75*
G02*
X145025000Y-94775000I0J200000D01*
G01*
X145025000Y-94225000D01*
G75*
G02*
X145225000Y-94025000I200000J0D01*
G01*
X145625000Y-94025000D01*
G75*
G02*
X145825000Y-94225000I0J-200000D01*
G01*
G37*
%TD.AperFunction*%
%TD*%
%TO.P,R7,2*%
%TO.N,Net-(D1-Pad2)*%
%TA.AperFunction,SMDPad,CuDef*%
G36*
G01*
X144175000Y-92725000D02*
X144175000Y-93275000D01*
G75*
G02*
X143975000Y-93475000I-200000J0D01*
G01*
X143575000Y-93475000D01*
G75*
G02*
X143375000Y-93275000I0J200000D01*
G01*
X143375000Y-92725000D01*
G75*
G02*
X143575000Y-92525000I200000J0D01*
G01*
X143975000Y-92525000D01*
G75*
G02*
X144175000Y-92725000I0J-200000D01*
G01*
G37*
%TD.AperFunction*%
%TO.P,R7,1*%
%TO.N,Net-(R7-Pad1)*%
%TA.AperFunction,SMDPad,CuDef*%
G36*
G01*
X145825000Y-92725000D02*
X145825000Y-93275000D01*
G75*
G02*
X145625000Y-93475000I-200000J0D01*
G01*
X145225000Y-93475000D01*
G75*
G02*
X145025000Y-93275000I0J200000D01*
G01*
X145025000Y-92725000D01*
G75*
G02*
X145225000Y-92525000I200000J0D01*
G01*
X145625000Y-92525000D01*
G75*
G02*
X145825000Y-92725000I0J-200000D01*
G01*
G37*
%TD.AperFunction*%
%TD*%
%TO.P,R6,2*%
%TO.N,GND*%
%TA.AperFunction,SMDPad,CuDef*%
G36*
G01*
X144175000Y-97225000D02*
X144175000Y-97775000D01*
G75*
G02*
X143975000Y-97975000I-200000J0D01*
G01*
X143575000Y-97975000D01*
G75*
G02*
X143375000Y-97775000I0J200000D01*
G01*
X143375000Y-97225000D01*
G75*
G02*
X143575000Y-97025000I200000J0D01*
G01*
X143975000Y-97025000D01*
G75*
G02*
X144175000Y-97225000I0J-200000D01*
G01*
G37*
%TD.AperFunction*%
%TO.P,R6,1*%
%TO.N,Net-(R5-Pad1)*%
%TA.AperFunction,SMDPad,CuDef*%
G36*
G01*
X145825000Y-97225000D02*
X145825000Y-97775000D01*
G75*
G02*
X145625000Y-97975000I-200000J0D01*
G01*
X145225000Y-97975000D01*
G75*
G02*
X145025000Y-97775000I0J200000D01*
G01*
X145025000Y-97225000D01*
G75*
G02*
X145225000Y-97025000I200000J0D01*
G01*
X145625000Y-97025000D01*
G75*
G02*
X145825000Y-97225000I0J-200000D01*
G01*
G37*
%TD.AperFunction*%
%TD*%
%TO.P,R5,2*%
%TO.N,+5V*%
%TA.AperFunction,SMDPad,CuDef*%
G36*
G01*
X144175000Y-98725000D02*
X144175000Y-99275000D01*
G75*
G02*
X143975000Y-99475000I-200000J0D01*
G01*
X143575000Y-99475000D01*
G75*
G02*
X143375000Y-99275000I0J200000D01*
G01*
X143375000Y-98725000D01*
G75*
G02*
X143575000Y-98525000I200000J0D01*
G01*
X143975000Y-98525000D01*
G75*
G02*
X144175000Y-98725000I0J-200000D01*
G01*
G37*
%TD.AperFunction*%
%TO.P,R5,1*%
%TO.N,Net-(R5-Pad1)*%
%TA.AperFunction,SMDPad,CuDef*%
G36*
G01*
X145825000Y-98725000D02*
X145825000Y-99275000D01*
G75*
G02*
X145625000Y-99475000I-200000J0D01*
G01*
X145225000Y-99475000D01*
G75*
G02*
X145025000Y-99275000I0J200000D01*
G01*
X145025000Y-98725000D01*
G75*
G02*
X145225000Y-98525000I200000J0D01*
G01*
X145625000Y-98525000D01*
G75*
G02*
X145825000Y-98725000I0J-200000D01*
G01*
G37*
%TD.AperFunction*%
%TD*%
%TO.P,R4,2*%
%TO.N,Net-(C10-Pad1)*%
%TA.AperFunction,SMDPad,CuDef*%
G36*
G01*
X161425000Y-86575000D02*
X161425000Y-86025000D01*
G75*
G02*
X161625000Y-85825000I200000J0D01*
G01*
X162025000Y-85825000D01*
G75*
G02*
X162225000Y-86025000I0J-200000D01*
G01*
X162225000Y-86575000D01*
G75*
G02*
X162025000Y-86775000I-200000J0D01*
G01*
X161625000Y-86775000D01*
G75*
G02*
X161425000Y-86575000I0J200000D01*
G01*
G37*
%TD.AperFunction*%
%TO.P,R4,1*%
%TO.N,Net-(C8-Pad1)*%
%TA.AperFunction,SMDPad,CuDef*%
G36*
G01*
X159775000Y-86575000D02*
X159775000Y-86025000D01*
G75*
G02*
X159975000Y-85825000I200000J0D01*
G01*
X160375000Y-85825000D01*
G75*
G02*
X160575000Y-86025000I0J-200000D01*
G01*
X160575000Y-86575000D01*
G75*
G02*
X160375000Y-86775000I-200000J0D01*
G01*
X159975000Y-86775000D01*
G75*
G02*
X159775000Y-86575000I0J200000D01*
G01*
G37*
%TD.AperFunction*%
%TD*%
%TO.P,R3,2*%
%TO.N,Net-(C4-Pad2)*%
%TA.AperFunction,SMDPad,CuDef*%
G36*
G01*
X164725000Y-88075000D02*
X164725000Y-87525000D01*
G75*
G02*
X164925000Y-87325000I200000J0D01*
G01*
X165325000Y-87325000D01*
G75*
G02*
X165525000Y-87525000I0J-200000D01*
G01*
X165525000Y-88075000D01*
G75*
G02*
X165325000Y-88275000I-200000J0D01*
G01*
X164925000Y-88275000D01*
G75*
G02*
X164725000Y-88075000I0J200000D01*
G01*
G37*
%TD.AperFunction*%
%TO.P,R3,1*%
%TO.N,Net-(C8-Pad2)*%
%TA.AperFunction,SMDPad,CuDef*%
G36*
G01*
X163075000Y-88075000D02*
X163075000Y-87525000D01*
G75*
G02*
X163275000Y-87325000I200000J0D01*
G01*
X163675000Y-87325000D01*
G75*
G02*
X163875000Y-87525000I0J-200000D01*
G01*
X163875000Y-88075000D01*
G75*
G02*
X163675000Y-88275000I-200000J0D01*
G01*
X163275000Y-88275000D01*
G75*
G02*
X163075000Y-88075000I0J200000D01*
G01*
G37*
%TD.AperFunction*%
%TD*%
%TO.P,R2,2*%
%TO.N,Net-(A1-Pad3)*%
%TA.AperFunction,SMDPad,CuDef*%
G36*
G01*
X166625000Y-93375000D02*
X166625000Y-92825000D01*
G75*
G02*
X166825000Y-92625000I200000J0D01*
G01*
X167225000Y-92625000D01*
G75*
G02*
X167425000Y-92825000I0J-200000D01*
G01*
X167425000Y-93375000D01*
G75*
G02*
X167225000Y-93575000I-200000J0D01*
G01*
X166825000Y-93575000D01*
G75*
G02*
X166625000Y-93375000I0J200000D01*
G01*
G37*
%TD.AperFunction*%
%TO.P,R2,1*%
%TO.N,Net-(C2-Pad2)*%
%TA.AperFunction,SMDPad,CuDef*%
G36*
G01*
X164975000Y-93375000D02*
X164975000Y-92825000D01*
G75*
G02*
X165175000Y-92625000I200000J0D01*
G01*
X165575000Y-92625000D01*
G75*
G02*
X165775000Y-92825000I0J-200000D01*
G01*
X165775000Y-93375000D01*
G75*
G02*
X165575000Y-93575000I-200000J0D01*
G01*
X165175000Y-93575000D01*
G75*
G02*
X164975000Y-93375000I0J200000D01*
G01*
G37*
%TD.AperFunction*%
%TD*%
%TO.P,R1,2*%
%TO.N,Net-(A1-Pad1)*%
%TA.AperFunction,SMDPad,CuDef*%
G36*
G01*
X166625000Y-97175000D02*
X166625000Y-96625000D01*
G75*
G02*
X166825000Y-96425000I200000J0D01*
G01*
X167225000Y-96425000D01*
G75*
G02*
X167425000Y-96625000I0J-200000D01*
G01*
X167425000Y-97175000D01*
G75*
G02*
X167225000Y-97375000I-200000J0D01*
G01*
X166825000Y-97375000D01*
G75*
G02*
X166625000Y-97175000I0J200000D01*
G01*
G37*
%TD.AperFunction*%
%TO.P,R1,1*%
%TO.N,Net-(C1-Pad1)*%
%TA.AperFunction,SMDPad,CuDef*%
G36*
G01*
X164975000Y-97175000D02*
X164975000Y-96625000D01*
G75*
G02*
X165175000Y-96425000I200000J0D01*
G01*
X165575000Y-96425000D01*
G75*
G02*
X165775000Y-96625000I0J-200000D01*
G01*
X165775000Y-97175000D01*
G75*
G02*
X165575000Y-97375000I-200000J0D01*
G01*
X165175000Y-97375000D01*
G75*
G02*
X164975000Y-97175000I0J200000D01*
G01*
G37*
%TD.AperFunction*%
%TD*%
%TO.P,C17,2*%
%TO.N,GND*%
%TA.AperFunction,SMDPad,CuDef*%
G36*
G01*
X151250000Y-89675000D02*
X150750000Y-89675000D01*
G75*
G02*
X150525000Y-89450000I0J225000D01*
G01*
X150525000Y-89000000D01*
G75*
G02*
X150750000Y-88775000I225000J0D01*
G01*
X151250000Y-88775000D01*
G75*
G02*
X151475000Y-89000000I0J-225000D01*
G01*
X151475000Y-89450000D01*
G75*
G02*
X151250000Y-89675000I-225000J0D01*
G01*
G37*
%TD.AperFunction*%
%TO.P,C17,1*%
%TO.N,+3V3*%
%TA.AperFunction,SMDPad,CuDef*%
G36*
G01*
X151250000Y-91225000D02*
X150750000Y-91225000D01*
G75*
G02*
X150525000Y-91000000I0J225000D01*
G01*
X150525000Y-90550000D01*
G75*
G02*
X150750000Y-90325000I225000J0D01*
G01*
X151250000Y-90325000D01*
G75*
G02*
X151475000Y-90550000I0J-225000D01*
G01*
X151475000Y-91000000D01*
G75*
G02*
X151250000Y-91225000I-225000J0D01*
G01*
G37*
%TD.AperFunction*%
%TD*%
%TO.P,C16,2*%
%TO.N,GND*%
%TA.AperFunction,SMDPad,CuDef*%
G36*
G01*
X153550000Y-88075000D02*
X153050000Y-88075000D01*
G75*
G02*
X152825000Y-87850000I0J225000D01*
G01*
X152825000Y-87400000D01*
G75*
G02*
X153050000Y-87175000I225000J0D01*
G01*
X153550000Y-87175000D01*
G75*
G02*
X153775000Y-87400000I0J-225000D01*
G01*
X153775000Y-87850000D01*
G75*
G02*
X153550000Y-88075000I-225000J0D01*
G01*
G37*
%TD.AperFunction*%
%TO.P,C16,1*%
%TO.N,Net-(C16-Pad1)*%
%TA.AperFunction,SMDPad,CuDef*%
G36*
G01*
X153550000Y-89625000D02*
X153050000Y-89625000D01*
G75*
G02*
X152825000Y-89400000I0J225000D01*
G01*
X152825000Y-88950000D01*
G75*
G02*
X153050000Y-88725000I225000J0D01*
G01*
X153550000Y-88725000D01*
G75*
G02*
X153775000Y-88950000I0J-225000D01*
G01*
X153775000Y-89400000D01*
G75*
G02*
X153550000Y-89625000I-225000J0D01*
G01*
G37*
%TD.AperFunction*%
%TD*%
%TO.P,C15,2*%
%TO.N,GND*%
%TA.AperFunction,SMDPad,CuDef*%
G36*
G01*
X158050000Y-88725000D02*
X158550000Y-88725000D01*
G75*
G02*
X158775000Y-88950000I0J-225000D01*
G01*
X158775000Y-89400000D01*
G75*
G02*
X158550000Y-89625000I-225000J0D01*
G01*
X158050000Y-89625000D01*
G75*
G02*
X157825000Y-89400000I0J225000D01*
G01*
X157825000Y-88950000D01*
G75*
G02*
X158050000Y-88725000I225000J0D01*
G01*
G37*
%TD.AperFunction*%
%TO.P,C15,1*%
%TO.N,Net-(C15-Pad1)*%
%TA.AperFunction,SMDPad,CuDef*%
G36*
G01*
X158050000Y-87175000D02*
X158550000Y-87175000D01*
G75*
G02*
X158775000Y-87400000I0J-225000D01*
G01*
X158775000Y-87850000D01*
G75*
G02*
X158550000Y-88075000I-225000J0D01*
G01*
X158050000Y-88075000D01*
G75*
G02*
X157825000Y-87850000I0J225000D01*
G01*
X157825000Y-87400000D01*
G75*
G02*
X158050000Y-87175000I225000J0D01*
G01*
G37*
%TD.AperFunction*%
%TD*%
%TO.P,C14,2*%
%TO.N,GND*%
%TA.AperFunction,SMDPad,CuDef*%
G36*
G01*
X158950000Y-100725000D02*
X159450000Y-100725000D01*
G75*
G02*
X159675000Y-100950000I0J-225000D01*
G01*
X159675000Y-101400000D01*
G75*
G02*
X159450000Y-101625000I-225000J0D01*
G01*
X158950000Y-101625000D01*
G75*
G02*
X158725000Y-101400000I0J225000D01*
G01*
X158725000Y-100950000D01*
G75*
G02*
X158950000Y-100725000I225000J0D01*
G01*
G37*
%TD.AperFunction*%
%TO.P,C14,1*%
%TO.N,+5V*%
%TA.AperFunction,SMDPad,CuDef*%
G36*
G01*
X158950000Y-99175000D02*
X159450000Y-99175000D01*
G75*
G02*
X159675000Y-99400000I0J-225000D01*
G01*
X159675000Y-99850000D01*
G75*
G02*
X159450000Y-100075000I-225000J0D01*
G01*
X158950000Y-100075000D01*
G75*
G02*
X158725000Y-99850000I0J225000D01*
G01*
X158725000Y-99400000D01*
G75*
G02*
X158950000Y-99175000I225000J0D01*
G01*
G37*
%TD.AperFunction*%
%TD*%
%TO.P,C13,2*%
%TO.N,GND*%
%TA.AperFunction,SMDPad,CuDef*%
G36*
G01*
X155950000Y-100725000D02*
X156450000Y-100725000D01*
G75*
G02*
X156675000Y-100950000I0J-225000D01*
G01*
X156675000Y-101400000D01*
G75*
G02*
X156450000Y-101625000I-225000J0D01*
G01*
X155950000Y-101625000D01*
G75*
G02*
X155725000Y-101400000I0J225000D01*
G01*
X155725000Y-100950000D01*
G75*
G02*
X155950000Y-100725000I225000J0D01*
G01*
G37*
%TD.AperFunction*%
%TO.P,C13,1*%
%TO.N,+3V3*%
%TA.AperFunction,SMDPad,CuDef*%
G36*
G01*
X155950000Y-99175000D02*
X156450000Y-99175000D01*
G75*
G02*
X156675000Y-99400000I0J-225000D01*
G01*
X156675000Y-99850000D01*
G75*
G02*
X156450000Y-100075000I-225000J0D01*
G01*
X155950000Y-100075000D01*
G75*
G02*
X155725000Y-99850000I0J225000D01*
G01*
X155725000Y-99400000D01*
G75*
G02*
X155950000Y-99175000I225000J0D01*
G01*
G37*
%TD.AperFunction*%
%TD*%
%TO.P,C12,2*%
%TO.N,GND*%
%TA.AperFunction,SMDPad,CuDef*%
G36*
G01*
X157450000Y-100725000D02*
X157950000Y-100725000D01*
G75*
G02*
X158175000Y-100950000I0J-225000D01*
G01*
X158175000Y-101400000D01*
G75*
G02*
X157950000Y-101625000I-225000J0D01*
G01*
X157450000Y-101625000D01*
G75*
G02*
X157225000Y-101400000I0J225000D01*
G01*
X157225000Y-100950000D01*
G75*
G02*
X157450000Y-100725000I225000J0D01*
G01*
G37*
%TD.AperFunction*%
%TO.P,C12,1*%
%TO.N,+3V3*%
%TA.AperFunction,SMDPad,CuDef*%
G36*
G01*
X157450000Y-99175000D02*
X157950000Y-99175000D01*
G75*
G02*
X158175000Y-99400000I0J-225000D01*
G01*
X158175000Y-99850000D01*
G75*
G02*
X157950000Y-100075000I-225000J0D01*
G01*
X157450000Y-100075000D01*
G75*
G02*
X157225000Y-99850000I0J225000D01*
G01*
X157225000Y-99400000D01*
G75*
G02*
X157450000Y-99175000I225000J0D01*
G01*
G37*
%TD.AperFunction*%
%TD*%
%TO.P,C11,2*%
%TO.N,GND*%
%TA.AperFunction,SMDPad,CuDef*%
G36*
G01*
X161050000Y-100025000D02*
X161550000Y-100025000D01*
G75*
G02*
X161775000Y-100250000I0J-225000D01*
G01*
X161775000Y-100700000D01*
G75*
G02*
X161550000Y-100925000I-225000J0D01*
G01*
X161050000Y-100925000D01*
G75*
G02*
X160825000Y-100700000I0J225000D01*
G01*
X160825000Y-100250000D01*
G75*
G02*
X161050000Y-100025000I225000J0D01*
G01*
G37*
%TD.AperFunction*%
%TO.P,C11,1*%
%TO.N,+3V3*%
%TA.AperFunction,SMDPad,CuDef*%
G36*
G01*
X161050000Y-98475000D02*
X161550000Y-98475000D01*
G75*
G02*
X161775000Y-98700000I0J-225000D01*
G01*
X161775000Y-99150000D01*
G75*
G02*
X161550000Y-99375000I-225000J0D01*
G01*
X161050000Y-99375000D01*
G75*
G02*
X160825000Y-99150000I0J225000D01*
G01*
X160825000Y-98700000D01*
G75*
G02*
X161050000Y-98475000I225000J0D01*
G01*
G37*
%TD.AperFunction*%
%TD*%
%TO.P,C10,2*%
%TO.N,GND*%
%TA.AperFunction,SMDPad,CuDef*%
G36*
G01*
X161450000Y-89975000D02*
X160950000Y-89975000D01*
G75*
G02*
X160725000Y-89750000I0J225000D01*
G01*
X160725000Y-89300000D01*
G75*
G02*
X160950000Y-89075000I225000J0D01*
G01*
X161450000Y-89075000D01*
G75*
G02*
X161675000Y-89300000I0J-225000D01*
G01*
X161675000Y-89750000D01*
G75*
G02*
X161450000Y-89975000I-225000J0D01*
G01*
G37*
%TD.AperFunction*%
%TO.P,C10,1*%
%TO.N,Net-(C10-Pad1)*%
%TA.AperFunction,SMDPad,CuDef*%
G36*
G01*
X161450000Y-91525000D02*
X160950000Y-91525000D01*
G75*
G02*
X160725000Y-91300000I0J225000D01*
G01*
X160725000Y-90850000D01*
G75*
G02*
X160950000Y-90625000I225000J0D01*
G01*
X161450000Y-90625000D01*
G75*
G02*
X161675000Y-90850000I0J-225000D01*
G01*
X161675000Y-91300000D01*
G75*
G02*
X161450000Y-91525000I-225000J0D01*
G01*
G37*
%TD.AperFunction*%
%TD*%
%TO.P,C9,2*%
%TO.N,GND*%
%TA.AperFunction,SMDPad,CuDef*%
G36*
G01*
X162425000Y-95250000D02*
X162425000Y-94750000D01*
G75*
G02*
X162650000Y-94525000I225000J0D01*
G01*
X163100000Y-94525000D01*
G75*
G02*
X163325000Y-94750000I0J-225000D01*
G01*
X163325000Y-95250000D01*
G75*
G02*
X163100000Y-95475000I-225000J0D01*
G01*
X162650000Y-95475000D01*
G75*
G02*
X162425000Y-95250000I0J225000D01*
G01*
G37*
%TD.AperFunction*%
%TO.P,C9,1*%
%TO.N,+3V3*%
%TA.AperFunction,SMDPad,CuDef*%
G36*
G01*
X160875000Y-95250000D02*
X160875000Y-94750000D01*
G75*
G02*
X161100000Y-94525000I225000J0D01*
G01*
X161550000Y-94525000D01*
G75*
G02*
X161775000Y-94750000I0J-225000D01*
G01*
X161775000Y-95250000D01*
G75*
G02*
X161550000Y-95475000I-225000J0D01*
G01*
X161100000Y-95475000D01*
G75*
G02*
X160875000Y-95250000I0J225000D01*
G01*
G37*
%TD.AperFunction*%
%TD*%
%TO.P,C8,2*%
%TO.N,Net-(C8-Pad2)*%
%TA.AperFunction,SMDPad,CuDef*%
G36*
G01*
X161325000Y-88050000D02*
X161325000Y-87550000D01*
G75*
G02*
X161550000Y-87325000I225000J0D01*
G01*
X162000000Y-87325000D01*
G75*
G02*
X162225000Y-87550000I0J-225000D01*
G01*
X162225000Y-88050000D01*
G75*
G02*
X162000000Y-88275000I-225000J0D01*
G01*
X161550000Y-88275000D01*
G75*
G02*
X161325000Y-88050000I0J225000D01*
G01*
G37*
%TD.AperFunction*%
%TO.P,C8,1*%
%TO.N,Net-(C8-Pad1)*%
%TA.AperFunction,SMDPad,CuDef*%
G36*
G01*
X159775000Y-88050000D02*
X159775000Y-87550000D01*
G75*
G02*
X160000000Y-87325000I225000J0D01*
G01*
X160450000Y-87325000D01*
G75*
G02*
X160675000Y-87550000I0J-225000D01*
G01*
X160675000Y-88050000D01*
G75*
G02*
X160450000Y-88275000I-225000J0D01*
G01*
X160000000Y-88275000D01*
G75*
G02*
X159775000Y-88050000I0J225000D01*
G01*
G37*
%TD.AperFunction*%
%TD*%
%TO.P,C7,2*%
%TO.N,GND*%
%TA.AperFunction,SMDPad,CuDef*%
G36*
G01*
X166125000Y-95250000D02*
X166125000Y-94750000D01*
G75*
G02*
X166350000Y-94525000I225000J0D01*
G01*
X166800000Y-94525000D01*
G75*
G02*
X167025000Y-94750000I0J-225000D01*
G01*
X167025000Y-95250000D01*
G75*
G02*
X166800000Y-95475000I-225000J0D01*
G01*
X166350000Y-95475000D01*
G75*
G02*
X166125000Y-95250000I0J225000D01*
G01*
G37*
%TD.AperFunction*%
%TO.P,C7,1*%
%TO.N,+3V3*%
%TA.AperFunction,SMDPad,CuDef*%
G36*
G01*
X164575000Y-95250000D02*
X164575000Y-94750000D01*
G75*
G02*
X164800000Y-94525000I225000J0D01*
G01*
X165250000Y-94525000D01*
G75*
G02*
X165475000Y-94750000I0J-225000D01*
G01*
X165475000Y-95250000D01*
G75*
G02*
X165250000Y-95475000I-225000J0D01*
G01*
X164800000Y-95475000D01*
G75*
G02*
X164575000Y-95250000I0J225000D01*
G01*
G37*
%TD.AperFunction*%
%TD*%
%TO.P,C6,2*%
%TO.N,Net-(C4-Pad2)*%
%TA.AperFunction,SMDPad,CuDef*%
G36*
G01*
X162450000Y-90625000D02*
X162950000Y-90625000D01*
G75*
G02*
X163175000Y-90850000I0J-225000D01*
G01*
X163175000Y-91300000D01*
G75*
G02*
X162950000Y-91525000I-225000J0D01*
G01*
X162450000Y-91525000D01*
G75*
G02*
X162225000Y-91300000I0J225000D01*
G01*
X162225000Y-90850000D01*
G75*
G02*
X162450000Y-90625000I225000J0D01*
G01*
G37*
%TD.AperFunction*%
%TO.P,C6,1*%
%TO.N,GND*%
%TA.AperFunction,SMDPad,CuDef*%
G36*
G01*
X162450000Y-89075000D02*
X162950000Y-89075000D01*
G75*
G02*
X163175000Y-89300000I0J-225000D01*
G01*
X163175000Y-89750000D01*
G75*
G02*
X162950000Y-89975000I-225000J0D01*
G01*
X162450000Y-89975000D01*
G75*
G02*
X162225000Y-89750000I0J225000D01*
G01*
X162225000Y-89300000D01*
G75*
G02*
X162450000Y-89075000I225000J0D01*
G01*
G37*
%TD.AperFunction*%
%TD*%
%TO.P,C5,2*%
%TO.N,Net-(C3-Pad1)*%
%TA.AperFunction,SMDPad,CuDef*%
G36*
G01*
X163050000Y-99375000D02*
X162550000Y-99375000D01*
G75*
G02*
X162325000Y-99150000I0J225000D01*
G01*
X162325000Y-98700000D01*
G75*
G02*
X162550000Y-98475000I225000J0D01*
G01*
X163050000Y-98475000D01*
G75*
G02*
X163275000Y-98700000I0J-225000D01*
G01*
X163275000Y-99150000D01*
G75*
G02*
X163050000Y-99375000I-225000J0D01*
G01*
G37*
%TD.AperFunction*%
%TO.P,C5,1*%
%TO.N,GND*%
%TA.AperFunction,SMDPad,CuDef*%
G36*
G01*
X163050000Y-100925000D02*
X162550000Y-100925000D01*
G75*
G02*
X162325000Y-100700000I0J225000D01*
G01*
X162325000Y-100250000D01*
G75*
G02*
X162550000Y-100025000I225000J0D01*
G01*
X163050000Y-100025000D01*
G75*
G02*
X163275000Y-100250000I0J-225000D01*
G01*
X163275000Y-100700000D01*
G75*
G02*
X163050000Y-100925000I-225000J0D01*
G01*
G37*
%TD.AperFunction*%
%TD*%
%TO.P,C4,2*%
%TO.N,Net-(C4-Pad2)*%
%TA.AperFunction,SMDPad,CuDef*%
G36*
G01*
X165950000Y-89975000D02*
X165450000Y-89975000D01*
G75*
G02*
X165225000Y-89750000I0J225000D01*
G01*
X165225000Y-89300000D01*
G75*
G02*
X165450000Y-89075000I225000J0D01*
G01*
X165950000Y-89075000D01*
G75*
G02*
X166175000Y-89300000I0J-225000D01*
G01*
X166175000Y-89750000D01*
G75*
G02*
X165950000Y-89975000I-225000J0D01*
G01*
G37*
%TD.AperFunction*%
%TO.P,C4,1*%
%TO.N,Net-(C2-Pad2)*%
%TA.AperFunction,SMDPad,CuDef*%
G36*
G01*
X165950000Y-91525000D02*
X165450000Y-91525000D01*
G75*
G02*
X165225000Y-91300000I0J225000D01*
G01*
X165225000Y-90850000D01*
G75*
G02*
X165450000Y-90625000I225000J0D01*
G01*
X165950000Y-90625000D01*
G75*
G02*
X166175000Y-90850000I0J-225000D01*
G01*
X166175000Y-91300000D01*
G75*
G02*
X165950000Y-91525000I-225000J0D01*
G01*
G37*
%TD.AperFunction*%
%TD*%
%TO.P,C3,2*%
%TO.N,Net-(C1-Pad1)*%
%TA.AperFunction,SMDPad,CuDef*%
G36*
G01*
X166050000Y-99375000D02*
X165550000Y-99375000D01*
G75*
G02*
X165325000Y-99150000I0J225000D01*
G01*
X165325000Y-98700000D01*
G75*
G02*
X165550000Y-98475000I225000J0D01*
G01*
X166050000Y-98475000D01*
G75*
G02*
X166275000Y-98700000I0J-225000D01*
G01*
X166275000Y-99150000D01*
G75*
G02*
X166050000Y-99375000I-225000J0D01*
G01*
G37*
%TD.AperFunction*%
%TO.P,C3,1*%
%TO.N,Net-(C3-Pad1)*%
%TA.AperFunction,SMDPad,CuDef*%
G36*
G01*
X166050000Y-100925000D02*
X165550000Y-100925000D01*
G75*
G02*
X165325000Y-100700000I0J225000D01*
G01*
X165325000Y-100250000D01*
G75*
G02*
X165550000Y-100025000I225000J0D01*
G01*
X166050000Y-100025000D01*
G75*
G02*
X166275000Y-100250000I0J-225000D01*
G01*
X166275000Y-100700000D01*
G75*
G02*
X166050000Y-100925000I-225000J0D01*
G01*
G37*
%TD.AperFunction*%
%TD*%
%TO.P,C2,2*%
%TO.N,Net-(C2-Pad2)*%
%TA.AperFunction,SMDPad,CuDef*%
G36*
G01*
X163950000Y-90625000D02*
X164450000Y-90625000D01*
G75*
G02*
X164675000Y-90850000I0J-225000D01*
G01*
X164675000Y-91300000D01*
G75*
G02*
X164450000Y-91525000I-225000J0D01*
G01*
X163950000Y-91525000D01*
G75*
G02*
X163725000Y-91300000I0J225000D01*
G01*
X163725000Y-90850000D01*
G75*
G02*
X163950000Y-90625000I225000J0D01*
G01*
G37*
%TD.AperFunction*%
%TO.P,C2,1*%
%TO.N,GND*%
%TA.AperFunction,SMDPad,CuDef*%
G36*
G01*
X163950000Y-89075000D02*
X164450000Y-89075000D01*
G75*
G02*
X164675000Y-89300000I0J-225000D01*
G01*
X164675000Y-89750000D01*
G75*
G02*
X164450000Y-89975000I-225000J0D01*
G01*
X163950000Y-89975000D01*
G75*
G02*
X163725000Y-89750000I0J225000D01*
G01*
X163725000Y-89300000D01*
G75*
G02*
X163950000Y-89075000I225000J0D01*
G01*
G37*
%TD.AperFunction*%
%TD*%
%TO.P,C1,2*%
%TO.N,GND*%
%TA.AperFunction,SMDPad,CuDef*%
G36*
G01*
X164050000Y-100025000D02*
X164550000Y-100025000D01*
G75*
G02*
X164775000Y-100250000I0J-225000D01*
G01*
X164775000Y-100700000D01*
G75*
G02*
X164550000Y-100925000I-225000J0D01*
G01*
X164050000Y-100925000D01*
G75*
G02*
X163825000Y-100700000I0J225000D01*
G01*
X163825000Y-100250000D01*
G75*
G02*
X164050000Y-100025000I225000J0D01*
G01*
G37*
%TD.AperFunction*%
%TO.P,C1,1*%
%TO.N,Net-(C1-Pad1)*%
%TA.AperFunction,SMDPad,CuDef*%
G36*
G01*
X164050000Y-98475000D02*
X164550000Y-98475000D01*
G75*
G02*
X164775000Y-98700000I0J-225000D01*
G01*
X164775000Y-99150000D01*
G75*
G02*
X164550000Y-99375000I-225000J0D01*
G01*
X164050000Y-99375000D01*
G75*
G02*
X163825000Y-99150000I0J225000D01*
G01*
X163825000Y-98700000D01*
G75*
G02*
X164050000Y-98475000I225000J0D01*
G01*
G37*
%TD.AperFunction*%
%TD*%
D12*
%TO.P,A1,~*%
%TO.N,N/C*%
X130000000Y-94000000D03*
X133000000Y-96000000D03*
%TO.P,A1,3*%
%TO.N,Net-(A1-Pad3)*%
X167000000Y-92000000D03*
%TO.P,A1,1*%
%TO.N,Net-(A1-Pad1)*%
X167000000Y-98000000D03*
%TO.P,A1,2*%
%TO.N,GND*%
X169000000Y-95000000D03*
%TD*%
D13*
%TO.P,SW1,2*%
%TO.N,Net-(R10-Pad2)*%
X153975000Y-80750000D03*
%TO.P,SW1,1*%
%TO.N,GND*%
X153975000Y-85250000D03*
X146025000Y-85250000D03*
%TO.P,SW1,2*%
%TO.N,Net-(R10-Pad2)*%
X146025000Y-80750000D03*
D14*
%TO.P,SW1,1*%
%TO.N,GND*%
X146750000Y-85250000D03*
%TO.P,SW1,2*%
%TO.N,Net-(R10-Pad2)*%
X146750000Y-80750000D03*
%TO.P,SW1,1*%
%TO.N,GND*%
X153250000Y-85250000D03*
%TO.P,SW1,2*%
%TO.N,Net-(R10-Pad2)*%
X153250000Y-80750000D03*
%TD*%
D15*
%TO.P,J3,4*%
%TO.N,Net-(J2-Pad4)*%
X153750000Y-103900000D03*
%TO.P,J3,3*%
%TO.N,Net-(J2-Pad3)*%
X151250000Y-103900000D03*
%TO.P,J3,2*%
%TO.N,+5V*%
X148750000Y-103900000D03*
%TO.P,J3,1*%
%TO.N,GND*%
%TA.AperFunction,ComponentPad*%
G36*
G01*
X145400000Y-104575000D02*
X145400000Y-103225000D01*
G75*
G02*
X145650000Y-102975000I250000J0D01*
G01*
X146850000Y-102975000D01*
G75*
G02*
X147100000Y-103225000I0J-250000D01*
G01*
X147100000Y-104575000D01*
G75*
G02*
X146850000Y-104825000I-250000J0D01*
G01*
X145650000Y-104825000D01*
G75*
G02*
X145400000Y-104575000I0J250000D01*
G01*
G37*
%TD.AperFunction*%
%TD*%
D16*
%TO.P,TP2,1*%
%TO.N,Net-(L2-Pad2)*%
X160300000Y-94100000D03*
%TD*%
%TO.P,TP1,1*%
%TO.N,Net-(L1-Pad1)*%
X160300000Y-95900000D03*
%TD*%
D17*
%TO.P,U1,41*%
%TO.N,GND*%
X155025000Y-93750000D03*
X157025000Y-93750000D03*
X157025000Y-95750000D03*
X155025000Y-95750000D03*
X156025000Y-94750000D03*
D18*
%TO.P,U1,~*%
%TO.N,N/C*%
X159025000Y-97750000D03*
D19*
X159025000Y-97750000D03*
X153025000Y-97750000D03*
X153025000Y-91750000D03*
X159025000Y-91750000D03*
D20*
%TO.P,U1,41*%
%TO.N,GND*%
X156025000Y-94750000D03*
%TO.P,U1,40*%
%TO.N,+5V*%
%TA.AperFunction,SMDPad,CuDef*%
G36*
G01*
X158400000Y-97337500D02*
X158400000Y-98212500D01*
G75*
G02*
X158337500Y-98275000I-62500J0D01*
G01*
X158212500Y-98275000D01*
G75*
G02*
X158150000Y-98212500I0J62500D01*
G01*
X158150000Y-97337500D01*
G75*
G02*
X158212500Y-97275000I62500J0D01*
G01*
X158337500Y-97275000D01*
G75*
G02*
X158400000Y-97337500I0J-62500D01*
G01*
G37*
%TD.AperFunction*%
%TO.P,U1,39*%
%TO.N,+3V3*%
%TA.AperFunction,SMDPad,CuDef*%
G36*
G01*
X157900000Y-97337500D02*
X157900000Y-98212500D01*
G75*
G02*
X157837500Y-98275000I-62500J0D01*
G01*
X157712500Y-98275000D01*
G75*
G02*
X157650000Y-98212500I0J62500D01*
G01*
X157650000Y-97337500D01*
G75*
G02*
X157712500Y-97275000I62500J0D01*
G01*
X157837500Y-97275000D01*
G75*
G02*
X157900000Y-97337500I0J-62500D01*
G01*
G37*
%TD.AperFunction*%
%TO.P,U1,38*%
%TO.N,Net-(R5-Pad1)*%
%TA.AperFunction,SMDPad,CuDef*%
G36*
G01*
X157400000Y-97337500D02*
X157400000Y-98212500D01*
G75*
G02*
X157337500Y-98275000I-62500J0D01*
G01*
X157212500Y-98275000D01*
G75*
G02*
X157150000Y-98212500I0J62500D01*
G01*
X157150000Y-97337500D01*
G75*
G02*
X157212500Y-97275000I62500J0D01*
G01*
X157337500Y-97275000D01*
G75*
G02*
X157400000Y-97337500I0J-62500D01*
G01*
G37*
%TD.AperFunction*%
%TO.P,U1,37*%
%TO.N,Net-(U1-Pad37)*%
%TA.AperFunction,SMDPad,CuDef*%
G36*
G01*
X156900000Y-97337500D02*
X156900000Y-98212500D01*
G75*
G02*
X156837500Y-98275000I-62500J0D01*
G01*
X156712500Y-98275000D01*
G75*
G02*
X156650000Y-98212500I0J62500D01*
G01*
X156650000Y-97337500D01*
G75*
G02*
X156712500Y-97275000I62500J0D01*
G01*
X156837500Y-97275000D01*
G75*
G02*
X156900000Y-97337500I0J-62500D01*
G01*
G37*
%TD.AperFunction*%
%TO.P,U1,36*%
%TO.N,Net-(U1-Pad36)*%
%TA.AperFunction,SMDPad,CuDef*%
G36*
G01*
X156400000Y-97337500D02*
X156400000Y-98212500D01*
G75*
G02*
X156337500Y-98275000I-62500J0D01*
G01*
X156212500Y-98275000D01*
G75*
G02*
X156150000Y-98212500I0J62500D01*
G01*
X156150000Y-97337500D01*
G75*
G02*
X156212500Y-97275000I62500J0D01*
G01*
X156337500Y-97275000D01*
G75*
G02*
X156400000Y-97337500I0J-62500D01*
G01*
G37*
%TD.AperFunction*%
%TO.P,U1,35*%
%TO.N,Net-(U1-Pad35)*%
%TA.AperFunction,SMDPad,CuDef*%
G36*
G01*
X155900000Y-97337500D02*
X155900000Y-98212500D01*
G75*
G02*
X155837500Y-98275000I-62500J0D01*
G01*
X155712500Y-98275000D01*
G75*
G02*
X155650000Y-98212500I0J62500D01*
G01*
X155650000Y-97337500D01*
G75*
G02*
X155712500Y-97275000I62500J0D01*
G01*
X155837500Y-97275000D01*
G75*
G02*
X155900000Y-97337500I0J-62500D01*
G01*
G37*
%TD.AperFunction*%
%TO.P,U1,34*%
%TO.N,Net-(U1-Pad34)*%
%TA.AperFunction,SMDPad,CuDef*%
G36*
G01*
X155400000Y-97337500D02*
X155400000Y-98212500D01*
G75*
G02*
X155337500Y-98275000I-62500J0D01*
G01*
X155212500Y-98275000D01*
G75*
G02*
X155150000Y-98212500I0J62500D01*
G01*
X155150000Y-97337500D01*
G75*
G02*
X155212500Y-97275000I62500J0D01*
G01*
X155337500Y-97275000D01*
G75*
G02*
X155400000Y-97337500I0J-62500D01*
G01*
G37*
%TD.AperFunction*%
%TO.P,U1,33*%
%TO.N,Net-(R9-Pad1)*%
%TA.AperFunction,SMDPad,CuDef*%
G36*
G01*
X154900000Y-97337500D02*
X154900000Y-98212500D01*
G75*
G02*
X154837500Y-98275000I-62500J0D01*
G01*
X154712500Y-98275000D01*
G75*
G02*
X154650000Y-98212500I0J62500D01*
G01*
X154650000Y-97337500D01*
G75*
G02*
X154712500Y-97275000I62500J0D01*
G01*
X154837500Y-97275000D01*
G75*
G02*
X154900000Y-97337500I0J-62500D01*
G01*
G37*
%TD.AperFunction*%
%TO.P,U1,32*%
%TO.N,Net-(R8-Pad1)*%
%TA.AperFunction,SMDPad,CuDef*%
G36*
G01*
X154400000Y-97337500D02*
X154400000Y-98212500D01*
G75*
G02*
X154337500Y-98275000I-62500J0D01*
G01*
X154212500Y-98275000D01*
G75*
G02*
X154150000Y-98212500I0J62500D01*
G01*
X154150000Y-97337500D01*
G75*
G02*
X154212500Y-97275000I62500J0D01*
G01*
X154337500Y-97275000D01*
G75*
G02*
X154400000Y-97337500I0J-62500D01*
G01*
G37*
%TD.AperFunction*%
%TO.P,U1,31*%
%TO.N,Net-(R7-Pad1)*%
%TA.AperFunction,SMDPad,CuDef*%
G36*
G01*
X153900000Y-97337500D02*
X153900000Y-98212500D01*
G75*
G02*
X153837500Y-98275000I-62500J0D01*
G01*
X153712500Y-98275000D01*
G75*
G02*
X153650000Y-98212500I0J62500D01*
G01*
X153650000Y-97337500D01*
G75*
G02*
X153712500Y-97275000I62500J0D01*
G01*
X153837500Y-97275000D01*
G75*
G02*
X153900000Y-97337500I0J-62500D01*
G01*
G37*
%TD.AperFunction*%
%TO.P,U1,30*%
%TO.N,Net-(J1-Pad2)*%
%TA.AperFunction,SMDPad,CuDef*%
G36*
G01*
X153500000Y-96937500D02*
X153500000Y-97062500D01*
G75*
G02*
X153437500Y-97125000I-62500J0D01*
G01*
X152562500Y-97125000D01*
G75*
G02*
X152500000Y-97062500I0J62500D01*
G01*
X152500000Y-96937500D01*
G75*
G02*
X152562500Y-96875000I62500J0D01*
G01*
X153437500Y-96875000D01*
G75*
G02*
X153500000Y-96937500I0J-62500D01*
G01*
G37*
%TD.AperFunction*%
%TO.P,U1,29*%
%TO.N,Net-(U1-Pad29)*%
%TA.AperFunction,SMDPad,CuDef*%
G36*
G01*
X153500000Y-96437500D02*
X153500000Y-96562500D01*
G75*
G02*
X153437500Y-96625000I-62500J0D01*
G01*
X152562500Y-96625000D01*
G75*
G02*
X152500000Y-96562500I0J62500D01*
G01*
X152500000Y-96437500D01*
G75*
G02*
X152562500Y-96375000I62500J0D01*
G01*
X153437500Y-96375000D01*
G75*
G02*
X153500000Y-96437500I0J-62500D01*
G01*
G37*
%TD.AperFunction*%
%TO.P,U1,28*%
%TO.N,Net-(J2-Pad3)*%
%TA.AperFunction,SMDPad,CuDef*%
G36*
G01*
X153500000Y-95937500D02*
X153500000Y-96062500D01*
G75*
G02*
X153437500Y-96125000I-62500J0D01*
G01*
X152562500Y-96125000D01*
G75*
G02*
X152500000Y-96062500I0J62500D01*
G01*
X152500000Y-95937500D01*
G75*
G02*
X152562500Y-95875000I62500J0D01*
G01*
X153437500Y-95875000D01*
G75*
G02*
X153500000Y-95937500I0J-62500D01*
G01*
G37*
%TD.AperFunction*%
%TO.P,U1,27*%
%TO.N,Net-(J2-Pad4)*%
%TA.AperFunction,SMDPad,CuDef*%
G36*
G01*
X153500000Y-95437500D02*
X153500000Y-95562500D01*
G75*
G02*
X153437500Y-95625000I-62500J0D01*
G01*
X152562500Y-95625000D01*
G75*
G02*
X152500000Y-95562500I0J62500D01*
G01*
X152500000Y-95437500D01*
G75*
G02*
X152562500Y-95375000I62500J0D01*
G01*
X153437500Y-95375000D01*
G75*
G02*
X153500000Y-95437500I0J-62500D01*
G01*
G37*
%TD.AperFunction*%
%TO.P,U1,26*%
%TO.N,Net-(U1-Pad26)*%
%TA.AperFunction,SMDPad,CuDef*%
G36*
G01*
X153500000Y-94937500D02*
X153500000Y-95062500D01*
G75*
G02*
X153437500Y-95125000I-62500J0D01*
G01*
X152562500Y-95125000D01*
G75*
G02*
X152500000Y-95062500I0J62500D01*
G01*
X152500000Y-94937500D01*
G75*
G02*
X152562500Y-94875000I62500J0D01*
G01*
X153437500Y-94875000D01*
G75*
G02*
X153500000Y-94937500I0J-62500D01*
G01*
G37*
%TD.AperFunction*%
%TO.P,U1,25*%
%TO.N,Net-(U1-Pad25)*%
%TA.AperFunction,SMDPad,CuDef*%
G36*
G01*
X153500000Y-94437500D02*
X153500000Y-94562500D01*
G75*
G02*
X153437500Y-94625000I-62500J0D01*
G01*
X152562500Y-94625000D01*
G75*
G02*
X152500000Y-94562500I0J62500D01*
G01*
X152500000Y-94437500D01*
G75*
G02*
X152562500Y-94375000I62500J0D01*
G01*
X153437500Y-94375000D01*
G75*
G02*
X153500000Y-94437500I0J-62500D01*
G01*
G37*
%TD.AperFunction*%
%TO.P,U1,24*%
%TO.N,Net-(R10-Pad2)*%
%TA.AperFunction,SMDPad,CuDef*%
G36*
G01*
X153500000Y-93937500D02*
X153500000Y-94062500D01*
G75*
G02*
X153437500Y-94125000I-62500J0D01*
G01*
X152562500Y-94125000D01*
G75*
G02*
X152500000Y-94062500I0J62500D01*
G01*
X152500000Y-93937500D01*
G75*
G02*
X152562500Y-93875000I62500J0D01*
G01*
X153437500Y-93875000D01*
G75*
G02*
X153500000Y-93937500I0J-62500D01*
G01*
G37*
%TD.AperFunction*%
%TO.P,U1,23*%
%TO.N,+3V3*%
%TA.AperFunction,SMDPad,CuDef*%
G36*
G01*
X153500000Y-93437500D02*
X153500000Y-93562500D01*
G75*
G02*
X153437500Y-93625000I-62500J0D01*
G01*
X152562500Y-93625000D01*
G75*
G02*
X152500000Y-93562500I0J62500D01*
G01*
X152500000Y-93437500D01*
G75*
G02*
X152562500Y-93375000I62500J0D01*
G01*
X153437500Y-93375000D01*
G75*
G02*
X153500000Y-93437500I0J-62500D01*
G01*
G37*
%TD.AperFunction*%
%TO.P,U1,22*%
%TO.N,Net-(U1-Pad22)*%
%TA.AperFunction,SMDPad,CuDef*%
G36*
G01*
X153500000Y-92937500D02*
X153500000Y-93062500D01*
G75*
G02*
X153437500Y-93125000I-62500J0D01*
G01*
X152562500Y-93125000D01*
G75*
G02*
X152500000Y-93062500I0J62500D01*
G01*
X152500000Y-92937500D01*
G75*
G02*
X152562500Y-92875000I62500J0D01*
G01*
X153437500Y-92875000D01*
G75*
G02*
X153500000Y-92937500I0J-62500D01*
G01*
G37*
%TD.AperFunction*%
%TO.P,U1,21*%
%TO.N,Net-(U1-Pad21)*%
%TA.AperFunction,SMDPad,CuDef*%
G36*
G01*
X153500000Y-92437500D02*
X153500000Y-92562500D01*
G75*
G02*
X153437500Y-92625000I-62500J0D01*
G01*
X152562500Y-92625000D01*
G75*
G02*
X152500000Y-92562500I0J62500D01*
G01*
X152500000Y-92437500D01*
G75*
G02*
X152562500Y-92375000I62500J0D01*
G01*
X153437500Y-92375000D01*
G75*
G02*
X153500000Y-92437500I0J-62500D01*
G01*
G37*
%TD.AperFunction*%
%TO.P,U1,20*%
%TO.N,Net-(U1-Pad20)*%
%TA.AperFunction,SMDPad,CuDef*%
G36*
G01*
X153900000Y-91287500D02*
X153900000Y-92162500D01*
G75*
G02*
X153837500Y-92225000I-62500J0D01*
G01*
X153712500Y-92225000D01*
G75*
G02*
X153650000Y-92162500I0J62500D01*
G01*
X153650000Y-91287500D01*
G75*
G02*
X153712500Y-91225000I62500J0D01*
G01*
X153837500Y-91225000D01*
G75*
G02*
X153900000Y-91287500I0J-62500D01*
G01*
G37*
%TD.AperFunction*%
%TO.P,U1,19*%
%TO.N,Net-(U1-Pad19)*%
%TA.AperFunction,SMDPad,CuDef*%
G36*
G01*
X154400000Y-91287500D02*
X154400000Y-92162500D01*
G75*
G02*
X154337500Y-92225000I-62500J0D01*
G01*
X154212500Y-92225000D01*
G75*
G02*
X154150000Y-92162500I0J62500D01*
G01*
X154150000Y-91287500D01*
G75*
G02*
X154212500Y-91225000I62500J0D01*
G01*
X154337500Y-91225000D01*
G75*
G02*
X154400000Y-91287500I0J-62500D01*
G01*
G37*
%TD.AperFunction*%
%TO.P,U1,18*%
%TO.N,GND*%
%TA.AperFunction,SMDPad,CuDef*%
G36*
G01*
X154900000Y-91287500D02*
X154900000Y-92162500D01*
G75*
G02*
X154837500Y-92225000I-62500J0D01*
G01*
X154712500Y-92225000D01*
G75*
G02*
X154650000Y-92162500I0J62500D01*
G01*
X154650000Y-91287500D01*
G75*
G02*
X154712500Y-91225000I62500J0D01*
G01*
X154837500Y-91225000D01*
G75*
G02*
X154900000Y-91287500I0J-62500D01*
G01*
G37*
%TD.AperFunction*%
%TO.P,U1,17*%
%TO.N,Net-(JP1-Pad2)*%
%TA.AperFunction,SMDPad,CuDef*%
G36*
G01*
X155400000Y-91287500D02*
X155400000Y-92162500D01*
G75*
G02*
X155337500Y-92225000I-62500J0D01*
G01*
X155212500Y-92225000D01*
G75*
G02*
X155150000Y-92162500I0J62500D01*
G01*
X155150000Y-91287500D01*
G75*
G02*
X155212500Y-91225000I62500J0D01*
G01*
X155337500Y-91225000D01*
G75*
G02*
X155400000Y-91287500I0J-62500D01*
G01*
G37*
%TD.AperFunction*%
%TO.P,U1,16*%
%TO.N,GND*%
%TA.AperFunction,SMDPad,CuDef*%
G36*
G01*
X155900000Y-91287500D02*
X155900000Y-92162500D01*
G75*
G02*
X155837500Y-92225000I-62500J0D01*
G01*
X155712500Y-92225000D01*
G75*
G02*
X155650000Y-92162500I0J62500D01*
G01*
X155650000Y-91287500D01*
G75*
G02*
X155712500Y-91225000I62500J0D01*
G01*
X155837500Y-91225000D01*
G75*
G02*
X155900000Y-91287500I0J-62500D01*
G01*
G37*
%TD.AperFunction*%
%TO.P,U1,15*%
%TO.N,Net-(C16-Pad1)*%
%TA.AperFunction,SMDPad,CuDef*%
G36*
G01*
X156400000Y-91287500D02*
X156400000Y-92162500D01*
G75*
G02*
X156337500Y-92225000I-62500J0D01*
G01*
X156212500Y-92225000D01*
G75*
G02*
X156150000Y-92162500I0J62500D01*
G01*
X156150000Y-91287500D01*
G75*
G02*
X156212500Y-91225000I62500J0D01*
G01*
X156337500Y-91225000D01*
G75*
G02*
X156400000Y-91287500I0J-62500D01*
G01*
G37*
%TD.AperFunction*%
%TO.P,U1,14*%
%TO.N,Net-(C15-Pad1)*%
%TA.AperFunction,SMDPad,CuDef*%
G36*
G01*
X156900000Y-91287500D02*
X156900000Y-92162500D01*
G75*
G02*
X156837500Y-92225000I-62500J0D01*
G01*
X156712500Y-92225000D01*
G75*
G02*
X156650000Y-92162500I0J62500D01*
G01*
X156650000Y-91287500D01*
G75*
G02*
X156712500Y-91225000I62500J0D01*
G01*
X156837500Y-91225000D01*
G75*
G02*
X156900000Y-91287500I0J-62500D01*
G01*
G37*
%TD.AperFunction*%
%TO.P,U1,13*%
%TO.N,Net-(U1-Pad13)*%
%TA.AperFunction,SMDPad,CuDef*%
G36*
G01*
X157400000Y-91287500D02*
X157400000Y-92162500D01*
G75*
G02*
X157337500Y-92225000I-62500J0D01*
G01*
X157212500Y-92225000D01*
G75*
G02*
X157150000Y-92162500I0J62500D01*
G01*
X157150000Y-91287500D01*
G75*
G02*
X157212500Y-91225000I62500J0D01*
G01*
X157337500Y-91225000D01*
G75*
G02*
X157400000Y-91287500I0J-62500D01*
G01*
G37*
%TD.AperFunction*%
%TO.P,U1,12*%
%TO.N,Net-(U1-Pad12)*%
%TA.AperFunction,SMDPad,CuDef*%
G36*
G01*
X157900000Y-91287500D02*
X157900000Y-92162500D01*
G75*
G02*
X157837500Y-92225000I-62500J0D01*
G01*
X157712500Y-92225000D01*
G75*
G02*
X157650000Y-92162500I0J62500D01*
G01*
X157650000Y-91287500D01*
G75*
G02*
X157712500Y-91225000I62500J0D01*
G01*
X157837500Y-91225000D01*
G75*
G02*
X157900000Y-91287500I0J-62500D01*
G01*
G37*
%TD.AperFunction*%
%TO.P,U1,11*%
%TO.N,GND*%
%TA.AperFunction,SMDPad,CuDef*%
G36*
G01*
X158400000Y-91287500D02*
X158400000Y-92162500D01*
G75*
G02*
X158337500Y-92225000I-62500J0D01*
G01*
X158212500Y-92225000D01*
G75*
G02*
X158150000Y-92162500I0J62500D01*
G01*
X158150000Y-91287500D01*
G75*
G02*
X158212500Y-91225000I62500J0D01*
G01*
X158337500Y-91225000D01*
G75*
G02*
X158400000Y-91287500I0J-62500D01*
G01*
G37*
%TD.AperFunction*%
%TO.P,U1,10*%
%TO.N,Net-(C8-Pad1)*%
%TA.AperFunction,SMDPad,CuDef*%
G36*
G01*
X159550000Y-92437500D02*
X159550000Y-92562500D01*
G75*
G02*
X159487500Y-92625000I-62500J0D01*
G01*
X158612500Y-92625000D01*
G75*
G02*
X158550000Y-92562500I0J62500D01*
G01*
X158550000Y-92437500D01*
G75*
G02*
X158612500Y-92375000I62500J0D01*
G01*
X159487500Y-92375000D01*
G75*
G02*
X159550000Y-92437500I0J-62500D01*
G01*
G37*
%TD.AperFunction*%
%TO.P,U1,9*%
%TO.N,Net-(C10-Pad1)*%
%TA.AperFunction,SMDPad,CuDef*%
G36*
G01*
X159550000Y-92937500D02*
X159550000Y-93062500D01*
G75*
G02*
X159487500Y-93125000I-62500J0D01*
G01*
X158612500Y-93125000D01*
G75*
G02*
X158550000Y-93062500I0J62500D01*
G01*
X158550000Y-92937500D01*
G75*
G02*
X158612500Y-92875000I62500J0D01*
G01*
X159487500Y-92875000D01*
G75*
G02*
X159550000Y-92937500I0J-62500D01*
G01*
G37*
%TD.AperFunction*%
%TO.P,U1,8*%
%TO.N,+3V3*%
%TA.AperFunction,SMDPad,CuDef*%
G36*
G01*
X159550000Y-93437500D02*
X159550000Y-93562500D01*
G75*
G02*
X159487500Y-93625000I-62500J0D01*
G01*
X158612500Y-93625000D01*
G75*
G02*
X158550000Y-93562500I0J62500D01*
G01*
X158550000Y-93437500D01*
G75*
G02*
X158612500Y-93375000I62500J0D01*
G01*
X159487500Y-93375000D01*
G75*
G02*
X159550000Y-93437500I0J-62500D01*
G01*
G37*
%TD.AperFunction*%
%TO.P,U1,7*%
%TO.N,GND*%
%TA.AperFunction,SMDPad,CuDef*%
G36*
G01*
X159550000Y-93937500D02*
X159550000Y-94062500D01*
G75*
G02*
X159487500Y-94125000I-62500J0D01*
G01*
X158612500Y-94125000D01*
G75*
G02*
X158550000Y-94062500I0J62500D01*
G01*
X158550000Y-93937500D01*
G75*
G02*
X158612500Y-93875000I62500J0D01*
G01*
X159487500Y-93875000D01*
G75*
G02*
X159550000Y-93937500I0J-62500D01*
G01*
G37*
%TD.AperFunction*%
%TO.P,U1,6*%
%TO.N,Net-(L2-Pad2)*%
%TA.AperFunction,SMDPad,CuDef*%
G36*
G01*
X159550000Y-94437500D02*
X159550000Y-94562500D01*
G75*
G02*
X159487500Y-94625000I-62500J0D01*
G01*
X158612500Y-94625000D01*
G75*
G02*
X158550000Y-94562500I0J62500D01*
G01*
X158550000Y-94437500D01*
G75*
G02*
X158612500Y-94375000I62500J0D01*
G01*
X159487500Y-94375000D01*
G75*
G02*
X159550000Y-94437500I0J-62500D01*
G01*
G37*
%TD.AperFunction*%
%TO.P,U1,5*%
%TO.N,+3V3*%
%TA.AperFunction,SMDPad,CuDef*%
G36*
G01*
X159550000Y-94937500D02*
X159550000Y-95062500D01*
G75*
G02*
X159487500Y-95125000I-62500J0D01*
G01*
X158612500Y-95125000D01*
G75*
G02*
X158550000Y-95062500I0J62500D01*
G01*
X158550000Y-94937500D01*
G75*
G02*
X158612500Y-94875000I62500J0D01*
G01*
X159487500Y-94875000D01*
G75*
G02*
X159550000Y-94937500I0J-62500D01*
G01*
G37*
%TD.AperFunction*%
%TO.P,U1,4*%
%TO.N,Net-(L1-Pad1)*%
%TA.AperFunction,SMDPad,CuDef*%
G36*
G01*
X159550000Y-95437500D02*
X159550000Y-95562500D01*
G75*
G02*
X159487500Y-95625000I-62500J0D01*
G01*
X158612500Y-95625000D01*
G75*
G02*
X158550000Y-95562500I0J62500D01*
G01*
X158550000Y-95437500D01*
G75*
G02*
X158612500Y-95375000I62500J0D01*
G01*
X159487500Y-95375000D01*
G75*
G02*
X159550000Y-95437500I0J-62500D01*
G01*
G37*
%TD.AperFunction*%
%TO.P,U1,3*%
%TO.N,GND*%
%TA.AperFunction,SMDPad,CuDef*%
G36*
G01*
X159550000Y-95937500D02*
X159550000Y-96062500D01*
G75*
G02*
X159487500Y-96125000I-62500J0D01*
G01*
X158612500Y-96125000D01*
G75*
G02*
X158550000Y-96062500I0J62500D01*
G01*
X158550000Y-95937500D01*
G75*
G02*
X158612500Y-95875000I62500J0D01*
G01*
X159487500Y-95875000D01*
G75*
G02*
X159550000Y-95937500I0J-62500D01*
G01*
G37*
%TD.AperFunction*%
%TO.P,U1,2*%
%TO.N,Net-(U1-Pad2)*%
%TA.AperFunction,SMDPad,CuDef*%
G36*
G01*
X159550000Y-96437500D02*
X159550000Y-96562500D01*
G75*
G02*
X159487500Y-96625000I-62500J0D01*
G01*
X158612500Y-96625000D01*
G75*
G02*
X158550000Y-96562500I0J62500D01*
G01*
X158550000Y-96437500D01*
G75*
G02*
X158612500Y-96375000I62500J0D01*
G01*
X159487500Y-96375000D01*
G75*
G02*
X159550000Y-96437500I0J-62500D01*
G01*
G37*
%TD.AperFunction*%
%TO.P,U1,1*%
%TO.N,GND*%
%TA.AperFunction,SMDPad,CuDef*%
G36*
G01*
X159550000Y-96937500D02*
X159550000Y-97062500D01*
G75*
G02*
X159487500Y-97125000I-62500J0D01*
G01*
X158612500Y-97125000D01*
G75*
G02*
X158550000Y-97062500I0J62500D01*
G01*
X158550000Y-96937500D01*
G75*
G02*
X158612500Y-96875000I62500J0D01*
G01*
X159487500Y-96875000D01*
G75*
G02*
X159550000Y-96937500I0J-62500D01*
G01*
G37*
%TD.AperFunction*%
%TD*%
D21*
%TO.P,D1,2*%
%TO.N,Net-(D1-Pad2)*%
X138000000Y-96270000D03*
D22*
%TO.P,D1,1*%
%TO.N,GND*%
X138000000Y-93730000D03*
%TD*%
D23*
%TO.P,J1,2*%
%TO.N,Net-(J1-Pad2)*%
X143000000Y-81730000D03*
D24*
%TO.P,J1,1*%
%TO.N,GND*%
X143000000Y-84270000D03*
%TD*%
D23*
%TO.P,J2,4*%
%TO.N,Net-(J2-Pad4)*%
X153810000Y-107000000D03*
%TO.P,J2,3*%
%TO.N,Net-(J2-Pad3)*%
X151270000Y-107000000D03*
%TO.P,J2,2*%
%TO.N,+5V*%
X148730000Y-107000000D03*
D24*
%TO.P,J2,1*%
%TO.N,GND*%
X146190000Y-107000000D03*
%TD*%
D21*
%TO.P,D3,2*%
%TO.N,Net-(D3-Pad2)*%
X138000000Y-108270000D03*
D22*
%TO.P,D3,1*%
%TO.N,GND*%
X138000000Y-105730000D03*
%TD*%
D25*
%TO.P,J4,4*%
%TO.N,Net-(J2-Pad4)*%
X151000000Y-96000000D03*
%TO.P,J4,3*%
%TO.N,Net-(J2-Pad3)*%
X149000000Y-96000000D03*
%TO.P,J4,2*%
%TO.N,+5V*%
X151000000Y-94000000D03*
D26*
%TO.P,J4,1*%
%TO.N,GND*%
X149000000Y-94000000D03*
%TD*%
D21*
%TO.P,D2,2*%
%TO.N,Net-(D2-Pad2)*%
X138000000Y-102270000D03*
D22*
%TO.P,D2,1*%
%TO.N,GND*%
X138000000Y-99730000D03*
%TD*%
D27*
%TO.P,Y1,1*%
%TO.N,Net-(C15-Pad1)*%
X157150000Y-87600000D03*
%TO.P,Y1,4*%
%TO.N,GND*%
X157150000Y-89200000D03*
%TO.P,Y1,3*%
%TO.N,Net-(C16-Pad1)*%
X154450000Y-89200000D03*
%TO.P,Y1,2*%
%TO.N,GND*%
X154450000Y-87600000D03*
%TD*%
D28*
%TO.P,H2,1*%
%TO.N,N/C*%
X138000000Y-83000000D03*
%TD*%
%TO.P,H1,1*%
%TO.N,N/C*%
X162000000Y-107000000D03*
%TD*%
D29*
%TO.N,GND*%
X155200000Y-101300000D03*
X166100000Y-95000000D03*
X162400000Y-95000000D03*
X152200000Y-87600000D03*
X158000000Y-90400000D03*
X160300000Y-89600000D03*
X151700000Y-88400000D03*
%TO.N,+3V3*%
X151700000Y-92500000D03*
X150000000Y-100300000D03*
%TO.N,+5V*%
X159200000Y-98700000D03*
%TO.N,Net-(JP1-Pad2)*%
X152200000Y-89500000D03*
%TD*%
D30*
%TO.N,GND*%
X157275000Y-95975000D02*
X156025000Y-94725000D01*
X156775000Y-93975000D02*
X156025000Y-94725000D01*
X155275000Y-93975000D02*
X156025000Y-94725000D01*
X154775000Y-93475000D02*
X156025000Y-94725000D01*
X162700000Y-89437500D02*
X162700000Y-89800000D01*
D31*
X146250000Y-106940000D02*
X146190000Y-107000000D01*
X146250000Y-103900000D02*
X146250000Y-106940000D01*
D30*
X162700000Y-89637500D02*
X161200000Y-89637500D01*
D31*
X156200000Y-101262500D02*
X157700000Y-101262500D01*
X157700000Y-101262500D02*
X159200000Y-101262500D01*
X161300000Y-100562500D02*
X162800000Y-100562500D01*
X162800000Y-100562500D02*
X164300000Y-100562500D01*
X162562500Y-89300000D02*
X162700000Y-89437500D01*
X161200000Y-89500000D02*
X162562500Y-89500000D01*
X162700000Y-89437500D02*
X164200000Y-89437500D01*
X160600000Y-101262500D02*
X161300000Y-100562500D01*
X159200000Y-101262500D02*
X160600000Y-101262500D01*
X166700000Y-95000000D02*
X169000000Y-95000000D01*
D30*
X158224990Y-92550010D02*
X156025000Y-94750000D01*
X158275000Y-92226978D02*
X158224990Y-92276988D01*
X158224990Y-92276988D02*
X158224990Y-92550010D01*
X158275000Y-91725000D02*
X158275000Y-92226978D01*
X154775000Y-93500000D02*
X156025000Y-94750000D01*
X154775000Y-91725000D02*
X154775000Y-93500000D01*
X155275000Y-94000000D02*
X156025000Y-94750000D01*
X155775000Y-94500000D02*
X156025000Y-94750000D01*
X155775000Y-91725000D02*
X155775000Y-94500000D01*
X156775000Y-94000000D02*
X156025000Y-94750000D01*
X159050000Y-94000000D02*
X156775000Y-94000000D01*
X157275000Y-96000000D02*
X156025000Y-94750000D01*
X159050000Y-96000000D02*
X157275000Y-96000000D01*
X158224990Y-96949990D02*
X156025000Y-94750000D01*
X158548022Y-97000000D02*
X158498012Y-96949990D01*
X158498012Y-96949990D02*
X158224990Y-96949990D01*
X159050000Y-97000000D02*
X158548022Y-97000000D01*
X157150000Y-89200000D02*
X158200000Y-89200000D01*
X153362500Y-87600000D02*
X153331250Y-87568750D01*
X154450000Y-87600000D02*
X153362500Y-87600000D01*
X158200000Y-89200000D02*
X158237500Y-89200000D01*
D31*
X155237500Y-101262500D02*
X155200000Y-101300000D01*
X156200000Y-101262500D02*
X155237500Y-101262500D01*
X166662500Y-95000000D02*
X166100000Y-95000000D01*
X162750000Y-95000000D02*
X162975000Y-95000000D01*
X162875000Y-95000000D02*
X162400000Y-95000000D01*
D30*
X143775000Y-97500000D02*
X142800000Y-98475000D01*
X146250000Y-102692478D02*
X146250000Y-103900000D01*
X142800000Y-99242478D02*
X146250000Y-102692478D01*
X142800000Y-98475000D02*
X142800000Y-99242478D01*
X152225000Y-87625000D02*
X152200000Y-87600000D01*
X153300000Y-87625000D02*
X152225000Y-87625000D01*
X158300000Y-90100000D02*
X158000000Y-90400000D01*
X158300000Y-89175000D02*
X158300000Y-90100000D01*
D31*
X161200000Y-89437500D02*
X160462500Y-89437500D01*
X160462500Y-89437500D02*
X160300000Y-89600000D01*
D30*
X151000000Y-89100000D02*
X151700000Y-88400000D01*
X151000000Y-89225000D02*
X151000000Y-89100000D01*
D31*
%TO.N,Net-(A1-Pad1)*%
X167000000Y-96925000D02*
X167025000Y-96900000D01*
X167000000Y-98000000D02*
X167000000Y-96925000D01*
%TO.N,Net-(A1-Pad3)*%
X167000000Y-93075000D02*
X167025000Y-93100000D01*
X167000000Y-92000000D02*
X167000000Y-93075000D01*
D30*
%TO.N,Net-(C3-Pad1)*%
X163600000Y-99700000D02*
X164937500Y-99700000D01*
X164937500Y-99700000D02*
X165800000Y-100562500D01*
X162800000Y-98900000D02*
X163600000Y-99700000D01*
D31*
X164150000Y-97575000D02*
X162800000Y-98925000D01*
X164150000Y-96850000D02*
X164150000Y-97575000D01*
D30*
%TO.N,Net-(C4-Pad2)*%
X163025000Y-90300000D02*
X164837500Y-90300000D01*
X162700000Y-90625000D02*
X163025000Y-90300000D01*
X164837500Y-90300000D02*
X165700000Y-89437500D01*
X162700000Y-91162500D02*
X162700000Y-90625000D01*
D31*
X165700000Y-88287500D02*
X165212500Y-87800000D01*
X165700000Y-89537500D02*
X165700000Y-88387500D01*
X162778196Y-91075000D02*
X162700000Y-91075000D01*
X163325010Y-91621814D02*
X162778196Y-91075000D01*
X163325010Y-91629620D02*
X163325010Y-91621814D01*
X164150000Y-92454610D02*
X163325010Y-91629620D01*
X164150000Y-93150000D02*
X164150000Y-92454610D01*
D30*
%TO.N,+3V3*%
X157700000Y-99537500D02*
X156200000Y-99537500D01*
X161300000Y-98837500D02*
X161162500Y-98837500D01*
X157700000Y-99537500D02*
X157737500Y-99537500D01*
X161300000Y-98837500D02*
X161300000Y-99100000D01*
X161300000Y-98837500D02*
X161300000Y-98900000D01*
X161300000Y-98900000D02*
X159800000Y-100400000D01*
X158562500Y-100400000D02*
X157700000Y-99537500D01*
X159800000Y-100400000D02*
X158562500Y-100400000D01*
X159050000Y-95000000D02*
X161575000Y-95000000D01*
X157775000Y-99462500D02*
X157700000Y-99537500D01*
X157775000Y-97775000D02*
X157775000Y-99462500D01*
X164207570Y-95000000D02*
X165025000Y-95000000D01*
X148000000Y-90825000D02*
X149500000Y-90825000D01*
X150950000Y-90825000D02*
X151000000Y-90775000D01*
X149500000Y-90825000D02*
X150950000Y-90825000D01*
X151700000Y-93065685D02*
X152134315Y-93500000D01*
X152134315Y-93500000D02*
X153000000Y-93500000D01*
X151700000Y-92500000D02*
X151700000Y-93065685D01*
X151000000Y-90775000D02*
X151175000Y-90775000D01*
X151700000Y-91300000D02*
X151700000Y-92500000D01*
X151175000Y-90775000D02*
X151700000Y-91300000D01*
X150000000Y-100300000D02*
X150000000Y-100300000D01*
X156022166Y-100100000D02*
X155822166Y-100300000D01*
X156200000Y-99625000D02*
X156200000Y-100100000D01*
X155822166Y-100300000D02*
X150000000Y-100300000D01*
X156200000Y-100100000D02*
X156022166Y-100100000D01*
X163407560Y-95800010D02*
X163503785Y-95703785D01*
X163503785Y-95703785D02*
X164207570Y-95000000D01*
X161325000Y-95000000D02*
X162112500Y-95787500D01*
X162112500Y-95787500D02*
X162125010Y-95800010D01*
X163407560Y-94199990D02*
X163603785Y-94396215D01*
X162062500Y-94262500D02*
X162125010Y-94199990D01*
X161325000Y-95000000D02*
X162062500Y-94262500D01*
X163603785Y-94396215D02*
X164207570Y-95000000D01*
X162800010Y-94199990D02*
X163407560Y-94199990D01*
X162125010Y-94199990D02*
X162800010Y-94199990D01*
X162750010Y-95800010D02*
X163407560Y-95800010D01*
X162125010Y-95800010D02*
X162750010Y-95800010D01*
X161511812Y-98925000D02*
X161300000Y-98925000D01*
X162336812Y-98100000D02*
X161511812Y-98925000D01*
X162750000Y-95800020D02*
X162750000Y-98100000D01*
X162750000Y-98100000D02*
X162336812Y-98100000D01*
X162750010Y-95800010D02*
X162750000Y-95800020D01*
X162750000Y-92249990D02*
X162750000Y-94199990D01*
X159050000Y-93500000D02*
X159734433Y-93500000D01*
X160514990Y-92719443D02*
X160514990Y-91985010D01*
X162750000Y-91869990D02*
X162750000Y-92249990D01*
X159734433Y-93500000D02*
X160514990Y-92719443D01*
X160640010Y-91859990D02*
X162750000Y-91859990D01*
X160514990Y-91985010D02*
X160640010Y-91859990D01*
%TO.N,Net-(C8-Pad2)*%
X163087500Y-87500000D02*
X163387500Y-87800000D01*
D31*
X163387500Y-87800000D02*
X161862500Y-87800000D01*
D30*
%TO.N,Net-(C8-Pad1)*%
X160137500Y-86550000D02*
X160087500Y-86500000D01*
X160137500Y-88100000D02*
X160137500Y-86550000D01*
X159124987Y-90611397D02*
X159124987Y-89065598D01*
X159574968Y-92219034D02*
X159574968Y-92039020D01*
X159050000Y-92500000D02*
X159294002Y-92500000D01*
X159990585Y-88200000D02*
X160137500Y-88200000D01*
X159574968Y-92039020D02*
X159580001Y-92033987D01*
X159580001Y-91066411D02*
X159124987Y-90611397D01*
X159580001Y-92033987D02*
X159580001Y-91066411D01*
X159294002Y-92500000D02*
X159574968Y-92219034D01*
X159124987Y-89065598D02*
X159990585Y-88200000D01*
%TO.N,+5V*%
X158875000Y-99212500D02*
X159200000Y-99537500D01*
D31*
X148750000Y-106980000D02*
X148730000Y-107000000D01*
X148750000Y-103900000D02*
X148750000Y-106980000D01*
D30*
X158275000Y-98612500D02*
X159200000Y-99537500D01*
X143687500Y-99000000D02*
X143687500Y-99137500D01*
X158275000Y-97775000D02*
X158275000Y-98612500D01*
D31*
X159200000Y-99537500D02*
X159200000Y-98700000D01*
D30*
X143687500Y-99000000D02*
X143850000Y-99000000D01*
X143775000Y-99000000D02*
X143775000Y-99475000D01*
X146949990Y-102649990D02*
X148350010Y-102649990D01*
X143775000Y-99475000D02*
X146949990Y-102649990D01*
X148750000Y-103049980D02*
X148750000Y-103900000D01*
X148350010Y-102649990D02*
X148750000Y-103049980D01*
%TO.N,Net-(C15-Pad1)*%
X158237500Y-87600000D02*
X158300000Y-87537500D01*
X157150000Y-87600000D02*
X158237500Y-87600000D01*
X155950000Y-87600000D02*
X155800000Y-87750000D01*
X157150000Y-87600000D02*
X155950000Y-87600000D01*
X156775000Y-90935002D02*
X156775000Y-91725000D01*
X155800000Y-89960002D02*
X156775000Y-90935002D01*
X155800000Y-87750000D02*
X155800000Y-89960002D01*
%TO.N,Net-(C16-Pad1)*%
X153362500Y-89200000D02*
X153300000Y-89262500D01*
X154450000Y-89200000D02*
X153362500Y-89200000D01*
X156275000Y-91071413D02*
X155325002Y-90121415D01*
X155325002Y-90121415D02*
X155325002Y-90075002D01*
X156275000Y-91725000D02*
X156275000Y-91071413D01*
X155325002Y-90075002D02*
X154450000Y-89200000D01*
%TO.N,Net-(L2-Pad2)*%
X161073022Y-93100000D02*
X161375000Y-93100000D01*
X161300000Y-93100000D02*
X160300000Y-94100000D01*
X161375000Y-93100000D02*
X161300000Y-93100000D01*
X159900000Y-94500000D02*
X159050000Y-94500000D01*
X160300000Y-94100000D02*
X159900000Y-94500000D01*
%TO.N,Net-(L1-Pad1)*%
X161123022Y-96900000D02*
X161375000Y-96900000D01*
X159900000Y-95500000D02*
X159050000Y-95500000D01*
X160300000Y-95900000D02*
X159900000Y-95500000D01*
X161300000Y-96900000D02*
X160300000Y-95900000D01*
X161375000Y-96900000D02*
X161300000Y-96900000D01*
%TO.N,Net-(D1-Pad2)*%
X143687500Y-93000000D02*
X143540000Y-93000000D01*
X143540000Y-93000000D02*
X140270000Y-96270000D01*
X138000000Y-96270000D02*
X140270000Y-96270000D01*
%TO.N,Net-(D2-Pad2)*%
X141724987Y-96762513D02*
X141724987Y-98545013D01*
X141724987Y-98545013D02*
X138000000Y-102270000D01*
X141724987Y-96462513D02*
X141724987Y-96762513D01*
X143687500Y-94500000D02*
X141724987Y-96462513D01*
%TO.N,Net-(D3-Pad2)*%
X143687500Y-96000000D02*
X143200000Y-96000000D01*
X142174998Y-97025002D02*
X142174998Y-104095002D01*
X143200000Y-96000000D02*
X142174998Y-97025002D01*
X142174998Y-104095002D02*
X138000000Y-108270000D01*
%TO.N,Net-(R5-Pad1)*%
X145512500Y-97500000D02*
X145512500Y-99000000D01*
X145512500Y-97500000D02*
X145512500Y-97975000D01*
X145562511Y-99050011D02*
X145512500Y-99000000D01*
X156923032Y-98674990D02*
X155711420Y-98674990D01*
X157275000Y-97775000D02*
X157275000Y-98323022D01*
X150989722Y-99300044D02*
X145812544Y-99300044D01*
X157275000Y-98323022D02*
X156923032Y-98674990D01*
X154611411Y-99774999D02*
X151464677Y-99774999D01*
X155711420Y-98674990D02*
X154611411Y-99774999D01*
X145812544Y-99300044D02*
X145512500Y-99000000D01*
X151464677Y-99774999D02*
X150989722Y-99300044D01*
%TO.N,Net-(R7-Pad1)*%
X147249989Y-97086400D02*
X148113600Y-97950011D01*
X146206228Y-93693728D02*
X146206228Y-94479049D01*
X151613601Y-97950011D02*
X152088556Y-98424966D01*
X153625034Y-98424966D02*
X153775000Y-98275000D01*
X152088556Y-98424966D02*
X153625034Y-98424966D01*
X145512500Y-93000000D02*
X146206228Y-93693728D01*
X146206228Y-94479049D02*
X147249989Y-95522810D01*
X148113600Y-97950011D02*
X151613601Y-97950011D01*
X147249989Y-95522810D02*
X147249989Y-97086400D01*
X153775000Y-98275000D02*
X153775000Y-97775000D01*
%TO.N,Net-(C10-Pad1)*%
X161200000Y-91162500D02*
X160987898Y-91162500D01*
X161000000Y-88286812D02*
X160424323Y-88862489D01*
X160424323Y-88862489D02*
X159964507Y-88862489D01*
X159574998Y-89251998D02*
X159574998Y-89948002D01*
X161912500Y-86400000D02*
X161000000Y-87312500D01*
X159964507Y-88862489D02*
X159574998Y-89251998D01*
X161000000Y-87312500D02*
X161000000Y-88286812D01*
X160225000Y-91075000D02*
X161200000Y-91075000D01*
X159988498Y-90838498D02*
X159988498Y-90361502D01*
X160225000Y-91075000D02*
X159988498Y-90838498D01*
X159574998Y-89948002D02*
X159988498Y-90361502D01*
X160064979Y-92533043D02*
X159598022Y-93000000D01*
X159598022Y-93000000D02*
X159050000Y-93000000D01*
X160064979Y-91235021D02*
X160064979Y-92533043D01*
X160225000Y-91075000D02*
X160064979Y-91235021D01*
D31*
%TO.N,Net-(C1-Pad1)*%
X165037500Y-98837500D02*
X165800000Y-98837500D01*
X164300000Y-98837500D02*
X165037500Y-98837500D01*
X165800000Y-97325000D02*
X165375000Y-96900000D01*
X165800000Y-98925000D02*
X165800000Y-97325000D01*
%TO.N,Net-(C2-Pad2)*%
X164937500Y-91162500D02*
X165700000Y-91162500D01*
X164200000Y-91162500D02*
X164937500Y-91162500D01*
X165700000Y-92775000D02*
X165375000Y-93100000D01*
X165700000Y-91075000D02*
X165700000Y-92775000D01*
D30*
%TO.N,Net-(R8-Pad1)*%
X145512500Y-94500000D02*
X146799978Y-95787479D01*
X154125023Y-98874977D02*
X154275000Y-98725000D01*
X151362522Y-98400022D02*
X151837477Y-98874977D01*
X151837477Y-98874977D02*
X154125023Y-98874977D01*
X154275000Y-98725000D02*
X154275000Y-97775000D01*
X146799978Y-97536389D02*
X147663611Y-98400022D01*
X147663611Y-98400022D02*
X151362522Y-98400022D01*
X146799978Y-95787479D02*
X146799978Y-97536389D01*
%TO.N,Net-(R9-Pad1)*%
X146349967Y-97986378D02*
X147213622Y-98850033D01*
X151176122Y-98850033D02*
X151651077Y-99324988D01*
X154775000Y-98861411D02*
X154775000Y-97775000D01*
X145512500Y-96000000D02*
X146349967Y-96837467D01*
X146349967Y-96837467D02*
X146349967Y-97986378D01*
X147213622Y-98850033D02*
X151176122Y-98850033D01*
X151651077Y-99324988D02*
X154311423Y-99324988D01*
X154311423Y-99324988D02*
X154775000Y-98861411D01*
%TO.N,Net-(J1-Pad2)*%
X144385000Y-85620002D02*
X145500000Y-86735002D01*
X144385000Y-83115000D02*
X144385000Y-85620002D01*
X143000000Y-81730000D02*
X144385000Y-83115000D01*
X145575000Y-89175000D02*
X145500000Y-89100000D01*
X148000000Y-89175000D02*
X145575000Y-89175000D01*
X145500000Y-86735002D02*
X145500000Y-89100000D01*
X145500000Y-91857522D02*
X146656239Y-93013761D01*
X147700000Y-96800000D02*
X148325012Y-97425012D01*
X146656239Y-94292649D02*
X147700000Y-95336410D01*
X147700000Y-95336410D02*
X147700000Y-96800000D01*
X152500000Y-97000000D02*
X153000000Y-97000000D01*
X148325012Y-97425012D02*
X152074988Y-97425012D01*
X145500000Y-89100000D02*
X145500000Y-91857522D01*
X146656239Y-93013761D02*
X146656239Y-94292649D01*
X152074988Y-97425012D02*
X152500000Y-97000000D01*
%TO.N,Net-(J2-Pad3)*%
X151250000Y-106980000D02*
X151270000Y-107000000D01*
X151250000Y-103900000D02*
X151250000Y-106980000D01*
X153000000Y-96000000D02*
X152443002Y-96000000D01*
X151468001Y-96975001D02*
X150531999Y-96975001D01*
X152443002Y-96000000D02*
X151468001Y-96975001D01*
X150531999Y-96975001D02*
X149556998Y-96000000D01*
X149556998Y-96000000D02*
X149000000Y-96000000D01*
%TO.N,Net-(R10-Pad2)*%
X150000000Y-80750000D02*
X146750000Y-80750000D01*
X149500000Y-89087500D02*
X149500000Y-89200000D01*
X153250000Y-80750000D02*
X150000000Y-80750000D01*
X150000000Y-87750000D02*
X149500000Y-88250000D01*
X150000000Y-80750000D02*
X150000000Y-87750000D01*
X149500000Y-89087500D02*
X149500000Y-88250000D01*
X151468001Y-94975001D02*
X148024999Y-94975001D01*
X153000000Y-94000000D02*
X152443002Y-94000000D01*
X148024999Y-94975001D02*
X147106250Y-94056252D01*
X148593750Y-89993750D02*
X149500000Y-89087500D01*
X152443002Y-94000000D02*
X151468001Y-94975001D01*
X147493750Y-90006250D02*
X147106250Y-90393750D01*
X147106250Y-94056252D02*
X147106250Y-90393750D01*
X147493750Y-89993750D02*
X147493750Y-90006250D01*
X147493750Y-89993750D02*
X148593750Y-89993750D01*
%TO.N,Net-(J2-Pad4)*%
X153750000Y-106940000D02*
X153810000Y-107000000D01*
X153750000Y-103900000D02*
X153750000Y-106940000D01*
X151500000Y-95500000D02*
X151000000Y-96000000D01*
X153000000Y-95500000D02*
X151500000Y-95500000D01*
%TO.N,Net-(JP1-Pad2)*%
X155275000Y-91176978D02*
X154850312Y-90752290D01*
X155275000Y-91725000D02*
X155275000Y-91176978D01*
X152200000Y-89500000D02*
X153447710Y-90747710D01*
X153447710Y-90747710D02*
X153447710Y-90752290D01*
X154850312Y-90752290D02*
X153447710Y-90752290D01*
%TD*%
M02*
