%TF.GenerationSoftware,KiCad,Pcbnew,(6.0.5-0)*%
%TF.CreationDate,2022-08-22T12:52:21+01:00*%
%TF.ProjectId,PN532-Round,504e3533-322d-4526-9f75-6e642e6b6963,7*%
%TF.SameCoordinates,Original*%
%TF.FileFunction,Soldermask,Top*%
%TF.FilePolarity,Negative*%
%FSLAX46Y46*%
G04 Gerber Fmt 4.6, Leading zero omitted, Abs format (unit mm)*
G04 Created by KiCad (PCBNEW (6.0.5-0)) date 2022-08-22 12:52:21*
%MOMM*%
%LPD*%
G01*
G04 APERTURE LIST*
G04 Aperture macros list*
%AMRoundRect*
0 Rectangle with rounded corners*
0 $1 Rounding radius*
0 $2 $3 $4 $5 $6 $7 $8 $9 X,Y pos of 4 corners*
0 Add a 4 corners polygon primitive as box body*
4,1,4,$2,$3,$4,$5,$6,$7,$8,$9,$2,$3,0*
0 Add four circle primitives for the rounded corners*
1,1,$1+$1,$2,$3*
1,1,$1+$1,$4,$5*
1,1,$1+$1,$6,$7*
1,1,$1+$1,$8,$9*
0 Add four rect primitives between the rounded corners*
20,1,$1+$1,$2,$3,$4,$5,0*
20,1,$1+$1,$4,$5,$6,$7,0*
20,1,$1+$1,$6,$7,$8,$9,0*
20,1,$1+$1,$8,$9,$2,$3,0*%
%AMFreePoly0*
4,1,14,0.447071,0.532071,0.657071,0.322071,0.660000,0.315000,0.660000,-0.525000,0.657071,-0.532071,0.650000,-0.535000,-0.650000,-0.535000,-0.657071,-0.532071,-0.660000,-0.525000,-0.660000,0.525000,-0.657071,0.532071,-0.650000,0.535000,0.440000,0.535000,0.447071,0.532071,0.447071,0.532071,$1*%
%AMFreePoly1*
4,1,14,0.657071,0.532071,0.660000,0.525000,0.660000,-0.525000,0.657071,-0.532071,0.650000,-0.535000,-0.650000,-0.535000,-0.657071,-0.532071,-0.660000,-0.525000,-0.660000,0.315000,-0.657071,0.322071,-0.447071,0.532071,-0.440000,0.535000,0.650000,0.535000,0.657071,0.532071,0.657071,0.532071,$1*%
%AMFreePoly2*
4,1,14,0.657071,0.532071,0.660000,0.525000,0.660000,-0.525000,0.657071,-0.532071,0.650000,-0.535000,-0.440000,-0.535000,-0.447071,-0.532071,-0.657071,-0.322071,-0.660000,-0.315000,-0.660000,0.525000,-0.657071,0.532071,-0.650000,0.535000,0.650000,0.535000,0.657071,0.532071,0.657071,0.532071,$1*%
%AMFreePoly3*
4,1,14,0.657071,0.532071,0.660000,0.525000,0.660000,-0.315000,0.657071,-0.322071,0.447071,-0.532071,0.440000,-0.535000,-0.650000,-0.535000,-0.657071,-0.532071,-0.660000,-0.525000,-0.660000,0.525000,-0.657071,0.532071,-0.650000,0.535000,0.650000,0.535000,0.657071,0.532071,0.657071,0.532071,$1*%
%AMFreePoly4*
4,1,59,0.401951,0.809808,0.497622,0.790778,0.501227,0.789285,0.582333,0.735092,0.585092,0.732333,0.639285,0.651227,0.640778,0.647622,0.659808,0.551951,0.659808,0.548049,0.640778,0.452378,0.639285,0.448773,0.585092,0.367667,0.582333,0.364908,0.501227,0.310715,0.497622,0.309222,0.401951,0.290192,0.400000,0.290000,0.260000,0.290000,0.260000,-0.290000,0.400000,-0.290000,
0.401951,-0.290192,0.497622,-0.309222,0.501227,-0.310715,0.582333,-0.364908,0.585092,-0.367667,0.639285,-0.448773,0.640778,-0.452378,0.659808,-0.548049,0.659808,-0.551951,0.640778,-0.647622,0.639285,-0.651227,0.585092,-0.732333,0.582333,-0.735092,0.501227,-0.789285,0.497622,-0.790778,0.401951,-0.809808,0.400000,-0.810000,0.000000,-0.810000,-0.001951,-0.809808,-0.097622,-0.790778,
-0.101227,-0.789285,-0.182333,-0.735092,-0.185092,-0.732333,-0.239285,-0.651227,-0.240778,-0.647622,-0.259808,-0.551951,-0.260000,-0.550000,-0.260000,0.550000,-0.259808,0.551951,-0.240778,0.647622,-0.239285,0.651227,-0.185092,0.732333,-0.182333,0.735092,-0.101227,0.789285,-0.097622,0.790778,-0.001951,0.809808,0.000000,0.810000,0.400000,0.810000,0.401951,0.809808,0.401951,0.809808,
$1*%
%AMFreePoly5*
4,1,14,2.207071,2.207071,2.210000,2.200000,2.210000,-2.200000,2.207071,-2.207071,2.200000,-2.210000,-2.200000,-2.210000,-2.207071,-2.207071,-2.210000,-2.200000,-2.210000,1.804000,-2.207071,1.811071,-1.811071,2.207071,-1.804000,2.210000,2.200000,2.210000,2.207071,2.207071,2.207071,2.207071,$1*%
%AMFreePoly6*
4,1,39,0.557071,0.757071,0.560000,0.750000,0.560000,-0.750000,0.557071,-0.757071,0.550000,-0.760000,0.000000,-0.760000,-0.007071,-0.757071,-0.007975,-0.754888,-0.080124,-0.753566,-0.082923,-0.753113,-0.218238,-0.710838,-0.220797,-0.709617,-0.338807,-0.631062,-0.340921,-0.629173,-0.432141,-0.520654,-0.433639,-0.518246,-0.490734,-0.388487,-0.491497,-0.385757,-0.508903,-0.252647,-0.510000,-0.250000,
-0.510000,0.250000,-0.509430,0.251377,-0.509879,0.254812,-0.509844,0.257648,-0.488033,0.397725,-0.487204,0.400436,-0.426956,0.528761,-0.425399,0.531131,-0.331555,0.637389,-0.329396,0.639226,-0.209501,0.714874,-0.206913,0.716032,-0.070606,0.754989,-0.067797,0.755374,-0.007926,0.755008,-0.007071,0.757071,0.000000,0.760000,0.550000,0.760000,0.557071,0.757071,0.557071,0.757071,
$1*%
%AMFreePoly7*
4,1,39,0.007071,0.757071,0.007966,0.754911,0.073966,0.754508,0.076770,0.754089,0.212591,0.713470,0.215165,0.712280,0.334127,0.635173,0.336264,0.633310,0.428802,0.525913,0.430329,0.523524,0.489006,0.394472,0.489802,0.391751,0.509899,0.251418,0.510000,0.250000,0.510000,-0.250000,0.509999,-0.250122,0.509850,-0.262338,0.509712,-0.263875,0.486192,-0.403676,0.485330,-0.406377,
0.423518,-0.533956,0.421933,-0.536307,0.326798,-0.641411,0.324616,-0.643222,0.203806,-0.717399,0.201204,-0.718525,0.064431,-0.755814,0.061618,-0.756164,0.007855,-0.755178,0.007071,-0.757071,0.000000,-0.760000,-0.550000,-0.760000,-0.557071,-0.757071,-0.560000,-0.750000,-0.560000,0.750000,-0.557071,0.757071,-0.550000,0.760000,0.000000,0.760000,0.007071,0.757071,0.007071,0.757071,
$1*%
G04 Aperture macros list end*
%ADD10C,0.120000*%
%ADD11C,0.450000*%
%ADD12RoundRect,0.010000X0.500000X-1.255000X0.500000X1.255000X-0.500000X1.255000X-0.500000X-1.255000X0*%
%ADD13FreePoly0,90.000000*%
%ADD14FreePoly1,90.000000*%
%ADD15FreePoly2,90.000000*%
%ADD16FreePoly3,90.000000*%
%ADD17FreePoly4,270.000000*%
%ADD18FreePoly4,90.000000*%
%ADD19C,1.800000*%
%ADD20RoundRect,0.185000X0.175000X0.425000X-0.175000X0.425000X-0.175000X-0.425000X0.175000X-0.425000X0*%
%ADD21RoundRect,0.185000X0.175000X0.325000X-0.175000X0.325000X-0.175000X-0.325000X0.175000X-0.325000X0*%
%ADD22C,0.900000*%
%ADD23RoundRect,0.210000X-0.200000X-0.275000X0.200000X-0.275000X0.200000X0.275000X-0.200000X0.275000X0*%
%ADD24RoundRect,0.210000X0.275000X-0.200000X0.275000X0.200000X-0.275000X0.200000X-0.275000X-0.200000X0*%
%ADD25RoundRect,0.210000X-0.275000X0.200000X-0.275000X-0.200000X0.275000X-0.200000X0.275000X0.200000X0*%
%ADD26FreePoly5,270.000000*%
%ADD27RoundRect,0.072500X-0.287500X0.062500X-0.287500X-0.062500X0.287500X-0.062500X0.287500X0.062500X0*%
%ADD28RoundRect,0.072500X-0.062500X0.287500X-0.062500X-0.287500X0.062500X-0.287500X0.062500X0.287500X0*%
%ADD29RoundRect,0.210000X0.200000X0.275000X-0.200000X0.275000X-0.200000X-0.275000X0.200000X-0.275000X0*%
%ADD30FreePoly6,0.000000*%
%ADD31RoundRect,0.010000X-0.500000X-0.750000X0.500000X-0.750000X0.500000X0.750000X-0.500000X0.750000X0*%
%ADD32FreePoly7,0.000000*%
%ADD33RoundRect,0.176600X0.636396X-0.895763X0.895763X-0.636396X-0.636396X0.895763X-0.895763X0.636396X0*%
%ADD34RoundRect,0.252760X0.321734X-0.699668X0.699668X-0.321734X-0.321734X0.699668X-0.699668X0.321734X0*%
%ADD35RoundRect,0.176600X-0.895763X-0.636396X-0.636396X-0.895763X0.895763X0.636396X0.636396X0.895763X0*%
%ADD36RoundRect,0.252760X-0.699668X-0.321734X-0.321734X-0.699668X0.699668X0.321734X0.321734X0.699668X0*%
%ADD37RoundRect,0.010000X-0.325000X-0.200000X0.325000X-0.200000X0.325000X0.200000X-0.325000X0.200000X0*%
%ADD38RoundRect,0.010000X0.325000X0.200000X-0.325000X0.200000X-0.325000X-0.200000X0.325000X-0.200000X0*%
%ADD39RoundRect,0.010000X-0.500000X-0.250000X0.500000X-0.250000X0.500000X0.250000X-0.500000X0.250000X0*%
%ADD40RoundRect,0.010000X-0.700000X-0.250000X0.700000X-0.250000X0.700000X0.250000X-0.700000X0.250000X0*%
%ADD41R,1.000000X0.500000*%
%ADD42R,1.400000X0.500000*%
G04 APERTURE END LIST*
D10*
%TO.C,JP1*%
X95050000Y-101460000D02*
X95450000Y-101460000D01*
X95450000Y-101460000D02*
X95450000Y-102460000D01*
X95450000Y-102460000D02*
X95050000Y-102460000D01*
X95050000Y-102460000D02*
X95050000Y-101460000D01*
G36*
X95050000Y-101460000D02*
G01*
X95450000Y-101460000D01*
X95450000Y-102460000D01*
X95050000Y-102460000D01*
X95050000Y-101460000D01*
G37*
X93850000Y-101460000D02*
X94250000Y-101460000D01*
X94250000Y-101460000D02*
X94250000Y-102460000D01*
X94250000Y-102460000D02*
X93850000Y-102460000D01*
X93850000Y-102460000D02*
X93850000Y-101460000D01*
G36*
X93850000Y-101460000D02*
G01*
X94250000Y-101460000D01*
X94250000Y-102460000D01*
X93850000Y-102460000D01*
X93850000Y-101460000D01*
G37*
%TO.C,U2*%
G36*
X102900000Y-115400000D02*
G01*
X97100000Y-115400000D01*
X97100000Y-109600000D01*
X102900000Y-109600000D01*
X102900000Y-115400000D01*
G37*
D11*
%TO.C,AJK1*%
X89100000Y-90025000D02*
X86100000Y-94225000D01*
X90900000Y-90125000D02*
X89100000Y-92125000D01*
X89100000Y-90025000D02*
X89100000Y-94225000D01*
X89100000Y-92125000D02*
X87600000Y-92125000D01*
X89100000Y-92125000D02*
X90900000Y-94225000D01*
X87600000Y-94225000D02*
G75*
G03*
X89100000Y-94225000I750000J0D01*
G01*
%TD*%
D12*
%TO.C,J3*%
X96220000Y-104845000D03*
X98760000Y-108155000D03*
X101300000Y-104845000D03*
X103840000Y-108155000D03*
X106380000Y-104845000D03*
%TD*%
D13*
%TO.C,Y1*%
X93000000Y-95410000D03*
D14*
X93000000Y-97710000D03*
D15*
X94750000Y-97710000D03*
D16*
X94750000Y-95410000D03*
%TD*%
D17*
%TO.C,D2*%
X112500000Y-98375000D03*
D18*
X112500000Y-101625000D03*
D19*
X112500000Y-100000000D03*
%TD*%
D17*
%TO.C,D3*%
X112500000Y-93375000D03*
D18*
X112500000Y-96625000D03*
D19*
X112500000Y-95000000D03*
%TD*%
D20*
%TO.C,SW1*%
X91300000Y-98220000D03*
X91300000Y-101780000D03*
D21*
X88300000Y-101680000D03*
D22*
X90800000Y-100000000D03*
D21*
X88300000Y-98320000D03*
D22*
X88800000Y-100000000D03*
%TD*%
D17*
%TO.C,D1*%
X112500000Y-103375000D03*
D18*
X112500000Y-106625000D03*
D19*
X112500000Y-105000000D03*
%TD*%
D23*
%TO.C,C7*%
X100600000Y-91760000D03*
X102150000Y-91760000D03*
%TD*%
D24*
%TO.C,C3*%
X103800000Y-84860000D03*
X103800000Y-83310000D03*
%TD*%
D23*
%TO.C,C5*%
X100925000Y-84835000D03*
X102475000Y-84835000D03*
%TD*%
%TO.C,R6*%
X108175000Y-92360000D03*
X109825000Y-92360000D03*
%TD*%
%TO.C,R4*%
X93075000Y-84835000D03*
X94725000Y-84835000D03*
%TD*%
D25*
%TO.C,C13*%
X106150000Y-95385000D03*
X106150000Y-96935000D03*
%TD*%
D23*
%TO.C,C14*%
X104625000Y-93860000D03*
X106175000Y-93860000D03*
%TD*%
%TO.C,C9*%
X93100000Y-91310000D03*
X94650000Y-91310000D03*
%TD*%
%TO.C,C16*%
X93100000Y-94060000D03*
X94650000Y-94060000D03*
%TD*%
%TO.C,R9*%
X108175000Y-96860000D03*
X109825000Y-96860000D03*
%TD*%
%TO.C,R8*%
X108175000Y-98360000D03*
X109825000Y-98360000D03*
%TD*%
D24*
%TO.C,R11*%
X99300000Y-102535000D03*
X99300000Y-100885000D03*
%TD*%
D26*
%TO.C,U1*%
X100000000Y-96560000D03*
D27*
X102900000Y-94310000D03*
X102900000Y-94810000D03*
X102900000Y-95310000D03*
X102900000Y-95810000D03*
X102900000Y-96310000D03*
X102900000Y-96810000D03*
X102900000Y-97310000D03*
X102900000Y-97810000D03*
X102900000Y-98310000D03*
X102900000Y-98810000D03*
D28*
X102250000Y-99460000D03*
X101750000Y-99460000D03*
X101250000Y-99460000D03*
X100750000Y-99460000D03*
X100250000Y-99460000D03*
X99750000Y-99460000D03*
X99250000Y-99460000D03*
X98750000Y-99460000D03*
X98250000Y-99460000D03*
X97750000Y-99460000D03*
D27*
X97100000Y-98810000D03*
X97100000Y-98310000D03*
X97100000Y-97810000D03*
X97100000Y-97310000D03*
X97100000Y-96810000D03*
X97100000Y-96310000D03*
X97100000Y-95810000D03*
X97100000Y-95310000D03*
X97100000Y-94810000D03*
X97100000Y-94310000D03*
D28*
X97750000Y-93660000D03*
X98250000Y-93660000D03*
X98750000Y-93660000D03*
X99250000Y-93660000D03*
X99750000Y-93660000D03*
X100250000Y-93660000D03*
X100750000Y-93660000D03*
X101250000Y-93660000D03*
X101750000Y-93660000D03*
X102250000Y-93660000D03*
%TD*%
D29*
%TO.C,C17*%
X94650000Y-99060000D03*
X93100000Y-99060000D03*
%TD*%
%TO.C,C12*%
X99400000Y-90410000D03*
X97850000Y-90410000D03*
%TD*%
D25*
%TO.C,R5*%
X93100000Y-88585000D03*
X93100000Y-90235000D03*
%TD*%
D23*
%TO.C,R7*%
X108175000Y-93860000D03*
X109825000Y-93860000D03*
%TD*%
%TO.C,R10*%
X108175000Y-95360000D03*
X109825000Y-95360000D03*
%TD*%
D24*
%TO.C,C18*%
X97700000Y-102485000D03*
X97700000Y-100935000D03*
%TD*%
D25*
%TO.C,C11*%
X104650000Y-95385000D03*
X104650000Y-96935000D03*
%TD*%
D24*
%TO.C,C8*%
X93100000Y-87535000D03*
X93100000Y-85985000D03*
%TD*%
D23*
%TO.C,C10*%
X100600000Y-90410000D03*
X102150000Y-90410000D03*
%TD*%
D29*
%TO.C,C1*%
X102475000Y-83300000D03*
X100925000Y-83300000D03*
%TD*%
%TO.C,C6*%
X99075000Y-84835000D03*
X97525000Y-84835000D03*
%TD*%
D24*
%TO.C,R15*%
X105600000Y-102535000D03*
X105600000Y-100885000D03*
%TD*%
D30*
%TO.C,JP1*%
X93350000Y-101960000D03*
D31*
X94650000Y-101960000D03*
D32*
X95950000Y-101960000D03*
%TD*%
D23*
%TO.C,R13*%
X100825000Y-102460000D03*
X102475000Y-102460000D03*
%TD*%
%TO.C,C15*%
X93100000Y-92660000D03*
X94650000Y-92660000D03*
%TD*%
D29*
%TO.C,R14*%
X102475000Y-100960000D03*
X100825000Y-100960000D03*
%TD*%
D33*
%TO.C,L1*%
X102542893Y-88267107D03*
D34*
X102260051Y-88549949D03*
X104239949Y-86570051D03*
D33*
X103957107Y-86852893D03*
%TD*%
D35*
%TO.C,L2*%
X96042893Y-86852893D03*
D36*
X95760051Y-86570051D03*
X97739949Y-88549949D03*
D35*
X97457107Y-88267107D03*
%TD*%
D25*
%TO.C,C4*%
X96200000Y-83310000D03*
X96200000Y-84860000D03*
%TD*%
%TO.C,R12*%
X104000000Y-100885000D03*
X104000000Y-102535000D03*
%TD*%
D37*
%TO.C,D5*%
X108050000Y-89810000D03*
X108050000Y-90460000D03*
X108050000Y-91110000D03*
X109950000Y-91110000D03*
X109950000Y-90460000D03*
X109950000Y-89810000D03*
%TD*%
D23*
%TO.C,C19*%
X108225000Y-104760000D03*
X109775000Y-104760000D03*
%TD*%
D37*
%TO.C,D4*%
X108050000Y-99610000D03*
X108050000Y-100260000D03*
X108050000Y-100910000D03*
X109950000Y-100910000D03*
X109950000Y-100260000D03*
X109950000Y-99610000D03*
%TD*%
D38*
%TO.C,D6*%
X109950000Y-103510000D03*
X109950000Y-102860000D03*
X109950000Y-102210000D03*
X108050000Y-102210000D03*
X108050000Y-102860000D03*
X108050000Y-103510000D03*
%TD*%
D29*
%TO.C,C2*%
X99075000Y-83300000D03*
X97525000Y-83300000D03*
%TD*%
D39*
%TO.C,A1*%
X98230000Y-81290000D03*
D40*
X100000000Y-79590000D03*
D39*
X101770000Y-81290000D03*
D41*
X101770000Y-79690000D03*
X98230000Y-79690000D03*
D42*
X100000000Y-77590000D03*
%TD*%
M02*
