%TF.GenerationSoftware,KiCad,Pcbnew,(5.1.9-0-10_14)*%
%TF.CreationDate,2021-06-03T12:09:16+01:00*%
%TF.ProjectId,PN532,504e3533-322e-46b6-9963-61645f706362,7*%
%TF.SameCoordinates,Original*%
%TF.FileFunction,Paste,Bot*%
%TF.FilePolarity,Positive*%
%FSLAX46Y46*%
G04 Gerber Fmt 4.6, Leading zero omitted, Abs format (unit mm)*
G04 Created by KiCad (PCBNEW (5.1.9-0-10_14)) date 2021-06-03 12:09:16*
%MOMM*%
%LPD*%
G01*
G04 APERTURE LIST*
G04 APERTURE END LIST*
%TO.C,D1*%
G36*
G01*
X112625000Y-99390000D02*
X111375000Y-99390000D01*
G75*
G02*
X111250000Y-99265000I0J125000D01*
G01*
X111250000Y-99015000D01*
G75*
G02*
X111375000Y-98890000I125000J0D01*
G01*
X112625000Y-98890000D01*
G75*
G02*
X112750000Y-99015000I0J-125000D01*
G01*
X112750000Y-99265000D01*
G75*
G02*
X112625000Y-99390000I-125000J0D01*
G01*
G37*
G36*
G01*
X112625000Y-101110000D02*
X111375000Y-101110000D01*
G75*
G02*
X111250000Y-100985000I0J125000D01*
G01*
X111250000Y-100735000D01*
G75*
G02*
X111375000Y-100610000I125000J0D01*
G01*
X112625000Y-100610000D01*
G75*
G02*
X112750000Y-100735000I0J-125000D01*
G01*
X112750000Y-100985000D01*
G75*
G02*
X112625000Y-101110000I-125000J0D01*
G01*
G37*
%TD*%
%TO.C,D2*%
G36*
G01*
X112625000Y-93390000D02*
X111375000Y-93390000D01*
G75*
G02*
X111250000Y-93265000I0J125000D01*
G01*
X111250000Y-93015000D01*
G75*
G02*
X111375000Y-92890000I125000J0D01*
G01*
X112625000Y-92890000D01*
G75*
G02*
X112750000Y-93015000I0J-125000D01*
G01*
X112750000Y-93265000D01*
G75*
G02*
X112625000Y-93390000I-125000J0D01*
G01*
G37*
G36*
G01*
X112625000Y-95110000D02*
X111375000Y-95110000D01*
G75*
G02*
X111250000Y-94985000I0J125000D01*
G01*
X111250000Y-94735000D01*
G75*
G02*
X111375000Y-94610000I125000J0D01*
G01*
X112625000Y-94610000D01*
G75*
G02*
X112750000Y-94735000I0J-125000D01*
G01*
X112750000Y-94985000D01*
G75*
G02*
X112625000Y-95110000I-125000J0D01*
G01*
G37*
%TD*%
%TO.C,D3*%
G36*
G01*
X112625000Y-87390000D02*
X111375000Y-87390000D01*
G75*
G02*
X111250000Y-87265000I0J125000D01*
G01*
X111250000Y-87015000D01*
G75*
G02*
X111375000Y-86890000I125000J0D01*
G01*
X112625000Y-86890000D01*
G75*
G02*
X112750000Y-87015000I0J-125000D01*
G01*
X112750000Y-87265000D01*
G75*
G02*
X112625000Y-87390000I-125000J0D01*
G01*
G37*
G36*
G01*
X112625000Y-89110000D02*
X111375000Y-89110000D01*
G75*
G02*
X111250000Y-88985000I0J125000D01*
G01*
X111250000Y-88735000D01*
G75*
G02*
X111375000Y-88610000I125000J0D01*
G01*
X112625000Y-88610000D01*
G75*
G02*
X112750000Y-88735000I0J-125000D01*
G01*
X112750000Y-88985000D01*
G75*
G02*
X112625000Y-89110000I-125000J0D01*
G01*
G37*
%TD*%
M02*
