%TF.GenerationSoftware,KiCad,Pcbnew,(6.0.2-0)*%
%TF.CreationDate,2022-02-18T14:13:14+00:00*%
%TF.ProjectId,PN532,504e3533-322e-46b6-9963-61645f706362,7*%
%TF.SameCoordinates,Original*%
%TF.FileFunction,Paste,Top*%
%TF.FilePolarity,Positive*%
%FSLAX46Y46*%
G04 Gerber Fmt 4.6, Leading zero omitted, Abs format (unit mm)*
G04 Created by KiCad (PCBNEW (6.0.2-0)) date 2022-02-18 14:13:14*
%MOMM*%
%LPD*%
G01*
G04 APERTURE LIST*
G04 Aperture macros list*
%AMRoundRect*
0 Rectangle with rounded corners*
0 $1 Rounding radius*
0 $2 $3 $4 $5 $6 $7 $8 $9 X,Y pos of 4 corners*
0 Add a 4 corners polygon primitive as box body*
4,1,4,$2,$3,$4,$5,$6,$7,$8,$9,$2,$3,0*
0 Add four circle primitives for the rounded corners*
1,1,$1+$1,$2,$3*
1,1,$1+$1,$4,$5*
1,1,$1+$1,$6,$7*
1,1,$1+$1,$8,$9*
0 Add four rect primitives between the rounded corners*
20,1,$1+$1,$2,$3,$4,$5,0*
20,1,$1+$1,$4,$5,$6,$7,0*
20,1,$1+$1,$6,$7,$8,$9,0*
20,1,$1+$1,$8,$9,$2,$3,0*%
G04 Aperture macros list end*
%ADD10R,0.604000X1.324000*%
%ADD11RoundRect,0.207000X0.561000X-0.225000X0.561000X0.225000X-0.561000X0.225000X-0.561000X-0.225000X0*%
%ADD12R,1.248000X1.920000*%
%ADD13RoundRect,0.207000X-0.225000X-0.249000X0.225000X-0.249000X0.225000X0.249000X-0.225000X0.249000X0*%
%ADD14RoundRect,0.207000X0.249000X-0.225000X0.249000X0.225000X-0.249000X0.225000X-0.249000X-0.225000X0*%
%ADD15RoundRect,0.184000X-0.200000X-0.272000X0.200000X-0.272000X0.200000X0.272000X-0.200000X0.272000X0*%
%ADD16RoundRect,0.207000X-0.249000X0.225000X-0.249000X-0.225000X0.249000X-0.225000X0.249000X0.225000X0*%
%ADD17RoundRect,0.184000X0.272000X-0.200000X0.272000X0.200000X-0.272000X0.200000X-0.272000X-0.200000X0*%
%ADD18RoundRect,0.187500X-0.187500X0.187500X-0.187500X-0.187500X0.187500X-0.187500X0.187500X0.187500X0*%
%ADD19RoundRect,0.048500X-0.071500X0.287500X-0.071500X-0.287500X0.071500X-0.287500X0.071500X0.287500X0*%
%ADD20RoundRect,0.057500X-0.278500X0.062500X-0.278500X-0.062500X0.278500X-0.062500X0.278500X0.062500X0*%
%ADD21RoundRect,0.207000X0.225000X0.249000X-0.225000X0.249000X-0.225000X-0.249000X0.225000X-0.249000X0*%
%ADD22RoundRect,0.184000X-0.272000X0.200000X-0.272000X-0.200000X0.272000X-0.200000X0.272000X0.200000X0*%
%ADD23RoundRect,0.184000X0.200000X0.272000X-0.200000X0.272000X-0.200000X-0.272000X0.200000X-0.272000X0*%
%ADD24RoundRect,0.152600X0.610940X-0.870307X0.870307X-0.610940X-0.610940X0.870307X-0.870307X0.610940X0*%
%ADD25RoundRect,0.222360X0.308864X-0.686799X0.686799X-0.308864X-0.308864X0.686799X-0.686799X0.308864X0*%
%ADD26RoundRect,0.152600X-0.870307X-0.610940X-0.610940X-0.870307X0.870307X0.610940X0.610940X0.870307X0*%
%ADD27RoundRect,0.222360X-0.686799X-0.308864X-0.308864X-0.686799X0.686799X0.308864X0.308864X0.686799X0*%
%ADD28R,0.624000X0.384000*%
%ADD29R,1.440000X0.480000*%
G04 APERTURE END LIST*
D10*
%TO.C,Y1*%
X93075000Y-98650000D03*
X93075000Y-101350000D03*
X94675000Y-101350000D03*
X94675000Y-98650000D03*
%TD*%
D11*
%TO.C,D2*%
X112000000Y-95650000D03*
X112000000Y-92350000D03*
%TD*%
%TO.C,D3*%
X112000000Y-89650000D03*
X112000000Y-86350000D03*
%TD*%
D12*
%TO.C,SW1*%
X86250000Y-95800000D03*
X90750000Y-95800000D03*
X90750000Y-104200000D03*
X86250000Y-104200000D03*
%TD*%
D11*
%TO.C,D1*%
X112000000Y-101650000D03*
X112000000Y-98350000D03*
%TD*%
D13*
%TO.C,C7*%
X100600000Y-95200000D03*
X102150000Y-95200000D03*
%TD*%
D14*
%TO.C,C3*%
X103800000Y-88300000D03*
X103800000Y-86750000D03*
%TD*%
D13*
%TO.C,C5*%
X100925000Y-88275000D03*
X102475000Y-88275000D03*
%TD*%
D15*
%TO.C,R6*%
X108175000Y-95800000D03*
X109825000Y-95800000D03*
%TD*%
%TO.C,R4*%
X93075000Y-88275000D03*
X94725000Y-88275000D03*
%TD*%
D16*
%TO.C,C13*%
X106150000Y-98825000D03*
X106150000Y-100375000D03*
%TD*%
D13*
%TO.C,C14*%
X104625000Y-97300000D03*
X106175000Y-97300000D03*
%TD*%
%TO.C,C9*%
X93100000Y-94750000D03*
X94650000Y-94750000D03*
%TD*%
%TO.C,C16*%
X93100000Y-97500000D03*
X94650000Y-97500000D03*
%TD*%
D15*
%TO.C,R9*%
X108175000Y-100300000D03*
X109825000Y-100300000D03*
%TD*%
%TO.C,R8*%
X108175000Y-101800000D03*
X109825000Y-101800000D03*
%TD*%
D17*
%TO.C,R11*%
X99300000Y-105975000D03*
X99300000Y-104325000D03*
%TD*%
D18*
%TO.C,U1*%
X101500000Y-101500000D03*
X101500000Y-100000000D03*
X98500000Y-100000000D03*
X98500000Y-101500000D03*
X101500000Y-98500000D03*
X98500000Y-98500000D03*
X100000000Y-98500000D03*
X100000000Y-101500000D03*
D19*
X102250000Y-97100000D03*
X101750000Y-97100000D03*
X101250000Y-97100000D03*
X100750000Y-97100000D03*
X100250000Y-97100000D03*
X99750000Y-97100000D03*
X99250000Y-97100000D03*
X98750000Y-97100000D03*
X98250000Y-97100000D03*
X97750000Y-97100000D03*
D20*
X97100000Y-97750000D03*
X97100000Y-98250000D03*
X97100000Y-98750000D03*
X97100000Y-99250000D03*
X97100000Y-99750000D03*
X97100000Y-100250000D03*
X97100000Y-100750000D03*
X97100000Y-101250000D03*
X97100000Y-101750000D03*
X97100000Y-102250000D03*
D19*
X97750000Y-102900000D03*
X98250000Y-102900000D03*
X98750000Y-102900000D03*
X99250000Y-102900000D03*
X99750000Y-102900000D03*
X100250000Y-102900000D03*
X100750000Y-102900000D03*
X101250000Y-102900000D03*
X101750000Y-102900000D03*
X102250000Y-102900000D03*
D20*
X102900000Y-102250000D03*
X102900000Y-101750000D03*
X102900000Y-101250000D03*
X102900000Y-100750000D03*
X102900000Y-100250000D03*
X102900000Y-99750000D03*
X102900000Y-99250000D03*
X102900000Y-98750000D03*
X102900000Y-98250000D03*
X102900000Y-97750000D03*
%TD*%
D21*
%TO.C,C17*%
X94650000Y-102500000D03*
X93100000Y-102500000D03*
%TD*%
%TO.C,C12*%
X99400000Y-93850000D03*
X97850000Y-93850000D03*
%TD*%
D22*
%TO.C,R5*%
X93100000Y-92025000D03*
X93100000Y-93675000D03*
%TD*%
D15*
%TO.C,R7*%
X108175000Y-97300000D03*
X109825000Y-97300000D03*
%TD*%
%TO.C,R10*%
X108175000Y-98800000D03*
X109825000Y-98800000D03*
%TD*%
D14*
%TO.C,C18*%
X97700000Y-105925000D03*
X97700000Y-104375000D03*
%TD*%
D16*
%TO.C,C11*%
X104650000Y-98825000D03*
X104650000Y-100375000D03*
%TD*%
D14*
%TO.C,C8*%
X93100000Y-90975000D03*
X93100000Y-89425000D03*
%TD*%
D13*
%TO.C,C10*%
X100600000Y-93850000D03*
X102150000Y-93850000D03*
%TD*%
D21*
%TO.C,C1*%
X102475000Y-85900000D03*
X102475000Y-87100000D03*
X100925000Y-87100000D03*
X100925000Y-85900000D03*
%TD*%
%TO.C,C6*%
X99075000Y-88275000D03*
X97525000Y-88275000D03*
%TD*%
D17*
%TO.C,R15*%
X105600000Y-105975000D03*
X105600000Y-104325000D03*
%TD*%
D15*
%TO.C,R13*%
X100825000Y-105900000D03*
X102475000Y-105900000D03*
%TD*%
D13*
%TO.C,C15*%
X93100000Y-96100000D03*
X94650000Y-96100000D03*
%TD*%
D23*
%TO.C,R14*%
X102475000Y-104400000D03*
X100825000Y-104400000D03*
%TD*%
D24*
%TO.C,L1*%
X102542893Y-91707107D03*
D25*
X102260051Y-91989949D03*
X104239949Y-90010051D03*
D24*
X103957107Y-90292893D03*
%TD*%
D26*
%TO.C,L2*%
X96042893Y-90292893D03*
D27*
X95760051Y-90010051D03*
X97739949Y-91989949D03*
D26*
X97457107Y-91707107D03*
%TD*%
D16*
%TO.C,C4*%
X96200000Y-86750000D03*
X96200000Y-88300000D03*
%TD*%
D22*
%TO.C,R12*%
X104000000Y-104325000D03*
X104000000Y-105975000D03*
%TD*%
D28*
%TO.C,D5*%
X108050000Y-93250000D03*
X108050000Y-93900000D03*
X108050000Y-94550000D03*
X109950000Y-94550000D03*
X109950000Y-93900000D03*
X109950000Y-93250000D03*
%TD*%
D13*
%TO.C,C19*%
X108225000Y-108200000D03*
X109775000Y-108200000D03*
%TD*%
D28*
%TO.C,D4*%
X108050000Y-103050000D03*
X108050000Y-103700000D03*
X108050000Y-104350000D03*
X109950000Y-104350000D03*
X109950000Y-103700000D03*
X109950000Y-103050000D03*
%TD*%
%TO.C,D6*%
X109950000Y-106950000D03*
X109950000Y-106300000D03*
X109950000Y-105650000D03*
X108050000Y-105650000D03*
X108050000Y-106300000D03*
X108050000Y-106950000D03*
%TD*%
D22*
%TO.C,A1*%
X102000000Y-83150000D03*
X98000000Y-83150000D03*
D29*
X100000000Y-81000000D03*
D22*
X102000000Y-84850000D03*
D29*
X100000000Y-83000000D03*
D22*
X98000000Y-84850000D03*
%TD*%
D21*
%TO.C,C2*%
X99075000Y-85900000D03*
X99075000Y-87100000D03*
X97525000Y-87100000D03*
X97525000Y-85900000D03*
%TD*%
M02*
