%TF.GenerationSoftware,KiCad,Pcbnew,(6.0.5-0)*%
%TF.CreationDate,2022-08-23T09:34:40+01:00*%
%TF.ProjectId,PN532-Round,504e3533-322d-4526-9f75-6e642e6b6963,7*%
%TF.SameCoordinates,Original*%
%TF.FileFunction,Copper,L2,Bot*%
%TF.FilePolarity,Positive*%
%FSLAX46Y46*%
G04 Gerber Fmt 4.6, Leading zero omitted, Abs format (unit mm)*
G04 Created by KiCad (PCBNEW (6.0.5-0)) date 2022-08-23 09:34:40*
%MOMM*%
%LPD*%
G01*
G04 APERTURE LIST*
G04 Aperture macros list*
%AMFreePoly0*
4,1,814,0.005746,0.248857,0.011539,0.249734,0.011545,0.249733,0.913469,0.190032,1.812305,0.094444,2.706618,-0.036878,3.594990,-0.203727,4.476009,-0.405837,5.348276,-0.642887,6.210406,-0.914501,7.061030,-1.220247,7.898798,-1.559641,8.722378,-1.932143,9.530464,-2.337161,10.321772,-2.774053,10.390820,-2.834703,10.476082,-2.864122,11.248124,-3.335915,12.000746,-3.838109,12.732751,-4.369906,
13.442974,-4.930460,14.130287,-5.518881,14.793597,-6.134233,15.431850,-6.775538,16.044031,-7.441776,16.629167,-8.131888,17.186328,-8.844777,17.714627,-9.579309,18.213225,-10.334318,18.681330,-11.108603,18.712707,-11.200964,18.712625,-11.202214,18.713424,-11.202614,18.777281,-11.276353,19.210877,-12.075176,19.612066,-12.890758,19.980200,-13.721782,20.314688,-14.566912,20.614990,-15.424784,20.880622,-16.294016,
21.111155,-17.173208,21.306220,-18.060944,21.465501,-18.955793,21.588742,-19.856314,21.675744,-20.761055,21.726367,-21.668558,21.740530,-22.577362,21.731930,-22.619607,21.739997,-22.661261,21.739996,-22.661267,21.717328,-23.563655,21.658464,-24.464413,21.563498,-25.362083,21.432583,-26.255219,21.265931,-27.142381,21.063810,-28.022140,20.826545,-28.893080,20.554519,-29.753796,20.248170,-30.602901,19.907992,-31.439028,
19.534533,-32.260830,19.128394,-33.066982,18.690230,-33.856185,18.646885,-33.905283,18.625663,-33.966450,18.152142,-34.738124,17.648034,-35.490173,17.114152,-36.221386,16.551354,-36.930584,15.960549,-37.616625,15.342687,-38.278403,14.698765,-38.914852,14.029820,-39.524946,13.336929,-40.107703,12.621210,-40.662183,11.883814,-41.187494,11.125932,-41.682789,10.348783,-42.147269,10.329005,-42.153873,10.313012,-42.167642,
9.517835,-42.596391,8.706198,-42.993101,7.879393,-43.357141,7.038733,-43.687932,6.185554,-43.984949,5.321213,-44.247718,4.447085,-44.475824,3.564558,-44.668902,2.675037,-44.826646,1.779933,-44.948805,0.880672,-45.035186,-0.021318,-45.085649,-0.924603,-45.100117,-0.938180,-45.097361,-0.951978,-45.099992,-1.842875,-45.075233,-2.732085,-45.015099,-3.618204,-44.919685,-4.499832,-44.789141,-5.375578,-44.623673,
-6.244058,-44.423544,-7.103902,-44.189068,-7.953751,-43.920617,-8.792264,-43.618613,-9.618117,-43.283534,-10.430005,-42.915909,-11.226646,-42.516319,-12.006784,-42.085395,-12.059864,-42.038757,-12.126369,-42.015710,-12.880988,-41.553254,-13.616638,-41.061182,-14.332158,-40.540272,-15.026418,-39.991346,-15.698321,-39.415271,-16.346806,-38.812957,-16.970850,-38.185354,-17.569467,-37.533454,-18.141711,-36.858286,-18.686680,-36.160916,
-19.203513,-35.442446,-19.691393,-34.704009,-20.149550,-33.946772,-20.178553,-33.861516,-20.237383,-33.793468,-20.660082,-33.013436,-21.051351,-32.217174,-21.410567,-31.405947,-21.737159,-30.581045,-22.030608,-29.743780,-22.290447,-28.895482,-22.516264,-28.037501,-22.707699,-27.171199,-22.864448,-26.297955,-22.986262,-25.419157,-23.072947,-24.536201,-23.124365,-23.650492,-23.140436,-22.763436,-23.129897,-22.710955,-23.139992,-22.658051,
-23.115566,-21.775341,-23.056090,-20.894298,-22.961658,-20.016314,-22.832418,-19.142775,-22.668575,-18.275059,-22.470388,-17.414539,-22.238170,-16.562571,-21.972287,-15.720502,-21.673158,-14.889662,-21.341258,-14.071361,-20.977108,-13.266893,-20.581286,-12.477527,-20.154415,-11.704510,-20.115190,-11.659856,-20.095759,-11.603714,-20.095756,-11.603710,-19.634684,-10.851041,-19.143775,-10.117478,-18.623822,-9.404207,-18.075663,-8.712377,
-17.500182,-8.043104,-16.898305,-7.397464,-16.271002,-6.776499,-15.619284,-6.181209,-14.944201,-5.612553,-14.246840,-5.071448,-13.528326,-4.558764,-12.789816,-4.075330,-12.032501,-3.621921,-11.993993,-3.609030,-11.963010,-3.582357,-11.192036,-3.166534,-10.405202,-2.781565,-9.603742,-2.428052,-8.788913,-2.106550,-7.961993,-1.817563,-7.124279,-1.561546,-6.277085,-1.338898,-5.421740,-1.149970,-4.559585,-0.995057,
-3.691972,-0.874404,-2.820262,-0.788198,-1.945822,-0.736575,-1.070025,-0.719616,-1.009356,-0.731711,-0.948155,-0.720007,-0.078632,-0.743709,0.789262,-0.801938,1.654158,-0.894601,2.514689,-1.021553,3.369497,-1.182593,4.217233,-1.377467,5.056557,-1.605867,5.886144,-1.867433,6.704684,-2.161751,7.510885,-2.488356,8.303473,-2.846734,9.081198,-3.236318,9.842831,-3.656492,9.902224,-3.708621,
9.976201,-3.734192,10.719380,-4.189049,11.443706,-4.673365,12.148012,-5.186359,12.831163,-5.727205,13.492059,-6.295031,14.129634,-6.888923,14.742862,-7.507923,15.330755,-8.151035,15.892364,-8.817222,16.426786,-9.505410,16.933159,-10.214492,17.410667,-10.943323,17.858541,-11.690731,17.874586,-11.738596,17.907379,-11.776523,17.907381,-11.776528,18.319873,-12.537658,18.701699,-13.314630,19.052249,-14.106206,
19.370965,-14.911127,19.657340,-15.728114,19.910920,-16.555866,20.131302,-17.393070,20.318134,-18.238393,20.471120,-19.090492,20.590017,-19.948012,20.674636,-20.809591,20.724842,-21.673857,20.740556,-22.539438,20.728277,-22.600596,20.739993,-22.661813,20.716488,-23.526051,20.658551,-24.388665,20.566273,-25.248284,20.439801,-26.103541,20.279336,-26.953076,20.085133,-27.795540,19.857501,-28.629592,19.596802,-29.453907,
19.303449,-30.267175,18.977910,-31.068102,18.620703,-31.855415,18.232394,-32.627863,17.813602,-33.384218,17.781575,-33.420590,17.765321,-33.467031,17.765316,-33.467037,17.312546,-34.200784,16.830978,-34.915970,16.321377,-35.611459,15.784546,-36.286153,15.221334,-36.938986,14.632630,-37.568927,14.019363,-38.174983,13.382503,-38.756195,12.723054,-39.311647,12.042058,-39.840460,11.340591,-40.341800,10.619759,-40.814876,
9.880702,-41.258941,9.843436,-41.271490,9.813757,-41.297219,9.062236,-41.705695,8.294978,-42.083785,7.513211,-42.430885,6.718187,-42.746437,5.911178,-43.029938,5.093475,-43.280934,4.266387,-43.499022,3.431238,-43.683855,2.589364,-43.835135,1.742114,-43.952622,0.890842,-44.036126,0.036911,-44.085515,-0.818312,-44.100709,-0.885231,-44.087242,-0.951706,-44.099994,-1.802723,-44.077215,-2.652155,-44.020529,
-3.498652,-43.930027,-4.340869,-43.805852,-5.177466,-43.648203,-6.007114,-43.457329,-6.828493,-43.233534,-7.640298,-42.977174,-8.441239,-42.688657,-9.230042,-42.368440,-10.005452,-42.017034,-10.766238,-41.634996,-11.511191,-41.222935,-11.562465,-41.177824,-11.626026,-41.155911,-11.626030,-41.155908,-12.345446,-40.716530,-13.046778,-40.248820,-13.728909,-39.753525,-14.390753,-39.231430,-15.031259,-38.683368,-15.649408,-38.110208,
-16.244217,-37.512863,-16.814742,-36.892281,-17.360074,-36.249449,-17.879347,-35.585389,-18.371736,-34.901157,-18.836457,-34.197841,-19.272773,-33.476558,-19.304173,-33.384205,-19.303403,-33.372374,-19.313571,-33.367271,-19.377374,-33.293485,-19.377376,-33.293480,-19.780971,-32.548721,-20.154457,-31.788409,-20.497233,-31.013768,-20.808751,-30.226036,-21.088512,-29.426474,-21.336069,-28.616363,-21.551026,-27.796998,-21.733037,-26.969691,
-21.881813,-26.135765,-21.997115,-25.296557,-22.078758,-24.453408,-22.126611,-23.607669,-22.140599,-22.760692,-22.130199,-22.709342,-22.139996,-22.658528,-22.139995,-22.658522,-22.118095,-21.815094,-22.062365,-20.973217,-21.972893,-20.134256,-21.849825,-19.299561,-21.693358,-18.470477,-21.503744,-17.648341,-21.281290,-16.834477,-21.026352,-16.030195,-20.739343,-15.236793,-20.420725,-14.455548,-20.071010,-13.687719,-19.690763,-12.934544,
-19.280597,-12.197234,-19.243684,-12.155492,-19.225680,-12.103580,-18.786339,-11.387276,-18.318699,-10.689118,-17.823508,-10.010223,-17.301560,-9.351677,-16.753689,-8.714535,-16.180772,-8.099817,-15.583726,-7.508506,-14.963507,-6.941549,-14.321107,-6.399852,-13.657555,-5.884284,-12.973912,-5.395668,-12.271273,-4.934788,-11.550762,-4.502381,-11.502134,-4.486040,-11.463164,-4.452444,-10.729691,-4.056100,-9.981159,-3.688988,
-9.218733,-3.351679,-8.443598,-3.044699,-7.656960,-2.768524,-6.860044,-2.523584,-6.054088,-2.310261,-5.240347,-2.128886,-4.420087,-1.979741,-3.594583,-1.863059,-3.497317,-1.870431,-3.410276,-1.914465,-3.346712,-1.988456,-3.316302,-2.081140,-3.323674,-2.178406,-3.367708,-2.265447,-3.441699,-2.329011,-3.534383,-2.359421,-3.553116,-2.358001,-4.341002,-2.469366,-5.142016,-2.615012,-5.936663,-2.792131,
-6.723708,-3.000449,-7.501925,-3.239641,-8.270105,-3.509336,-9.027053,-3.809114,-9.771590,-4.138508,-10.502558,-4.497006,-11.202606,-4.875288,-11.216836,-4.887556,-11.264305,-4.903223,-11.302098,-4.936161,-11.320223,-4.942252,-12.007640,-5.354798,-12.693691,-5.804798,-13.361194,-6.281877,-14.009080,-6.785274,-14.636313,-7.314181,-15.241890,-7.867754,-15.824840,-8.445105,-16.384231,-9.045310,-16.919168,-9.667410,
-17.428793,-10.310408,-17.912293,-10.973275,-18.368893,-11.654951,-18.788055,-12.338354,-18.794320,-12.356420,-18.830937,-12.397624,-18.848623,-12.449026,-18.861294,-12.463354,-19.252663,-13.166871,-19.623939,-13.902278,-19.965403,-14.651992,-20.276505,-15.414806,-20.556743,-16.189490,-20.805666,-16.974797,-21.022872,-17.769461,-21.208013,-18.572201,-21.360788,-19.381725,-21.480953,-20.196728,-21.568314,-21.015897,-21.622729,-21.837911,
-21.643625,-22.642691,-21.640004,-22.661472,-21.650409,-22.712220,-21.640603,-22.762438,-21.644430,-22.781332,-21.631082,-23.589565,-21.584349,-24.415499,-21.504618,-25.238903,-21.392016,-26.058459,-21.246725,-26.872855,-21.068975,-27.680788,-20.859053,-28.480965,-20.617293,-29.272106,-20.344083,-30.052943,-20.039860,-30.822228,-19.705111,-31.578729,-19.340372,-32.321236,-18.955234,-33.031934,-18.942626,-33.046515,-18.911917,-33.139100,
-18.912628,-33.148905,-18.904235,-33.153039,-18.839883,-33.226346,-18.833763,-33.244345,-18.417335,-33.932752,-17.963514,-34.619572,-17.482674,-35.287754,-16.975581,-35.936238,-16.443040,-36.563991,-15.885898,-37.170017,-15.305041,-37.753351,-14.701391,-38.313067,-14.075909,-38.848274,-13.429589,-39.358122,-12.763458,-39.841800,-12.078576,-40.298539,-11.391950,-40.717892,-11.373974,-40.724089,-11.323420,-40.768851,-11.260503,-40.790319,
-11.246083,-40.803005,-10.534919,-41.196378,-9.791802,-41.569543,-9.034400,-41.912789,-8.263916,-42.225569,-7.481577,-42.507386,-6.688625,-42.757792,-5.886322,-42.976389,-5.075942,-43.162830,-4.258774,-43.316818,-3.436117,-43.438109,-2.609279,-43.526509,-1.779575,-43.581878,-0.967154,-43.603624,-0.948294,-43.600006,-0.882528,-43.613555,-0.817192,-43.600711,-0.798102,-43.604553,0.018189,-43.590050,0.852317,-43.541806,
1.683848,-43.460238,2.511452,-43.345476,3.333802,-43.197704,4.149584,-43.017158,4.957492,-42.804126,5.756233,-42.558951,6.544528,-42.282025,7.321116,-41.973790,8.084753,-41.634740,8.834219,-41.265417,9.551530,-40.875536,9.566243,-40.862781,9.602772,-40.850614,9.631752,-40.825323,9.650258,-40.819091,10.356008,-40.395040,11.060368,-39.932775,11.745806,-39.442891,12.411241,-38.926161,13.055621,-38.383402,
13.677929,-37.815471,14.277181,-37.223264,14.852433,-36.607717,15.402775,-35.969802,15.927339,-35.310525,16.425296,-34.630929,16.895860,-33.932085,17.328228,-33.231401,17.334679,-33.212969,17.365775,-33.178176,17.381094,-33.133346,17.393984,-33.118707,17.793933,-32.396386,18.173363,-31.641601,18.522403,-30.872290,18.840498,-30.089677,19.127142,-29.295005,19.381881,-28.489539,19.604308,-27.674558,19.794070,-26.851358,
19.950866,-26.021247,20.074446,-25.185546,20.164614,-24.345583,20.221227,-23.502694,20.243674,-22.677347,20.240007,-22.658187,20.252351,-22.598398,20.240556,-22.538546,20.244402,-22.519389,20.229396,-21.692737,20.180336,-20.848206,20.097649,-20.006301,19.981467,-19.168362,19.831974,-18.335721,19.649408,-17.509700,19.434059,-16.691614,19.186270,-15.882763,18.906434,-15.084432,18.594995,-14.297891,18.252451,-13.524390,
17.879344,-12.765159,17.485402,-12.038259,17.472621,-12.023477,17.456978,-11.976309,17.424579,-11.939079,17.418296,-11.920335,16.990618,-11.206631,16.524015,-10.494445,16.029207,-9.801558,15.506991,-9.129086,14.958207,-8.478114,14.383741,-7.849690,13.784518,-7.244826,13.161504,-6.664498,12.515702,-6.109640,11.848153,-5.581146,11.159932,-5.079867,10.452148,-4.606612,9.742482,-4.172266,9.723799,-4.165808,
9.665606,-4.114199,9.592657,-4.089404,9.577847,-4.076405,8.850390,-3.675085,8.090280,-3.294325,7.315642,-2.944064,6.527700,-2.624855,5.727699,-2.337203,4.916900,-2.081561,4.096586,-1.858334,3.268050,-1.667874,2.432602,-1.510481,1.591560,-1.386404,0.746253,-1.295839,-0.101985,-1.238930,-0.932492,-1.216292,-0.951845,-1.219993,-1.010787,-1.207816,-1.070245,-1.219616,-1.089543,-1.215769,
-1.926411,-1.231974,-2.781250,-1.282439,-3.633421,-1.366713,-4.481587,-1.484663,-5.324417,-1.636103,-6.160590,-1.820796,-6.988795,-2.038453,-7.807731,-2.288732,-8.616116,-2.571241,-9.412681,-2.885537,-10.196177,-3.231126,-10.965374,-3.607467,-11.702080,-4.004807,-11.716990,-4.017643,-11.754400,-4.029961,-11.784323,-4.055981,-11.803319,-4.062340,-12.526704,-4.495433,-13.248566,-4.967971,-13.950883,-5.469097,
-14.632524,-5.998005,-15.292389,-6.553842,-15.929416,-7.135713,-16.542578,-7.742680,-17.130887,-8.373765,-17.693396,-9.027952,-18.229198,-9.704187,-18.737430,-10.401379,-19.217273,-11.118406,-19.657690,-11.837357,-19.664241,-11.856286,-19.702865,-11.899804,-19.721605,-11.954862,-19.734814,-11.969899,-20.142672,-12.708485,-20.529665,-13.480243,-20.885692,-14.266766,-21.210189,-15.066813,-21.502644,-15.879120,-21.762597,-16.702405,
-21.989635,-17.535368,-22.183401,-18.376693,-22.343589,-19.225053,-22.469946,-20.079106,-22.562272,-20.937506,-22.620421,-21.798895,-22.643759,-22.642291,-22.640008,-22.661949,-22.650564,-22.712940,-22.640436,-22.764348,-22.644380,-22.783988,-22.629024,-23.631634,-22.578751,-24.497613,-22.493997,-25.360899,-22.374897,-26.220120,-22.221640,-27.073911,-22.034469,-27.920913,-21.813683,-28.759781,-21.559632,-29.589181,-21.272721,-30.407795,
-20.953404,-31.214320,-20.602191,-32.007475,-20.219638,-32.785999,-19.815717,-33.531379,-19.802617,-33.546531,-19.774847,-33.630274,-19.716700,-33.696492,-19.710240,-33.715483,-19.272465,-34.439031,-18.795443,-35.161033,-18.290113,-35.863513,-17.757273,-36.545363,-17.197764,-37.205504,-16.612470,-37.842896,-16.002315,-38.456531,-15.368262,-39.045440,-14.711313,-39.608694,-14.032505,-40.145403,-13.332909,-40.654720,-12.613632,-41.135840,
-11.892586,-41.577721,-11.873631,-41.584290,-11.821780,-41.630347,-11.756380,-41.652615,-11.741205,-41.665948,-10.995655,-42.077768,-10.216619,-42.468528,-9.422673,-42.828028,-8.615072,-43.155702,-7.795090,-43.451031,-6.964023,-43.713550,-6.123181,-43.942844,-5.273894,-44.138550,-4.417502,-44.300361,-3.555358,-44.428020,-2.688822,-44.521325,-1.819264,-44.580131,-0.967863,-44.603792,-0.948022,-44.600008,-0.935439,-44.602615,
-0.922641,-44.600121,-0.902639,-44.604181,-0.039133,-44.590351,0.843127,-44.540991,1.722718,-44.456500,2.598242,-44.337013,3.468306,-44.182719,4.331528,-43.993864,5.186536,-43.770749,6.031970,-43.513727,6.866486,-43.223207,7.688758,-42.899652,8.497477,-42.543575,9.291360,-42.155542,10.051522,-41.745673,10.066988,-41.732358,10.085796,-41.726165,10.100935,-41.713021,10.120436,-41.706509,10.863198,-41.262581,
11.604429,-40.778169,12.325622,-40.264400,13.025616,-39.722103,13.703282,-39.152150,14.357530,-38.555460,14.987304,-37.932995,15.591590,-37.285758,16.169414,-36.614791,16.719846,-35.921175,17.241998,-35.206028,17.735030,-34.470503,18.187598,-33.732974,18.194337,-33.713550,18.237297,-33.665222,18.258044,-33.604759,18.271608,-33.589395,18.690357,-32.835162,19.087546,-32.046776,19.452775,-31.243085,19.785456,-30.425384,
20.085054,-29.594991,20.351085,-28.753244,20.583121,-27.901498,20.780788,-27.041127,20.943768,-26.173516,21.071797,-25.300063,21.164670,-24.422176,21.222237,-23.541269,21.243900,-22.678861,21.240003,-22.658739,21.248600,-22.616631,21.240536,-22.575118,21.244653,-22.554892,21.231116,-21.686223,21.181601,-20.798581,21.096503,-19.913641,20.975959,-19.032828,20.820164,-18.157564,20.629369,-17.289256,20.403880,-16.429305,
20.144062,-15.579096,19.850332,-14.739999,19.523165,-13.913366,19.163087,-13.100529,18.770678,-12.302797,18.356232,-11.539252,18.342719,-11.523648,18.311975,-11.431190,18.248376,-11.358703,18.241801,-11.339350,17.794294,-10.599135,17.306585,-9.860616,16.789824,-9.142125,16.244832,-8.444806,15.672476,-7.769766,15.073665,-7.118079,14.449351,-6.490781,13.800528,-5.888868,13.128226,-5.313298,12.433514,-4.764986,
11.717497,-4.244804,10.981313,-3.753578,10.243243,-3.302546,10.223918,-3.295878,10.155887,-3.235611,10.071430,-3.206867,10.056079,-3.193383,9.299607,-2.775725,8.509178,-2.379556,7.703592,-2.015193,6.884129,-1.683215,6.052090,-1.384149,5.208797,-1.118469,4.355588,-0.886599,3.493819,-0.688905,2.624858,-0.525702,1.750084,-0.397249,0.870888,-0.303749,0.014700,-0.247076,0.000000,-0.250000,
-0.005746,-0.248857,-0.011539,-0.249734,-0.053391,-0.239380,-0.095671,-0.230970,-0.100543,-0.227715,-0.106229,-0.226308,-0.140925,-0.200732,-0.176777,-0.176777,-0.180031,-0.171907,-0.184748,-0.168430,-0.207021,-0.131513,-0.230970,-0.095671,-0.232113,-0.089924,-0.235139,-0.084909,-0.241589,-0.042284,-0.242664,-0.036878,-0.250000,0.000000,-0.248857,0.005746,-0.249734,0.011539,-0.239380,0.053391,
-0.230970,0.095671,-0.227715,0.100543,-0.226308,0.106229,-0.200728,0.140931,-0.176777,0.176777,-0.171907,0.180031,-0.168430,0.184748,-0.131513,0.207021,-0.095671,0.230970,-0.089924,0.232113,-0.084909,0.235139,-0.042289,0.241588,0.000000,0.250000,0.005746,0.248857,0.005746,0.248857,$1*%
G04 Aperture macros list end*
%TA.AperFunction,ComponentPad*%
%ADD10C,1.820000*%
%TD*%
%TA.AperFunction,ComponentPad*%
%ADD11C,0.500000*%
%TD*%
%TA.AperFunction,SMDPad,CuDef*%
%ADD12R,1.900000X0.500000*%
%TD*%
%TA.AperFunction,SMDPad,CuDef*%
%ADD13FreePoly0,0.000000*%
%TD*%
%TA.AperFunction,ViaPad*%
%ADD14C,0.800000*%
%TD*%
%TA.AperFunction,Conductor*%
%ADD15C,0.250000*%
%TD*%
%TA.AperFunction,Conductor*%
%ADD16C,0.500000*%
%TD*%
G04 APERTURE END LIST*
D10*
%TO.P,D2,*%
%TO.N,*%
X112500000Y-100000000D03*
%TD*%
%TO.P,D3,*%
%TO.N,*%
X112500000Y-95000000D03*
%TD*%
%TO.P,D1,*%
%TO.N,*%
X112500000Y-105000000D03*
%TD*%
D11*
%TO.P,A1,*%
%TO.N,*%
X99050000Y-77590000D03*
X100950000Y-77590000D03*
X97480000Y-79690000D03*
D12*
X100000000Y-77590000D03*
D13*
X100950000Y-77590000D03*
%TD*%
D14*
%TO.N,GND*%
X96200000Y-104200000D03*
%TO.N,Net-(J3-Pad5)*%
X106700000Y-105600000D03*
X104834502Y-105600000D03*
%TO.N,GND*%
X104400000Y-99860000D03*
X93000000Y-100134500D03*
X101000000Y-97600000D03*
X105514175Y-97403682D03*
X100000000Y-89385000D03*
X100000000Y-96600000D03*
X109000000Y-103830000D03*
X99000000Y-95560000D03*
X99000000Y-97560000D03*
X97053825Y-99939076D03*
X104250000Y-91750000D03*
X106175000Y-92060000D03*
X109000000Y-99535500D03*
X109000000Y-102135000D03*
X101000000Y-95560000D03*
X112250000Y-102500000D03*
X95950000Y-94735000D03*
%TO.N,+3V3*%
X97350000Y-91760000D03*
X107100000Y-92960000D03*
X92549500Y-102990016D03*
X92200000Y-89410000D03*
X107100000Y-100459989D03*
X107100000Y-102460000D03*
X99522431Y-91240773D03*
%TO.N,+5V*%
X105250000Y-92660000D03*
X109000000Y-90935000D03*
X100000000Y-104250000D03*
X105250000Y-90935000D03*
%TO.N,Net-(D2-Pad2)*%
X109013557Y-96242734D03*
X110799502Y-90500000D03*
%TO.N,Net-(C9-Pad1)*%
X94200000Y-90260000D03*
X96424500Y-92484500D03*
%TD*%
D15*
%TO.N,Net-(D2-Pad2)*%
X109013557Y-96242734D02*
X109013557Y-94811652D01*
X110799516Y-90500014D02*
G75*
G03*
X109013557Y-94811652I4311684J-4311686D01*
G01*
%TO.N,GND*%
X112250000Y-102500000D02*
X109000000Y-102500000D01*
X109000000Y-102135000D02*
X109000000Y-102500000D01*
X109000000Y-102500000D02*
X109000000Y-103830000D01*
%TO.N,+3V3*%
X92000016Y-103300000D02*
G75*
G02*
X92309984Y-102990016I309984J0D01*
G01*
X93636727Y-104936700D02*
G75*
G02*
X92000000Y-103300000I-27J1636700D01*
G01*
X107100000Y-103400000D02*
X107100000Y-102460000D01*
X93636727Y-104936727D02*
X105563273Y-104936727D01*
X107100027Y-103400000D02*
G75*
G02*
X105563273Y-104936727I-1536727J0D01*
G01*
X92549500Y-102990016D02*
X92309984Y-102990016D01*
%TO.N,Net-(J3-Pad5)*%
X104834502Y-105600000D02*
X106700000Y-105600000D01*
%TO.N,GND*%
X109000000Y-102135000D02*
X109000000Y-99535500D01*
D16*
X100499501Y-90953770D02*
X100499501Y-92249073D01*
X100750000Y-95560000D02*
X101000000Y-95560000D01*
X100000000Y-89385000D02*
X100000000Y-89747868D01*
X100250000Y-92851421D02*
X100250000Y-95060000D01*
X100149991Y-90110009D02*
G75*
G02*
X100000000Y-89747868I362109J362109D01*
G01*
X100499513Y-90953770D02*
G75*
G03*
X100150000Y-90110000I-1193313J-30D01*
G01*
X100350008Y-92610008D02*
G75*
G03*
X100499501Y-92249073I-360908J360908D01*
G01*
X100750000Y-95560000D02*
G75*
G02*
X100250000Y-95060000I0J500000D01*
G01*
X100250009Y-92851421D02*
G75*
G02*
X100350000Y-92610000I341391J21D01*
G01*
D15*
%TO.N,+3V3*%
X97350000Y-91760000D02*
X95900000Y-91760000D01*
X94000000Y-89410000D02*
X92200000Y-89410000D01*
X107100000Y-100459989D02*
X107100000Y-92960000D01*
X107100000Y-102460000D02*
X107100000Y-100459989D01*
X97350000Y-91760000D02*
X99003204Y-91760000D01*
X95000000Y-90410000D02*
X95000000Y-90860000D01*
X94000000Y-89410000D02*
G75*
G02*
X95000000Y-90410000I0J-1000000D01*
G01*
X99522400Y-91240773D02*
G75*
G02*
X99003204Y-91760000I-519200J-27D01*
G01*
X95000000Y-90860000D02*
G75*
G03*
X95900000Y-91760000I900000J0D01*
G01*
%TO.N,+5V*%
X105250000Y-90935000D02*
X109000000Y-90935000D01*
D16*
X102250000Y-95660000D02*
X102250000Y-101500000D01*
X102250000Y-102000000D02*
X102250000Y-101500000D01*
X102250000Y-95660000D02*
G75*
G02*
X105250000Y-92660000I3000000J0D01*
G01*
X102250000Y-102000000D02*
G75*
G02*
X100000000Y-104250000I-2250000J0D01*
G01*
D15*
%TO.N,Net-(C9-Pad1)*%
X95877378Y-92482622D02*
X96422622Y-92482622D01*
X94200000Y-90260000D02*
X94200000Y-90805244D01*
X96422622Y-92482622D02*
X96424500Y-92484500D01*
X95877378Y-92482600D02*
G75*
G02*
X94200000Y-90805244I22J1677400D01*
G01*
%TD*%
%TA.AperFunction,Conductor*%
%TO.N,GND*%
G36*
X104270575Y-90480002D02*
G01*
X104285693Y-90491410D01*
X104563740Y-90736092D01*
X104601665Y-90796111D01*
X104605423Y-90847128D01*
X104596703Y-90913365D01*
X104594758Y-90928138D01*
X104612035Y-91084633D01*
X104666143Y-91232490D01*
X104670380Y-91238796D01*
X104670382Y-91238799D01*
X104691396Y-91270071D01*
X104753958Y-91363172D01*
X104870410Y-91469135D01*
X104877085Y-91472759D01*
X105002099Y-91540637D01*
X105002101Y-91540638D01*
X105008776Y-91544262D01*
X105016125Y-91546190D01*
X105153719Y-91582287D01*
X105153721Y-91582287D01*
X105161069Y-91584215D01*
X105244380Y-91585524D01*
X105310898Y-91586569D01*
X105310901Y-91586569D01*
X105318495Y-91586688D01*
X105325899Y-91584992D01*
X105325901Y-91584992D01*
X105444538Y-91557821D01*
X105490458Y-91560601D01*
X105490584Y-91558933D01*
X105499556Y-91559609D01*
X105500000Y-91560000D01*
X106447810Y-91560000D01*
X106515931Y-91580002D01*
X106536905Y-91596905D01*
X106963095Y-92023095D01*
X106997121Y-92085407D01*
X107000000Y-92112190D01*
X107000000Y-92215660D01*
X106979998Y-92283781D01*
X106926342Y-92330274D01*
X106903415Y-92338178D01*
X106878974Y-92344046D01*
X106878968Y-92344048D01*
X106871588Y-92345820D01*
X106731679Y-92418032D01*
X106725957Y-92423024D01*
X106725955Y-92423025D01*
X106618759Y-92516538D01*
X106618756Y-92516541D01*
X106613034Y-92521533D01*
X106608667Y-92527747D01*
X106537467Y-92629054D01*
X106522501Y-92650348D01*
X106465309Y-92797039D01*
X106444758Y-92953138D01*
X106462035Y-93109633D01*
X106516143Y-93257490D01*
X106520380Y-93263796D01*
X106520382Y-93263799D01*
X106549605Y-93307287D01*
X106603958Y-93388172D01*
X106609573Y-93393281D01*
X106609578Y-93393287D01*
X106683300Y-93460369D01*
X106720222Y-93521009D01*
X106724500Y-93553562D01*
X106724500Y-98874000D01*
X106704498Y-98942121D01*
X106650842Y-98988614D01*
X106598500Y-99000000D01*
X104400000Y-99000000D01*
X104400000Y-99160000D01*
X106598500Y-99160000D01*
X106666621Y-99180002D01*
X106713114Y-99233658D01*
X106724500Y-99286000D01*
X106724500Y-99866995D01*
X106704498Y-99935116D01*
X106681331Y-99961942D01*
X106613034Y-100021522D01*
X106608667Y-100027736D01*
X106550292Y-100110795D01*
X106522501Y-100150337D01*
X106465309Y-100297028D01*
X106444758Y-100453127D01*
X106462035Y-100609622D01*
X106516143Y-100757479D01*
X106603958Y-100888161D01*
X106609573Y-100893270D01*
X106609578Y-100893276D01*
X106683300Y-100960358D01*
X106720222Y-101020998D01*
X106724500Y-101053551D01*
X106724500Y-101867006D01*
X106704498Y-101935127D01*
X106681331Y-101961953D01*
X106613034Y-102021533D01*
X106608667Y-102027747D01*
X106528828Y-102141346D01*
X106522501Y-102150348D01*
X106465309Y-102297039D01*
X106463349Y-102311928D01*
X106445887Y-102444565D01*
X106444758Y-102453138D01*
X106462035Y-102609633D01*
X106516143Y-102757490D01*
X106520380Y-102763796D01*
X106520382Y-102763799D01*
X106560709Y-102823811D01*
X106603958Y-102888172D01*
X106609573Y-102893281D01*
X106609578Y-102893287D01*
X106683300Y-102960369D01*
X106720222Y-103021009D01*
X106724500Y-103053562D01*
X106724500Y-103360527D01*
X106722949Y-103380237D01*
X106719819Y-103400000D01*
X106721371Y-103409796D01*
X106721371Y-103419709D01*
X106720985Y-103419709D01*
X106721504Y-103434556D01*
X106712347Y-103539224D01*
X106707846Y-103590665D01*
X106704032Y-103612294D01*
X106657348Y-103786520D01*
X106649835Y-103807160D01*
X106573607Y-103970629D01*
X106562626Y-103989649D01*
X106459169Y-104137399D01*
X106445052Y-104154223D01*
X106407464Y-104191810D01*
X106317508Y-104281765D01*
X106300687Y-104295880D01*
X106152923Y-104399343D01*
X106133921Y-104410313D01*
X105970431Y-104486547D01*
X105949805Y-104494054D01*
X105775571Y-104540737D01*
X105753951Y-104544549D01*
X105616799Y-104556546D01*
X105597729Y-104558214D01*
X105582991Y-104557699D01*
X105582991Y-104558098D01*
X105573075Y-104558098D01*
X105563280Y-104556546D01*
X105553486Y-104558097D01*
X105553484Y-104558097D01*
X105551263Y-104558449D01*
X105531555Y-104560000D01*
X101540470Y-104560000D01*
X101472349Y-104539998D01*
X101425856Y-104486342D01*
X101415752Y-104416068D01*
X101445246Y-104351488D01*
X101467557Y-104331239D01*
X101714743Y-104155851D01*
X101717611Y-104153816D01*
X101947962Y-103947962D01*
X102153816Y-103717611D01*
X102332585Y-103465660D01*
X102482020Y-103195278D01*
X102496793Y-103159614D01*
X102598888Y-102913133D01*
X102598888Y-102913132D01*
X102600242Y-102909864D01*
X102685765Y-102613008D01*
X102737512Y-102308444D01*
X102753070Y-102031412D01*
X102754618Y-102017574D01*
X102754689Y-102017152D01*
X102754689Y-102017149D01*
X102755496Y-102012354D01*
X102755647Y-102000000D01*
X102751773Y-101972949D01*
X102750500Y-101955087D01*
X102750500Y-95712576D01*
X102752246Y-95691671D01*
X102754689Y-95677148D01*
X102755496Y-95672354D01*
X102755647Y-95660000D01*
X102753844Y-95647410D01*
X102752802Y-95621943D01*
X102768264Y-95366326D01*
X102770098Y-95351222D01*
X102815534Y-95103288D01*
X102847488Y-95039888D01*
X102908645Y-95003829D01*
X102939470Y-95000000D01*
X105000000Y-95000000D01*
X105000000Y-94760000D01*
X103113958Y-94760000D01*
X103045837Y-94739998D01*
X102999344Y-94686342D01*
X102989240Y-94616068D01*
X102999057Y-94582293D01*
X103033681Y-94505361D01*
X103040745Y-94491903D01*
X103189011Y-94246642D01*
X103197654Y-94234121D01*
X103374397Y-94008524D01*
X103384487Y-93997135D01*
X103587135Y-93794487D01*
X103598524Y-93784397D01*
X103824121Y-93607654D01*
X103836642Y-93599011D01*
X104081903Y-93450745D01*
X104095376Y-93443674D01*
X104111032Y-93436628D01*
X104356716Y-93326054D01*
X104370934Y-93320662D01*
X104644555Y-93235398D01*
X104659328Y-93231757D01*
X104825202Y-93201359D01*
X104895812Y-93208754D01*
X104908024Y-93214558D01*
X105008776Y-93269262D01*
X105016125Y-93271190D01*
X105153719Y-93307287D01*
X105153721Y-93307287D01*
X105161069Y-93309215D01*
X105244380Y-93310524D01*
X105310898Y-93311569D01*
X105310901Y-93311569D01*
X105318495Y-93311688D01*
X105471968Y-93276538D01*
X105612625Y-93205795D01*
X105643160Y-93179716D01*
X105726574Y-93108474D01*
X105726576Y-93108471D01*
X105732348Y-93103542D01*
X105824224Y-92975683D01*
X105882950Y-92829598D01*
X105893025Y-92758809D01*
X105904553Y-92677807D01*
X105904553Y-92677804D01*
X105905134Y-92673723D01*
X105905278Y-92660000D01*
X105886363Y-92503694D01*
X105843996Y-92391573D01*
X105833394Y-92363514D01*
X105833393Y-92363511D01*
X105830710Y-92356412D01*
X105741531Y-92226657D01*
X105639219Y-92135500D01*
X105629648Y-92126972D01*
X105629645Y-92126970D01*
X105623976Y-92121919D01*
X105484831Y-92048245D01*
X105468122Y-92044048D01*
X105339498Y-92011740D01*
X105339496Y-92011740D01*
X105332128Y-92009889D01*
X105324530Y-92009849D01*
X105324528Y-92009849D01*
X105257319Y-92009497D01*
X105174684Y-92009065D01*
X105167305Y-92010837D01*
X105167301Y-92010837D01*
X105028967Y-92044048D01*
X105028963Y-92044049D01*
X105021588Y-92045820D01*
X104881679Y-92118032D01*
X104875957Y-92123024D01*
X104875955Y-92123025D01*
X104829668Y-92163404D01*
X104765327Y-92193091D01*
X104569329Y-92222165D01*
X104569325Y-92222166D01*
X104566263Y-92222620D01*
X104563264Y-92223371D01*
X104563260Y-92223372D01*
X104417257Y-92259944D01*
X104232633Y-92306190D01*
X104229736Y-92307227D01*
X104229728Y-92307229D01*
X104092272Y-92356412D01*
X103908801Y-92422059D01*
X103597885Y-92569111D01*
X103595243Y-92570694D01*
X103595244Y-92570694D01*
X103490777Y-92633309D01*
X103422065Y-92651174D01*
X103354602Y-92629054D01*
X103309807Y-92573972D01*
X103300000Y-92525235D01*
X103300000Y-90586000D01*
X103320002Y-90517879D01*
X103373658Y-90471386D01*
X103426000Y-90460000D01*
X104202454Y-90460000D01*
X104270575Y-90480002D01*
G37*
%TD.AperFunction*%
%TA.AperFunction,Conductor*%
G36*
X93570531Y-89805502D02*
G01*
X93617024Y-89859158D01*
X93627128Y-89929432D01*
X93619805Y-89957264D01*
X93565309Y-90097039D01*
X93544758Y-90253138D01*
X93562035Y-90409633D01*
X93616143Y-90557490D01*
X93620380Y-90563796D01*
X93620382Y-90563799D01*
X93645647Y-90601397D01*
X93703958Y-90688172D01*
X93709577Y-90693285D01*
X93709578Y-90693286D01*
X93781695Y-90758908D01*
X93818618Y-90819549D01*
X93822626Y-90843858D01*
X93828746Y-90937185D01*
X93837702Y-91073779D01*
X93890206Y-91337709D01*
X93976711Y-91592528D01*
X94095735Y-91833876D01*
X94098033Y-91837315D01*
X94178764Y-91958134D01*
X94200000Y-92028137D01*
X94200000Y-94660000D01*
X94300000Y-94660000D01*
X94300000Y-92430448D01*
X94320002Y-92362327D01*
X94373658Y-92315834D01*
X94443932Y-92305730D01*
X94509077Y-92335716D01*
X94518576Y-92344046D01*
X94624997Y-92437374D01*
X94848748Y-92586878D01*
X94852441Y-92588699D01*
X95005407Y-92664134D01*
X95090097Y-92705899D01*
X95183058Y-92737456D01*
X95214502Y-92748130D01*
X95272578Y-92788968D01*
X95299356Y-92854721D01*
X95300000Y-92867443D01*
X95300000Y-93460000D01*
X95307327Y-93466838D01*
X95307327Y-93466839D01*
X95647568Y-93784397D01*
X96050000Y-94160000D01*
X99274000Y-94160000D01*
X99342121Y-94180002D01*
X99388614Y-94233658D01*
X99400000Y-94286000D01*
X99400000Y-99360000D01*
X99500000Y-99360000D01*
X99500000Y-94286000D01*
X99520002Y-94217879D01*
X99573658Y-94171386D01*
X99626000Y-94160000D01*
X101889972Y-94160000D01*
X101958093Y-94180002D01*
X102004586Y-94233658D01*
X102014690Y-94303932D01*
X102008607Y-94328448D01*
X101897760Y-94638246D01*
X101896190Y-94642633D01*
X101890684Y-94664615D01*
X101854731Y-94725833D01*
X101791387Y-94757896D01*
X101768460Y-94760000D01*
X100900000Y-94760000D01*
X100900000Y-95000000D01*
X101663030Y-95000000D01*
X101731151Y-95020002D01*
X101777644Y-95073658D01*
X101787666Y-95144488D01*
X101762154Y-95316477D01*
X101762002Y-95319563D01*
X101762002Y-95319567D01*
X101754072Y-95480998D01*
X101747148Y-95621943D01*
X101746456Y-95636020D01*
X101745804Y-95642408D01*
X101745773Y-95644946D01*
X101744391Y-95653823D01*
X101745555Y-95662725D01*
X101745555Y-95662728D01*
X101748436Y-95684756D01*
X101749500Y-95701093D01*
X101749500Y-101951259D01*
X101748000Y-101970643D01*
X101744391Y-101993823D01*
X101746179Y-102007493D01*
X101746328Y-102008635D01*
X101747071Y-102033959D01*
X101738314Y-102156412D01*
X101732336Y-102239994D01*
X101729778Y-102257785D01*
X101682803Y-102473723D01*
X101680550Y-102484080D01*
X101675488Y-102501323D01*
X101594548Y-102718332D01*
X101587082Y-102734678D01*
X101476090Y-102937944D01*
X101466371Y-102953067D01*
X101327582Y-103138468D01*
X101315809Y-103152054D01*
X101152054Y-103315809D01*
X101138468Y-103327582D01*
X100953067Y-103466371D01*
X100937944Y-103476090D01*
X100734678Y-103587082D01*
X100718326Y-103594550D01*
X100569300Y-103650134D01*
X100501331Y-103675485D01*
X100484082Y-103680549D01*
X100409070Y-103696867D01*
X100338255Y-103691803D01*
X100323328Y-103685102D01*
X100257285Y-103650134D01*
X100234831Y-103638245D01*
X100131515Y-103612294D01*
X100089498Y-103601740D01*
X100089496Y-103601740D01*
X100082128Y-103599889D01*
X100074530Y-103599849D01*
X100074528Y-103599849D01*
X100007319Y-103599497D01*
X99924684Y-103599065D01*
X99917305Y-103600837D01*
X99917301Y-103600837D01*
X99778967Y-103634048D01*
X99778963Y-103634049D01*
X99771588Y-103635820D01*
X99631679Y-103708032D01*
X99625957Y-103713024D01*
X99625955Y-103713025D01*
X99518759Y-103806538D01*
X99518756Y-103806541D01*
X99513034Y-103811533D01*
X99508667Y-103817747D01*
X99434192Y-103923714D01*
X99422501Y-103940348D01*
X99365309Y-104087039D01*
X99364318Y-104094568D01*
X99350668Y-104198250D01*
X99344758Y-104243138D01*
X99362035Y-104399633D01*
X99364258Y-104405709D01*
X99360367Y-104476115D01*
X99318746Y-104533632D01*
X99252636Y-104559517D01*
X99241614Y-104560000D01*
X98126000Y-104560000D01*
X98057879Y-104539998D01*
X98011386Y-104486342D01*
X98000000Y-104434000D01*
X98000000Y-101460000D01*
X97800000Y-101460000D01*
X97800000Y-104434000D01*
X97779998Y-104502121D01*
X97726342Y-104548614D01*
X97674000Y-104560000D01*
X94626000Y-104560000D01*
X94557879Y-104539998D01*
X94511386Y-104486342D01*
X94500000Y-104434000D01*
X94500000Y-101460000D01*
X94300000Y-101460000D01*
X94300000Y-104434000D01*
X94279998Y-104502121D01*
X94226342Y-104548614D01*
X94174000Y-104560000D01*
X93668446Y-104560000D01*
X93648738Y-104558449D01*
X93636721Y-104556546D01*
X93626928Y-104558097D01*
X93617011Y-104558097D01*
X93617011Y-104557904D01*
X93602227Y-104558485D01*
X93509578Y-104551195D01*
X93449304Y-104546452D01*
X93429783Y-104543361D01*
X93256622Y-104501792D01*
X93237825Y-104495684D01*
X93073301Y-104427539D01*
X93055687Y-104418564D01*
X92903851Y-104325521D01*
X92887855Y-104313900D01*
X92752444Y-104198250D01*
X92738463Y-104184269D01*
X92706145Y-104146429D01*
X92622812Y-104048860D01*
X92611191Y-104032865D01*
X92518147Y-103881034D01*
X92509171Y-103863417D01*
X92489425Y-103815747D01*
X92481835Y-103745157D01*
X92513614Y-103681670D01*
X92574671Y-103645442D01*
X92607813Y-103641544D01*
X92608151Y-103641549D01*
X92610398Y-103641585D01*
X92610401Y-103641585D01*
X92617995Y-103641704D01*
X92771468Y-103606554D01*
X92912125Y-103535811D01*
X92980382Y-103477514D01*
X93026074Y-103438490D01*
X93026076Y-103438487D01*
X93031848Y-103433558D01*
X93123724Y-103305699D01*
X93182450Y-103159614D01*
X93197543Y-103053562D01*
X93204053Y-103007823D01*
X93204053Y-103007820D01*
X93204634Y-103003739D01*
X93204702Y-102997270D01*
X93204735Y-102994150D01*
X93204735Y-102994144D01*
X93204778Y-102990016D01*
X93185863Y-102833710D01*
X93130210Y-102686428D01*
X93041031Y-102556673D01*
X92959555Y-102484080D01*
X92929148Y-102456988D01*
X92929145Y-102456986D01*
X92923476Y-102451935D01*
X92784331Y-102378261D01*
X92767622Y-102374064D01*
X92638998Y-102341756D01*
X92638996Y-102341756D01*
X92631628Y-102339905D01*
X92624030Y-102339865D01*
X92624028Y-102339865D01*
X92556819Y-102339513D01*
X92474184Y-102339081D01*
X92466805Y-102340853D01*
X92466801Y-102340853D01*
X92328467Y-102374064D01*
X92328463Y-102374065D01*
X92321088Y-102375836D01*
X92181179Y-102448048D01*
X92175457Y-102453040D01*
X92175455Y-102453041D01*
X92068259Y-102546554D01*
X92068256Y-102546557D01*
X92062534Y-102551549D01*
X92058167Y-102557763D01*
X92029087Y-102599139D01*
X91973552Y-102643370D01*
X91902920Y-102650556D01*
X91839616Y-102618415D01*
X91803738Y-102557150D01*
X91800000Y-102526688D01*
X91800000Y-100926000D01*
X91820002Y-100857879D01*
X91873658Y-100811386D01*
X91926000Y-100800000D01*
X98600000Y-100800000D01*
X98600000Y-100560000D01*
X91926000Y-100560000D01*
X91857879Y-100539998D01*
X91811386Y-100486342D01*
X91800000Y-100434000D01*
X91800000Y-97526000D01*
X91820002Y-97457879D01*
X91873658Y-97411386D01*
X91926000Y-97400000D01*
X97700000Y-97400000D01*
X97700000Y-97200000D01*
X91926000Y-97200000D01*
X91857879Y-97179998D01*
X91811386Y-97126342D01*
X91800000Y-97074000D01*
X91800000Y-92677124D01*
X91804570Y-92643497D01*
X91836624Y-92527747D01*
X92534305Y-90008344D01*
X92573901Y-89946164D01*
X92682348Y-89853542D01*
X92686777Y-89847378D01*
X92686780Y-89847375D01*
X92693536Y-89837973D01*
X92749531Y-89794326D01*
X92795858Y-89785500D01*
X93502410Y-89785500D01*
X93570531Y-89805502D01*
G37*
%TD.AperFunction*%
%TD*%
M02*
