%TF.GenerationSoftware,KiCad,Pcbnew,(5.1.9-0-10_14)*%
%TF.CreationDate,2021-05-08T11:40:12+01:00*%
%TF.ProjectId,PN532,504e3533-322e-46b6-9963-61645f706362,6*%
%TF.SameCoordinates,Original*%
%TF.FileFunction,Copper,L2,Bot*%
%TF.FilePolarity,Positive*%
%FSLAX46Y46*%
G04 Gerber Fmt 4.6, Leading zero omitted, Abs format (unit mm)*
G04 Created by KiCad (PCBNEW (5.1.9-0-10_14)) date 2021-05-08 11:40:12*
%MOMM*%
%LPD*%
G01*
G04 APERTURE LIST*
%TA.AperFunction,EtchedComponent*%
%ADD10C,0.500000*%
%TD*%
%TA.AperFunction,EtchedComponent*%
%ADD11C,0.100000*%
%TD*%
%TA.AperFunction,ComponentPad*%
%ADD12C,0.600000*%
%TD*%
%TA.AperFunction,SMDPad,CuDef*%
%ADD13R,1.550000X1.300000*%
%TD*%
%TA.AperFunction,ComponentPad*%
%ADD14C,2.000000*%
%TD*%
%TA.AperFunction,ComponentPad*%
%ADD15O,1.700000X1.850000*%
%TD*%
%TA.AperFunction,SMDPad,CuDef*%
%ADD16C,0.100000*%
%TD*%
%TA.AperFunction,SMDPad,CuDef*%
%ADD17R,1.000000X1.500000*%
%TD*%
%TA.AperFunction,ComponentPad*%
%ADD18C,0.800000*%
%TD*%
%TA.AperFunction,ComponentPad*%
%ADD19C,1.000000*%
%TD*%
%TA.AperFunction,SMDPad,CuDef*%
%ADD20R,0.200000X0.200000*%
%TD*%
%TA.AperFunction,ComponentPad*%
%ADD21C,1.800000*%
%TD*%
%TA.AperFunction,ComponentPad*%
%ADD22R,1.800000X1.800000*%
%TD*%
%TA.AperFunction,ComponentPad*%
%ADD23O,1.700000X1.700000*%
%TD*%
%TA.AperFunction,ComponentPad*%
%ADD24R,1.700000X1.700000*%
%TD*%
%TA.AperFunction,ComponentPad*%
%ADD25C,1.300000*%
%TD*%
%TA.AperFunction,ComponentPad*%
%ADD26R,1.300000X1.300000*%
%TD*%
%TA.AperFunction,ComponentPad*%
%ADD27C,3.200000*%
%TD*%
%TA.AperFunction,ViaPad*%
%ADD28C,0.800000*%
%TD*%
%TA.AperFunction,Conductor*%
%ADD29C,0.250000*%
%TD*%
%TA.AperFunction,Conductor*%
%ADD30C,0.500000*%
%TD*%
%TA.AperFunction,Conductor*%
%ADD31C,0.254000*%
%TD*%
%TA.AperFunction,Conductor*%
%ADD32C,0.100000*%
%TD*%
G04 APERTURE END LIST*
D10*
%TO.C,A1*%
X130000000Y-83000000D02*
X130000000Y-94000000D01*
X131000000Y-94000000D02*
X131000000Y-83000000D01*
X130000000Y-96000000D02*
X131000000Y-94000000D01*
X130000000Y-107000000D02*
X130000000Y-96000000D01*
X132000000Y-94000000D02*
X132000000Y-83000000D01*
X131000000Y-96000000D02*
X132000000Y-94000000D01*
X131000000Y-107000000D02*
X131000000Y-96000000D01*
X133000000Y-94000000D02*
X133000000Y-83000000D01*
X132000000Y-96000000D02*
X133000000Y-94000000D01*
X132000000Y-107000000D02*
X132000000Y-96000000D01*
X133000000Y-107000000D02*
X133000000Y-96000000D01*
X162000000Y-78000000D02*
X138000000Y-78000000D01*
X167000000Y-83000000D02*
X167000000Y-92000000D01*
X167000000Y-107000000D02*
X167000000Y-98000000D01*
X138000000Y-112000000D02*
X162000000Y-112000000D01*
X162000000Y-77000000D02*
X138000000Y-77000000D01*
X168000000Y-107000000D02*
X168000000Y-83000000D01*
X138000000Y-113000000D02*
X162000000Y-113000000D01*
X162000000Y-114000000D02*
X138000000Y-114000000D01*
X162000000Y-76000000D02*
X138000000Y-76000000D01*
X169000000Y-107000000D02*
X169000000Y-83000000D01*
X162000000Y-75000000D02*
X138000000Y-75000000D01*
X170000000Y-107000000D02*
X170000000Y-83000000D01*
X138000000Y-115000000D02*
X162000000Y-115000000D01*
X162000000Y-115000000D02*
G75*
G03*
X170000000Y-107000000I0J8000000D01*
G01*
X162000000Y-114000000D02*
G75*
G03*
X169000000Y-107000000I0J7000000D01*
G01*
X162000000Y-112000000D02*
G75*
G03*
X167000000Y-107000000I0J5000000D01*
G01*
X162000000Y-113000000D02*
G75*
G03*
X168000000Y-107000000I0J6000000D01*
G01*
X170000000Y-83000000D02*
G75*
G03*
X162000000Y-75000000I-8000000J0D01*
G01*
X169000000Y-83000000D02*
G75*
G03*
X162000000Y-76000000I-7000000J0D01*
G01*
X167000000Y-83000000D02*
G75*
G03*
X162000000Y-78000000I-5000000J0D01*
G01*
X168000000Y-83000000D02*
G75*
G03*
X162000000Y-77000000I-6000000J0D01*
G01*
X138000000Y-75000000D02*
G75*
G03*
X130000000Y-83000000I0J-8000000D01*
G01*
X138000000Y-76000000D02*
G75*
G03*
X131000000Y-83000000I0J-7000000D01*
G01*
X138000000Y-78000000D02*
G75*
G03*
X133000000Y-83000000I0J-5000000D01*
G01*
X138000000Y-77000000D02*
G75*
G03*
X132000000Y-83000000I0J-6000000D01*
G01*
X130000000Y-107000000D02*
G75*
G03*
X138000000Y-115000000I8000000J0D01*
G01*
X131000000Y-107000000D02*
G75*
G03*
X138000000Y-114000000I7000000J0D01*
G01*
X132000000Y-107000000D02*
G75*
G03*
X138000000Y-113000000I6000000J0D01*
G01*
X133000000Y-107000000D02*
G75*
G03*
X138000000Y-112000000I5000000J0D01*
G01*
D11*
%TO.C,JP1*%
G36*
X149900000Y-88900000D02*
G01*
X149400000Y-88900000D01*
X149400000Y-89300000D01*
X149900000Y-89300000D01*
X149900000Y-88900000D01*
G37*
G36*
X149900000Y-89700000D02*
G01*
X149400000Y-89700000D01*
X149400000Y-90100000D01*
X149900000Y-90100000D01*
X149900000Y-89700000D01*
G37*
%TD*%
D12*
%TO.P,A1,~*%
%TO.N,N/C*%
X130000000Y-94000000D03*
X133000000Y-96000000D03*
%TO.P,A1,3*%
%TO.N,Net-(A1-Pad3)*%
X167000000Y-92000000D03*
%TO.P,A1,1*%
%TO.N,Net-(A1-Pad1)*%
X167000000Y-98000000D03*
%TO.P,A1,2*%
%TO.N,GND*%
X169000000Y-95000000D03*
%TD*%
D13*
%TO.P,SW1,2*%
%TO.N,Net-(R10-Pad2)*%
X153975000Y-80750000D03*
%TO.P,SW1,1*%
%TO.N,GND*%
X153975000Y-85250000D03*
X146025000Y-85250000D03*
%TO.P,SW1,2*%
%TO.N,Net-(R10-Pad2)*%
X146025000Y-80750000D03*
D14*
%TO.P,SW1,1*%
%TO.N,GND*%
X146750000Y-85250000D03*
%TO.P,SW1,2*%
%TO.N,Net-(R10-Pad2)*%
X146750000Y-80750000D03*
%TO.P,SW1,1*%
%TO.N,GND*%
X153250000Y-85250000D03*
%TO.P,SW1,2*%
%TO.N,Net-(R10-Pad2)*%
X153250000Y-80750000D03*
%TD*%
D15*
%TO.P,J3,4*%
%TO.N,Net-(J2-Pad4)*%
X153750000Y-103900000D03*
%TO.P,J3,3*%
%TO.N,Net-(J2-Pad3)*%
X151250000Y-103900000D03*
%TO.P,J3,2*%
%TO.N,+5V*%
X148750000Y-103900000D03*
%TO.P,J3,1*%
%TO.N,GND*%
%TA.AperFunction,ComponentPad*%
G36*
G01*
X145400000Y-104575000D02*
X145400000Y-103225000D01*
G75*
G02*
X145650000Y-102975000I250000J0D01*
G01*
X146850000Y-102975000D01*
G75*
G02*
X147100000Y-103225000I0J-250000D01*
G01*
X147100000Y-104575000D01*
G75*
G02*
X146850000Y-104825000I-250000J0D01*
G01*
X145650000Y-104825000D01*
G75*
G02*
X145400000Y-104575000I0J250000D01*
G01*
G37*
%TD.AperFunction*%
%TD*%
%TA.AperFunction,SMDPad,CuDef*%
D16*
%TO.P,JP1,1*%
%TO.N,GND*%
G36*
X149750000Y-88750000D02*
G01*
X150300000Y-88750000D01*
X150300000Y-88750602D01*
X150324534Y-88750602D01*
X150373365Y-88755412D01*
X150421490Y-88764984D01*
X150468445Y-88779228D01*
X150513778Y-88798005D01*
X150557051Y-88821136D01*
X150597850Y-88848396D01*
X150635779Y-88879524D01*
X150670476Y-88914221D01*
X150701604Y-88952150D01*
X150728864Y-88992949D01*
X150751995Y-89036222D01*
X150770772Y-89081555D01*
X150785016Y-89128510D01*
X150794588Y-89176635D01*
X150799398Y-89225466D01*
X150799398Y-89250000D01*
X150800000Y-89250000D01*
X150800000Y-89750000D01*
X150799398Y-89750000D01*
X150799398Y-89774534D01*
X150794588Y-89823365D01*
X150785016Y-89871490D01*
X150770772Y-89918445D01*
X150751995Y-89963778D01*
X150728864Y-90007051D01*
X150701604Y-90047850D01*
X150670476Y-90085779D01*
X150635779Y-90120476D01*
X150597850Y-90151604D01*
X150557051Y-90178864D01*
X150513778Y-90201995D01*
X150468445Y-90220772D01*
X150421490Y-90235016D01*
X150373365Y-90244588D01*
X150324534Y-90249398D01*
X150300000Y-90249398D01*
X150300000Y-90250000D01*
X149750000Y-90250000D01*
X149750000Y-88750000D01*
G37*
%TD.AperFunction*%
D17*
%TO.P,JP1,2*%
%TO.N,Net-(JP1-Pad2)*%
X149000000Y-89500000D03*
%TA.AperFunction,SMDPad,CuDef*%
D16*
%TO.P,JP1,3*%
%TO.N,+3V3*%
G36*
X147700000Y-90249398D02*
G01*
X147675466Y-90249398D01*
X147626635Y-90244588D01*
X147578510Y-90235016D01*
X147531555Y-90220772D01*
X147486222Y-90201995D01*
X147442949Y-90178864D01*
X147402150Y-90151604D01*
X147364221Y-90120476D01*
X147329524Y-90085779D01*
X147298396Y-90047850D01*
X147271136Y-90007051D01*
X147248005Y-89963778D01*
X147229228Y-89918445D01*
X147214984Y-89871490D01*
X147205412Y-89823365D01*
X147200602Y-89774534D01*
X147200602Y-89750000D01*
X147200000Y-89750000D01*
X147200000Y-89250000D01*
X147200602Y-89250000D01*
X147200602Y-89225466D01*
X147205412Y-89176635D01*
X147214984Y-89128510D01*
X147229228Y-89081555D01*
X147248005Y-89036222D01*
X147271136Y-88992949D01*
X147298396Y-88952150D01*
X147329524Y-88914221D01*
X147364221Y-88879524D01*
X147402150Y-88848396D01*
X147442949Y-88821136D01*
X147486222Y-88798005D01*
X147531555Y-88779228D01*
X147578510Y-88764984D01*
X147626635Y-88755412D01*
X147675466Y-88750602D01*
X147700000Y-88750602D01*
X147700000Y-88750000D01*
X148250000Y-88750000D01*
X148250000Y-90250000D01*
X147700000Y-90250000D01*
X147700000Y-90249398D01*
G37*
%TD.AperFunction*%
%TD*%
D18*
%TO.P,TP2,1*%
%TO.N,Net-(L2-Pad2)*%
X160300000Y-94100000D03*
%TD*%
%TO.P,TP1,1*%
%TO.N,Net-(L1-Pad1)*%
X160300000Y-95900000D03*
%TD*%
D19*
%TO.P,U1,41*%
%TO.N,GND*%
X156025000Y-94750000D03*
%TD*%
D20*
%TO.P,U2,~*%
%TO.N,N/C*%
X160000000Y-85000000D03*
X160000000Y-84400000D03*
X160000000Y-84000000D03*
X160000000Y-83400000D03*
X160000000Y-83200000D03*
X160000000Y-82600000D03*
X160000000Y-82200000D03*
X160000000Y-82000000D03*
X160000000Y-81800000D03*
X160000000Y-81600000D03*
X160000000Y-81400000D03*
X160000000Y-81200000D03*
X160000000Y-81000000D03*
X160200000Y-85000000D03*
X160200000Y-84800000D03*
X160200000Y-84400000D03*
X160200000Y-83400000D03*
X160200000Y-83200000D03*
X160200000Y-82800000D03*
X160200000Y-82600000D03*
X160200000Y-82200000D03*
X160200000Y-81000000D03*
X160400000Y-85000000D03*
X160400000Y-84000000D03*
X160400000Y-83200000D03*
X160400000Y-83000000D03*
X160400000Y-82600000D03*
X160400000Y-82200000D03*
X160400000Y-81800000D03*
X160400000Y-81600000D03*
X160400000Y-81400000D03*
X160400000Y-81000000D03*
X160600000Y-84800000D03*
X160600000Y-83600000D03*
X160600000Y-83000000D03*
X160600000Y-82200000D03*
X160600000Y-81800000D03*
X160600000Y-81600000D03*
X160600000Y-81400000D03*
X160600000Y-81000000D03*
X160800000Y-84600000D03*
X160800000Y-84200000D03*
X160800000Y-84000000D03*
X160800000Y-83800000D03*
X160800000Y-83600000D03*
X160800000Y-83000000D03*
X160800000Y-82600000D03*
X160800000Y-82200000D03*
X160800000Y-81800000D03*
X160800000Y-81600000D03*
X160800000Y-81400000D03*
X160800000Y-81000000D03*
X161000000Y-85000000D03*
X161000000Y-84000000D03*
X161000000Y-83600000D03*
X161000000Y-83200000D03*
X161000000Y-82800000D03*
X161000000Y-82600000D03*
X161000000Y-82200000D03*
X161000000Y-81000000D03*
X161200000Y-85000000D03*
X161200000Y-84600000D03*
X161200000Y-84400000D03*
X161200000Y-84200000D03*
X161200000Y-84000000D03*
X161200000Y-83400000D03*
X161200000Y-83200000D03*
X161200000Y-82600000D03*
X161200000Y-82200000D03*
X161200000Y-82000000D03*
X161200000Y-81800000D03*
X161200000Y-81600000D03*
X161200000Y-81400000D03*
X161200000Y-81200000D03*
X161200000Y-81000000D03*
X161400000Y-85000000D03*
X161400000Y-84200000D03*
X161400000Y-83600000D03*
X161400000Y-83400000D03*
X161400000Y-83000000D03*
X161400000Y-82800000D03*
X161400000Y-82600000D03*
X161600000Y-85000000D03*
X161600000Y-84000000D03*
X161600000Y-83800000D03*
X161600000Y-83200000D03*
X161600000Y-83000000D03*
X161600000Y-82800000D03*
X161600000Y-82400000D03*
X161600000Y-82200000D03*
X161600000Y-81800000D03*
X161600000Y-81400000D03*
X161800000Y-84000000D03*
X161800000Y-83800000D03*
X161800000Y-83600000D03*
X161800000Y-83400000D03*
X161800000Y-82600000D03*
X161800000Y-82400000D03*
X161800000Y-81800000D03*
X161800000Y-81400000D03*
X161800000Y-81200000D03*
X161800000Y-81000000D03*
X162000000Y-84200000D03*
X162000000Y-83800000D03*
X162000000Y-83400000D03*
X162000000Y-83000000D03*
X162000000Y-82400000D03*
X162000000Y-82200000D03*
X162000000Y-81600000D03*
X162000000Y-81400000D03*
X162000000Y-81200000D03*
X162000000Y-81000000D03*
X162200000Y-85000000D03*
X162200000Y-84800000D03*
X162200000Y-84600000D03*
X162200000Y-84400000D03*
X162200000Y-83800000D03*
X162200000Y-83200000D03*
X162200000Y-83000000D03*
X162200000Y-82800000D03*
X162200000Y-82400000D03*
X162200000Y-81200000D03*
X162200000Y-81000000D03*
X162400000Y-84600000D03*
X162400000Y-83800000D03*
X162400000Y-83600000D03*
X162400000Y-83400000D03*
X162400000Y-83000000D03*
X162400000Y-82600000D03*
X162400000Y-82400000D03*
X162400000Y-82200000D03*
X162400000Y-82000000D03*
X162400000Y-81800000D03*
X162400000Y-81400000D03*
X162400000Y-81200000D03*
X162400000Y-81000000D03*
X162600000Y-83200000D03*
X162600000Y-83000000D03*
X162600000Y-82600000D03*
X162800000Y-85000000D03*
X162800000Y-84800000D03*
X162800000Y-84600000D03*
X162800000Y-84400000D03*
X162800000Y-84200000D03*
X162800000Y-84000000D03*
X162800000Y-83800000D03*
X162800000Y-83400000D03*
X162800000Y-83000000D03*
X162800000Y-82600000D03*
X162800000Y-82200000D03*
X162800000Y-82000000D03*
X162800000Y-81800000D03*
X162800000Y-81600000D03*
X162800000Y-81400000D03*
X162800000Y-81200000D03*
X162800000Y-81000000D03*
X163000000Y-85000000D03*
X163000000Y-83800000D03*
X163000000Y-83400000D03*
X163000000Y-83000000D03*
X163000000Y-82800000D03*
X163000000Y-82200000D03*
X163000000Y-81000000D03*
X163200000Y-85000000D03*
X163200000Y-84600000D03*
X163200000Y-84400000D03*
X163200000Y-84200000D03*
X163200000Y-83800000D03*
X163200000Y-82800000D03*
X163200000Y-82200000D03*
X163200000Y-81800000D03*
X163200000Y-81600000D03*
X163200000Y-81400000D03*
X163200000Y-81000000D03*
X163400000Y-85000000D03*
X163400000Y-84600000D03*
X163400000Y-84400000D03*
X163400000Y-84200000D03*
X163400000Y-83800000D03*
X163400000Y-83400000D03*
X163400000Y-83200000D03*
X163400000Y-82800000D03*
X163400000Y-82200000D03*
X163400000Y-81800000D03*
X163400000Y-81600000D03*
X163400000Y-81400000D03*
X163400000Y-81000000D03*
X163600000Y-85000000D03*
X163600000Y-84600000D03*
X163600000Y-84400000D03*
X163600000Y-84200000D03*
X163600000Y-83800000D03*
X163600000Y-83200000D03*
X163600000Y-83000000D03*
X163600000Y-82600000D03*
X163600000Y-82200000D03*
X163600000Y-81800000D03*
X163600000Y-81600000D03*
X163600000Y-81400000D03*
X163600000Y-81000000D03*
X163800000Y-85000000D03*
X163800000Y-83800000D03*
X163800000Y-83400000D03*
X163800000Y-82800000D03*
X163800000Y-82200000D03*
X163800000Y-81000000D03*
X164000000Y-85000000D03*
X164000000Y-84800000D03*
X164000000Y-84600000D03*
X164000000Y-84400000D03*
X164000000Y-84200000D03*
X164000000Y-84000000D03*
X164000000Y-83800000D03*
X164000000Y-83400000D03*
X164000000Y-83000000D03*
X164000000Y-82200000D03*
X164000000Y-82000000D03*
X164000000Y-81800000D03*
X164000000Y-81600000D03*
X164000000Y-81400000D03*
X164000000Y-81200000D03*
X164000000Y-81000000D03*
%TD*%
%TO.P,D1,1*%
%TO.N,GND*%
%TA.AperFunction,SMDPad,CuDef*%
G36*
G01*
X137762500Y-93600000D02*
X138237500Y-93600000D01*
G75*
G02*
X138475000Y-93837500I0J-237500D01*
G01*
X138475000Y-94412500D01*
G75*
G02*
X138237500Y-94650000I-237500J0D01*
G01*
X137762500Y-94650000D01*
G75*
G02*
X137525000Y-94412500I0J237500D01*
G01*
X137525000Y-93837500D01*
G75*
G02*
X137762500Y-93600000I237500J0D01*
G01*
G37*
%TD.AperFunction*%
%TO.P,D1,2*%
%TO.N,Net-(D1-Pad2)*%
%TA.AperFunction,SMDPad,CuDef*%
G36*
G01*
X137762500Y-95350000D02*
X138237500Y-95350000D01*
G75*
G02*
X138475000Y-95587500I0J-237500D01*
G01*
X138475000Y-96162500D01*
G75*
G02*
X138237500Y-96400000I-237500J0D01*
G01*
X137762500Y-96400000D01*
G75*
G02*
X137525000Y-96162500I0J237500D01*
G01*
X137525000Y-95587500D01*
G75*
G02*
X137762500Y-95350000I237500J0D01*
G01*
G37*
%TD.AperFunction*%
D21*
X138000000Y-96270000D03*
D22*
%TO.P,D1,1*%
%TO.N,GND*%
X138000000Y-93730000D03*
%TD*%
D23*
%TO.P,J1,2*%
%TO.N,Net-(J1-Pad2)*%
X143000000Y-81730000D03*
D24*
%TO.P,J1,1*%
%TO.N,GND*%
X143000000Y-84270000D03*
%TD*%
D23*
%TO.P,J2,4*%
%TO.N,Net-(J2-Pad4)*%
X153810000Y-107000000D03*
%TO.P,J2,3*%
%TO.N,Net-(J2-Pad3)*%
X151270000Y-107000000D03*
%TO.P,J2,2*%
%TO.N,+5V*%
X148730000Y-107000000D03*
D24*
%TO.P,J2,1*%
%TO.N,GND*%
X146190000Y-107000000D03*
%TD*%
%TO.P,D3,1*%
%TO.N,GND*%
%TA.AperFunction,SMDPad,CuDef*%
G36*
G01*
X137762500Y-105600000D02*
X138237500Y-105600000D01*
G75*
G02*
X138475000Y-105837500I0J-237500D01*
G01*
X138475000Y-106412500D01*
G75*
G02*
X138237500Y-106650000I-237500J0D01*
G01*
X137762500Y-106650000D01*
G75*
G02*
X137525000Y-106412500I0J237500D01*
G01*
X137525000Y-105837500D01*
G75*
G02*
X137762500Y-105600000I237500J0D01*
G01*
G37*
%TD.AperFunction*%
%TO.P,D3,2*%
%TO.N,Net-(D3-Pad2)*%
%TA.AperFunction,SMDPad,CuDef*%
G36*
G01*
X137762500Y-107350000D02*
X138237500Y-107350000D01*
G75*
G02*
X138475000Y-107587500I0J-237500D01*
G01*
X138475000Y-108162500D01*
G75*
G02*
X138237500Y-108400000I-237500J0D01*
G01*
X137762500Y-108400000D01*
G75*
G02*
X137525000Y-108162500I0J237500D01*
G01*
X137525000Y-107587500D01*
G75*
G02*
X137762500Y-107350000I237500J0D01*
G01*
G37*
%TD.AperFunction*%
D21*
X138000000Y-108270000D03*
D22*
%TO.P,D3,1*%
%TO.N,GND*%
X138000000Y-105730000D03*
%TD*%
D25*
%TO.P,J4,4*%
%TO.N,Net-(J2-Pad4)*%
X151000000Y-96000000D03*
%TO.P,J4,3*%
%TO.N,Net-(J2-Pad3)*%
X149000000Y-96000000D03*
%TO.P,J4,2*%
%TO.N,+5V*%
X151000000Y-94000000D03*
D26*
%TO.P,J4,1*%
%TO.N,GND*%
X149000000Y-94000000D03*
%TD*%
%TO.P,D2,1*%
%TO.N,GND*%
%TA.AperFunction,SMDPad,CuDef*%
G36*
G01*
X137762500Y-99600000D02*
X138237500Y-99600000D01*
G75*
G02*
X138475000Y-99837500I0J-237500D01*
G01*
X138475000Y-100412500D01*
G75*
G02*
X138237500Y-100650000I-237500J0D01*
G01*
X137762500Y-100650000D01*
G75*
G02*
X137525000Y-100412500I0J237500D01*
G01*
X137525000Y-99837500D01*
G75*
G02*
X137762500Y-99600000I237500J0D01*
G01*
G37*
%TD.AperFunction*%
%TO.P,D2,2*%
%TO.N,Net-(D2-Pad2)*%
%TA.AperFunction,SMDPad,CuDef*%
G36*
G01*
X137762500Y-101350000D02*
X138237500Y-101350000D01*
G75*
G02*
X138475000Y-101587500I0J-237500D01*
G01*
X138475000Y-102162500D01*
G75*
G02*
X138237500Y-102400000I-237500J0D01*
G01*
X137762500Y-102400000D01*
G75*
G02*
X137525000Y-102162500I0J237500D01*
G01*
X137525000Y-101587500D01*
G75*
G02*
X137762500Y-101350000I237500J0D01*
G01*
G37*
%TD.AperFunction*%
D21*
X138000000Y-102270000D03*
D22*
%TO.P,D2,1*%
%TO.N,GND*%
X138000000Y-99730000D03*
%TD*%
D27*
%TO.P,H2,1*%
%TO.N,N/C*%
X138000000Y-83000000D03*
%TD*%
%TO.P,H1,1*%
%TO.N,N/C*%
X162000000Y-107000000D03*
%TD*%
D28*
%TO.N,GND*%
X155200000Y-101300000D03*
X160300000Y-89600000D03*
X166100000Y-95000000D03*
X162400000Y-95000000D03*
X151000000Y-88300000D03*
X152200000Y-87600000D03*
X158000000Y-90400000D03*
%TO.N,+3V3*%
X151700000Y-92500000D03*
X150174991Y-100225009D03*
%TO.N,+5V*%
X159200000Y-98700000D03*
%TO.N,Net-(JP1-Pad2)*%
X152177610Y-90752290D03*
%TD*%
D29*
%TO.N,GND*%
X138000000Y-105742500D02*
X138357500Y-105742500D01*
X138000000Y-105800000D02*
X138700000Y-105800000D01*
D30*
X146750000Y-85250000D02*
X146750000Y-87450000D01*
D29*
X145770000Y-84270000D02*
X146750000Y-85250000D01*
X143000000Y-84270000D02*
X145770000Y-84270000D01*
X158262500Y-89737500D02*
X157900000Y-90100000D01*
D30*
X158400000Y-89600000D02*
X157900000Y-90100000D01*
X160300000Y-89600000D02*
X158400000Y-89600000D01*
X153250000Y-85250000D02*
X153250000Y-87150000D01*
X153250000Y-87150000D02*
X153200000Y-87200000D01*
X152100000Y-87200000D02*
X151500000Y-87800000D01*
X153200000Y-87200000D02*
X152100000Y-87200000D01*
X162400000Y-95000000D02*
X157900000Y-95000000D01*
X162750000Y-95000000D02*
X162400000Y-95000000D01*
X165100000Y-95000000D02*
X166100000Y-95000000D01*
X165100000Y-95000000D02*
X162750000Y-95000000D01*
D29*
X139225001Y-94875001D02*
X139225001Y-98504999D01*
X138475000Y-94125000D02*
X139225001Y-94875001D01*
X139225001Y-98504999D02*
X138000000Y-99730000D01*
X138000000Y-94125000D02*
X138475000Y-94125000D01*
X139225001Y-104504999D02*
X138000000Y-105730000D01*
X138000000Y-99730000D02*
X139225001Y-100955001D01*
X139250002Y-103900000D02*
X139225001Y-103925001D01*
X146250000Y-103900000D02*
X139250002Y-103900000D01*
X139225001Y-103925001D02*
X139225001Y-104504999D01*
X139225001Y-100955001D02*
X139225001Y-103925001D01*
X151000000Y-88800000D02*
X150300000Y-89500000D01*
X151000000Y-88300000D02*
X151000000Y-88800000D01*
D30*
X149000000Y-94000000D02*
X149000000Y-92500000D01*
X149000000Y-94000000D02*
X147900000Y-95100000D01*
X147900000Y-102250000D02*
X146250000Y-103900000D01*
X147900000Y-95100000D02*
X147900000Y-102250000D01*
D29*
%TO.N,+3V3*%
X147700000Y-89500000D02*
X147700000Y-90300000D01*
X147700000Y-90300000D02*
X148500000Y-91100000D01*
X148500000Y-91100000D02*
X151500000Y-91100000D01*
X151700000Y-91300000D02*
X151500000Y-91100000D01*
X151700000Y-92500000D02*
X151700000Y-91300000D01*
X151056998Y-92500000D02*
X151700000Y-92500000D01*
X149975001Y-93581997D02*
X151056998Y-92500000D01*
X149975001Y-98924999D02*
X149975001Y-100025019D01*
X149975001Y-98924999D02*
X149975001Y-93581997D01*
X149975001Y-99324999D02*
X149975001Y-100025019D01*
X149975001Y-99324999D02*
X149975001Y-98924999D01*
X149975001Y-100025019D02*
X150174991Y-100225009D01*
X149975001Y-93581997D02*
X149975001Y-100025019D01*
D30*
%TO.N,+5V*%
X148750000Y-104350000D02*
X148750000Y-103900000D01*
X154300000Y-105600000D02*
X150000000Y-105600000D01*
X155300000Y-104600000D02*
X154300000Y-105600000D01*
X157000000Y-104600000D02*
X155300000Y-104600000D01*
X150000000Y-105600000D02*
X148750000Y-104350000D01*
X159200000Y-98700000D02*
X159200000Y-102400000D01*
X159050000Y-102550000D02*
X157000000Y-104600000D01*
X159200000Y-102400000D02*
X159050000Y-102550000D01*
X154313491Y-102550000D02*
X159050000Y-102550000D01*
X152300000Y-102100000D02*
X152724990Y-102524990D01*
X154288481Y-102524990D02*
X154313491Y-102550000D01*
X152724990Y-102524990D02*
X154288481Y-102524990D01*
X152300000Y-95300000D02*
X152300000Y-102100000D01*
X151000000Y-94000000D02*
X152300000Y-95300000D01*
D29*
%TO.N,Net-(J2-Pad3)*%
X149000000Y-101650000D02*
X151250000Y-103900000D01*
X149000000Y-96000000D02*
X149000000Y-101650000D01*
%TO.N,Net-(J2-Pad4)*%
X152986715Y-103900000D02*
X153750000Y-103900000D01*
X151000000Y-101913285D02*
X152986715Y-103900000D01*
X151000000Y-96000000D02*
X151000000Y-101913285D01*
%TO.N,Net-(JP1-Pad2)*%
X149000000Y-90500000D02*
X149075010Y-90575010D01*
X152000330Y-90575010D02*
X152177610Y-90752290D01*
X149000000Y-89500000D02*
X149000000Y-90500000D01*
X149075010Y-90575010D02*
X152000330Y-90575010D01*
%TD*%
D31*
%TO.N,GND*%
X145889956Y-86649814D02*
X146179571Y-86790704D01*
X146491108Y-86872384D01*
X146812595Y-86891718D01*
X147131675Y-86847961D01*
X147436088Y-86742795D01*
X147610044Y-86649814D01*
X147618307Y-86627000D01*
X152381693Y-86627000D01*
X152389956Y-86649814D01*
X152679571Y-86790704D01*
X152991108Y-86872384D01*
X153312595Y-86891718D01*
X153631675Y-86847961D01*
X153936088Y-86742795D01*
X154110044Y-86649814D01*
X154118307Y-86627000D01*
X159373000Y-86627000D01*
X159373000Y-93633391D01*
X159304774Y-93798102D01*
X159265000Y-93998061D01*
X159265000Y-94201939D01*
X159304774Y-94401898D01*
X159373000Y-94566609D01*
X159373000Y-95433391D01*
X159304774Y-95598102D01*
X159265000Y-95798061D01*
X159265000Y-96001939D01*
X159304774Y-96201898D01*
X159373000Y-96366609D01*
X159373000Y-97679135D01*
X159301939Y-97665000D01*
X159098061Y-97665000D01*
X158898102Y-97704774D01*
X158709744Y-97782795D01*
X158540226Y-97896063D01*
X158396063Y-98040226D01*
X158282795Y-98209744D01*
X158204774Y-98398102D01*
X158165000Y-98598061D01*
X158165000Y-98801939D01*
X158204774Y-99001898D01*
X158282795Y-99190256D01*
X158315000Y-99238455D01*
X158315001Y-101665000D01*
X154502205Y-101665000D01*
X154461971Y-101652795D01*
X154331958Y-101639990D01*
X154331950Y-101639990D01*
X154288481Y-101635709D01*
X154245012Y-101639990D01*
X153185000Y-101639990D01*
X153185000Y-95528166D01*
X155426439Y-95528166D01*
X155461550Y-95741588D01*
X155665826Y-95832458D01*
X155883905Y-95881731D01*
X156107406Y-95887511D01*
X156327740Y-95849577D01*
X156536440Y-95769387D01*
X156588450Y-95741588D01*
X156623561Y-95528166D01*
X156025000Y-94929605D01*
X155426439Y-95528166D01*
X153185000Y-95528166D01*
X153185000Y-95343469D01*
X153189281Y-95300000D01*
X153185000Y-95256531D01*
X153185000Y-95256523D01*
X153172195Y-95126510D01*
X153128599Y-94982795D01*
X153121589Y-94959686D01*
X153053557Y-94832406D01*
X154887489Y-94832406D01*
X154925423Y-95052740D01*
X155005613Y-95261440D01*
X155033412Y-95313450D01*
X155246834Y-95348561D01*
X155845395Y-94750000D01*
X156204605Y-94750000D01*
X156803166Y-95348561D01*
X157016588Y-95313450D01*
X157107458Y-95109174D01*
X157156731Y-94891095D01*
X157162511Y-94667594D01*
X157124577Y-94447260D01*
X157044387Y-94238560D01*
X157016588Y-94186550D01*
X156803166Y-94151439D01*
X156204605Y-94750000D01*
X155845395Y-94750000D01*
X155246834Y-94151439D01*
X155033412Y-94186550D01*
X154942542Y-94390826D01*
X154893269Y-94608905D01*
X154887489Y-94832406D01*
X153053557Y-94832406D01*
X153039411Y-94805941D01*
X152956532Y-94704953D01*
X152956530Y-94704951D01*
X152928817Y-94671183D01*
X152895050Y-94643471D01*
X152627000Y-94375421D01*
X152627000Y-93971834D01*
X155426439Y-93971834D01*
X156025000Y-94570395D01*
X156623561Y-93971834D01*
X156588450Y-93758412D01*
X156384174Y-93667542D01*
X156166095Y-93618269D01*
X155942594Y-93612489D01*
X155722260Y-93650423D01*
X155513560Y-93730613D01*
X155461550Y-93758412D01*
X155426439Y-93971834D01*
X152627000Y-93971834D01*
X152627000Y-93000000D01*
X152624560Y-92975224D01*
X152624083Y-92973651D01*
X152695226Y-92801898D01*
X152735000Y-92601939D01*
X152735000Y-92398061D01*
X152695226Y-92198102D01*
X152617205Y-92009744D01*
X152503937Y-91840226D01*
X152460000Y-91796289D01*
X152460000Y-91751396D01*
X152479508Y-91747516D01*
X152667866Y-91669495D01*
X152837384Y-91556227D01*
X152981547Y-91412064D01*
X153094815Y-91242546D01*
X153172836Y-91054188D01*
X153212610Y-90854229D01*
X153212610Y-90650351D01*
X153172836Y-90450392D01*
X153094815Y-90262034D01*
X152981547Y-90092516D01*
X152837384Y-89948353D01*
X152667866Y-89835085D01*
X152479508Y-89757064D01*
X152279549Y-89717290D01*
X152075671Y-89717290D01*
X151875712Y-89757064D01*
X151735819Y-89815010D01*
X150535000Y-89815010D01*
X150535000Y-89700000D01*
X150529166Y-89640495D01*
X150523752Y-89581013D01*
X150523125Y-89578882D01*
X150522907Y-89576661D01*
X150505612Y-89519379D01*
X150499780Y-89499562D01*
X150503034Y-89489050D01*
X150521124Y-89432024D01*
X150521373Y-89429808D01*
X150522030Y-89427684D01*
X150528276Y-89368257D01*
X150534938Y-89308866D01*
X150534968Y-89304596D01*
X150534985Y-89304433D01*
X150534970Y-89304270D01*
X150535000Y-89300000D01*
X150535000Y-88900000D01*
X150529166Y-88840495D01*
X150523752Y-88781013D01*
X150523125Y-88778882D01*
X150522907Y-88776661D01*
X150505612Y-88719379D01*
X150488762Y-88662125D01*
X150487731Y-88660153D01*
X150487087Y-88658020D01*
X150459012Y-88605219D01*
X150431345Y-88552297D01*
X150429951Y-88550563D01*
X150428905Y-88548596D01*
X150391117Y-88502263D01*
X150353690Y-88455714D01*
X150351985Y-88454283D01*
X150350577Y-88452557D01*
X150304527Y-88414461D01*
X150258754Y-88376053D01*
X150256802Y-88374980D01*
X150255087Y-88373561D01*
X150202539Y-88345149D01*
X150150153Y-88316349D01*
X150148029Y-88315675D01*
X150146072Y-88314617D01*
X150089050Y-88296966D01*
X150032024Y-88278876D01*
X150029808Y-88278627D01*
X150027684Y-88277970D01*
X149968257Y-88271724D01*
X149910245Y-88265217D01*
X149854494Y-88219463D01*
X149744180Y-88160498D01*
X149624482Y-88124188D01*
X149500000Y-88111928D01*
X148500000Y-88111928D01*
X148375518Y-88124188D01*
X148375000Y-88124345D01*
X148374482Y-88124188D01*
X148250000Y-88111928D01*
X147700000Y-88111928D01*
X147675550Y-88114336D01*
X147650991Y-88114336D01*
X147526510Y-88126596D01*
X147430377Y-88145718D01*
X147310681Y-88182027D01*
X147220125Y-88219536D01*
X147109808Y-88278502D01*
X147028309Y-88332958D01*
X146931618Y-88412310D01*
X146862310Y-88481618D01*
X146782958Y-88578309D01*
X146728502Y-88659808D01*
X146669536Y-88770125D01*
X146632027Y-88860681D01*
X146595718Y-88980377D01*
X146576596Y-89076510D01*
X146564336Y-89200991D01*
X146564336Y-89225550D01*
X146561928Y-89250000D01*
X146561928Y-89750000D01*
X146564336Y-89774450D01*
X146564336Y-89799009D01*
X146576596Y-89923490D01*
X146595718Y-90019623D01*
X146632027Y-90139319D01*
X146669536Y-90229875D01*
X146728502Y-90340192D01*
X146782958Y-90421691D01*
X146862310Y-90518382D01*
X146931618Y-90587690D01*
X147028309Y-90667042D01*
X147037836Y-90673408D01*
X147065026Y-90724276D01*
X147136201Y-90811002D01*
X147160000Y-90840001D01*
X147188998Y-90863799D01*
X147936201Y-91611002D01*
X147959999Y-91640001D01*
X148075724Y-91734974D01*
X148207753Y-91805546D01*
X148351014Y-91849003D01*
X148462667Y-91860000D01*
X148462677Y-91860000D01*
X148500000Y-91863676D01*
X148537323Y-91860000D01*
X150642125Y-91860000D01*
X150632722Y-91865026D01*
X150516997Y-91959999D01*
X150493199Y-91988997D01*
X149759486Y-92722711D01*
X149650000Y-92711928D01*
X149285750Y-92715000D01*
X149127750Y-92873000D01*
X148872250Y-92873000D01*
X148714250Y-92715000D01*
X148350000Y-92711928D01*
X148225518Y-92724188D01*
X148105820Y-92760498D01*
X147995506Y-92819463D01*
X147930271Y-92873000D01*
X145552606Y-92873000D01*
X145127000Y-92447394D01*
X145127000Y-87052606D01*
X145552606Y-86627000D01*
X145881693Y-86627000D01*
X145889956Y-86649814D01*
%TA.AperFunction,Conductor*%
D32*
G36*
X145889956Y-86649814D02*
G01*
X146179571Y-86790704D01*
X146491108Y-86872384D01*
X146812595Y-86891718D01*
X147131675Y-86847961D01*
X147436088Y-86742795D01*
X147610044Y-86649814D01*
X147618307Y-86627000D01*
X152381693Y-86627000D01*
X152389956Y-86649814D01*
X152679571Y-86790704D01*
X152991108Y-86872384D01*
X153312595Y-86891718D01*
X153631675Y-86847961D01*
X153936088Y-86742795D01*
X154110044Y-86649814D01*
X154118307Y-86627000D01*
X159373000Y-86627000D01*
X159373000Y-93633391D01*
X159304774Y-93798102D01*
X159265000Y-93998061D01*
X159265000Y-94201939D01*
X159304774Y-94401898D01*
X159373000Y-94566609D01*
X159373000Y-95433391D01*
X159304774Y-95598102D01*
X159265000Y-95798061D01*
X159265000Y-96001939D01*
X159304774Y-96201898D01*
X159373000Y-96366609D01*
X159373000Y-97679135D01*
X159301939Y-97665000D01*
X159098061Y-97665000D01*
X158898102Y-97704774D01*
X158709744Y-97782795D01*
X158540226Y-97896063D01*
X158396063Y-98040226D01*
X158282795Y-98209744D01*
X158204774Y-98398102D01*
X158165000Y-98598061D01*
X158165000Y-98801939D01*
X158204774Y-99001898D01*
X158282795Y-99190256D01*
X158315000Y-99238455D01*
X158315001Y-101665000D01*
X154502205Y-101665000D01*
X154461971Y-101652795D01*
X154331958Y-101639990D01*
X154331950Y-101639990D01*
X154288481Y-101635709D01*
X154245012Y-101639990D01*
X153185000Y-101639990D01*
X153185000Y-95528166D01*
X155426439Y-95528166D01*
X155461550Y-95741588D01*
X155665826Y-95832458D01*
X155883905Y-95881731D01*
X156107406Y-95887511D01*
X156327740Y-95849577D01*
X156536440Y-95769387D01*
X156588450Y-95741588D01*
X156623561Y-95528166D01*
X156025000Y-94929605D01*
X155426439Y-95528166D01*
X153185000Y-95528166D01*
X153185000Y-95343469D01*
X153189281Y-95300000D01*
X153185000Y-95256531D01*
X153185000Y-95256523D01*
X153172195Y-95126510D01*
X153128599Y-94982795D01*
X153121589Y-94959686D01*
X153053557Y-94832406D01*
X154887489Y-94832406D01*
X154925423Y-95052740D01*
X155005613Y-95261440D01*
X155033412Y-95313450D01*
X155246834Y-95348561D01*
X155845395Y-94750000D01*
X156204605Y-94750000D01*
X156803166Y-95348561D01*
X157016588Y-95313450D01*
X157107458Y-95109174D01*
X157156731Y-94891095D01*
X157162511Y-94667594D01*
X157124577Y-94447260D01*
X157044387Y-94238560D01*
X157016588Y-94186550D01*
X156803166Y-94151439D01*
X156204605Y-94750000D01*
X155845395Y-94750000D01*
X155246834Y-94151439D01*
X155033412Y-94186550D01*
X154942542Y-94390826D01*
X154893269Y-94608905D01*
X154887489Y-94832406D01*
X153053557Y-94832406D01*
X153039411Y-94805941D01*
X152956532Y-94704953D01*
X152956530Y-94704951D01*
X152928817Y-94671183D01*
X152895050Y-94643471D01*
X152627000Y-94375421D01*
X152627000Y-93971834D01*
X155426439Y-93971834D01*
X156025000Y-94570395D01*
X156623561Y-93971834D01*
X156588450Y-93758412D01*
X156384174Y-93667542D01*
X156166095Y-93618269D01*
X155942594Y-93612489D01*
X155722260Y-93650423D01*
X155513560Y-93730613D01*
X155461550Y-93758412D01*
X155426439Y-93971834D01*
X152627000Y-93971834D01*
X152627000Y-93000000D01*
X152624560Y-92975224D01*
X152624083Y-92973651D01*
X152695226Y-92801898D01*
X152735000Y-92601939D01*
X152735000Y-92398061D01*
X152695226Y-92198102D01*
X152617205Y-92009744D01*
X152503937Y-91840226D01*
X152460000Y-91796289D01*
X152460000Y-91751396D01*
X152479508Y-91747516D01*
X152667866Y-91669495D01*
X152837384Y-91556227D01*
X152981547Y-91412064D01*
X153094815Y-91242546D01*
X153172836Y-91054188D01*
X153212610Y-90854229D01*
X153212610Y-90650351D01*
X153172836Y-90450392D01*
X153094815Y-90262034D01*
X152981547Y-90092516D01*
X152837384Y-89948353D01*
X152667866Y-89835085D01*
X152479508Y-89757064D01*
X152279549Y-89717290D01*
X152075671Y-89717290D01*
X151875712Y-89757064D01*
X151735819Y-89815010D01*
X150535000Y-89815010D01*
X150535000Y-89700000D01*
X150529166Y-89640495D01*
X150523752Y-89581013D01*
X150523125Y-89578882D01*
X150522907Y-89576661D01*
X150505612Y-89519379D01*
X150499780Y-89499562D01*
X150503034Y-89489050D01*
X150521124Y-89432024D01*
X150521373Y-89429808D01*
X150522030Y-89427684D01*
X150528276Y-89368257D01*
X150534938Y-89308866D01*
X150534968Y-89304596D01*
X150534985Y-89304433D01*
X150534970Y-89304270D01*
X150535000Y-89300000D01*
X150535000Y-88900000D01*
X150529166Y-88840495D01*
X150523752Y-88781013D01*
X150523125Y-88778882D01*
X150522907Y-88776661D01*
X150505612Y-88719379D01*
X150488762Y-88662125D01*
X150487731Y-88660153D01*
X150487087Y-88658020D01*
X150459012Y-88605219D01*
X150431345Y-88552297D01*
X150429951Y-88550563D01*
X150428905Y-88548596D01*
X150391117Y-88502263D01*
X150353690Y-88455714D01*
X150351985Y-88454283D01*
X150350577Y-88452557D01*
X150304527Y-88414461D01*
X150258754Y-88376053D01*
X150256802Y-88374980D01*
X150255087Y-88373561D01*
X150202539Y-88345149D01*
X150150153Y-88316349D01*
X150148029Y-88315675D01*
X150146072Y-88314617D01*
X150089050Y-88296966D01*
X150032024Y-88278876D01*
X150029808Y-88278627D01*
X150027684Y-88277970D01*
X149968257Y-88271724D01*
X149910245Y-88265217D01*
X149854494Y-88219463D01*
X149744180Y-88160498D01*
X149624482Y-88124188D01*
X149500000Y-88111928D01*
X148500000Y-88111928D01*
X148375518Y-88124188D01*
X148375000Y-88124345D01*
X148374482Y-88124188D01*
X148250000Y-88111928D01*
X147700000Y-88111928D01*
X147675550Y-88114336D01*
X147650991Y-88114336D01*
X147526510Y-88126596D01*
X147430377Y-88145718D01*
X147310681Y-88182027D01*
X147220125Y-88219536D01*
X147109808Y-88278502D01*
X147028309Y-88332958D01*
X146931618Y-88412310D01*
X146862310Y-88481618D01*
X146782958Y-88578309D01*
X146728502Y-88659808D01*
X146669536Y-88770125D01*
X146632027Y-88860681D01*
X146595718Y-88980377D01*
X146576596Y-89076510D01*
X146564336Y-89200991D01*
X146564336Y-89225550D01*
X146561928Y-89250000D01*
X146561928Y-89750000D01*
X146564336Y-89774450D01*
X146564336Y-89799009D01*
X146576596Y-89923490D01*
X146595718Y-90019623D01*
X146632027Y-90139319D01*
X146669536Y-90229875D01*
X146728502Y-90340192D01*
X146782958Y-90421691D01*
X146862310Y-90518382D01*
X146931618Y-90587690D01*
X147028309Y-90667042D01*
X147037836Y-90673408D01*
X147065026Y-90724276D01*
X147136201Y-90811002D01*
X147160000Y-90840001D01*
X147188998Y-90863799D01*
X147936201Y-91611002D01*
X147959999Y-91640001D01*
X148075724Y-91734974D01*
X148207753Y-91805546D01*
X148351014Y-91849003D01*
X148462667Y-91860000D01*
X148462677Y-91860000D01*
X148500000Y-91863676D01*
X148537323Y-91860000D01*
X150642125Y-91860000D01*
X150632722Y-91865026D01*
X150516997Y-91959999D01*
X150493199Y-91988997D01*
X149759486Y-92722711D01*
X149650000Y-92711928D01*
X149285750Y-92715000D01*
X149127750Y-92873000D01*
X148872250Y-92873000D01*
X148714250Y-92715000D01*
X148350000Y-92711928D01*
X148225518Y-92724188D01*
X148105820Y-92760498D01*
X147995506Y-92819463D01*
X147930271Y-92873000D01*
X145552606Y-92873000D01*
X145127000Y-92447394D01*
X145127000Y-87052606D01*
X145552606Y-86627000D01*
X145881693Y-86627000D01*
X145889956Y-86649814D01*
G37*
%TD.AperFunction*%
%TD*%
M02*
