M48
; DRILL file {KiCad (6.0.5-0)} date Tuesday, 21 June 2022 at 18:01:52
; FORMAT={-:-/ absolute / inch / decimal}
; #@! TF.CreationDate,2022-06-21T18:01:52+01:00
; #@! TF.GenerationSoftware,Kicad,Pcbnew,(6.0.5-0)
; #@! TF.FileFunction,Plated,1,2,PTH
FMAT,2
INCH
; #@! TA.AperFunction,Plated,PTH,ComponentDrill
T1C0.0098
; #@! TA.AperFunction,Plated,PTH,ViaDrill
T2C0.0157
; #@! TA.AperFunction,Plated,PTH,ComponentDrill
T3C0.0335
; #@! TA.AperFunction,Plated,PTH,ComponentDrill
T4C0.0394
; #@! TA.AperFunction,Plated,PTH,ComponentDrill
T5C0.0709
%
G90
G05
T1
X3.8976Y-3.7622
X3.8976Y-3.8409
X3.898Y-3.0446
X3.937Y-3.8016
X3.976Y-3.0446
X3.9764Y-3.7622
X3.9764Y-3.8409
X4.0364Y-3.1278
T2
X3.5984Y-4.0378
X3.6299Y-3.5201
X3.6614Y-3.9423
X3.7087Y-3.5535
X3.7776Y-3.7297
X3.7962Y-3.6411
X3.821Y-3.9346
X3.8327Y-3.6126
X3.9182Y-3.5922
X3.937Y-3.5191
X4.1102Y-3.9315
X4.1437Y-3.5801
X4.1437Y-3.648
X4.1541Y-3.8348
X4.1693Y-4.0772
X4.1801Y-3.6244
X4.2165Y-3.6598
X4.2165Y-3.9551
X4.2165Y-4.0339
X4.2913Y-3.5801
X4.2913Y-3.9187
X4.2913Y-4.0211
X4.2913Y-4.0878
X4.3547Y-3.6685
X4.368Y-3.4458
X4.3701Y-3.9236
X4.3921Y-3.6811
X4.4096Y-3.4458
T3
X3.7894Y-4.152
X3.8878Y-4.152
X3.9862Y-4.152
X4.0846Y-4.152
T4
X4.1913Y-4.2913
X4.2913Y-4.2913
T5
X4.4882Y-3.7402
X4.4882Y-3.937
X4.4882Y-4.1339
T0
M30
