%TF.GenerationSoftware,KiCad,Pcbnew,(5.1.9-0-10_14)*%
%TF.CreationDate,2021-04-25T19:04:12+01:00*%
%TF.ProjectId,PN532,504e3533-322e-46b6-9963-61645f706362,2*%
%TF.SameCoordinates,Original*%
%TF.FileFunction,Legend,Bot*%
%TF.FilePolarity,Positive*%
%FSLAX46Y46*%
G04 Gerber Fmt 4.6, Leading zero omitted, Abs format (unit mm)*
G04 Created by KiCad (PCBNEW (5.1.9-0-10_14)) date 2021-04-25 19:04:12*
%MOMM*%
%LPD*%
G01*
G04 APERTURE LIST*
%ADD10C,0.150000*%
%ADD11C,0.120000*%
%ADD12C,0.200000*%
%ADD13C,0.250000*%
G04 APERTURE END LIST*
D10*
X134661904Y-100833333D02*
X135138095Y-100833333D01*
X134566666Y-100547619D02*
X134900000Y-101547619D01*
X135233333Y-100547619D01*
X146142857Y-89214285D02*
X146333333Y-88547619D01*
X146523809Y-89023809D01*
X146714285Y-88547619D01*
X146904761Y-89214285D01*
X147190476Y-89214285D02*
X147380952Y-88547619D01*
X147571428Y-89023809D01*
X147761904Y-88547619D01*
X147952380Y-89214285D01*
X148238095Y-89214285D02*
X148428571Y-88547619D01*
X148619047Y-89023809D01*
X148809523Y-88547619D01*
X149000000Y-89214285D01*
X149380952Y-88642857D02*
X149428571Y-88595238D01*
X149380952Y-88547619D01*
X149333333Y-88595238D01*
X149380952Y-88642857D01*
X149380952Y-88547619D01*
X149857142Y-88547619D02*
X149857142Y-89214285D01*
X149857142Y-89119047D02*
X149904761Y-89166666D01*
X150000000Y-89214285D01*
X150142857Y-89214285D01*
X150238095Y-89166666D01*
X150285714Y-89071428D01*
X150285714Y-88547619D01*
X150285714Y-89071428D02*
X150333333Y-89166666D01*
X150428571Y-89214285D01*
X150571428Y-89214285D01*
X150666666Y-89166666D01*
X150714285Y-89071428D01*
X150714285Y-88547619D01*
X151571428Y-88595238D02*
X151476190Y-88547619D01*
X151285714Y-88547619D01*
X151190476Y-88595238D01*
X151142857Y-88690476D01*
X151142857Y-89071428D01*
X151190476Y-89166666D01*
X151285714Y-89214285D01*
X151476190Y-89214285D01*
X151571428Y-89166666D01*
X151619047Y-89071428D01*
X151619047Y-88976190D01*
X151142857Y-88880952D01*
X152047619Y-88642857D02*
X152095238Y-88595238D01*
X152047619Y-88547619D01*
X152000000Y-88595238D01*
X152047619Y-88642857D01*
X152047619Y-88547619D01*
X152952380Y-89214285D02*
X152952380Y-88547619D01*
X152523809Y-89214285D02*
X152523809Y-88690476D01*
X152571428Y-88595238D01*
X152666666Y-88547619D01*
X152809523Y-88547619D01*
X152904761Y-88595238D01*
X152952380Y-88642857D01*
X153428571Y-88547619D02*
X153428571Y-89547619D01*
X153523809Y-88928571D02*
X153809523Y-88547619D01*
X153809523Y-89214285D02*
X153428571Y-88833333D01*
X147404761Y-83547619D02*
X147976190Y-83547619D01*
X147690476Y-82547619D02*
X147690476Y-83547619D01*
X148738095Y-82547619D02*
X148738095Y-83071428D01*
X148690476Y-83166666D01*
X148595238Y-83214285D01*
X148404761Y-83214285D01*
X148309523Y-83166666D01*
X148738095Y-82595238D02*
X148642857Y-82547619D01*
X148404761Y-82547619D01*
X148309523Y-82595238D01*
X148261904Y-82690476D01*
X148261904Y-82785714D01*
X148309523Y-82880952D01*
X148404761Y-82928571D01*
X148642857Y-82928571D01*
X148738095Y-82976190D01*
X149214285Y-82547619D02*
X149214285Y-83214285D01*
X149214285Y-83119047D02*
X149261904Y-83166666D01*
X149357142Y-83214285D01*
X149500000Y-83214285D01*
X149595238Y-83166666D01*
X149642857Y-83071428D01*
X149642857Y-82547619D01*
X149642857Y-83071428D02*
X149690476Y-83166666D01*
X149785714Y-83214285D01*
X149928571Y-83214285D01*
X150023809Y-83166666D01*
X150071428Y-83071428D01*
X150071428Y-82547619D01*
X150547619Y-83214285D02*
X150547619Y-82214285D01*
X150547619Y-83166666D02*
X150642857Y-83214285D01*
X150833333Y-83214285D01*
X150928571Y-83166666D01*
X150976190Y-83119047D01*
X151023809Y-83023809D01*
X151023809Y-82738095D01*
X150976190Y-82642857D01*
X150928571Y-82595238D01*
X150833333Y-82547619D01*
X150642857Y-82547619D01*
X150547619Y-82595238D01*
X151833333Y-82595238D02*
X151738095Y-82547619D01*
X151547619Y-82547619D01*
X151452380Y-82595238D01*
X151404761Y-82690476D01*
X151404761Y-83071428D01*
X151452380Y-83166666D01*
X151547619Y-83214285D01*
X151738095Y-83214285D01*
X151833333Y-83166666D01*
X151880952Y-83071428D01*
X151880952Y-82976190D01*
X151404761Y-82880952D01*
X152309523Y-82547619D02*
X152309523Y-83214285D01*
X152309523Y-83023809D02*
X152357142Y-83119047D01*
X152404761Y-83166666D01*
X152500000Y-83214285D01*
X152595238Y-83214285D01*
X154202380Y-109833333D02*
X153726190Y-109500000D01*
X154202380Y-109261904D02*
X153202380Y-109261904D01*
X153202380Y-109642857D01*
X153250000Y-109738095D01*
X153297619Y-109785714D01*
X153392857Y-109833333D01*
X153535714Y-109833333D01*
X153630952Y-109785714D01*
X153678571Y-109738095D01*
X153726190Y-109642857D01*
X153726190Y-109261904D01*
X153202380Y-110166666D02*
X154202380Y-110833333D01*
X153202380Y-110833333D02*
X154202380Y-110166666D01*
X151562267Y-96797969D02*
X151663282Y-97370389D01*
X151158206Y-97202030D02*
X151865312Y-97909137D01*
X152134687Y-97639763D01*
X152168358Y-97538748D01*
X152168358Y-97471404D01*
X152134687Y-97370389D01*
X152033671Y-97269374D01*
X151932656Y-97235702D01*
X151865312Y-97235702D01*
X151764297Y-97269374D01*
X151494923Y-97538748D01*
X152505076Y-97269374D02*
X152269374Y-96090862D01*
X152976480Y-96797969D02*
X151797969Y-96562267D01*
X147074026Y-96848477D02*
X147478087Y-97252538D01*
X147983164Y-96343400D02*
X147276057Y-97050507D01*
X147646446Y-97420896D02*
X148824957Y-97185194D01*
X148117851Y-97892301D02*
X148353553Y-96713790D01*
X153330034Y-93555583D02*
X152387225Y-94026988D01*
X152858629Y-93084179D01*
X151579103Y-93084179D02*
X151579103Y-93151522D01*
X151646446Y-93286209D01*
X151713790Y-93353553D01*
X151848477Y-93420896D01*
X151983164Y-93420896D01*
X152084179Y-93387225D01*
X152252538Y-93286209D01*
X152353553Y-93185194D01*
X152454568Y-93016835D01*
X152488240Y-92915820D01*
X152488240Y-92781133D01*
X152420896Y-92646446D01*
X152353553Y-92579103D01*
X152218866Y-92511759D01*
X152151522Y-92511759D01*
X150871996Y-92377072D02*
X150871996Y-92444416D01*
X150939339Y-92579103D01*
X151006683Y-92646446D01*
X151141370Y-92713790D01*
X151276057Y-92713790D01*
X151377072Y-92680118D01*
X151545431Y-92579103D01*
X151646446Y-92478087D01*
X151747461Y-92309729D01*
X151781133Y-92208713D01*
X151781133Y-92074026D01*
X151713790Y-91939339D01*
X151646446Y-91871996D01*
X151511759Y-91804652D01*
X151444416Y-91804652D01*
X147814805Y-93892301D02*
X147781133Y-93993316D01*
X147680118Y-94094331D01*
X147545431Y-94161675D01*
X147410744Y-94161675D01*
X147309729Y-94128003D01*
X147141370Y-94026988D01*
X147040355Y-93925973D01*
X146939339Y-93757614D01*
X146905668Y-93656599D01*
X146905668Y-93521912D01*
X146973011Y-93387225D01*
X147040355Y-93319881D01*
X147175042Y-93252538D01*
X147242385Y-93252538D01*
X147478087Y-93488240D01*
X147343400Y-93622927D01*
X147478087Y-92882148D02*
X148185194Y-93589255D01*
X147882148Y-92478087D01*
X148589255Y-93185194D01*
X148218866Y-92141370D02*
X148925973Y-92848477D01*
X149094331Y-92680118D01*
X149161675Y-92545431D01*
X149161675Y-92410744D01*
X149128003Y-92309729D01*
X149026988Y-92141370D01*
X148925973Y-92040355D01*
X148757614Y-91939339D01*
X148656599Y-91905668D01*
X148521912Y-91905668D01*
X148387225Y-91973011D01*
X148218866Y-92141370D01*
X135161904Y-95500000D02*
X135066666Y-95547619D01*
X134923809Y-95547619D01*
X134780952Y-95500000D01*
X134685714Y-95404761D01*
X134638095Y-95309523D01*
X134590476Y-95119047D01*
X134590476Y-94976190D01*
X134638095Y-94785714D01*
X134685714Y-94690476D01*
X134780952Y-94595238D01*
X134923809Y-94547619D01*
X135019047Y-94547619D01*
X135161904Y-94595238D01*
X135209523Y-94642857D01*
X135209523Y-94976190D01*
X135019047Y-94976190D01*
X135209523Y-106447619D02*
X134876190Y-106923809D01*
X134638095Y-106447619D02*
X134638095Y-107447619D01*
X135019047Y-107447619D01*
X135114285Y-107400000D01*
X135161904Y-107352380D01*
X135209523Y-107257142D01*
X135209523Y-107114285D01*
X135161904Y-107019047D01*
X135114285Y-106971428D01*
X135019047Y-106923809D01*
X134638095Y-106923809D01*
X148202380Y-108666666D02*
X149202380Y-109000000D01*
X148202380Y-109333333D01*
X149107142Y-110238095D02*
X149154761Y-110190476D01*
X149202380Y-110047619D01*
X149202380Y-109952380D01*
X149154761Y-109809523D01*
X149059523Y-109714285D01*
X148964285Y-109666666D01*
X148773809Y-109619047D01*
X148630952Y-109619047D01*
X148440476Y-109666666D01*
X148345238Y-109714285D01*
X148250000Y-109809523D01*
X148202380Y-109952380D01*
X148202380Y-110047619D01*
X148250000Y-110190476D01*
X148297619Y-110238095D01*
X149107142Y-111238095D02*
X149154761Y-111190476D01*
X149202380Y-111047619D01*
X149202380Y-110952380D01*
X149154761Y-110809523D01*
X149059523Y-110714285D01*
X148964285Y-110666666D01*
X148773809Y-110619047D01*
X148630952Y-110619047D01*
X148440476Y-110666666D01*
X148345238Y-110714285D01*
X148250000Y-110809523D01*
X148202380Y-110952380D01*
X148202380Y-111047619D01*
X148250000Y-111190476D01*
X148297619Y-111238095D01*
X150702380Y-109238095D02*
X150702380Y-109809523D01*
X151702380Y-109523809D02*
X150702380Y-109523809D01*
X150702380Y-110047619D02*
X151702380Y-110714285D01*
X150702380Y-110714285D02*
X151702380Y-110047619D01*
X145750000Y-109238095D02*
X145702380Y-109142857D01*
X145702380Y-109000000D01*
X145750000Y-108857142D01*
X145845238Y-108761904D01*
X145940476Y-108714285D01*
X146130952Y-108666666D01*
X146273809Y-108666666D01*
X146464285Y-108714285D01*
X146559523Y-108761904D01*
X146654761Y-108857142D01*
X146702380Y-109000000D01*
X146702380Y-109095238D01*
X146654761Y-109238095D01*
X146607142Y-109285714D01*
X146273809Y-109285714D01*
X146273809Y-109095238D01*
X146702380Y-109714285D02*
X145702380Y-109714285D01*
X146702380Y-110285714D01*
X145702380Y-110285714D01*
X146702380Y-110761904D02*
X145702380Y-110761904D01*
X145702380Y-111000000D01*
X145750000Y-111142857D01*
X145845238Y-111238095D01*
X145940476Y-111285714D01*
X146130952Y-111333333D01*
X146273809Y-111333333D01*
X146464285Y-111285714D01*
X146559523Y-111238095D01*
X146654761Y-111142857D01*
X146702380Y-111000000D01*
X146702380Y-110761904D01*
D11*
%TO.C,A1*%
X134000000Y-74500000D02*
G75*
G03*
X129500000Y-79000000I0J-4500000D01*
G01*
X129500000Y-111000000D02*
G75*
G03*
X134000000Y-115500000I4500000J0D01*
G01*
X166000000Y-115500000D02*
G75*
G03*
X170500000Y-111000000I0J4500000D01*
G01*
X170500000Y-79000000D02*
G75*
G03*
X166000000Y-74500000I-4500000J0D01*
G01*
X166500000Y-79000000D02*
G75*
G03*
X166000000Y-78500000I-500000J0D01*
G01*
X134000000Y-78500000D02*
G75*
G03*
X133500000Y-79000000I0J-500000D01*
G01*
X133500000Y-111000000D02*
G75*
G03*
X134000000Y-111500000I500000J0D01*
G01*
X166000000Y-111500000D02*
G75*
G03*
X166500000Y-111000000I0J500000D01*
G01*
X170500000Y-79000000D02*
X170500000Y-111000000D01*
X134000000Y-74500000D02*
X166000000Y-74500000D01*
X166000000Y-78500000D02*
X134000000Y-78500000D01*
X166500000Y-111000000D02*
X166500000Y-79000000D01*
X166000000Y-115500000D02*
X134000000Y-115500000D01*
X134000000Y-111500000D02*
X166000000Y-111500000D01*
X129500000Y-111000000D02*
X129500000Y-79000000D01*
X133500000Y-111000000D02*
X133500000Y-79000000D01*
%TO.C,J2*%
X155140000Y-105670000D02*
X155140000Y-108330000D01*
X147460000Y-105670000D02*
X155140000Y-105670000D01*
X147460000Y-108330000D02*
X155140000Y-108330000D01*
X147460000Y-105670000D02*
X147460000Y-108330000D01*
X146190000Y-105670000D02*
X144860000Y-105670000D01*
X144860000Y-105670000D02*
X144860000Y-107000000D01*
%TO.C,D3*%
X136958870Y-108079837D02*
G75*
G03*
X139040961Y-108080000I1041130J1079837D01*
G01*
X136958870Y-105920163D02*
G75*
G02*
X139040961Y-105920000I1041130J-1079837D01*
G01*
X136327665Y-108078608D02*
G75*
G03*
X139560000Y-108235516I1672335J1078608D01*
G01*
X136327665Y-105921392D02*
G75*
G02*
X139560000Y-105764484I1672335J-1078608D01*
G01*
X139560000Y-108080000D02*
X139560000Y-108236000D01*
X139560000Y-105764000D02*
X139560000Y-105920000D01*
D12*
%TO.C,AJK1*%
X159550000Y-96770000D02*
X161608820Y-95005290D01*
X161609000Y-95005300D02*
X161609000Y-93534700D01*
X161608820Y-95005290D02*
X163667650Y-96770000D01*
X164187579Y-93750074D02*
X163667650Y-93534712D01*
X164187579Y-94789938D02*
X164402940Y-94270006D01*
X164402940Y-94270006D02*
X164187579Y-93750074D01*
X159550000Y-95005300D02*
X163667650Y-95005300D01*
X163667650Y-95005300D02*
X164187579Y-94789938D01*
X163667650Y-92064120D02*
X159550000Y-95005300D01*
D11*
%TO.C,D1*%
X136958870Y-96079837D02*
G75*
G03*
X139040961Y-96080000I1041130J1079837D01*
G01*
X136958870Y-93920163D02*
G75*
G02*
X139040961Y-93920000I1041130J-1079837D01*
G01*
X136327665Y-96078608D02*
G75*
G03*
X139560000Y-96235516I1672335J1078608D01*
G01*
X136327665Y-93921392D02*
G75*
G02*
X139560000Y-93764484I1672335J-1078608D01*
G01*
X139560000Y-96080000D02*
X139560000Y-96236000D01*
X139560000Y-93764000D02*
X139560000Y-93920000D01*
%TO.C,D2*%
X136958870Y-102079837D02*
G75*
G03*
X139040961Y-102080000I1041130J1079837D01*
G01*
X136958870Y-99920163D02*
G75*
G02*
X139040961Y-99920000I1041130J-1079837D01*
G01*
X136327665Y-102078608D02*
G75*
G03*
X139560000Y-102235516I1672335J1078608D01*
G01*
X136327665Y-99921392D02*
G75*
G02*
X139560000Y-99764484I1672335J-1078608D01*
G01*
X139560000Y-102080000D02*
X139560000Y-102236000D01*
X139560000Y-99764000D02*
X139560000Y-99920000D01*
%TO.C,A1*%
D13*
X169857142Y-80428571D02*
X166857142Y-80428571D01*
X169857142Y-82142857D01*
X166857142Y-82142857D01*
X168285714Y-84571428D02*
X168285714Y-83571428D01*
X169857142Y-83571428D02*
X166857142Y-83571428D01*
X166857142Y-85000000D01*
X169571428Y-87857142D02*
X169714285Y-87714285D01*
X169857142Y-87285714D01*
X169857142Y-87000000D01*
X169714285Y-86571428D01*
X169428571Y-86285714D01*
X169142857Y-86142857D01*
X168571428Y-86000000D01*
X168142857Y-86000000D01*
X167571428Y-86142857D01*
X167285714Y-86285714D01*
X167000000Y-86571428D01*
X166857142Y-87000000D01*
X166857142Y-87285714D01*
X167000000Y-87714285D01*
X167142857Y-87857142D01*
X169000000Y-91285714D02*
X169000000Y-92714285D01*
X169857142Y-91000000D02*
X166857142Y-92000000D01*
X169857142Y-93000000D01*
X169857142Y-94000000D02*
X166857142Y-94000000D01*
X169857142Y-95714285D01*
X166857142Y-95714285D01*
X166857142Y-96714285D02*
X166857142Y-98428571D01*
X169857142Y-97571428D02*
X166857142Y-97571428D01*
X168285714Y-99428571D02*
X168285714Y-100428571D01*
X169857142Y-100857142D02*
X169857142Y-99428571D01*
X166857142Y-99428571D01*
X166857142Y-100857142D01*
X169857142Y-102142857D02*
X166857142Y-102142857D01*
X169857142Y-103857142D01*
X166857142Y-103857142D01*
X169857142Y-105285714D02*
X166857142Y-105285714D01*
X169857142Y-107000000D01*
X166857142Y-107000000D01*
X169000000Y-108285714D02*
X169000000Y-109714285D01*
X169857142Y-108000000D02*
X166857142Y-109000000D01*
X169857142Y-110000000D01*
X130142857Y-109571428D02*
X133142857Y-109571428D01*
X130142857Y-107857142D01*
X133142857Y-107857142D01*
X131714285Y-105428571D02*
X131714285Y-106428571D01*
X130142857Y-106428571D02*
X133142857Y-106428571D01*
X133142857Y-105000000D01*
X130428571Y-102142857D02*
X130285714Y-102285714D01*
X130142857Y-102714285D01*
X130142857Y-103000000D01*
X130285714Y-103428571D01*
X130571428Y-103714285D01*
X130857142Y-103857142D01*
X131428571Y-104000000D01*
X131857142Y-104000000D01*
X132428571Y-103857142D01*
X132714285Y-103714285D01*
X133000000Y-103428571D01*
X133142857Y-103000000D01*
X133142857Y-102714285D01*
X133000000Y-102285714D01*
X132857142Y-102142857D01*
X131000000Y-98714285D02*
X131000000Y-97285714D01*
X130142857Y-99000000D02*
X133142857Y-98000000D01*
X130142857Y-97000000D01*
X130142857Y-96000000D02*
X133142857Y-96000000D01*
X130142857Y-94285714D01*
X133142857Y-94285714D01*
X133142857Y-93285714D02*
X133142857Y-91571428D01*
X130142857Y-92428571D02*
X133142857Y-92428571D01*
X131714285Y-90571428D02*
X131714285Y-89571428D01*
X130142857Y-89142857D02*
X130142857Y-90571428D01*
X133142857Y-90571428D01*
X133142857Y-89142857D01*
X130142857Y-87857142D02*
X133142857Y-87857142D01*
X130142857Y-86142857D01*
X133142857Y-86142857D01*
X130142857Y-84714285D02*
X133142857Y-84714285D01*
X130142857Y-83000000D01*
X133142857Y-83000000D01*
X131000000Y-81714285D02*
X131000000Y-80285714D01*
X130142857Y-82000000D02*
X133142857Y-81000000D01*
X130142857Y-80000000D01*
X135428571Y-75142857D02*
X135428571Y-78142857D01*
X137142857Y-75142857D01*
X137142857Y-78142857D01*
X139571428Y-76714285D02*
X138571428Y-76714285D01*
X138571428Y-75142857D02*
X138571428Y-78142857D01*
X140000000Y-78142857D01*
X142857142Y-75428571D02*
X142714285Y-75285714D01*
X142285714Y-75142857D01*
X142000000Y-75142857D01*
X141571428Y-75285714D01*
X141285714Y-75571428D01*
X141142857Y-75857142D01*
X141000000Y-76428571D01*
X141000000Y-76857142D01*
X141142857Y-77428571D01*
X141285714Y-77714285D01*
X141571428Y-78000000D01*
X142000000Y-78142857D01*
X142285714Y-78142857D01*
X142714285Y-78000000D01*
X142857142Y-77857142D01*
X146285714Y-76000000D02*
X147714285Y-76000000D01*
X146000000Y-75142857D02*
X147000000Y-78142857D01*
X148000000Y-75142857D01*
X149000000Y-75142857D02*
X149000000Y-78142857D01*
X150714285Y-75142857D01*
X150714285Y-78142857D01*
X151714285Y-78142857D02*
X153428571Y-78142857D01*
X152571428Y-75142857D02*
X152571428Y-78142857D01*
X154428571Y-76714285D02*
X155428571Y-76714285D01*
X155857142Y-75142857D02*
X154428571Y-75142857D01*
X154428571Y-78142857D01*
X155857142Y-78142857D01*
X157142857Y-75142857D02*
X157142857Y-78142857D01*
X158857142Y-75142857D01*
X158857142Y-78142857D01*
X160285714Y-75142857D02*
X160285714Y-78142857D01*
X162000000Y-75142857D01*
X162000000Y-78142857D01*
X163285714Y-76000000D02*
X164714285Y-76000000D01*
X163000000Y-75142857D02*
X164000000Y-78142857D01*
X165000000Y-75142857D01*
X164571428Y-114857142D02*
X164571428Y-111857142D01*
X162857142Y-114857142D01*
X162857142Y-111857142D01*
X160428571Y-113285714D02*
X161428571Y-113285714D01*
X161428571Y-114857142D02*
X161428571Y-111857142D01*
X160000000Y-111857142D01*
X157142857Y-114571428D02*
X157285714Y-114714285D01*
X157714285Y-114857142D01*
X158000000Y-114857142D01*
X158428571Y-114714285D01*
X158714285Y-114428571D01*
X158857142Y-114142857D01*
X159000000Y-113571428D01*
X159000000Y-113142857D01*
X158857142Y-112571428D01*
X158714285Y-112285714D01*
X158428571Y-112000000D01*
X158000000Y-111857142D01*
X157714285Y-111857142D01*
X157285714Y-112000000D01*
X157142857Y-112142857D01*
X153714285Y-114000000D02*
X152285714Y-114000000D01*
X154000000Y-114857142D02*
X153000000Y-111857142D01*
X152000000Y-114857142D01*
X151000000Y-114857142D02*
X151000000Y-111857142D01*
X149285714Y-114857142D01*
X149285714Y-111857142D01*
X148285714Y-111857142D02*
X146571428Y-111857142D01*
X147428571Y-114857142D02*
X147428571Y-111857142D01*
X145571428Y-113285714D02*
X144571428Y-113285714D01*
X144142857Y-114857142D02*
X145571428Y-114857142D01*
X145571428Y-111857142D01*
X144142857Y-111857142D01*
X142857142Y-114857142D02*
X142857142Y-111857142D01*
X141142857Y-114857142D01*
X141142857Y-111857142D01*
X139714285Y-114857142D02*
X139714285Y-111857142D01*
X138000000Y-114857142D01*
X138000000Y-111857142D01*
X136714285Y-114000000D02*
X135285714Y-114000000D01*
X137000000Y-114857142D02*
X136000000Y-111857142D01*
X135000000Y-114857142D01*
%TD*%
M02*
