M48
; DRILL file {KiCad (5.1.9-0-10_14)} date Sunday, April 25, 2021 at 04:58:10 PM
; FORMAT={-:-/ absolute / inch / decimal}
; #@! TF.CreationDate,2021-04-25T16:58:10+01:00
; #@! TF.GenerationSoftware,Kicad,Pcbnew,(5.1.9-0-10_14)
; #@! TF.FileFunction,Plated,1,2,PTH
FMAT,2
INCH
T1C0.0098
T2C0.0157
T3C0.0197
T4C0.0300
T5C0.0335
T6C0.0354
T7C0.0394
T8C0.0433
T9C0.1260
%
G90
G05
T1
X5.1299Y-3.7087
X5.248Y-3.7874
X6.5866Y-3.6299
X6.5866Y-3.8661
X6.6654Y-3.748
T2
X5.6378Y-3.9646
X5.8661Y-3.4488
X5.9488Y-3.4498
X5.9646Y-3.9724
X6.0472Y-3.9724
X6.123Y-3.9724
X6.1417Y-3.2953
X6.2047Y-3.9724
X6.2126Y-3.5315
X6.2205Y-3.2205
X6.2697Y-3.5845
X6.2874Y-3.9291
X6.2953Y-3.5315
X6.374Y-3.7874
X6.4518Y-3.4646
X6.4518Y-4.0315
X6.5315Y-3.748
T3
X6.0955Y-3.6781
X6.0955Y-3.7963
X6.1545Y-3.7372
X6.2136Y-3.6781
X6.2136Y-3.7963
T4
X5.878Y-3.7087
X5.878Y-3.7874
X5.9567Y-3.7087
X5.9567Y-3.7874
T5
X5.7697Y-4.0984
X5.8681Y-4.0984
X5.9665Y-4.0984
X6.065Y-4.0984
T6
X5.3949Y-3.2756
X5.3949Y-3.5118
X5.3949Y-3.748
X5.4949Y-3.2756
X5.4949Y-3.5118
X5.4949Y-3.748
T7
X5.7673Y-4.2205
X5.8673Y-3.2756
X5.8673Y-4.2205
X5.9673Y-3.2756
X5.9673Y-4.2205
X6.0673Y-4.2205
T8
X5.7894Y-3.187
X5.7894Y-3.3642
X6.0453Y-3.187
X6.0453Y-3.3642
T9
X5.4449Y-4.2205
X6.3898Y-3.2756
T0
M30
