%TF.GenerationSoftware,KiCad,Pcbnew,(6.0.5-0)*%
%TF.CreationDate,2022-07-08T15:47:18+01:00*%
%TF.ProjectId,PN532-Round,504e3533-322d-4526-9f75-6e642e6b6963,7*%
%TF.SameCoordinates,Original*%
%TF.FileFunction,Copper,L1,Top*%
%TF.FilePolarity,Positive*%
%FSLAX46Y46*%
G04 Gerber Fmt 4.6, Leading zero omitted, Abs format (unit mm)*
G04 Created by KiCad (PCBNEW (6.0.5-0)) date 2022-07-08 15:47:18*
%MOMM*%
%LPD*%
G01*
G04 APERTURE LIST*
G04 Aperture macros list*
%AMRoundRect*
0 Rectangle with rounded corners*
0 $1 Rounding radius*
0 $2 $3 $4 $5 $6 $7 $8 $9 X,Y pos of 4 corners*
0 Add a 4 corners polygon primitive as box body*
4,1,4,$2,$3,$4,$5,$6,$7,$8,$9,$2,$3,0*
0 Add four circle primitives for the rounded corners*
1,1,$1+$1,$2,$3*
1,1,$1+$1,$4,$5*
1,1,$1+$1,$6,$7*
1,1,$1+$1,$8,$9*
0 Add four rect primitives between the rounded corners*
20,1,$1+$1,$2,$3,$4,$5,0*
20,1,$1+$1,$4,$5,$6,$7,0*
20,1,$1+$1,$6,$7,$8,$9,0*
20,1,$1+$1,$8,$9,$2,$3,0*%
%AMOutline5P*
0 Free polygon, 5 corners , with rotation*
0 The origin of the aperture is its center*
0 number of corners: always 5*
0 $1 to $10 corner X, Y*
0 $11 Rotation angle, in degrees counterclockwise*
0 create outline with 5 corners*
4,1,5,$1,$2,$3,$4,$5,$6,$7,$8,$9,$10,$1,$2,$11*%
%AMOutline6P*
0 Free polygon, 6 corners , with rotation*
0 The origin of the aperture is its center*
0 number of corners: always 6*
0 $1 to $12 corner X, Y*
0 $13 Rotation angle, in degrees counterclockwise*
0 create outline with 6 corners*
4,1,6,$1,$2,$3,$4,$5,$6,$7,$8,$9,$10,$11,$12,$1,$2,$13*%
%AMOutline7P*
0 Free polygon, 7 corners , with rotation*
0 The origin of the aperture is its center*
0 number of corners: always 7*
0 $1 to $14 corner X, Y*
0 $15 Rotation angle, in degrees counterclockwise*
0 create outline with 7 corners*
4,1,7,$1,$2,$3,$4,$5,$6,$7,$8,$9,$10,$11,$12,$13,$14,$1,$2,$15*%
%AMOutline8P*
0 Free polygon, 8 corners , with rotation*
0 The origin of the aperture is its center*
0 number of corners: always 8*
0 $1 to $16 corner X, Y*
0 $17 Rotation angle, in degrees counterclockwise*
0 create outline with 8 corners*
4,1,8,$1,$2,$3,$4,$5,$6,$7,$8,$9,$10,$11,$12,$13,$14,$15,$16,$1,$2,$17*%
%AMFreePoly0*
4,1,794,0.095671,0.230970,0.176777,0.176777,0.230970,0.095671,0.250000,0.000000,0.230970,-0.095671,0.176777,-0.176777,0.095671,-0.230970,0.000000,-0.250000,-0.003557,-0.249293,-0.009235,-0.250703,-0.030202,-0.247550,-0.904482,-0.306499,-1.796344,-0.402978,-2.683577,-0.535429,-3.564730,-0.703636,-4.438365,-0.907323,-5.303052,-1.146159,-6.157377,-1.419752,-6.999945,-1.727656,-7.829379,-2.069366,
-8.644321,-2.444325,-9.443441,-2.851919,-10.207301,-3.281291,-10.223119,-3.295409,-10.240352,-3.301427,-10.253758,-3.313340,-10.273805,-3.320292,-11.020565,-3.778510,-11.765489,-4.278116,-12.489622,-4.807409,-13.191780,-5.365526,-13.870817,-5.951553,-14.525623,-6.564536,-15.155131,-7.203472,-15.758311,-7.867319,-16.334180,-8.554993,-16.881796,-9.265370,-17.400266,-9.997291,-17.888743,-10.749561,-18.335811,-11.503054,
-18.342463,-11.523197,-18.344486,-11.525543,-18.345450,-11.528444,-18.359300,-11.544445,-18.776047,-12.312931,-19.170558,-13.116261,-19.532293,-13.934873,-19.860660,-14.767431,-20.155124,-15.612576,-20.415204,-16.468926,-20.640475,-17.335085,-20.830568,-18.209638,-20.985175,-19.091157,-21.104042,-19.978202,-21.186975,-20.869325,-21.233839,-21.763071,-21.244308,-22.637217,-21.240008,-22.657943,-21.241081,-22.663577,-21.239947,-22.669117,
-21.243933,-22.689752,-21.221474,-23.560492,-21.162372,-24.450177,-21.067256,-25.336735,-20.936282,-26.218709,-20.769666,-27.094650,-20.567681,-27.963117,-20.330659,-28.822683,-20.058990,-29.671934,-19.753121,-30.509477,-19.413554,-31.333932,-19.040847,-32.143946,-18.635614,-32.938187,-18.208623,-33.697384,-18.194628,-33.713055,-18.194330,-33.713908,-18.193746,-33.714565,-18.186922,-33.734231,-17.732846,-34.474016,-17.237976,-35.211877,
-16.713797,-35.929213,-16.161159,-36.624861,-15.580958,-37.297692,-14.974136,-37.946615,-14.341676,-38.570578,-13.684605,-39.168568,-13.003988,-39.739615,-12.300929,-40.282794,-11.576569,-40.797223,-10.832082,-41.282067,-10.086223,-41.726096,-10.066467,-41.732653,-10.056701,-41.741101,-10.044274,-41.745177,-10.028793,-41.758473,-9.268149,-42.167448,-8.473810,-42.554546,-7.664671,-42.909671,-6.842019,-43.232258,-6.007161,-43.521795,
-5.161425,-43.777822,-4.306155,-43.999931,-3.442711,-44.187770,-2.572466,-44.341039,-1.696802,-44.459496,-0.817112,-44.542951,0.065205,-44.591273,0.928728,-44.604087,0.948725,-44.600003,0.958662,-44.601927,0.968719,-44.599834,0.988806,-44.603645,1.848768,-44.578760,2.727047,-44.517999,3.602180,-44.422041,4.472758,-44.291039,5.337376,-44.125204,6.194643,-43.924805,7.043177,-43.690163,7.881611,-43.421657,
8.708593,-43.119720,9.522792,-42.784837,10.322896,-42.417549,11.107615,-42.018447,11.858188,-41.597978,11.873463,-41.584388,11.883588,-41.580870,11.891553,-41.573782,11.910967,-41.567034,12.641026,-41.118401,13.369166,-40.629495,14.077030,-40.111667,14.763469,-39.565756,15.427370,-38.992648,16.067656,-38.393272,16.683287,-37.768600,17.273267,-37.119646,17.836637,-36.447462,18.372485,-35.753138,18.879940,-35.037801,
19.358180,-34.302612,19.796122,-33.566095,19.802588,-33.546581,19.811545,-33.536216,19.815829,-33.523244,19.829070,-33.507891,20.234636,-32.757030,20.618484,-31.972632,20.970544,-31.173462,21.290247,-30.360808,21.577080,-29.535977,21.830580,-28.700300,22.050338,-27.855123,22.236001,-27.001807,22.387269,-26.141728,22.503899,-25.276271,22.585703,-24.406831,22.632548,-23.534808,22.644091,-22.681497,22.640781,-22.665409,
22.640004,-22.661655,22.640006,-22.661643,22.640005,-22.661636,22.640384,-22.659663,22.643800,-22.641759,22.620044,-21.789859,22.560768,-20.919775,22.466622,-20.052770,22.337757,-19.190243,22.174381,-18.333582,21.976758,-17.484167,21.745205,-16.643368,21.480096,-15.812539,21.181858,-14.993018,20.850971,-14.186127,20.487969,-13.393164,20.093436,-12.615409,19.677700,-11.871455,19.664255,-11.856310,19.663782,-11.854944,
19.662831,-11.853873,19.656111,-11.834466,19.212747,-11.111131,18.729307,-10.389562,18.217110,-9.688113,17.676993,-9.007929,17.109838,-8.350121,16.516570,-7.715764,15.898158,-7.105892,15.255612,-6.521503,14.589981,-5.963549,13.902353,-5.432942,13.193849,-4.930549,12.465627,-4.457190,11.736201,-4.023929,11.716698,-4.017478,11.714680,-4.015736,11.712136,-4.014899,11.696854,-4.001750,10.952717,-3.600842,
10.175367,-3.221343,9.383461,-2.873240,8.578265,-2.557090,7.761067,-2.273398,6.933177,-2.022620,6.095919,-1.805156,5.250633,-1.621354,4.398671,-1.471509,3.541398,-1.355860,2.680185,-1.274592,1.816411,-1.227836,0.971235,-1.215945,0.951484,-1.219996,0.950684,-1.219842,0.949879,-1.220008,0.930046,-1.216217,0.088539,-1.239459,-0.771112,-1.297909,-1.627713,-1.390927,-2.479873,-1.518361,
-3.326212,-1.680005,-4.165355,-1.875596,-4.995941,-2.104817,-5.816625,-2.367297,-6.626074,-2.662610,-7.422975,-2.990276,-8.206036,-3.349765,-8.973987,-3.740493,-9.708306,-4.152141,-9.723385,-4.165566,-9.734616,-4.169472,-9.743422,-4.177299,-9.762578,-4.183944,-10.476153,-4.621866,-11.187971,-5.099340,-11.879918,-5.605181,-12.550864,-6.138564,-13.199713,-6.698618,-13.825407,-7.284428,-14.426923,-7.895038,
-15.003279,-8.529450,-15.553534,-9.186630,-16.076790,-9.865503,-16.572192,-10.564962,-17.038931,-11.283864,-17.466098,-12.003930,-17.472454,-12.023182,-17.475418,-12.026619,-17.476835,-12.030898,-17.489920,-12.046044,-17.887271,-12.780290,-18.263376,-13.547571,-18.608281,-14.329375,-18.921426,-15.124432,-19.202303,-15.931453,-19.450458,-16.749129,-19.665486,-17.576135,-19.847040,-18.411128,-19.994825,-19.252755,-20.108601,-20.099649,
-20.188183,-20.950438,-20.233444,-21.803742,-20.244058,-22.638539,-20.240007,-22.658144,-20.241828,-22.667666,-20.239860,-22.677153,-20.243557,-22.696564,-20.220106,-23.527328,-20.162011,-24.375821,-20.069911,-25.221299,-19.943954,-26.062399,-19.784344,-26.897767,-19.591338,-27.726057,-19.365247,-28.545934,-19.106434,-29.356076,-18.815318,-30.155180,-18.492367,-30.941956,-18.138101,-31.715139,-17.753091,-32.473481,-17.347416,-33.198850,
-17.334298,-33.213616,-17.334194,-33.213915,-17.333969,-33.214167,-17.327439,-33.232823,-16.892062,-33.938069,-16.417988,-34.641414,-15.916161,-35.325235,-15.387384,-35.988437,-14.832504,-36.629958,-14.252409,-37.248772,-13.648026,-37.843888,-13.020325,-38.414354,-12.370308,-38.959257,-11.699016,-39.477725,-11.007524,-39.968927,-10.296939,-40.432079,-9.585052,-40.856508,-9.566297,-40.862750,-9.558039,-40.869905,-9.547673,-40.873346,
-9.532576,-40.886407,-8.807814,-41.279190,-8.050196,-41.650999,-7.278175,-41.991897,-6.493012,-42.301327,-5.695989,-42.578783,-4.888407,-42.823814,-4.071586,-43.036018,-3.246858,-43.215049,-2.415571,-43.360615,-1.579082,-43.472477,-0.738756,-43.550455,0.104034,-43.594419,0.928330,-43.604070,0.947875,-43.600009,0.958863,-43.602098,0.969722,-43.599849,0.989054,-43.603537,1.809379,-43.580570,2.647376,-43.523274,
3.482385,-43.432281,4.313054,-43.307740,5.138034,-43.149852,5.955987,-42.958873,6.765588,-42.735114,7.565522,-42.478937,8.354491,-42.190757,9.131218,-41.871043,9.894440,-41.520313,10.642921,-41.139134,11.358610,-40.737574,11.373304,-40.724482,11.386464,-40.719899,11.396732,-40.710784,11.415375,-40.704330,12.112546,-40.276994,12.807898,-39.810975,13.483789,-39.317153,14.139108,-38.796341,14.772778,-38.249393,
15.383757,-37.677210,15.971040,-37.080732,16.533664,-36.460938,17.070701,-35.818849,17.581271,-35.155519,18.064534,-34.472038,18.519696,-33.769530,18.936150,-33.065807,18.942314,-33.047065,18.951951,-33.035863,18.956527,-33.022003,18.969270,-33.007225,19.355871,-32.291269,19.721739,-31.543130,20.057185,-30.780866,20.361667,-30.005713,20.634689,-29.218929,20.875809,-28.421789,21.084635,-27.615587,21.260830,-26.801630,
21.404108,-25.981238,21.514235,-25.155743,21.591034,-24.326482,21.634379,-23.494802,21.643975,-22.681192,21.640009,-22.662086,21.643427,-22.644121,21.639769,-22.626435,21.643450,-22.607165,21.620932,-21.797396,21.564406,-20.969997,21.474499,-20.145557,21.351358,-19.325422,21.195184,-18.510932,21.006233,-17.703417,20.784811,-16.904194,20.531282,-16.114569,20.246059,-15.335832,19.929607,-14.569253,19.582444,-13.816085,
19.205137,-13.077557,18.807738,-12.371639,18.794671,-12.357017,18.790028,-12.343749,18.780794,-12.333385,18.774429,-12.315108,18.351518,-11.627810,17.890684,-10.942343,17.402622,-10.275988,16.888125,-9.629826,16.348026,-9.004904,15.783203,-8.402237,15.194570,-7.822802,14.583084,-7.267538,13.949735,-6.737347,13.295551,-6.233088,12.621593,-5.755579,11.928955,-5.305596,11.235086,-4.893561,11.216709,-4.887484,
11.208300,-4.880226,11.197710,-4.876743,11.183300,-4.864347,10.476630,-4.483617,9.738618,-4.123117,8.986849,-3.792264,8.222513,-3.491580,7.446820,-3.221541,6.660997,-2.982576,5.866291,-2.775062,5.063957,-2.599329,4.255268,-2.455654,3.459978,-2.346793,3.441030,-2.348316,3.348209,-2.318328,3.273929,-2.255101,3.229500,-2.168262,3.221684,-2.071030,3.251672,-1.978209,3.314899,-1.903929,
3.401738,-1.859500,3.498970,-1.851684,3.498975,-1.851686,4.332285,-1.965750,5.160403,-2.112878,5.982013,-2.292833,6.795813,-2.505332,7.600514,-2.750039,8.394844,-3.026565,9.177543,-3.334473,9.947374,-3.673275,10.703116,-4.042436,11.443574,-4.441369,11.452311,-4.448885,11.463291,-4.452516,11.463295,-4.452519,12.190657,-4.884442,12.900042,-5.345305,13.590294,-5.834358,14.260294,-6.350809,
14.908955,-6.893818,15.535225,-7.462507,16.138089,-8.055951,16.716568,-8.673189,17.269725,-9.313219,17.796661,-9.975004,18.296523,-10.657469,18.768499,-11.359509,19.211824,-12.079983,19.216325,-12.092908,19.225329,-12.102983,19.641993,-12.843123,20.028415,-13.599491,20.383964,-14.370853,20.708060,-15.155950,21.000173,-15.953499,21.259827,-16.762198,21.486597,-17.580728,21.680114,-18.407750,21.840060,-19.241916,
21.966176,-20.081862,22.058255,-20.926218,22.116146,-21.773604,22.139755,-22.622637,22.136359,-22.640416,22.139991,-22.657914,22.129933,-23.510632,22.085549,-24.362253,22.006909,-25.211397,21.894141,-26.056685,21.747428,-26.896747,21.567008,-27.730220,21.353175,-28.555753,21.106273,-29.372005,20.826705,-30.177654,20.514923,-30.971393,20.171434,-31.751934,19.796794,-32.518011,19.391611,-33.268381,19.382155,-33.279347,
19.377686,-33.292935,18.941138,-34.030612,18.475047,-34.749988,17.980181,-35.449880,17.457351,-36.129138,16.907418,-36.786645,16.331285,-37.421320,15.729900,-38.032121,15.104251,-38.618043,14.455366,-39.178123,13.784312,-39.711441,13.092191,-40.217121,12.380142,-40.694329,11.649336,-41.142284,11.636602,-41.146692,11.626696,-41.155518,10.876757,-41.576295,10.110484,-41.966535,9.329118,-42.325602,8.533928,-42.652917,
7.726204,-42.947947,6.907254,-43.210213,6.078409,-43.439292,5.241012,-43.634810,4.396421,-43.796451,3.546006,-43.923953,2.691147,-44.017108,1.833231,-44.075767,0.973648,-44.099833,0.962824,-44.097768,0.952125,-44.099991,0.088217,-44.089877,-0.774576,-44.044869,-1.634847,-43.965041,-2.491191,-43.850523,-3.342208,-43.701502,-4.186511,-43.518222,-5.022720,-43.300981,-5.849469,-43.050135,-6.665409,-42.766093,
-7.469208,-42.449319,-8.259553,-42.100330,-9.035153,-41.719695,-9.794743,-41.308038,-9.803156,-41.300760,-9.813703,-41.297250,-9.813707,-41.297247,-10.559280,-40.852734,-11.286480,-40.378752,-11.994141,-39.876064,-12.681129,-39.345473,-13.346345,-38.787829,-13.988724,-38.204024,-14.607238,-37.594992,-15.200898,-36.961709,-15.768752,-36.305188,-16.309893,-35.626479,-16.823454,-34.926668,-17.308613,-34.206877,-17.764595,-33.468257,
-17.764957,-33.467222,-17.765702,-33.466384,-17.765704,-33.466379,-18.190548,-32.706736,-18.584566,-31.930650,-18.947121,-31.139376,-19.277629,-30.334191,-19.575557,-29.516390,-19.840425,-28.687291,-20.071806,-27.848231,-20.269328,-27.000561,-20.432673,-26.145647,-20.561577,-25.284866,-20.655832,-24.419605,-20.715286,-23.551260,-20.739844,-22.681227,-20.737996,-22.671522,-20.739993,-22.661856,-20.728874,-21.787460,-20.682557,-20.914220,
-20.601114,-20.043554,-20.484680,-19.176874,-20.333443,-18.315584,-20.147647,-17.461083,-19.927595,-16.614756,-19.673643,-15.777976,-19.386204,-14.952100,-19.065743,-14.138468,-18.712780,-13.338400,-18.327887,-12.553193,-17.911691,-11.784120,-17.908884,-11.780871,-17.907546,-11.776818,-17.460012,-11.022421,-16.982367,-10.286721,-16.475389,-9.570918,-15.939906,-8.876182,-15.376794,-8.203646,-14.786970,-7.554409,-14.171399,-6.929531,
-13.531085,-6.330033,-12.867074,-5.756893,-12.180451,-5.211046,-11.472335,-4.693385,-10.743884,-4.204755,-9.996288,-3.745953,-9.985255,-3.742126,-9.976612,-3.734433,-9.207606,-3.303339,-8.421863,-2.903559,-7.620660,-2.535742,-6.805296,-2.200484,-5.977094,-1.898330,-5.137397,-1.629769,-4.287568,-1.395237,-3.428983,-1.195114,-2.563037,-1.029725,-1.691134,-0.899339,-0.814688,-0.804166,0.064880,-0.744362,
0.946143,-0.720022,0.947326,-0.720248,0.948516,-0.720004,0.948522,-0.720005,1.833297,-0.732453,2.716872,-0.780281,3.597826,-0.863411,4.474751,-0.981711,5.346243,-1.134991,6.210906,-1.323006,7.067357,-1.545456,7.914225,-1.801983,8.750155,-2.092177,9.573809,-2.415575,10.383869,-2.771658,11.179038,-3.159857,11.958044,-3.579549,11.960373,-3.581553,11.963302,-3.582522,12.727271,-4.036302,
13.472283,-4.520575,14.197122,-5.034552,14.900605,-5.577392,15.581583,-6.148210,16.238944,-6.746074,16.871614,-7.370007,17.478561,-8.018991,18.058793,-8.691965,18.611364,-9.387832,19.135370,-10.105454,19.629956,-10.843660,20.094315,-11.601245,20.094789,-11.602613,20.095745,-11.603690,20.095747,-11.603695,20.530877,-12.382353,20.934410,-13.177852,21.305694,-13.988905,21.644129,-14.814204,21.949171,-15.652420,
22.220328,-16.502203,22.457163,-17.362184,22.659295,-18.230976,22.826398,-19.107180,22.958202,-19.989385,23.054496,-20.876168,23.115124,-21.766102,23.139988,-22.657751,23.139931,-22.658051,23.139995,-22.658364,23.139994,-22.658370,23.127913,-23.551457,23.080001,-24.443347,22.996334,-25.332595,22.877047,-26.217768,22.722332,-27.097442,22.532440,-27.970198,22.307675,-28.834630,22.048400,-29.689346,21.755032,-30.532967,
21.428045,-31.364136,21.067965,-32.181513,20.675372,-32.983780,20.250899,-33.769646,20.241789,-33.780209,20.237412,-33.793419,20.237409,-33.793423,19.778962,-34.564424,19.289838,-35.316345,18.770835,-36.047961,18.222793,-36.758085,17.646602,-37.445566,17.043196,-38.109289,16.413554,-38.748176,15.758698,-39.361193,15.079689,-39.947343,14.377628,-40.505678,13.653655,-41.035290,12.908944,-41.535322,12.144703,-42.004962,
12.134536,-42.008496,12.126537,-42.015612,11.341110,-42.455607,10.538659,-42.863727,9.720476,-43.239315,8.887878,-43.581764,8.042209,-43.890525,7.184829,-44.165098,6.317121,-44.405042,5.440483,-44.609969,4.556327,-44.779551,3.666077,-44.913513,2.771169,-45.011640,1.873043,-45.073774,0.973147,-45.099814,0.962273,-45.097751,0.951275,-45.099997,0.951269,-45.099996,0.047974,-45.086592,-0.854075,-45.037190,
-1.753438,-44.951868,-2.648684,-44.830763,-3.538391,-44.674065,-4.421145,-44.482026,-5.295541,-44.254950,-6.160191,-43.993198,-7.013718,-43.697185,-7.854767,-43.367384,-8.682001,-43.004317,-9.494104,-42.608563,-10.289779,-42.180753,-10.289786,-42.180751,-10.300265,-42.171751,-10.313533,-42.167347,-10.313537,-42.167344,-11.094086,-41.702663,-11.855296,-41.206928,-12.595927,-40.680943,-13.314779,-40.125563,-14.010684,-39.541689,
-14.682515,-38.930266,-15.329182,-38.292288,-15.949635,-37.628788,-16.542869,-36.940843,-17.107921,-36.229569,-17.643874,-35.496120,-18.149860,-34.741684,-18.625058,-33.967487,-18.625166,-33.967176,-18.625372,-33.966944,-19.072314,-33.172273,-19.486677,-32.360139,-19.867780,-31.531876,-20.214997,-30.688846,-20.527758,-29.832435,-20.805547,-28.964050,-21.047909,-28.085119,-21.254444,-27.197086,-21.424814,-26.301411,-21.558739,-25.399567,
-21.655998,-24.493035,-21.716431,-23.583306,-21.739939,-22.671875,-21.738982,-22.666923,-21.739992,-22.662057,-21.739991,-22.662051,-21.729033,-21.747129,-21.681121,-20.833390,-21.596333,-19.922333,-21.474807,-19.015445,-21.316742,-18.114207,-21.122396,-17.220091,-20.892086,-16.334556,-20.626188,-15.459049,-20.325137,-14.594999,-19.989424,-13.743816,-19.619598,-12.906892,-19.216261,-12.085592,-18.780076,-11.281263,-18.780074,-11.281256,
-18.778350,-11.279264,-18.777537,-11.276803,-18.344110,-10.543891,-17.883492,-9.827756,-17.396332,-9.129405,-16.883316,-8.449822,-16.345166,-7.789964,-15.782639,-7.150759,-15.196529,-6.533108,-14.587659,-5.937880,-13.956888,-5.365914,-13.305102,-4.818014,-12.633221,-4.294952,-11.942190,-3.797464,-11.232981,-3.326251,-10.506594,-2.881976,-10.489857,-2.876172,-10.476881,-2.864591,-9.739564,-2.448628,-8.987238,-2.060468,
-8.220953,-1.700651,-7.441775,-1.369677,-6.650789,-1.068009,-5.849098,-0.796067,-5.037817,-0.554228,-4.218078,-0.342831,-3.391021,-0.162168,-2.557799,-0.012493,-1.719572,0.105986,-0.877508,0.193105,-0.032779,0.248743,-0.017711,0.246477,0.000000,0.250000,0.095671,0.230970,0.095671,0.230970,$1*%
%AMFreePoly1*
4,1,31,0.495671,0.780970,0.576777,0.726777,0.630970,0.645671,0.650000,0.550000,0.630970,0.454329,0.576777,0.373223,0.495671,0.319030,0.400000,0.300000,0.250000,0.300000,0.250000,-0.300000,0.400000,-0.300000,0.495671,-0.319030,0.576777,-0.373223,0.630970,-0.454329,0.650000,-0.550000,0.630970,-0.645671,0.576777,-0.726777,0.495671,-0.780970,0.400000,-0.800000,0.000000,-0.800000,
-0.095671,-0.780970,-0.176777,-0.726777,-0.230970,-0.645671,-0.250000,-0.550000,-0.250000,0.550000,-0.230970,0.645671,-0.176777,0.726777,-0.095671,0.780970,0.000000,0.800000,0.400000,0.800000,0.495671,0.780970,0.495671,0.780970,$1*%
%AMFreePoly2*
4,1,22,0.550000,-0.750000,0.000000,-0.750000,0.000000,-0.745033,-0.079941,-0.743568,-0.215256,-0.701293,-0.333266,-0.622738,-0.424486,-0.514219,-0.481581,-0.384460,-0.499164,-0.250000,-0.500000,-0.250000,-0.500000,0.250000,-0.499164,0.250000,-0.499963,0.256109,-0.478152,0.396186,-0.417904,0.524511,-0.324060,0.630769,-0.204165,0.706417,-0.067858,0.745374,0.000000,0.744959,0.000000,0.750000,
0.550000,0.750000,0.550000,-0.750000,0.550000,-0.750000,$1*%
%AMFreePoly3*
4,1,20,0.000000,0.744959,0.073905,0.744508,0.209726,0.703889,0.328688,0.626782,0.421226,0.519385,0.479903,0.390333,0.500000,0.250000,0.500000,-0.250000,0.499851,-0.262216,0.476331,-0.402017,0.414519,-0.529596,0.319384,-0.634700,0.198574,-0.708877,0.061801,-0.746166,0.000000,-0.745033,0.000000,-0.750000,-0.550000,-0.750000,-0.550000,0.750000,0.000000,0.750000,0.000000,0.744959,
0.000000,0.744959,$1*%
G04 Aperture macros list end*
%ADD10C,0.100000*%
%TA.AperFunction,NonConductor*%
%ADD11C,0.100000*%
%TD*%
%TA.AperFunction,EtchedComponent*%
%ADD12C,0.080000*%
%TD*%
%TA.AperFunction,EtchedComponent*%
%ADD13C,0.250000*%
%TD*%
%TA.AperFunction,SMDPad,CuDef*%
%ADD14R,1.900000X0.500000*%
%TD*%
%TA.AperFunction,SMDPad,CuDef*%
%ADD15R,1.400000X0.500000*%
%TD*%
%TA.AperFunction,SMDPad,CuDef*%
%ADD16R,1.250000X0.500000*%
%TD*%
%TA.AperFunction,SMDPad,CuDef*%
%ADD17R,1.000000X0.500000*%
%TD*%
%TA.AperFunction,ComponentPad*%
%ADD18C,0.500000*%
%TD*%
%TA.AperFunction,SMDPad,CuDef*%
%ADD19FreePoly0,0.000000*%
%TD*%
%TA.AperFunction,SMDPad,CuDef*%
%ADD20R,1.150000X1.900000*%
%TD*%
%TA.AperFunction,ComponentPad*%
%ADD21C,1.820000*%
%TD*%
%TA.AperFunction,SMDPad,CuDef*%
%ADD22FreePoly1,90.000000*%
%TD*%
%TA.AperFunction,SMDPad,CuDef*%
%ADD23FreePoly1,270.000000*%
%TD*%
%TA.AperFunction,SMDPad,CuDef*%
%ADD24R,1.300000X2.000000*%
%TD*%
%TA.AperFunction,SMDPad,CuDef*%
%ADD25RoundRect,0.200000X-0.200000X-0.275000X0.200000X-0.275000X0.200000X0.275000X-0.200000X0.275000X0*%
%TD*%
%TA.AperFunction,SMDPad,CuDef*%
%ADD26RoundRect,0.200000X0.275000X-0.200000X0.275000X0.200000X-0.275000X0.200000X-0.275000X-0.200000X0*%
%TD*%
%TA.AperFunction,SMDPad,CuDef*%
%ADD27RoundRect,0.200000X-0.275000X0.200000X-0.275000X-0.200000X0.275000X-0.200000X0.275000X0.200000X0*%
%TD*%
%TA.AperFunction,SMDPad,CuDef*%
%ADD28RoundRect,0.062500X-0.062500X0.287500X-0.062500X-0.287500X0.062500X-0.287500X0.062500X0.287500X0*%
%TD*%
%TA.AperFunction,SMDPad,CuDef*%
%ADD29RoundRect,0.062500X-0.287500X0.062500X-0.287500X-0.062500X0.287500X-0.062500X0.287500X0.062500X0*%
%TD*%
%TA.AperFunction,SMDPad,CuDef*%
%ADD30Outline5P,-2.200000X1.804000X-1.804000X2.200000X2.200000X2.200000X2.200000X-2.200000X-2.200000X-2.200000X270.000000*%
%TD*%
%TA.AperFunction,SMDPad,CuDef*%
%ADD31RoundRect,0.200000X0.200000X0.275000X-0.200000X0.275000X-0.200000X-0.275000X0.200000X-0.275000X0*%
%TD*%
%TA.AperFunction,SMDPad,CuDef*%
%ADD32R,2.510000X1.000000*%
%TD*%
%TA.AperFunction,SMDPad,CuDef*%
%ADD33R,1.000000X2.510000*%
%TD*%
%TA.AperFunction,SMDPad,CuDef*%
%ADD34FreePoly2,0.000000*%
%TD*%
%TA.AperFunction,SMDPad,CuDef*%
%ADD35R,1.000000X1.500000*%
%TD*%
%TA.AperFunction,SMDPad,CuDef*%
%ADD36FreePoly3,0.000000*%
%TD*%
%TA.AperFunction,SMDPad,CuDef*%
%ADD37RoundRect,0.242760X0.321734X-0.699668X0.699668X-0.321734X-0.321734X0.699668X-0.699668X0.321734X0*%
%TD*%
%TA.AperFunction,SMDPad,CuDef*%
%ADD38RoundRect,0.166600X0.636396X-0.895763X0.895763X-0.636396X-0.636396X0.895763X-0.895763X0.636396X0*%
%TD*%
%TA.AperFunction,SMDPad,CuDef*%
%ADD39RoundRect,0.166600X-0.895763X-0.636396X-0.636396X-0.895763X0.895763X0.636396X0.636396X0.895763X0*%
%TD*%
%TA.AperFunction,SMDPad,CuDef*%
%ADD40RoundRect,0.242760X-0.699668X-0.321734X-0.321734X-0.699668X0.699668X0.321734X0.321734X0.699668X0*%
%TD*%
%TA.AperFunction,SMDPad,CuDef*%
%ADD41R,0.650000X0.400000*%
%TD*%
%TA.AperFunction,SMDPad,CuDef*%
%ADD42R,0.200000X0.800000*%
%TD*%
%TA.AperFunction,SMDPad,CuDef*%
%ADD43R,1.000000X0.200000*%
%TD*%
%TA.AperFunction,SMDPad,CuDef*%
%ADD44R,1.400000X0.200000*%
%TD*%
%TA.AperFunction,SMDPad,CuDef*%
%ADD45R,0.200000X0.600000*%
%TD*%
%TA.AperFunction,SMDPad,CuDef*%
%ADD46R,0.200000X0.200000*%
%TD*%
%TA.AperFunction,SMDPad,CuDef*%
%ADD47R,0.600000X0.200000*%
%TD*%
%TA.AperFunction,SMDPad,CuDef*%
%ADD48R,0.600000X0.600000*%
%TD*%
%TA.AperFunction,SMDPad,CuDef*%
%ADD49R,0.400000X0.600000*%
%TD*%
%TA.AperFunction,SMDPad,CuDef*%
%ADD50R,0.400000X0.200000*%
%TD*%
%TA.AperFunction,SMDPad,CuDef*%
%ADD51R,0.200000X1.200000*%
%TD*%
%TA.AperFunction,SMDPad,CuDef*%
%ADD52R,0.200000X0.400000*%
%TD*%
%TA.AperFunction,SMDPad,CuDef*%
%ADD53R,0.800000X0.200000*%
%TD*%
%TA.AperFunction,ViaPad*%
%ADD54C,0.800000*%
%TD*%
%TA.AperFunction,Conductor*%
%ADD55C,0.500000*%
%TD*%
%TA.AperFunction,Conductor*%
%ADD56C,0.250000*%
%TD*%
G04 APERTURE END LIST*
D10*
%TO.C,U2*%
D11*
X97571428Y-115873809D02*
X97595238Y-115850000D01*
X97642857Y-115826190D01*
X97761904Y-115826190D01*
X97809523Y-115850000D01*
X97833333Y-115873809D01*
X97857142Y-115921428D01*
X97857142Y-115969047D01*
X97833333Y-116040476D01*
X97547619Y-116326190D01*
X97857142Y-116326190D01*
X98166666Y-115826190D02*
X98214285Y-115826190D01*
X98261904Y-115850000D01*
X98285714Y-115873809D01*
X98309523Y-115921428D01*
X98333333Y-116016666D01*
X98333333Y-116135714D01*
X98309523Y-116230952D01*
X98285714Y-116278571D01*
X98261904Y-116302380D01*
X98214285Y-116326190D01*
X98166666Y-116326190D01*
X98119047Y-116302380D01*
X98095238Y-116278571D01*
X98071428Y-116230952D01*
X98047619Y-116135714D01*
X98047619Y-116016666D01*
X98071428Y-115921428D01*
X98095238Y-115873809D01*
X98119047Y-115850000D01*
X98166666Y-115826190D01*
X98523809Y-115873809D02*
X98547619Y-115850000D01*
X98595238Y-115826190D01*
X98714285Y-115826190D01*
X98761904Y-115850000D01*
X98785714Y-115873809D01*
X98809523Y-115921428D01*
X98809523Y-115969047D01*
X98785714Y-116040476D01*
X98500000Y-116326190D01*
X98809523Y-116326190D01*
X99000000Y-115873809D02*
X99023809Y-115850000D01*
X99071428Y-115826190D01*
X99190476Y-115826190D01*
X99238095Y-115850000D01*
X99261904Y-115873809D01*
X99285714Y-115921428D01*
X99285714Y-115969047D01*
X99261904Y-116040476D01*
X98976190Y-116326190D01*
X99285714Y-116326190D01*
X99500000Y-116135714D02*
X99880952Y-116135714D01*
X100214285Y-115826190D02*
X100261904Y-115826190D01*
X100309523Y-115850000D01*
X100333333Y-115873809D01*
X100357142Y-115921428D01*
X100380952Y-116016666D01*
X100380952Y-116135714D01*
X100357142Y-116230952D01*
X100333333Y-116278571D01*
X100309523Y-116302380D01*
X100261904Y-116326190D01*
X100214285Y-116326190D01*
X100166666Y-116302380D01*
X100142857Y-116278571D01*
X100119047Y-116230952D01*
X100095238Y-116135714D01*
X100095238Y-116016666D01*
X100119047Y-115921428D01*
X100142857Y-115873809D01*
X100166666Y-115850000D01*
X100214285Y-115826190D01*
X100547619Y-115826190D02*
X100880952Y-115826190D01*
X100666666Y-116326190D01*
X101071428Y-116135714D02*
X101452380Y-116135714D01*
X101785714Y-115826190D02*
X101833333Y-115826190D01*
X101880952Y-115850000D01*
X101904761Y-115873809D01*
X101928571Y-115921428D01*
X101952380Y-116016666D01*
X101952380Y-116135714D01*
X101928571Y-116230952D01*
X101904761Y-116278571D01*
X101880952Y-116302380D01*
X101833333Y-116326190D01*
X101785714Y-116326190D01*
X101738095Y-116302380D01*
X101714285Y-116278571D01*
X101690476Y-116230952D01*
X101666666Y-116135714D01*
X101666666Y-116016666D01*
X101690476Y-115921428D01*
X101714285Y-115873809D01*
X101738095Y-115850000D01*
X101785714Y-115826190D01*
X102238095Y-116040476D02*
X102190476Y-116016666D01*
X102166666Y-115992857D01*
X102142857Y-115945238D01*
X102142857Y-115921428D01*
X102166666Y-115873809D01*
X102190476Y-115850000D01*
X102238095Y-115826190D01*
X102333333Y-115826190D01*
X102380952Y-115850000D01*
X102404761Y-115873809D01*
X102428571Y-115921428D01*
X102428571Y-115945238D01*
X102404761Y-115992857D01*
X102380952Y-116016666D01*
X102333333Y-116040476D01*
X102238095Y-116040476D01*
X102190476Y-116064285D01*
X102166666Y-116088095D01*
X102142857Y-116135714D01*
X102142857Y-116230952D01*
X102166666Y-116278571D01*
X102190476Y-116302380D01*
X102238095Y-116326190D01*
X102333333Y-116326190D01*
X102380952Y-116302380D01*
X102404761Y-116278571D01*
X102428571Y-116230952D01*
X102428571Y-116135714D01*
X102404761Y-116088095D01*
X102380952Y-116064285D01*
X102333333Y-116040476D01*
%TO.C,JP1*%
G36*
X94250000Y-102160000D02*
G01*
X93750000Y-102160000D01*
X93750000Y-101760000D01*
X94250000Y-101760000D01*
X94250000Y-102160000D01*
G37*
D12*
%TO.C,AJK1*%
X88250000Y-94235000D02*
X88350000Y-94235000D01*
X88250000Y-94075000D02*
X88250000Y-94375000D01*
D13*
X89100000Y-90025000D02*
X86100000Y-94225000D01*
D12*
X88350000Y-94235000D02*
X88450000Y-94375000D01*
D13*
X89100000Y-92125000D02*
X87600000Y-92125000D01*
X89100000Y-90025000D02*
X89100000Y-94225000D01*
D12*
X88250000Y-94075000D02*
X88350000Y-94075000D01*
D13*
X90900000Y-90125000D02*
X89100000Y-92125000D01*
X89100000Y-92125000D02*
X90900000Y-94225000D01*
X87600000Y-94225000D02*
G75*
G03*
X89100000Y-94225000I750000J0D01*
G01*
D12*
X88350000Y-94235000D02*
G75*
G03*
X88350000Y-94075000I0J80000D01*
G01*
X88630000Y-94235000D02*
G75*
G03*
X88630000Y-94235000I-300000J0D01*
G01*
%TD*%
D14*
%TO.P,A1,*%
%TO.N,*%
X100000000Y-77590000D03*
D15*
%TO.P,A1,2*%
%TO.N,GND*%
X100000000Y-79590000D03*
D16*
%TO.P,A1,*%
%TO.N,*%
X98100000Y-79690000D03*
X101900000Y-79690000D03*
D17*
%TO.P,A1,3*%
%TO.N,Net-(A1-Pad3)*%
X98230000Y-81290000D03*
%TO.P,A1,1*%
%TO.N,Net-(A1-Pad1)*%
X101770000Y-81290000D03*
D18*
%TO.P,A1,*%
%TO.N,*%
X99050000Y-77590000D03*
D19*
X99050000Y-77590000D03*
D18*
X100950000Y-77590000D03*
X97480000Y-79690000D03*
%TD*%
D20*
%TO.P,Y1,1,1*%
%TO.N,Net-(C16-Pad1)*%
X93075000Y-95210000D03*
%TO.P,Y1,2,2*%
%TO.N,GND*%
X93075000Y-97910000D03*
%TO.P,Y1,3,3*%
%TO.N,Net-(C17-Pad1)*%
X94675000Y-97910000D03*
%TO.P,Y1,4,4*%
%TO.N,GND*%
X94675000Y-95210000D03*
%TD*%
D21*
%TO.P,D2,*%
%TO.N,*%
X112500000Y-100000000D03*
D22*
%TO.P,D2,1,K*%
%TO.N,GND*%
X112500000Y-101625000D03*
D23*
%TO.P,D2,2,A*%
%TO.N,Net-(D2-Pad2)*%
X112500000Y-98375000D03*
%TD*%
D21*
%TO.P,D3,*%
%TO.N,*%
X112500000Y-95000000D03*
D22*
%TO.P,D3,1,K*%
%TO.N,GND*%
X112500000Y-96625000D03*
D23*
%TO.P,D3,2,A*%
%TO.N,Net-(D3-Pad2)*%
X112500000Y-93375000D03*
%TD*%
D24*
%TO.P,SW1,*%
%TO.N,*%
X86250000Y-95800000D03*
X90750000Y-95800000D03*
%TO.P,SW1,1,1*%
%TO.N,GND*%
X90750000Y-104200000D03*
%TO.P,SW1,2,2*%
%TO.N,Net-(J2-Pad2)*%
X86250000Y-104200000D03*
%TD*%
D21*
%TO.P,D1,*%
%TO.N,*%
X112500000Y-105000000D03*
D22*
%TO.P,D1,1,K*%
%TO.N,GND*%
X112500000Y-106625000D03*
D23*
%TO.P,D1,2,A*%
%TO.N,Net-(D1-Pad2)*%
X112500000Y-103375000D03*
%TD*%
D25*
%TO.P,C7,1*%
%TO.N,+3V3*%
X100600000Y-91760000D03*
%TO.P,C7,2*%
%TO.N,GND*%
X102150000Y-91760000D03*
%TD*%
D26*
%TO.P,C3,1*%
%TO.N,Net-(C3-Pad1)*%
X103800000Y-84860000D03*
%TO.P,C3,2*%
%TO.N,Net-(A1-Pad1)*%
X103800000Y-83310000D03*
%TD*%
D25*
%TO.P,C5,1*%
%TO.N,GND*%
X100925000Y-84835000D03*
%TO.P,C5,2*%
%TO.N,Net-(C3-Pad1)*%
X102475000Y-84835000D03*
%TD*%
%TO.P,R6,1*%
%TO.N,Net-(R6-Pad1)*%
X108175000Y-92360000D03*
%TO.P,R6,2*%
%TO.N,+5V*%
X109825000Y-92360000D03*
%TD*%
%TO.P,R4,1*%
%TO.N,Net-(C8-Pad2)*%
X93075000Y-84835000D03*
%TO.P,R4,2*%
%TO.N,Net-(C4-Pad2)*%
X94725000Y-84835000D03*
%TD*%
D27*
%TO.P,C13,1*%
%TO.N,+3V3*%
X106150000Y-95385000D03*
%TO.P,C13,2*%
%TO.N,GND*%
X106150000Y-96935000D03*
%TD*%
D25*
%TO.P,C14,1*%
%TO.N,+5V*%
X104625000Y-93860000D03*
%TO.P,C14,2*%
%TO.N,GND*%
X106175000Y-93860000D03*
%TD*%
%TO.P,C9,1*%
%TO.N,Net-(C9-Pad1)*%
X93100000Y-91310000D03*
%TO.P,C9,2*%
%TO.N,GND*%
X94650000Y-91310000D03*
%TD*%
%TO.P,C16,1*%
%TO.N,Net-(C16-Pad1)*%
X93100000Y-94060000D03*
%TO.P,C16,2*%
%TO.N,GND*%
X94650000Y-94060000D03*
%TD*%
%TO.P,R9,1*%
%TO.N,Net-(R9-Pad1)*%
X108175000Y-96860000D03*
%TO.P,R9,2*%
%TO.N,Net-(D2-Pad2)*%
X109825000Y-96860000D03*
%TD*%
%TO.P,R8,1*%
%TO.N,Net-(R8-Pad1)*%
X108175000Y-98360000D03*
%TO.P,R8,2*%
%TO.N,Net-(D1-Pad2)*%
X109825000Y-98360000D03*
%TD*%
D26*
%TO.P,R11,1*%
%TO.N,+3V3*%
X99300000Y-102535000D03*
%TO.P,R11,2*%
%TO.N,Net-(J2-Pad2)*%
X99300000Y-100885000D03*
%TD*%
D28*
%TO.P,U1,1,DVSS*%
%TO.N,GND*%
X102250000Y-93660000D03*
%TO.P,U1,2,LOADMOD*%
%TO.N,unconnected-(U1-Pad2)*%
X101750000Y-93660000D03*
%TO.P,U1,3,TVSS1*%
%TO.N,GND*%
X101250000Y-93660000D03*
%TO.P,U1,4,TX1*%
%TO.N,Net-(L1-Pad1)*%
X100750000Y-93660000D03*
%TO.P,U1,5,TVDD*%
%TO.N,+3V3*%
X100250000Y-93660000D03*
%TO.P,U1,6,TX2*%
%TO.N,Net-(L2-Pad2)*%
X99750000Y-93660000D03*
%TO.P,U1,7,TVSS2*%
%TO.N,GND*%
X99250000Y-93660000D03*
%TO.P,U1,8,AVDD*%
%TO.N,+3V3*%
X98750000Y-93660000D03*
%TO.P,U1,9,VMID*%
%TO.N,Net-(C9-Pad1)*%
X98250000Y-93660000D03*
%TO.P,U1,10,RX*%
%TO.N,Net-(C8-Pad1)*%
X97750000Y-93660000D03*
D29*
%TO.P,U1,11,AVSS*%
%TO.N,GND*%
X97100000Y-94310000D03*
%TO.P,U1,12,AUX1*%
%TO.N,unconnected-(U1-Pad12)*%
X97100000Y-94810000D03*
%TO.P,U1,13,AUX2*%
%TO.N,unconnected-(U1-Pad13)*%
X97100000Y-95310000D03*
%TO.P,U1,14,OSCIN*%
%TO.N,Net-(C16-Pad1)*%
X97100000Y-95810000D03*
%TO.P,U1,15,OSCOUT*%
%TO.N,Net-(C17-Pad1)*%
X97100000Y-96310000D03*
%TO.P,U1,16,I0*%
%TO.N,GND*%
X97100000Y-96810000D03*
%TO.P,U1,17,I1*%
%TO.N,Net-(JP1-Pad2)*%
X97100000Y-97310000D03*
%TO.P,U1,18,TESTEN*%
%TO.N,GND*%
X97100000Y-97810000D03*
%TO.P,U1,19,P35*%
%TO.N,unconnected-(U1-Pad19)*%
X97100000Y-98310000D03*
%TO.P,U1,20,NC*%
%TO.N,unconnected-(U1-Pad20)*%
X97100000Y-98810000D03*
D28*
%TO.P,U1,21,NC*%
%TO.N,unconnected-(U1-Pad21)*%
X97750000Y-99460000D03*
%TO.P,U1,22,NC*%
%TO.N,unconnected-(U1-Pad22)*%
X98250000Y-99460000D03*
%TO.P,U1,23,PVDD*%
%TO.N,+3V3*%
X98750000Y-99460000D03*
%TO.P,U1,24,P30/UART_RX*%
%TO.N,Net-(J2-Pad2)*%
X99250000Y-99460000D03*
%TO.P,U1,25,P70_IRQ*%
%TO.N,unconnected-(U1-Pad25)*%
X99750000Y-99460000D03*
%TO.P,U1,26,RSTOUT_N*%
%TO.N,unconnected-(U1-Pad26)*%
X100250000Y-99460000D03*
%TO.P,U1,27,NSS/P50_SCL/HSU_RX*%
%TO.N,Net-(C19-Pad1)*%
X100750000Y-99460000D03*
%TO.P,U1,28,MOSI/SDA/HSU_TX*%
%TO.N,Net-(D6-Pad6)*%
X101250000Y-99460000D03*
%TO.P,U1,29,MISO/P71*%
%TO.N,unconnected-(U1-Pad29)*%
X101750000Y-99460000D03*
%TO.P,U1,30,SCK/P72*%
%TO.N,Net-(D4-Pad3)*%
X102250000Y-99460000D03*
D29*
%TO.P,U1,31,P31/DBG_TX*%
%TO.N,Net-(R8-Pad1)*%
X102900000Y-98810000D03*
%TO.P,U1,32,P32_INT0*%
%TO.N,Net-(R9-Pad1)*%
X102900000Y-98310000D03*
%TO.P,U1,33,P33_INT1*%
%TO.N,Net-(R10-Pad1)*%
X102900000Y-97810000D03*
%TO.P,U1,34,P34/SIG_CLK*%
%TO.N,unconnected-(U1-Pad34)*%
X102900000Y-97310000D03*
%TO.P,U1,35,SIGOUT*%
%TO.N,unconnected-(U1-Pad35)*%
X102900000Y-96810000D03*
%TO.P,U1,36,SIGN*%
%TO.N,unconnected-(U1-Pad36)*%
X102900000Y-96310000D03*
%TO.P,U1,37,SVDD*%
%TO.N,unconnected-(U1-Pad37)*%
X102900000Y-95810000D03*
%TO.P,U1,38,RSTPD_N*%
%TO.N,Net-(R6-Pad1)*%
X102900000Y-95310000D03*
%TO.P,U1,39,DVDD*%
%TO.N,+3V3*%
X102900000Y-94810000D03*
%TO.P,U1,40,VBAT*%
%TO.N,+5V*%
X102900000Y-94310000D03*
D30*
%TO.P,U1,41,COPPER*%
%TO.N,GND*%
X100000000Y-96560000D03*
%TD*%
D31*
%TO.P,C17,1*%
%TO.N,Net-(C17-Pad1)*%
X94650000Y-99060000D03*
%TO.P,C17,2*%
%TO.N,GND*%
X93100000Y-99060000D03*
%TD*%
D32*
%TO.P,J1,1,Pin_1*%
%TO.N,GND*%
X106345000Y-109270000D03*
%TO.P,J1,2,Pin_2*%
%TO.N,Net-(J1-Pad2)*%
X109655000Y-106730000D03*
%TD*%
D31*
%TO.P,C12,1*%
%TO.N,+3V3*%
X99400000Y-90410000D03*
%TO.P,C12,2*%
%TO.N,GND*%
X97850000Y-90410000D03*
%TD*%
D27*
%TO.P,R5,1*%
%TO.N,Net-(C8-Pad1)*%
X93100000Y-88585000D03*
%TO.P,R5,2*%
%TO.N,Net-(C9-Pad1)*%
X93100000Y-90235000D03*
%TD*%
D25*
%TO.P,R7,1*%
%TO.N,Net-(R6-Pad1)*%
X108175000Y-93860000D03*
%TO.P,R7,2*%
%TO.N,GND*%
X109825000Y-93860000D03*
%TD*%
%TO.P,R10,1*%
%TO.N,Net-(R10-Pad1)*%
X108175000Y-95360000D03*
%TO.P,R10,2*%
%TO.N,Net-(D3-Pad2)*%
X109825000Y-95360000D03*
%TD*%
D26*
%TO.P,C18,1*%
%TO.N,+3V3*%
X97700000Y-102485000D03*
%TO.P,C18,2*%
%TO.N,GND*%
X97700000Y-100935000D03*
%TD*%
D27*
%TO.P,C11,1*%
%TO.N,+3V3*%
X104650000Y-95385000D03*
%TO.P,C11,2*%
%TO.N,GND*%
X104650000Y-96935000D03*
%TD*%
D26*
%TO.P,C8,1*%
%TO.N,Net-(C8-Pad1)*%
X93100000Y-87535000D03*
%TO.P,C8,2*%
%TO.N,Net-(C8-Pad2)*%
X93100000Y-85985000D03*
%TD*%
D33*
%TO.P,J3,1,Pin_1*%
%TO.N,GND*%
X96190000Y-104845000D03*
%TO.P,J3,2,Pin_2*%
%TO.N,+5V*%
X98730000Y-108155000D03*
%TO.P,J3,3,Pin_3*%
%TO.N,Net-(J3-Pad3)*%
X101270000Y-104845000D03*
%TO.P,J3,4,Pin_4*%
%TO.N,Net-(J3-Pad4)*%
X103810000Y-108155000D03*
%TD*%
D25*
%TO.P,C10,1*%
%TO.N,+3V3*%
X100600000Y-90410000D03*
%TO.P,C10,2*%
%TO.N,GND*%
X102150000Y-90410000D03*
%TD*%
D31*
%TO.P,C1,1*%
%TO.N,Net-(A1-Pad1)*%
X102475000Y-83300000D03*
%TO.P,C1,2*%
%TO.N,GND*%
X100925000Y-83300000D03*
%TD*%
%TO.P,C6,1*%
%TO.N,GND*%
X99075000Y-84835000D03*
%TO.P,C6,2*%
%TO.N,Net-(C4-Pad2)*%
X97525000Y-84835000D03*
%TD*%
D26*
%TO.P,R15,1*%
%TO.N,+3V3*%
X105600000Y-102535000D03*
%TO.P,R15,2*%
%TO.N,Net-(D4-Pad3)*%
X105600000Y-100885000D03*
%TD*%
D34*
%TO.P,JP1,1,A*%
%TO.N,GND*%
X93350000Y-101960000D03*
D35*
%TO.P,JP1,2,C*%
%TO.N,Net-(JP1-Pad2)*%
X94650000Y-101960000D03*
D36*
%TO.P,JP1,3,B*%
%TO.N,+3V3*%
X95950000Y-101960000D03*
%TD*%
D25*
%TO.P,R13,1*%
%TO.N,Net-(J3-Pad3)*%
X100825000Y-102460000D03*
%TO.P,R13,2*%
%TO.N,Net-(D6-Pad6)*%
X102475000Y-102460000D03*
%TD*%
%TO.P,C15,1*%
%TO.N,+3V3*%
X93100000Y-92660000D03*
%TO.P,C15,2*%
%TO.N,GND*%
X94650000Y-92660000D03*
%TD*%
D31*
%TO.P,R14,1*%
%TO.N,Net-(J3-Pad4)*%
X102475000Y-100960000D03*
%TO.P,R14,2*%
%TO.N,Net-(C19-Pad1)*%
X100825000Y-100960000D03*
%TD*%
D37*
%TO.P,L1,1,1*%
%TO.N,Net-(L1-Pad1)*%
X102260051Y-88549949D03*
D38*
X102542893Y-88267107D03*
D37*
%TO.P,L1,2,2*%
%TO.N,Net-(C3-Pad1)*%
X104239949Y-86570051D03*
D38*
X103957107Y-86852893D03*
%TD*%
D39*
%TO.P,L2,1,1*%
%TO.N,Net-(C4-Pad2)*%
X96042893Y-86852893D03*
D40*
X95760051Y-86570051D03*
D39*
%TO.P,L2,2,2*%
%TO.N,Net-(L2-Pad2)*%
X97457107Y-88267107D03*
D40*
X97739949Y-88549949D03*
%TD*%
D27*
%TO.P,C4,1*%
%TO.N,Net-(A1-Pad3)*%
X96200000Y-83310000D03*
%TO.P,C4,2*%
%TO.N,Net-(C4-Pad2)*%
X96200000Y-84860000D03*
%TD*%
%TO.P,R12,1*%
%TO.N,Net-(D4-Pad3)*%
X104000000Y-100885000D03*
%TO.P,R12,2*%
%TO.N,Net-(J1-Pad2)*%
X104000000Y-102535000D03*
%TD*%
D41*
%TO.P,D5,1,A1*%
%TO.N,GND*%
X108050000Y-89810000D03*
%TO.P,D5,2,K2*%
%TO.N,+3V3*%
X108050000Y-90460000D03*
%TO.P,D5,3,K1A2*%
%TO.N,Net-(D3-Pad2)*%
X108050000Y-91110000D03*
%TO.P,D5,4,A3*%
%TO.N,GND*%
X109950000Y-91110000D03*
%TO.P,D5,5,K4*%
%TO.N,+3V3*%
X109950000Y-90460000D03*
%TO.P,D5,6,K3A4*%
%TO.N,Net-(D2-Pad2)*%
X109950000Y-89810000D03*
%TD*%
D42*
%TO.P,U2,*%
%TO.N,*%
X100800000Y-112400000D03*
D43*
X98600000Y-110500000D03*
D44*
X101400000Y-114500000D03*
X98600000Y-114500000D03*
D45*
X99600000Y-113100000D03*
D46*
X100200000Y-111500000D03*
D45*
X101000000Y-111500000D03*
D46*
X101800000Y-110700000D03*
D47*
X98200000Y-112900000D03*
D46*
X99200000Y-112100000D03*
D48*
X101400000Y-113900000D03*
D45*
X99800000Y-113700000D03*
D46*
X100000000Y-114500000D03*
D48*
X98600000Y-111100000D03*
D45*
X100000000Y-111100000D03*
D46*
X99600000Y-114100000D03*
D49*
X98100000Y-112500000D03*
D50*
X101500000Y-111700000D03*
D46*
X101200000Y-111300000D03*
X99800000Y-110700000D03*
D51*
X102000000Y-113800000D03*
D52*
X101000000Y-112200000D03*
D45*
X100600000Y-111300000D03*
D52*
X100400000Y-113400000D03*
D43*
X98600000Y-113300000D03*
D50*
X101900000Y-112700000D03*
D52*
X101400000Y-110600000D03*
D46*
X100800000Y-111300000D03*
D52*
X98400000Y-112200000D03*
D51*
X99200000Y-113800000D03*
D50*
X100500000Y-111900000D03*
D45*
X99600000Y-111500000D03*
D46*
X100200000Y-112700000D03*
D48*
X98600000Y-113900000D03*
D45*
X100200000Y-110700000D03*
D46*
X101000000Y-110900000D03*
D47*
X100600000Y-112900000D03*
D50*
X100300000Y-113900000D03*
D51*
X99200000Y-111000000D03*
D46*
X101400000Y-112700000D03*
D52*
X100400000Y-112400000D03*
D51*
X98000000Y-111000000D03*
D52*
X98800000Y-112200000D03*
D51*
X98000000Y-113800000D03*
X100000000Y-113000000D03*
D44*
X98600000Y-111700000D03*
D46*
X99600000Y-112300000D03*
D50*
X100300000Y-111700000D03*
D46*
X101600000Y-111300000D03*
D52*
X100400000Y-114400000D03*
D43*
X101400000Y-113300000D03*
D46*
X101800000Y-111100000D03*
D42*
X102000000Y-111800000D03*
D46*
X99800000Y-112700000D03*
X100200000Y-113100000D03*
D52*
X101200000Y-111800000D03*
D50*
X98500000Y-112500000D03*
D46*
X101200000Y-112500000D03*
X99800000Y-111500000D03*
X99800000Y-114300000D03*
D42*
X99400000Y-112400000D03*
D45*
X99600000Y-110700000D03*
D46*
X99200000Y-112500000D03*
D51*
X100800000Y-113800000D03*
D45*
X102000000Y-110700000D03*
D53*
X99100000Y-112900000D03*
D47*
X100000000Y-112100000D03*
D52*
X100400000Y-110600000D03*
D50*
X100100000Y-114100000D03*
D47*
X99800000Y-111900000D03*
D46*
X100600000Y-112300000D03*
D52*
X101600000Y-112800000D03*
D46*
X101000000Y-110500000D03*
%TD*%
D25*
%TO.P,C19,1*%
%TO.N,Net-(C19-Pad1)*%
X108225000Y-104760000D03*
%TO.P,C19,2*%
%TO.N,GND*%
X109775000Y-104760000D03*
%TD*%
D41*
%TO.P,D4,1,A1*%
%TO.N,GND*%
X108050000Y-99610000D03*
%TO.P,D4,2,K2*%
%TO.N,+3V3*%
X108050000Y-100260000D03*
%TO.P,D4,3,K1A2*%
%TO.N,Net-(D4-Pad3)*%
X108050000Y-100910000D03*
%TO.P,D4,4,A3*%
%TO.N,GND*%
X109950000Y-100910000D03*
%TO.P,D4,5,K4*%
%TO.N,+3V3*%
X109950000Y-100260000D03*
%TO.P,D4,6,K3A4*%
%TO.N,Net-(D1-Pad2)*%
X109950000Y-99610000D03*
%TD*%
%TO.P,D6,1,A1*%
%TO.N,GND*%
X109950000Y-103510000D03*
%TO.P,D6,2,K2*%
%TO.N,+3V3*%
X109950000Y-102860000D03*
%TO.P,D6,3,K1A2*%
%TO.N,Net-(C19-Pad1)*%
X109950000Y-102210000D03*
%TO.P,D6,4,A3*%
%TO.N,GND*%
X108050000Y-102210000D03*
%TO.P,D6,5,K4*%
%TO.N,+3V3*%
X108050000Y-102860000D03*
%TO.P,D6,6,K3A4*%
%TO.N,Net-(D6-Pad6)*%
X108050000Y-103510000D03*
%TD*%
D31*
%TO.P,C2,1*%
%TO.N,GND*%
X99075000Y-83300000D03*
%TO.P,C2,2*%
%TO.N,Net-(A1-Pad3)*%
X97525000Y-83300000D03*
%TD*%
D32*
%TO.P,J2,1,Pin_1*%
%TO.N,GND*%
X93655000Y-109270000D03*
%TO.P,J2,2,Pin_2*%
%TO.N,Net-(J2-Pad2)*%
X90345000Y-106730000D03*
%TD*%
D54*
%TO.N,GND*%
X104400000Y-99860000D03*
X93000000Y-100134500D03*
X101000000Y-97600000D03*
X105514175Y-97403682D03*
X100000000Y-89385000D03*
X100000000Y-96600000D03*
X109000000Y-103830000D03*
X99000000Y-95560000D03*
X99000000Y-97560000D03*
X97053825Y-99939076D03*
X104250000Y-91750000D03*
X97195244Y-103717690D03*
X106175000Y-92060000D03*
X109000000Y-99535500D03*
X98769153Y-104068465D03*
X109000000Y-102135000D03*
X101000000Y-95560000D03*
X112250000Y-102500000D03*
X95950000Y-94735000D03*
%TO.N,+3V3*%
X97350000Y-91760000D03*
X107100000Y-92960000D03*
X92200000Y-89410000D03*
X107100000Y-100459989D03*
X107100000Y-102460000D03*
X91400000Y-102560000D03*
X99522431Y-91240773D03*
%TO.N,+5V*%
X105250000Y-92660000D03*
X109000000Y-90935000D03*
X100000000Y-104250000D03*
X105250000Y-90935000D03*
%TO.N,Net-(D2-Pad2)*%
X109013557Y-96242734D03*
X110799502Y-90500000D03*
%TO.N,Net-(C9-Pad1)*%
X94200000Y-90260000D03*
X96424500Y-92484500D03*
%TO.N,Net-(D6-Pad6)*%
X103000000Y-103750000D03*
X106250000Y-103500000D03*
%TO.N,Net-(C19-Pad1)*%
X105432888Y-104149500D03*
X102294502Y-104500000D03*
%TD*%
D55*
%TO.N,GND*%
X100000000Y-89385000D02*
X100000000Y-79590000D01*
X106175000Y-92060000D02*
X106175000Y-93860000D01*
X105525000Y-97392857D02*
X105514175Y-97403682D01*
D56*
X109950000Y-104585000D02*
X109775000Y-104760000D01*
X112250000Y-102500000D02*
X112250000Y-101875000D01*
X108949253Y-99610000D02*
X109023753Y-99535500D01*
X96975066Y-103783932D02*
X97129002Y-103783932D01*
D55*
X93350000Y-101960000D02*
X93350000Y-100979474D01*
D56*
X94678479Y-109270000D02*
X93655000Y-109270000D01*
D55*
X93225000Y-97935000D02*
X93200000Y-97910000D01*
X99075000Y-84835000D02*
X99950000Y-84835000D01*
D56*
X102160000Y-91750000D02*
X104250000Y-91750000D01*
X102250000Y-93660000D02*
X102250000Y-92001421D01*
D55*
X93225000Y-99060000D02*
X93225000Y-97935000D01*
D56*
X101250000Y-93535000D02*
X101250000Y-95310000D01*
X108925000Y-102210000D02*
X109000000Y-102135000D01*
X111750000Y-90250000D02*
X111750000Y-91000000D01*
D55*
X94650000Y-92660000D02*
X94650000Y-94060000D01*
D56*
X99250000Y-93535000D02*
X99250000Y-95310000D01*
D55*
X99075000Y-83300000D02*
X100925000Y-83300000D01*
D56*
X104400000Y-99860000D02*
X106358579Y-99860000D01*
X110612500Y-91887500D02*
X110612500Y-93547500D01*
X106962132Y-99610000D02*
X108050000Y-99610000D01*
X106920000Y-89810000D02*
X108050000Y-89810000D01*
X111000000Y-91750000D02*
X110750000Y-91750000D01*
D55*
X102150000Y-90410000D02*
X102150000Y-91760000D01*
D56*
X109855000Y-109270000D02*
X106845000Y-109270000D01*
X112500000Y-101625000D02*
X113125000Y-101625000D01*
X102250000Y-93660000D02*
X102250000Y-94039290D01*
X110300000Y-93860000D02*
X109825000Y-93860000D01*
X102200000Y-94160000D02*
X101141422Y-95218578D01*
X97850000Y-90410000D02*
X97850000Y-90682451D01*
X113750000Y-97250000D02*
X113750000Y-100375000D01*
X97129002Y-103783932D02*
X97195244Y-103717690D01*
D55*
X94650000Y-91310000D02*
X94650000Y-92660000D01*
D56*
X109320000Y-103510000D02*
X109950000Y-103510000D01*
D55*
X105525000Y-96935000D02*
X106250000Y-96935000D01*
X93100000Y-99060000D02*
X93100000Y-99893079D01*
D56*
X99250000Y-95310000D02*
X99000000Y-95560000D01*
X109000000Y-101860000D02*
X109000000Y-102135000D01*
X98750000Y-97810000D02*
X99000000Y-97560000D01*
X96975000Y-96810000D02*
X98250000Y-96810000D01*
D55*
X95500000Y-95260000D02*
X94725000Y-95260000D01*
X104750000Y-96935000D02*
X105525000Y-96935000D01*
D56*
X98250000Y-96810000D02*
X99000000Y-97560000D01*
X96190000Y-104845000D02*
X96190000Y-104810000D01*
D55*
X100925000Y-84835000D02*
X99950000Y-84835000D01*
D56*
X98828475Y-92231525D02*
X98253475Y-91656525D01*
D55*
X105525000Y-96935000D02*
X105525000Y-97392857D01*
D56*
X109950000Y-91110000D02*
X110075000Y-91110000D01*
X95545000Y-104200000D02*
X90750000Y-104200000D01*
X113750000Y-102250000D02*
X113750000Y-105375000D01*
X108050000Y-102210000D02*
X108925000Y-102210000D01*
X110612500Y-91647500D02*
X110612500Y-91887500D01*
X97583466Y-94343466D02*
X98658578Y-95418578D01*
X97700000Y-100935000D02*
X97700000Y-100585251D01*
X101250000Y-95310000D02*
X101000000Y-95560000D01*
X109950000Y-103510000D02*
X109950000Y-104585000D01*
X108050000Y-99610000D02*
X108949253Y-99610000D01*
X108610000Y-89250000D02*
X110750000Y-89250000D01*
X97517510Y-107090197D02*
X96178854Y-108428854D01*
X96178854Y-108428854D02*
X95803854Y-108803854D01*
X96975000Y-97810000D02*
X98750000Y-97810000D01*
X97100000Y-94310000D02*
X97502672Y-94310000D01*
X106175000Y-92060000D02*
X106175000Y-90555000D01*
D55*
X95950000Y-94735000D02*
X95950000Y-94810000D01*
D56*
X112500000Y-96625000D02*
X113125000Y-96625000D01*
X99250000Y-93660000D02*
X99250000Y-93249176D01*
X97583488Y-94343444D02*
G75*
G03*
X97502672Y-94310000I-80788J-80856D01*
G01*
X102200003Y-94160003D02*
G75*
G03*
X102250000Y-94039290I-120703J120703D01*
G01*
X96975075Y-103783963D02*
G75*
G03*
X96190001Y-104810000I280425J-1027937D01*
G01*
X106920000Y-89810000D02*
G75*
G03*
X106175000Y-90555000I0J-745000D01*
G01*
X106600006Y-99760006D02*
G75*
G02*
X106358579Y-99860000I-241406J241406D01*
G01*
X112500000Y-106625000D02*
G75*
G03*
X113750000Y-105375000I0J1250000D01*
G01*
X111000000Y-91750000D02*
G75*
G03*
X111750000Y-91000000I0J750000D01*
G01*
X95545000Y-104200000D02*
G75*
G02*
X96190000Y-104845000I0J-645000D01*
G01*
D55*
X92999993Y-100134507D02*
G75*
G02*
X93350000Y-100979474I-844993J-844993D01*
G01*
D56*
X97517523Y-107090210D02*
G75*
G03*
X98769153Y-104068465I-3021723J3021710D01*
G01*
X113750000Y-102250000D02*
G75*
G03*
X113125000Y-101625000I-625000J0D01*
G01*
X109320000Y-103510000D02*
G75*
G03*
X109000000Y-103830000I0J-320000D01*
G01*
X98253490Y-91656510D02*
G75*
G02*
X97850000Y-90682451I974110J974110D01*
G01*
X102160000Y-91750000D02*
G75*
G03*
X102150000Y-91760000I0J-10000D01*
G01*
X100999988Y-95560000D02*
G75*
G02*
X101141422Y-95218578I482812J0D01*
G01*
X113750000Y-97250000D02*
G75*
G03*
X113125000Y-96625000I-625000J0D01*
G01*
X102150006Y-91759994D02*
G75*
G02*
X102250000Y-92001421I-241406J-241406D01*
G01*
X111750000Y-90250000D02*
G75*
G03*
X110750000Y-89250000I-1000000J0D01*
G01*
X109000000Y-101860000D02*
G75*
G02*
X109950000Y-100910000I950000J0D01*
G01*
X108610000Y-89250000D02*
G75*
G03*
X108050000Y-89810000I0J-560000D01*
G01*
X106962132Y-99610014D02*
G75*
G03*
X106600001Y-99760001I-32J-512086D01*
G01*
D55*
X93000006Y-100134506D02*
G75*
G03*
X93100000Y-99893079I-241406J241406D01*
G01*
D56*
X110612500Y-91887500D02*
G75*
G02*
X110750000Y-91750000I137500J0D01*
G01*
X112500000Y-101625000D02*
G75*
G03*
X112250000Y-101875000I0J-250000D01*
G01*
X97053825Y-99939100D02*
G75*
G02*
X97700000Y-100585251I-25J-646200D01*
G01*
D55*
X95500000Y-95260000D02*
G75*
G03*
X95950000Y-94810000I0J450000D01*
G01*
D56*
X112500000Y-101625000D02*
G75*
G03*
X113750000Y-100375000I0J1250000D01*
G01*
X94678479Y-109269990D02*
G75*
G03*
X95803853Y-108803853I21J1591490D01*
G01*
X109855000Y-109270000D02*
G75*
G03*
X112500000Y-106625000I0J2645000D01*
G01*
D55*
X94675000Y-95210000D02*
G75*
G03*
X94725000Y-95260000I50000J0D01*
G01*
D56*
X99000000Y-95560012D02*
G75*
G02*
X98658578Y-95418578I0J482812D01*
G01*
X110300000Y-93860000D02*
G75*
G03*
X110612500Y-93547500I0J312500D01*
G01*
X98828468Y-92231532D02*
G75*
G02*
X99250000Y-93249176I-1017668J-1017668D01*
G01*
X110612500Y-91647500D02*
G75*
G03*
X110075000Y-91110000I-537500J0D01*
G01*
D55*
%TO.N,Net-(C3-Pad1)*%
X103800000Y-84835000D02*
X103800000Y-86130102D01*
X103800000Y-84860000D02*
X102300000Y-84860000D01*
X103800000Y-86130102D02*
X104239949Y-86570051D01*
%TO.N,Net-(C4-Pad2)*%
X96175000Y-84835000D02*
X96200000Y-84860000D01*
X96200000Y-86130102D02*
X95760051Y-86570051D01*
X94725000Y-84835000D02*
X96175000Y-84835000D01*
X97525000Y-84835000D02*
X96225000Y-84835000D01*
X96200000Y-84835000D02*
X96200000Y-86130102D01*
X96225000Y-84835000D02*
X96200000Y-84860000D01*
D56*
%TO.N,+3V3*%
X93100000Y-92660000D02*
X92950000Y-92660000D01*
X107100000Y-93960000D02*
X107100000Y-92960000D01*
X100600000Y-91760000D02*
X100600000Y-92177158D01*
X108430000Y-90460000D02*
X108750000Y-90140000D01*
X98500000Y-100301421D02*
X98500000Y-102424645D01*
X107100000Y-92960000D02*
X107100000Y-90860000D01*
X98750000Y-93660000D02*
X98750000Y-93392957D01*
X97824149Y-91956399D02*
X98388875Y-92521125D01*
X95950000Y-101960000D02*
X95950000Y-102610000D01*
X92175489Y-93434511D02*
X92175489Y-102209511D01*
X108050000Y-90460000D02*
X108430000Y-90460000D01*
X99300000Y-102585000D02*
X99275000Y-102585000D01*
X107500000Y-102860000D02*
X108050000Y-102860000D01*
X109560000Y-90460000D02*
X109950000Y-90460000D01*
X102900000Y-94810000D02*
X104075000Y-94810000D01*
X99250000Y-102485000D02*
X99300000Y-102535000D01*
X97700000Y-102485000D02*
X98525000Y-102485000D01*
X92200000Y-89410000D02*
X92200000Y-91760000D01*
X100600000Y-90410000D02*
X99400000Y-90410000D01*
X91400000Y-102560000D02*
X91825000Y-102560000D01*
X97424264Y-102460000D02*
X97700000Y-102460000D01*
X108750000Y-90140000D02*
X109240000Y-90140000D01*
X95950000Y-101960000D02*
X96217158Y-101960000D01*
X109240000Y-90140000D02*
X109560000Y-90460000D01*
X99400000Y-90410000D02*
X99400000Y-91085000D01*
X108050000Y-102860000D02*
X109950000Y-102860000D01*
X106150000Y-95385000D02*
X106687500Y-94847500D01*
X108050000Y-100260000D02*
X107561290Y-100260000D01*
X107100000Y-102460000D02*
X105781066Y-102460000D01*
X106150000Y-95385000D02*
X104650000Y-95385000D01*
X106764124Y-94770875D02*
X106687500Y-94847500D01*
X98750000Y-99460000D02*
X98750000Y-99697868D01*
X107500000Y-90460000D02*
X108050000Y-90460000D01*
X98525000Y-102485000D02*
X99250000Y-102485000D01*
X108050000Y-100260000D02*
X109950000Y-100260000D01*
X100250000Y-93022132D02*
X100250000Y-93660000D01*
X93125978Y-103160000D02*
X95400000Y-103160000D01*
X100600000Y-90410000D02*
X100600000Y-91760000D01*
X96700013Y-102159987D02*
G75*
G03*
X96217158Y-101960000I-482813J-482813D01*
G01*
X97424264Y-102460014D02*
G75*
G02*
X96700001Y-102159999I36J1024314D01*
G01*
X100400013Y-92660013D02*
G75*
G03*
X100600000Y-92177158I-482813J482813D01*
G01*
X107078480Y-100459995D02*
G75*
G02*
X107561290Y-100260000I482820J-482805D01*
G01*
X93100000Y-92660000D02*
G75*
G02*
X92200000Y-91760000I0J900000D01*
G01*
X106764114Y-94770865D02*
G75*
G03*
X107100000Y-93960000I-810814J810865D01*
G01*
X92175500Y-102209511D02*
G75*
G02*
X91825000Y-102560000I-350500J11D01*
G01*
X98388863Y-92521137D02*
G75*
G02*
X98750000Y-93392957I-871863J-871863D01*
G01*
X95950000Y-102610000D02*
G75*
G02*
X95400000Y-103160000I-550000J0D01*
G01*
X99500000Y-91185000D02*
G75*
G02*
X99400000Y-91085000I0J100000D01*
G01*
X107500000Y-90460000D02*
G75*
G03*
X107100000Y-90860000I0J-400000D01*
G01*
X107500000Y-102860000D02*
G75*
G02*
X107100000Y-102460000I0J400000D01*
G01*
X92175500Y-93434511D02*
G75*
G02*
X92950000Y-92660000I774500J11D01*
G01*
X100250014Y-93022132D02*
G75*
G02*
X100400001Y-92660001I512086J32D01*
G01*
X104650000Y-95385000D02*
G75*
G03*
X104075000Y-94810000I-575000J0D01*
G01*
X97824139Y-91956409D02*
G75*
G03*
X97350000Y-91760000I-474139J-474091D01*
G01*
X98599994Y-100059994D02*
G75*
G03*
X98500000Y-100301421I241406J-241406D01*
G01*
X93125978Y-103160011D02*
G75*
G02*
X92175489Y-102209511I22J950511D01*
G01*
X98525034Y-102484966D02*
G75*
G02*
X98500000Y-102424645I60266J60366D01*
G01*
X98600009Y-100060009D02*
G75*
G03*
X98750000Y-99697868I-362109J362109D01*
G01*
X105600010Y-102535010D02*
G75*
G02*
X105781066Y-102460000I181090J-181090D01*
G01*
D55*
%TO.N,Net-(C8-Pad2)*%
X93075000Y-85960000D02*
X93100000Y-85985000D01*
X93075000Y-84810000D02*
X93075000Y-85960000D01*
D56*
%TO.N,Net-(C8-Pad1)*%
X97750000Y-93660000D02*
X96600000Y-93660000D01*
X95700000Y-92760000D02*
X95700000Y-90110000D01*
X94175000Y-88585000D02*
X93100000Y-88585000D01*
D55*
X93100000Y-87535000D02*
X93100000Y-88585000D01*
D56*
X94175000Y-88585000D02*
G75*
G02*
X95700000Y-90110000I0J-1525000D01*
G01*
X95700000Y-92760000D02*
G75*
G03*
X96600000Y-93660000I900000J0D01*
G01*
%TO.N,+5V*%
X109300489Y-91559511D02*
X109300489Y-91284778D01*
X109600000Y-91760000D02*
X109500978Y-91760000D01*
D55*
X98730000Y-107316051D02*
X98730000Y-108155000D01*
X104625000Y-93860000D02*
X103300000Y-93860000D01*
X104625000Y-93860000D02*
X104625000Y-93285000D01*
D56*
X105250000Y-90960000D02*
X105250000Y-92660000D01*
X109300500Y-91559511D02*
G75*
G03*
X109500978Y-91760000I200500J11D01*
G01*
D55*
X103000000Y-94160000D02*
G75*
G02*
X103300000Y-93860000I300000J0D01*
G01*
X98730022Y-107316051D02*
G75*
G02*
X100000001Y-104250001I4335978J51D01*
G01*
X105250000Y-92660000D02*
G75*
G03*
X104625000Y-93285000I0J-625000D01*
G01*
D56*
X109600000Y-91760000D02*
G75*
G02*
X109825000Y-91985000I0J-225000D01*
G01*
X109000000Y-90935011D02*
G75*
G02*
X109300489Y-91235489I0J-300489D01*
G01*
%TO.N,Net-(C16-Pad1)*%
X96000000Y-95960000D02*
X95558579Y-96401421D01*
X97100000Y-95810000D02*
X96362132Y-95810000D01*
X95175736Y-96560000D02*
X93400000Y-96560000D01*
X93075000Y-95210000D02*
X93075000Y-96235000D01*
X95999991Y-95959991D02*
G75*
G02*
X96362132Y-95810000I362109J-362109D01*
G01*
X93400000Y-96560000D02*
G75*
G02*
X93075000Y-96235000I0J325000D01*
G01*
X95175736Y-96560031D02*
G75*
G03*
X95558579Y-96401421I-36J541431D01*
G01*
%TO.N,Net-(L2-Pad2)*%
X98968989Y-91715737D02*
X99181626Y-91928374D01*
X99750000Y-93660000D02*
X99750000Y-93300550D01*
X98624806Y-90884806D02*
X98624806Y-89434806D01*
X99181641Y-91928359D02*
G75*
G02*
X99750000Y-93300550I-1372141J-1372141D01*
G01*
X97739949Y-88549894D02*
G75*
G02*
X98624806Y-89434806I-49J-884906D01*
G01*
X98968996Y-91715730D02*
G75*
G02*
X98624806Y-90884806I830904J830930D01*
G01*
%TO.N,Net-(L1-Pad1)*%
X101375000Y-89435000D02*
X101375000Y-92212513D01*
X100750000Y-93367842D02*
X100750000Y-93660000D01*
X101200000Y-92635000D02*
X100950000Y-92885000D01*
X101199996Y-92634996D02*
G75*
G03*
X101375000Y-92212513I-422496J422496D01*
G01*
X100750018Y-93367842D02*
G75*
G02*
X100950000Y-92885000I682782J42D01*
G01*
X101374949Y-89435000D02*
G75*
G02*
X102260051Y-88549949I885051J0D01*
G01*
%TO.N,Net-(D1-Pad2)*%
X109950000Y-99610000D02*
X110525000Y-99610000D01*
X109950000Y-98485000D02*
X109825000Y-98360000D01*
X109925000Y-98360000D02*
X109825000Y-98360000D01*
X109950000Y-99610000D02*
X109950000Y-98485000D01*
X112125000Y-103375000D02*
X112500000Y-103375000D01*
X111250000Y-100335000D02*
X111250000Y-102500000D01*
X112125000Y-103375000D02*
G75*
G02*
X111250000Y-102500000I0J875000D01*
G01*
X111250000Y-100335000D02*
G75*
G03*
X110525000Y-99610000I-725000J0D01*
G01*
%TO.N,Net-(D2-Pad2)*%
X109013557Y-96242734D02*
X109207734Y-96242734D01*
X109825000Y-96860000D02*
X110110000Y-96860000D01*
X111625000Y-98375000D02*
X112500000Y-98375000D01*
X109950000Y-89810000D02*
X110109502Y-89810000D01*
X110799500Y-90500000D02*
G75*
G03*
X110109502Y-89810000I-690000J0D01*
G01*
X110750000Y-97500000D02*
G75*
G03*
X110110000Y-96860000I-640000J0D01*
G01*
X109824966Y-96860000D02*
G75*
G03*
X109207734Y-96242734I-617266J0D01*
G01*
X111625000Y-98375000D02*
G75*
G02*
X110750000Y-97500000I0J875000D01*
G01*
%TO.N,Net-(D3-Pad2)*%
X109006835Y-94872318D02*
X109107872Y-95023532D01*
X112125000Y-93375000D02*
X112500000Y-93375000D01*
X109107872Y-95023532D02*
X109236468Y-95152128D01*
X109555701Y-95322761D02*
X109734069Y-95358240D01*
X108937239Y-94704299D02*
X109006835Y-94872318D01*
X108050000Y-91110000D02*
X108050000Y-91410000D01*
X109387682Y-95253165D02*
X109555701Y-95322761D01*
X108200000Y-91560000D02*
X108400000Y-91560000D01*
X109734069Y-95358240D02*
X109825000Y-95360000D01*
X109825000Y-95360000D02*
X110140000Y-95360000D01*
X108900000Y-92060000D02*
X108900000Y-94435000D01*
X109236468Y-95152128D02*
X109387682Y-95253165D01*
X108900000Y-94435000D02*
X108901760Y-94525931D01*
X108901760Y-94525931D02*
X108937239Y-94704299D01*
X109645752Y-95434244D02*
G75*
G02*
X109825000Y-95360000I179248J-179256D01*
G01*
X108900000Y-92060000D02*
G75*
G03*
X108400000Y-91560000I-500000J0D01*
G01*
X111000000Y-94500000D02*
G75*
G02*
X110140000Y-95360000I-860000J0D01*
G01*
X112125000Y-93375000D02*
G75*
G03*
X111000000Y-94500000I0J-1125000D01*
G01*
X108200000Y-91560000D02*
G75*
G02*
X108050000Y-91410000I0J150000D01*
G01*
D55*
%TO.N,Net-(C9-Pad1)*%
X93100000Y-90235000D02*
X93100000Y-91310000D01*
D56*
X96897538Y-92680439D02*
X97667767Y-92680439D01*
X98250000Y-93262672D02*
X98250000Y-93660000D01*
X94200000Y-90260000D02*
X93125000Y-90260000D01*
X93100000Y-90235000D02*
G75*
G03*
X93125000Y-90260000I25000J0D01*
G01*
X96897538Y-92680423D02*
G75*
G02*
X96424500Y-92484500I-38J668923D01*
G01*
X98250061Y-93262672D02*
G75*
G03*
X97667767Y-92680439I-582261J-28D01*
G01*
%TO.N,Net-(C17-Pad1)*%
X96200000Y-96460000D02*
X95841422Y-96818578D01*
X95700000Y-97160000D02*
X95700000Y-97560000D01*
X94675000Y-97910000D02*
X95350000Y-97910000D01*
X97100000Y-96310000D02*
X96562132Y-96310000D01*
X96199991Y-96459991D02*
G75*
G02*
X96562132Y-96310000I362109J-362109D01*
G01*
X95699988Y-97160000D02*
G75*
G02*
X95841422Y-96818578I482812J0D01*
G01*
X95700000Y-97560000D02*
G75*
G02*
X95350000Y-97910000I-350000J0D01*
G01*
%TO.N,Net-(J1-Pad2)*%
X110155000Y-106730000D02*
X108195000Y-106730000D01*
X104000000Y-102535000D02*
G75*
G03*
X108195000Y-106730000I4195000J0D01*
G01*
%TO.N,Net-(JP1-Pad2)*%
X95800000Y-100860000D02*
X95100000Y-100860000D01*
X94650000Y-101960000D02*
X94650000Y-101310000D01*
X96213249Y-97646751D02*
X96213249Y-100446751D01*
X97100000Y-97310000D02*
X96550000Y-97310000D01*
X95800000Y-100860049D02*
G75*
G03*
X96213249Y-100446751I0J413249D01*
G01*
X96213200Y-97646751D02*
G75*
G02*
X96550000Y-97310000I336800J-49D01*
G01*
X95100000Y-100860000D02*
G75*
G03*
X94650000Y-101310000I0J-450000D01*
G01*
%TO.N,Net-(D6-Pad6)*%
X101749990Y-101310010D02*
X101749990Y-101010010D01*
X102475000Y-102460000D02*
X102475000Y-103225000D01*
X101989444Y-101770556D02*
X101906326Y-101687438D01*
X102330830Y-102111942D02*
X101989444Y-101770556D01*
X106250000Y-103500000D02*
X108040000Y-103500000D01*
X101250000Y-99460000D02*
X101250000Y-99802928D01*
X102330824Y-102111948D02*
G75*
G02*
X102475000Y-102460000I-348024J-348052D01*
G01*
X101507818Y-100425318D02*
G75*
G02*
X101749990Y-101010010I-584718J-584682D01*
G01*
X101749997Y-101310010D02*
G75*
G03*
X101906326Y-101687438I533803J10D01*
G01*
X101507823Y-100425313D02*
G75*
G02*
X101250000Y-99802928I622377J622413D01*
G01*
X103000000Y-103750000D02*
G75*
G02*
X102475000Y-103225000I0J525000D01*
G01*
X108050000Y-103510000D02*
G75*
G03*
X108040000Y-103500000I-10000J0D01*
G01*
%TO.N,Net-(R8-Pad1)*%
X108175000Y-98485000D02*
X108175000Y-98360000D01*
X104341421Y-99060000D02*
X107600000Y-99060000D01*
X102900000Y-98810000D02*
X103737868Y-98810000D01*
X108175000Y-98485000D02*
G75*
G02*
X107600000Y-99060000I-575000J0D01*
G01*
X104100009Y-98959991D02*
G75*
G03*
X103737868Y-98810000I-362109J-362109D01*
G01*
X104341421Y-99059991D02*
G75*
G02*
X104100000Y-98960000I-21J341391D01*
G01*
%TO.N,Net-(R9-Pad1)*%
X104563312Y-98610489D02*
X106649511Y-98610489D01*
X107400000Y-97860000D02*
X107400000Y-97635000D01*
X102900000Y-98310000D02*
X103837868Y-98310000D01*
X107399989Y-97860000D02*
G75*
G02*
X106649511Y-98610489I-750489J0D01*
G01*
X104563312Y-98610483D02*
G75*
G02*
X104200001Y-98459999I-12J513783D01*
G01*
X108175000Y-96860000D02*
G75*
G03*
X107400000Y-97635000I0J-775000D01*
G01*
X104200009Y-98459991D02*
G75*
G03*
X103837868Y-98310000I-362109J-362109D01*
G01*
%TO.N,Net-(C19-Pad1)*%
X109950000Y-102210000D02*
X110150000Y-102210000D01*
X100750000Y-100885000D02*
X100825000Y-100960000D01*
X102100499Y-103899501D02*
X102100499Y-104305997D01*
X101048776Y-101384773D02*
X101185472Y-101450600D01*
X110700000Y-102760000D02*
X110700000Y-105087834D01*
X102100499Y-104305997D02*
X102294502Y-104500000D01*
X100825000Y-101349283D02*
X100900860Y-101351012D01*
X100900860Y-101351012D02*
X101048776Y-101384773D01*
X101787055Y-103212945D02*
X101836668Y-103262558D01*
X101398690Y-101663813D02*
X101464522Y-101800507D01*
X101185472Y-101450600D02*
X101304093Y-101545195D01*
X108225000Y-105185000D02*
X108225000Y-104760000D01*
X101464522Y-101800507D02*
X101498286Y-101948423D01*
X105432888Y-104149500D02*
X106751123Y-104149500D01*
X100750000Y-99585000D02*
X100750000Y-100885000D01*
X110227824Y-105560010D02*
X108600010Y-105560010D01*
X100825000Y-100960000D02*
X100825000Y-101349283D01*
X101498286Y-101948423D02*
X101498286Y-102515795D01*
X101304093Y-101545195D02*
X101398690Y-101663813D01*
X108224993Y-104760007D02*
G75*
G03*
X106751123Y-104149500I-1473893J-1473893D01*
G01*
X110700000Y-102760000D02*
G75*
G03*
X110150000Y-102210000I-550000J0D01*
G01*
X102100490Y-103899501D02*
G75*
G03*
X101836668Y-103262558I-900790J1D01*
G01*
X108225000Y-105185000D02*
G75*
G03*
X108600000Y-105560000I375000J0D01*
G01*
X101787054Y-103212946D02*
G75*
G02*
X101498286Y-102515795I697146J697146D01*
G01*
X110227824Y-105560000D02*
G75*
G03*
X110700000Y-105087834I-24J472200D01*
G01*
X108600014Y-105560000D02*
G75*
G02*
X108600010Y-105560010I-14J0D01*
G01*
D55*
%TO.N,Net-(A1-Pad1)*%
X102475000Y-83300000D02*
X102475000Y-81996075D01*
X102485000Y-83310000D02*
X102475000Y-83300000D01*
X103800000Y-83310000D02*
X102485000Y-83310000D01*
X101773846Y-81294900D02*
G75*
G02*
X102475000Y-81996075I-46J-701200D01*
G01*
%TO.N,Net-(A1-Pad3)*%
X97525000Y-83300000D02*
X96210000Y-83300000D01*
X96210000Y-83300000D02*
X96200000Y-83310000D01*
X97525000Y-81996075D02*
X97525000Y-83300000D01*
X97525021Y-81996075D02*
G75*
G02*
X98226154Y-81294921I701179J-25D01*
G01*
D56*
%TO.N,Net-(D4-Pad3)*%
X103400000Y-100160000D02*
X102800000Y-100160000D01*
X102475099Y-100160099D02*
X102799901Y-100160099D01*
X104000000Y-100885000D02*
X105600000Y-100885000D01*
X106820545Y-101184490D02*
X107775510Y-101184490D01*
X105600000Y-100885000D02*
X106097513Y-100885000D01*
X102250000Y-99460000D02*
X102250000Y-99935000D01*
X104000000Y-100885000D02*
X104000000Y-100760000D01*
X102475099Y-100160100D02*
G75*
G02*
X102250000Y-99935000I1J225100D01*
G01*
X106820545Y-101184471D02*
G75*
G02*
X106520000Y-101060000I-45J424971D01*
G01*
X106519996Y-101060004D02*
G75*
G03*
X106097513Y-100885000I-422496J-422496D01*
G01*
X103400000Y-100160000D02*
G75*
G02*
X104000000Y-100760000I0J-600000D01*
G01*
X102799900Y-100160099D02*
G75*
G02*
X102800000Y-100160000I100J-1D01*
G01*
X108049990Y-100910000D02*
G75*
G02*
X107775510Y-101184490I-274490J0D01*
G01*
%TO.N,Net-(R6-Pad1)*%
X108175000Y-92360000D02*
X108175000Y-93860000D01*
X107994928Y-94294732D02*
X107361870Y-94927790D01*
X103550000Y-95310000D02*
X102900000Y-95310000D01*
X106604907Y-96160000D02*
X104272862Y-96160000D01*
X107100000Y-95560000D02*
X107100000Y-95664907D01*
X103800000Y-95687138D02*
X103800000Y-95560000D01*
X107013569Y-95873569D02*
X106813569Y-96073569D01*
X107100006Y-95560000D02*
G75*
G02*
X107361870Y-94927790I894094J0D01*
G01*
X107013567Y-95873567D02*
G75*
G03*
X107100000Y-95664907I-208667J208667D01*
G01*
X107994927Y-94294731D02*
G75*
G03*
X108175000Y-93860000I-434727J434731D01*
G01*
X103550000Y-95310000D02*
G75*
G02*
X103800000Y-95560000I0J-250000D01*
G01*
X103800000Y-95687138D02*
G75*
G03*
X104272862Y-96160000I472900J38D01*
G01*
X106604907Y-96160002D02*
G75*
G03*
X106813569Y-96073569I-7J295102D01*
G01*
%TO.N,Net-(R10-Pad1)*%
X102900000Y-97810000D02*
X104037868Y-97810000D01*
X106949520Y-97746844D02*
X106949520Y-97109520D01*
X107320072Y-96214928D02*
X108175000Y-95360000D01*
X104806027Y-98128182D02*
X106568182Y-98128182D01*
X106949582Y-97746844D02*
G75*
G02*
X106568182Y-98128182I-381382J44D01*
G01*
X104400009Y-97959991D02*
G75*
G03*
X104037868Y-97810000I-362109J-362109D01*
G01*
X104806027Y-98128170D02*
G75*
G02*
X104400000Y-97960000I-27J574170D01*
G01*
X107320055Y-96214911D02*
G75*
G03*
X106949520Y-97109520I894645J-894589D01*
G01*
%TO.N,Net-(J2-Pad2)*%
X100156658Y-102156658D02*
X100156658Y-102593342D01*
X99250000Y-100835000D02*
X99300000Y-100885000D01*
X97618853Y-105670169D02*
X97269511Y-106019511D01*
X99398448Y-103350499D02*
X98649501Y-103350499D01*
X98000000Y-104000000D02*
X98000000Y-104750000D01*
X99250000Y-99585000D02*
X99250000Y-100835000D01*
X95554239Y-106730000D02*
X88780000Y-106730000D01*
X99300000Y-100885000D02*
X99863208Y-101448208D01*
X97618850Y-105670166D02*
G75*
G03*
X98000000Y-104750000I-920150J920166D01*
G01*
X97999999Y-104000000D02*
G75*
G02*
X98649501Y-103350499I649501J0D01*
G01*
X99935099Y-103128195D02*
G75*
G03*
X100156658Y-102593342I-534899J534895D01*
G01*
X95554239Y-106730016D02*
G75*
G03*
X97269511Y-106019511I-39J2425816D01*
G01*
X86250000Y-104200000D02*
G75*
G03*
X88780000Y-106730000I2530000J0D01*
G01*
X100156699Y-102156658D02*
G75*
G03*
X99863208Y-101448208I-1001899J-42D01*
G01*
X99398448Y-103350519D02*
G75*
G03*
X99935109Y-103128205I-48J759019D01*
G01*
%TO.N,Net-(J3-Pad3)*%
X100825000Y-102460000D02*
X100825000Y-104400000D01*
X101270000Y-104845000D02*
G75*
G02*
X100825000Y-104400000I0J445000D01*
G01*
%TO.N,Net-(J3-Pad4)*%
X103252538Y-102898254D02*
X103427142Y-103072858D01*
X103649501Y-103609680D02*
X103649501Y-107994501D01*
X102475000Y-100960000D02*
X102819990Y-101304990D01*
X103649501Y-107994501D02*
X103810000Y-108155000D01*
X103149501Y-102100499D02*
X103149501Y-102649501D01*
X103649509Y-103609680D02*
G75*
G03*
X103427142Y-103072858I-759209J-20D01*
G01*
X103252537Y-102898255D02*
G75*
G02*
X103149501Y-102649501I248763J248755D01*
G01*
X103149506Y-102100499D02*
G75*
G03*
X102819989Y-101304991I-1125006J-1D01*
G01*
%TD*%
M02*
