%TF.GenerationSoftware,KiCad,Pcbnew,(5.1.9-0-10_14)*%
%TF.CreationDate,2021-05-08T20:22:18+01:00*%
%TF.ProjectId,PN532,504e3533-322e-46b6-9963-61645f706362,6*%
%TF.SameCoordinates,Original*%
%TF.FileFunction,Paste,Bot*%
%TF.FilePolarity,Positive*%
%FSLAX46Y46*%
G04 Gerber Fmt 4.6, Leading zero omitted, Abs format (unit mm)*
G04 Created by KiCad (PCBNEW (5.1.9-0-10_14)) date 2021-05-08 20:22:18*
%MOMM*%
%LPD*%
G01*
G04 APERTURE LIST*
%ADD10R,1.300000X1.550000*%
G04 APERTURE END LIST*
D10*
%TO.C,SW1*%
X85750000Y-96025000D03*
X90250000Y-96025000D03*
X90250000Y-103975000D03*
X85750000Y-103975000D03*
%TD*%
%TO.C,D1*%
G36*
G01*
X112237500Y-101400000D02*
X111762500Y-101400000D01*
G75*
G02*
X111525000Y-101162500I0J237500D01*
G01*
X111525000Y-100587500D01*
G75*
G02*
X111762500Y-100350000I237500J0D01*
G01*
X112237500Y-100350000D01*
G75*
G02*
X112475000Y-100587500I0J-237500D01*
G01*
X112475000Y-101162500D01*
G75*
G02*
X112237500Y-101400000I-237500J0D01*
G01*
G37*
G36*
G01*
X112237500Y-99650000D02*
X111762500Y-99650000D01*
G75*
G02*
X111525000Y-99412500I0J237500D01*
G01*
X111525000Y-98837500D01*
G75*
G02*
X111762500Y-98600000I237500J0D01*
G01*
X112237500Y-98600000D01*
G75*
G02*
X112475000Y-98837500I0J-237500D01*
G01*
X112475000Y-99412500D01*
G75*
G02*
X112237500Y-99650000I-237500J0D01*
G01*
G37*
%TD*%
%TO.C,D3*%
G36*
G01*
X112237500Y-89400000D02*
X111762500Y-89400000D01*
G75*
G02*
X111525000Y-89162500I0J237500D01*
G01*
X111525000Y-88587500D01*
G75*
G02*
X111762500Y-88350000I237500J0D01*
G01*
X112237500Y-88350000D01*
G75*
G02*
X112475000Y-88587500I0J-237500D01*
G01*
X112475000Y-89162500D01*
G75*
G02*
X112237500Y-89400000I-237500J0D01*
G01*
G37*
G36*
G01*
X112237500Y-87650000D02*
X111762500Y-87650000D01*
G75*
G02*
X111525000Y-87412500I0J237500D01*
G01*
X111525000Y-86837500D01*
G75*
G02*
X111762500Y-86600000I237500J0D01*
G01*
X112237500Y-86600000D01*
G75*
G02*
X112475000Y-86837500I0J-237500D01*
G01*
X112475000Y-87412500D01*
G75*
G02*
X112237500Y-87650000I-237500J0D01*
G01*
G37*
%TD*%
%TO.C,D2*%
G36*
G01*
X112237500Y-95400000D02*
X111762500Y-95400000D01*
G75*
G02*
X111525000Y-95162500I0J237500D01*
G01*
X111525000Y-94587500D01*
G75*
G02*
X111762500Y-94350000I237500J0D01*
G01*
X112237500Y-94350000D01*
G75*
G02*
X112475000Y-94587500I0J-237500D01*
G01*
X112475000Y-95162500D01*
G75*
G02*
X112237500Y-95400000I-237500J0D01*
G01*
G37*
G36*
G01*
X112237500Y-93650000D02*
X111762500Y-93650000D01*
G75*
G02*
X111525000Y-93412500I0J237500D01*
G01*
X111525000Y-92837500D01*
G75*
G02*
X111762500Y-92600000I237500J0D01*
G01*
X112237500Y-92600000D01*
G75*
G02*
X112475000Y-92837500I0J-237500D01*
G01*
X112475000Y-93412500D01*
G75*
G02*
X112237500Y-93650000I-237500J0D01*
G01*
G37*
%TD*%
M02*
