%TF.GenerationSoftware,KiCad,Pcbnew,(5.1.9-0-10_14)*%
%TF.CreationDate,2021-05-06T20:04:39+01:00*%
%TF.ProjectId,PN532,504e3533-322e-46b6-9963-61645f706362,5*%
%TF.SameCoordinates,Original*%
%TF.FileFunction,Legend,Top*%
%TF.FilePolarity,Positive*%
%FSLAX46Y46*%
G04 Gerber Fmt 4.6, Leading zero omitted, Abs format (unit mm)*
G04 Created by KiCad (PCBNEW (5.1.9-0-10_14)) date 2021-05-06 20:04:39*
%MOMM*%
%LPD*%
G01*
G04 APERTURE LIST*
%ADD10C,0.150000*%
%ADD11C,0.120000*%
%ADD12C,0.100000*%
G04 APERTURE END LIST*
D10*
X140928571Y-83880952D02*
X140976190Y-83738095D01*
X141023809Y-83690476D01*
X141119047Y-83642857D01*
X141261904Y-83642857D01*
X141357142Y-83690476D01*
X141404761Y-83738095D01*
X141452380Y-83833333D01*
X141452380Y-84214285D01*
X140452380Y-84214285D01*
X140452380Y-83880952D01*
X140500000Y-83785714D01*
X140547619Y-83738095D01*
X140642857Y-83690476D01*
X140738095Y-83690476D01*
X140833333Y-83738095D01*
X140880952Y-83785714D01*
X140928571Y-83880952D01*
X140928571Y-84214285D01*
X141404761Y-82833333D02*
X141452380Y-82928571D01*
X141452380Y-83119047D01*
X141404761Y-83214285D01*
X141309523Y-83261904D01*
X140928571Y-83261904D01*
X140833333Y-83214285D01*
X140785714Y-83119047D01*
X140785714Y-82928571D01*
X140833333Y-82833333D01*
X140928571Y-82785714D01*
X141023809Y-82785714D01*
X141119047Y-83261904D01*
X141452380Y-82214285D02*
X141404761Y-82309523D01*
X141309523Y-82357142D01*
X140452380Y-82357142D01*
X141452380Y-81690476D02*
X141404761Y-81785714D01*
X141309523Y-81833333D01*
X140452380Y-81833333D01*
X136138095Y-100833333D02*
X135661904Y-100833333D01*
X136233333Y-100547619D02*
X135900000Y-101547619D01*
X135566666Y-100547619D01*
X153857142Y-76714285D02*
X153666666Y-76047619D01*
X153476190Y-76523809D01*
X153285714Y-76047619D01*
X153095238Y-76714285D01*
X152809523Y-76714285D02*
X152619047Y-76047619D01*
X152428571Y-76523809D01*
X152238095Y-76047619D01*
X152047619Y-76714285D01*
X151761904Y-76714285D02*
X151571428Y-76047619D01*
X151380952Y-76523809D01*
X151190476Y-76047619D01*
X151000000Y-76714285D01*
X150619047Y-76142857D02*
X150571428Y-76095238D01*
X150619047Y-76047619D01*
X150666666Y-76095238D01*
X150619047Y-76142857D01*
X150619047Y-76047619D01*
X150142857Y-76047619D02*
X150142857Y-76714285D01*
X150142857Y-76619047D02*
X150095238Y-76666666D01*
X150000000Y-76714285D01*
X149857142Y-76714285D01*
X149761904Y-76666666D01*
X149714285Y-76571428D01*
X149714285Y-76047619D01*
X149714285Y-76571428D02*
X149666666Y-76666666D01*
X149571428Y-76714285D01*
X149428571Y-76714285D01*
X149333333Y-76666666D01*
X149285714Y-76571428D01*
X149285714Y-76047619D01*
X148428571Y-76095238D02*
X148523809Y-76047619D01*
X148714285Y-76047619D01*
X148809523Y-76095238D01*
X148857142Y-76190476D01*
X148857142Y-76571428D01*
X148809523Y-76666666D01*
X148714285Y-76714285D01*
X148523809Y-76714285D01*
X148428571Y-76666666D01*
X148380952Y-76571428D01*
X148380952Y-76476190D01*
X148857142Y-76380952D01*
X147952380Y-76142857D02*
X147904761Y-76095238D01*
X147952380Y-76047619D01*
X148000000Y-76095238D01*
X147952380Y-76142857D01*
X147952380Y-76047619D01*
X147047619Y-76714285D02*
X147047619Y-76047619D01*
X147476190Y-76714285D02*
X147476190Y-76190476D01*
X147428571Y-76095238D01*
X147333333Y-76047619D01*
X147190476Y-76047619D01*
X147095238Y-76095238D01*
X147047619Y-76142857D01*
X146571428Y-76047619D02*
X146571428Y-77047619D01*
X146476190Y-76428571D02*
X146190476Y-76047619D01*
X146190476Y-76714285D02*
X146571428Y-76333333D01*
X152595238Y-83547619D02*
X152023809Y-83547619D01*
X152309523Y-82547619D02*
X152309523Y-83547619D01*
X151261904Y-82547619D02*
X151261904Y-83071428D01*
X151309523Y-83166666D01*
X151404761Y-83214285D01*
X151595238Y-83214285D01*
X151690476Y-83166666D01*
X151261904Y-82595238D02*
X151357142Y-82547619D01*
X151595238Y-82547619D01*
X151690476Y-82595238D01*
X151738095Y-82690476D01*
X151738095Y-82785714D01*
X151690476Y-82880952D01*
X151595238Y-82928571D01*
X151357142Y-82928571D01*
X151261904Y-82976190D01*
X150785714Y-82547619D02*
X150785714Y-83214285D01*
X150785714Y-83119047D02*
X150738095Y-83166666D01*
X150642857Y-83214285D01*
X150500000Y-83214285D01*
X150404761Y-83166666D01*
X150357142Y-83071428D01*
X150357142Y-82547619D01*
X150357142Y-83071428D02*
X150309523Y-83166666D01*
X150214285Y-83214285D01*
X150071428Y-83214285D01*
X149976190Y-83166666D01*
X149928571Y-83071428D01*
X149928571Y-82547619D01*
X149452380Y-83214285D02*
X149452380Y-82214285D01*
X149452380Y-83166666D02*
X149357142Y-83214285D01*
X149166666Y-83214285D01*
X149071428Y-83166666D01*
X149023809Y-83119047D01*
X148976190Y-83023809D01*
X148976190Y-82738095D01*
X149023809Y-82642857D01*
X149071428Y-82595238D01*
X149166666Y-82547619D01*
X149357142Y-82547619D01*
X149452380Y-82595238D01*
X148166666Y-82595238D02*
X148261904Y-82547619D01*
X148452380Y-82547619D01*
X148547619Y-82595238D01*
X148595238Y-82690476D01*
X148595238Y-83071428D01*
X148547619Y-83166666D01*
X148452380Y-83214285D01*
X148261904Y-83214285D01*
X148166666Y-83166666D01*
X148119047Y-83071428D01*
X148119047Y-82976190D01*
X148595238Y-82880952D01*
X147690476Y-82547619D02*
X147690476Y-83214285D01*
X147690476Y-83023809D02*
X147642857Y-83119047D01*
X147595238Y-83166666D01*
X147500000Y-83214285D01*
X147404761Y-83214285D01*
X135638095Y-95500000D02*
X135733333Y-95547619D01*
X135876190Y-95547619D01*
X136019047Y-95500000D01*
X136114285Y-95404761D01*
X136161904Y-95309523D01*
X136209523Y-95119047D01*
X136209523Y-94976190D01*
X136161904Y-94785714D01*
X136114285Y-94690476D01*
X136019047Y-94595238D01*
X135876190Y-94547619D01*
X135780952Y-94547619D01*
X135638095Y-94595238D01*
X135590476Y-94642857D01*
X135590476Y-94976190D01*
X135780952Y-94976190D01*
X135590476Y-106447619D02*
X135923809Y-106923809D01*
X136161904Y-106447619D02*
X136161904Y-107447619D01*
X135780952Y-107447619D01*
X135685714Y-107400000D01*
X135638095Y-107352380D01*
X135590476Y-107257142D01*
X135590476Y-107114285D01*
X135638095Y-107019047D01*
X135685714Y-106971428D01*
X135780952Y-106923809D01*
X136161904Y-106923809D01*
X154202380Y-113666666D02*
X153726190Y-114000000D01*
X154202380Y-114238095D02*
X153202380Y-114238095D01*
X153202380Y-113857142D01*
X153250000Y-113761904D01*
X153297619Y-113714285D01*
X153392857Y-113666666D01*
X153535714Y-113666666D01*
X153630952Y-113714285D01*
X153678571Y-113761904D01*
X153726190Y-113857142D01*
X153726190Y-114238095D01*
X153202380Y-113333333D02*
X154202380Y-112666666D01*
X153202380Y-112666666D02*
X154202380Y-113333333D01*
X150702380Y-114261904D02*
X150702380Y-113690476D01*
X151702380Y-113976190D02*
X150702380Y-113976190D01*
X150702380Y-113452380D02*
X151702380Y-112785714D01*
X150702380Y-112785714D02*
X151702380Y-113452380D01*
X148202380Y-114833333D02*
X149202380Y-114500000D01*
X148202380Y-114166666D01*
X149107142Y-113261904D02*
X149154761Y-113309523D01*
X149202380Y-113452380D01*
X149202380Y-113547619D01*
X149154761Y-113690476D01*
X149059523Y-113785714D01*
X148964285Y-113833333D01*
X148773809Y-113880952D01*
X148630952Y-113880952D01*
X148440476Y-113833333D01*
X148345238Y-113785714D01*
X148250000Y-113690476D01*
X148202380Y-113547619D01*
X148202380Y-113452380D01*
X148250000Y-113309523D01*
X148297619Y-113261904D01*
X149107142Y-112261904D02*
X149154761Y-112309523D01*
X149202380Y-112452380D01*
X149202380Y-112547619D01*
X149154761Y-112690476D01*
X149059523Y-112785714D01*
X148964285Y-112833333D01*
X148773809Y-112880952D01*
X148630952Y-112880952D01*
X148440476Y-112833333D01*
X148345238Y-112785714D01*
X148250000Y-112690476D01*
X148202380Y-112547619D01*
X148202380Y-112452380D01*
X148250000Y-112309523D01*
X148297619Y-112261904D01*
X145750000Y-114261904D02*
X145702380Y-114357142D01*
X145702380Y-114500000D01*
X145750000Y-114642857D01*
X145845238Y-114738095D01*
X145940476Y-114785714D01*
X146130952Y-114833333D01*
X146273809Y-114833333D01*
X146464285Y-114785714D01*
X146559523Y-114738095D01*
X146654761Y-114642857D01*
X146702380Y-114500000D01*
X146702380Y-114404761D01*
X146654761Y-114261904D01*
X146607142Y-114214285D01*
X146273809Y-114214285D01*
X146273809Y-114404761D01*
X146702380Y-113785714D02*
X145702380Y-113785714D01*
X146702380Y-113214285D01*
X145702380Y-113214285D01*
X146702380Y-112738095D02*
X145702380Y-112738095D01*
X145702380Y-112500000D01*
X145750000Y-112357142D01*
X145845238Y-112261904D01*
X145940476Y-112214285D01*
X146130952Y-112166666D01*
X146273809Y-112166666D01*
X146464285Y-112214285D01*
X146559523Y-112261904D01*
X146654761Y-112357142D01*
X146702380Y-112500000D01*
X146702380Y-112738095D01*
D11*
%TO.C,A1*%
X134000000Y-74500000D02*
X166000000Y-74500000D01*
X129500000Y-111000000D02*
X129500000Y-79000000D01*
X166000000Y-115500000D02*
X134000000Y-115500000D01*
X170500000Y-79000000D02*
X170500000Y-111000000D01*
X166500000Y-79000000D02*
X166500000Y-111000000D01*
X134000000Y-78500000D02*
X166000000Y-78500000D01*
X133500000Y-111000000D02*
X133500000Y-79000000D01*
X166000000Y-111500000D02*
X134000000Y-111500000D01*
X170500000Y-79000000D02*
G75*
G03*
X166000000Y-74500000I-4500000J0D01*
G01*
X134000000Y-74500000D02*
G75*
G03*
X129500000Y-79000000I0J-4500000D01*
G01*
X129500000Y-111000000D02*
G75*
G03*
X134000000Y-115500000I4500000J0D01*
G01*
X166000000Y-115500000D02*
G75*
G03*
X170500000Y-111000000I0J4500000D01*
G01*
X166500000Y-79000000D02*
G75*
G03*
X166000000Y-78500000I-500000J0D01*
G01*
X134000000Y-78500000D02*
G75*
G03*
X133500000Y-79000000I0J-500000D01*
G01*
X133500000Y-111000000D02*
G75*
G03*
X134000000Y-111500000I500000J0D01*
G01*
X166000000Y-111500000D02*
G75*
G03*
X166500000Y-111000000I0J500000D01*
G01*
%TO.C,SW1*%
X146770000Y-86230000D02*
X146770000Y-86200000D01*
X146770000Y-79770000D02*
X146770000Y-79800000D01*
X153230000Y-79770000D02*
X153230000Y-79800000D01*
X153230000Y-86200000D02*
X153230000Y-86230000D01*
X146770000Y-84300000D02*
X146770000Y-81700000D01*
X153230000Y-86230000D02*
X146770000Y-86230000D01*
X153230000Y-84300000D02*
X153230000Y-81700000D01*
X153230000Y-79770000D02*
X146770000Y-79770000D01*
X152250000Y-79750000D02*
X147750000Y-79750000D01*
X153500000Y-83750000D02*
X153500000Y-82250000D01*
X147750000Y-86250000D02*
X152250000Y-86250000D01*
X146500000Y-82250000D02*
X146500000Y-83750000D01*
%TO.C,J3*%
X156350000Y-102500000D02*
X156350000Y-110500000D01*
X143650000Y-102500000D02*
X156350000Y-102500000D01*
X143650000Y-102500000D02*
X143650000Y-110500000D01*
%TO.C,U1*%
X158660000Y-97860000D02*
X159135000Y-97860000D01*
X152915000Y-91640000D02*
X152915000Y-92115000D01*
X153390000Y-91640000D02*
X152915000Y-91640000D01*
X159135000Y-91640000D02*
X159135000Y-92115000D01*
X158660000Y-91640000D02*
X159135000Y-91640000D01*
X152915000Y-97860000D02*
X152915000Y-97385000D01*
X153390000Y-97860000D02*
X152915000Y-97860000D01*
%TO.C,L1*%
X162138748Y-96190000D02*
X162661252Y-96190000D01*
X162138748Y-97610000D02*
X162661252Y-97610000D01*
%TO.C,L2*%
X162661252Y-93810000D02*
X162138748Y-93810000D01*
X162661252Y-92390000D02*
X162138748Y-92390000D01*
%TO.C,C16*%
X152790000Y-88546267D02*
X152790000Y-88253733D01*
X153810000Y-88546267D02*
X153810000Y-88253733D01*
%TO.C,C17*%
X150490000Y-90146267D02*
X150490000Y-89853733D01*
X151510000Y-90146267D02*
X151510000Y-89853733D01*
%TO.C,R11*%
X147477500Y-90254724D02*
X147477500Y-89745276D01*
X148522500Y-90254724D02*
X148522500Y-89745276D01*
%TO.C,R10*%
X148977500Y-90254724D02*
X148977500Y-89745276D01*
X150022500Y-90254724D02*
X150022500Y-89745276D01*
%TO.C,R7*%
X144854724Y-93522500D02*
X144345276Y-93522500D01*
X144854724Y-92477500D02*
X144345276Y-92477500D01*
%TO.C,R8*%
X144854724Y-95022500D02*
X144345276Y-95022500D01*
X144854724Y-93977500D02*
X144345276Y-93977500D01*
%TO.C,R9*%
X144854724Y-96522500D02*
X144345276Y-96522500D01*
X144854724Y-95477500D02*
X144345276Y-95477500D01*
%TO.C,R6*%
X144854724Y-98022500D02*
X144345276Y-98022500D01*
X144854724Y-96977500D02*
X144345276Y-96977500D01*
%TO.C,R5*%
X144854724Y-99522500D02*
X144345276Y-99522500D01*
X144854724Y-98477500D02*
X144345276Y-98477500D01*
%TO.C,C13*%
X156710000Y-100253733D02*
X156710000Y-100546267D01*
X155690000Y-100253733D02*
X155690000Y-100546267D01*
%TO.C,C12*%
X158210000Y-100253733D02*
X158210000Y-100546267D01*
X157190000Y-100253733D02*
X157190000Y-100546267D01*
%TO.C,C14*%
X159710000Y-100253733D02*
X159710000Y-100546267D01*
X158690000Y-100253733D02*
X158690000Y-100546267D01*
%TO.C,C15*%
X158810000Y-88253733D02*
X158810000Y-88546267D01*
X157790000Y-88253733D02*
X157790000Y-88546267D01*
%TO.C,C10*%
X160690000Y-90446267D02*
X160690000Y-90153733D01*
X161710000Y-90446267D02*
X161710000Y-90153733D01*
%TO.C,R4*%
X160745276Y-85777500D02*
X161254724Y-85777500D01*
X160745276Y-86822500D02*
X161254724Y-86822500D01*
%TO.C,C8*%
X160853733Y-87290000D02*
X161146267Y-87290000D01*
X160853733Y-88310000D02*
X161146267Y-88310000D01*
%TO.C,R3*%
X164045276Y-87277500D02*
X164554724Y-87277500D01*
X164045276Y-88322500D02*
X164554724Y-88322500D01*
%TO.C,C11*%
X161810000Y-99553733D02*
X161810000Y-99846267D01*
X160790000Y-99553733D02*
X160790000Y-99846267D01*
%TO.C,C9*%
X162291233Y-94490000D02*
X162583767Y-94490000D01*
X162291233Y-95510000D02*
X162583767Y-95510000D01*
%TO.C,C5*%
X162290000Y-99846267D02*
X162290000Y-99553733D01*
X163310000Y-99846267D02*
X163310000Y-99553733D01*
%TO.C,C3*%
X165290000Y-99846267D02*
X165290000Y-99553733D01*
X166310000Y-99846267D02*
X166310000Y-99553733D01*
%TO.C,C1*%
X164810000Y-99553733D02*
X164810000Y-99846267D01*
X163790000Y-99553733D02*
X163790000Y-99846267D01*
%TO.C,C6*%
X163210000Y-90153733D02*
X163210000Y-90446267D01*
X162190000Y-90153733D02*
X162190000Y-90446267D01*
%TO.C,C4*%
X165190000Y-90446267D02*
X165190000Y-90153733D01*
X166210000Y-90446267D02*
X166210000Y-90153733D01*
%TO.C,C2*%
X164710000Y-90153733D02*
X164710000Y-90446267D01*
X163690000Y-90153733D02*
X163690000Y-90446267D01*
%TO.C,R1*%
X165645276Y-96377500D02*
X166154724Y-96377500D01*
X165645276Y-97422500D02*
X166154724Y-97422500D01*
%TO.C,C7*%
X165653733Y-94490000D02*
X165946267Y-94490000D01*
X165653733Y-95510000D02*
X165946267Y-95510000D01*
%TO.C,R2*%
X165645276Y-92577500D02*
X166154724Y-92577500D01*
X165645276Y-93622500D02*
X166154724Y-93622500D01*
%TO.C,J1*%
X144330000Y-80400000D02*
X141670000Y-80400000D01*
X144330000Y-83000000D02*
X144330000Y-80400000D01*
X141670000Y-83000000D02*
X141670000Y-80400000D01*
X144330000Y-83000000D02*
X141670000Y-83000000D01*
X144330000Y-84270000D02*
X144330000Y-85600000D01*
X144330000Y-85600000D02*
X143000000Y-85600000D01*
%TO.C,J4*%
X153150000Y-91675000D02*
X153150000Y-98325000D01*
X153150000Y-98325000D02*
X146850000Y-98325000D01*
X146850000Y-98325000D02*
X146850000Y-91675000D01*
X146850000Y-91675000D02*
X153150000Y-91675000D01*
%TO.C,J3*%
D10*
X149666666Y-109352380D02*
X149666666Y-110066666D01*
X149619047Y-110209523D01*
X149523809Y-110304761D01*
X149380952Y-110352380D01*
X149285714Y-110352380D01*
X150047619Y-109352380D02*
X150666666Y-109352380D01*
X150333333Y-109733333D01*
X150476190Y-109733333D01*
X150571428Y-109780952D01*
X150619047Y-109828571D01*
X150666666Y-109923809D01*
X150666666Y-110161904D01*
X150619047Y-110257142D01*
X150571428Y-110304761D01*
X150476190Y-110352380D01*
X150190476Y-110352380D01*
X150095238Y-110304761D01*
X150047619Y-110257142D01*
X145035714Y-104352380D02*
X144464285Y-104352380D01*
X144750000Y-104352380D02*
X144750000Y-103352380D01*
X144654761Y-103495238D01*
X144559523Y-103590476D01*
X144464285Y-103638095D01*
%TO.C,L1*%
D12*
X167916666Y-97126190D02*
X167678571Y-97126190D01*
X167678571Y-96626190D01*
X168345238Y-97126190D02*
X168059523Y-97126190D01*
X168202380Y-97126190D02*
X168202380Y-96626190D01*
X168154761Y-96697619D01*
X168107142Y-96745238D01*
X168059523Y-96769047D01*
%TO.C,L2*%
X167916666Y-93326190D02*
X167678571Y-93326190D01*
X167678571Y-92826190D01*
X168059523Y-92873809D02*
X168083333Y-92850000D01*
X168130952Y-92826190D01*
X168250000Y-92826190D01*
X168297619Y-92850000D01*
X168321428Y-92873809D01*
X168345238Y-92921428D01*
X168345238Y-92969047D01*
X168321428Y-93040476D01*
X168035714Y-93326190D01*
X168345238Y-93326190D01*
%TO.C,C16*%
X152978571Y-90678571D02*
X152954761Y-90702380D01*
X152883333Y-90726190D01*
X152835714Y-90726190D01*
X152764285Y-90702380D01*
X152716666Y-90654761D01*
X152692857Y-90607142D01*
X152669047Y-90511904D01*
X152669047Y-90440476D01*
X152692857Y-90345238D01*
X152716666Y-90297619D01*
X152764285Y-90250000D01*
X152835714Y-90226190D01*
X152883333Y-90226190D01*
X152954761Y-90250000D01*
X152978571Y-90273809D01*
X153454761Y-90726190D02*
X153169047Y-90726190D01*
X153311904Y-90726190D02*
X153311904Y-90226190D01*
X153264285Y-90297619D01*
X153216666Y-90345238D01*
X153169047Y-90369047D01*
X153883333Y-90226190D02*
X153788095Y-90226190D01*
X153740476Y-90250000D01*
X153716666Y-90273809D01*
X153669047Y-90345238D01*
X153645238Y-90440476D01*
X153645238Y-90630952D01*
X153669047Y-90678571D01*
X153692857Y-90702380D01*
X153740476Y-90726190D01*
X153835714Y-90726190D01*
X153883333Y-90702380D01*
X153907142Y-90678571D01*
X153930952Y-90630952D01*
X153930952Y-90511904D01*
X153907142Y-90464285D01*
X153883333Y-90440476D01*
X153835714Y-90416666D01*
X153740476Y-90416666D01*
X153692857Y-90440476D01*
X153669047Y-90464285D01*
X153645238Y-90511904D01*
%TO.C,C17*%
X151178571Y-87821428D02*
X151202380Y-87845238D01*
X151226190Y-87916666D01*
X151226190Y-87964285D01*
X151202380Y-88035714D01*
X151154761Y-88083333D01*
X151107142Y-88107142D01*
X151011904Y-88130952D01*
X150940476Y-88130952D01*
X150845238Y-88107142D01*
X150797619Y-88083333D01*
X150750000Y-88035714D01*
X150726190Y-87964285D01*
X150726190Y-87916666D01*
X150750000Y-87845238D01*
X150773809Y-87821428D01*
X151226190Y-87345238D02*
X151226190Y-87630952D01*
X151226190Y-87488095D02*
X150726190Y-87488095D01*
X150797619Y-87535714D01*
X150845238Y-87583333D01*
X150869047Y-87630952D01*
X150726190Y-87178571D02*
X150726190Y-86845238D01*
X151226190Y-87059523D01*
%TO.C,R11*%
X148226190Y-87821428D02*
X147988095Y-87988095D01*
X148226190Y-88107142D02*
X147726190Y-88107142D01*
X147726190Y-87916666D01*
X147750000Y-87869047D01*
X147773809Y-87845238D01*
X147821428Y-87821428D01*
X147892857Y-87821428D01*
X147940476Y-87845238D01*
X147964285Y-87869047D01*
X147988095Y-87916666D01*
X147988095Y-88107142D01*
X148226190Y-87345238D02*
X148226190Y-87630952D01*
X148226190Y-87488095D02*
X147726190Y-87488095D01*
X147797619Y-87535714D01*
X147845238Y-87583333D01*
X147869047Y-87630952D01*
X148226190Y-86869047D02*
X148226190Y-87154761D01*
X148226190Y-87011904D02*
X147726190Y-87011904D01*
X147797619Y-87059523D01*
X147845238Y-87107142D01*
X147869047Y-87154761D01*
%TO.C,R10*%
X149726190Y-87821428D02*
X149488095Y-87988095D01*
X149726190Y-88107142D02*
X149226190Y-88107142D01*
X149226190Y-87916666D01*
X149250000Y-87869047D01*
X149273809Y-87845238D01*
X149321428Y-87821428D01*
X149392857Y-87821428D01*
X149440476Y-87845238D01*
X149464285Y-87869047D01*
X149488095Y-87916666D01*
X149488095Y-88107142D01*
X149726190Y-87345238D02*
X149726190Y-87630952D01*
X149726190Y-87488095D02*
X149226190Y-87488095D01*
X149297619Y-87535714D01*
X149345238Y-87583333D01*
X149369047Y-87630952D01*
X149226190Y-87035714D02*
X149226190Y-86988095D01*
X149250000Y-86940476D01*
X149273809Y-86916666D01*
X149321428Y-86892857D01*
X149416666Y-86869047D01*
X149535714Y-86869047D01*
X149630952Y-86892857D01*
X149678571Y-86916666D01*
X149702380Y-86940476D01*
X149726190Y-86988095D01*
X149726190Y-87035714D01*
X149702380Y-87083333D01*
X149678571Y-87107142D01*
X149630952Y-87130952D01*
X149535714Y-87154761D01*
X149416666Y-87154761D01*
X149321428Y-87130952D01*
X149273809Y-87107142D01*
X149250000Y-87083333D01*
X149226190Y-87035714D01*
%TO.C,R7*%
X147116666Y-93476190D02*
X146950000Y-93238095D01*
X146830952Y-93476190D02*
X146830952Y-92976190D01*
X147021428Y-92976190D01*
X147069047Y-93000000D01*
X147092857Y-93023809D01*
X147116666Y-93071428D01*
X147116666Y-93142857D01*
X147092857Y-93190476D01*
X147069047Y-93214285D01*
X147021428Y-93238095D01*
X146830952Y-93238095D01*
X147283333Y-92976190D02*
X147616666Y-92976190D01*
X147402380Y-93476190D01*
%TO.C,R8*%
X147116666Y-94726190D02*
X146950000Y-94488095D01*
X146830952Y-94726190D02*
X146830952Y-94226190D01*
X147021428Y-94226190D01*
X147069047Y-94250000D01*
X147092857Y-94273809D01*
X147116666Y-94321428D01*
X147116666Y-94392857D01*
X147092857Y-94440476D01*
X147069047Y-94464285D01*
X147021428Y-94488095D01*
X146830952Y-94488095D01*
X147402380Y-94440476D02*
X147354761Y-94416666D01*
X147330952Y-94392857D01*
X147307142Y-94345238D01*
X147307142Y-94321428D01*
X147330952Y-94273809D01*
X147354761Y-94250000D01*
X147402380Y-94226190D01*
X147497619Y-94226190D01*
X147545238Y-94250000D01*
X147569047Y-94273809D01*
X147592857Y-94321428D01*
X147592857Y-94345238D01*
X147569047Y-94392857D01*
X147545238Y-94416666D01*
X147497619Y-94440476D01*
X147402380Y-94440476D01*
X147354761Y-94464285D01*
X147330952Y-94488095D01*
X147307142Y-94535714D01*
X147307142Y-94630952D01*
X147330952Y-94678571D01*
X147354761Y-94702380D01*
X147402380Y-94726190D01*
X147497619Y-94726190D01*
X147545238Y-94702380D01*
X147569047Y-94678571D01*
X147592857Y-94630952D01*
X147592857Y-94535714D01*
X147569047Y-94488095D01*
X147545238Y-94464285D01*
X147497619Y-94440476D01*
%TO.C,R9*%
X147116666Y-96226190D02*
X146950000Y-95988095D01*
X146830952Y-96226190D02*
X146830952Y-95726190D01*
X147021428Y-95726190D01*
X147069047Y-95750000D01*
X147092857Y-95773809D01*
X147116666Y-95821428D01*
X147116666Y-95892857D01*
X147092857Y-95940476D01*
X147069047Y-95964285D01*
X147021428Y-95988095D01*
X146830952Y-95988095D01*
X147354761Y-96226190D02*
X147450000Y-96226190D01*
X147497619Y-96202380D01*
X147521428Y-96178571D01*
X147569047Y-96107142D01*
X147592857Y-96011904D01*
X147592857Y-95821428D01*
X147569047Y-95773809D01*
X147545238Y-95750000D01*
X147497619Y-95726190D01*
X147402380Y-95726190D01*
X147354761Y-95750000D01*
X147330952Y-95773809D01*
X147307142Y-95821428D01*
X147307142Y-95940476D01*
X147330952Y-95988095D01*
X147354761Y-96011904D01*
X147402380Y-96035714D01*
X147497619Y-96035714D01*
X147545238Y-96011904D01*
X147569047Y-95988095D01*
X147592857Y-95940476D01*
%TO.C,R6*%
X147116666Y-97726190D02*
X146950000Y-97488095D01*
X146830952Y-97726190D02*
X146830952Y-97226190D01*
X147021428Y-97226190D01*
X147069047Y-97250000D01*
X147092857Y-97273809D01*
X147116666Y-97321428D01*
X147116666Y-97392857D01*
X147092857Y-97440476D01*
X147069047Y-97464285D01*
X147021428Y-97488095D01*
X146830952Y-97488095D01*
X147545238Y-97226190D02*
X147450000Y-97226190D01*
X147402380Y-97250000D01*
X147378571Y-97273809D01*
X147330952Y-97345238D01*
X147307142Y-97440476D01*
X147307142Y-97630952D01*
X147330952Y-97678571D01*
X147354761Y-97702380D01*
X147402380Y-97726190D01*
X147497619Y-97726190D01*
X147545238Y-97702380D01*
X147569047Y-97678571D01*
X147592857Y-97630952D01*
X147592857Y-97511904D01*
X147569047Y-97464285D01*
X147545238Y-97440476D01*
X147497619Y-97416666D01*
X147402380Y-97416666D01*
X147354761Y-97440476D01*
X147330952Y-97464285D01*
X147307142Y-97511904D01*
%TO.C,R5*%
X147116666Y-99226190D02*
X146950000Y-98988095D01*
X146830952Y-99226190D02*
X146830952Y-98726190D01*
X147021428Y-98726190D01*
X147069047Y-98750000D01*
X147092857Y-98773809D01*
X147116666Y-98821428D01*
X147116666Y-98892857D01*
X147092857Y-98940476D01*
X147069047Y-98964285D01*
X147021428Y-98988095D01*
X146830952Y-98988095D01*
X147569047Y-98726190D02*
X147330952Y-98726190D01*
X147307142Y-98964285D01*
X147330952Y-98940476D01*
X147378571Y-98916666D01*
X147497619Y-98916666D01*
X147545238Y-98940476D01*
X147569047Y-98964285D01*
X147592857Y-99011904D01*
X147592857Y-99130952D01*
X147569047Y-99178571D01*
X147545238Y-99202380D01*
X147497619Y-99226190D01*
X147378571Y-99226190D01*
X147330952Y-99202380D01*
X147307142Y-99178571D01*
%TO.C,C13*%
X155178571Y-100321428D02*
X155202380Y-100345238D01*
X155226190Y-100416666D01*
X155226190Y-100464285D01*
X155202380Y-100535714D01*
X155154761Y-100583333D01*
X155107142Y-100607142D01*
X155011904Y-100630952D01*
X154940476Y-100630952D01*
X154845238Y-100607142D01*
X154797619Y-100583333D01*
X154750000Y-100535714D01*
X154726190Y-100464285D01*
X154726190Y-100416666D01*
X154750000Y-100345238D01*
X154773809Y-100321428D01*
X155226190Y-99845238D02*
X155226190Y-100130952D01*
X155226190Y-99988095D02*
X154726190Y-99988095D01*
X154797619Y-100035714D01*
X154845238Y-100083333D01*
X154869047Y-100130952D01*
X154726190Y-99678571D02*
X154726190Y-99369047D01*
X154916666Y-99535714D01*
X154916666Y-99464285D01*
X154940476Y-99416666D01*
X154964285Y-99392857D01*
X155011904Y-99369047D01*
X155130952Y-99369047D01*
X155178571Y-99392857D01*
X155202380Y-99416666D01*
X155226190Y-99464285D01*
X155226190Y-99607142D01*
X155202380Y-99654761D01*
X155178571Y-99678571D01*
%TO.C,C12*%
X157928571Y-103221428D02*
X157952380Y-103245238D01*
X157976190Y-103316666D01*
X157976190Y-103364285D01*
X157952380Y-103435714D01*
X157904761Y-103483333D01*
X157857142Y-103507142D01*
X157761904Y-103530952D01*
X157690476Y-103530952D01*
X157595238Y-103507142D01*
X157547619Y-103483333D01*
X157500000Y-103435714D01*
X157476190Y-103364285D01*
X157476190Y-103316666D01*
X157500000Y-103245238D01*
X157523809Y-103221428D01*
X157976190Y-102745238D02*
X157976190Y-103030952D01*
X157976190Y-102888095D02*
X157476190Y-102888095D01*
X157547619Y-102935714D01*
X157595238Y-102983333D01*
X157619047Y-103030952D01*
X157523809Y-102554761D02*
X157500000Y-102530952D01*
X157476190Y-102483333D01*
X157476190Y-102364285D01*
X157500000Y-102316666D01*
X157523809Y-102292857D01*
X157571428Y-102269047D01*
X157619047Y-102269047D01*
X157690476Y-102292857D01*
X157976190Y-102578571D01*
X157976190Y-102269047D01*
%TO.C,C14*%
X160428571Y-100721428D02*
X160452380Y-100745238D01*
X160476190Y-100816666D01*
X160476190Y-100864285D01*
X160452380Y-100935714D01*
X160404761Y-100983333D01*
X160357142Y-101007142D01*
X160261904Y-101030952D01*
X160190476Y-101030952D01*
X160095238Y-101007142D01*
X160047619Y-100983333D01*
X160000000Y-100935714D01*
X159976190Y-100864285D01*
X159976190Y-100816666D01*
X160000000Y-100745238D01*
X160023809Y-100721428D01*
X160476190Y-100245238D02*
X160476190Y-100530952D01*
X160476190Y-100388095D02*
X159976190Y-100388095D01*
X160047619Y-100435714D01*
X160095238Y-100483333D01*
X160119047Y-100530952D01*
X160142857Y-99816666D02*
X160476190Y-99816666D01*
X159952380Y-99935714D02*
X160309523Y-100054761D01*
X160309523Y-99745238D01*
%TO.C,C15*%
X157978571Y-90678571D02*
X157954761Y-90702380D01*
X157883333Y-90726190D01*
X157835714Y-90726190D01*
X157764285Y-90702380D01*
X157716666Y-90654761D01*
X157692857Y-90607142D01*
X157669047Y-90511904D01*
X157669047Y-90440476D01*
X157692857Y-90345238D01*
X157716666Y-90297619D01*
X157764285Y-90250000D01*
X157835714Y-90226190D01*
X157883333Y-90226190D01*
X157954761Y-90250000D01*
X157978571Y-90273809D01*
X158454761Y-90726190D02*
X158169047Y-90726190D01*
X158311904Y-90726190D02*
X158311904Y-90226190D01*
X158264285Y-90297619D01*
X158216666Y-90345238D01*
X158169047Y-90369047D01*
X158907142Y-90226190D02*
X158669047Y-90226190D01*
X158645238Y-90464285D01*
X158669047Y-90440476D01*
X158716666Y-90416666D01*
X158835714Y-90416666D01*
X158883333Y-90440476D01*
X158907142Y-90464285D01*
X158930952Y-90511904D01*
X158930952Y-90630952D01*
X158907142Y-90678571D01*
X158883333Y-90702380D01*
X158835714Y-90726190D01*
X158716666Y-90726190D01*
X158669047Y-90702380D01*
X158645238Y-90678571D01*
%TO.C,C10*%
X167178571Y-90821428D02*
X167202380Y-90845238D01*
X167226190Y-90916666D01*
X167226190Y-90964285D01*
X167202380Y-91035714D01*
X167154761Y-91083333D01*
X167107142Y-91107142D01*
X167011904Y-91130952D01*
X166940476Y-91130952D01*
X166845238Y-91107142D01*
X166797619Y-91083333D01*
X166750000Y-91035714D01*
X166726190Y-90964285D01*
X166726190Y-90916666D01*
X166750000Y-90845238D01*
X166773809Y-90821428D01*
X167226190Y-90345238D02*
X167226190Y-90630952D01*
X167226190Y-90488095D02*
X166726190Y-90488095D01*
X166797619Y-90535714D01*
X166845238Y-90583333D01*
X166869047Y-90630952D01*
X166726190Y-90035714D02*
X166726190Y-89988095D01*
X166750000Y-89940476D01*
X166773809Y-89916666D01*
X166821428Y-89892857D01*
X166916666Y-89869047D01*
X167035714Y-89869047D01*
X167130952Y-89892857D01*
X167178571Y-89916666D01*
X167202380Y-89940476D01*
X167226190Y-89988095D01*
X167226190Y-90035714D01*
X167202380Y-90083333D01*
X167178571Y-90107142D01*
X167130952Y-90130952D01*
X167035714Y-90154761D01*
X166916666Y-90154761D01*
X166821428Y-90130952D01*
X166773809Y-90107142D01*
X166750000Y-90083333D01*
X166726190Y-90035714D01*
%TO.C,R4*%
X160916666Y-84626190D02*
X160750000Y-84388095D01*
X160630952Y-84626190D02*
X160630952Y-84126190D01*
X160821428Y-84126190D01*
X160869047Y-84150000D01*
X160892857Y-84173809D01*
X160916666Y-84221428D01*
X160916666Y-84292857D01*
X160892857Y-84340476D01*
X160869047Y-84364285D01*
X160821428Y-84388095D01*
X160630952Y-84388095D01*
X161345238Y-84292857D02*
X161345238Y-84626190D01*
X161226190Y-84102380D02*
X161107142Y-84459523D01*
X161416666Y-84459523D01*
%TO.C,C8*%
X160916666Y-85278571D02*
X160892857Y-85302380D01*
X160821428Y-85326190D01*
X160773809Y-85326190D01*
X160702380Y-85302380D01*
X160654761Y-85254761D01*
X160630952Y-85207142D01*
X160607142Y-85111904D01*
X160607142Y-85040476D01*
X160630952Y-84945238D01*
X160654761Y-84897619D01*
X160702380Y-84850000D01*
X160773809Y-84826190D01*
X160821428Y-84826190D01*
X160892857Y-84850000D01*
X160916666Y-84873809D01*
X161202380Y-85040476D02*
X161154761Y-85016666D01*
X161130952Y-84992857D01*
X161107142Y-84945238D01*
X161107142Y-84921428D01*
X161130952Y-84873809D01*
X161154761Y-84850000D01*
X161202380Y-84826190D01*
X161297619Y-84826190D01*
X161345238Y-84850000D01*
X161369047Y-84873809D01*
X161392857Y-84921428D01*
X161392857Y-84945238D01*
X161369047Y-84992857D01*
X161345238Y-85016666D01*
X161297619Y-85040476D01*
X161202380Y-85040476D01*
X161154761Y-85064285D01*
X161130952Y-85088095D01*
X161107142Y-85135714D01*
X161107142Y-85230952D01*
X161130952Y-85278571D01*
X161154761Y-85302380D01*
X161202380Y-85326190D01*
X161297619Y-85326190D01*
X161345238Y-85302380D01*
X161369047Y-85278571D01*
X161392857Y-85230952D01*
X161392857Y-85135714D01*
X161369047Y-85088095D01*
X161345238Y-85064285D01*
X161297619Y-85040476D01*
%TO.C,R3*%
X164216666Y-86776190D02*
X164050000Y-86538095D01*
X163930952Y-86776190D02*
X163930952Y-86276190D01*
X164121428Y-86276190D01*
X164169047Y-86300000D01*
X164192857Y-86323809D01*
X164216666Y-86371428D01*
X164216666Y-86442857D01*
X164192857Y-86490476D01*
X164169047Y-86514285D01*
X164121428Y-86538095D01*
X163930952Y-86538095D01*
X164383333Y-86276190D02*
X164692857Y-86276190D01*
X164526190Y-86466666D01*
X164597619Y-86466666D01*
X164645238Y-86490476D01*
X164669047Y-86514285D01*
X164692857Y-86561904D01*
X164692857Y-86680952D01*
X164669047Y-86728571D01*
X164645238Y-86752380D01*
X164597619Y-86776190D01*
X164454761Y-86776190D01*
X164407142Y-86752380D01*
X164383333Y-86728571D01*
%TO.C,C11*%
X167178571Y-100021428D02*
X167202380Y-100045238D01*
X167226190Y-100116666D01*
X167226190Y-100164285D01*
X167202380Y-100235714D01*
X167154761Y-100283333D01*
X167107142Y-100307142D01*
X167011904Y-100330952D01*
X166940476Y-100330952D01*
X166845238Y-100307142D01*
X166797619Y-100283333D01*
X166750000Y-100235714D01*
X166726190Y-100164285D01*
X166726190Y-100116666D01*
X166750000Y-100045238D01*
X166773809Y-100021428D01*
X167226190Y-99545238D02*
X167226190Y-99830952D01*
X167226190Y-99688095D02*
X166726190Y-99688095D01*
X166797619Y-99735714D01*
X166845238Y-99783333D01*
X166869047Y-99830952D01*
X167226190Y-99069047D02*
X167226190Y-99354761D01*
X167226190Y-99211904D02*
X166726190Y-99211904D01*
X166797619Y-99259523D01*
X166845238Y-99307142D01*
X166869047Y-99354761D01*
%TO.C,C9*%
X167916666Y-95178571D02*
X167892857Y-95202380D01*
X167821428Y-95226190D01*
X167773809Y-95226190D01*
X167702380Y-95202380D01*
X167654761Y-95154761D01*
X167630952Y-95107142D01*
X167607142Y-95011904D01*
X167607142Y-94940476D01*
X167630952Y-94845238D01*
X167654761Y-94797619D01*
X167702380Y-94750000D01*
X167773809Y-94726190D01*
X167821428Y-94726190D01*
X167892857Y-94750000D01*
X167916666Y-94773809D01*
X168154761Y-95226190D02*
X168250000Y-95226190D01*
X168297619Y-95202380D01*
X168321428Y-95178571D01*
X168369047Y-95107142D01*
X168392857Y-95011904D01*
X168392857Y-94821428D01*
X168369047Y-94773809D01*
X168345238Y-94750000D01*
X168297619Y-94726190D01*
X168202380Y-94726190D01*
X168154761Y-94750000D01*
X168130952Y-94773809D01*
X168107142Y-94821428D01*
X168107142Y-94940476D01*
X168130952Y-94988095D01*
X168154761Y-95011904D01*
X168202380Y-95035714D01*
X168297619Y-95035714D01*
X168345238Y-95011904D01*
X168369047Y-94988095D01*
X168392857Y-94940476D01*
%TO.C,C5*%
X167978571Y-99783333D02*
X168002380Y-99807142D01*
X168026190Y-99878571D01*
X168026190Y-99926190D01*
X168002380Y-99997619D01*
X167954761Y-100045238D01*
X167907142Y-100069047D01*
X167811904Y-100092857D01*
X167740476Y-100092857D01*
X167645238Y-100069047D01*
X167597619Y-100045238D01*
X167550000Y-99997619D01*
X167526190Y-99926190D01*
X167526190Y-99878571D01*
X167550000Y-99807142D01*
X167573809Y-99783333D01*
X167526190Y-99330952D02*
X167526190Y-99569047D01*
X167764285Y-99592857D01*
X167740476Y-99569047D01*
X167716666Y-99521428D01*
X167716666Y-99402380D01*
X167740476Y-99354761D01*
X167764285Y-99330952D01*
X167811904Y-99307142D01*
X167930952Y-99307142D01*
X167978571Y-99330952D01*
X168002380Y-99354761D01*
X168026190Y-99402380D01*
X168026190Y-99521428D01*
X168002380Y-99569047D01*
X167978571Y-99592857D01*
%TO.C,C3*%
X168678571Y-99783333D02*
X168702380Y-99807142D01*
X168726190Y-99878571D01*
X168726190Y-99926190D01*
X168702380Y-99997619D01*
X168654761Y-100045238D01*
X168607142Y-100069047D01*
X168511904Y-100092857D01*
X168440476Y-100092857D01*
X168345238Y-100069047D01*
X168297619Y-100045238D01*
X168250000Y-99997619D01*
X168226190Y-99926190D01*
X168226190Y-99878571D01*
X168250000Y-99807142D01*
X168273809Y-99783333D01*
X168226190Y-99616666D02*
X168226190Y-99307142D01*
X168416666Y-99473809D01*
X168416666Y-99402380D01*
X168440476Y-99354761D01*
X168464285Y-99330952D01*
X168511904Y-99307142D01*
X168630952Y-99307142D01*
X168678571Y-99330952D01*
X168702380Y-99354761D01*
X168726190Y-99402380D01*
X168726190Y-99545238D01*
X168702380Y-99592857D01*
X168678571Y-99616666D01*
%TO.C,C1*%
X169378571Y-99783333D02*
X169402380Y-99807142D01*
X169426190Y-99878571D01*
X169426190Y-99926190D01*
X169402380Y-99997619D01*
X169354761Y-100045238D01*
X169307142Y-100069047D01*
X169211904Y-100092857D01*
X169140476Y-100092857D01*
X169045238Y-100069047D01*
X168997619Y-100045238D01*
X168950000Y-99997619D01*
X168926190Y-99926190D01*
X168926190Y-99878571D01*
X168950000Y-99807142D01*
X168973809Y-99783333D01*
X169426190Y-99307142D02*
X169426190Y-99592857D01*
X169426190Y-99450000D02*
X168926190Y-99450000D01*
X168997619Y-99497619D01*
X169045238Y-99545238D01*
X169069047Y-99592857D01*
%TO.C,C6*%
X167878571Y-90383333D02*
X167902380Y-90407142D01*
X167926190Y-90478571D01*
X167926190Y-90526190D01*
X167902380Y-90597619D01*
X167854761Y-90645238D01*
X167807142Y-90669047D01*
X167711904Y-90692857D01*
X167640476Y-90692857D01*
X167545238Y-90669047D01*
X167497619Y-90645238D01*
X167450000Y-90597619D01*
X167426190Y-90526190D01*
X167426190Y-90478571D01*
X167450000Y-90407142D01*
X167473809Y-90383333D01*
X167426190Y-89954761D02*
X167426190Y-90050000D01*
X167450000Y-90097619D01*
X167473809Y-90121428D01*
X167545238Y-90169047D01*
X167640476Y-90192857D01*
X167830952Y-90192857D01*
X167878571Y-90169047D01*
X167902380Y-90145238D01*
X167926190Y-90097619D01*
X167926190Y-90002380D01*
X167902380Y-89954761D01*
X167878571Y-89930952D01*
X167830952Y-89907142D01*
X167711904Y-89907142D01*
X167664285Y-89930952D01*
X167640476Y-89954761D01*
X167616666Y-90002380D01*
X167616666Y-90097619D01*
X167640476Y-90145238D01*
X167664285Y-90169047D01*
X167711904Y-90192857D01*
%TO.C,C4*%
X168578571Y-90383333D02*
X168602380Y-90407142D01*
X168626190Y-90478571D01*
X168626190Y-90526190D01*
X168602380Y-90597619D01*
X168554761Y-90645238D01*
X168507142Y-90669047D01*
X168411904Y-90692857D01*
X168340476Y-90692857D01*
X168245238Y-90669047D01*
X168197619Y-90645238D01*
X168150000Y-90597619D01*
X168126190Y-90526190D01*
X168126190Y-90478571D01*
X168150000Y-90407142D01*
X168173809Y-90383333D01*
X168292857Y-89954761D02*
X168626190Y-89954761D01*
X168102380Y-90073809D02*
X168459523Y-90192857D01*
X168459523Y-89883333D01*
%TO.C,C2*%
X169278571Y-90383333D02*
X169302380Y-90407142D01*
X169326190Y-90478571D01*
X169326190Y-90526190D01*
X169302380Y-90597619D01*
X169254761Y-90645238D01*
X169207142Y-90669047D01*
X169111904Y-90692857D01*
X169040476Y-90692857D01*
X168945238Y-90669047D01*
X168897619Y-90645238D01*
X168850000Y-90597619D01*
X168826190Y-90526190D01*
X168826190Y-90478571D01*
X168850000Y-90407142D01*
X168873809Y-90383333D01*
X168873809Y-90192857D02*
X168850000Y-90169047D01*
X168826190Y-90121428D01*
X168826190Y-90002380D01*
X168850000Y-89954761D01*
X168873809Y-89930952D01*
X168921428Y-89907142D01*
X168969047Y-89907142D01*
X169040476Y-89930952D01*
X169326190Y-90216666D01*
X169326190Y-89907142D01*
%TO.C,R1*%
X168916666Y-97126190D02*
X168750000Y-96888095D01*
X168630952Y-97126190D02*
X168630952Y-96626190D01*
X168821428Y-96626190D01*
X168869047Y-96650000D01*
X168892857Y-96673809D01*
X168916666Y-96721428D01*
X168916666Y-96792857D01*
X168892857Y-96840476D01*
X168869047Y-96864285D01*
X168821428Y-96888095D01*
X168630952Y-96888095D01*
X169392857Y-97126190D02*
X169107142Y-97126190D01*
X169250000Y-97126190D02*
X169250000Y-96626190D01*
X169202380Y-96697619D01*
X169154761Y-96745238D01*
X169107142Y-96769047D01*
%TO.C,C7*%
X169816666Y-95178571D02*
X169792857Y-95202380D01*
X169721428Y-95226190D01*
X169673809Y-95226190D01*
X169602380Y-95202380D01*
X169554761Y-95154761D01*
X169530952Y-95107142D01*
X169507142Y-95011904D01*
X169507142Y-94940476D01*
X169530952Y-94845238D01*
X169554761Y-94797619D01*
X169602380Y-94750000D01*
X169673809Y-94726190D01*
X169721428Y-94726190D01*
X169792857Y-94750000D01*
X169816666Y-94773809D01*
X169983333Y-94726190D02*
X170316666Y-94726190D01*
X170102380Y-95226190D01*
%TO.C,R2*%
X168916666Y-93326190D02*
X168750000Y-93088095D01*
X168630952Y-93326190D02*
X168630952Y-92826190D01*
X168821428Y-92826190D01*
X168869047Y-92850000D01*
X168892857Y-92873809D01*
X168916666Y-92921428D01*
X168916666Y-92992857D01*
X168892857Y-93040476D01*
X168869047Y-93064285D01*
X168821428Y-93088095D01*
X168630952Y-93088095D01*
X169107142Y-92873809D02*
X169130952Y-92850000D01*
X169178571Y-92826190D01*
X169297619Y-92826190D01*
X169345238Y-92850000D01*
X169369047Y-92873809D01*
X169392857Y-92921428D01*
X169392857Y-92969047D01*
X169369047Y-93040476D01*
X169083333Y-93326190D01*
X169392857Y-93326190D01*
%TO.C,Y1*%
X155561904Y-90488095D02*
X155561904Y-90726190D01*
X155395238Y-90226190D02*
X155561904Y-90488095D01*
X155728571Y-90226190D01*
X156157142Y-90726190D02*
X155871428Y-90726190D01*
X156014285Y-90726190D02*
X156014285Y-90226190D01*
X155966666Y-90297619D01*
X155919047Y-90345238D01*
X155871428Y-90369047D01*
%TD*%
M02*
