%TF.GenerationSoftware,KiCad,Pcbnew,(5.1.9-0-10_14)*%
%TF.CreationDate,2021-04-25T19:26:38+01:00*%
%TF.ProjectId,PN532,504e3533-322e-46b6-9963-61645f706362,2*%
%TF.SameCoordinates,Original*%
%TF.FileFunction,Paste,Bot*%
%TF.FilePolarity,Positive*%
%FSLAX46Y46*%
G04 Gerber Fmt 4.6, Leading zero omitted, Abs format (unit mm)*
G04 Created by KiCad (PCBNEW (5.1.9-0-10_14)) date 2021-04-25 19:26:38*
%MOMM*%
%LPD*%
G01*
G04 APERTURE LIST*
G04 APERTURE END LIST*
%TO.C,D3*%
G36*
G01*
X139800000Y-106549999D02*
X139800000Y-107450001D01*
G75*
G02*
X139550001Y-107700000I-249999J0D01*
G01*
X138849999Y-107700000D01*
G75*
G02*
X138600000Y-107450001I0J249999D01*
G01*
X138600000Y-106549999D01*
G75*
G02*
X138849999Y-106300000I249999J0D01*
G01*
X139550001Y-106300000D01*
G75*
G02*
X139800000Y-106549999I0J-249999D01*
G01*
G37*
G36*
G01*
X137800000Y-106549999D02*
X137800000Y-107450001D01*
G75*
G02*
X137550001Y-107700000I-249999J0D01*
G01*
X136849999Y-107700000D01*
G75*
G02*
X136600000Y-107450001I0J249999D01*
G01*
X136600000Y-106549999D01*
G75*
G02*
X136849999Y-106300000I249999J0D01*
G01*
X137550001Y-106300000D01*
G75*
G02*
X137800000Y-106549999I0J-249999D01*
G01*
G37*
G36*
G01*
X136995000Y-106375000D02*
X136995000Y-107625000D01*
G75*
G02*
X136745000Y-107875000I-250000J0D01*
G01*
X135820000Y-107875000D01*
G75*
G02*
X135570000Y-107625000I0J250000D01*
G01*
X135570000Y-106375000D01*
G75*
G02*
X135820000Y-106125000I250000J0D01*
G01*
X136745000Y-106125000D01*
G75*
G02*
X136995000Y-106375000I0J-250000D01*
G01*
G37*
G36*
G01*
X139970000Y-106375000D02*
X139970000Y-107625000D01*
G75*
G02*
X139720000Y-107875000I-250000J0D01*
G01*
X138795000Y-107875000D01*
G75*
G02*
X138545000Y-107625000I0J250000D01*
G01*
X138545000Y-106375000D01*
G75*
G02*
X138795000Y-106125000I250000J0D01*
G01*
X139720000Y-106125000D01*
G75*
G02*
X139970000Y-106375000I0J-250000D01*
G01*
G37*
%TD*%
%TO.C,D1*%
G36*
G01*
X139800000Y-94549999D02*
X139800000Y-95450001D01*
G75*
G02*
X139550001Y-95700000I-249999J0D01*
G01*
X138849999Y-95700000D01*
G75*
G02*
X138600000Y-95450001I0J249999D01*
G01*
X138600000Y-94549999D01*
G75*
G02*
X138849999Y-94300000I249999J0D01*
G01*
X139550001Y-94300000D01*
G75*
G02*
X139800000Y-94549999I0J-249999D01*
G01*
G37*
G36*
G01*
X137800000Y-94549999D02*
X137800000Y-95450001D01*
G75*
G02*
X137550001Y-95700000I-249999J0D01*
G01*
X136849999Y-95700000D01*
G75*
G02*
X136600000Y-95450001I0J249999D01*
G01*
X136600000Y-94549999D01*
G75*
G02*
X136849999Y-94300000I249999J0D01*
G01*
X137550001Y-94300000D01*
G75*
G02*
X137800000Y-94549999I0J-249999D01*
G01*
G37*
G36*
G01*
X136995000Y-94375000D02*
X136995000Y-95625000D01*
G75*
G02*
X136745000Y-95875000I-250000J0D01*
G01*
X135820000Y-95875000D01*
G75*
G02*
X135570000Y-95625000I0J250000D01*
G01*
X135570000Y-94375000D01*
G75*
G02*
X135820000Y-94125000I250000J0D01*
G01*
X136745000Y-94125000D01*
G75*
G02*
X136995000Y-94375000I0J-250000D01*
G01*
G37*
G36*
G01*
X139970000Y-94375000D02*
X139970000Y-95625000D01*
G75*
G02*
X139720000Y-95875000I-250000J0D01*
G01*
X138795000Y-95875000D01*
G75*
G02*
X138545000Y-95625000I0J250000D01*
G01*
X138545000Y-94375000D01*
G75*
G02*
X138795000Y-94125000I250000J0D01*
G01*
X139720000Y-94125000D01*
G75*
G02*
X139970000Y-94375000I0J-250000D01*
G01*
G37*
%TD*%
%TO.C,D2*%
G36*
G01*
X139800000Y-100549999D02*
X139800000Y-101450001D01*
G75*
G02*
X139550001Y-101700000I-249999J0D01*
G01*
X138849999Y-101700000D01*
G75*
G02*
X138600000Y-101450001I0J249999D01*
G01*
X138600000Y-100549999D01*
G75*
G02*
X138849999Y-100300000I249999J0D01*
G01*
X139550001Y-100300000D01*
G75*
G02*
X139800000Y-100549999I0J-249999D01*
G01*
G37*
G36*
G01*
X137800000Y-100549999D02*
X137800000Y-101450001D01*
G75*
G02*
X137550001Y-101700000I-249999J0D01*
G01*
X136849999Y-101700000D01*
G75*
G02*
X136600000Y-101450001I0J249999D01*
G01*
X136600000Y-100549999D01*
G75*
G02*
X136849999Y-100300000I249999J0D01*
G01*
X137550001Y-100300000D01*
G75*
G02*
X137800000Y-100549999I0J-249999D01*
G01*
G37*
G36*
G01*
X136995000Y-100375000D02*
X136995000Y-101625000D01*
G75*
G02*
X136745000Y-101875000I-250000J0D01*
G01*
X135820000Y-101875000D01*
G75*
G02*
X135570000Y-101625000I0J250000D01*
G01*
X135570000Y-100375000D01*
G75*
G02*
X135820000Y-100125000I250000J0D01*
G01*
X136745000Y-100125000D01*
G75*
G02*
X136995000Y-100375000I0J-250000D01*
G01*
G37*
G36*
G01*
X139970000Y-100375000D02*
X139970000Y-101625000D01*
G75*
G02*
X139720000Y-101875000I-250000J0D01*
G01*
X138795000Y-101875000D01*
G75*
G02*
X138545000Y-101625000I0J250000D01*
G01*
X138545000Y-100375000D01*
G75*
G02*
X138795000Y-100125000I250000J0D01*
G01*
X139720000Y-100125000D01*
G75*
G02*
X139970000Y-100375000I0J-250000D01*
G01*
G37*
%TD*%
M02*
