%TF.GenerationSoftware,KiCad,Pcbnew,(5.1.9-0-10_14)*%
%TF.CreationDate,2021-05-08T20:35:23+01:00*%
%TF.ProjectId,PN532,504e3533-322e-46b6-9963-61645f706362,6*%
%TF.SameCoordinates,Original*%
%TF.FileFunction,Legend,Bot*%
%TF.FilePolarity,Positive*%
%FSLAX46Y46*%
G04 Gerber Fmt 4.6, Leading zero omitted, Abs format (unit mm)*
G04 Created by KiCad (PCBNEW (5.1.9-0-10_14)) date 2021-05-08 20:35:23*
%MOMM*%
%LPD*%
G01*
G04 APERTURE LIST*
%ADD10C,0.100000*%
%ADD11C,0.150000*%
%ADD12C,0.120000*%
%ADD13C,0.200000*%
%ADD14C,0.250000*%
G04 APERTURE END LIST*
D10*
X94388571Y-110951785D02*
X94317142Y-110951785D01*
X94245714Y-110987500D01*
X94210000Y-111023214D01*
X94174285Y-111094642D01*
X94138571Y-111237500D01*
X94138571Y-111416071D01*
X94174285Y-111558928D01*
X94210000Y-111630357D01*
X94245714Y-111666071D01*
X94317142Y-111701785D01*
X94388571Y-111701785D01*
X94460000Y-111666071D01*
X94495714Y-111630357D01*
X94531428Y-111558928D01*
X94567142Y-111416071D01*
X94567142Y-111237500D01*
X94531428Y-111094642D01*
X94495714Y-111023214D01*
X94460000Y-110987500D01*
X94388571Y-110951785D01*
X93817142Y-111630357D02*
X93781428Y-111666071D01*
X93817142Y-111701785D01*
X93852857Y-111666071D01*
X93817142Y-111630357D01*
X93817142Y-111701785D01*
X93067142Y-111701785D02*
X93495714Y-111701785D01*
X93281428Y-111701785D02*
X93281428Y-110951785D01*
X93352857Y-111058928D01*
X93424285Y-111130357D01*
X93495714Y-111166071D01*
X92745714Y-110951785D02*
X92745714Y-110987500D01*
X92781428Y-111058928D01*
X92817142Y-111094642D01*
X92460000Y-110951785D02*
X92460000Y-110987500D01*
X92495714Y-111058928D01*
X92531428Y-111094642D01*
X94531428Y-112926785D02*
X94531428Y-112176785D01*
X94210000Y-112926785D02*
X94210000Y-112533928D01*
X94245714Y-112462500D01*
X94317142Y-112426785D01*
X94424285Y-112426785D01*
X94495714Y-112462500D01*
X94531428Y-112498214D01*
X93567142Y-112891071D02*
X93638571Y-112926785D01*
X93781428Y-112926785D01*
X93852857Y-112891071D01*
X93888571Y-112819642D01*
X93888571Y-112533928D01*
X93852857Y-112462500D01*
X93781428Y-112426785D01*
X93638571Y-112426785D01*
X93567142Y-112462500D01*
X93531428Y-112533928D01*
X93531428Y-112605357D01*
X93888571Y-112676785D01*
X92888571Y-112926785D02*
X92888571Y-112533928D01*
X92924285Y-112462500D01*
X92995714Y-112426785D01*
X93138571Y-112426785D01*
X93210000Y-112462500D01*
X92888571Y-112891071D02*
X92960000Y-112926785D01*
X93138571Y-112926785D01*
X93210000Y-112891071D01*
X93245714Y-112819642D01*
X93245714Y-112748214D01*
X93210000Y-112676785D01*
X93138571Y-112641071D01*
X92960000Y-112641071D01*
X92888571Y-112605357D01*
X92210000Y-112926785D02*
X92210000Y-112176785D01*
X92210000Y-112891071D02*
X92281428Y-112926785D01*
X92424285Y-112926785D01*
X92495714Y-112891071D01*
X92531428Y-112855357D01*
X92567142Y-112783928D01*
X92567142Y-112569642D01*
X92531428Y-112498214D01*
X92495714Y-112462500D01*
X92424285Y-112426785D01*
X92281428Y-112426785D01*
X92210000Y-112462500D01*
X91567142Y-112891071D02*
X91638571Y-112926785D01*
X91781428Y-112926785D01*
X91852857Y-112891071D01*
X91888571Y-112819642D01*
X91888571Y-112533928D01*
X91852857Y-112462500D01*
X91781428Y-112426785D01*
X91638571Y-112426785D01*
X91567142Y-112462500D01*
X91531428Y-112533928D01*
X91531428Y-112605357D01*
X91888571Y-112676785D01*
X91210000Y-112926785D02*
X91210000Y-112426785D01*
X91210000Y-112569642D02*
X91174285Y-112498214D01*
X91138571Y-112462500D01*
X91067142Y-112426785D01*
X90995714Y-112426785D01*
X94506428Y-108701785D02*
X94506428Y-107951785D01*
X94256428Y-108487500D01*
X94006428Y-107951785D01*
X94006428Y-108701785D01*
X93649285Y-108701785D02*
X93649285Y-108201785D01*
X93649285Y-107951785D02*
X93685000Y-107987500D01*
X93649285Y-108023214D01*
X93613571Y-107987500D01*
X93649285Y-107951785D01*
X93649285Y-108023214D01*
X93292142Y-108201785D02*
X93292142Y-108701785D01*
X93292142Y-108273214D02*
X93256428Y-108237500D01*
X93185000Y-108201785D01*
X93077857Y-108201785D01*
X93006428Y-108237500D01*
X92970714Y-108308928D01*
X92970714Y-108701785D01*
X92613571Y-108701785D02*
X92613571Y-108201785D01*
X92613571Y-107951785D02*
X92649285Y-107987500D01*
X92613571Y-108023214D01*
X92577857Y-107987500D01*
X92613571Y-107951785D01*
X92613571Y-108023214D01*
X94542142Y-109891071D02*
X94435000Y-109926785D01*
X94256428Y-109926785D01*
X94185000Y-109891071D01*
X94149285Y-109855357D01*
X94113571Y-109783928D01*
X94113571Y-109712500D01*
X94149285Y-109641071D01*
X94185000Y-109605357D01*
X94256428Y-109569642D01*
X94399285Y-109533928D01*
X94470714Y-109498214D01*
X94506428Y-109462500D01*
X94542142Y-109391071D01*
X94542142Y-109319642D01*
X94506428Y-109248214D01*
X94470714Y-109212500D01*
X94399285Y-109176785D01*
X94220714Y-109176785D01*
X94113571Y-109212500D01*
X93792142Y-109926785D02*
X93792142Y-109176785D01*
X93506428Y-109176785D01*
X93435000Y-109212500D01*
X93399285Y-109248214D01*
X93363571Y-109319642D01*
X93363571Y-109426785D01*
X93399285Y-109498214D01*
X93435000Y-109533928D01*
X93506428Y-109569642D01*
X93792142Y-109569642D01*
X92899285Y-109176785D02*
X92756428Y-109176785D01*
X92685000Y-109212500D01*
X92613571Y-109283928D01*
X92577857Y-109426785D01*
X92577857Y-109676785D01*
X92613571Y-109819642D01*
X92685000Y-109891071D01*
X92756428Y-109926785D01*
X92899285Y-109926785D01*
X92970714Y-109891071D01*
X93042142Y-109819642D01*
X93077857Y-109676785D01*
X93077857Y-109426785D01*
X93042142Y-109283928D01*
X92970714Y-109212500D01*
X92899285Y-109176785D01*
X92327857Y-109176785D02*
X91827857Y-109926785D01*
X91827857Y-109176785D02*
X92327857Y-109926785D01*
D11*
X114238095Y-94066666D02*
X113761904Y-94066666D01*
X114333333Y-94352380D02*
X114000000Y-93352380D01*
X113666666Y-94352380D01*
X103857142Y-87085714D02*
X103666666Y-87752380D01*
X103476190Y-87276190D01*
X103285714Y-87752380D01*
X103095238Y-87085714D01*
X102809523Y-87085714D02*
X102619047Y-87752380D01*
X102428571Y-87276190D01*
X102238095Y-87752380D01*
X102047619Y-87085714D01*
X101761904Y-87085714D02*
X101571428Y-87752380D01*
X101380952Y-87276190D01*
X101190476Y-87752380D01*
X101000000Y-87085714D01*
X100619047Y-87657142D02*
X100571428Y-87704761D01*
X100619047Y-87752380D01*
X100666666Y-87704761D01*
X100619047Y-87657142D01*
X100619047Y-87752380D01*
X100142857Y-87752380D02*
X100142857Y-87085714D01*
X100142857Y-87180952D02*
X100095238Y-87133333D01*
X100000000Y-87085714D01*
X99857142Y-87085714D01*
X99761904Y-87133333D01*
X99714285Y-87228571D01*
X99714285Y-87752380D01*
X99714285Y-87228571D02*
X99666666Y-87133333D01*
X99571428Y-87085714D01*
X99428571Y-87085714D01*
X99333333Y-87133333D01*
X99285714Y-87228571D01*
X99285714Y-87752380D01*
X98428571Y-87704761D02*
X98523809Y-87752380D01*
X98714285Y-87752380D01*
X98809523Y-87704761D01*
X98857142Y-87609523D01*
X98857142Y-87228571D01*
X98809523Y-87133333D01*
X98714285Y-87085714D01*
X98523809Y-87085714D01*
X98428571Y-87133333D01*
X98380952Y-87228571D01*
X98380952Y-87323809D01*
X98857142Y-87419047D01*
X97952380Y-87657142D02*
X97904761Y-87704761D01*
X97952380Y-87752380D01*
X98000000Y-87704761D01*
X97952380Y-87657142D01*
X97952380Y-87752380D01*
X97047619Y-87085714D02*
X97047619Y-87752380D01*
X97476190Y-87085714D02*
X97476190Y-87609523D01*
X97428571Y-87704761D01*
X97333333Y-87752380D01*
X97190476Y-87752380D01*
X97095238Y-87704761D01*
X97047619Y-87657142D01*
X96571428Y-87752380D02*
X96571428Y-86752380D01*
X96476190Y-87371428D02*
X96190476Y-87752380D01*
X96190476Y-87085714D02*
X96571428Y-87466666D01*
X88647619Y-102595238D02*
X88647619Y-102023809D01*
X87647619Y-102309523D02*
X88647619Y-102309523D01*
X87647619Y-101261904D02*
X88171428Y-101261904D01*
X88266666Y-101309523D01*
X88314285Y-101404761D01*
X88314285Y-101595238D01*
X88266666Y-101690476D01*
X87695238Y-101261904D02*
X87647619Y-101357142D01*
X87647619Y-101595238D01*
X87695238Y-101690476D01*
X87790476Y-101738095D01*
X87885714Y-101738095D01*
X87980952Y-101690476D01*
X88028571Y-101595238D01*
X88028571Y-101357142D01*
X88076190Y-101261904D01*
X87647619Y-100785714D02*
X88314285Y-100785714D01*
X88219047Y-100785714D02*
X88266666Y-100738095D01*
X88314285Y-100642857D01*
X88314285Y-100500000D01*
X88266666Y-100404761D01*
X88171428Y-100357142D01*
X87647619Y-100357142D01*
X88171428Y-100357142D02*
X88266666Y-100309523D01*
X88314285Y-100214285D01*
X88314285Y-100071428D01*
X88266666Y-99976190D01*
X88171428Y-99928571D01*
X87647619Y-99928571D01*
X88314285Y-99452380D02*
X87314285Y-99452380D01*
X88266666Y-99452380D02*
X88314285Y-99357142D01*
X88314285Y-99166666D01*
X88266666Y-99071428D01*
X88219047Y-99023809D01*
X88123809Y-98976190D01*
X87838095Y-98976190D01*
X87742857Y-99023809D01*
X87695238Y-99071428D01*
X87647619Y-99166666D01*
X87647619Y-99357142D01*
X87695238Y-99452380D01*
X87695238Y-98166666D02*
X87647619Y-98261904D01*
X87647619Y-98452380D01*
X87695238Y-98547619D01*
X87790476Y-98595238D01*
X88171428Y-98595238D01*
X88266666Y-98547619D01*
X88314285Y-98452380D01*
X88314285Y-98261904D01*
X88266666Y-98166666D01*
X88171428Y-98119047D01*
X88076190Y-98119047D01*
X87980952Y-98595238D01*
X87647619Y-97690476D02*
X88314285Y-97690476D01*
X88123809Y-97690476D02*
X88219047Y-97642857D01*
X88266666Y-97595238D01*
X88314285Y-97500000D01*
X88314285Y-97404761D01*
X104202380Y-105333333D02*
X103726190Y-105000000D01*
X104202380Y-104761904D02*
X103202380Y-104761904D01*
X103202380Y-105142857D01*
X103250000Y-105238095D01*
X103297619Y-105285714D01*
X103392857Y-105333333D01*
X103535714Y-105333333D01*
X103630952Y-105285714D01*
X103678571Y-105238095D01*
X103726190Y-105142857D01*
X103726190Y-104761904D01*
X103202380Y-105666666D02*
X104202380Y-106333333D01*
X103202380Y-106333333D02*
X104202380Y-105666666D01*
X113738095Y-99400000D02*
X113833333Y-99352380D01*
X113976190Y-99352380D01*
X114119047Y-99400000D01*
X114214285Y-99495238D01*
X114261904Y-99590476D01*
X114309523Y-99780952D01*
X114309523Y-99923809D01*
X114261904Y-100114285D01*
X114214285Y-100209523D01*
X114119047Y-100304761D01*
X113976190Y-100352380D01*
X113880952Y-100352380D01*
X113738095Y-100304761D01*
X113690476Y-100257142D01*
X113690476Y-99923809D01*
X113880952Y-99923809D01*
X113690476Y-88452380D02*
X114023809Y-87976190D01*
X114261904Y-88452380D02*
X114261904Y-87452380D01*
X113880952Y-87452380D01*
X113785714Y-87500000D01*
X113738095Y-87547619D01*
X113690476Y-87642857D01*
X113690476Y-87785714D01*
X113738095Y-87880952D01*
X113785714Y-87928571D01*
X113880952Y-87976190D01*
X114261904Y-87976190D01*
X98202380Y-104166666D02*
X99202380Y-104500000D01*
X98202380Y-104833333D01*
X99107142Y-105738095D02*
X99154761Y-105690476D01*
X99202380Y-105547619D01*
X99202380Y-105452380D01*
X99154761Y-105309523D01*
X99059523Y-105214285D01*
X98964285Y-105166666D01*
X98773809Y-105119047D01*
X98630952Y-105119047D01*
X98440476Y-105166666D01*
X98345238Y-105214285D01*
X98250000Y-105309523D01*
X98202380Y-105452380D01*
X98202380Y-105547619D01*
X98250000Y-105690476D01*
X98297619Y-105738095D01*
X99107142Y-106738095D02*
X99154761Y-106690476D01*
X99202380Y-106547619D01*
X99202380Y-106452380D01*
X99154761Y-106309523D01*
X99059523Y-106214285D01*
X98964285Y-106166666D01*
X98773809Y-106119047D01*
X98630952Y-106119047D01*
X98440476Y-106166666D01*
X98345238Y-106214285D01*
X98250000Y-106309523D01*
X98202380Y-106452380D01*
X98202380Y-106547619D01*
X98250000Y-106690476D01*
X98297619Y-106738095D01*
X100702380Y-104738095D02*
X100702380Y-105309523D01*
X101702380Y-105023809D02*
X100702380Y-105023809D01*
X100702380Y-105547619D02*
X101702380Y-106214285D01*
X100702380Y-106214285D02*
X101702380Y-105547619D01*
X95750000Y-104738095D02*
X95702380Y-104642857D01*
X95702380Y-104500000D01*
X95750000Y-104357142D01*
X95845238Y-104261904D01*
X95940476Y-104214285D01*
X96130952Y-104166666D01*
X96273809Y-104166666D01*
X96464285Y-104214285D01*
X96559523Y-104261904D01*
X96654761Y-104357142D01*
X96702380Y-104500000D01*
X96702380Y-104595238D01*
X96654761Y-104738095D01*
X96607142Y-104785714D01*
X96273809Y-104785714D01*
X96273809Y-104595238D01*
X96702380Y-105214285D02*
X95702380Y-105214285D01*
X96702380Y-105785714D01*
X95702380Y-105785714D01*
X96702380Y-106261904D02*
X95702380Y-106261904D01*
X95702380Y-106500000D01*
X95750000Y-106642857D01*
X95845238Y-106738095D01*
X95940476Y-106785714D01*
X96130952Y-106833333D01*
X96273809Y-106833333D01*
X96464285Y-106785714D01*
X96559523Y-106738095D01*
X96654761Y-106642857D01*
X96702380Y-106500000D01*
X96702380Y-106261904D01*
D12*
%TO.C,A1*%
X112000000Y-116500000D02*
X88000000Y-116500000D01*
X112000000Y-120500000D02*
X88000000Y-120500000D01*
X116500000Y-112000000D02*
X116500000Y-88000000D01*
X120500000Y-88000000D02*
X120500000Y-112000000D01*
X112000000Y-83500000D02*
X88000000Y-83500000D01*
X83500000Y-88000000D02*
X83500000Y-112000000D01*
X79500000Y-112000000D02*
X79500000Y-88000000D01*
X88000000Y-79500000D02*
X112000000Y-79500000D01*
X83500000Y-112000000D02*
G75*
G03*
X88000000Y-116500000I4500000J0D01*
G01*
X88000000Y-83500000D02*
G75*
G03*
X83500000Y-88000000I0J-4500000D01*
G01*
X116500000Y-88000000D02*
G75*
G03*
X112000000Y-83500000I-4500000J0D01*
G01*
X112000000Y-116500000D02*
G75*
G03*
X116500000Y-112000000I0J4500000D01*
G01*
X79500000Y-112000000D02*
G75*
G03*
X88000000Y-120500000I8500000J0D01*
G01*
X112000000Y-120500000D02*
G75*
G03*
X120500000Y-112000000I0J8500000D01*
G01*
X120500000Y-88000000D02*
G75*
G03*
X112000000Y-79500000I-8500000J0D01*
G01*
X88000000Y-79500000D02*
G75*
G03*
X79500000Y-88000000I0J-8500000D01*
G01*
%TO.C,D1*%
X111500000Y-100300000D02*
X111500000Y-99600000D01*
X112500000Y-100300000D02*
X112500000Y-99600000D01*
X113900000Y-102300000D02*
X110100000Y-102300000D01*
X113899999Y-102299999D02*
G75*
G03*
X110100001Y-102299999I-1899999J2299999D01*
G01*
%TO.C,J2*%
X94860000Y-110670000D02*
X94860000Y-112000000D01*
X96190000Y-110670000D02*
X94860000Y-110670000D01*
X97460000Y-110670000D02*
X97460000Y-113330000D01*
X97460000Y-113330000D02*
X105140000Y-113330000D01*
X97460000Y-110670000D02*
X105140000Y-110670000D01*
X105140000Y-110670000D02*
X105140000Y-113330000D01*
%TO.C,D3*%
X111500000Y-88300000D02*
X111500000Y-87600000D01*
X112500000Y-88300000D02*
X112500000Y-87600000D01*
X113900000Y-90300000D02*
X110100000Y-90300000D01*
X113899999Y-90299999D02*
G75*
G03*
X110100001Y-90299999I-1899999J2299999D01*
G01*
D13*
%TO.C,AJK1*%
X95325880Y-90087650D02*
X92384700Y-85970000D01*
X92384700Y-90087650D02*
X92600062Y-90607579D01*
X92384700Y-85970000D02*
X92384700Y-90087650D01*
X93119994Y-90822940D02*
X93639926Y-90607579D01*
X92600062Y-90607579D02*
X93119994Y-90822940D01*
X93639926Y-90607579D02*
X93855288Y-90087650D01*
X92384710Y-88028820D02*
X90620000Y-90087650D01*
X92384700Y-88029000D02*
X93855300Y-88029000D01*
X90620000Y-85970000D02*
X92384710Y-88028820D01*
D12*
%TO.C,D2*%
X111500000Y-94300000D02*
X111500000Y-93600000D01*
X112500000Y-94300000D02*
X112500000Y-93600000D01*
X113900000Y-96300000D02*
X110100000Y-96300000D01*
X113899999Y-96299999D02*
G75*
G03*
X110100001Y-96299999I-1899999J2299999D01*
G01*
%TO.C,A1*%
D14*
X87857142Y-80369047D02*
X87857142Y-82869047D01*
X89285714Y-80369047D01*
X89285714Y-82869047D01*
X91309523Y-81678571D02*
X90476190Y-81678571D01*
X90476190Y-80369047D02*
X90476190Y-82869047D01*
X91666666Y-82869047D01*
X94047619Y-80607142D02*
X93928571Y-80488095D01*
X93571428Y-80369047D01*
X93333333Y-80369047D01*
X92976190Y-80488095D01*
X92738095Y-80726190D01*
X92619047Y-80964285D01*
X92500000Y-81440476D01*
X92500000Y-81797619D01*
X92619047Y-82273809D01*
X92738095Y-82511904D01*
X92976190Y-82750000D01*
X93333333Y-82869047D01*
X93571428Y-82869047D01*
X93928571Y-82750000D01*
X94047619Y-82630952D01*
X96904761Y-81083333D02*
X98095238Y-81083333D01*
X96666666Y-80369047D02*
X97500000Y-82869047D01*
X98333333Y-80369047D01*
X99166666Y-80369047D02*
X99166666Y-82869047D01*
X100595238Y-80369047D01*
X100595238Y-82869047D01*
X101428571Y-82869047D02*
X102857142Y-82869047D01*
X102142857Y-80369047D02*
X102142857Y-82869047D01*
X103690476Y-81678571D02*
X104523809Y-81678571D01*
X104880952Y-80369047D02*
X103690476Y-80369047D01*
X103690476Y-82869047D01*
X104880952Y-82869047D01*
X105952380Y-80369047D02*
X105952380Y-82869047D01*
X107380952Y-80369047D01*
X107380952Y-82869047D01*
X108571428Y-80369047D02*
X108571428Y-82869047D01*
X110000000Y-80369047D01*
X110000000Y-82869047D01*
X111071428Y-81083333D02*
X112261904Y-81083333D01*
X110833333Y-80369047D02*
X111666666Y-82869047D01*
X112500000Y-80369047D01*
X112142857Y-119630952D02*
X112142857Y-117130952D01*
X110714285Y-119630952D01*
X110714285Y-117130952D01*
X108690476Y-118321428D02*
X109523809Y-118321428D01*
X109523809Y-119630952D02*
X109523809Y-117130952D01*
X108333333Y-117130952D01*
X105952380Y-119392857D02*
X106071428Y-119511904D01*
X106428571Y-119630952D01*
X106666666Y-119630952D01*
X107023809Y-119511904D01*
X107261904Y-119273809D01*
X107380952Y-119035714D01*
X107500000Y-118559523D01*
X107500000Y-118202380D01*
X107380952Y-117726190D01*
X107261904Y-117488095D01*
X107023809Y-117250000D01*
X106666666Y-117130952D01*
X106428571Y-117130952D01*
X106071428Y-117250000D01*
X105952380Y-117369047D01*
X103095238Y-118916666D02*
X101904761Y-118916666D01*
X103333333Y-119630952D02*
X102500000Y-117130952D01*
X101666666Y-119630952D01*
X100833333Y-119630952D02*
X100833333Y-117130952D01*
X99404761Y-119630952D01*
X99404761Y-117130952D01*
X98571428Y-117130952D02*
X97142857Y-117130952D01*
X97857142Y-119630952D02*
X97857142Y-117130952D01*
X96309523Y-118321428D02*
X95476190Y-118321428D01*
X95119047Y-119630952D02*
X96309523Y-119630952D01*
X96309523Y-117130952D01*
X95119047Y-117130952D01*
X94047619Y-119630952D02*
X94047619Y-117130952D01*
X92619047Y-119630952D01*
X92619047Y-117130952D01*
X91428571Y-119630952D02*
X91428571Y-117130952D01*
X90000000Y-119630952D01*
X90000000Y-117130952D01*
X88928571Y-118916666D02*
X87738095Y-118916666D01*
X89166666Y-119630952D02*
X88333333Y-117130952D01*
X87500000Y-119630952D01*
X80369047Y-112142857D02*
X82869047Y-112142857D01*
X80369047Y-110714285D01*
X82869047Y-110714285D01*
X81678571Y-108690476D02*
X81678571Y-109523809D01*
X80369047Y-109523809D02*
X82869047Y-109523809D01*
X82869047Y-108333333D01*
X80607142Y-105952380D02*
X80488095Y-106071428D01*
X80369047Y-106428571D01*
X80369047Y-106666666D01*
X80488095Y-107023809D01*
X80726190Y-107261904D01*
X80964285Y-107380952D01*
X81440476Y-107500000D01*
X81797619Y-107500000D01*
X82273809Y-107380952D01*
X82511904Y-107261904D01*
X82750000Y-107023809D01*
X82869047Y-106666666D01*
X82869047Y-106428571D01*
X82750000Y-106071428D01*
X82630952Y-105952380D01*
X81083333Y-103095238D02*
X81083333Y-101904761D01*
X80369047Y-103333333D02*
X82869047Y-102500000D01*
X80369047Y-101666666D01*
X80369047Y-100833333D02*
X82869047Y-100833333D01*
X80369047Y-99404761D01*
X82869047Y-99404761D01*
X82869047Y-98571428D02*
X82869047Y-97142857D01*
X80369047Y-97857142D02*
X82869047Y-97857142D01*
X81678571Y-96309523D02*
X81678571Y-95476190D01*
X80369047Y-95119047D02*
X80369047Y-96309523D01*
X82869047Y-96309523D01*
X82869047Y-95119047D01*
X80369047Y-94047619D02*
X82869047Y-94047619D01*
X80369047Y-92619047D01*
X82869047Y-92619047D01*
X80369047Y-91428571D02*
X82869047Y-91428571D01*
X80369047Y-90000000D01*
X82869047Y-90000000D01*
X81083333Y-88928571D02*
X81083333Y-87738095D01*
X80369047Y-89166666D02*
X82869047Y-88333333D01*
X80369047Y-87500000D01*
X119630952Y-87857142D02*
X117130952Y-87857142D01*
X119630952Y-89285714D01*
X117130952Y-89285714D01*
X118321428Y-91309523D02*
X118321428Y-90476190D01*
X119630952Y-90476190D02*
X117130952Y-90476190D01*
X117130952Y-91666666D01*
X119392857Y-94047619D02*
X119511904Y-93928571D01*
X119630952Y-93571428D01*
X119630952Y-93333333D01*
X119511904Y-92976190D01*
X119273809Y-92738095D01*
X119035714Y-92619047D01*
X118559523Y-92500000D01*
X118202380Y-92500000D01*
X117726190Y-92619047D01*
X117488095Y-92738095D01*
X117250000Y-92976190D01*
X117130952Y-93333333D01*
X117130952Y-93571428D01*
X117250000Y-93928571D01*
X117369047Y-94047619D01*
X118916666Y-96904761D02*
X118916666Y-98095238D01*
X119630952Y-96666666D02*
X117130952Y-97500000D01*
X119630952Y-98333333D01*
X119630952Y-99166666D02*
X117130952Y-99166666D01*
X119630952Y-100595238D01*
X117130952Y-100595238D01*
X117130952Y-101428571D02*
X117130952Y-102857142D01*
X119630952Y-102142857D02*
X117130952Y-102142857D01*
X118321428Y-103690476D02*
X118321428Y-104523809D01*
X119630952Y-104880952D02*
X119630952Y-103690476D01*
X117130952Y-103690476D01*
X117130952Y-104880952D01*
X119630952Y-105952380D02*
X117130952Y-105952380D01*
X119630952Y-107380952D01*
X117130952Y-107380952D01*
X119630952Y-108571428D02*
X117130952Y-108571428D01*
X119630952Y-110000000D01*
X117130952Y-110000000D01*
X118916666Y-111071428D02*
X118916666Y-112261904D01*
X119630952Y-110833333D02*
X117130952Y-111666666D01*
X119630952Y-112500000D01*
%TD*%
M02*
