%TF.GenerationSoftware,KiCad,Pcbnew,(5.1.9-0-10_14)*%
%TF.CreationDate,2021-04-25T14:06:56+01:00*%
%TF.ProjectId,PN532,504e3533-322e-46b6-9963-61645f706362,2*%
%TF.SameCoordinates,Original*%
%TF.FileFunction,Paste,Bot*%
%TF.FilePolarity,Positive*%
%FSLAX46Y46*%
G04 Gerber Fmt 4.6, Leading zero omitted, Abs format (unit mm)*
G04 Created by KiCad (PCBNEW (5.1.9-0-10_14)) date 2021-04-25 14:06:56*
%MOMM*%
%LPD*%
G01*
G04 APERTURE LIST*
G04 APERTURE END LIST*
%TO.C,D3*%
G36*
G01*
X136500000Y-95650001D02*
X136500000Y-94749999D01*
G75*
G02*
X136749999Y-94500000I249999J0D01*
G01*
X137450001Y-94500000D01*
G75*
G02*
X137700000Y-94749999I0J-249999D01*
G01*
X137700000Y-95650001D01*
G75*
G02*
X137450001Y-95900000I-249999J0D01*
G01*
X136749999Y-95900000D01*
G75*
G02*
X136500000Y-95650001I0J249999D01*
G01*
G37*
G36*
G01*
X138500000Y-95650001D02*
X138500000Y-94749999D01*
G75*
G02*
X138749999Y-94500000I249999J0D01*
G01*
X139450001Y-94500000D01*
G75*
G02*
X139700000Y-94749999I0J-249999D01*
G01*
X139700000Y-95650001D01*
G75*
G02*
X139450001Y-95900000I-249999J0D01*
G01*
X138749999Y-95900000D01*
G75*
G02*
X138500000Y-95650001I0J249999D01*
G01*
G37*
G36*
G01*
X139305000Y-95825000D02*
X139305000Y-94575000D01*
G75*
G02*
X139555000Y-94325000I250000J0D01*
G01*
X140480000Y-94325000D01*
G75*
G02*
X140730000Y-94575000I0J-250000D01*
G01*
X140730000Y-95825000D01*
G75*
G02*
X140480000Y-96075000I-250000J0D01*
G01*
X139555000Y-96075000D01*
G75*
G02*
X139305000Y-95825000I0J250000D01*
G01*
G37*
G36*
G01*
X136330000Y-95825000D02*
X136330000Y-94575000D01*
G75*
G02*
X136580000Y-94325000I250000J0D01*
G01*
X137505000Y-94325000D01*
G75*
G02*
X137755000Y-94575000I0J-250000D01*
G01*
X137755000Y-95825000D01*
G75*
G02*
X137505000Y-96075000I-250000J0D01*
G01*
X136580000Y-96075000D01*
G75*
G02*
X136330000Y-95825000I0J250000D01*
G01*
G37*
%TD*%
%TO.C,D1*%
G36*
G01*
X136500000Y-83650001D02*
X136500000Y-82749999D01*
G75*
G02*
X136749999Y-82500000I249999J0D01*
G01*
X137450001Y-82500000D01*
G75*
G02*
X137700000Y-82749999I0J-249999D01*
G01*
X137700000Y-83650001D01*
G75*
G02*
X137450001Y-83900000I-249999J0D01*
G01*
X136749999Y-83900000D01*
G75*
G02*
X136500000Y-83650001I0J249999D01*
G01*
G37*
G36*
G01*
X138500000Y-83650001D02*
X138500000Y-82749999D01*
G75*
G02*
X138749999Y-82500000I249999J0D01*
G01*
X139450001Y-82500000D01*
G75*
G02*
X139700000Y-82749999I0J-249999D01*
G01*
X139700000Y-83650001D01*
G75*
G02*
X139450001Y-83900000I-249999J0D01*
G01*
X138749999Y-83900000D01*
G75*
G02*
X138500000Y-83650001I0J249999D01*
G01*
G37*
G36*
G01*
X139305000Y-83825000D02*
X139305000Y-82575000D01*
G75*
G02*
X139555000Y-82325000I250000J0D01*
G01*
X140480000Y-82325000D01*
G75*
G02*
X140730000Y-82575000I0J-250000D01*
G01*
X140730000Y-83825000D01*
G75*
G02*
X140480000Y-84075000I-250000J0D01*
G01*
X139555000Y-84075000D01*
G75*
G02*
X139305000Y-83825000I0J250000D01*
G01*
G37*
G36*
G01*
X136330000Y-83825000D02*
X136330000Y-82575000D01*
G75*
G02*
X136580000Y-82325000I250000J0D01*
G01*
X137505000Y-82325000D01*
G75*
G02*
X137755000Y-82575000I0J-250000D01*
G01*
X137755000Y-83825000D01*
G75*
G02*
X137505000Y-84075000I-250000J0D01*
G01*
X136580000Y-84075000D01*
G75*
G02*
X136330000Y-83825000I0J250000D01*
G01*
G37*
%TD*%
%TO.C,D2*%
G36*
G01*
X136500000Y-89650001D02*
X136500000Y-88749999D01*
G75*
G02*
X136749999Y-88500000I249999J0D01*
G01*
X137450001Y-88500000D01*
G75*
G02*
X137700000Y-88749999I0J-249999D01*
G01*
X137700000Y-89650001D01*
G75*
G02*
X137450001Y-89900000I-249999J0D01*
G01*
X136749999Y-89900000D01*
G75*
G02*
X136500000Y-89650001I0J249999D01*
G01*
G37*
G36*
G01*
X138500000Y-89650001D02*
X138500000Y-88749999D01*
G75*
G02*
X138749999Y-88500000I249999J0D01*
G01*
X139450001Y-88500000D01*
G75*
G02*
X139700000Y-88749999I0J-249999D01*
G01*
X139700000Y-89650001D01*
G75*
G02*
X139450001Y-89900000I-249999J0D01*
G01*
X138749999Y-89900000D01*
G75*
G02*
X138500000Y-89650001I0J249999D01*
G01*
G37*
G36*
G01*
X139305000Y-89825000D02*
X139305000Y-88575000D01*
G75*
G02*
X139555000Y-88325000I250000J0D01*
G01*
X140480000Y-88325000D01*
G75*
G02*
X140730000Y-88575000I0J-250000D01*
G01*
X140730000Y-89825000D01*
G75*
G02*
X140480000Y-90075000I-250000J0D01*
G01*
X139555000Y-90075000D01*
G75*
G02*
X139305000Y-89825000I0J250000D01*
G01*
G37*
G36*
G01*
X136330000Y-89825000D02*
X136330000Y-88575000D01*
G75*
G02*
X136580000Y-88325000I250000J0D01*
G01*
X137505000Y-88325000D01*
G75*
G02*
X137755000Y-88575000I0J-250000D01*
G01*
X137755000Y-89825000D01*
G75*
G02*
X137505000Y-90075000I-250000J0D01*
G01*
X136580000Y-90075000D01*
G75*
G02*
X136330000Y-89825000I0J250000D01*
G01*
G37*
%TD*%
M02*
