%TF.GenerationSoftware,KiCad,Pcbnew,(5.1.9-0-10_14)*%
%TF.CreationDate,2021-07-09T17:29:15+01:00*%
%TF.ProjectId,PN532,504e3533-322e-46b6-9963-61645f706362,7*%
%TF.SameCoordinates,Original*%
%TF.FileFunction,Paste,Top*%
%TF.FilePolarity,Positive*%
%FSLAX46Y46*%
G04 Gerber Fmt 4.6, Leading zero omitted, Abs format (unit mm)*
G04 Created by KiCad (PCBNEW (5.1.9-0-10_14)) date 2021-07-09 17:29:15*
%MOMM*%
%LPD*%
G01*
G04 APERTURE LIST*
%ADD10R,1.300000X2.000000*%
%ADD11R,1.500000X0.500000*%
%ADD12R,0.650000X0.400000*%
%ADD13R,0.650000X1.400000*%
G04 APERTURE END LIST*
%TO.C,U1*%
G36*
G01*
X98312500Y-98125000D02*
X98687500Y-98125000D01*
G75*
G02*
X98875000Y-98312500I0J-187500D01*
G01*
X98875000Y-98687500D01*
G75*
G02*
X98687500Y-98875000I-187500J0D01*
G01*
X98312500Y-98875000D01*
G75*
G02*
X98125000Y-98687500I0J187500D01*
G01*
X98125000Y-98312500D01*
G75*
G02*
X98312500Y-98125000I187500J0D01*
G01*
G37*
G36*
G01*
X98312500Y-99625000D02*
X98687500Y-99625000D01*
G75*
G02*
X98875000Y-99812500I0J-187500D01*
G01*
X98875000Y-100187500D01*
G75*
G02*
X98687500Y-100375000I-187500J0D01*
G01*
X98312500Y-100375000D01*
G75*
G02*
X98125000Y-100187500I0J187500D01*
G01*
X98125000Y-99812500D01*
G75*
G02*
X98312500Y-99625000I187500J0D01*
G01*
G37*
G36*
G01*
X98312500Y-101125000D02*
X98687500Y-101125000D01*
G75*
G02*
X98875000Y-101312500I0J-187500D01*
G01*
X98875000Y-101687500D01*
G75*
G02*
X98687500Y-101875000I-187500J0D01*
G01*
X98312500Y-101875000D01*
G75*
G02*
X98125000Y-101687500I0J187500D01*
G01*
X98125000Y-101312500D01*
G75*
G02*
X98312500Y-101125000I187500J0D01*
G01*
G37*
G36*
G01*
X99812500Y-98125000D02*
X100187500Y-98125000D01*
G75*
G02*
X100375000Y-98312500I0J-187500D01*
G01*
X100375000Y-98687500D01*
G75*
G02*
X100187500Y-98875000I-187500J0D01*
G01*
X99812500Y-98875000D01*
G75*
G02*
X99625000Y-98687500I0J187500D01*
G01*
X99625000Y-98312500D01*
G75*
G02*
X99812500Y-98125000I187500J0D01*
G01*
G37*
G36*
G01*
X99812500Y-101125000D02*
X100187500Y-101125000D01*
G75*
G02*
X100375000Y-101312500I0J-187500D01*
G01*
X100375000Y-101687500D01*
G75*
G02*
X100187500Y-101875000I-187500J0D01*
G01*
X99812500Y-101875000D01*
G75*
G02*
X99625000Y-101687500I0J187500D01*
G01*
X99625000Y-101312500D01*
G75*
G02*
X99812500Y-101125000I187500J0D01*
G01*
G37*
G36*
G01*
X101312500Y-101125000D02*
X101687500Y-101125000D01*
G75*
G02*
X101875000Y-101312500I0J-187500D01*
G01*
X101875000Y-101687500D01*
G75*
G02*
X101687500Y-101875000I-187500J0D01*
G01*
X101312500Y-101875000D01*
G75*
G02*
X101125000Y-101687500I0J187500D01*
G01*
X101125000Y-101312500D01*
G75*
G02*
X101312500Y-101125000I187500J0D01*
G01*
G37*
G36*
G01*
X101312500Y-99625000D02*
X101687500Y-99625000D01*
G75*
G02*
X101875000Y-99812500I0J-187500D01*
G01*
X101875000Y-100187500D01*
G75*
G02*
X101687500Y-100375000I-187500J0D01*
G01*
X101312500Y-100375000D01*
G75*
G02*
X101125000Y-100187500I0J187500D01*
G01*
X101125000Y-99812500D01*
G75*
G02*
X101312500Y-99625000I187500J0D01*
G01*
G37*
G36*
G01*
X101312500Y-98125000D02*
X101687500Y-98125000D01*
G75*
G02*
X101875000Y-98312500I0J-187500D01*
G01*
X101875000Y-98687500D01*
G75*
G02*
X101687500Y-98875000I-187500J0D01*
G01*
X101312500Y-98875000D01*
G75*
G02*
X101125000Y-98687500I0J187500D01*
G01*
X101125000Y-98312500D01*
G75*
G02*
X101312500Y-98125000I187500J0D01*
G01*
G37*
G36*
G01*
X102612500Y-97625000D02*
X103187500Y-97625000D01*
G75*
G02*
X103250000Y-97687500I0J-62500D01*
G01*
X103250000Y-97812500D01*
G75*
G02*
X103187500Y-97875000I-62500J0D01*
G01*
X102612500Y-97875000D01*
G75*
G02*
X102550000Y-97812500I0J62500D01*
G01*
X102550000Y-97687500D01*
G75*
G02*
X102612500Y-97625000I62500J0D01*
G01*
G37*
G36*
G01*
X102612500Y-98125000D02*
X103187500Y-98125000D01*
G75*
G02*
X103250000Y-98187500I0J-62500D01*
G01*
X103250000Y-98312500D01*
G75*
G02*
X103187500Y-98375000I-62500J0D01*
G01*
X102612500Y-98375000D01*
G75*
G02*
X102550000Y-98312500I0J62500D01*
G01*
X102550000Y-98187500D01*
G75*
G02*
X102612500Y-98125000I62500J0D01*
G01*
G37*
G36*
G01*
X102612500Y-98625000D02*
X103187500Y-98625000D01*
G75*
G02*
X103250000Y-98687500I0J-62500D01*
G01*
X103250000Y-98812500D01*
G75*
G02*
X103187500Y-98875000I-62500J0D01*
G01*
X102612500Y-98875000D01*
G75*
G02*
X102550000Y-98812500I0J62500D01*
G01*
X102550000Y-98687500D01*
G75*
G02*
X102612500Y-98625000I62500J0D01*
G01*
G37*
G36*
G01*
X102612500Y-99125000D02*
X103187500Y-99125000D01*
G75*
G02*
X103250000Y-99187500I0J-62500D01*
G01*
X103250000Y-99312500D01*
G75*
G02*
X103187500Y-99375000I-62500J0D01*
G01*
X102612500Y-99375000D01*
G75*
G02*
X102550000Y-99312500I0J62500D01*
G01*
X102550000Y-99187500D01*
G75*
G02*
X102612500Y-99125000I62500J0D01*
G01*
G37*
G36*
G01*
X102612500Y-99625000D02*
X103187500Y-99625000D01*
G75*
G02*
X103250000Y-99687500I0J-62500D01*
G01*
X103250000Y-99812500D01*
G75*
G02*
X103187500Y-99875000I-62500J0D01*
G01*
X102612500Y-99875000D01*
G75*
G02*
X102550000Y-99812500I0J62500D01*
G01*
X102550000Y-99687500D01*
G75*
G02*
X102612500Y-99625000I62500J0D01*
G01*
G37*
G36*
G01*
X102612500Y-100125000D02*
X103187500Y-100125000D01*
G75*
G02*
X103250000Y-100187500I0J-62500D01*
G01*
X103250000Y-100312500D01*
G75*
G02*
X103187500Y-100375000I-62500J0D01*
G01*
X102612500Y-100375000D01*
G75*
G02*
X102550000Y-100312500I0J62500D01*
G01*
X102550000Y-100187500D01*
G75*
G02*
X102612500Y-100125000I62500J0D01*
G01*
G37*
G36*
G01*
X102612500Y-100625000D02*
X103187500Y-100625000D01*
G75*
G02*
X103250000Y-100687500I0J-62500D01*
G01*
X103250000Y-100812500D01*
G75*
G02*
X103187500Y-100875000I-62500J0D01*
G01*
X102612500Y-100875000D01*
G75*
G02*
X102550000Y-100812500I0J62500D01*
G01*
X102550000Y-100687500D01*
G75*
G02*
X102612500Y-100625000I62500J0D01*
G01*
G37*
G36*
G01*
X102612500Y-101125000D02*
X103187500Y-101125000D01*
G75*
G02*
X103250000Y-101187500I0J-62500D01*
G01*
X103250000Y-101312500D01*
G75*
G02*
X103187500Y-101375000I-62500J0D01*
G01*
X102612500Y-101375000D01*
G75*
G02*
X102550000Y-101312500I0J62500D01*
G01*
X102550000Y-101187500D01*
G75*
G02*
X102612500Y-101125000I62500J0D01*
G01*
G37*
G36*
G01*
X102612500Y-101625000D02*
X103187500Y-101625000D01*
G75*
G02*
X103250000Y-101687500I0J-62500D01*
G01*
X103250000Y-101812500D01*
G75*
G02*
X103187500Y-101875000I-62500J0D01*
G01*
X102612500Y-101875000D01*
G75*
G02*
X102550000Y-101812500I0J62500D01*
G01*
X102550000Y-101687500D01*
G75*
G02*
X102612500Y-101625000I62500J0D01*
G01*
G37*
G36*
G01*
X102612500Y-102125000D02*
X103187500Y-102125000D01*
G75*
G02*
X103250000Y-102187500I0J-62500D01*
G01*
X103250000Y-102312500D01*
G75*
G02*
X103187500Y-102375000I-62500J0D01*
G01*
X102612500Y-102375000D01*
G75*
G02*
X102550000Y-102312500I0J62500D01*
G01*
X102550000Y-102187500D01*
G75*
G02*
X102612500Y-102125000I62500J0D01*
G01*
G37*
G36*
G01*
X102187500Y-102550000D02*
X102312500Y-102550000D01*
G75*
G02*
X102375000Y-102612500I0J-62500D01*
G01*
X102375000Y-103187500D01*
G75*
G02*
X102312500Y-103250000I-62500J0D01*
G01*
X102187500Y-103250000D01*
G75*
G02*
X102125000Y-103187500I0J62500D01*
G01*
X102125000Y-102612500D01*
G75*
G02*
X102187500Y-102550000I62500J0D01*
G01*
G37*
G36*
G01*
X101687500Y-102550000D02*
X101812500Y-102550000D01*
G75*
G02*
X101875000Y-102612500I0J-62500D01*
G01*
X101875000Y-103187500D01*
G75*
G02*
X101812500Y-103250000I-62500J0D01*
G01*
X101687500Y-103250000D01*
G75*
G02*
X101625000Y-103187500I0J62500D01*
G01*
X101625000Y-102612500D01*
G75*
G02*
X101687500Y-102550000I62500J0D01*
G01*
G37*
G36*
G01*
X101187500Y-102550000D02*
X101312500Y-102550000D01*
G75*
G02*
X101375000Y-102612500I0J-62500D01*
G01*
X101375000Y-103187500D01*
G75*
G02*
X101312500Y-103250000I-62500J0D01*
G01*
X101187500Y-103250000D01*
G75*
G02*
X101125000Y-103187500I0J62500D01*
G01*
X101125000Y-102612500D01*
G75*
G02*
X101187500Y-102550000I62500J0D01*
G01*
G37*
G36*
G01*
X100687500Y-102550000D02*
X100812500Y-102550000D01*
G75*
G02*
X100875000Y-102612500I0J-62500D01*
G01*
X100875000Y-103187500D01*
G75*
G02*
X100812500Y-103250000I-62500J0D01*
G01*
X100687500Y-103250000D01*
G75*
G02*
X100625000Y-103187500I0J62500D01*
G01*
X100625000Y-102612500D01*
G75*
G02*
X100687500Y-102550000I62500J0D01*
G01*
G37*
G36*
G01*
X100187500Y-102550000D02*
X100312500Y-102550000D01*
G75*
G02*
X100375000Y-102612500I0J-62500D01*
G01*
X100375000Y-103187500D01*
G75*
G02*
X100312500Y-103250000I-62500J0D01*
G01*
X100187500Y-103250000D01*
G75*
G02*
X100125000Y-103187500I0J62500D01*
G01*
X100125000Y-102612500D01*
G75*
G02*
X100187500Y-102550000I62500J0D01*
G01*
G37*
G36*
G01*
X99687500Y-102550000D02*
X99812500Y-102550000D01*
G75*
G02*
X99875000Y-102612500I0J-62500D01*
G01*
X99875000Y-103187500D01*
G75*
G02*
X99812500Y-103250000I-62500J0D01*
G01*
X99687500Y-103250000D01*
G75*
G02*
X99625000Y-103187500I0J62500D01*
G01*
X99625000Y-102612500D01*
G75*
G02*
X99687500Y-102550000I62500J0D01*
G01*
G37*
G36*
G01*
X99187500Y-102550000D02*
X99312500Y-102550000D01*
G75*
G02*
X99375000Y-102612500I0J-62500D01*
G01*
X99375000Y-103187500D01*
G75*
G02*
X99312500Y-103250000I-62500J0D01*
G01*
X99187500Y-103250000D01*
G75*
G02*
X99125000Y-103187500I0J62500D01*
G01*
X99125000Y-102612500D01*
G75*
G02*
X99187500Y-102550000I62500J0D01*
G01*
G37*
G36*
G01*
X98687500Y-102550000D02*
X98812500Y-102550000D01*
G75*
G02*
X98875000Y-102612500I0J-62500D01*
G01*
X98875000Y-103187500D01*
G75*
G02*
X98812500Y-103250000I-62500J0D01*
G01*
X98687500Y-103250000D01*
G75*
G02*
X98625000Y-103187500I0J62500D01*
G01*
X98625000Y-102612500D01*
G75*
G02*
X98687500Y-102550000I62500J0D01*
G01*
G37*
G36*
G01*
X98187500Y-102550000D02*
X98312500Y-102550000D01*
G75*
G02*
X98375000Y-102612500I0J-62500D01*
G01*
X98375000Y-103187500D01*
G75*
G02*
X98312500Y-103250000I-62500J0D01*
G01*
X98187500Y-103250000D01*
G75*
G02*
X98125000Y-103187500I0J62500D01*
G01*
X98125000Y-102612500D01*
G75*
G02*
X98187500Y-102550000I62500J0D01*
G01*
G37*
G36*
G01*
X97687500Y-102550000D02*
X97812500Y-102550000D01*
G75*
G02*
X97875000Y-102612500I0J-62500D01*
G01*
X97875000Y-103187500D01*
G75*
G02*
X97812500Y-103250000I-62500J0D01*
G01*
X97687500Y-103250000D01*
G75*
G02*
X97625000Y-103187500I0J62500D01*
G01*
X97625000Y-102612500D01*
G75*
G02*
X97687500Y-102550000I62500J0D01*
G01*
G37*
G36*
G01*
X96812500Y-102125000D02*
X97387500Y-102125000D01*
G75*
G02*
X97450000Y-102187500I0J-62500D01*
G01*
X97450000Y-102312500D01*
G75*
G02*
X97387500Y-102375000I-62500J0D01*
G01*
X96812500Y-102375000D01*
G75*
G02*
X96750000Y-102312500I0J62500D01*
G01*
X96750000Y-102187500D01*
G75*
G02*
X96812500Y-102125000I62500J0D01*
G01*
G37*
G36*
G01*
X96812500Y-101625000D02*
X97387500Y-101625000D01*
G75*
G02*
X97450000Y-101687500I0J-62500D01*
G01*
X97450000Y-101812500D01*
G75*
G02*
X97387500Y-101875000I-62500J0D01*
G01*
X96812500Y-101875000D01*
G75*
G02*
X96750000Y-101812500I0J62500D01*
G01*
X96750000Y-101687500D01*
G75*
G02*
X96812500Y-101625000I62500J0D01*
G01*
G37*
G36*
G01*
X96812500Y-101125000D02*
X97387500Y-101125000D01*
G75*
G02*
X97450000Y-101187500I0J-62500D01*
G01*
X97450000Y-101312500D01*
G75*
G02*
X97387500Y-101375000I-62500J0D01*
G01*
X96812500Y-101375000D01*
G75*
G02*
X96750000Y-101312500I0J62500D01*
G01*
X96750000Y-101187500D01*
G75*
G02*
X96812500Y-101125000I62500J0D01*
G01*
G37*
G36*
G01*
X96812500Y-100625000D02*
X97387500Y-100625000D01*
G75*
G02*
X97450000Y-100687500I0J-62500D01*
G01*
X97450000Y-100812500D01*
G75*
G02*
X97387500Y-100875000I-62500J0D01*
G01*
X96812500Y-100875000D01*
G75*
G02*
X96750000Y-100812500I0J62500D01*
G01*
X96750000Y-100687500D01*
G75*
G02*
X96812500Y-100625000I62500J0D01*
G01*
G37*
G36*
G01*
X96812500Y-100125000D02*
X97387500Y-100125000D01*
G75*
G02*
X97450000Y-100187500I0J-62500D01*
G01*
X97450000Y-100312500D01*
G75*
G02*
X97387500Y-100375000I-62500J0D01*
G01*
X96812500Y-100375000D01*
G75*
G02*
X96750000Y-100312500I0J62500D01*
G01*
X96750000Y-100187500D01*
G75*
G02*
X96812500Y-100125000I62500J0D01*
G01*
G37*
G36*
G01*
X96812500Y-99625000D02*
X97387500Y-99625000D01*
G75*
G02*
X97450000Y-99687500I0J-62500D01*
G01*
X97450000Y-99812500D01*
G75*
G02*
X97387500Y-99875000I-62500J0D01*
G01*
X96812500Y-99875000D01*
G75*
G02*
X96750000Y-99812500I0J62500D01*
G01*
X96750000Y-99687500D01*
G75*
G02*
X96812500Y-99625000I62500J0D01*
G01*
G37*
G36*
G01*
X96812500Y-99125000D02*
X97387500Y-99125000D01*
G75*
G02*
X97450000Y-99187500I0J-62500D01*
G01*
X97450000Y-99312500D01*
G75*
G02*
X97387500Y-99375000I-62500J0D01*
G01*
X96812500Y-99375000D01*
G75*
G02*
X96750000Y-99312500I0J62500D01*
G01*
X96750000Y-99187500D01*
G75*
G02*
X96812500Y-99125000I62500J0D01*
G01*
G37*
G36*
G01*
X96812500Y-98625000D02*
X97387500Y-98625000D01*
G75*
G02*
X97450000Y-98687500I0J-62500D01*
G01*
X97450000Y-98812500D01*
G75*
G02*
X97387500Y-98875000I-62500J0D01*
G01*
X96812500Y-98875000D01*
G75*
G02*
X96750000Y-98812500I0J62500D01*
G01*
X96750000Y-98687500D01*
G75*
G02*
X96812500Y-98625000I62500J0D01*
G01*
G37*
G36*
G01*
X96812500Y-98125000D02*
X97387500Y-98125000D01*
G75*
G02*
X97450000Y-98187500I0J-62500D01*
G01*
X97450000Y-98312500D01*
G75*
G02*
X97387500Y-98375000I-62500J0D01*
G01*
X96812500Y-98375000D01*
G75*
G02*
X96750000Y-98312500I0J62500D01*
G01*
X96750000Y-98187500D01*
G75*
G02*
X96812500Y-98125000I62500J0D01*
G01*
G37*
G36*
G01*
X96812500Y-97625000D02*
X97387500Y-97625000D01*
G75*
G02*
X97450000Y-97687500I0J-62500D01*
G01*
X97450000Y-97812500D01*
G75*
G02*
X97387500Y-97875000I-62500J0D01*
G01*
X96812500Y-97875000D01*
G75*
G02*
X96750000Y-97812500I0J62500D01*
G01*
X96750000Y-97687500D01*
G75*
G02*
X96812500Y-97625000I62500J0D01*
G01*
G37*
G36*
G01*
X97687500Y-96750000D02*
X97812500Y-96750000D01*
G75*
G02*
X97875000Y-96812500I0J-62500D01*
G01*
X97875000Y-97387500D01*
G75*
G02*
X97812500Y-97450000I-62500J0D01*
G01*
X97687500Y-97450000D01*
G75*
G02*
X97625000Y-97387500I0J62500D01*
G01*
X97625000Y-96812500D01*
G75*
G02*
X97687500Y-96750000I62500J0D01*
G01*
G37*
G36*
G01*
X98187500Y-96750000D02*
X98312500Y-96750000D01*
G75*
G02*
X98375000Y-96812500I0J-62500D01*
G01*
X98375000Y-97387500D01*
G75*
G02*
X98312500Y-97450000I-62500J0D01*
G01*
X98187500Y-97450000D01*
G75*
G02*
X98125000Y-97387500I0J62500D01*
G01*
X98125000Y-96812500D01*
G75*
G02*
X98187500Y-96750000I62500J0D01*
G01*
G37*
G36*
G01*
X98687500Y-96750000D02*
X98812500Y-96750000D01*
G75*
G02*
X98875000Y-96812500I0J-62500D01*
G01*
X98875000Y-97387500D01*
G75*
G02*
X98812500Y-97450000I-62500J0D01*
G01*
X98687500Y-97450000D01*
G75*
G02*
X98625000Y-97387500I0J62500D01*
G01*
X98625000Y-96812500D01*
G75*
G02*
X98687500Y-96750000I62500J0D01*
G01*
G37*
G36*
G01*
X99187500Y-96750000D02*
X99312500Y-96750000D01*
G75*
G02*
X99375000Y-96812500I0J-62500D01*
G01*
X99375000Y-97387500D01*
G75*
G02*
X99312500Y-97450000I-62500J0D01*
G01*
X99187500Y-97450000D01*
G75*
G02*
X99125000Y-97387500I0J62500D01*
G01*
X99125000Y-96812500D01*
G75*
G02*
X99187500Y-96750000I62500J0D01*
G01*
G37*
G36*
G01*
X99687500Y-96750000D02*
X99812500Y-96750000D01*
G75*
G02*
X99875000Y-96812500I0J-62500D01*
G01*
X99875000Y-97387500D01*
G75*
G02*
X99812500Y-97450000I-62500J0D01*
G01*
X99687500Y-97450000D01*
G75*
G02*
X99625000Y-97387500I0J62500D01*
G01*
X99625000Y-96812500D01*
G75*
G02*
X99687500Y-96750000I62500J0D01*
G01*
G37*
G36*
G01*
X100187500Y-96750000D02*
X100312500Y-96750000D01*
G75*
G02*
X100375000Y-96812500I0J-62500D01*
G01*
X100375000Y-97387500D01*
G75*
G02*
X100312500Y-97450000I-62500J0D01*
G01*
X100187500Y-97450000D01*
G75*
G02*
X100125000Y-97387500I0J62500D01*
G01*
X100125000Y-96812500D01*
G75*
G02*
X100187500Y-96750000I62500J0D01*
G01*
G37*
G36*
G01*
X100687500Y-96750000D02*
X100812500Y-96750000D01*
G75*
G02*
X100875000Y-96812500I0J-62500D01*
G01*
X100875000Y-97387500D01*
G75*
G02*
X100812500Y-97450000I-62500J0D01*
G01*
X100687500Y-97450000D01*
G75*
G02*
X100625000Y-97387500I0J62500D01*
G01*
X100625000Y-96812500D01*
G75*
G02*
X100687500Y-96750000I62500J0D01*
G01*
G37*
G36*
G01*
X101187500Y-96750000D02*
X101312500Y-96750000D01*
G75*
G02*
X101375000Y-96812500I0J-62500D01*
G01*
X101375000Y-97387500D01*
G75*
G02*
X101312500Y-97450000I-62500J0D01*
G01*
X101187500Y-97450000D01*
G75*
G02*
X101125000Y-97387500I0J62500D01*
G01*
X101125000Y-96812500D01*
G75*
G02*
X101187500Y-96750000I62500J0D01*
G01*
G37*
G36*
G01*
X101687500Y-96750000D02*
X101812500Y-96750000D01*
G75*
G02*
X101875000Y-96812500I0J-62500D01*
G01*
X101875000Y-97387500D01*
G75*
G02*
X101812500Y-97450000I-62500J0D01*
G01*
X101687500Y-97450000D01*
G75*
G02*
X101625000Y-97387500I0J62500D01*
G01*
X101625000Y-96812500D01*
G75*
G02*
X101687500Y-96750000I62500J0D01*
G01*
G37*
G36*
G01*
X102187500Y-96750000D02*
X102312500Y-96750000D01*
G75*
G02*
X102375000Y-96812500I0J-62500D01*
G01*
X102375000Y-97387500D01*
G75*
G02*
X102312500Y-97450000I-62500J0D01*
G01*
X102187500Y-97450000D01*
G75*
G02*
X102125000Y-97387500I0J62500D01*
G01*
X102125000Y-96812500D01*
G75*
G02*
X102187500Y-96750000I62500J0D01*
G01*
G37*
%TD*%
D10*
%TO.C,SW1*%
X86250000Y-95800000D03*
X90750000Y-95800000D03*
X90750000Y-104200000D03*
X86250000Y-104200000D03*
%TD*%
D11*
%TO.C,A1*%
X100000000Y-83000000D03*
X100000000Y-81000000D03*
%TD*%
%TO.C,D1*%
G36*
G01*
X112625000Y-99390000D02*
X111375000Y-99390000D01*
G75*
G02*
X111250000Y-99265000I0J125000D01*
G01*
X111250000Y-99015000D01*
G75*
G02*
X111375000Y-98890000I125000J0D01*
G01*
X112625000Y-98890000D01*
G75*
G02*
X112750000Y-99015000I0J-125000D01*
G01*
X112750000Y-99265000D01*
G75*
G02*
X112625000Y-99390000I-125000J0D01*
G01*
G37*
G36*
G01*
X112625000Y-101110000D02*
X111375000Y-101110000D01*
G75*
G02*
X111250000Y-100985000I0J125000D01*
G01*
X111250000Y-100735000D01*
G75*
G02*
X111375000Y-100610000I125000J0D01*
G01*
X112625000Y-100610000D01*
G75*
G02*
X112750000Y-100735000I0J-125000D01*
G01*
X112750000Y-100985000D01*
G75*
G02*
X112625000Y-101110000I-125000J0D01*
G01*
G37*
%TD*%
%TO.C,D2*%
G36*
G01*
X112625000Y-93390000D02*
X111375000Y-93390000D01*
G75*
G02*
X111250000Y-93265000I0J125000D01*
G01*
X111250000Y-93015000D01*
G75*
G02*
X111375000Y-92890000I125000J0D01*
G01*
X112625000Y-92890000D01*
G75*
G02*
X112750000Y-93015000I0J-125000D01*
G01*
X112750000Y-93265000D01*
G75*
G02*
X112625000Y-93390000I-125000J0D01*
G01*
G37*
G36*
G01*
X112625000Y-95110000D02*
X111375000Y-95110000D01*
G75*
G02*
X111250000Y-94985000I0J125000D01*
G01*
X111250000Y-94735000D01*
G75*
G02*
X111375000Y-94610000I125000J0D01*
G01*
X112625000Y-94610000D01*
G75*
G02*
X112750000Y-94735000I0J-125000D01*
G01*
X112750000Y-94985000D01*
G75*
G02*
X112625000Y-95110000I-125000J0D01*
G01*
G37*
%TD*%
%TO.C,D3*%
G36*
G01*
X112625000Y-87390000D02*
X111375000Y-87390000D01*
G75*
G02*
X111250000Y-87265000I0J125000D01*
G01*
X111250000Y-87015000D01*
G75*
G02*
X111375000Y-86890000I125000J0D01*
G01*
X112625000Y-86890000D01*
G75*
G02*
X112750000Y-87015000I0J-125000D01*
G01*
X112750000Y-87265000D01*
G75*
G02*
X112625000Y-87390000I-125000J0D01*
G01*
G37*
G36*
G01*
X112625000Y-89110000D02*
X111375000Y-89110000D01*
G75*
G02*
X111250000Y-88985000I0J125000D01*
G01*
X111250000Y-88735000D01*
G75*
G02*
X111375000Y-88610000I125000J0D01*
G01*
X112625000Y-88610000D01*
G75*
G02*
X112750000Y-88735000I0J-125000D01*
G01*
X112750000Y-88985000D01*
G75*
G02*
X112625000Y-89110000I-125000J0D01*
G01*
G37*
%TD*%
D12*
%TO.C,D6*%
X108050000Y-106950000D03*
X108050000Y-105650000D03*
X109950000Y-106300000D03*
X108050000Y-106300000D03*
X109950000Y-105650000D03*
X109950000Y-106950000D03*
%TD*%
%TO.C,D5*%
X109950000Y-103050000D03*
X109950000Y-104350000D03*
X108050000Y-103700000D03*
X109950000Y-103700000D03*
X108050000Y-104350000D03*
X108050000Y-103050000D03*
%TD*%
%TO.C,D4*%
X109950000Y-93250000D03*
X109950000Y-94550000D03*
X108050000Y-93900000D03*
X109950000Y-93900000D03*
X108050000Y-94550000D03*
X108050000Y-93250000D03*
%TD*%
%TO.C,C19*%
G36*
G01*
X109325000Y-108450000D02*
X109325000Y-107950000D01*
G75*
G02*
X109550000Y-107725000I225000J0D01*
G01*
X110000000Y-107725000D01*
G75*
G02*
X110225000Y-107950000I0J-225000D01*
G01*
X110225000Y-108450000D01*
G75*
G02*
X110000000Y-108675000I-225000J0D01*
G01*
X109550000Y-108675000D01*
G75*
G02*
X109325000Y-108450000I0J225000D01*
G01*
G37*
G36*
G01*
X107775000Y-108450000D02*
X107775000Y-107950000D01*
G75*
G02*
X108000000Y-107725000I225000J0D01*
G01*
X108450000Y-107725000D01*
G75*
G02*
X108675000Y-107950000I0J-225000D01*
G01*
X108675000Y-108450000D01*
G75*
G02*
X108450000Y-108675000I-225000J0D01*
G01*
X108000000Y-108675000D01*
G75*
G02*
X107775000Y-108450000I0J225000D01*
G01*
G37*
%TD*%
%TO.C,C4*%
G36*
G01*
X95950000Y-87825000D02*
X96450000Y-87825000D01*
G75*
G02*
X96675000Y-88050000I0J-225000D01*
G01*
X96675000Y-88500000D01*
G75*
G02*
X96450000Y-88725000I-225000J0D01*
G01*
X95950000Y-88725000D01*
G75*
G02*
X95725000Y-88500000I0J225000D01*
G01*
X95725000Y-88050000D01*
G75*
G02*
X95950000Y-87825000I225000J0D01*
G01*
G37*
G36*
G01*
X95950000Y-86275000D02*
X96450000Y-86275000D01*
G75*
G02*
X96675000Y-86500000I0J-225000D01*
G01*
X96675000Y-86950000D01*
G75*
G02*
X96450000Y-87175000I-225000J0D01*
G01*
X95950000Y-87175000D01*
G75*
G02*
X95725000Y-86950000I0J225000D01*
G01*
X95725000Y-86500000D01*
G75*
G02*
X95950000Y-86275000I225000J0D01*
G01*
G37*
%TD*%
%TO.C,C3*%
G36*
G01*
X104050000Y-87175000D02*
X103550000Y-87175000D01*
G75*
G02*
X103325000Y-86950000I0J225000D01*
G01*
X103325000Y-86500000D01*
G75*
G02*
X103550000Y-86275000I225000J0D01*
G01*
X104050000Y-86275000D01*
G75*
G02*
X104275000Y-86500000I0J-225000D01*
G01*
X104275000Y-86950000D01*
G75*
G02*
X104050000Y-87175000I-225000J0D01*
G01*
G37*
G36*
G01*
X104050000Y-88725000D02*
X103550000Y-88725000D01*
G75*
G02*
X103325000Y-88500000I0J225000D01*
G01*
X103325000Y-88050000D01*
G75*
G02*
X103550000Y-87825000I225000J0D01*
G01*
X104050000Y-87825000D01*
G75*
G02*
X104275000Y-88050000I0J-225000D01*
G01*
X104275000Y-88500000D01*
G75*
G02*
X104050000Y-88725000I-225000J0D01*
G01*
G37*
%TD*%
%TO.C,R14*%
G36*
G01*
X105325000Y-105575000D02*
X105875000Y-105575000D01*
G75*
G02*
X106075000Y-105775000I0J-200000D01*
G01*
X106075000Y-106175000D01*
G75*
G02*
X105875000Y-106375000I-200000J0D01*
G01*
X105325000Y-106375000D01*
G75*
G02*
X105125000Y-106175000I0J200000D01*
G01*
X105125000Y-105775000D01*
G75*
G02*
X105325000Y-105575000I200000J0D01*
G01*
G37*
G36*
G01*
X105325000Y-103925000D02*
X105875000Y-103925000D01*
G75*
G02*
X106075000Y-104125000I0J-200000D01*
G01*
X106075000Y-104525000D01*
G75*
G02*
X105875000Y-104725000I-200000J0D01*
G01*
X105325000Y-104725000D01*
G75*
G02*
X105125000Y-104525000I0J200000D01*
G01*
X105125000Y-104125000D01*
G75*
G02*
X105325000Y-103925000I200000J0D01*
G01*
G37*
%TD*%
%TO.C,C2*%
G36*
G01*
X99525000Y-85875000D02*
X99525000Y-86375000D01*
G75*
G02*
X99300000Y-86600000I-225000J0D01*
G01*
X98850000Y-86600000D01*
G75*
G02*
X98625000Y-86375000I0J225000D01*
G01*
X98625000Y-85875000D01*
G75*
G02*
X98850000Y-85650000I225000J0D01*
G01*
X99300000Y-85650000D01*
G75*
G02*
X99525000Y-85875000I0J-225000D01*
G01*
G37*
G36*
G01*
X97975000Y-85875000D02*
X97975000Y-86375000D01*
G75*
G02*
X97750000Y-86600000I-225000J0D01*
G01*
X97300000Y-86600000D01*
G75*
G02*
X97075000Y-86375000I0J225000D01*
G01*
X97075000Y-85875000D01*
G75*
G02*
X97300000Y-85650000I225000J0D01*
G01*
X97750000Y-85650000D01*
G75*
G02*
X97975000Y-85875000I0J-225000D01*
G01*
G37*
G36*
G01*
X97975000Y-84675000D02*
X97975000Y-85175000D01*
G75*
G02*
X97750000Y-85400000I-225000J0D01*
G01*
X97300000Y-85400000D01*
G75*
G02*
X97075000Y-85175000I0J225000D01*
G01*
X97075000Y-84675000D01*
G75*
G02*
X97300000Y-84450000I225000J0D01*
G01*
X97750000Y-84450000D01*
G75*
G02*
X97975000Y-84675000I0J-225000D01*
G01*
G37*
G36*
G01*
X99525000Y-84675000D02*
X99525000Y-85175000D01*
G75*
G02*
X99300000Y-85400000I-225000J0D01*
G01*
X98850000Y-85400000D01*
G75*
G02*
X98625000Y-85175000I0J225000D01*
G01*
X98625000Y-84675000D01*
G75*
G02*
X98850000Y-84450000I225000J0D01*
G01*
X99300000Y-84450000D01*
G75*
G02*
X99525000Y-84675000I0J-225000D01*
G01*
G37*
%TD*%
%TO.C,C1*%
G36*
G01*
X102925000Y-85875000D02*
X102925000Y-86375000D01*
G75*
G02*
X102700000Y-86600000I-225000J0D01*
G01*
X102250000Y-86600000D01*
G75*
G02*
X102025000Y-86375000I0J225000D01*
G01*
X102025000Y-85875000D01*
G75*
G02*
X102250000Y-85650000I225000J0D01*
G01*
X102700000Y-85650000D01*
G75*
G02*
X102925000Y-85875000I0J-225000D01*
G01*
G37*
G36*
G01*
X101375000Y-85875000D02*
X101375000Y-86375000D01*
G75*
G02*
X101150000Y-86600000I-225000J0D01*
G01*
X100700000Y-86600000D01*
G75*
G02*
X100475000Y-86375000I0J225000D01*
G01*
X100475000Y-85875000D01*
G75*
G02*
X100700000Y-85650000I225000J0D01*
G01*
X101150000Y-85650000D01*
G75*
G02*
X101375000Y-85875000I0J-225000D01*
G01*
G37*
G36*
G01*
X101375000Y-84675000D02*
X101375000Y-85175000D01*
G75*
G02*
X101150000Y-85400000I-225000J0D01*
G01*
X100700000Y-85400000D01*
G75*
G02*
X100475000Y-85175000I0J225000D01*
G01*
X100475000Y-84675000D01*
G75*
G02*
X100700000Y-84450000I225000J0D01*
G01*
X101150000Y-84450000D01*
G75*
G02*
X101375000Y-84675000I0J-225000D01*
G01*
G37*
G36*
G01*
X102925000Y-84675000D02*
X102925000Y-85175000D01*
G75*
G02*
X102700000Y-85400000I-225000J0D01*
G01*
X102250000Y-85400000D01*
G75*
G02*
X102025000Y-85175000I0J225000D01*
G01*
X102025000Y-84675000D01*
G75*
G02*
X102250000Y-84450000I225000J0D01*
G01*
X102700000Y-84450000D01*
G75*
G02*
X102925000Y-84675000I0J-225000D01*
G01*
G37*
%TD*%
%TO.C,R13*%
G36*
G01*
X102075000Y-106175000D02*
X102075000Y-105625000D01*
G75*
G02*
X102275000Y-105425000I200000J0D01*
G01*
X102675000Y-105425000D01*
G75*
G02*
X102875000Y-105625000I0J-200000D01*
G01*
X102875000Y-106175000D01*
G75*
G02*
X102675000Y-106375000I-200000J0D01*
G01*
X102275000Y-106375000D01*
G75*
G02*
X102075000Y-106175000I0J200000D01*
G01*
G37*
G36*
G01*
X100425000Y-106175000D02*
X100425000Y-105625000D01*
G75*
G02*
X100625000Y-105425000I200000J0D01*
G01*
X101025000Y-105425000D01*
G75*
G02*
X101225000Y-105625000I0J-200000D01*
G01*
X101225000Y-106175000D01*
G75*
G02*
X101025000Y-106375000I-200000J0D01*
G01*
X100625000Y-106375000D01*
G75*
G02*
X100425000Y-106175000I0J200000D01*
G01*
G37*
%TD*%
%TO.C,R12*%
G36*
G01*
X101225000Y-104125000D02*
X101225000Y-104675000D01*
G75*
G02*
X101025000Y-104875000I-200000J0D01*
G01*
X100625000Y-104875000D01*
G75*
G02*
X100425000Y-104675000I0J200000D01*
G01*
X100425000Y-104125000D01*
G75*
G02*
X100625000Y-103925000I200000J0D01*
G01*
X101025000Y-103925000D01*
G75*
G02*
X101225000Y-104125000I0J-200000D01*
G01*
G37*
G36*
G01*
X102875000Y-104125000D02*
X102875000Y-104675000D01*
G75*
G02*
X102675000Y-104875000I-200000J0D01*
G01*
X102275000Y-104875000D01*
G75*
G02*
X102075000Y-104675000I0J200000D01*
G01*
X102075000Y-104125000D01*
G75*
G02*
X102275000Y-103925000I200000J0D01*
G01*
X102675000Y-103925000D01*
G75*
G02*
X102875000Y-104125000I0J-200000D01*
G01*
G37*
%TD*%
%TO.C,R11*%
G36*
G01*
X104275000Y-104725000D02*
X103725000Y-104725000D01*
G75*
G02*
X103525000Y-104525000I0J200000D01*
G01*
X103525000Y-104125000D01*
G75*
G02*
X103725000Y-103925000I200000J0D01*
G01*
X104275000Y-103925000D01*
G75*
G02*
X104475000Y-104125000I0J-200000D01*
G01*
X104475000Y-104525000D01*
G75*
G02*
X104275000Y-104725000I-200000J0D01*
G01*
G37*
G36*
G01*
X104275000Y-106375000D02*
X103725000Y-106375000D01*
G75*
G02*
X103525000Y-106175000I0J200000D01*
G01*
X103525000Y-105775000D01*
G75*
G02*
X103725000Y-105575000I200000J0D01*
G01*
X104275000Y-105575000D01*
G75*
G02*
X104475000Y-105775000I0J-200000D01*
G01*
X104475000Y-106175000D01*
G75*
G02*
X104275000Y-106375000I-200000J0D01*
G01*
G37*
%TD*%
%TO.C,R10*%
G36*
G01*
X99575000Y-104725000D02*
X99025000Y-104725000D01*
G75*
G02*
X98825000Y-104525000I0J200000D01*
G01*
X98825000Y-104125000D01*
G75*
G02*
X99025000Y-103925000I200000J0D01*
G01*
X99575000Y-103925000D01*
G75*
G02*
X99775000Y-104125000I0J-200000D01*
G01*
X99775000Y-104525000D01*
G75*
G02*
X99575000Y-104725000I-200000J0D01*
G01*
G37*
G36*
G01*
X99575000Y-106375000D02*
X99025000Y-106375000D01*
G75*
G02*
X98825000Y-106175000I0J200000D01*
G01*
X98825000Y-105775000D01*
G75*
G02*
X99025000Y-105575000I200000J0D01*
G01*
X99575000Y-105575000D01*
G75*
G02*
X99775000Y-105775000I0J-200000D01*
G01*
X99775000Y-106175000D01*
G75*
G02*
X99575000Y-106375000I-200000J0D01*
G01*
G37*
%TD*%
%TO.C,R9*%
G36*
G01*
X109425000Y-99075000D02*
X109425000Y-98525000D01*
G75*
G02*
X109625000Y-98325000I200000J0D01*
G01*
X110025000Y-98325000D01*
G75*
G02*
X110225000Y-98525000I0J-200000D01*
G01*
X110225000Y-99075000D01*
G75*
G02*
X110025000Y-99275000I-200000J0D01*
G01*
X109625000Y-99275000D01*
G75*
G02*
X109425000Y-99075000I0J200000D01*
G01*
G37*
G36*
G01*
X107775000Y-99075000D02*
X107775000Y-98525000D01*
G75*
G02*
X107975000Y-98325000I200000J0D01*
G01*
X108375000Y-98325000D01*
G75*
G02*
X108575000Y-98525000I0J-200000D01*
G01*
X108575000Y-99075000D01*
G75*
G02*
X108375000Y-99275000I-200000J0D01*
G01*
X107975000Y-99275000D01*
G75*
G02*
X107775000Y-99075000I0J200000D01*
G01*
G37*
%TD*%
%TO.C,R8*%
G36*
G01*
X109425000Y-100575000D02*
X109425000Y-100025000D01*
G75*
G02*
X109625000Y-99825000I200000J0D01*
G01*
X110025000Y-99825000D01*
G75*
G02*
X110225000Y-100025000I0J-200000D01*
G01*
X110225000Y-100575000D01*
G75*
G02*
X110025000Y-100775000I-200000J0D01*
G01*
X109625000Y-100775000D01*
G75*
G02*
X109425000Y-100575000I0J200000D01*
G01*
G37*
G36*
G01*
X107775000Y-100575000D02*
X107775000Y-100025000D01*
G75*
G02*
X107975000Y-99825000I200000J0D01*
G01*
X108375000Y-99825000D01*
G75*
G02*
X108575000Y-100025000I0J-200000D01*
G01*
X108575000Y-100575000D01*
G75*
G02*
X108375000Y-100775000I-200000J0D01*
G01*
X107975000Y-100775000D01*
G75*
G02*
X107775000Y-100575000I0J200000D01*
G01*
G37*
%TD*%
%TO.C,R7*%
G36*
G01*
X109425000Y-102075000D02*
X109425000Y-101525000D01*
G75*
G02*
X109625000Y-101325000I200000J0D01*
G01*
X110025000Y-101325000D01*
G75*
G02*
X110225000Y-101525000I0J-200000D01*
G01*
X110225000Y-102075000D01*
G75*
G02*
X110025000Y-102275000I-200000J0D01*
G01*
X109625000Y-102275000D01*
G75*
G02*
X109425000Y-102075000I0J200000D01*
G01*
G37*
G36*
G01*
X107775000Y-102075000D02*
X107775000Y-101525000D01*
G75*
G02*
X107975000Y-101325000I200000J0D01*
G01*
X108375000Y-101325000D01*
G75*
G02*
X108575000Y-101525000I0J-200000D01*
G01*
X108575000Y-102075000D01*
G75*
G02*
X108375000Y-102275000I-200000J0D01*
G01*
X107975000Y-102275000D01*
G75*
G02*
X107775000Y-102075000I0J200000D01*
G01*
G37*
%TD*%
%TO.C,R6*%
G36*
G01*
X109425000Y-97575000D02*
X109425000Y-97025000D01*
G75*
G02*
X109625000Y-96825000I200000J0D01*
G01*
X110025000Y-96825000D01*
G75*
G02*
X110225000Y-97025000I0J-200000D01*
G01*
X110225000Y-97575000D01*
G75*
G02*
X110025000Y-97775000I-200000J0D01*
G01*
X109625000Y-97775000D01*
G75*
G02*
X109425000Y-97575000I0J200000D01*
G01*
G37*
G36*
G01*
X107775000Y-97575000D02*
X107775000Y-97025000D01*
G75*
G02*
X107975000Y-96825000I200000J0D01*
G01*
X108375000Y-96825000D01*
G75*
G02*
X108575000Y-97025000I0J-200000D01*
G01*
X108575000Y-97575000D01*
G75*
G02*
X108375000Y-97775000I-200000J0D01*
G01*
X107975000Y-97775000D01*
G75*
G02*
X107775000Y-97575000I0J200000D01*
G01*
G37*
%TD*%
%TO.C,R5*%
G36*
G01*
X109425000Y-96075000D02*
X109425000Y-95525000D01*
G75*
G02*
X109625000Y-95325000I200000J0D01*
G01*
X110025000Y-95325000D01*
G75*
G02*
X110225000Y-95525000I0J-200000D01*
G01*
X110225000Y-96075000D01*
G75*
G02*
X110025000Y-96275000I-200000J0D01*
G01*
X109625000Y-96275000D01*
G75*
G02*
X109425000Y-96075000I0J200000D01*
G01*
G37*
G36*
G01*
X107775000Y-96075000D02*
X107775000Y-95525000D01*
G75*
G02*
X107975000Y-95325000I200000J0D01*
G01*
X108375000Y-95325000D01*
G75*
G02*
X108575000Y-95525000I0J-200000D01*
G01*
X108575000Y-96075000D01*
G75*
G02*
X108375000Y-96275000I-200000J0D01*
G01*
X107975000Y-96275000D01*
G75*
G02*
X107775000Y-96075000I0J200000D01*
G01*
G37*
%TD*%
%TO.C,R4*%
G36*
G01*
X94325000Y-92375000D02*
X94325000Y-91825000D01*
G75*
G02*
X94525000Y-91625000I200000J0D01*
G01*
X94925000Y-91625000D01*
G75*
G02*
X95125000Y-91825000I0J-200000D01*
G01*
X95125000Y-92375000D01*
G75*
G02*
X94925000Y-92575000I-200000J0D01*
G01*
X94525000Y-92575000D01*
G75*
G02*
X94325000Y-92375000I0J200000D01*
G01*
G37*
G36*
G01*
X92675000Y-92375000D02*
X92675000Y-91825000D01*
G75*
G02*
X92875000Y-91625000I200000J0D01*
G01*
X93275000Y-91625000D01*
G75*
G02*
X93475000Y-91825000I0J-200000D01*
G01*
X93475000Y-92375000D01*
G75*
G02*
X93275000Y-92575000I-200000J0D01*
G01*
X92875000Y-92575000D01*
G75*
G02*
X92675000Y-92375000I0J200000D01*
G01*
G37*
%TD*%
%TO.C,R3*%
G36*
G01*
X94325000Y-88525000D02*
X94325000Y-87975000D01*
G75*
G02*
X94525000Y-87775000I200000J0D01*
G01*
X94925000Y-87775000D01*
G75*
G02*
X95125000Y-87975000I0J-200000D01*
G01*
X95125000Y-88525000D01*
G75*
G02*
X94925000Y-88725000I-200000J0D01*
G01*
X94525000Y-88725000D01*
G75*
G02*
X94325000Y-88525000I0J200000D01*
G01*
G37*
G36*
G01*
X92675000Y-88525000D02*
X92675000Y-87975000D01*
G75*
G02*
X92875000Y-87775000I200000J0D01*
G01*
X93275000Y-87775000D01*
G75*
G02*
X93475000Y-87975000I0J-200000D01*
G01*
X93475000Y-88525000D01*
G75*
G02*
X93275000Y-88725000I-200000J0D01*
G01*
X92875000Y-88725000D01*
G75*
G02*
X92675000Y-88525000I0J200000D01*
G01*
G37*
%TD*%
%TO.C,R2*%
G36*
G01*
X96475000Y-84325000D02*
X95925000Y-84325000D01*
G75*
G02*
X95725000Y-84125000I0J200000D01*
G01*
X95725000Y-83725000D01*
G75*
G02*
X95925000Y-83525000I200000J0D01*
G01*
X96475000Y-83525000D01*
G75*
G02*
X96675000Y-83725000I0J-200000D01*
G01*
X96675000Y-84125000D01*
G75*
G02*
X96475000Y-84325000I-200000J0D01*
G01*
G37*
G36*
G01*
X96475000Y-85975000D02*
X95925000Y-85975000D01*
G75*
G02*
X95725000Y-85775000I0J200000D01*
G01*
X95725000Y-85375000D01*
G75*
G02*
X95925000Y-85175000I200000J0D01*
G01*
X96475000Y-85175000D01*
G75*
G02*
X96675000Y-85375000I0J-200000D01*
G01*
X96675000Y-85775000D01*
G75*
G02*
X96475000Y-85975000I-200000J0D01*
G01*
G37*
%TD*%
%TO.C,R1*%
G36*
G01*
X104075000Y-84325000D02*
X103525000Y-84325000D01*
G75*
G02*
X103325000Y-84125000I0J200000D01*
G01*
X103325000Y-83725000D01*
G75*
G02*
X103525000Y-83525000I200000J0D01*
G01*
X104075000Y-83525000D01*
G75*
G02*
X104275000Y-83725000I0J-200000D01*
G01*
X104275000Y-84125000D01*
G75*
G02*
X104075000Y-84325000I-200000J0D01*
G01*
G37*
G36*
G01*
X104075000Y-85975000D02*
X103525000Y-85975000D01*
G75*
G02*
X103325000Y-85775000I0J200000D01*
G01*
X103325000Y-85375000D01*
G75*
G02*
X103525000Y-85175000I200000J0D01*
G01*
X104075000Y-85175000D01*
G75*
G02*
X104275000Y-85375000I0J-200000D01*
G01*
X104275000Y-85775000D01*
G75*
G02*
X104075000Y-85975000I-200000J0D01*
G01*
G37*
%TD*%
%TO.C,C18*%
G36*
G01*
X93575000Y-95100000D02*
X93575000Y-95600000D01*
G75*
G02*
X93350000Y-95825000I-225000J0D01*
G01*
X92900000Y-95825000D01*
G75*
G02*
X92675000Y-95600000I0J225000D01*
G01*
X92675000Y-95100000D01*
G75*
G02*
X92900000Y-94875000I225000J0D01*
G01*
X93350000Y-94875000D01*
G75*
G02*
X93575000Y-95100000I0J-225000D01*
G01*
G37*
G36*
G01*
X95125000Y-95100000D02*
X95125000Y-95600000D01*
G75*
G02*
X94900000Y-95825000I-225000J0D01*
G01*
X94450000Y-95825000D01*
G75*
G02*
X94225000Y-95600000I0J225000D01*
G01*
X94225000Y-95100000D01*
G75*
G02*
X94450000Y-94875000I225000J0D01*
G01*
X94900000Y-94875000D01*
G75*
G02*
X95125000Y-95100000I0J-225000D01*
G01*
G37*
%TD*%
%TO.C,C17*%
G36*
G01*
X97950000Y-104825000D02*
X97450000Y-104825000D01*
G75*
G02*
X97225000Y-104600000I0J225000D01*
G01*
X97225000Y-104150000D01*
G75*
G02*
X97450000Y-103925000I225000J0D01*
G01*
X97950000Y-103925000D01*
G75*
G02*
X98175000Y-104150000I0J-225000D01*
G01*
X98175000Y-104600000D01*
G75*
G02*
X97950000Y-104825000I-225000J0D01*
G01*
G37*
G36*
G01*
X97950000Y-106375000D02*
X97450000Y-106375000D01*
G75*
G02*
X97225000Y-106150000I0J225000D01*
G01*
X97225000Y-105700000D01*
G75*
G02*
X97450000Y-105475000I225000J0D01*
G01*
X97950000Y-105475000D01*
G75*
G02*
X98175000Y-105700000I0J-225000D01*
G01*
X98175000Y-106150000D01*
G75*
G02*
X97950000Y-106375000I-225000J0D01*
G01*
G37*
%TD*%
%TO.C,C16*%
G36*
G01*
X93675000Y-102250000D02*
X93675000Y-102750000D01*
G75*
G02*
X93450000Y-102975000I-225000J0D01*
G01*
X93000000Y-102975000D01*
G75*
G02*
X92775000Y-102750000I0J225000D01*
G01*
X92775000Y-102250000D01*
G75*
G02*
X93000000Y-102025000I225000J0D01*
G01*
X93450000Y-102025000D01*
G75*
G02*
X93675000Y-102250000I0J-225000D01*
G01*
G37*
G36*
G01*
X95225000Y-102250000D02*
X95225000Y-102750000D01*
G75*
G02*
X95000000Y-102975000I-225000J0D01*
G01*
X94550000Y-102975000D01*
G75*
G02*
X94325000Y-102750000I0J225000D01*
G01*
X94325000Y-102250000D01*
G75*
G02*
X94550000Y-102025000I225000J0D01*
G01*
X95000000Y-102025000D01*
G75*
G02*
X95225000Y-102250000I0J-225000D01*
G01*
G37*
%TD*%
%TO.C,C15*%
G36*
G01*
X94325000Y-97750000D02*
X94325000Y-97250000D01*
G75*
G02*
X94550000Y-97025000I225000J0D01*
G01*
X95000000Y-97025000D01*
G75*
G02*
X95225000Y-97250000I0J-225000D01*
G01*
X95225000Y-97750000D01*
G75*
G02*
X95000000Y-97975000I-225000J0D01*
G01*
X94550000Y-97975000D01*
G75*
G02*
X94325000Y-97750000I0J225000D01*
G01*
G37*
G36*
G01*
X92775000Y-97750000D02*
X92775000Y-97250000D01*
G75*
G02*
X93000000Y-97025000I225000J0D01*
G01*
X93450000Y-97025000D01*
G75*
G02*
X93675000Y-97250000I0J-225000D01*
G01*
X93675000Y-97750000D01*
G75*
G02*
X93450000Y-97975000I-225000J0D01*
G01*
X93000000Y-97975000D01*
G75*
G02*
X92775000Y-97750000I0J225000D01*
G01*
G37*
%TD*%
%TO.C,C14*%
G36*
G01*
X105825000Y-97550000D02*
X105825000Y-97050000D01*
G75*
G02*
X106050000Y-96825000I225000J0D01*
G01*
X106500000Y-96825000D01*
G75*
G02*
X106725000Y-97050000I0J-225000D01*
G01*
X106725000Y-97550000D01*
G75*
G02*
X106500000Y-97775000I-225000J0D01*
G01*
X106050000Y-97775000D01*
G75*
G02*
X105825000Y-97550000I0J225000D01*
G01*
G37*
G36*
G01*
X104275000Y-97550000D02*
X104275000Y-97050000D01*
G75*
G02*
X104500000Y-96825000I225000J0D01*
G01*
X104950000Y-96825000D01*
G75*
G02*
X105175000Y-97050000I0J-225000D01*
G01*
X105175000Y-97550000D01*
G75*
G02*
X104950000Y-97775000I-225000J0D01*
G01*
X104500000Y-97775000D01*
G75*
G02*
X104275000Y-97550000I0J225000D01*
G01*
G37*
%TD*%
%TO.C,C13*%
G36*
G01*
X106000000Y-99925000D02*
X106500000Y-99925000D01*
G75*
G02*
X106725000Y-100150000I0J-225000D01*
G01*
X106725000Y-100600000D01*
G75*
G02*
X106500000Y-100825000I-225000J0D01*
G01*
X106000000Y-100825000D01*
G75*
G02*
X105775000Y-100600000I0J225000D01*
G01*
X105775000Y-100150000D01*
G75*
G02*
X106000000Y-99925000I225000J0D01*
G01*
G37*
G36*
G01*
X106000000Y-98375000D02*
X106500000Y-98375000D01*
G75*
G02*
X106725000Y-98600000I0J-225000D01*
G01*
X106725000Y-99050000D01*
G75*
G02*
X106500000Y-99275000I-225000J0D01*
G01*
X106000000Y-99275000D01*
G75*
G02*
X105775000Y-99050000I0J225000D01*
G01*
X105775000Y-98600000D01*
G75*
G02*
X106000000Y-98375000I225000J0D01*
G01*
G37*
%TD*%
%TO.C,C12*%
G36*
G01*
X104500000Y-99925000D02*
X105000000Y-99925000D01*
G75*
G02*
X105225000Y-100150000I0J-225000D01*
G01*
X105225000Y-100600000D01*
G75*
G02*
X105000000Y-100825000I-225000J0D01*
G01*
X104500000Y-100825000D01*
G75*
G02*
X104275000Y-100600000I0J225000D01*
G01*
X104275000Y-100150000D01*
G75*
G02*
X104500000Y-99925000I225000J0D01*
G01*
G37*
G36*
G01*
X104500000Y-98375000D02*
X105000000Y-98375000D01*
G75*
G02*
X105225000Y-98600000I0J-225000D01*
G01*
X105225000Y-99050000D01*
G75*
G02*
X105000000Y-99275000I-225000J0D01*
G01*
X104500000Y-99275000D01*
G75*
G02*
X104275000Y-99050000I0J225000D01*
G01*
X104275000Y-98600000D01*
G75*
G02*
X104500000Y-98375000I225000J0D01*
G01*
G37*
%TD*%
%TO.C,C11*%
G36*
G01*
X97750000Y-95100000D02*
X97750000Y-95600000D01*
G75*
G02*
X97525000Y-95825000I-225000J0D01*
G01*
X97075000Y-95825000D01*
G75*
G02*
X96850000Y-95600000I0J225000D01*
G01*
X96850000Y-95100000D01*
G75*
G02*
X97075000Y-94875000I225000J0D01*
G01*
X97525000Y-94875000D01*
G75*
G02*
X97750000Y-95100000I0J-225000D01*
G01*
G37*
G36*
G01*
X99300000Y-95100000D02*
X99300000Y-95600000D01*
G75*
G02*
X99075000Y-95825000I-225000J0D01*
G01*
X98625000Y-95825000D01*
G75*
G02*
X98400000Y-95600000I0J225000D01*
G01*
X98400000Y-95100000D01*
G75*
G02*
X98625000Y-94875000I225000J0D01*
G01*
X99075000Y-94875000D01*
G75*
G02*
X99300000Y-95100000I0J-225000D01*
G01*
G37*
%TD*%
%TO.C,C10*%
G36*
G01*
X95275000Y-93600000D02*
X95275000Y-94100000D01*
G75*
G02*
X95050000Y-94325000I-225000J0D01*
G01*
X94600000Y-94325000D01*
G75*
G02*
X94375000Y-94100000I0J225000D01*
G01*
X94375000Y-93600000D01*
G75*
G02*
X94600000Y-93375000I225000J0D01*
G01*
X95050000Y-93375000D01*
G75*
G02*
X95275000Y-93600000I0J-225000D01*
G01*
G37*
G36*
G01*
X96825000Y-93600000D02*
X96825000Y-94100000D01*
G75*
G02*
X96600000Y-94325000I-225000J0D01*
G01*
X96150000Y-94325000D01*
G75*
G02*
X95925000Y-94100000I0J225000D01*
G01*
X95925000Y-93600000D01*
G75*
G02*
X96150000Y-93375000I225000J0D01*
G01*
X96600000Y-93375000D01*
G75*
G02*
X96825000Y-93600000I0J-225000D01*
G01*
G37*
%TD*%
%TO.C,C9*%
G36*
G01*
X101525000Y-94100000D02*
X101525000Y-93600000D01*
G75*
G02*
X101750000Y-93375000I225000J0D01*
G01*
X102200000Y-93375000D01*
G75*
G02*
X102425000Y-93600000I0J-225000D01*
G01*
X102425000Y-94100000D01*
G75*
G02*
X102200000Y-94325000I-225000J0D01*
G01*
X101750000Y-94325000D01*
G75*
G02*
X101525000Y-94100000I0J225000D01*
G01*
G37*
G36*
G01*
X99975000Y-94100000D02*
X99975000Y-93600000D01*
G75*
G02*
X100200000Y-93375000I225000J0D01*
G01*
X100650000Y-93375000D01*
G75*
G02*
X100875000Y-93600000I0J-225000D01*
G01*
X100875000Y-94100000D01*
G75*
G02*
X100650000Y-94325000I-225000J0D01*
G01*
X100200000Y-94325000D01*
G75*
G02*
X99975000Y-94100000I0J225000D01*
G01*
G37*
%TD*%
%TO.C,C8*%
G36*
G01*
X93350000Y-89875000D02*
X92850000Y-89875000D01*
G75*
G02*
X92625000Y-89650000I0J225000D01*
G01*
X92625000Y-89200000D01*
G75*
G02*
X92850000Y-88975000I225000J0D01*
G01*
X93350000Y-88975000D01*
G75*
G02*
X93575000Y-89200000I0J-225000D01*
G01*
X93575000Y-89650000D01*
G75*
G02*
X93350000Y-89875000I-225000J0D01*
G01*
G37*
G36*
G01*
X93350000Y-91425000D02*
X92850000Y-91425000D01*
G75*
G02*
X92625000Y-91200000I0J225000D01*
G01*
X92625000Y-90750000D01*
G75*
G02*
X92850000Y-90525000I225000J0D01*
G01*
X93350000Y-90525000D01*
G75*
G02*
X93575000Y-90750000I0J-225000D01*
G01*
X93575000Y-91200000D01*
G75*
G02*
X93350000Y-91425000I-225000J0D01*
G01*
G37*
%TD*%
%TO.C,C7*%
G36*
G01*
X101525000Y-95600000D02*
X101525000Y-95100000D01*
G75*
G02*
X101750000Y-94875000I225000J0D01*
G01*
X102200000Y-94875000D01*
G75*
G02*
X102425000Y-95100000I0J-225000D01*
G01*
X102425000Y-95600000D01*
G75*
G02*
X102200000Y-95825000I-225000J0D01*
G01*
X101750000Y-95825000D01*
G75*
G02*
X101525000Y-95600000I0J225000D01*
G01*
G37*
G36*
G01*
X99975000Y-95600000D02*
X99975000Y-95100000D01*
G75*
G02*
X100200000Y-94875000I225000J0D01*
G01*
X100650000Y-94875000D01*
G75*
G02*
X100875000Y-95100000I0J-225000D01*
G01*
X100875000Y-95600000D01*
G75*
G02*
X100650000Y-95825000I-225000J0D01*
G01*
X100200000Y-95825000D01*
G75*
G02*
X99975000Y-95600000I0J225000D01*
G01*
G37*
%TD*%
%TO.C,C6*%
G36*
G01*
X97975000Y-88000000D02*
X97975000Y-88500000D01*
G75*
G02*
X97750000Y-88725000I-225000J0D01*
G01*
X97300000Y-88725000D01*
G75*
G02*
X97075000Y-88500000I0J225000D01*
G01*
X97075000Y-88000000D01*
G75*
G02*
X97300000Y-87775000I225000J0D01*
G01*
X97750000Y-87775000D01*
G75*
G02*
X97975000Y-88000000I0J-225000D01*
G01*
G37*
G36*
G01*
X99525000Y-88000000D02*
X99525000Y-88500000D01*
G75*
G02*
X99300000Y-88725000I-225000J0D01*
G01*
X98850000Y-88725000D01*
G75*
G02*
X98625000Y-88500000I0J225000D01*
G01*
X98625000Y-88000000D01*
G75*
G02*
X98850000Y-87775000I225000J0D01*
G01*
X99300000Y-87775000D01*
G75*
G02*
X99525000Y-88000000I0J-225000D01*
G01*
G37*
%TD*%
%TO.C,C5*%
G36*
G01*
X102025000Y-88500000D02*
X102025000Y-88000000D01*
G75*
G02*
X102250000Y-87775000I225000J0D01*
G01*
X102700000Y-87775000D01*
G75*
G02*
X102925000Y-88000000I0J-225000D01*
G01*
X102925000Y-88500000D01*
G75*
G02*
X102700000Y-88725000I-225000J0D01*
G01*
X102250000Y-88725000D01*
G75*
G02*
X102025000Y-88500000I0J225000D01*
G01*
G37*
G36*
G01*
X100475000Y-88500000D02*
X100475000Y-88000000D01*
G75*
G02*
X100700000Y-87775000I225000J0D01*
G01*
X101150000Y-87775000D01*
G75*
G02*
X101375000Y-88000000I0J-225000D01*
G01*
X101375000Y-88500000D01*
G75*
G02*
X101150000Y-88725000I-225000J0D01*
G01*
X100700000Y-88725000D01*
G75*
G02*
X100475000Y-88500000I0J225000D01*
G01*
G37*
%TD*%
%TO.C,L2*%
G36*
G01*
X96443540Y-92225699D02*
X97975699Y-90693540D01*
G75*
G02*
X98211307Y-90693540I117804J-117804D01*
G01*
X98470674Y-90952907D01*
G75*
G02*
X98470674Y-91188515I-117804J-117804D01*
G01*
X96938515Y-92720674D01*
G75*
G02*
X96702907Y-92720674I-117804J117804D01*
G01*
X96443540Y-92461307D01*
G75*
G02*
X96443540Y-92225699I117804J117804D01*
G01*
G37*
G36*
G01*
X95029326Y-90811485D02*
X96561485Y-89279326D01*
G75*
G02*
X96797093Y-89279326I117804J-117804D01*
G01*
X97056460Y-89538693D01*
G75*
G02*
X97056460Y-89774301I-117804J-117804D01*
G01*
X95524301Y-91306460D01*
G75*
G02*
X95288693Y-91306460I-117804J117804D01*
G01*
X95029326Y-91047093D01*
G75*
G02*
X95029326Y-90811485I117804J117804D01*
G01*
G37*
G36*
G01*
X96868624Y-92140026D02*
X97890026Y-91118624D01*
G75*
G02*
X98233340Y-91118624I171657J-171657D01*
G01*
X98611274Y-91496558D01*
G75*
G02*
X98611274Y-91839872I-171657J-171657D01*
G01*
X97589872Y-92861274D01*
G75*
G02*
X97246558Y-92861274I-171657J171657D01*
G01*
X96868624Y-92483340D01*
G75*
G02*
X96868624Y-92140026I171657J171657D01*
G01*
G37*
G36*
G01*
X94888726Y-90160128D02*
X95910128Y-89138726D01*
G75*
G02*
X96253442Y-89138726I171657J-171657D01*
G01*
X96631376Y-89516660D01*
G75*
G02*
X96631376Y-89859974I-171657J-171657D01*
G01*
X95609974Y-90881376D01*
G75*
G02*
X95266660Y-90881376I-171657J171657D01*
G01*
X94888726Y-90503442D01*
G75*
G02*
X94888726Y-90160128I171657J171657D01*
G01*
G37*
%TD*%
%TO.C,L1*%
G36*
G01*
X104475699Y-91306460D02*
X102943540Y-89774301D01*
G75*
G02*
X102943540Y-89538693I117804J117804D01*
G01*
X103202907Y-89279326D01*
G75*
G02*
X103438515Y-89279326I117804J-117804D01*
G01*
X104970674Y-90811485D01*
G75*
G02*
X104970674Y-91047093I-117804J-117804D01*
G01*
X104711307Y-91306460D01*
G75*
G02*
X104475699Y-91306460I-117804J117804D01*
G01*
G37*
G36*
G01*
X103061485Y-92720674D02*
X101529326Y-91188515D01*
G75*
G02*
X101529326Y-90952907I117804J117804D01*
G01*
X101788693Y-90693540D01*
G75*
G02*
X102024301Y-90693540I117804J-117804D01*
G01*
X103556460Y-92225699D01*
G75*
G02*
X103556460Y-92461307I-117804J-117804D01*
G01*
X103297093Y-92720674D01*
G75*
G02*
X103061485Y-92720674I-117804J117804D01*
G01*
G37*
G36*
G01*
X104390026Y-90881376D02*
X103368624Y-89859974D01*
G75*
G02*
X103368624Y-89516660I171657J171657D01*
G01*
X103746558Y-89138726D01*
G75*
G02*
X104089872Y-89138726I171657J-171657D01*
G01*
X105111274Y-90160128D01*
G75*
G02*
X105111274Y-90503442I-171657J-171657D01*
G01*
X104733340Y-90881376D01*
G75*
G02*
X104390026Y-90881376I-171657J171657D01*
G01*
G37*
G36*
G01*
X102410128Y-92861274D02*
X101388726Y-91839872D01*
G75*
G02*
X101388726Y-91496558I171657J171657D01*
G01*
X101766660Y-91118624D01*
G75*
G02*
X102109974Y-91118624I171657J-171657D01*
G01*
X103131376Y-92140026D01*
G75*
G02*
X103131376Y-92483340I-171657J-171657D01*
G01*
X102753442Y-92861274D01*
G75*
G02*
X102410128Y-92861274I-171657J171657D01*
G01*
G37*
%TD*%
D13*
%TO.C,Y1*%
X93200000Y-98650000D03*
X94800000Y-98650000D03*
X94800000Y-101350000D03*
X93200000Y-101350000D03*
%TD*%
M02*
