%TF.GenerationSoftware,KiCad,Pcbnew,(5.1.9-0-10_14)*%
%TF.CreationDate,2021-05-09T15:00:37+01:00*%
%TF.ProjectId,PN532,504e3533-322e-46b6-9963-61645f706362,6*%
%TF.SameCoordinates,Original*%
%TF.FileFunction,Soldermask,Bot*%
%TF.FilePolarity,Negative*%
%FSLAX46Y46*%
G04 Gerber Fmt 4.6, Leading zero omitted, Abs format (unit mm)*
G04 Created by KiCad (PCBNEW (5.1.9-0-10_14)) date 2021-05-09 15:00:37*
%MOMM*%
%LPD*%
G01*
G04 APERTURE LIST*
%ADD10C,0.100000*%
%ADD11C,1.300000*%
%ADD12R,1.300000X1.300000*%
%ADD13O,1.700000X1.700000*%
%ADD14R,1.700000X1.700000*%
%ADD15C,0.600000*%
%ADD16C,1.000000*%
%ADD17R,1.300000X1.550000*%
%ADD18C,2.000000*%
%ADD19O,1.700000X1.850000*%
%ADD20C,0.350000*%
%ADD21C,1.800000*%
%ADD22R,1.800000X1.800000*%
%ADD23C,3.200000*%
G04 APERTURE END LIST*
D10*
%TO.C,U2*%
G36*
X114900000Y-103100000D02*
G01*
X114900000Y-108900000D01*
X109100000Y-108900000D01*
X109100000Y-103100000D01*
X114900000Y-103100000D01*
G37*
X114900000Y-103100000D02*
X114900000Y-108900000D01*
X109100000Y-108900000D01*
X109100000Y-103100000D01*
X114900000Y-103100000D01*
%TD*%
D11*
%TO.C,J4*%
X89000000Y-113000000D03*
X87000000Y-113000000D03*
X89000000Y-111000000D03*
D12*
X87000000Y-111000000D03*
%TD*%
D13*
%TO.C,J1*%
X108000000Y-104730000D03*
D14*
X108000000Y-107270000D03*
%TD*%
D15*
%TO.C,A1*%
X99000000Y-120000000D03*
X101000000Y-117000000D03*
X96000000Y-83000000D03*
X104000000Y-83000000D03*
X100000000Y-81000000D03*
%TD*%
D16*
%TO.C,TP1*%
X98750000Y-92400000D03*
X101250000Y-92400000D03*
%TD*%
D17*
%TO.C,SW1*%
X85750000Y-96025000D03*
X90250000Y-96025000D03*
X90250000Y-103975000D03*
X85750000Y-103975000D03*
D18*
X90250000Y-103250000D03*
X85750000Y-103250000D03*
X90250000Y-96750000D03*
X85750000Y-96750000D03*
%TD*%
D19*
%TO.C,J3*%
X103750000Y-108900000D03*
X101250000Y-108900000D03*
X98750000Y-108900000D03*
G36*
G01*
X95400000Y-109575000D02*
X95400000Y-108225000D01*
G75*
G02*
X95650000Y-107975000I250000J0D01*
G01*
X96850000Y-107975000D01*
G75*
G02*
X97100000Y-108225000I0J-250000D01*
G01*
X97100000Y-109575000D01*
G75*
G02*
X96850000Y-109825000I-250000J0D01*
G01*
X95650000Y-109825000D01*
G75*
G02*
X95400000Y-109575000I0J250000D01*
G01*
G37*
%TD*%
D20*
%TO.C,U1*%
X100000000Y-100000000D03*
X99000000Y-101000000D03*
X99000000Y-99000000D03*
X101000000Y-99000000D03*
X101000000Y-101000000D03*
%TD*%
%TO.C,D1*%
G36*
G01*
X112237500Y-101400000D02*
X111762500Y-101400000D01*
G75*
G02*
X111525000Y-101162500I0J237500D01*
G01*
X111525000Y-100587500D01*
G75*
G02*
X111762500Y-100350000I237500J0D01*
G01*
X112237500Y-100350000D01*
G75*
G02*
X112475000Y-100587500I0J-237500D01*
G01*
X112475000Y-101162500D01*
G75*
G02*
X112237500Y-101400000I-237500J0D01*
G01*
G37*
G36*
G01*
X112237500Y-99650000D02*
X111762500Y-99650000D01*
G75*
G02*
X111525000Y-99412500I0J237500D01*
G01*
X111525000Y-98837500D01*
G75*
G02*
X111762500Y-98600000I237500J0D01*
G01*
X112237500Y-98600000D01*
G75*
G02*
X112475000Y-98837500I0J-237500D01*
G01*
X112475000Y-99412500D01*
G75*
G02*
X112237500Y-99650000I-237500J0D01*
G01*
G37*
D21*
X112000000Y-98730000D03*
D22*
X112000000Y-101270000D03*
%TD*%
D13*
%TO.C,J2*%
X103810000Y-112000000D03*
X101270000Y-112000000D03*
X98730000Y-112000000D03*
D14*
X96190000Y-112000000D03*
%TD*%
%TO.C,D3*%
G36*
G01*
X112237500Y-89400000D02*
X111762500Y-89400000D01*
G75*
G02*
X111525000Y-89162500I0J237500D01*
G01*
X111525000Y-88587500D01*
G75*
G02*
X111762500Y-88350000I237500J0D01*
G01*
X112237500Y-88350000D01*
G75*
G02*
X112475000Y-88587500I0J-237500D01*
G01*
X112475000Y-89162500D01*
G75*
G02*
X112237500Y-89400000I-237500J0D01*
G01*
G37*
G36*
G01*
X112237500Y-87650000D02*
X111762500Y-87650000D01*
G75*
G02*
X111525000Y-87412500I0J237500D01*
G01*
X111525000Y-86837500D01*
G75*
G02*
X111762500Y-86600000I237500J0D01*
G01*
X112237500Y-86600000D01*
G75*
G02*
X112475000Y-86837500I0J-237500D01*
G01*
X112475000Y-87412500D01*
G75*
G02*
X112237500Y-87650000I-237500J0D01*
G01*
G37*
D21*
X112000000Y-86730000D03*
D22*
X112000000Y-89270000D03*
%TD*%
%TO.C,D2*%
G36*
G01*
X112237500Y-95400000D02*
X111762500Y-95400000D01*
G75*
G02*
X111525000Y-95162500I0J237500D01*
G01*
X111525000Y-94587500D01*
G75*
G02*
X111762500Y-94350000I237500J0D01*
G01*
X112237500Y-94350000D01*
G75*
G02*
X112475000Y-94587500I0J-237500D01*
G01*
X112475000Y-95162500D01*
G75*
G02*
X112237500Y-95400000I-237500J0D01*
G01*
G37*
G36*
G01*
X112237500Y-93650000D02*
X111762500Y-93650000D01*
G75*
G02*
X111525000Y-93412500I0J237500D01*
G01*
X111525000Y-92837500D01*
G75*
G02*
X111762500Y-92600000I237500J0D01*
G01*
X112237500Y-92600000D01*
G75*
G02*
X112475000Y-92837500I0J-237500D01*
G01*
X112475000Y-93412500D01*
G75*
G02*
X112237500Y-93650000I-237500J0D01*
G01*
G37*
D21*
X112000000Y-92730000D03*
D22*
X112000000Y-95270000D03*
%TD*%
D23*
%TO.C,H2*%
X88000000Y-88000000D03*
%TD*%
%TO.C,H1*%
X112000000Y-112000000D03*
%TD*%
M02*
