%TF.GenerationSoftware,KiCad,Pcbnew,(6.0.0-0)*%
%TF.CreationDate,2022-01-01T19:33:32+00:00*%
%TF.ProjectId,PN532,504e3533-322e-46b6-9963-61645f706362,7*%
%TF.SameCoordinates,Original*%
%TF.FileFunction,Soldermask,Bot*%
%TF.FilePolarity,Negative*%
%FSLAX46Y46*%
G04 Gerber Fmt 4.6, Leading zero omitted, Abs format (unit mm)*
G04 Created by KiCad (PCBNEW (6.0.0-0)) date 2022-01-01 19:33:32*
%MOMM*%
%LPD*%
G01*
G04 APERTURE LIST*
G04 Aperture macros list*
%AMRoundRect*
0 Rectangle with rounded corners*
0 $1 Rounding radius*
0 $2 $3 $4 $5 $6 $7 $8 $9 X,Y pos of 4 corners*
0 Add a 4 corners polygon primitive as box body*
4,1,4,$2,$3,$4,$5,$6,$7,$8,$9,$2,$3,0*
0 Add four circle primitives for the rounded corners*
1,1,$1+$1,$2,$3*
1,1,$1+$1,$4,$5*
1,1,$1+$1,$6,$7*
1,1,$1+$1,$8,$9*
0 Add four rect primitives between the rounded corners*
20,1,$1+$1,$2,$3,$4,$5,0*
20,1,$1+$1,$4,$5,$6,$7,0*
20,1,$1+$1,$6,$7,$8,$9,0*
20,1,$1+$1,$8,$9,$2,$3,0*%
G04 Aperture macros list end*
%ADD10C,0.450000*%
%ADD11C,3.200000*%
%ADD12O,2.100000X1.450000*%
%ADD13RoundRect,0.125000X0.625000X-0.125000X0.625000X0.125000X-0.625000X0.125000X-0.625000X-0.125000X0*%
%ADD14R,1.300000X2.000000*%
%ADD15C,2.000000*%
%ADD16C,0.350000*%
%ADD17R,1.700000X1.700000*%
%ADD18O,1.700000X1.700000*%
%ADD19RoundRect,0.250000X-0.600000X-0.675000X0.600000X-0.675000X0.600000X0.675000X-0.600000X0.675000X0*%
%ADD20O,1.700000X1.850000*%
%ADD21C,1.200000*%
%ADD22C,0.600000*%
G04 APERTURE END LIST*
%TO.C,U3*%
G36*
X91400000Y-114400000D02*
G01*
X85600000Y-114400000D01*
X85600000Y-108600000D01*
X91400000Y-108600000D01*
X91400000Y-114400000D01*
G37*
D10*
%TO.C,AJK2*%
X87900000Y-90100000D02*
X87900000Y-94300000D01*
X87900000Y-92200000D02*
X86100000Y-94300000D01*
X87900000Y-90100000D02*
X90900000Y-94300000D01*
X86100000Y-90200000D02*
X87900000Y-92200000D01*
X87900000Y-92200000D02*
X89400000Y-92200000D01*
X87900000Y-94300000D02*
G75*
G03*
X89400000Y-94300000I750000J0D01*
G01*
%TD*%
D11*
%TO.C,H2*%
X88000000Y-88000000D03*
%TD*%
%TO.C,H1*%
X112000000Y-112000000D03*
%TD*%
D12*
%TO.C,D2*%
X112000000Y-94000000D03*
D13*
X112000000Y-94900000D03*
X112000000Y-93100000D03*
%TD*%
D12*
%TO.C,D3*%
X112000000Y-88000000D03*
D13*
X112000000Y-88900000D03*
X112000000Y-87100000D03*
%TD*%
D14*
%TO.C,SW1*%
X90750000Y-104200000D03*
X90750000Y-95800000D03*
D15*
X90750000Y-96750000D03*
X90750000Y-103250000D03*
D14*
X86250000Y-104200000D03*
X86250000Y-95800000D03*
D15*
X86250000Y-96750000D03*
X86250000Y-103250000D03*
%TD*%
D12*
%TO.C,D1*%
X112000000Y-100000000D03*
D13*
X112000000Y-100900000D03*
X112000000Y-99100000D03*
%TD*%
D16*
%TO.C,U1*%
X99000000Y-101000000D03*
X101000000Y-99000000D03*
X101000000Y-101000000D03*
X99000000Y-99000000D03*
X100000000Y-100000000D03*
%TD*%
D17*
%TO.C,J1*%
X112000000Y-107270000D03*
D18*
X112000000Y-104730000D03*
%TD*%
D19*
%TO.C,J3*%
X96250000Y-108900000D03*
D20*
X98750000Y-108900000D03*
X101250000Y-108900000D03*
X103750000Y-108900000D03*
%TD*%
D21*
%TO.C,TP1*%
X101250000Y-92400000D03*
X98750000Y-92400000D03*
%TD*%
D22*
%TO.C,A1*%
X98000000Y-83000000D03*
X100000000Y-81000000D03*
X102000000Y-83000000D03*
%TD*%
D17*
%TO.C,J2*%
X96190000Y-112000000D03*
D18*
X98730000Y-112000000D03*
X101270000Y-112000000D03*
X103810000Y-112000000D03*
%TD*%
M02*
