%TF.GenerationSoftware,KiCad,Pcbnew,(5.1.9-0-10_14)*%
%TF.CreationDate,2021-05-08T19:21:37+01:00*%
%TF.ProjectId,PN532,504e3533-322e-46b6-9963-61645f706362,6*%
%TF.SameCoordinates,Original*%
%TF.FileFunction,Copper,L1,Top*%
%TF.FilePolarity,Positive*%
%FSLAX46Y46*%
G04 Gerber Fmt 4.6, Leading zero omitted, Abs format (unit mm)*
G04 Created by KiCad (PCBNEW (5.1.9-0-10_14)) date 2021-05-08 19:21:37*
%MOMM*%
%LPD*%
G01*
G04 APERTURE LIST*
%TA.AperFunction,NonConductor*%
%ADD10C,0.150000*%
%TD*%
%TA.AperFunction,EtchedComponent*%
%ADD11C,0.500000*%
%TD*%
%TA.AperFunction,EtchedComponent*%
%ADD12C,0.100000*%
%TD*%
%TA.AperFunction,ComponentPad*%
%ADD13C,1.400000*%
%TD*%
%TA.AperFunction,ComponentPad*%
%ADD14C,0.600000*%
%TD*%
%TA.AperFunction,SMDPad,CuDef*%
%ADD15R,1.300000X1.550000*%
%TD*%
%TA.AperFunction,ComponentPad*%
%ADD16C,2.000000*%
%TD*%
%TA.AperFunction,ComponentPad*%
%ADD17O,1.700000X1.850000*%
%TD*%
%TA.AperFunction,SMDPad,CuDef*%
%ADD18C,0.100000*%
%TD*%
%TA.AperFunction,SMDPad,CuDef*%
%ADD19R,1.000000X1.500000*%
%TD*%
%TA.AperFunction,ComponentPad*%
%ADD20C,0.800000*%
%TD*%
%TA.AperFunction,ComponentPad*%
%ADD21C,0.350000*%
%TD*%
%TA.AperFunction,SMDPad,CuDef*%
%ADD22C,0.500000*%
%TD*%
%TA.AperFunction,SMDPad,CuDef*%
%ADD23R,0.200000X0.200000*%
%TD*%
%TA.AperFunction,SMDPad,CuDef*%
%ADD24R,4.100000X4.100000*%
%TD*%
%TA.AperFunction,ComponentPad*%
%ADD25C,1.800000*%
%TD*%
%TA.AperFunction,ComponentPad*%
%ADD26R,1.800000X1.800000*%
%TD*%
%TA.AperFunction,ComponentPad*%
%ADD27O,1.700000X1.700000*%
%TD*%
%TA.AperFunction,ComponentPad*%
%ADD28R,1.700000X1.700000*%
%TD*%
%TA.AperFunction,ComponentPad*%
%ADD29C,1.300000*%
%TD*%
%TA.AperFunction,ComponentPad*%
%ADD30R,1.300000X1.300000*%
%TD*%
%TA.AperFunction,SMDPad,CuDef*%
%ADD31R,1.150000X1.900000*%
%TD*%
%TA.AperFunction,ComponentPad*%
%ADD32C,3.200000*%
%TD*%
%TA.AperFunction,ViaPad*%
%ADD33C,0.800000*%
%TD*%
%TA.AperFunction,Conductor*%
%ADD34C,0.500000*%
%TD*%
%TA.AperFunction,Conductor*%
%ADD35C,0.250000*%
%TD*%
G04 APERTURE END LIST*
D10*
X91857142Y-93614285D02*
X91666666Y-92947619D01*
X91476190Y-93423809D01*
X91285714Y-92947619D01*
X91095238Y-93614285D01*
X90809523Y-93614285D02*
X90619047Y-92947619D01*
X90428571Y-93423809D01*
X90238095Y-92947619D01*
X90047619Y-93614285D01*
X89761904Y-93614285D02*
X89571428Y-92947619D01*
X89380952Y-93423809D01*
X89190476Y-92947619D01*
X89000000Y-93614285D01*
X88619047Y-93042857D02*
X88571428Y-92995238D01*
X88619047Y-92947619D01*
X88666666Y-92995238D01*
X88619047Y-93042857D01*
X88619047Y-92947619D01*
X88142857Y-92947619D02*
X88142857Y-93614285D01*
X88142857Y-93519047D02*
X88095238Y-93566666D01*
X88000000Y-93614285D01*
X87857142Y-93614285D01*
X87761904Y-93566666D01*
X87714285Y-93471428D01*
X87714285Y-92947619D01*
X87714285Y-93471428D02*
X87666666Y-93566666D01*
X87571428Y-93614285D01*
X87428571Y-93614285D01*
X87333333Y-93566666D01*
X87285714Y-93471428D01*
X87285714Y-92947619D01*
X86428571Y-92995238D02*
X86523809Y-92947619D01*
X86714285Y-92947619D01*
X86809523Y-92995238D01*
X86857142Y-93090476D01*
X86857142Y-93471428D01*
X86809523Y-93566666D01*
X86714285Y-93614285D01*
X86523809Y-93614285D01*
X86428571Y-93566666D01*
X86380952Y-93471428D01*
X86380952Y-93376190D01*
X86857142Y-93280952D01*
X85952380Y-93042857D02*
X85904761Y-92995238D01*
X85952380Y-92947619D01*
X86000000Y-92995238D01*
X85952380Y-93042857D01*
X85952380Y-92947619D01*
X85047619Y-93614285D02*
X85047619Y-92947619D01*
X85476190Y-93614285D02*
X85476190Y-93090476D01*
X85428571Y-92995238D01*
X85333333Y-92947619D01*
X85190476Y-92947619D01*
X85095238Y-92995238D01*
X85047619Y-93042857D01*
X84571428Y-92947619D02*
X84571428Y-93947619D01*
X84476190Y-93328571D02*
X84190476Y-92947619D01*
X84190476Y-93614285D02*
X84571428Y-93233333D01*
X91885714Y-92261904D02*
X91847619Y-92300000D01*
X91771428Y-92338095D01*
X91580952Y-92338095D01*
X91504761Y-92300000D01*
X91466666Y-92261904D01*
X91428571Y-92185714D01*
X91428571Y-92109523D01*
X91466666Y-91995238D01*
X91923809Y-91538095D01*
X91428571Y-91538095D01*
X90933333Y-92338095D02*
X90857142Y-92338095D01*
X90780952Y-92300000D01*
X90742857Y-92261904D01*
X90704761Y-92185714D01*
X90666666Y-92033333D01*
X90666666Y-91842857D01*
X90704761Y-91690476D01*
X90742857Y-91614285D01*
X90780952Y-91576190D01*
X90857142Y-91538095D01*
X90933333Y-91538095D01*
X91009523Y-91576190D01*
X91047619Y-91614285D01*
X91085714Y-91690476D01*
X91123809Y-91842857D01*
X91123809Y-92033333D01*
X91085714Y-92185714D01*
X91047619Y-92261904D01*
X91009523Y-92300000D01*
X90933333Y-92338095D01*
X90361904Y-92261904D02*
X90323809Y-92300000D01*
X90247619Y-92338095D01*
X90057142Y-92338095D01*
X89980952Y-92300000D01*
X89942857Y-92261904D01*
X89904761Y-92185714D01*
X89904761Y-92109523D01*
X89942857Y-91995238D01*
X90400000Y-91538095D01*
X89904761Y-91538095D01*
X89142857Y-91538095D02*
X89600000Y-91538095D01*
X89371428Y-91538095D02*
X89371428Y-92338095D01*
X89447619Y-92223809D01*
X89523809Y-92147619D01*
X89600000Y-92109523D01*
X88800000Y-91842857D02*
X88190476Y-91842857D01*
X87657142Y-92338095D02*
X87580952Y-92338095D01*
X87504761Y-92300000D01*
X87466666Y-92261904D01*
X87428571Y-92185714D01*
X87390476Y-92033333D01*
X87390476Y-91842857D01*
X87428571Y-91690476D01*
X87466666Y-91614285D01*
X87504761Y-91576190D01*
X87580952Y-91538095D01*
X87657142Y-91538095D01*
X87733333Y-91576190D01*
X87771428Y-91614285D01*
X87809523Y-91690476D01*
X87847619Y-91842857D01*
X87847619Y-92033333D01*
X87809523Y-92185714D01*
X87771428Y-92261904D01*
X87733333Y-92300000D01*
X87657142Y-92338095D01*
X86666666Y-92338095D02*
X87047619Y-92338095D01*
X87085714Y-91957142D01*
X87047619Y-91995238D01*
X86971428Y-92033333D01*
X86780952Y-92033333D01*
X86704761Y-91995238D01*
X86666666Y-91957142D01*
X86628571Y-91880952D01*
X86628571Y-91690476D01*
X86666666Y-91614285D01*
X86704761Y-91576190D01*
X86780952Y-91538095D01*
X86971428Y-91538095D01*
X87047619Y-91576190D01*
X87085714Y-91614285D01*
X86285714Y-91842857D02*
X85676190Y-91842857D01*
X85142857Y-92338095D02*
X85066666Y-92338095D01*
X84990476Y-92300000D01*
X84952380Y-92261904D01*
X84914285Y-92185714D01*
X84876190Y-92033333D01*
X84876190Y-91842857D01*
X84914285Y-91690476D01*
X84952380Y-91614285D01*
X84990476Y-91576190D01*
X85066666Y-91538095D01*
X85142857Y-91538095D01*
X85219047Y-91576190D01*
X85257142Y-91614285D01*
X85295238Y-91690476D01*
X85333333Y-91842857D01*
X85333333Y-92033333D01*
X85295238Y-92185714D01*
X85257142Y-92261904D01*
X85219047Y-92300000D01*
X85142857Y-92338095D01*
X84419047Y-91995238D02*
X84495238Y-92033333D01*
X84533333Y-92071428D01*
X84571428Y-92147619D01*
X84571428Y-92185714D01*
X84533333Y-92261904D01*
X84495238Y-92300000D01*
X84419047Y-92338095D01*
X84266666Y-92338095D01*
X84190476Y-92300000D01*
X84152380Y-92261904D01*
X84114285Y-92185714D01*
X84114285Y-92147619D01*
X84152380Y-92071428D01*
X84190476Y-92033333D01*
X84266666Y-91995238D01*
X84419047Y-91995238D01*
X84495238Y-91957142D01*
X84533333Y-91919047D01*
X84571428Y-91842857D01*
X84571428Y-91690476D01*
X84533333Y-91614285D01*
X84495238Y-91576190D01*
X84419047Y-91538095D01*
X84266666Y-91538095D01*
X84190476Y-91576190D01*
X84152380Y-91614285D01*
X84114285Y-91690476D01*
X84114285Y-91842857D01*
X84152380Y-91919047D01*
X84190476Y-91957142D01*
X84266666Y-91995238D01*
D11*
%TO.C,A1*%
X101000000Y-117000000D02*
X99000000Y-120000000D01*
D12*
%TO.C,JP1*%
G36*
X93900000Y-104800000D02*
G01*
X94400000Y-104800000D01*
X94400000Y-105200000D01*
X93900000Y-105200000D01*
X93900000Y-104800000D01*
G37*
G36*
X93900000Y-105600000D02*
G01*
X94400000Y-105600000D01*
X94400000Y-106000000D01*
X93900000Y-106000000D01*
X93900000Y-105600000D01*
G37*
%TD*%
%TO.P,C5,2*%
%TO.N,Net-(C3-Pad1)*%
%TA.AperFunction,SMDPad,CuDef*%
G36*
G01*
X101825000Y-87750000D02*
X101825000Y-87250000D01*
G75*
G02*
X102050000Y-87025000I225000J0D01*
G01*
X102500000Y-87025000D01*
G75*
G02*
X102725000Y-87250000I0J-225000D01*
G01*
X102725000Y-87750000D01*
G75*
G02*
X102500000Y-87975000I-225000J0D01*
G01*
X102050000Y-87975000D01*
G75*
G02*
X101825000Y-87750000I0J225000D01*
G01*
G37*
%TD.AperFunction*%
%TO.P,C5,1*%
%TO.N,GND*%
%TA.AperFunction,SMDPad,CuDef*%
G36*
G01*
X100275000Y-87750000D02*
X100275000Y-87250000D01*
G75*
G02*
X100500000Y-87025000I225000J0D01*
G01*
X100950000Y-87025000D01*
G75*
G02*
X101175000Y-87250000I0J-225000D01*
G01*
X101175000Y-87750000D01*
G75*
G02*
X100950000Y-87975000I-225000J0D01*
G01*
X100500000Y-87975000D01*
G75*
G02*
X100275000Y-87750000I0J225000D01*
G01*
G37*
%TD.AperFunction*%
%TD*%
%TO.P,C2,2*%
%TO.N,Net-(C2-Pad2)*%
%TA.AperFunction,SMDPad,CuDef*%
G36*
G01*
X98175000Y-85050000D02*
X98175000Y-85550000D01*
G75*
G02*
X97950000Y-85775000I-225000J0D01*
G01*
X97500000Y-85775000D01*
G75*
G02*
X97275000Y-85550000I0J225000D01*
G01*
X97275000Y-85050000D01*
G75*
G02*
X97500000Y-84825000I225000J0D01*
G01*
X97950000Y-84825000D01*
G75*
G02*
X98175000Y-85050000I0J-225000D01*
G01*
G37*
%TD.AperFunction*%
%TO.P,C2,1*%
%TO.N,GND*%
%TA.AperFunction,SMDPad,CuDef*%
G36*
G01*
X99725000Y-85050000D02*
X99725000Y-85550000D01*
G75*
G02*
X99500000Y-85775000I-225000J0D01*
G01*
X99050000Y-85775000D01*
G75*
G02*
X98825000Y-85550000I0J225000D01*
G01*
X98825000Y-85050000D01*
G75*
G02*
X99050000Y-84825000I225000J0D01*
G01*
X99500000Y-84825000D01*
G75*
G02*
X99725000Y-85050000I0J-225000D01*
G01*
G37*
%TD.AperFunction*%
%TD*%
D13*
%TO.P,J1,2*%
%TO.N,Net-(J1-Pad2)*%
X107500000Y-110730000D03*
%TO.P,J1,1*%
%TO.N,GND*%
X107500000Y-113270000D03*
%TD*%
%TO.P,L2,2*%
%TO.N,Net-(L2-Pad2)*%
%TA.AperFunction,SMDPad,CuDef*%
G36*
G01*
X98290000Y-90422240D02*
X98290000Y-88977760D01*
G75*
G02*
X98532760Y-88735000I242760J0D01*
G01*
X99067240Y-88735000D01*
G75*
G02*
X99310000Y-88977760I0J-242760D01*
G01*
X99310000Y-90422240D01*
G75*
G02*
X99067240Y-90665000I-242760J0D01*
G01*
X98532760Y-90665000D01*
G75*
G02*
X98290000Y-90422240I0J242760D01*
G01*
G37*
%TD.AperFunction*%
%TO.P,L2,1*%
%TO.N,Net-(C4-Pad2)*%
%TA.AperFunction,SMDPad,CuDef*%
G36*
G01*
X95490000Y-90422240D02*
X95490000Y-88977760D01*
G75*
G02*
X95732760Y-88735000I242760J0D01*
G01*
X96267240Y-88735000D01*
G75*
G02*
X96510000Y-88977760I0J-242760D01*
G01*
X96510000Y-90422240D01*
G75*
G02*
X96267240Y-90665000I-242760J0D01*
G01*
X95732760Y-90665000D01*
G75*
G02*
X95490000Y-90422240I0J242760D01*
G01*
G37*
%TD.AperFunction*%
%TD*%
%TO.P,L1,2*%
%TO.N,Net-(C3-Pad1)*%
%TA.AperFunction,SMDPad,CuDef*%
G36*
G01*
X103490000Y-90422240D02*
X103490000Y-88977760D01*
G75*
G02*
X103732760Y-88735000I242760J0D01*
G01*
X104267240Y-88735000D01*
G75*
G02*
X104510000Y-88977760I0J-242760D01*
G01*
X104510000Y-90422240D01*
G75*
G02*
X104267240Y-90665000I-242760J0D01*
G01*
X103732760Y-90665000D01*
G75*
G02*
X103490000Y-90422240I0J242760D01*
G01*
G37*
%TD.AperFunction*%
%TO.P,L1,1*%
%TO.N,Net-(L1-Pad1)*%
%TA.AperFunction,SMDPad,CuDef*%
G36*
G01*
X100690000Y-90422240D02*
X100690000Y-88977760D01*
G75*
G02*
X100932760Y-88735000I242760J0D01*
G01*
X101467240Y-88735000D01*
G75*
G02*
X101710000Y-88977760I0J-242760D01*
G01*
X101710000Y-90422240D01*
G75*
G02*
X101467240Y-90665000I-242760J0D01*
G01*
X100932760Y-90665000D01*
G75*
G02*
X100690000Y-90422240I0J242760D01*
G01*
G37*
%TD.AperFunction*%
%TD*%
%TO.P,R11,2*%
%TO.N,Net-(J1-Pad2)*%
%TA.AperFunction,SMDPad,CuDef*%
G36*
G01*
X103075000Y-104975000D02*
X102525000Y-104975000D01*
G75*
G02*
X102325000Y-104775000I0J200000D01*
G01*
X102325000Y-104375000D01*
G75*
G02*
X102525000Y-104175000I200000J0D01*
G01*
X103075000Y-104175000D01*
G75*
G02*
X103275000Y-104375000I0J-200000D01*
G01*
X103275000Y-104775000D01*
G75*
G02*
X103075000Y-104975000I-200000J0D01*
G01*
G37*
%TD.AperFunction*%
%TO.P,R11,1*%
%TO.N,+3V3*%
%TA.AperFunction,SMDPad,CuDef*%
G36*
G01*
X103075000Y-106625000D02*
X102525000Y-106625000D01*
G75*
G02*
X102325000Y-106425000I0J200000D01*
G01*
X102325000Y-106025000D01*
G75*
G02*
X102525000Y-105825000I200000J0D01*
G01*
X103075000Y-105825000D01*
G75*
G02*
X103275000Y-106025000I0J-200000D01*
G01*
X103275000Y-106425000D01*
G75*
G02*
X103075000Y-106625000I-200000J0D01*
G01*
G37*
%TD.AperFunction*%
%TD*%
%TO.P,R10,2*%
%TO.N,Net-(R10-Pad2)*%
%TA.AperFunction,SMDPad,CuDef*%
G36*
G01*
X100475000Y-104975000D02*
X99925000Y-104975000D01*
G75*
G02*
X99725000Y-104775000I0J200000D01*
G01*
X99725000Y-104375000D01*
G75*
G02*
X99925000Y-104175000I200000J0D01*
G01*
X100475000Y-104175000D01*
G75*
G02*
X100675000Y-104375000I0J-200000D01*
G01*
X100675000Y-104775000D01*
G75*
G02*
X100475000Y-104975000I-200000J0D01*
G01*
G37*
%TD.AperFunction*%
%TO.P,R10,1*%
%TO.N,+3V3*%
%TA.AperFunction,SMDPad,CuDef*%
G36*
G01*
X100475000Y-106625000D02*
X99925000Y-106625000D01*
G75*
G02*
X99725000Y-106425000I0J200000D01*
G01*
X99725000Y-106025000D01*
G75*
G02*
X99925000Y-105825000I200000J0D01*
G01*
X100475000Y-105825000D01*
G75*
G02*
X100675000Y-106025000I0J-200000D01*
G01*
X100675000Y-106425000D01*
G75*
G02*
X100475000Y-106625000I-200000J0D01*
G01*
G37*
%TD.AperFunction*%
%TD*%
%TO.P,R9,2*%
%TO.N,Net-(D3-Pad2)*%
%TA.AperFunction,SMDPad,CuDef*%
G36*
G01*
X109525000Y-99075000D02*
X109525000Y-98525000D01*
G75*
G02*
X109725000Y-98325000I200000J0D01*
G01*
X110125000Y-98325000D01*
G75*
G02*
X110325000Y-98525000I0J-200000D01*
G01*
X110325000Y-99075000D01*
G75*
G02*
X110125000Y-99275000I-200000J0D01*
G01*
X109725000Y-99275000D01*
G75*
G02*
X109525000Y-99075000I0J200000D01*
G01*
G37*
%TD.AperFunction*%
%TO.P,R9,1*%
%TO.N,Net-(R9-Pad1)*%
%TA.AperFunction,SMDPad,CuDef*%
G36*
G01*
X107875000Y-99075000D02*
X107875000Y-98525000D01*
G75*
G02*
X108075000Y-98325000I200000J0D01*
G01*
X108475000Y-98325000D01*
G75*
G02*
X108675000Y-98525000I0J-200000D01*
G01*
X108675000Y-99075000D01*
G75*
G02*
X108475000Y-99275000I-200000J0D01*
G01*
X108075000Y-99275000D01*
G75*
G02*
X107875000Y-99075000I0J200000D01*
G01*
G37*
%TD.AperFunction*%
%TD*%
%TO.P,R8,2*%
%TO.N,Net-(D2-Pad2)*%
%TA.AperFunction,SMDPad,CuDef*%
G36*
G01*
X109525000Y-100575000D02*
X109525000Y-100025000D01*
G75*
G02*
X109725000Y-99825000I200000J0D01*
G01*
X110125000Y-99825000D01*
G75*
G02*
X110325000Y-100025000I0J-200000D01*
G01*
X110325000Y-100575000D01*
G75*
G02*
X110125000Y-100775000I-200000J0D01*
G01*
X109725000Y-100775000D01*
G75*
G02*
X109525000Y-100575000I0J200000D01*
G01*
G37*
%TD.AperFunction*%
%TO.P,R8,1*%
%TO.N,Net-(R8-Pad1)*%
%TA.AperFunction,SMDPad,CuDef*%
G36*
G01*
X107875000Y-100575000D02*
X107875000Y-100025000D01*
G75*
G02*
X108075000Y-99825000I200000J0D01*
G01*
X108475000Y-99825000D01*
G75*
G02*
X108675000Y-100025000I0J-200000D01*
G01*
X108675000Y-100575000D01*
G75*
G02*
X108475000Y-100775000I-200000J0D01*
G01*
X108075000Y-100775000D01*
G75*
G02*
X107875000Y-100575000I0J200000D01*
G01*
G37*
%TD.AperFunction*%
%TD*%
%TO.P,R7,2*%
%TO.N,Net-(D1-Pad2)*%
%TA.AperFunction,SMDPad,CuDef*%
G36*
G01*
X109525000Y-102075000D02*
X109525000Y-101525000D01*
G75*
G02*
X109725000Y-101325000I200000J0D01*
G01*
X110125000Y-101325000D01*
G75*
G02*
X110325000Y-101525000I0J-200000D01*
G01*
X110325000Y-102075000D01*
G75*
G02*
X110125000Y-102275000I-200000J0D01*
G01*
X109725000Y-102275000D01*
G75*
G02*
X109525000Y-102075000I0J200000D01*
G01*
G37*
%TD.AperFunction*%
%TO.P,R7,1*%
%TO.N,Net-(R7-Pad1)*%
%TA.AperFunction,SMDPad,CuDef*%
G36*
G01*
X107875000Y-102075000D02*
X107875000Y-101525000D01*
G75*
G02*
X108075000Y-101325000I200000J0D01*
G01*
X108475000Y-101325000D01*
G75*
G02*
X108675000Y-101525000I0J-200000D01*
G01*
X108675000Y-102075000D01*
G75*
G02*
X108475000Y-102275000I-200000J0D01*
G01*
X108075000Y-102275000D01*
G75*
G02*
X107875000Y-102075000I0J200000D01*
G01*
G37*
%TD.AperFunction*%
%TD*%
%TO.P,R6,2*%
%TO.N,GND*%
%TA.AperFunction,SMDPad,CuDef*%
G36*
G01*
X109525000Y-97575000D02*
X109525000Y-97025000D01*
G75*
G02*
X109725000Y-96825000I200000J0D01*
G01*
X110125000Y-96825000D01*
G75*
G02*
X110325000Y-97025000I0J-200000D01*
G01*
X110325000Y-97575000D01*
G75*
G02*
X110125000Y-97775000I-200000J0D01*
G01*
X109725000Y-97775000D01*
G75*
G02*
X109525000Y-97575000I0J200000D01*
G01*
G37*
%TD.AperFunction*%
%TO.P,R6,1*%
%TO.N,Net-(R5-Pad1)*%
%TA.AperFunction,SMDPad,CuDef*%
G36*
G01*
X107875000Y-97575000D02*
X107875000Y-97025000D01*
G75*
G02*
X108075000Y-96825000I200000J0D01*
G01*
X108475000Y-96825000D01*
G75*
G02*
X108675000Y-97025000I0J-200000D01*
G01*
X108675000Y-97575000D01*
G75*
G02*
X108475000Y-97775000I-200000J0D01*
G01*
X108075000Y-97775000D01*
G75*
G02*
X107875000Y-97575000I0J200000D01*
G01*
G37*
%TD.AperFunction*%
%TD*%
%TO.P,R5,2*%
%TO.N,+5V*%
%TA.AperFunction,SMDPad,CuDef*%
G36*
G01*
X109525000Y-96075000D02*
X109525000Y-95525000D01*
G75*
G02*
X109725000Y-95325000I200000J0D01*
G01*
X110125000Y-95325000D01*
G75*
G02*
X110325000Y-95525000I0J-200000D01*
G01*
X110325000Y-96075000D01*
G75*
G02*
X110125000Y-96275000I-200000J0D01*
G01*
X109725000Y-96275000D01*
G75*
G02*
X109525000Y-96075000I0J200000D01*
G01*
G37*
%TD.AperFunction*%
%TO.P,R5,1*%
%TO.N,Net-(R5-Pad1)*%
%TA.AperFunction,SMDPad,CuDef*%
G36*
G01*
X107875000Y-96075000D02*
X107875000Y-95525000D01*
G75*
G02*
X108075000Y-95325000I200000J0D01*
G01*
X108475000Y-95325000D01*
G75*
G02*
X108675000Y-95525000I0J-200000D01*
G01*
X108675000Y-96075000D01*
G75*
G02*
X108475000Y-96275000I-200000J0D01*
G01*
X108075000Y-96275000D01*
G75*
G02*
X107875000Y-96075000I0J200000D01*
G01*
G37*
%TD.AperFunction*%
%TD*%
%TO.P,R4,2*%
%TO.N,Net-(C10-Pad1)*%
%TA.AperFunction,SMDPad,CuDef*%
G36*
G01*
X96025000Y-92625000D02*
X96025000Y-92075000D01*
G75*
G02*
X96225000Y-91875000I200000J0D01*
G01*
X96625000Y-91875000D01*
G75*
G02*
X96825000Y-92075000I0J-200000D01*
G01*
X96825000Y-92625000D01*
G75*
G02*
X96625000Y-92825000I-200000J0D01*
G01*
X96225000Y-92825000D01*
G75*
G02*
X96025000Y-92625000I0J200000D01*
G01*
G37*
%TD.AperFunction*%
%TO.P,R4,1*%
%TO.N,Net-(C8-Pad1)*%
%TA.AperFunction,SMDPad,CuDef*%
G36*
G01*
X94375000Y-92625000D02*
X94375000Y-92075000D01*
G75*
G02*
X94575000Y-91875000I200000J0D01*
G01*
X94975000Y-91875000D01*
G75*
G02*
X95175000Y-92075000I0J-200000D01*
G01*
X95175000Y-92625000D01*
G75*
G02*
X94975000Y-92825000I-200000J0D01*
G01*
X94575000Y-92825000D01*
G75*
G02*
X94375000Y-92625000I0J200000D01*
G01*
G37*
%TD.AperFunction*%
%TD*%
%TO.P,R3,2*%
%TO.N,Net-(C4-Pad2)*%
%TA.AperFunction,SMDPad,CuDef*%
G36*
G01*
X94325000Y-87875000D02*
X94325000Y-87325000D01*
G75*
G02*
X94525000Y-87125000I200000J0D01*
G01*
X94925000Y-87125000D01*
G75*
G02*
X95125000Y-87325000I0J-200000D01*
G01*
X95125000Y-87875000D01*
G75*
G02*
X94925000Y-88075000I-200000J0D01*
G01*
X94525000Y-88075000D01*
G75*
G02*
X94325000Y-87875000I0J200000D01*
G01*
G37*
%TD.AperFunction*%
%TO.P,R3,1*%
%TO.N,Net-(C8-Pad2)*%
%TA.AperFunction,SMDPad,CuDef*%
G36*
G01*
X92675000Y-87875000D02*
X92675000Y-87325000D01*
G75*
G02*
X92875000Y-87125000I200000J0D01*
G01*
X93275000Y-87125000D01*
G75*
G02*
X93475000Y-87325000I0J-200000D01*
G01*
X93475000Y-87875000D01*
G75*
G02*
X93275000Y-88075000I-200000J0D01*
G01*
X92875000Y-88075000D01*
G75*
G02*
X92675000Y-87875000I0J200000D01*
G01*
G37*
%TD.AperFunction*%
%TD*%
%TO.P,R2,2*%
%TO.N,Net-(A1-Pad3)*%
%TA.AperFunction,SMDPad,CuDef*%
G36*
G01*
X96475000Y-83400000D02*
X95925000Y-83400000D01*
G75*
G02*
X95725000Y-83200000I0J200000D01*
G01*
X95725000Y-82800000D01*
G75*
G02*
X95925000Y-82600000I200000J0D01*
G01*
X96475000Y-82600000D01*
G75*
G02*
X96675000Y-82800000I0J-200000D01*
G01*
X96675000Y-83200000D01*
G75*
G02*
X96475000Y-83400000I-200000J0D01*
G01*
G37*
%TD.AperFunction*%
%TO.P,R2,1*%
%TO.N,Net-(C2-Pad2)*%
%TA.AperFunction,SMDPad,CuDef*%
G36*
G01*
X96475000Y-85050000D02*
X95925000Y-85050000D01*
G75*
G02*
X95725000Y-84850000I0J200000D01*
G01*
X95725000Y-84450000D01*
G75*
G02*
X95925000Y-84250000I200000J0D01*
G01*
X96475000Y-84250000D01*
G75*
G02*
X96675000Y-84450000I0J-200000D01*
G01*
X96675000Y-84850000D01*
G75*
G02*
X96475000Y-85050000I-200000J0D01*
G01*
G37*
%TD.AperFunction*%
%TD*%
%TO.P,R1,2*%
%TO.N,Net-(A1-Pad1)*%
%TA.AperFunction,SMDPad,CuDef*%
G36*
G01*
X104075000Y-83375000D02*
X103525000Y-83375000D01*
G75*
G02*
X103325000Y-83175000I0J200000D01*
G01*
X103325000Y-82775000D01*
G75*
G02*
X103525000Y-82575000I200000J0D01*
G01*
X104075000Y-82575000D01*
G75*
G02*
X104275000Y-82775000I0J-200000D01*
G01*
X104275000Y-83175000D01*
G75*
G02*
X104075000Y-83375000I-200000J0D01*
G01*
G37*
%TD.AperFunction*%
%TO.P,R1,1*%
%TO.N,Net-(C1-Pad1)*%
%TA.AperFunction,SMDPad,CuDef*%
G36*
G01*
X104075000Y-85025000D02*
X103525000Y-85025000D01*
G75*
G02*
X103325000Y-84825000I0J200000D01*
G01*
X103325000Y-84425000D01*
G75*
G02*
X103525000Y-84225000I200000J0D01*
G01*
X104075000Y-84225000D01*
G75*
G02*
X104275000Y-84425000I0J-200000D01*
G01*
X104275000Y-84825000D01*
G75*
G02*
X104075000Y-85025000I-200000J0D01*
G01*
G37*
%TD.AperFunction*%
%TD*%
%TO.P,C17,2*%
%TO.N,GND*%
%TA.AperFunction,SMDPad,CuDef*%
G36*
G01*
X98450000Y-105725000D02*
X98950000Y-105725000D01*
G75*
G02*
X99175000Y-105950000I0J-225000D01*
G01*
X99175000Y-106400000D01*
G75*
G02*
X98950000Y-106625000I-225000J0D01*
G01*
X98450000Y-106625000D01*
G75*
G02*
X98225000Y-106400000I0J225000D01*
G01*
X98225000Y-105950000D01*
G75*
G02*
X98450000Y-105725000I225000J0D01*
G01*
G37*
%TD.AperFunction*%
%TO.P,C17,1*%
%TO.N,+3V3*%
%TA.AperFunction,SMDPad,CuDef*%
G36*
G01*
X98450000Y-104175000D02*
X98950000Y-104175000D01*
G75*
G02*
X99175000Y-104400000I0J-225000D01*
G01*
X99175000Y-104850000D01*
G75*
G02*
X98950000Y-105075000I-225000J0D01*
G01*
X98450000Y-105075000D01*
G75*
G02*
X98225000Y-104850000I0J225000D01*
G01*
X98225000Y-104400000D01*
G75*
G02*
X98450000Y-104175000I225000J0D01*
G01*
G37*
%TD.AperFunction*%
%TD*%
%TO.P,C16,2*%
%TO.N,GND*%
%TA.AperFunction,SMDPad,CuDef*%
G36*
G01*
X93675000Y-102250000D02*
X93675000Y-102750000D01*
G75*
G02*
X93450000Y-102975000I-225000J0D01*
G01*
X93000000Y-102975000D01*
G75*
G02*
X92775000Y-102750000I0J225000D01*
G01*
X92775000Y-102250000D01*
G75*
G02*
X93000000Y-102025000I225000J0D01*
G01*
X93450000Y-102025000D01*
G75*
G02*
X93675000Y-102250000I0J-225000D01*
G01*
G37*
%TD.AperFunction*%
%TO.P,C16,1*%
%TO.N,Net-(C16-Pad1)*%
%TA.AperFunction,SMDPad,CuDef*%
G36*
G01*
X95225000Y-102250000D02*
X95225000Y-102750000D01*
G75*
G02*
X95000000Y-102975000I-225000J0D01*
G01*
X94550000Y-102975000D01*
G75*
G02*
X94325000Y-102750000I0J225000D01*
G01*
X94325000Y-102250000D01*
G75*
G02*
X94550000Y-102025000I225000J0D01*
G01*
X95000000Y-102025000D01*
G75*
G02*
X95225000Y-102250000I0J-225000D01*
G01*
G37*
%TD.AperFunction*%
%TD*%
%TO.P,C15,2*%
%TO.N,GND*%
%TA.AperFunction,SMDPad,CuDef*%
G36*
G01*
X94325000Y-97750000D02*
X94325000Y-97250000D01*
G75*
G02*
X94550000Y-97025000I225000J0D01*
G01*
X95000000Y-97025000D01*
G75*
G02*
X95225000Y-97250000I0J-225000D01*
G01*
X95225000Y-97750000D01*
G75*
G02*
X95000000Y-97975000I-225000J0D01*
G01*
X94550000Y-97975000D01*
G75*
G02*
X94325000Y-97750000I0J225000D01*
G01*
G37*
%TD.AperFunction*%
%TO.P,C15,1*%
%TO.N,Net-(C15-Pad1)*%
%TA.AperFunction,SMDPad,CuDef*%
G36*
G01*
X92775000Y-97750000D02*
X92775000Y-97250000D01*
G75*
G02*
X93000000Y-97025000I225000J0D01*
G01*
X93450000Y-97025000D01*
G75*
G02*
X93675000Y-97250000I0J-225000D01*
G01*
X93675000Y-97750000D01*
G75*
G02*
X93450000Y-97975000I-225000J0D01*
G01*
X93000000Y-97975000D01*
G75*
G02*
X92775000Y-97750000I0J225000D01*
G01*
G37*
%TD.AperFunction*%
%TD*%
%TO.P,C14,2*%
%TO.N,GND*%
%TA.AperFunction,SMDPad,CuDef*%
G36*
G01*
X105825000Y-97550000D02*
X105825000Y-97050000D01*
G75*
G02*
X106050000Y-96825000I225000J0D01*
G01*
X106500000Y-96825000D01*
G75*
G02*
X106725000Y-97050000I0J-225000D01*
G01*
X106725000Y-97550000D01*
G75*
G02*
X106500000Y-97775000I-225000J0D01*
G01*
X106050000Y-97775000D01*
G75*
G02*
X105825000Y-97550000I0J225000D01*
G01*
G37*
%TD.AperFunction*%
%TO.P,C14,1*%
%TO.N,+5V*%
%TA.AperFunction,SMDPad,CuDef*%
G36*
G01*
X104275000Y-97550000D02*
X104275000Y-97050000D01*
G75*
G02*
X104500000Y-96825000I225000J0D01*
G01*
X104950000Y-96825000D01*
G75*
G02*
X105175000Y-97050000I0J-225000D01*
G01*
X105175000Y-97550000D01*
G75*
G02*
X104950000Y-97775000I-225000J0D01*
G01*
X104500000Y-97775000D01*
G75*
G02*
X104275000Y-97550000I0J225000D01*
G01*
G37*
%TD.AperFunction*%
%TD*%
%TO.P,C13,2*%
%TO.N,GND*%
%TA.AperFunction,SMDPad,CuDef*%
G36*
G01*
X106000000Y-99925000D02*
X106500000Y-99925000D01*
G75*
G02*
X106725000Y-100150000I0J-225000D01*
G01*
X106725000Y-100600000D01*
G75*
G02*
X106500000Y-100825000I-225000J0D01*
G01*
X106000000Y-100825000D01*
G75*
G02*
X105775000Y-100600000I0J225000D01*
G01*
X105775000Y-100150000D01*
G75*
G02*
X106000000Y-99925000I225000J0D01*
G01*
G37*
%TD.AperFunction*%
%TO.P,C13,1*%
%TO.N,+3V3*%
%TA.AperFunction,SMDPad,CuDef*%
G36*
G01*
X106000000Y-98375000D02*
X106500000Y-98375000D01*
G75*
G02*
X106725000Y-98600000I0J-225000D01*
G01*
X106725000Y-99050000D01*
G75*
G02*
X106500000Y-99275000I-225000J0D01*
G01*
X106000000Y-99275000D01*
G75*
G02*
X105775000Y-99050000I0J225000D01*
G01*
X105775000Y-98600000D01*
G75*
G02*
X106000000Y-98375000I225000J0D01*
G01*
G37*
%TD.AperFunction*%
%TD*%
%TO.P,C12,2*%
%TO.N,GND*%
%TA.AperFunction,SMDPad,CuDef*%
G36*
G01*
X104500000Y-99925000D02*
X105000000Y-99925000D01*
G75*
G02*
X105225000Y-100150000I0J-225000D01*
G01*
X105225000Y-100600000D01*
G75*
G02*
X105000000Y-100825000I-225000J0D01*
G01*
X104500000Y-100825000D01*
G75*
G02*
X104275000Y-100600000I0J225000D01*
G01*
X104275000Y-100150000D01*
G75*
G02*
X104500000Y-99925000I225000J0D01*
G01*
G37*
%TD.AperFunction*%
%TO.P,C12,1*%
%TO.N,+3V3*%
%TA.AperFunction,SMDPad,CuDef*%
G36*
G01*
X104500000Y-98375000D02*
X105000000Y-98375000D01*
G75*
G02*
X105225000Y-98600000I0J-225000D01*
G01*
X105225000Y-99050000D01*
G75*
G02*
X105000000Y-99275000I-225000J0D01*
G01*
X104500000Y-99275000D01*
G75*
G02*
X104275000Y-99050000I0J225000D01*
G01*
X104275000Y-98600000D01*
G75*
G02*
X104500000Y-98375000I225000J0D01*
G01*
G37*
%TD.AperFunction*%
%TD*%
%TO.P,C11,2*%
%TO.N,GND*%
%TA.AperFunction,SMDPad,CuDef*%
G36*
G01*
X97375000Y-95150000D02*
X97375000Y-95650000D01*
G75*
G02*
X97150000Y-95875000I-225000J0D01*
G01*
X96700000Y-95875000D01*
G75*
G02*
X96475000Y-95650000I0J225000D01*
G01*
X96475000Y-95150000D01*
G75*
G02*
X96700000Y-94925000I225000J0D01*
G01*
X97150000Y-94925000D01*
G75*
G02*
X97375000Y-95150000I0J-225000D01*
G01*
G37*
%TD.AperFunction*%
%TO.P,C11,1*%
%TO.N,+3V3*%
%TA.AperFunction,SMDPad,CuDef*%
G36*
G01*
X98925000Y-95150000D02*
X98925000Y-95650000D01*
G75*
G02*
X98700000Y-95875000I-225000J0D01*
G01*
X98250000Y-95875000D01*
G75*
G02*
X98025000Y-95650000I0J225000D01*
G01*
X98025000Y-95150000D01*
G75*
G02*
X98250000Y-94925000I225000J0D01*
G01*
X98700000Y-94925000D01*
G75*
G02*
X98925000Y-95150000I0J-225000D01*
G01*
G37*
%TD.AperFunction*%
%TD*%
%TO.P,C10,2*%
%TO.N,GND*%
%TA.AperFunction,SMDPad,CuDef*%
G36*
G01*
X95275000Y-93600000D02*
X95275000Y-94100000D01*
G75*
G02*
X95050000Y-94325000I-225000J0D01*
G01*
X94600000Y-94325000D01*
G75*
G02*
X94375000Y-94100000I0J225000D01*
G01*
X94375000Y-93600000D01*
G75*
G02*
X94600000Y-93375000I225000J0D01*
G01*
X95050000Y-93375000D01*
G75*
G02*
X95275000Y-93600000I0J-225000D01*
G01*
G37*
%TD.AperFunction*%
%TO.P,C10,1*%
%TO.N,Net-(C10-Pad1)*%
%TA.AperFunction,SMDPad,CuDef*%
G36*
G01*
X96825000Y-93600000D02*
X96825000Y-94100000D01*
G75*
G02*
X96600000Y-94325000I-225000J0D01*
G01*
X96150000Y-94325000D01*
G75*
G02*
X95925000Y-94100000I0J225000D01*
G01*
X95925000Y-93600000D01*
G75*
G02*
X96150000Y-93375000I225000J0D01*
G01*
X96600000Y-93375000D01*
G75*
G02*
X96825000Y-93600000I0J-225000D01*
G01*
G37*
%TD.AperFunction*%
%TD*%
%TO.P,C9,2*%
%TO.N,GND*%
%TA.AperFunction,SMDPad,CuDef*%
G36*
G01*
X101525000Y-95400000D02*
X101525000Y-94900000D01*
G75*
G02*
X101750000Y-94675000I225000J0D01*
G01*
X102200000Y-94675000D01*
G75*
G02*
X102425000Y-94900000I0J-225000D01*
G01*
X102425000Y-95400000D01*
G75*
G02*
X102200000Y-95625000I-225000J0D01*
G01*
X101750000Y-95625000D01*
G75*
G02*
X101525000Y-95400000I0J225000D01*
G01*
G37*
%TD.AperFunction*%
%TO.P,C9,1*%
%TO.N,+3V3*%
%TA.AperFunction,SMDPad,CuDef*%
G36*
G01*
X99975000Y-95400000D02*
X99975000Y-94900000D01*
G75*
G02*
X100200000Y-94675000I225000J0D01*
G01*
X100650000Y-94675000D01*
G75*
G02*
X100875000Y-94900000I0J-225000D01*
G01*
X100875000Y-95400000D01*
G75*
G02*
X100650000Y-95625000I-225000J0D01*
G01*
X100200000Y-95625000D01*
G75*
G02*
X99975000Y-95400000I0J225000D01*
G01*
G37*
%TD.AperFunction*%
%TD*%
%TO.P,C8,2*%
%TO.N,Net-(C8-Pad2)*%
%TA.AperFunction,SMDPad,CuDef*%
G36*
G01*
X93350000Y-89575000D02*
X92850000Y-89575000D01*
G75*
G02*
X92625000Y-89350000I0J225000D01*
G01*
X92625000Y-88900000D01*
G75*
G02*
X92850000Y-88675000I225000J0D01*
G01*
X93350000Y-88675000D01*
G75*
G02*
X93575000Y-88900000I0J-225000D01*
G01*
X93575000Y-89350000D01*
G75*
G02*
X93350000Y-89575000I-225000J0D01*
G01*
G37*
%TD.AperFunction*%
%TO.P,C8,1*%
%TO.N,Net-(C8-Pad1)*%
%TA.AperFunction,SMDPad,CuDef*%
G36*
G01*
X93350000Y-91125000D02*
X92850000Y-91125000D01*
G75*
G02*
X92625000Y-90900000I0J225000D01*
G01*
X92625000Y-90450000D01*
G75*
G02*
X92850000Y-90225000I225000J0D01*
G01*
X93350000Y-90225000D01*
G75*
G02*
X93575000Y-90450000I0J-225000D01*
G01*
X93575000Y-90900000D01*
G75*
G02*
X93350000Y-91125000I-225000J0D01*
G01*
G37*
%TD.AperFunction*%
%TD*%
%TO.P,C7,2*%
%TO.N,GND*%
%TA.AperFunction,SMDPad,CuDef*%
G36*
G01*
X101525000Y-93900000D02*
X101525000Y-93400000D01*
G75*
G02*
X101750000Y-93175000I225000J0D01*
G01*
X102200000Y-93175000D01*
G75*
G02*
X102425000Y-93400000I0J-225000D01*
G01*
X102425000Y-93900000D01*
G75*
G02*
X102200000Y-94125000I-225000J0D01*
G01*
X101750000Y-94125000D01*
G75*
G02*
X101525000Y-93900000I0J225000D01*
G01*
G37*
%TD.AperFunction*%
%TO.P,C7,1*%
%TO.N,+3V3*%
%TA.AperFunction,SMDPad,CuDef*%
G36*
G01*
X99975000Y-93900000D02*
X99975000Y-93400000D01*
G75*
G02*
X100200000Y-93175000I225000J0D01*
G01*
X100650000Y-93175000D01*
G75*
G02*
X100875000Y-93400000I0J-225000D01*
G01*
X100875000Y-93900000D01*
G75*
G02*
X100650000Y-94125000I-225000J0D01*
G01*
X100200000Y-94125000D01*
G75*
G02*
X99975000Y-93900000I0J225000D01*
G01*
G37*
%TD.AperFunction*%
%TD*%
%TO.P,C6,2*%
%TO.N,Net-(C4-Pad2)*%
%TA.AperFunction,SMDPad,CuDef*%
G36*
G01*
X98175000Y-87250000D02*
X98175000Y-87750000D01*
G75*
G02*
X97950000Y-87975000I-225000J0D01*
G01*
X97500000Y-87975000D01*
G75*
G02*
X97275000Y-87750000I0J225000D01*
G01*
X97275000Y-87250000D01*
G75*
G02*
X97500000Y-87025000I225000J0D01*
G01*
X97950000Y-87025000D01*
G75*
G02*
X98175000Y-87250000I0J-225000D01*
G01*
G37*
%TD.AperFunction*%
%TO.P,C6,1*%
%TO.N,GND*%
%TA.AperFunction,SMDPad,CuDef*%
G36*
G01*
X99725000Y-87250000D02*
X99725000Y-87750000D01*
G75*
G02*
X99500000Y-87975000I-225000J0D01*
G01*
X99050000Y-87975000D01*
G75*
G02*
X98825000Y-87750000I0J225000D01*
G01*
X98825000Y-87250000D01*
G75*
G02*
X99050000Y-87025000I225000J0D01*
G01*
X99500000Y-87025000D01*
G75*
G02*
X99725000Y-87250000I0J-225000D01*
G01*
G37*
%TD.AperFunction*%
%TD*%
%TO.P,C4,2*%
%TO.N,Net-(C4-Pad2)*%
%TA.AperFunction,SMDPad,CuDef*%
G36*
G01*
X95950000Y-87125000D02*
X96450000Y-87125000D01*
G75*
G02*
X96675000Y-87350000I0J-225000D01*
G01*
X96675000Y-87800000D01*
G75*
G02*
X96450000Y-88025000I-225000J0D01*
G01*
X95950000Y-88025000D01*
G75*
G02*
X95725000Y-87800000I0J225000D01*
G01*
X95725000Y-87350000D01*
G75*
G02*
X95950000Y-87125000I225000J0D01*
G01*
G37*
%TD.AperFunction*%
%TO.P,C4,1*%
%TO.N,Net-(C2-Pad2)*%
%TA.AperFunction,SMDPad,CuDef*%
G36*
G01*
X95950000Y-85575000D02*
X96450000Y-85575000D01*
G75*
G02*
X96675000Y-85800000I0J-225000D01*
G01*
X96675000Y-86250000D01*
G75*
G02*
X96450000Y-86475000I-225000J0D01*
G01*
X95950000Y-86475000D01*
G75*
G02*
X95725000Y-86250000I0J225000D01*
G01*
X95725000Y-85800000D01*
G75*
G02*
X95950000Y-85575000I225000J0D01*
G01*
G37*
%TD.AperFunction*%
%TD*%
%TO.P,C3,2*%
%TO.N,Net-(C1-Pad1)*%
%TA.AperFunction,SMDPad,CuDef*%
G36*
G01*
X104050000Y-86475000D02*
X103550000Y-86475000D01*
G75*
G02*
X103325000Y-86250000I0J225000D01*
G01*
X103325000Y-85800000D01*
G75*
G02*
X103550000Y-85575000I225000J0D01*
G01*
X104050000Y-85575000D01*
G75*
G02*
X104275000Y-85800000I0J-225000D01*
G01*
X104275000Y-86250000D01*
G75*
G02*
X104050000Y-86475000I-225000J0D01*
G01*
G37*
%TD.AperFunction*%
%TO.P,C3,1*%
%TO.N,Net-(C3-Pad1)*%
%TA.AperFunction,SMDPad,CuDef*%
G36*
G01*
X104050000Y-88025000D02*
X103550000Y-88025000D01*
G75*
G02*
X103325000Y-87800000I0J225000D01*
G01*
X103325000Y-87350000D01*
G75*
G02*
X103550000Y-87125000I225000J0D01*
G01*
X104050000Y-87125000D01*
G75*
G02*
X104275000Y-87350000I0J-225000D01*
G01*
X104275000Y-87800000D01*
G75*
G02*
X104050000Y-88025000I-225000J0D01*
G01*
G37*
%TD.AperFunction*%
%TD*%
%TO.P,C1,2*%
%TO.N,GND*%
%TA.AperFunction,SMDPad,CuDef*%
G36*
G01*
X101175000Y-85050000D02*
X101175000Y-85550000D01*
G75*
G02*
X100950000Y-85775000I-225000J0D01*
G01*
X100500000Y-85775000D01*
G75*
G02*
X100275000Y-85550000I0J225000D01*
G01*
X100275000Y-85050000D01*
G75*
G02*
X100500000Y-84825000I225000J0D01*
G01*
X100950000Y-84825000D01*
G75*
G02*
X101175000Y-85050000I0J-225000D01*
G01*
G37*
%TD.AperFunction*%
%TO.P,C1,1*%
%TO.N,Net-(C1-Pad1)*%
%TA.AperFunction,SMDPad,CuDef*%
G36*
G01*
X102725000Y-85050000D02*
X102725000Y-85550000D01*
G75*
G02*
X102500000Y-85775000I-225000J0D01*
G01*
X102050000Y-85775000D01*
G75*
G02*
X101825000Y-85550000I0J225000D01*
G01*
X101825000Y-85050000D01*
G75*
G02*
X102050000Y-84825000I225000J0D01*
G01*
X102500000Y-84825000D01*
G75*
G02*
X102725000Y-85050000I0J-225000D01*
G01*
G37*
%TD.AperFunction*%
%TD*%
D14*
%TO.P,A1,~*%
%TO.N,N/C*%
X99000000Y-120000000D03*
X101000000Y-117000000D03*
%TO.P,A1,3*%
%TO.N,Net-(A1-Pad3)*%
X97000000Y-83000000D03*
%TO.P,A1,1*%
%TO.N,Net-(A1-Pad1)*%
X103000000Y-83000000D03*
%TO.P,A1,2*%
%TO.N,GND*%
X100000000Y-81000000D03*
%TD*%
D15*
%TO.P,SW1,2*%
%TO.N,Net-(R10-Pad2)*%
X85750000Y-96025000D03*
%TO.P,SW1,1*%
%TO.N,GND*%
X90250000Y-96025000D03*
X90250000Y-103975000D03*
%TO.P,SW1,2*%
%TO.N,Net-(R10-Pad2)*%
X85750000Y-103975000D03*
D16*
%TO.P,SW1,1*%
%TO.N,GND*%
X90250000Y-103250000D03*
%TO.P,SW1,2*%
%TO.N,Net-(R10-Pad2)*%
X85750000Y-103250000D03*
%TO.P,SW1,1*%
%TO.N,GND*%
X90250000Y-96750000D03*
%TO.P,SW1,2*%
%TO.N,Net-(R10-Pad2)*%
X85750000Y-96750000D03*
%TD*%
D17*
%TO.P,J3,4*%
%TO.N,Net-(J2-Pad4)*%
X103750000Y-108900000D03*
%TO.P,J3,3*%
%TO.N,Net-(J2-Pad3)*%
X101250000Y-108900000D03*
%TO.P,J3,2*%
%TO.N,+5V*%
X98750000Y-108900000D03*
%TO.P,J3,1*%
%TO.N,GND*%
%TA.AperFunction,ComponentPad*%
G36*
G01*
X95400000Y-109575000D02*
X95400000Y-108225000D01*
G75*
G02*
X95650000Y-107975000I250000J0D01*
G01*
X96850000Y-107975000D01*
G75*
G02*
X97100000Y-108225000I0J-250000D01*
G01*
X97100000Y-109575000D01*
G75*
G02*
X96850000Y-109825000I-250000J0D01*
G01*
X95650000Y-109825000D01*
G75*
G02*
X95400000Y-109575000I0J250000D01*
G01*
G37*
%TD.AperFunction*%
%TD*%
%TA.AperFunction,SMDPad,CuDef*%
D18*
%TO.P,JP1,1*%
%TO.N,GND*%
G36*
X94050000Y-106150000D02*
G01*
X93500000Y-106150000D01*
X93500000Y-106149398D01*
X93475466Y-106149398D01*
X93426635Y-106144588D01*
X93378510Y-106135016D01*
X93331555Y-106120772D01*
X93286222Y-106101995D01*
X93242949Y-106078864D01*
X93202150Y-106051604D01*
X93164221Y-106020476D01*
X93129524Y-105985779D01*
X93098396Y-105947850D01*
X93071136Y-105907051D01*
X93048005Y-105863778D01*
X93029228Y-105818445D01*
X93014984Y-105771490D01*
X93005412Y-105723365D01*
X93000602Y-105674534D01*
X93000602Y-105650000D01*
X93000000Y-105650000D01*
X93000000Y-105150000D01*
X93000602Y-105150000D01*
X93000602Y-105125466D01*
X93005412Y-105076635D01*
X93014984Y-105028510D01*
X93029228Y-104981555D01*
X93048005Y-104936222D01*
X93071136Y-104892949D01*
X93098396Y-104852150D01*
X93129524Y-104814221D01*
X93164221Y-104779524D01*
X93202150Y-104748396D01*
X93242949Y-104721136D01*
X93286222Y-104698005D01*
X93331555Y-104679228D01*
X93378510Y-104664984D01*
X93426635Y-104655412D01*
X93475466Y-104650602D01*
X93500000Y-104650602D01*
X93500000Y-104650000D01*
X94050000Y-104650000D01*
X94050000Y-106150000D01*
G37*
%TD.AperFunction*%
D19*
%TO.P,JP1,2*%
%TO.N,Net-(JP1-Pad2)*%
X94800000Y-105400000D03*
%TA.AperFunction,SMDPad,CuDef*%
D18*
%TO.P,JP1,3*%
%TO.N,+3V3*%
G36*
X96100000Y-104650602D02*
G01*
X96124534Y-104650602D01*
X96173365Y-104655412D01*
X96221490Y-104664984D01*
X96268445Y-104679228D01*
X96313778Y-104698005D01*
X96357051Y-104721136D01*
X96397850Y-104748396D01*
X96435779Y-104779524D01*
X96470476Y-104814221D01*
X96501604Y-104852150D01*
X96528864Y-104892949D01*
X96551995Y-104936222D01*
X96570772Y-104981555D01*
X96585016Y-105028510D01*
X96594588Y-105076635D01*
X96599398Y-105125466D01*
X96599398Y-105150000D01*
X96600000Y-105150000D01*
X96600000Y-105650000D01*
X96599398Y-105650000D01*
X96599398Y-105674534D01*
X96594588Y-105723365D01*
X96585016Y-105771490D01*
X96570772Y-105818445D01*
X96551995Y-105863778D01*
X96528864Y-105907051D01*
X96501604Y-105947850D01*
X96470476Y-105985779D01*
X96435779Y-106020476D01*
X96397850Y-106051604D01*
X96357051Y-106078864D01*
X96313778Y-106101995D01*
X96268445Y-106120772D01*
X96221490Y-106135016D01*
X96173365Y-106144588D01*
X96124534Y-106149398D01*
X96100000Y-106149398D01*
X96100000Y-106150000D01*
X95550000Y-106150000D01*
X95550000Y-104650000D01*
X96100000Y-104650000D01*
X96100000Y-104650602D01*
G37*
%TD.AperFunction*%
%TD*%
D20*
%TO.P,TP2,1*%
%TO.N,Net-(L2-Pad2)*%
X98800000Y-92000000D03*
%TD*%
%TO.P,TP1,1*%
%TO.N,Net-(L1-Pad1)*%
X101200000Y-92000000D03*
%TD*%
D21*
%TO.P,U1,41*%
%TO.N,GND*%
X100000000Y-100000000D03*
X99000000Y-101000000D03*
X99000000Y-99000000D03*
X101000000Y-99000000D03*
X101000000Y-101000000D03*
D22*
%TO.P,U1,~*%
%TO.N,N/C*%
X103000000Y-97000000D03*
D23*
X103000000Y-97000000D03*
X103000000Y-103000000D03*
X97000000Y-103000000D03*
X97000000Y-97000000D03*
D24*
%TO.P,U1,41*%
%TO.N,GND*%
X100000000Y-100000000D03*
%TO.P,U1,40*%
%TO.N,+5V*%
%TA.AperFunction,SMDPad,CuDef*%
G36*
G01*
X102587500Y-97625000D02*
X103462500Y-97625000D01*
G75*
G02*
X103525000Y-97687500I0J-62500D01*
G01*
X103525000Y-97812500D01*
G75*
G02*
X103462500Y-97875000I-62500J0D01*
G01*
X102587500Y-97875000D01*
G75*
G02*
X102525000Y-97812500I0J62500D01*
G01*
X102525000Y-97687500D01*
G75*
G02*
X102587500Y-97625000I62500J0D01*
G01*
G37*
%TD.AperFunction*%
%TO.P,U1,39*%
%TO.N,+3V3*%
%TA.AperFunction,SMDPad,CuDef*%
G36*
G01*
X102587500Y-98125000D02*
X103462500Y-98125000D01*
G75*
G02*
X103525000Y-98187500I0J-62500D01*
G01*
X103525000Y-98312500D01*
G75*
G02*
X103462500Y-98375000I-62500J0D01*
G01*
X102587500Y-98375000D01*
G75*
G02*
X102525000Y-98312500I0J62500D01*
G01*
X102525000Y-98187500D01*
G75*
G02*
X102587500Y-98125000I62500J0D01*
G01*
G37*
%TD.AperFunction*%
%TO.P,U1,38*%
%TO.N,Net-(R5-Pad1)*%
%TA.AperFunction,SMDPad,CuDef*%
G36*
G01*
X102587500Y-98625000D02*
X103462500Y-98625000D01*
G75*
G02*
X103525000Y-98687500I0J-62500D01*
G01*
X103525000Y-98812500D01*
G75*
G02*
X103462500Y-98875000I-62500J0D01*
G01*
X102587500Y-98875000D01*
G75*
G02*
X102525000Y-98812500I0J62500D01*
G01*
X102525000Y-98687500D01*
G75*
G02*
X102587500Y-98625000I62500J0D01*
G01*
G37*
%TD.AperFunction*%
%TO.P,U1,37*%
%TO.N,Net-(U1-Pad37)*%
%TA.AperFunction,SMDPad,CuDef*%
G36*
G01*
X102587500Y-99125000D02*
X103462500Y-99125000D01*
G75*
G02*
X103525000Y-99187500I0J-62500D01*
G01*
X103525000Y-99312500D01*
G75*
G02*
X103462500Y-99375000I-62500J0D01*
G01*
X102587500Y-99375000D01*
G75*
G02*
X102525000Y-99312500I0J62500D01*
G01*
X102525000Y-99187500D01*
G75*
G02*
X102587500Y-99125000I62500J0D01*
G01*
G37*
%TD.AperFunction*%
%TO.P,U1,36*%
%TO.N,Net-(U1-Pad36)*%
%TA.AperFunction,SMDPad,CuDef*%
G36*
G01*
X102587500Y-99625000D02*
X103462500Y-99625000D01*
G75*
G02*
X103525000Y-99687500I0J-62500D01*
G01*
X103525000Y-99812500D01*
G75*
G02*
X103462500Y-99875000I-62500J0D01*
G01*
X102587500Y-99875000D01*
G75*
G02*
X102525000Y-99812500I0J62500D01*
G01*
X102525000Y-99687500D01*
G75*
G02*
X102587500Y-99625000I62500J0D01*
G01*
G37*
%TD.AperFunction*%
%TO.P,U1,35*%
%TO.N,Net-(U1-Pad35)*%
%TA.AperFunction,SMDPad,CuDef*%
G36*
G01*
X102587500Y-100125000D02*
X103462500Y-100125000D01*
G75*
G02*
X103525000Y-100187500I0J-62500D01*
G01*
X103525000Y-100312500D01*
G75*
G02*
X103462500Y-100375000I-62500J0D01*
G01*
X102587500Y-100375000D01*
G75*
G02*
X102525000Y-100312500I0J62500D01*
G01*
X102525000Y-100187500D01*
G75*
G02*
X102587500Y-100125000I62500J0D01*
G01*
G37*
%TD.AperFunction*%
%TO.P,U1,34*%
%TO.N,Net-(U1-Pad34)*%
%TA.AperFunction,SMDPad,CuDef*%
G36*
G01*
X102587500Y-100625000D02*
X103462500Y-100625000D01*
G75*
G02*
X103525000Y-100687500I0J-62500D01*
G01*
X103525000Y-100812500D01*
G75*
G02*
X103462500Y-100875000I-62500J0D01*
G01*
X102587500Y-100875000D01*
G75*
G02*
X102525000Y-100812500I0J62500D01*
G01*
X102525000Y-100687500D01*
G75*
G02*
X102587500Y-100625000I62500J0D01*
G01*
G37*
%TD.AperFunction*%
%TO.P,U1,33*%
%TO.N,Net-(R9-Pad1)*%
%TA.AperFunction,SMDPad,CuDef*%
G36*
G01*
X102587500Y-101125000D02*
X103462500Y-101125000D01*
G75*
G02*
X103525000Y-101187500I0J-62500D01*
G01*
X103525000Y-101312500D01*
G75*
G02*
X103462500Y-101375000I-62500J0D01*
G01*
X102587500Y-101375000D01*
G75*
G02*
X102525000Y-101312500I0J62500D01*
G01*
X102525000Y-101187500D01*
G75*
G02*
X102587500Y-101125000I62500J0D01*
G01*
G37*
%TD.AperFunction*%
%TO.P,U1,32*%
%TO.N,Net-(R8-Pad1)*%
%TA.AperFunction,SMDPad,CuDef*%
G36*
G01*
X102587500Y-101625000D02*
X103462500Y-101625000D01*
G75*
G02*
X103525000Y-101687500I0J-62500D01*
G01*
X103525000Y-101812500D01*
G75*
G02*
X103462500Y-101875000I-62500J0D01*
G01*
X102587500Y-101875000D01*
G75*
G02*
X102525000Y-101812500I0J62500D01*
G01*
X102525000Y-101687500D01*
G75*
G02*
X102587500Y-101625000I62500J0D01*
G01*
G37*
%TD.AperFunction*%
%TO.P,U1,31*%
%TO.N,Net-(R7-Pad1)*%
%TA.AperFunction,SMDPad,CuDef*%
G36*
G01*
X102587500Y-102125000D02*
X103462500Y-102125000D01*
G75*
G02*
X103525000Y-102187500I0J-62500D01*
G01*
X103525000Y-102312500D01*
G75*
G02*
X103462500Y-102375000I-62500J0D01*
G01*
X102587500Y-102375000D01*
G75*
G02*
X102525000Y-102312500I0J62500D01*
G01*
X102525000Y-102187500D01*
G75*
G02*
X102587500Y-102125000I62500J0D01*
G01*
G37*
%TD.AperFunction*%
%TO.P,U1,30*%
%TO.N,Net-(J1-Pad2)*%
%TA.AperFunction,SMDPad,CuDef*%
G36*
G01*
X102187500Y-102525000D02*
X102312500Y-102525000D01*
G75*
G02*
X102375000Y-102587500I0J-62500D01*
G01*
X102375000Y-103462500D01*
G75*
G02*
X102312500Y-103525000I-62500J0D01*
G01*
X102187500Y-103525000D01*
G75*
G02*
X102125000Y-103462500I0J62500D01*
G01*
X102125000Y-102587500D01*
G75*
G02*
X102187500Y-102525000I62500J0D01*
G01*
G37*
%TD.AperFunction*%
%TO.P,U1,29*%
%TO.N,Net-(U1-Pad29)*%
%TA.AperFunction,SMDPad,CuDef*%
G36*
G01*
X101687500Y-102525000D02*
X101812500Y-102525000D01*
G75*
G02*
X101875000Y-102587500I0J-62500D01*
G01*
X101875000Y-103462500D01*
G75*
G02*
X101812500Y-103525000I-62500J0D01*
G01*
X101687500Y-103525000D01*
G75*
G02*
X101625000Y-103462500I0J62500D01*
G01*
X101625000Y-102587500D01*
G75*
G02*
X101687500Y-102525000I62500J0D01*
G01*
G37*
%TD.AperFunction*%
%TO.P,U1,28*%
%TO.N,Net-(J2-Pad3)*%
%TA.AperFunction,SMDPad,CuDef*%
G36*
G01*
X101187500Y-102525000D02*
X101312500Y-102525000D01*
G75*
G02*
X101375000Y-102587500I0J-62500D01*
G01*
X101375000Y-103462500D01*
G75*
G02*
X101312500Y-103525000I-62500J0D01*
G01*
X101187500Y-103525000D01*
G75*
G02*
X101125000Y-103462500I0J62500D01*
G01*
X101125000Y-102587500D01*
G75*
G02*
X101187500Y-102525000I62500J0D01*
G01*
G37*
%TD.AperFunction*%
%TO.P,U1,27*%
%TO.N,Net-(J2-Pad4)*%
%TA.AperFunction,SMDPad,CuDef*%
G36*
G01*
X100687500Y-102525000D02*
X100812500Y-102525000D01*
G75*
G02*
X100875000Y-102587500I0J-62500D01*
G01*
X100875000Y-103462500D01*
G75*
G02*
X100812500Y-103525000I-62500J0D01*
G01*
X100687500Y-103525000D01*
G75*
G02*
X100625000Y-103462500I0J62500D01*
G01*
X100625000Y-102587500D01*
G75*
G02*
X100687500Y-102525000I62500J0D01*
G01*
G37*
%TD.AperFunction*%
%TO.P,U1,26*%
%TO.N,Net-(U1-Pad26)*%
%TA.AperFunction,SMDPad,CuDef*%
G36*
G01*
X100187500Y-102525000D02*
X100312500Y-102525000D01*
G75*
G02*
X100375000Y-102587500I0J-62500D01*
G01*
X100375000Y-103462500D01*
G75*
G02*
X100312500Y-103525000I-62500J0D01*
G01*
X100187500Y-103525000D01*
G75*
G02*
X100125000Y-103462500I0J62500D01*
G01*
X100125000Y-102587500D01*
G75*
G02*
X100187500Y-102525000I62500J0D01*
G01*
G37*
%TD.AperFunction*%
%TO.P,U1,25*%
%TO.N,Net-(U1-Pad25)*%
%TA.AperFunction,SMDPad,CuDef*%
G36*
G01*
X99687500Y-102525000D02*
X99812500Y-102525000D01*
G75*
G02*
X99875000Y-102587500I0J-62500D01*
G01*
X99875000Y-103462500D01*
G75*
G02*
X99812500Y-103525000I-62500J0D01*
G01*
X99687500Y-103525000D01*
G75*
G02*
X99625000Y-103462500I0J62500D01*
G01*
X99625000Y-102587500D01*
G75*
G02*
X99687500Y-102525000I62500J0D01*
G01*
G37*
%TD.AperFunction*%
%TO.P,U1,24*%
%TO.N,Net-(R10-Pad2)*%
%TA.AperFunction,SMDPad,CuDef*%
G36*
G01*
X99187500Y-102525000D02*
X99312500Y-102525000D01*
G75*
G02*
X99375000Y-102587500I0J-62500D01*
G01*
X99375000Y-103462500D01*
G75*
G02*
X99312500Y-103525000I-62500J0D01*
G01*
X99187500Y-103525000D01*
G75*
G02*
X99125000Y-103462500I0J62500D01*
G01*
X99125000Y-102587500D01*
G75*
G02*
X99187500Y-102525000I62500J0D01*
G01*
G37*
%TD.AperFunction*%
%TO.P,U1,23*%
%TO.N,+3V3*%
%TA.AperFunction,SMDPad,CuDef*%
G36*
G01*
X98687500Y-102525000D02*
X98812500Y-102525000D01*
G75*
G02*
X98875000Y-102587500I0J-62500D01*
G01*
X98875000Y-103462500D01*
G75*
G02*
X98812500Y-103525000I-62500J0D01*
G01*
X98687500Y-103525000D01*
G75*
G02*
X98625000Y-103462500I0J62500D01*
G01*
X98625000Y-102587500D01*
G75*
G02*
X98687500Y-102525000I62500J0D01*
G01*
G37*
%TD.AperFunction*%
%TO.P,U1,22*%
%TO.N,Net-(U1-Pad22)*%
%TA.AperFunction,SMDPad,CuDef*%
G36*
G01*
X98187500Y-102525000D02*
X98312500Y-102525000D01*
G75*
G02*
X98375000Y-102587500I0J-62500D01*
G01*
X98375000Y-103462500D01*
G75*
G02*
X98312500Y-103525000I-62500J0D01*
G01*
X98187500Y-103525000D01*
G75*
G02*
X98125000Y-103462500I0J62500D01*
G01*
X98125000Y-102587500D01*
G75*
G02*
X98187500Y-102525000I62500J0D01*
G01*
G37*
%TD.AperFunction*%
%TO.P,U1,21*%
%TO.N,Net-(U1-Pad21)*%
%TA.AperFunction,SMDPad,CuDef*%
G36*
G01*
X97687500Y-102525000D02*
X97812500Y-102525000D01*
G75*
G02*
X97875000Y-102587500I0J-62500D01*
G01*
X97875000Y-103462500D01*
G75*
G02*
X97812500Y-103525000I-62500J0D01*
G01*
X97687500Y-103525000D01*
G75*
G02*
X97625000Y-103462500I0J62500D01*
G01*
X97625000Y-102587500D01*
G75*
G02*
X97687500Y-102525000I62500J0D01*
G01*
G37*
%TD.AperFunction*%
%TO.P,U1,20*%
%TO.N,Net-(U1-Pad20)*%
%TA.AperFunction,SMDPad,CuDef*%
G36*
G01*
X96537500Y-102125000D02*
X97412500Y-102125000D01*
G75*
G02*
X97475000Y-102187500I0J-62500D01*
G01*
X97475000Y-102312500D01*
G75*
G02*
X97412500Y-102375000I-62500J0D01*
G01*
X96537500Y-102375000D01*
G75*
G02*
X96475000Y-102312500I0J62500D01*
G01*
X96475000Y-102187500D01*
G75*
G02*
X96537500Y-102125000I62500J0D01*
G01*
G37*
%TD.AperFunction*%
%TO.P,U1,19*%
%TO.N,Net-(U1-Pad19)*%
%TA.AperFunction,SMDPad,CuDef*%
G36*
G01*
X96537500Y-101625000D02*
X97412500Y-101625000D01*
G75*
G02*
X97475000Y-101687500I0J-62500D01*
G01*
X97475000Y-101812500D01*
G75*
G02*
X97412500Y-101875000I-62500J0D01*
G01*
X96537500Y-101875000D01*
G75*
G02*
X96475000Y-101812500I0J62500D01*
G01*
X96475000Y-101687500D01*
G75*
G02*
X96537500Y-101625000I62500J0D01*
G01*
G37*
%TD.AperFunction*%
%TO.P,U1,18*%
%TO.N,GND*%
%TA.AperFunction,SMDPad,CuDef*%
G36*
G01*
X96537500Y-101125000D02*
X97412500Y-101125000D01*
G75*
G02*
X97475000Y-101187500I0J-62500D01*
G01*
X97475000Y-101312500D01*
G75*
G02*
X97412500Y-101375000I-62500J0D01*
G01*
X96537500Y-101375000D01*
G75*
G02*
X96475000Y-101312500I0J62500D01*
G01*
X96475000Y-101187500D01*
G75*
G02*
X96537500Y-101125000I62500J0D01*
G01*
G37*
%TD.AperFunction*%
%TO.P,U1,17*%
%TO.N,Net-(JP1-Pad2)*%
%TA.AperFunction,SMDPad,CuDef*%
G36*
G01*
X96537500Y-100625000D02*
X97412500Y-100625000D01*
G75*
G02*
X97475000Y-100687500I0J-62500D01*
G01*
X97475000Y-100812500D01*
G75*
G02*
X97412500Y-100875000I-62500J0D01*
G01*
X96537500Y-100875000D01*
G75*
G02*
X96475000Y-100812500I0J62500D01*
G01*
X96475000Y-100687500D01*
G75*
G02*
X96537500Y-100625000I62500J0D01*
G01*
G37*
%TD.AperFunction*%
%TO.P,U1,16*%
%TO.N,GND*%
%TA.AperFunction,SMDPad,CuDef*%
G36*
G01*
X96537500Y-100125000D02*
X97412500Y-100125000D01*
G75*
G02*
X97475000Y-100187500I0J-62500D01*
G01*
X97475000Y-100312500D01*
G75*
G02*
X97412500Y-100375000I-62500J0D01*
G01*
X96537500Y-100375000D01*
G75*
G02*
X96475000Y-100312500I0J62500D01*
G01*
X96475000Y-100187500D01*
G75*
G02*
X96537500Y-100125000I62500J0D01*
G01*
G37*
%TD.AperFunction*%
%TO.P,U1,15*%
%TO.N,Net-(C16-Pad1)*%
%TA.AperFunction,SMDPad,CuDef*%
G36*
G01*
X96537500Y-99625000D02*
X97412500Y-99625000D01*
G75*
G02*
X97475000Y-99687500I0J-62500D01*
G01*
X97475000Y-99812500D01*
G75*
G02*
X97412500Y-99875000I-62500J0D01*
G01*
X96537500Y-99875000D01*
G75*
G02*
X96475000Y-99812500I0J62500D01*
G01*
X96475000Y-99687500D01*
G75*
G02*
X96537500Y-99625000I62500J0D01*
G01*
G37*
%TD.AperFunction*%
%TO.P,U1,14*%
%TO.N,Net-(C15-Pad1)*%
%TA.AperFunction,SMDPad,CuDef*%
G36*
G01*
X96537500Y-99125000D02*
X97412500Y-99125000D01*
G75*
G02*
X97475000Y-99187500I0J-62500D01*
G01*
X97475000Y-99312500D01*
G75*
G02*
X97412500Y-99375000I-62500J0D01*
G01*
X96537500Y-99375000D01*
G75*
G02*
X96475000Y-99312500I0J62500D01*
G01*
X96475000Y-99187500D01*
G75*
G02*
X96537500Y-99125000I62500J0D01*
G01*
G37*
%TD.AperFunction*%
%TO.P,U1,13*%
%TO.N,Net-(U1-Pad13)*%
%TA.AperFunction,SMDPad,CuDef*%
G36*
G01*
X96537500Y-98625000D02*
X97412500Y-98625000D01*
G75*
G02*
X97475000Y-98687500I0J-62500D01*
G01*
X97475000Y-98812500D01*
G75*
G02*
X97412500Y-98875000I-62500J0D01*
G01*
X96537500Y-98875000D01*
G75*
G02*
X96475000Y-98812500I0J62500D01*
G01*
X96475000Y-98687500D01*
G75*
G02*
X96537500Y-98625000I62500J0D01*
G01*
G37*
%TD.AperFunction*%
%TO.P,U1,12*%
%TO.N,Net-(U1-Pad12)*%
%TA.AperFunction,SMDPad,CuDef*%
G36*
G01*
X96537500Y-98125000D02*
X97412500Y-98125000D01*
G75*
G02*
X97475000Y-98187500I0J-62500D01*
G01*
X97475000Y-98312500D01*
G75*
G02*
X97412500Y-98375000I-62500J0D01*
G01*
X96537500Y-98375000D01*
G75*
G02*
X96475000Y-98312500I0J62500D01*
G01*
X96475000Y-98187500D01*
G75*
G02*
X96537500Y-98125000I62500J0D01*
G01*
G37*
%TD.AperFunction*%
%TO.P,U1,11*%
%TO.N,GND*%
%TA.AperFunction,SMDPad,CuDef*%
G36*
G01*
X96537500Y-97625000D02*
X97412500Y-97625000D01*
G75*
G02*
X97475000Y-97687500I0J-62500D01*
G01*
X97475000Y-97812500D01*
G75*
G02*
X97412500Y-97875000I-62500J0D01*
G01*
X96537500Y-97875000D01*
G75*
G02*
X96475000Y-97812500I0J62500D01*
G01*
X96475000Y-97687500D01*
G75*
G02*
X96537500Y-97625000I62500J0D01*
G01*
G37*
%TD.AperFunction*%
%TO.P,U1,10*%
%TO.N,Net-(C8-Pad1)*%
%TA.AperFunction,SMDPad,CuDef*%
G36*
G01*
X97687500Y-96475000D02*
X97812500Y-96475000D01*
G75*
G02*
X97875000Y-96537500I0J-62500D01*
G01*
X97875000Y-97412500D01*
G75*
G02*
X97812500Y-97475000I-62500J0D01*
G01*
X97687500Y-97475000D01*
G75*
G02*
X97625000Y-97412500I0J62500D01*
G01*
X97625000Y-96537500D01*
G75*
G02*
X97687500Y-96475000I62500J0D01*
G01*
G37*
%TD.AperFunction*%
%TO.P,U1,9*%
%TO.N,Net-(C10-Pad1)*%
%TA.AperFunction,SMDPad,CuDef*%
G36*
G01*
X98187500Y-96475000D02*
X98312500Y-96475000D01*
G75*
G02*
X98375000Y-96537500I0J-62500D01*
G01*
X98375000Y-97412500D01*
G75*
G02*
X98312500Y-97475000I-62500J0D01*
G01*
X98187500Y-97475000D01*
G75*
G02*
X98125000Y-97412500I0J62500D01*
G01*
X98125000Y-96537500D01*
G75*
G02*
X98187500Y-96475000I62500J0D01*
G01*
G37*
%TD.AperFunction*%
%TO.P,U1,8*%
%TO.N,+3V3*%
%TA.AperFunction,SMDPad,CuDef*%
G36*
G01*
X98687500Y-96475000D02*
X98812500Y-96475000D01*
G75*
G02*
X98875000Y-96537500I0J-62500D01*
G01*
X98875000Y-97412500D01*
G75*
G02*
X98812500Y-97475000I-62500J0D01*
G01*
X98687500Y-97475000D01*
G75*
G02*
X98625000Y-97412500I0J62500D01*
G01*
X98625000Y-96537500D01*
G75*
G02*
X98687500Y-96475000I62500J0D01*
G01*
G37*
%TD.AperFunction*%
%TO.P,U1,7*%
%TO.N,GND*%
%TA.AperFunction,SMDPad,CuDef*%
G36*
G01*
X99187500Y-96475000D02*
X99312500Y-96475000D01*
G75*
G02*
X99375000Y-96537500I0J-62500D01*
G01*
X99375000Y-97412500D01*
G75*
G02*
X99312500Y-97475000I-62500J0D01*
G01*
X99187500Y-97475000D01*
G75*
G02*
X99125000Y-97412500I0J62500D01*
G01*
X99125000Y-96537500D01*
G75*
G02*
X99187500Y-96475000I62500J0D01*
G01*
G37*
%TD.AperFunction*%
%TO.P,U1,6*%
%TO.N,Net-(L2-Pad2)*%
%TA.AperFunction,SMDPad,CuDef*%
G36*
G01*
X99687500Y-96475000D02*
X99812500Y-96475000D01*
G75*
G02*
X99875000Y-96537500I0J-62500D01*
G01*
X99875000Y-97412500D01*
G75*
G02*
X99812500Y-97475000I-62500J0D01*
G01*
X99687500Y-97475000D01*
G75*
G02*
X99625000Y-97412500I0J62500D01*
G01*
X99625000Y-96537500D01*
G75*
G02*
X99687500Y-96475000I62500J0D01*
G01*
G37*
%TD.AperFunction*%
%TO.P,U1,5*%
%TO.N,+3V3*%
%TA.AperFunction,SMDPad,CuDef*%
G36*
G01*
X100187500Y-96475000D02*
X100312500Y-96475000D01*
G75*
G02*
X100375000Y-96537500I0J-62500D01*
G01*
X100375000Y-97412500D01*
G75*
G02*
X100312500Y-97475000I-62500J0D01*
G01*
X100187500Y-97475000D01*
G75*
G02*
X100125000Y-97412500I0J62500D01*
G01*
X100125000Y-96537500D01*
G75*
G02*
X100187500Y-96475000I62500J0D01*
G01*
G37*
%TD.AperFunction*%
%TO.P,U1,4*%
%TO.N,Net-(L1-Pad1)*%
%TA.AperFunction,SMDPad,CuDef*%
G36*
G01*
X100687500Y-96475000D02*
X100812500Y-96475000D01*
G75*
G02*
X100875000Y-96537500I0J-62500D01*
G01*
X100875000Y-97412500D01*
G75*
G02*
X100812500Y-97475000I-62500J0D01*
G01*
X100687500Y-97475000D01*
G75*
G02*
X100625000Y-97412500I0J62500D01*
G01*
X100625000Y-96537500D01*
G75*
G02*
X100687500Y-96475000I62500J0D01*
G01*
G37*
%TD.AperFunction*%
%TO.P,U1,3*%
%TO.N,GND*%
%TA.AperFunction,SMDPad,CuDef*%
G36*
G01*
X101187500Y-96475000D02*
X101312500Y-96475000D01*
G75*
G02*
X101375000Y-96537500I0J-62500D01*
G01*
X101375000Y-97412500D01*
G75*
G02*
X101312500Y-97475000I-62500J0D01*
G01*
X101187500Y-97475000D01*
G75*
G02*
X101125000Y-97412500I0J62500D01*
G01*
X101125000Y-96537500D01*
G75*
G02*
X101187500Y-96475000I62500J0D01*
G01*
G37*
%TD.AperFunction*%
%TO.P,U1,2*%
%TO.N,Net-(U1-Pad2)*%
%TA.AperFunction,SMDPad,CuDef*%
G36*
G01*
X101687500Y-96475000D02*
X101812500Y-96475000D01*
G75*
G02*
X101875000Y-96537500I0J-62500D01*
G01*
X101875000Y-97412500D01*
G75*
G02*
X101812500Y-97475000I-62500J0D01*
G01*
X101687500Y-97475000D01*
G75*
G02*
X101625000Y-97412500I0J62500D01*
G01*
X101625000Y-96537500D01*
G75*
G02*
X101687500Y-96475000I62500J0D01*
G01*
G37*
%TD.AperFunction*%
%TO.P,U1,1*%
%TO.N,GND*%
%TA.AperFunction,SMDPad,CuDef*%
G36*
G01*
X102187500Y-96475000D02*
X102312500Y-96475000D01*
G75*
G02*
X102375000Y-96537500I0J-62500D01*
G01*
X102375000Y-97412500D01*
G75*
G02*
X102312500Y-97475000I-62500J0D01*
G01*
X102187500Y-97475000D01*
G75*
G02*
X102125000Y-97412500I0J62500D01*
G01*
X102125000Y-96537500D01*
G75*
G02*
X102187500Y-96475000I62500J0D01*
G01*
G37*
%TD.AperFunction*%
%TD*%
D25*
%TO.P,D1,2*%
%TO.N,Net-(D1-Pad2)*%
X112000000Y-98730000D03*
D26*
%TO.P,D1,1*%
%TO.N,GND*%
X112000000Y-101270000D03*
%TD*%
D27*
%TO.P,J2,4*%
%TO.N,Net-(J2-Pad4)*%
X103810000Y-112000000D03*
%TO.P,J2,3*%
%TO.N,Net-(J2-Pad3)*%
X101270000Y-112000000D03*
%TO.P,J2,2*%
%TO.N,+5V*%
X98730000Y-112000000D03*
D28*
%TO.P,J2,1*%
%TO.N,GND*%
X96190000Y-112000000D03*
%TD*%
D25*
%TO.P,D3,2*%
%TO.N,Net-(D3-Pad2)*%
X112000000Y-86730000D03*
D26*
%TO.P,D3,1*%
%TO.N,GND*%
X112000000Y-89270000D03*
%TD*%
D29*
%TO.P,J4,4*%
%TO.N,Net-(J2-Pad4)*%
X89000000Y-113000000D03*
%TO.P,J4,3*%
%TO.N,Net-(J2-Pad3)*%
X87000000Y-113000000D03*
%TO.P,J4,2*%
%TO.N,+5V*%
X89000000Y-111000000D03*
D30*
%TO.P,J4,1*%
%TO.N,GND*%
X87000000Y-111000000D03*
%TD*%
D25*
%TO.P,D2,2*%
%TO.N,Net-(D2-Pad2)*%
X112000000Y-92730000D03*
D26*
%TO.P,D2,1*%
%TO.N,GND*%
X112000000Y-95270000D03*
%TD*%
D31*
%TO.P,Y1,1*%
%TO.N,Net-(C15-Pad1)*%
X93200000Y-98650000D03*
%TO.P,Y1,4*%
%TO.N,GND*%
X94800000Y-98650000D03*
%TO.P,Y1,3*%
%TO.N,Net-(C16-Pad1)*%
X94800000Y-101350000D03*
%TO.P,Y1,2*%
%TO.N,GND*%
X93200000Y-101350000D03*
%TD*%
D32*
%TO.P,H2,1*%
%TO.N,N/C*%
X88000000Y-88000000D03*
%TD*%
%TO.P,H1,1*%
%TO.N,N/C*%
X112000000Y-112000000D03*
%TD*%
D33*
%TO.N,GND*%
X94800000Y-96400000D03*
X93200000Y-103400000D03*
X97616806Y-106205269D03*
X106300000Y-101300000D03*
X106300000Y-96500000D03*
X94000000Y-93900000D03*
X92525010Y-105400000D03*
X96350012Y-95400000D03*
X100000000Y-92100000D03*
X103050000Y-93650000D03*
X103050000Y-95150000D03*
%TO.N,+3V3*%
X107368644Y-96617055D03*
X105600000Y-108500000D03*
X94900000Y-95100000D03*
X99100000Y-107300000D03*
X91400000Y-105700000D03*
X98511984Y-95209470D03*
X99525010Y-93433153D03*
%TO.N,+5V*%
X104701048Y-96301048D03*
%TD*%
D34*
%TO.N,GND*%
X94775000Y-98625000D02*
X94800000Y-98650000D01*
X94775000Y-97500000D02*
X94775000Y-98625000D01*
X93225000Y-101375000D02*
X93200000Y-101350000D01*
X93225000Y-102500000D02*
X93225000Y-101375000D01*
X94775000Y-96425000D02*
X94800000Y-96400000D01*
X94775000Y-97500000D02*
X94775000Y-96425000D01*
X93225000Y-103375000D02*
X93200000Y-103400000D01*
X93225000Y-102500000D02*
X93225000Y-103375000D01*
X98700000Y-106175000D02*
X97647075Y-106175000D01*
X97647075Y-106175000D02*
X97616806Y-106205269D01*
D35*
X109925000Y-97300000D02*
X109925000Y-97125000D01*
D34*
X104750000Y-100375000D02*
X106250000Y-100375000D01*
X106250000Y-100375000D02*
X106250000Y-101250000D01*
X106250000Y-101250000D02*
X106300000Y-101300000D01*
X106275000Y-96525000D02*
X106300000Y-96500000D01*
X106275000Y-97300000D02*
X106275000Y-96525000D01*
X109970000Y-97300000D02*
X112000000Y-95270000D01*
X109925000Y-97300000D02*
X109970000Y-97300000D01*
X94050000Y-93850000D02*
X94000000Y-93900000D01*
X94825000Y-93850000D02*
X94050000Y-93850000D01*
X93500000Y-105400000D02*
X92525010Y-105400000D01*
X96925000Y-95400000D02*
X96350012Y-95400000D01*
D35*
X99250000Y-98750000D02*
X99000000Y-99000000D01*
X99250000Y-96975000D02*
X99250000Y-98750000D01*
D34*
X96250000Y-111940000D02*
X96190000Y-112000000D01*
X96250000Y-108900000D02*
X96250000Y-111940000D01*
D35*
X97800010Y-97800010D02*
X99000000Y-99000000D01*
X97526988Y-97800010D02*
X97800010Y-97800010D01*
X97476978Y-97750000D02*
X97526988Y-97800010D01*
X96975000Y-97750000D02*
X97476978Y-97750000D01*
X98250000Y-100250000D02*
X99000000Y-101000000D01*
X96975000Y-100250000D02*
X98250000Y-100250000D01*
X98750000Y-101250000D02*
X99000000Y-101000000D01*
X96975000Y-101250000D02*
X98750000Y-101250000D01*
X101250000Y-98750000D02*
X101000000Y-99000000D01*
X101250000Y-96975000D02*
X101250000Y-98750000D01*
X102199990Y-97800010D02*
X101000000Y-99000000D01*
X102199990Y-97526988D02*
X102199990Y-97800010D01*
X102250000Y-97476978D02*
X102199990Y-97526988D01*
X102250000Y-96975000D02*
X102250000Y-97476978D01*
D34*
X100000000Y-92100000D02*
X100000000Y-92100000D01*
X99275000Y-85300000D02*
X100000000Y-85300000D01*
X100000000Y-81000000D02*
X100000000Y-85500000D01*
X100725000Y-85300000D02*
X100000000Y-85300000D01*
X100000000Y-88500000D02*
X100000000Y-92100000D01*
X99275000Y-87500000D02*
X100000000Y-87500000D01*
X100000000Y-87500000D02*
X100000000Y-88500000D01*
X100000000Y-85500000D02*
X100000000Y-87500000D01*
X100725000Y-87500000D02*
X100000000Y-87500000D01*
X101975000Y-93650000D02*
X103050000Y-93650000D01*
X101975000Y-95150000D02*
X103050000Y-95150000D01*
%TO.N,Net-(A1-Pad1)*%
X103775000Y-83000000D02*
X103800000Y-82975000D01*
X103000000Y-83000000D02*
X103775000Y-83000000D01*
%TO.N,Net-(A1-Pad3)*%
X97000000Y-83000000D02*
X96200000Y-83000000D01*
%TO.N,Net-(C3-Pad1)*%
X103725000Y-87500000D02*
X103800000Y-87575000D01*
X102275000Y-87500000D02*
X103725000Y-87500000D01*
X104000000Y-87775000D02*
X103800000Y-87575000D01*
X104000000Y-89700000D02*
X104000000Y-87775000D01*
%TO.N,Net-(C4-Pad2)*%
X94750000Y-87575000D02*
X94725000Y-87600000D01*
X96200000Y-87575000D02*
X94750000Y-87575000D01*
X96000000Y-87775000D02*
X96200000Y-87575000D01*
X96000000Y-89700000D02*
X96000000Y-87775000D01*
X96275000Y-87500000D02*
X96200000Y-87575000D01*
X97725000Y-87500000D02*
X96275000Y-87500000D01*
D35*
%TO.N,+3V3*%
X100100000Y-95475000D02*
X100425000Y-95150000D01*
X100250000Y-96975000D02*
X100250000Y-95475000D01*
X100425000Y-93650000D02*
X100425000Y-95150000D01*
X98750000Y-95675000D02*
X98750000Y-96975000D01*
X98475000Y-95400000D02*
X98750000Y-95675000D01*
X104175000Y-98250000D02*
X104750000Y-98825000D01*
X103025000Y-98250000D02*
X104175000Y-98250000D01*
X104750000Y-98825000D02*
X106250000Y-98825000D01*
X98750000Y-104575000D02*
X98700000Y-104625000D01*
X98750000Y-103025000D02*
X98750000Y-104575000D01*
X96875000Y-104625000D02*
X96100000Y-105400000D01*
X98700000Y-104625000D02*
X96875000Y-104625000D01*
X107050010Y-96935689D02*
X107368644Y-96617055D01*
X107050010Y-98024990D02*
X107050010Y-96935689D01*
X106250000Y-98825000D02*
X107050010Y-98024990D01*
X103325000Y-106225000D02*
X102800000Y-106225000D01*
X105600000Y-108500000D02*
X103325000Y-106225000D01*
X95772582Y-106475010D02*
X92175010Y-106475010D01*
X96100000Y-106147592D02*
X95772582Y-106475010D01*
X96100000Y-105400000D02*
X96100000Y-106147592D01*
X92175010Y-106475010D02*
X91800000Y-106100000D01*
X91800000Y-95600000D02*
X92300000Y-95100000D01*
X92300000Y-95100000D02*
X94900000Y-95100000D01*
X100175000Y-106225000D02*
X99100000Y-107300000D01*
X100200000Y-106225000D02*
X100175000Y-106225000D01*
X91700000Y-105700000D02*
X91800000Y-105800000D01*
X91800000Y-105800000D02*
X91800000Y-95600000D01*
X91400000Y-105700000D02*
X91700000Y-105700000D01*
X91800000Y-106100000D02*
X91800000Y-105800000D01*
X98475000Y-95246454D02*
X98511984Y-95209470D01*
X98475000Y-95400000D02*
X98475000Y-95246454D01*
X99741857Y-93650000D02*
X99525010Y-93433153D01*
X100575000Y-93650000D02*
X99741857Y-93650000D01*
D34*
%TO.N,Net-(C8-Pad2)*%
X93075000Y-89100000D02*
X93100000Y-89125000D01*
X93075000Y-87600000D02*
X93075000Y-89100000D01*
D35*
%TO.N,Net-(C8-Pad1)*%
X94775000Y-92350000D02*
X94950000Y-92350000D01*
X95625002Y-96098006D02*
X95971995Y-96444999D01*
X95600000Y-93175000D02*
X95600000Y-94726996D01*
X95600000Y-94726996D02*
X95625002Y-94751998D01*
X94775000Y-92350000D02*
X95600000Y-93175000D01*
X95625002Y-94751998D02*
X95625002Y-96098006D01*
X97464001Y-96444999D02*
X97750000Y-96730998D01*
X95971995Y-96444999D02*
X97464001Y-96444999D01*
X97750000Y-96730998D02*
X97750000Y-96975000D01*
D34*
X93100000Y-90675000D02*
X94775000Y-92350000D01*
D35*
%TO.N,+5V*%
X104275000Y-97750000D02*
X104725000Y-97300000D01*
X103025000Y-97750000D02*
X104275000Y-97750000D01*
D34*
X97374990Y-107524990D02*
X98750000Y-108900000D01*
X92475010Y-107524990D02*
X97374990Y-107524990D01*
X89000000Y-111000000D02*
X92475010Y-107524990D01*
X98750000Y-111980000D02*
X98730000Y-112000000D01*
X98750000Y-108900000D02*
X98750000Y-111980000D01*
X104725000Y-96325000D02*
X104701048Y-96301048D01*
D35*
X109925000Y-95800000D02*
X109124990Y-94999990D01*
D34*
X104725000Y-97300000D02*
X104725000Y-96325000D01*
D35*
X109124990Y-94999990D02*
X106002106Y-94999990D01*
X106002106Y-94999990D02*
X104701048Y-96301048D01*
D34*
%TO.N,Net-(C15-Pad1)*%
X93225000Y-98625000D02*
X93200000Y-98650000D01*
X93225000Y-97500000D02*
X93225000Y-98625000D01*
D35*
X93200000Y-99850000D02*
X93200000Y-98650000D01*
X96290568Y-99250000D02*
X95615567Y-99925001D01*
X95615567Y-99925001D02*
X93275001Y-99925001D01*
X96975000Y-99250000D02*
X96290568Y-99250000D01*
X93275001Y-99925001D02*
X93200000Y-99850000D01*
D34*
%TO.N,Net-(C16-Pad1)*%
X94775000Y-101375000D02*
X94800000Y-101350000D01*
X94775000Y-102500000D02*
X94775000Y-101375000D01*
D35*
X96426978Y-99750000D02*
X94826978Y-101350000D01*
X96975000Y-99750000D02*
X96426978Y-99750000D01*
X94826978Y-101350000D02*
X94800000Y-101350000D01*
D34*
%TO.N,Net-(L2-Pad2)*%
X98800000Y-89700000D02*
X98800000Y-92000000D01*
D35*
X99750000Y-95761410D02*
X99750000Y-96975000D01*
X99649991Y-95661401D02*
X99750000Y-95761410D01*
X98800000Y-92000000D02*
X98800000Y-94472166D01*
X99649990Y-95322156D02*
X99649991Y-95661401D01*
X98800000Y-94472166D02*
X99649990Y-95322156D01*
D34*
%TO.N,Net-(L1-Pad1)*%
X101200000Y-89700000D02*
X101200000Y-92000000D01*
D35*
X100750000Y-96426978D02*
X100750000Y-96975000D01*
X101200000Y-95976978D02*
X100750000Y-96426978D01*
X101200000Y-92000000D02*
X101200000Y-95976978D01*
%TO.N,Net-(D1-Pad2)*%
X113225001Y-99955001D02*
X112000000Y-98730000D01*
X113225001Y-102430001D02*
X113225001Y-99955001D01*
X110620001Y-102495001D02*
X113160001Y-102495001D01*
X113160001Y-102495001D02*
X113225001Y-102430001D01*
X109925000Y-101800000D02*
X110620001Y-102495001D01*
%TO.N,Net-(D2-Pad2)*%
X113675011Y-102616401D02*
X113675012Y-93132220D01*
X113675012Y-93132220D02*
X113272792Y-92730000D01*
X109925000Y-100300000D02*
X109199990Y-101025010D01*
X109199990Y-102292468D02*
X109852533Y-102945011D01*
X109199990Y-101025010D02*
X109199990Y-102292468D01*
X109852533Y-102945011D02*
X113346401Y-102945011D01*
X113346401Y-102945011D02*
X113675011Y-102616401D01*
X113272792Y-92730000D02*
X112000000Y-92730000D01*
%TO.N,Net-(D3-Pad2)*%
X110774999Y-97950001D02*
X109925000Y-98800000D01*
X112000000Y-86730000D02*
X110774999Y-87955001D01*
X113225001Y-94109999D02*
X113225001Y-96574999D01*
X113090001Y-93974999D02*
X113225001Y-94109999D01*
X110774999Y-93974999D02*
X113090001Y-93974999D01*
X110774999Y-87955001D02*
X110774999Y-93974999D01*
X112150001Y-96574999D02*
X110774999Y-97950001D01*
X113225001Y-96574999D02*
X112150001Y-96574999D01*
%TO.N,Net-(R5-Pad1)*%
X103949990Y-99126968D02*
X103949990Y-99349990D01*
X103573022Y-98750000D02*
X103949990Y-99126968D01*
X103025000Y-98750000D02*
X103573022Y-98750000D01*
X103949990Y-99349990D02*
X104200000Y-99600000D01*
X107549990Y-98777844D02*
X107549990Y-98025010D01*
X106727834Y-99600000D02*
X107549990Y-98777844D01*
X107549990Y-98025010D02*
X108275000Y-97300000D01*
X104200000Y-99600000D02*
X106727834Y-99600000D01*
X108275000Y-95800000D02*
X108275000Y-97300000D01*
%TO.N,Net-(R7-Pad1)*%
X105479198Y-102925024D02*
X107149976Y-102925024D01*
X103025000Y-102250000D02*
X104804174Y-102250000D01*
X104804174Y-102250000D02*
X105479198Y-102925024D01*
X107149976Y-102925024D02*
X108275000Y-101800000D01*
%TO.N,Net-(C10-Pad1)*%
X96425000Y-93800000D02*
X96375000Y-93850000D01*
X96425000Y-92350000D02*
X96425000Y-93800000D01*
X98250000Y-96426978D02*
X98250000Y-96975000D01*
X98023032Y-96200010D02*
X98250000Y-96426978D01*
X98022176Y-96200010D02*
X98023032Y-96200010D01*
X97700000Y-95877834D02*
X98022176Y-96200010D01*
X97700000Y-94150000D02*
X97700000Y-95877834D01*
X97400000Y-93850000D02*
X97700000Y-94150000D01*
X96375000Y-93850000D02*
X97400000Y-93850000D01*
D34*
%TO.N,Net-(C1-Pad1)*%
X102275000Y-85300000D02*
X103800000Y-85300000D01*
X103800000Y-85300000D02*
X103800000Y-86025000D01*
X103800000Y-84625000D02*
X103800000Y-85300000D01*
%TO.N,Net-(C2-Pad2)*%
X97725000Y-85300000D02*
X96200000Y-85300000D01*
X96200000Y-85300000D02*
X96200000Y-86025000D01*
X96200000Y-84650000D02*
X96200000Y-85300000D01*
D35*
%TO.N,Net-(R8-Pad1)*%
X103025000Y-101750000D02*
X104940585Y-101750000D01*
X107475013Y-101099987D02*
X108275000Y-100300000D01*
X104940585Y-101750000D02*
X105665598Y-102475013D01*
X107475013Y-101834402D02*
X107475013Y-101099987D01*
X105665598Y-102475013D02*
X106834402Y-102475013D01*
X106834402Y-102475013D02*
X107475013Y-101834402D01*
%TO.N,Net-(R9-Pad1)*%
X106648002Y-102025002D02*
X107025002Y-101648002D01*
X103025000Y-101250000D02*
X105076996Y-101250000D01*
X105851998Y-102025002D02*
X106648002Y-102025002D01*
X107025002Y-101648002D02*
X107025002Y-100852832D01*
X105076996Y-101250000D02*
X105851998Y-102025002D01*
X107025002Y-100852832D02*
X107549990Y-100327844D01*
X107549990Y-100327844D02*
X107549990Y-99525010D01*
X107549990Y-99525010D02*
X108275000Y-98800000D01*
%TO.N,Net-(J1-Pad2)*%
X102250000Y-104025000D02*
X102800000Y-104575000D01*
X102250000Y-103025000D02*
X102250000Y-104025000D01*
X107500000Y-109275000D02*
X107500000Y-110730000D01*
X102800000Y-104575000D02*
X107500000Y-109275000D01*
%TO.N,Net-(J2-Pad3)*%
X101450021Y-108699979D02*
X101250000Y-108900000D01*
X101250000Y-103771111D02*
X101450021Y-103971132D01*
X101450021Y-103971132D02*
X101450021Y-108699979D01*
X101250000Y-103025000D02*
X101250000Y-103771111D01*
X99294999Y-113975001D02*
X101270000Y-112000000D01*
X87975001Y-113975001D02*
X99294999Y-113975001D01*
X87000000Y-113000000D02*
X87975001Y-113975001D01*
%TO.N,Net-(R10-Pad2)*%
X85750000Y-96750000D02*
X85750000Y-103250000D01*
X85750000Y-103250000D02*
X89425021Y-106925021D01*
X95988317Y-106925021D02*
X96925010Y-105988328D01*
X89425021Y-106925021D02*
X95988317Y-106925021D01*
X96925010Y-105988328D02*
X96925010Y-105701986D01*
X96925010Y-105701986D02*
X97226996Y-105400000D01*
X97226996Y-105400000D02*
X99375000Y-105400000D01*
X99375000Y-105400000D02*
X100200000Y-104575000D01*
X99250000Y-103025000D02*
X99250000Y-103625000D01*
X99250000Y-103625000D02*
X100200000Y-104575000D01*
%TO.N,Net-(J2-Pad4)*%
X100750000Y-103907522D02*
X101000010Y-104157532D01*
X101000010Y-104157532D02*
X101000010Y-107199990D01*
X100750000Y-103025000D02*
X100750000Y-103907522D01*
X102499990Y-110150010D02*
X103750000Y-108900000D01*
X100074990Y-109461705D02*
X100763295Y-110150010D01*
X100763295Y-110150010D02*
X102499990Y-110150010D01*
X101000010Y-107199990D02*
X100074990Y-108125010D01*
X100074990Y-109174990D02*
X100074990Y-109461705D01*
X100074990Y-108125010D02*
X100074990Y-109174990D01*
X89000000Y-113000000D02*
X89524990Y-113524990D01*
X89524990Y-113524990D02*
X99075010Y-113524990D01*
X100094999Y-112505001D02*
X100094999Y-109194999D01*
X99075010Y-113524990D02*
X100094999Y-112505001D01*
X100094999Y-109194999D02*
X100074990Y-109174990D01*
%TO.N,Net-(JP1-Pad2)*%
X96426978Y-100750000D02*
X96000000Y-101176978D01*
X96975000Y-100750000D02*
X96426978Y-100750000D01*
X94800000Y-104400000D02*
X94800000Y-105400000D01*
X96000000Y-103200000D02*
X94800000Y-104400000D01*
X96000000Y-101176978D02*
X96000000Y-103200000D01*
%TD*%
M02*
