%TF.GenerationSoftware,KiCad,Pcbnew,(6.0.5-0)*%
%TF.CreationDate,2022-07-08T15:47:18+01:00*%
%TF.ProjectId,PN532-Round,504e3533-322d-4526-9f75-6e642e6b6963,7*%
%TF.SameCoordinates,Original*%
%TF.FileFunction,Legend,Top*%
%TF.FilePolarity,Positive*%
%FSLAX46Y46*%
G04 Gerber Fmt 4.6, Leading zero omitted, Abs format (unit mm)*
G04 Created by KiCad (PCBNEW (6.0.5-0)) date 2022-07-08 15:47:18*
%MOMM*%
%LPD*%
G01*
G04 APERTURE LIST*
%ADD10C,0.120000*%
%ADD11C,0.100000*%
%ADD12C,0.150000*%
%ADD13C,0.400000*%
G04 APERTURE END LIST*
D10*
X101749999Y-86810001D02*
G75*
G03*
X98250001Y-86810001I-1749999J-1750000D01*
G01*
X101249999Y-87310001D02*
G75*
G03*
X98750001Y-87310001I-1249999J-1249997D01*
G01*
X101999999Y-86560001D02*
G75*
G03*
X98000001Y-86560001I-1999999J-1999998D01*
G01*
X101499999Y-87060001D02*
G75*
G03*
X98500001Y-87060001I-1499999J-1499999D01*
G01*
D11*
X95539761Y-100686190D02*
X95539761Y-100186190D01*
X95754047Y-100233809D02*
X95777857Y-100210000D01*
X95825476Y-100186190D01*
X95944523Y-100186190D01*
X95992142Y-100210000D01*
X96015952Y-100233809D01*
X96039761Y-100281428D01*
X96039761Y-100329047D01*
X96015952Y-100400476D01*
X95730238Y-100686190D01*
X96039761Y-100686190D01*
X96539761Y-100638571D02*
X96515952Y-100662380D01*
X96444523Y-100686190D01*
X96396904Y-100686190D01*
X96325476Y-100662380D01*
X96277857Y-100614761D01*
X96254047Y-100567142D01*
X96230238Y-100471904D01*
X96230238Y-100400476D01*
X96254047Y-100305238D01*
X96277857Y-100257619D01*
X96325476Y-100210000D01*
X96396904Y-100186190D01*
X96444523Y-100186190D01*
X96515952Y-100210000D01*
X96539761Y-100233809D01*
X92784047Y-103686190D02*
X92784047Y-103186190D01*
X92784047Y-103424285D02*
X93069761Y-103424285D01*
X93069761Y-103686190D02*
X93069761Y-103186190D01*
X93284047Y-103662380D02*
X93355476Y-103686190D01*
X93474523Y-103686190D01*
X93522142Y-103662380D01*
X93545952Y-103638571D01*
X93569761Y-103590952D01*
X93569761Y-103543333D01*
X93545952Y-103495714D01*
X93522142Y-103471904D01*
X93474523Y-103448095D01*
X93379285Y-103424285D01*
X93331666Y-103400476D01*
X93307857Y-103376666D01*
X93284047Y-103329047D01*
X93284047Y-103281428D01*
X93307857Y-103233809D01*
X93331666Y-103210000D01*
X93379285Y-103186190D01*
X93498333Y-103186190D01*
X93569761Y-103210000D01*
X93784047Y-103186190D02*
X93784047Y-103590952D01*
X93807857Y-103638571D01*
X93831666Y-103662380D01*
X93879285Y-103686190D01*
X93974523Y-103686190D01*
X94022142Y-103662380D01*
X94045952Y-103638571D01*
X94069761Y-103590952D01*
X94069761Y-103186190D01*
D12*
X101035714Y-108235595D02*
X101321428Y-108997500D01*
X101607142Y-108235595D01*
X103535714Y-104847500D02*
X103821428Y-104085595D01*
X104107142Y-104847500D01*
X96630952Y-108678571D02*
X95869047Y-108678571D01*
X99130952Y-104528571D02*
X98369047Y-104528571D01*
X98750000Y-104147619D02*
X98750000Y-104909523D01*
D13*
%TO.C,A1*%
X88323654Y-112576082D02*
X86183918Y-114678825D01*
X85382873Y-113863687D01*
X85284504Y-113559772D01*
X85286265Y-113357749D01*
X85389919Y-113055596D01*
X85695596Y-112755204D01*
X85999511Y-112656835D01*
X86201533Y-112658597D01*
X86503687Y-112762250D01*
X87304732Y-113577388D01*
X86522998Y-110629330D02*
X84077630Y-112367195D01*
X85529933Y-109231977D01*
X83084564Y-110969842D01*
X81625805Y-108284556D02*
X82258777Y-109565244D01*
X83602762Y-109060341D01*
X83411396Y-108995570D01*
X83156733Y-108802729D01*
X82840247Y-108162385D01*
X82841722Y-107842950D01*
X82906493Y-107651584D01*
X83099334Y-107396921D01*
X83739678Y-107080435D01*
X84059113Y-107081909D01*
X84250479Y-107146681D01*
X84505142Y-107339522D01*
X84821628Y-107979866D01*
X84820154Y-108299301D01*
X84755382Y-108490667D01*
X81053751Y-106911900D02*
X80504559Y-105137817D01*
X81892021Y-105755128D01*
X81765284Y-105345724D01*
X81817261Y-105030543D01*
X81911483Y-104851830D01*
X82142173Y-104630871D01*
X82824512Y-104419643D01*
X83139694Y-104471619D01*
X83318407Y-104565842D01*
X83539366Y-104796532D01*
X83792839Y-105615339D01*
X83740863Y-105930520D01*
X83646640Y-106109234D01*
X80461778Y-103646739D02*
X80300216Y-103525438D01*
X80118523Y-103262705D01*
X80017870Y-102555547D01*
X80119040Y-102252553D01*
X80240342Y-102090990D01*
X80503074Y-101909298D01*
X80785938Y-101869036D01*
X81230363Y-101950076D01*
X83169111Y-103405690D01*
X82907413Y-101567078D01*
X117125303Y-98844048D02*
X120124847Y-98791734D01*
X118696493Y-98816645D02*
X118726387Y-100530670D01*
X117155197Y-100558073D02*
X120154741Y-100505759D01*
X117234018Y-101587208D02*
X117032194Y-101991373D01*
X116931541Y-102698531D01*
X117032712Y-103001525D01*
X117154013Y-103163088D01*
X117416746Y-103344781D01*
X117699609Y-103385042D01*
X118002603Y-103283871D01*
X118164165Y-103162570D01*
X118345858Y-102899837D01*
X118567812Y-102354241D01*
X118749505Y-102091508D01*
X118911067Y-101970207D01*
X119214061Y-101869036D01*
X119496925Y-101909298D01*
X119759657Y-102090990D01*
X119880959Y-102252553D01*
X119982129Y-102555547D01*
X119881476Y-103262705D01*
X119679653Y-103666870D01*
X85512521Y-85979217D02*
X87184277Y-87740804D01*
X87484577Y-87849711D01*
X87686538Y-87854996D01*
X87992123Y-87761941D01*
X88406614Y-87368587D01*
X88515521Y-87068287D01*
X88520805Y-86866326D01*
X88427751Y-86560741D01*
X86755994Y-84799154D01*
X114470281Y-109235151D02*
X116915665Y-110972995D01*
X113477228Y-110632513D01*
X115922611Y-112370357D01*
X113047486Y-113422788D02*
X113748400Y-112709543D01*
X112627586Y-111608106D02*
X114767322Y-113710849D01*
X113766016Y-114729771D01*
X109594958Y-114579235D02*
X109625170Y-114379476D01*
X109885352Y-114010171D01*
X110115323Y-113840624D01*
X110545052Y-113701289D01*
X110944570Y-113761712D01*
X111229102Y-113906910D01*
X111683181Y-114282077D01*
X111937502Y-114627033D01*
X112161610Y-115171748D01*
X112216172Y-115486492D01*
X112155748Y-115886010D01*
X111895566Y-116255315D01*
X111665595Y-116424862D01*
X111235866Y-116564197D01*
X111036107Y-116533986D01*
X83027273Y-97418076D02*
X81508697Y-98275247D01*
X82861502Y-99124328D02*
X79875561Y-98834229D01*
X79986075Y-97696728D01*
X80155891Y-97426167D01*
X80311893Y-97297793D01*
X80610082Y-97183234D01*
X81036645Y-97224677D01*
X81307206Y-97394493D01*
X81435580Y-97550495D01*
X81550139Y-97848684D01*
X81439626Y-98986186D01*
X81731482Y-95889158D02*
X81984380Y-94921665D01*
X83613111Y-94904436D02*
X83251829Y-96286569D01*
X80349350Y-95527875D01*
X80710632Y-94145742D01*
X100714285Y-118000000D02*
X99285714Y-118000000D01*
X101000000Y-117142857D02*
X100000000Y-120142857D01*
X99000000Y-117142857D01*
X98064568Y-117051364D02*
X97590098Y-120013606D01*
X96884802Y-119900637D01*
X96484219Y-119691796D01*
X96247288Y-119364490D01*
X96151416Y-119059778D01*
X96100733Y-118472948D01*
X96168514Y-118049770D01*
X96399948Y-117508127D01*
X96586195Y-117248603D01*
X96913501Y-117011672D01*
X97359272Y-116938395D01*
X98064568Y-117051364D01*
X94763767Y-117974352D02*
X93813795Y-117662017D01*
X93897476Y-116035346D02*
X95254579Y-116481538D01*
X94317574Y-119331455D01*
X92960471Y-118885262D01*
X91317308Y-114808130D02*
X91550711Y-116536233D01*
X92840652Y-115594386D02*
X91464703Y-118260238D01*
X90449141Y-117736067D01*
X90260771Y-117478079D01*
X90199347Y-117285613D01*
X90203445Y-116966201D01*
X90400009Y-116585365D01*
X90657997Y-116396995D01*
X90850464Y-116335571D01*
X91169876Y-116339669D01*
X92185438Y-116863840D01*
X88318697Y-112579177D02*
X86178945Y-114681904D01*
X85377906Y-113866761D01*
X85279539Y-113562845D01*
X85281302Y-113360822D01*
X85384958Y-113058670D01*
X85690637Y-112758280D01*
X85994553Y-112659913D01*
X86196576Y-112661676D01*
X86498728Y-112765332D01*
X87299767Y-113580476D01*
X86522771Y-110632513D02*
X84077388Y-112370357D01*
X85529718Y-109235151D01*
X83084334Y-110972995D01*
X81630721Y-108287555D02*
X82263680Y-109568250D01*
X83607671Y-109063360D01*
X83416305Y-108998587D01*
X83161644Y-108805744D01*
X82845165Y-108165396D01*
X82846642Y-107845961D01*
X82911416Y-107654596D01*
X83104259Y-107399935D01*
X83744606Y-107083455D01*
X84064041Y-107084933D01*
X84255407Y-107149707D01*
X84510068Y-107342550D01*
X84826547Y-107982897D01*
X84825070Y-108302332D01*
X84760296Y-108493697D01*
X81056322Y-106911084D02*
X80507150Y-105136996D01*
X81894604Y-105754322D01*
X81767872Y-105344917D01*
X81819853Y-105029736D01*
X81914077Y-104851024D01*
X82144770Y-104630067D01*
X82827111Y-104418847D01*
X83142292Y-104470828D01*
X83321004Y-104565052D01*
X83541961Y-104795745D01*
X83795425Y-105614555D01*
X83743444Y-105929735D01*
X83649220Y-106108448D01*
X80457168Y-103649814D02*
X80295608Y-103528511D01*
X80113918Y-103265776D01*
X80013275Y-102558616D01*
X80114449Y-102255624D01*
X80235752Y-102094063D01*
X80498487Y-101912373D01*
X80781351Y-101872116D01*
X81225776Y-101953162D01*
X83164504Y-103408800D01*
X82902831Y-101570185D01*
X86585381Y-88873315D02*
X86786539Y-88854561D01*
X86805292Y-89055720D01*
X86604134Y-89074473D01*
X86585381Y-88873315D01*
X86805292Y-89055720D01*
X83030587Y-97417036D02*
X81511998Y-98274185D01*
X82864790Y-99123286D02*
X79878854Y-98833143D01*
X79989385Y-97695643D01*
X80159205Y-97425084D01*
X80315209Y-97296713D01*
X80613400Y-97182159D01*
X81039962Y-97223608D01*
X81310521Y-97393428D01*
X81438892Y-97549431D01*
X81553447Y-97847623D01*
X81442916Y-98985122D01*
X81730093Y-95887761D02*
X81983007Y-94920272D01*
X83611738Y-94903070D02*
X83250433Y-96285197D01*
X80347966Y-95526455D01*
X80709272Y-94144329D01*
X81160135Y-92803179D02*
X84308822Y-93096051D01*
X81965596Y-90972541D01*
X89666234Y-86299336D02*
X87971276Y-83824035D01*
X91080692Y-85330789D02*
X89051301Y-84642741D01*
X89385734Y-82855487D02*
X88939823Y-85238493D01*
X86584714Y-88873962D02*
X86785871Y-88855195D01*
X86804638Y-89056352D01*
X86603481Y-89075119D01*
X86584714Y-88873962D01*
X86804638Y-89056352D01*
X85517382Y-85978331D02*
X87189100Y-87739955D01*
X87489398Y-87848868D01*
X87691359Y-87854157D01*
X87996945Y-87761109D01*
X88411445Y-87367763D01*
X88520358Y-87067466D01*
X88525647Y-86865504D01*
X88432599Y-86559918D01*
X86760881Y-84798295D01*
X89668437Y-86303699D02*
X87973536Y-83828359D01*
X91082917Y-85335184D02*
X89053542Y-84647090D01*
X89388016Y-82859844D02*
X88942051Y-85242839D01*
D10*
%TO.C,D2*%
X113400000Y-98400000D02*
X113400000Y-99600000D01*
X113400000Y-101600000D02*
X113400000Y-100400000D01*
X111600000Y-101600000D02*
X111600000Y-100400000D01*
X112000000Y-102000000D02*
X113000000Y-102000000D01*
X111600000Y-98400000D02*
X111600000Y-99600000D01*
%TO.C,D3*%
X111600000Y-93400000D02*
X111600000Y-94600000D01*
X113400000Y-93400000D02*
X113400000Y-94600000D01*
X111600000Y-96600000D02*
X111600000Y-95400000D01*
X113400000Y-96600000D02*
X113400000Y-95400000D01*
X112000000Y-97000000D02*
X113000000Y-97000000D01*
%TO.C,SW1*%
X85270000Y-96770000D02*
X85270000Y-103230000D01*
X91730000Y-103230000D02*
X91700000Y-103230000D01*
X85270000Y-96770000D02*
X85300000Y-96770000D01*
X85270000Y-103230000D02*
X85300000Y-103230000D01*
X91730000Y-96770000D02*
X91730000Y-103230000D01*
X91700000Y-96770000D02*
X91730000Y-96770000D01*
%TO.C,D1*%
X113400000Y-103400000D02*
X113400000Y-104600000D01*
X111600000Y-106600000D02*
X111600000Y-105400000D01*
X111600000Y-103400000D02*
X111600000Y-104600000D01*
X113400000Y-106600000D02*
X113400000Y-105400000D01*
X112000000Y-107000000D02*
X113000000Y-107000000D01*
%TO.C,C7*%
X101075000Y-91260000D02*
X101675000Y-91260000D01*
X101075000Y-92260000D02*
X101675000Y-92260000D01*
%TO.C,C3*%
X104300000Y-84385000D02*
X104300000Y-83785000D01*
X103300000Y-84385000D02*
X103300000Y-83785000D01*
%TO.C,C5*%
X101400000Y-85335000D02*
X102000000Y-85335000D01*
X101400000Y-84335000D02*
X102000000Y-84335000D01*
%TO.C,R6*%
X108700000Y-91860000D02*
X109300000Y-91860000D01*
X108700000Y-92860000D02*
X109300000Y-92860000D01*
%TO.C,R4*%
X93600000Y-85335000D02*
X94200000Y-85335000D01*
X93600000Y-84335000D02*
X94200000Y-84335000D01*
%TO.C,C13*%
X106650000Y-95860000D02*
X106650000Y-96460000D01*
X105650000Y-95860000D02*
X105650000Y-96460000D01*
%TO.C,C14*%
X105100000Y-94360000D02*
X105700000Y-94360000D01*
X105100000Y-93360000D02*
X105700000Y-93360000D01*
%TO.C,C9*%
X93575000Y-90810000D02*
X94175000Y-90810000D01*
X93575000Y-91810000D02*
X94175000Y-91810000D01*
%TO.C,C16*%
X93575000Y-93560000D02*
X94175000Y-93560000D01*
X93575000Y-94560000D02*
X94175000Y-94560000D01*
%TO.C,R9*%
X108700000Y-96360000D02*
X109300000Y-96360000D01*
X108700000Y-97360000D02*
X109300000Y-97360000D01*
%TO.C,R8*%
X108700000Y-98860000D02*
X109300000Y-98860000D01*
X108700000Y-97860000D02*
X109300000Y-97860000D01*
%TO.C,R11*%
X99800000Y-102010000D02*
X99800000Y-101410000D01*
X98800000Y-102010000D02*
X98800000Y-101410000D01*
%TO.C,U1*%
X96890000Y-93450000D02*
X97365000Y-93450000D01*
X96890000Y-99195000D02*
X96890000Y-99670000D01*
X96890000Y-93925000D02*
X96890000Y-93450000D01*
X103110000Y-99670000D02*
X102635000Y-99670000D01*
X103110000Y-99195000D02*
X103110000Y-99670000D01*
X103110000Y-93925000D02*
X103110000Y-93450000D01*
X96890000Y-99670000D02*
X97365000Y-99670000D01*
%TO.C,C17*%
X94175000Y-98560000D02*
X93575000Y-98560000D01*
X94175000Y-99560000D02*
X93575000Y-99560000D01*
%TO.C,C12*%
X98925000Y-89910000D02*
X98325000Y-89910000D01*
X98925000Y-90910000D02*
X98325000Y-90910000D01*
%TO.C,R5*%
X93600000Y-89110000D02*
X93600000Y-89710000D01*
X92600000Y-89110000D02*
X92600000Y-89710000D01*
%TO.C,R7*%
X108700000Y-94360000D02*
X109300000Y-94360000D01*
X108700000Y-93360000D02*
X109300000Y-93360000D01*
%TO.C,R10*%
X108700000Y-95860000D02*
X109300000Y-95860000D01*
X108700000Y-94860000D02*
X109300000Y-94860000D01*
%TO.C,C18*%
X98200000Y-102010000D02*
X98200000Y-101410000D01*
X97200000Y-102010000D02*
X97200000Y-101410000D01*
%TO.C,C11*%
X104150000Y-95860000D02*
X104150000Y-96460000D01*
X105150000Y-95860000D02*
X105150000Y-96460000D01*
%TO.C,C8*%
X93600000Y-87060000D02*
X93600000Y-86460000D01*
X92600000Y-87060000D02*
X92600000Y-86460000D01*
%TO.C,C10*%
X101075000Y-90910000D02*
X101675000Y-90910000D01*
X101075000Y-89910000D02*
X101675000Y-89910000D01*
%TO.C,C1*%
X102000000Y-82800000D02*
X101400000Y-82800000D01*
X102000000Y-83800000D02*
X101400000Y-83800000D01*
%TO.C,C6*%
X98600000Y-85335000D02*
X98000000Y-85335000D01*
X98600000Y-84335000D02*
X98000000Y-84335000D01*
%TO.C,R15*%
X106100000Y-102010000D02*
X106100000Y-101410000D01*
X105100000Y-102010000D02*
X105100000Y-101410000D01*
%TO.C,JP1*%
X93250000Y-100960000D02*
X96050000Y-100960000D01*
X92600000Y-102260000D02*
X92600000Y-101660000D01*
X96050000Y-102960000D02*
X93250000Y-102960000D01*
X96700000Y-101660000D02*
X96700000Y-102260000D01*
X96700000Y-101660000D02*
G75*
G03*
X96000000Y-100960000I-700000J0D01*
G01*
X92600000Y-102260000D02*
G75*
G03*
X93300000Y-102960000I699999J-1D01*
G01*
X93300000Y-100960000D02*
G75*
G03*
X92600000Y-101660000I-1J-699999D01*
G01*
X96000000Y-102960000D02*
G75*
G03*
X96700000Y-102260000I0J700000D01*
G01*
%TO.C,R13*%
X101350000Y-101960000D02*
X101950000Y-101960000D01*
X101350000Y-102960000D02*
X101950000Y-102960000D01*
%TO.C,C15*%
X93575000Y-92160000D02*
X94175000Y-92160000D01*
X93575000Y-93160000D02*
X94175000Y-93160000D01*
%TO.C,R14*%
X101950000Y-100460000D02*
X101350000Y-100460000D01*
X101950000Y-101460000D02*
X101350000Y-101460000D01*
%TO.C,L1*%
X101881748Y-87089774D02*
X102779774Y-86191748D01*
X103720226Y-88928252D02*
X104618252Y-88030226D01*
%TO.C,L2*%
X97220226Y-86191748D02*
X98118252Y-87089774D01*
X95381748Y-88030226D02*
X96279774Y-88928252D01*
%TO.C,C4*%
X95700000Y-83785000D02*
X95700000Y-84385000D01*
X96700000Y-83785000D02*
X96700000Y-84385000D01*
%TO.C,R12*%
X103500000Y-101410000D02*
X103500000Y-102010000D01*
X104500000Y-101410000D02*
X104500000Y-102010000D01*
%TO.C,D5*%
X107750000Y-89435000D02*
X108350000Y-89435000D01*
%TO.C,C19*%
X108700000Y-105260000D02*
X109300000Y-105260000D01*
X108700000Y-104260000D02*
X109300000Y-104260000D01*
%TO.C,D4*%
X107750000Y-99235000D02*
X108350000Y-99235000D01*
%TO.C,D6*%
X110250000Y-103885000D02*
X109650000Y-103885000D01*
%TO.C,C2*%
X98600000Y-82800000D02*
X98000000Y-82800000D01*
X98600000Y-83800000D02*
X98000000Y-83800000D01*
%TO.C,R2*%
X99300000Y-78890000D02*
X99300000Y-78290000D01*
X100700000Y-78890000D02*
X100700000Y-78290000D01*
%TO.C,R3*%
X101270000Y-80790000D02*
X101270000Y-80190000D01*
X102270000Y-80790000D02*
X102270000Y-80190000D01*
%TO.C,R1*%
X97730000Y-80790000D02*
X97730000Y-80190000D01*
X98730000Y-80790000D02*
X98730000Y-80190000D01*
%TD*%
M02*
