M48
; DRILL file {KiCad (6.0.5-0)} date Monday, 15 August 2022 at 15:59:54
; FORMAT={-:-/ absolute / inch / decimal}
; #@! TF.CreationDate,2022-08-15T15:59:54+01:00
; #@! TF.GenerationSoftware,Kicad,Pcbnew,(6.0.5-0)
; #@! TF.FileFunction,Plated,1,2,PTH
FMAT,2
INCH
; #@! TA.AperFunction,Plated,PTH,ComponentDrill
T1C0.0098
; #@! TA.AperFunction,Plated,PTH,ViaDrill
T2C0.0157
; #@! TA.AperFunction,Plated,PTH,ComponentDrill
T3C0.0709
%
G90
G05
T1
X3.8378Y-3.1374
X3.8996Y-3.0547
X3.9744Y-3.0547
T2
X3.6299Y-3.5201
X3.6339Y-4.0551
X3.6614Y-3.9423
X3.7087Y-3.5535
X3.7776Y-3.7297
X3.7962Y-3.6411
X3.821Y-3.9346
X3.8266Y-4.0834
X3.8327Y-3.6126
X3.8885Y-4.0972
X3.8976Y-3.7622
X3.8976Y-3.8409
X3.9182Y-3.5922
X3.937Y-3.5191
X3.937Y-3.8031
X3.937Y-4.1043
X3.9764Y-3.7622
X3.9764Y-3.8425
X4.0273Y-4.1142
X4.0551Y-4.0846
X4.1043Y-3.6122
X4.1102Y-3.9315
X4.1437Y-3.5801
X4.1437Y-3.648
X4.1509Y-4.1004
X4.1541Y-3.8348
X4.1801Y-3.6244
X4.1831Y-4.0748
X4.2165Y-3.6598
X4.2165Y-3.9551
X4.2165Y-4.0339
X4.2913Y-3.5801
X4.2913Y-3.9187
X4.2913Y-4.0211
X4.2913Y-4.0878
X4.2919Y-3.7891
X4.3622Y-3.563
X4.4193Y-4.0354
T3
X4.4291Y-3.7402
X4.4291Y-3.937
X4.4291Y-4.1339
T0
M30
