M48
; DRILL file {KiCad (6.0.0-0)} date Saturday, 01 January 2022 at 11:49:21
; FORMAT={-:-/ absolute / inch / decimal}
; #@! TF.CreationDate,2022-01-01T11:49:21+00:00
; #@! TF.GenerationSoftware,Kicad,Pcbnew,(6.0.0-0)
; #@! TF.FileFunction,Plated,1,2,PTH
FMAT,2
INCH
; #@! TA.AperFunction,Plated,PTH,ComponentDrill
T1C0.0098
; #@! TA.AperFunction,Plated,PTH,ViaDrill
T2C0.0157
; #@! TA.AperFunction,Plated,PTH,ComponentDrill
T3C0.0315
; #@! TA.AperFunction,Plated,PTH,ComponentDrill
T4C0.0335
; #@! TA.AperFunction,Plated,PTH,ComponentDrill
T5C0.0394
; #@! TA.AperFunction,Plated,PTH,ComponentDrill
T6C0.0433
; #@! TA.AperFunction,Plated,PTH,ComponentDrill
T7C0.1260
%
G90
G05
T1
X3.8583Y-3.2677
X3.8976Y-3.8976
X3.8976Y-3.9764
X3.937Y-3.189
X3.937Y-3.937
X3.9764Y-3.8976
X3.9764Y-3.9764
X4.0157Y-3.2677
T2
X3.6024Y-4.1732
X3.6663Y-3.6949
X3.6703Y-4.0778
X3.6929Y-3.7992
X3.7165Y-4.0787
X3.7403Y-3.804
X3.7913Y-4.0787
X3.7972Y-3.7539
X3.8465Y-3.685
X3.9036Y-3.685
X3.937Y-3.6024
X4.0571Y-3.6949
X4.0571Y-3.7539
X4.123Y-3.7884
X4.1442Y-4.2293
X4.1694Y-3.6839
X4.1811Y-3.7795
X4.1826Y-3.9936
X4.1829Y-4.2222
X4.2008Y-4.1417
X4.2175Y-3.7299
X4.2201Y-3.7996
X4.222Y-4.0843
X4.2874Y-3.7244
X4.2913Y-4.0541
X4.2913Y-4.1535
X4.2913Y-4.2165
X4.356Y-3.8438
X4.3578Y-3.7943
X4.3661Y-4.0118
X4.4094Y-3.4016
X4.4094Y-3.5276
X4.4094Y-3.6378
X4.4094Y-3.7638
X4.4094Y-3.8307
X4.4094Y-3.874
X4.4094Y-4.0
T3
X3.8878Y-3.6378
X3.9862Y-3.6378
T4
X3.7894Y-4.2874
X3.8878Y-4.2874
X3.9862Y-4.2874
X4.0846Y-4.2874
T5
X3.787Y-4.4094
X3.887Y-4.4094
X3.987Y-4.4094
X4.087Y-4.4094
X4.4094Y-4.1232
X4.4094Y-4.2232
T6
X3.3957Y-3.8091
X3.3957Y-4.065
X3.5728Y-3.8091
X3.5728Y-4.065
T7
X3.4646Y-3.4646
X4.4094Y-4.4094
T0
M30
