%TF.GenerationSoftware,KiCad,Pcbnew,(5.1.9-0-10_14)*%
%TF.CreationDate,2021-07-24T09:59:56+01:00*%
%TF.ProjectId,PN532,504e3533-322e-46b6-9963-61645f706362,7*%
%TF.SameCoordinates,Original*%
%TF.FileFunction,Paste,Top*%
%TF.FilePolarity,Positive*%
%FSLAX46Y46*%
G04 Gerber Fmt 4.6, Leading zero omitted, Abs format (unit mm)*
G04 Created by KiCad (PCBNEW (5.1.9-0-10_14)) date 2021-07-24 09:59:56*
%MOMM*%
%LPD*%
G01*
G04 APERTURE LIST*
%ADD10R,1.170000X1.800000*%
%ADD11R,1.350000X0.450000*%
%ADD12R,0.585000X0.360000*%
%ADD13R,0.535000X1.210000*%
G04 APERTURE END LIST*
%TO.C,D3*%
G36*
G01*
X112562500Y-87325000D02*
X111437500Y-87325000D01*
G75*
G02*
X111325000Y-87212500I0J112500D01*
G01*
X111325000Y-86987500D01*
G75*
G02*
X111437500Y-86875000I112500J0D01*
G01*
X112562500Y-86875000D01*
G75*
G02*
X112675000Y-86987500I0J-112500D01*
G01*
X112675000Y-87212500D01*
G75*
G02*
X112562500Y-87325000I-112500J0D01*
G01*
G37*
G36*
G01*
X112562500Y-89125000D02*
X111437500Y-89125000D01*
G75*
G02*
X111325000Y-89012500I0J112500D01*
G01*
X111325000Y-88787500D01*
G75*
G02*
X111437500Y-88675000I112500J0D01*
G01*
X112562500Y-88675000D01*
G75*
G02*
X112675000Y-88787500I0J-112500D01*
G01*
X112675000Y-89012500D01*
G75*
G02*
X112562500Y-89125000I-112500J0D01*
G01*
G37*
%TD*%
%TO.C,D2*%
G36*
G01*
X112562500Y-93325000D02*
X111437500Y-93325000D01*
G75*
G02*
X111325000Y-93212500I0J112500D01*
G01*
X111325000Y-92987500D01*
G75*
G02*
X111437500Y-92875000I112500J0D01*
G01*
X112562500Y-92875000D01*
G75*
G02*
X112675000Y-92987500I0J-112500D01*
G01*
X112675000Y-93212500D01*
G75*
G02*
X112562500Y-93325000I-112500J0D01*
G01*
G37*
G36*
G01*
X112562500Y-95125000D02*
X111437500Y-95125000D01*
G75*
G02*
X111325000Y-95012500I0J112500D01*
G01*
X111325000Y-94787500D01*
G75*
G02*
X111437500Y-94675000I112500J0D01*
G01*
X112562500Y-94675000D01*
G75*
G02*
X112675000Y-94787500I0J-112500D01*
G01*
X112675000Y-95012500D01*
G75*
G02*
X112562500Y-95125000I-112500J0D01*
G01*
G37*
%TD*%
%TO.C,D1*%
G36*
G01*
X112562500Y-99325000D02*
X111437500Y-99325000D01*
G75*
G02*
X111325000Y-99212500I0J112500D01*
G01*
X111325000Y-98987500D01*
G75*
G02*
X111437500Y-98875000I112500J0D01*
G01*
X112562500Y-98875000D01*
G75*
G02*
X112675000Y-98987500I0J-112500D01*
G01*
X112675000Y-99212500D01*
G75*
G02*
X112562500Y-99325000I-112500J0D01*
G01*
G37*
G36*
G01*
X112562500Y-101125000D02*
X111437500Y-101125000D01*
G75*
G02*
X111325000Y-101012500I0J112500D01*
G01*
X111325000Y-100787500D01*
G75*
G02*
X111437500Y-100675000I112500J0D01*
G01*
X112562500Y-100675000D01*
G75*
G02*
X112675000Y-100787500I0J-112500D01*
G01*
X112675000Y-101012500D01*
G75*
G02*
X112562500Y-101125000I-112500J0D01*
G01*
G37*
%TD*%
%TO.C,U1*%
G36*
G01*
X98312500Y-98125000D02*
X98687500Y-98125000D01*
G75*
G02*
X98875000Y-98312500I0J-187500D01*
G01*
X98875000Y-98687500D01*
G75*
G02*
X98687500Y-98875000I-187500J0D01*
G01*
X98312500Y-98875000D01*
G75*
G02*
X98125000Y-98687500I0J187500D01*
G01*
X98125000Y-98312500D01*
G75*
G02*
X98312500Y-98125000I187500J0D01*
G01*
G37*
G36*
G01*
X98312500Y-99625000D02*
X98687500Y-99625000D01*
G75*
G02*
X98875000Y-99812500I0J-187500D01*
G01*
X98875000Y-100187500D01*
G75*
G02*
X98687500Y-100375000I-187500J0D01*
G01*
X98312500Y-100375000D01*
G75*
G02*
X98125000Y-100187500I0J187500D01*
G01*
X98125000Y-99812500D01*
G75*
G02*
X98312500Y-99625000I187500J0D01*
G01*
G37*
G36*
G01*
X98312500Y-101125000D02*
X98687500Y-101125000D01*
G75*
G02*
X98875000Y-101312500I0J-187500D01*
G01*
X98875000Y-101687500D01*
G75*
G02*
X98687500Y-101875000I-187500J0D01*
G01*
X98312500Y-101875000D01*
G75*
G02*
X98125000Y-101687500I0J187500D01*
G01*
X98125000Y-101312500D01*
G75*
G02*
X98312500Y-101125000I187500J0D01*
G01*
G37*
G36*
G01*
X99812500Y-98125000D02*
X100187500Y-98125000D01*
G75*
G02*
X100375000Y-98312500I0J-187500D01*
G01*
X100375000Y-98687500D01*
G75*
G02*
X100187500Y-98875000I-187500J0D01*
G01*
X99812500Y-98875000D01*
G75*
G02*
X99625000Y-98687500I0J187500D01*
G01*
X99625000Y-98312500D01*
G75*
G02*
X99812500Y-98125000I187500J0D01*
G01*
G37*
G36*
G01*
X99812500Y-101125000D02*
X100187500Y-101125000D01*
G75*
G02*
X100375000Y-101312500I0J-187500D01*
G01*
X100375000Y-101687500D01*
G75*
G02*
X100187500Y-101875000I-187500J0D01*
G01*
X99812500Y-101875000D01*
G75*
G02*
X99625000Y-101687500I0J187500D01*
G01*
X99625000Y-101312500D01*
G75*
G02*
X99812500Y-101125000I187500J0D01*
G01*
G37*
G36*
G01*
X101312500Y-101125000D02*
X101687500Y-101125000D01*
G75*
G02*
X101875000Y-101312500I0J-187500D01*
G01*
X101875000Y-101687500D01*
G75*
G02*
X101687500Y-101875000I-187500J0D01*
G01*
X101312500Y-101875000D01*
G75*
G02*
X101125000Y-101687500I0J187500D01*
G01*
X101125000Y-101312500D01*
G75*
G02*
X101312500Y-101125000I187500J0D01*
G01*
G37*
G36*
G01*
X101312500Y-99625000D02*
X101687500Y-99625000D01*
G75*
G02*
X101875000Y-99812500I0J-187500D01*
G01*
X101875000Y-100187500D01*
G75*
G02*
X101687500Y-100375000I-187500J0D01*
G01*
X101312500Y-100375000D01*
G75*
G02*
X101125000Y-100187500I0J187500D01*
G01*
X101125000Y-99812500D01*
G75*
G02*
X101312500Y-99625000I187500J0D01*
G01*
G37*
G36*
G01*
X101312500Y-98125000D02*
X101687500Y-98125000D01*
G75*
G02*
X101875000Y-98312500I0J-187500D01*
G01*
X101875000Y-98687500D01*
G75*
G02*
X101687500Y-98875000I-187500J0D01*
G01*
X101312500Y-98875000D01*
G75*
G02*
X101125000Y-98687500I0J187500D01*
G01*
X101125000Y-98312500D01*
G75*
G02*
X101312500Y-98125000I187500J0D01*
G01*
G37*
G36*
G01*
X102641250Y-97637500D02*
X103158750Y-97637500D01*
G75*
G02*
X103215000Y-97693750I0J-56250D01*
G01*
X103215000Y-97806250D01*
G75*
G02*
X103158750Y-97862500I-56250J0D01*
G01*
X102641250Y-97862500D01*
G75*
G02*
X102585000Y-97806250I0J56250D01*
G01*
X102585000Y-97693750D01*
G75*
G02*
X102641250Y-97637500I56250J0D01*
G01*
G37*
G36*
G01*
X102641250Y-98137500D02*
X103158750Y-98137500D01*
G75*
G02*
X103215000Y-98193750I0J-56250D01*
G01*
X103215000Y-98306250D01*
G75*
G02*
X103158750Y-98362500I-56250J0D01*
G01*
X102641250Y-98362500D01*
G75*
G02*
X102585000Y-98306250I0J56250D01*
G01*
X102585000Y-98193750D01*
G75*
G02*
X102641250Y-98137500I56250J0D01*
G01*
G37*
G36*
G01*
X102641250Y-98637500D02*
X103158750Y-98637500D01*
G75*
G02*
X103215000Y-98693750I0J-56250D01*
G01*
X103215000Y-98806250D01*
G75*
G02*
X103158750Y-98862500I-56250J0D01*
G01*
X102641250Y-98862500D01*
G75*
G02*
X102585000Y-98806250I0J56250D01*
G01*
X102585000Y-98693750D01*
G75*
G02*
X102641250Y-98637500I56250J0D01*
G01*
G37*
G36*
G01*
X102641250Y-99137500D02*
X103158750Y-99137500D01*
G75*
G02*
X103215000Y-99193750I0J-56250D01*
G01*
X103215000Y-99306250D01*
G75*
G02*
X103158750Y-99362500I-56250J0D01*
G01*
X102641250Y-99362500D01*
G75*
G02*
X102585000Y-99306250I0J56250D01*
G01*
X102585000Y-99193750D01*
G75*
G02*
X102641250Y-99137500I56250J0D01*
G01*
G37*
G36*
G01*
X102641250Y-99637500D02*
X103158750Y-99637500D01*
G75*
G02*
X103215000Y-99693750I0J-56250D01*
G01*
X103215000Y-99806250D01*
G75*
G02*
X103158750Y-99862500I-56250J0D01*
G01*
X102641250Y-99862500D01*
G75*
G02*
X102585000Y-99806250I0J56250D01*
G01*
X102585000Y-99693750D01*
G75*
G02*
X102641250Y-99637500I56250J0D01*
G01*
G37*
G36*
G01*
X102641250Y-100137500D02*
X103158750Y-100137500D01*
G75*
G02*
X103215000Y-100193750I0J-56250D01*
G01*
X103215000Y-100306250D01*
G75*
G02*
X103158750Y-100362500I-56250J0D01*
G01*
X102641250Y-100362500D01*
G75*
G02*
X102585000Y-100306250I0J56250D01*
G01*
X102585000Y-100193750D01*
G75*
G02*
X102641250Y-100137500I56250J0D01*
G01*
G37*
G36*
G01*
X102641250Y-100637500D02*
X103158750Y-100637500D01*
G75*
G02*
X103215000Y-100693750I0J-56250D01*
G01*
X103215000Y-100806250D01*
G75*
G02*
X103158750Y-100862500I-56250J0D01*
G01*
X102641250Y-100862500D01*
G75*
G02*
X102585000Y-100806250I0J56250D01*
G01*
X102585000Y-100693750D01*
G75*
G02*
X102641250Y-100637500I56250J0D01*
G01*
G37*
G36*
G01*
X102641250Y-101137500D02*
X103158750Y-101137500D01*
G75*
G02*
X103215000Y-101193750I0J-56250D01*
G01*
X103215000Y-101306250D01*
G75*
G02*
X103158750Y-101362500I-56250J0D01*
G01*
X102641250Y-101362500D01*
G75*
G02*
X102585000Y-101306250I0J56250D01*
G01*
X102585000Y-101193750D01*
G75*
G02*
X102641250Y-101137500I56250J0D01*
G01*
G37*
G36*
G01*
X102641250Y-101637500D02*
X103158750Y-101637500D01*
G75*
G02*
X103215000Y-101693750I0J-56250D01*
G01*
X103215000Y-101806250D01*
G75*
G02*
X103158750Y-101862500I-56250J0D01*
G01*
X102641250Y-101862500D01*
G75*
G02*
X102585000Y-101806250I0J56250D01*
G01*
X102585000Y-101693750D01*
G75*
G02*
X102641250Y-101637500I56250J0D01*
G01*
G37*
G36*
G01*
X102641250Y-102137500D02*
X103158750Y-102137500D01*
G75*
G02*
X103215000Y-102193750I0J-56250D01*
G01*
X103215000Y-102306250D01*
G75*
G02*
X103158750Y-102362500I-56250J0D01*
G01*
X102641250Y-102362500D01*
G75*
G02*
X102585000Y-102306250I0J56250D01*
G01*
X102585000Y-102193750D01*
G75*
G02*
X102641250Y-102137500I56250J0D01*
G01*
G37*
G36*
G01*
X102193750Y-102585000D02*
X102306250Y-102585000D01*
G75*
G02*
X102362500Y-102641250I0J-56250D01*
G01*
X102362500Y-103158750D01*
G75*
G02*
X102306250Y-103215000I-56250J0D01*
G01*
X102193750Y-103215000D01*
G75*
G02*
X102137500Y-103158750I0J56250D01*
G01*
X102137500Y-102641250D01*
G75*
G02*
X102193750Y-102585000I56250J0D01*
G01*
G37*
G36*
G01*
X101693750Y-102585000D02*
X101806250Y-102585000D01*
G75*
G02*
X101862500Y-102641250I0J-56250D01*
G01*
X101862500Y-103158750D01*
G75*
G02*
X101806250Y-103215000I-56250J0D01*
G01*
X101693750Y-103215000D01*
G75*
G02*
X101637500Y-103158750I0J56250D01*
G01*
X101637500Y-102641250D01*
G75*
G02*
X101693750Y-102585000I56250J0D01*
G01*
G37*
G36*
G01*
X101193750Y-102585000D02*
X101306250Y-102585000D01*
G75*
G02*
X101362500Y-102641250I0J-56250D01*
G01*
X101362500Y-103158750D01*
G75*
G02*
X101306250Y-103215000I-56250J0D01*
G01*
X101193750Y-103215000D01*
G75*
G02*
X101137500Y-103158750I0J56250D01*
G01*
X101137500Y-102641250D01*
G75*
G02*
X101193750Y-102585000I56250J0D01*
G01*
G37*
G36*
G01*
X100693750Y-102585000D02*
X100806250Y-102585000D01*
G75*
G02*
X100862500Y-102641250I0J-56250D01*
G01*
X100862500Y-103158750D01*
G75*
G02*
X100806250Y-103215000I-56250J0D01*
G01*
X100693750Y-103215000D01*
G75*
G02*
X100637500Y-103158750I0J56250D01*
G01*
X100637500Y-102641250D01*
G75*
G02*
X100693750Y-102585000I56250J0D01*
G01*
G37*
G36*
G01*
X100193750Y-102585000D02*
X100306250Y-102585000D01*
G75*
G02*
X100362500Y-102641250I0J-56250D01*
G01*
X100362500Y-103158750D01*
G75*
G02*
X100306250Y-103215000I-56250J0D01*
G01*
X100193750Y-103215000D01*
G75*
G02*
X100137500Y-103158750I0J56250D01*
G01*
X100137500Y-102641250D01*
G75*
G02*
X100193750Y-102585000I56250J0D01*
G01*
G37*
G36*
G01*
X99693750Y-102585000D02*
X99806250Y-102585000D01*
G75*
G02*
X99862500Y-102641250I0J-56250D01*
G01*
X99862500Y-103158750D01*
G75*
G02*
X99806250Y-103215000I-56250J0D01*
G01*
X99693750Y-103215000D01*
G75*
G02*
X99637500Y-103158750I0J56250D01*
G01*
X99637500Y-102641250D01*
G75*
G02*
X99693750Y-102585000I56250J0D01*
G01*
G37*
G36*
G01*
X99193750Y-102585000D02*
X99306250Y-102585000D01*
G75*
G02*
X99362500Y-102641250I0J-56250D01*
G01*
X99362500Y-103158750D01*
G75*
G02*
X99306250Y-103215000I-56250J0D01*
G01*
X99193750Y-103215000D01*
G75*
G02*
X99137500Y-103158750I0J56250D01*
G01*
X99137500Y-102641250D01*
G75*
G02*
X99193750Y-102585000I56250J0D01*
G01*
G37*
G36*
G01*
X98693750Y-102585000D02*
X98806250Y-102585000D01*
G75*
G02*
X98862500Y-102641250I0J-56250D01*
G01*
X98862500Y-103158750D01*
G75*
G02*
X98806250Y-103215000I-56250J0D01*
G01*
X98693750Y-103215000D01*
G75*
G02*
X98637500Y-103158750I0J56250D01*
G01*
X98637500Y-102641250D01*
G75*
G02*
X98693750Y-102585000I56250J0D01*
G01*
G37*
G36*
G01*
X98193750Y-102585000D02*
X98306250Y-102585000D01*
G75*
G02*
X98362500Y-102641250I0J-56250D01*
G01*
X98362500Y-103158750D01*
G75*
G02*
X98306250Y-103215000I-56250J0D01*
G01*
X98193750Y-103215000D01*
G75*
G02*
X98137500Y-103158750I0J56250D01*
G01*
X98137500Y-102641250D01*
G75*
G02*
X98193750Y-102585000I56250J0D01*
G01*
G37*
G36*
G01*
X97693750Y-102585000D02*
X97806250Y-102585000D01*
G75*
G02*
X97862500Y-102641250I0J-56250D01*
G01*
X97862500Y-103158750D01*
G75*
G02*
X97806250Y-103215000I-56250J0D01*
G01*
X97693750Y-103215000D01*
G75*
G02*
X97637500Y-103158750I0J56250D01*
G01*
X97637500Y-102641250D01*
G75*
G02*
X97693750Y-102585000I56250J0D01*
G01*
G37*
G36*
G01*
X96841250Y-102137500D02*
X97358750Y-102137500D01*
G75*
G02*
X97415000Y-102193750I0J-56250D01*
G01*
X97415000Y-102306250D01*
G75*
G02*
X97358750Y-102362500I-56250J0D01*
G01*
X96841250Y-102362500D01*
G75*
G02*
X96785000Y-102306250I0J56250D01*
G01*
X96785000Y-102193750D01*
G75*
G02*
X96841250Y-102137500I56250J0D01*
G01*
G37*
G36*
G01*
X96841250Y-101637500D02*
X97358750Y-101637500D01*
G75*
G02*
X97415000Y-101693750I0J-56250D01*
G01*
X97415000Y-101806250D01*
G75*
G02*
X97358750Y-101862500I-56250J0D01*
G01*
X96841250Y-101862500D01*
G75*
G02*
X96785000Y-101806250I0J56250D01*
G01*
X96785000Y-101693750D01*
G75*
G02*
X96841250Y-101637500I56250J0D01*
G01*
G37*
G36*
G01*
X96841250Y-101137500D02*
X97358750Y-101137500D01*
G75*
G02*
X97415000Y-101193750I0J-56250D01*
G01*
X97415000Y-101306250D01*
G75*
G02*
X97358750Y-101362500I-56250J0D01*
G01*
X96841250Y-101362500D01*
G75*
G02*
X96785000Y-101306250I0J56250D01*
G01*
X96785000Y-101193750D01*
G75*
G02*
X96841250Y-101137500I56250J0D01*
G01*
G37*
G36*
G01*
X96841250Y-100637500D02*
X97358750Y-100637500D01*
G75*
G02*
X97415000Y-100693750I0J-56250D01*
G01*
X97415000Y-100806250D01*
G75*
G02*
X97358750Y-100862500I-56250J0D01*
G01*
X96841250Y-100862500D01*
G75*
G02*
X96785000Y-100806250I0J56250D01*
G01*
X96785000Y-100693750D01*
G75*
G02*
X96841250Y-100637500I56250J0D01*
G01*
G37*
G36*
G01*
X96841250Y-100137500D02*
X97358750Y-100137500D01*
G75*
G02*
X97415000Y-100193750I0J-56250D01*
G01*
X97415000Y-100306250D01*
G75*
G02*
X97358750Y-100362500I-56250J0D01*
G01*
X96841250Y-100362500D01*
G75*
G02*
X96785000Y-100306250I0J56250D01*
G01*
X96785000Y-100193750D01*
G75*
G02*
X96841250Y-100137500I56250J0D01*
G01*
G37*
G36*
G01*
X96841250Y-99637500D02*
X97358750Y-99637500D01*
G75*
G02*
X97415000Y-99693750I0J-56250D01*
G01*
X97415000Y-99806250D01*
G75*
G02*
X97358750Y-99862500I-56250J0D01*
G01*
X96841250Y-99862500D01*
G75*
G02*
X96785000Y-99806250I0J56250D01*
G01*
X96785000Y-99693750D01*
G75*
G02*
X96841250Y-99637500I56250J0D01*
G01*
G37*
G36*
G01*
X96841250Y-99137500D02*
X97358750Y-99137500D01*
G75*
G02*
X97415000Y-99193750I0J-56250D01*
G01*
X97415000Y-99306250D01*
G75*
G02*
X97358750Y-99362500I-56250J0D01*
G01*
X96841250Y-99362500D01*
G75*
G02*
X96785000Y-99306250I0J56250D01*
G01*
X96785000Y-99193750D01*
G75*
G02*
X96841250Y-99137500I56250J0D01*
G01*
G37*
G36*
G01*
X96841250Y-98637500D02*
X97358750Y-98637500D01*
G75*
G02*
X97415000Y-98693750I0J-56250D01*
G01*
X97415000Y-98806250D01*
G75*
G02*
X97358750Y-98862500I-56250J0D01*
G01*
X96841250Y-98862500D01*
G75*
G02*
X96785000Y-98806250I0J56250D01*
G01*
X96785000Y-98693750D01*
G75*
G02*
X96841250Y-98637500I56250J0D01*
G01*
G37*
G36*
G01*
X96841250Y-98137500D02*
X97358750Y-98137500D01*
G75*
G02*
X97415000Y-98193750I0J-56250D01*
G01*
X97415000Y-98306250D01*
G75*
G02*
X97358750Y-98362500I-56250J0D01*
G01*
X96841250Y-98362500D01*
G75*
G02*
X96785000Y-98306250I0J56250D01*
G01*
X96785000Y-98193750D01*
G75*
G02*
X96841250Y-98137500I56250J0D01*
G01*
G37*
G36*
G01*
X96841250Y-97637500D02*
X97358750Y-97637500D01*
G75*
G02*
X97415000Y-97693750I0J-56250D01*
G01*
X97415000Y-97806250D01*
G75*
G02*
X97358750Y-97862500I-56250J0D01*
G01*
X96841250Y-97862500D01*
G75*
G02*
X96785000Y-97806250I0J56250D01*
G01*
X96785000Y-97693750D01*
G75*
G02*
X96841250Y-97637500I56250J0D01*
G01*
G37*
G36*
G01*
X97693750Y-96785000D02*
X97806250Y-96785000D01*
G75*
G02*
X97862500Y-96841250I0J-56250D01*
G01*
X97862500Y-97358750D01*
G75*
G02*
X97806250Y-97415000I-56250J0D01*
G01*
X97693750Y-97415000D01*
G75*
G02*
X97637500Y-97358750I0J56250D01*
G01*
X97637500Y-96841250D01*
G75*
G02*
X97693750Y-96785000I56250J0D01*
G01*
G37*
G36*
G01*
X98193750Y-96785000D02*
X98306250Y-96785000D01*
G75*
G02*
X98362500Y-96841250I0J-56250D01*
G01*
X98362500Y-97358750D01*
G75*
G02*
X98306250Y-97415000I-56250J0D01*
G01*
X98193750Y-97415000D01*
G75*
G02*
X98137500Y-97358750I0J56250D01*
G01*
X98137500Y-96841250D01*
G75*
G02*
X98193750Y-96785000I56250J0D01*
G01*
G37*
G36*
G01*
X98693750Y-96785000D02*
X98806250Y-96785000D01*
G75*
G02*
X98862500Y-96841250I0J-56250D01*
G01*
X98862500Y-97358750D01*
G75*
G02*
X98806250Y-97415000I-56250J0D01*
G01*
X98693750Y-97415000D01*
G75*
G02*
X98637500Y-97358750I0J56250D01*
G01*
X98637500Y-96841250D01*
G75*
G02*
X98693750Y-96785000I56250J0D01*
G01*
G37*
G36*
G01*
X99193750Y-96785000D02*
X99306250Y-96785000D01*
G75*
G02*
X99362500Y-96841250I0J-56250D01*
G01*
X99362500Y-97358750D01*
G75*
G02*
X99306250Y-97415000I-56250J0D01*
G01*
X99193750Y-97415000D01*
G75*
G02*
X99137500Y-97358750I0J56250D01*
G01*
X99137500Y-96841250D01*
G75*
G02*
X99193750Y-96785000I56250J0D01*
G01*
G37*
G36*
G01*
X99693750Y-96785000D02*
X99806250Y-96785000D01*
G75*
G02*
X99862500Y-96841250I0J-56250D01*
G01*
X99862500Y-97358750D01*
G75*
G02*
X99806250Y-97415000I-56250J0D01*
G01*
X99693750Y-97415000D01*
G75*
G02*
X99637500Y-97358750I0J56250D01*
G01*
X99637500Y-96841250D01*
G75*
G02*
X99693750Y-96785000I56250J0D01*
G01*
G37*
G36*
G01*
X100193750Y-96785000D02*
X100306250Y-96785000D01*
G75*
G02*
X100362500Y-96841250I0J-56250D01*
G01*
X100362500Y-97358750D01*
G75*
G02*
X100306250Y-97415000I-56250J0D01*
G01*
X100193750Y-97415000D01*
G75*
G02*
X100137500Y-97358750I0J56250D01*
G01*
X100137500Y-96841250D01*
G75*
G02*
X100193750Y-96785000I56250J0D01*
G01*
G37*
G36*
G01*
X100693750Y-96785000D02*
X100806250Y-96785000D01*
G75*
G02*
X100862500Y-96841250I0J-56250D01*
G01*
X100862500Y-97358750D01*
G75*
G02*
X100806250Y-97415000I-56250J0D01*
G01*
X100693750Y-97415000D01*
G75*
G02*
X100637500Y-97358750I0J56250D01*
G01*
X100637500Y-96841250D01*
G75*
G02*
X100693750Y-96785000I56250J0D01*
G01*
G37*
G36*
G01*
X101193750Y-96785000D02*
X101306250Y-96785000D01*
G75*
G02*
X101362500Y-96841250I0J-56250D01*
G01*
X101362500Y-97358750D01*
G75*
G02*
X101306250Y-97415000I-56250J0D01*
G01*
X101193750Y-97415000D01*
G75*
G02*
X101137500Y-97358750I0J56250D01*
G01*
X101137500Y-96841250D01*
G75*
G02*
X101193750Y-96785000I56250J0D01*
G01*
G37*
G36*
G01*
X101693750Y-96785000D02*
X101806250Y-96785000D01*
G75*
G02*
X101862500Y-96841250I0J-56250D01*
G01*
X101862500Y-97358750D01*
G75*
G02*
X101806250Y-97415000I-56250J0D01*
G01*
X101693750Y-97415000D01*
G75*
G02*
X101637500Y-97358750I0J56250D01*
G01*
X101637500Y-96841250D01*
G75*
G02*
X101693750Y-96785000I56250J0D01*
G01*
G37*
G36*
G01*
X102193750Y-96785000D02*
X102306250Y-96785000D01*
G75*
G02*
X102362500Y-96841250I0J-56250D01*
G01*
X102362500Y-97358750D01*
G75*
G02*
X102306250Y-97415000I-56250J0D01*
G01*
X102193750Y-97415000D01*
G75*
G02*
X102137500Y-97358750I0J56250D01*
G01*
X102137500Y-96841250D01*
G75*
G02*
X102193750Y-96785000I56250J0D01*
G01*
G37*
%TD*%
D10*
%TO.C,SW1*%
X86250000Y-95800000D03*
X90750000Y-95800000D03*
X90750000Y-104200000D03*
X86250000Y-104200000D03*
%TD*%
D11*
%TO.C,A1*%
X100000000Y-83000000D03*
X100000000Y-81000000D03*
%TD*%
D12*
%TO.C,D6*%
X108050000Y-106950000D03*
X108050000Y-105650000D03*
X109950000Y-106300000D03*
X108050000Y-106300000D03*
X109950000Y-105650000D03*
X109950000Y-106950000D03*
%TD*%
%TO.C,D5*%
X109950000Y-103050000D03*
X109950000Y-104350000D03*
X108050000Y-103700000D03*
X109950000Y-103700000D03*
X108050000Y-104350000D03*
X108050000Y-103050000D03*
%TD*%
%TO.C,D4*%
X109950000Y-93250000D03*
X109950000Y-94550000D03*
X108050000Y-93900000D03*
X109950000Y-93900000D03*
X108050000Y-94550000D03*
X108050000Y-93250000D03*
%TD*%
%TO.C,C19*%
G36*
G01*
X109370000Y-108425000D02*
X109370000Y-107975000D01*
G75*
G02*
X109572500Y-107772500I202500J0D01*
G01*
X109977500Y-107772500D01*
G75*
G02*
X110180000Y-107975000I0J-202500D01*
G01*
X110180000Y-108425000D01*
G75*
G02*
X109977500Y-108627500I-202500J0D01*
G01*
X109572500Y-108627500D01*
G75*
G02*
X109370000Y-108425000I0J202500D01*
G01*
G37*
G36*
G01*
X107820000Y-108425000D02*
X107820000Y-107975000D01*
G75*
G02*
X108022500Y-107772500I202500J0D01*
G01*
X108427500Y-107772500D01*
G75*
G02*
X108630000Y-107975000I0J-202500D01*
G01*
X108630000Y-108425000D01*
G75*
G02*
X108427500Y-108627500I-202500J0D01*
G01*
X108022500Y-108627500D01*
G75*
G02*
X107820000Y-108425000I0J202500D01*
G01*
G37*
%TD*%
%TO.C,C4*%
G36*
G01*
X95975000Y-87870000D02*
X96425000Y-87870000D01*
G75*
G02*
X96627500Y-88072500I0J-202500D01*
G01*
X96627500Y-88477500D01*
G75*
G02*
X96425000Y-88680000I-202500J0D01*
G01*
X95975000Y-88680000D01*
G75*
G02*
X95772500Y-88477500I0J202500D01*
G01*
X95772500Y-88072500D01*
G75*
G02*
X95975000Y-87870000I202500J0D01*
G01*
G37*
G36*
G01*
X95975000Y-86320000D02*
X96425000Y-86320000D01*
G75*
G02*
X96627500Y-86522500I0J-202500D01*
G01*
X96627500Y-86927500D01*
G75*
G02*
X96425000Y-87130000I-202500J0D01*
G01*
X95975000Y-87130000D01*
G75*
G02*
X95772500Y-86927500I0J202500D01*
G01*
X95772500Y-86522500D01*
G75*
G02*
X95975000Y-86320000I202500J0D01*
G01*
G37*
%TD*%
%TO.C,C3*%
G36*
G01*
X104025000Y-87130000D02*
X103575000Y-87130000D01*
G75*
G02*
X103372500Y-86927500I0J202500D01*
G01*
X103372500Y-86522500D01*
G75*
G02*
X103575000Y-86320000I202500J0D01*
G01*
X104025000Y-86320000D01*
G75*
G02*
X104227500Y-86522500I0J-202500D01*
G01*
X104227500Y-86927500D01*
G75*
G02*
X104025000Y-87130000I-202500J0D01*
G01*
G37*
G36*
G01*
X104025000Y-88680000D02*
X103575000Y-88680000D01*
G75*
G02*
X103372500Y-88477500I0J202500D01*
G01*
X103372500Y-88072500D01*
G75*
G02*
X103575000Y-87870000I202500J0D01*
G01*
X104025000Y-87870000D01*
G75*
G02*
X104227500Y-88072500I0J-202500D01*
G01*
X104227500Y-88477500D01*
G75*
G02*
X104025000Y-88680000I-202500J0D01*
G01*
G37*
%TD*%
%TO.C,R14*%
G36*
G01*
X105352500Y-105615000D02*
X105847500Y-105615000D01*
G75*
G02*
X106027500Y-105795000I0J-180000D01*
G01*
X106027500Y-106155000D01*
G75*
G02*
X105847500Y-106335000I-180000J0D01*
G01*
X105352500Y-106335000D01*
G75*
G02*
X105172500Y-106155000I0J180000D01*
G01*
X105172500Y-105795000D01*
G75*
G02*
X105352500Y-105615000I180000J0D01*
G01*
G37*
G36*
G01*
X105352500Y-103965000D02*
X105847500Y-103965000D01*
G75*
G02*
X106027500Y-104145000I0J-180000D01*
G01*
X106027500Y-104505000D01*
G75*
G02*
X105847500Y-104685000I-180000J0D01*
G01*
X105352500Y-104685000D01*
G75*
G02*
X105172500Y-104505000I0J180000D01*
G01*
X105172500Y-104145000D01*
G75*
G02*
X105352500Y-103965000I180000J0D01*
G01*
G37*
%TD*%
%TO.C,C2*%
G36*
G01*
X99480000Y-85900000D02*
X99480000Y-86350000D01*
G75*
G02*
X99277500Y-86552500I-202500J0D01*
G01*
X98872500Y-86552500D01*
G75*
G02*
X98670000Y-86350000I0J202500D01*
G01*
X98670000Y-85900000D01*
G75*
G02*
X98872500Y-85697500I202500J0D01*
G01*
X99277500Y-85697500D01*
G75*
G02*
X99480000Y-85900000I0J-202500D01*
G01*
G37*
G36*
G01*
X97930000Y-85900000D02*
X97930000Y-86350000D01*
G75*
G02*
X97727500Y-86552500I-202500J0D01*
G01*
X97322500Y-86552500D01*
G75*
G02*
X97120000Y-86350000I0J202500D01*
G01*
X97120000Y-85900000D01*
G75*
G02*
X97322500Y-85697500I202500J0D01*
G01*
X97727500Y-85697500D01*
G75*
G02*
X97930000Y-85900000I0J-202500D01*
G01*
G37*
G36*
G01*
X97930000Y-84700000D02*
X97930000Y-85150000D01*
G75*
G02*
X97727500Y-85352500I-202500J0D01*
G01*
X97322500Y-85352500D01*
G75*
G02*
X97120000Y-85150000I0J202500D01*
G01*
X97120000Y-84700000D01*
G75*
G02*
X97322500Y-84497500I202500J0D01*
G01*
X97727500Y-84497500D01*
G75*
G02*
X97930000Y-84700000I0J-202500D01*
G01*
G37*
G36*
G01*
X99480000Y-84700000D02*
X99480000Y-85150000D01*
G75*
G02*
X99277500Y-85352500I-202500J0D01*
G01*
X98872500Y-85352500D01*
G75*
G02*
X98670000Y-85150000I0J202500D01*
G01*
X98670000Y-84700000D01*
G75*
G02*
X98872500Y-84497500I202500J0D01*
G01*
X99277500Y-84497500D01*
G75*
G02*
X99480000Y-84700000I0J-202500D01*
G01*
G37*
%TD*%
%TO.C,C1*%
G36*
G01*
X102880000Y-85900000D02*
X102880000Y-86350000D01*
G75*
G02*
X102677500Y-86552500I-202500J0D01*
G01*
X102272500Y-86552500D01*
G75*
G02*
X102070000Y-86350000I0J202500D01*
G01*
X102070000Y-85900000D01*
G75*
G02*
X102272500Y-85697500I202500J0D01*
G01*
X102677500Y-85697500D01*
G75*
G02*
X102880000Y-85900000I0J-202500D01*
G01*
G37*
G36*
G01*
X101330000Y-85900000D02*
X101330000Y-86350000D01*
G75*
G02*
X101127500Y-86552500I-202500J0D01*
G01*
X100722500Y-86552500D01*
G75*
G02*
X100520000Y-86350000I0J202500D01*
G01*
X100520000Y-85900000D01*
G75*
G02*
X100722500Y-85697500I202500J0D01*
G01*
X101127500Y-85697500D01*
G75*
G02*
X101330000Y-85900000I0J-202500D01*
G01*
G37*
G36*
G01*
X101330000Y-84700000D02*
X101330000Y-85150000D01*
G75*
G02*
X101127500Y-85352500I-202500J0D01*
G01*
X100722500Y-85352500D01*
G75*
G02*
X100520000Y-85150000I0J202500D01*
G01*
X100520000Y-84700000D01*
G75*
G02*
X100722500Y-84497500I202500J0D01*
G01*
X101127500Y-84497500D01*
G75*
G02*
X101330000Y-84700000I0J-202500D01*
G01*
G37*
G36*
G01*
X102880000Y-84700000D02*
X102880000Y-85150000D01*
G75*
G02*
X102677500Y-85352500I-202500J0D01*
G01*
X102272500Y-85352500D01*
G75*
G02*
X102070000Y-85150000I0J202500D01*
G01*
X102070000Y-84700000D01*
G75*
G02*
X102272500Y-84497500I202500J0D01*
G01*
X102677500Y-84497500D01*
G75*
G02*
X102880000Y-84700000I0J-202500D01*
G01*
G37*
%TD*%
%TO.C,R13*%
G36*
G01*
X102115000Y-106147500D02*
X102115000Y-105652500D01*
G75*
G02*
X102295000Y-105472500I180000J0D01*
G01*
X102655000Y-105472500D01*
G75*
G02*
X102835000Y-105652500I0J-180000D01*
G01*
X102835000Y-106147500D01*
G75*
G02*
X102655000Y-106327500I-180000J0D01*
G01*
X102295000Y-106327500D01*
G75*
G02*
X102115000Y-106147500I0J180000D01*
G01*
G37*
G36*
G01*
X100465000Y-106147500D02*
X100465000Y-105652500D01*
G75*
G02*
X100645000Y-105472500I180000J0D01*
G01*
X101005000Y-105472500D01*
G75*
G02*
X101185000Y-105652500I0J-180000D01*
G01*
X101185000Y-106147500D01*
G75*
G02*
X101005000Y-106327500I-180000J0D01*
G01*
X100645000Y-106327500D01*
G75*
G02*
X100465000Y-106147500I0J180000D01*
G01*
G37*
%TD*%
%TO.C,R12*%
G36*
G01*
X101185000Y-104152500D02*
X101185000Y-104647500D01*
G75*
G02*
X101005000Y-104827500I-180000J0D01*
G01*
X100645000Y-104827500D01*
G75*
G02*
X100465000Y-104647500I0J180000D01*
G01*
X100465000Y-104152500D01*
G75*
G02*
X100645000Y-103972500I180000J0D01*
G01*
X101005000Y-103972500D01*
G75*
G02*
X101185000Y-104152500I0J-180000D01*
G01*
G37*
G36*
G01*
X102835000Y-104152500D02*
X102835000Y-104647500D01*
G75*
G02*
X102655000Y-104827500I-180000J0D01*
G01*
X102295000Y-104827500D01*
G75*
G02*
X102115000Y-104647500I0J180000D01*
G01*
X102115000Y-104152500D01*
G75*
G02*
X102295000Y-103972500I180000J0D01*
G01*
X102655000Y-103972500D01*
G75*
G02*
X102835000Y-104152500I0J-180000D01*
G01*
G37*
%TD*%
%TO.C,R11*%
G36*
G01*
X104247500Y-104685000D02*
X103752500Y-104685000D01*
G75*
G02*
X103572500Y-104505000I0J180000D01*
G01*
X103572500Y-104145000D01*
G75*
G02*
X103752500Y-103965000I180000J0D01*
G01*
X104247500Y-103965000D01*
G75*
G02*
X104427500Y-104145000I0J-180000D01*
G01*
X104427500Y-104505000D01*
G75*
G02*
X104247500Y-104685000I-180000J0D01*
G01*
G37*
G36*
G01*
X104247500Y-106335000D02*
X103752500Y-106335000D01*
G75*
G02*
X103572500Y-106155000I0J180000D01*
G01*
X103572500Y-105795000D01*
G75*
G02*
X103752500Y-105615000I180000J0D01*
G01*
X104247500Y-105615000D01*
G75*
G02*
X104427500Y-105795000I0J-180000D01*
G01*
X104427500Y-106155000D01*
G75*
G02*
X104247500Y-106335000I-180000J0D01*
G01*
G37*
%TD*%
%TO.C,R10*%
G36*
G01*
X99547500Y-104685000D02*
X99052500Y-104685000D01*
G75*
G02*
X98872500Y-104505000I0J180000D01*
G01*
X98872500Y-104145000D01*
G75*
G02*
X99052500Y-103965000I180000J0D01*
G01*
X99547500Y-103965000D01*
G75*
G02*
X99727500Y-104145000I0J-180000D01*
G01*
X99727500Y-104505000D01*
G75*
G02*
X99547500Y-104685000I-180000J0D01*
G01*
G37*
G36*
G01*
X99547500Y-106335000D02*
X99052500Y-106335000D01*
G75*
G02*
X98872500Y-106155000I0J180000D01*
G01*
X98872500Y-105795000D01*
G75*
G02*
X99052500Y-105615000I180000J0D01*
G01*
X99547500Y-105615000D01*
G75*
G02*
X99727500Y-105795000I0J-180000D01*
G01*
X99727500Y-106155000D01*
G75*
G02*
X99547500Y-106335000I-180000J0D01*
G01*
G37*
%TD*%
%TO.C,R9*%
G36*
G01*
X109465000Y-99047500D02*
X109465000Y-98552500D01*
G75*
G02*
X109645000Y-98372500I180000J0D01*
G01*
X110005000Y-98372500D01*
G75*
G02*
X110185000Y-98552500I0J-180000D01*
G01*
X110185000Y-99047500D01*
G75*
G02*
X110005000Y-99227500I-180000J0D01*
G01*
X109645000Y-99227500D01*
G75*
G02*
X109465000Y-99047500I0J180000D01*
G01*
G37*
G36*
G01*
X107815000Y-99047500D02*
X107815000Y-98552500D01*
G75*
G02*
X107995000Y-98372500I180000J0D01*
G01*
X108355000Y-98372500D01*
G75*
G02*
X108535000Y-98552500I0J-180000D01*
G01*
X108535000Y-99047500D01*
G75*
G02*
X108355000Y-99227500I-180000J0D01*
G01*
X107995000Y-99227500D01*
G75*
G02*
X107815000Y-99047500I0J180000D01*
G01*
G37*
%TD*%
%TO.C,R8*%
G36*
G01*
X109465000Y-100547500D02*
X109465000Y-100052500D01*
G75*
G02*
X109645000Y-99872500I180000J0D01*
G01*
X110005000Y-99872500D01*
G75*
G02*
X110185000Y-100052500I0J-180000D01*
G01*
X110185000Y-100547500D01*
G75*
G02*
X110005000Y-100727500I-180000J0D01*
G01*
X109645000Y-100727500D01*
G75*
G02*
X109465000Y-100547500I0J180000D01*
G01*
G37*
G36*
G01*
X107815000Y-100547500D02*
X107815000Y-100052500D01*
G75*
G02*
X107995000Y-99872500I180000J0D01*
G01*
X108355000Y-99872500D01*
G75*
G02*
X108535000Y-100052500I0J-180000D01*
G01*
X108535000Y-100547500D01*
G75*
G02*
X108355000Y-100727500I-180000J0D01*
G01*
X107995000Y-100727500D01*
G75*
G02*
X107815000Y-100547500I0J180000D01*
G01*
G37*
%TD*%
%TO.C,R7*%
G36*
G01*
X109465000Y-102047500D02*
X109465000Y-101552500D01*
G75*
G02*
X109645000Y-101372500I180000J0D01*
G01*
X110005000Y-101372500D01*
G75*
G02*
X110185000Y-101552500I0J-180000D01*
G01*
X110185000Y-102047500D01*
G75*
G02*
X110005000Y-102227500I-180000J0D01*
G01*
X109645000Y-102227500D01*
G75*
G02*
X109465000Y-102047500I0J180000D01*
G01*
G37*
G36*
G01*
X107815000Y-102047500D02*
X107815000Y-101552500D01*
G75*
G02*
X107995000Y-101372500I180000J0D01*
G01*
X108355000Y-101372500D01*
G75*
G02*
X108535000Y-101552500I0J-180000D01*
G01*
X108535000Y-102047500D01*
G75*
G02*
X108355000Y-102227500I-180000J0D01*
G01*
X107995000Y-102227500D01*
G75*
G02*
X107815000Y-102047500I0J180000D01*
G01*
G37*
%TD*%
%TO.C,R6*%
G36*
G01*
X109465000Y-97547500D02*
X109465000Y-97052500D01*
G75*
G02*
X109645000Y-96872500I180000J0D01*
G01*
X110005000Y-96872500D01*
G75*
G02*
X110185000Y-97052500I0J-180000D01*
G01*
X110185000Y-97547500D01*
G75*
G02*
X110005000Y-97727500I-180000J0D01*
G01*
X109645000Y-97727500D01*
G75*
G02*
X109465000Y-97547500I0J180000D01*
G01*
G37*
G36*
G01*
X107815000Y-97547500D02*
X107815000Y-97052500D01*
G75*
G02*
X107995000Y-96872500I180000J0D01*
G01*
X108355000Y-96872500D01*
G75*
G02*
X108535000Y-97052500I0J-180000D01*
G01*
X108535000Y-97547500D01*
G75*
G02*
X108355000Y-97727500I-180000J0D01*
G01*
X107995000Y-97727500D01*
G75*
G02*
X107815000Y-97547500I0J180000D01*
G01*
G37*
%TD*%
%TO.C,R5*%
G36*
G01*
X109465000Y-96047500D02*
X109465000Y-95552500D01*
G75*
G02*
X109645000Y-95372500I180000J0D01*
G01*
X110005000Y-95372500D01*
G75*
G02*
X110185000Y-95552500I0J-180000D01*
G01*
X110185000Y-96047500D01*
G75*
G02*
X110005000Y-96227500I-180000J0D01*
G01*
X109645000Y-96227500D01*
G75*
G02*
X109465000Y-96047500I0J180000D01*
G01*
G37*
G36*
G01*
X107815000Y-96047500D02*
X107815000Y-95552500D01*
G75*
G02*
X107995000Y-95372500I180000J0D01*
G01*
X108355000Y-95372500D01*
G75*
G02*
X108535000Y-95552500I0J-180000D01*
G01*
X108535000Y-96047500D01*
G75*
G02*
X108355000Y-96227500I-180000J0D01*
G01*
X107995000Y-96227500D01*
G75*
G02*
X107815000Y-96047500I0J180000D01*
G01*
G37*
%TD*%
%TO.C,R4*%
G36*
G01*
X94365000Y-92347500D02*
X94365000Y-91852500D01*
G75*
G02*
X94545000Y-91672500I180000J0D01*
G01*
X94905000Y-91672500D01*
G75*
G02*
X95085000Y-91852500I0J-180000D01*
G01*
X95085000Y-92347500D01*
G75*
G02*
X94905000Y-92527500I-180000J0D01*
G01*
X94545000Y-92527500D01*
G75*
G02*
X94365000Y-92347500I0J180000D01*
G01*
G37*
G36*
G01*
X92715000Y-92347500D02*
X92715000Y-91852500D01*
G75*
G02*
X92895000Y-91672500I180000J0D01*
G01*
X93255000Y-91672500D01*
G75*
G02*
X93435000Y-91852500I0J-180000D01*
G01*
X93435000Y-92347500D01*
G75*
G02*
X93255000Y-92527500I-180000J0D01*
G01*
X92895000Y-92527500D01*
G75*
G02*
X92715000Y-92347500I0J180000D01*
G01*
G37*
%TD*%
%TO.C,R3*%
G36*
G01*
X94365000Y-88497500D02*
X94365000Y-88002500D01*
G75*
G02*
X94545000Y-87822500I180000J0D01*
G01*
X94905000Y-87822500D01*
G75*
G02*
X95085000Y-88002500I0J-180000D01*
G01*
X95085000Y-88497500D01*
G75*
G02*
X94905000Y-88677500I-180000J0D01*
G01*
X94545000Y-88677500D01*
G75*
G02*
X94365000Y-88497500I0J180000D01*
G01*
G37*
G36*
G01*
X92715000Y-88497500D02*
X92715000Y-88002500D01*
G75*
G02*
X92895000Y-87822500I180000J0D01*
G01*
X93255000Y-87822500D01*
G75*
G02*
X93435000Y-88002500I0J-180000D01*
G01*
X93435000Y-88497500D01*
G75*
G02*
X93255000Y-88677500I-180000J0D01*
G01*
X92895000Y-88677500D01*
G75*
G02*
X92715000Y-88497500I0J180000D01*
G01*
G37*
%TD*%
%TO.C,R2*%
G36*
G01*
X96447500Y-84285000D02*
X95952500Y-84285000D01*
G75*
G02*
X95772500Y-84105000I0J180000D01*
G01*
X95772500Y-83745000D01*
G75*
G02*
X95952500Y-83565000I180000J0D01*
G01*
X96447500Y-83565000D01*
G75*
G02*
X96627500Y-83745000I0J-180000D01*
G01*
X96627500Y-84105000D01*
G75*
G02*
X96447500Y-84285000I-180000J0D01*
G01*
G37*
G36*
G01*
X96447500Y-85935000D02*
X95952500Y-85935000D01*
G75*
G02*
X95772500Y-85755000I0J180000D01*
G01*
X95772500Y-85395000D01*
G75*
G02*
X95952500Y-85215000I180000J0D01*
G01*
X96447500Y-85215000D01*
G75*
G02*
X96627500Y-85395000I0J-180000D01*
G01*
X96627500Y-85755000D01*
G75*
G02*
X96447500Y-85935000I-180000J0D01*
G01*
G37*
%TD*%
%TO.C,R1*%
G36*
G01*
X104047500Y-84285000D02*
X103552500Y-84285000D01*
G75*
G02*
X103372500Y-84105000I0J180000D01*
G01*
X103372500Y-83745000D01*
G75*
G02*
X103552500Y-83565000I180000J0D01*
G01*
X104047500Y-83565000D01*
G75*
G02*
X104227500Y-83745000I0J-180000D01*
G01*
X104227500Y-84105000D01*
G75*
G02*
X104047500Y-84285000I-180000J0D01*
G01*
G37*
G36*
G01*
X104047500Y-85935000D02*
X103552500Y-85935000D01*
G75*
G02*
X103372500Y-85755000I0J180000D01*
G01*
X103372500Y-85395000D01*
G75*
G02*
X103552500Y-85215000I180000J0D01*
G01*
X104047500Y-85215000D01*
G75*
G02*
X104227500Y-85395000I0J-180000D01*
G01*
X104227500Y-85755000D01*
G75*
G02*
X104047500Y-85935000I-180000J0D01*
G01*
G37*
%TD*%
%TO.C,C18*%
G36*
G01*
X93530000Y-95125000D02*
X93530000Y-95575000D01*
G75*
G02*
X93327500Y-95777500I-202500J0D01*
G01*
X92922500Y-95777500D01*
G75*
G02*
X92720000Y-95575000I0J202500D01*
G01*
X92720000Y-95125000D01*
G75*
G02*
X92922500Y-94922500I202500J0D01*
G01*
X93327500Y-94922500D01*
G75*
G02*
X93530000Y-95125000I0J-202500D01*
G01*
G37*
G36*
G01*
X95080000Y-95125000D02*
X95080000Y-95575000D01*
G75*
G02*
X94877500Y-95777500I-202500J0D01*
G01*
X94472500Y-95777500D01*
G75*
G02*
X94270000Y-95575000I0J202500D01*
G01*
X94270000Y-95125000D01*
G75*
G02*
X94472500Y-94922500I202500J0D01*
G01*
X94877500Y-94922500D01*
G75*
G02*
X95080000Y-95125000I0J-202500D01*
G01*
G37*
%TD*%
%TO.C,C17*%
G36*
G01*
X97925000Y-104780000D02*
X97475000Y-104780000D01*
G75*
G02*
X97272500Y-104577500I0J202500D01*
G01*
X97272500Y-104172500D01*
G75*
G02*
X97475000Y-103970000I202500J0D01*
G01*
X97925000Y-103970000D01*
G75*
G02*
X98127500Y-104172500I0J-202500D01*
G01*
X98127500Y-104577500D01*
G75*
G02*
X97925000Y-104780000I-202500J0D01*
G01*
G37*
G36*
G01*
X97925000Y-106330000D02*
X97475000Y-106330000D01*
G75*
G02*
X97272500Y-106127500I0J202500D01*
G01*
X97272500Y-105722500D01*
G75*
G02*
X97475000Y-105520000I202500J0D01*
G01*
X97925000Y-105520000D01*
G75*
G02*
X98127500Y-105722500I0J-202500D01*
G01*
X98127500Y-106127500D01*
G75*
G02*
X97925000Y-106330000I-202500J0D01*
G01*
G37*
%TD*%
%TO.C,C16*%
G36*
G01*
X93630000Y-102275000D02*
X93630000Y-102725000D01*
G75*
G02*
X93427500Y-102927500I-202500J0D01*
G01*
X93022500Y-102927500D01*
G75*
G02*
X92820000Y-102725000I0J202500D01*
G01*
X92820000Y-102275000D01*
G75*
G02*
X93022500Y-102072500I202500J0D01*
G01*
X93427500Y-102072500D01*
G75*
G02*
X93630000Y-102275000I0J-202500D01*
G01*
G37*
G36*
G01*
X95180000Y-102275000D02*
X95180000Y-102725000D01*
G75*
G02*
X94977500Y-102927500I-202500J0D01*
G01*
X94572500Y-102927500D01*
G75*
G02*
X94370000Y-102725000I0J202500D01*
G01*
X94370000Y-102275000D01*
G75*
G02*
X94572500Y-102072500I202500J0D01*
G01*
X94977500Y-102072500D01*
G75*
G02*
X95180000Y-102275000I0J-202500D01*
G01*
G37*
%TD*%
%TO.C,C15*%
G36*
G01*
X94370000Y-97725000D02*
X94370000Y-97275000D01*
G75*
G02*
X94572500Y-97072500I202500J0D01*
G01*
X94977500Y-97072500D01*
G75*
G02*
X95180000Y-97275000I0J-202500D01*
G01*
X95180000Y-97725000D01*
G75*
G02*
X94977500Y-97927500I-202500J0D01*
G01*
X94572500Y-97927500D01*
G75*
G02*
X94370000Y-97725000I0J202500D01*
G01*
G37*
G36*
G01*
X92820000Y-97725000D02*
X92820000Y-97275000D01*
G75*
G02*
X93022500Y-97072500I202500J0D01*
G01*
X93427500Y-97072500D01*
G75*
G02*
X93630000Y-97275000I0J-202500D01*
G01*
X93630000Y-97725000D01*
G75*
G02*
X93427500Y-97927500I-202500J0D01*
G01*
X93022500Y-97927500D01*
G75*
G02*
X92820000Y-97725000I0J202500D01*
G01*
G37*
%TD*%
%TO.C,C14*%
G36*
G01*
X105870000Y-97525000D02*
X105870000Y-97075000D01*
G75*
G02*
X106072500Y-96872500I202500J0D01*
G01*
X106477500Y-96872500D01*
G75*
G02*
X106680000Y-97075000I0J-202500D01*
G01*
X106680000Y-97525000D01*
G75*
G02*
X106477500Y-97727500I-202500J0D01*
G01*
X106072500Y-97727500D01*
G75*
G02*
X105870000Y-97525000I0J202500D01*
G01*
G37*
G36*
G01*
X104320000Y-97525000D02*
X104320000Y-97075000D01*
G75*
G02*
X104522500Y-96872500I202500J0D01*
G01*
X104927500Y-96872500D01*
G75*
G02*
X105130000Y-97075000I0J-202500D01*
G01*
X105130000Y-97525000D01*
G75*
G02*
X104927500Y-97727500I-202500J0D01*
G01*
X104522500Y-97727500D01*
G75*
G02*
X104320000Y-97525000I0J202500D01*
G01*
G37*
%TD*%
%TO.C,C13*%
G36*
G01*
X106025000Y-99970000D02*
X106475000Y-99970000D01*
G75*
G02*
X106677500Y-100172500I0J-202500D01*
G01*
X106677500Y-100577500D01*
G75*
G02*
X106475000Y-100780000I-202500J0D01*
G01*
X106025000Y-100780000D01*
G75*
G02*
X105822500Y-100577500I0J202500D01*
G01*
X105822500Y-100172500D01*
G75*
G02*
X106025000Y-99970000I202500J0D01*
G01*
G37*
G36*
G01*
X106025000Y-98420000D02*
X106475000Y-98420000D01*
G75*
G02*
X106677500Y-98622500I0J-202500D01*
G01*
X106677500Y-99027500D01*
G75*
G02*
X106475000Y-99230000I-202500J0D01*
G01*
X106025000Y-99230000D01*
G75*
G02*
X105822500Y-99027500I0J202500D01*
G01*
X105822500Y-98622500D01*
G75*
G02*
X106025000Y-98420000I202500J0D01*
G01*
G37*
%TD*%
%TO.C,C12*%
G36*
G01*
X104525000Y-99970000D02*
X104975000Y-99970000D01*
G75*
G02*
X105177500Y-100172500I0J-202500D01*
G01*
X105177500Y-100577500D01*
G75*
G02*
X104975000Y-100780000I-202500J0D01*
G01*
X104525000Y-100780000D01*
G75*
G02*
X104322500Y-100577500I0J202500D01*
G01*
X104322500Y-100172500D01*
G75*
G02*
X104525000Y-99970000I202500J0D01*
G01*
G37*
G36*
G01*
X104525000Y-98420000D02*
X104975000Y-98420000D01*
G75*
G02*
X105177500Y-98622500I0J-202500D01*
G01*
X105177500Y-99027500D01*
G75*
G02*
X104975000Y-99230000I-202500J0D01*
G01*
X104525000Y-99230000D01*
G75*
G02*
X104322500Y-99027500I0J202500D01*
G01*
X104322500Y-98622500D01*
G75*
G02*
X104525000Y-98420000I202500J0D01*
G01*
G37*
%TD*%
%TO.C,C11*%
G36*
G01*
X97705000Y-95125000D02*
X97705000Y-95575000D01*
G75*
G02*
X97502500Y-95777500I-202500J0D01*
G01*
X97097500Y-95777500D01*
G75*
G02*
X96895000Y-95575000I0J202500D01*
G01*
X96895000Y-95125000D01*
G75*
G02*
X97097500Y-94922500I202500J0D01*
G01*
X97502500Y-94922500D01*
G75*
G02*
X97705000Y-95125000I0J-202500D01*
G01*
G37*
G36*
G01*
X99255000Y-95125000D02*
X99255000Y-95575000D01*
G75*
G02*
X99052500Y-95777500I-202500J0D01*
G01*
X98647500Y-95777500D01*
G75*
G02*
X98445000Y-95575000I0J202500D01*
G01*
X98445000Y-95125000D01*
G75*
G02*
X98647500Y-94922500I202500J0D01*
G01*
X99052500Y-94922500D01*
G75*
G02*
X99255000Y-95125000I0J-202500D01*
G01*
G37*
%TD*%
%TO.C,C10*%
G36*
G01*
X95230000Y-93625000D02*
X95230000Y-94075000D01*
G75*
G02*
X95027500Y-94277500I-202500J0D01*
G01*
X94622500Y-94277500D01*
G75*
G02*
X94420000Y-94075000I0J202500D01*
G01*
X94420000Y-93625000D01*
G75*
G02*
X94622500Y-93422500I202500J0D01*
G01*
X95027500Y-93422500D01*
G75*
G02*
X95230000Y-93625000I0J-202500D01*
G01*
G37*
G36*
G01*
X96780000Y-93625000D02*
X96780000Y-94075000D01*
G75*
G02*
X96577500Y-94277500I-202500J0D01*
G01*
X96172500Y-94277500D01*
G75*
G02*
X95970000Y-94075000I0J202500D01*
G01*
X95970000Y-93625000D01*
G75*
G02*
X96172500Y-93422500I202500J0D01*
G01*
X96577500Y-93422500D01*
G75*
G02*
X96780000Y-93625000I0J-202500D01*
G01*
G37*
%TD*%
%TO.C,C9*%
G36*
G01*
X101570000Y-94075000D02*
X101570000Y-93625000D01*
G75*
G02*
X101772500Y-93422500I202500J0D01*
G01*
X102177500Y-93422500D01*
G75*
G02*
X102380000Y-93625000I0J-202500D01*
G01*
X102380000Y-94075000D01*
G75*
G02*
X102177500Y-94277500I-202500J0D01*
G01*
X101772500Y-94277500D01*
G75*
G02*
X101570000Y-94075000I0J202500D01*
G01*
G37*
G36*
G01*
X100020000Y-94075000D02*
X100020000Y-93625000D01*
G75*
G02*
X100222500Y-93422500I202500J0D01*
G01*
X100627500Y-93422500D01*
G75*
G02*
X100830000Y-93625000I0J-202500D01*
G01*
X100830000Y-94075000D01*
G75*
G02*
X100627500Y-94277500I-202500J0D01*
G01*
X100222500Y-94277500D01*
G75*
G02*
X100020000Y-94075000I0J202500D01*
G01*
G37*
%TD*%
%TO.C,C8*%
G36*
G01*
X93325000Y-89830000D02*
X92875000Y-89830000D01*
G75*
G02*
X92672500Y-89627500I0J202500D01*
G01*
X92672500Y-89222500D01*
G75*
G02*
X92875000Y-89020000I202500J0D01*
G01*
X93325000Y-89020000D01*
G75*
G02*
X93527500Y-89222500I0J-202500D01*
G01*
X93527500Y-89627500D01*
G75*
G02*
X93325000Y-89830000I-202500J0D01*
G01*
G37*
G36*
G01*
X93325000Y-91380000D02*
X92875000Y-91380000D01*
G75*
G02*
X92672500Y-91177500I0J202500D01*
G01*
X92672500Y-90772500D01*
G75*
G02*
X92875000Y-90570000I202500J0D01*
G01*
X93325000Y-90570000D01*
G75*
G02*
X93527500Y-90772500I0J-202500D01*
G01*
X93527500Y-91177500D01*
G75*
G02*
X93325000Y-91380000I-202500J0D01*
G01*
G37*
%TD*%
%TO.C,C7*%
G36*
G01*
X101570000Y-95575000D02*
X101570000Y-95125000D01*
G75*
G02*
X101772500Y-94922500I202500J0D01*
G01*
X102177500Y-94922500D01*
G75*
G02*
X102380000Y-95125000I0J-202500D01*
G01*
X102380000Y-95575000D01*
G75*
G02*
X102177500Y-95777500I-202500J0D01*
G01*
X101772500Y-95777500D01*
G75*
G02*
X101570000Y-95575000I0J202500D01*
G01*
G37*
G36*
G01*
X100020000Y-95575000D02*
X100020000Y-95125000D01*
G75*
G02*
X100222500Y-94922500I202500J0D01*
G01*
X100627500Y-94922500D01*
G75*
G02*
X100830000Y-95125000I0J-202500D01*
G01*
X100830000Y-95575000D01*
G75*
G02*
X100627500Y-95777500I-202500J0D01*
G01*
X100222500Y-95777500D01*
G75*
G02*
X100020000Y-95575000I0J202500D01*
G01*
G37*
%TD*%
%TO.C,C6*%
G36*
G01*
X97930000Y-88025000D02*
X97930000Y-88475000D01*
G75*
G02*
X97727500Y-88677500I-202500J0D01*
G01*
X97322500Y-88677500D01*
G75*
G02*
X97120000Y-88475000I0J202500D01*
G01*
X97120000Y-88025000D01*
G75*
G02*
X97322500Y-87822500I202500J0D01*
G01*
X97727500Y-87822500D01*
G75*
G02*
X97930000Y-88025000I0J-202500D01*
G01*
G37*
G36*
G01*
X99480000Y-88025000D02*
X99480000Y-88475000D01*
G75*
G02*
X99277500Y-88677500I-202500J0D01*
G01*
X98872500Y-88677500D01*
G75*
G02*
X98670000Y-88475000I0J202500D01*
G01*
X98670000Y-88025000D01*
G75*
G02*
X98872500Y-87822500I202500J0D01*
G01*
X99277500Y-87822500D01*
G75*
G02*
X99480000Y-88025000I0J-202500D01*
G01*
G37*
%TD*%
%TO.C,C5*%
G36*
G01*
X102070000Y-88475000D02*
X102070000Y-88025000D01*
G75*
G02*
X102272500Y-87822500I202500J0D01*
G01*
X102677500Y-87822500D01*
G75*
G02*
X102880000Y-88025000I0J-202500D01*
G01*
X102880000Y-88475000D01*
G75*
G02*
X102677500Y-88677500I-202500J0D01*
G01*
X102272500Y-88677500D01*
G75*
G02*
X102070000Y-88475000I0J202500D01*
G01*
G37*
G36*
G01*
X100520000Y-88475000D02*
X100520000Y-88025000D01*
G75*
G02*
X100722500Y-87822500I202500J0D01*
G01*
X101127500Y-87822500D01*
G75*
G02*
X101330000Y-88025000I0J-202500D01*
G01*
X101330000Y-88475000D01*
G75*
G02*
X101127500Y-88677500I-202500J0D01*
G01*
X100722500Y-88677500D01*
G75*
G02*
X100520000Y-88475000I0J202500D01*
G01*
G37*
%TD*%
%TO.C,L2*%
G36*
G01*
X96544896Y-92173839D02*
X97923839Y-90794896D01*
G75*
G02*
X98135887Y-90794896I106024J-106024D01*
G01*
X98369318Y-91028327D01*
G75*
G02*
X98369318Y-91240375I-106024J-106024D01*
G01*
X96990375Y-92619318D01*
G75*
G02*
X96778327Y-92619318I-106024J106024D01*
G01*
X96544896Y-92385887D01*
G75*
G02*
X96544896Y-92173839I106024J106024D01*
G01*
G37*
G36*
G01*
X95130682Y-90759625D02*
X96509625Y-89380682D01*
G75*
G02*
X96721673Y-89380682I106024J-106024D01*
G01*
X96955104Y-89614113D01*
G75*
G02*
X96955104Y-89826161I-106024J-106024D01*
G01*
X95576161Y-91205104D01*
G75*
G02*
X95364113Y-91205104I-106024J106024D01*
G01*
X95130682Y-90971673D01*
G75*
G02*
X95130682Y-90759625I106024J106024D01*
G01*
G37*
G36*
G01*
X96955756Y-92125017D02*
X97875017Y-91205756D01*
G75*
G02*
X98184001Y-91205756I154492J-154492D01*
G01*
X98524142Y-91545897D01*
G75*
G02*
X98524142Y-91854881I-154492J-154492D01*
G01*
X97604881Y-92774142D01*
G75*
G02*
X97295897Y-92774142I-154492J154492D01*
G01*
X96955756Y-92434001D01*
G75*
G02*
X96955756Y-92125017I154492J154492D01*
G01*
G37*
G36*
G01*
X94975858Y-90145119D02*
X95895119Y-89225858D01*
G75*
G02*
X96204103Y-89225858I154492J-154492D01*
G01*
X96544244Y-89565999D01*
G75*
G02*
X96544244Y-89874983I-154492J-154492D01*
G01*
X95624983Y-90794244D01*
G75*
G02*
X95315999Y-90794244I-154492J154492D01*
G01*
X94975858Y-90454103D01*
G75*
G02*
X94975858Y-90145119I154492J154492D01*
G01*
G37*
%TD*%
%TO.C,L1*%
G36*
G01*
X104423839Y-91205104D02*
X103044896Y-89826161D01*
G75*
G02*
X103044896Y-89614113I106024J106024D01*
G01*
X103278327Y-89380682D01*
G75*
G02*
X103490375Y-89380682I106024J-106024D01*
G01*
X104869318Y-90759625D01*
G75*
G02*
X104869318Y-90971673I-106024J-106024D01*
G01*
X104635887Y-91205104D01*
G75*
G02*
X104423839Y-91205104I-106024J106024D01*
G01*
G37*
G36*
G01*
X103009625Y-92619318D02*
X101630682Y-91240375D01*
G75*
G02*
X101630682Y-91028327I106024J106024D01*
G01*
X101864113Y-90794896D01*
G75*
G02*
X102076161Y-90794896I106024J-106024D01*
G01*
X103455104Y-92173839D01*
G75*
G02*
X103455104Y-92385887I-106024J-106024D01*
G01*
X103221673Y-92619318D01*
G75*
G02*
X103009625Y-92619318I-106024J106024D01*
G01*
G37*
G36*
G01*
X104375017Y-90794244D02*
X103455756Y-89874983D01*
G75*
G02*
X103455756Y-89565999I154492J154492D01*
G01*
X103795897Y-89225858D01*
G75*
G02*
X104104881Y-89225858I154492J-154492D01*
G01*
X105024142Y-90145119D01*
G75*
G02*
X105024142Y-90454103I-154492J-154492D01*
G01*
X104684001Y-90794244D01*
G75*
G02*
X104375017Y-90794244I-154492J154492D01*
G01*
G37*
G36*
G01*
X102395119Y-92774142D02*
X101475858Y-91854881D01*
G75*
G02*
X101475858Y-91545897I154492J154492D01*
G01*
X101815999Y-91205756D01*
G75*
G02*
X102124983Y-91205756I154492J-154492D01*
G01*
X103044244Y-92125017D01*
G75*
G02*
X103044244Y-92434001I-154492J-154492D01*
G01*
X102704103Y-92774142D01*
G75*
G02*
X102395119Y-92774142I-154492J154492D01*
G01*
G37*
%TD*%
D13*
%TO.C,Y1*%
X93200000Y-98650000D03*
X94800000Y-98650000D03*
X94800000Y-101350000D03*
X93200000Y-101350000D03*
%TD*%
M02*
