%TF.GenerationSoftware,KiCad,Pcbnew,(5.1.9-0-10_14)*%
%TF.CreationDate,2021-05-05T07:14:21+01:00*%
%TF.ProjectId,PN532,504e3533-322e-46b6-9963-61645f706362,5*%
%TF.SameCoordinates,Original*%
%TF.FileFunction,Soldermask,Bot*%
%TF.FilePolarity,Negative*%
%FSLAX46Y46*%
G04 Gerber Fmt 4.6, Leading zero omitted, Abs format (unit mm)*
G04 Created by KiCad (PCBNEW (5.1.9-0-10_14)) date 2021-05-05 07:14:21*
%MOMM*%
%LPD*%
G01*
G04 APERTURE LIST*
%ADD10C,0.100000*%
%ADD11O,1.700000X1.850000*%
%ADD12R,1.000000X1.500000*%
%ADD13C,0.800000*%
%ADD14C,1.000000*%
%ADD15C,0.600000*%
%ADD16C,1.800000*%
%ADD17R,1.800000X1.800000*%
%ADD18O,1.700000X1.700000*%
%ADD19R,1.700000X1.700000*%
%ADD20C,2.000000*%
%ADD21C,1.300000*%
%ADD22R,1.300000X1.300000*%
%ADD23C,3.200000*%
G04 APERTURE END LIST*
D10*
%TO.C,U2*%
G36*
X159100000Y-80100000D02*
G01*
X164900000Y-80100000D01*
X164900000Y-85900000D01*
X159100000Y-85900000D01*
X159100000Y-80100000D01*
G37*
X159100000Y-80100000D02*
X164900000Y-80100000D01*
X164900000Y-85900000D01*
X159100000Y-85900000D01*
X159100000Y-80100000D01*
%TD*%
D11*
%TO.C,J3*%
X153750000Y-103900000D03*
X151250000Y-103900000D03*
X148750000Y-103900000D03*
G36*
G01*
X145400000Y-104575000D02*
X145400000Y-103225000D01*
G75*
G02*
X145650000Y-102975000I250000J0D01*
G01*
X146850000Y-102975000D01*
G75*
G02*
X147100000Y-103225000I0J-250000D01*
G01*
X147100000Y-104575000D01*
G75*
G02*
X146850000Y-104825000I-250000J0D01*
G01*
X145650000Y-104825000D01*
G75*
G02*
X145400000Y-104575000I0J250000D01*
G01*
G37*
%TD*%
D10*
%TO.C,JP1*%
G36*
X155350000Y-88350000D02*
G01*
X155900000Y-88350000D01*
X155900000Y-88350602D01*
X155924534Y-88350602D01*
X155973365Y-88355412D01*
X156021490Y-88364984D01*
X156068445Y-88379228D01*
X156113778Y-88398005D01*
X156157051Y-88421136D01*
X156197850Y-88448396D01*
X156235779Y-88479524D01*
X156270476Y-88514221D01*
X156301604Y-88552150D01*
X156328864Y-88592949D01*
X156351995Y-88636222D01*
X156370772Y-88681555D01*
X156385016Y-88728510D01*
X156394588Y-88776635D01*
X156399398Y-88825466D01*
X156399398Y-88850000D01*
X156400000Y-88850000D01*
X156400000Y-89350000D01*
X156399398Y-89350000D01*
X156399398Y-89374534D01*
X156394588Y-89423365D01*
X156385016Y-89471490D01*
X156370772Y-89518445D01*
X156351995Y-89563778D01*
X156328864Y-89607051D01*
X156301604Y-89647850D01*
X156270476Y-89685779D01*
X156235779Y-89720476D01*
X156197850Y-89751604D01*
X156157051Y-89778864D01*
X156113778Y-89801995D01*
X156068445Y-89820772D01*
X156021490Y-89835016D01*
X155973365Y-89844588D01*
X155924534Y-89849398D01*
X155900000Y-89849398D01*
X155900000Y-89850000D01*
X155350000Y-89850000D01*
X155350000Y-88350000D01*
G37*
D12*
X154600000Y-89100000D03*
D10*
G36*
X153300000Y-89849398D02*
G01*
X153275466Y-89849398D01*
X153226635Y-89844588D01*
X153178510Y-89835016D01*
X153131555Y-89820772D01*
X153086222Y-89801995D01*
X153042949Y-89778864D01*
X153002150Y-89751604D01*
X152964221Y-89720476D01*
X152929524Y-89685779D01*
X152898396Y-89647850D01*
X152871136Y-89607051D01*
X152848005Y-89563778D01*
X152829228Y-89518445D01*
X152814984Y-89471490D01*
X152805412Y-89423365D01*
X152800602Y-89374534D01*
X152800602Y-89350000D01*
X152800000Y-89350000D01*
X152800000Y-88850000D01*
X152800602Y-88850000D01*
X152800602Y-88825466D01*
X152805412Y-88776635D01*
X152814984Y-88728510D01*
X152829228Y-88681555D01*
X152848005Y-88636222D01*
X152871136Y-88592949D01*
X152898396Y-88552150D01*
X152929524Y-88514221D01*
X152964221Y-88479524D01*
X153002150Y-88448396D01*
X153042949Y-88421136D01*
X153086222Y-88398005D01*
X153131555Y-88379228D01*
X153178510Y-88364984D01*
X153226635Y-88355412D01*
X153275466Y-88350602D01*
X153300000Y-88350602D01*
X153300000Y-88350000D01*
X153850000Y-88350000D01*
X153850000Y-89850000D01*
X153300000Y-89850000D01*
X153300000Y-89849398D01*
G37*
%TD*%
D13*
%TO.C,TP2*%
X160300000Y-94100000D03*
%TD*%
%TO.C,TP1*%
X160300000Y-95900000D03*
%TD*%
D14*
%TO.C,U1*%
X156025000Y-94750000D03*
X157525000Y-93250000D03*
X154525000Y-93250000D03*
X154525000Y-96250000D03*
X157525000Y-96250000D03*
%TD*%
D15*
%TO.C,A1*%
X130000000Y-94000000D03*
X133000000Y-96000000D03*
X167000000Y-92000000D03*
X167000000Y-98000000D03*
X169000000Y-95000000D03*
%TD*%
%TO.C,D1*%
G36*
G01*
X137762500Y-93600000D02*
X138237500Y-93600000D01*
G75*
G02*
X138475000Y-93837500I0J-237500D01*
G01*
X138475000Y-94412500D01*
G75*
G02*
X138237500Y-94650000I-237500J0D01*
G01*
X137762500Y-94650000D01*
G75*
G02*
X137525000Y-94412500I0J237500D01*
G01*
X137525000Y-93837500D01*
G75*
G02*
X137762500Y-93600000I237500J0D01*
G01*
G37*
G36*
G01*
X137762500Y-95350000D02*
X138237500Y-95350000D01*
G75*
G02*
X138475000Y-95587500I0J-237500D01*
G01*
X138475000Y-96162500D01*
G75*
G02*
X138237500Y-96400000I-237500J0D01*
G01*
X137762500Y-96400000D01*
G75*
G02*
X137525000Y-96162500I0J237500D01*
G01*
X137525000Y-95587500D01*
G75*
G02*
X137762500Y-95350000I237500J0D01*
G01*
G37*
D16*
X138000000Y-96270000D03*
D17*
X138000000Y-93730000D03*
%TD*%
D18*
%TO.C,J1*%
X143000000Y-81730000D03*
D19*
X143000000Y-84270000D03*
%TD*%
D18*
%TO.C,J2*%
X153810000Y-107000000D03*
X151270000Y-107000000D03*
X148730000Y-107000000D03*
D19*
X146190000Y-107000000D03*
%TD*%
%TO.C,D3*%
G36*
G01*
X137762500Y-105600000D02*
X138237500Y-105600000D01*
G75*
G02*
X138475000Y-105837500I0J-237500D01*
G01*
X138475000Y-106412500D01*
G75*
G02*
X138237500Y-106650000I-237500J0D01*
G01*
X137762500Y-106650000D01*
G75*
G02*
X137525000Y-106412500I0J237500D01*
G01*
X137525000Y-105837500D01*
G75*
G02*
X137762500Y-105600000I237500J0D01*
G01*
G37*
G36*
G01*
X137762500Y-107350000D02*
X138237500Y-107350000D01*
G75*
G02*
X138475000Y-107587500I0J-237500D01*
G01*
X138475000Y-108162500D01*
G75*
G02*
X138237500Y-108400000I-237500J0D01*
G01*
X137762500Y-108400000D01*
G75*
G02*
X137525000Y-108162500I0J237500D01*
G01*
X137525000Y-107587500D01*
G75*
G02*
X137762500Y-107350000I237500J0D01*
G01*
G37*
D16*
X138000000Y-108270000D03*
D17*
X138000000Y-105730000D03*
%TD*%
D20*
%TO.C,SW1*%
X146750000Y-85250000D03*
X146750000Y-80750000D03*
X153250000Y-85250000D03*
X153250000Y-80750000D03*
%TD*%
D21*
%TO.C,J4*%
X151000000Y-96000000D03*
X149000000Y-96000000D03*
X151000000Y-94000000D03*
D22*
X149000000Y-94000000D03*
%TD*%
%TO.C,D2*%
G36*
G01*
X137762500Y-99600000D02*
X138237500Y-99600000D01*
G75*
G02*
X138475000Y-99837500I0J-237500D01*
G01*
X138475000Y-100412500D01*
G75*
G02*
X138237500Y-100650000I-237500J0D01*
G01*
X137762500Y-100650000D01*
G75*
G02*
X137525000Y-100412500I0J237500D01*
G01*
X137525000Y-99837500D01*
G75*
G02*
X137762500Y-99600000I237500J0D01*
G01*
G37*
G36*
G01*
X137762500Y-101350000D02*
X138237500Y-101350000D01*
G75*
G02*
X138475000Y-101587500I0J-237500D01*
G01*
X138475000Y-102162500D01*
G75*
G02*
X138237500Y-102400000I-237500J0D01*
G01*
X137762500Y-102400000D01*
G75*
G02*
X137525000Y-102162500I0J237500D01*
G01*
X137525000Y-101587500D01*
G75*
G02*
X137762500Y-101350000I237500J0D01*
G01*
G37*
D16*
X138000000Y-102270000D03*
D17*
X138000000Y-99730000D03*
%TD*%
D23*
%TO.C,H2*%
X138000000Y-83000000D03*
%TD*%
%TO.C,H1*%
X162000000Y-107000000D03*
%TD*%
M02*
