%TF.GenerationSoftware,KiCad,Pcbnew,(6.0.0-0)*%
%TF.CreationDate,2022-01-01T18:48:51+00:00*%
%TF.ProjectId,PN532,504e3533-322e-46b6-9963-61645f706362,7*%
%TF.SameCoordinates,Original*%
%TF.FileFunction,Copper,L1,Top*%
%TF.FilePolarity,Positive*%
%FSLAX46Y46*%
G04 Gerber Fmt 4.6, Leading zero omitted, Abs format (unit mm)*
G04 Created by KiCad (PCBNEW (6.0.0-0)) date 2022-01-01 18:48:51*
%MOMM*%
%LPD*%
G01*
G04 APERTURE LIST*
G04 Aperture macros list*
%AMRoundRect*
0 Rectangle with rounded corners*
0 $1 Rounding radius*
0 $2 $3 $4 $5 $6 $7 $8 $9 X,Y pos of 4 corners*
0 Add a 4 corners polygon primitive as box body*
4,1,4,$2,$3,$4,$5,$6,$7,$8,$9,$2,$3,0*
0 Add four circle primitives for the rounded corners*
1,1,$1+$1,$2,$3*
1,1,$1+$1,$4,$5*
1,1,$1+$1,$6,$7*
1,1,$1+$1,$8,$9*
0 Add four rect primitives between the rounded corners*
20,1,$1+$1,$2,$3,$4,$5,0*
20,1,$1+$1,$4,$5,$6,$7,0*
20,1,$1+$1,$6,$7,$8,$9,0*
20,1,$1+$1,$8,$9,$2,$3,0*%
%AMFreePoly0*
4,1,6,2.200000,-2.200000,-2.200000,-2.200000,-2.200000,1.800000,-1.800000,2.200000,2.200000,2.200000,2.200000,-2.200000,2.200000,-2.200000,$1*%
%AMFreePoly1*
4,1,22,0.550000,-0.750000,0.000000,-0.750000,0.000000,-0.745033,-0.079941,-0.743568,-0.215256,-0.701293,-0.333266,-0.622738,-0.424486,-0.514219,-0.481581,-0.384460,-0.499164,-0.250000,-0.500000,-0.250000,-0.500000,0.250000,-0.499164,0.250000,-0.499963,0.256109,-0.478152,0.396186,-0.417904,0.524511,-0.324060,0.630769,-0.204165,0.706417,-0.067858,0.745374,0.000000,0.744959,0.000000,0.750000,
0.550000,0.750000,0.550000,-0.750000,0.550000,-0.750000,$1*%
%AMFreePoly2*
4,1,20,0.000000,0.744959,0.073905,0.744508,0.209726,0.703889,0.328688,0.626782,0.421226,0.519385,0.479903,0.390333,0.500000,0.250000,0.500000,-0.250000,0.499851,-0.262216,0.476331,-0.402017,0.414519,-0.529596,0.319384,-0.634700,0.198574,-0.708877,0.061801,-0.746166,0.000000,-0.745033,0.000000,-0.750000,-0.550000,-0.750000,-0.550000,0.750000,0.000000,0.750000,0.000000,0.744959,
0.000000,0.744959,$1*%
%AMFreePoly3*
4,1,406,29.037942,21.742453,29.075928,21.749596,29.075934,21.749595,29.589475,21.725990,30.100059,21.666051,30.605111,21.570081,31.102092,21.438561,31.588504,21.272155,32.061901,21.071697,32.519903,20.838196,32.960206,20.572826,33.380597,20.276922,33.778962,19.951971,34.153298,19.599606,34.501723,19.221601,34.822485,18.819855,35.113971,18.396388,35.374715,17.953330,35.603407,17.492909,35.798896,17.017438,
35.960200,16.529310,36.086508,16.030979,36.177184,15.524949,36.231772,15.013766,36.249999,14.500006,36.250000,14.500000,36.250000,-9.500000,36.242453,-9.537942,36.249596,-9.575928,36.249595,-9.575934,36.225990,-10.089475,36.166051,-10.600059,36.070081,-11.105111,35.938561,-11.602092,35.772155,-12.088504,35.571697,-12.561901,35.338196,-13.019903,35.072826,-13.460206,34.776922,-13.880597,34.451971,-14.278962,
34.099606,-14.653298,33.721601,-15.001723,33.319855,-15.322485,32.896388,-15.613971,32.453330,-15.874715,31.992909,-16.103407,31.517438,-16.298896,31.029310,-16.460200,30.530979,-16.586508,30.024949,-16.677184,29.513766,-16.731772,29.000006,-16.749999,29.000000,-16.750000,5.000000,-16.750000,4.956425,-16.741333,4.912740,-16.749390,4.912734,-16.749389,4.428118,-16.723779,3.946944,-16.660645,3.472120,-16.560368,
3.006507,-16.423551,2.552913,-16.251021,2.114073,-16.043816,1.692633,-15.803188,1.291134,-15.530585,0.911995,-15.227652,0.557504,-14.896216,0.229798,-14.538274,-0.069148,-14.155984,-0.337532,-13.751652,-0.573734,-13.327716,-0.776332,-12.886730,-0.944103,-12.431355,-1.076037,-11.964335,-1.171337,-11.488486,-1.229429,-11.006678,-1.249963,-10.521815,-1.247832,-10.510901,-1.250000,-10.500000,-1.250000,14.500002,
-1.232524,14.967065,-1.180193,15.431516,-1.093299,15.890758,-0.972330,16.342222,-0.817961,16.783383,-0.631055,17.211775,-0.412658,17.625001,-0.163992,18.020752,0.113554,18.396812,0.418426,18.751081,0.748921,19.081575,1.103189,19.386448,1.479250,19.663993,1.875000,19.912659,2.288227,20.131056,2.716619,20.317961,3.157780,20.472330,3.609244,20.593300,4.068486,20.680193,4.532937,20.732524,
5.000000,20.750000,29.000002,20.750000,29.465511,20.732640,29.928434,20.680656,30.386199,20.594338,30.836264,20.474165,31.276128,20.320803,31.703347,20.135106,32.115549,19.918105,32.510443,19.671005,32.885837,19.395180,33.239643,19.092160,33.569898,18.763630,33.874766,18.411415,34.152553,18.037472,34.401717,17.643876,34.620874,17.232816,34.808805,16.806575,34.964468,16.367520,35.086996,15.918091,
35.175710,15.460784,35.230117,14.998140,35.249914,14.532728,35.246747,14.516357,35.250000,14.500000,35.250000,-9.500002,35.232524,-9.967065,35.180193,-10.431516,35.093299,-10.890758,34.972330,-11.342222,34.817961,-11.783383,34.631055,-12.211775,34.412658,-12.625001,34.163992,-13.020752,33.886446,-13.396812,33.581574,-13.751081,33.251079,-14.081575,32.896811,-14.386448,32.520750,-14.663993,32.125000,-14.912659,
31.711773,-15.131056,31.283381,-15.317961,30.842220,-15.472330,30.390756,-15.593300,29.931514,-15.680193,29.467063,-15.732524,29.000000,-15.750000,5.000000,-15.750000,4.566458,-15.732069,4.135878,-15.678397,3.711201,-15.589351,3.295328,-15.465541,2.891099,-15.307810,2.501276,-15.117237,2.128522,-14.895124,1.775383,-14.642988,1.444272,-14.362551,1.137449,-14.055728,0.857012,-13.724617,0.604876,-13.371478,
0.382763,-12.998724,0.192190,-12.608901,0.034459,-12.204672,-0.089351,-11.788799,-0.178397,-11.364122,-0.232069,-10.933542,-0.250000,-10.500000,-0.250000,0.600000,0.250000,0.600000,0.250000,-10.500000,0.246289,-10.518656,0.263567,-10.914384,0.317707,-11.325615,0.407482,-11.730562,0.532208,-12.126143,0.690937,-12.509349,0.882461,-12.877263,1.105321,-13.227084,1.357823,-13.556150,1.638043,-13.861957,
1.943850,-14.142177,2.272916,-14.394679,2.622738,-14.617539,2.990651,-14.809063,3.373857,-14.967792,3.769438,-15.092518,4.174385,-15.182293,4.585616,-15.236433,4.981344,-15.253711,5.000000,-15.250000,29.000000,-15.250000,29.018623,-15.253704,29.451488,-15.236697,29.900192,-15.183590,30.343346,-15.095441,30.778218,-14.972794,31.202127,-14.816406,31.612459,-14.627241,32.006684,-14.406464,32.382372,-14.155437,
32.737207,-13.875708,33.069000,-13.569002,33.375707,-13.237208,33.655436,-12.882374,33.906463,-12.506686,34.127240,-12.112461,34.316405,-11.702129,34.472794,-11.278220,34.595440,-10.843348,34.683589,-10.400194,34.736697,-9.951490,34.753704,-9.518625,34.750000,-9.500002,34.750000,14.500000,34.752996,14.515060,34.749920,14.530110,34.753530,14.548767,34.734380,14.980021,34.679284,15.426968,34.589406,15.868239,
34.465297,16.301130,34.307717,16.722990,34.117630,17.131236,33.896202,17.523367,33.644787,17.896983,33.364927,18.249794,33.058334,18.579640,32.726887,18.884502,32.372615,19.162511,31.997689,19.411966,31.604403,19.631338,31.195167,19.819284,30.772488,19.974653,30.338953,20.096494,29.897218,20.184060,29.449988,20.236815,29.018635,20.253706,29.000002,20.250000,5.000000,20.250000,4.981377,20.253704,
4.548512,20.236697,4.099808,20.183590,3.656654,20.095441,3.221782,19.972794,2.797873,19.816406,2.387541,19.627241,1.993316,19.406464,1.617628,19.155437,1.262793,18.875708,0.931000,18.569002,0.624293,18.237208,0.344564,17.882374,0.093537,17.506686,-0.127240,17.112461,-0.316405,16.702129,-0.472794,16.278220,-0.595440,15.843348,-0.683589,15.400194,-0.736697,14.951490,-0.753704,14.518625,
-0.750001,14.500006,-0.750000,14.500000,-0.750000,-10.500000,-0.751998,-10.510043,-0.749967,-10.520069,-0.753523,-10.538281,-0.735389,-10.966494,-0.681904,-11.410092,-0.594162,-11.848202,-0.472691,-12.278184,-0.318226,-12.697444,-0.131695,-13.103456,0.085775,-13.493772,0.332873,-13.866037,0.608111,-14.218008,0.909828,-14.547563,1.236205,-14.852714,1.585275,-15.131622,1.954932,-15.382605,2.342949,-15.604150,
2.746985,-15.794921,3.164606,-15.953769,3.593292,-16.079735,4.030460,-16.172059,4.473473,-16.230186,4.901471,-16.252804,4.919720,-16.249438,4.959806,-16.257995,5.000000,-16.250000,29.000000,-16.250000,29.014097,-16.252804,29.019536,-16.253886,29.501413,-16.235976,30.000060,-16.180169,30.493188,-16.087501,30.978076,-15.958483,31.452050,-15.793825,31.912492,-15.594438,32.356863,-15.361420,32.782711,-15.096059,
33.187684,-14.799818,33.569550,-14.474332,33.926201,-14.121397,34.255668,-13.742961,34.556134,-13.341111,34.825940,-12.918066,35.063598,-12.476159,35.267796,-12.017830,35.437408,-11.545607,35.571497,-11.062096,35.669325,-10.569966,35.730350,-10.071931,35.753305,-9.590269,35.749624,-9.570692,35.757035,-9.535370,35.750000,-9.500000,35.750000,14.500000,35.753886,14.519536,35.735976,15.001413,35.680169,15.500060,
35.587501,15.993188,35.458483,16.478076,35.293825,16.952050,35.094438,17.412492,34.861420,17.856863,34.596059,18.282711,34.299818,18.687684,33.974332,19.069550,33.621397,19.426201,33.242961,19.755668,32.841111,20.056134,32.418066,20.325940,31.976159,20.563598,31.517830,20.767796,31.045607,20.937408,30.562096,21.071497,30.069966,21.169325,29.571931,21.230350,29.090269,21.253305,29.070692,21.249624,
29.035370,21.257035,29.000000,21.250000,5.000000,21.250000,4.980464,21.253886,4.498587,21.235976,3.999940,21.180169,3.506812,21.087501,3.021924,20.958483,2.547950,20.793825,2.087508,20.594438,1.643137,20.361420,1.217289,20.096059,0.812316,19.799818,0.430450,19.474332,0.073799,19.121397,-0.255668,18.742961,-0.556134,18.341111,-0.825940,17.918066,-1.063598,17.476159,-1.267796,17.017830,
-1.437408,16.545607,-1.571497,16.062096,-1.669325,15.569966,-1.730350,15.071931,-1.753305,14.590269,-1.749624,14.570692,-1.757035,14.535370,-1.750000,14.500000,-1.750000,2.500000,-1.769030,2.404329,-1.823223,2.323223,-1.904329,2.269030,-2.000000,2.250000,-2.095671,2.269030,-2.176777,2.323223,-2.230970,2.404329,-2.250000,2.500000,-2.250000,14.500000,-2.242453,14.537942,-2.249596,14.575928,
-2.249595,14.575934,-2.225990,15.089475,-2.166051,15.600059,-2.070081,16.105111,-1.938561,16.602092,-1.772155,17.088504,-1.571697,17.561901,-1.338196,18.019903,-1.072826,18.460206,-0.776922,18.880597,-0.451971,19.278962,-0.099606,19.653298,0.278399,20.001723,0.680145,20.322485,1.103612,20.613971,1.546670,20.874715,2.007091,21.103407,2.482562,21.298896,2.970690,21.460200,3.469021,21.586508,
3.975051,21.677184,4.486234,21.731772,4.999994,21.749999,5.000000,21.750000,29.000000,21.750000,29.037942,21.742453,29.037942,21.742453,$1*%
G04 Aperture macros list end*
%ADD10C,0.100000*%
%TA.AperFunction,NonConductor*%
%ADD11C,0.100000*%
%TD*%
%TA.AperFunction,EtchedComponent*%
%ADD12C,0.250000*%
%TD*%
%TA.AperFunction,SMDPad,CuDef*%
%ADD13R,1.150000X1.900000*%
%TD*%
%TA.AperFunction,ComponentPad*%
%ADD14C,3.200000*%
%TD*%
%TA.AperFunction,SMDPad,CuDef*%
%ADD15RoundRect,0.125000X0.625000X-0.125000X0.625000X0.125000X-0.625000X0.125000X-0.625000X-0.125000X0*%
%TD*%
%TA.AperFunction,SMDPad,CuDef*%
%ADD16R,1.300000X2.000000*%
%TD*%
%TA.AperFunction,ComponentPad*%
%ADD17C,2.000000*%
%TD*%
%TA.AperFunction,SMDPad,CuDef*%
%ADD18RoundRect,0.225000X-0.225000X-0.250000X0.225000X-0.250000X0.225000X0.250000X-0.225000X0.250000X0*%
%TD*%
%TA.AperFunction,SMDPad,CuDef*%
%ADD19RoundRect,0.225000X0.250000X-0.225000X0.250000X0.225000X-0.250000X0.225000X-0.250000X-0.225000X0*%
%TD*%
%TA.AperFunction,SMDPad,CuDef*%
%ADD20RoundRect,0.200000X-0.200000X-0.275000X0.200000X-0.275000X0.200000X0.275000X-0.200000X0.275000X0*%
%TD*%
%TA.AperFunction,SMDPad,CuDef*%
%ADD21RoundRect,0.225000X-0.250000X0.225000X-0.250000X-0.225000X0.250000X-0.225000X0.250000X0.225000X0*%
%TD*%
%TA.AperFunction,SMDPad,CuDef*%
%ADD22RoundRect,0.200000X0.275000X-0.200000X0.275000X0.200000X-0.275000X0.200000X-0.275000X-0.200000X0*%
%TD*%
%TA.AperFunction,SMDPad,CuDef*%
%ADD23RoundRect,0.062500X-0.062500X0.287500X-0.062500X-0.287500X0.062500X-0.287500X0.062500X0.287500X0*%
%TD*%
%TA.AperFunction,SMDPad,CuDef*%
%ADD24RoundRect,0.062500X-0.287500X0.062500X-0.287500X-0.062500X0.287500X-0.062500X0.287500X0.062500X0*%
%TD*%
%TA.AperFunction,ComponentPad*%
%ADD25C,0.350000*%
%TD*%
%TA.AperFunction,SMDPad,CuDef*%
%ADD26FreePoly0,270.000000*%
%TD*%
%TA.AperFunction,SMDPad,CuDef*%
%ADD27RoundRect,0.225000X0.225000X0.250000X-0.225000X0.250000X-0.225000X-0.250000X0.225000X-0.250000X0*%
%TD*%
%TA.AperFunction,ComponentPad*%
%ADD28R,1.700000X1.700000*%
%TD*%
%TA.AperFunction,ComponentPad*%
%ADD29O,1.700000X1.700000*%
%TD*%
%TA.AperFunction,SMDPad,CuDef*%
%ADD30RoundRect,0.200000X-0.275000X0.200000X-0.275000X-0.200000X0.275000X-0.200000X0.275000X0.200000X0*%
%TD*%
%TA.AperFunction,ComponentPad*%
%ADD31RoundRect,0.250000X-0.600000X-0.675000X0.600000X-0.675000X0.600000X0.675000X-0.600000X0.675000X0*%
%TD*%
%TA.AperFunction,ComponentPad*%
%ADD32O,1.700000X1.850000*%
%TD*%
%TA.AperFunction,ComponentPad*%
%ADD33C,1.200000*%
%TD*%
%TA.AperFunction,SMDPad,CuDef*%
%ADD34FreePoly1,0.000000*%
%TD*%
%TA.AperFunction,SMDPad,CuDef*%
%ADD35R,1.000000X1.500000*%
%TD*%
%TA.AperFunction,SMDPad,CuDef*%
%ADD36FreePoly2,0.000000*%
%TD*%
%TA.AperFunction,SMDPad,CuDef*%
%ADD37RoundRect,0.200000X0.200000X0.275000X-0.200000X0.275000X-0.200000X-0.275000X0.200000X-0.275000X0*%
%TD*%
%TA.AperFunction,SMDPad,CuDef*%
%ADD38RoundRect,0.166600X0.636396X-0.895763X0.895763X-0.636396X-0.636396X0.895763X-0.895763X0.636396X0*%
%TD*%
%TA.AperFunction,SMDPad,CuDef*%
%ADD39RoundRect,0.242760X0.321734X-0.699668X0.699668X-0.321734X-0.321734X0.699668X-0.699668X0.321734X0*%
%TD*%
%TA.AperFunction,SMDPad,CuDef*%
%ADD40RoundRect,0.242760X-0.699668X-0.321734X-0.321734X-0.699668X0.699668X0.321734X0.321734X0.699668X0*%
%TD*%
%TA.AperFunction,SMDPad,CuDef*%
%ADD41RoundRect,0.166600X-0.895763X-0.636396X-0.636396X-0.895763X0.895763X0.636396X0.636396X0.895763X0*%
%TD*%
%TA.AperFunction,ComponentPad*%
%ADD42C,0.600000*%
%TD*%
%TA.AperFunction,SMDPad,CuDef*%
%ADD43FreePoly3,270.000000*%
%TD*%
%TA.AperFunction,SMDPad,CuDef*%
%ADD44R,1.500000X0.500000*%
%TD*%
%TA.AperFunction,SMDPad,CuDef*%
%ADD45R,0.650000X0.400000*%
%TD*%
%TA.AperFunction,SMDPad,CuDef*%
%ADD46R,0.400000X0.200000*%
%TD*%
%TA.AperFunction,SMDPad,CuDef*%
%ADD47R,1.400000X0.200000*%
%TD*%
%TA.AperFunction,SMDPad,CuDef*%
%ADD48R,0.200000X0.400000*%
%TD*%
%TA.AperFunction,SMDPad,CuDef*%
%ADD49R,0.200000X0.800000*%
%TD*%
%TA.AperFunction,SMDPad,CuDef*%
%ADD50R,0.200000X1.200000*%
%TD*%
%TA.AperFunction,SMDPad,CuDef*%
%ADD51R,0.200000X0.200000*%
%TD*%
%TA.AperFunction,SMDPad,CuDef*%
%ADD52R,0.600000X0.200000*%
%TD*%
%TA.AperFunction,SMDPad,CuDef*%
%ADD53R,1.000000X0.200000*%
%TD*%
%TA.AperFunction,SMDPad,CuDef*%
%ADD54R,0.600000X0.600000*%
%TD*%
%TA.AperFunction,SMDPad,CuDef*%
%ADD55R,0.200000X0.600000*%
%TD*%
%TA.AperFunction,SMDPad,CuDef*%
%ADD56R,0.800000X0.200000*%
%TD*%
%TA.AperFunction,SMDPad,CuDef*%
%ADD57R,0.400000X0.600000*%
%TD*%
%TA.AperFunction,ViaPad*%
%ADD58C,0.800000*%
%TD*%
%TA.AperFunction,Conductor*%
%ADD59C,0.250000*%
%TD*%
%TA.AperFunction,Conductor*%
%ADD60C,0.500000*%
%TD*%
G04 APERTURE END LIST*
D10*
D11*
X91828571Y-114414285D02*
X91800000Y-114385714D01*
X91771428Y-114328571D01*
X91771428Y-114185714D01*
X91800000Y-114128571D01*
X91828571Y-114100000D01*
X91885714Y-114071428D01*
X91942857Y-114071428D01*
X92028571Y-114100000D01*
X92371428Y-114442857D01*
X92371428Y-114071428D01*
X91771428Y-113700000D02*
X91771428Y-113642857D01*
X91800000Y-113585714D01*
X91828571Y-113557142D01*
X91885714Y-113528571D01*
X92000000Y-113500000D01*
X92142857Y-113500000D01*
X92257142Y-113528571D01*
X92314285Y-113557142D01*
X92342857Y-113585714D01*
X92371428Y-113642857D01*
X92371428Y-113700000D01*
X92342857Y-113757142D01*
X92314285Y-113785714D01*
X92257142Y-113814285D01*
X92142857Y-113842857D01*
X92000000Y-113842857D01*
X91885714Y-113814285D01*
X91828571Y-113785714D01*
X91800000Y-113757142D01*
X91771428Y-113700000D01*
X91828571Y-113271428D02*
X91800000Y-113242857D01*
X91771428Y-113185714D01*
X91771428Y-113042857D01*
X91800000Y-112985714D01*
X91828571Y-112957142D01*
X91885714Y-112928571D01*
X91942857Y-112928571D01*
X92028571Y-112957142D01*
X92371428Y-113300000D01*
X92371428Y-112928571D01*
X91828571Y-112700000D02*
X91800000Y-112671428D01*
X91771428Y-112614285D01*
X91771428Y-112471428D01*
X91800000Y-112414285D01*
X91828571Y-112385714D01*
X91885714Y-112357142D01*
X91942857Y-112357142D01*
X92028571Y-112385714D01*
X92371428Y-112728571D01*
X92371428Y-112357142D01*
X92142857Y-112100000D02*
X92142857Y-111642857D01*
X91771428Y-111242857D02*
X91771428Y-111185714D01*
X91800000Y-111128571D01*
X91828571Y-111100000D01*
X91885714Y-111071428D01*
X92000000Y-111042857D01*
X92142857Y-111042857D01*
X92257142Y-111071428D01*
X92314285Y-111100000D01*
X92342857Y-111128571D01*
X92371428Y-111185714D01*
X92371428Y-111242857D01*
X92342857Y-111300000D01*
X92314285Y-111328571D01*
X92257142Y-111357142D01*
X92142857Y-111385714D01*
X92000000Y-111385714D01*
X91885714Y-111357142D01*
X91828571Y-111328571D01*
X91800000Y-111300000D01*
X91771428Y-111242857D01*
X92371428Y-110471428D02*
X92371428Y-110814285D01*
X92371428Y-110642857D02*
X91771428Y-110642857D01*
X91857142Y-110700000D01*
X91914285Y-110757142D01*
X91942857Y-110814285D01*
X92142857Y-110214285D02*
X92142857Y-109757142D01*
X91771428Y-109357142D02*
X91771428Y-109300000D01*
X91800000Y-109242857D01*
X91828571Y-109214285D01*
X91885714Y-109185714D01*
X92000000Y-109157142D01*
X92142857Y-109157142D01*
X92257142Y-109185714D01*
X92314285Y-109214285D01*
X92342857Y-109242857D01*
X92371428Y-109300000D01*
X92371428Y-109357142D01*
X92342857Y-109414285D01*
X92314285Y-109442857D01*
X92257142Y-109471428D01*
X92142857Y-109500000D01*
X92000000Y-109500000D01*
X91885714Y-109471428D01*
X91828571Y-109442857D01*
X91800000Y-109414285D01*
X91771428Y-109357142D01*
X92371428Y-108585714D02*
X92371428Y-108928571D01*
X92371428Y-108757142D02*
X91771428Y-108757142D01*
X91857142Y-108814285D01*
X91914285Y-108871428D01*
X91942857Y-108928571D01*
%TO.C,JP1*%
G36*
X94250000Y-105200000D02*
G01*
X93750000Y-105200000D01*
X93750000Y-104800000D01*
X94250000Y-104800000D01*
X94250000Y-105200000D01*
G37*
G36*
X94250000Y-106000000D02*
G01*
X93750000Y-106000000D01*
X93750000Y-105600000D01*
X94250000Y-105600000D01*
X94250000Y-106000000D01*
G37*
D12*
%TO.C,AJK1*%
X89100000Y-90100000D02*
X86100000Y-94300000D01*
X90900000Y-90200000D02*
X89100000Y-92200000D01*
X89100000Y-90100000D02*
X89100000Y-94300000D01*
X89100000Y-92200000D02*
X90900000Y-94300000D01*
X89100000Y-92200000D02*
X87600000Y-92200000D01*
X87600000Y-94300000D02*
G75*
G03*
X89100000Y-94300000I750000J0D01*
G01*
%TD*%
D13*
%TO.P,Y1,1,1*%
%TO.N,Net-(C16-Pad1)*%
X93200000Y-98650000D03*
%TO.P,Y1,2,2*%
%TO.N,GND*%
X93200000Y-101350000D03*
%TO.P,Y1,3,3*%
%TO.N,Net-(C17-Pad1)*%
X94800000Y-101350000D03*
%TO.P,Y1,4,4*%
%TO.N,GND*%
X94800000Y-98650000D03*
%TD*%
D14*
%TO.P,H2,*%
%TO.N,*%
X88000000Y-88000000D03*
%TD*%
%TO.P,H1,*%
%TO.N,*%
X112000000Y-112000000D03*
%TD*%
D15*
%TO.P,D2,1,K*%
%TO.N,GND*%
X112000000Y-94900000D03*
%TO.P,D2,2,A*%
%TO.N,Net-(D2-Pad2)*%
X112000000Y-93100000D03*
%TD*%
%TO.P,D3,1,K*%
%TO.N,GND*%
X112000000Y-88900000D03*
%TO.P,D3,2,A*%
%TO.N,Net-(D3-Pad2)*%
X112000000Y-87100000D03*
%TD*%
D16*
%TO.P,SW1,1,1*%
%TO.N,GND*%
X90750000Y-104200000D03*
D17*
X90750000Y-96750000D03*
D16*
X90750000Y-95800000D03*
D17*
X90750000Y-103250000D03*
D16*
%TO.P,SW1,2,2*%
%TO.N,Net-(R11-Pad2)*%
X86250000Y-104200000D03*
D17*
X86250000Y-96750000D03*
X86250000Y-103250000D03*
D16*
X86250000Y-95800000D03*
%TD*%
D15*
%TO.P,D1,1,K*%
%TO.N,GND*%
X112000000Y-100900000D03*
%TO.P,D1,2,A*%
%TO.N,Net-(D1-Pad2)*%
X112000000Y-99100000D03*
%TD*%
D18*
%TO.P,C7,1*%
%TO.N,+3V3*%
X100600000Y-95350000D03*
%TO.P,C7,2*%
%TO.N,GND*%
X102150000Y-95350000D03*
%TD*%
D19*
%TO.P,C3,1*%
%TO.N,Net-(C3-Pad1)*%
X103800000Y-88300000D03*
%TO.P,C3,2*%
%TO.N,Net-(A1-Pad1)*%
X103800000Y-86750000D03*
%TD*%
D18*
%TO.P,C5,1*%
%TO.N,GND*%
X100925000Y-88275000D03*
%TO.P,C5,2*%
%TO.N,Net-(C3-Pad1)*%
X102475000Y-88275000D03*
%TD*%
D20*
%TO.P,R6,1*%
%TO.N,Net-(R6-Pad1)*%
X108175000Y-95800000D03*
%TO.P,R6,2*%
%TO.N,+5V*%
X109825000Y-95800000D03*
%TD*%
%TO.P,R4,1*%
%TO.N,Net-(C8-Pad2)*%
X93075000Y-88275000D03*
%TO.P,R4,2*%
%TO.N,Net-(C4-Pad2)*%
X94725000Y-88275000D03*
%TD*%
D21*
%TO.P,C13,1*%
%TO.N,+3V3*%
X106250000Y-98825000D03*
%TO.P,C13,2*%
%TO.N,GND*%
X106250000Y-100375000D03*
%TD*%
D18*
%TO.P,C14,1*%
%TO.N,+5V*%
X104725000Y-97300000D03*
%TO.P,C14,2*%
%TO.N,GND*%
X106275000Y-97300000D03*
%TD*%
%TO.P,C9,1*%
%TO.N,Net-(C9-Pad1)*%
X93100000Y-94750000D03*
%TO.P,C9,2*%
%TO.N,GND*%
X94650000Y-94750000D03*
%TD*%
%TO.P,C16,1*%
%TO.N,Net-(C16-Pad1)*%
X93225000Y-97500000D03*
%TO.P,C16,2*%
%TO.N,GND*%
X94775000Y-97500000D03*
%TD*%
D20*
%TO.P,R9,1*%
%TO.N,Net-(R9-Pad1)*%
X108175000Y-100300000D03*
%TO.P,R9,2*%
%TO.N,Net-(D2-Pad2)*%
X109825000Y-100300000D03*
%TD*%
%TO.P,R8,1*%
%TO.N,Net-(R8-Pad1)*%
X108175000Y-101800000D03*
%TO.P,R8,2*%
%TO.N,Net-(D1-Pad2)*%
X109825000Y-101800000D03*
%TD*%
D22*
%TO.P,R11,1*%
%TO.N,+3V3*%
X99300000Y-105975000D03*
%TO.P,R11,2*%
%TO.N,Net-(R11-Pad2)*%
X99300000Y-104325000D03*
%TD*%
D23*
%TO.P,U1,1,DVSS*%
%TO.N,GND*%
X102250000Y-97100000D03*
%TO.P,U1,2,LOADMOD*%
%TO.N,unconnected-(U1-Pad2)*%
X101750000Y-97100000D03*
%TO.P,U1,3,TVSS1*%
%TO.N,GND*%
X101250000Y-97100000D03*
%TO.P,U1,4,TX1*%
%TO.N,Net-(L1-Pad1)*%
X100750000Y-97100000D03*
%TO.P,U1,5,TVDD*%
%TO.N,+3V3*%
X100250000Y-97100000D03*
%TO.P,U1,6,TX2*%
%TO.N,Net-(L2-Pad2)*%
X99750000Y-97100000D03*
%TO.P,U1,7,TVSS2*%
%TO.N,GND*%
X99250000Y-97100000D03*
%TO.P,U1,8,AVDD*%
%TO.N,+3V3*%
X98750000Y-97100000D03*
%TO.P,U1,9,VMID*%
%TO.N,Net-(C9-Pad1)*%
X98250000Y-97100000D03*
%TO.P,U1,10,RX*%
%TO.N,Net-(C8-Pad1)*%
X97750000Y-97100000D03*
D24*
%TO.P,U1,11,AVSS*%
%TO.N,GND*%
X97100000Y-97750000D03*
%TO.P,U1,12,AUX1*%
%TO.N,unconnected-(U1-Pad12)*%
X97100000Y-98250000D03*
%TO.P,U1,13,AUX2*%
%TO.N,unconnected-(U1-Pad13)*%
X97100000Y-98750000D03*
%TO.P,U1,14,OSCIN*%
%TO.N,Net-(C16-Pad1)*%
X97100000Y-99250000D03*
%TO.P,U1,15,OSCOUT*%
%TO.N,Net-(C17-Pad1)*%
X97100000Y-99750000D03*
%TO.P,U1,16,I0*%
%TO.N,GND*%
X97100000Y-100250000D03*
%TO.P,U1,17,I1*%
%TO.N,Net-(JP1-Pad2)*%
X97100000Y-100750000D03*
%TO.P,U1,18,TESTEN*%
%TO.N,GND*%
X97100000Y-101250000D03*
%TO.P,U1,19,P35*%
%TO.N,unconnected-(U1-Pad19)*%
X97100000Y-101750000D03*
%TO.P,U1,20,NC*%
%TO.N,unconnected-(U1-Pad20)*%
X97100000Y-102250000D03*
D23*
%TO.P,U1,21,NC*%
%TO.N,unconnected-(U1-Pad21)*%
X97750000Y-102900000D03*
%TO.P,U1,22,NC*%
%TO.N,unconnected-(U1-Pad22)*%
X98250000Y-102900000D03*
%TO.P,U1,23,PVDD*%
%TO.N,+3V3*%
X98750000Y-102900000D03*
%TO.P,U1,24,P30/UART_RX*%
%TO.N,Net-(R11-Pad2)*%
X99250000Y-102900000D03*
%TO.P,U1,25,P70_IRQ*%
%TO.N,unconnected-(U1-Pad25)*%
X99750000Y-102900000D03*
%TO.P,U1,26,RSTOUT_N*%
%TO.N,unconnected-(U1-Pad26)*%
X100250000Y-102900000D03*
%TO.P,U1,27,NSS/P50_SCL/HSU_RX*%
%TO.N,Net-(C19-Pad1)*%
X100750000Y-102900000D03*
%TO.P,U1,28,MOSI/SDA/HSU_TX*%
%TO.N,Net-(D6-Pad6)*%
X101250000Y-102900000D03*
%TO.P,U1,29,MISO/P71*%
%TO.N,unconnected-(U1-Pad29)*%
X101750000Y-102900000D03*
%TO.P,U1,30,SCK/P72*%
%TO.N,Net-(D4-Pad3)*%
X102250000Y-102900000D03*
D24*
%TO.P,U1,31,P31/DBG_TX*%
%TO.N,Net-(R8-Pad1)*%
X102900000Y-102250000D03*
%TO.P,U1,32,P32_INT0*%
%TO.N,Net-(R9-Pad1)*%
X102900000Y-101750000D03*
%TO.P,U1,33,P33_INT1*%
%TO.N,Net-(R10-Pad1)*%
X102900000Y-101250000D03*
%TO.P,U1,34,P34/SIG_CLK*%
%TO.N,unconnected-(U1-Pad34)*%
X102900000Y-100750000D03*
%TO.P,U1,35,SIGOUT*%
%TO.N,unconnected-(U1-Pad35)*%
X102900000Y-100250000D03*
%TO.P,U1,36,SIGN*%
%TO.N,unconnected-(U1-Pad36)*%
X102900000Y-99750000D03*
%TO.P,U1,37,SVDD*%
%TO.N,unconnected-(U1-Pad37)*%
X102900000Y-99250000D03*
%TO.P,U1,38,RSTPD_N*%
%TO.N,Net-(R6-Pad1)*%
X102900000Y-98750000D03*
%TO.P,U1,39,DVDD*%
%TO.N,+3V3*%
X102900000Y-98250000D03*
%TO.P,U1,40,VBAT*%
%TO.N,+5V*%
X102900000Y-97750000D03*
D25*
%TO.P,U1,41,COPPER*%
%TO.N,GND*%
X101000000Y-101000000D03*
X100000000Y-100000000D03*
D26*
X100000000Y-100000000D03*
D25*
X99000000Y-99000000D03*
X101000000Y-99000000D03*
X99000000Y-101000000D03*
%TD*%
D27*
%TO.P,C17,1*%
%TO.N,Net-(C17-Pad1)*%
X94775000Y-102500000D03*
%TO.P,C17,2*%
%TO.N,GND*%
X93225000Y-102500000D03*
%TD*%
D28*
%TO.P,J1,1,Pin_1*%
%TO.N,GND*%
X112000000Y-107270000D03*
D29*
%TO.P,J1,2,Pin_2*%
%TO.N,Net-(J1-Pad2)*%
X112000000Y-104730000D03*
%TD*%
D27*
%TO.P,C12,1*%
%TO.N,+3V3*%
X99400000Y-93850000D03*
%TO.P,C12,2*%
%TO.N,GND*%
X97850000Y-93850000D03*
%TD*%
D30*
%TO.P,R5,1*%
%TO.N,Net-(C8-Pad1)*%
X93100000Y-92025000D03*
%TO.P,R5,2*%
%TO.N,Net-(C9-Pad1)*%
X93100000Y-93675000D03*
%TD*%
D20*
%TO.P,R7,1*%
%TO.N,Net-(R6-Pad1)*%
X108175000Y-97300000D03*
%TO.P,R7,2*%
%TO.N,GND*%
X109825000Y-97300000D03*
%TD*%
%TO.P,R10,1*%
%TO.N,Net-(R10-Pad1)*%
X108175000Y-98800000D03*
%TO.P,R10,2*%
%TO.N,Net-(D3-Pad2)*%
X109825000Y-98800000D03*
%TD*%
D19*
%TO.P,C18,1*%
%TO.N,+3V3*%
X97700000Y-105925000D03*
%TO.P,C18,2*%
%TO.N,GND*%
X97700000Y-104375000D03*
%TD*%
D21*
%TO.P,C11,1*%
%TO.N,+3V3*%
X104750000Y-98825000D03*
%TO.P,C11,2*%
%TO.N,GND*%
X104750000Y-100375000D03*
%TD*%
D19*
%TO.P,C8,1*%
%TO.N,Net-(C8-Pad1)*%
X93100000Y-90975000D03*
%TO.P,C8,2*%
%TO.N,Net-(C8-Pad2)*%
X93100000Y-89425000D03*
%TD*%
D31*
%TO.P,J3,1,Pin_1*%
%TO.N,GND*%
X96250000Y-108900000D03*
D32*
%TO.P,J3,2,Pin_2*%
%TO.N,+5V*%
X98750000Y-108900000D03*
%TO.P,J3,3,Pin_3*%
%TO.N,Net-(J2-Pad3)*%
X101250000Y-108900000D03*
%TO.P,J3,4,Pin_4*%
%TO.N,Net-(J2-Pad4)*%
X103750000Y-108900000D03*
%TD*%
D18*
%TO.P,C10,1*%
%TO.N,+3V3*%
X100600000Y-93850000D03*
%TO.P,C10,2*%
%TO.N,GND*%
X102150000Y-93850000D03*
%TD*%
D27*
%TO.P,C1,1*%
%TO.N,Net-(A1-Pad1)*%
X102475000Y-87100000D03*
X102475000Y-85900000D03*
%TO.P,C1,2*%
%TO.N,GND*%
X100925000Y-87100000D03*
X100925000Y-85900000D03*
%TD*%
%TO.P,C6,1*%
%TO.N,GND*%
X99075000Y-88275000D03*
%TO.P,C6,2*%
%TO.N,Net-(C4-Pad2)*%
X97525000Y-88275000D03*
%TD*%
D22*
%TO.P,R15,1*%
%TO.N,+3V3*%
X104000000Y-105975000D03*
%TO.P,R15,2*%
%TO.N,Net-(D4-Pad3)*%
X104000000Y-104325000D03*
%TD*%
D33*
%TO.P,TP1,1,1*%
%TO.N,Net-(L1-Pad1)*%
X101250000Y-92400000D03*
%TO.P,TP1,2,2*%
%TO.N,Net-(L2-Pad2)*%
X98750000Y-92400000D03*
%TD*%
D34*
%TO.P,JP1,1,A*%
%TO.N,GND*%
X93350000Y-105400000D03*
D35*
%TO.P,JP1,2,C*%
%TO.N,Net-(JP1-Pad2)*%
X94650000Y-105400000D03*
D36*
%TO.P,JP1,3,B*%
%TO.N,+3V3*%
X95950000Y-105400000D03*
%TD*%
D20*
%TO.P,R13,1*%
%TO.N,Net-(J2-Pad3)*%
X100825000Y-105900000D03*
%TO.P,R13,2*%
%TO.N,Net-(D6-Pad6)*%
X102475000Y-105900000D03*
%TD*%
D18*
%TO.P,C15,1*%
%TO.N,+3V3*%
X93100000Y-95950000D03*
%TO.P,C15,2*%
%TO.N,GND*%
X94650000Y-95950000D03*
%TD*%
D37*
%TO.P,R14,1*%
%TO.N,Net-(J2-Pad4)*%
X102475000Y-104400000D03*
%TO.P,R14,2*%
%TO.N,Net-(C19-Pad1)*%
X100825000Y-104400000D03*
%TD*%
D38*
%TO.P,L1,1,1*%
%TO.N,Net-(L1-Pad1)*%
X102542893Y-91707107D03*
D39*
X102260051Y-91989949D03*
D38*
%TO.P,L1,2,2*%
%TO.N,Net-(C3-Pad1)*%
X103957107Y-90292893D03*
D39*
X104239949Y-90010051D03*
%TD*%
D40*
%TO.P,L2,1,1*%
%TO.N,Net-(C4-Pad2)*%
X95760051Y-90010051D03*
D41*
X96042893Y-90292893D03*
D40*
%TO.P,L2,2,2*%
%TO.N,Net-(L2-Pad2)*%
X97739949Y-91989949D03*
D41*
X97457107Y-91707107D03*
%TD*%
D21*
%TO.P,C4,1*%
%TO.N,Net-(A1-Pad3)*%
X96200000Y-86750000D03*
%TO.P,C4,2*%
%TO.N,Net-(C4-Pad2)*%
X96200000Y-88300000D03*
%TD*%
D30*
%TO.P,A1,*%
%TO.N,*%
X98000000Y-83150000D03*
X102000000Y-83150000D03*
D42*
X98000000Y-83000000D03*
D43*
X97500000Y-83000000D03*
D42*
X100000000Y-81000000D03*
D44*
X100000000Y-81000000D03*
D42*
X102000000Y-83000000D03*
D30*
%TO.P,A1,1*%
%TO.N,Net-(A1-Pad1)*%
X102000000Y-84850000D03*
D44*
%TO.P,A1,2*%
%TO.N,GND*%
X100000000Y-83000000D03*
D30*
%TO.P,A1,3*%
%TO.N,Net-(A1-Pad3)*%
X98000000Y-84850000D03*
%TD*%
%TO.P,R12,1*%
%TO.N,Net-(D4-Pad3)*%
X105600000Y-104325000D03*
%TO.P,R12,2*%
%TO.N,Net-(J1-Pad2)*%
X105600000Y-105975000D03*
%TD*%
D45*
%TO.P,D5,1,A1*%
%TO.N,GND*%
X108050000Y-93250000D03*
%TO.P,D5,2,K2*%
%TO.N,+3V3*%
X108050000Y-93900000D03*
%TO.P,D5,3,K1A2*%
%TO.N,Net-(D3-Pad2)*%
X108050000Y-94550000D03*
%TO.P,D5,4,A3*%
%TO.N,GND*%
X109950000Y-94550000D03*
%TO.P,D5,5,K4*%
%TO.N,+3V3*%
X109950000Y-93900000D03*
%TO.P,D5,6,K3A4*%
%TO.N,Net-(D2-Pad2)*%
X109950000Y-93250000D03*
%TD*%
D27*
%TO.P,C2,1*%
%TO.N,GND*%
X99075000Y-85900000D03*
X99075000Y-87100000D03*
%TO.P,C2,2*%
%TO.N,Net-(A1-Pad3)*%
X97525000Y-85900000D03*
X97525000Y-87100000D03*
%TD*%
D46*
%TO.P,U2,*%
%TO.N,*%
X88400000Y-109900000D03*
D47*
X89900000Y-109500000D03*
D48*
X87500000Y-111800000D03*
D46*
X86600000Y-111300000D03*
D49*
X89100000Y-111600000D03*
D48*
X88100000Y-111600000D03*
X88100000Y-113400000D03*
D50*
X89300000Y-113000000D03*
X89300000Y-110200000D03*
D51*
X88700000Y-111300000D03*
X87900000Y-111700000D03*
D52*
X90300000Y-111100000D03*
D53*
X89900000Y-110700000D03*
D48*
X90100000Y-111800000D03*
D51*
X88700000Y-109700000D03*
D54*
X87100000Y-110100000D03*
D51*
X88300000Y-110900000D03*
D52*
X88500000Y-111900000D03*
D51*
X88300000Y-111300000D03*
X87700000Y-112700000D03*
X86900000Y-112700000D03*
X88500000Y-109500000D03*
D48*
X88100000Y-109600000D03*
D51*
X89300000Y-111500000D03*
D48*
X89700000Y-111800000D03*
D52*
X88700000Y-112100000D03*
X87900000Y-111100000D03*
D51*
X88300000Y-112500000D03*
D53*
X89900000Y-113500000D03*
D49*
X87700000Y-111600000D03*
D48*
X88100000Y-110600000D03*
D46*
X87000000Y-112300000D03*
D55*
X88500000Y-112900000D03*
D46*
X88200000Y-112300000D03*
X88000000Y-112100000D03*
D54*
X89900000Y-112900000D03*
D51*
X87500000Y-113100000D03*
D53*
X87100000Y-110700000D03*
D51*
X87300000Y-111500000D03*
D55*
X87900000Y-112700000D03*
D48*
X86900000Y-111200000D03*
D47*
X89900000Y-112300000D03*
D51*
X87300000Y-112700000D03*
X88700000Y-112500000D03*
X86700000Y-112900000D03*
D55*
X88300000Y-113300000D03*
D51*
X86700000Y-113300000D03*
D50*
X90500000Y-110200000D03*
D47*
X87100000Y-109500000D03*
D46*
X90000000Y-111500000D03*
D55*
X88700000Y-110300000D03*
D48*
X87300000Y-112200000D03*
D46*
X88200000Y-110100000D03*
D50*
X87700000Y-110200000D03*
D51*
X87500000Y-113500000D03*
X88700000Y-113300000D03*
D55*
X88900000Y-112500000D03*
X86500000Y-113300000D03*
D56*
X89400000Y-111100000D03*
D51*
X87100000Y-111300000D03*
D54*
X89900000Y-110100000D03*
D55*
X87500000Y-112500000D03*
X88900000Y-113300000D03*
D51*
X88900000Y-111700000D03*
X89300000Y-111900000D03*
D50*
X86500000Y-110200000D03*
D57*
X90400000Y-111500000D03*
D50*
X90500000Y-113000000D03*
X88500000Y-111000000D03*
D49*
X86500000Y-112200000D03*
D48*
X87100000Y-113400000D03*
D55*
X88900000Y-110900000D03*
D51*
X88900000Y-109900000D03*
%TD*%
D18*
%TO.P,C19,1*%
%TO.N,Net-(C19-Pad1)*%
X108225000Y-108200000D03*
%TO.P,C19,2*%
%TO.N,GND*%
X109775000Y-108200000D03*
%TD*%
D45*
%TO.P,D4,1,A1*%
%TO.N,GND*%
X108050000Y-103050000D03*
%TO.P,D4,2,K2*%
%TO.N,+3V3*%
X108050000Y-103700000D03*
%TO.P,D4,3,K1A2*%
%TO.N,Net-(D4-Pad3)*%
X108050000Y-104350000D03*
%TO.P,D4,4,A3*%
%TO.N,GND*%
X109950000Y-104350000D03*
%TO.P,D4,5,K4*%
%TO.N,+3V3*%
X109950000Y-103700000D03*
%TO.P,D4,6,K3A4*%
%TO.N,Net-(D1-Pad2)*%
X109950000Y-103050000D03*
%TD*%
%TO.P,D6,1,A1*%
%TO.N,GND*%
X109950000Y-106950000D03*
%TO.P,D6,2,K2*%
%TO.N,+3V3*%
X109950000Y-106300000D03*
%TO.P,D6,3,K1A2*%
%TO.N,Net-(C19-Pad1)*%
X109950000Y-105650000D03*
%TO.P,D6,4,A3*%
%TO.N,GND*%
X108050000Y-105650000D03*
%TO.P,D6,5,K4*%
%TO.N,+3V3*%
X108050000Y-106300000D03*
%TO.P,D6,6,K3A4*%
%TO.N,Net-(D6-Pad6)*%
X108050000Y-106950000D03*
%TD*%
D28*
%TO.P,J2,1,Pin_1*%
%TO.N,GND*%
X96190000Y-112000000D03*
D29*
%TO.P,J2,2,Pin_2*%
%TO.N,+5V*%
X98730000Y-112000000D03*
%TO.P,J2,3,Pin_3*%
%TO.N,Net-(J2-Pad3)*%
X101270000Y-112000000D03*
%TO.P,J2,4,Pin_4*%
%TO.N,Net-(J2-Pad4)*%
X103810000Y-112000000D03*
%TD*%
D58*
%TO.N,+5V*%
X105250000Y-96100000D03*
%TO.N,GND*%
X95950000Y-98175000D03*
X112000000Y-101600000D03*
X112000000Y-95600000D03*
X100000000Y-92825000D03*
X109000000Y-107100000D03*
X109000000Y-105500000D03*
X109000000Y-102974990D03*
X106200000Y-95500000D03*
X106204578Y-101328835D03*
X96075000Y-103850000D03*
X93225000Y-103575000D03*
X110642980Y-97631700D03*
X112000000Y-89600000D03*
%TO.N,+3V3*%
X107198632Y-103625500D03*
X96575000Y-94425000D03*
X106246541Y-107243575D03*
X92154664Y-92660718D03*
X107200000Y-96509732D03*
X91500000Y-106000000D03*
X99500000Y-94625000D03*
%TO.N,+5V*%
X110688884Y-96374744D03*
X105225000Y-94375000D03*
%TO.N,Net-(D1-Pad2)*%
X110900000Y-101900000D03*
X112000000Y-98400000D03*
%TO.N,Net-(D2-Pad2)*%
X112000000Y-92400000D03*
X112000000Y-97300000D03*
%TO.N,Net-(D3-Pad2)*%
X108900000Y-94600000D03*
X112000000Y-86400000D03*
%TO.N,Net-(C9-Pad1)*%
X94229759Y-93387920D03*
X96550000Y-95775000D03*
%TO.N,Net-(J1-Pad2)*%
X106700000Y-105200000D03*
%TO.N,Net-(J2-Pad4)*%
X105263126Y-107425011D03*
%TD*%
D59*
%TO.N,Net-(D4-Pad3)*%
X102475000Y-103600000D02*
X103650000Y-103600000D01*
X104000000Y-104325000D02*
X104000000Y-103950000D01*
X103650000Y-103600000D02*
G75*
G02*
X104000000Y-103950000I-1J-350001D01*
G01*
X102250000Y-102900000D02*
X102250000Y-103375000D01*
X102475000Y-103600000D02*
G75*
G02*
X102250000Y-103375000I0J225000D01*
G01*
%TO.N,+3V3*%
X93275000Y-106600000D02*
X95400000Y-106600000D01*
X93275000Y-106600000D02*
X93125978Y-106600000D01*
X92300489Y-105774511D02*
G75*
G03*
X93125978Y-106600000I825489J0D01*
G01*
%TO.N,Net-(C8-Pad1)*%
X94892462Y-92767462D02*
G75*
G03*
X93100000Y-92025000I-1792465J-1792469D01*
G01*
X96200000Y-96650000D02*
G75*
G02*
X95700000Y-95442894I1207108J1207107D01*
G01*
X94892462Y-92767462D02*
X94922182Y-92797182D01*
X95700000Y-94675000D02*
G75*
G03*
X94922182Y-92797182I-2655637J-1D01*
G01*
X97286396Y-97100000D02*
G75*
G02*
X96200000Y-96650000I-2J1536390D01*
G01*
X95700000Y-94675000D02*
X95700000Y-95442894D01*
X97286396Y-97100000D02*
X97750000Y-97100000D01*
%TO.N,Net-(C9-Pad1)*%
X94188661Y-93429018D02*
X94229759Y-93387920D01*
X94121832Y-93429018D02*
X94188661Y-93429018D01*
X93100000Y-93675000D02*
X93750000Y-93675000D01*
X94121832Y-93429018D02*
G75*
G02*
X93750000Y-93675000I-374087J161453D01*
G01*
%TO.N,GND*%
X97700000Y-104375000D02*
X96600000Y-104375000D01*
X96075000Y-103850000D02*
G75*
G03*
X96600000Y-104375000I525000J0D01*
G01*
%TO.N,+3V3*%
X99400000Y-93850000D02*
X99400000Y-94525000D01*
X99500000Y-94625000D02*
G75*
G02*
X99400000Y-94525000I-1J99999D01*
G01*
D60*
%TO.N,+5V*%
X104725000Y-96625000D02*
G75*
G02*
X105250000Y-96100000I525000J0D01*
G01*
X104725000Y-96625000D02*
X104725000Y-97300000D01*
D59*
X105250000Y-94400000D02*
G75*
G03*
X105225000Y-94375000I-24999J1D01*
G01*
X105250000Y-94400000D02*
X105250000Y-96100000D01*
%TO.N,+3V3*%
X98181492Y-95727500D02*
X97093947Y-94639955D01*
X96575000Y-94425001D02*
G75*
G02*
X97093946Y-94639956I0J-733901D01*
G01*
%TO.N,Net-(C9-Pad1)*%
X97861091Y-96161092D02*
G75*
G02*
X98250000Y-97100000I-938902J-938906D01*
G01*
X97861091Y-96161092D02*
X97700000Y-96000000D01*
X96550000Y-95775000D02*
X97156802Y-95775000D01*
X97700000Y-96000000D02*
G75*
G03*
X97156802Y-95775000I-543196J-543194D01*
G01*
D60*
%TO.N,GND*%
X95946751Y-98175000D02*
G75*
G03*
X94800000Y-98650000I3J-1621757D01*
G01*
X95946751Y-98175000D02*
X95950000Y-98175000D01*
D59*
%TO.N,Net-(R8-Pad1)*%
X105550000Y-103000000D02*
X106500000Y-103000000D01*
X105000000Y-103000000D02*
X105550000Y-103000000D01*
X105550000Y-103000000D02*
X105180330Y-103000000D01*
X104275000Y-102625000D02*
G75*
G03*
X105180330Y-103000000I905329J905327D01*
G01*
X103537868Y-102250001D02*
G75*
G02*
X104156065Y-102506067I3J-874256D01*
G01*
X104275000Y-102625000D02*
X104156066Y-102506066D01*
%TO.N,Net-(R10-Pad1)*%
X107450481Y-99850480D02*
G75*
G02*
X107680969Y-99294031I786935J1D01*
G01*
X104723372Y-101776628D02*
G75*
G03*
X105465206Y-102083906I741836J741837D01*
G01*
X104723372Y-101776628D02*
X104583351Y-101636606D01*
X107255192Y-100621946D02*
X107108418Y-100768720D01*
X107450480Y-99850480D02*
X107450480Y-100150480D01*
X103650000Y-101250000D02*
X102900000Y-101250000D01*
X106210234Y-102083906D02*
G75*
G03*
X106732370Y-101867630I1J738408D01*
G01*
X107255192Y-100621946D02*
G75*
G03*
X107450480Y-100150480I-471466J471467D01*
G01*
X106950831Y-101149170D02*
G75*
G02*
X107108419Y-100768721I538038J-1D01*
G01*
X106210234Y-102083906D02*
X105465206Y-102083906D01*
X103650000Y-101250001D02*
G75*
G02*
X104583351Y-101636606I-1J-1319962D01*
G01*
X106950830Y-101149170D02*
X106947723Y-101347723D01*
X106732370Y-101867630D02*
G75*
G03*
X106947723Y-101347723I-519906J519907D01*
G01*
X108175000Y-98800000D02*
X107680969Y-99294031D01*
%TO.N,Net-(R9-Pad1)*%
X107450480Y-101450480D02*
G75*
G02*
X107584483Y-101126969I457505J3D01*
G01*
X103572703Y-101750001D02*
G75*
G02*
X104387499Y-102087501I0J-1152296D01*
G01*
X108175000Y-100300000D02*
X108175000Y-100536453D01*
X107245137Y-102045137D02*
G75*
G03*
X107450480Y-101549396I-495742J495742D01*
G01*
X107450480Y-101450480D02*
X107450480Y-101549396D01*
X108175000Y-100536453D02*
X107584483Y-101126969D01*
X107050120Y-102239801D02*
X106868927Y-102412322D01*
X103572703Y-101750000D02*
X102900000Y-101750000D01*
X107245137Y-102045137D02*
X107050465Y-102239809D01*
X107050465Y-102239809D02*
X107050120Y-102239801D01*
X104487500Y-102187500D02*
G75*
G03*
X105362452Y-102549917I874953J874954D01*
G01*
X106868927Y-102412322D02*
X106770667Y-102477978D01*
X106770667Y-102477978D02*
X106666678Y-102521051D01*
X106666678Y-102521051D02*
X106550764Y-102544109D01*
X106550764Y-102544109D02*
X106313831Y-102549917D01*
X106313831Y-102549917D02*
X105362452Y-102549917D01*
X104487500Y-102187500D02*
X104387500Y-102087500D01*
D60*
%TO.N,GND*%
X106275000Y-97300000D02*
X106275000Y-95575000D01*
D59*
X109586396Y-92613604D02*
X111575735Y-90624265D01*
D60*
X102075000Y-93850000D02*
X102075000Y-95350000D01*
D59*
X109950000Y-104350000D02*
X109256885Y-104350000D01*
X93350000Y-103700000D02*
X93225000Y-103575000D01*
X110931587Y-103943414D02*
X110987500Y-103887500D01*
D60*
X99975000Y-87125000D02*
X100000000Y-87100000D01*
X106250000Y-101283413D02*
X106204578Y-101328835D01*
D59*
X111200000Y-97000000D02*
X111575735Y-96624265D01*
D60*
X93225000Y-101375000D02*
X93200000Y-101350000D01*
X99075000Y-88275000D02*
X99950000Y-88275000D01*
D59*
X111936396Y-95600000D02*
X112000000Y-95600000D01*
D60*
X99075000Y-85925000D02*
X99975000Y-85925000D01*
X93225000Y-102500000D02*
X93225000Y-101375000D01*
D59*
X101250000Y-96975000D02*
X101250000Y-98750000D01*
D60*
X94775000Y-98625000D02*
X94800000Y-98650000D01*
X96250000Y-108900000D02*
X96250000Y-111940000D01*
D59*
X108050000Y-93250000D02*
X107750000Y-93250000D01*
X90750000Y-96750000D02*
X90750000Y-103250000D01*
X99250000Y-96975000D02*
X99250000Y-98750000D01*
X110987500Y-103887500D02*
X111664124Y-103210875D01*
X109825000Y-97300000D02*
X109842186Y-97300000D01*
X112000000Y-89600000D02*
X112000000Y-88949520D01*
X108050000Y-105650000D02*
X108850000Y-105650000D01*
D60*
X94650000Y-95950000D02*
X94650000Y-97375000D01*
X104750000Y-100375000D02*
X106250000Y-100375000D01*
D59*
X112000000Y-102400000D02*
X112000000Y-101600000D01*
X93350000Y-105400000D02*
X93350000Y-103700000D01*
D60*
X96250000Y-111940000D02*
X96190000Y-112000000D01*
D59*
X102250000Y-97100000D02*
X102250000Y-97479290D01*
X102200000Y-97600000D02*
X101141422Y-98658578D01*
X99250000Y-97100000D02*
X99250000Y-96809643D01*
D60*
X94775000Y-97500000D02*
X94775000Y-98625000D01*
D59*
X112000000Y-101600000D02*
X112000000Y-100949520D01*
X99250000Y-98750000D02*
X99000000Y-99000000D01*
D60*
X100000000Y-83000000D02*
X100000000Y-92825000D01*
D59*
X98750000Y-101250000D02*
X99000000Y-101000000D01*
X108050000Y-103050000D02*
X108924990Y-103050000D01*
X96975000Y-100250000D02*
X98250000Y-100250000D01*
X110462132Y-94762132D02*
X110850000Y-95150000D01*
D60*
X106250000Y-100375000D02*
X106250000Y-101283413D01*
D59*
X98250000Y-100250000D02*
X99000000Y-101000000D01*
X109775000Y-108200000D02*
X109229810Y-107654810D01*
D60*
X100925000Y-88275000D02*
X99950000Y-88275000D01*
X106275000Y-95575000D02*
X106200000Y-95500000D01*
D59*
X97850000Y-93850000D02*
X97850000Y-94051800D01*
X110695787Y-97504214D02*
X111200000Y-97000000D01*
X109000000Y-104606885D02*
X109000000Y-105500000D01*
X106200000Y-94800000D02*
X106200000Y-95500000D01*
X98792268Y-95704581D02*
X98792305Y-95702609D01*
X98792305Y-95702609D02*
X98350988Y-95261292D01*
X108850000Y-105650000D02*
X109000000Y-105500000D01*
X108924990Y-103050000D02*
X109000000Y-102974990D01*
D60*
X99075000Y-87125000D02*
X99975000Y-87125000D01*
D59*
X102250000Y-97100000D02*
X102250000Y-95525000D01*
D60*
X94650000Y-95950000D02*
X94650000Y-94750000D01*
D59*
X109950000Y-106950000D02*
X109150000Y-106950000D01*
X97583466Y-97783466D02*
X98658578Y-98858578D01*
X101250000Y-98750000D02*
X101000000Y-99000000D01*
D60*
X100900000Y-87100000D02*
X100000000Y-87100000D01*
X93225000Y-102500000D02*
X93225000Y-103575000D01*
D59*
X96975000Y-101250000D02*
X98750000Y-101250000D01*
X97100000Y-97750000D02*
X97502672Y-97750000D01*
D60*
X100925000Y-85925000D02*
X99975000Y-85925000D01*
D59*
X109150000Y-106950000D02*
X109000000Y-107100000D01*
X112000000Y-95600000D02*
X112000000Y-94950010D01*
X97583466Y-97783466D02*
G75*
G03*
X97502672Y-97750000I-80797J-80801D01*
G01*
X111999999Y-89600000D02*
G75*
G02*
X111575734Y-90624264I-1448525J-1D01*
G01*
X102200000Y-97600000D02*
G75*
G03*
X102250000Y-97479290I-120706J120709D01*
G01*
X106200000Y-94800000D02*
G75*
G02*
X107750000Y-93250000I1549998J2D01*
G01*
X109000000Y-107100000D02*
G75*
G03*
X109229810Y-107654810I784623J2D01*
G01*
X102075000Y-95350000D02*
G75*
G02*
X102250000Y-95525000I1J-174999D01*
G01*
X101000000Y-99000000D02*
G75*
G02*
X101141422Y-98658578I482846J-2D01*
G01*
X98792268Y-95704581D02*
G75*
G02*
X99250000Y-96809643I-1105055J-1105059D01*
G01*
X110931587Y-103943414D02*
G75*
G02*
X109950000Y-104350000I-981586J981586D01*
G01*
X111999999Y-102400000D02*
G75*
G02*
X111664124Y-103210875I-1146742J-3D01*
G01*
X98350988Y-95261292D02*
G75*
G02*
X97850000Y-94051800I1209488J1209490D01*
G01*
X109586396Y-92613604D02*
G75*
G02*
X108050000Y-93250000I-1536395J1536395D01*
G01*
X110695787Y-97504214D02*
G75*
G03*
X110642980Y-97631700I127483J-127486D01*
G01*
X110462132Y-94762132D02*
G75*
G03*
X109950000Y-94550000I-512130J-512128D01*
G01*
X111999999Y-95600000D02*
G75*
G02*
X111575734Y-96624264I-1448525J-1D01*
G01*
X109000000Y-104606885D02*
G75*
G02*
X109256885Y-104350000I256885J0D01*
G01*
X111936396Y-95600000D02*
G75*
G02*
X110850000Y-95150000I-2J1536390D01*
G01*
X99000000Y-99000000D02*
G75*
G02*
X98658578Y-98858578I2J482846D01*
G01*
D60*
X94775000Y-97500000D02*
G75*
G02*
X94650000Y-97375000I1J125001D01*
G01*
D59*
X110642980Y-97631700D02*
G75*
G03*
X109842186Y-97300000I-800795J-800796D01*
G01*
D60*
%TO.N,Net-(C3-Pad1)*%
X103800000Y-88275000D02*
X103800000Y-89570102D01*
X103800000Y-88300000D02*
X102300000Y-88300000D01*
X103800000Y-89570102D02*
X104239949Y-90010051D01*
%TO.N,Net-(C4-Pad2)*%
X96175000Y-88275000D02*
X96200000Y-88300000D01*
X96200000Y-89570102D02*
X95760051Y-90010051D01*
X94725000Y-88275000D02*
X96175000Y-88275000D01*
X97525000Y-88275000D02*
X96225000Y-88275000D01*
X96200000Y-88275000D02*
X96200000Y-89570102D01*
X96225000Y-88275000D02*
X96200000Y-88300000D01*
D59*
%TO.N,+3V3*%
X106900000Y-98100000D02*
X106303034Y-98696966D01*
X108050000Y-106300000D02*
X109950000Y-106300000D01*
X104318437Y-106293438D02*
X104000000Y-105975000D01*
X98500000Y-104100000D02*
X98500000Y-105864645D01*
X92300489Y-96649511D02*
X92300489Y-105774511D01*
X107200000Y-96509732D02*
X107200000Y-97375736D01*
X106582086Y-106908030D02*
X106246541Y-107243575D01*
X93100000Y-95950000D02*
X93000000Y-95950000D01*
X100525000Y-94525000D02*
X100525000Y-95350000D01*
X92154664Y-92660718D02*
X92154664Y-95004664D01*
X95950000Y-105400000D02*
X95950000Y-106050000D01*
X99300000Y-106025000D02*
X99275000Y-106025000D01*
X99400000Y-93850000D02*
X100525000Y-93850000D01*
X108050000Y-93900000D02*
X107475000Y-93900000D01*
X99250000Y-105925000D02*
X99300000Y-105975000D01*
X97700000Y-105925000D02*
X98525000Y-105925000D01*
X107200000Y-94175000D02*
X107200000Y-96509732D01*
X108050000Y-103700000D02*
X107273132Y-103700000D01*
X97424264Y-105900000D02*
X97700000Y-105900000D01*
X104750000Y-98825000D02*
X106250000Y-98825000D01*
X100525000Y-93850000D02*
X100525000Y-94525000D01*
X95950000Y-105400000D02*
X96217158Y-105400000D01*
X92075000Y-106000000D02*
X91500000Y-106000000D01*
X108050000Y-103700000D02*
X109950000Y-103700000D01*
X107273132Y-103700000D02*
X107198632Y-103625500D01*
X98750000Y-102900000D02*
X98750000Y-103137868D01*
X98500000Y-104100000D02*
X98500000Y-103741421D01*
X102900000Y-98250000D02*
X104175000Y-98250000D01*
X98525000Y-105925000D02*
X99250000Y-105925000D01*
X108075002Y-93874998D02*
X109924998Y-93874998D01*
X106246541Y-107243575D02*
X105987931Y-106984965D01*
X100250000Y-96462132D02*
X100250000Y-97100000D01*
X96700000Y-105600000D02*
G75*
G03*
X96217158Y-105400000I-482841J-482839D01*
G01*
X107200000Y-94175000D02*
G75*
G02*
X107475000Y-93900000I275001J-1D01*
G01*
X98181492Y-95727500D02*
G75*
G02*
X98750000Y-97100000I-1372494J-1372497D01*
G01*
X97424264Y-105900000D02*
G75*
G02*
X96700000Y-105600000I-4J1024253D01*
G01*
X93100000Y-95950000D02*
G75*
G02*
X92154664Y-95004664I2J945338D01*
G01*
X92300489Y-96649511D02*
G75*
G02*
X93000000Y-95950000I699511J0D01*
G01*
X106900000Y-98100000D02*
G75*
G03*
X107200000Y-97375736I-724263J724264D01*
G01*
X95950000Y-106050000D02*
G75*
G02*
X95400000Y-106600000I-549999J-1D01*
G01*
X105299990Y-106700010D02*
G75*
G02*
X105987931Y-106984965I-3J-972901D01*
G01*
X104318437Y-106293438D02*
G75*
G03*
X105299990Y-106700010I981556J981562D01*
G01*
X100250001Y-96462132D02*
G75*
G02*
X100400001Y-96100001I512131J0D01*
G01*
X92075000Y-106000000D02*
G75*
G03*
X92300489Y-105774511I1J225488D01*
G01*
X106250000Y-98825000D02*
G75*
G02*
X106303034Y-98696966I181063J1D01*
G01*
X98600000Y-103500000D02*
G75*
G03*
X98500000Y-103741421I241419J-241421D01*
G01*
X100400000Y-96100000D02*
G75*
G03*
X100525000Y-95798224I-301770J301774D01*
G01*
X98525000Y-105925000D02*
G75*
G02*
X98500000Y-105864645I60344J60351D01*
G01*
X98600000Y-103500000D02*
G75*
G03*
X98750000Y-103137868I-362137J362134D01*
G01*
X104750000Y-98825000D02*
G75*
G03*
X104175000Y-98250000I-575001J-1D01*
G01*
X106582086Y-106908030D02*
G75*
G02*
X108050000Y-106300000I1467915J-1467917D01*
G01*
D60*
%TO.N,Net-(C8-Pad2)*%
X93075000Y-89400000D02*
X93100000Y-89425000D01*
X93075000Y-88250000D02*
X93075000Y-89400000D01*
%TO.N,Net-(C8-Pad1)*%
X93100000Y-90975000D02*
X93100000Y-92025000D01*
D59*
%TO.N,+5V*%
X110114140Y-95800000D02*
X110688884Y-96374744D01*
X102900000Y-97750000D02*
X104275000Y-97750000D01*
D60*
X98750000Y-108900000D02*
X98750000Y-111980000D01*
D59*
X109825000Y-95800000D02*
X110114140Y-95800000D01*
D60*
X98750000Y-111980000D02*
X98730000Y-112000000D01*
D59*
X104725000Y-97300000D02*
G75*
G02*
X104275000Y-97750000I-450000J0D01*
G01*
%TO.N,Net-(C16-Pad1)*%
X93200000Y-99800000D02*
X93200000Y-98650000D01*
X97100000Y-99250000D02*
X96986396Y-99250000D01*
D60*
X93225000Y-98625000D02*
X93200000Y-98650000D01*
D59*
X95175736Y-100000000D02*
X93400000Y-100000000D01*
D60*
X93225000Y-97500000D02*
X93225000Y-98625000D01*
D59*
X95900000Y-99700000D02*
G75*
G02*
X96986396Y-99250000I1086396J-1086395D01*
G01*
X93200000Y-99800000D02*
G75*
G03*
X93400000Y-100000000I200001J1D01*
G01*
X95175736Y-99999999D02*
G75*
G03*
X95900000Y-99700000I0J1024264D01*
G01*
%TO.N,Net-(L2-Pad2)*%
X98825000Y-92400000D02*
X98624806Y-92600194D01*
X99750000Y-97100000D02*
X99750000Y-96731423D01*
D60*
X98750000Y-92400000D02*
X98150000Y-92400000D01*
X98150000Y-92400000D02*
X97739949Y-91989949D01*
D59*
X98624806Y-92600194D02*
X98624806Y-94162744D01*
X99145704Y-95420303D02*
X99250200Y-95524800D01*
X99145704Y-95420303D02*
G75*
G02*
X98624806Y-94162744I1257559J1257559D01*
G01*
X99250200Y-95524800D02*
G75*
G02*
X99750000Y-96731423I-1206616J-1206621D01*
G01*
D60*
%TO.N,Net-(L1-Pad1)*%
X101250000Y-92400000D02*
X101850000Y-92400000D01*
D59*
X101375000Y-92701776D02*
X101375000Y-95652513D01*
D60*
X101850000Y-92400000D02*
X102260051Y-91989949D01*
D59*
X100750000Y-96807842D02*
X100750000Y-97100000D01*
X101200000Y-96075000D02*
X100950000Y-96325000D01*
X101375000Y-92701776D02*
G75*
G03*
X101250000Y-92400000I-426770J2D01*
G01*
X101200000Y-96075000D02*
G75*
G03*
X101375000Y-95652513I-422488J422488D01*
G01*
X100750001Y-96807842D02*
G75*
G02*
X100950001Y-96325001I682838J1D01*
G01*
%TO.N,Net-(D1-Pad2)*%
X109950000Y-101925000D02*
X109825000Y-101800000D01*
X109950000Y-103050000D02*
X109950000Y-101925000D01*
X112000000Y-98400000D02*
X112000000Y-99049990D01*
X109825000Y-101800000D02*
X110800000Y-101800000D01*
X110800000Y-101800000D02*
X110900000Y-101900000D01*
%TO.N,Net-(D2-Pad2)*%
X112000000Y-97300000D02*
X111120321Y-98179679D01*
X110536958Y-99588042D02*
X109825000Y-100300000D01*
X112000000Y-92400000D02*
X112000000Y-93050480D01*
X109950000Y-93250000D02*
X109951471Y-93248529D01*
X112000000Y-92400001D02*
G75*
G03*
X109951472Y-93248530I2J-2897061D01*
G01*
X110536958Y-99588042D02*
G75*
G03*
X110908189Y-98691811I-896232J896231D01*
G01*
X110908190Y-98691811D02*
G75*
G02*
X111120322Y-98179680I724254J4D01*
G01*
%TO.N,Net-(D3-Pad2)*%
X108050000Y-94550000D02*
X108850000Y-94550000D01*
X108850000Y-94550000D02*
X108900000Y-94600000D01*
X109099990Y-98074990D02*
X109099990Y-95024990D01*
X108625000Y-94550000D02*
X108050000Y-94550000D01*
X109099990Y-95024990D02*
X108625000Y-94550000D01*
X112000000Y-86400000D02*
X112000000Y-87049990D01*
X109825000Y-98800000D02*
X109099990Y-98074990D01*
D60*
%TO.N,Net-(C9-Pad1)*%
X93100000Y-93675000D02*
X93100000Y-94750000D01*
D59*
%TO.N,Net-(C17-Pad1)*%
X96100000Y-100200000D02*
X95056066Y-101243934D01*
X96161092Y-100138909D02*
X96100000Y-100200000D01*
D60*
X94775000Y-102500000D02*
X94775000Y-101375000D01*
X94775000Y-101375000D02*
X94800000Y-101350000D01*
D59*
X94800000Y-101350000D02*
G75*
G03*
X95056066Y-101243934I0J362131D01*
G01*
X96161092Y-100138909D02*
G75*
G02*
X97100000Y-99750000I938906J-938902D01*
G01*
%TO.N,Net-(J1-Pad2)*%
X105925000Y-105975000D02*
X106700000Y-105200000D01*
X105600000Y-105975000D02*
X105925000Y-105975000D01*
%TO.N,Net-(J2-Pad3)*%
X100825000Y-108475000D02*
X101250000Y-108900000D01*
X101250000Y-111980000D02*
X101270000Y-112000000D01*
X100825000Y-105900000D02*
X100825000Y-108475000D01*
X101250000Y-108900000D02*
X101250000Y-111980000D01*
%TO.N,Net-(J2-Pad4)*%
X103200000Y-105600000D02*
X103200000Y-106391783D01*
X102475000Y-104400000D02*
X102864124Y-104789124D01*
X103750000Y-108900000D02*
X103750000Y-111940000D01*
X104136215Y-106863785D02*
X104697441Y-107425011D01*
X103508227Y-106700010D02*
X103740828Y-106700010D01*
X104697441Y-107425011D02*
X105263126Y-107425011D01*
X103750000Y-111940000D02*
X103810000Y-112000000D01*
X103199999Y-105600000D02*
G75*
G03*
X102864123Y-104789125I-1146753J-1D01*
G01*
X104136215Y-106863785D02*
G75*
G03*
X103740828Y-106700010I-395385J-395382D01*
G01*
X103508227Y-106700010D02*
G75*
G02*
X103200000Y-106391783I1J308228D01*
G01*
%TO.N,Net-(JP1-Pad2)*%
X97100000Y-100750000D02*
X96550000Y-100750000D01*
X94650000Y-105400000D02*
X94650000Y-104720711D01*
X95858579Y-103041422D02*
X95200000Y-103700000D01*
X95200000Y-103700000D02*
X94982843Y-103917157D01*
X96000000Y-101300000D02*
X96000000Y-102700000D01*
X96000000Y-101300000D02*
G75*
G02*
X96550000Y-100750000I549999J1D01*
G01*
X95858579Y-103041422D02*
G75*
G03*
X96000000Y-102700000I-341424J341422D01*
G01*
X94982843Y-103917157D02*
G75*
G03*
X94650000Y-104720711I803554J-803554D01*
G01*
%TO.N,Net-(D6-Pad6)*%
X104330873Y-107744159D02*
X104493357Y-107906643D01*
X101749990Y-104750010D02*
X101749990Y-104450010D01*
X106832792Y-107867208D02*
X107750000Y-106950000D01*
X102475000Y-105900000D02*
X102475000Y-106627513D01*
X105080923Y-108150021D02*
X106150021Y-108150021D01*
X102650000Y-107050000D02*
X102717157Y-107117157D01*
X101989444Y-105210556D02*
X101906326Y-105127438D01*
X103400000Y-107400000D02*
X103500000Y-107400000D01*
X102330830Y-105551942D02*
X101989444Y-105210556D01*
X101250000Y-102900000D02*
X101250000Y-103242928D01*
X107750000Y-106950000D02*
X108050000Y-106950000D01*
X102330830Y-105551942D02*
G75*
G02*
X102475000Y-105900000I-348062J-348059D01*
G01*
X101507807Y-103865329D02*
G75*
G02*
X101749990Y-104450010I-584677J-584680D01*
G01*
X101749990Y-104750010D02*
G75*
G03*
X101906326Y-105127438I533768J2D01*
G01*
X104330873Y-107744159D02*
G75*
G03*
X103500000Y-107400000I-830873J-830874D01*
G01*
X106832792Y-107867208D02*
G75*
G02*
X106150021Y-108150021I-682772J682774D01*
G01*
X103400000Y-107399999D02*
G75*
G02*
X102717158Y-107117156I2J965690D01*
G01*
X101507807Y-103865329D02*
G75*
G02*
X101250000Y-103242928I622402J622402D01*
G01*
X105080923Y-108150021D02*
G75*
G02*
X104493357Y-107906643I0J830942D01*
G01*
X102650000Y-107050000D02*
G75*
G02*
X102475000Y-106627513I422488J422488D01*
G01*
%TO.N,Net-(R8-Pad1)*%
X102900000Y-102250000D02*
X103537868Y-102250000D01*
X107227190Y-102698788D02*
X108091314Y-101834664D01*
X108175000Y-101800000D02*
G75*
G03*
X108091314Y-101834664I0J-118349D01*
G01*
X106500000Y-102999999D02*
G75*
G03*
X107227189Y-102698787I-1J1028404D01*
G01*
%TO.N,Net-(C19-Pad1)*%
X105800000Y-108700000D02*
X106487868Y-108700000D01*
X103624999Y-113175001D02*
X103824999Y-113175001D01*
X100750000Y-104325000D02*
X100825000Y-104400000D01*
X109950000Y-105650000D02*
X110150000Y-105650000D01*
X102500000Y-108665685D02*
X102500000Y-112050002D01*
X105000000Y-111500000D02*
X105000000Y-109500000D01*
X107694974Y-108200000D02*
X108225000Y-108200000D01*
X110700000Y-106200000D02*
X110700000Y-108527834D01*
X110227824Y-109000010D02*
X109025010Y-109000010D01*
X100825000Y-104682522D02*
X101521239Y-105378761D01*
X100750000Y-103025000D02*
X100750000Y-104325000D01*
X105000000Y-111500000D02*
X104991688Y-112008312D01*
X100825000Y-104400000D02*
X100825000Y-104682522D01*
X101749990Y-105931014D02*
X101749990Y-106855002D01*
X107694974Y-108200001D02*
G75*
G03*
X106850001Y-108550001I1J-1194975D01*
G01*
X102499999Y-108665685D02*
G75*
G03*
X102099999Y-107700001I-1365681J1D01*
G01*
X108225000Y-108200000D02*
G75*
G03*
X109025010Y-109000010I800012J2D01*
G01*
X106850000Y-108550000D02*
G75*
G02*
X106487868Y-108700000I-362129J362126D01*
G01*
X103624999Y-113175001D02*
G75*
G02*
X102500000Y-112050002I1J1125000D01*
G01*
X101749990Y-105931014D02*
G75*
G03*
X101521239Y-105378761I-781010J-3D01*
G01*
X102100000Y-107700000D02*
G75*
G02*
X101749990Y-106855002I844999J844999D01*
G01*
X104991688Y-112008312D02*
G75*
G02*
X103824999Y-113175001I-1166688J-1D01*
G01*
X110700000Y-106200000D02*
G75*
G03*
X110150000Y-105650000I-549999J1D01*
G01*
X110227824Y-109000010D02*
G75*
G03*
X110700000Y-108527834I1J472175D01*
G01*
X105800000Y-108700000D02*
G75*
G03*
X105000000Y-109500000I1J-800001D01*
G01*
D60*
%TO.N,Net-(A1-Pad1)*%
X102475000Y-85900000D02*
X102475000Y-87100000D01*
X102475000Y-85325000D02*
X102475000Y-85900000D01*
X103800000Y-86750000D02*
X102825000Y-86750000D01*
X102475000Y-85325000D02*
G75*
G03*
X102000000Y-84850000I-474999J1D01*
G01*
X102475000Y-87100000D02*
G75*
G02*
X102825000Y-86750000I350001J-1D01*
G01*
%TO.N,Net-(A1-Pad3)*%
X97525000Y-85325000D02*
X97525000Y-85900000D01*
X96200000Y-86750000D02*
X97175000Y-86750000D01*
X97525000Y-85900000D02*
X97525000Y-87100000D01*
X97525000Y-87100000D02*
G75*
G03*
X97175000Y-86750000I-350001J-1D01*
G01*
X97525000Y-85325000D02*
G75*
G02*
X98000000Y-84850000I474999J1D01*
G01*
D59*
%TO.N,Net-(D4-Pad3)*%
X104000000Y-104325000D02*
X105600000Y-104325000D01*
X108050000Y-104350000D02*
X105660355Y-104350000D01*
X105600000Y-104325000D02*
G75*
G03*
X105660355Y-104350000I60355J60356D01*
G01*
%TO.N,Net-(R6-Pad1)*%
X107361870Y-98367790D02*
X107994928Y-97734732D01*
X108175000Y-95800000D02*
X108175000Y-97300000D01*
X102900000Y-98750000D02*
X103550000Y-98750000D01*
X107100000Y-99227138D02*
X107100000Y-99000000D01*
X104272862Y-99600000D02*
X106727138Y-99600000D01*
X103800000Y-99000000D02*
X103800000Y-99127138D01*
X108175000Y-97300000D02*
G75*
G02*
X107994928Y-97734732I-614803J0D01*
G01*
X107100000Y-99227138D02*
G75*
G02*
X106727138Y-99600000I-372863J1D01*
G01*
X103800000Y-99000000D02*
G75*
G03*
X103550000Y-98750000I-249999J1D01*
G01*
X104272862Y-99600000D02*
G75*
G02*
X103800000Y-99127138I0J472862D01*
G01*
X107361870Y-98367790D02*
G75*
G03*
X107100000Y-99000000I632210J-632210D01*
G01*
%TO.N,Net-(R11-Pad2)*%
X99300000Y-104325000D02*
X99300000Y-104800000D01*
X99250000Y-104275000D02*
X99300000Y-104325000D01*
X86250000Y-96750000D02*
X86250000Y-103250000D01*
X89200000Y-106200000D02*
X88275000Y-105275000D01*
X99250000Y-103025000D02*
X99250000Y-104275000D01*
X99459900Y-107059900D02*
X91275982Y-107059900D01*
X87871752Y-104871751D02*
X88275000Y-105275000D01*
X100100000Y-105600000D02*
X100100000Y-106419800D01*
X87871752Y-104871751D02*
G75*
G03*
X86250000Y-104200000I-1621754J-1621760D01*
G01*
X99600000Y-105100000D02*
G75*
G02*
X99300000Y-104800000I0J300000D01*
G01*
X99459900Y-107059900D02*
G75*
G03*
X100100000Y-106419800I0J640100D01*
G01*
X89200000Y-106200000D02*
G75*
G03*
X91275982Y-107059900I2075984J2075986D01*
G01*
X100100000Y-105600000D02*
G75*
G03*
X99600000Y-105100000I-500001J-1D01*
G01*
%TD*%
M02*
