%TF.GenerationSoftware,KiCad,Pcbnew,(6.0.5-0)*%
%TF.CreationDate,2022-06-22T17:56:20+01:00*%
%TF.ProjectId,PN532-Round,504e3533-322d-4526-9f75-6e642e6b6963,7*%
%TF.SameCoordinates,Original*%
%TF.FileFunction,Legend,Top*%
%TF.FilePolarity,Positive*%
%FSLAX46Y46*%
G04 Gerber Fmt 4.6, Leading zero omitted, Abs format (unit mm)*
G04 Created by KiCad (PCBNEW (6.0.5-0)) date 2022-06-22 17:56:20*
%MOMM*%
%LPD*%
G01*
G04 APERTURE LIST*
%ADD10C,0.120000*%
%ADD11C,0.100000*%
%ADD12C,0.150000*%
%ADD13C,0.400000*%
G04 APERTURE END LIST*
D10*
X101749999Y-86810001D02*
G75*
G03*
X98250001Y-86810001I-1749999J-1750000D01*
G01*
X100316228Y-89385000D02*
G75*
G03*
X100316228Y-89385000I-316228J0D01*
G01*
X101249999Y-87310001D02*
G75*
G03*
X98750001Y-87310001I-1249999J-1249997D01*
G01*
X101999999Y-86560001D02*
G75*
G03*
X98000001Y-86560001I-1999999J-1999998D01*
G01*
X101499999Y-87060001D02*
G75*
G03*
X98500001Y-87060001I-1499999J-1499999D01*
G01*
D11*
X95539761Y-100686190D02*
X95539761Y-100186190D01*
X95754047Y-100233809D02*
X95777857Y-100210000D01*
X95825476Y-100186190D01*
X95944523Y-100186190D01*
X95992142Y-100210000D01*
X96015952Y-100233809D01*
X96039761Y-100281428D01*
X96039761Y-100329047D01*
X96015952Y-100400476D01*
X95730238Y-100686190D01*
X96039761Y-100686190D01*
X96539761Y-100638571D02*
X96515952Y-100662380D01*
X96444523Y-100686190D01*
X96396904Y-100686190D01*
X96325476Y-100662380D01*
X96277857Y-100614761D01*
X96254047Y-100567142D01*
X96230238Y-100471904D01*
X96230238Y-100400476D01*
X96254047Y-100305238D01*
X96277857Y-100257619D01*
X96325476Y-100210000D01*
X96396904Y-100186190D01*
X96444523Y-100186190D01*
X96515952Y-100210000D01*
X96539761Y-100233809D01*
X92784047Y-103686190D02*
X92784047Y-103186190D01*
X92784047Y-103424285D02*
X93069761Y-103424285D01*
X93069761Y-103686190D02*
X93069761Y-103186190D01*
X93284047Y-103662380D02*
X93355476Y-103686190D01*
X93474523Y-103686190D01*
X93522142Y-103662380D01*
X93545952Y-103638571D01*
X93569761Y-103590952D01*
X93569761Y-103543333D01*
X93545952Y-103495714D01*
X93522142Y-103471904D01*
X93474523Y-103448095D01*
X93379285Y-103424285D01*
X93331666Y-103400476D01*
X93307857Y-103376666D01*
X93284047Y-103329047D01*
X93284047Y-103281428D01*
X93307857Y-103233809D01*
X93331666Y-103210000D01*
X93379285Y-103186190D01*
X93498333Y-103186190D01*
X93569761Y-103210000D01*
X93784047Y-103186190D02*
X93784047Y-103590952D01*
X93807857Y-103638571D01*
X93831666Y-103662380D01*
X93879285Y-103686190D01*
X93974523Y-103686190D01*
X94022142Y-103662380D01*
X94045952Y-103638571D01*
X94069761Y-103590952D01*
X94069761Y-103186190D01*
D12*
X101035714Y-108235595D02*
X101321428Y-108997500D01*
X101607142Y-108235595D01*
X103535714Y-104847500D02*
X103821428Y-104085595D01*
X104107142Y-104847500D01*
X96630952Y-108678571D02*
X95869047Y-108678571D01*
X99130952Y-104528571D02*
X98369047Y-104528571D01*
X98750000Y-104147619D02*
X98750000Y-104909523D01*
D13*
%TO.C,A1*%
X112913400Y-86530866D02*
X115078920Y-84454686D01*
X115869846Y-85279646D01*
X115964457Y-85584752D01*
X115960203Y-85786737D01*
X115852829Y-86087589D01*
X115543469Y-86384186D01*
X115238363Y-86478797D01*
X115036377Y-86474543D01*
X114735526Y-86367169D01*
X113944600Y-85542209D01*
X114693500Y-88493833D02*
X117137934Y-86754654D01*
X115687317Y-89890653D01*
X118131750Y-88151473D01*
X119597090Y-90787101D02*
X118946995Y-89515019D01*
X117609904Y-90037906D01*
X117802122Y-90100105D01*
X118059349Y-90289512D01*
X118384396Y-90925553D01*
X118387207Y-91244979D01*
X118325008Y-91437196D01*
X118135601Y-91694423D01*
X117499560Y-92019471D01*
X117180134Y-92022282D01*
X116987917Y-91960083D01*
X116730690Y-91770676D01*
X116405642Y-91134635D01*
X116402831Y-90815209D01*
X116465030Y-90622992D01*
X120178742Y-92111298D02*
X120774385Y-93870329D01*
X119371174Y-93289708D01*
X119508630Y-93695638D01*
X119464957Y-94012077D01*
X119375466Y-94193206D01*
X119150665Y-94420153D01*
X118474114Y-94649247D01*
X118157676Y-94605574D01*
X117976547Y-94516083D01*
X117749599Y-94291281D01*
X117474687Y-93479421D01*
X117518360Y-93162982D01*
X117607851Y-92981853D01*
X120856043Y-95321568D02*
X121022231Y-95436450D01*
X121214074Y-95691866D01*
X121342342Y-96394540D01*
X121253114Y-96701264D01*
X121138233Y-96867452D01*
X120882817Y-97059294D01*
X120601747Y-97110602D01*
X120154489Y-97047028D01*
X118160227Y-95668453D01*
X118493724Y-97495407D01*
X118622663Y-101219516D02*
X121604088Y-101552837D01*
X120184362Y-101394112D02*
X119993893Y-103097784D01*
X118432194Y-102923187D02*
X121413619Y-103256508D01*
X118385484Y-103951165D02*
X118138278Y-104329279D01*
X117956525Y-105020054D01*
X118021979Y-105332715D01*
X118123783Y-105507220D01*
X118363743Y-105718077D01*
X118640053Y-105790778D01*
X118952713Y-105725324D01*
X119127219Y-105623519D01*
X119338075Y-105383560D01*
X119621632Y-104867290D01*
X119832488Y-104627331D01*
X120006994Y-104525526D01*
X120319654Y-104460072D01*
X120595964Y-104532774D01*
X120835924Y-104743630D01*
X120937728Y-104918135D01*
X121003182Y-105230796D01*
X120821429Y-105921571D01*
X120574223Y-106299685D01*
X120243409Y-107704046D02*
X118009612Y-106751098D01*
X117690756Y-106770386D01*
X117503301Y-106845730D01*
X117259790Y-107052474D01*
X117035567Y-107578074D01*
X117054855Y-107896929D01*
X117130199Y-108084385D01*
X117336943Y-108327896D01*
X119570740Y-109280844D01*
X114866256Y-111282076D02*
X117170185Y-113203510D01*
X113768294Y-112598607D01*
X116072223Y-114520041D01*
X113156783Y-115352525D02*
X113902138Y-114685857D01*
X112854516Y-113514586D02*
X114854521Y-115750649D01*
X113789729Y-116703033D01*
X109658360Y-116305493D02*
X109698817Y-116107555D01*
X109977669Y-115752135D01*
X110216064Y-115594654D01*
X110652397Y-115477629D01*
X111048274Y-115558543D01*
X111324953Y-115718197D01*
X111759113Y-116116247D01*
X111995336Y-116473840D01*
X112191101Y-117029371D01*
X112229385Y-117346507D01*
X112148471Y-117742383D01*
X111869619Y-118097803D01*
X111631224Y-118255284D01*
X111194890Y-118372309D01*
X110996952Y-118331852D01*
X104475460Y-118121495D02*
X105844253Y-119201875D01*
X106117233Y-117628184D02*
X106980527Y-120501288D01*
X105886011Y-120830162D01*
X105571273Y-120775566D01*
X105393350Y-120679861D01*
X105174317Y-120447341D01*
X105050989Y-120036898D01*
X105105585Y-119722159D01*
X105201290Y-119544236D01*
X105433810Y-119325203D01*
X106528326Y-118996329D01*
X103575754Y-119905893D02*
X102586385Y-120051322D01*
X101933839Y-118558926D02*
X103347223Y-118351171D01*
X103783508Y-121319277D01*
X102370124Y-121527032D01*
X100714285Y-119500000D02*
X99285714Y-119500000D01*
X101000000Y-118642857D02*
X100000000Y-121642857D01*
X99000000Y-118642857D01*
X98066160Y-118558926D02*
X97629875Y-121527032D01*
X96923183Y-121423155D01*
X96519943Y-121219490D01*
X96278817Y-120895262D01*
X96179030Y-120591810D01*
X96120793Y-120005681D01*
X96183120Y-119581666D01*
X96407560Y-119037088D01*
X96590449Y-118775186D01*
X96914677Y-118534060D01*
X97359468Y-118455048D01*
X98066160Y-118558926D01*
X94798709Y-119544236D02*
X93841008Y-119256471D01*
X93882766Y-117628184D02*
X95250910Y-118039277D01*
X94387616Y-120912380D01*
X93019472Y-120501288D01*
X91254779Y-116490587D02*
X91554761Y-118208385D01*
X92807357Y-117217414D02*
X91535410Y-119934426D01*
X90500358Y-119449875D01*
X90302164Y-119199355D01*
X90233352Y-119009405D01*
X90225108Y-118690073D01*
X90406815Y-118301928D01*
X90657334Y-118103734D01*
X90847284Y-118034922D01*
X91166616Y-118026678D01*
X92201668Y-118511229D01*
X88157035Y-114419350D02*
X86157031Y-116655413D01*
X85305197Y-115893507D01*
X85187477Y-115596551D01*
X85176236Y-115394833D01*
X85260233Y-115086637D01*
X85545948Y-114767199D01*
X85842904Y-114649479D01*
X86044621Y-114638238D01*
X86352818Y-114722235D01*
X87204652Y-115484142D01*
X86231705Y-112598607D02*
X83927776Y-114520041D01*
X85133743Y-111282076D01*
X82829814Y-113203510D01*
X81166758Y-110687959D02*
X81912449Y-111906467D01*
X83205526Y-111282627D01*
X83009106Y-111235345D01*
X82738117Y-111066213D01*
X82365272Y-110456959D01*
X82337984Y-110138688D01*
X82385266Y-109942268D01*
X82554398Y-109671279D01*
X83163652Y-109298434D01*
X83481923Y-109271146D01*
X83678343Y-109318428D01*
X83949332Y-109487561D01*
X84322177Y-110096815D01*
X84349465Y-110415085D01*
X84302183Y-110611505D01*
X80485315Y-109412243D02*
X79756590Y-107704046D01*
X81200179Y-108175398D01*
X81032012Y-107781199D01*
X81051300Y-107462344D01*
X81126644Y-107274888D01*
X81333388Y-107031377D01*
X81990387Y-106751098D01*
X82309243Y-106770386D01*
X82496698Y-106845730D01*
X82740209Y-107052474D01*
X83076544Y-107840873D01*
X83057256Y-108159729D01*
X82981911Y-108347184D01*
X79563931Y-106263335D02*
X79389426Y-106161530D01*
X79178570Y-105921571D01*
X78996817Y-105230796D01*
X79062271Y-104918135D01*
X79164075Y-104743630D01*
X79404035Y-104532774D01*
X79680345Y-104460072D01*
X80131160Y-104489176D01*
X82225227Y-105710829D01*
X81752670Y-103914814D01*
X81277863Y-102787906D02*
X81398121Y-102625566D01*
X81560461Y-102745824D01*
X81440203Y-102908164D01*
X81277863Y-102787906D01*
X81560461Y-102745824D01*
X81335245Y-99787149D02*
X79946079Y-100841205D01*
X81400995Y-101500173D02*
X78403203Y-101615237D01*
X78359369Y-100473220D01*
X78491163Y-100182237D01*
X78628436Y-100034006D01*
X78908460Y-99880295D01*
X79336716Y-99863858D01*
X79627700Y-99995651D01*
X79775931Y-100132924D01*
X79929641Y-100412949D01*
X79973475Y-101554965D01*
X79833553Y-98468638D02*
X79940928Y-97474420D01*
X81549289Y-97217057D02*
X81395897Y-98637370D01*
X78413241Y-98315246D01*
X78566633Y-96894933D01*
X78798167Y-95539555D02*
X81953088Y-95323984D01*
X79299808Y-93603488D01*
X82519384Y-93473015D02*
X79755587Y-92306214D01*
X83186127Y-91893702D02*
X81106757Y-92411443D01*
X80422330Y-90726901D02*
X81334899Y-92972957D01*
X83470346Y-90777127D02*
X83664705Y-90721981D01*
X83719850Y-90916340D01*
X83525492Y-90971486D01*
X83470346Y-90777127D01*
X83719850Y-90916340D01*
X81868249Y-88151473D02*
X83847076Y-89559380D01*
X84162697Y-89608615D01*
X84361917Y-89575031D01*
X84643955Y-89425046D01*
X84975227Y-88959440D01*
X85024461Y-88643819D01*
X84990878Y-88444599D01*
X84840893Y-88162561D01*
X82862065Y-86754654D01*
X85999076Y-87665186D02*
X83833556Y-85589006D01*
X87185465Y-86427746D02*
X85058233Y-86169437D01*
X85019944Y-84351566D02*
X85070996Y-86775394D01*
D10*
%TO.C,D2*%
X111600000Y-101600000D02*
X111600000Y-100400000D01*
X111600000Y-98400000D02*
X111600000Y-99600000D01*
X112000000Y-102000000D02*
X113000000Y-102000000D01*
X113400000Y-98400000D02*
X113400000Y-99600000D01*
X113400000Y-101600000D02*
X113400000Y-100400000D01*
%TO.C,D3*%
X111600000Y-96600000D02*
X111600000Y-95400000D01*
X112000000Y-97000000D02*
X113000000Y-97000000D01*
X113400000Y-93400000D02*
X113400000Y-94600000D01*
X111600000Y-93400000D02*
X111600000Y-94600000D01*
X113400000Y-96600000D02*
X113400000Y-95400000D01*
%TO.C,SW1*%
X85270000Y-96770000D02*
X85300000Y-96770000D01*
X91700000Y-96770000D02*
X91730000Y-96770000D01*
X91730000Y-96770000D02*
X91730000Y-103230000D01*
X85270000Y-103230000D02*
X85300000Y-103230000D01*
X91730000Y-103230000D02*
X91700000Y-103230000D01*
X85270000Y-96770000D02*
X85270000Y-103230000D01*
%TO.C,D1*%
X112000000Y-107000000D02*
X113000000Y-107000000D01*
X111600000Y-103400000D02*
X111600000Y-104600000D01*
X113400000Y-103400000D02*
X113400000Y-104600000D01*
X113400000Y-106600000D02*
X113400000Y-105400000D01*
X111600000Y-106600000D02*
X111600000Y-105400000D01*
%TO.C,C7*%
X101075000Y-92260000D02*
X101675000Y-92260000D01*
X101075000Y-91260000D02*
X101675000Y-91260000D01*
%TO.C,C3*%
X104300000Y-84385000D02*
X104300000Y-83785000D01*
X103300000Y-84385000D02*
X103300000Y-83785000D01*
%TO.C,C5*%
X101400000Y-85335000D02*
X102000000Y-85335000D01*
X101400000Y-84335000D02*
X102000000Y-84335000D01*
%TO.C,R6*%
X108700000Y-92860000D02*
X109300000Y-92860000D01*
X108700000Y-91860000D02*
X109300000Y-91860000D01*
%TO.C,R4*%
X93600000Y-84335000D02*
X94200000Y-84335000D01*
X93600000Y-85335000D02*
X94200000Y-85335000D01*
%TO.C,C13*%
X106650000Y-95860000D02*
X106650000Y-96460000D01*
X105650000Y-95860000D02*
X105650000Y-96460000D01*
%TO.C,C14*%
X105100000Y-94360000D02*
X105700000Y-94360000D01*
X105100000Y-93360000D02*
X105700000Y-93360000D01*
%TO.C,C9*%
X93575000Y-90810000D02*
X94175000Y-90810000D01*
X93575000Y-91810000D02*
X94175000Y-91810000D01*
%TO.C,C16*%
X93575000Y-93560000D02*
X94175000Y-93560000D01*
%TO.C,R9*%
X108700000Y-96360000D02*
X109300000Y-96360000D01*
X108700000Y-97360000D02*
X109300000Y-97360000D01*
%TO.C,R8*%
X108700000Y-98860000D02*
X109300000Y-98860000D01*
X108700000Y-97860000D02*
X109300000Y-97860000D01*
%TO.C,R11*%
X99800000Y-102010000D02*
X99800000Y-101410000D01*
X98800000Y-102010000D02*
X98800000Y-101410000D01*
%TO.C,U1*%
X103110000Y-93925000D02*
X103110000Y-93450000D01*
X96890000Y-99670000D02*
X97365000Y-99670000D01*
X96890000Y-93450000D02*
X97365000Y-93450000D01*
X96890000Y-93925000D02*
X96890000Y-93450000D01*
X103110000Y-99195000D02*
X103110000Y-99670000D01*
X103110000Y-99670000D02*
X102635000Y-99670000D01*
X96890000Y-99195000D02*
X96890000Y-99670000D01*
%TO.C,C17*%
X94175000Y-99560000D02*
X93575000Y-99560000D01*
%TO.C,C12*%
X98925000Y-89910000D02*
X98325000Y-89910000D01*
X98925000Y-90910000D02*
X98325000Y-90910000D01*
%TO.C,R5*%
X92600000Y-89110000D02*
X92600000Y-89710000D01*
X93600000Y-89110000D02*
X93600000Y-89710000D01*
%TO.C,R7*%
X108700000Y-94360000D02*
X109300000Y-94360000D01*
X108700000Y-93360000D02*
X109300000Y-93360000D01*
%TO.C,R10*%
X108700000Y-94860000D02*
X109300000Y-94860000D01*
X108700000Y-95860000D02*
X109300000Y-95860000D01*
%TO.C,C18*%
X98200000Y-102010000D02*
X98200000Y-101410000D01*
X97200000Y-102010000D02*
X97200000Y-101410000D01*
%TO.C,C11*%
X104150000Y-95860000D02*
X104150000Y-96460000D01*
X105150000Y-95860000D02*
X105150000Y-96460000D01*
%TO.C,C8*%
X92600000Y-87060000D02*
X92600000Y-86460000D01*
X93600000Y-87060000D02*
X93600000Y-86460000D01*
%TO.C,C10*%
X101075000Y-90910000D02*
X101675000Y-90910000D01*
X101075000Y-89910000D02*
X101675000Y-89910000D01*
%TO.C,C1*%
X102000000Y-84160000D02*
X101400000Y-84160000D01*
X102000000Y-81960000D02*
X101400000Y-81960000D01*
X102000000Y-83160000D02*
X101400000Y-83160000D01*
X102000000Y-82960000D02*
X101400000Y-82960000D01*
%TO.C,C6*%
X98600000Y-84335000D02*
X98000000Y-84335000D01*
X98600000Y-85335000D02*
X98000000Y-85335000D01*
%TO.C,R15*%
X106100000Y-102010000D02*
X106100000Y-101410000D01*
X105100000Y-102010000D02*
X105100000Y-101410000D01*
%TO.C,JP1*%
X93250000Y-100960000D02*
X96050000Y-100960000D01*
X96700000Y-101660000D02*
X96700000Y-102260000D01*
X92600000Y-102260000D02*
X92600000Y-101660000D01*
X96050000Y-102960000D02*
X93250000Y-102960000D01*
X96700000Y-101660000D02*
G75*
G03*
X96000000Y-100960000I-700000J0D01*
G01*
X92600000Y-102260000D02*
G75*
G03*
X93300000Y-102960000I699999J-1D01*
G01*
X96000000Y-102960000D02*
G75*
G03*
X96700000Y-102260000I0J700000D01*
G01*
X93300000Y-100960000D02*
G75*
G03*
X92600000Y-101660000I-1J-699999D01*
G01*
%TO.C,R13*%
X101350000Y-102960000D02*
X101950000Y-102960000D01*
X101350000Y-101960000D02*
X101950000Y-101960000D01*
%TO.C,C15*%
X93575000Y-93160000D02*
X94175000Y-93160000D01*
X93575000Y-92160000D02*
X94175000Y-92160000D01*
%TO.C,R14*%
X101950000Y-101460000D02*
X101350000Y-101460000D01*
X101950000Y-100460000D02*
X101350000Y-100460000D01*
%TO.C,L1*%
X103720226Y-88928252D02*
X104618252Y-88030226D01*
X101881748Y-87089774D02*
X102779774Y-86191748D01*
%TO.C,L2*%
X95381748Y-88030226D02*
X96279774Y-88928252D01*
X97220226Y-86191748D02*
X98118252Y-87089774D01*
%TO.C,C4*%
X96700000Y-83785000D02*
X96700000Y-84385000D01*
X95700000Y-83785000D02*
X95700000Y-84385000D01*
%TO.C,R12*%
X103500000Y-101410000D02*
X103500000Y-102010000D01*
X104500000Y-101410000D02*
X104500000Y-102010000D01*
%TO.C,D5*%
X107750000Y-89435000D02*
X108350000Y-89435000D01*
%TO.C,C19*%
X108700000Y-104260000D02*
X109300000Y-104260000D01*
X108700000Y-105260000D02*
X109300000Y-105260000D01*
%TO.C,D4*%
X107750000Y-99235000D02*
X108350000Y-99235000D01*
%TO.C,D6*%
X110250000Y-103885000D02*
X109650000Y-103885000D01*
%TO.C,C2*%
X98600000Y-84160000D02*
X98000000Y-84160000D01*
X98600000Y-82960000D02*
X98000000Y-82960000D01*
X98600000Y-83160000D02*
X98000000Y-83160000D01*
X98600000Y-81960000D02*
X98000000Y-81960000D01*
%TD*%
M02*
