%TF.GenerationSoftware,KiCad,Pcbnew,(5.1.9-0-10_14)*%
%TF.CreationDate,2021-04-25T19:13:31+01:00*%
%TF.ProjectId,PN532,504e3533-322e-46b6-9963-61645f706362,2*%
%TF.SameCoordinates,Original*%
%TF.FileFunction,Copper,L1,Top*%
%TF.FilePolarity,Positive*%
%FSLAX46Y46*%
G04 Gerber Fmt 4.6, Leading zero omitted, Abs format (unit mm)*
G04 Created by KiCad (PCBNEW (5.1.9-0-10_14)) date 2021-04-25 19:13:31*
%MOMM*%
%LPD*%
G01*
G04 APERTURE LIST*
%TA.AperFunction,NonConductor*%
%ADD10C,0.150000*%
%TD*%
%TA.AperFunction,EtchedComponent*%
%ADD11C,0.500000*%
%TD*%
%TA.AperFunction,ComponentPad*%
%ADD12O,1.700000X1.700000*%
%TD*%
%TA.AperFunction,ComponentPad*%
%ADD13R,1.700000X1.700000*%
%TD*%
%TA.AperFunction,ComponentPad*%
%ADD14C,0.600000*%
%TD*%
%TA.AperFunction,ComponentPad*%
%ADD15C,5.700000*%
%TD*%
%TA.AperFunction,ComponentPad*%
%ADD16C,5.500000*%
%TD*%
%TA.AperFunction,ComponentPad*%
%ADD17O,1.700000X1.850000*%
%TD*%
%TA.AperFunction,ComponentPad*%
%ADD18C,1.800000*%
%TD*%
%TA.AperFunction,ComponentPad*%
%ADD19R,1.800000X1.800000*%
%TD*%
%TA.AperFunction,ComponentPad*%
%ADD20C,2.000000*%
%TD*%
%TA.AperFunction,ComponentPad*%
%ADD21C,1.000000*%
%TD*%
%TA.AperFunction,SMDPad,CuDef*%
%ADD22C,0.500000*%
%TD*%
%TA.AperFunction,SMDPad,CuDef*%
%ADD23R,0.200000X0.200000*%
%TD*%
%TA.AperFunction,SMDPad,CuDef*%
%ADD24R,4.600000X4.600000*%
%TD*%
%TA.AperFunction,ComponentPad*%
%ADD25C,1.300000*%
%TD*%
%TA.AperFunction,ComponentPad*%
%ADD26R,1.300000X1.300000*%
%TD*%
%TA.AperFunction,SMDPad,CuDef*%
%ADD27R,1.900000X1.150000*%
%TD*%
%TA.AperFunction,ViaPad*%
%ADD28C,0.800000*%
%TD*%
%TA.AperFunction,Conductor*%
%ADD29C,0.250000*%
%TD*%
%TA.AperFunction,Conductor*%
%ADD30C,0.500000*%
%TD*%
G04 APERTURE END LIST*
D10*
X144954642Y-88214285D02*
X144764166Y-87547619D01*
X144573690Y-88023809D01*
X144383214Y-87547619D01*
X144192738Y-88214285D01*
X143907023Y-88214285D02*
X143716547Y-87547619D01*
X143526071Y-88023809D01*
X143335595Y-87547619D01*
X143145119Y-88214285D01*
X142859404Y-88214285D02*
X142668928Y-87547619D01*
X142478452Y-88023809D01*
X142287976Y-87547619D01*
X142097500Y-88214285D01*
X141716547Y-87642857D02*
X141668928Y-87595238D01*
X141716547Y-87547619D01*
X141764166Y-87595238D01*
X141716547Y-87642857D01*
X141716547Y-87547619D01*
X141240357Y-87547619D02*
X141240357Y-88214285D01*
X141240357Y-88119047D02*
X141192738Y-88166666D01*
X141097500Y-88214285D01*
X140954642Y-88214285D01*
X140859404Y-88166666D01*
X140811785Y-88071428D01*
X140811785Y-87547619D01*
X140811785Y-88071428D02*
X140764166Y-88166666D01*
X140668928Y-88214285D01*
X140526071Y-88214285D01*
X140430833Y-88166666D01*
X140383214Y-88071428D01*
X140383214Y-87547619D01*
X139526071Y-87595238D02*
X139621309Y-87547619D01*
X139811785Y-87547619D01*
X139907023Y-87595238D01*
X139954642Y-87690476D01*
X139954642Y-88071428D01*
X139907023Y-88166666D01*
X139811785Y-88214285D01*
X139621309Y-88214285D01*
X139526071Y-88166666D01*
X139478452Y-88071428D01*
X139478452Y-87976190D01*
X139954642Y-87880952D01*
X139049880Y-87642857D02*
X139002261Y-87595238D01*
X139049880Y-87547619D01*
X139097500Y-87595238D01*
X139049880Y-87642857D01*
X139049880Y-87547619D01*
X138145119Y-88214285D02*
X138145119Y-87547619D01*
X138573690Y-88214285D02*
X138573690Y-87690476D01*
X138526071Y-87595238D01*
X138430833Y-87547619D01*
X138287976Y-87547619D01*
X138192738Y-87595238D01*
X138145119Y-87642857D01*
X137668928Y-87547619D02*
X137668928Y-88547619D01*
X137573690Y-87928571D02*
X137287976Y-87547619D01*
X137287976Y-88214285D02*
X137668928Y-87833333D01*
X145021309Y-89861904D02*
X144983214Y-89900000D01*
X144907023Y-89938095D01*
X144716547Y-89938095D01*
X144640357Y-89900000D01*
X144602261Y-89861904D01*
X144564166Y-89785714D01*
X144564166Y-89709523D01*
X144602261Y-89595238D01*
X145059404Y-89138095D01*
X144564166Y-89138095D01*
X144068928Y-89938095D02*
X143992738Y-89938095D01*
X143916547Y-89900000D01*
X143878452Y-89861904D01*
X143840357Y-89785714D01*
X143802261Y-89633333D01*
X143802261Y-89442857D01*
X143840357Y-89290476D01*
X143878452Y-89214285D01*
X143916547Y-89176190D01*
X143992738Y-89138095D01*
X144068928Y-89138095D01*
X144145119Y-89176190D01*
X144183214Y-89214285D01*
X144221309Y-89290476D01*
X144259404Y-89442857D01*
X144259404Y-89633333D01*
X144221309Y-89785714D01*
X144183214Y-89861904D01*
X144145119Y-89900000D01*
X144068928Y-89938095D01*
X143497500Y-89861904D02*
X143459404Y-89900000D01*
X143383214Y-89938095D01*
X143192738Y-89938095D01*
X143116547Y-89900000D01*
X143078452Y-89861904D01*
X143040357Y-89785714D01*
X143040357Y-89709523D01*
X143078452Y-89595238D01*
X143535595Y-89138095D01*
X143040357Y-89138095D01*
X142278452Y-89138095D02*
X142735595Y-89138095D01*
X142507023Y-89138095D02*
X142507023Y-89938095D01*
X142583214Y-89823809D01*
X142659404Y-89747619D01*
X142735595Y-89709523D01*
X141935595Y-89442857D02*
X141326071Y-89442857D01*
X140792738Y-89938095D02*
X140716547Y-89938095D01*
X140640357Y-89900000D01*
X140602261Y-89861904D01*
X140564166Y-89785714D01*
X140526071Y-89633333D01*
X140526071Y-89442857D01*
X140564166Y-89290476D01*
X140602261Y-89214285D01*
X140640357Y-89176190D01*
X140716547Y-89138095D01*
X140792738Y-89138095D01*
X140868928Y-89176190D01*
X140907023Y-89214285D01*
X140945119Y-89290476D01*
X140983214Y-89442857D01*
X140983214Y-89633333D01*
X140945119Y-89785714D01*
X140907023Y-89861904D01*
X140868928Y-89900000D01*
X140792738Y-89938095D01*
X139840357Y-89671428D02*
X139840357Y-89138095D01*
X140030833Y-89976190D02*
X140221309Y-89404761D01*
X139726071Y-89404761D01*
X139421309Y-89442857D02*
X138811785Y-89442857D01*
X138468928Y-89861904D02*
X138430833Y-89900000D01*
X138354642Y-89938095D01*
X138164166Y-89938095D01*
X138087976Y-89900000D01*
X138049880Y-89861904D01*
X138011785Y-89785714D01*
X138011785Y-89709523D01*
X138049880Y-89595238D01*
X138507023Y-89138095D01*
X138011785Y-89138095D01*
X137287976Y-89938095D02*
X137668928Y-89938095D01*
X137707023Y-89557142D01*
X137668928Y-89595238D01*
X137592738Y-89633333D01*
X137402261Y-89633333D01*
X137326071Y-89595238D01*
X137287976Y-89557142D01*
X137249880Y-89480952D01*
X137249880Y-89290476D01*
X137287976Y-89214285D01*
X137326071Y-89176190D01*
X137402261Y-89138095D01*
X137592738Y-89138095D01*
X137668928Y-89176190D01*
X137707023Y-89214285D01*
D11*
%TO.C,A1*%
X133000000Y-96000000D02*
X130000000Y-94000000D01*
%TD*%
%TO.P,R11,2*%
%TO.N,Net-(J1-Pad2)*%
%TA.AperFunction,SMDPad,CuDef*%
G36*
G01*
X147050001Y-88100000D02*
X146149999Y-88100000D01*
G75*
G02*
X145900000Y-87850001I0J249999D01*
G01*
X145900000Y-87149999D01*
G75*
G02*
X146149999Y-86900000I249999J0D01*
G01*
X147050001Y-86900000D01*
G75*
G02*
X147300000Y-87149999I0J-249999D01*
G01*
X147300000Y-87850001D01*
G75*
G02*
X147050001Y-88100000I-249999J0D01*
G01*
G37*
%TD.AperFunction*%
%TO.P,R11,1*%
%TO.N,+3V3*%
%TA.AperFunction,SMDPad,CuDef*%
G36*
G01*
X147050001Y-90100000D02*
X146149999Y-90100000D01*
G75*
G02*
X145900000Y-89850001I0J249999D01*
G01*
X145900000Y-89149999D01*
G75*
G02*
X146149999Y-88900000I249999J0D01*
G01*
X147050001Y-88900000D01*
G75*
G02*
X147300000Y-89149999I0J-249999D01*
G01*
X147300000Y-89850001D01*
G75*
G02*
X147050001Y-90100000I-249999J0D01*
G01*
G37*
%TD.AperFunction*%
%TD*%
D12*
%TO.P,J1,2*%
%TO.N,Net-(J1-Pad2)*%
X143500000Y-81730000D03*
D13*
%TO.P,J1,1*%
%TO.N,GND*%
X143500000Y-84270000D03*
%TD*%
%TO.P,R4,2*%
%TO.N,Net-(C10-Pad1)*%
%TA.AperFunction,SMDPad,CuDef*%
G36*
G01*
X157100000Y-82050001D02*
X157100000Y-81149999D01*
G75*
G02*
X157349999Y-80900000I249999J0D01*
G01*
X158050001Y-80900000D01*
G75*
G02*
X158300000Y-81149999I0J-249999D01*
G01*
X158300000Y-82050001D01*
G75*
G02*
X158050001Y-82300000I-249999J0D01*
G01*
X157349999Y-82300000D01*
G75*
G02*
X157100000Y-82050001I0J249999D01*
G01*
G37*
%TD.AperFunction*%
%TO.P,R4,1*%
%TO.N,Net-(C8-Pad1)*%
%TA.AperFunction,SMDPad,CuDef*%
G36*
G01*
X155100000Y-82050001D02*
X155100000Y-81149999D01*
G75*
G02*
X155349999Y-80900000I249999J0D01*
G01*
X156050001Y-80900000D01*
G75*
G02*
X156300000Y-81149999I0J-249999D01*
G01*
X156300000Y-82050001D01*
G75*
G02*
X156050001Y-82300000I-249999J0D01*
G01*
X155349999Y-82300000D01*
G75*
G02*
X155100000Y-82050001I0J249999D01*
G01*
G37*
%TD.AperFunction*%
%TD*%
D14*
%TO.P,A1,~*%
%TO.N,N/C*%
X130000000Y-94000000D03*
X133000000Y-96000000D03*
%TO.P,A1,3*%
%TO.N,Net-(A1-Pad3)*%
X167000000Y-92000000D03*
%TO.P,A1,1*%
%TO.N,Net-(A1-Pad1)*%
X167000000Y-98000000D03*
%TO.P,A1,2*%
%TO.N,GND*%
X169000000Y-95000000D03*
%TD*%
D15*
%TO.P,H2,1*%
%TO.N,N/C*%
X138000000Y-83000000D03*
%TD*%
D16*
%TO.P,H1,1*%
%TO.N,N/C*%
X162000000Y-107000000D03*
%TD*%
D17*
%TO.P,J3,4*%
%TO.N,Net-(J2-Pad4)*%
X153750000Y-103900000D03*
%TO.P,J3,3*%
%TO.N,Net-(J2-Pad3)*%
X151250000Y-103900000D03*
%TO.P,J3,2*%
%TO.N,+5V*%
X148750000Y-103900000D03*
%TO.P,J3,1*%
%TO.N,GND*%
%TA.AperFunction,ComponentPad*%
G36*
G01*
X145400000Y-104575000D02*
X145400000Y-103225000D01*
G75*
G02*
X145650000Y-102975000I250000J0D01*
G01*
X146850000Y-102975000D01*
G75*
G02*
X147100000Y-103225000I0J-250000D01*
G01*
X147100000Y-104575000D01*
G75*
G02*
X146850000Y-104825000I-250000J0D01*
G01*
X145650000Y-104825000D01*
G75*
G02*
X145400000Y-104575000I0J250000D01*
G01*
G37*
%TD.AperFunction*%
%TD*%
%TO.P,C14,2*%
%TO.N,GND*%
%TA.AperFunction,SMDPad,CuDef*%
G36*
G01*
X158925000Y-101087500D02*
X159875000Y-101087500D01*
G75*
G02*
X160125000Y-101337500I0J-250000D01*
G01*
X160125000Y-102012500D01*
G75*
G02*
X159875000Y-102262500I-250000J0D01*
G01*
X158925000Y-102262500D01*
G75*
G02*
X158675000Y-102012500I0J250000D01*
G01*
X158675000Y-101337500D01*
G75*
G02*
X158925000Y-101087500I250000J0D01*
G01*
G37*
%TD.AperFunction*%
%TO.P,C14,1*%
%TO.N,+5V*%
%TA.AperFunction,SMDPad,CuDef*%
G36*
G01*
X158925000Y-99012500D02*
X159875000Y-99012500D01*
G75*
G02*
X160125000Y-99262500I0J-250000D01*
G01*
X160125000Y-99937500D01*
G75*
G02*
X159875000Y-100187500I-250000J0D01*
G01*
X158925000Y-100187500D01*
G75*
G02*
X158675000Y-99937500I0J250000D01*
G01*
X158675000Y-99262500D01*
G75*
G02*
X158925000Y-99012500I250000J0D01*
G01*
G37*
%TD.AperFunction*%
%TD*%
%TO.P,C17,2*%
%TO.N,GND*%
%TA.AperFunction,SMDPad,CuDef*%
G36*
G01*
X149175000Y-88012500D02*
X148225000Y-88012500D01*
G75*
G02*
X147975000Y-87762500I0J250000D01*
G01*
X147975000Y-87087500D01*
G75*
G02*
X148225000Y-86837500I250000J0D01*
G01*
X149175000Y-86837500D01*
G75*
G02*
X149425000Y-87087500I0J-250000D01*
G01*
X149425000Y-87762500D01*
G75*
G02*
X149175000Y-88012500I-250000J0D01*
G01*
G37*
%TD.AperFunction*%
%TO.P,C17,1*%
%TO.N,+3V3*%
%TA.AperFunction,SMDPad,CuDef*%
G36*
G01*
X149175000Y-90087500D02*
X148225000Y-90087500D01*
G75*
G02*
X147975000Y-89837500I0J250000D01*
G01*
X147975000Y-89162500D01*
G75*
G02*
X148225000Y-88912500I250000J0D01*
G01*
X149175000Y-88912500D01*
G75*
G02*
X149425000Y-89162500I0J-250000D01*
G01*
X149425000Y-89837500D01*
G75*
G02*
X149175000Y-90087500I-250000J0D01*
G01*
G37*
%TD.AperFunction*%
%TD*%
%TO.P,C16,2*%
%TO.N,GND*%
%TA.AperFunction,SMDPad,CuDef*%
G36*
G01*
X151275000Y-88012500D02*
X150325000Y-88012500D01*
G75*
G02*
X150075000Y-87762500I0J250000D01*
G01*
X150075000Y-87087500D01*
G75*
G02*
X150325000Y-86837500I250000J0D01*
G01*
X151275000Y-86837500D01*
G75*
G02*
X151525000Y-87087500I0J-250000D01*
G01*
X151525000Y-87762500D01*
G75*
G02*
X151275000Y-88012500I-250000J0D01*
G01*
G37*
%TD.AperFunction*%
%TO.P,C16,1*%
%TO.N,Net-(C16-Pad1)*%
%TA.AperFunction,SMDPad,CuDef*%
G36*
G01*
X151275000Y-90087500D02*
X150325000Y-90087500D01*
G75*
G02*
X150075000Y-89837500I0J250000D01*
G01*
X150075000Y-89162500D01*
G75*
G02*
X150325000Y-88912500I250000J0D01*
G01*
X151275000Y-88912500D01*
G75*
G02*
X151525000Y-89162500I0J-250000D01*
G01*
X151525000Y-89837500D01*
G75*
G02*
X151275000Y-90087500I-250000J0D01*
G01*
G37*
%TD.AperFunction*%
%TD*%
%TO.P,C15,2*%
%TO.N,GND*%
%TA.AperFunction,SMDPad,CuDef*%
G36*
G01*
X157025000Y-88912500D02*
X157975000Y-88912500D01*
G75*
G02*
X158225000Y-89162500I0J-250000D01*
G01*
X158225000Y-89837500D01*
G75*
G02*
X157975000Y-90087500I-250000J0D01*
G01*
X157025000Y-90087500D01*
G75*
G02*
X156775000Y-89837500I0J250000D01*
G01*
X156775000Y-89162500D01*
G75*
G02*
X157025000Y-88912500I250000J0D01*
G01*
G37*
%TD.AperFunction*%
%TO.P,C15,1*%
%TO.N,Net-(C15-Pad1)*%
%TA.AperFunction,SMDPad,CuDef*%
G36*
G01*
X157025000Y-86837500D02*
X157975000Y-86837500D01*
G75*
G02*
X158225000Y-87087500I0J-250000D01*
G01*
X158225000Y-87762500D01*
G75*
G02*
X157975000Y-88012500I-250000J0D01*
G01*
X157025000Y-88012500D01*
G75*
G02*
X156775000Y-87762500I0J250000D01*
G01*
X156775000Y-87087500D01*
G75*
G02*
X157025000Y-86837500I250000J0D01*
G01*
G37*
%TD.AperFunction*%
%TD*%
%TO.P,C13,2*%
%TO.N,GND*%
%TA.AperFunction,SMDPad,CuDef*%
G36*
G01*
X151812500Y-100225000D02*
X151812500Y-101175000D01*
G75*
G02*
X151562500Y-101425000I-250000J0D01*
G01*
X150887500Y-101425000D01*
G75*
G02*
X150637500Y-101175000I0J250000D01*
G01*
X150637500Y-100225000D01*
G75*
G02*
X150887500Y-99975000I250000J0D01*
G01*
X151562500Y-99975000D01*
G75*
G02*
X151812500Y-100225000I0J-250000D01*
G01*
G37*
%TD.AperFunction*%
%TO.P,C13,1*%
%TO.N,+3V3*%
%TA.AperFunction,SMDPad,CuDef*%
G36*
G01*
X153887500Y-100225000D02*
X153887500Y-101175000D01*
G75*
G02*
X153637500Y-101425000I-250000J0D01*
G01*
X152962500Y-101425000D01*
G75*
G02*
X152712500Y-101175000I0J250000D01*
G01*
X152712500Y-100225000D01*
G75*
G02*
X152962500Y-99975000I250000J0D01*
G01*
X153637500Y-99975000D01*
G75*
G02*
X153887500Y-100225000I0J-250000D01*
G01*
G37*
%TD.AperFunction*%
%TD*%
%TO.P,C12,2*%
%TO.N,GND*%
%TA.AperFunction,SMDPad,CuDef*%
G36*
G01*
X156712500Y-101175000D02*
X156712500Y-100225000D01*
G75*
G02*
X156962500Y-99975000I250000J0D01*
G01*
X157637500Y-99975000D01*
G75*
G02*
X157887500Y-100225000I0J-250000D01*
G01*
X157887500Y-101175000D01*
G75*
G02*
X157637500Y-101425000I-250000J0D01*
G01*
X156962500Y-101425000D01*
G75*
G02*
X156712500Y-101175000I0J250000D01*
G01*
G37*
%TD.AperFunction*%
%TO.P,C12,1*%
%TO.N,+3V3*%
%TA.AperFunction,SMDPad,CuDef*%
G36*
G01*
X154637500Y-101175000D02*
X154637500Y-100225000D01*
G75*
G02*
X154887500Y-99975000I250000J0D01*
G01*
X155562500Y-99975000D01*
G75*
G02*
X155812500Y-100225000I0J-250000D01*
G01*
X155812500Y-101175000D01*
G75*
G02*
X155562500Y-101425000I-250000J0D01*
G01*
X154887500Y-101425000D01*
G75*
G02*
X154637500Y-101175000I0J250000D01*
G01*
G37*
%TD.AperFunction*%
%TD*%
%TO.P,C11,2*%
%TO.N,GND*%
%TA.AperFunction,SMDPad,CuDef*%
G36*
G01*
X161125000Y-95450000D02*
X162075000Y-95450000D01*
G75*
G02*
X162325000Y-95700000I0J-250000D01*
G01*
X162325000Y-96375000D01*
G75*
G02*
X162075000Y-96625000I-250000J0D01*
G01*
X161125000Y-96625000D01*
G75*
G02*
X160875000Y-96375000I0J250000D01*
G01*
X160875000Y-95700000D01*
G75*
G02*
X161125000Y-95450000I250000J0D01*
G01*
G37*
%TD.AperFunction*%
%TO.P,C11,1*%
%TO.N,+3V3*%
%TA.AperFunction,SMDPad,CuDef*%
G36*
G01*
X161125000Y-93375000D02*
X162075000Y-93375000D01*
G75*
G02*
X162325000Y-93625000I0J-250000D01*
G01*
X162325000Y-94300000D01*
G75*
G02*
X162075000Y-94550000I-250000J0D01*
G01*
X161125000Y-94550000D01*
G75*
G02*
X160875000Y-94300000I0J250000D01*
G01*
X160875000Y-93625000D01*
G75*
G02*
X161125000Y-93375000I250000J0D01*
G01*
G37*
%TD.AperFunction*%
%TD*%
%TO.P,C10,2*%
%TO.N,GND*%
%TA.AperFunction,SMDPad,CuDef*%
G36*
G01*
X160075000Y-88012500D02*
X159125000Y-88012500D01*
G75*
G02*
X158875000Y-87762500I0J250000D01*
G01*
X158875000Y-87087500D01*
G75*
G02*
X159125000Y-86837500I250000J0D01*
G01*
X160075000Y-86837500D01*
G75*
G02*
X160325000Y-87087500I0J-250000D01*
G01*
X160325000Y-87762500D01*
G75*
G02*
X160075000Y-88012500I-250000J0D01*
G01*
G37*
%TD.AperFunction*%
%TO.P,C10,1*%
%TO.N,Net-(C10-Pad1)*%
%TA.AperFunction,SMDPad,CuDef*%
G36*
G01*
X160075000Y-90087500D02*
X159125000Y-90087500D01*
G75*
G02*
X158875000Y-89837500I0J250000D01*
G01*
X158875000Y-89162500D01*
G75*
G02*
X159125000Y-88912500I250000J0D01*
G01*
X160075000Y-88912500D01*
G75*
G02*
X160325000Y-89162500I0J-250000D01*
G01*
X160325000Y-89837500D01*
G75*
G02*
X160075000Y-90087500I-250000J0D01*
G01*
G37*
%TD.AperFunction*%
%TD*%
%TO.P,C9,2*%
%TO.N,GND*%
%TA.AperFunction,SMDPad,CuDef*%
G36*
G01*
X165012500Y-94375000D02*
X165012500Y-93425000D01*
G75*
G02*
X165262500Y-93175000I250000J0D01*
G01*
X165937500Y-93175000D01*
G75*
G02*
X166187500Y-93425000I0J-250000D01*
G01*
X166187500Y-94375000D01*
G75*
G02*
X165937500Y-94625000I-250000J0D01*
G01*
X165262500Y-94625000D01*
G75*
G02*
X165012500Y-94375000I0J250000D01*
G01*
G37*
%TD.AperFunction*%
%TO.P,C9,1*%
%TO.N,+3V3*%
%TA.AperFunction,SMDPad,CuDef*%
G36*
G01*
X162937500Y-94375000D02*
X162937500Y-93425000D01*
G75*
G02*
X163187500Y-93175000I250000J0D01*
G01*
X163862500Y-93175000D01*
G75*
G02*
X164112500Y-93425000I0J-250000D01*
G01*
X164112500Y-94375000D01*
G75*
G02*
X163862500Y-94625000I-250000J0D01*
G01*
X163187500Y-94625000D01*
G75*
G02*
X162937500Y-94375000I0J250000D01*
G01*
G37*
%TD.AperFunction*%
%TD*%
%TO.P,C8,2*%
%TO.N,Net-(C8-Pad2)*%
%TA.AperFunction,SMDPad,CuDef*%
G36*
G01*
X155225000Y-85012500D02*
X156175000Y-85012500D01*
G75*
G02*
X156425000Y-85262500I0J-250000D01*
G01*
X156425000Y-85937500D01*
G75*
G02*
X156175000Y-86187500I-250000J0D01*
G01*
X155225000Y-86187500D01*
G75*
G02*
X154975000Y-85937500I0J250000D01*
G01*
X154975000Y-85262500D01*
G75*
G02*
X155225000Y-85012500I250000J0D01*
G01*
G37*
%TD.AperFunction*%
%TO.P,C8,1*%
%TO.N,Net-(C8-Pad1)*%
%TA.AperFunction,SMDPad,CuDef*%
G36*
G01*
X155225000Y-82937500D02*
X156175000Y-82937500D01*
G75*
G02*
X156425000Y-83187500I0J-250000D01*
G01*
X156425000Y-83862500D01*
G75*
G02*
X156175000Y-84112500I-250000J0D01*
G01*
X155225000Y-84112500D01*
G75*
G02*
X154975000Y-83862500I0J250000D01*
G01*
X154975000Y-83187500D01*
G75*
G02*
X155225000Y-82937500I250000J0D01*
G01*
G37*
%TD.AperFunction*%
%TD*%
%TO.P,C7,2*%
%TO.N,GND*%
%TA.AperFunction,SMDPad,CuDef*%
G36*
G01*
X165012500Y-96575000D02*
X165012500Y-95625000D01*
G75*
G02*
X165262500Y-95375000I250000J0D01*
G01*
X165937500Y-95375000D01*
G75*
G02*
X166187500Y-95625000I0J-250000D01*
G01*
X166187500Y-96575000D01*
G75*
G02*
X165937500Y-96825000I-250000J0D01*
G01*
X165262500Y-96825000D01*
G75*
G02*
X165012500Y-96575000I0J250000D01*
G01*
G37*
%TD.AperFunction*%
%TO.P,C7,1*%
%TO.N,+3V3*%
%TA.AperFunction,SMDPad,CuDef*%
G36*
G01*
X162937500Y-96575000D02*
X162937500Y-95625000D01*
G75*
G02*
X163187500Y-95375000I250000J0D01*
G01*
X163862500Y-95375000D01*
G75*
G02*
X164112500Y-95625000I0J-250000D01*
G01*
X164112500Y-96575000D01*
G75*
G02*
X163862500Y-96825000I-250000J0D01*
G01*
X163187500Y-96825000D01*
G75*
G02*
X162937500Y-96575000I0J250000D01*
G01*
G37*
%TD.AperFunction*%
%TD*%
%TO.P,C6,2*%
%TO.N,Net-(C4-Pad2)*%
%TA.AperFunction,SMDPad,CuDef*%
G36*
G01*
X162087500Y-87325000D02*
X162087500Y-88275000D01*
G75*
G02*
X161837500Y-88525000I-250000J0D01*
G01*
X161162500Y-88525000D01*
G75*
G02*
X160912500Y-88275000I0J250000D01*
G01*
X160912500Y-87325000D01*
G75*
G02*
X161162500Y-87075000I250000J0D01*
G01*
X161837500Y-87075000D01*
G75*
G02*
X162087500Y-87325000I0J-250000D01*
G01*
G37*
%TD.AperFunction*%
%TO.P,C6,1*%
%TO.N,GND*%
%TA.AperFunction,SMDPad,CuDef*%
G36*
G01*
X164162500Y-87325000D02*
X164162500Y-88275000D01*
G75*
G02*
X163912500Y-88525000I-250000J0D01*
G01*
X163237500Y-88525000D01*
G75*
G02*
X162987500Y-88275000I0J250000D01*
G01*
X162987500Y-87325000D01*
G75*
G02*
X163237500Y-87075000I250000J0D01*
G01*
X163912500Y-87075000D01*
G75*
G02*
X164162500Y-87325000I0J-250000D01*
G01*
G37*
%TD.AperFunction*%
%TD*%
%TO.P,C5,2*%
%TO.N,Net-(C3-Pad1)*%
%TA.AperFunction,SMDPad,CuDef*%
G36*
G01*
X162087500Y-101725000D02*
X162087500Y-102675000D01*
G75*
G02*
X161837500Y-102925000I-250000J0D01*
G01*
X161162500Y-102925000D01*
G75*
G02*
X160912500Y-102675000I0J250000D01*
G01*
X160912500Y-101725000D01*
G75*
G02*
X161162500Y-101475000I250000J0D01*
G01*
X161837500Y-101475000D01*
G75*
G02*
X162087500Y-101725000I0J-250000D01*
G01*
G37*
%TD.AperFunction*%
%TO.P,C5,1*%
%TO.N,GND*%
%TA.AperFunction,SMDPad,CuDef*%
G36*
G01*
X164162500Y-101725000D02*
X164162500Y-102675000D01*
G75*
G02*
X163912500Y-102925000I-250000J0D01*
G01*
X163237500Y-102925000D01*
G75*
G02*
X162987500Y-102675000I0J250000D01*
G01*
X162987500Y-101725000D01*
G75*
G02*
X163237500Y-101475000I250000J0D01*
G01*
X163912500Y-101475000D01*
G75*
G02*
X164162500Y-101725000I0J-250000D01*
G01*
G37*
%TD.AperFunction*%
%TD*%
%TO.P,C4,2*%
%TO.N,Net-(C4-Pad2)*%
%TA.AperFunction,SMDPad,CuDef*%
G36*
G01*
X162087500Y-89456428D02*
X162087500Y-90406428D01*
G75*
G02*
X161837500Y-90656428I-250000J0D01*
G01*
X161162500Y-90656428D01*
G75*
G02*
X160912500Y-90406428I0J250000D01*
G01*
X160912500Y-89456428D01*
G75*
G02*
X161162500Y-89206428I250000J0D01*
G01*
X161837500Y-89206428D01*
G75*
G02*
X162087500Y-89456428I0J-250000D01*
G01*
G37*
%TD.AperFunction*%
%TO.P,C4,1*%
%TO.N,Net-(C2-Pad2)*%
%TA.AperFunction,SMDPad,CuDef*%
G36*
G01*
X164162500Y-89456428D02*
X164162500Y-90406428D01*
G75*
G02*
X163912500Y-90656428I-250000J0D01*
G01*
X163237500Y-90656428D01*
G75*
G02*
X162987500Y-90406428I0J250000D01*
G01*
X162987500Y-89456428D01*
G75*
G02*
X163237500Y-89206428I250000J0D01*
G01*
X163912500Y-89206428D01*
G75*
G02*
X164162500Y-89456428I0J-250000D01*
G01*
G37*
%TD.AperFunction*%
%TD*%
%TO.P,C3,2*%
%TO.N,Net-(C1-Pad1)*%
%TA.AperFunction,SMDPad,CuDef*%
G36*
G01*
X162987500Y-100543568D02*
X162987500Y-99593568D01*
G75*
G02*
X163237500Y-99343568I250000J0D01*
G01*
X163912500Y-99343568D01*
G75*
G02*
X164162500Y-99593568I0J-250000D01*
G01*
X164162500Y-100543568D01*
G75*
G02*
X163912500Y-100793568I-250000J0D01*
G01*
X163237500Y-100793568D01*
G75*
G02*
X162987500Y-100543568I0J250000D01*
G01*
G37*
%TD.AperFunction*%
%TO.P,C3,1*%
%TO.N,Net-(C3-Pad1)*%
%TA.AperFunction,SMDPad,CuDef*%
G36*
G01*
X160912500Y-100543568D02*
X160912500Y-99593568D01*
G75*
G02*
X161162500Y-99343568I250000J0D01*
G01*
X161837500Y-99343568D01*
G75*
G02*
X162087500Y-99593568I0J-250000D01*
G01*
X162087500Y-100543568D01*
G75*
G02*
X161837500Y-100793568I-250000J0D01*
G01*
X161162500Y-100793568D01*
G75*
G02*
X160912500Y-100543568I0J250000D01*
G01*
G37*
%TD.AperFunction*%
%TD*%
%TO.P,L2,2*%
%TO.N,Net-(L2-Pad2)*%
%TA.AperFunction,SMDPad,CuDef*%
G36*
G01*
X161912500Y-91582855D02*
X161912500Y-92282857D01*
G75*
G02*
X161662501Y-92532856I-249999J0D01*
G01*
X161112499Y-92532856D01*
G75*
G02*
X160862500Y-92282857I0J249999D01*
G01*
X160862500Y-91582855D01*
G75*
G02*
X161112499Y-91332856I249999J0D01*
G01*
X161662501Y-91332856D01*
G75*
G02*
X161912500Y-91582855I0J-249999D01*
G01*
G37*
%TD.AperFunction*%
%TO.P,L2,1*%
%TO.N,Net-(C4-Pad2)*%
%TA.AperFunction,SMDPad,CuDef*%
G36*
G01*
X164212500Y-91582855D02*
X164212500Y-92282857D01*
G75*
G02*
X163962501Y-92532856I-249999J0D01*
G01*
X163412499Y-92532856D01*
G75*
G02*
X163162500Y-92282857I0J249999D01*
G01*
X163162500Y-91582855D01*
G75*
G02*
X163412499Y-91332856I249999J0D01*
G01*
X163962501Y-91332856D01*
G75*
G02*
X164212500Y-91582855I0J-249999D01*
G01*
G37*
%TD.AperFunction*%
%TD*%
%TO.P,L1,2*%
%TO.N,Net-(C3-Pad1)*%
%TA.AperFunction,SMDPad,CuDef*%
G36*
G01*
X163162500Y-98417141D02*
X163162500Y-97717139D01*
G75*
G02*
X163412499Y-97467140I249999J0D01*
G01*
X163962501Y-97467140D01*
G75*
G02*
X164212500Y-97717139I0J-249999D01*
G01*
X164212500Y-98417141D01*
G75*
G02*
X163962501Y-98667140I-249999J0D01*
G01*
X163412499Y-98667140D01*
G75*
G02*
X163162500Y-98417141I0J249999D01*
G01*
G37*
%TD.AperFunction*%
%TO.P,L1,1*%
%TO.N,Net-(L1-Pad1)*%
%TA.AperFunction,SMDPad,CuDef*%
G36*
G01*
X160862500Y-98417141D02*
X160862500Y-97717139D01*
G75*
G02*
X161112499Y-97467140I249999J0D01*
G01*
X161662501Y-97467140D01*
G75*
G02*
X161912500Y-97717139I0J-249999D01*
G01*
X161912500Y-98417141D01*
G75*
G02*
X161662501Y-98667140I-249999J0D01*
G01*
X161112499Y-98667140D01*
G75*
G02*
X160862500Y-98417141I0J249999D01*
G01*
G37*
%TD.AperFunction*%
%TD*%
%TO.P,C2,2*%
%TO.N,Net-(C2-Pad2)*%
%TA.AperFunction,SMDPad,CuDef*%
G36*
G01*
X165025000Y-87450000D02*
X165975000Y-87450000D01*
G75*
G02*
X166225000Y-87700000I0J-250000D01*
G01*
X166225000Y-88375000D01*
G75*
G02*
X165975000Y-88625000I-250000J0D01*
G01*
X165025000Y-88625000D01*
G75*
G02*
X164775000Y-88375000I0J250000D01*
G01*
X164775000Y-87700000D01*
G75*
G02*
X165025000Y-87450000I250000J0D01*
G01*
G37*
%TD.AperFunction*%
%TO.P,C2,1*%
%TO.N,GND*%
%TA.AperFunction,SMDPad,CuDef*%
G36*
G01*
X165025000Y-85375000D02*
X165975000Y-85375000D01*
G75*
G02*
X166225000Y-85625000I0J-250000D01*
G01*
X166225000Y-86300000D01*
G75*
G02*
X165975000Y-86550000I-250000J0D01*
G01*
X165025000Y-86550000D01*
G75*
G02*
X164775000Y-86300000I0J250000D01*
G01*
X164775000Y-85625000D01*
G75*
G02*
X165025000Y-85375000I250000J0D01*
G01*
G37*
%TD.AperFunction*%
%TD*%
%TO.P,C1,2*%
%TO.N,GND*%
%TA.AperFunction,SMDPad,CuDef*%
G36*
G01*
X165025000Y-103450000D02*
X165975000Y-103450000D01*
G75*
G02*
X166225000Y-103700000I0J-250000D01*
G01*
X166225000Y-104375000D01*
G75*
G02*
X165975000Y-104625000I-250000J0D01*
G01*
X165025000Y-104625000D01*
G75*
G02*
X164775000Y-104375000I0J250000D01*
G01*
X164775000Y-103700000D01*
G75*
G02*
X165025000Y-103450000I250000J0D01*
G01*
G37*
%TD.AperFunction*%
%TO.P,C1,1*%
%TO.N,Net-(C1-Pad1)*%
%TA.AperFunction,SMDPad,CuDef*%
G36*
G01*
X165025000Y-101375000D02*
X165975000Y-101375000D01*
G75*
G02*
X166225000Y-101625000I0J-250000D01*
G01*
X166225000Y-102300000D01*
G75*
G02*
X165975000Y-102550000I-250000J0D01*
G01*
X165025000Y-102550000D01*
G75*
G02*
X164775000Y-102300000I0J250000D01*
G01*
X164775000Y-101625000D01*
G75*
G02*
X165025000Y-101375000I250000J0D01*
G01*
G37*
%TD.AperFunction*%
%TD*%
%TO.P,R10,2*%
%TO.N,Net-(R10-Pad2)*%
%TA.AperFunction,SMDPad,CuDef*%
G36*
G01*
X150000000Y-91750001D02*
X150000000Y-90849999D01*
G75*
G02*
X150249999Y-90600000I249999J0D01*
G01*
X150950001Y-90600000D01*
G75*
G02*
X151200000Y-90849999I0J-249999D01*
G01*
X151200000Y-91750001D01*
G75*
G02*
X150950001Y-92000000I-249999J0D01*
G01*
X150249999Y-92000000D01*
G75*
G02*
X150000000Y-91750001I0J249999D01*
G01*
G37*
%TD.AperFunction*%
%TO.P,R10,1*%
%TO.N,+3V3*%
%TA.AperFunction,SMDPad,CuDef*%
G36*
G01*
X148000000Y-91750001D02*
X148000000Y-90849999D01*
G75*
G02*
X148249999Y-90600000I249999J0D01*
G01*
X148950001Y-90600000D01*
G75*
G02*
X149200000Y-90849999I0J-249999D01*
G01*
X149200000Y-91750001D01*
G75*
G02*
X148950001Y-92000000I-249999J0D01*
G01*
X148249999Y-92000000D01*
G75*
G02*
X148000000Y-91750001I0J249999D01*
G01*
G37*
%TD.AperFunction*%
%TD*%
%TO.P,R9,2*%
%TO.N,Net-(D3-Pad2)*%
%TA.AperFunction,SMDPad,CuDef*%
G36*
G01*
X143450000Y-95849999D02*
X143450000Y-96750001D01*
G75*
G02*
X143200001Y-97000000I-249999J0D01*
G01*
X142499999Y-97000000D01*
G75*
G02*
X142250000Y-96750001I0J249999D01*
G01*
X142250000Y-95849999D01*
G75*
G02*
X142499999Y-95600000I249999J0D01*
G01*
X143200001Y-95600000D01*
G75*
G02*
X143450000Y-95849999I0J-249999D01*
G01*
G37*
%TD.AperFunction*%
%TO.P,R9,1*%
%TO.N,Net-(R9-Pad1)*%
%TA.AperFunction,SMDPad,CuDef*%
G36*
G01*
X145450000Y-95849999D02*
X145450000Y-96750001D01*
G75*
G02*
X145200001Y-97000000I-249999J0D01*
G01*
X144499999Y-97000000D01*
G75*
G02*
X144250000Y-96750001I0J249999D01*
G01*
X144250000Y-95849999D01*
G75*
G02*
X144499999Y-95600000I249999J0D01*
G01*
X145200001Y-95600000D01*
G75*
G02*
X145450000Y-95849999I0J-249999D01*
G01*
G37*
%TD.AperFunction*%
%TD*%
%TO.P,R8,2*%
%TO.N,Net-(D2-Pad2)*%
%TA.AperFunction,SMDPad,CuDef*%
G36*
G01*
X143450000Y-93549999D02*
X143450000Y-94450001D01*
G75*
G02*
X143200001Y-94700000I-249999J0D01*
G01*
X142499999Y-94700000D01*
G75*
G02*
X142250000Y-94450001I0J249999D01*
G01*
X142250000Y-93549999D01*
G75*
G02*
X142499999Y-93300000I249999J0D01*
G01*
X143200001Y-93300000D01*
G75*
G02*
X143450000Y-93549999I0J-249999D01*
G01*
G37*
%TD.AperFunction*%
%TO.P,R8,1*%
%TO.N,Net-(R8-Pad1)*%
%TA.AperFunction,SMDPad,CuDef*%
G36*
G01*
X145450000Y-93549999D02*
X145450000Y-94450001D01*
G75*
G02*
X145200001Y-94700000I-249999J0D01*
G01*
X144499999Y-94700000D01*
G75*
G02*
X144250000Y-94450001I0J249999D01*
G01*
X144250000Y-93549999D01*
G75*
G02*
X144499999Y-93300000I249999J0D01*
G01*
X145200001Y-93300000D01*
G75*
G02*
X145450000Y-93549999I0J-249999D01*
G01*
G37*
%TD.AperFunction*%
%TD*%
%TO.P,R7,2*%
%TO.N,Net-(D1-Pad2)*%
%TA.AperFunction,SMDPad,CuDef*%
G36*
G01*
X143450000Y-91249999D02*
X143450000Y-92150001D01*
G75*
G02*
X143200001Y-92400000I-249999J0D01*
G01*
X142499999Y-92400000D01*
G75*
G02*
X142250000Y-92150001I0J249999D01*
G01*
X142250000Y-91249999D01*
G75*
G02*
X142499999Y-91000000I249999J0D01*
G01*
X143200001Y-91000000D01*
G75*
G02*
X143450000Y-91249999I0J-249999D01*
G01*
G37*
%TD.AperFunction*%
%TO.P,R7,1*%
%TO.N,Net-(R7-Pad1)*%
%TA.AperFunction,SMDPad,CuDef*%
G36*
G01*
X145450000Y-91249999D02*
X145450000Y-92150001D01*
G75*
G02*
X145200001Y-92400000I-249999J0D01*
G01*
X144499999Y-92400000D01*
G75*
G02*
X144250000Y-92150001I0J249999D01*
G01*
X144250000Y-91249999D01*
G75*
G02*
X144499999Y-91000000I249999J0D01*
G01*
X145200001Y-91000000D01*
G75*
G02*
X145450000Y-91249999I0J-249999D01*
G01*
G37*
%TD.AperFunction*%
%TD*%
%TO.P,R6,2*%
%TO.N,Net-(R5-Pad1)*%
%TA.AperFunction,SMDPad,CuDef*%
G36*
G01*
X143350001Y-99100000D02*
X142449999Y-99100000D01*
G75*
G02*
X142200000Y-98850001I0J249999D01*
G01*
X142200000Y-98149999D01*
G75*
G02*
X142449999Y-97900000I249999J0D01*
G01*
X143350001Y-97900000D01*
G75*
G02*
X143600000Y-98149999I0J-249999D01*
G01*
X143600000Y-98850001D01*
G75*
G02*
X143350001Y-99100000I-249999J0D01*
G01*
G37*
%TD.AperFunction*%
%TO.P,R6,1*%
%TO.N,GND*%
%TA.AperFunction,SMDPad,CuDef*%
G36*
G01*
X143350001Y-101100000D02*
X142449999Y-101100000D01*
G75*
G02*
X142200000Y-100850001I0J249999D01*
G01*
X142200000Y-100149999D01*
G75*
G02*
X142449999Y-99900000I249999J0D01*
G01*
X143350001Y-99900000D01*
G75*
G02*
X143600000Y-100149999I0J-249999D01*
G01*
X143600000Y-100850001D01*
G75*
G02*
X143350001Y-101100000I-249999J0D01*
G01*
G37*
%TD.AperFunction*%
%TD*%
%TO.P,R5,2*%
%TO.N,+5V*%
%TA.AperFunction,SMDPad,CuDef*%
G36*
G01*
X144449999Y-99900000D02*
X145350001Y-99900000D01*
G75*
G02*
X145600000Y-100149999I0J-249999D01*
G01*
X145600000Y-100850001D01*
G75*
G02*
X145350001Y-101100000I-249999J0D01*
G01*
X144449999Y-101100000D01*
G75*
G02*
X144200000Y-100850001I0J249999D01*
G01*
X144200000Y-100149999D01*
G75*
G02*
X144449999Y-99900000I249999J0D01*
G01*
G37*
%TD.AperFunction*%
%TO.P,R5,1*%
%TO.N,Net-(R5-Pad1)*%
%TA.AperFunction,SMDPad,CuDef*%
G36*
G01*
X144449999Y-97900000D02*
X145350001Y-97900000D01*
G75*
G02*
X145600000Y-98149999I0J-249999D01*
G01*
X145600000Y-98850001D01*
G75*
G02*
X145350001Y-99100000I-249999J0D01*
G01*
X144449999Y-99100000D01*
G75*
G02*
X144200000Y-98850001I0J249999D01*
G01*
X144200000Y-98149999D01*
G75*
G02*
X144449999Y-97900000I249999J0D01*
G01*
G37*
%TD.AperFunction*%
%TD*%
%TO.P,R3,2*%
%TO.N,Net-(C4-Pad2)*%
%TA.AperFunction,SMDPad,CuDef*%
G36*
G01*
X157249999Y-85000000D02*
X158150001Y-85000000D01*
G75*
G02*
X158400000Y-85249999I0J-249999D01*
G01*
X158400000Y-85950001D01*
G75*
G02*
X158150001Y-86200000I-249999J0D01*
G01*
X157249999Y-86200000D01*
G75*
G02*
X157000000Y-85950001I0J249999D01*
G01*
X157000000Y-85249999D01*
G75*
G02*
X157249999Y-85000000I249999J0D01*
G01*
G37*
%TD.AperFunction*%
%TO.P,R3,1*%
%TO.N,Net-(C8-Pad2)*%
%TA.AperFunction,SMDPad,CuDef*%
G36*
G01*
X157249999Y-83000000D02*
X158150001Y-83000000D01*
G75*
G02*
X158400000Y-83249999I0J-249999D01*
G01*
X158400000Y-83950001D01*
G75*
G02*
X158150001Y-84200000I-249999J0D01*
G01*
X157249999Y-84200000D01*
G75*
G02*
X157000000Y-83950001I0J249999D01*
G01*
X157000000Y-83249999D01*
G75*
G02*
X157249999Y-83000000I249999J0D01*
G01*
G37*
%TD.AperFunction*%
%TD*%
%TO.P,R2,2*%
%TO.N,Net-(A1-Pad3)*%
%TA.AperFunction,SMDPad,CuDef*%
G36*
G01*
X165049999Y-91400000D02*
X165950001Y-91400000D01*
G75*
G02*
X166200000Y-91649999I0J-249999D01*
G01*
X166200000Y-92350001D01*
G75*
G02*
X165950001Y-92600000I-249999J0D01*
G01*
X165049999Y-92600000D01*
G75*
G02*
X164800000Y-92350001I0J249999D01*
G01*
X164800000Y-91649999D01*
G75*
G02*
X165049999Y-91400000I249999J0D01*
G01*
G37*
%TD.AperFunction*%
%TO.P,R2,1*%
%TO.N,Net-(C2-Pad2)*%
%TA.AperFunction,SMDPad,CuDef*%
G36*
G01*
X165049999Y-89400000D02*
X165950001Y-89400000D01*
G75*
G02*
X166200000Y-89649999I0J-249999D01*
G01*
X166200000Y-90350001D01*
G75*
G02*
X165950001Y-90600000I-249999J0D01*
G01*
X165049999Y-90600000D01*
G75*
G02*
X164800000Y-90350001I0J249999D01*
G01*
X164800000Y-89649999D01*
G75*
G02*
X165049999Y-89400000I249999J0D01*
G01*
G37*
%TD.AperFunction*%
%TD*%
%TO.P,R1,2*%
%TO.N,Net-(A1-Pad1)*%
%TA.AperFunction,SMDPad,CuDef*%
G36*
G01*
X165950001Y-98600000D02*
X165049999Y-98600000D01*
G75*
G02*
X164800000Y-98350001I0J249999D01*
G01*
X164800000Y-97649999D01*
G75*
G02*
X165049999Y-97400000I249999J0D01*
G01*
X165950001Y-97400000D01*
G75*
G02*
X166200000Y-97649999I0J-249999D01*
G01*
X166200000Y-98350001D01*
G75*
G02*
X165950001Y-98600000I-249999J0D01*
G01*
G37*
%TD.AperFunction*%
%TO.P,R1,1*%
%TO.N,Net-(C1-Pad1)*%
%TA.AperFunction,SMDPad,CuDef*%
G36*
G01*
X165950001Y-100600000D02*
X165049999Y-100600000D01*
G75*
G02*
X164800000Y-100350001I0J249999D01*
G01*
X164800000Y-99649999D01*
G75*
G02*
X165049999Y-99400000I249999J0D01*
G01*
X165950001Y-99400000D01*
G75*
G02*
X166200000Y-99649999I0J-249999D01*
G01*
X166200000Y-100350001D01*
G75*
G02*
X165950001Y-100600000I-249999J0D01*
G01*
G37*
%TD.AperFunction*%
%TD*%
D12*
%TO.P,J2,4*%
%TO.N,Net-(J2-Pad4)*%
X153810000Y-107000000D03*
%TO.P,J2,3*%
%TO.N,Net-(J2-Pad3)*%
X151270000Y-107000000D03*
%TO.P,J2,2*%
%TO.N,+5V*%
X148730000Y-107000000D03*
D13*
%TO.P,J2,1*%
%TO.N,GND*%
X146190000Y-107000000D03*
%TD*%
D18*
%TO.P,D3,2*%
%TO.N,Net-(D3-Pad2)*%
X136730000Y-107000000D03*
D19*
%TO.P,D3,1*%
%TO.N,GND*%
X139270000Y-107000000D03*
%TD*%
D20*
%TO.P,SW1,1*%
%TO.N,GND*%
X146750000Y-85250000D03*
%TO.P,SW1,2*%
%TO.N,Net-(R10-Pad2)*%
X146750000Y-80750000D03*
%TO.P,SW1,1*%
%TO.N,GND*%
X153250000Y-85250000D03*
%TO.P,SW1,2*%
%TO.N,Net-(R10-Pad2)*%
X153250000Y-80750000D03*
%TD*%
D21*
%TO.P,U1,41*%
%TO.N,GND*%
X156025000Y-94725000D03*
X157525000Y-93225000D03*
X154525000Y-93225000D03*
X154525000Y-96225000D03*
X157525000Y-96225000D03*
D22*
%TO.P,U1,~*%
%TO.N,N/C*%
X159025000Y-97725000D03*
D23*
X159025000Y-97725000D03*
X153025000Y-97725000D03*
X153025000Y-91725000D03*
X159025000Y-91725000D03*
D24*
%TO.P,U1,41*%
%TO.N,GND*%
X156025000Y-94725000D03*
%TO.P,U1,40*%
%TO.N,+5V*%
%TA.AperFunction,SMDPad,CuDef*%
G36*
G01*
X158400000Y-97312500D02*
X158400000Y-98187500D01*
G75*
G02*
X158337500Y-98250000I-62500J0D01*
G01*
X158212500Y-98250000D01*
G75*
G02*
X158150000Y-98187500I0J62500D01*
G01*
X158150000Y-97312500D01*
G75*
G02*
X158212500Y-97250000I62500J0D01*
G01*
X158337500Y-97250000D01*
G75*
G02*
X158400000Y-97312500I0J-62500D01*
G01*
G37*
%TD.AperFunction*%
%TO.P,U1,39*%
%TO.N,+3V3*%
%TA.AperFunction,SMDPad,CuDef*%
G36*
G01*
X157900000Y-97312500D02*
X157900000Y-98187500D01*
G75*
G02*
X157837500Y-98250000I-62500J0D01*
G01*
X157712500Y-98250000D01*
G75*
G02*
X157650000Y-98187500I0J62500D01*
G01*
X157650000Y-97312500D01*
G75*
G02*
X157712500Y-97250000I62500J0D01*
G01*
X157837500Y-97250000D01*
G75*
G02*
X157900000Y-97312500I0J-62500D01*
G01*
G37*
%TD.AperFunction*%
%TO.P,U1,38*%
%TO.N,Net-(R5-Pad1)*%
%TA.AperFunction,SMDPad,CuDef*%
G36*
G01*
X157400000Y-97312500D02*
X157400000Y-98187500D01*
G75*
G02*
X157337500Y-98250000I-62500J0D01*
G01*
X157212500Y-98250000D01*
G75*
G02*
X157150000Y-98187500I0J62500D01*
G01*
X157150000Y-97312500D01*
G75*
G02*
X157212500Y-97250000I62500J0D01*
G01*
X157337500Y-97250000D01*
G75*
G02*
X157400000Y-97312500I0J-62500D01*
G01*
G37*
%TD.AperFunction*%
%TO.P,U1,37*%
%TO.N,Net-(U1-Pad37)*%
%TA.AperFunction,SMDPad,CuDef*%
G36*
G01*
X156900000Y-97312500D02*
X156900000Y-98187500D01*
G75*
G02*
X156837500Y-98250000I-62500J0D01*
G01*
X156712500Y-98250000D01*
G75*
G02*
X156650000Y-98187500I0J62500D01*
G01*
X156650000Y-97312500D01*
G75*
G02*
X156712500Y-97250000I62500J0D01*
G01*
X156837500Y-97250000D01*
G75*
G02*
X156900000Y-97312500I0J-62500D01*
G01*
G37*
%TD.AperFunction*%
%TO.P,U1,36*%
%TO.N,Net-(U1-Pad36)*%
%TA.AperFunction,SMDPad,CuDef*%
G36*
G01*
X156400000Y-97312500D02*
X156400000Y-98187500D01*
G75*
G02*
X156337500Y-98250000I-62500J0D01*
G01*
X156212500Y-98250000D01*
G75*
G02*
X156150000Y-98187500I0J62500D01*
G01*
X156150000Y-97312500D01*
G75*
G02*
X156212500Y-97250000I62500J0D01*
G01*
X156337500Y-97250000D01*
G75*
G02*
X156400000Y-97312500I0J-62500D01*
G01*
G37*
%TD.AperFunction*%
%TO.P,U1,35*%
%TO.N,Net-(U1-Pad35)*%
%TA.AperFunction,SMDPad,CuDef*%
G36*
G01*
X155900000Y-97312500D02*
X155900000Y-98187500D01*
G75*
G02*
X155837500Y-98250000I-62500J0D01*
G01*
X155712500Y-98250000D01*
G75*
G02*
X155650000Y-98187500I0J62500D01*
G01*
X155650000Y-97312500D01*
G75*
G02*
X155712500Y-97250000I62500J0D01*
G01*
X155837500Y-97250000D01*
G75*
G02*
X155900000Y-97312500I0J-62500D01*
G01*
G37*
%TD.AperFunction*%
%TO.P,U1,34*%
%TO.N,Net-(U1-Pad34)*%
%TA.AperFunction,SMDPad,CuDef*%
G36*
G01*
X155400000Y-97312500D02*
X155400000Y-98187500D01*
G75*
G02*
X155337500Y-98250000I-62500J0D01*
G01*
X155212500Y-98250000D01*
G75*
G02*
X155150000Y-98187500I0J62500D01*
G01*
X155150000Y-97312500D01*
G75*
G02*
X155212500Y-97250000I62500J0D01*
G01*
X155337500Y-97250000D01*
G75*
G02*
X155400000Y-97312500I0J-62500D01*
G01*
G37*
%TD.AperFunction*%
%TO.P,U1,33*%
%TO.N,Net-(R9-Pad1)*%
%TA.AperFunction,SMDPad,CuDef*%
G36*
G01*
X154900000Y-97312500D02*
X154900000Y-98187500D01*
G75*
G02*
X154837500Y-98250000I-62500J0D01*
G01*
X154712500Y-98250000D01*
G75*
G02*
X154650000Y-98187500I0J62500D01*
G01*
X154650000Y-97312500D01*
G75*
G02*
X154712500Y-97250000I62500J0D01*
G01*
X154837500Y-97250000D01*
G75*
G02*
X154900000Y-97312500I0J-62500D01*
G01*
G37*
%TD.AperFunction*%
%TO.P,U1,32*%
%TO.N,Net-(R8-Pad1)*%
%TA.AperFunction,SMDPad,CuDef*%
G36*
G01*
X154400000Y-97312500D02*
X154400000Y-98187500D01*
G75*
G02*
X154337500Y-98250000I-62500J0D01*
G01*
X154212500Y-98250000D01*
G75*
G02*
X154150000Y-98187500I0J62500D01*
G01*
X154150000Y-97312500D01*
G75*
G02*
X154212500Y-97250000I62500J0D01*
G01*
X154337500Y-97250000D01*
G75*
G02*
X154400000Y-97312500I0J-62500D01*
G01*
G37*
%TD.AperFunction*%
%TO.P,U1,31*%
%TO.N,Net-(R7-Pad1)*%
%TA.AperFunction,SMDPad,CuDef*%
G36*
G01*
X153900000Y-97312500D02*
X153900000Y-98187500D01*
G75*
G02*
X153837500Y-98250000I-62500J0D01*
G01*
X153712500Y-98250000D01*
G75*
G02*
X153650000Y-98187500I0J62500D01*
G01*
X153650000Y-97312500D01*
G75*
G02*
X153712500Y-97250000I62500J0D01*
G01*
X153837500Y-97250000D01*
G75*
G02*
X153900000Y-97312500I0J-62500D01*
G01*
G37*
%TD.AperFunction*%
%TO.P,U1,30*%
%TO.N,Net-(U1-Pad30)*%
%TA.AperFunction,SMDPad,CuDef*%
G36*
G01*
X153500000Y-96912500D02*
X153500000Y-97037500D01*
G75*
G02*
X153437500Y-97100000I-62500J0D01*
G01*
X152562500Y-97100000D01*
G75*
G02*
X152500000Y-97037500I0J62500D01*
G01*
X152500000Y-96912500D01*
G75*
G02*
X152562500Y-96850000I62500J0D01*
G01*
X153437500Y-96850000D01*
G75*
G02*
X153500000Y-96912500I0J-62500D01*
G01*
G37*
%TD.AperFunction*%
%TO.P,U1,29*%
%TO.N,Net-(U1-Pad29)*%
%TA.AperFunction,SMDPad,CuDef*%
G36*
G01*
X153500000Y-96412500D02*
X153500000Y-96537500D01*
G75*
G02*
X153437500Y-96600000I-62500J0D01*
G01*
X152562500Y-96600000D01*
G75*
G02*
X152500000Y-96537500I0J62500D01*
G01*
X152500000Y-96412500D01*
G75*
G02*
X152562500Y-96350000I62500J0D01*
G01*
X153437500Y-96350000D01*
G75*
G02*
X153500000Y-96412500I0J-62500D01*
G01*
G37*
%TD.AperFunction*%
%TO.P,U1,28*%
%TO.N,Net-(J2-Pad3)*%
%TA.AperFunction,SMDPad,CuDef*%
G36*
G01*
X153500000Y-95912500D02*
X153500000Y-96037500D01*
G75*
G02*
X153437500Y-96100000I-62500J0D01*
G01*
X152562500Y-96100000D01*
G75*
G02*
X152500000Y-96037500I0J62500D01*
G01*
X152500000Y-95912500D01*
G75*
G02*
X152562500Y-95850000I62500J0D01*
G01*
X153437500Y-95850000D01*
G75*
G02*
X153500000Y-95912500I0J-62500D01*
G01*
G37*
%TD.AperFunction*%
%TO.P,U1,27*%
%TO.N,Net-(J2-Pad4)*%
%TA.AperFunction,SMDPad,CuDef*%
G36*
G01*
X153500000Y-95412500D02*
X153500000Y-95537500D01*
G75*
G02*
X153437500Y-95600000I-62500J0D01*
G01*
X152562500Y-95600000D01*
G75*
G02*
X152500000Y-95537500I0J62500D01*
G01*
X152500000Y-95412500D01*
G75*
G02*
X152562500Y-95350000I62500J0D01*
G01*
X153437500Y-95350000D01*
G75*
G02*
X153500000Y-95412500I0J-62500D01*
G01*
G37*
%TD.AperFunction*%
%TO.P,U1,26*%
%TO.N,Net-(U1-Pad26)*%
%TA.AperFunction,SMDPad,CuDef*%
G36*
G01*
X153500000Y-94912500D02*
X153500000Y-95037500D01*
G75*
G02*
X153437500Y-95100000I-62500J0D01*
G01*
X152562500Y-95100000D01*
G75*
G02*
X152500000Y-95037500I0J62500D01*
G01*
X152500000Y-94912500D01*
G75*
G02*
X152562500Y-94850000I62500J0D01*
G01*
X153437500Y-94850000D01*
G75*
G02*
X153500000Y-94912500I0J-62500D01*
G01*
G37*
%TD.AperFunction*%
%TO.P,U1,25*%
%TO.N,Net-(U1-Pad25)*%
%TA.AperFunction,SMDPad,CuDef*%
G36*
G01*
X153500000Y-94412500D02*
X153500000Y-94537500D01*
G75*
G02*
X153437500Y-94600000I-62500J0D01*
G01*
X152562500Y-94600000D01*
G75*
G02*
X152500000Y-94537500I0J62500D01*
G01*
X152500000Y-94412500D01*
G75*
G02*
X152562500Y-94350000I62500J0D01*
G01*
X153437500Y-94350000D01*
G75*
G02*
X153500000Y-94412500I0J-62500D01*
G01*
G37*
%TD.AperFunction*%
%TO.P,U1,24*%
%TO.N,Net-(J1-Pad2)*%
%TA.AperFunction,SMDPad,CuDef*%
G36*
G01*
X153500000Y-93912500D02*
X153500000Y-94037500D01*
G75*
G02*
X153437500Y-94100000I-62500J0D01*
G01*
X152562500Y-94100000D01*
G75*
G02*
X152500000Y-94037500I0J62500D01*
G01*
X152500000Y-93912500D01*
G75*
G02*
X152562500Y-93850000I62500J0D01*
G01*
X153437500Y-93850000D01*
G75*
G02*
X153500000Y-93912500I0J-62500D01*
G01*
G37*
%TD.AperFunction*%
%TO.P,U1,23*%
%TO.N,+3V3*%
%TA.AperFunction,SMDPad,CuDef*%
G36*
G01*
X153500000Y-93412500D02*
X153500000Y-93537500D01*
G75*
G02*
X153437500Y-93600000I-62500J0D01*
G01*
X152562500Y-93600000D01*
G75*
G02*
X152500000Y-93537500I0J62500D01*
G01*
X152500000Y-93412500D01*
G75*
G02*
X152562500Y-93350000I62500J0D01*
G01*
X153437500Y-93350000D01*
G75*
G02*
X153500000Y-93412500I0J-62500D01*
G01*
G37*
%TD.AperFunction*%
%TO.P,U1,22*%
%TO.N,Net-(U1-Pad22)*%
%TA.AperFunction,SMDPad,CuDef*%
G36*
G01*
X153500000Y-92912500D02*
X153500000Y-93037500D01*
G75*
G02*
X153437500Y-93100000I-62500J0D01*
G01*
X152562500Y-93100000D01*
G75*
G02*
X152500000Y-93037500I0J62500D01*
G01*
X152500000Y-92912500D01*
G75*
G02*
X152562500Y-92850000I62500J0D01*
G01*
X153437500Y-92850000D01*
G75*
G02*
X153500000Y-92912500I0J-62500D01*
G01*
G37*
%TD.AperFunction*%
%TO.P,U1,21*%
%TO.N,Net-(U1-Pad21)*%
%TA.AperFunction,SMDPad,CuDef*%
G36*
G01*
X153500000Y-92412500D02*
X153500000Y-92537500D01*
G75*
G02*
X153437500Y-92600000I-62500J0D01*
G01*
X152562500Y-92600000D01*
G75*
G02*
X152500000Y-92537500I0J62500D01*
G01*
X152500000Y-92412500D01*
G75*
G02*
X152562500Y-92350000I62500J0D01*
G01*
X153437500Y-92350000D01*
G75*
G02*
X153500000Y-92412500I0J-62500D01*
G01*
G37*
%TD.AperFunction*%
%TO.P,U1,20*%
%TO.N,Net-(U1-Pad20)*%
%TA.AperFunction,SMDPad,CuDef*%
G36*
G01*
X153900000Y-91262500D02*
X153900000Y-92137500D01*
G75*
G02*
X153837500Y-92200000I-62500J0D01*
G01*
X153712500Y-92200000D01*
G75*
G02*
X153650000Y-92137500I0J62500D01*
G01*
X153650000Y-91262500D01*
G75*
G02*
X153712500Y-91200000I62500J0D01*
G01*
X153837500Y-91200000D01*
G75*
G02*
X153900000Y-91262500I0J-62500D01*
G01*
G37*
%TD.AperFunction*%
%TO.P,U1,19*%
%TO.N,Net-(R10-Pad2)*%
%TA.AperFunction,SMDPad,CuDef*%
G36*
G01*
X154400000Y-91262500D02*
X154400000Y-92137500D01*
G75*
G02*
X154337500Y-92200000I-62500J0D01*
G01*
X154212500Y-92200000D01*
G75*
G02*
X154150000Y-92137500I0J62500D01*
G01*
X154150000Y-91262500D01*
G75*
G02*
X154212500Y-91200000I62500J0D01*
G01*
X154337500Y-91200000D01*
G75*
G02*
X154400000Y-91262500I0J-62500D01*
G01*
G37*
%TD.AperFunction*%
%TO.P,U1,18*%
%TO.N,GND*%
%TA.AperFunction,SMDPad,CuDef*%
G36*
G01*
X154900000Y-91262500D02*
X154900000Y-92137500D01*
G75*
G02*
X154837500Y-92200000I-62500J0D01*
G01*
X154712500Y-92200000D01*
G75*
G02*
X154650000Y-92137500I0J62500D01*
G01*
X154650000Y-91262500D01*
G75*
G02*
X154712500Y-91200000I62500J0D01*
G01*
X154837500Y-91200000D01*
G75*
G02*
X154900000Y-91262500I0J-62500D01*
G01*
G37*
%TD.AperFunction*%
%TO.P,U1,17*%
%TA.AperFunction,SMDPad,CuDef*%
G36*
G01*
X155400000Y-91262500D02*
X155400000Y-92137500D01*
G75*
G02*
X155337500Y-92200000I-62500J0D01*
G01*
X155212500Y-92200000D01*
G75*
G02*
X155150000Y-92137500I0J62500D01*
G01*
X155150000Y-91262500D01*
G75*
G02*
X155212500Y-91200000I62500J0D01*
G01*
X155337500Y-91200000D01*
G75*
G02*
X155400000Y-91262500I0J-62500D01*
G01*
G37*
%TD.AperFunction*%
%TO.P,U1,16*%
%TA.AperFunction,SMDPad,CuDef*%
G36*
G01*
X155900000Y-91262500D02*
X155900000Y-92137500D01*
G75*
G02*
X155837500Y-92200000I-62500J0D01*
G01*
X155712500Y-92200000D01*
G75*
G02*
X155650000Y-92137500I0J62500D01*
G01*
X155650000Y-91262500D01*
G75*
G02*
X155712500Y-91200000I62500J0D01*
G01*
X155837500Y-91200000D01*
G75*
G02*
X155900000Y-91262500I0J-62500D01*
G01*
G37*
%TD.AperFunction*%
%TO.P,U1,15*%
%TO.N,Net-(C16-Pad1)*%
%TA.AperFunction,SMDPad,CuDef*%
G36*
G01*
X156400000Y-91262500D02*
X156400000Y-92137500D01*
G75*
G02*
X156337500Y-92200000I-62500J0D01*
G01*
X156212500Y-92200000D01*
G75*
G02*
X156150000Y-92137500I0J62500D01*
G01*
X156150000Y-91262500D01*
G75*
G02*
X156212500Y-91200000I62500J0D01*
G01*
X156337500Y-91200000D01*
G75*
G02*
X156400000Y-91262500I0J-62500D01*
G01*
G37*
%TD.AperFunction*%
%TO.P,U1,14*%
%TO.N,Net-(C15-Pad1)*%
%TA.AperFunction,SMDPad,CuDef*%
G36*
G01*
X156900000Y-91262500D02*
X156900000Y-92137500D01*
G75*
G02*
X156837500Y-92200000I-62500J0D01*
G01*
X156712500Y-92200000D01*
G75*
G02*
X156650000Y-92137500I0J62500D01*
G01*
X156650000Y-91262500D01*
G75*
G02*
X156712500Y-91200000I62500J0D01*
G01*
X156837500Y-91200000D01*
G75*
G02*
X156900000Y-91262500I0J-62500D01*
G01*
G37*
%TD.AperFunction*%
%TO.P,U1,13*%
%TO.N,Net-(U1-Pad13)*%
%TA.AperFunction,SMDPad,CuDef*%
G36*
G01*
X157400000Y-91262500D02*
X157400000Y-92137500D01*
G75*
G02*
X157337500Y-92200000I-62500J0D01*
G01*
X157212500Y-92200000D01*
G75*
G02*
X157150000Y-92137500I0J62500D01*
G01*
X157150000Y-91262500D01*
G75*
G02*
X157212500Y-91200000I62500J0D01*
G01*
X157337500Y-91200000D01*
G75*
G02*
X157400000Y-91262500I0J-62500D01*
G01*
G37*
%TD.AperFunction*%
%TO.P,U1,12*%
%TO.N,Net-(U1-Pad12)*%
%TA.AperFunction,SMDPad,CuDef*%
G36*
G01*
X157900000Y-91262500D02*
X157900000Y-92137500D01*
G75*
G02*
X157837500Y-92200000I-62500J0D01*
G01*
X157712500Y-92200000D01*
G75*
G02*
X157650000Y-92137500I0J62500D01*
G01*
X157650000Y-91262500D01*
G75*
G02*
X157712500Y-91200000I62500J0D01*
G01*
X157837500Y-91200000D01*
G75*
G02*
X157900000Y-91262500I0J-62500D01*
G01*
G37*
%TD.AperFunction*%
%TO.P,U1,11*%
%TO.N,GND*%
%TA.AperFunction,SMDPad,CuDef*%
G36*
G01*
X158400000Y-91262500D02*
X158400000Y-92137500D01*
G75*
G02*
X158337500Y-92200000I-62500J0D01*
G01*
X158212500Y-92200000D01*
G75*
G02*
X158150000Y-92137500I0J62500D01*
G01*
X158150000Y-91262500D01*
G75*
G02*
X158212500Y-91200000I62500J0D01*
G01*
X158337500Y-91200000D01*
G75*
G02*
X158400000Y-91262500I0J-62500D01*
G01*
G37*
%TD.AperFunction*%
%TO.P,U1,10*%
%TO.N,Net-(C8-Pad1)*%
%TA.AperFunction,SMDPad,CuDef*%
G36*
G01*
X159550000Y-92412500D02*
X159550000Y-92537500D01*
G75*
G02*
X159487500Y-92600000I-62500J0D01*
G01*
X158612500Y-92600000D01*
G75*
G02*
X158550000Y-92537500I0J62500D01*
G01*
X158550000Y-92412500D01*
G75*
G02*
X158612500Y-92350000I62500J0D01*
G01*
X159487500Y-92350000D01*
G75*
G02*
X159550000Y-92412500I0J-62500D01*
G01*
G37*
%TD.AperFunction*%
%TO.P,U1,9*%
%TO.N,Net-(C10-Pad1)*%
%TA.AperFunction,SMDPad,CuDef*%
G36*
G01*
X159550000Y-92912500D02*
X159550000Y-93037500D01*
G75*
G02*
X159487500Y-93100000I-62500J0D01*
G01*
X158612500Y-93100000D01*
G75*
G02*
X158550000Y-93037500I0J62500D01*
G01*
X158550000Y-92912500D01*
G75*
G02*
X158612500Y-92850000I62500J0D01*
G01*
X159487500Y-92850000D01*
G75*
G02*
X159550000Y-92912500I0J-62500D01*
G01*
G37*
%TD.AperFunction*%
%TO.P,U1,8*%
%TO.N,+3V3*%
%TA.AperFunction,SMDPad,CuDef*%
G36*
G01*
X159550000Y-93412500D02*
X159550000Y-93537500D01*
G75*
G02*
X159487500Y-93600000I-62500J0D01*
G01*
X158612500Y-93600000D01*
G75*
G02*
X158550000Y-93537500I0J62500D01*
G01*
X158550000Y-93412500D01*
G75*
G02*
X158612500Y-93350000I62500J0D01*
G01*
X159487500Y-93350000D01*
G75*
G02*
X159550000Y-93412500I0J-62500D01*
G01*
G37*
%TD.AperFunction*%
%TO.P,U1,7*%
%TO.N,GND*%
%TA.AperFunction,SMDPad,CuDef*%
G36*
G01*
X159550000Y-93912500D02*
X159550000Y-94037500D01*
G75*
G02*
X159487500Y-94100000I-62500J0D01*
G01*
X158612500Y-94100000D01*
G75*
G02*
X158550000Y-94037500I0J62500D01*
G01*
X158550000Y-93912500D01*
G75*
G02*
X158612500Y-93850000I62500J0D01*
G01*
X159487500Y-93850000D01*
G75*
G02*
X159550000Y-93912500I0J-62500D01*
G01*
G37*
%TD.AperFunction*%
%TO.P,U1,6*%
%TO.N,Net-(L2-Pad2)*%
%TA.AperFunction,SMDPad,CuDef*%
G36*
G01*
X159550000Y-94412500D02*
X159550000Y-94537500D01*
G75*
G02*
X159487500Y-94600000I-62500J0D01*
G01*
X158612500Y-94600000D01*
G75*
G02*
X158550000Y-94537500I0J62500D01*
G01*
X158550000Y-94412500D01*
G75*
G02*
X158612500Y-94350000I62500J0D01*
G01*
X159487500Y-94350000D01*
G75*
G02*
X159550000Y-94412500I0J-62500D01*
G01*
G37*
%TD.AperFunction*%
%TO.P,U1,5*%
%TO.N,+3V3*%
%TA.AperFunction,SMDPad,CuDef*%
G36*
G01*
X159550000Y-94912500D02*
X159550000Y-95037500D01*
G75*
G02*
X159487500Y-95100000I-62500J0D01*
G01*
X158612500Y-95100000D01*
G75*
G02*
X158550000Y-95037500I0J62500D01*
G01*
X158550000Y-94912500D01*
G75*
G02*
X158612500Y-94850000I62500J0D01*
G01*
X159487500Y-94850000D01*
G75*
G02*
X159550000Y-94912500I0J-62500D01*
G01*
G37*
%TD.AperFunction*%
%TO.P,U1,4*%
%TO.N,Net-(L1-Pad1)*%
%TA.AperFunction,SMDPad,CuDef*%
G36*
G01*
X159550000Y-95412500D02*
X159550000Y-95537500D01*
G75*
G02*
X159487500Y-95600000I-62500J0D01*
G01*
X158612500Y-95600000D01*
G75*
G02*
X158550000Y-95537500I0J62500D01*
G01*
X158550000Y-95412500D01*
G75*
G02*
X158612500Y-95350000I62500J0D01*
G01*
X159487500Y-95350000D01*
G75*
G02*
X159550000Y-95412500I0J-62500D01*
G01*
G37*
%TD.AperFunction*%
%TO.P,U1,3*%
%TO.N,GND*%
%TA.AperFunction,SMDPad,CuDef*%
G36*
G01*
X159550000Y-95912500D02*
X159550000Y-96037500D01*
G75*
G02*
X159487500Y-96100000I-62500J0D01*
G01*
X158612500Y-96100000D01*
G75*
G02*
X158550000Y-96037500I0J62500D01*
G01*
X158550000Y-95912500D01*
G75*
G02*
X158612500Y-95850000I62500J0D01*
G01*
X159487500Y-95850000D01*
G75*
G02*
X159550000Y-95912500I0J-62500D01*
G01*
G37*
%TD.AperFunction*%
%TO.P,U1,2*%
%TO.N,Net-(U1-Pad2)*%
%TA.AperFunction,SMDPad,CuDef*%
G36*
G01*
X159550000Y-96412500D02*
X159550000Y-96537500D01*
G75*
G02*
X159487500Y-96600000I-62500J0D01*
G01*
X158612500Y-96600000D01*
G75*
G02*
X158550000Y-96537500I0J62500D01*
G01*
X158550000Y-96412500D01*
G75*
G02*
X158612500Y-96350000I62500J0D01*
G01*
X159487500Y-96350000D01*
G75*
G02*
X159550000Y-96412500I0J-62500D01*
G01*
G37*
%TD.AperFunction*%
%TO.P,U1,1*%
%TO.N,GND*%
%TA.AperFunction,SMDPad,CuDef*%
G36*
G01*
X159550000Y-96912500D02*
X159550000Y-97037500D01*
G75*
G02*
X159487500Y-97100000I-62500J0D01*
G01*
X158612500Y-97100000D01*
G75*
G02*
X158550000Y-97037500I0J62500D01*
G01*
X158550000Y-96912500D01*
G75*
G02*
X158612500Y-96850000I62500J0D01*
G01*
X159487500Y-96850000D01*
G75*
G02*
X159550000Y-96912500I0J-62500D01*
G01*
G37*
%TD.AperFunction*%
%TD*%
D25*
%TO.P,J4,4*%
%TO.N,Net-(J2-Pad4)*%
X151000000Y-96000000D03*
%TO.P,J4,3*%
%TO.N,Net-(J2-Pad3)*%
X149000000Y-96000000D03*
%TO.P,J4,2*%
%TO.N,+5V*%
X151000000Y-94000000D03*
D26*
%TO.P,J4,1*%
%TO.N,GND*%
X149000000Y-94000000D03*
%TD*%
D18*
%TO.P,D1,2*%
%TO.N,Net-(D1-Pad2)*%
X136730000Y-95000000D03*
D19*
%TO.P,D1,1*%
%TO.N,GND*%
X139270000Y-95000000D03*
%TD*%
D18*
%TO.P,D2,2*%
%TO.N,Net-(D2-Pad2)*%
X136730000Y-101000000D03*
D19*
%TO.P,D2,1*%
%TO.N,GND*%
X139270000Y-101000000D03*
%TD*%
D27*
%TO.P,Y1,1*%
%TO.N,Net-(C15-Pad1)*%
X155500000Y-87325000D03*
%TO.P,Y1,4*%
%TO.N,GND*%
X155500000Y-88925000D03*
%TO.P,Y1,3*%
%TO.N,Net-(C16-Pad1)*%
X152800000Y-88925000D03*
%TO.P,Y1,2*%
%TO.N,GND*%
X152800000Y-87325000D03*
%TD*%
D28*
%TO.N,GND*%
X157300000Y-100700000D03*
X151200000Y-100700000D03*
X148700000Y-87400000D03*
X163575000Y-87800000D03*
X163575000Y-102200000D03*
X150800000Y-87425000D03*
X157500000Y-89500000D03*
X165600000Y-95000000D03*
X161600000Y-96000000D03*
X142900000Y-100500000D03*
X146900000Y-91000000D03*
%TO.N,+3V3*%
X153300000Y-100700000D03*
X155225000Y-100700000D03*
X148600000Y-91300000D03*
%TO.N,Net-(C8-Pad1)*%
X158950810Y-90847094D03*
X155700000Y-83500000D03*
%TO.N,+5V*%
X159400000Y-99600000D03*
%TO.N,Net-(C10-Pad1)*%
X157700000Y-81600000D03*
X159600000Y-89500000D03*
%TD*%
D29*
%TO.N,GND*%
X156775000Y-93975000D02*
X156025000Y-94725000D01*
X159050000Y-93975000D02*
X156775000Y-93975000D01*
X157275000Y-95975000D02*
X156025000Y-94725000D01*
X159050000Y-95975000D02*
X157275000Y-95975000D01*
X158224990Y-96924990D02*
X157525000Y-96225000D01*
X158548022Y-96975000D02*
X158498012Y-96924990D01*
X158498012Y-96924990D02*
X158224990Y-96924990D01*
X159050000Y-96975000D02*
X158548022Y-96975000D01*
D30*
X165250000Y-86125000D02*
X163575000Y-87800000D01*
X165500000Y-86075000D02*
X165250000Y-86075000D01*
X163700000Y-102200000D02*
X165500000Y-104000000D01*
X152625000Y-87425000D02*
X152800000Y-87600000D01*
D29*
X155775000Y-94475000D02*
X156025000Y-94725000D01*
X155775000Y-91700000D02*
X155775000Y-94475000D01*
X155275000Y-93975000D02*
X156025000Y-94725000D01*
X155275000Y-91700000D02*
X155275000Y-93975000D01*
X154775000Y-93475000D02*
X156025000Y-94725000D01*
X154775000Y-91700000D02*
X154775000Y-93475000D01*
X158225010Y-92298012D02*
X157525000Y-92998022D01*
X158225010Y-92251968D02*
X158225010Y-92298012D01*
X158275000Y-92201978D02*
X158225010Y-92251968D01*
X157525000Y-92998022D02*
X157525000Y-93225000D01*
X158275000Y-91700000D02*
X158275000Y-92201978D01*
D30*
X159400000Y-87600000D02*
X157500000Y-89500000D01*
X163575000Y-102200000D02*
X163700000Y-102200000D01*
X152700000Y-87425000D02*
X152800000Y-87325000D01*
X156925000Y-88925000D02*
X157500000Y-89500000D01*
X155500000Y-88925000D02*
X156925000Y-88925000D01*
X150800000Y-87425000D02*
X152700000Y-87425000D01*
D29*
X161500000Y-96000000D02*
X161600000Y-96000000D01*
D30*
X169000000Y-95000000D02*
X165600000Y-95000000D01*
X165600000Y-95000000D02*
X165600000Y-96100000D01*
X165600000Y-93900000D02*
X165600000Y-95000000D01*
X146250000Y-106940000D02*
X146190000Y-107000000D01*
X146250000Y-104400000D02*
X146250000Y-106940000D01*
X142900000Y-100500000D02*
X143050000Y-100500000D01*
X158375000Y-101675000D02*
X159400000Y-101675000D01*
X157300000Y-100600000D02*
X158375000Y-101675000D01*
X146190000Y-107000000D02*
X146190000Y-103960000D01*
X146900000Y-91565685D02*
X146900000Y-91000000D01*
X149000000Y-94000000D02*
X149000000Y-93665685D01*
X149000000Y-93665685D02*
X146900000Y-91565685D01*
%TO.N,Net-(A1-Pad1)*%
X165500000Y-98000000D02*
X167000000Y-98000000D01*
%TO.N,Net-(A1-Pad3)*%
X165500000Y-92000000D02*
X167000000Y-92000000D01*
%TO.N,Net-(C3-Pad1)*%
X161686072Y-100068568D02*
X163687500Y-98067140D01*
X161500000Y-100068568D02*
X161686072Y-100068568D01*
X161500000Y-100068568D02*
X161500000Y-102200000D01*
%TO.N,Net-(C4-Pad2)*%
X161686072Y-89931428D02*
X163687500Y-91932856D01*
X161500000Y-89931428D02*
X161686072Y-89931428D01*
X161500000Y-87800000D02*
X161500000Y-89931428D01*
X160675000Y-86250000D02*
X158350000Y-86250000D01*
X161500000Y-87800000D02*
X161500000Y-87075000D01*
X161500000Y-87075000D02*
X160675000Y-86250000D01*
X158350000Y-86250000D02*
X157700000Y-85600000D01*
D29*
%TO.N,+3V3*%
X157775000Y-97750000D02*
X157775000Y-99125000D01*
X161874272Y-99018558D02*
X160581442Y-99018558D01*
X162550000Y-98342830D02*
X161874272Y-99018558D01*
X160581442Y-99018558D02*
X160581442Y-100318558D01*
X160581442Y-100318558D02*
X160250000Y-100650000D01*
X163462500Y-93962500D02*
X163525000Y-93900000D01*
X161662500Y-93900000D02*
X161600000Y-93962500D01*
X159050000Y-94975000D02*
X163525000Y-94975000D01*
X162550000Y-97075000D02*
X162550000Y-98342830D01*
X163525000Y-96100000D02*
X162550000Y-97075000D01*
X163525000Y-94975000D02*
X163525000Y-96100000D01*
X163525000Y-93900000D02*
X163525000Y-94975000D01*
X161900680Y-91007846D02*
X160792154Y-91007846D01*
X160480022Y-91319978D02*
X160480021Y-92729411D01*
X160792154Y-91007846D02*
X160480022Y-91319978D01*
X159734432Y-93475000D02*
X159050000Y-93475000D01*
X160480021Y-92729411D02*
X159734432Y-93475000D01*
X162496417Y-92871417D02*
X162496417Y-91603583D01*
X162496417Y-91603583D02*
X161900680Y-91007846D01*
X162496417Y-92871417D02*
X163525000Y-93900000D01*
X161600000Y-93767834D02*
X162496417Y-92871417D01*
X161600000Y-93962500D02*
X161600000Y-93767834D01*
X158349990Y-100349990D02*
X158349990Y-99699990D01*
X160250000Y-100650000D02*
X158650000Y-100650000D01*
X158349990Y-99699990D02*
X157775000Y-99125000D01*
X158650000Y-100650000D02*
X158349990Y-100349990D01*
X155674310Y-100700000D02*
X155225000Y-100700000D01*
X155225000Y-100700000D02*
X155225000Y-100700000D01*
X153000000Y-93475000D02*
X152298002Y-93475000D01*
X148700000Y-91200000D02*
X148600000Y-91300000D01*
X148700000Y-89500000D02*
X148700000Y-91200000D01*
X151148012Y-92325010D02*
X152161501Y-93338499D01*
X149625010Y-92325010D02*
X151148012Y-92325010D01*
X148600000Y-91300000D02*
X149625010Y-92325010D01*
X152298002Y-93475000D02*
X152161501Y-93338499D01*
X155225000Y-99675000D02*
X155225000Y-100700000D01*
X155775000Y-99125000D02*
X155225000Y-99675000D01*
X157775000Y-99125000D02*
X155775000Y-99125000D01*
X148700000Y-89500000D02*
X146600000Y-89500000D01*
D30*
%TO.N,Net-(C8-Pad2)*%
X157700000Y-83600000D02*
X155700000Y-85600000D01*
D29*
%TO.N,Net-(C8-Pad1)*%
X159516495Y-90847094D02*
X158950810Y-90847094D01*
X159580001Y-90910600D02*
X159516495Y-90847094D01*
X159294002Y-92475000D02*
X159580001Y-92189001D01*
X159050000Y-92475000D02*
X159294002Y-92475000D01*
X159580001Y-92189001D02*
X159580001Y-90910600D01*
D30*
X155700000Y-83525000D02*
X155700000Y-81600000D01*
D29*
%TO.N,+5V*%
X148750000Y-104350000D02*
X148750000Y-104400000D01*
X148750000Y-101650000D02*
X148750000Y-103900000D01*
X144900000Y-100500000D02*
X147600000Y-100500000D01*
X147600000Y-100500000D02*
X148350000Y-101250000D01*
X148350000Y-101250000D02*
X148750000Y-101650000D01*
X158275000Y-98475000D02*
X159400000Y-99600000D01*
X158275000Y-97750000D02*
X158275000Y-98475000D01*
D30*
X148750000Y-106980000D02*
X148730000Y-107000000D01*
X148750000Y-103900000D02*
X148750000Y-106980000D01*
D29*
%TO.N,Net-(C15-Pad1)*%
X157400000Y-87325000D02*
X157500000Y-87425000D01*
X155500000Y-87325000D02*
X157400000Y-87325000D01*
X156775000Y-91700000D02*
X156775000Y-91015567D01*
X154336410Y-89825000D02*
X154224999Y-89713589D01*
X156775000Y-91015567D02*
X155584433Y-89825000D01*
X154300000Y-87325000D02*
X155500000Y-87325000D01*
X155584433Y-89825000D02*
X154336410Y-89825000D01*
X154224999Y-89713589D02*
X154224999Y-87400001D01*
X154224999Y-87400001D02*
X154300000Y-87325000D01*
%TO.N,Net-(C16-Pad1)*%
X151375000Y-88925000D02*
X150800000Y-89500000D01*
X152800000Y-88925000D02*
X151375000Y-88925000D01*
X156275000Y-91151978D02*
X155398033Y-90275011D01*
X156275000Y-91700000D02*
X156275000Y-91151978D01*
X154150011Y-90275011D02*
X152800000Y-88925000D01*
X155398033Y-90275011D02*
X154150011Y-90275011D01*
%TO.N,Net-(L2-Pad2)*%
X159875010Y-94198012D02*
X159598022Y-94475000D01*
X159875010Y-94061800D02*
X159875010Y-94198012D01*
X161387500Y-92549310D02*
X159875010Y-94061800D01*
X159598022Y-94475000D02*
X159050000Y-94475000D01*
X161387500Y-91932856D02*
X161387500Y-92549310D01*
%TO.N,Net-(L1-Pad1)*%
X161387500Y-98067140D02*
X160449990Y-97129630D01*
X160449990Y-97129630D02*
X160449990Y-96326968D01*
X160449990Y-96326968D02*
X159598022Y-95475000D01*
X159598022Y-95475000D02*
X159050000Y-95475000D01*
%TO.N,Net-(D1-Pad2)*%
X142850000Y-91700000D02*
X142850000Y-91850000D01*
X140985000Y-93715000D02*
X138015000Y-93715000D01*
X142850000Y-91850000D02*
X140985000Y-93715000D01*
X138015000Y-93715000D02*
X136730000Y-95000000D01*
%TO.N,Net-(D2-Pad2)*%
X141424979Y-95425021D02*
X141424979Y-98875021D01*
X142850000Y-94000000D02*
X141424979Y-95425021D01*
X141424979Y-98875021D02*
X140700000Y-99600000D01*
X138130000Y-99600000D02*
X136730000Y-101000000D01*
X140700000Y-99600000D02*
X138130000Y-99600000D01*
%TO.N,Net-(D3-Pad2)*%
X141874990Y-101855010D02*
X136730000Y-107000000D01*
X141874990Y-97275010D02*
X141874990Y-101855010D01*
X142850000Y-96300000D02*
X141874990Y-97275010D01*
%TO.N,Net-(R5-Pad1)*%
X142900000Y-98500000D02*
X144900000Y-98500000D01*
X144900000Y-98500000D02*
X145300000Y-98500000D01*
X146463590Y-98500000D02*
X149713600Y-101750010D01*
X156898033Y-98674989D02*
X157275000Y-98298022D01*
X154312490Y-101313200D02*
X154312490Y-99887510D01*
X157275000Y-98298022D02*
X157275000Y-97750000D01*
X144900000Y-98500000D02*
X146463590Y-98500000D01*
X149713600Y-101750010D02*
X153875680Y-101750010D01*
X154312490Y-99887510D02*
X155525011Y-98674989D01*
X153875680Y-101750010D02*
X154312490Y-101313200D01*
X155525011Y-98674989D02*
X156898033Y-98674989D01*
%TO.N,Net-(R7-Pad1)*%
X153775000Y-97750000D02*
X153775000Y-97994002D01*
X152900042Y-98299958D02*
X148999958Y-98299958D01*
X144850000Y-92371412D02*
X144850000Y-91700000D01*
X153775000Y-97994002D02*
X153489001Y-98280001D01*
X146449989Y-95749989D02*
X146449989Y-93971401D01*
X152919999Y-98280001D02*
X152900042Y-98299958D01*
X153489001Y-98280001D02*
X152919999Y-98280001D01*
X148999958Y-98299958D02*
X146449989Y-95749989D01*
X146449989Y-93971401D02*
X144850000Y-92371412D01*
%TO.N,Net-(C10-Pad1)*%
X159050000Y-92975000D02*
X159598022Y-92975000D01*
X159598022Y-92975000D02*
X160030012Y-92543010D01*
X160030012Y-89930012D02*
X159600000Y-89500000D01*
X160030012Y-90530012D02*
X160030012Y-89930012D01*
X160030012Y-92543010D02*
X160030012Y-90530012D01*
%TO.N,Net-(C1-Pad1)*%
X165500000Y-99962500D02*
X165500000Y-101875000D01*
X163631068Y-100012500D02*
X163575000Y-100068568D01*
X165500000Y-100012500D02*
X163631068Y-100012500D01*
D30*
X163575000Y-100068568D02*
X165431432Y-100068568D01*
X165500000Y-100000000D02*
X165431432Y-100068568D01*
X165500000Y-100000000D02*
X165500000Y-101962500D01*
D29*
%TO.N,Net-(C2-Pad2)*%
X165500000Y-88150000D02*
X165500000Y-90062500D01*
X163756072Y-90112500D02*
X163575000Y-89931428D01*
X165500000Y-90112500D02*
X163756072Y-90112500D01*
D30*
X165500000Y-88037500D02*
X165500000Y-90000000D01*
X165431428Y-89931428D02*
X165500000Y-90000000D01*
X163575000Y-89931428D02*
X165431428Y-89931428D01*
D29*
%TO.N,Net-(R8-Pad1)*%
X145900000Y-95900000D02*
X145900000Y-95050000D01*
X148749968Y-98749968D02*
X145900000Y-95900000D01*
X153823052Y-98749968D02*
X148749968Y-98749968D01*
X154275000Y-98298020D02*
X153823052Y-98749968D01*
X145900000Y-95050000D02*
X144850000Y-94000000D01*
X154275000Y-97750000D02*
X154275000Y-98298020D01*
%TO.N,Net-(R9-Pad1)*%
X145663589Y-96300000D02*
X144850000Y-96300000D01*
X148563568Y-99199979D02*
X147721042Y-98357453D01*
X151700021Y-99199979D02*
X148563568Y-99199979D01*
X147721042Y-98357453D02*
X145663589Y-96300000D01*
X151700021Y-99199979D02*
X154009451Y-99199979D01*
X154775000Y-98434430D02*
X154775000Y-97750000D01*
X154009451Y-99199979D02*
X154775000Y-98434430D01*
%TO.N,Net-(J1-Pad2)*%
X145775010Y-92660012D02*
X145775010Y-90775010D01*
X152451978Y-93975000D02*
X151451977Y-94975001D01*
X148089999Y-94975001D02*
X145775010Y-92660012D01*
X151451977Y-94975001D02*
X148089999Y-94975001D01*
X153000000Y-93975000D02*
X152451978Y-93975000D01*
X145574990Y-88525010D02*
X146600000Y-87500000D01*
X145574990Y-90574990D02*
X145574990Y-88525010D01*
X145775010Y-90775010D02*
X145574990Y-90574990D01*
X146600000Y-87500000D02*
X145424999Y-86324999D01*
X145424999Y-83654999D02*
X143500000Y-81730000D01*
X145424999Y-84075001D02*
X145424999Y-83654999D01*
X145424999Y-86324999D02*
X145424999Y-84075001D01*
%TO.N,Net-(J2-Pad3)*%
X151250000Y-106980000D02*
X151270000Y-107000000D01*
X151250000Y-103900000D02*
X151250000Y-106980000D01*
X149975001Y-96975001D02*
X149000000Y-96000000D01*
X151451977Y-96975001D02*
X149975001Y-96975001D01*
X152451978Y-95975000D02*
X151451977Y-96975001D01*
X153000000Y-95975000D02*
X152451978Y-95975000D01*
%TO.N,Net-(R10-Pad2)*%
X154275000Y-91151978D02*
X153923022Y-90800000D01*
X154275000Y-91700000D02*
X154275000Y-91151978D01*
X151100000Y-90800000D02*
X150600000Y-91300000D01*
X152100000Y-90800000D02*
X151100000Y-90800000D01*
X153923022Y-90800000D02*
X152100000Y-90800000D01*
X150050000Y-80750000D02*
X153250000Y-80750000D01*
X146750000Y-80750000D02*
X150050000Y-80750000D01*
X149750000Y-86650000D02*
X149750000Y-86550000D01*
X149750000Y-86550000D02*
X150000000Y-86300000D01*
X149750000Y-90450000D02*
X150600000Y-91300000D01*
X149750000Y-87150000D02*
X149750000Y-86650000D01*
X149750000Y-87150000D02*
X149750000Y-90450000D01*
X150000000Y-86300000D02*
X150000000Y-80800000D01*
%TO.N,Net-(J2-Pad4)*%
X153750000Y-106940000D02*
X153810000Y-107000000D01*
X153750000Y-103900000D02*
X153750000Y-106940000D01*
X151525000Y-95475000D02*
X151000000Y-96000000D01*
X153000000Y-95475000D02*
X151525000Y-95475000D01*
%TD*%
M02*
