M48
; DRILL file {KiCad (5.1.9-0-10_14)} date Sunday, May 09, 2021 at 01:33:20 PM
; FORMAT={-:-/ absolute / inch / decimal}
; #@! TF.CreationDate,2021-05-09T13:33:20+01:00
; #@! TF.GenerationSoftware,Kicad,Pcbnew,(5.1.9-0-10_14)
; #@! TF.FileFunction,Plated,1,2,PTH
FMAT,2
INCH
T1C0.0098
T2C0.0157
T3C0.0300
T4C0.0315
T5C0.0335
T6C0.0354
T7C0.0394
T8C0.0433
T9C0.1260
%
G90
G05
T1
X3.7795Y-3.2677
X3.8976Y-3.8976
X3.8976Y-3.9764
X3.8976Y-4.7244
X3.937Y-3.189
X3.937Y-3.937
X3.9764Y-3.8976
X3.9764Y-3.9764
X3.9764Y-4.6063
X4.0945Y-3.2677
T2
X3.6024Y-4.1496
X3.6427Y-4.1496
X3.6703Y-4.0778
X3.6909Y-3.6949
X3.7313Y-3.7543
X3.7313Y-3.7963
X3.7972Y-3.7539
X3.8297Y-4.1663
X3.8465Y-3.6811
X3.9036Y-3.6811
X3.937Y-3.6024
X4.056Y-4.1173
X4.0571Y-3.6949
X4.0571Y-3.7539
X4.123Y-3.7884
X4.1459Y-4.2382
X4.1831Y-3.9941
X4.1841Y-3.7884
X4.2271Y-3.8038
T3
X3.4252Y-4.3701
X3.4252Y-4.4488
X3.5039Y-4.3701
X3.5039Y-4.4488
T4
X3.8878Y-3.6378
X3.9862Y-3.6378
T5
X3.7894Y-4.2874
X3.8878Y-4.2874
X3.9862Y-4.2874
X4.0846Y-4.2874
T6
X4.4094Y-3.4146
X4.4094Y-3.5146
X4.4094Y-3.6508
X4.4094Y-3.7508
X4.4094Y-3.887
X4.4094Y-3.987
T7
X3.787Y-4.4094
X3.887Y-4.4094
X3.987Y-4.4094
X4.087Y-4.4094
X4.252Y-4.1232
X4.252Y-4.2232
T8
X3.376Y-3.8091
X3.376Y-4.065
X3.5531Y-3.8091
X3.5531Y-4.065
T9
X3.4646Y-3.4646
X4.4094Y-4.4094
T0
M30
