M48
; DRILL file {KiCad (5.1.9-0-10_14)} date Friday, April 30, 2021 at 04:47:07 PM
; FORMAT={-:-/ absolute / inch / decimal}
; #@! TF.CreationDate,2021-04-30T16:47:07+01:00
; #@! TF.GenerationSoftware,Kicad,Pcbnew,(5.1.9-0-10_14)
; #@! TF.FileFunction,Plated,1,2,PTH
FMAT,2
INCH
T1C0.0098
T2C0.0157
T3C0.0197
T4C0.0300
T5C0.0335
T6C0.0354
T7C0.0394
T8C0.0433
T9C0.1260
%
G90
G05
T1
X5.1181Y-3.7008
X5.2362Y-3.7795
X6.5748Y-3.622
X6.5748Y-3.8583
X6.6535Y-3.7402
T2
X5.6693Y-3.8386
X5.7441Y-3.5787
X5.9449Y-3.5079
X5.9449Y-3.5773
X6.1496Y-3.9867
X6.2087Y-3.9188
X6.2165Y-3.5472
X6.2677Y-3.9188
X6.315Y-3.7047
X6.315Y-3.7756
X6.3465Y-3.5236
X6.563Y-3.7402
T3
X6.0837Y-3.6703
X6.0837Y-3.7884
X6.1427Y-3.7293
X6.2018Y-3.6703
X6.2018Y-3.7884
T4
X5.8661Y-3.7008
X5.8661Y-3.7795
X5.9449Y-3.7008
X5.9449Y-3.7795
T5
X5.7579Y-4.0906
X5.8563Y-4.0906
X5.9547Y-4.0906
X6.0531Y-4.0906
T6
X5.4331Y-3.6902
X5.4331Y-3.7902
X5.4331Y-3.9264
X5.4331Y-4.0264
X5.4331Y-4.1626
X5.4331Y-4.2626
T7
X5.6299Y-3.2177
X5.6299Y-3.3177
X5.7555Y-4.2126
X5.8555Y-4.2126
X5.9555Y-4.2126
X6.0555Y-4.2126
T8
X5.7776Y-3.1791
X5.7776Y-3.3563
X6.0335Y-3.1791
X6.0335Y-3.3563
T9
X5.4331Y-3.2677
X6.378Y-4.2126
T0
M30
