%TF.GenerationSoftware,KiCad,Pcbnew,(6.0.5-0)*%
%TF.CreationDate,2022-08-05T09:38:01+01:00*%
%TF.ProjectId,PN532,504e3533-322e-46b6-9963-61645f706362,7*%
%TF.SameCoordinates,Original*%
%TF.FileFunction,Copper,L2,Bot*%
%TF.FilePolarity,Positive*%
%FSLAX46Y46*%
G04 Gerber Fmt 4.6, Leading zero omitted, Abs format (unit mm)*
G04 Created by KiCad (PCBNEW (6.0.5-0)) date 2022-08-05 09:38:01*
%MOMM*%
%LPD*%
G01*
G04 APERTURE LIST*
G04 Aperture macros list*
%AMRoundRect*
0 Rectangle with rounded corners*
0 $1 Rounding radius*
0 $2 $3 $4 $5 $6 $7 $8 $9 X,Y pos of 4 corners*
0 Add a 4 corners polygon primitive as box body*
4,1,4,$2,$3,$4,$5,$6,$7,$8,$9,$2,$3,0*
0 Add four circle primitives for the rounded corners*
1,1,$1+$1,$2,$3*
1,1,$1+$1,$4,$5*
1,1,$1+$1,$6,$7*
1,1,$1+$1,$8,$9*
0 Add four rect primitives between the rounded corners*
20,1,$1+$1,$2,$3,$4,$5,0*
20,1,$1+$1,$4,$5,$6,$7,0*
20,1,$1+$1,$6,$7,$8,$9,0*
20,1,$1+$1,$8,$9,$2,$3,0*%
%AMFreePoly0*
4,1,405,12.514341,0.231732,13.026089,0.177022,13.532667,0.086144,14.031521,-0.040444,14.520138,-0.202103,14.996055,-0.398019,15.456873,-0.627204,15.900272,-0.888504,16.324015,-1.180602,16.725969,-1.502026,17.104107,-1.851156,17.456523,-2.226233,17.781442,-2.625366,18.077227,-3.046544,18.342387,-3.487646,18.575585,-3.946447,18.775646,-4.420636,18.941563,-4.907823,19.072499,-5.405554,19.167794,-5.911319,
19.226969,-6.422571,19.249723,-6.936732,19.243713,-6.968391,19.250000,-7.000000,19.250000,-31.000000,19.231732,-31.514341,19.177022,-32.026089,19.086144,-32.532667,18.959556,-33.031521,18.797897,-33.520138,18.601981,-33.996055,18.372796,-34.456873,18.111496,-34.900272,17.819398,-35.324015,17.497974,-35.725969,17.148844,-36.104107,16.773767,-36.456523,16.374634,-36.781442,15.953456,-37.077227,15.512354,-37.342387,
15.053553,-37.575585,14.579364,-37.775646,14.092177,-37.941563,13.594446,-38.072499,13.088681,-38.167794,12.577429,-38.226969,12.063268,-38.249723,12.031609,-38.243713,12.000000,-38.250000,-12.000000,-38.250000,-12.514914,-38.231692,-13.027227,-38.176859,-13.534353,-38.085779,-14.033729,-37.958911,-14.522833,-37.796897,-14.999195,-37.600554,-15.460410,-37.370875,-15.904148,-37.109019,-16.328167,-36.816309,-16.730327,-36.494223,
-17.108595,-36.144388,-17.461062,-35.768570,-17.785948,-35.368669,-18.081611,-34.946703,-18.346558,-34.504804,-18.579451,-34.045204,-18.779114,-33.570224,-18.944539,-33.082262,-19.074889,-32.583784,-19.169507,-32.077307,-19.227915,-31.565389,-19.249818,-31.050615,-19.244967,-31.025304,-19.250000,-31.000000,-19.250000,-7.000000,-19.232524,-6.532937,-19.180193,-6.068486,-19.093300,-5.609244,-18.972330,-5.157780,-18.817961,-4.716619,
-18.631056,-4.288227,-18.412659,-3.875000,-18.163993,-3.479250,-17.886448,-3.103189,-17.581575,-2.748921,-17.251081,-2.418426,-16.896812,-2.113554,-16.520752,-1.836008,-16.125001,-1.587342,-15.711775,-1.368945,-15.283383,-1.182039,-14.842222,-1.027670,-14.390758,-0.906701,-13.931516,-0.819807,-13.467065,-0.767476,-13.000002,-0.750000,12.000000,-0.750000,12.465509,-0.767360,12.928432,-0.819344,13.386198,-0.905662,
13.836262,-1.025836,14.276127,-1.179197,14.703346,-1.364894,15.115548,-1.581895,15.510443,-1.828995,15.885836,-2.104821,16.239643,-2.407841,16.569898,-2.736371,16.874766,-3.088586,17.152553,-3.462530,17.401717,-3.856125,17.620874,-4.267185,17.808805,-4.693427,17.964468,-5.132482,18.086996,-5.581911,18.175710,-6.039219,18.230117,-6.501863,18.249915,-6.967275,18.246747,-6.983648,18.250000,-7.000000,
18.250000,-31.000000,18.232717,-31.464473,18.180965,-31.926377,18.095029,-32.383158,17.975384,-32.832290,17.822693,-33.271288,17.637799,-33.697725,17.421726,-34.109242,17.175668,-34.503564,16.900987,-34.878509,16.599200,-35.232004,16.271978,-35.562094,15.921130,-35.866954,15.548596,-36.144897,15.156436,-36.394387,14.746820,-36.614043,14.322013,-36.802651,13.884364,-36.959167,13.436294,-37.082726,12.980280,-37.172645,
12.518845,-37.228427,12.054541,-37.249762,12.027247,-37.244580,12.000000,-37.250000,-12.000000,-37.250000,-12.467063,-37.232524,-12.931514,-37.180193,-13.390756,-37.093300,-13.842220,-36.972330,-14.283381,-36.817961,-14.711773,-36.631056,-15.125000,-36.412659,-15.520750,-36.163993,-15.896811,-35.886448,-16.251079,-35.581575,-16.581574,-35.251081,-16.886446,-34.896812,-17.163992,-34.520752,-17.412658,-34.125001,-17.631055,-33.711775,
-17.817961,-33.283383,-17.972330,-32.842222,-18.093299,-32.390758,-18.180193,-31.931516,-18.232524,-31.467065,-18.250000,-31.000002,-18.250000,-7.000000,-18.232228,-6.568381,-18.179031,-6.139685,-18.090770,-5.716813,-17.968042,-5.302629,-17.811678,-4.899937,-17.622737,-4.511463,-17.402497,-4.139838,-17.152451,-3.787577,-16.874291,-3.457066,-16.569900,-3.150543,-16.241339,-2.870081,-15.890833,-2.617582,-15.520755,-2.394753,
-15.133610,-2.203104,-14.732020,-2.043932,-14.318702,-1.918315,-13.896457,-1.827103,-13.468143,-1.770914,-13.036658,-1.750129,-13.018319,-1.753644,-13.000000,-1.750000,-3.000000,-1.750000,-2.904329,-1.769030,-2.823223,-1.823223,-2.769030,-1.904329,-2.750000,-2.000000,-2.769030,-2.095671,-2.823223,-2.176777,-2.904329,-2.230970,-3.000000,-2.250000,-13.000000,-2.250000,-13.016593,-2.246699,-13.033168,-2.250117,
-13.051863,-2.246534,-13.445611,-2.266404,-13.854661,-2.322922,-14.257264,-2.414720,-14.650384,-2.541105,-15.031055,-2.701125,-15.396405,-2.893571,-15.743679,-3.116993,-16.070256,-3.369705,-16.373675,-3.649801,-16.651645,-3.955168,-16.902071,-4.283502,-17.123062,-4.632327,-17.312953,-4.999012,-17.470311,-5.380791,-17.593948,-5.774784,-17.682933,-6.178018,-17.736593,-6.587453,-17.753714,-6.981329,-17.750000,-7.000000,
-17.750000,-31.000002,-17.753704,-31.018625,-17.736697,-31.451490,-17.683589,-31.900194,-17.595440,-32.343348,-17.472794,-32.778220,-17.316405,-33.202129,-17.127240,-33.612461,-16.906463,-34.006686,-16.655436,-34.382374,-16.375707,-34.737208,-16.069000,-35.069002,-15.737207,-35.375708,-15.382372,-35.655437,-15.006684,-35.906464,-14.612459,-36.127241,-14.202127,-36.316406,-13.778218,-36.472794,-13.343346,-36.595441,-12.900192,-36.683590,
-12.451488,-36.736697,-12.018623,-36.753704,-12.000000,-36.750000,12.000000,-36.750000,12.025113,-36.754995,12.050177,-36.749782,12.068846,-36.753326,12.499031,-36.732757,12.944803,-36.676344,13.384814,-36.585322,13.816382,-36.460246,14.236876,-36.301879,14.643731,-36.111186,15.034467,-35.889330,15.406702,-35.637663,15.758166,-35.357720,16.086716,-35.051208,16.390350,-34.719995,16.667215,-34.366102,16.915624,-33.991685,
17.134062,-33.599027,17.321197,-33.190524,17.475889,-32.768664,17.597194,-32.336021,17.684373,-31.895232,17.736893,-31.448985,17.753708,-31.018640,17.750000,-31.000000,17.750000,-7.000000,17.752996,-6.984939,17.749921,-6.969893,17.753530,-6.951241,17.734380,-6.519982,17.679284,-6.073035,17.589406,-5.631764,17.465297,-5.198873,17.307717,-4.777012,17.117630,-4.368766,16.896202,-3.976634,16.644787,-3.603019,
16.364927,-3.250207,16.058334,-2.920361,15.726887,-2.615499,15.372615,-2.337490,14.997688,-2.088035,14.604402,-1.868663,14.195166,-1.680716,13.772486,-1.525347,13.338951,-1.403506,12.897216,-1.315940,12.449986,-1.263185,12.018633,-1.246294,12.000000,-1.250000,-13.000002,-1.250000,-13.018625,-1.246296,-13.451490,-1.263303,-13.900194,-1.316411,-14.343348,-1.404560,-14.778220,-1.527206,-15.202129,-1.683595,
-15.612461,-1.872760,-16.006686,-2.093537,-16.382374,-2.344564,-16.737208,-2.624293,-17.069002,-2.931000,-17.375708,-3.262793,-17.655437,-3.617628,-17.906464,-3.993316,-18.127241,-4.387541,-18.316406,-4.797873,-18.472794,-5.221782,-18.595441,-5.656654,-18.683590,-6.099808,-18.736697,-6.548512,-18.753704,-6.981377,-18.750000,-7.000000,-18.750000,-31.000000,-18.754687,-31.023565,-18.749830,-31.047125,-18.753668,-31.067152,
-18.732326,-31.549556,-18.672782,-32.048909,-18.576252,-32.542448,-18.443271,-33.027437,-18.274575,-33.501188,-18.071101,-33.961076,-17.833976,-34.404551,-17.564515,-34.829156,-17.264210,-35.232536,-16.934726,-35.612455,-16.577890,-35.966809,-16.195679,-36.293633,-15.790213,-36.591115,-15.363738,-36.857606,-14.918618,-37.091630,-14.457321,-37.291888,-13.982404,-37.457272,-13.496498,-37.586865,-13.002298,-37.679947,-12.502542,-37.736004,
-12.020004,-37.753979,-12.000000,-37.750000,12.000000,-37.750000,12.029478,-37.755864,12.058904,-37.749743,12.078946,-37.753548,12.560745,-37.731409,13.059444,-37.671122,13.552284,-37.573942,14.036538,-37.440404,14.509530,-37.271248,14.968643,-37.067409,15.411337,-36.830015,15.835166,-36.560378,16.237784,-36.259989,16.616965,-35.930510,16.970612,-35.573763,17.296770,-35.191721,17.593634,-34.786497,17.859562,-34.360331,
18.093084,-33.915582,18.292909,-33.454708,18.457931,-32.980258,18.587238,-32.494857,18.680114,-32.001188,18.736046,-31.501982,18.753980,-31.020007,18.750000,-31.000000,18.750000,-7.000000,18.755864,-6.970522,18.749743,-6.941096,18.753548,-6.921054,18.731409,-6.439255,18.671122,-5.940556,18.573942,-5.447716,18.440404,-4.963462,18.271248,-4.490470,18.067409,-4.031357,17.830015,-3.588663,17.560378,-3.164834,
17.259989,-2.762216,16.930510,-2.383035,16.573763,-2.029388,16.191721,-1.703230,15.786497,-1.406366,15.360331,-1.140438,14.915582,-0.906916,14.454708,-0.707091,13.980258,-0.542069,13.494857,-0.412762,13.001188,-0.319886,12.501982,-0.263954,12.020009,-0.246020,12.000000,-0.250000,-1.000000,-0.250000,-1.095671,-0.230970,-1.176777,-0.176777,-1.230970,-0.095671,-1.250000,0.000000,-1.230970,0.095671,
-1.176777,0.176777,-1.095671,0.230970,-1.000000,0.250000,12.000000,0.250000,12.514341,0.231732,12.514341,0.231732,$1*%
G04 Aperture macros list end*
%ADD10C,0.100000*%
%TA.AperFunction,NonConductor*%
%ADD11C,0.100000*%
%TD*%
%TA.AperFunction,ComponentPad*%
%ADD12C,1.820000*%
%TD*%
%TA.AperFunction,ComponentPad*%
%ADD13R,1.700000X1.700000*%
%TD*%
%TA.AperFunction,ComponentPad*%
%ADD14O,1.700000X1.700000*%
%TD*%
%TA.AperFunction,ComponentPad*%
%ADD15RoundRect,0.250000X-0.600000X-0.675000X0.600000X-0.675000X0.600000X0.675000X-0.600000X0.675000X0*%
%TD*%
%TA.AperFunction,ComponentPad*%
%ADD16O,1.700000X1.850000*%
%TD*%
%TA.AperFunction,ComponentPad*%
%ADD17C,1.200000*%
%TD*%
%TA.AperFunction,ComponentPad*%
%ADD18C,0.600000*%
%TD*%
%TA.AperFunction,SMDPad,CuDef*%
%ADD19FreePoly0,0.000000*%
%TD*%
%TA.AperFunction,SMDPad,CuDef*%
%ADD20R,1.400000X0.200000*%
%TD*%
%TA.AperFunction,SMDPad,CuDef*%
%ADD21R,0.200000X0.200000*%
%TD*%
%TA.AperFunction,SMDPad,CuDef*%
%ADD22R,0.200000X0.400000*%
%TD*%
%TA.AperFunction,SMDPad,CuDef*%
%ADD23R,0.200000X0.800000*%
%TD*%
%TA.AperFunction,SMDPad,CuDef*%
%ADD24R,0.200000X0.600000*%
%TD*%
%TA.AperFunction,SMDPad,CuDef*%
%ADD25R,0.400000X0.200000*%
%TD*%
%TA.AperFunction,SMDPad,CuDef*%
%ADD26R,0.800000X0.200000*%
%TD*%
%TA.AperFunction,SMDPad,CuDef*%
%ADD27R,0.400000X0.600000*%
%TD*%
%TA.AperFunction,SMDPad,CuDef*%
%ADD28R,0.200000X1.200000*%
%TD*%
%TA.AperFunction,SMDPad,CuDef*%
%ADD29R,0.600000X0.200000*%
%TD*%
%TA.AperFunction,SMDPad,CuDef*%
%ADD30R,1.000000X0.200000*%
%TD*%
%TA.AperFunction,SMDPad,CuDef*%
%ADD31R,0.600000X0.600000*%
%TD*%
%TA.AperFunction,ViaPad*%
%ADD32C,0.800000*%
%TD*%
%TA.AperFunction,Conductor*%
%ADD33C,0.250000*%
%TD*%
%TA.AperFunction,Conductor*%
%ADD34C,0.500000*%
%TD*%
G04 APERTURE END LIST*
D10*
%TO.C,U3*%
D11*
X91828571Y-113973809D02*
X91804761Y-113950000D01*
X91757142Y-113926190D01*
X91638095Y-113926190D01*
X91590476Y-113950000D01*
X91566666Y-113973809D01*
X91542857Y-114021428D01*
X91542857Y-114069047D01*
X91566666Y-114140476D01*
X91852380Y-114426190D01*
X91542857Y-114426190D01*
X91233333Y-113926190D02*
X91185714Y-113926190D01*
X91138095Y-113950000D01*
X91114285Y-113973809D01*
X91090476Y-114021428D01*
X91066666Y-114116666D01*
X91066666Y-114235714D01*
X91090476Y-114330952D01*
X91114285Y-114378571D01*
X91138095Y-114402380D01*
X91185714Y-114426190D01*
X91233333Y-114426190D01*
X91280952Y-114402380D01*
X91304761Y-114378571D01*
X91328571Y-114330952D01*
X91352380Y-114235714D01*
X91352380Y-114116666D01*
X91328571Y-114021428D01*
X91304761Y-113973809D01*
X91280952Y-113950000D01*
X91233333Y-113926190D01*
X90876190Y-113973809D02*
X90852380Y-113950000D01*
X90804761Y-113926190D01*
X90685714Y-113926190D01*
X90638095Y-113950000D01*
X90614285Y-113973809D01*
X90590476Y-114021428D01*
X90590476Y-114069047D01*
X90614285Y-114140476D01*
X90900000Y-114426190D01*
X90590476Y-114426190D01*
X90400000Y-113973809D02*
X90376190Y-113950000D01*
X90328571Y-113926190D01*
X90209523Y-113926190D01*
X90161904Y-113950000D01*
X90138095Y-113973809D01*
X90114285Y-114021428D01*
X90114285Y-114069047D01*
X90138095Y-114140476D01*
X90423809Y-114426190D01*
X90114285Y-114426190D01*
X89900000Y-114235714D02*
X89519047Y-114235714D01*
X89185714Y-113926190D02*
X89138095Y-113926190D01*
X89090476Y-113950000D01*
X89066666Y-113973809D01*
X89042857Y-114021428D01*
X89019047Y-114116666D01*
X89019047Y-114235714D01*
X89042857Y-114330952D01*
X89066666Y-114378571D01*
X89090476Y-114402380D01*
X89138095Y-114426190D01*
X89185714Y-114426190D01*
X89233333Y-114402380D01*
X89257142Y-114378571D01*
X89280952Y-114330952D01*
X89304761Y-114235714D01*
X89304761Y-114116666D01*
X89280952Y-114021428D01*
X89257142Y-113973809D01*
X89233333Y-113950000D01*
X89185714Y-113926190D01*
X88733333Y-114140476D02*
X88780952Y-114116666D01*
X88804761Y-114092857D01*
X88828571Y-114045238D01*
X88828571Y-114021428D01*
X88804761Y-113973809D01*
X88780952Y-113950000D01*
X88733333Y-113926190D01*
X88638095Y-113926190D01*
X88590476Y-113950000D01*
X88566666Y-113973809D01*
X88542857Y-114021428D01*
X88542857Y-114045238D01*
X88566666Y-114092857D01*
X88590476Y-114116666D01*
X88638095Y-114140476D01*
X88733333Y-114140476D01*
X88780952Y-114164285D01*
X88804761Y-114188095D01*
X88828571Y-114235714D01*
X88828571Y-114330952D01*
X88804761Y-114378571D01*
X88780952Y-114402380D01*
X88733333Y-114426190D01*
X88638095Y-114426190D01*
X88590476Y-114402380D01*
X88566666Y-114378571D01*
X88542857Y-114330952D01*
X88542857Y-114235714D01*
X88566666Y-114188095D01*
X88590476Y-114164285D01*
X88638095Y-114140476D01*
X88328571Y-114235714D02*
X87947619Y-114235714D01*
X87614285Y-113926190D02*
X87566666Y-113926190D01*
X87519047Y-113950000D01*
X87495238Y-113973809D01*
X87471428Y-114021428D01*
X87447619Y-114116666D01*
X87447619Y-114235714D01*
X87471428Y-114330952D01*
X87495238Y-114378571D01*
X87519047Y-114402380D01*
X87566666Y-114426190D01*
X87614285Y-114426190D01*
X87661904Y-114402380D01*
X87685714Y-114378571D01*
X87709523Y-114330952D01*
X87733333Y-114235714D01*
X87733333Y-114116666D01*
X87709523Y-114021428D01*
X87685714Y-113973809D01*
X87661904Y-113950000D01*
X87614285Y-113926190D01*
X86995238Y-113926190D02*
X87233333Y-113926190D01*
X87257142Y-114164285D01*
X87233333Y-114140476D01*
X87185714Y-114116666D01*
X87066666Y-114116666D01*
X87019047Y-114140476D01*
X86995238Y-114164285D01*
X86971428Y-114211904D01*
X86971428Y-114330952D01*
X86995238Y-114378571D01*
X87019047Y-114402380D01*
X87066666Y-114426190D01*
X87185714Y-114426190D01*
X87233333Y-114402380D01*
X87257142Y-114378571D01*
%TD*%
D12*
%TO.P,D2,*%
%TO.N,*%
X112000000Y-94000000D03*
%TD*%
%TO.P,D3,*%
%TO.N,*%
X112000000Y-88000000D03*
%TD*%
%TO.P,D1,*%
%TO.N,*%
X112000000Y-100000000D03*
%TD*%
D13*
%TO.P,J1,1,Pin_1*%
%TO.N,GND*%
X112000000Y-107270000D03*
D14*
%TO.P,J1,2,Pin_2*%
%TO.N,Net-(J1-Pad2)*%
X112000000Y-104730000D03*
%TD*%
D15*
%TO.P,J2,1,Pin_1*%
%TO.N,GND*%
X96250000Y-108900000D03*
D16*
%TO.P,J2,2,Pin_2*%
%TO.N,+5V*%
X98750000Y-108900000D03*
%TO.P,J2,3,Pin_3*%
%TO.N,Net-(J2-Pad3)*%
X101250000Y-108900000D03*
%TO.P,J2,4,Pin_4*%
%TO.N,Net-(J2-Pad4)*%
X103750000Y-108900000D03*
%TD*%
D17*
%TO.P,TP1,1,1*%
%TO.N,Net-(L1-Pad1)*%
X101250000Y-92400000D03*
%TO.P,TP1,2,2*%
%TO.N,Net-(L2-Pad2)*%
X98750000Y-92400000D03*
%TD*%
D18*
%TO.P,A1,*%
%TO.N,*%
X101000000Y-81000000D03*
X99000000Y-81000000D03*
D19*
X100000000Y-81000000D03*
D18*
X97000000Y-83000000D03*
%TD*%
D20*
%TO.P,U3,*%
%TO.N,*%
X90800000Y-109800000D03*
D21*
X88600000Y-109400000D03*
D22*
X88400000Y-110300000D03*
D23*
X87400000Y-109900000D03*
D21*
X89200000Y-111200000D03*
D22*
X89000000Y-110500000D03*
D24*
X88400000Y-109600000D03*
D21*
X87600000Y-108800000D03*
D25*
X90900000Y-110600000D03*
D26*
X90300000Y-111000000D03*
D21*
X90200000Y-110600000D03*
D23*
X90000000Y-110500000D03*
D21*
X88000000Y-110800000D03*
D25*
X89100000Y-109800000D03*
X87900000Y-109800000D03*
D27*
X91300000Y-110600000D03*
D28*
X91400000Y-109100000D03*
D24*
X89800000Y-108800000D03*
D29*
X91200000Y-111000000D03*
D28*
X88600000Y-111900000D03*
D24*
X87400000Y-108800000D03*
D21*
X89800000Y-112200000D03*
D28*
X89400000Y-111100000D03*
D21*
X89600000Y-110800000D03*
X89600000Y-108800000D03*
D23*
X88600000Y-110500000D03*
D25*
X88900000Y-110000000D03*
D21*
X88800000Y-110400000D03*
D24*
X89200000Y-108800000D03*
D21*
X89400000Y-112600000D03*
D30*
X90800000Y-108600000D03*
D28*
X87400000Y-111900000D03*
D21*
X90200000Y-110200000D03*
X89800000Y-110400000D03*
D25*
X89100000Y-112000000D03*
D22*
X89000000Y-111500000D03*
D31*
X90800000Y-109200000D03*
X88000000Y-112000000D03*
D24*
X89400000Y-109200000D03*
X88800000Y-109400000D03*
D29*
X89600000Y-110000000D03*
D22*
X87800000Y-110900000D03*
X91000000Y-110300000D03*
D30*
X88000000Y-111400000D03*
D21*
X88200000Y-110600000D03*
D29*
X89400000Y-110200000D03*
D30*
X90800000Y-111400000D03*
D31*
X90800000Y-112000000D03*
D21*
X87600000Y-109200000D03*
D22*
X88200000Y-109900000D03*
D21*
X89600000Y-112400000D03*
D24*
X89800000Y-109600000D03*
D28*
X90200000Y-111900000D03*
D22*
X90600000Y-110300000D03*
D28*
X91400000Y-111900000D03*
D21*
X88400000Y-108600000D03*
X88400000Y-109000000D03*
D24*
X89600000Y-111800000D03*
D21*
X89600000Y-109600000D03*
D22*
X89000000Y-112500000D03*
D24*
X89800000Y-111200000D03*
D28*
X90200000Y-109100000D03*
D21*
X89200000Y-110800000D03*
X88200000Y-109400000D03*
D20*
X90800000Y-112600000D03*
D25*
X89300000Y-112200000D03*
D22*
X89000000Y-108700000D03*
D29*
X88800000Y-111000000D03*
D21*
X87800000Y-109400000D03*
X89200000Y-109600000D03*
D20*
X88000000Y-112600000D03*
D25*
X87500000Y-110800000D03*
D22*
X88000000Y-108700000D03*
%TD*%
D32*
%TO.N,GND*%
X104400000Y-103300000D03*
X110946011Y-90962647D03*
X93000000Y-103574500D03*
X105514175Y-100843682D03*
X100000000Y-92825000D03*
X109000000Y-107270000D03*
X100000000Y-100040000D03*
X111000000Y-103100000D03*
X110610000Y-96620000D03*
X101000000Y-101040000D03*
X97053825Y-103379076D03*
X91400000Y-102600000D03*
X99000000Y-101000000D03*
X106175000Y-95500000D03*
X109000000Y-102975500D03*
X109000000Y-105575000D03*
X101000000Y-99000000D03*
X99000000Y-99000000D03*
X95950000Y-98175000D03*
%TO.N,+3V3*%
X97350000Y-95200000D03*
X107100000Y-96400000D03*
X92200000Y-92850000D03*
X107100000Y-103899989D03*
X107100000Y-105900000D03*
X91400000Y-106000000D03*
X99522431Y-94680773D03*
%TO.N,+5V*%
X109000000Y-94375000D03*
X105250000Y-96100000D03*
X105250000Y-94375000D03*
%TO.N,Net-(D1-Pad2)*%
X112510000Y-97260000D03*
X110675000Y-101050000D03*
%TO.N,Net-(D2-Pad2)*%
X112004431Y-90962647D03*
X111560000Y-96940000D03*
%TO.N,Net-(D3-Pad2)*%
X109100000Y-99420000D03*
X109887592Y-90962647D03*
%TO.N,Net-(C9-Pad1)*%
X94200000Y-93700000D03*
X96424500Y-95924500D03*
%TO.N,Net-(J2-Pad4)*%
X105900000Y-107000000D03*
%TD*%
D33*
%TO.N,GND*%
X109000000Y-102975500D02*
X110875500Y-102975500D01*
X109000000Y-105575000D02*
X109000000Y-107270000D01*
D34*
X96250000Y-108900000D02*
X96250000Y-107150000D01*
D33*
X110946011Y-90962647D02*
X110717040Y-91191618D01*
X109000000Y-105575000D02*
X109000000Y-102975500D01*
D34*
X100499501Y-94393770D02*
X100499501Y-95689073D01*
D33*
X110305969Y-92184031D02*
X110305969Y-95886005D01*
D34*
X100000000Y-92825000D02*
X100000000Y-93187868D01*
D33*
X91400000Y-102600000D02*
X93625500Y-102600000D01*
D34*
X100250000Y-96291421D02*
X100250000Y-98500000D01*
D33*
X112000000Y-107270000D02*
X109000000Y-107270000D01*
D34*
X100149991Y-93550009D02*
G75*
G02*
X100000000Y-93187868I362109J362109D01*
G01*
D33*
X110306005Y-92184031D02*
G75*
G02*
X110717040Y-91191618I1403495J31D01*
G01*
X110610001Y-96619999D02*
G75*
G02*
X110305969Y-95886005I733999J733999D01*
G01*
D34*
X100499513Y-94393770D02*
G75*
G03*
X100150000Y-93550000I-1193313J-30D01*
G01*
X100350008Y-96050008D02*
G75*
G03*
X100499501Y-95689073I-360908J360908D01*
G01*
D33*
X111000000Y-103100000D02*
G75*
G03*
X110875500Y-102975500I-124500J0D01*
G01*
D34*
X106183091Y-95403451D02*
G75*
G03*
X105950000Y-95250000I-235291J-103649D01*
G01*
X100250009Y-96291421D02*
G75*
G02*
X100350000Y-96050000I341391J21D01*
G01*
D33*
%TO.N,+3V3*%
X95649990Y-110150010D02*
X103849990Y-110150010D01*
X107100000Y-105900000D02*
X107100000Y-106570217D01*
X97350000Y-95200000D02*
X95900000Y-95200000D01*
X94000000Y-92850000D02*
X92200000Y-92850000D01*
X104510156Y-109876560D02*
X106593358Y-107793358D01*
X107100000Y-103899989D02*
X107100000Y-96400000D01*
X107100000Y-105900000D02*
X107100000Y-103899989D01*
X97350000Y-95200000D02*
X99003204Y-95200000D01*
X95000000Y-93850000D02*
X95000000Y-94300000D01*
X91753553Y-106853554D02*
X94625760Y-109725760D01*
X94000000Y-92850000D02*
G75*
G02*
X95000000Y-93850000I0J-1000000D01*
G01*
X99522400Y-94680773D02*
G75*
G02*
X99003204Y-95200000I-519200J-27D01*
G01*
X107100006Y-106570217D02*
G75*
G02*
X106593358Y-107793358I-1729806J17D01*
G01*
X91753555Y-106853552D02*
G75*
G02*
X91400000Y-106000000I853545J853552D01*
G01*
X95649990Y-110150008D02*
G75*
G02*
X94625760Y-109725760I10J1448508D01*
G01*
X104510160Y-109876564D02*
G75*
G02*
X103849990Y-110150010I-660160J660164D01*
G01*
X95000000Y-94300000D02*
G75*
G03*
X95900000Y-95200000I900000J0D01*
G01*
%TO.N,+5V*%
X105250000Y-94375000D02*
X109000000Y-94375000D01*
D34*
X103649312Y-101649312D02*
X100049312Y-105249312D01*
X104638443Y-97576429D02*
X104638443Y-99261339D01*
X98750000Y-108386128D02*
X98750000Y-108900000D01*
X104638456Y-97576429D02*
G75*
G02*
X105250001Y-96100001I2087944J29D01*
G01*
X98750012Y-108386128D02*
G75*
G02*
X100049312Y-105249312I4436088J28D01*
G01*
X103649301Y-101649301D02*
G75*
G03*
X104638443Y-99261339I-2388001J2388001D01*
G01*
D33*
%TO.N,Net-(D1-Pad2)*%
X112329688Y-97695312D02*
X111150000Y-98875000D01*
X110700000Y-101100000D02*
X110700000Y-99961396D01*
X112329683Y-97695307D02*
G75*
G03*
X112510000Y-97260000I-435283J435307D01*
G01*
X110699999Y-99961396D02*
G75*
G02*
X111150000Y-98875000I1536401J-4D01*
G01*
%TO.N,Net-(D2-Pad2)*%
X112004431Y-90962647D02*
X112004431Y-91142816D01*
X112004431Y-91142816D02*
X110962489Y-92184757D01*
X110755480Y-92684520D02*
X110755480Y-95144114D01*
X111110000Y-96000000D02*
X111213518Y-96103518D01*
X111110004Y-95999996D02*
G75*
G02*
X110755480Y-95144114I855896J855896D01*
G01*
X111559989Y-96940000D02*
G75*
G03*
X111213518Y-96103518I-1182989J0D01*
G01*
X110755509Y-92684520D02*
G75*
G02*
X110962489Y-92184757I706791J20D01*
G01*
%TO.N,Net-(D3-Pad2)*%
X109850000Y-91053402D02*
X109850000Y-97609340D01*
X109849988Y-91053402D02*
G75*
G02*
X109887592Y-90962647I128312J2D01*
G01*
X109099988Y-99419988D02*
G75*
G03*
X109850000Y-97609340I-1810688J1810688D01*
G01*
%TO.N,Net-(C9-Pad1)*%
X95877378Y-95922622D02*
X96422622Y-95922622D01*
X94200000Y-93700000D02*
X94200000Y-94245244D01*
X96422622Y-95922622D02*
X96424500Y-95924500D01*
X95877378Y-95922600D02*
G75*
G02*
X94200000Y-94245244I22J1677400D01*
G01*
%TO.N,Net-(J2-Pad4)*%
X105900000Y-107000000D02*
X104176777Y-108723223D01*
X103750000Y-108899986D02*
G75*
G03*
X104176777Y-108723223I0J603586D01*
G01*
%TD*%
%TA.AperFunction,Conductor*%
%TO.N,GND*%
G36*
X93570531Y-93245502D02*
G01*
X93617024Y-93299158D01*
X93627128Y-93369432D01*
X93619805Y-93397264D01*
X93565309Y-93537039D01*
X93544758Y-93693138D01*
X93562035Y-93849633D01*
X93616143Y-93997490D01*
X93620380Y-94003796D01*
X93620382Y-94003799D01*
X93645647Y-94041397D01*
X93703958Y-94128172D01*
X93709577Y-94133285D01*
X93709578Y-94133286D01*
X93781695Y-94198908D01*
X93818618Y-94259549D01*
X93822626Y-94283858D01*
X93828746Y-94377185D01*
X93837702Y-94513779D01*
X93890206Y-94777709D01*
X93976711Y-95032528D01*
X94095735Y-95273876D01*
X94098033Y-95277315D01*
X94178764Y-95398134D01*
X94200000Y-95468137D01*
X94200000Y-98100000D01*
X94300000Y-98100000D01*
X94300000Y-95870448D01*
X94320002Y-95802327D01*
X94373658Y-95755834D01*
X94443932Y-95745730D01*
X94509077Y-95775716D01*
X94518576Y-95784046D01*
X94624997Y-95877374D01*
X94848748Y-96026878D01*
X94852441Y-96028699D01*
X95005407Y-96104134D01*
X95090097Y-96145899D01*
X95183058Y-96177456D01*
X95214502Y-96188130D01*
X95272578Y-96228968D01*
X95299356Y-96294721D01*
X95300000Y-96307443D01*
X95300000Y-96900000D01*
X95307327Y-96906838D01*
X95307327Y-96906839D01*
X96035484Y-97586452D01*
X96050000Y-97600000D01*
X99274000Y-97600000D01*
X99342121Y-97620002D01*
X99388614Y-97673658D01*
X99400000Y-97726000D01*
X99400000Y-102800000D01*
X99500000Y-102800000D01*
X99500000Y-97726000D01*
X99520002Y-97657879D01*
X99573658Y-97611386D01*
X99626000Y-97600000D01*
X102200000Y-97600000D01*
X102200000Y-94026000D01*
X102220002Y-93957879D01*
X102273658Y-93911386D01*
X102326000Y-93900000D01*
X103074000Y-93900000D01*
X103142121Y-93920002D01*
X103188614Y-93973658D01*
X103200000Y-94026000D01*
X103200000Y-97000000D01*
X103300000Y-97000000D01*
X103300000Y-94026000D01*
X103320002Y-93957879D01*
X103373658Y-93911386D01*
X103426000Y-93900000D01*
X104202454Y-93900000D01*
X104270575Y-93920002D01*
X104285693Y-93931410D01*
X104563740Y-94176092D01*
X104601665Y-94236111D01*
X104605423Y-94287128D01*
X104603729Y-94300000D01*
X104594758Y-94368138D01*
X104612035Y-94524633D01*
X104666143Y-94672490D01*
X104670380Y-94678796D01*
X104670382Y-94678799D01*
X104691396Y-94710071D01*
X104753958Y-94803172D01*
X104870410Y-94909135D01*
X104877085Y-94912759D01*
X105002099Y-94980637D01*
X105002101Y-94980638D01*
X105008776Y-94984262D01*
X105016125Y-94986190D01*
X105153719Y-95022287D01*
X105153721Y-95022287D01*
X105161069Y-95024215D01*
X105244380Y-95025524D01*
X105310898Y-95026569D01*
X105310901Y-95026569D01*
X105318495Y-95026688D01*
X105325899Y-95024992D01*
X105325901Y-95024992D01*
X105444538Y-94997821D01*
X105490458Y-95000601D01*
X105490584Y-94998933D01*
X105499556Y-94999609D01*
X105500000Y-95000000D01*
X106447810Y-95000000D01*
X106515931Y-95020002D01*
X106536905Y-95036905D01*
X106963095Y-95463095D01*
X106997121Y-95525407D01*
X107000000Y-95552190D01*
X107000000Y-95655660D01*
X106979998Y-95723781D01*
X106926342Y-95770274D01*
X106903415Y-95778178D01*
X106878974Y-95784046D01*
X106878968Y-95784048D01*
X106871588Y-95785820D01*
X106731679Y-95858032D01*
X106725957Y-95863024D01*
X106725955Y-95863025D01*
X106618759Y-95956538D01*
X106618756Y-95956541D01*
X106613034Y-95961533D01*
X106522501Y-96090348D01*
X106465309Y-96237039D01*
X106444758Y-96393138D01*
X106462035Y-96549633D01*
X106516143Y-96697490D01*
X106520380Y-96703796D01*
X106520382Y-96703799D01*
X106542779Y-96737128D01*
X106603958Y-96828172D01*
X106609573Y-96833281D01*
X106609578Y-96833287D01*
X106683300Y-96900369D01*
X106720222Y-96961009D01*
X106724500Y-96993562D01*
X106724500Y-102374000D01*
X106704498Y-102442121D01*
X106650842Y-102488614D01*
X106598500Y-102500000D01*
X104400000Y-102500000D01*
X104400000Y-102600000D01*
X106598500Y-102600000D01*
X106666621Y-102620002D01*
X106713114Y-102673658D01*
X106724500Y-102726000D01*
X106724500Y-103306995D01*
X106704498Y-103375116D01*
X106681331Y-103401942D01*
X106613034Y-103461522D01*
X106522501Y-103590337D01*
X106465309Y-103737028D01*
X106444758Y-103893127D01*
X106462035Y-104049622D01*
X106464645Y-104056754D01*
X106492326Y-104132396D01*
X106500000Y-104175697D01*
X106500000Y-105274000D01*
X106479998Y-105342121D01*
X106426342Y-105388614D01*
X106374000Y-105400000D01*
X101400000Y-105400000D01*
X101400000Y-105500000D01*
X106373363Y-105500000D01*
X106441484Y-105520002D01*
X106487977Y-105573658D01*
X106498081Y-105643932D01*
X106490756Y-105671769D01*
X106468070Y-105729956D01*
X106468069Y-105729960D01*
X106465309Y-105737039D01*
X106464317Y-105744572D01*
X106464317Y-105744573D01*
X106449027Y-105860714D01*
X106444758Y-105893138D01*
X106462035Y-106049633D01*
X106464645Y-106056765D01*
X106492326Y-106132407D01*
X106500000Y-106175708D01*
X106500000Y-106382281D01*
X106479998Y-106450402D01*
X106426342Y-106496895D01*
X106356068Y-106506999D01*
X106290183Y-106476359D01*
X106273976Y-106461919D01*
X106134831Y-106388245D01*
X106082932Y-106375209D01*
X105989498Y-106351740D01*
X105989496Y-106351740D01*
X105982128Y-106349889D01*
X105974530Y-106349849D01*
X105974528Y-106349849D01*
X105907319Y-106349497D01*
X105824684Y-106349065D01*
X105817305Y-106350837D01*
X105817301Y-106350837D01*
X105678967Y-106384048D01*
X105678963Y-106384049D01*
X105671588Y-106385820D01*
X105531679Y-106458032D01*
X105525957Y-106463024D01*
X105525955Y-106463025D01*
X105418759Y-106556538D01*
X105418756Y-106556541D01*
X105413034Y-106561533D01*
X105387047Y-106598509D01*
X105364801Y-106630162D01*
X105322501Y-106690348D01*
X105265309Y-106837039D01*
X105244758Y-106993138D01*
X105251150Y-107051035D01*
X105238744Y-107120940D01*
X105215006Y-107153957D01*
X104493342Y-107875621D01*
X104431030Y-107909647D01*
X104360215Y-107904582D01*
X104341155Y-107895593D01*
X104210201Y-107819834D01*
X104090647Y-107778318D01*
X104017491Y-107752914D01*
X104017489Y-107752914D01*
X104011826Y-107750947D01*
X104005891Y-107750086D01*
X104005889Y-107750086D01*
X103809944Y-107721675D01*
X103809941Y-107721675D01*
X103804004Y-107720814D01*
X103594233Y-107730523D01*
X103479226Y-107758240D01*
X103395915Y-107778318D01*
X103395913Y-107778319D01*
X103390082Y-107779724D01*
X103384624Y-107782206D01*
X103384620Y-107782207D01*
X103280952Y-107829342D01*
X103198919Y-107866640D01*
X103132616Y-107913672D01*
X103043664Y-107976770D01*
X102970764Y-108000000D01*
X102025459Y-108000000D01*
X101957338Y-107979998D01*
X101942878Y-107969165D01*
X101896502Y-107928922D01*
X101891971Y-107924990D01*
X101710201Y-107819834D01*
X101590647Y-107778318D01*
X101517491Y-107752914D01*
X101517489Y-107752914D01*
X101511826Y-107750947D01*
X101505891Y-107750086D01*
X101505889Y-107750086D01*
X101309944Y-107721675D01*
X101309941Y-107721675D01*
X101304004Y-107720814D01*
X101094233Y-107730523D01*
X100979226Y-107758240D01*
X100895915Y-107778318D01*
X100895913Y-107778319D01*
X100890082Y-107779724D01*
X100884624Y-107782206D01*
X100884620Y-107782207D01*
X100780952Y-107829342D01*
X100698919Y-107866640D01*
X100632616Y-107913672D01*
X100543664Y-107976770D01*
X100470764Y-108000000D01*
X99525459Y-108000000D01*
X99457338Y-107979998D01*
X99442878Y-107969165D01*
X99396502Y-107928922D01*
X99391971Y-107924990D01*
X99361693Y-107907474D01*
X99312745Y-107856051D01*
X99299865Y-107781964D01*
X99302989Y-107758240D01*
X99309582Y-107708154D01*
X99311490Y-107697337D01*
X99321985Y-107650000D01*
X99348358Y-107531037D01*
X99383418Y-107372890D01*
X99386262Y-107362273D01*
X99465431Y-107111174D01*
X99486200Y-107045302D01*
X99489958Y-107034978D01*
X99569190Y-106843694D01*
X99617142Y-106727926D01*
X99621784Y-106717973D01*
X99666749Y-106631597D01*
X99775236Y-106423195D01*
X99780731Y-106413676D01*
X99959293Y-106133389D01*
X99965597Y-106124385D01*
X100167918Y-105860714D01*
X100174984Y-105852294D01*
X100374171Y-105634920D01*
X100392734Y-105618307D01*
X100402464Y-105611199D01*
X100421482Y-105586459D01*
X100432283Y-105574155D01*
X103966039Y-102040398D01*
X103982049Y-102026855D01*
X103998016Y-102015487D01*
X104006858Y-102006858D01*
X104012065Y-101999911D01*
X104019984Y-101990362D01*
X104124246Y-101876580D01*
X104232708Y-101758215D01*
X104232715Y-101758207D01*
X104234573Y-101756179D01*
X104236255Y-101753987D01*
X104439027Y-101489732D01*
X104439035Y-101489720D01*
X104440699Y-101487552D01*
X104622629Y-101201981D01*
X104778978Y-100901642D01*
X104826692Y-100786452D01*
X104907506Y-100591353D01*
X104907511Y-100591341D01*
X104908555Y-100588819D01*
X105010376Y-100265893D01*
X105083665Y-99935321D01*
X105127864Y-99599620D01*
X105141114Y-99296223D01*
X105142739Y-99280829D01*
X105143939Y-99273699D01*
X105144090Y-99261345D01*
X105140215Y-99234284D01*
X105138943Y-99216424D01*
X105138943Y-97625163D01*
X105140443Y-97605781D01*
X105142670Y-97591473D01*
X105144052Y-97582599D01*
X105141989Y-97566826D01*
X105141195Y-97542247D01*
X105151994Y-97377457D01*
X105154145Y-97361116D01*
X105191432Y-97173653D01*
X105195698Y-97157732D01*
X105228092Y-97062299D01*
X105257134Y-96976744D01*
X105263439Y-96961520D01*
X105276616Y-96934799D01*
X105346587Y-96792907D01*
X105394655Y-96740658D01*
X105431463Y-96725815D01*
X105471968Y-96716538D01*
X105612625Y-96645795D01*
X105638869Y-96623381D01*
X105726574Y-96548474D01*
X105726576Y-96548471D01*
X105732348Y-96543542D01*
X105824224Y-96415683D01*
X105882950Y-96269598D01*
X105893679Y-96194211D01*
X105904553Y-96117807D01*
X105904553Y-96117804D01*
X105905134Y-96113723D01*
X105905278Y-96100000D01*
X105886363Y-95943694D01*
X105830710Y-95796412D01*
X105741531Y-95666657D01*
X105639219Y-95575500D01*
X105629648Y-95566972D01*
X105629645Y-95566970D01*
X105623976Y-95561919D01*
X105484831Y-95488245D01*
X105468122Y-95484048D01*
X105339498Y-95451740D01*
X105339496Y-95451740D01*
X105332128Y-95449889D01*
X105324530Y-95449849D01*
X105324528Y-95449849D01*
X105257319Y-95449497D01*
X105174684Y-95449065D01*
X105167305Y-95450837D01*
X105167301Y-95450837D01*
X105028967Y-95484048D01*
X105028963Y-95484049D01*
X105021588Y-95485820D01*
X104881679Y-95558032D01*
X104875957Y-95563024D01*
X104875955Y-95563025D01*
X104768759Y-95656538D01*
X104768756Y-95656541D01*
X104763034Y-95661533D01*
X104758667Y-95667747D01*
X104682785Y-95775716D01*
X104672501Y-95790348D01*
X104615309Y-95937039D01*
X104614318Y-95944567D01*
X104596501Y-96079897D01*
X104574340Y-96136361D01*
X104537610Y-96188130D01*
X104531243Y-96197103D01*
X104529534Y-96200195D01*
X104529531Y-96200200D01*
X104477292Y-96294721D01*
X104390611Y-96451560D01*
X104279354Y-96720163D01*
X104198871Y-96999534D01*
X104150175Y-97286160D01*
X104145512Y-97369215D01*
X104135775Y-97542634D01*
X104134228Y-97556468D01*
X104132947Y-97564082D01*
X104132796Y-97576436D01*
X104133487Y-97581260D01*
X104133487Y-97581262D01*
X104136670Y-97603485D01*
X104137943Y-97621349D01*
X104137943Y-98074000D01*
X104117941Y-98142121D01*
X104064285Y-98188614D01*
X104011943Y-98200000D01*
X100900000Y-98200000D01*
X100900000Y-98300000D01*
X104011943Y-98300000D01*
X104080064Y-98320002D01*
X104126557Y-98373658D01*
X104137943Y-98426000D01*
X104137943Y-99212592D01*
X104136443Y-99231978D01*
X104132834Y-99255156D01*
X104135259Y-99273699D01*
X104135301Y-99274024D01*
X104136213Y-99296547D01*
X104124392Y-99537106D01*
X104123180Y-99549411D01*
X104083573Y-99816404D01*
X104081161Y-99828531D01*
X104015573Y-100090364D01*
X104011983Y-100102197D01*
X103921049Y-100356334D01*
X103916317Y-100367757D01*
X103800917Y-100611748D01*
X103795089Y-100622653D01*
X103656321Y-100854172D01*
X103649451Y-100864454D01*
X103488656Y-101081259D01*
X103480813Y-101090815D01*
X103323907Y-101263935D01*
X103304881Y-101281054D01*
X103296160Y-101287425D01*
X103290689Y-101294542D01*
X103290688Y-101294543D01*
X103277142Y-101312165D01*
X103266341Y-101324469D01*
X99732584Y-104858226D01*
X99716567Y-104871774D01*
X99704576Y-104880311D01*
X99704569Y-104880317D01*
X99700608Y-104883137D01*
X99691766Y-104891766D01*
X99687853Y-104896986D01*
X99679567Y-104906932D01*
X99429391Y-105177571D01*
X99189231Y-105482213D01*
X99187854Y-105484274D01*
X99187851Y-105484278D01*
X99013928Y-105744573D01*
X98973714Y-105804758D01*
X98860627Y-106006690D01*
X98792274Y-106128744D01*
X98784168Y-106143218D01*
X98621762Y-106495506D01*
X98620904Y-106497832D01*
X98492988Y-106844568D01*
X98487497Y-106859451D01*
X98486821Y-106861848D01*
X98413751Y-107120940D01*
X98382201Y-107232808D01*
X98381720Y-107235227D01*
X98326651Y-107512089D01*
X98306524Y-107613276D01*
X98306236Y-107615709D01*
X98306234Y-107615722D01*
X98301978Y-107651688D01*
X98289368Y-107758240D01*
X98289297Y-107758836D01*
X98261427Y-107824134D01*
X98216320Y-107858728D01*
X98206126Y-107863363D01*
X98198919Y-107866640D01*
X98098899Y-107937589D01*
X98031766Y-107960687D01*
X97962801Y-107943823D01*
X97913902Y-107892351D01*
X97900000Y-107834819D01*
X97900000Y-104900000D01*
X97800000Y-104900000D01*
X97800000Y-107874000D01*
X97779998Y-107942121D01*
X97726342Y-107988614D01*
X97674000Y-108000000D01*
X97664824Y-108000000D01*
X97596703Y-107979998D01*
X97550210Y-107926342D01*
X97545299Y-107913873D01*
X97543411Y-107908214D01*
X97537239Y-107895038D01*
X97451937Y-107757193D01*
X97442901Y-107745792D01*
X97328171Y-107631261D01*
X97316760Y-107622249D01*
X97178757Y-107537184D01*
X97165576Y-107531037D01*
X97011290Y-107479862D01*
X96997914Y-107476995D01*
X96903562Y-107467328D01*
X96897145Y-107467000D01*
X96522115Y-107467000D01*
X96506876Y-107471475D01*
X96505671Y-107472865D01*
X96504000Y-107480548D01*
X96504000Y-108000000D01*
X95996000Y-108000000D01*
X95996000Y-107485116D01*
X95991525Y-107469877D01*
X95990135Y-107468672D01*
X95982452Y-107467001D01*
X95602905Y-107467001D01*
X95596386Y-107467338D01*
X95500794Y-107477257D01*
X95487400Y-107480149D01*
X95333216Y-107531588D01*
X95320038Y-107537761D01*
X95182193Y-107623063D01*
X95170792Y-107632099D01*
X95056261Y-107746829D01*
X95047249Y-107758240D01*
X94962184Y-107896243D01*
X94956037Y-107909423D01*
X94954628Y-107913672D01*
X94914195Y-107972030D01*
X94848630Y-107999265D01*
X94835036Y-108000000D01*
X94526000Y-108000000D01*
X94457879Y-107979998D01*
X94411386Y-107926342D01*
X94400000Y-107874000D01*
X94400000Y-104900000D01*
X94300000Y-104900000D01*
X94300000Y-107874000D01*
X94279998Y-107942121D01*
X94226342Y-107988614D01*
X94174000Y-108000000D01*
X93483226Y-108000000D01*
X93415105Y-107979998D01*
X93394131Y-107963095D01*
X92046983Y-106615947D01*
X92034142Y-106600913D01*
X92028207Y-106592744D01*
X92022380Y-106584724D01*
X92014361Y-106578898D01*
X92007346Y-106571883D01*
X92007473Y-106571756D01*
X91996538Y-106561648D01*
X91952594Y-106510196D01*
X91923565Y-106445409D01*
X91934170Y-106375209D01*
X91946083Y-106354846D01*
X91974224Y-106315683D01*
X92032950Y-106169598D01*
X92055134Y-106013723D01*
X92055278Y-106000000D01*
X92036363Y-105843694D01*
X92020874Y-105802703D01*
X91983394Y-105703514D01*
X91983393Y-105703511D01*
X91980710Y-105696412D01*
X91891531Y-105566657D01*
X91842179Y-105522686D01*
X91804625Y-105462438D01*
X91800000Y-105428612D01*
X91800000Y-104226000D01*
X91820002Y-104157879D01*
X91873658Y-104111386D01*
X91926000Y-104100000D01*
X98600000Y-104100000D01*
X98600000Y-104000000D01*
X91926000Y-104000000D01*
X91857879Y-103979998D01*
X91811386Y-103926342D01*
X91800000Y-103874000D01*
X91800000Y-100926000D01*
X91820002Y-100857879D01*
X91873658Y-100811386D01*
X91926000Y-100800000D01*
X97700000Y-100800000D01*
X97700000Y-100700000D01*
X91926000Y-100700000D01*
X91857879Y-100679998D01*
X91811386Y-100626342D01*
X91800000Y-100574000D01*
X91800000Y-96117124D01*
X91804570Y-96083497D01*
X91882104Y-95803514D01*
X92534305Y-93448344D01*
X92573901Y-93386164D01*
X92682348Y-93293542D01*
X92686777Y-93287378D01*
X92686780Y-93287375D01*
X92693536Y-93277973D01*
X92749531Y-93234326D01*
X92795858Y-93225500D01*
X93502410Y-93225500D01*
X93570531Y-93245502D01*
G37*
%TD.AperFunction*%
%TD*%
M02*
