%TF.GenerationSoftware,KiCad,Pcbnew,(6.0.0-0)*%
%TF.CreationDate,2022-01-01T18:12:17+00:00*%
%TF.ProjectId,PN532,504e3533-322e-46b6-9963-61645f706362,7*%
%TF.SameCoordinates,Original*%
%TF.FileFunction,Legend,Bot*%
%TF.FilePolarity,Positive*%
%FSLAX46Y46*%
G04 Gerber Fmt 4.6, Leading zero omitted, Abs format (unit mm)*
G04 Created by KiCad (PCBNEW (6.0.0-0)) date 2022-01-01 18:12:17*
%MOMM*%
%LPD*%
G01*
G04 APERTURE LIST*
%ADD10C,0.120000*%
%ADD11C,0.150000*%
%ADD12C,0.080000*%
%ADD13C,0.250000*%
G04 APERTURE END LIST*
D10*
X105000000Y-100000000D02*
G75*
G03*
X105000000Y-100000000I-5000000J0D01*
G01*
X101250000Y-91400000D02*
G75*
G03*
X100250000Y-92400000I-1J-999999D01*
G01*
X106000000Y-100000000D02*
G75*
G03*
X106000000Y-100000000I-6000000J0D01*
G01*
X102000000Y-100000000D02*
G75*
G03*
X102000000Y-100000000I-2000000J0D01*
G01*
X104000000Y-100000000D02*
G75*
G03*
X104000000Y-100000000I-4000000J0D01*
G01*
X101000000Y-100000000D02*
G75*
G03*
X101000000Y-100000000I-1000000J0D01*
G01*
X103000000Y-100000000D02*
G75*
G03*
X103000000Y-100000000I-3000000J0D01*
G01*
X107000000Y-100000000D02*
G75*
G03*
X107000000Y-100000000I-7000000J0D01*
G01*
X99750000Y-92400000D02*
G75*
G03*
X98750000Y-91400000I-999999J1D01*
G01*
D11*
X104628571Y-87542857D02*
X104400000Y-88342857D01*
X104171428Y-87771428D01*
X103942857Y-88342857D01*
X103714285Y-87542857D01*
X103371428Y-87542857D02*
X103142857Y-88342857D01*
X102914285Y-87771428D01*
X102685714Y-88342857D01*
X102457142Y-87542857D01*
X102114285Y-87542857D02*
X101885714Y-88342857D01*
X101657142Y-87771428D01*
X101428571Y-88342857D01*
X101200000Y-87542857D01*
X100742857Y-88228571D02*
X100685714Y-88285714D01*
X100742857Y-88342857D01*
X100800000Y-88285714D01*
X100742857Y-88228571D01*
X100742857Y-88342857D01*
X100171428Y-88342857D02*
X100171428Y-87542857D01*
X100171428Y-87657142D02*
X100114285Y-87600000D01*
X100000000Y-87542857D01*
X99828571Y-87542857D01*
X99714285Y-87600000D01*
X99657142Y-87714285D01*
X99657142Y-88342857D01*
X99657142Y-87714285D02*
X99600000Y-87600000D01*
X99485714Y-87542857D01*
X99314285Y-87542857D01*
X99200000Y-87600000D01*
X99142857Y-87714285D01*
X99142857Y-88342857D01*
X98114285Y-88285714D02*
X98228571Y-88342857D01*
X98457142Y-88342857D01*
X98571428Y-88285714D01*
X98628571Y-88171428D01*
X98628571Y-87714285D01*
X98571428Y-87600000D01*
X98457142Y-87542857D01*
X98228571Y-87542857D01*
X98114285Y-87600000D01*
X98057142Y-87714285D01*
X98057142Y-87828571D01*
X98628571Y-87942857D01*
X97542857Y-88228571D02*
X97485714Y-88285714D01*
X97542857Y-88342857D01*
X97600000Y-88285714D01*
X97542857Y-88228571D01*
X97542857Y-88342857D01*
X96457142Y-87542857D02*
X96457142Y-88342857D01*
X96971428Y-87542857D02*
X96971428Y-88171428D01*
X96914285Y-88285714D01*
X96800000Y-88342857D01*
X96628571Y-88342857D01*
X96514285Y-88285714D01*
X96457142Y-88228571D01*
X95885714Y-88342857D02*
X95885714Y-87142857D01*
X95771428Y-87885714D02*
X95428571Y-88342857D01*
X95428571Y-87542857D02*
X95885714Y-88000000D01*
D12*
X102428571Y-114573809D02*
X102404761Y-114550000D01*
X102357142Y-114526190D01*
X102238095Y-114526190D01*
X102190476Y-114550000D01*
X102166666Y-114573809D01*
X102142857Y-114621428D01*
X102142857Y-114669047D01*
X102166666Y-114740476D01*
X102452380Y-115026190D01*
X102142857Y-115026190D01*
X101833333Y-114526190D02*
X101785714Y-114526190D01*
X101738095Y-114550000D01*
X101714285Y-114573809D01*
X101690476Y-114621428D01*
X101666666Y-114716666D01*
X101666666Y-114835714D01*
X101690476Y-114930952D01*
X101714285Y-114978571D01*
X101738095Y-115002380D01*
X101785714Y-115026190D01*
X101833333Y-115026190D01*
X101880952Y-115002380D01*
X101904761Y-114978571D01*
X101928571Y-114930952D01*
X101952380Y-114835714D01*
X101952380Y-114716666D01*
X101928571Y-114621428D01*
X101904761Y-114573809D01*
X101880952Y-114550000D01*
X101833333Y-114526190D01*
X101476190Y-114573809D02*
X101452380Y-114550000D01*
X101404761Y-114526190D01*
X101285714Y-114526190D01*
X101238095Y-114550000D01*
X101214285Y-114573809D01*
X101190476Y-114621428D01*
X101190476Y-114669047D01*
X101214285Y-114740476D01*
X101500000Y-115026190D01*
X101190476Y-115026190D01*
X101000000Y-114573809D02*
X100976190Y-114550000D01*
X100928571Y-114526190D01*
X100809523Y-114526190D01*
X100761904Y-114550000D01*
X100738095Y-114573809D01*
X100714285Y-114621428D01*
X100714285Y-114669047D01*
X100738095Y-114740476D01*
X101023809Y-115026190D01*
X100714285Y-115026190D01*
X100500000Y-114835714D02*
X100119047Y-114835714D01*
X99785714Y-114526190D02*
X99738095Y-114526190D01*
X99690476Y-114550000D01*
X99666666Y-114573809D01*
X99642857Y-114621428D01*
X99619047Y-114716666D01*
X99619047Y-114835714D01*
X99642857Y-114930952D01*
X99666666Y-114978571D01*
X99690476Y-115002380D01*
X99738095Y-115026190D01*
X99785714Y-115026190D01*
X99833333Y-115002380D01*
X99857142Y-114978571D01*
X99880952Y-114930952D01*
X99904761Y-114835714D01*
X99904761Y-114716666D01*
X99880952Y-114621428D01*
X99857142Y-114573809D01*
X99833333Y-114550000D01*
X99785714Y-114526190D01*
X99142857Y-115026190D02*
X99428571Y-115026190D01*
X99285714Y-115026190D02*
X99285714Y-114526190D01*
X99333333Y-114597619D01*
X99380952Y-114645238D01*
X99428571Y-114669047D01*
X98928571Y-114835714D02*
X98547619Y-114835714D01*
X98214285Y-114526190D02*
X98166666Y-114526190D01*
X98119047Y-114550000D01*
X98095238Y-114573809D01*
X98071428Y-114621428D01*
X98047619Y-114716666D01*
X98047619Y-114835714D01*
X98071428Y-114930952D01*
X98095238Y-114978571D01*
X98119047Y-115002380D01*
X98166666Y-115026190D01*
X98214285Y-115026190D01*
X98261904Y-115002380D01*
X98285714Y-114978571D01*
X98309523Y-114930952D01*
X98333333Y-114835714D01*
X98333333Y-114716666D01*
X98309523Y-114621428D01*
X98285714Y-114573809D01*
X98261904Y-114550000D01*
X98214285Y-114526190D01*
X97571428Y-115026190D02*
X97857142Y-115026190D01*
X97714285Y-115026190D02*
X97714285Y-114526190D01*
X97761904Y-114597619D01*
X97809523Y-114645238D01*
X97857142Y-114669047D01*
D13*
%TO.C,A1*%
X109714285Y-82654761D02*
X109714285Y-80654761D01*
X108571428Y-82654761D01*
X108571428Y-80654761D01*
X106952380Y-81607142D02*
X107619047Y-81607142D01*
X107619047Y-82654761D02*
X107619047Y-80654761D01*
X106666666Y-80654761D01*
X104761904Y-82464285D02*
X104857142Y-82559523D01*
X105142857Y-82654761D01*
X105333333Y-82654761D01*
X105619047Y-82559523D01*
X105809523Y-82369047D01*
X105904761Y-82178571D01*
X106000000Y-81797619D01*
X106000000Y-81511904D01*
X105904761Y-81130952D01*
X105809523Y-80940476D01*
X105619047Y-80750000D01*
X105333333Y-80654761D01*
X105142857Y-80654761D01*
X104857142Y-80750000D01*
X104761904Y-80845238D01*
X102476190Y-82083333D02*
X101523809Y-82083333D01*
X102666666Y-82654761D02*
X102000000Y-80654761D01*
X101333333Y-82654761D01*
X100666666Y-82654761D02*
X100666666Y-80654761D01*
X99523809Y-82654761D01*
X99523809Y-80654761D01*
X98857142Y-80654761D02*
X97714285Y-80654761D01*
X98285714Y-82654761D02*
X98285714Y-80654761D01*
X97047619Y-81607142D02*
X96380952Y-81607142D01*
X96095238Y-82654761D02*
X97047619Y-82654761D01*
X97047619Y-80654761D01*
X96095238Y-80654761D01*
X95238095Y-82654761D02*
X95238095Y-80654761D01*
X94095238Y-82654761D01*
X94095238Y-80654761D01*
X93142857Y-82654761D02*
X93142857Y-80654761D01*
X92000000Y-82654761D01*
X92000000Y-80654761D01*
X91142857Y-82083333D02*
X90190476Y-82083333D01*
X91333333Y-82654761D02*
X90666666Y-80654761D01*
X90000000Y-82654761D01*
X82654761Y-90285714D02*
X80654761Y-90285714D01*
X82654761Y-91428571D01*
X80654761Y-91428571D01*
X81607142Y-93047619D02*
X81607142Y-92380952D01*
X82654761Y-92380952D02*
X80654761Y-92380952D01*
X80654761Y-93333333D01*
X82464285Y-95238095D02*
X82559523Y-95142857D01*
X82654761Y-94857142D01*
X82654761Y-94666666D01*
X82559523Y-94380952D01*
X82369047Y-94190476D01*
X82178571Y-94095238D01*
X81797619Y-94000000D01*
X81511904Y-94000000D01*
X81130952Y-94095238D01*
X80940476Y-94190476D01*
X80750000Y-94380952D01*
X80654761Y-94666666D01*
X80654761Y-94857142D01*
X80750000Y-95142857D01*
X80845238Y-95238095D01*
X82083333Y-97523809D02*
X82083333Y-98476190D01*
X82654761Y-97333333D02*
X80654761Y-98000000D01*
X82654761Y-98666666D01*
X82654761Y-99333333D02*
X80654761Y-99333333D01*
X82654761Y-100476190D01*
X80654761Y-100476190D01*
X80654761Y-101142857D02*
X80654761Y-102285714D01*
X82654761Y-101714285D02*
X80654761Y-101714285D01*
X81607142Y-102952380D02*
X81607142Y-103619047D01*
X82654761Y-103904761D02*
X82654761Y-102952380D01*
X80654761Y-102952380D01*
X80654761Y-103904761D01*
X82654761Y-104761904D02*
X80654761Y-104761904D01*
X82654761Y-105904761D01*
X80654761Y-105904761D01*
X82654761Y-106857142D02*
X80654761Y-106857142D01*
X82654761Y-108000000D01*
X80654761Y-108000000D01*
X82083333Y-108857142D02*
X82083333Y-109809523D01*
X82654761Y-108666666D02*
X80654761Y-109333333D01*
X82654761Y-110000000D01*
X117345238Y-109714285D02*
X119345238Y-109714285D01*
X117345238Y-108571428D01*
X119345238Y-108571428D01*
X118392857Y-106952380D02*
X118392857Y-107619047D01*
X117345238Y-107619047D02*
X119345238Y-107619047D01*
X119345238Y-106666666D01*
X117535714Y-104761904D02*
X117440476Y-104857142D01*
X117345238Y-105142857D01*
X117345238Y-105333333D01*
X117440476Y-105619047D01*
X117630952Y-105809523D01*
X117821428Y-105904761D01*
X118202380Y-106000000D01*
X118488095Y-106000000D01*
X118869047Y-105904761D01*
X119059523Y-105809523D01*
X119250000Y-105619047D01*
X119345238Y-105333333D01*
X119345238Y-105142857D01*
X119250000Y-104857142D01*
X119154761Y-104761904D01*
X117916666Y-102476190D02*
X117916666Y-101523809D01*
X117345238Y-102666666D02*
X119345238Y-102000000D01*
X117345238Y-101333333D01*
X117345238Y-100666666D02*
X119345238Y-100666666D01*
X117345238Y-99523809D01*
X119345238Y-99523809D01*
X119345238Y-98857142D02*
X119345238Y-97714285D01*
X117345238Y-98285714D02*
X119345238Y-98285714D01*
X118392857Y-97047619D02*
X118392857Y-96380952D01*
X117345238Y-96095238D02*
X117345238Y-97047619D01*
X119345238Y-97047619D01*
X119345238Y-96095238D01*
X117345238Y-95238095D02*
X119345238Y-95238095D01*
X117345238Y-94095238D01*
X119345238Y-94095238D01*
X117345238Y-93142857D02*
X119345238Y-93142857D01*
X117345238Y-92000000D01*
X119345238Y-92000000D01*
X117916666Y-91142857D02*
X117916666Y-90190476D01*
X117345238Y-91333333D02*
X119345238Y-90666666D01*
X117345238Y-90000000D01*
D10*
X116500000Y-112000000D02*
X116500000Y-88000000D01*
X112000000Y-83500000D02*
X88000000Y-83500000D01*
X112000000Y-116500000D02*
X88000000Y-116500000D01*
X83500000Y-88000000D02*
X83500000Y-112000000D01*
X83500000Y-112000000D02*
G75*
G03*
X88000000Y-116500000I4499998J-2D01*
G01*
X116500000Y-88000000D02*
G75*
G03*
X112000000Y-83500000I-4499998J2D01*
G01*
X112000000Y-116500000D02*
G75*
G03*
X116500000Y-112000000I2J4499998D01*
G01*
X88000000Y-83500000D02*
G75*
G03*
X83500000Y-88000000I-2J-4499998D01*
G01*
%TO.C,J2*%
X97460000Y-110670000D02*
X97460000Y-113330000D01*
X105140000Y-110670000D02*
X105140000Y-113330000D01*
X96190000Y-110670000D02*
X94860000Y-110670000D01*
X97460000Y-113330000D02*
X105140000Y-113330000D01*
X97460000Y-110670000D02*
X105140000Y-110670000D01*
X94860000Y-110670000D02*
X94860000Y-112000000D01*
%TD*%
M02*
