%TF.GenerationSoftware,KiCad,Pcbnew,(6.0.0-0)*%
%TF.CreationDate,2022-01-01T10:49:55+00:00*%
%TF.ProjectId,PN532,504e3533-322e-46b6-9963-61645f706362,7*%
%TF.SameCoordinates,Original*%
%TF.FileFunction,Copper,L1,Top*%
%TF.FilePolarity,Positive*%
%FSLAX46Y46*%
G04 Gerber Fmt 4.6, Leading zero omitted, Abs format (unit mm)*
G04 Created by KiCad (PCBNEW (6.0.0-0)) date 2022-01-01 10:49:55*
%MOMM*%
%LPD*%
G01*
G04 APERTURE LIST*
G04 Aperture macros list*
%AMRoundRect*
0 Rectangle with rounded corners*
0 $1 Rounding radius*
0 $2 $3 $4 $5 $6 $7 $8 $9 X,Y pos of 4 corners*
0 Add a 4 corners polygon primitive as box body*
4,1,4,$2,$3,$4,$5,$6,$7,$8,$9,$2,$3,0*
0 Add four circle primitives for the rounded corners*
1,1,$1+$1,$2,$3*
1,1,$1+$1,$4,$5*
1,1,$1+$1,$6,$7*
1,1,$1+$1,$8,$9*
0 Add four rect primitives between the rounded corners*
20,1,$1+$1,$2,$3,$4,$5,0*
20,1,$1+$1,$4,$5,$6,$7,0*
20,1,$1+$1,$6,$7,$8,$9,0*
20,1,$1+$1,$8,$9,$2,$3,0*%
%AMFreePoly0*
4,1,6,2.200000,-2.200000,-2.200000,-2.200000,-2.200000,1.800000,-1.800000,2.200000,2.200000,2.200000,2.200000,-2.200000,2.200000,-2.200000,$1*%
%AMFreePoly1*
4,1,20,0.000000,0.744959,0.073905,0.744508,0.209726,0.703889,0.328688,0.626782,0.421226,0.519385,0.479903,0.390333,0.500000,0.250000,0.500000,-0.250000,0.499851,-0.262216,0.476331,-0.402017,0.414519,-0.529596,0.319384,-0.634700,0.198574,-0.708877,0.061801,-0.746166,0.000000,-0.745033,0.000000,-0.750000,-0.550000,-0.750000,-0.550000,0.750000,0.000000,0.750000,0.000000,0.744959,
0.000000,0.744959,$1*%
%AMFreePoly2*
4,1,22,0.550000,-0.750000,0.000000,-0.750000,0.000000,-0.745033,-0.079941,-0.743568,-0.215256,-0.701293,-0.333266,-0.622738,-0.424486,-0.514219,-0.481581,-0.384460,-0.499164,-0.250000,-0.500000,-0.250000,-0.500000,0.250000,-0.499164,0.250000,-0.499963,0.256109,-0.478152,0.396186,-0.417904,0.524511,-0.324060,0.630769,-0.204165,0.706417,-0.067858,0.745374,0.000000,0.744959,0.000000,0.750000,
0.550000,0.750000,0.550000,-0.750000,0.550000,-0.750000,$1*%
%AMFreePoly3*
4,1,107,3.020143,4.318279,3.052035,4.313655,3.054455,4.311555,3.057598,4.310939,3.080854,4.288647,3.105189,4.267530,3.106091,4.264456,3.108403,4.262240,3.115931,4.230914,3.125000,4.200000,3.125000,2.425745,4.707088,4.183621,4.734664,4.206565,4.802589,4.224973,4.869695,4.203767,4.914709,4.149670,4.923362,4.079827,4.892912,4.016380,3.166360,2.097988,4.894907,0.081349,
4.914103,0.051044,4.923595,-0.018688,4.893910,-0.082498,4.834458,-0.120157,4.764082,-0.119728,4.705093,-0.081349,3.125000,1.762093,3.125000,0.000000,3.108187,-0.170704,3.058395,-0.334848,2.977536,-0.486124,2.868718,-0.618718,2.736124,-0.727536,2.584848,-0.808395,2.420704,-0.858187,2.250000,-0.875000,2.079296,-0.858187,1.915152,-0.808395,1.763876,-0.727536,1.631282,-0.618718,
1.522464,-0.486124,1.441605,-0.334848,1.391813,-0.170704,1.375000,0.000000,1.391747,0.062500,1.437500,0.108253,1.500000,0.125000,1.562500,0.108253,1.608253,0.062500,1.625000,0.000000,1.621841,-0.011788,1.638705,-0.150671,1.692526,-0.292585,1.778745,-0.417495,1.892352,-0.518142,2.026744,-0.588677,2.174111,-0.625000,2.325889,-0.625000,2.473256,-0.588677,2.607648,-0.518142,
2.721255,-0.417495,2.807474,-0.292585,2.861295,-0.150671,2.878159,-0.011788,2.875000,0.000000,2.875000,1.975000,1.564328,1.975000,0.101717,-0.072655,0.076892,-0.098552,0.069123,-0.101630,0.062500,-0.108253,0.031313,-0.116610,0.011465,-0.124473,0.005979,-0.123398,0.000000,-0.125000,-0.038536,-0.114674,-0.057598,-0.110939,-0.059585,-0.109034,-0.062500,-0.108253,-0.108253,-0.062500,
-0.108295,-0.062344,-0.108403,-0.062240,-0.109101,-0.059334,-0.119992,-0.018688,-0.125000,0.000000,-0.124135,0.003228,-0.124847,0.006188,-0.118303,0.024992,-0.108253,0.062500,-0.103649,0.067104,-0.101717,0.072655,1.435672,2.225000,1.742899,2.225000,2.875000,2.225000,2.875000,3.809941,1.742899,2.225000,1.435672,2.225000,2.898283,4.272655,2.916218,4.291365,2.918322,4.294624,
2.920130,4.295446,2.923107,4.298552,2.953060,4.310419,2.982387,4.323753,2.985557,4.323293,2.988535,4.324473,3.020143,4.318279,3.020143,4.318279,$1*%
%AMFreePoly4*
4,1,396,-4.956425,16.741333,-4.912740,16.749390,-4.912734,16.749389,-4.427032,16.723679,-3.944794,16.660277,-3.468947,16.559567,-3.002372,16.422158,-2.547896,16.248883,-2.108270,16.040791,-1.686157,15.799143,-1.284114,15.525402,-0.904575,15.221225,-0.549840,14.888456,-0.222055,14.529109,0.076793,14.145360,0.344894,13.739534,0.580626,13.314089,0.782559,12.871601,0.949472,12.414750,1.080354,11.946302,
1.174411,11.469095,1.231074,10.986020,1.250000,10.500000,1.250000,-14.500002,1.232524,-14.967065,1.180193,-15.431516,1.093299,-15.890758,0.972330,-16.342222,0.817961,-16.783383,0.631055,-17.211775,0.412658,-17.625001,0.163992,-18.020752,-0.113554,-18.396812,-0.418426,-18.751081,-0.748921,-19.081575,-1.103189,-19.386448,-1.479250,-19.663993,-1.875000,-19.912659,-2.288227,-20.131056,-2.716619,-20.317961,
-3.157780,-20.472330,-3.609244,-20.593300,-4.068486,-20.680193,-4.532937,-20.732524,-5.000000,-20.750000,-29.000002,-20.750000,-29.467065,-20.732524,-29.931516,-20.680193,-30.390758,-20.593299,-30.842222,-20.472330,-31.283383,-20.317961,-31.711775,-20.131055,-32.125001,-19.912658,-32.520752,-19.663992,-32.896812,-19.386446,-33.251081,-19.081574,-33.581575,-18.751079,-33.886448,-18.396811,-34.163993,-18.020750,-34.412659,-17.625000,
-34.631056,-17.211773,-34.817961,-16.783381,-34.972330,-16.342220,-35.093300,-15.890756,-35.180193,-15.431514,-35.232524,-14.967063,-35.250000,-14.500000,-35.250000,9.500002,-35.232524,9.967065,-35.180193,10.431516,-35.093299,10.890758,-34.972330,11.342222,-34.817961,11.783383,-34.631055,12.211775,-34.412658,12.625001,-34.163992,13.020752,-33.886446,13.396812,-33.581574,13.751081,-33.251079,14.081575,-32.896811,14.386448,
-32.520750,14.663993,-32.125000,14.912659,-31.711773,15.131056,-31.283381,15.317961,-30.842220,15.472330,-30.390756,15.593300,-29.931514,15.680193,-29.467063,15.732524,-29.000000,15.750000,-5.000000,15.750000,-4.566458,15.732069,-4.135878,15.678397,-3.711201,15.589351,-3.295328,15.465541,-2.891099,15.307810,-2.501276,15.117237,-2.128522,14.895124,-1.775383,14.642988,-1.444272,14.362551,-1.137449,14.055728,
-0.857012,13.724617,-0.604876,13.371478,-0.382763,12.998724,-0.192190,12.608901,-0.034459,12.204672,0.089351,11.788799,0.178397,11.364122,0.232069,10.933542,0.250000,10.500000,0.250000,-0.600000,-0.250000,-0.600000,-0.250000,10.500000,-0.246289,10.518656,-0.263567,10.914384,-0.317707,11.325615,-0.407482,11.730562,-0.532208,12.126143,-0.690937,12.509349,-0.882461,12.877263,-1.105321,13.227084,
-1.357823,13.556150,-1.638043,13.861957,-1.943850,14.142177,-2.272916,14.394679,-2.622738,14.617539,-2.990651,14.809063,-3.373857,14.967792,-3.769438,15.092518,-4.174385,15.182293,-4.585616,15.236433,-4.981344,15.253711,-5.000000,15.250000,-29.000000,15.250000,-29.018623,15.253704,-29.451488,15.236697,-29.900192,15.183590,-30.343346,15.095441,-30.778218,14.972794,-31.202127,14.816406,-31.612459,14.627241,
-32.006684,14.406464,-32.382372,14.155437,-32.737207,13.875708,-33.069000,13.569002,-33.375707,13.237208,-33.655436,12.882374,-33.906463,12.506686,-34.127240,12.112461,-34.316405,11.702129,-34.472794,11.278220,-34.595440,10.843348,-34.683589,10.400194,-34.736697,9.951490,-34.753704,9.518625,-34.750000,9.500002,-34.750000,-14.500000,-34.753704,-14.518623,-34.736697,-14.951488,-34.683590,-15.400192,-34.595441,-15.843346,
-34.472794,-16.278218,-34.316406,-16.702127,-34.127241,-17.112459,-33.906464,-17.506684,-33.655437,-17.882372,-33.375708,-18.237207,-33.069002,-18.569000,-32.737208,-18.875707,-32.382374,-19.155436,-32.006686,-19.406463,-31.612461,-19.627240,-31.202129,-19.816405,-30.778220,-19.972794,-30.343348,-20.095440,-29.900194,-20.183589,-29.451490,-20.236697,-29.018625,-20.253704,-29.000002,-20.250000,-5.000000,-20.250000,-4.981377,-20.253704,
-4.548512,-20.236697,-4.099808,-20.183590,-3.656654,-20.095441,-3.221782,-19.972794,-2.797873,-19.816406,-2.387541,-19.627241,-1.993316,-19.406464,-1.617628,-19.155437,-1.262793,-18.875708,-0.931000,-18.569002,-0.624293,-18.237208,-0.344564,-17.882374,-0.093537,-17.506686,0.127240,-17.112461,0.316405,-16.702129,0.472794,-16.278220,0.595440,-15.843348,0.683589,-15.400194,0.736697,-14.951490,0.753704,-14.518625,
0.750000,-14.500002,0.750000,10.500000,0.753619,10.518196,0.736903,10.947474,0.684733,11.392239,0.598136,11.831599,0.477634,12.262895,0.323959,12.683515,0.138040,13.090910,-0.078996,13.482615,-0.325835,13.856256,-0.600982,14.209570,-0.902771,14.540418,-1.229373,14.846796,-1.578812,15.126849,-1.948970,15.378881,-2.337606,15.601365,-2.742366,15.792953,-3.160799,15.952486,-3.590371,16.078997,
-4.028480,16.171720,-4.472473,16.230094,-4.901478,16.252803,-4.919720,16.249438,-4.959806,16.257995,-5.000000,16.250000,-29.000000,16.250000,-29.019536,16.253886,-29.501413,16.235976,-30.000060,16.180169,-30.493188,16.087501,-30.978076,15.958483,-31.452050,15.793825,-31.912492,15.594438,-32.356863,15.361420,-32.782711,15.096059,-33.187684,14.799818,-33.569550,14.474332,-33.926201,14.121397,-34.255668,13.742961,
-34.556134,13.341111,-34.825940,12.918066,-35.063598,12.476159,-35.267796,12.017830,-35.437408,11.545607,-35.571497,11.062096,-35.669325,10.569966,-35.730350,10.071931,-35.753305,9.590269,-35.749624,9.570692,-35.757035,9.535370,-35.750000,9.500000,-35.750000,-14.500000,-35.753886,-14.519536,-35.735976,-15.001413,-35.680169,-15.500060,-35.587501,-15.993188,-35.458483,-16.478076,-35.293825,-16.952050,-35.094438,-17.412492,
-34.861420,-17.856863,-34.596059,-18.282711,-34.299818,-18.687684,-33.974332,-19.069550,-33.621397,-19.426201,-33.242961,-19.755668,-32.841111,-20.056134,-32.418066,-20.325940,-31.976159,-20.563598,-31.517830,-20.767796,-31.045607,-20.937408,-30.562096,-21.071497,-30.069966,-21.169325,-29.571931,-21.230350,-29.090269,-21.253305,-29.070692,-21.249624,-29.035370,-21.257035,-29.000000,-21.250000,-5.000000,-21.250000,-4.980464,-21.253886,
-4.498587,-21.235976,-3.999940,-21.180169,-3.506812,-21.087501,-3.021924,-20.958483,-2.547950,-20.793825,-2.087508,-20.594438,-1.643137,-20.361420,-1.217289,-20.096059,-0.812316,-19.799818,-0.430450,-19.474332,-0.073799,-19.121397,0.255668,-18.742961,0.556134,-18.341111,0.825940,-17.918066,1.063598,-17.476159,1.267796,-17.017830,1.437408,-16.545607,1.571497,-16.062096,1.669325,-15.569966,1.730350,-15.071931,
1.753305,-14.590269,1.749624,-14.570692,1.757035,-14.535370,1.750000,-14.500000,1.750000,-2.500000,1.769030,-2.404329,1.823223,-2.323223,1.904329,-2.269030,2.000000,-2.250000,2.095671,-2.269030,2.176777,-2.323223,2.230970,-2.404329,2.250000,-2.500000,2.250000,-14.500000,2.242453,-14.537942,2.249596,-14.575928,2.249595,-14.575934,2.225990,-15.089475,2.166051,-15.600059,2.070081,-16.105111,
1.938561,-16.602092,1.772155,-17.088504,1.571697,-17.561901,1.338196,-18.019903,1.072826,-18.460206,0.776922,-18.880597,0.451971,-19.278962,0.099606,-19.653298,-0.278399,-20.001723,-0.680145,-20.322485,-1.103612,-20.613971,-1.546670,-20.874715,-2.007091,-21.103407,-2.482562,-21.298896,-2.970690,-21.460200,-3.469021,-21.586508,-3.975051,-21.677184,-4.486234,-21.731772,-4.999994,-21.749999,-5.000000,-21.750000,
-29.000000,-21.750000,-29.037942,-21.742453,-29.075928,-21.749596,-29.075934,-21.749595,-29.589475,-21.725990,-30.100059,-21.666051,-30.605111,-21.570081,-31.102092,-21.438561,-31.588504,-21.272155,-32.061901,-21.071697,-32.519903,-20.838196,-32.960206,-20.572826,-33.380597,-20.276922,-33.778962,-19.951971,-34.153298,-19.599606,-34.501723,-19.221601,-34.822485,-18.819855,-35.113971,-18.396388,-35.374715,-17.953330,-35.603407,-17.492909,
-35.798896,-17.017438,-35.960200,-16.529310,-36.086508,-16.030979,-36.177184,-15.524949,-36.231772,-15.013766,-36.249999,-14.500006,-36.250000,-14.500000,-36.250000,9.500000,-36.242453,9.537942,-36.249596,9.575928,-36.249595,9.575934,-36.225990,10.089475,-36.166051,10.600059,-36.070081,11.105111,-35.938561,11.602092,-35.772155,12.088504,-35.571697,12.561901,-35.338196,13.019903,-35.072826,13.460206,-34.776922,13.880597,
-34.451971,14.278962,-34.099606,14.653298,-33.721601,15.001723,-33.319855,15.322485,-32.896388,15.613971,-32.453330,15.874715,-31.992909,16.103407,-31.517438,16.298896,-31.029310,16.460200,-30.530979,16.586508,-30.024949,16.677184,-29.513766,16.731772,-29.000006,16.749999,-29.000000,16.750000,-5.000000,16.750000,-4.956425,16.741333,-4.956425,16.741333,$1*%
G04 Aperture macros list end*
%ADD10C,0.100000*%
%TA.AperFunction,NonConductor*%
%ADD11C,0.100000*%
%TD*%
%TA.AperFunction,SMDPad,CuDef*%
%ADD12R,1.150000X1.900000*%
%TD*%
%TA.AperFunction,ComponentPad*%
%ADD13C,3.200000*%
%TD*%
%TA.AperFunction,SMDPad,CuDef*%
%ADD14RoundRect,0.125000X0.625000X-0.125000X0.625000X0.125000X-0.625000X0.125000X-0.625000X-0.125000X0*%
%TD*%
%TA.AperFunction,ComponentPad*%
%ADD15C,2.000000*%
%TD*%
%TA.AperFunction,SMDPad,CuDef*%
%ADD16R,1.300000X2.000000*%
%TD*%
%TA.AperFunction,SMDPad,CuDef*%
%ADD17RoundRect,0.225000X-0.225000X-0.250000X0.225000X-0.250000X0.225000X0.250000X-0.225000X0.250000X0*%
%TD*%
%TA.AperFunction,SMDPad,CuDef*%
%ADD18RoundRect,0.225000X0.250000X-0.225000X0.250000X0.225000X-0.250000X0.225000X-0.250000X-0.225000X0*%
%TD*%
%TA.AperFunction,SMDPad,CuDef*%
%ADD19RoundRect,0.200000X-0.200000X-0.275000X0.200000X-0.275000X0.200000X0.275000X-0.200000X0.275000X0*%
%TD*%
%TA.AperFunction,SMDPad,CuDef*%
%ADD20RoundRect,0.225000X-0.250000X0.225000X-0.250000X-0.225000X0.250000X-0.225000X0.250000X0.225000X0*%
%TD*%
%TA.AperFunction,SMDPad,CuDef*%
%ADD21RoundRect,0.225000X0.225000X0.250000X-0.225000X0.250000X-0.225000X-0.250000X0.225000X-0.250000X0*%
%TD*%
%TA.AperFunction,SMDPad,CuDef*%
%ADD22RoundRect,0.200000X0.275000X-0.200000X0.275000X0.200000X-0.275000X0.200000X-0.275000X-0.200000X0*%
%TD*%
%TA.AperFunction,SMDPad,CuDef*%
%ADD23RoundRect,0.062500X-0.062500X0.287500X-0.062500X-0.287500X0.062500X-0.287500X0.062500X0.287500X0*%
%TD*%
%TA.AperFunction,SMDPad,CuDef*%
%ADD24RoundRect,0.062500X-0.287500X0.062500X-0.287500X-0.062500X0.287500X-0.062500X0.287500X0.062500X0*%
%TD*%
%TA.AperFunction,SMDPad,CuDef*%
%ADD25FreePoly0,270.000000*%
%TD*%
%TA.AperFunction,ComponentPad*%
%ADD26C,0.350000*%
%TD*%
%TA.AperFunction,ComponentPad*%
%ADD27R,1.700000X1.700000*%
%TD*%
%TA.AperFunction,ComponentPad*%
%ADD28O,1.700000X1.700000*%
%TD*%
%TA.AperFunction,ComponentPad*%
%ADD29RoundRect,0.250000X-0.600000X-0.675000X0.600000X-0.675000X0.600000X0.675000X-0.600000X0.675000X0*%
%TD*%
%TA.AperFunction,ComponentPad*%
%ADD30O,1.700000X1.850000*%
%TD*%
%TA.AperFunction,ComponentPad*%
%ADD31C,1.200000*%
%TD*%
%TA.AperFunction,SMDPad,CuDef*%
%ADD32FreePoly1,0.000000*%
%TD*%
%TA.AperFunction,SMDPad,CuDef*%
%ADD33R,1.000000X1.500000*%
%TD*%
%TA.AperFunction,SMDPad,CuDef*%
%ADD34FreePoly2,0.000000*%
%TD*%
%TA.AperFunction,SMDPad,CuDef*%
%ADD35RoundRect,0.200000X0.200000X0.275000X-0.200000X0.275000X-0.200000X-0.275000X0.200000X-0.275000X0*%
%TD*%
%TA.AperFunction,SMDPad,CuDef*%
%ADD36RoundRect,0.166600X0.636396X-0.895763X0.895763X-0.636396X-0.636396X0.895763X-0.895763X0.636396X0*%
%TD*%
%TA.AperFunction,SMDPad,CuDef*%
%ADD37RoundRect,0.242760X0.321734X-0.699668X0.699668X-0.321734X-0.321734X0.699668X-0.699668X0.321734X0*%
%TD*%
%TA.AperFunction,SMDPad,CuDef*%
%ADD38RoundRect,0.166600X-0.895763X-0.636396X-0.636396X-0.895763X0.895763X0.636396X0.636396X0.895763X0*%
%TD*%
%TA.AperFunction,SMDPad,CuDef*%
%ADD39RoundRect,0.242760X-0.699668X-0.321734X-0.321734X-0.699668X0.699668X0.321734X0.321734X0.699668X0*%
%TD*%
%TA.AperFunction,SMDPad,CuDef*%
%ADD40RoundRect,0.200000X-0.275000X0.200000X-0.275000X-0.200000X0.275000X-0.200000X0.275000X0.200000X0*%
%TD*%
%TA.AperFunction,SMDPad,CuDef*%
%ADD41R,0.650000X0.400000*%
%TD*%
%TA.AperFunction,SMDPad,CuDef*%
%ADD42R,1.400000X0.200000*%
%TD*%
%TA.AperFunction,SMDPad,CuDef*%
%ADD43R,0.200000X0.200000*%
%TD*%
%TA.AperFunction,SMDPad,CuDef*%
%ADD44R,0.200000X0.400000*%
%TD*%
%TA.AperFunction,SMDPad,CuDef*%
%ADD45R,0.200000X1.200000*%
%TD*%
%TA.AperFunction,SMDPad,CuDef*%
%ADD46R,0.600000X0.600000*%
%TD*%
%TA.AperFunction,SMDPad,CuDef*%
%ADD47R,0.400000X0.200000*%
%TD*%
%TA.AperFunction,SMDPad,CuDef*%
%ADD48R,0.200000X0.600000*%
%TD*%
%TA.AperFunction,SMDPad,CuDef*%
%ADD49R,1.000000X0.200000*%
%TD*%
%TA.AperFunction,SMDPad,CuDef*%
%ADD50R,0.600000X0.200000*%
%TD*%
%TA.AperFunction,SMDPad,CuDef*%
%ADD51R,0.800000X0.200000*%
%TD*%
%TA.AperFunction,SMDPad,CuDef*%
%ADD52R,0.400000X0.600000*%
%TD*%
%TA.AperFunction,SMDPad,CuDef*%
%ADD53R,0.200000X0.800000*%
%TD*%
%TA.AperFunction,SMDPad,CuDef*%
%ADD54FreePoly3,0.000000*%
%TD*%
%TA.AperFunction,ComponentPad*%
%ADD55C,0.600000*%
%TD*%
%TA.AperFunction,SMDPad,CuDef*%
%ADD56FreePoly4,90.000000*%
%TD*%
%TA.AperFunction,SMDPad,CuDef*%
%ADD57R,1.500000X0.500000*%
%TD*%
%TA.AperFunction,ViaPad*%
%ADD58C,0.800000*%
%TD*%
%TA.AperFunction,Conductor*%
%ADD59C,0.500000*%
%TD*%
%TA.AperFunction,Conductor*%
%ADD60C,0.250000*%
%TD*%
G04 APERTURE END LIST*
D10*
D11*
X91828571Y-114414285D02*
X91800000Y-114385714D01*
X91771428Y-114328571D01*
X91771428Y-114185714D01*
X91800000Y-114128571D01*
X91828571Y-114100000D01*
X91885714Y-114071428D01*
X91942857Y-114071428D01*
X92028571Y-114100000D01*
X92371428Y-114442857D01*
X92371428Y-114071428D01*
X91771428Y-113700000D02*
X91771428Y-113642857D01*
X91800000Y-113585714D01*
X91828571Y-113557142D01*
X91885714Y-113528571D01*
X92000000Y-113500000D01*
X92142857Y-113500000D01*
X92257142Y-113528571D01*
X92314285Y-113557142D01*
X92342857Y-113585714D01*
X92371428Y-113642857D01*
X92371428Y-113700000D01*
X92342857Y-113757142D01*
X92314285Y-113785714D01*
X92257142Y-113814285D01*
X92142857Y-113842857D01*
X92000000Y-113842857D01*
X91885714Y-113814285D01*
X91828571Y-113785714D01*
X91800000Y-113757142D01*
X91771428Y-113700000D01*
X91828571Y-113271428D02*
X91800000Y-113242857D01*
X91771428Y-113185714D01*
X91771428Y-113042857D01*
X91800000Y-112985714D01*
X91828571Y-112957142D01*
X91885714Y-112928571D01*
X91942857Y-112928571D01*
X92028571Y-112957142D01*
X92371428Y-113300000D01*
X92371428Y-112928571D01*
X92371428Y-112357142D02*
X92371428Y-112700000D01*
X92371428Y-112528571D02*
X91771428Y-112528571D01*
X91857142Y-112585714D01*
X91914285Y-112642857D01*
X91942857Y-112700000D01*
X92142857Y-112100000D02*
X92142857Y-111642857D01*
X92371428Y-111042857D02*
X92371428Y-111385714D01*
X92371428Y-111214285D02*
X91771428Y-111214285D01*
X91857142Y-111271428D01*
X91914285Y-111328571D01*
X91942857Y-111385714D01*
X91828571Y-110814285D02*
X91800000Y-110785714D01*
X91771428Y-110728571D01*
X91771428Y-110585714D01*
X91800000Y-110528571D01*
X91828571Y-110500000D01*
X91885714Y-110471428D01*
X91942857Y-110471428D01*
X92028571Y-110500000D01*
X92371428Y-110842857D01*
X92371428Y-110471428D01*
X92142857Y-110214285D02*
X92142857Y-109757142D01*
X91771428Y-109528571D02*
X91771428Y-109157142D01*
X92000000Y-109357142D01*
X92000000Y-109271428D01*
X92028571Y-109214285D01*
X92057142Y-109185714D01*
X92114285Y-109157142D01*
X92257142Y-109157142D01*
X92314285Y-109185714D01*
X92342857Y-109214285D01*
X92371428Y-109271428D01*
X92371428Y-109442857D01*
X92342857Y-109500000D01*
X92314285Y-109528571D01*
X92371428Y-108585714D02*
X92371428Y-108928571D01*
X92371428Y-108757142D02*
X91771428Y-108757142D01*
X91857142Y-108814285D01*
X91914285Y-108871428D01*
X91942857Y-108928571D01*
%TO.C,JP1*%
G36*
X94250000Y-105200000D02*
G01*
X93750000Y-105200000D01*
X93750000Y-104800000D01*
X94250000Y-104800000D01*
X94250000Y-105200000D01*
G37*
G36*
X94250000Y-106000000D02*
G01*
X93750000Y-106000000D01*
X93750000Y-105600000D01*
X94250000Y-105600000D01*
X94250000Y-106000000D01*
G37*
%TD*%
D12*
%TO.P,Y1,1,1*%
%TO.N,Net-(C16-Pad1)*%
X93200000Y-98650000D03*
%TO.P,Y1,2,2*%
%TO.N,GND*%
X93200000Y-101350000D03*
%TO.P,Y1,3,3*%
%TO.N,Net-(C17-Pad1)*%
X94800000Y-101350000D03*
%TO.P,Y1,4,4*%
%TO.N,GND*%
X94800000Y-98650000D03*
%TD*%
D13*
%TO.P,H2,*%
%TO.N,*%
X88000000Y-88000000D03*
%TD*%
%TO.P,H1,*%
%TO.N,*%
X112000000Y-112000000D03*
%TD*%
D14*
%TO.P,D2,1,K*%
%TO.N,GND*%
X112000000Y-94900000D03*
%TO.P,D2,2,A*%
%TO.N,Net-(D2-Pad2)*%
X112000000Y-93100000D03*
%TD*%
%TO.P,D3,1,K*%
%TO.N,GND*%
X112000000Y-88900000D03*
%TO.P,D3,2,A*%
%TO.N,Net-(D3-Pad2)*%
X112000000Y-87100000D03*
%TD*%
D15*
%TO.P,SW1,1,1*%
%TO.N,GND*%
X90750000Y-103250000D03*
X90750000Y-96750000D03*
D16*
X90750000Y-104200000D03*
X90750000Y-95800000D03*
D15*
%TO.P,SW1,2,2*%
%TO.N,Net-(R11-Pad2)*%
X86250000Y-96750000D03*
D16*
X86250000Y-104200000D03*
D15*
X86250000Y-103250000D03*
D16*
X86250000Y-95800000D03*
%TD*%
D14*
%TO.P,D1,1,K*%
%TO.N,GND*%
X112000000Y-100900000D03*
%TO.P,D1,2,A*%
%TO.N,Net-(D1-Pad2)*%
X112000000Y-99100000D03*
%TD*%
D17*
%TO.P,C7,1*%
%TO.N,+3V3*%
X100425000Y-95350000D03*
%TO.P,C7,2*%
%TO.N,GND*%
X101975000Y-95350000D03*
%TD*%
D18*
%TO.P,C3,1*%
%TO.N,Net-(C3-Pad1)*%
X103800000Y-88300000D03*
%TO.P,C3,2*%
%TO.N,Net-(A1-Pad1)*%
X103800000Y-86750000D03*
%TD*%
D17*
%TO.P,C5,1*%
%TO.N,GND*%
X100925000Y-88275000D03*
%TO.P,C5,2*%
%TO.N,Net-(C3-Pad1)*%
X102475000Y-88275000D03*
%TD*%
D19*
%TO.P,R6,1*%
%TO.N,Net-(R6-Pad1)*%
X108175000Y-95800000D03*
%TO.P,R6,2*%
%TO.N,+5V*%
X109825000Y-95800000D03*
%TD*%
%TO.P,R4,1*%
%TO.N,Net-(C8-Pad2)*%
X93075000Y-88275000D03*
%TO.P,R4,2*%
%TO.N,Net-(C4-Pad2)*%
X94725000Y-88275000D03*
%TD*%
D20*
%TO.P,C13,1*%
%TO.N,+3V3*%
X106250000Y-98825000D03*
%TO.P,C13,2*%
%TO.N,GND*%
X106250000Y-100375000D03*
%TD*%
D17*
%TO.P,C14,1*%
%TO.N,+5V*%
X104725000Y-97300000D03*
%TO.P,C14,2*%
%TO.N,GND*%
X106275000Y-97300000D03*
%TD*%
D21*
%TO.P,C9,1*%
%TO.N,Net-(C9-Pad1)*%
X96375000Y-93850000D03*
%TO.P,C9,2*%
%TO.N,GND*%
X94825000Y-93850000D03*
%TD*%
D17*
%TO.P,C16,1*%
%TO.N,Net-(C16-Pad1)*%
X93225000Y-97500000D03*
%TO.P,C16,2*%
%TO.N,GND*%
X94775000Y-97500000D03*
%TD*%
D19*
%TO.P,R9,1*%
%TO.N,Net-(R9-Pad1)*%
X108175000Y-100300000D03*
%TO.P,R9,2*%
%TO.N,Net-(D2-Pad2)*%
X109825000Y-100300000D03*
%TD*%
%TO.P,R8,1*%
%TO.N,Net-(R8-Pad1)*%
X108175000Y-101800000D03*
%TO.P,R8,2*%
%TO.N,Net-(D1-Pad2)*%
X109825000Y-101800000D03*
%TD*%
D22*
%TO.P,R11,1*%
%TO.N,+3V3*%
X99300000Y-105975000D03*
%TO.P,R11,2*%
%TO.N,Net-(R11-Pad2)*%
X99300000Y-104325000D03*
%TD*%
D23*
%TO.P,U1,1,DVSS*%
%TO.N,GND*%
X102250000Y-97100000D03*
%TO.P,U1,2,LOADMOD*%
%TO.N,unconnected-(U1-Pad2)*%
X101750000Y-97100000D03*
%TO.P,U1,3,TVSS1*%
%TO.N,GND*%
X101250000Y-97100000D03*
%TO.P,U1,4,TX1*%
%TO.N,Net-(L1-Pad1)*%
X100750000Y-97100000D03*
%TO.P,U1,5,TVDD*%
%TO.N,+3V3*%
X100250000Y-97100000D03*
%TO.P,U1,6,TX2*%
%TO.N,Net-(L2-Pad2)*%
X99750000Y-97100000D03*
%TO.P,U1,7,TVSS2*%
%TO.N,GND*%
X99250000Y-97100000D03*
%TO.P,U1,8,AVDD*%
%TO.N,+3V3*%
X98750000Y-97100000D03*
%TO.P,U1,9,VMID*%
%TO.N,Net-(C9-Pad1)*%
X98250000Y-97100000D03*
%TO.P,U1,10,RX*%
%TO.N,Net-(C8-Pad1)*%
X97750000Y-97100000D03*
D24*
%TO.P,U1,11,AVSS*%
%TO.N,GND*%
X97100000Y-97750000D03*
%TO.P,U1,12,AUX1*%
%TO.N,unconnected-(U1-Pad12)*%
X97100000Y-98250000D03*
%TO.P,U1,13,AUX2*%
%TO.N,unconnected-(U1-Pad13)*%
X97100000Y-98750000D03*
%TO.P,U1,14,OSCIN*%
%TO.N,Net-(C16-Pad1)*%
X97100000Y-99250000D03*
%TO.P,U1,15,OSCOUT*%
%TO.N,Net-(C17-Pad1)*%
X97100000Y-99750000D03*
%TO.P,U1,16,I0*%
%TO.N,GND*%
X97100000Y-100250000D03*
%TO.P,U1,17,I1*%
%TO.N,Net-(JP1-Pad2)*%
X97100000Y-100750000D03*
%TO.P,U1,18,TESTEN*%
%TO.N,GND*%
X97100000Y-101250000D03*
%TO.P,U1,19,P35*%
%TO.N,unconnected-(U1-Pad19)*%
X97100000Y-101750000D03*
%TO.P,U1,20,NC*%
%TO.N,unconnected-(U1-Pad20)*%
X97100000Y-102250000D03*
D23*
%TO.P,U1,21,NC*%
%TO.N,unconnected-(U1-Pad21)*%
X97750000Y-102900000D03*
%TO.P,U1,22,NC*%
%TO.N,unconnected-(U1-Pad22)*%
X98250000Y-102900000D03*
%TO.P,U1,23,PVDD*%
%TO.N,+3V3*%
X98750000Y-102900000D03*
%TO.P,U1,24,P30/UART_RX*%
%TO.N,Net-(R11-Pad2)*%
X99250000Y-102900000D03*
%TO.P,U1,25,P70_IRQ*%
%TO.N,unconnected-(U1-Pad25)*%
X99750000Y-102900000D03*
%TO.P,U1,26,RSTOUT_N*%
%TO.N,unconnected-(U1-Pad26)*%
X100250000Y-102900000D03*
%TO.P,U1,27,NSS/P50_SCL/HSU_RX*%
%TO.N,Net-(C19-Pad1)*%
X100750000Y-102900000D03*
%TO.P,U1,28,MOSI/SDA/HSU_TX*%
%TO.N,Net-(D6-Pad6)*%
X101250000Y-102900000D03*
%TO.P,U1,29,MISO/P71*%
%TO.N,unconnected-(U1-Pad29)*%
X101750000Y-102900000D03*
%TO.P,U1,30,SCK/P72*%
%TO.N,Net-(D4-Pad3)*%
X102250000Y-102900000D03*
D24*
%TO.P,U1,31,P31/DBG_TX*%
%TO.N,Net-(R8-Pad1)*%
X102900000Y-102250000D03*
%TO.P,U1,32,P32_INT0*%
%TO.N,Net-(R9-Pad1)*%
X102900000Y-101750000D03*
%TO.P,U1,33,P33_INT1*%
%TO.N,Net-(R10-Pad1)*%
X102900000Y-101250000D03*
%TO.P,U1,34,P34/SIG_CLK*%
%TO.N,unconnected-(U1-Pad34)*%
X102900000Y-100750000D03*
%TO.P,U1,35,SIGOUT*%
%TO.N,unconnected-(U1-Pad35)*%
X102900000Y-100250000D03*
%TO.P,U1,36,SIGN*%
%TO.N,unconnected-(U1-Pad36)*%
X102900000Y-99750000D03*
%TO.P,U1,37,SVDD*%
%TO.N,unconnected-(U1-Pad37)*%
X102900000Y-99250000D03*
%TO.P,U1,38,RSTPD_N*%
%TO.N,Net-(R6-Pad1)*%
X102900000Y-98750000D03*
%TO.P,U1,39,DVDD*%
%TO.N,+3V3*%
X102900000Y-98250000D03*
%TO.P,U1,40,VBAT*%
%TO.N,+5V*%
X102900000Y-97750000D03*
D25*
%TO.P,U1,41,COPPER*%
%TO.N,GND*%
X100000000Y-100000000D03*
D26*
X99000000Y-99000000D03*
X100000000Y-100000000D03*
X99000000Y-101000000D03*
X101000000Y-101000000D03*
X101000000Y-99000000D03*
%TD*%
D21*
%TO.P,C17,1*%
%TO.N,Net-(C17-Pad1)*%
X94775000Y-102500000D03*
%TO.P,C17,2*%
%TO.N,GND*%
X93225000Y-102500000D03*
%TD*%
D27*
%TO.P,J1,1,Pin_1*%
%TO.N,GND*%
X112000000Y-107270000D03*
D28*
%TO.P,J1,2,Pin_2*%
%TO.N,Net-(J1-Pad2)*%
X112000000Y-104730000D03*
%TD*%
D21*
%TO.P,C12,1*%
%TO.N,+3V3*%
X98850000Y-95350000D03*
%TO.P,C12,2*%
%TO.N,GND*%
X97300000Y-95350000D03*
%TD*%
D19*
%TO.P,R5,1*%
%TO.N,Net-(C8-Pad1)*%
X93075000Y-92100000D03*
%TO.P,R5,2*%
%TO.N,Net-(C9-Pad1)*%
X94725000Y-92100000D03*
%TD*%
%TO.P,R7,1*%
%TO.N,Net-(R6-Pad1)*%
X108175000Y-97300000D03*
%TO.P,R7,2*%
%TO.N,GND*%
X109825000Y-97300000D03*
%TD*%
%TO.P,R10,1*%
%TO.N,Net-(R10-Pad1)*%
X108175000Y-98800000D03*
%TO.P,R10,2*%
%TO.N,Net-(D3-Pad2)*%
X109825000Y-98800000D03*
%TD*%
D18*
%TO.P,C18,1*%
%TO.N,+3V3*%
X97700000Y-105925000D03*
%TO.P,C18,2*%
%TO.N,GND*%
X97700000Y-104375000D03*
%TD*%
D20*
%TO.P,C11,1*%
%TO.N,+3V3*%
X104750000Y-98825000D03*
%TO.P,C11,2*%
%TO.N,GND*%
X104750000Y-100375000D03*
%TD*%
D18*
%TO.P,C8,1*%
%TO.N,Net-(C8-Pad1)*%
X93100000Y-90975000D03*
%TO.P,C8,2*%
%TO.N,Net-(C8-Pad2)*%
X93100000Y-89425000D03*
%TD*%
D29*
%TO.P,J3,1,Pin_1*%
%TO.N,GND*%
X96250000Y-108900000D03*
D30*
%TO.P,J3,2,Pin_2*%
%TO.N,+5V*%
X98750000Y-108900000D03*
%TO.P,J3,3,Pin_3*%
%TO.N,Net-(J2-Pad3)*%
X101250000Y-108900000D03*
%TO.P,J3,4,Pin_4*%
%TO.N,Net-(J2-Pad4)*%
X103750000Y-108900000D03*
%TD*%
D17*
%TO.P,C10,1*%
%TO.N,+3V3*%
X100425000Y-93850000D03*
%TO.P,C10,2*%
%TO.N,GND*%
X101975000Y-93850000D03*
%TD*%
D21*
%TO.P,C1,1*%
%TO.N,Net-(A1-Pad1)*%
X102475000Y-85900000D03*
X102475000Y-87100000D03*
%TO.P,C1,2*%
%TO.N,GND*%
X100925000Y-87100000D03*
X100925000Y-85900000D03*
%TD*%
%TO.P,C6,1*%
%TO.N,GND*%
X99075000Y-88275000D03*
%TO.P,C6,2*%
%TO.N,Net-(C4-Pad2)*%
X97525000Y-88275000D03*
%TD*%
D22*
%TO.P,R15,1*%
%TO.N,+3V3*%
X104000000Y-105975000D03*
%TO.P,R15,2*%
%TO.N,Net-(D4-Pad3)*%
X104000000Y-104325000D03*
%TD*%
D31*
%TO.P,TP1,1,1*%
%TO.N,Net-(L1-Pad1)*%
X101250000Y-92400000D03*
%TO.P,TP1,2,2*%
%TO.N,Net-(L2-Pad2)*%
X98750000Y-92400000D03*
%TD*%
D32*
%TO.P,JP1,3,B*%
%TO.N,+3V3*%
X95950000Y-105400000D03*
D33*
%TO.P,JP1,2,C*%
%TO.N,Net-(JP1-Pad2)*%
X94650000Y-105400000D03*
D34*
%TO.P,JP1,1,A*%
%TO.N,GND*%
X93350000Y-105400000D03*
%TD*%
D19*
%TO.P,R13,1*%
%TO.N,Net-(J2-Pad3)*%
X100825000Y-105900000D03*
%TO.P,R13,2*%
%TO.N,Net-(D6-Pad6)*%
X102475000Y-105900000D03*
%TD*%
D21*
%TO.P,C15,1*%
%TO.N,+3V3*%
X94675000Y-95350000D03*
%TO.P,C15,2*%
%TO.N,GND*%
X93125000Y-95350000D03*
%TD*%
D35*
%TO.P,R14,1*%
%TO.N,Net-(J2-Pad4)*%
X102475000Y-104400000D03*
%TO.P,R14,2*%
%TO.N,Net-(C19-Pad1)*%
X100825000Y-104400000D03*
%TD*%
D36*
%TO.P,L1,1,1*%
%TO.N,Net-(L1-Pad1)*%
X102542893Y-91707107D03*
D37*
X102260051Y-91989949D03*
%TO.P,L1,2,2*%
%TO.N,Net-(C3-Pad1)*%
X104239949Y-90010051D03*
D36*
X103957107Y-90292893D03*
%TD*%
D38*
%TO.P,L2,1,1*%
%TO.N,Net-(C4-Pad2)*%
X96042893Y-90292893D03*
D39*
X95760051Y-90010051D03*
%TO.P,L2,2,2*%
%TO.N,Net-(L2-Pad2)*%
X97739949Y-91989949D03*
D38*
X97457107Y-91707107D03*
%TD*%
D20*
%TO.P,C4,1*%
%TO.N,Net-(A1-Pad3)*%
X96200000Y-86750000D03*
%TO.P,C4,2*%
%TO.N,Net-(C4-Pad2)*%
X96200000Y-88300000D03*
%TD*%
D40*
%TO.P,R12,1*%
%TO.N,Net-(D4-Pad3)*%
X105600000Y-104325000D03*
%TO.P,R12,2*%
%TO.N,Net-(J1-Pad2)*%
X105600000Y-105975000D03*
%TD*%
D41*
%TO.P,D5,1,A1*%
%TO.N,GND*%
X108050000Y-93250000D03*
%TO.P,D5,2,K2*%
%TO.N,+3V3*%
X108050000Y-93900000D03*
%TO.P,D5,3,K1A2*%
%TO.N,Net-(D3-Pad2)*%
X108050000Y-94550000D03*
%TO.P,D5,4,A3*%
%TO.N,GND*%
X109950000Y-94550000D03*
%TO.P,D5,5,K4*%
%TO.N,+3V3*%
X109950000Y-93900000D03*
%TO.P,D5,6,K3A4*%
%TO.N,Net-(D2-Pad2)*%
X109950000Y-93250000D03*
%TD*%
D21*
%TO.P,C2,1*%
%TO.N,GND*%
X99075000Y-85900000D03*
X99075000Y-87100000D03*
%TO.P,C2,2*%
%TO.N,Net-(A1-Pad3)*%
X97525000Y-87100000D03*
X97525000Y-85900000D03*
%TD*%
D42*
%TO.P,U2,*%
%TO.N,*%
X89900000Y-109500000D03*
D43*
X88500000Y-109500000D03*
D44*
X88100000Y-109600000D03*
D42*
X87100000Y-109500000D03*
D45*
X90500000Y-110200000D03*
X89300000Y-110200000D03*
D43*
X88700000Y-109700000D03*
D45*
X87700000Y-110200000D03*
X86500000Y-110200000D03*
D46*
X89900000Y-110100000D03*
D43*
X88900000Y-109900000D03*
D47*
X88400000Y-109900000D03*
D46*
X87100000Y-110100000D03*
D48*
X88700000Y-110300000D03*
D47*
X88200000Y-110100000D03*
D45*
X88500000Y-111000000D03*
D44*
X88100000Y-110600000D03*
D49*
X89900000Y-110700000D03*
D48*
X88900000Y-110900000D03*
D49*
X87100000Y-110700000D03*
D43*
X88300000Y-110900000D03*
D50*
X90300000Y-111100000D03*
D51*
X89400000Y-111100000D03*
D50*
X87900000Y-111100000D03*
D44*
X86900000Y-111200000D03*
D52*
X90400000Y-111500000D03*
D53*
X89100000Y-111600000D03*
D43*
X88700000Y-111300000D03*
X88300000Y-111300000D03*
D53*
X87700000Y-111600000D03*
D43*
X87100000Y-111300000D03*
D47*
X86600000Y-111300000D03*
X90000000Y-111500000D03*
D43*
X89300000Y-111500000D03*
D44*
X88100000Y-111600000D03*
D43*
X87300000Y-111500000D03*
D44*
X90100000Y-111800000D03*
X89700000Y-111800000D03*
D43*
X88900000Y-111700000D03*
X87900000Y-111700000D03*
D44*
X87500000Y-111800000D03*
D43*
X89300000Y-111900000D03*
D50*
X88500000Y-111900000D03*
D53*
X86500000Y-112200000D03*
D50*
X88700000Y-112100000D03*
D47*
X88000000Y-112100000D03*
D44*
X87300000Y-112200000D03*
D42*
X89900000Y-112300000D03*
D48*
X88900000Y-112500000D03*
D47*
X88200000Y-112300000D03*
D48*
X87500000Y-112500000D03*
D47*
X87000000Y-112300000D03*
D45*
X90500000Y-113000000D03*
X89300000Y-113000000D03*
D43*
X88700000Y-112500000D03*
X88300000Y-112500000D03*
D48*
X87900000Y-112700000D03*
D46*
X89900000Y-112900000D03*
D48*
X88500000Y-112900000D03*
D43*
X87700000Y-112700000D03*
X87300000Y-112700000D03*
X86900000Y-112700000D03*
X86700000Y-112900000D03*
D48*
X88900000Y-113300000D03*
X88300000Y-113300000D03*
D43*
X87500000Y-113100000D03*
D48*
X86500000Y-113300000D03*
D43*
X88700000Y-113300000D03*
D44*
X88100000Y-113400000D03*
X87100000Y-113400000D03*
D43*
X86700000Y-113300000D03*
D49*
X89900000Y-113500000D03*
D43*
X87500000Y-113500000D03*
%TD*%
D17*
%TO.P,C19,1*%
%TO.N,Net-(C19-Pad1)*%
X108225000Y-108200000D03*
%TO.P,C19,2*%
%TO.N,GND*%
X109775000Y-108200000D03*
%TD*%
D41*
%TO.P,D4,1,A1*%
%TO.N,GND*%
X108050000Y-103050000D03*
%TO.P,D4,2,K2*%
%TO.N,+3V3*%
X108050000Y-103700000D03*
%TO.P,D4,3,K1A2*%
%TO.N,Net-(D4-Pad3)*%
X108050000Y-104350000D03*
%TO.P,D4,4,A3*%
%TO.N,GND*%
X109950000Y-104350000D03*
%TO.P,D4,5,K4*%
%TO.N,+3V3*%
X109950000Y-103700000D03*
%TO.P,D4,6,K3A4*%
%TO.N,Net-(D1-Pad2)*%
X109950000Y-103050000D03*
%TD*%
%TO.P,D6,1,A1*%
%TO.N,GND*%
X109950000Y-106950000D03*
%TO.P,D6,2,K2*%
%TO.N,+3V3*%
X109950000Y-106300000D03*
%TO.P,D6,3,K1A2*%
%TO.N,Net-(C19-Pad1)*%
X109950000Y-105650000D03*
%TO.P,D6,4,A3*%
%TO.N,GND*%
X108050000Y-105650000D03*
%TO.P,D6,5,K4*%
%TO.N,+3V3*%
X108050000Y-106300000D03*
%TO.P,D6,6,K3A4*%
%TO.N,Net-(D6-Pad6)*%
X108050000Y-106950000D03*
%TD*%
D54*
%TO.P,AJK1,*%
%TO.N,*%
X86100000Y-94300000D03*
%TD*%
D27*
%TO.P,J2,1,Pin_1*%
%TO.N,GND*%
X96190000Y-112000000D03*
D28*
%TO.P,J2,2,Pin_2*%
%TO.N,+5V*%
X98730000Y-112000000D03*
%TO.P,J2,3,Pin_3*%
%TO.N,Net-(J2-Pad3)*%
X101270000Y-112000000D03*
%TO.P,J2,4,Pin_4*%
%TO.N,Net-(J2-Pad4)*%
X103810000Y-112000000D03*
%TD*%
D55*
%TO.P,A1,*%
%TO.N,*%
X100000000Y-81000000D03*
D56*
X97500000Y-83000000D03*
D22*
X102000000Y-83150000D03*
D55*
X102000000Y-83000000D03*
X98000000Y-83000000D03*
D22*
X98000000Y-83150000D03*
D57*
X100000000Y-81000000D03*
D22*
%TO.P,A1,1*%
%TO.N,Net-(A1-Pad1)*%
X102000000Y-84850000D03*
D57*
%TO.P,A1,2*%
%TO.N,GND*%
X100000000Y-83000000D03*
D22*
%TO.P,A1,3*%
%TO.N,Net-(A1-Pad3)*%
X98000000Y-84850000D03*
%TD*%
D58*
%TO.N,GND*%
X112000000Y-101600000D03*
X112000000Y-95600000D03*
X95003161Y-96622158D03*
X100000000Y-91500000D03*
X109000000Y-107100000D03*
X109000000Y-105500000D03*
X94400000Y-103600000D03*
X109000000Y-102974990D03*
X103050000Y-95350000D03*
X103050000Y-93850000D03*
X106200000Y-96000000D03*
X93125000Y-93850000D03*
X106238430Y-101438430D03*
X96300000Y-103600000D03*
X96450000Y-95350000D03*
X93225000Y-103575000D03*
X110642980Y-97631700D03*
X112000000Y-89600000D03*
%TO.N,+3V3*%
X107238947Y-103740856D03*
X93800000Y-96500000D03*
X107189453Y-96509732D03*
X106246541Y-107243575D03*
X107124997Y-94740321D03*
X97700000Y-93600000D03*
X91500000Y-106000000D03*
X99151497Y-93600000D03*
%TO.N,+5V*%
X110688884Y-96374744D03*
X104725000Y-96225000D03*
X105903346Y-93571334D03*
%TO.N,Net-(D1-Pad2)*%
X110900000Y-101900000D03*
X112000000Y-98400000D03*
%TO.N,Net-(D2-Pad2)*%
X112000000Y-92400000D03*
X112000000Y-97300000D03*
%TO.N,Net-(D3-Pad2)*%
X108900000Y-94600000D03*
X112000000Y-86400000D03*
%TO.N,Net-(J1-Pad2)*%
X106700000Y-105200000D03*
%TO.N,Net-(J2-Pad4)*%
X105263126Y-107425011D03*
%TD*%
D59*
%TO.N,GND*%
X99975000Y-87125000D02*
X100000000Y-87100000D01*
X93225000Y-101375000D02*
X93200000Y-101350000D01*
X99075000Y-88275000D02*
X99950000Y-88275000D01*
D60*
X110525000Y-104350000D02*
X112000000Y-102875000D01*
D59*
X99075000Y-85925000D02*
X99975000Y-85925000D01*
X93225000Y-102500000D02*
X93225000Y-101375000D01*
D60*
X101250000Y-96975000D02*
X101250000Y-98750000D01*
D59*
X97300000Y-95350000D02*
X96450000Y-95350000D01*
D60*
X110873002Y-97300000D02*
X111525001Y-96648001D01*
X97476978Y-97750000D02*
X97526988Y-97800010D01*
D59*
X94775000Y-98625000D02*
X94800000Y-98650000D01*
X96250000Y-108900000D02*
X96250000Y-111940000D01*
X94775000Y-97500000D02*
X94775000Y-96850319D01*
D60*
X110600000Y-97300000D02*
X110873002Y-97300000D01*
X106275000Y-96225000D02*
X106275000Y-96075000D01*
X109825000Y-97300000D02*
X110600000Y-97300000D01*
X90750000Y-96750000D02*
X90750000Y-103250000D01*
X112000000Y-102875000D02*
X112000000Y-102400000D01*
X99250000Y-96975000D02*
X99250000Y-98750000D01*
D59*
X101975000Y-95350000D02*
X103050000Y-95350000D01*
D60*
X112000000Y-90200000D02*
X112000000Y-89700000D01*
X112000000Y-102400000D02*
X112000000Y-100950010D01*
X108050000Y-105650000D02*
X108850000Y-105650000D01*
D59*
X104750000Y-100375000D02*
X106250000Y-100375000D01*
X93125000Y-95350000D02*
X93125000Y-93850000D01*
D60*
X109000000Y-107100000D02*
X109000000Y-107425000D01*
D59*
X101975000Y-93850000D02*
X103050000Y-93850000D01*
D60*
X97800010Y-97800010D02*
X99000000Y-99000000D01*
X106200000Y-96000000D02*
X106200000Y-94639998D01*
X97700000Y-104375000D02*
X97075000Y-104375000D01*
X102199990Y-97526988D02*
X102199990Y-97800010D01*
X97075000Y-104375000D02*
X96300000Y-103600000D01*
X110642980Y-97342980D02*
X110600000Y-97300000D01*
X102199990Y-97800010D02*
X101000000Y-99000000D01*
D59*
X96250000Y-111940000D02*
X96190000Y-112000000D01*
D60*
X93350000Y-105400000D02*
X93350000Y-104650000D01*
X111525001Y-95825001D02*
X110250000Y-94550000D01*
X110250000Y-94550000D02*
X109950000Y-94550000D01*
X106200000Y-94639998D02*
X107589998Y-93250000D01*
X109950000Y-104350000D02*
X109256885Y-104350000D01*
X108050000Y-93250000D02*
X108950000Y-93250000D01*
D59*
X94775000Y-97500000D02*
X94775000Y-98625000D01*
D60*
X112000000Y-95600000D02*
X111750002Y-95600000D01*
X99250000Y-98750000D02*
X99000000Y-99000000D01*
X109256885Y-104350000D02*
X109000000Y-104606885D01*
X107589998Y-93250000D02*
X108050000Y-93250000D01*
X98750000Y-101250000D02*
X99000000Y-101000000D01*
X110642980Y-97631700D02*
X110642980Y-97342980D01*
X108050000Y-103050000D02*
X108924990Y-103050000D01*
D59*
X100000000Y-83000000D02*
X100000000Y-85900000D01*
D60*
X96975000Y-100250000D02*
X98250000Y-100250000D01*
X96975000Y-97750000D02*
X97476978Y-97750000D01*
D59*
X100000000Y-87100000D02*
X100000000Y-88900000D01*
D60*
X98250000Y-100250000D02*
X99000000Y-101000000D01*
D59*
X100925000Y-88275000D02*
X99950000Y-88275000D01*
X94775000Y-96850319D02*
X95003161Y-96622158D01*
D60*
X111750002Y-95600000D02*
X111525001Y-95825001D01*
X109000000Y-104606885D02*
X109000000Y-105500000D01*
D59*
X106250000Y-100375000D02*
X106250000Y-101426860D01*
X100000000Y-88900000D02*
X100000000Y-91500000D01*
X99975000Y-85925000D02*
X100000000Y-85900000D01*
D60*
X102250000Y-97476978D02*
X102199990Y-97526988D01*
X108850000Y-105650000D02*
X109000000Y-105500000D01*
X108924990Y-103050000D02*
X109000000Y-102974990D01*
D59*
X99075000Y-87125000D02*
X99975000Y-87125000D01*
X94825000Y-93850000D02*
X93125000Y-93850000D01*
X106275000Y-97300000D02*
X106275000Y-96225000D01*
D60*
X97526988Y-97800010D02*
X97800010Y-97800010D01*
X111525001Y-96648001D02*
X111525001Y-95951999D01*
X109950000Y-106950000D02*
X109150000Y-106950000D01*
X106275000Y-96075000D02*
X106200000Y-96000000D01*
X102250000Y-96975000D02*
X102250000Y-97476978D01*
X101250000Y-98750000D02*
X101000000Y-99000000D01*
D59*
X100900000Y-87100000D02*
X100000000Y-87100000D01*
D60*
X108950000Y-93250000D02*
X112000000Y-90200000D01*
X109950000Y-104350000D02*
X110525000Y-104350000D01*
X111525001Y-95951999D02*
X111525001Y-95825001D01*
D59*
X100000000Y-85900000D02*
X100000000Y-87100000D01*
X93225000Y-102500000D02*
X93225000Y-103575000D01*
D60*
X112000000Y-89700000D02*
X112000000Y-88950010D01*
X96975000Y-101250000D02*
X98750000Y-101250000D01*
D59*
X106250000Y-101426860D02*
X106238430Y-101438430D01*
D60*
X109000000Y-107425000D02*
X109775000Y-108200000D01*
D59*
X100925000Y-85925000D02*
X99975000Y-85925000D01*
D60*
X93350000Y-104650000D02*
X94400000Y-103600000D01*
X109150000Y-106950000D02*
X109000000Y-107100000D01*
X112000000Y-95600000D02*
X112000000Y-94950010D01*
D59*
%TO.N,Net-(C3-Pad1)*%
X103800000Y-88275000D02*
X103800000Y-89570102D01*
X103800000Y-88300000D02*
X102300000Y-88300000D01*
X103800000Y-89570102D02*
X104239949Y-90010051D01*
%TO.N,Net-(C4-Pad2)*%
X96175000Y-88275000D02*
X96200000Y-88300000D01*
X96200000Y-89570102D02*
X95760051Y-90010051D01*
X94725000Y-88275000D02*
X96175000Y-88275000D01*
X97525000Y-88275000D02*
X96225000Y-88275000D01*
X96200000Y-88275000D02*
X96200000Y-89570102D01*
X96225000Y-88275000D02*
X96200000Y-88300000D01*
D60*
%TO.N,+3V3*%
X108050000Y-106300000D02*
X109950000Y-106300000D01*
X95950000Y-106247592D02*
X95722582Y-106475010D01*
X95950000Y-105400000D02*
X97175000Y-105400000D01*
X107576408Y-93900000D02*
X107124997Y-94351411D01*
X107190116Y-106300000D02*
X108050000Y-106300000D01*
X91500000Y-106000000D02*
X91750000Y-106000000D01*
X98850000Y-95010732D02*
X98850000Y-95350000D01*
X98499990Y-103907532D02*
X98499990Y-104099990D01*
X100425000Y-93850000D02*
X99401497Y-93850000D01*
X98750000Y-95450000D02*
X98850000Y-95350000D01*
X93685036Y-96614964D02*
X93800000Y-96500000D01*
X91800000Y-104900000D02*
X92138736Y-104561264D01*
X97175000Y-105400000D02*
X97700000Y-105925000D01*
X95622582Y-106475010D02*
X95225010Y-106475010D01*
X107189453Y-96509732D02*
X107050010Y-96649175D01*
X104175000Y-98250000D02*
X104750000Y-98825000D01*
X107050010Y-96649175D02*
X107050010Y-98024990D01*
X98500000Y-104100000D02*
X98500000Y-105900000D01*
X91750000Y-106000000D02*
X91800000Y-105950000D01*
X103025000Y-98250000D02*
X104175000Y-98250000D01*
X107279803Y-103700000D02*
X107238947Y-103740856D01*
X92814964Y-96614964D02*
X93685036Y-96614964D01*
X99300000Y-106025000D02*
X99275000Y-106025000D01*
X98750000Y-103657522D02*
X98503761Y-103903761D01*
X98500000Y-105900000D02*
X98525000Y-105925000D01*
X98503761Y-103903761D02*
X98499990Y-103907532D01*
X95722582Y-106475010D02*
X95225010Y-106475010D01*
X94675000Y-95350000D02*
X94675000Y-95625000D01*
X108050000Y-93900000D02*
X107576408Y-93900000D01*
X98750000Y-96975000D02*
X98750000Y-95450000D01*
X99250000Y-105925000D02*
X99300000Y-105975000D01*
X97700000Y-105925000D02*
X98525000Y-105925000D01*
X107050010Y-98024990D02*
X106250000Y-98825000D01*
X100100000Y-95675000D02*
X100425000Y-95350000D01*
X94675000Y-95625000D02*
X93800000Y-96500000D01*
X100425000Y-93850000D02*
X100425000Y-95350000D01*
X104750000Y-98825000D02*
X106250000Y-98825000D01*
X92138736Y-104561264D02*
X92138736Y-97291192D01*
X92138736Y-97291192D02*
X92814964Y-96614964D01*
X98499990Y-104099990D02*
X98500000Y-104100000D01*
X105702976Y-106700010D02*
X106246541Y-107243575D01*
X98750000Y-103025000D02*
X98750000Y-103657522D01*
X95225010Y-106475010D02*
X92175010Y-106475010D01*
X108050000Y-103700000D02*
X109950000Y-103700000D01*
X108050000Y-103700000D02*
X107279803Y-103700000D01*
X107124997Y-94351411D02*
X107124997Y-94740321D01*
X97700000Y-93600000D02*
X97700000Y-93860732D01*
X100250000Y-95525000D02*
X100425000Y-95350000D01*
X92175010Y-106475010D02*
X91800000Y-106100000D01*
X106246541Y-107243575D02*
X107190116Y-106300000D01*
X98503761Y-103903761D02*
X98500000Y-103907522D01*
X91800000Y-105950000D02*
X91800000Y-104900000D01*
X98525000Y-105925000D02*
X99250000Y-105925000D01*
X108075002Y-93874998D02*
X109924998Y-93874998D01*
X100250000Y-96975000D02*
X100250000Y-95525000D01*
X99401497Y-93850000D02*
X99151497Y-93600000D01*
X91800000Y-106100000D02*
X91800000Y-105950000D01*
X95950000Y-105400000D02*
X95950000Y-106247592D01*
X104000000Y-105975000D02*
X104725010Y-106700010D01*
X104725010Y-106700010D02*
X105702976Y-106700010D01*
X97700000Y-93860732D02*
X98850000Y-95010732D01*
D59*
%TO.N,Net-(C8-Pad2)*%
X93075000Y-89400000D02*
X93100000Y-89425000D01*
X93075000Y-88250000D02*
X93075000Y-89400000D01*
%TO.N,Net-(C8-Pad1)*%
X93100000Y-90975000D02*
X93100000Y-92075000D01*
D60*
X95600000Y-93336410D02*
X95313580Y-93049990D01*
D59*
X93100000Y-92075000D02*
X93075000Y-92100000D01*
D60*
X97719999Y-96444999D02*
X95971995Y-96444999D01*
X95600000Y-96073004D02*
X95600000Y-93336410D01*
X94024990Y-93049990D02*
X93075000Y-92100000D01*
X95313580Y-93049990D02*
X94024990Y-93049990D01*
X97750000Y-96975000D02*
X97750000Y-96475000D01*
X97750000Y-96475000D02*
X97719999Y-96444999D01*
X95971995Y-96444999D02*
X95600000Y-96073004D01*
%TO.N,+5V*%
X103025000Y-97750000D02*
X104275000Y-97750000D01*
X110114140Y-95800000D02*
X110688884Y-96374744D01*
D59*
X104725000Y-97300000D02*
X104725000Y-96225000D01*
D60*
X104275000Y-97750000D02*
X104725000Y-97300000D01*
D59*
X98750000Y-108900000D02*
X98750000Y-111980000D01*
D60*
X104725000Y-96225000D02*
X104725000Y-94749680D01*
X109825000Y-95800000D02*
X110114140Y-95800000D01*
X104725000Y-94749680D02*
X105903346Y-93571334D01*
D59*
X98750000Y-111980000D02*
X98730000Y-112000000D01*
D60*
%TO.N,Net-(C16-Pad1)*%
X93275001Y-99925001D02*
X93200000Y-99850000D01*
X96975000Y-99250000D02*
X96290568Y-99250000D01*
D59*
X93225000Y-98625000D02*
X93200000Y-98650000D01*
D60*
X96290568Y-99250000D02*
X95615567Y-99925001D01*
D59*
X93225000Y-97500000D02*
X93225000Y-98625000D01*
D60*
X93200000Y-99850000D02*
X93200000Y-98650000D01*
X95615567Y-99925001D02*
X93275001Y-99925001D01*
%TO.N,Net-(L2-Pad2)*%
X98803496Y-94327817D02*
X98425001Y-93949322D01*
X99080651Y-94327817D02*
X98803496Y-94327817D01*
X98425001Y-92974999D02*
X98750000Y-92650000D01*
X99649990Y-96049990D02*
X99649990Y-94897156D01*
X99750000Y-96975000D02*
X99750000Y-96150000D01*
X98750000Y-92650000D02*
X98750000Y-92400000D01*
D59*
X98750000Y-92400000D02*
X98150000Y-92400000D01*
D60*
X99649990Y-94897156D02*
X99080651Y-94327817D01*
X99750000Y-96150000D02*
X99649990Y-96049990D01*
D59*
X98150000Y-92400000D02*
X97739949Y-91989949D01*
D60*
X98425001Y-93949322D02*
X98425001Y-92974999D01*
%TO.N,Net-(L1-Pad1)*%
X100750000Y-96426978D02*
X100750000Y-96975000D01*
D59*
X101250000Y-92400000D02*
X101850000Y-92400000D01*
D60*
X101200000Y-95976978D02*
X101200000Y-92450000D01*
D59*
X101850000Y-92400000D02*
X102260051Y-91989949D01*
D60*
X101200000Y-95976978D02*
X100750000Y-96426978D01*
%TO.N,Net-(D1-Pad2)*%
X109950000Y-101925000D02*
X109825000Y-101800000D01*
X109950000Y-103050000D02*
X109950000Y-101925000D01*
X112000000Y-98400000D02*
X112000000Y-99049990D01*
X109825000Y-101800000D02*
X110800000Y-101800000D01*
X110800000Y-101800000D02*
X110900000Y-101900000D01*
%TO.N,Net-(D2-Pad2)*%
X110908189Y-98391811D02*
X112000000Y-97300000D01*
X109825000Y-100300000D02*
X110908189Y-99216811D01*
X110908189Y-99216811D02*
X110908189Y-98391811D01*
X111000000Y-92200000D02*
X112000000Y-92200000D01*
X109950000Y-93250000D02*
X111000000Y-92200000D01*
X112000000Y-92200000D02*
X112000000Y-93049990D01*
%TO.N,Net-(D3-Pad2)*%
X108050000Y-94550000D02*
X108850000Y-94550000D01*
X108850000Y-94550000D02*
X108900000Y-94600000D01*
X109099990Y-98074990D02*
X109099990Y-95024990D01*
X108625000Y-94550000D02*
X108050000Y-94550000D01*
X109099990Y-95024990D02*
X108625000Y-94550000D01*
X112000000Y-86400000D02*
X112000000Y-87049990D01*
X109825000Y-98800000D02*
X109099990Y-98074990D01*
%TO.N,Net-(C9-Pad1)*%
X97526474Y-94323617D02*
X98075000Y-94872142D01*
X98075000Y-96025000D02*
X98250000Y-96200000D01*
X96050010Y-93150010D02*
X96050010Y-93525010D01*
X98075000Y-94872142D02*
X98075000Y-96025000D01*
X94725000Y-92200000D02*
X95124980Y-92599980D01*
X98250000Y-96200000D02*
X98250000Y-96975000D01*
X96375000Y-93850000D02*
X96848617Y-94323617D01*
X96848617Y-94323617D02*
X97526474Y-94323617D01*
X95499981Y-92599981D02*
X96050010Y-93150010D01*
X95124980Y-92599980D02*
X95499981Y-92599981D01*
%TO.N,Net-(C17-Pad1)*%
X96426978Y-99750000D02*
X94826978Y-101350000D01*
X96975000Y-99750000D02*
X96426978Y-99750000D01*
D59*
X94775000Y-102500000D02*
X94775000Y-101375000D01*
X94775000Y-101375000D02*
X94800000Y-101350000D01*
D60*
X94826978Y-101350000D02*
X94800000Y-101350000D01*
%TO.N,Net-(J1-Pad2)*%
X105925000Y-105975000D02*
X106700000Y-105200000D01*
X105600000Y-105975000D02*
X105925000Y-105975000D01*
%TO.N,Net-(J2-Pad3)*%
X100825000Y-108475000D02*
X101250000Y-108900000D01*
X101250000Y-111980000D02*
X101270000Y-112000000D01*
X100825000Y-105900000D02*
X100825000Y-108475000D01*
X101250000Y-108900000D02*
X101250000Y-111980000D01*
%TO.N,Net-(J2-Pad4)*%
X103200000Y-105125000D02*
X103200000Y-106500000D01*
X103200000Y-106500000D02*
X103400010Y-106700010D01*
X103400010Y-106700010D02*
X103972440Y-106700010D01*
X104697441Y-107425011D02*
X105263126Y-107425011D01*
X103972440Y-106700010D02*
X104697441Y-107425011D01*
X103750000Y-108900000D02*
X103750000Y-111940000D01*
X103750000Y-111940000D02*
X103810000Y-112000000D01*
X102475000Y-104400000D02*
X103200000Y-105125000D01*
%TO.N,Net-(JP1-Pad2)*%
X96000000Y-101176978D02*
X96426978Y-100750000D01*
X95574998Y-103251998D02*
X96000000Y-102826996D01*
X96000000Y-102826996D02*
X96000000Y-101176978D01*
X96426978Y-100750000D02*
X96975000Y-100750000D01*
X95574998Y-103451998D02*
X95574998Y-103251998D01*
X94650000Y-105400000D02*
X94650000Y-104376996D01*
X94650000Y-104376996D02*
X95574998Y-103451998D01*
%TO.N,Net-(D6-Pad6)*%
X107750000Y-106950000D02*
X106549979Y-108150021D01*
X102475000Y-106875000D02*
X102475000Y-105900000D01*
X108050000Y-106950000D02*
X107750000Y-106950000D01*
X103986715Y-107400000D02*
X103000000Y-107400000D01*
X106549979Y-108150021D02*
X104736736Y-108150021D01*
X101749990Y-104107512D02*
X101749990Y-104971102D01*
X101250000Y-103025000D02*
X101250000Y-103607522D01*
X101749990Y-104971102D02*
X102475000Y-105696112D01*
X104736736Y-108150021D02*
X103986715Y-107400000D01*
X101250000Y-103607522D02*
X101749990Y-104107512D01*
X103000000Y-107400000D02*
X102475000Y-106875000D01*
X102475000Y-105696112D02*
X102475000Y-105900000D01*
%TO.N,Net-(R8-Pad1)*%
X105636411Y-103136411D02*
X106838589Y-103136411D01*
X103025000Y-102250000D02*
X104750000Y-102250000D01*
X104750000Y-102250000D02*
X105636411Y-103136411D01*
X106838589Y-103136411D02*
X108175000Y-101800000D01*
%TO.N,Net-(R9-Pad1)*%
X108175000Y-100300000D02*
X107449990Y-101025010D01*
X104886410Y-101750000D02*
X103025000Y-101750000D01*
X106670385Y-102668206D02*
X105804616Y-102668206D01*
X107449990Y-101025010D02*
X107449990Y-101888600D01*
X105804616Y-102668206D02*
X104886410Y-101750000D01*
X107449990Y-101888600D02*
X106670385Y-102668206D01*
%TO.N,Net-(C19-Pad1)*%
X100750000Y-104325000D02*
X100825000Y-104400000D01*
X103245999Y-113175001D02*
X104475001Y-113175001D01*
X110700000Y-108527834D02*
X110227824Y-109000010D01*
X104475001Y-113175001D02*
X105200000Y-112450002D01*
X100825000Y-104400000D02*
X100825000Y-104682522D01*
X109025010Y-109000010D02*
X108225000Y-108200000D01*
X105200000Y-110200000D02*
X107200000Y-108200000D01*
X109950000Y-105650000D02*
X110525000Y-105650000D01*
X102445001Y-112374003D02*
X103245999Y-113175001D01*
X110700000Y-105825000D02*
X110700000Y-108527834D01*
X107200000Y-108200000D02*
X108225000Y-108200000D01*
X101749990Y-105607512D02*
X101749990Y-107663275D01*
X100825000Y-104682522D02*
X101749990Y-105607512D01*
X100750000Y-103025000D02*
X100750000Y-104325000D01*
X102445001Y-108358286D02*
X102445001Y-112374003D01*
X101749990Y-107663275D02*
X102445001Y-108358286D01*
X105200000Y-112450002D02*
X105200000Y-110200000D01*
X110525000Y-105650000D02*
X110700000Y-105825000D01*
X110227824Y-109000010D02*
X109025010Y-109000010D01*
D59*
%TO.N,Net-(A1-Pad1)*%
X103800000Y-86750000D02*
X102850000Y-86750000D01*
X102475000Y-85325000D02*
X102000000Y-84850000D01*
X102850000Y-86750000D02*
X102475000Y-87125000D01*
X102475000Y-87125000D02*
X102475000Y-85925000D01*
X102475000Y-85925000D02*
X102475000Y-85325000D01*
%TO.N,Net-(A1-Pad3)*%
X97525000Y-85325000D02*
X98000000Y-84850000D01*
X96200000Y-86750000D02*
X97150000Y-86750000D01*
X97150000Y-86750000D02*
X97525000Y-87125000D01*
X97525000Y-87125000D02*
X97525000Y-85925000D01*
X97525000Y-85925000D02*
X97525000Y-85325000D01*
D60*
%TO.N,Net-(D4-Pad3)*%
X107586948Y-104465857D02*
X105740857Y-104465857D01*
X102250000Y-103525000D02*
X102324990Y-103599990D01*
X105740857Y-104465857D02*
X105600000Y-104325000D01*
X104000000Y-104325000D02*
X105600000Y-104325000D01*
X102250000Y-103025000D02*
X102250000Y-103525000D01*
X103174990Y-103599990D02*
X103900000Y-104325000D01*
X107702805Y-104350000D02*
X107586948Y-104465857D01*
X108050000Y-104350000D02*
X107702805Y-104350000D01*
X102324990Y-103599990D02*
X103174990Y-103599990D01*
%TO.N,Net-(R6-Pad1)*%
X108175000Y-95800000D02*
X108175000Y-97300000D01*
X104200000Y-99600000D02*
X106727834Y-99600000D01*
X103025000Y-98750000D02*
X103573022Y-98750000D01*
X103573022Y-98750000D02*
X103949990Y-99126968D01*
X106727834Y-99600000D02*
X107050010Y-99277824D01*
X107050010Y-98707512D02*
X108175000Y-97582522D01*
X103949990Y-99349990D02*
X104200000Y-99600000D01*
X108175000Y-97582522D02*
X108175000Y-97300000D01*
X103949990Y-99126968D02*
X103949990Y-99349990D01*
X107050010Y-99277824D02*
X107050010Y-98707512D01*
%TO.N,Net-(R10-Pad1)*%
X106999979Y-100838610D02*
X107075010Y-100763579D01*
X106483985Y-102218195D02*
X106999979Y-101702201D01*
X107075010Y-99899990D02*
X108175000Y-98800000D01*
X106999979Y-101702201D02*
X106999979Y-100838610D01*
X105022821Y-101250000D02*
X105991016Y-102218195D01*
X103025000Y-101250000D02*
X105022821Y-101250000D01*
X107075010Y-100763579D02*
X107075010Y-99899990D01*
X105991016Y-102218195D02*
X106483985Y-102218195D01*
X106558629Y-102143551D02*
X106999979Y-101702201D01*
%TO.N,Net-(R11-Pad2)*%
X99250000Y-104275000D02*
X99300000Y-104325000D01*
X87514998Y-103250000D02*
X86250000Y-103250000D01*
X86250000Y-96750000D02*
X86250000Y-103250000D01*
X99300000Y-104600000D02*
X100100000Y-105400000D01*
X100100000Y-106692478D02*
X99862208Y-106930270D01*
X91195268Y-106930270D02*
X87514998Y-103250000D01*
X99250000Y-103025000D02*
X99250000Y-104275000D01*
X99300000Y-104325000D02*
X99300000Y-104600000D01*
X100100000Y-105400000D02*
X100100000Y-106692478D01*
X99862208Y-106930270D02*
X91195268Y-106930270D01*
%TD*%
M02*
