%TF.GenerationSoftware,KiCad,Pcbnew,(6.0.0-0)*%
%TF.CreationDate,2021-12-29T19:14:38+00:00*%
%TF.ProjectId,PN532,504e3533-322e-46b6-9963-61645f706362,7*%
%TF.SameCoordinates,Original*%
%TF.FileFunction,Copper,L2,Bot*%
%TF.FilePolarity,Positive*%
%FSLAX46Y46*%
G04 Gerber Fmt 4.6, Leading zero omitted, Abs format (unit mm)*
G04 Created by KiCad (PCBNEW (6.0.0-0)) date 2021-12-29 19:14:38*
%MOMM*%
%LPD*%
G01*
G04 APERTURE LIST*
G04 Aperture macros list*
%AMRoundRect*
0 Rectangle with rounded corners*
0 $1 Rounding radius*
0 $2 $3 $4 $5 $6 $7 $8 $9 X,Y pos of 4 corners*
0 Add a 4 corners polygon primitive as box body*
4,1,4,$2,$3,$4,$5,$6,$7,$8,$9,$2,$3,0*
0 Add four circle primitives for the rounded corners*
1,1,$1+$1,$2,$3*
1,1,$1+$1,$4,$5*
1,1,$1+$1,$6,$7*
1,1,$1+$1,$8,$9*
0 Add four rect primitives between the rounded corners*
20,1,$1+$1,$2,$3,$4,$5,0*
20,1,$1+$1,$4,$5,$6,$7,0*
20,1,$1+$1,$6,$7,$8,$9,0*
20,1,$1+$1,$8,$9,$2,$3,0*%
G04 Aperture macros list end*
%TA.AperFunction,EtchedComponent*%
%ADD10C,0.500000*%
%TD*%
%TA.AperFunction,SMDPad,CuDef*%
%ADD11RoundRect,0.125000X0.625000X-0.125000X0.625000X0.125000X-0.625000X0.125000X-0.625000X-0.125000X0*%
%TD*%
%TA.AperFunction,ComponentPad*%
%ADD12C,0.350000*%
%TD*%
%TA.AperFunction,ComponentPad*%
%ADD13R,1.700000X1.700000*%
%TD*%
%TA.AperFunction,ComponentPad*%
%ADD14O,1.700000X1.700000*%
%TD*%
%TA.AperFunction,ComponentPad*%
%ADD15C,2.000000*%
%TD*%
%TA.AperFunction,SMDPad,CuDef*%
%ADD16R,1.300000X2.000000*%
%TD*%
%TA.AperFunction,ComponentPad*%
%ADD17C,0.600000*%
%TD*%
%TA.AperFunction,SMDPad,CuDef*%
%ADD18R,1.200000X0.500000*%
%TD*%
%TA.AperFunction,ComponentPad*%
%ADD19C,3.200000*%
%TD*%
%TA.AperFunction,ComponentPad*%
%ADD20C,1.200000*%
%TD*%
%TA.AperFunction,ComponentPad*%
%ADD21RoundRect,0.250000X-0.600000X-0.675000X0.600000X-0.675000X0.600000X0.675000X-0.600000X0.675000X0*%
%TD*%
%TA.AperFunction,ComponentPad*%
%ADD22O,1.700000X1.850000*%
%TD*%
%TA.AperFunction,SMDPad,CuDef*%
%ADD23R,0.200000X1.400000*%
%TD*%
%TA.AperFunction,SMDPad,CuDef*%
%ADD24R,0.200000X0.200000*%
%TD*%
%TA.AperFunction,SMDPad,CuDef*%
%ADD25R,0.400000X0.200000*%
%TD*%
%TA.AperFunction,SMDPad,CuDef*%
%ADD26R,1.200000X0.200000*%
%TD*%
%TA.AperFunction,SMDPad,CuDef*%
%ADD27R,0.600000X0.600000*%
%TD*%
%TA.AperFunction,SMDPad,CuDef*%
%ADD28R,0.200000X0.400000*%
%TD*%
%TA.AperFunction,SMDPad,CuDef*%
%ADD29R,0.600000X0.200000*%
%TD*%
%TA.AperFunction,SMDPad,CuDef*%
%ADD30R,0.200000X1.000000*%
%TD*%
%TA.AperFunction,SMDPad,CuDef*%
%ADD31R,0.200000X0.600000*%
%TD*%
%TA.AperFunction,SMDPad,CuDef*%
%ADD32R,0.200000X0.800000*%
%TD*%
%TA.AperFunction,SMDPad,CuDef*%
%ADD33R,0.600000X0.400000*%
%TD*%
%TA.AperFunction,SMDPad,CuDef*%
%ADD34R,0.800000X0.200000*%
%TD*%
%TA.AperFunction,ViaPad*%
%ADD35C,0.800000*%
%TD*%
%TA.AperFunction,Conductor*%
%ADD36C,0.500000*%
%TD*%
%TA.AperFunction,Conductor*%
%ADD37C,0.250000*%
%TD*%
G04 APERTURE END LIST*
D10*
%TO.C,A1*%
X112000000Y-119000000D02*
X88000000Y-119000000D01*
X112000000Y-118000000D02*
X88000000Y-118000000D01*
X82000000Y-88000000D02*
X82000000Y-112000000D01*
X113000000Y-83000000D02*
X103000000Y-83000000D01*
X118000000Y-112000000D02*
X118000000Y-88000000D01*
X81000000Y-88000000D02*
X81000000Y-112000000D01*
X113000000Y-82000000D02*
X88000000Y-82000000D01*
X119000000Y-112000000D02*
X119000000Y-88000000D01*
X100000000Y-81000000D02*
X88000000Y-81000000D01*
X112000000Y-118000000D02*
G75*
G03*
X118000000Y-112000000I0J6000000D01*
G01*
X112000000Y-119000000D02*
G75*
G03*
X119000000Y-112000000I0J7000000D01*
G01*
X81000000Y-112000000D02*
G75*
G03*
X88000000Y-119000000I7000000J0D01*
G01*
X82000000Y-112000000D02*
G75*
G03*
X88000000Y-118000000I6000000J0D01*
G01*
X88000000Y-82000000D02*
G75*
G03*
X82000000Y-88000000I0J-6000000D01*
G01*
X119000000Y-88000000D02*
G75*
G03*
X113000000Y-82000000I-6000000J0D01*
G01*
X118000000Y-88000000D02*
G75*
G03*
X113000000Y-83000000I-5000000J0D01*
G01*
X88000000Y-81000000D02*
G75*
G03*
X81000000Y-88000000I0J-7000000D01*
G01*
%TD*%
D11*
%TO.P,D3,1*%
%TO.N,GND*%
X112000000Y-88900000D03*
%TO.P,D3,2*%
%TO.N,Net-(D3-Pad2)*%
X112000000Y-87100000D03*
%TD*%
%TO.P,D1,1*%
%TO.N,GND*%
X112000000Y-100900000D03*
%TO.P,D1,2*%
%TO.N,Net-(D1-Pad2)*%
X112000000Y-99100000D03*
%TD*%
%TO.P,D2,1*%
%TO.N,GND*%
X112000000Y-94900000D03*
%TO.P,D2,2*%
%TO.N,Net-(D2-Pad2)*%
X112000000Y-93100000D03*
%TD*%
D12*
%TO.P,U1,41*%
%TO.N,GND*%
X99000000Y-99000000D03*
X100000000Y-100000000D03*
X99000000Y-101000000D03*
X101000000Y-101000000D03*
X101000000Y-99000000D03*
%TD*%
D13*
%TO.P,J1,1*%
%TO.N,GND*%
X112000000Y-107270000D03*
D14*
%TO.P,J1,2*%
%TO.N,Net-(J1-Pad2)*%
X112000000Y-104730000D03*
%TD*%
D15*
%TO.P,SW1,1*%
%TO.N,GND*%
X90750000Y-103250000D03*
X90750000Y-96750000D03*
D16*
X90750000Y-104200000D03*
X90750000Y-95800000D03*
D15*
%TO.P,SW1,2*%
%TO.N,Net-(R10-Pad2)*%
X86250000Y-96750000D03*
D16*
X86250000Y-104200000D03*
D15*
X86250000Y-103250000D03*
D16*
X86250000Y-95800000D03*
%TD*%
D17*
%TO.P,A1,~*%
%TO.N,N/C*%
X100000000Y-81000000D03*
%TO.P,A1,1*%
%TO.N,Net-(A1-Pad1)*%
X102000000Y-83000000D03*
%TO.P,A1,3*%
%TO.N,Net-(A1-Pad3)*%
X98000000Y-83000000D03*
D18*
%TO.P,A1,1*%
%TO.N,Net-(A1-Pad1)*%
X102500000Y-83000000D03*
%TD*%
D19*
%TO.P,H2,1*%
%TO.N,N/C*%
X88000000Y-88000000D03*
%TD*%
%TO.P,H1,1*%
%TO.N,N/C*%
X112000000Y-112000000D03*
%TD*%
D20*
%TO.P,TP1,1*%
%TO.N,Net-(L1-Pad1)*%
X101250000Y-92400000D03*
%TO.P,TP1,2*%
%TO.N,Net-(L2-Pad2)*%
X98750000Y-92400000D03*
%TD*%
D21*
%TO.P,J3,1*%
%TO.N,GND*%
X96250000Y-108900000D03*
D22*
%TO.P,J3,2*%
%TO.N,+5V*%
X98750000Y-108900000D03*
%TO.P,J3,3*%
%TO.N,Net-(J2-Pad3)*%
X101250000Y-108900000D03*
%TO.P,J3,4*%
%TO.N,Net-(J2-Pad4)*%
X103750000Y-108900000D03*
%TD*%
D23*
%TO.P,U2,*%
%TO.N,*%
X90000000Y-110600000D03*
D24*
X90000000Y-112000000D03*
D25*
X89900000Y-112400000D03*
D23*
X90000000Y-113400000D03*
D26*
X89300000Y-110000000D03*
X89300000Y-111200000D03*
D24*
X89800000Y-111800000D03*
D26*
X89300000Y-112800000D03*
X89300000Y-114000000D03*
D27*
X89400000Y-110600000D03*
D24*
X89600000Y-111600000D03*
D28*
X89600000Y-112100000D03*
D27*
X89400000Y-113400000D03*
D29*
X89200000Y-111800000D03*
D28*
X89400000Y-112300000D03*
D26*
X88500000Y-112000000D03*
D25*
X88900000Y-112400000D03*
D30*
X88800000Y-110600000D03*
D29*
X88600000Y-111600000D03*
D30*
X88800000Y-113400000D03*
D24*
X88600000Y-112200000D03*
D31*
X88400000Y-110200000D03*
D32*
X88400000Y-111100000D03*
D31*
X88400000Y-112600000D03*
D25*
X88300000Y-113600000D03*
D33*
X88000000Y-110100000D03*
D34*
X87900000Y-111400000D03*
D24*
X88200000Y-111800000D03*
X88200000Y-112200000D03*
D34*
X87900000Y-112800000D03*
D24*
X88200000Y-113400000D03*
D28*
X88200000Y-113900000D03*
X88000000Y-110500000D03*
D24*
X88000000Y-111200000D03*
D25*
X87900000Y-112400000D03*
D24*
X88000000Y-113200000D03*
D25*
X87700000Y-110400000D03*
X87700000Y-110800000D03*
D24*
X87800000Y-111600000D03*
X87800000Y-112600000D03*
D25*
X87700000Y-113000000D03*
D24*
X87600000Y-111200000D03*
D31*
X87600000Y-112000000D03*
D34*
X87300000Y-114000000D03*
D31*
X87400000Y-111800000D03*
D28*
X87400000Y-112500000D03*
D25*
X87300000Y-113200000D03*
D23*
X87200000Y-110600000D03*
D29*
X87000000Y-111600000D03*
D28*
X87200000Y-112300000D03*
D29*
X87000000Y-113000000D03*
D28*
X87200000Y-113500000D03*
D26*
X86500000Y-110000000D03*
X86500000Y-111200000D03*
D24*
X87000000Y-111800000D03*
X87000000Y-112200000D03*
D29*
X86800000Y-112600000D03*
D27*
X86600000Y-110600000D03*
D29*
X86600000Y-112000000D03*
D24*
X86800000Y-112800000D03*
X86800000Y-113200000D03*
X86800000Y-113600000D03*
X86600000Y-113800000D03*
D29*
X86200000Y-111600000D03*
X86200000Y-112200000D03*
D24*
X86400000Y-113000000D03*
D29*
X86200000Y-114000000D03*
D24*
X86200000Y-111800000D03*
D25*
X86100000Y-112400000D03*
X86100000Y-113400000D03*
D24*
X86200000Y-113800000D03*
D30*
X86000000Y-110600000D03*
D24*
X86000000Y-113000000D03*
%TD*%
D13*
%TO.P,J2,1*%
%TO.N,GND*%
X96190000Y-112000000D03*
D14*
%TO.P,J2,2*%
%TO.N,+5V*%
X98730000Y-112000000D03*
%TO.P,J2,3*%
%TO.N,Net-(J2-Pad3)*%
X101270000Y-112000000D03*
%TO.P,J2,4*%
%TO.N,Net-(J2-Pad4)*%
X103810000Y-112000000D03*
%TD*%
D35*
%TO.N,GND*%
X100000000Y-91500000D03*
X103050000Y-93850000D03*
X103050000Y-95350000D03*
X96450000Y-95350000D03*
X93225000Y-103575000D03*
X93125000Y-93850000D03*
X94400000Y-103600000D03*
X96300000Y-103600000D03*
X106200000Y-96000000D03*
X109000000Y-102974990D03*
X109000000Y-105500000D03*
X109000000Y-107100000D03*
X95003161Y-96622158D03*
X106238430Y-101438430D03*
X112000000Y-89600000D03*
X112000000Y-101600000D03*
X112000000Y-95600000D03*
X110642980Y-97631700D03*
%TO.N,+3V3*%
X91500000Y-106000000D03*
X97700000Y-93600000D03*
X99151497Y-93600000D03*
X93800000Y-96500000D03*
X106246541Y-107243575D03*
X107189453Y-96509732D03*
X107124997Y-94740321D03*
X107238947Y-103740856D03*
%TO.N,+5V*%
X104725000Y-96225000D03*
X105903346Y-93571334D03*
X110688884Y-96374744D03*
%TO.N,Net-(D1-Pad2)*%
X110900000Y-101900000D03*
X112000000Y-98400000D03*
%TO.N,Net-(D2-Pad2)*%
X112000000Y-92400000D03*
X112000000Y-97300000D03*
%TO.N,Net-(D3-Pad2)*%
X108900000Y-94600000D03*
X112000000Y-86400000D03*
%TO.N,Net-(J1-Pad2)*%
X106700000Y-105200000D03*
%TO.N,Net-(J2-Pad4)*%
X105263126Y-107425011D03*
%TD*%
D36*
%TO.N,GND*%
X96250000Y-108900000D02*
X96250000Y-107150000D01*
X100001498Y-93091999D02*
X100001498Y-96998502D01*
X100000000Y-93090501D02*
X100001498Y-93091999D01*
X100000000Y-91500000D02*
X100000000Y-93090501D01*
D37*
X92900000Y-103250000D02*
X93225000Y-103575000D01*
X90750000Y-103250000D02*
X92900000Y-103250000D01*
X96190000Y-112000000D02*
X97365001Y-110824999D01*
X109000000Y-105500000D02*
X109000000Y-107100000D01*
X104224999Y-110824999D02*
X104224999Y-110798127D01*
X107923126Y-107100000D02*
X109000000Y-107100000D01*
X104224999Y-110798127D02*
X107923126Y-107100000D01*
X97365001Y-110824999D02*
X104224999Y-110824999D01*
X111830000Y-107100000D02*
X112000000Y-107270000D01*
X109000000Y-107100000D02*
X111830000Y-107100000D01*
D36*
X106261570Y-101438430D02*
X106238430Y-101438430D01*
X106275000Y-101425000D02*
X106261570Y-101438430D01*
D37*
X111425010Y-102974990D02*
X112000000Y-102400000D01*
X109000000Y-102974990D02*
X111425010Y-102974990D01*
X112000000Y-89700000D02*
X112000000Y-88950010D01*
X112000000Y-102400000D02*
X112000000Y-101600000D01*
X112000000Y-101600000D02*
X112000000Y-100950010D01*
X112000000Y-95600000D02*
X112000000Y-94950010D01*
X109000000Y-102974990D02*
X109000000Y-99274680D01*
X109000000Y-99274680D02*
X110642980Y-97631700D01*
%TO.N,+3V3*%
X97700000Y-93600000D02*
X99151497Y-93600000D01*
X106143575Y-107243575D02*
X106246541Y-107243575D01*
X105306019Y-106406019D02*
X106143575Y-107243575D01*
X105300000Y-102600000D02*
X105700000Y-102200000D01*
X106600000Y-102200000D02*
X107050000Y-101750000D01*
X107050000Y-96649185D02*
X107189453Y-96509732D01*
X105700000Y-102200000D02*
X106600000Y-102200000D01*
X107050000Y-101750000D02*
X107050000Y-96649185D01*
X105300000Y-103500000D02*
X105300000Y-102600000D01*
X96700000Y-93600000D02*
X97000000Y-93600000D01*
X97700000Y-93600000D02*
X97000000Y-93600000D01*
X93800000Y-96500000D02*
X96700000Y-93600000D01*
X106246541Y-108140175D02*
X106246541Y-107243575D01*
X104236706Y-110150010D02*
X106246541Y-108140175D01*
X91500000Y-106000000D02*
X91500000Y-107200000D01*
X95411820Y-110150010D02*
X104236706Y-110150010D01*
X95361810Y-110100000D02*
X95411820Y-110150010D01*
X94400000Y-110100000D02*
X95361810Y-110100000D01*
X91500000Y-107200000D02*
X94400000Y-110100000D01*
X107189453Y-96509732D02*
X107189453Y-94804777D01*
X107189453Y-94804777D02*
X107124997Y-94740321D01*
X105300000Y-103500000D02*
X105300000Y-106400000D01*
X106998091Y-103500000D02*
X107238947Y-103740856D01*
X105300000Y-103500000D02*
X106998091Y-103500000D01*
D36*
%TO.N,+5V*%
X103900000Y-107500000D02*
X104725000Y-106675000D01*
X98750000Y-108850097D02*
X100100096Y-107500000D01*
X104725000Y-106675000D02*
X104725000Y-96225000D01*
X100100096Y-107500000D02*
X103900000Y-107500000D01*
X98750000Y-108900000D02*
X98750000Y-108850097D01*
D37*
X108974744Y-96374744D02*
X110688884Y-96374744D01*
X105903346Y-93571334D02*
X107671334Y-93571334D01*
X108000000Y-95400000D02*
X108974744Y-96374744D01*
X107671334Y-93571334D02*
X108000000Y-93900000D01*
X108000000Y-93900000D02*
X108000000Y-95400000D01*
%TO.N,Net-(D1-Pad2)*%
X110500001Y-101500001D02*
X110900000Y-101900000D01*
X110500001Y-98799999D02*
X110500001Y-101500001D01*
X110900000Y-98400000D02*
X110500001Y-98799999D01*
X112000000Y-98400000D02*
X110900000Y-98400000D01*
X112000000Y-98400000D02*
X112000000Y-99049990D01*
%TO.N,Net-(D2-Pad2)*%
X112000000Y-92200000D02*
X112000000Y-93049990D01*
X110674990Y-92825010D02*
X111300000Y-92200000D01*
X111300000Y-92200000D02*
X112000000Y-92200000D01*
X110674990Y-95313008D02*
X110674990Y-92825010D01*
X112000000Y-96638018D02*
X110674990Y-95313008D01*
X112000000Y-97300000D02*
X112000000Y-96638018D01*
%TO.N,Net-(D3-Pad2)*%
X112000000Y-86400000D02*
X112000000Y-86400000D01*
X112000000Y-86400000D02*
X112000000Y-87049990D01*
X108900000Y-93800000D02*
X108900000Y-94600000D01*
X110500000Y-92200000D02*
X108900000Y-93800000D01*
X110500000Y-87000000D02*
X110500000Y-92200000D01*
X111100000Y-86400000D02*
X110500000Y-87000000D01*
X112000000Y-86400000D02*
X111100000Y-86400000D01*
%TO.N,Net-(J1-Pad2)*%
X107170000Y-104730000D02*
X106700000Y-105200000D01*
X112000000Y-104730000D02*
X107170000Y-104730000D01*
%TO.N,Net-(J2-Pad4)*%
X103750000Y-108900000D02*
X105224989Y-107425011D01*
X105224989Y-107425011D02*
X105263126Y-107425011D01*
%TD*%
%TA.AperFunction,Conductor*%
%TO.N,GND*%
G36*
X94505121Y-93020002D02*
G01*
X94537800Y-93050400D01*
X95250475Y-94000633D01*
X95275345Y-94067129D01*
X95260316Y-94136516D01*
X95238769Y-94165326D01*
X93849500Y-95554595D01*
X93787188Y-95588621D01*
X93760405Y-95591500D01*
X93704513Y-95591500D01*
X93698061Y-95592872D01*
X93698056Y-95592872D01*
X93611112Y-95611353D01*
X93517712Y-95631206D01*
X93511682Y-95633891D01*
X93511681Y-95633891D01*
X93349278Y-95706197D01*
X93349276Y-95706198D01*
X93343248Y-95708882D01*
X93188747Y-95821134D01*
X93184326Y-95826044D01*
X93184325Y-95826045D01*
X93100535Y-95919104D01*
X93060960Y-95963056D01*
X92965473Y-96128444D01*
X92906458Y-96310072D01*
X92886496Y-96500000D01*
X92906458Y-96689928D01*
X92965473Y-96871556D01*
X93060960Y-97036944D01*
X93188747Y-97178866D01*
X93343248Y-97291118D01*
X93349276Y-97293802D01*
X93349278Y-97293803D01*
X93457803Y-97342121D01*
X93517712Y-97368794D01*
X93610957Y-97388614D01*
X93698056Y-97407128D01*
X93698061Y-97407128D01*
X93704513Y-97408500D01*
X93895487Y-97408500D01*
X93901939Y-97407128D01*
X93901944Y-97407128D01*
X93989043Y-97388614D01*
X94082288Y-97368794D01*
X94142197Y-97342121D01*
X94250722Y-97293803D01*
X94250724Y-97293802D01*
X94256752Y-97291118D01*
X94411253Y-97178866D01*
X94539040Y-97036944D01*
X94634527Y-96871556D01*
X94693542Y-96689928D01*
X94710907Y-96524706D01*
X94737920Y-96459050D01*
X94747122Y-96448782D01*
X95184905Y-96010999D01*
X95247217Y-95976973D01*
X95318032Y-95982038D01*
X95374868Y-96024585D01*
X95399679Y-96091105D01*
X95400000Y-96100094D01*
X95400000Y-99100000D01*
X95500000Y-99100000D01*
X95500000Y-95748094D01*
X95520002Y-95679973D01*
X95536905Y-95658999D01*
X96158999Y-95036905D01*
X96221311Y-95002879D01*
X96248094Y-95000000D01*
X96874000Y-95000000D01*
X96942121Y-95020002D01*
X96988614Y-95073658D01*
X97000000Y-95126000D01*
X97000000Y-96500000D01*
X102500000Y-96500000D01*
X102500000Y-93126000D01*
X102520002Y-93057879D01*
X102573658Y-93011386D01*
X102626000Y-93000000D01*
X103447810Y-93000000D01*
X103515931Y-93020002D01*
X103536905Y-93036905D01*
X105500000Y-95000000D01*
X106162575Y-95000000D01*
X106230696Y-95020002D01*
X106277189Y-95073658D01*
X106282408Y-95087065D01*
X106290470Y-95111877D01*
X106385957Y-95277265D01*
X106390375Y-95282172D01*
X106390376Y-95282173D01*
X106455800Y-95354834D01*
X106513744Y-95419187D01*
X106515201Y-95420245D01*
X106551504Y-95479175D01*
X106555953Y-95512362D01*
X106555953Y-95807208D01*
X106535951Y-95875329D01*
X106523595Y-95891511D01*
X106450413Y-95972788D01*
X106428352Y-96010999D01*
X106382103Y-96091105D01*
X106354926Y-96138176D01*
X106295911Y-96319804D01*
X106275949Y-96509732D01*
X106295911Y-96699660D01*
X106354926Y-96881288D01*
X106358229Y-96887010D01*
X106358230Y-96887011D01*
X106399619Y-96958698D01*
X106416500Y-97021698D01*
X106416500Y-101435405D01*
X106396498Y-101503526D01*
X106379587Y-101524509D01*
X106374491Y-101529604D01*
X106312175Y-101563623D01*
X106285404Y-101566500D01*
X105778763Y-101566500D01*
X105767579Y-101565973D01*
X105760091Y-101564299D01*
X105752168Y-101564548D01*
X105692033Y-101566438D01*
X105688075Y-101566500D01*
X105660144Y-101566500D01*
X105656229Y-101566995D01*
X105656225Y-101566995D01*
X105656167Y-101567003D01*
X105656138Y-101567006D01*
X105644300Y-101567939D01*
X105613457Y-101568908D01*
X105544742Y-101551055D01*
X105496587Y-101498886D01*
X105483500Y-101442970D01*
X105483500Y-96761999D01*
X105500381Y-96698999D01*
X105509408Y-96683365D01*
X105559527Y-96596556D01*
X105618542Y-96414928D01*
X105638504Y-96225000D01*
X105618542Y-96035072D01*
X105559527Y-95853444D01*
X105464040Y-95688056D01*
X105374509Y-95588621D01*
X105340675Y-95551045D01*
X105340674Y-95551044D01*
X105336253Y-95546134D01*
X105237157Y-95474136D01*
X105187094Y-95437763D01*
X105187093Y-95437762D01*
X105181752Y-95433882D01*
X105175724Y-95431198D01*
X105175722Y-95431197D01*
X105013319Y-95358891D01*
X105013318Y-95358891D01*
X105007288Y-95356206D01*
X104913888Y-95336353D01*
X104826944Y-95317872D01*
X104826939Y-95317872D01*
X104820487Y-95316500D01*
X104629513Y-95316500D01*
X104623061Y-95317872D01*
X104623056Y-95317872D01*
X104536113Y-95336353D01*
X104442712Y-95356206D01*
X104436682Y-95358891D01*
X104436681Y-95358891D01*
X104274278Y-95431197D01*
X104274276Y-95431198D01*
X104268248Y-95433882D01*
X104262907Y-95437762D01*
X104262906Y-95437763D01*
X104212843Y-95474136D01*
X104113747Y-95546134D01*
X104109326Y-95551044D01*
X104109325Y-95551045D01*
X104075492Y-95588621D01*
X103985960Y-95688056D01*
X103890473Y-95853444D01*
X103831458Y-96035072D01*
X103811496Y-96225000D01*
X103831458Y-96414928D01*
X103890473Y-96596556D01*
X103940593Y-96683365D01*
X103949619Y-96698999D01*
X103966500Y-96761999D01*
X103966500Y-97274000D01*
X103946498Y-97342121D01*
X103892842Y-97388614D01*
X103840500Y-97400000D01*
X100900000Y-97400000D01*
X100900000Y-97500000D01*
X103840500Y-97500000D01*
X103908621Y-97520002D01*
X103955114Y-97573658D01*
X103966500Y-97626000D01*
X103966500Y-102374000D01*
X103946498Y-102442121D01*
X103892842Y-102488614D01*
X103840500Y-102500000D01*
X100900000Y-102500000D01*
X100900000Y-102600000D01*
X103840500Y-102600000D01*
X103908621Y-102620002D01*
X103955114Y-102673658D01*
X103966500Y-102726000D01*
X103966500Y-106308629D01*
X103946498Y-106376750D01*
X103929595Y-106397724D01*
X103622724Y-106704595D01*
X103560412Y-106738621D01*
X103533629Y-106741500D01*
X100167165Y-106741500D01*
X100148217Y-106740067D01*
X100140876Y-106738950D01*
X100133979Y-106737901D01*
X100133977Y-106737901D01*
X100126747Y-106736801D01*
X100119455Y-106737394D01*
X100119452Y-106737394D01*
X100074078Y-106741085D01*
X100063863Y-106741500D01*
X100055803Y-106741500D01*
X100042513Y-106743049D01*
X100027589Y-106744789D01*
X100023214Y-106745222D01*
X99957757Y-106750546D01*
X99957754Y-106750547D01*
X99950459Y-106751140D01*
X99943495Y-106753396D01*
X99937536Y-106754587D01*
X99931681Y-106755971D01*
X99924415Y-106756818D01*
X99855769Y-106781735D01*
X99851641Y-106783152D01*
X99789160Y-106803393D01*
X99789158Y-106803394D01*
X99782197Y-106805649D01*
X99775942Y-106809445D01*
X99770468Y-106811951D01*
X99765038Y-106814670D01*
X99758159Y-106817167D01*
X99752039Y-106821180D01*
X99752038Y-106821180D01*
X99697120Y-106857186D01*
X99693416Y-106859523D01*
X99630989Y-106897405D01*
X99622612Y-106904803D01*
X99622588Y-106904776D01*
X99619597Y-106907428D01*
X99616363Y-106910132D01*
X99610244Y-106914144D01*
X99605211Y-106919457D01*
X99556985Y-106970365D01*
X99554608Y-106972807D01*
X99079032Y-107448383D01*
X99016720Y-107482409D01*
X98973382Y-107484196D01*
X98909445Y-107475722D01*
X98844543Y-107446943D01*
X98805503Y-107387644D01*
X98800000Y-107350814D01*
X98800000Y-104900000D01*
X98700000Y-104900000D01*
X98700000Y-107346468D01*
X98679998Y-107414589D01*
X98626342Y-107461082D01*
X98589352Y-107471529D01*
X98589174Y-107471551D01*
X98583842Y-107471751D01*
X98578623Y-107472846D01*
X98564916Y-107475722D01*
X98358209Y-107519093D01*
X98353250Y-107521051D01*
X98353248Y-107521052D01*
X98148744Y-107601815D01*
X98148742Y-107601816D01*
X98143779Y-107603776D01*
X98139220Y-107606543D01*
X98139217Y-107606544D01*
X98113336Y-107622249D01*
X97946683Y-107723377D01*
X97772555Y-107874477D01*
X97769168Y-107878608D01*
X97742994Y-107910529D01*
X97684334Y-107950524D01*
X97613364Y-107952455D01*
X97552616Y-107915710D01*
X97538416Y-107896941D01*
X97451937Y-107757193D01*
X97442901Y-107745792D01*
X97328171Y-107631261D01*
X97316760Y-107622249D01*
X97178757Y-107537184D01*
X97165576Y-107531037D01*
X97011290Y-107479862D01*
X96997914Y-107476995D01*
X96903562Y-107467328D01*
X96897145Y-107467000D01*
X96522115Y-107467000D01*
X96506876Y-107471475D01*
X96505671Y-107472865D01*
X96504000Y-107480548D01*
X96504000Y-108000000D01*
X95996000Y-108000000D01*
X95996000Y-107485116D01*
X95991525Y-107469877D01*
X95990135Y-107468672D01*
X95982452Y-107467001D01*
X95602905Y-107467001D01*
X95596386Y-107467338D01*
X95500794Y-107477257D01*
X95487400Y-107480149D01*
X95333216Y-107531588D01*
X95320038Y-107537761D01*
X95182193Y-107623063D01*
X95170792Y-107632099D01*
X95056261Y-107746829D01*
X95047249Y-107758240D01*
X94962184Y-107896243D01*
X94956037Y-107909423D01*
X94954628Y-107913672D01*
X94914195Y-107972030D01*
X94848630Y-107999265D01*
X94835036Y-108000000D01*
X93248095Y-108000000D01*
X93179974Y-107979998D01*
X93159000Y-107963095D01*
X92170405Y-106974500D01*
X92136379Y-106912188D01*
X92133500Y-106885405D01*
X92133500Y-106702524D01*
X92153502Y-106634403D01*
X92165858Y-106618221D01*
X92239040Y-106536944D01*
X92334527Y-106371556D01*
X92393542Y-106189928D01*
X92399043Y-106137595D01*
X92412814Y-106006565D01*
X92413504Y-106000000D01*
X92412570Y-105991118D01*
X92394232Y-105816635D01*
X92394232Y-105816633D01*
X92393542Y-105810072D01*
X92334527Y-105628444D01*
X92239040Y-105463056D01*
X92149400Y-105363500D01*
X92115675Y-105326045D01*
X92115674Y-105326044D01*
X92111253Y-105321134D01*
X92051938Y-105278039D01*
X92008585Y-105221818D01*
X92000000Y-105176104D01*
X92000000Y-104176000D01*
X92020002Y-104107879D01*
X92073658Y-104061386D01*
X92126000Y-104050000D01*
X95150000Y-104050000D01*
X95150000Y-103950000D01*
X92280871Y-103950000D01*
X92212750Y-103929998D01*
X92166257Y-103876342D01*
X92156153Y-103806068D01*
X92164462Y-103775783D01*
X92186732Y-103722017D01*
X92189783Y-103712627D01*
X92242885Y-103491446D01*
X92244428Y-103481699D01*
X92262275Y-103254930D01*
X92262275Y-103245070D01*
X92244428Y-103018301D01*
X92242885Y-103008554D01*
X92189783Y-102787373D01*
X92186734Y-102777988D01*
X92099688Y-102567839D01*
X92095207Y-102559045D01*
X92018567Y-102433980D01*
X92000000Y-102368145D01*
X92000000Y-100926000D01*
X92020002Y-100857879D01*
X92073658Y-100811386D01*
X92126000Y-100800000D01*
X95100000Y-100800000D01*
X95100000Y-100700000D01*
X92126000Y-100700000D01*
X92057879Y-100679998D01*
X92011386Y-100626342D01*
X92000000Y-100574000D01*
X92000000Y-97631855D01*
X92018567Y-97566020D01*
X92095207Y-97440955D01*
X92099688Y-97432161D01*
X92186734Y-97222012D01*
X92189783Y-97212627D01*
X92242885Y-96991446D01*
X92244428Y-96981699D01*
X92262275Y-96754930D01*
X92262275Y-96745070D01*
X92244428Y-96518301D01*
X92242885Y-96508554D01*
X92189783Y-96287373D01*
X92186734Y-96277988D01*
X92099688Y-96067839D01*
X92095207Y-96059045D01*
X92051449Y-95987638D01*
X92032911Y-95919104D01*
X92039348Y-95881958D01*
X92971282Y-93086155D01*
X93011799Y-93027856D01*
X93077404Y-93000716D01*
X93090816Y-93000000D01*
X94437000Y-93000000D01*
X94505121Y-93020002D01*
G37*
%TD.AperFunction*%
%TD*%
M02*
