%TF.GenerationSoftware,KiCad,Pcbnew,(6.0.0-0)*%
%TF.CreationDate,2021-12-31T18:25:28+00:00*%
%TF.ProjectId,PN532,504e3533-322e-46b6-9963-61645f706362,7*%
%TF.SameCoordinates,Original*%
%TF.FileFunction,Soldermask,Top*%
%TF.FilePolarity,Negative*%
%FSLAX46Y46*%
G04 Gerber Fmt 4.6, Leading zero omitted, Abs format (unit mm)*
G04 Created by KiCad (PCBNEW (6.0.0-0)) date 2021-12-31 18:25:28*
%MOMM*%
%LPD*%
G01*
G04 APERTURE LIST*
G04 Aperture macros list*
%AMRoundRect*
0 Rectangle with rounded corners*
0 $1 Rounding radius*
0 $2 $3 $4 $5 $6 $7 $8 $9 X,Y pos of 4 corners*
0 Add a 4 corners polygon primitive as box body*
4,1,4,$2,$3,$4,$5,$6,$7,$8,$9,$2,$3,0*
0 Add four circle primitives for the rounded corners*
1,1,$1+$1,$2,$3*
1,1,$1+$1,$4,$5*
1,1,$1+$1,$6,$7*
1,1,$1+$1,$8,$9*
0 Add four rect primitives between the rounded corners*
20,1,$1+$1,$2,$3,$4,$5,0*
20,1,$1+$1,$4,$5,$6,$7,0*
20,1,$1+$1,$6,$7,$8,$9,0*
20,1,$1+$1,$8,$9,$2,$3,0*%
%AMFreePoly0*
4,1,6,2.200000,-2.200000,-2.200000,-2.200000,-2.200000,1.800000,-1.800000,2.200000,2.200000,2.200000,2.200000,-2.200000,2.200000,-2.200000,$1*%
%AMFreePoly1*
4,1,22,0.550000,-0.750000,0.000000,-0.750000,0.000000,-0.745033,-0.079941,-0.743568,-0.215256,-0.701293,-0.333266,-0.622738,-0.424486,-0.514219,-0.481581,-0.384460,-0.499164,-0.250000,-0.500000,-0.250000,-0.500000,0.250000,-0.499164,0.250000,-0.499963,0.256109,-0.478152,0.396186,-0.417904,0.524511,-0.324060,0.630769,-0.204165,0.706417,-0.067858,0.745374,0.000000,0.744959,0.000000,0.750000,
0.550000,0.750000,0.550000,-0.750000,0.550000,-0.750000,$1*%
%AMFreePoly2*
4,1,20,0.000000,0.744959,0.073905,0.744508,0.209726,0.703889,0.328688,0.626782,0.421226,0.519385,0.479903,0.390333,0.500000,0.250000,0.500000,-0.250000,0.499851,-0.262216,0.476331,-0.402017,0.414519,-0.529596,0.319384,-0.634700,0.198574,-0.708877,0.061801,-0.746166,0.000000,-0.745033,0.000000,-0.750000,-0.550000,-0.750000,-0.550000,0.750000,0.000000,0.750000,0.000000,0.744959,
0.000000,0.744959,$1*%
%AMFreePoly3*
4,1,192,2.999918,4.422256,2.999863,4.421879,3.007766,4.422607,3.036958,4.416886,3.066384,4.412620,3.073614,4.409310,3.073688,4.409688,3.076831,4.409072,3.096954,4.398624,3.117576,4.389183,3.119996,4.387083,3.119744,4.386792,3.126797,4.383130,3.148270,4.362547,3.170729,4.343058,3.175021,4.336373,3.175287,4.336650,3.177599,4.334434,3.188882,4.314784,3.201143,4.295686,
3.202045,4.292612,3.201675,4.292503,3.205635,4.285606,3.212586,4.256682,3.220956,4.228150,3.225000,4.200000,3.225000,2.686340,4.632759,4.250517,4.643129,4.260492,4.670705,4.283436,4.708507,4.303083,4.776432,4.321491,4.832721,4.320325,4.899827,4.299119,4.946564,4.267729,4.991578,4.213632,5.013950,4.161965,5.022603,4.092122,5.013517,4.036559,4.983067,3.973112,
4.967241,3.949484,3.299447,2.096379,4.970833,0.146428,4.979385,0.134860,4.998581,0.104555,5.013189,0.064532,5.022681,-0.005200,5.014264,-0.060868,4.984579,-0.124678,4.947421,-0.166976,4.887969,-0.204635,4.833848,-0.220155,4.763472,-0.219726,4.709547,-0.203549,4.650558,-0.165170,4.629167,-0.146428,3.225000,1.491767,3.225000,0.000000,3.224518,-0.009802,3.207705,-0.180506,
3.203881,-0.199732,3.154089,-0.363876,3.146587,-0.381988,3.065728,-0.533264,3.054837,-0.549564,2.946019,-0.682158,2.932158,-0.696019,2.799564,-0.804837,2.783264,-0.815728,2.631988,-0.896587,2.613876,-0.904089,2.449732,-0.953881,2.430506,-0.957705,2.259802,-0.974518,2.240198,-0.974518,2.069494,-0.957705,2.050268,-0.953881,1.886124,-0.904089,1.868012,-0.896587,1.716736,-0.815728,
1.700436,-0.804837,1.567842,-0.696019,1.553981,-0.682158,1.445163,-0.549564,1.434272,-0.533264,1.353413,-0.381988,1.345911,-0.363876,1.296119,-0.199732,1.292295,-0.180506,1.275482,-0.009802,1.278407,0.025882,1.295154,0.088382,1.321036,0.133211,1.366789,0.178964,1.411618,0.204846,1.474118,0.221593,1.525882,0.221593,1.588382,0.204846,1.633211,0.178964,1.678964,0.133211,
1.704846,0.088382,1.721593,0.025882,1.721592,-0.003691,1.736512,-0.126562,1.781724,-0.245775,1.854145,-0.350695,1.949576,-0.435239,2.062465,-0.494489,2.186253,-0.525000,2.313747,-0.525000,2.437535,-0.494489,2.550424,-0.435239,2.645855,-0.350695,2.718276,-0.245775,2.763488,-0.126562,2.777006,-0.015235,2.775000,0.000000,2.775000,1.875000,1.615790,1.875000,0.183090,-0.130779,
0.173906,-0.141856,0.149081,-0.167753,0.134865,-0.177310,0.133211,-0.178964,0.127500,-0.182261,0.113726,-0.191521,0.106508,-0.194381,0.088383,-0.204845,0.062775,-0.211707,0.048296,-0.217443,0.031590,-0.218982,0.031860,-0.219991,0.025881,-0.221593,0.003248,-0.221593,-0.007765,-0.222607,-0.012944,-0.221592,-0.025883,-0.221592,-0.061108,-0.212153,-0.076827,-0.209073,-0.085221,-0.204715,
-0.085465,-0.205627,-0.088380,-0.204846,-0.118883,-0.187236,-0.126804,-0.183123,-0.128010,-0.181966,-0.133211,-0.178964,-0.178964,-0.133211,-0.204815,-0.088497,-0.204857,-0.088341,-0.204171,-0.088156,-0.205637,-0.085595,-0.206029,-0.083964,-0.221592,-0.025883,-0.221592,-0.019206,-0.222076,-0.017192,-0.221591,-0.007402,-0.221590,0.025891,-0.220725,0.029118,-0.219795,0.028869,-0.219291,0.039056,
-0.213950,0.054402,-0.204846,0.088381,-0.198000,0.100238,-0.196160,0.105526,-0.183090,0.130779,1.354299,2.283124,1.384210,2.325000,1.937218,2.325000,2.775000,2.325000,2.775000,3.497895,1.937218,2.325000,1.384210,2.325000,2.816910,4.330779,2.826093,4.341855,2.844028,4.360565,2.845846,4.358822,2.850141,4.362529,2.847936,4.364642,2.850913,4.367748,2.874759,4.383780,
2.876934,4.385657,2.878742,4.386479,2.878750,4.386462,2.886274,4.391521,2.913911,4.402470,2.940998,4.414786,2.948861,4.415904,2.948720,4.416261,2.951698,4.417441,2.974311,4.419525,2.996748,4.422716,2.999918,4.422256,2.999918,4.422256,$1*%
G04 Aperture macros list end*
%ADD10R,1.150000X1.900000*%
%ADD11C,3.200000*%
%ADD12O,2.100000X1.450000*%
%ADD13RoundRect,0.125000X0.625000X-0.125000X0.625000X0.125000X-0.625000X0.125000X-0.625000X-0.125000X0*%
%ADD14C,2.000000*%
%ADD15R,1.300000X2.000000*%
%ADD16RoundRect,0.225000X-0.225000X-0.250000X0.225000X-0.250000X0.225000X0.250000X-0.225000X0.250000X0*%
%ADD17RoundRect,0.225000X0.250000X-0.225000X0.250000X0.225000X-0.250000X0.225000X-0.250000X-0.225000X0*%
%ADD18RoundRect,0.200000X-0.200000X-0.275000X0.200000X-0.275000X0.200000X0.275000X-0.200000X0.275000X0*%
%ADD19RoundRect,0.225000X-0.250000X0.225000X-0.250000X-0.225000X0.250000X-0.225000X0.250000X0.225000X0*%
%ADD20RoundRect,0.225000X0.225000X0.250000X-0.225000X0.250000X-0.225000X-0.250000X0.225000X-0.250000X0*%
%ADD21RoundRect,0.200000X0.275000X-0.200000X0.275000X0.200000X-0.275000X0.200000X-0.275000X-0.200000X0*%
%ADD22RoundRect,0.062500X-0.062500X0.287500X-0.062500X-0.287500X0.062500X-0.287500X0.062500X0.287500X0*%
%ADD23RoundRect,0.062500X-0.287500X0.062500X-0.287500X-0.062500X0.287500X-0.062500X0.287500X0.062500X0*%
%ADD24C,0.350000*%
%ADD25FreePoly0,270.000000*%
%ADD26R,1.700000X1.700000*%
%ADD27O,1.700000X1.700000*%
%ADD28RoundRect,0.250000X-0.600000X-0.675000X0.600000X-0.675000X0.600000X0.675000X-0.600000X0.675000X0*%
%ADD29O,1.700000X1.850000*%
%ADD30C,1.200000*%
%ADD31FreePoly1,0.000000*%
%ADD32R,1.000000X1.500000*%
%ADD33FreePoly2,0.000000*%
%ADD34RoundRect,0.200000X0.200000X0.275000X-0.200000X0.275000X-0.200000X-0.275000X0.200000X-0.275000X0*%
%ADD35RoundRect,0.242760X0.321734X-0.699668X0.699668X-0.321734X-0.321734X0.699668X-0.699668X0.321734X0*%
%ADD36RoundRect,0.166600X0.636396X-0.895763X0.895763X-0.636396X-0.636396X0.895763X-0.895763X0.636396X0*%
%ADD37RoundRect,0.242760X-0.699668X-0.321734X-0.321734X-0.699668X0.699668X0.321734X0.321734X0.699668X0*%
%ADD38RoundRect,0.166600X-0.895763X-0.636396X-0.636396X-0.895763X0.895763X0.636396X0.636396X0.895763X0*%
%ADD39RoundRect,0.200000X-0.275000X0.200000X-0.275000X-0.200000X0.275000X-0.200000X0.275000X0.200000X0*%
%ADD40R,0.650000X0.400000*%
%ADD41FreePoly3,0.000000*%
%ADD42R,1.500000X0.500000*%
%ADD43C,0.600000*%
G04 APERTURE END LIST*
%TO.C,U2*%
G36*
X91400000Y-114400000D02*
G01*
X85600000Y-114400000D01*
X85600000Y-108600000D01*
X91400000Y-108600000D01*
X91400000Y-114400000D01*
G37*
%TD*%
D10*
%TO.C,Y1*%
X93200000Y-98650000D03*
X93200000Y-101350000D03*
X94800000Y-101350000D03*
X94800000Y-98650000D03*
%TD*%
D11*
%TO.C,H2*%
X88000000Y-88000000D03*
%TD*%
%TO.C,H1*%
X112000000Y-112000000D03*
%TD*%
D12*
%TO.C,D2*%
X112000000Y-94000000D03*
D13*
X112000000Y-94900000D03*
X112000000Y-93100000D03*
%TD*%
D12*
%TO.C,D3*%
X112000000Y-88000000D03*
D13*
X112000000Y-88900000D03*
X112000000Y-87100000D03*
%TD*%
D14*
%TO.C,SW1*%
X90750000Y-103250000D03*
X90750000Y-96750000D03*
D15*
X90750000Y-104200000D03*
X90750000Y-95800000D03*
D14*
X86250000Y-96750000D03*
D15*
X86250000Y-104200000D03*
D14*
X86250000Y-103250000D03*
D15*
X86250000Y-95800000D03*
%TD*%
D12*
%TO.C,D1*%
X112000000Y-100000000D03*
D13*
X112000000Y-100900000D03*
X112000000Y-99100000D03*
%TD*%
D16*
%TO.C,C7*%
X100425000Y-95350000D03*
X101975000Y-95350000D03*
%TD*%
D17*
%TO.C,C3*%
X103800000Y-88300000D03*
X103800000Y-86750000D03*
%TD*%
D16*
%TO.C,C5*%
X100925000Y-88275000D03*
X102475000Y-88275000D03*
%TD*%
D18*
%TO.C,R6*%
X108175000Y-95800000D03*
X109825000Y-95800000D03*
%TD*%
%TO.C,R4*%
X93075000Y-88275000D03*
X94725000Y-88275000D03*
%TD*%
D19*
%TO.C,C13*%
X106250000Y-98825000D03*
X106250000Y-100375000D03*
%TD*%
D16*
%TO.C,C14*%
X104725000Y-97300000D03*
X106275000Y-97300000D03*
%TD*%
D20*
%TO.C,C9*%
X96375000Y-93850000D03*
X94825000Y-93850000D03*
%TD*%
D16*
%TO.C,C16*%
X93225000Y-97500000D03*
X94775000Y-97500000D03*
%TD*%
D18*
%TO.C,R9*%
X108175000Y-100300000D03*
X109825000Y-100300000D03*
%TD*%
%TO.C,R8*%
X108175000Y-101800000D03*
X109825000Y-101800000D03*
%TD*%
D21*
%TO.C,R11*%
X99300000Y-105975000D03*
X99300000Y-104325000D03*
%TD*%
D22*
%TO.C,U1*%
X102250000Y-97100000D03*
X101750000Y-97100000D03*
X101250000Y-97100000D03*
X100750000Y-97100000D03*
X100250000Y-97100000D03*
X99750000Y-97100000D03*
X99250000Y-97100000D03*
X98750000Y-97100000D03*
X98250000Y-97100000D03*
X97750000Y-97100000D03*
D23*
X97100000Y-97750000D03*
X97100000Y-98250000D03*
X97100000Y-98750000D03*
X97100000Y-99250000D03*
X97100000Y-99750000D03*
X97100000Y-100250000D03*
X97100000Y-100750000D03*
X97100000Y-101250000D03*
X97100000Y-101750000D03*
X97100000Y-102250000D03*
D22*
X97750000Y-102900000D03*
X98250000Y-102900000D03*
X98750000Y-102900000D03*
X99250000Y-102900000D03*
X99750000Y-102900000D03*
X100250000Y-102900000D03*
X100750000Y-102900000D03*
X101250000Y-102900000D03*
X101750000Y-102900000D03*
X102250000Y-102900000D03*
D23*
X102900000Y-102250000D03*
X102900000Y-101750000D03*
X102900000Y-101250000D03*
X102900000Y-100750000D03*
X102900000Y-100250000D03*
X102900000Y-99750000D03*
X102900000Y-99250000D03*
X102900000Y-98750000D03*
X102900000Y-98250000D03*
X102900000Y-97750000D03*
D24*
X99000000Y-101000000D03*
X99000000Y-99000000D03*
X100000000Y-100000000D03*
X101000000Y-99000000D03*
X101000000Y-101000000D03*
D25*
X100000000Y-100000000D03*
%TD*%
D20*
%TO.C,C17*%
X94775000Y-102500000D03*
X93225000Y-102500000D03*
%TD*%
D26*
%TO.C,J1*%
X112000000Y-107270000D03*
D27*
X112000000Y-104730000D03*
%TD*%
D20*
%TO.C,C12*%
X98850000Y-95350000D03*
X97300000Y-95350000D03*
%TD*%
D18*
%TO.C,R5*%
X93075000Y-92100000D03*
X94725000Y-92100000D03*
%TD*%
%TO.C,R7*%
X108175000Y-97300000D03*
X109825000Y-97300000D03*
%TD*%
%TO.C,R10*%
X108175000Y-98800000D03*
X109825000Y-98800000D03*
%TD*%
D17*
%TO.C,C18*%
X97700000Y-105925000D03*
X97700000Y-104375000D03*
%TD*%
D19*
%TO.C,C11*%
X104750000Y-98825000D03*
X104750000Y-100375000D03*
%TD*%
D17*
%TO.C,C8*%
X93100000Y-90975000D03*
X93100000Y-89425000D03*
%TD*%
D28*
%TO.C,J3*%
X96250000Y-108900000D03*
D29*
X98750000Y-108900000D03*
X101250000Y-108900000D03*
X103750000Y-108900000D03*
%TD*%
D16*
%TO.C,C10*%
X100425000Y-93850000D03*
X101975000Y-93850000D03*
%TD*%
D20*
%TO.C,C1*%
X102475000Y-85925000D03*
X102475000Y-87125000D03*
X100925000Y-87125000D03*
X100925000Y-85925000D03*
%TD*%
%TO.C,C6*%
X99075000Y-88275000D03*
X97525000Y-88275000D03*
%TD*%
D21*
%TO.C,R15*%
X104000000Y-105975000D03*
X104000000Y-104325000D03*
%TD*%
D30*
%TO.C,TP1*%
X101250000Y-92400000D03*
X98750000Y-92400000D03*
%TD*%
D31*
%TO.C,JP1*%
X93350000Y-105400000D03*
D32*
X94650000Y-105400000D03*
D33*
X95950000Y-105400000D03*
%TD*%
D18*
%TO.C,R13*%
X100825000Y-105900000D03*
X102475000Y-105900000D03*
%TD*%
D20*
%TO.C,C15*%
X94675000Y-95350000D03*
X93125000Y-95350000D03*
%TD*%
D34*
%TO.C,R14*%
X102475000Y-104400000D03*
X100825000Y-104400000D03*
%TD*%
D35*
%TO.C,L1*%
X102260051Y-91989949D03*
D36*
X102542893Y-91707107D03*
X103957107Y-90292893D03*
D35*
X104239949Y-90010051D03*
%TD*%
D37*
%TO.C,L2*%
X95760051Y-90010051D03*
D38*
X96042893Y-90292893D03*
D37*
X97739949Y-91989949D03*
D38*
X97457107Y-91707107D03*
%TD*%
D19*
%TO.C,C4*%
X96200000Y-86750000D03*
X96200000Y-88300000D03*
%TD*%
D39*
%TO.C,R12*%
X105600000Y-104325000D03*
X105600000Y-105975000D03*
%TD*%
D40*
%TO.C,D5*%
X108050000Y-93250000D03*
X108050000Y-93900000D03*
X108050000Y-94550000D03*
X109950000Y-94550000D03*
X109950000Y-93900000D03*
X109950000Y-93250000D03*
%TD*%
D20*
%TO.C,C2*%
X99075000Y-87125000D03*
X99075000Y-85925000D03*
X97525000Y-87125000D03*
X97525000Y-85925000D03*
%TD*%
D16*
%TO.C,C19*%
X108225000Y-108200000D03*
X109775000Y-108200000D03*
%TD*%
D40*
%TO.C,D4*%
X108050000Y-103050000D03*
X108050000Y-103700000D03*
X108050000Y-104350000D03*
X109950000Y-104350000D03*
X109950000Y-103700000D03*
X109950000Y-103050000D03*
%TD*%
%TO.C,D6*%
X109950000Y-106950000D03*
X109950000Y-106300000D03*
X109950000Y-105650000D03*
X108050000Y-105650000D03*
X108050000Y-106300000D03*
X108050000Y-106950000D03*
%TD*%
D41*
%TO.C,AJK1*%
X86100000Y-94300000D03*
%TD*%
D26*
%TO.C,J2*%
X96190000Y-112000000D03*
D27*
X98730000Y-112000000D03*
X101270000Y-112000000D03*
X103810000Y-112000000D03*
%TD*%
D21*
%TO.C,A1*%
X98000000Y-83150000D03*
D42*
X100000000Y-81000000D03*
D43*
X98000000Y-83000000D03*
X100000000Y-81000000D03*
D21*
X102000000Y-83150000D03*
D43*
X102000000Y-83000000D03*
D21*
X102000000Y-84850000D03*
D42*
X100000000Y-83000000D03*
D21*
X98000000Y-84850000D03*
%TD*%
M02*
