%TF.GenerationSoftware,KiCad,Pcbnew,(5.1.9-0-10_14)*%
%TF.CreationDate,2021-05-08T19:21:37+01:00*%
%TF.ProjectId,PN532,504e3533-322e-46b6-9963-61645f706362,6*%
%TF.SameCoordinates,Original*%
%TF.FileFunction,Legend,Top*%
%TF.FilePolarity,Positive*%
%FSLAX46Y46*%
G04 Gerber Fmt 4.6, Leading zero omitted, Abs format (unit mm)*
G04 Created by KiCad (PCBNEW (5.1.9-0-10_14)) date 2021-05-08 19:21:37*
%MOMM*%
%LPD*%
G01*
G04 APERTURE LIST*
%ADD10C,0.100000*%
%ADD11C,0.150000*%
%ADD12C,0.120000*%
%ADD13C,0.050000*%
G04 APERTURE END LIST*
D10*
X96488095Y-106773809D02*
X96488095Y-107273809D01*
X96273809Y-107226190D02*
X96250000Y-107250000D01*
X96202380Y-107273809D01*
X96083333Y-107273809D01*
X96035714Y-107250000D01*
X96011904Y-107226190D01*
X95988095Y-107178571D01*
X95988095Y-107130952D01*
X96011904Y-107059523D01*
X96297619Y-106773809D01*
X95988095Y-106773809D01*
X95488095Y-106821428D02*
X95511904Y-106797619D01*
X95583333Y-106773809D01*
X95630952Y-106773809D01*
X95702380Y-106797619D01*
X95750000Y-106845238D01*
X95773809Y-106892857D01*
X95797619Y-106988095D01*
X95797619Y-107059523D01*
X95773809Y-107154761D01*
X95750000Y-107202380D01*
X95702380Y-107250000D01*
X95630952Y-107273809D01*
X95583333Y-107273809D01*
X95511904Y-107250000D01*
X95488095Y-107226190D01*
X94392857Y-106823809D02*
X94392857Y-107323809D01*
X94392857Y-107085714D02*
X94107142Y-107085714D01*
X94107142Y-106823809D02*
X94107142Y-107323809D01*
X93892857Y-106847619D02*
X93821428Y-106823809D01*
X93702380Y-106823809D01*
X93654761Y-106847619D01*
X93630952Y-106871428D01*
X93607142Y-106919047D01*
X93607142Y-106966666D01*
X93630952Y-107014285D01*
X93654761Y-107038095D01*
X93702380Y-107061904D01*
X93797619Y-107085714D01*
X93845238Y-107109523D01*
X93869047Y-107133333D01*
X93892857Y-107180952D01*
X93892857Y-107228571D01*
X93869047Y-107276190D01*
X93845238Y-107300000D01*
X93797619Y-107323809D01*
X93678571Y-107323809D01*
X93607142Y-107300000D01*
X93392857Y-107323809D02*
X93392857Y-106919047D01*
X93369047Y-106871428D01*
X93345238Y-106847619D01*
X93297619Y-106823809D01*
X93202380Y-106823809D01*
X93154761Y-106847619D01*
X93130952Y-106871428D01*
X93107142Y-106919047D01*
X93107142Y-107323809D01*
D11*
X107571428Y-106919047D02*
X107523809Y-107061904D01*
X107476190Y-107109523D01*
X107380952Y-107157142D01*
X107238095Y-107157142D01*
X107142857Y-107109523D01*
X107095238Y-107061904D01*
X107047619Y-106966666D01*
X107047619Y-106585714D01*
X108047619Y-106585714D01*
X108047619Y-106919047D01*
X108000000Y-107014285D01*
X107952380Y-107061904D01*
X107857142Y-107109523D01*
X107761904Y-107109523D01*
X107666666Y-107061904D01*
X107619047Y-107014285D01*
X107571428Y-106919047D01*
X107571428Y-106585714D01*
X107095238Y-107966666D02*
X107047619Y-107871428D01*
X107047619Y-107680952D01*
X107095238Y-107585714D01*
X107190476Y-107538095D01*
X107571428Y-107538095D01*
X107666666Y-107585714D01*
X107714285Y-107680952D01*
X107714285Y-107871428D01*
X107666666Y-107966666D01*
X107571428Y-108014285D01*
X107476190Y-108014285D01*
X107380952Y-107538095D01*
X107047619Y-108585714D02*
X107095238Y-108490476D01*
X107190476Y-108442857D01*
X108047619Y-108442857D01*
X107047619Y-109109523D02*
X107095238Y-109014285D01*
X107190476Y-108966666D01*
X108047619Y-108966666D01*
X113761904Y-94066666D02*
X114238095Y-94066666D01*
X113666666Y-94352380D02*
X114000000Y-93352380D01*
X114333333Y-94352380D01*
X88647619Y-97404761D02*
X88647619Y-97976190D01*
X87647619Y-97690476D02*
X88647619Y-97690476D01*
X87647619Y-98738095D02*
X88171428Y-98738095D01*
X88266666Y-98690476D01*
X88314285Y-98595238D01*
X88314285Y-98404761D01*
X88266666Y-98309523D01*
X87695238Y-98738095D02*
X87647619Y-98642857D01*
X87647619Y-98404761D01*
X87695238Y-98309523D01*
X87790476Y-98261904D01*
X87885714Y-98261904D01*
X87980952Y-98309523D01*
X88028571Y-98404761D01*
X88028571Y-98642857D01*
X88076190Y-98738095D01*
X87647619Y-99214285D02*
X88314285Y-99214285D01*
X88219047Y-99214285D02*
X88266666Y-99261904D01*
X88314285Y-99357142D01*
X88314285Y-99500000D01*
X88266666Y-99595238D01*
X88171428Y-99642857D01*
X87647619Y-99642857D01*
X88171428Y-99642857D02*
X88266666Y-99690476D01*
X88314285Y-99785714D01*
X88314285Y-99928571D01*
X88266666Y-100023809D01*
X88171428Y-100071428D01*
X87647619Y-100071428D01*
X88314285Y-100547619D02*
X87314285Y-100547619D01*
X88266666Y-100547619D02*
X88314285Y-100642857D01*
X88314285Y-100833333D01*
X88266666Y-100928571D01*
X88219047Y-100976190D01*
X88123809Y-101023809D01*
X87838095Y-101023809D01*
X87742857Y-100976190D01*
X87695238Y-100928571D01*
X87647619Y-100833333D01*
X87647619Y-100642857D01*
X87695238Y-100547619D01*
X87695238Y-101833333D02*
X87647619Y-101738095D01*
X87647619Y-101547619D01*
X87695238Y-101452380D01*
X87790476Y-101404761D01*
X88171428Y-101404761D01*
X88266666Y-101452380D01*
X88314285Y-101547619D01*
X88314285Y-101738095D01*
X88266666Y-101833333D01*
X88171428Y-101880952D01*
X88076190Y-101880952D01*
X87980952Y-101404761D01*
X87647619Y-102309523D02*
X88314285Y-102309523D01*
X88123809Y-102309523D02*
X88219047Y-102357142D01*
X88266666Y-102404761D01*
X88314285Y-102500000D01*
X88314285Y-102595238D01*
X114261904Y-99400000D02*
X114166666Y-99352380D01*
X114023809Y-99352380D01*
X113880952Y-99400000D01*
X113785714Y-99495238D01*
X113738095Y-99590476D01*
X113690476Y-99780952D01*
X113690476Y-99923809D01*
X113738095Y-100114285D01*
X113785714Y-100209523D01*
X113880952Y-100304761D01*
X114023809Y-100352380D01*
X114119047Y-100352380D01*
X114261904Y-100304761D01*
X114309523Y-100257142D01*
X114309523Y-99923809D01*
X114119047Y-99923809D01*
X114309523Y-88452380D02*
X113976190Y-87976190D01*
X113738095Y-88452380D02*
X113738095Y-87452380D01*
X114119047Y-87452380D01*
X114214285Y-87500000D01*
X114261904Y-87547619D01*
X114309523Y-87642857D01*
X114309523Y-87785714D01*
X114261904Y-87880952D01*
X114214285Y-87928571D01*
X114119047Y-87976190D01*
X113738095Y-87976190D01*
X104352380Y-118716666D02*
X103876190Y-119050000D01*
X104352380Y-119288095D02*
X103352380Y-119288095D01*
X103352380Y-118907142D01*
X103400000Y-118811904D01*
X103447619Y-118764285D01*
X103542857Y-118716666D01*
X103685714Y-118716666D01*
X103780952Y-118764285D01*
X103828571Y-118811904D01*
X103876190Y-118907142D01*
X103876190Y-119288095D01*
X103352380Y-118383333D02*
X104352380Y-117716666D01*
X103352380Y-117716666D02*
X104352380Y-118383333D01*
X100852380Y-119311904D02*
X100852380Y-118740476D01*
X101852380Y-119026190D02*
X100852380Y-119026190D01*
X100852380Y-118502380D02*
X101852380Y-117835714D01*
X100852380Y-117835714D02*
X101852380Y-118502380D01*
X98352380Y-119883333D02*
X99352380Y-119550000D01*
X98352380Y-119216666D01*
X99257142Y-118311904D02*
X99304761Y-118359523D01*
X99352380Y-118502380D01*
X99352380Y-118597619D01*
X99304761Y-118740476D01*
X99209523Y-118835714D01*
X99114285Y-118883333D01*
X98923809Y-118930952D01*
X98780952Y-118930952D01*
X98590476Y-118883333D01*
X98495238Y-118835714D01*
X98400000Y-118740476D01*
X98352380Y-118597619D01*
X98352380Y-118502380D01*
X98400000Y-118359523D01*
X98447619Y-118311904D01*
X99257142Y-117311904D02*
X99304761Y-117359523D01*
X99352380Y-117502380D01*
X99352380Y-117597619D01*
X99304761Y-117740476D01*
X99209523Y-117835714D01*
X99114285Y-117883333D01*
X98923809Y-117930952D01*
X98780952Y-117930952D01*
X98590476Y-117883333D01*
X98495238Y-117835714D01*
X98400000Y-117740476D01*
X98352380Y-117597619D01*
X98352380Y-117502380D01*
X98400000Y-117359523D01*
X98447619Y-117311904D01*
X95900000Y-119311904D02*
X95852380Y-119407142D01*
X95852380Y-119550000D01*
X95900000Y-119692857D01*
X95995238Y-119788095D01*
X96090476Y-119835714D01*
X96280952Y-119883333D01*
X96423809Y-119883333D01*
X96614285Y-119835714D01*
X96709523Y-119788095D01*
X96804761Y-119692857D01*
X96852380Y-119550000D01*
X96852380Y-119454761D01*
X96804761Y-119311904D01*
X96757142Y-119264285D01*
X96423809Y-119264285D01*
X96423809Y-119454761D01*
X96852380Y-118835714D02*
X95852380Y-118835714D01*
X96852380Y-118264285D01*
X95852380Y-118264285D01*
X96852380Y-117788095D02*
X95852380Y-117788095D01*
X95852380Y-117550000D01*
X95900000Y-117407142D01*
X95995238Y-117311904D01*
X96090476Y-117264285D01*
X96280952Y-117216666D01*
X96423809Y-117216666D01*
X96614285Y-117264285D01*
X96709523Y-117311904D01*
X96804761Y-117407142D01*
X96852380Y-117550000D01*
X96852380Y-117788095D01*
D12*
%TO.C,C5*%
X101359420Y-88010000D02*
X101640580Y-88010000D01*
X101359420Y-86990000D02*
X101640580Y-86990000D01*
%TO.C,C2*%
X98640580Y-84790000D02*
X98359420Y-84790000D01*
X98640580Y-85810000D02*
X98359420Y-85810000D01*
D11*
%TO.C,J1*%
X106600000Y-113800000D02*
X106600000Y-110200000D01*
X106600000Y-110200000D02*
X107100000Y-109700000D01*
X107100000Y-109700000D02*
X107900000Y-109700000D01*
X107900000Y-109700000D02*
X108400000Y-110200000D01*
X108400000Y-110200000D02*
X108400000Y-113800000D01*
X108400000Y-113800000D02*
X107900000Y-114300000D01*
X107900000Y-114300000D02*
X107100000Y-114300000D01*
X107100000Y-114300000D02*
X106600000Y-113800000D01*
D12*
%TO.C,L2*%
X96564758Y-88790000D02*
X98235242Y-88790000D01*
X96564758Y-90610000D02*
X98235242Y-90610000D01*
%TO.C,L1*%
X101764758Y-88790000D02*
X103435242Y-88790000D01*
X101764758Y-90610000D02*
X103435242Y-90610000D01*
%TO.C,R11*%
X103322500Y-105637258D02*
X103322500Y-105162742D01*
X102277500Y-105637258D02*
X102277500Y-105162742D01*
%TO.C,R10*%
X100722500Y-105637258D02*
X100722500Y-105162742D01*
X99677500Y-105637258D02*
X99677500Y-105162742D01*
%TO.C,R9*%
X108862742Y-99322500D02*
X109337258Y-99322500D01*
X108862742Y-98277500D02*
X109337258Y-98277500D01*
%TO.C,R8*%
X108862742Y-100822500D02*
X109337258Y-100822500D01*
X108862742Y-99777500D02*
X109337258Y-99777500D01*
%TO.C,R7*%
X108862742Y-102322500D02*
X109337258Y-102322500D01*
X108862742Y-101277500D02*
X109337258Y-101277500D01*
%TO.C,R6*%
X108862742Y-97822500D02*
X109337258Y-97822500D01*
X108862742Y-96777500D02*
X109337258Y-96777500D01*
%TO.C,R5*%
X108862742Y-96322500D02*
X109337258Y-96322500D01*
X108862742Y-95277500D02*
X109337258Y-95277500D01*
%TO.C,R4*%
X95362742Y-92872500D02*
X95837258Y-92872500D01*
X95362742Y-91827500D02*
X95837258Y-91827500D01*
%TO.C,R3*%
X93662742Y-88122500D02*
X94137258Y-88122500D01*
X93662742Y-87077500D02*
X94137258Y-87077500D01*
%TO.C,R2*%
X96722500Y-84062258D02*
X96722500Y-83587742D01*
X95677500Y-84062258D02*
X95677500Y-83587742D01*
%TO.C,R1*%
X104322500Y-84037258D02*
X104322500Y-83562742D01*
X103277500Y-84037258D02*
X103277500Y-83562742D01*
%TO.C,C17*%
X98190000Y-105259420D02*
X98190000Y-105540580D01*
X99210000Y-105259420D02*
X99210000Y-105540580D01*
%TO.C,C16*%
X94140580Y-101990000D02*
X93859420Y-101990000D01*
X94140580Y-103010000D02*
X93859420Y-103010000D01*
%TO.C,C15*%
X93859420Y-98010000D02*
X94140580Y-98010000D01*
X93859420Y-96990000D02*
X94140580Y-96990000D01*
%TO.C,C14*%
X105359420Y-97810000D02*
X105640580Y-97810000D01*
X105359420Y-96790000D02*
X105640580Y-96790000D01*
%TO.C,C13*%
X105740000Y-99459420D02*
X105740000Y-99740580D01*
X106760000Y-99459420D02*
X106760000Y-99740580D01*
%TO.C,C12*%
X104240000Y-99459420D02*
X104240000Y-99740580D01*
X105260000Y-99459420D02*
X105260000Y-99740580D01*
%TO.C,C11*%
X97840580Y-94890000D02*
X97559420Y-94890000D01*
X97840580Y-95910000D02*
X97559420Y-95910000D01*
%TO.C,C10*%
X95740580Y-93340000D02*
X95459420Y-93340000D01*
X95740580Y-94360000D02*
X95459420Y-94360000D01*
%TO.C,C9*%
X101059420Y-95660000D02*
X101340580Y-95660000D01*
X101059420Y-94640000D02*
X101340580Y-94640000D01*
%TO.C,C8*%
X93610000Y-90040580D02*
X93610000Y-89759420D01*
X92590000Y-90040580D02*
X92590000Y-89759420D01*
%TO.C,C7*%
X101059420Y-94160000D02*
X101340580Y-94160000D01*
X101059420Y-93140000D02*
X101340580Y-93140000D01*
%TO.C,C6*%
X98640580Y-86990000D02*
X98359420Y-86990000D01*
X98640580Y-88010000D02*
X98359420Y-88010000D01*
%TO.C,C4*%
X95690000Y-86659420D02*
X95690000Y-86940580D01*
X96710000Y-86659420D02*
X96710000Y-86940580D01*
%TO.C,C3*%
X104310000Y-86940580D02*
X104310000Y-86659420D01*
X103290000Y-86940580D02*
X103290000Y-86659420D01*
%TO.C,C1*%
X101640580Y-84790000D02*
X101359420Y-84790000D01*
X101640580Y-85810000D02*
X101359420Y-85810000D01*
%TO.C,A1*%
X83500000Y-112000000D02*
G75*
G03*
X88000000Y-116500000I4500000J0D01*
G01*
X88000000Y-83500000D02*
G75*
G03*
X83500000Y-88000000I0J-4500000D01*
G01*
X116500000Y-88000000D02*
G75*
G03*
X112000000Y-83500000I-4500000J0D01*
G01*
X88000000Y-79500000D02*
G75*
G03*
X79500000Y-88000000I0J-8500000D01*
G01*
X79500000Y-112000000D02*
G75*
G03*
X88000000Y-120500000I8500000J0D01*
G01*
X112499137Y-120485332D02*
G75*
G03*
X120500000Y-112000000I-499137J8485332D01*
G01*
X120500000Y-88000000D02*
G75*
G03*
X112000000Y-79500000I-8500000J0D01*
G01*
X112000000Y-116500000D02*
G75*
G03*
X116500000Y-112000000I0J4500000D01*
G01*
X79500000Y-112000000D02*
X79500000Y-88000000D01*
X112500000Y-120500000D02*
X88000000Y-120500000D01*
X120500000Y-88000000D02*
X120500000Y-112000000D01*
X88000000Y-79500000D02*
X112000000Y-79500000D01*
X88000000Y-83500000D02*
X112000000Y-83500000D01*
X83500000Y-112000000D02*
X83500000Y-88000000D01*
X112000000Y-116500000D02*
X88000000Y-116500000D01*
X116500000Y-88000000D02*
X116500000Y-112000000D01*
%TO.C,SW1*%
X91230000Y-103230000D02*
X91200000Y-103230000D01*
X84770000Y-103230000D02*
X84800000Y-103230000D01*
X84770000Y-96770000D02*
X84800000Y-96770000D01*
X91200000Y-96770000D02*
X91230000Y-96770000D01*
X89300000Y-103230000D02*
X86700000Y-103230000D01*
X91230000Y-96770000D02*
X91230000Y-103230000D01*
X89300000Y-96770000D02*
X86700000Y-96770000D01*
X84770000Y-96770000D02*
X84770000Y-103230000D01*
X84750000Y-97750000D02*
X84750000Y-102250000D01*
X88750000Y-96500000D02*
X87250000Y-96500000D01*
X91250000Y-102250000D02*
X91250000Y-97750000D01*
X87250000Y-103500000D02*
X88750000Y-103500000D01*
%TO.C,J3*%
X106350000Y-107500000D02*
X106350000Y-115500000D01*
X93650000Y-107500000D02*
X106350000Y-107500000D01*
X93650000Y-107500000D02*
X93650000Y-115500000D01*
%TO.C,JP1*%
X92750000Y-105100000D02*
G75*
G02*
X93450000Y-104400000I700000J0D01*
G01*
X93450000Y-106400000D02*
G75*
G02*
X92750000Y-105700000I0J700000D01*
G01*
X96850000Y-105700000D02*
G75*
G02*
X96150000Y-106400000I-700000J0D01*
G01*
X96150000Y-104400000D02*
G75*
G02*
X96850000Y-105100000I0J-700000D01*
G01*
X92750000Y-105700000D02*
X92750000Y-105100000D01*
X96200000Y-106400000D02*
X93400000Y-106400000D01*
X96850000Y-105100000D02*
X96850000Y-105700000D01*
X93400000Y-104400000D02*
X96200000Y-104400000D01*
%TO.C,U1*%
X103110000Y-97365000D02*
X103110000Y-96890000D01*
X96890000Y-103110000D02*
X97365000Y-103110000D01*
X96890000Y-102635000D02*
X96890000Y-103110000D01*
X96890000Y-96890000D02*
X97365000Y-96890000D01*
X96890000Y-97365000D02*
X96890000Y-96890000D01*
X103110000Y-103110000D02*
X102635000Y-103110000D01*
X103110000Y-102635000D02*
X103110000Y-103110000D01*
%TO.C,J4*%
X91150000Y-108675000D02*
X91150000Y-115325000D01*
X91150000Y-115325000D02*
X84850000Y-115325000D01*
X84850000Y-115325000D02*
X84850000Y-108675000D01*
X84850000Y-108675000D02*
X91150000Y-108675000D01*
%TO.C,C5*%
D13*
X101433333Y-86542857D02*
X101414285Y-86561904D01*
X101357142Y-86580952D01*
X101319047Y-86580952D01*
X101261904Y-86561904D01*
X101223809Y-86523809D01*
X101204761Y-86485714D01*
X101185714Y-86409523D01*
X101185714Y-86352380D01*
X101204761Y-86276190D01*
X101223809Y-86238095D01*
X101261904Y-86200000D01*
X101319047Y-86180952D01*
X101357142Y-86180952D01*
X101414285Y-86200000D01*
X101433333Y-86219047D01*
X101795238Y-86180952D02*
X101604761Y-86180952D01*
X101585714Y-86371428D01*
X101604761Y-86352380D01*
X101642857Y-86333333D01*
X101738095Y-86333333D01*
X101776190Y-86352380D01*
X101795238Y-86371428D01*
X101814285Y-86409523D01*
X101814285Y-86504761D01*
X101795238Y-86542857D01*
X101776190Y-86561904D01*
X101738095Y-86580952D01*
X101642857Y-86580952D01*
X101604761Y-86561904D01*
X101585714Y-86542857D01*
%TO.C,C2*%
X98433333Y-84292857D02*
X98414285Y-84311904D01*
X98357142Y-84330952D01*
X98319047Y-84330952D01*
X98261904Y-84311904D01*
X98223809Y-84273809D01*
X98204761Y-84235714D01*
X98185714Y-84159523D01*
X98185714Y-84102380D01*
X98204761Y-84026190D01*
X98223809Y-83988095D01*
X98261904Y-83950000D01*
X98319047Y-83930952D01*
X98357142Y-83930952D01*
X98414285Y-83950000D01*
X98433333Y-83969047D01*
X98585714Y-83969047D02*
X98604761Y-83950000D01*
X98642857Y-83930952D01*
X98738095Y-83930952D01*
X98776190Y-83950000D01*
X98795238Y-83969047D01*
X98814285Y-84007142D01*
X98814285Y-84045238D01*
X98795238Y-84102380D01*
X98566666Y-84330952D01*
X98814285Y-84330952D01*
%TO.C,J1*%
D11*
X104952380Y-112303333D02*
X105666666Y-112303333D01*
X105809523Y-112350952D01*
X105904761Y-112446190D01*
X105952380Y-112589047D01*
X105952380Y-112684285D01*
X105952380Y-111303333D02*
X105952380Y-111874761D01*
X105952380Y-111589047D02*
X104952380Y-111589047D01*
X105095238Y-111684285D01*
X105190476Y-111779523D01*
X105238095Y-111874761D01*
%TO.C,L2*%
D13*
X97333333Y-91280952D02*
X97142857Y-91280952D01*
X97142857Y-90880952D01*
X97447619Y-90919047D02*
X97466666Y-90900000D01*
X97504761Y-90880952D01*
X97600000Y-90880952D01*
X97638095Y-90900000D01*
X97657142Y-90919047D01*
X97676190Y-90957142D01*
X97676190Y-90995238D01*
X97657142Y-91052380D01*
X97428571Y-91280952D01*
X97676190Y-91280952D01*
%TO.C,L1*%
X102583333Y-91330952D02*
X102392857Y-91330952D01*
X102392857Y-90930952D01*
X102926190Y-91330952D02*
X102697619Y-91330952D01*
X102811904Y-91330952D02*
X102811904Y-90930952D01*
X102773809Y-90988095D01*
X102735714Y-91026190D01*
X102697619Y-91045238D01*
%TO.C,R11*%
X104180952Y-105607142D02*
X103990476Y-105740476D01*
X104180952Y-105835714D02*
X103780952Y-105835714D01*
X103780952Y-105683333D01*
X103800000Y-105645238D01*
X103819047Y-105626190D01*
X103857142Y-105607142D01*
X103914285Y-105607142D01*
X103952380Y-105626190D01*
X103971428Y-105645238D01*
X103990476Y-105683333D01*
X103990476Y-105835714D01*
X104180952Y-105226190D02*
X104180952Y-105454761D01*
X104180952Y-105340476D02*
X103780952Y-105340476D01*
X103838095Y-105378571D01*
X103876190Y-105416666D01*
X103895238Y-105454761D01*
X104180952Y-104845238D02*
X104180952Y-105073809D01*
X104180952Y-104959523D02*
X103780952Y-104959523D01*
X103838095Y-104997619D01*
X103876190Y-105035714D01*
X103895238Y-105073809D01*
%TO.C,R10*%
X101530952Y-105657142D02*
X101340476Y-105790476D01*
X101530952Y-105885714D02*
X101130952Y-105885714D01*
X101130952Y-105733333D01*
X101150000Y-105695238D01*
X101169047Y-105676190D01*
X101207142Y-105657142D01*
X101264285Y-105657142D01*
X101302380Y-105676190D01*
X101321428Y-105695238D01*
X101340476Y-105733333D01*
X101340476Y-105885714D01*
X101530952Y-105276190D02*
X101530952Y-105504761D01*
X101530952Y-105390476D02*
X101130952Y-105390476D01*
X101188095Y-105428571D01*
X101226190Y-105466666D01*
X101245238Y-105504761D01*
X101130952Y-105028571D02*
X101130952Y-104990476D01*
X101150000Y-104952380D01*
X101169047Y-104933333D01*
X101207142Y-104914285D01*
X101283333Y-104895238D01*
X101378571Y-104895238D01*
X101454761Y-104914285D01*
X101492857Y-104933333D01*
X101511904Y-104952380D01*
X101530952Y-104990476D01*
X101530952Y-105028571D01*
X101511904Y-105066666D01*
X101492857Y-105085714D01*
X101454761Y-105104761D01*
X101378571Y-105123809D01*
X101283333Y-105123809D01*
X101207142Y-105104761D01*
X101169047Y-105085714D01*
X101150000Y-105066666D01*
X101130952Y-105028571D01*
%TO.C,R9*%
X111080952Y-98866666D02*
X110890476Y-99000000D01*
X111080952Y-99095238D02*
X110680952Y-99095238D01*
X110680952Y-98942857D01*
X110700000Y-98904761D01*
X110719047Y-98885714D01*
X110757142Y-98866666D01*
X110814285Y-98866666D01*
X110852380Y-98885714D01*
X110871428Y-98904761D01*
X110890476Y-98942857D01*
X110890476Y-99095238D01*
X111080952Y-98676190D02*
X111080952Y-98600000D01*
X111061904Y-98561904D01*
X111042857Y-98542857D01*
X110985714Y-98504761D01*
X110909523Y-98485714D01*
X110757142Y-98485714D01*
X110719047Y-98504761D01*
X110700000Y-98523809D01*
X110680952Y-98561904D01*
X110680952Y-98638095D01*
X110700000Y-98676190D01*
X110719047Y-98695238D01*
X110757142Y-98714285D01*
X110852380Y-98714285D01*
X110890476Y-98695238D01*
X110909523Y-98676190D01*
X110928571Y-98638095D01*
X110928571Y-98561904D01*
X110909523Y-98523809D01*
X110890476Y-98504761D01*
X110852380Y-98485714D01*
%TO.C,R8*%
X111080952Y-100366666D02*
X110890476Y-100500000D01*
X111080952Y-100595238D02*
X110680952Y-100595238D01*
X110680952Y-100442857D01*
X110700000Y-100404761D01*
X110719047Y-100385714D01*
X110757142Y-100366666D01*
X110814285Y-100366666D01*
X110852380Y-100385714D01*
X110871428Y-100404761D01*
X110890476Y-100442857D01*
X110890476Y-100595238D01*
X110852380Y-100138095D02*
X110833333Y-100176190D01*
X110814285Y-100195238D01*
X110776190Y-100214285D01*
X110757142Y-100214285D01*
X110719047Y-100195238D01*
X110700000Y-100176190D01*
X110680952Y-100138095D01*
X110680952Y-100061904D01*
X110700000Y-100023809D01*
X110719047Y-100004761D01*
X110757142Y-99985714D01*
X110776190Y-99985714D01*
X110814285Y-100004761D01*
X110833333Y-100023809D01*
X110852380Y-100061904D01*
X110852380Y-100138095D01*
X110871428Y-100176190D01*
X110890476Y-100195238D01*
X110928571Y-100214285D01*
X111004761Y-100214285D01*
X111042857Y-100195238D01*
X111061904Y-100176190D01*
X111080952Y-100138095D01*
X111080952Y-100061904D01*
X111061904Y-100023809D01*
X111042857Y-100004761D01*
X111004761Y-99985714D01*
X110928571Y-99985714D01*
X110890476Y-100004761D01*
X110871428Y-100023809D01*
X110852380Y-100061904D01*
%TO.C,R7*%
X111080952Y-101816666D02*
X110890476Y-101950000D01*
X111080952Y-102045238D02*
X110680952Y-102045238D01*
X110680952Y-101892857D01*
X110700000Y-101854761D01*
X110719047Y-101835714D01*
X110757142Y-101816666D01*
X110814285Y-101816666D01*
X110852380Y-101835714D01*
X110871428Y-101854761D01*
X110890476Y-101892857D01*
X110890476Y-102045238D01*
X110680952Y-101683333D02*
X110680952Y-101416666D01*
X111080952Y-101588095D01*
%TO.C,R6*%
X111080952Y-97366666D02*
X110890476Y-97500000D01*
X111080952Y-97595238D02*
X110680952Y-97595238D01*
X110680952Y-97442857D01*
X110700000Y-97404761D01*
X110719047Y-97385714D01*
X110757142Y-97366666D01*
X110814285Y-97366666D01*
X110852380Y-97385714D01*
X110871428Y-97404761D01*
X110890476Y-97442857D01*
X110890476Y-97595238D01*
X110680952Y-97023809D02*
X110680952Y-97100000D01*
X110700000Y-97138095D01*
X110719047Y-97157142D01*
X110776190Y-97195238D01*
X110852380Y-97214285D01*
X111004761Y-97214285D01*
X111042857Y-97195238D01*
X111061904Y-97176190D01*
X111080952Y-97138095D01*
X111080952Y-97061904D01*
X111061904Y-97023809D01*
X111042857Y-97004761D01*
X111004761Y-96985714D01*
X110909523Y-96985714D01*
X110871428Y-97004761D01*
X110852380Y-97023809D01*
X110833333Y-97061904D01*
X110833333Y-97138095D01*
X110852380Y-97176190D01*
X110871428Y-97195238D01*
X110909523Y-97214285D01*
%TO.C,R5*%
X111030952Y-95866666D02*
X110840476Y-96000000D01*
X111030952Y-96095238D02*
X110630952Y-96095238D01*
X110630952Y-95942857D01*
X110650000Y-95904761D01*
X110669047Y-95885714D01*
X110707142Y-95866666D01*
X110764285Y-95866666D01*
X110802380Y-95885714D01*
X110821428Y-95904761D01*
X110840476Y-95942857D01*
X110840476Y-96095238D01*
X110630952Y-95504761D02*
X110630952Y-95695238D01*
X110821428Y-95714285D01*
X110802380Y-95695238D01*
X110783333Y-95657142D01*
X110783333Y-95561904D01*
X110802380Y-95523809D01*
X110821428Y-95504761D01*
X110859523Y-95485714D01*
X110954761Y-95485714D01*
X110992857Y-95504761D01*
X111011904Y-95523809D01*
X111030952Y-95561904D01*
X111030952Y-95657142D01*
X111011904Y-95695238D01*
X110992857Y-95714285D01*
%TO.C,R4*%
X93033333Y-92530952D02*
X92900000Y-92340476D01*
X92804761Y-92530952D02*
X92804761Y-92130952D01*
X92957142Y-92130952D01*
X92995238Y-92150000D01*
X93014285Y-92169047D01*
X93033333Y-92207142D01*
X93033333Y-92264285D01*
X93014285Y-92302380D01*
X92995238Y-92321428D01*
X92957142Y-92340476D01*
X92804761Y-92340476D01*
X93376190Y-92264285D02*
X93376190Y-92530952D01*
X93280952Y-92111904D02*
X93185714Y-92397619D01*
X93433333Y-92397619D01*
%TO.C,R3*%
X93833333Y-86530952D02*
X93700000Y-86340476D01*
X93604761Y-86530952D02*
X93604761Y-86130952D01*
X93757142Y-86130952D01*
X93795238Y-86150000D01*
X93814285Y-86169047D01*
X93833333Y-86207142D01*
X93833333Y-86264285D01*
X93814285Y-86302380D01*
X93795238Y-86321428D01*
X93757142Y-86340476D01*
X93604761Y-86340476D01*
X93966666Y-86130952D02*
X94214285Y-86130952D01*
X94080952Y-86283333D01*
X94138095Y-86283333D01*
X94176190Y-86302380D01*
X94195238Y-86321428D01*
X94214285Y-86359523D01*
X94214285Y-86454761D01*
X94195238Y-86492857D01*
X94176190Y-86511904D01*
X94138095Y-86530952D01*
X94023809Y-86530952D01*
X93985714Y-86511904D01*
X93966666Y-86492857D01*
%TO.C,R2*%
X96380952Y-81916666D02*
X96190476Y-82050000D01*
X96380952Y-82145238D02*
X95980952Y-82145238D01*
X95980952Y-81992857D01*
X96000000Y-81954761D01*
X96019047Y-81935714D01*
X96057142Y-81916666D01*
X96114285Y-81916666D01*
X96152380Y-81935714D01*
X96171428Y-81954761D01*
X96190476Y-81992857D01*
X96190476Y-82145238D01*
X96019047Y-81764285D02*
X96000000Y-81745238D01*
X95980952Y-81707142D01*
X95980952Y-81611904D01*
X96000000Y-81573809D01*
X96019047Y-81554761D01*
X96057142Y-81535714D01*
X96095238Y-81535714D01*
X96152380Y-81554761D01*
X96380952Y-81783333D01*
X96380952Y-81535714D01*
%TO.C,R1*%
X103980952Y-81916666D02*
X103790476Y-82050000D01*
X103980952Y-82145238D02*
X103580952Y-82145238D01*
X103580952Y-81992857D01*
X103600000Y-81954761D01*
X103619047Y-81935714D01*
X103657142Y-81916666D01*
X103714285Y-81916666D01*
X103752380Y-81935714D01*
X103771428Y-81954761D01*
X103790476Y-81992857D01*
X103790476Y-82145238D01*
X103980952Y-81535714D02*
X103980952Y-81764285D01*
X103980952Y-81650000D02*
X103580952Y-81650000D01*
X103638095Y-81688095D01*
X103676190Y-81726190D01*
X103695238Y-81764285D01*
%TO.C,C17*%
X97692857Y-105657142D02*
X97711904Y-105676190D01*
X97730952Y-105733333D01*
X97730952Y-105771428D01*
X97711904Y-105828571D01*
X97673809Y-105866666D01*
X97635714Y-105885714D01*
X97559523Y-105904761D01*
X97502380Y-105904761D01*
X97426190Y-105885714D01*
X97388095Y-105866666D01*
X97350000Y-105828571D01*
X97330952Y-105771428D01*
X97330952Y-105733333D01*
X97350000Y-105676190D01*
X97369047Y-105657142D01*
X97730952Y-105276190D02*
X97730952Y-105504761D01*
X97730952Y-105390476D02*
X97330952Y-105390476D01*
X97388095Y-105428571D01*
X97426190Y-105466666D01*
X97445238Y-105504761D01*
X97330952Y-105142857D02*
X97330952Y-104876190D01*
X97730952Y-105047619D01*
%TO.C,C16*%
X93742857Y-103542857D02*
X93723809Y-103561904D01*
X93666666Y-103580952D01*
X93628571Y-103580952D01*
X93571428Y-103561904D01*
X93533333Y-103523809D01*
X93514285Y-103485714D01*
X93495238Y-103409523D01*
X93495238Y-103352380D01*
X93514285Y-103276190D01*
X93533333Y-103238095D01*
X93571428Y-103200000D01*
X93628571Y-103180952D01*
X93666666Y-103180952D01*
X93723809Y-103200000D01*
X93742857Y-103219047D01*
X94123809Y-103580952D02*
X93895238Y-103580952D01*
X94009523Y-103580952D02*
X94009523Y-103180952D01*
X93971428Y-103238095D01*
X93933333Y-103276190D01*
X93895238Y-103295238D01*
X94466666Y-103180952D02*
X94390476Y-103180952D01*
X94352380Y-103200000D01*
X94333333Y-103219047D01*
X94295238Y-103276190D01*
X94276190Y-103352380D01*
X94276190Y-103504761D01*
X94295238Y-103542857D01*
X94314285Y-103561904D01*
X94352380Y-103580952D01*
X94428571Y-103580952D01*
X94466666Y-103561904D01*
X94485714Y-103542857D01*
X94504761Y-103504761D01*
X94504761Y-103409523D01*
X94485714Y-103371428D01*
X94466666Y-103352380D01*
X94428571Y-103333333D01*
X94352380Y-103333333D01*
X94314285Y-103352380D01*
X94295238Y-103371428D01*
X94276190Y-103409523D01*
%TO.C,C15*%
X93742857Y-96742857D02*
X93723809Y-96761904D01*
X93666666Y-96780952D01*
X93628571Y-96780952D01*
X93571428Y-96761904D01*
X93533333Y-96723809D01*
X93514285Y-96685714D01*
X93495238Y-96609523D01*
X93495238Y-96552380D01*
X93514285Y-96476190D01*
X93533333Y-96438095D01*
X93571428Y-96400000D01*
X93628571Y-96380952D01*
X93666666Y-96380952D01*
X93723809Y-96400000D01*
X93742857Y-96419047D01*
X94123809Y-96780952D02*
X93895238Y-96780952D01*
X94009523Y-96780952D02*
X94009523Y-96380952D01*
X93971428Y-96438095D01*
X93933333Y-96476190D01*
X93895238Y-96495238D01*
X94485714Y-96380952D02*
X94295238Y-96380952D01*
X94276190Y-96571428D01*
X94295238Y-96552380D01*
X94333333Y-96533333D01*
X94428571Y-96533333D01*
X94466666Y-96552380D01*
X94485714Y-96571428D01*
X94504761Y-96609523D01*
X94504761Y-96704761D01*
X94485714Y-96742857D01*
X94466666Y-96761904D01*
X94428571Y-96780952D01*
X94333333Y-96780952D01*
X94295238Y-96761904D01*
X94276190Y-96742857D01*
%TO.C,C14*%
X105242857Y-96242857D02*
X105223809Y-96261904D01*
X105166666Y-96280952D01*
X105128571Y-96280952D01*
X105071428Y-96261904D01*
X105033333Y-96223809D01*
X105014285Y-96185714D01*
X104995238Y-96109523D01*
X104995238Y-96052380D01*
X105014285Y-95976190D01*
X105033333Y-95938095D01*
X105071428Y-95900000D01*
X105128571Y-95880952D01*
X105166666Y-95880952D01*
X105223809Y-95900000D01*
X105242857Y-95919047D01*
X105623809Y-96280952D02*
X105395238Y-96280952D01*
X105509523Y-96280952D02*
X105509523Y-95880952D01*
X105471428Y-95938095D01*
X105433333Y-95976190D01*
X105395238Y-95995238D01*
X105966666Y-96014285D02*
X105966666Y-96280952D01*
X105871428Y-95861904D02*
X105776190Y-96147619D01*
X106023809Y-96147619D01*
%TO.C,C13*%
X106442857Y-102557142D02*
X106461904Y-102576190D01*
X106480952Y-102633333D01*
X106480952Y-102671428D01*
X106461904Y-102728571D01*
X106423809Y-102766666D01*
X106385714Y-102785714D01*
X106309523Y-102804761D01*
X106252380Y-102804761D01*
X106176190Y-102785714D01*
X106138095Y-102766666D01*
X106100000Y-102728571D01*
X106080952Y-102671428D01*
X106080952Y-102633333D01*
X106100000Y-102576190D01*
X106119047Y-102557142D01*
X106480952Y-102176190D02*
X106480952Y-102404761D01*
X106480952Y-102290476D02*
X106080952Y-102290476D01*
X106138095Y-102328571D01*
X106176190Y-102366666D01*
X106195238Y-102404761D01*
X106080952Y-102042857D02*
X106080952Y-101795238D01*
X106233333Y-101928571D01*
X106233333Y-101871428D01*
X106252380Y-101833333D01*
X106271428Y-101814285D01*
X106309523Y-101795238D01*
X106404761Y-101795238D01*
X106442857Y-101814285D01*
X106461904Y-101833333D01*
X106480952Y-101871428D01*
X106480952Y-101985714D01*
X106461904Y-102023809D01*
X106442857Y-102042857D01*
%TO.C,C12*%
X104892857Y-102607142D02*
X104911904Y-102626190D01*
X104930952Y-102683333D01*
X104930952Y-102721428D01*
X104911904Y-102778571D01*
X104873809Y-102816666D01*
X104835714Y-102835714D01*
X104759523Y-102854761D01*
X104702380Y-102854761D01*
X104626190Y-102835714D01*
X104588095Y-102816666D01*
X104550000Y-102778571D01*
X104530952Y-102721428D01*
X104530952Y-102683333D01*
X104550000Y-102626190D01*
X104569047Y-102607142D01*
X104930952Y-102226190D02*
X104930952Y-102454761D01*
X104930952Y-102340476D02*
X104530952Y-102340476D01*
X104588095Y-102378571D01*
X104626190Y-102416666D01*
X104645238Y-102454761D01*
X104569047Y-102073809D02*
X104550000Y-102054761D01*
X104530952Y-102016666D01*
X104530952Y-101921428D01*
X104550000Y-101883333D01*
X104569047Y-101864285D01*
X104607142Y-101845238D01*
X104645238Y-101845238D01*
X104702380Y-101864285D01*
X104930952Y-102092857D01*
X104930952Y-101845238D01*
%TO.C,C11*%
X97442857Y-94442857D02*
X97423809Y-94461904D01*
X97366666Y-94480952D01*
X97328571Y-94480952D01*
X97271428Y-94461904D01*
X97233333Y-94423809D01*
X97214285Y-94385714D01*
X97195238Y-94309523D01*
X97195238Y-94252380D01*
X97214285Y-94176190D01*
X97233333Y-94138095D01*
X97271428Y-94100000D01*
X97328571Y-94080952D01*
X97366666Y-94080952D01*
X97423809Y-94100000D01*
X97442857Y-94119047D01*
X97823809Y-94480952D02*
X97595238Y-94480952D01*
X97709523Y-94480952D02*
X97709523Y-94080952D01*
X97671428Y-94138095D01*
X97633333Y-94176190D01*
X97595238Y-94195238D01*
X98204761Y-94480952D02*
X97976190Y-94480952D01*
X98090476Y-94480952D02*
X98090476Y-94080952D01*
X98052380Y-94138095D01*
X98014285Y-94176190D01*
X97976190Y-94195238D01*
%TO.C,C10*%
X92692857Y-93942857D02*
X92673809Y-93961904D01*
X92616666Y-93980952D01*
X92578571Y-93980952D01*
X92521428Y-93961904D01*
X92483333Y-93923809D01*
X92464285Y-93885714D01*
X92445238Y-93809523D01*
X92445238Y-93752380D01*
X92464285Y-93676190D01*
X92483333Y-93638095D01*
X92521428Y-93600000D01*
X92578571Y-93580952D01*
X92616666Y-93580952D01*
X92673809Y-93600000D01*
X92692857Y-93619047D01*
X93073809Y-93980952D02*
X92845238Y-93980952D01*
X92959523Y-93980952D02*
X92959523Y-93580952D01*
X92921428Y-93638095D01*
X92883333Y-93676190D01*
X92845238Y-93695238D01*
X93321428Y-93580952D02*
X93359523Y-93580952D01*
X93397619Y-93600000D01*
X93416666Y-93619047D01*
X93435714Y-93657142D01*
X93454761Y-93733333D01*
X93454761Y-93828571D01*
X93435714Y-93904761D01*
X93416666Y-93942857D01*
X93397619Y-93961904D01*
X93359523Y-93980952D01*
X93321428Y-93980952D01*
X93283333Y-93961904D01*
X93264285Y-93942857D01*
X93245238Y-93904761D01*
X93226190Y-93828571D01*
X93226190Y-93733333D01*
X93245238Y-93657142D01*
X93264285Y-93619047D01*
X93283333Y-93600000D01*
X93321428Y-93580952D01*
%TO.C,C9*%
X103883333Y-95292857D02*
X103864285Y-95311904D01*
X103807142Y-95330952D01*
X103769047Y-95330952D01*
X103711904Y-95311904D01*
X103673809Y-95273809D01*
X103654761Y-95235714D01*
X103635714Y-95159523D01*
X103635714Y-95102380D01*
X103654761Y-95026190D01*
X103673809Y-94988095D01*
X103711904Y-94950000D01*
X103769047Y-94930952D01*
X103807142Y-94930952D01*
X103864285Y-94950000D01*
X103883333Y-94969047D01*
X104073809Y-95330952D02*
X104150000Y-95330952D01*
X104188095Y-95311904D01*
X104207142Y-95292857D01*
X104245238Y-95235714D01*
X104264285Y-95159523D01*
X104264285Y-95007142D01*
X104245238Y-94969047D01*
X104226190Y-94950000D01*
X104188095Y-94930952D01*
X104111904Y-94930952D01*
X104073809Y-94950000D01*
X104054761Y-94969047D01*
X104035714Y-95007142D01*
X104035714Y-95102380D01*
X104054761Y-95140476D01*
X104073809Y-95159523D01*
X104111904Y-95178571D01*
X104188095Y-95178571D01*
X104226190Y-95159523D01*
X104245238Y-95140476D01*
X104264285Y-95102380D01*
%TO.C,C8*%
X92142857Y-89966666D02*
X92161904Y-89985714D01*
X92180952Y-90042857D01*
X92180952Y-90080952D01*
X92161904Y-90138095D01*
X92123809Y-90176190D01*
X92085714Y-90195238D01*
X92009523Y-90214285D01*
X91952380Y-90214285D01*
X91876190Y-90195238D01*
X91838095Y-90176190D01*
X91800000Y-90138095D01*
X91780952Y-90080952D01*
X91780952Y-90042857D01*
X91800000Y-89985714D01*
X91819047Y-89966666D01*
X91952380Y-89738095D02*
X91933333Y-89776190D01*
X91914285Y-89795238D01*
X91876190Y-89814285D01*
X91857142Y-89814285D01*
X91819047Y-89795238D01*
X91800000Y-89776190D01*
X91780952Y-89738095D01*
X91780952Y-89661904D01*
X91800000Y-89623809D01*
X91819047Y-89604761D01*
X91857142Y-89585714D01*
X91876190Y-89585714D01*
X91914285Y-89604761D01*
X91933333Y-89623809D01*
X91952380Y-89661904D01*
X91952380Y-89738095D01*
X91971428Y-89776190D01*
X91990476Y-89795238D01*
X92028571Y-89814285D01*
X92104761Y-89814285D01*
X92142857Y-89795238D01*
X92161904Y-89776190D01*
X92180952Y-89738095D01*
X92180952Y-89661904D01*
X92161904Y-89623809D01*
X92142857Y-89604761D01*
X92104761Y-89585714D01*
X92028571Y-89585714D01*
X91990476Y-89604761D01*
X91971428Y-89623809D01*
X91952380Y-89661904D01*
%TO.C,C7*%
X103883333Y-93792857D02*
X103864285Y-93811904D01*
X103807142Y-93830952D01*
X103769047Y-93830952D01*
X103711904Y-93811904D01*
X103673809Y-93773809D01*
X103654761Y-93735714D01*
X103635714Y-93659523D01*
X103635714Y-93602380D01*
X103654761Y-93526190D01*
X103673809Y-93488095D01*
X103711904Y-93450000D01*
X103769047Y-93430952D01*
X103807142Y-93430952D01*
X103864285Y-93450000D01*
X103883333Y-93469047D01*
X104016666Y-93430952D02*
X104283333Y-93430952D01*
X104111904Y-93830952D01*
%TO.C,C6*%
X98433333Y-86542857D02*
X98414285Y-86561904D01*
X98357142Y-86580952D01*
X98319047Y-86580952D01*
X98261904Y-86561904D01*
X98223809Y-86523809D01*
X98204761Y-86485714D01*
X98185714Y-86409523D01*
X98185714Y-86352380D01*
X98204761Y-86276190D01*
X98223809Y-86238095D01*
X98261904Y-86200000D01*
X98319047Y-86180952D01*
X98357142Y-86180952D01*
X98414285Y-86200000D01*
X98433333Y-86219047D01*
X98776190Y-86180952D02*
X98700000Y-86180952D01*
X98661904Y-86200000D01*
X98642857Y-86219047D01*
X98604761Y-86276190D01*
X98585714Y-86352380D01*
X98585714Y-86504761D01*
X98604761Y-86542857D01*
X98623809Y-86561904D01*
X98661904Y-86580952D01*
X98738095Y-86580952D01*
X98776190Y-86561904D01*
X98795238Y-86542857D01*
X98814285Y-86504761D01*
X98814285Y-86409523D01*
X98795238Y-86371428D01*
X98776190Y-86352380D01*
X98738095Y-86333333D01*
X98661904Y-86333333D01*
X98623809Y-86352380D01*
X98604761Y-86371428D01*
X98585714Y-86409523D01*
%TO.C,C4*%
X95242857Y-86316666D02*
X95261904Y-86335714D01*
X95280952Y-86392857D01*
X95280952Y-86430952D01*
X95261904Y-86488095D01*
X95223809Y-86526190D01*
X95185714Y-86545238D01*
X95109523Y-86564285D01*
X95052380Y-86564285D01*
X94976190Y-86545238D01*
X94938095Y-86526190D01*
X94900000Y-86488095D01*
X94880952Y-86430952D01*
X94880952Y-86392857D01*
X94900000Y-86335714D01*
X94919047Y-86316666D01*
X95014285Y-85973809D02*
X95280952Y-85973809D01*
X94861904Y-86069047D02*
X95147619Y-86164285D01*
X95147619Y-85916666D01*
%TO.C,C3*%
X105042857Y-86366666D02*
X105061904Y-86385714D01*
X105080952Y-86442857D01*
X105080952Y-86480952D01*
X105061904Y-86538095D01*
X105023809Y-86576190D01*
X104985714Y-86595238D01*
X104909523Y-86614285D01*
X104852380Y-86614285D01*
X104776190Y-86595238D01*
X104738095Y-86576190D01*
X104700000Y-86538095D01*
X104680952Y-86480952D01*
X104680952Y-86442857D01*
X104700000Y-86385714D01*
X104719047Y-86366666D01*
X104680952Y-86233333D02*
X104680952Y-85985714D01*
X104833333Y-86119047D01*
X104833333Y-86061904D01*
X104852380Y-86023809D01*
X104871428Y-86004761D01*
X104909523Y-85985714D01*
X105004761Y-85985714D01*
X105042857Y-86004761D01*
X105061904Y-86023809D01*
X105080952Y-86061904D01*
X105080952Y-86176190D01*
X105061904Y-86214285D01*
X105042857Y-86233333D01*
%TO.C,C1*%
X101433333Y-84292857D02*
X101414285Y-84311904D01*
X101357142Y-84330952D01*
X101319047Y-84330952D01*
X101261904Y-84311904D01*
X101223809Y-84273809D01*
X101204761Y-84235714D01*
X101185714Y-84159523D01*
X101185714Y-84102380D01*
X101204761Y-84026190D01*
X101223809Y-83988095D01*
X101261904Y-83950000D01*
X101319047Y-83930952D01*
X101357142Y-83930952D01*
X101414285Y-83950000D01*
X101433333Y-83969047D01*
X101814285Y-84330952D02*
X101585714Y-84330952D01*
X101700000Y-84330952D02*
X101700000Y-83930952D01*
X101661904Y-83988095D01*
X101623809Y-84026190D01*
X101585714Y-84045238D01*
%TO.C,J3*%
D11*
X99666666Y-114352380D02*
X99666666Y-115066666D01*
X99619047Y-115209523D01*
X99523809Y-115304761D01*
X99380952Y-115352380D01*
X99285714Y-115352380D01*
X100047619Y-114352380D02*
X100666666Y-114352380D01*
X100333333Y-114733333D01*
X100476190Y-114733333D01*
X100571428Y-114780952D01*
X100619047Y-114828571D01*
X100666666Y-114923809D01*
X100666666Y-115161904D01*
X100619047Y-115257142D01*
X100571428Y-115304761D01*
X100476190Y-115352380D01*
X100190476Y-115352380D01*
X100095238Y-115304761D01*
X100047619Y-115257142D01*
X95035714Y-109352380D02*
X94464285Y-109352380D01*
X94750000Y-109352380D02*
X94750000Y-108352380D01*
X94654761Y-108495238D01*
X94559523Y-108590476D01*
X94464285Y-108638095D01*
%TO.C,Y1*%
D13*
X91888095Y-100238095D02*
X92126190Y-100238095D01*
X91626190Y-100404761D02*
X91888095Y-100238095D01*
X91626190Y-100071428D01*
X92126190Y-99642857D02*
X92126190Y-99928571D01*
X92126190Y-99785714D02*
X91626190Y-99785714D01*
X91697619Y-99833333D01*
X91745238Y-99880952D01*
X91769047Y-99928571D01*
%TD*%
M02*
