%TF.GenerationSoftware,KiCad,Pcbnew,(6.0.0-0)*%
%TF.CreationDate,2022-01-02T09:35:29+00:00*%
%TF.ProjectId,PN532,504e3533-322e-46b6-9963-61645f706362,7*%
%TF.SameCoordinates,Original*%
%TF.FileFunction,Legend,Top*%
%TF.FilePolarity,Positive*%
%FSLAX46Y46*%
G04 Gerber Fmt 4.6, Leading zero omitted, Abs format (unit mm)*
G04 Created by KiCad (PCBNEW (6.0.0-0)) date 2022-01-02 09:35:29*
%MOMM*%
%LPD*%
G01*
G04 APERTURE LIST*
%ADD10C,0.120000*%
%ADD11C,0.150000*%
%ADD12C,0.100000*%
%ADD13C,0.080000*%
%ADD14C,0.300000*%
G04 APERTURE END LIST*
D10*
X101749999Y-90250001D02*
G75*
G03*
X98250001Y-90250001I-1749999J-1750000D01*
G01*
X101250000Y-114500000D02*
X101000000Y-114250000D01*
X100316228Y-92825000D02*
G75*
G03*
X100316228Y-92825000I-316228J0D01*
G01*
X101250000Y-113250000D02*
X101250000Y-114500000D01*
X103750000Y-113250000D02*
X103750000Y-114500000D01*
X101250000Y-91400000D02*
G75*
G03*
X100250000Y-92400000I-1J-999999D01*
G01*
X103750000Y-113250000D02*
X104000000Y-113500000D01*
X103750000Y-113250000D02*
X103500000Y-113500000D01*
X101250000Y-114500000D02*
X101500000Y-114250000D01*
X101249999Y-90750001D02*
G75*
G03*
X98750001Y-90750001I-1249999J-1249997D01*
G01*
X101999999Y-90000001D02*
G75*
G03*
X98000001Y-90000001I-1999999J-1999998D01*
G01*
X99750000Y-92400000D02*
G75*
G03*
X98750000Y-91400000I-999999J1D01*
G01*
X101499999Y-90500001D02*
G75*
G03*
X98500001Y-90500001I-1499999J-1499999D01*
G01*
D11*
X89047619Y-97404761D02*
X89047619Y-97976190D01*
X88047619Y-97690476D02*
X89047619Y-97690476D01*
X88047619Y-98738095D02*
X88571428Y-98738095D01*
X88666666Y-98690476D01*
X88714285Y-98595238D01*
X88714285Y-98404761D01*
X88666666Y-98309523D01*
X88095238Y-98738095D02*
X88047619Y-98642857D01*
X88047619Y-98404761D01*
X88095238Y-98309523D01*
X88190476Y-98261904D01*
X88285714Y-98261904D01*
X88380952Y-98309523D01*
X88428571Y-98404761D01*
X88428571Y-98642857D01*
X88476190Y-98738095D01*
X88047619Y-99214285D02*
X88714285Y-99214285D01*
X88619047Y-99214285D02*
X88666666Y-99261904D01*
X88714285Y-99357142D01*
X88714285Y-99500000D01*
X88666666Y-99595238D01*
X88571428Y-99642857D01*
X88047619Y-99642857D01*
X88571428Y-99642857D02*
X88666666Y-99690476D01*
X88714285Y-99785714D01*
X88714285Y-99928571D01*
X88666666Y-100023809D01*
X88571428Y-100071428D01*
X88047619Y-100071428D01*
X88714285Y-100547619D02*
X87714285Y-100547619D01*
X88666666Y-100547619D02*
X88714285Y-100642857D01*
X88714285Y-100833333D01*
X88666666Y-100928571D01*
X88619047Y-100976190D01*
X88523809Y-101023809D01*
X88238095Y-101023809D01*
X88142857Y-100976190D01*
X88095238Y-100928571D01*
X88047619Y-100833333D01*
X88047619Y-100642857D01*
X88095238Y-100547619D01*
X88095238Y-101833333D02*
X88047619Y-101738095D01*
X88047619Y-101547619D01*
X88095238Y-101452380D01*
X88190476Y-101404761D01*
X88571428Y-101404761D01*
X88666666Y-101452380D01*
X88714285Y-101547619D01*
X88714285Y-101738095D01*
X88666666Y-101833333D01*
X88571428Y-101880952D01*
X88476190Y-101880952D01*
X88380952Y-101404761D01*
X88047619Y-102309523D02*
X88714285Y-102309523D01*
X88523809Y-102309523D02*
X88619047Y-102357142D01*
X88666666Y-102404761D01*
X88714285Y-102500000D01*
X88714285Y-102595238D01*
D12*
X95539761Y-107226190D02*
X95539761Y-106726190D01*
X95754047Y-106773809D02*
X95777857Y-106750000D01*
X95825476Y-106726190D01*
X95944523Y-106726190D01*
X95992142Y-106750000D01*
X96015952Y-106773809D01*
X96039761Y-106821428D01*
X96039761Y-106869047D01*
X96015952Y-106940476D01*
X95730238Y-107226190D01*
X96039761Y-107226190D01*
X96539761Y-107178571D02*
X96515952Y-107202380D01*
X96444523Y-107226190D01*
X96396904Y-107226190D01*
X96325476Y-107202380D01*
X96277857Y-107154761D01*
X96254047Y-107107142D01*
X96230238Y-107011904D01*
X96230238Y-106940476D01*
X96254047Y-106845238D01*
X96277857Y-106797619D01*
X96325476Y-106750000D01*
X96396904Y-106726190D01*
X96444523Y-106726190D01*
X96515952Y-106750000D01*
X96539761Y-106773809D01*
X92784047Y-107226190D02*
X92784047Y-106726190D01*
X92784047Y-106964285D02*
X93069761Y-106964285D01*
X93069761Y-107226190D02*
X93069761Y-106726190D01*
X93284047Y-107202380D02*
X93355476Y-107226190D01*
X93474523Y-107226190D01*
X93522142Y-107202380D01*
X93545952Y-107178571D01*
X93569761Y-107130952D01*
X93569761Y-107083333D01*
X93545952Y-107035714D01*
X93522142Y-107011904D01*
X93474523Y-106988095D01*
X93379285Y-106964285D01*
X93331666Y-106940476D01*
X93307857Y-106916666D01*
X93284047Y-106869047D01*
X93284047Y-106821428D01*
X93307857Y-106773809D01*
X93331666Y-106750000D01*
X93379285Y-106726190D01*
X93498333Y-106726190D01*
X93569761Y-106750000D01*
X93784047Y-106726190D02*
X93784047Y-107130952D01*
X93807857Y-107178571D01*
X93831666Y-107202380D01*
X93879285Y-107226190D01*
X93974523Y-107226190D01*
X94022142Y-107202380D01*
X94045952Y-107178571D01*
X94069761Y-107130952D01*
X94069761Y-106726190D01*
D11*
X100727380Y-119607261D02*
X100727380Y-119035833D01*
X101727380Y-119321547D02*
X100727380Y-119321547D01*
X100727380Y-118797738D02*
X101727380Y-118131071D01*
X100727380Y-118131071D02*
X101727380Y-118797738D01*
X104227380Y-118892976D02*
X103751190Y-119226309D01*
X104227380Y-119464404D02*
X103227380Y-119464404D01*
X103227380Y-119083452D01*
X103275000Y-118988214D01*
X103322619Y-118940595D01*
X103417857Y-118892976D01*
X103560714Y-118892976D01*
X103655952Y-118940595D01*
X103703571Y-118988214D01*
X103751190Y-119083452D01*
X103751190Y-119464404D01*
X103227380Y-118559642D02*
X104227380Y-117892976D01*
X103227380Y-117892976D02*
X104227380Y-118559642D01*
X95775000Y-118940595D02*
X95727380Y-119035833D01*
X95727380Y-119178690D01*
X95775000Y-119321547D01*
X95870238Y-119416785D01*
X95965476Y-119464404D01*
X96155952Y-119512023D01*
X96298809Y-119512023D01*
X96489285Y-119464404D01*
X96584523Y-119416785D01*
X96679761Y-119321547D01*
X96727380Y-119178690D01*
X96727380Y-119083452D01*
X96679761Y-118940595D01*
X96632142Y-118892976D01*
X96298809Y-118892976D01*
X96298809Y-119083452D01*
X96727380Y-118464404D02*
X95727380Y-118464404D01*
X96727380Y-117892976D01*
X95727380Y-117892976D01*
X96727380Y-117416785D02*
X95727380Y-117416785D01*
X95727380Y-117178690D01*
X95775000Y-117035833D01*
X95870238Y-116940595D01*
X95965476Y-116892976D01*
X96155952Y-116845357D01*
X96298809Y-116845357D01*
X96489285Y-116892976D01*
X96584523Y-116940595D01*
X96679761Y-117035833D01*
X96727380Y-117178690D01*
X96727380Y-117416785D01*
X98227380Y-119607261D02*
X99227380Y-119273928D01*
X98227380Y-118940595D01*
X99132142Y-118035833D02*
X99179761Y-118083452D01*
X99227380Y-118226309D01*
X99227380Y-118321547D01*
X99179761Y-118464404D01*
X99084523Y-118559642D01*
X98989285Y-118607261D01*
X98798809Y-118654880D01*
X98655952Y-118654880D01*
X98465476Y-118607261D01*
X98370238Y-118559642D01*
X98275000Y-118464404D01*
X98227380Y-118321547D01*
X98227380Y-118226309D01*
X98275000Y-118083452D01*
X98322619Y-118035833D01*
X99132142Y-117035833D02*
X99179761Y-117083452D01*
X99227380Y-117226309D01*
X99227380Y-117321547D01*
X99179761Y-117464404D01*
X99084523Y-117559642D01*
X98989285Y-117607261D01*
X98798809Y-117654880D01*
X98655952Y-117654880D01*
X98465476Y-117607261D01*
X98370238Y-117559642D01*
X98275000Y-117464404D01*
X98227380Y-117321547D01*
X98227380Y-117226309D01*
X98275000Y-117083452D01*
X98322619Y-117035833D01*
D13*
X113864285Y-106440476D02*
X113888095Y-106369047D01*
X113911904Y-106345238D01*
X113959523Y-106321428D01*
X114030952Y-106321428D01*
X114078571Y-106345238D01*
X114102380Y-106369047D01*
X114126190Y-106416666D01*
X114126190Y-106607142D01*
X113626190Y-106607142D01*
X113626190Y-106440476D01*
X113650000Y-106392857D01*
X113673809Y-106369047D01*
X113721428Y-106345238D01*
X113769047Y-106345238D01*
X113816666Y-106369047D01*
X113840476Y-106392857D01*
X113864285Y-106440476D01*
X113864285Y-106607142D01*
X114102380Y-105916666D02*
X114126190Y-105964285D01*
X114126190Y-106059523D01*
X114102380Y-106107142D01*
X114054761Y-106130952D01*
X113864285Y-106130952D01*
X113816666Y-106107142D01*
X113792857Y-106059523D01*
X113792857Y-105964285D01*
X113816666Y-105916666D01*
X113864285Y-105892857D01*
X113911904Y-105892857D01*
X113959523Y-106130952D01*
X114126190Y-105607142D02*
X114102380Y-105654761D01*
X114054761Y-105678571D01*
X113626190Y-105678571D01*
X114126190Y-105345238D02*
X114102380Y-105392857D01*
X114054761Y-105416666D01*
X113626190Y-105416666D01*
D14*
X106757380Y-82704761D02*
X106090714Y-81752380D01*
X105614523Y-82704761D02*
X105614523Y-80704761D01*
X106376428Y-80704761D01*
X106566904Y-80800000D01*
X106662142Y-80895238D01*
X106757380Y-81085714D01*
X106757380Y-81371428D01*
X106662142Y-81561904D01*
X106566904Y-81657142D01*
X106376428Y-81752380D01*
X105614523Y-81752380D01*
X108281190Y-81657142D02*
X107614523Y-81657142D01*
X107614523Y-82704761D02*
X107614523Y-80704761D01*
X108566904Y-80704761D01*
X109328809Y-82704761D02*
X109328809Y-80704761D01*
X110281190Y-82704761D02*
X110281190Y-80704761D01*
X110757380Y-80704761D01*
X111043095Y-80800000D01*
X111233571Y-80990476D01*
X111328809Y-81180952D01*
X111424047Y-81561904D01*
X111424047Y-81847619D01*
X111328809Y-82228571D01*
X111233571Y-82419047D01*
X111043095Y-82609523D01*
X110757380Y-82704761D01*
X110281190Y-82704761D01*
X88671190Y-82704761D02*
X88671190Y-80704761D01*
X89814047Y-82704761D01*
X89814047Y-80704761D01*
X91433095Y-81657142D02*
X90766428Y-81657142D01*
X90766428Y-82704761D02*
X90766428Y-80704761D01*
X91718809Y-80704761D01*
X93623571Y-82514285D02*
X93528333Y-82609523D01*
X93242619Y-82704761D01*
X93052142Y-82704761D01*
X92766428Y-82609523D01*
X92575952Y-82419047D01*
X92480714Y-82228571D01*
X92385476Y-81847619D01*
X92385476Y-81561904D01*
X92480714Y-81180952D01*
X92575952Y-80990476D01*
X92766428Y-80800000D01*
X93052142Y-80704761D01*
X93242619Y-80704761D01*
X93528333Y-80800000D01*
X93623571Y-80895238D01*
D11*
X114285714Y-97857142D02*
X114952380Y-97666666D01*
X114476190Y-97476190D01*
X114952380Y-97285714D01*
X114285714Y-97095238D01*
X114285714Y-96809523D02*
X114952380Y-96619047D01*
X114476190Y-96428571D01*
X114952380Y-96238095D01*
X114285714Y-96047619D01*
X114285714Y-95761904D02*
X114952380Y-95571428D01*
X114476190Y-95380952D01*
X114952380Y-95190476D01*
X114285714Y-95000000D01*
X114857142Y-94619047D02*
X114904761Y-94571428D01*
X114952380Y-94619047D01*
X114904761Y-94666666D01*
X114857142Y-94619047D01*
X114952380Y-94619047D01*
X114952380Y-94142857D02*
X114285714Y-94142857D01*
X114380952Y-94142857D02*
X114333333Y-94095238D01*
X114285714Y-94000000D01*
X114285714Y-93857142D01*
X114333333Y-93761904D01*
X114428571Y-93714285D01*
X114952380Y-93714285D01*
X114428571Y-93714285D02*
X114333333Y-93666666D01*
X114285714Y-93571428D01*
X114285714Y-93428571D01*
X114333333Y-93333333D01*
X114428571Y-93285714D01*
X114952380Y-93285714D01*
X114904761Y-92428571D02*
X114952380Y-92523809D01*
X114952380Y-92714285D01*
X114904761Y-92809523D01*
X114809523Y-92857142D01*
X114428571Y-92857142D01*
X114333333Y-92809523D01*
X114285714Y-92714285D01*
X114285714Y-92523809D01*
X114333333Y-92428571D01*
X114428571Y-92380952D01*
X114523809Y-92380952D01*
X114619047Y-92857142D01*
X114857142Y-91952380D02*
X114904761Y-91904761D01*
X114952380Y-91952380D01*
X114904761Y-92000000D01*
X114857142Y-91952380D01*
X114952380Y-91952380D01*
X114285714Y-91047619D02*
X114952380Y-91047619D01*
X114285714Y-91476190D02*
X114809523Y-91476190D01*
X114904761Y-91428571D01*
X114952380Y-91333333D01*
X114952380Y-91190476D01*
X114904761Y-91095238D01*
X114857142Y-91047619D01*
X114952380Y-90571428D02*
X113952380Y-90571428D01*
X114571428Y-90476190D02*
X114952380Y-90190476D01*
X114285714Y-90190476D02*
X114666666Y-90571428D01*
D10*
%TO.C,D2*%
X113000000Y-92800000D02*
X113000000Y-95200000D01*
X111000000Y-92800000D02*
X113000000Y-92800000D01*
X113000000Y-95200000D02*
X111400000Y-95200000D01*
X111000000Y-94800000D02*
X111000000Y-92800000D01*
X111400000Y-95200000D02*
X111000000Y-94800000D01*
%TO.C,D3*%
X111400000Y-89200000D02*
X111000000Y-88800000D01*
X111000000Y-86800000D02*
X113000000Y-86800000D01*
X113000000Y-89200000D02*
X111400000Y-89200000D01*
X113000000Y-86800000D02*
X113000000Y-89200000D01*
X111000000Y-88800000D02*
X111000000Y-86800000D01*
%TO.C,SW1*%
X85270000Y-96770000D02*
X85270000Y-103230000D01*
X89800000Y-96770000D02*
X87200000Y-96770000D01*
X85250000Y-97750000D02*
X85250000Y-102250000D01*
X91730000Y-103230000D02*
X91700000Y-103230000D01*
X85270000Y-96770000D02*
X85300000Y-96770000D01*
X91730000Y-96770000D02*
X91730000Y-103230000D01*
X89250000Y-96500000D02*
X87750000Y-96500000D01*
X85270000Y-103230000D02*
X85300000Y-103230000D01*
X89800000Y-103230000D02*
X87200000Y-103230000D01*
X87750000Y-103500000D02*
X89250000Y-103500000D01*
X91750000Y-102250000D02*
X91750000Y-97750000D01*
X91700000Y-96770000D02*
X91730000Y-96770000D01*
%TO.C,D1*%
X111400000Y-101200000D02*
X111000000Y-100800000D01*
X111000000Y-98800000D02*
X113000000Y-98800000D01*
X113000000Y-101200000D02*
X111400000Y-101200000D01*
X113000000Y-98800000D02*
X113000000Y-101200000D01*
X111000000Y-100800000D02*
X111000000Y-98800000D01*
%TO.C,C7*%
X101075000Y-94850000D02*
X101675000Y-94850000D01*
X101075000Y-95850000D02*
X101675000Y-95850000D01*
%TO.C,C3*%
X103300000Y-87825000D02*
X103300000Y-87225000D01*
X104300000Y-87825000D02*
X104300000Y-87225000D01*
%TO.C,C5*%
X101400000Y-88775000D02*
X102000000Y-88775000D01*
X101400000Y-87775000D02*
X102000000Y-87775000D01*
%TO.C,R6*%
X108700000Y-96300000D02*
X109300000Y-96300000D01*
X108700000Y-95300000D02*
X109300000Y-95300000D01*
%TO.C,R4*%
X93600000Y-87775000D02*
X94200000Y-87775000D01*
X93600000Y-88775000D02*
X94200000Y-88775000D01*
%TO.C,C13*%
X106750000Y-99300000D02*
X106750000Y-99900000D01*
X105750000Y-99300000D02*
X105750000Y-99900000D01*
%TO.C,C14*%
X105200000Y-96800000D02*
X105800000Y-96800000D01*
X105200000Y-97800000D02*
X105800000Y-97800000D01*
%TO.C,C9*%
X93575000Y-94250000D02*
X94175000Y-94250000D01*
X93575000Y-95250000D02*
X94175000Y-95250000D01*
%TO.C,C16*%
X93575000Y-97000000D02*
X94175000Y-97000000D01*
X93575000Y-98000000D02*
X94175000Y-98000000D01*
%TO.C,R9*%
X108700000Y-100800000D02*
X109300000Y-100800000D01*
X108700000Y-99800000D02*
X109300000Y-99800000D01*
%TO.C,R8*%
X108700000Y-102300000D02*
X109300000Y-102300000D01*
X108700000Y-101300000D02*
X109300000Y-101300000D01*
%TO.C,R11*%
X99800000Y-105450000D02*
X99800000Y-104850000D01*
X98800000Y-105450000D02*
X98800000Y-104850000D01*
%TO.C,U1*%
X96890000Y-102635000D02*
X96890000Y-103110000D01*
X96890000Y-103110000D02*
X97365000Y-103110000D01*
X96890000Y-97365000D02*
X96890000Y-96890000D01*
X103110000Y-97365000D02*
X103110000Y-96890000D01*
X96890000Y-96890000D02*
X97365000Y-96890000D01*
X103110000Y-102635000D02*
X103110000Y-103110000D01*
X103110000Y-103110000D02*
X102635000Y-103110000D01*
%TO.C,C17*%
X94175000Y-103000000D02*
X93575000Y-103000000D01*
X94175000Y-102000000D02*
X93575000Y-102000000D01*
%TO.C,C12*%
X98925000Y-93350000D02*
X98325000Y-93350000D01*
X98925000Y-94350000D02*
X98325000Y-94350000D01*
%TO.C,R5*%
X92600000Y-92550000D02*
X92600000Y-93150000D01*
X93600000Y-92550000D02*
X93600000Y-93150000D01*
%TO.C,R7*%
X108700000Y-97800000D02*
X109300000Y-97800000D01*
X108700000Y-96800000D02*
X109300000Y-96800000D01*
%TO.C,R10*%
X108700000Y-98300000D02*
X109300000Y-98300000D01*
X108700000Y-99300000D02*
X109300000Y-99300000D01*
%TO.C,C18*%
X97200000Y-105450000D02*
X97200000Y-104850000D01*
X98200000Y-105450000D02*
X98200000Y-104850000D01*
%TO.C,C11*%
X105250000Y-99300000D02*
X105250000Y-99900000D01*
X104250000Y-99300000D02*
X104250000Y-99900000D01*
%TO.C,C8*%
X93600000Y-90500000D02*
X93600000Y-89900000D01*
X92600000Y-90500000D02*
X92600000Y-89900000D01*
%TO.C,J3*%
X106350000Y-107500000D02*
X106350000Y-115500000D01*
X93650000Y-107500000D02*
X106350000Y-107500000D01*
X93650000Y-107500000D02*
X93650000Y-115500000D01*
%TO.C,C10*%
X101075000Y-93350000D02*
X101675000Y-93350000D01*
X101075000Y-94350000D02*
X101675000Y-94350000D01*
%TO.C,C1*%
X102000000Y-86400000D02*
X101400000Y-86400000D01*
X102000000Y-85400000D02*
X101400000Y-85400000D01*
X102000000Y-86600000D02*
X101400000Y-86600000D01*
X102000000Y-87600000D02*
X101400000Y-87600000D01*
%TO.C,C6*%
X98600000Y-87775000D02*
X98000000Y-87775000D01*
X98600000Y-88775000D02*
X98000000Y-88775000D01*
%TO.C,R15*%
X106100000Y-105450000D02*
X106100000Y-104850000D01*
X105100000Y-105450000D02*
X105100000Y-104850000D01*
%TO.C,JP1*%
X93250000Y-104400000D02*
X96050000Y-104400000D01*
X96700000Y-105100000D02*
X96700000Y-105700000D01*
X92600000Y-105700000D02*
X92600000Y-105100000D01*
X96050000Y-106400000D02*
X93250000Y-106400000D01*
X92600000Y-105700000D02*
G75*
G03*
X93300000Y-106400000I699999J-1D01*
G01*
X96700000Y-105100000D02*
G75*
G03*
X96000000Y-104400000I-699999J1D01*
G01*
X96000000Y-106400000D02*
G75*
G03*
X96700000Y-105700000I1J699999D01*
G01*
X93300000Y-104400000D02*
G75*
G03*
X92600000Y-105100000I-1J-699999D01*
G01*
%TO.C,R13*%
X101350000Y-106400000D02*
X101950000Y-106400000D01*
X101350000Y-105400000D02*
X101950000Y-105400000D01*
%TO.C,C15*%
X93575000Y-95450000D02*
X94175000Y-95450000D01*
X93575000Y-96450000D02*
X94175000Y-96450000D01*
%TO.C,R14*%
X101950000Y-103900000D02*
X101350000Y-103900000D01*
X101950000Y-104900000D02*
X101350000Y-104900000D01*
%TO.C,L1*%
X101740156Y-90671366D02*
X102921366Y-89490156D01*
X103578634Y-92509844D02*
X104759844Y-91328634D01*
%TO.C,L2*%
X97078634Y-89490156D02*
X98259844Y-90671366D01*
X95240156Y-91328634D02*
X96421366Y-92509844D01*
%TO.C,C4*%
X95700000Y-87225000D02*
X95700000Y-87825000D01*
X96700000Y-87225000D02*
X96700000Y-87825000D01*
%TO.C,R12*%
X103500000Y-104850000D02*
X103500000Y-105450000D01*
X104500000Y-104850000D02*
X104500000Y-105450000D01*
%TO.C,D5*%
X108300000Y-95060000D02*
X109700000Y-95060000D01*
X109700000Y-92740000D02*
X107800000Y-92740000D01*
%TO.C,C2*%
X98600000Y-86600000D02*
X98000000Y-86600000D01*
X98600000Y-85400000D02*
X98000000Y-85400000D01*
X98600000Y-86400000D02*
X98000000Y-86400000D01*
X98600000Y-87600000D02*
X98000000Y-87600000D01*
%TO.C,C19*%
X108700000Y-108700000D02*
X109300000Y-108700000D01*
X108700000Y-107700000D02*
X109300000Y-107700000D01*
%TO.C,D4*%
X109700000Y-102540000D02*
X107800000Y-102540000D01*
X108300000Y-104860000D02*
X109700000Y-104860000D01*
%TO.C,D6*%
X109700000Y-105140000D02*
X108300000Y-105140000D01*
X108300000Y-107460000D02*
X110200000Y-107460000D01*
%TO.C,A1*%
X100750000Y-82500000D02*
X100750000Y-81500000D01*
X101500000Y-83700000D02*
X101500000Y-84300000D01*
X97500000Y-83700000D02*
X97500000Y-84300000D01*
X98500000Y-83700000D02*
X98500000Y-84300000D01*
X102500000Y-83700000D02*
X102500000Y-84300000D01*
X99250000Y-82500000D02*
X99250000Y-81500000D01*
X116500000Y-88000000D02*
X116500000Y-112000000D01*
X112000000Y-116500000D02*
X88000000Y-116500000D01*
X88000000Y-83500000D02*
X112000000Y-83500000D01*
X83500000Y-112000000D02*
X83500000Y-88000000D01*
X83500000Y-112000000D02*
G75*
G03*
X88000000Y-116500000I4499998J-2D01*
G01*
X112000000Y-116500000D02*
G75*
G03*
X116500000Y-112000000I2J4499998D01*
G01*
X116500000Y-88000000D02*
G75*
G03*
X112000000Y-83500000I-4499998J2D01*
G01*
X88000000Y-83500000D02*
G75*
G03*
X83500000Y-88000000I-2J-4499998D01*
G01*
%TD*%
M02*
