%TF.GenerationSoftware,KiCad,Pcbnew,(5.1.9-0-10_14)*%
%TF.CreationDate,2021-07-24T09:19:48+01:00*%
%TF.ProjectId,PN532,504e3533-322e-46b6-9963-61645f706362,7*%
%TF.SameCoordinates,Original*%
%TF.FileFunction,Soldermask,Bot*%
%TF.FilePolarity,Negative*%
%FSLAX46Y46*%
G04 Gerber Fmt 4.6, Leading zero omitted, Abs format (unit mm)*
G04 Created by KiCad (PCBNEW (5.1.9-0-10_14)) date 2021-07-24 09:19:48*
%MOMM*%
%LPD*%
G01*
G04 APERTURE LIST*
%ADD10C,0.100000*%
%ADD11O,2.100000X1.450000*%
%ADD12C,0.350000*%
%ADD13O,1.700000X1.700000*%
%ADD14R,1.700000X1.700000*%
%ADD15R,1.300000X2.000000*%
%ADD16C,2.000000*%
%ADD17C,0.600000*%
%ADD18C,3.200000*%
%ADD19C,1.200000*%
%ADD20O,1.700000X1.850000*%
G04 APERTURE END LIST*
D10*
%TO.C,U2*%
G36*
X85100000Y-109100000D02*
G01*
X90900000Y-109100000D01*
X90900000Y-114900000D01*
X85100000Y-114900000D01*
X85100000Y-109100000D01*
G37*
X85100000Y-109100000D02*
X90900000Y-109100000D01*
X90900000Y-114900000D01*
X85100000Y-114900000D01*
X85100000Y-109100000D01*
%TD*%
D11*
%TO.C,D3*%
X112000000Y-88000000D03*
%TD*%
%TO.C,D2*%
X112000000Y-94000000D03*
%TD*%
%TO.C,D1*%
X112000000Y-100000000D03*
%TD*%
D12*
%TO.C,U1*%
X100000000Y-100000000D03*
X99000000Y-101000000D03*
X99000000Y-99000000D03*
X101000000Y-99000000D03*
X101000000Y-101000000D03*
%TD*%
D13*
%TO.C,J1*%
X112000000Y-104730000D03*
D14*
X112000000Y-107270000D03*
%TD*%
D15*
%TO.C,SW1*%
X86250000Y-95800000D03*
X90750000Y-95800000D03*
X90750000Y-104200000D03*
X86250000Y-104200000D03*
D16*
X90750000Y-103250000D03*
X86250000Y-103250000D03*
X90750000Y-96750000D03*
X86250000Y-96750000D03*
%TD*%
D17*
%TO.C,A1*%
X98000000Y-83000000D03*
X102000000Y-83000000D03*
X100000000Y-81000000D03*
%TD*%
D18*
%TO.C,H2*%
X88000000Y-88000000D03*
%TD*%
%TO.C,H1*%
X112000000Y-112000000D03*
%TD*%
D19*
%TO.C,TP1*%
X98750000Y-92400000D03*
X101250000Y-92400000D03*
%TD*%
D20*
%TO.C,J3*%
X103750000Y-108900000D03*
X101250000Y-108900000D03*
X98750000Y-108900000D03*
G36*
G01*
X95400000Y-109575000D02*
X95400000Y-108225000D01*
G75*
G02*
X95650000Y-107975000I250000J0D01*
G01*
X96850000Y-107975000D01*
G75*
G02*
X97100000Y-108225000I0J-250000D01*
G01*
X97100000Y-109575000D01*
G75*
G02*
X96850000Y-109825000I-250000J0D01*
G01*
X95650000Y-109825000D01*
G75*
G02*
X95400000Y-109575000I0J250000D01*
G01*
G37*
%TD*%
D13*
%TO.C,J2*%
X103810000Y-112000000D03*
X101270000Y-112000000D03*
X98730000Y-112000000D03*
D14*
X96190000Y-112000000D03*
%TD*%
M02*
