%TF.GenerationSoftware,KiCad,Pcbnew,(5.1.9-0-10_14)*%
%TF.CreationDate,2021-05-08T12:26:53+01:00*%
%TF.ProjectId,PN532,504e3533-322e-46b6-9963-61645f706362,6*%
%TF.SameCoordinates,Original*%
%TF.FileFunction,Soldermask,Bot*%
%TF.FilePolarity,Negative*%
%FSLAX46Y46*%
G04 Gerber Fmt 4.6, Leading zero omitted, Abs format (unit mm)*
G04 Created by KiCad (PCBNEW (5.1.9-0-10_14)) date 2021-05-08 12:26:53*
%MOMM*%
%LPD*%
G01*
G04 APERTURE LIST*
%ADD10C,0.100000*%
%ADD11C,0.600000*%
%ADD12R,1.550000X1.300000*%
%ADD13C,2.000000*%
%ADD14O,1.700000X1.850000*%
%ADD15R,1.500000X1.000000*%
%ADD16C,0.800000*%
%ADD17C,1.000000*%
%ADD18C,1.800000*%
%ADD19R,1.800000X1.800000*%
%ADD20O,1.700000X1.700000*%
%ADD21R,1.700000X1.700000*%
%ADD22C,1.300000*%
%ADD23R,1.300000X1.300000*%
%ADD24C,3.200000*%
G04 APERTURE END LIST*
D10*
%TO.C,U2*%
G36*
X159100000Y-80100000D02*
G01*
X164900000Y-80100000D01*
X164900000Y-85900000D01*
X159100000Y-85900000D01*
X159100000Y-80100000D01*
G37*
X159100000Y-80100000D02*
X164900000Y-80100000D01*
X164900000Y-85900000D01*
X159100000Y-85900000D01*
X159100000Y-80100000D01*
%TD*%
D11*
%TO.C,A1*%
X130000000Y-94000000D03*
X133000000Y-96000000D03*
X167000000Y-92000000D03*
X167000000Y-98000000D03*
X169000000Y-95000000D03*
%TD*%
D12*
%TO.C,SW1*%
X153975000Y-80750000D03*
X153975000Y-85250000D03*
X146025000Y-85250000D03*
X146025000Y-80750000D03*
D13*
X146750000Y-85250000D03*
X146750000Y-80750000D03*
X153250000Y-85250000D03*
X153250000Y-80750000D03*
%TD*%
D14*
%TO.C,J3*%
X153750000Y-103900000D03*
X151250000Y-103900000D03*
X148750000Y-103900000D03*
G36*
G01*
X145400000Y-104575000D02*
X145400000Y-103225000D01*
G75*
G02*
X145650000Y-102975000I250000J0D01*
G01*
X146850000Y-102975000D01*
G75*
G02*
X147100000Y-103225000I0J-250000D01*
G01*
X147100000Y-104575000D01*
G75*
G02*
X146850000Y-104825000I-250000J0D01*
G01*
X145650000Y-104825000D01*
G75*
G02*
X145400000Y-104575000I0J250000D01*
G01*
G37*
%TD*%
D10*
%TO.C,JP1*%
G36*
X149250000Y-88750000D02*
G01*
X149250000Y-88200000D01*
X149250602Y-88200000D01*
X149250602Y-88175466D01*
X149255412Y-88126635D01*
X149264984Y-88078510D01*
X149279228Y-88031555D01*
X149298005Y-87986222D01*
X149321136Y-87942949D01*
X149348396Y-87902150D01*
X149379524Y-87864221D01*
X149414221Y-87829524D01*
X149452150Y-87798396D01*
X149492949Y-87771136D01*
X149536222Y-87748005D01*
X149581555Y-87729228D01*
X149628510Y-87714984D01*
X149676635Y-87705412D01*
X149725466Y-87700602D01*
X149750000Y-87700602D01*
X149750000Y-87700000D01*
X150250000Y-87700000D01*
X150250000Y-87700602D01*
X150274534Y-87700602D01*
X150323365Y-87705412D01*
X150371490Y-87714984D01*
X150418445Y-87729228D01*
X150463778Y-87748005D01*
X150507051Y-87771136D01*
X150547850Y-87798396D01*
X150585779Y-87829524D01*
X150620476Y-87864221D01*
X150651604Y-87902150D01*
X150678864Y-87942949D01*
X150701995Y-87986222D01*
X150720772Y-88031555D01*
X150735016Y-88078510D01*
X150744588Y-88126635D01*
X150749398Y-88175466D01*
X150749398Y-88200000D01*
X150750000Y-88200000D01*
X150750000Y-88750000D01*
X149250000Y-88750000D01*
G37*
D15*
X150000000Y-89500000D03*
D10*
G36*
X150749398Y-90800000D02*
G01*
X150749398Y-90824534D01*
X150744588Y-90873365D01*
X150735016Y-90921490D01*
X150720772Y-90968445D01*
X150701995Y-91013778D01*
X150678864Y-91057051D01*
X150651604Y-91097850D01*
X150620476Y-91135779D01*
X150585779Y-91170476D01*
X150547850Y-91201604D01*
X150507051Y-91228864D01*
X150463778Y-91251995D01*
X150418445Y-91270772D01*
X150371490Y-91285016D01*
X150323365Y-91294588D01*
X150274534Y-91299398D01*
X150250000Y-91299398D01*
X150250000Y-91300000D01*
X149750000Y-91300000D01*
X149750000Y-91299398D01*
X149725466Y-91299398D01*
X149676635Y-91294588D01*
X149628510Y-91285016D01*
X149581555Y-91270772D01*
X149536222Y-91251995D01*
X149492949Y-91228864D01*
X149452150Y-91201604D01*
X149414221Y-91170476D01*
X149379524Y-91135779D01*
X149348396Y-91097850D01*
X149321136Y-91057051D01*
X149298005Y-91013778D01*
X149279228Y-90968445D01*
X149264984Y-90921490D01*
X149255412Y-90873365D01*
X149250602Y-90824534D01*
X149250602Y-90800000D01*
X149250000Y-90800000D01*
X149250000Y-90250000D01*
X150750000Y-90250000D01*
X150750000Y-90800000D01*
X150749398Y-90800000D01*
G37*
%TD*%
D16*
%TO.C,TP2*%
X160300000Y-94100000D03*
%TD*%
%TO.C,TP1*%
X160300000Y-95900000D03*
%TD*%
D17*
%TO.C,U1*%
X156025000Y-94750000D03*
%TD*%
%TO.C,D1*%
G36*
G01*
X137762500Y-93600000D02*
X138237500Y-93600000D01*
G75*
G02*
X138475000Y-93837500I0J-237500D01*
G01*
X138475000Y-94412500D01*
G75*
G02*
X138237500Y-94650000I-237500J0D01*
G01*
X137762500Y-94650000D01*
G75*
G02*
X137525000Y-94412500I0J237500D01*
G01*
X137525000Y-93837500D01*
G75*
G02*
X137762500Y-93600000I237500J0D01*
G01*
G37*
G36*
G01*
X137762500Y-95350000D02*
X138237500Y-95350000D01*
G75*
G02*
X138475000Y-95587500I0J-237500D01*
G01*
X138475000Y-96162500D01*
G75*
G02*
X138237500Y-96400000I-237500J0D01*
G01*
X137762500Y-96400000D01*
G75*
G02*
X137525000Y-96162500I0J237500D01*
G01*
X137525000Y-95587500D01*
G75*
G02*
X137762500Y-95350000I237500J0D01*
G01*
G37*
D18*
X138000000Y-96270000D03*
D19*
X138000000Y-93730000D03*
%TD*%
D20*
%TO.C,J1*%
X143000000Y-81730000D03*
D21*
X143000000Y-84270000D03*
%TD*%
D20*
%TO.C,J2*%
X153810000Y-107000000D03*
X151270000Y-107000000D03*
X148730000Y-107000000D03*
D21*
X146190000Y-107000000D03*
%TD*%
%TO.C,D3*%
G36*
G01*
X137762500Y-105600000D02*
X138237500Y-105600000D01*
G75*
G02*
X138475000Y-105837500I0J-237500D01*
G01*
X138475000Y-106412500D01*
G75*
G02*
X138237500Y-106650000I-237500J0D01*
G01*
X137762500Y-106650000D01*
G75*
G02*
X137525000Y-106412500I0J237500D01*
G01*
X137525000Y-105837500D01*
G75*
G02*
X137762500Y-105600000I237500J0D01*
G01*
G37*
G36*
G01*
X137762500Y-107350000D02*
X138237500Y-107350000D01*
G75*
G02*
X138475000Y-107587500I0J-237500D01*
G01*
X138475000Y-108162500D01*
G75*
G02*
X138237500Y-108400000I-237500J0D01*
G01*
X137762500Y-108400000D01*
G75*
G02*
X137525000Y-108162500I0J237500D01*
G01*
X137525000Y-107587500D01*
G75*
G02*
X137762500Y-107350000I237500J0D01*
G01*
G37*
D18*
X138000000Y-108270000D03*
D19*
X138000000Y-105730000D03*
%TD*%
D22*
%TO.C,J4*%
X151000000Y-96000000D03*
X149000000Y-96000000D03*
X151000000Y-94000000D03*
D23*
X149000000Y-94000000D03*
%TD*%
%TO.C,D2*%
G36*
G01*
X137762500Y-99600000D02*
X138237500Y-99600000D01*
G75*
G02*
X138475000Y-99837500I0J-237500D01*
G01*
X138475000Y-100412500D01*
G75*
G02*
X138237500Y-100650000I-237500J0D01*
G01*
X137762500Y-100650000D01*
G75*
G02*
X137525000Y-100412500I0J237500D01*
G01*
X137525000Y-99837500D01*
G75*
G02*
X137762500Y-99600000I237500J0D01*
G01*
G37*
G36*
G01*
X137762500Y-101350000D02*
X138237500Y-101350000D01*
G75*
G02*
X138475000Y-101587500I0J-237500D01*
G01*
X138475000Y-102162500D01*
G75*
G02*
X138237500Y-102400000I-237500J0D01*
G01*
X137762500Y-102400000D01*
G75*
G02*
X137525000Y-102162500I0J237500D01*
G01*
X137525000Y-101587500D01*
G75*
G02*
X137762500Y-101350000I237500J0D01*
G01*
G37*
D18*
X138000000Y-102270000D03*
D19*
X138000000Y-99730000D03*
%TD*%
D24*
%TO.C,H2*%
X138000000Y-83000000D03*
%TD*%
%TO.C,H1*%
X162000000Y-107000000D03*
%TD*%
M02*
