%TF.GenerationSoftware,KiCad,Pcbnew,(6.0.5-0)*%
%TF.CreationDate,2022-07-12T11:13:52+01:00*%
%TF.ProjectId,PN532,504e3533-322e-46b6-9963-61645f706362,7*%
%TF.SameCoordinates,Original*%
%TF.FileFunction,Soldermask,Top*%
%TF.FilePolarity,Negative*%
%FSLAX46Y46*%
G04 Gerber Fmt 4.6, Leading zero omitted, Abs format (unit mm)*
G04 Created by KiCad (PCBNEW (6.0.5-0)) date 2022-07-12 11:13:52*
%MOMM*%
%LPD*%
G01*
G04 APERTURE LIST*
G04 Aperture macros list*
%AMRoundRect*
0 Rectangle with rounded corners*
0 $1 Rounding radius*
0 $2 $3 $4 $5 $6 $7 $8 $9 X,Y pos of 4 corners*
0 Add a 4 corners polygon primitive as box body*
4,1,4,$2,$3,$4,$5,$6,$7,$8,$9,$2,$3,0*
0 Add four circle primitives for the rounded corners*
1,1,$1+$1,$2,$3*
1,1,$1+$1,$4,$5*
1,1,$1+$1,$6,$7*
1,1,$1+$1,$8,$9*
0 Add four rect primitives between the rounded corners*
20,1,$1+$1,$2,$3,$4,$5,0*
20,1,$1+$1,$4,$5,$6,$7,0*
20,1,$1+$1,$6,$7,$8,$9,0*
20,1,$1+$1,$8,$9,$2,$3,0*%
%AMFreePoly0*
4,1,59,0.401951,0.809808,0.497622,0.790778,0.501227,0.789285,0.582333,0.735092,0.585092,0.732333,0.639285,0.651227,0.640778,0.647622,0.659808,0.551951,0.659808,0.548049,0.640778,0.452378,0.639285,0.448773,0.585092,0.367667,0.582333,0.364908,0.501227,0.310715,0.497622,0.309222,0.401951,0.290192,0.400000,0.290000,0.260000,0.290000,0.260000,-0.290000,0.400000,-0.290000,
0.401951,-0.290192,0.497622,-0.309222,0.501227,-0.310715,0.582333,-0.364908,0.585092,-0.367667,0.639285,-0.448773,0.640778,-0.452378,0.659808,-0.548049,0.659808,-0.551951,0.640778,-0.647622,0.639285,-0.651227,0.585092,-0.732333,0.582333,-0.735092,0.501227,-0.789285,0.497622,-0.790778,0.401951,-0.809808,0.400000,-0.810000,0.000000,-0.810000,-0.001951,-0.809808,-0.097622,-0.790778,
-0.101227,-0.789285,-0.182333,-0.735092,-0.185092,-0.732333,-0.239285,-0.651227,-0.240778,-0.647622,-0.259808,-0.551951,-0.260000,-0.550000,-0.260000,0.550000,-0.259808,0.551951,-0.240778,0.647622,-0.239285,0.651227,-0.185092,0.732333,-0.182333,0.735092,-0.101227,0.789285,-0.097622,0.790778,-0.001951,0.809808,0.000000,0.810000,0.400000,0.810000,0.401951,0.809808,0.401951,0.809808,
$1*%
%AMFreePoly1*
4,1,14,2.207071,2.207071,2.210000,2.200000,2.210000,-2.200000,2.207071,-2.207071,2.200000,-2.210000,-2.200000,-2.210000,-2.207071,-2.207071,-2.210000,-2.200000,-2.210000,1.804000,-2.207071,1.811071,-1.811071,2.207071,-1.804000,2.210000,2.200000,2.210000,2.207071,2.207071,2.207071,2.207071,$1*%
%AMFreePoly2*
4,1,39,0.557071,0.757071,0.560000,0.750000,0.560000,-0.750000,0.557071,-0.757071,0.550000,-0.760000,0.000000,-0.760000,-0.007071,-0.757071,-0.007975,-0.754888,-0.080124,-0.753566,-0.082923,-0.753113,-0.218238,-0.710838,-0.220797,-0.709617,-0.338807,-0.631062,-0.340921,-0.629173,-0.432141,-0.520654,-0.433639,-0.518246,-0.490734,-0.388487,-0.491497,-0.385757,-0.508903,-0.252647,-0.510000,-0.250000,
-0.510000,0.250000,-0.509430,0.251377,-0.509879,0.254812,-0.509844,0.257648,-0.488033,0.397725,-0.487204,0.400436,-0.426956,0.528761,-0.425399,0.531131,-0.331555,0.637389,-0.329396,0.639226,-0.209501,0.714874,-0.206913,0.716032,-0.070606,0.754989,-0.067797,0.755374,-0.007926,0.755008,-0.007071,0.757071,0.000000,0.760000,0.550000,0.760000,0.557071,0.757071,0.557071,0.757071,
$1*%
%AMFreePoly3*
4,1,39,0.007071,0.757071,0.007966,0.754911,0.073966,0.754508,0.076770,0.754089,0.212591,0.713470,0.215165,0.712280,0.334127,0.635173,0.336264,0.633310,0.428802,0.525913,0.430329,0.523524,0.489006,0.394472,0.489802,0.391751,0.509899,0.251418,0.510000,0.250000,0.510000,-0.250000,0.509999,-0.250122,0.509850,-0.262338,0.509712,-0.263875,0.486192,-0.403676,0.485330,-0.406377,
0.423518,-0.533956,0.421933,-0.536307,0.326798,-0.641411,0.324616,-0.643222,0.203806,-0.717399,0.201204,-0.718525,0.064431,-0.755814,0.061618,-0.756164,0.007855,-0.755178,0.007071,-0.757071,0.000000,-0.760000,-0.550000,-0.760000,-0.557071,-0.757071,-0.560000,-0.750000,-0.560000,0.750000,-0.557071,0.757071,-0.550000,0.760000,0.000000,0.760000,0.007071,0.757071,0.007071,0.757071,
$1*%
G04 Aperture macros list end*
%ADD10C,0.120000*%
%ADD11C,0.450000*%
%ADD12RoundRect,0.210000X-0.275000X0.200000X-0.275000X-0.200000X0.275000X-0.200000X0.275000X0.200000X0*%
%ADD13RoundRect,0.010000X-0.750000X0.250000X-0.750000X-0.250000X0.750000X-0.250000X0.750000X0.250000X0*%
%ADD14RoundRect,0.010000X0.575000X-0.950000X0.575000X0.950000X-0.575000X0.950000X-0.575000X-0.950000X0*%
%ADD15C,3.600000*%
%ADD16C,1.800000*%
%ADD17FreePoly0,90.000000*%
%ADD18FreePoly0,270.000000*%
%ADD19RoundRect,0.010000X-0.650000X1.000000X-0.650000X-1.000000X0.650000X-1.000000X0.650000X1.000000X0*%
%ADD20RoundRect,0.210000X-0.200000X-0.275000X0.200000X-0.275000X0.200000X0.275000X-0.200000X0.275000X0*%
%ADD21RoundRect,0.210000X0.275000X-0.200000X0.275000X0.200000X-0.275000X0.200000X-0.275000X-0.200000X0*%
%ADD22RoundRect,0.072500X-0.062500X0.287500X-0.062500X-0.287500X0.062500X-0.287500X0.062500X0.287500X0*%
%ADD23RoundRect,0.072500X-0.287500X0.062500X-0.287500X-0.062500X0.287500X-0.062500X0.287500X0.062500X0*%
%ADD24FreePoly1,270.000000*%
%ADD25RoundRect,0.210000X0.200000X0.275000X-0.200000X0.275000X-0.200000X-0.275000X0.200000X-0.275000X0*%
%ADD26RoundRect,0.010000X0.850000X0.850000X-0.850000X0.850000X-0.850000X-0.850000X0.850000X-0.850000X0*%
%ADD27O,1.720000X1.720000*%
%ADD28RoundRect,0.260000X-0.600000X-0.675000X0.600000X-0.675000X0.600000X0.675000X-0.600000X0.675000X0*%
%ADD29O,1.720000X1.870000*%
%ADD30C,1.220000*%
%ADD31FreePoly2,0.000000*%
%ADD32RoundRect,0.010000X-0.500000X-0.750000X0.500000X-0.750000X0.500000X0.750000X-0.500000X0.750000X0*%
%ADD33FreePoly3,0.000000*%
%ADD34RoundRect,0.252760X0.321734X-0.699668X0.699668X-0.321734X-0.321734X0.699668X-0.699668X0.321734X0*%
%ADD35RoundRect,0.176600X0.636396X-0.895763X0.895763X-0.636396X-0.636396X0.895763X-0.895763X0.636396X0*%
%ADD36RoundRect,0.176600X-0.895763X-0.636396X-0.636396X-0.895763X0.895763X0.636396X0.636396X0.895763X0*%
%ADD37RoundRect,0.252760X-0.699668X-0.321734X-0.321734X-0.699668X0.699668X0.321734X0.321734X0.699668X0*%
%ADD38RoundRect,0.010000X-0.325000X-0.200000X0.325000X-0.200000X0.325000X0.200000X-0.325000X0.200000X0*%
%ADD39RoundRect,0.010000X0.325000X0.200000X-0.325000X0.200000X-0.325000X-0.200000X0.325000X-0.200000X0*%
G04 APERTURE END LIST*
D10*
%TO.C,JP1*%
X93850000Y-104900000D02*
X94250000Y-104900000D01*
X94250000Y-104900000D02*
X94250000Y-105900000D01*
X94250000Y-105900000D02*
X93850000Y-105900000D01*
X93850000Y-105900000D02*
X93850000Y-104900000D01*
G36*
X93850000Y-104900000D02*
G01*
X94250000Y-104900000D01*
X94250000Y-105900000D01*
X93850000Y-105900000D01*
X93850000Y-104900000D01*
G37*
X95050000Y-104900000D02*
X95450000Y-104900000D01*
X95450000Y-104900000D02*
X95450000Y-105900000D01*
X95450000Y-105900000D02*
X95050000Y-105900000D01*
X95050000Y-105900000D02*
X95050000Y-104900000D01*
G36*
X95050000Y-104900000D02*
G01*
X95450000Y-104900000D01*
X95450000Y-105900000D01*
X95050000Y-105900000D01*
X95050000Y-104900000D01*
G37*
%TO.C,U2*%
G36*
X92300000Y-113500000D02*
G01*
X86500000Y-113500000D01*
X86500000Y-107700000D01*
X92300000Y-107700000D01*
X92300000Y-113500000D01*
G37*
D11*
%TO.C,AJK1*%
X89100000Y-92200000D02*
X87600000Y-92200000D01*
X89100000Y-90100000D02*
X86100000Y-94300000D01*
X90900000Y-90200000D02*
X89100000Y-92200000D01*
X89100000Y-90100000D02*
X89100000Y-94300000D01*
X89100000Y-92200000D02*
X90900000Y-94300000D01*
X87600000Y-94300000D02*
G75*
G03*
X89100000Y-94300000I750000J0D01*
G01*
%TD*%
D12*
%TO.C,A1*%
X102000000Y-83150000D03*
X98000000Y-83150000D03*
D13*
X100000000Y-81000000D03*
D12*
X102000000Y-84850000D03*
D13*
X100000000Y-83000000D03*
D12*
X98000000Y-84850000D03*
%TD*%
D14*
%TO.C,Y1*%
X93075000Y-98650000D03*
X93075000Y-101350000D03*
X94675000Y-101350000D03*
X94675000Y-98650000D03*
%TD*%
D15*
%TO.C,H2*%
X88000000Y-88000000D03*
%TD*%
%TO.C,H1*%
X112000000Y-112000000D03*
%TD*%
D16*
%TO.C,D2*%
X112000000Y-94000000D03*
D17*
X112000000Y-95625000D03*
D18*
X112000000Y-92375000D03*
%TD*%
D16*
%TO.C,D3*%
X112000000Y-88000000D03*
D17*
X112000000Y-89625000D03*
D18*
X112000000Y-86375000D03*
%TD*%
D19*
%TO.C,SW1*%
X86250000Y-95800000D03*
X90750000Y-95800000D03*
X90750000Y-104200000D03*
X86250000Y-104200000D03*
%TD*%
D16*
%TO.C,D1*%
X112000000Y-100000000D03*
D17*
X112000000Y-101625000D03*
D18*
X112000000Y-98375000D03*
%TD*%
D20*
%TO.C,C7*%
X100600000Y-95200000D03*
X102150000Y-95200000D03*
%TD*%
D21*
%TO.C,C3*%
X103800000Y-88300000D03*
X103800000Y-86750000D03*
%TD*%
D20*
%TO.C,C5*%
X100925000Y-88275000D03*
X102475000Y-88275000D03*
%TD*%
%TO.C,R6*%
X108175000Y-95800000D03*
X109825000Y-95800000D03*
%TD*%
%TO.C,R4*%
X93075000Y-88275000D03*
X94725000Y-88275000D03*
%TD*%
D12*
%TO.C,C13*%
X106150000Y-98825000D03*
X106150000Y-100375000D03*
%TD*%
D20*
%TO.C,C14*%
X104625000Y-97300000D03*
X106175000Y-97300000D03*
%TD*%
%TO.C,C9*%
X93100000Y-94750000D03*
X94650000Y-94750000D03*
%TD*%
%TO.C,C16*%
X93100000Y-97500000D03*
X94650000Y-97500000D03*
%TD*%
%TO.C,R9*%
X108175000Y-100300000D03*
X109825000Y-100300000D03*
%TD*%
%TO.C,R8*%
X108175000Y-101800000D03*
X109825000Y-101800000D03*
%TD*%
D21*
%TO.C,R11*%
X99300000Y-105975000D03*
X99300000Y-104325000D03*
%TD*%
D22*
%TO.C,U1*%
X102250000Y-97100000D03*
X101750000Y-97100000D03*
X101250000Y-97100000D03*
X100750000Y-97100000D03*
X100250000Y-97100000D03*
X99750000Y-97100000D03*
X99250000Y-97100000D03*
X98750000Y-97100000D03*
X98250000Y-97100000D03*
X97750000Y-97100000D03*
D23*
X97100000Y-97750000D03*
X97100000Y-98250000D03*
X97100000Y-98750000D03*
X97100000Y-99250000D03*
X97100000Y-99750000D03*
X97100000Y-100250000D03*
X97100000Y-100750000D03*
X97100000Y-101250000D03*
X97100000Y-101750000D03*
X97100000Y-102250000D03*
D22*
X97750000Y-102900000D03*
X98250000Y-102900000D03*
X98750000Y-102900000D03*
X99250000Y-102900000D03*
X99750000Y-102900000D03*
X100250000Y-102900000D03*
X100750000Y-102900000D03*
X101250000Y-102900000D03*
X101750000Y-102900000D03*
X102250000Y-102900000D03*
D23*
X102900000Y-102250000D03*
X102900000Y-101750000D03*
X102900000Y-101250000D03*
X102900000Y-100750000D03*
X102900000Y-100250000D03*
X102900000Y-99750000D03*
X102900000Y-99250000D03*
X102900000Y-98750000D03*
X102900000Y-98250000D03*
X102900000Y-97750000D03*
D24*
X100000000Y-100000000D03*
%TD*%
D25*
%TO.C,C17*%
X94650000Y-102500000D03*
X93100000Y-102500000D03*
%TD*%
D26*
%TO.C,J1*%
X112000000Y-107270000D03*
D27*
X112000000Y-104730000D03*
%TD*%
D25*
%TO.C,C12*%
X99400000Y-93850000D03*
X97850000Y-93850000D03*
%TD*%
D12*
%TO.C,R5*%
X93100000Y-92025000D03*
X93100000Y-93675000D03*
%TD*%
D20*
%TO.C,R7*%
X108175000Y-97300000D03*
X109825000Y-97300000D03*
%TD*%
%TO.C,R10*%
X108175000Y-98800000D03*
X109825000Y-98800000D03*
%TD*%
D21*
%TO.C,C18*%
X97700000Y-105925000D03*
X97700000Y-104375000D03*
%TD*%
D12*
%TO.C,C11*%
X104650000Y-98825000D03*
X104650000Y-100375000D03*
%TD*%
D21*
%TO.C,C8*%
X93100000Y-90975000D03*
X93100000Y-89425000D03*
%TD*%
D28*
%TO.C,J2*%
X96250000Y-108900000D03*
D29*
X98750000Y-108900000D03*
X101250000Y-108900000D03*
X103750000Y-108900000D03*
%TD*%
D20*
%TO.C,C10*%
X100600000Y-93850000D03*
X102150000Y-93850000D03*
%TD*%
D25*
%TO.C,C1*%
X102475000Y-86700000D03*
X100925000Y-86700000D03*
%TD*%
%TO.C,C6*%
X99075000Y-88275000D03*
X97525000Y-88275000D03*
%TD*%
D21*
%TO.C,R15*%
X105600000Y-105975000D03*
X105600000Y-104325000D03*
%TD*%
D30*
%TO.C,TP1*%
X101250000Y-92400000D03*
X98750000Y-92400000D03*
%TD*%
D31*
%TO.C,JP1*%
X93350000Y-105400000D03*
D32*
X94650000Y-105400000D03*
D33*
X95950000Y-105400000D03*
%TD*%
D20*
%TO.C,R13*%
X100825000Y-105900000D03*
X102475000Y-105900000D03*
%TD*%
%TO.C,C15*%
X93100000Y-96100000D03*
X94650000Y-96100000D03*
%TD*%
D25*
%TO.C,R14*%
X102475000Y-104400000D03*
X100825000Y-104400000D03*
%TD*%
D34*
%TO.C,L1*%
X102260051Y-91989949D03*
D35*
X102542893Y-91707107D03*
D34*
X104239949Y-90010051D03*
D35*
X103957107Y-90292893D03*
%TD*%
D36*
%TO.C,L2*%
X96042893Y-90292893D03*
D37*
X95760051Y-90010051D03*
D36*
X97457107Y-91707107D03*
D37*
X97739949Y-91989949D03*
%TD*%
D12*
%TO.C,C4*%
X96200000Y-86750000D03*
X96200000Y-88300000D03*
%TD*%
%TO.C,R12*%
X104000000Y-104325000D03*
X104000000Y-105975000D03*
%TD*%
D38*
%TO.C,D5*%
X108050000Y-93250000D03*
X108050000Y-93900000D03*
X108050000Y-94550000D03*
X109950000Y-94550000D03*
X109950000Y-93900000D03*
X109950000Y-93250000D03*
%TD*%
D20*
%TO.C,C19*%
X108225000Y-108200000D03*
X109775000Y-108200000D03*
%TD*%
D38*
%TO.C,D4*%
X108050000Y-103050000D03*
X108050000Y-103700000D03*
X108050000Y-104350000D03*
X109950000Y-104350000D03*
X109950000Y-103700000D03*
X109950000Y-103050000D03*
%TD*%
D39*
%TO.C,D6*%
X109950000Y-106950000D03*
X109950000Y-106300000D03*
X109950000Y-105650000D03*
X108050000Y-105650000D03*
X108050000Y-106300000D03*
X108050000Y-106950000D03*
%TD*%
D25*
%TO.C,C2*%
X99075000Y-86700000D03*
X97525000Y-86700000D03*
%TD*%
M02*
