%TF.GenerationSoftware,KiCad,Pcbnew,(5.1.9-0-10_14)*%
%TF.CreationDate,2021-05-09T15:00:37+01:00*%
%TF.ProjectId,PN532,504e3533-322e-46b6-9963-61645f706362,6*%
%TF.SameCoordinates,Original*%
%TF.FileFunction,Copper,L2,Bot*%
%TF.FilePolarity,Positive*%
%FSLAX46Y46*%
G04 Gerber Fmt 4.6, Leading zero omitted, Abs format (unit mm)*
G04 Created by KiCad (PCBNEW (5.1.9-0-10_14)) date 2021-05-09 15:00:37*
%MOMM*%
%LPD*%
G01*
G04 APERTURE LIST*
%TA.AperFunction,EtchedComponent*%
%ADD10C,0.500000*%
%TD*%
%TA.AperFunction,ComponentPad*%
%ADD11C,1.300000*%
%TD*%
%TA.AperFunction,ComponentPad*%
%ADD12R,1.300000X1.300000*%
%TD*%
%TA.AperFunction,ComponentPad*%
%ADD13O,1.700000X1.700000*%
%TD*%
%TA.AperFunction,ComponentPad*%
%ADD14R,1.700000X1.700000*%
%TD*%
%TA.AperFunction,ComponentPad*%
%ADD15C,0.600000*%
%TD*%
%TA.AperFunction,ComponentPad*%
%ADD16C,1.000000*%
%TD*%
%TA.AperFunction,SMDPad,CuDef*%
%ADD17R,1.300000X1.550000*%
%TD*%
%TA.AperFunction,ComponentPad*%
%ADD18C,2.000000*%
%TD*%
%TA.AperFunction,ComponentPad*%
%ADD19O,1.700000X1.850000*%
%TD*%
%TA.AperFunction,ComponentPad*%
%ADD20C,0.350000*%
%TD*%
%TA.AperFunction,SMDPad,CuDef*%
%ADD21R,0.200000X0.200000*%
%TD*%
%TA.AperFunction,ComponentPad*%
%ADD22C,1.800000*%
%TD*%
%TA.AperFunction,ComponentPad*%
%ADD23R,1.800000X1.800000*%
%TD*%
%TA.AperFunction,ComponentPad*%
%ADD24C,3.200000*%
%TD*%
%TA.AperFunction,ViaPad*%
%ADD25C,0.800000*%
%TD*%
%TA.AperFunction,Conductor*%
%ADD26C,0.500000*%
%TD*%
%TA.AperFunction,Conductor*%
%ADD27C,0.250000*%
%TD*%
%TA.AperFunction,Conductor*%
%ADD28C,0.254000*%
%TD*%
%TA.AperFunction,Conductor*%
%ADD29C,0.100000*%
%TD*%
G04 APERTURE END LIST*
D10*
%TO.C,A1*%
X88000000Y-120000000D02*
X99000000Y-120000000D01*
X99000000Y-119000000D02*
X88000000Y-119000000D01*
X101000000Y-120000000D02*
X99000000Y-119000000D01*
X112000000Y-120000000D02*
X101000000Y-120000000D01*
X99000000Y-118000000D02*
X88000000Y-118000000D01*
X101000000Y-119000000D02*
X99000000Y-118000000D01*
X112000000Y-119000000D02*
X101000000Y-119000000D01*
X99000000Y-117000000D02*
X88000000Y-117000000D01*
X101000000Y-118000000D02*
X99000000Y-117000000D01*
X112000000Y-118000000D02*
X101000000Y-118000000D01*
X112000000Y-117000000D02*
X101000000Y-117000000D01*
X83000000Y-88000000D02*
X83000000Y-112000000D01*
X88000000Y-83000000D02*
X96000000Y-83000000D01*
X112000000Y-83000000D02*
X104000000Y-83000000D01*
X117000000Y-112000000D02*
X117000000Y-88000000D01*
X82000000Y-88000000D02*
X82000000Y-112000000D01*
X112000000Y-82000000D02*
X88000000Y-82000000D01*
X118000000Y-112000000D02*
X118000000Y-88000000D01*
X119000000Y-88000000D02*
X119000000Y-112000000D01*
X81000000Y-88000000D02*
X81000000Y-112000000D01*
X112000000Y-81000000D02*
X88000000Y-81000000D01*
X80000000Y-88000000D02*
X80000000Y-112000000D01*
X112000000Y-80000000D02*
X88000000Y-80000000D01*
X120000000Y-112000000D02*
X120000000Y-88000000D01*
X120000000Y-88000000D02*
G75*
G03*
X112000000Y-80000000I-8000000J0D01*
G01*
X119000000Y-88000000D02*
G75*
G03*
X112000000Y-81000000I-7000000J0D01*
G01*
X117000000Y-88000000D02*
G75*
G03*
X112000000Y-83000000I-5000000J0D01*
G01*
X118000000Y-88000000D02*
G75*
G03*
X112000000Y-82000000I-6000000J0D01*
G01*
X88000000Y-80000000D02*
G75*
G03*
X80000000Y-88000000I0J-8000000D01*
G01*
X88000000Y-81000000D02*
G75*
G03*
X81000000Y-88000000I0J-7000000D01*
G01*
X88000000Y-83000000D02*
G75*
G03*
X83000000Y-88000000I0J-5000000D01*
G01*
X88000000Y-82000000D02*
G75*
G03*
X82000000Y-88000000I0J-6000000D01*
G01*
X80000000Y-112000000D02*
G75*
G03*
X88000000Y-120000000I8000000J0D01*
G01*
X81000000Y-112000000D02*
G75*
G03*
X88000000Y-119000000I7000000J0D01*
G01*
X83000000Y-112000000D02*
G75*
G03*
X88000000Y-117000000I5000000J0D01*
G01*
X82000000Y-112000000D02*
G75*
G03*
X88000000Y-118000000I6000000J0D01*
G01*
X112000000Y-120000000D02*
G75*
G03*
X120000000Y-112000000I0J8000000D01*
G01*
X112000000Y-119000000D02*
G75*
G03*
X119000000Y-112000000I0J7000000D01*
G01*
X112000000Y-118000000D02*
G75*
G03*
X118000000Y-112000000I0J6000000D01*
G01*
X112000000Y-117000000D02*
G75*
G03*
X117000000Y-112000000I0J5000000D01*
G01*
%TD*%
D11*
%TO.P,J4,4*%
%TO.N,Net-(J2-Pad4)*%
X89000000Y-113000000D03*
%TO.P,J4,3*%
%TO.N,Net-(J2-Pad3)*%
X87000000Y-113000000D03*
%TO.P,J4,2*%
%TO.N,+5V*%
X89000000Y-111000000D03*
D12*
%TO.P,J4,1*%
%TO.N,GND*%
X87000000Y-111000000D03*
%TD*%
D13*
%TO.P,J1,2*%
%TO.N,Net-(J1-Pad2)*%
X108000000Y-104730000D03*
D14*
%TO.P,J1,1*%
%TO.N,GND*%
X108000000Y-107270000D03*
%TD*%
D15*
%TO.P,A1,~*%
%TO.N,N/C*%
X99000000Y-120000000D03*
X101000000Y-117000000D03*
%TO.P,A1,3*%
%TO.N,Net-(A1-Pad3)*%
X96000000Y-83000000D03*
%TO.P,A1,1*%
%TO.N,Net-(A1-Pad1)*%
X104000000Y-83000000D03*
%TO.P,A1,2*%
%TO.N,GND*%
X100000000Y-81000000D03*
%TD*%
D16*
%TO.P,TP1,2*%
%TO.N,Net-(L2-Pad2)*%
X98750000Y-92400000D03*
%TO.P,TP1,1*%
%TO.N,Net-(L1-Pad1)*%
X101250000Y-92400000D03*
%TD*%
D17*
%TO.P,SW1,2*%
%TO.N,Net-(R10-Pad2)*%
X85750000Y-96025000D03*
%TO.P,SW1,1*%
%TO.N,GND*%
X90250000Y-96025000D03*
X90250000Y-103975000D03*
%TO.P,SW1,2*%
%TO.N,Net-(R10-Pad2)*%
X85750000Y-103975000D03*
D18*
%TO.P,SW1,1*%
%TO.N,GND*%
X90250000Y-103250000D03*
%TO.P,SW1,2*%
%TO.N,Net-(R10-Pad2)*%
X85750000Y-103250000D03*
%TO.P,SW1,1*%
%TO.N,GND*%
X90250000Y-96750000D03*
%TO.P,SW1,2*%
%TO.N,Net-(R10-Pad2)*%
X85750000Y-96750000D03*
%TD*%
D19*
%TO.P,J3,4*%
%TO.N,Net-(J2-Pad4)*%
X103750000Y-108900000D03*
%TO.P,J3,3*%
%TO.N,Net-(J2-Pad3)*%
X101250000Y-108900000D03*
%TO.P,J3,2*%
%TO.N,+5V*%
X98750000Y-108900000D03*
%TO.P,J3,1*%
%TO.N,GND*%
%TA.AperFunction,ComponentPad*%
G36*
G01*
X95400000Y-109575000D02*
X95400000Y-108225000D01*
G75*
G02*
X95650000Y-107975000I250000J0D01*
G01*
X96850000Y-107975000D01*
G75*
G02*
X97100000Y-108225000I0J-250000D01*
G01*
X97100000Y-109575000D01*
G75*
G02*
X96850000Y-109825000I-250000J0D01*
G01*
X95650000Y-109825000D01*
G75*
G02*
X95400000Y-109575000I0J250000D01*
G01*
G37*
%TD.AperFunction*%
%TD*%
D20*
%TO.P,U1,41*%
%TO.N,GND*%
X100000000Y-100000000D03*
X99000000Y-101000000D03*
X99000000Y-99000000D03*
X101000000Y-99000000D03*
X101000000Y-101000000D03*
%TD*%
D21*
%TO.P,U2,~*%
%TO.N,N/C*%
X110000000Y-104000000D03*
X110600000Y-104000000D03*
X111000000Y-104000000D03*
X111600000Y-104000000D03*
X111800000Y-104000000D03*
X112400000Y-104000000D03*
X112800000Y-104000000D03*
X113000000Y-104000000D03*
X113200000Y-104000000D03*
X113400000Y-104000000D03*
X113600000Y-104000000D03*
X113800000Y-104000000D03*
X114000000Y-104000000D03*
X110000000Y-104200000D03*
X110200000Y-104200000D03*
X110600000Y-104200000D03*
X111600000Y-104200000D03*
X111800000Y-104200000D03*
X112200000Y-104200000D03*
X112400000Y-104200000D03*
X112800000Y-104200000D03*
X114000000Y-104200000D03*
X110000000Y-104400000D03*
X111000000Y-104400000D03*
X111800000Y-104400000D03*
X112000000Y-104400000D03*
X112400000Y-104400000D03*
X112800000Y-104400000D03*
X113200000Y-104400000D03*
X113400000Y-104400000D03*
X113600000Y-104400000D03*
X114000000Y-104400000D03*
X110200000Y-104600000D03*
X111400000Y-104600000D03*
X112000000Y-104600000D03*
X112800000Y-104600000D03*
X113200000Y-104600000D03*
X113400000Y-104600000D03*
X113600000Y-104600000D03*
X114000000Y-104600000D03*
X110400000Y-104800000D03*
X110800000Y-104800000D03*
X111000000Y-104800000D03*
X111200000Y-104800000D03*
X111400000Y-104800000D03*
X112000000Y-104800000D03*
X112400000Y-104800000D03*
X112800000Y-104800000D03*
X113200000Y-104800000D03*
X113400000Y-104800000D03*
X113600000Y-104800000D03*
X114000000Y-104800000D03*
X110000000Y-105000000D03*
X111000000Y-105000000D03*
X111400000Y-105000000D03*
X111800000Y-105000000D03*
X112200000Y-105000000D03*
X112400000Y-105000000D03*
X112800000Y-105000000D03*
X114000000Y-105000000D03*
X110000000Y-105200000D03*
X110400000Y-105200000D03*
X110600000Y-105200000D03*
X110800000Y-105200000D03*
X111000000Y-105200000D03*
X111600000Y-105200000D03*
X111800000Y-105200000D03*
X112400000Y-105200000D03*
X112800000Y-105200000D03*
X113000000Y-105200000D03*
X113200000Y-105200000D03*
X113400000Y-105200000D03*
X113600000Y-105200000D03*
X113800000Y-105200000D03*
X114000000Y-105200000D03*
X110000000Y-105400000D03*
X110800000Y-105400000D03*
X111400000Y-105400000D03*
X111600000Y-105400000D03*
X112000000Y-105400000D03*
X112200000Y-105400000D03*
X112400000Y-105400000D03*
X110000000Y-105600000D03*
X111000000Y-105600000D03*
X111200000Y-105600000D03*
X111800000Y-105600000D03*
X112000000Y-105600000D03*
X112200000Y-105600000D03*
X112600000Y-105600000D03*
X112800000Y-105600000D03*
X113200000Y-105600000D03*
X113600000Y-105600000D03*
X111000000Y-105800000D03*
X111200000Y-105800000D03*
X111400000Y-105800000D03*
X111600000Y-105800000D03*
X112400000Y-105800000D03*
X112600000Y-105800000D03*
X113200000Y-105800000D03*
X113600000Y-105800000D03*
X113800000Y-105800000D03*
X114000000Y-105800000D03*
X110800000Y-106000000D03*
X111200000Y-106000000D03*
X111600000Y-106000000D03*
X112000000Y-106000000D03*
X112600000Y-106000000D03*
X112800000Y-106000000D03*
X113400000Y-106000000D03*
X113600000Y-106000000D03*
X113800000Y-106000000D03*
X114000000Y-106000000D03*
X110000000Y-106200000D03*
X110200000Y-106200000D03*
X110400000Y-106200000D03*
X110600000Y-106200000D03*
X111200000Y-106200000D03*
X111800000Y-106200000D03*
X112000000Y-106200000D03*
X112200000Y-106200000D03*
X112600000Y-106200000D03*
X113800000Y-106200000D03*
X114000000Y-106200000D03*
X110400000Y-106400000D03*
X111200000Y-106400000D03*
X111400000Y-106400000D03*
X111600000Y-106400000D03*
X112000000Y-106400000D03*
X112400000Y-106400000D03*
X112600000Y-106400000D03*
X112800000Y-106400000D03*
X113000000Y-106400000D03*
X113200000Y-106400000D03*
X113600000Y-106400000D03*
X113800000Y-106400000D03*
X114000000Y-106400000D03*
X111800000Y-106600000D03*
X112000000Y-106600000D03*
X112400000Y-106600000D03*
X110000000Y-106800000D03*
X110200000Y-106800000D03*
X110400000Y-106800000D03*
X110600000Y-106800000D03*
X110800000Y-106800000D03*
X111000000Y-106800000D03*
X111200000Y-106800000D03*
X111600000Y-106800000D03*
X112000000Y-106800000D03*
X112400000Y-106800000D03*
X112800000Y-106800000D03*
X113000000Y-106800000D03*
X113200000Y-106800000D03*
X113400000Y-106800000D03*
X113600000Y-106800000D03*
X113800000Y-106800000D03*
X114000000Y-106800000D03*
X110000000Y-107000000D03*
X111200000Y-107000000D03*
X111600000Y-107000000D03*
X112000000Y-107000000D03*
X112200000Y-107000000D03*
X112800000Y-107000000D03*
X114000000Y-107000000D03*
X110000000Y-107200000D03*
X110400000Y-107200000D03*
X110600000Y-107200000D03*
X110800000Y-107200000D03*
X111200000Y-107200000D03*
X112200000Y-107200000D03*
X112800000Y-107200000D03*
X113200000Y-107200000D03*
X113400000Y-107200000D03*
X113600000Y-107200000D03*
X114000000Y-107200000D03*
X110000000Y-107400000D03*
X110400000Y-107400000D03*
X110600000Y-107400000D03*
X110800000Y-107400000D03*
X111200000Y-107400000D03*
X111600000Y-107400000D03*
X111800000Y-107400000D03*
X112200000Y-107400000D03*
X112800000Y-107400000D03*
X113200000Y-107400000D03*
X113400000Y-107400000D03*
X113600000Y-107400000D03*
X114000000Y-107400000D03*
X110000000Y-107600000D03*
X110400000Y-107600000D03*
X110600000Y-107600000D03*
X110800000Y-107600000D03*
X111200000Y-107600000D03*
X111800000Y-107600000D03*
X112000000Y-107600000D03*
X112400000Y-107600000D03*
X112800000Y-107600000D03*
X113200000Y-107600000D03*
X113400000Y-107600000D03*
X113600000Y-107600000D03*
X114000000Y-107600000D03*
X110000000Y-107800000D03*
X111200000Y-107800000D03*
X111600000Y-107800000D03*
X112200000Y-107800000D03*
X112800000Y-107800000D03*
X114000000Y-107800000D03*
X110000000Y-108000000D03*
X110200000Y-108000000D03*
X110400000Y-108000000D03*
X110600000Y-108000000D03*
X110800000Y-108000000D03*
X111000000Y-108000000D03*
X111200000Y-108000000D03*
X111600000Y-108000000D03*
X112000000Y-108000000D03*
X112800000Y-108000000D03*
X113000000Y-108000000D03*
X113200000Y-108000000D03*
X113400000Y-108000000D03*
X113600000Y-108000000D03*
X113800000Y-108000000D03*
X114000000Y-108000000D03*
%TD*%
%TO.P,D1,1*%
%TO.N,GND*%
%TA.AperFunction,SMDPad,CuDef*%
G36*
G01*
X112237500Y-101400000D02*
X111762500Y-101400000D01*
G75*
G02*
X111525000Y-101162500I0J237500D01*
G01*
X111525000Y-100587500D01*
G75*
G02*
X111762500Y-100350000I237500J0D01*
G01*
X112237500Y-100350000D01*
G75*
G02*
X112475000Y-100587500I0J-237500D01*
G01*
X112475000Y-101162500D01*
G75*
G02*
X112237500Y-101400000I-237500J0D01*
G01*
G37*
%TD.AperFunction*%
%TO.P,D1,2*%
%TO.N,Net-(D1-Pad2)*%
%TA.AperFunction,SMDPad,CuDef*%
G36*
G01*
X112237500Y-99650000D02*
X111762500Y-99650000D01*
G75*
G02*
X111525000Y-99412500I0J237500D01*
G01*
X111525000Y-98837500D01*
G75*
G02*
X111762500Y-98600000I237500J0D01*
G01*
X112237500Y-98600000D01*
G75*
G02*
X112475000Y-98837500I0J-237500D01*
G01*
X112475000Y-99412500D01*
G75*
G02*
X112237500Y-99650000I-237500J0D01*
G01*
G37*
%TD.AperFunction*%
D22*
X112000000Y-98730000D03*
D23*
%TO.P,D1,1*%
%TO.N,GND*%
X112000000Y-101270000D03*
%TD*%
D13*
%TO.P,J2,4*%
%TO.N,Net-(J2-Pad4)*%
X103810000Y-112000000D03*
%TO.P,J2,3*%
%TO.N,Net-(J2-Pad3)*%
X101270000Y-112000000D03*
%TO.P,J2,2*%
%TO.N,+5V*%
X98730000Y-112000000D03*
D14*
%TO.P,J2,1*%
%TO.N,GND*%
X96190000Y-112000000D03*
%TD*%
%TO.P,D3,1*%
%TO.N,GND*%
%TA.AperFunction,SMDPad,CuDef*%
G36*
G01*
X112237500Y-89400000D02*
X111762500Y-89400000D01*
G75*
G02*
X111525000Y-89162500I0J237500D01*
G01*
X111525000Y-88587500D01*
G75*
G02*
X111762500Y-88350000I237500J0D01*
G01*
X112237500Y-88350000D01*
G75*
G02*
X112475000Y-88587500I0J-237500D01*
G01*
X112475000Y-89162500D01*
G75*
G02*
X112237500Y-89400000I-237500J0D01*
G01*
G37*
%TD.AperFunction*%
%TO.P,D3,2*%
%TO.N,Net-(D3-Pad2)*%
%TA.AperFunction,SMDPad,CuDef*%
G36*
G01*
X112237500Y-87650000D02*
X111762500Y-87650000D01*
G75*
G02*
X111525000Y-87412500I0J237500D01*
G01*
X111525000Y-86837500D01*
G75*
G02*
X111762500Y-86600000I237500J0D01*
G01*
X112237500Y-86600000D01*
G75*
G02*
X112475000Y-86837500I0J-237500D01*
G01*
X112475000Y-87412500D01*
G75*
G02*
X112237500Y-87650000I-237500J0D01*
G01*
G37*
%TD.AperFunction*%
D22*
X112000000Y-86730000D03*
D23*
%TO.P,D3,1*%
%TO.N,GND*%
X112000000Y-89270000D03*
%TD*%
%TO.P,D2,1*%
%TO.N,GND*%
%TA.AperFunction,SMDPad,CuDef*%
G36*
G01*
X112237500Y-95400000D02*
X111762500Y-95400000D01*
G75*
G02*
X111525000Y-95162500I0J237500D01*
G01*
X111525000Y-94587500D01*
G75*
G02*
X111762500Y-94350000I237500J0D01*
G01*
X112237500Y-94350000D01*
G75*
G02*
X112475000Y-94587500I0J-237500D01*
G01*
X112475000Y-95162500D01*
G75*
G02*
X112237500Y-95400000I-237500J0D01*
G01*
G37*
%TD.AperFunction*%
%TO.P,D2,2*%
%TO.N,Net-(D2-Pad2)*%
%TA.AperFunction,SMDPad,CuDef*%
G36*
G01*
X112237500Y-93650000D02*
X111762500Y-93650000D01*
G75*
G02*
X111525000Y-93412500I0J237500D01*
G01*
X111525000Y-92837500D01*
G75*
G02*
X111762500Y-92600000I237500J0D01*
G01*
X112237500Y-92600000D01*
G75*
G02*
X112475000Y-92837500I0J-237500D01*
G01*
X112475000Y-93412500D01*
G75*
G02*
X112237500Y-93650000I-237500J0D01*
G01*
G37*
%TD.AperFunction*%
D22*
X112000000Y-92730000D03*
D23*
%TO.P,D2,1*%
%TO.N,GND*%
X112000000Y-95270000D03*
%TD*%
D24*
%TO.P,H2,1*%
%TO.N,N/C*%
X88000000Y-88000000D03*
%TD*%
%TO.P,H1,1*%
%TO.N,N/C*%
X112000000Y-112000000D03*
%TD*%
D25*
%TO.N,GND*%
X100000000Y-91500000D03*
X103050000Y-93850000D03*
X103050000Y-95350000D03*
X96450000Y-95350000D03*
X94775000Y-96425000D03*
X93225000Y-103575000D03*
X93750000Y-93850000D03*
X106275000Y-96225000D03*
X106250000Y-101450000D03*
X92525165Y-105399845D03*
X103400000Y-106100000D03*
X97275000Y-105775000D03*
%TO.N,+3V3*%
X107368644Y-96617055D03*
X91500000Y-105400000D03*
X97700000Y-93500000D03*
X99151497Y-93500000D03*
X105306019Y-107650000D03*
X94775000Y-95360045D03*
%TO.N,+5V*%
X104725000Y-96225000D03*
%TD*%
D26*
%TO.N,GND*%
X96250000Y-108900000D02*
X96250000Y-107150000D01*
D27*
X90250000Y-96750000D02*
X90250000Y-103250000D01*
X90250000Y-103250000D02*
X92350000Y-103250000D01*
X110774999Y-96495001D02*
X112000000Y-95270000D01*
X110774999Y-99649999D02*
X110774999Y-96495001D01*
X112000000Y-100875000D02*
X110774999Y-99649999D01*
X110774999Y-90495001D02*
X112000000Y-89270000D01*
X110774999Y-94044999D02*
X110774999Y-90495001D01*
X112000000Y-95270000D02*
X110774999Y-94044999D01*
D26*
X100001498Y-93091999D02*
X100001498Y-96401498D01*
X100000000Y-93090501D02*
X100001498Y-93091999D01*
X100000000Y-91500000D02*
X100000000Y-93090501D01*
X106275000Y-101425000D02*
X106250000Y-101450000D01*
D27*
X108495001Y-96495001D02*
X110774999Y-96495001D01*
X106275000Y-96225000D02*
X106275000Y-95725000D01*
X106275000Y-95725000D02*
X106500000Y-95500000D01*
X107500000Y-95500000D02*
X108495001Y-96495001D01*
X106500000Y-95500000D02*
X107500000Y-95500000D01*
D26*
X100001498Y-96401498D02*
X100001498Y-96998502D01*
X95690000Y-111500000D02*
X96190000Y-112000000D01*
X89528001Y-109899999D02*
X91128002Y-111500000D01*
X88200001Y-109899999D02*
X89528001Y-109899999D01*
X87000000Y-111000000D02*
X87100000Y-111000000D01*
X87100000Y-111000000D02*
X88200001Y-109899999D01*
X91128002Y-111500000D02*
X95690000Y-111500000D01*
D27*
%TO.N,+3V3*%
X97700000Y-93500000D02*
X99151497Y-93500000D01*
X97700000Y-93500000D02*
X96710055Y-93500000D01*
X105306019Y-106406019D02*
X105306019Y-107650000D01*
X105300000Y-104000000D02*
X105300000Y-106400000D01*
X105300000Y-102600000D02*
X105300000Y-104000000D01*
X105700000Y-102200000D02*
X105300000Y-102600000D01*
X106600000Y-102200000D02*
X105700000Y-102200000D01*
X107050000Y-101750000D02*
X106600000Y-102200000D01*
X107050000Y-96875000D02*
X107050000Y-101750000D01*
X107307945Y-96617055D02*
X107050000Y-96875000D01*
X107368644Y-96617055D02*
X107307945Y-96617055D01*
X105306019Y-109693981D02*
X105306019Y-107650000D01*
X95067157Y-109932843D02*
X95284325Y-110150010D01*
X95284325Y-110150010D02*
X104849990Y-110150010D01*
X95067157Y-109067157D02*
X95067157Y-109932843D01*
X94500000Y-108500000D02*
X95067157Y-109067157D01*
X104849990Y-110150010D02*
X105306019Y-109693981D01*
X96635045Y-93500000D02*
X94775000Y-95360045D01*
X96710055Y-93500000D02*
X96635045Y-93500000D01*
X92500000Y-108500000D02*
X94500000Y-108500000D01*
X91500000Y-107500000D02*
X92500000Y-108500000D01*
X91500000Y-105400000D02*
X91500000Y-107500000D01*
D26*
%TO.N,+5V*%
X103900000Y-107500000D02*
X104725000Y-106675000D01*
X98750000Y-108850097D02*
X100100096Y-107500000D01*
X104725000Y-106675000D02*
X104725000Y-96225000D01*
X100100096Y-107500000D02*
X103900000Y-107500000D01*
X98750000Y-108900000D02*
X98750000Y-108850097D01*
%TD*%
D28*
%TO.N,GND*%
X95077962Y-93982282D02*
X94735199Y-94325045D01*
X94673061Y-94325045D01*
X94473102Y-94364819D01*
X94284744Y-94442840D01*
X94115226Y-94556108D01*
X93971063Y-94700271D01*
X93857795Y-94869789D01*
X93779774Y-95058147D01*
X93740000Y-95258106D01*
X93740000Y-95461984D01*
X93779774Y-95661943D01*
X93857795Y-95850301D01*
X93971063Y-96019819D01*
X94115226Y-96163982D01*
X94284744Y-96277250D01*
X94473102Y-96355271D01*
X94673061Y-96395045D01*
X94876939Y-96395045D01*
X95076898Y-96355271D01*
X95265256Y-96277250D01*
X95273000Y-96272076D01*
X95273000Y-99100000D01*
X95275440Y-99124776D01*
X95282667Y-99148601D01*
X95294403Y-99170557D01*
X95310197Y-99189803D01*
X95329443Y-99205597D01*
X95351399Y-99217333D01*
X95375224Y-99224560D01*
X95400000Y-99227000D01*
X95500000Y-99227000D01*
X95524776Y-99224560D01*
X95548601Y-99217333D01*
X95570557Y-99205597D01*
X95589803Y-99189803D01*
X95605597Y-99170557D01*
X95617333Y-99148601D01*
X95624560Y-99124776D01*
X95627000Y-99100000D01*
X95627000Y-96000000D01*
X95624560Y-95975224D01*
X95619619Y-95958934D01*
X95692205Y-95850301D01*
X95770226Y-95661943D01*
X95810000Y-95461984D01*
X95810000Y-95399846D01*
X96082846Y-95127000D01*
X96873000Y-95127000D01*
X96873000Y-96500000D01*
X96875440Y-96524776D01*
X96882667Y-96548601D01*
X96894403Y-96570557D01*
X96910197Y-96589803D01*
X96929443Y-96605597D01*
X96951399Y-96617333D01*
X96975224Y-96624560D01*
X97000000Y-96627000D01*
X102500000Y-96627000D01*
X102524776Y-96624560D01*
X102548601Y-96617333D01*
X102570557Y-96605597D01*
X102589803Y-96589803D01*
X102605597Y-96570557D01*
X102617333Y-96548601D01*
X102624560Y-96524776D01*
X102627000Y-96500000D01*
X102627000Y-93127000D01*
X103447394Y-93127000D01*
X105410197Y-95089803D01*
X105429443Y-95105597D01*
X105451399Y-95117333D01*
X105475224Y-95124560D01*
X105500000Y-95127000D01*
X106447394Y-95127000D01*
X106873000Y-95552606D01*
X106873000Y-95703450D01*
X106708870Y-95813118D01*
X106564707Y-95957281D01*
X106451439Y-96126799D01*
X106373418Y-96315157D01*
X106333644Y-96515116D01*
X106333644Y-96618390D01*
X106300997Y-96726015D01*
X106290000Y-96837668D01*
X106290000Y-96837678D01*
X106286324Y-96875000D01*
X106290000Y-96912323D01*
X106290001Y-101435198D01*
X106285199Y-101440000D01*
X105737322Y-101440000D01*
X105699999Y-101436324D01*
X105662676Y-101440000D01*
X105662667Y-101440000D01*
X105610000Y-101445187D01*
X105610000Y-96763454D01*
X105642205Y-96715256D01*
X105720226Y-96526898D01*
X105760000Y-96326939D01*
X105760000Y-96123061D01*
X105720226Y-95923102D01*
X105642205Y-95734744D01*
X105528937Y-95565226D01*
X105384774Y-95421063D01*
X105215256Y-95307795D01*
X105026898Y-95229774D01*
X104826939Y-95190000D01*
X104623061Y-95190000D01*
X104423102Y-95229774D01*
X104234744Y-95307795D01*
X104065226Y-95421063D01*
X103921063Y-95565226D01*
X103807795Y-95734744D01*
X103729774Y-95923102D01*
X103690000Y-96123061D01*
X103690000Y-96326939D01*
X103729774Y-96526898D01*
X103807795Y-96715256D01*
X103840001Y-96763456D01*
X103840001Y-97273000D01*
X100900000Y-97273000D01*
X100875224Y-97275440D01*
X100851399Y-97282667D01*
X100829443Y-97294403D01*
X100810197Y-97310197D01*
X100794403Y-97329443D01*
X100782667Y-97351399D01*
X100775440Y-97375224D01*
X100773000Y-97400000D01*
X100773000Y-97500000D01*
X100775440Y-97524776D01*
X100782667Y-97548601D01*
X100794403Y-97570557D01*
X100810197Y-97589803D01*
X100829443Y-97605597D01*
X100851399Y-97617333D01*
X100875224Y-97624560D01*
X100900000Y-97627000D01*
X103840001Y-97627000D01*
X103840000Y-102373000D01*
X100900000Y-102373000D01*
X100875224Y-102375440D01*
X100851399Y-102382667D01*
X100829443Y-102394403D01*
X100810197Y-102410197D01*
X100794403Y-102429443D01*
X100782667Y-102451399D01*
X100775440Y-102475224D01*
X100773000Y-102500000D01*
X100773000Y-102600000D01*
X100775440Y-102624776D01*
X100782667Y-102648601D01*
X100794403Y-102670557D01*
X100810197Y-102689803D01*
X100829443Y-102705597D01*
X100851399Y-102717333D01*
X100875224Y-102724560D01*
X100900000Y-102727000D01*
X103840000Y-102727000D01*
X103840000Y-106308421D01*
X103533422Y-106615000D01*
X100143564Y-106615000D01*
X100100095Y-106610719D01*
X100056626Y-106615000D01*
X100056619Y-106615000D01*
X99942781Y-106626212D01*
X99926605Y-106627805D01*
X99875999Y-106643157D01*
X99759783Y-106678411D01*
X99606037Y-106760589D01*
X99606035Y-106760590D01*
X99606036Y-106760590D01*
X99505049Y-106843468D01*
X99505047Y-106843470D01*
X99471279Y-106871183D01*
X99443566Y-106904951D01*
X98991880Y-107356638D01*
X98927000Y-107350248D01*
X98927000Y-104900000D01*
X98924560Y-104875224D01*
X98917333Y-104851399D01*
X98905597Y-104829443D01*
X98889803Y-104810197D01*
X98870557Y-104794403D01*
X98848601Y-104782667D01*
X98824776Y-104775440D01*
X98800000Y-104773000D01*
X98700000Y-104773000D01*
X98675224Y-104775440D01*
X98651399Y-104782667D01*
X98629443Y-104794403D01*
X98610197Y-104810197D01*
X98594403Y-104829443D01*
X98582667Y-104851399D01*
X98575440Y-104875224D01*
X98573000Y-104900000D01*
X98573000Y-107350248D01*
X98458889Y-107361487D01*
X98178966Y-107446401D01*
X97920986Y-107584294D01*
X97700055Y-107765608D01*
X97689502Y-107730820D01*
X97630537Y-107620506D01*
X97551185Y-107523815D01*
X97454494Y-107444463D01*
X97344180Y-107385498D01*
X97224482Y-107349188D01*
X97100000Y-107336928D01*
X96535750Y-107340000D01*
X96377000Y-107498750D01*
X96377000Y-107873000D01*
X96123000Y-107873000D01*
X96123000Y-107498750D01*
X95964250Y-107340000D01*
X95400000Y-107336928D01*
X95275518Y-107349188D01*
X95155820Y-107385498D01*
X95045506Y-107444463D01*
X94948815Y-107523815D01*
X94869463Y-107620506D01*
X94810498Y-107730820D01*
X94791283Y-107794162D01*
X94648986Y-107750997D01*
X94537333Y-107740000D01*
X94537322Y-107740000D01*
X94500000Y-107736324D01*
X94462678Y-107740000D01*
X92814802Y-107740000D01*
X92260000Y-107185199D01*
X92260000Y-106103711D01*
X92303937Y-106059774D01*
X92417205Y-105890256D01*
X92495226Y-105701898D01*
X92535000Y-105501939D01*
X92535000Y-105298061D01*
X92495226Y-105098102D01*
X92417205Y-104909744D01*
X92303937Y-104740226D01*
X92159774Y-104596063D01*
X92127000Y-104574164D01*
X92127000Y-104327000D01*
X95100000Y-104327000D01*
X95124776Y-104324560D01*
X95148601Y-104317333D01*
X95170557Y-104305597D01*
X95189803Y-104289803D01*
X95205597Y-104270557D01*
X95217333Y-104248601D01*
X95224560Y-104224776D01*
X95227000Y-104200000D01*
X95227000Y-104100000D01*
X95224560Y-104075224D01*
X95217333Y-104051399D01*
X95205597Y-104029443D01*
X95189803Y-104010197D01*
X95170557Y-103994403D01*
X95148601Y-103982667D01*
X95124776Y-103975440D01*
X95100000Y-103973000D01*
X92127000Y-103973000D01*
X92127000Y-100927000D01*
X95100000Y-100927000D01*
X95124776Y-100924560D01*
X95148601Y-100917333D01*
X95170557Y-100905597D01*
X95189803Y-100889803D01*
X95205597Y-100870557D01*
X95217333Y-100848601D01*
X95224560Y-100824776D01*
X95227000Y-100800000D01*
X95227000Y-100700000D01*
X95224560Y-100675224D01*
X95217333Y-100651399D01*
X95205597Y-100629443D01*
X95189803Y-100610197D01*
X95170557Y-100594403D01*
X95148601Y-100582667D01*
X95124776Y-100575440D01*
X95100000Y-100573000D01*
X92127000Y-100573000D01*
X92127000Y-96020610D01*
X93091537Y-93127000D01*
X94436500Y-93127000D01*
X95077962Y-93982282D01*
%TA.AperFunction,Conductor*%
D29*
G36*
X95077962Y-93982282D02*
G01*
X94735199Y-94325045D01*
X94673061Y-94325045D01*
X94473102Y-94364819D01*
X94284744Y-94442840D01*
X94115226Y-94556108D01*
X93971063Y-94700271D01*
X93857795Y-94869789D01*
X93779774Y-95058147D01*
X93740000Y-95258106D01*
X93740000Y-95461984D01*
X93779774Y-95661943D01*
X93857795Y-95850301D01*
X93971063Y-96019819D01*
X94115226Y-96163982D01*
X94284744Y-96277250D01*
X94473102Y-96355271D01*
X94673061Y-96395045D01*
X94876939Y-96395045D01*
X95076898Y-96355271D01*
X95265256Y-96277250D01*
X95273000Y-96272076D01*
X95273000Y-99100000D01*
X95275440Y-99124776D01*
X95282667Y-99148601D01*
X95294403Y-99170557D01*
X95310197Y-99189803D01*
X95329443Y-99205597D01*
X95351399Y-99217333D01*
X95375224Y-99224560D01*
X95400000Y-99227000D01*
X95500000Y-99227000D01*
X95524776Y-99224560D01*
X95548601Y-99217333D01*
X95570557Y-99205597D01*
X95589803Y-99189803D01*
X95605597Y-99170557D01*
X95617333Y-99148601D01*
X95624560Y-99124776D01*
X95627000Y-99100000D01*
X95627000Y-96000000D01*
X95624560Y-95975224D01*
X95619619Y-95958934D01*
X95692205Y-95850301D01*
X95770226Y-95661943D01*
X95810000Y-95461984D01*
X95810000Y-95399846D01*
X96082846Y-95127000D01*
X96873000Y-95127000D01*
X96873000Y-96500000D01*
X96875440Y-96524776D01*
X96882667Y-96548601D01*
X96894403Y-96570557D01*
X96910197Y-96589803D01*
X96929443Y-96605597D01*
X96951399Y-96617333D01*
X96975224Y-96624560D01*
X97000000Y-96627000D01*
X102500000Y-96627000D01*
X102524776Y-96624560D01*
X102548601Y-96617333D01*
X102570557Y-96605597D01*
X102589803Y-96589803D01*
X102605597Y-96570557D01*
X102617333Y-96548601D01*
X102624560Y-96524776D01*
X102627000Y-96500000D01*
X102627000Y-93127000D01*
X103447394Y-93127000D01*
X105410197Y-95089803D01*
X105429443Y-95105597D01*
X105451399Y-95117333D01*
X105475224Y-95124560D01*
X105500000Y-95127000D01*
X106447394Y-95127000D01*
X106873000Y-95552606D01*
X106873000Y-95703450D01*
X106708870Y-95813118D01*
X106564707Y-95957281D01*
X106451439Y-96126799D01*
X106373418Y-96315157D01*
X106333644Y-96515116D01*
X106333644Y-96618390D01*
X106300997Y-96726015D01*
X106290000Y-96837668D01*
X106290000Y-96837678D01*
X106286324Y-96875000D01*
X106290000Y-96912323D01*
X106290001Y-101435198D01*
X106285199Y-101440000D01*
X105737322Y-101440000D01*
X105699999Y-101436324D01*
X105662676Y-101440000D01*
X105662667Y-101440000D01*
X105610000Y-101445187D01*
X105610000Y-96763454D01*
X105642205Y-96715256D01*
X105720226Y-96526898D01*
X105760000Y-96326939D01*
X105760000Y-96123061D01*
X105720226Y-95923102D01*
X105642205Y-95734744D01*
X105528937Y-95565226D01*
X105384774Y-95421063D01*
X105215256Y-95307795D01*
X105026898Y-95229774D01*
X104826939Y-95190000D01*
X104623061Y-95190000D01*
X104423102Y-95229774D01*
X104234744Y-95307795D01*
X104065226Y-95421063D01*
X103921063Y-95565226D01*
X103807795Y-95734744D01*
X103729774Y-95923102D01*
X103690000Y-96123061D01*
X103690000Y-96326939D01*
X103729774Y-96526898D01*
X103807795Y-96715256D01*
X103840001Y-96763456D01*
X103840001Y-97273000D01*
X100900000Y-97273000D01*
X100875224Y-97275440D01*
X100851399Y-97282667D01*
X100829443Y-97294403D01*
X100810197Y-97310197D01*
X100794403Y-97329443D01*
X100782667Y-97351399D01*
X100775440Y-97375224D01*
X100773000Y-97400000D01*
X100773000Y-97500000D01*
X100775440Y-97524776D01*
X100782667Y-97548601D01*
X100794403Y-97570557D01*
X100810197Y-97589803D01*
X100829443Y-97605597D01*
X100851399Y-97617333D01*
X100875224Y-97624560D01*
X100900000Y-97627000D01*
X103840001Y-97627000D01*
X103840000Y-102373000D01*
X100900000Y-102373000D01*
X100875224Y-102375440D01*
X100851399Y-102382667D01*
X100829443Y-102394403D01*
X100810197Y-102410197D01*
X100794403Y-102429443D01*
X100782667Y-102451399D01*
X100775440Y-102475224D01*
X100773000Y-102500000D01*
X100773000Y-102600000D01*
X100775440Y-102624776D01*
X100782667Y-102648601D01*
X100794403Y-102670557D01*
X100810197Y-102689803D01*
X100829443Y-102705597D01*
X100851399Y-102717333D01*
X100875224Y-102724560D01*
X100900000Y-102727000D01*
X103840000Y-102727000D01*
X103840000Y-106308421D01*
X103533422Y-106615000D01*
X100143564Y-106615000D01*
X100100095Y-106610719D01*
X100056626Y-106615000D01*
X100056619Y-106615000D01*
X99942781Y-106626212D01*
X99926605Y-106627805D01*
X99875999Y-106643157D01*
X99759783Y-106678411D01*
X99606037Y-106760589D01*
X99606035Y-106760590D01*
X99606036Y-106760590D01*
X99505049Y-106843468D01*
X99505047Y-106843470D01*
X99471279Y-106871183D01*
X99443566Y-106904951D01*
X98991880Y-107356638D01*
X98927000Y-107350248D01*
X98927000Y-104900000D01*
X98924560Y-104875224D01*
X98917333Y-104851399D01*
X98905597Y-104829443D01*
X98889803Y-104810197D01*
X98870557Y-104794403D01*
X98848601Y-104782667D01*
X98824776Y-104775440D01*
X98800000Y-104773000D01*
X98700000Y-104773000D01*
X98675224Y-104775440D01*
X98651399Y-104782667D01*
X98629443Y-104794403D01*
X98610197Y-104810197D01*
X98594403Y-104829443D01*
X98582667Y-104851399D01*
X98575440Y-104875224D01*
X98573000Y-104900000D01*
X98573000Y-107350248D01*
X98458889Y-107361487D01*
X98178966Y-107446401D01*
X97920986Y-107584294D01*
X97700055Y-107765608D01*
X97689502Y-107730820D01*
X97630537Y-107620506D01*
X97551185Y-107523815D01*
X97454494Y-107444463D01*
X97344180Y-107385498D01*
X97224482Y-107349188D01*
X97100000Y-107336928D01*
X96535750Y-107340000D01*
X96377000Y-107498750D01*
X96377000Y-107873000D01*
X96123000Y-107873000D01*
X96123000Y-107498750D01*
X95964250Y-107340000D01*
X95400000Y-107336928D01*
X95275518Y-107349188D01*
X95155820Y-107385498D01*
X95045506Y-107444463D01*
X94948815Y-107523815D01*
X94869463Y-107620506D01*
X94810498Y-107730820D01*
X94791283Y-107794162D01*
X94648986Y-107750997D01*
X94537333Y-107740000D01*
X94537322Y-107740000D01*
X94500000Y-107736324D01*
X94462678Y-107740000D01*
X92814802Y-107740000D01*
X92260000Y-107185199D01*
X92260000Y-106103711D01*
X92303937Y-106059774D01*
X92417205Y-105890256D01*
X92495226Y-105701898D01*
X92535000Y-105501939D01*
X92535000Y-105298061D01*
X92495226Y-105098102D01*
X92417205Y-104909744D01*
X92303937Y-104740226D01*
X92159774Y-104596063D01*
X92127000Y-104574164D01*
X92127000Y-104327000D01*
X95100000Y-104327000D01*
X95124776Y-104324560D01*
X95148601Y-104317333D01*
X95170557Y-104305597D01*
X95189803Y-104289803D01*
X95205597Y-104270557D01*
X95217333Y-104248601D01*
X95224560Y-104224776D01*
X95227000Y-104200000D01*
X95227000Y-104100000D01*
X95224560Y-104075224D01*
X95217333Y-104051399D01*
X95205597Y-104029443D01*
X95189803Y-104010197D01*
X95170557Y-103994403D01*
X95148601Y-103982667D01*
X95124776Y-103975440D01*
X95100000Y-103973000D01*
X92127000Y-103973000D01*
X92127000Y-100927000D01*
X95100000Y-100927000D01*
X95124776Y-100924560D01*
X95148601Y-100917333D01*
X95170557Y-100905597D01*
X95189803Y-100889803D01*
X95205597Y-100870557D01*
X95217333Y-100848601D01*
X95224560Y-100824776D01*
X95227000Y-100800000D01*
X95227000Y-100700000D01*
X95224560Y-100675224D01*
X95217333Y-100651399D01*
X95205597Y-100629443D01*
X95189803Y-100610197D01*
X95170557Y-100594403D01*
X95148601Y-100582667D01*
X95124776Y-100575440D01*
X95100000Y-100573000D01*
X92127000Y-100573000D01*
X92127000Y-96020610D01*
X93091537Y-93127000D01*
X94436500Y-93127000D01*
X95077962Y-93982282D01*
G37*
%TD.AperFunction*%
%TD*%
M02*
