%TF.GenerationSoftware,KiCad,Pcbnew,(6.0.5-0)*%
%TF.CreationDate,2022-06-22T17:56:20+01:00*%
%TF.ProjectId,PN532-Round,504e3533-322d-4526-9f75-6e642e6b6963,7*%
%TF.SameCoordinates,Original*%
%TF.FileFunction,Copper,L2,Bot*%
%TF.FilePolarity,Positive*%
%FSLAX46Y46*%
G04 Gerber Fmt 4.6, Leading zero omitted, Abs format (unit mm)*
G04 Created by KiCad (PCBNEW (6.0.5-0)) date 2022-06-22 17:56:20*
%MOMM*%
%LPD*%
G01*
G04 APERTURE LIST*
G04 Aperture macros list*
%AMFreePoly0*
4,1,817,0.043776,0.241293,0.083349,0.235481,0.088518,0.232393,0.095671,0.230970,0.135948,0.204058,0.167089,0.185454,0.170349,0.181072,0.176777,0.176777,0.205303,0.134084,0.225310,0.107190,0.226543,0.102296,0.230970,0.095671,0.241293,0.043771,0.249149,0.012602,0.248446,0.007814,0.250000,0.000000,0.239677,-0.051900,0.234976,-0.083908,0.232478,-0.088089,0.230970,-0.095671,
0.202443,-0.138365,0.184949,-0.167648,0.180829,-0.170713,0.176777,-0.176777,0.136505,-0.203686,0.106685,-0.225869,0.101258,-0.227237,0.095671,-0.230970,0.051899,-0.239677,0.012097,-0.249708,0.005982,-0.248810,0.000000,-0.250000,-0.014584,-0.247099,-0.881730,-0.308366,-1.772090,-0.407184,-2.657788,-0.541524,-3.537405,-0.711174,-4.409535,-0.915860,-5.272783,-1.155256,-6.125768,-1.428979,
-6.967125,-1.736591,-7.795509,-2.077599,-8.609595,-2.451459,-9.408081,-2.857573,-10.171815,-3.285280,-10.187420,-3.299157,-10.187701,-3.299255,-10.187930,-3.299458,-10.207832,-3.306367,-10.956233,-3.765877,-11.702686,-4.266662,-12.428369,-4.797097,-13.132105,-5.356323,-13.812753,-5.943432,-14.469208,-6.557472,-15.100406,-7.197446,-15.705323,-7.862317,-16.282977,-8.551007,-16.832433,-9.262398,-17.352798,-9.995336,
-17.843228,-10.748633,-18.292362,-11.503313,-18.298994,-11.523302,-18.299187,-11.523525,-18.299279,-11.523802,-18.313010,-11.539679,-18.729806,-12.308951,-19.124361,-13.112868,-19.486226,-13.932020,-19.814814,-14.765079,-20.109591,-15.610692,-20.370079,-16.467490,-20.595857,-17.334081,-20.786558,-18.209061,-20.941872,-19.091010,-21.061547,-19.978497,-21.145390,-20.870083,-21.193265,-21.764323,-21.204821,-22.639183,-21.200585,-22.659734,
-21.200642,-22.660031,-21.200581,-22.660326,-21.204517,-22.680861,-21.180904,-23.552192,-21.120843,-24.442330,-21.024989,-25.329328,-20.893497,-26.211747,-20.726580,-27.088155,-20.524509,-27.957132,-20.287612,-28.817267,-20.016273,-29.667166,-19.710931,-30.505450,-19.372084,-31.330759,-19.000279,-32.141755,-18.596120,-32.937122,-18.170284,-33.697672,-18.156388,-33.713297,-18.156290,-33.713578,-18.156095,-33.713798,-18.149264,-33.733468,
-17.694841,-34.473456,-17.199609,-35.211509,-16.675061,-35.929022,-16.122046,-36.624831,-15.541462,-37.297809,-14.934252,-37.946863,-14.301399,-38.570941,-13.643930,-39.169030,-12.962911,-39.740161,-12.259448,-40.283406,-11.534681,-40.797885,-10.789786,-41.282764,-10.043530,-41.726808,-10.023761,-41.733365,-10.023536,-41.733559,-10.023254,-41.733653,-10.007561,-41.747222,-9.246900,-42.159276,-8.451993,-42.549332,-7.642026,-42.907065,
-6.818310,-43.231893,-5.982184,-43.523290,-5.135002,-43.780783,-4.278138,-44.003955,-3.412984,-44.192444,-2.540941,-44.345943,-1.663425,-44.464204,-0.781859,-44.547036,0.102328,-44.594303,0.967351,-44.605662,0.987669,-44.601472,0.987961,-44.601528,0.988251,-44.601468,1.008553,-44.605358,1.870049,-44.581943,2.750136,-44.522492,3.627115,-44.427651,4.499564,-44.297575,5.366068,-44.132474,6.225221,-43.932617,
7.075629,-43.698327,7.915915,-43.429984,8.744713,-43.128024,9.560681,-42.792937,10.362495,-42.425266,11.148853,-42.025607,11.900790,-41.604517,11.916234,-41.590779,11.916512,-41.590683,11.916736,-41.590483,11.936186,-41.583727,12.667752,-41.134397,13.397404,-40.644718,14.106746,-40.126057,14.794628,-39.579254,15.459935,-39.005196,16.101588,-38.404814,16.718545,-37.779082,17.309806,-37.129016,17.874412,-36.455669,
18.411448,-35.760134,18.920041,-35.043539,19.399368,-34.307046,19.838322,-33.569209,19.844803,-33.549665,19.845000,-33.549437,19.845098,-33.549142,19.858512,-33.533625,20.265819,-32.781585,20.651376,-31.995689,21.004975,-31.194907,21.326044,-30.380535,21.614060,-29.553896,21.868558,-28.716330,22.089123,-27.869196,22.275400,-27.013867,22.427084,-26.151732,22.543931,-25.284188,22.625750,-24.412643,22.672410,-23.538510,
22.683571,-22.683328,22.679427,-22.663238,22.679485,-22.662937,22.679424,-22.662643,22.683266,-22.642583,22.660050,-21.790914,22.601207,-20.920881,22.507379,-20.053922,22.378718,-19.191445,22.215434,-18.334848,22.017790,-17.485520,21.786107,-16.644840,21.520762,-15.814170,21.222184,-14.994858,20.890858,-14.188233,20.527321,-13.395604,20.132163,-12.618255,19.715819,-11.874936,19.702238,-11.859670,19.702138,-11.859383,
19.701940,-11.859160,19.695259,-11.839930,19.251021,-11.116788,18.766896,-10.395538,18.254121,-9.694367,17.713530,-9.014412,17.145997,-8.356776,16.552445,-7.722526,15.933835,-7.112690,15.291171,-6.528257,14.625496,-5.970176,13.937889,-5.439351,13.229465,-4.936644,12.501374,-4.462870,11.771959,-4.029006,11.752637,-4.022601,11.752403,-4.022399,11.752111,-4.022302,11.736767,-4.009039,10.993351,-3.606483,
10.216466,-3.225425,9.424867,-2.875958,8.619838,-2.558649,7.802685,-2.274013,6.974735,-2.022511,6.137328,-1.804551,5.291825,-1.620487,4.439595,-1.470617,3.582022,-1.355185,2.720497,-1.274377,1.856416,-1.228325,1.011074,-1.217361,0.991213,-1.221460,0.990917,-1.221403,0.990614,-1.221466,0.970769,-1.217667,0.128955,-1.240684,-0.731027,-1.298918,-1.587965,-1.391733,-2.440472,-1.518977,
-3.287163,-1.680446,-4.126666,-1.875876,-4.957619,-2.104952,-5.778675,-2.367300,-6.588500,-2.662497,-7.385783,-2.990062,-8.169229,-3.349466,-8.937568,-3.740123,-9.672265,-4.151716,-9.687357,-4.165145,-9.687644,-4.165245,-9.687880,-4.165455,-9.706890,-4.172062,-10.421608,-4.611206,-11.134456,-5.089777,-11.827455,-5.596663,-12.499482,-6.131043,-13.149447,-6.692049,-13.776295,-7.278772,-14.379010,-7.890259,
-14.956614,-8.525520,-15.508170,-9.183523,-16.032784,-9.863201,-16.529604,-10.563452,-16.997825,-11.283140,-17.426598,-12.004134,-17.432928,-12.023232,-17.433136,-12.023473,-17.433234,-12.023768,-17.446345,-12.038939,-17.844152,-12.773731,-18.220710,-13.541606,-18.566043,-14.324021,-18.879592,-15.119706,-19.160848,-15.927371,-19.409354,-16.745707,-19.624707,-17.573385,-19.806559,-18.409063,-19.954614,-19.251386,-20.068631,-20.098987,
-20.148427,-20.950492,-20.193872,-21.804519,-20.204638,-22.640028,-20.200586,-22.659653,-20.200645,-22.659964,-20.200583,-22.660266,-20.204332,-22.679860,-20.181514,-23.511856,-20.123888,-24.361784,-20.032087,-25.208702,-19.906257,-26.051237,-19.746605,-26.888022,-19.553388,-27.717700,-19.326919,-28.538924,-19.067568,-29.350364,-18.775753,-30.150703,-18.451948,-30.938643,-18.096679,-31.712905,-17.710522,-32.472234,-17.303672,-33.198320,
-17.290405,-33.213227,-17.290302,-33.213523,-17.290100,-33.213750,-17.283571,-33.232532,-16.849514,-33.938834,-16.376496,-34.643281,-15.875497,-35.328110,-15.347328,-35.992210,-14.792847,-36.634504,-14.212953,-37.253951,-13.608587,-37.849545,-12.980729,-38.420321,-12.330397,-38.965353,-11.658646,-39.483756,-10.966566,-39.974691,-10.255280,-40.437360,-9.542701,-40.861047,-9.523832,-40.867299,-9.523600,-40.867500,-9.523297,-40.867600,
-9.508309,-40.880551,-8.782130,-41.273616,-8.023265,-41.645675,-7.250033,-41.986877,-6.463691,-42.296667,-5.665512,-42.574543,-4.856791,-42.820054,-4.038841,-43.032802,-3.212987,-43.212442,-2.380570,-43.358683,-1.542939,-43.471287,-0.701454,-43.550072,0.142521,-43.594909,0.968194,-43.605478,0.987586,-43.601473,0.987897,-43.601533,0.988205,-43.601469,1.007572,-43.605173,1.829726,-43.582553,2.669601,-43.525536,
3.506500,-43.434748,4.339063,-43.310334,5.165942,-43.152498,5.985795,-42.961494,6.797292,-42.737634,7.599117,-42.481279,8.389970,-42.192846,9.168567,-41.872802,9.933645,-41.521667,10.683965,-41.140010,11.401430,-40.737909,11.416162,-40.724796,11.416465,-40.724691,11.416695,-40.724486,11.435254,-40.718033,12.133136,-40.289068,12.829181,-39.821603,13.505838,-39.326491,14.162011,-38.804534,14.796634,-38.256579,
15.408679,-37.683514,15.997152,-37.086270,16.561100,-36.465815,17.099607,-35.823155,17.611800,-35.159333,18.096848,-34.475425,18.553964,-33.772541,18.972560,-33.068387,18.978737,-33.049738,18.978948,-33.049494,18.979046,-33.049198,18.991837,-33.034392,19.380158,-32.316826,19.747719,-31.566971,20.084787,-30.802924,20.390818,-30.025925,20.665313,-29.237233,20.907829,-28.438127,21.117971,-27.629905,21.295399,-26.813877,
21.439825,-25.991366,21.551014,-25.163706,21.628787,-24.332241,21.673017,-23.498319,21.683388,-22.682486,21.679428,-22.663323,21.679487,-22.663012,21.679422,-22.662695,21.683083,-22.643543,21.660663,-21.831243,21.604255,-21.001421,21.514480,-20.174542,21.391482,-19.351950,21.235461,-18.534977,21.046671,-17.724949,20.825418,-16.923180,20.572060,-16.130970,20.287008,-15.349604,19.970725,-14.580349,19.623724,-13.824454,
19.246567,-13.083145,18.849217,-12.374303,18.836256,-12.359744,18.836150,-12.359439,18.835939,-12.359202,18.829561,-12.340865,18.405688,-11.651405,17.943778,-10.963762,17.454553,-10.295276,16.938808,-9.647031,16.397379,-9.020079,15.831144,-8.415436,15.241022,-7.834084,14.627970,-7.276965,13.992982,-6.744983,13.337088,-6.239000,12.661353,-5.759839,11.966871,-5.308275,11.271139,-4.894770,11.252712,-4.888668,
11.252539,-4.888518,11.252317,-4.888445,11.237854,-4.875954,10.530794,-4.493399,9.792118,-4.131276,9.039505,-3.799089,8.274167,-3.497374,7.497337,-3.226615,6.710267,-2.987251,5.914224,-2.779666,5.110493,-2.604194,4.300366,-2.461120,3.503717,-2.353187,3.484682,-2.354747,3.391814,-2.324903,3.317437,-2.261792,3.272873,-2.175021,3.264907,-2.077802,3.294751,-1.984934,3.357862,-1.910557,
3.444633,-1.865993,3.541852,-1.858027,4.376793,-1.971147,5.206521,-2.117684,6.029700,-2.297401,6.845003,-2.510009,7.651117,-2.755165,8.446744,-3.032475,9.230600,-3.341491,10.001424,-3.681715,10.757973,-4.052600,11.499027,-4.453549,11.499219,-4.453715,11.499466,-4.453798,12.228730,-4.887233,12.939953,-5.349682,13.631978,-5.840395,14.303683,-6.358574,14.953978,-6.903380,15.581808,-7.473929,
16.186156,-8.069296,16.766040,-8.688514,17.320521,-9.330580,17.848699,-9.994451,18.349717,-10.679052,18.822763,-11.383272,19.267069,-12.105968,19.267178,-12.106282,19.267392,-12.106522,19.683857,-12.849463,20.070068,-13.608570,20.425400,-14.382612,20.749276,-15.170335,21.041172,-15.970460,21.300612,-16.781689,21.527178,-17.602707,21.720500,-18.432182,21.880267,-19.268769,22.006217,-20.111111,22.098148,-20.957841,
22.155910,-21.807585,22.179408,-22.658967,22.179347,-22.659285,22.179414,-22.659609,22.168544,-23.514603,22.123257,-24.368465,22.043624,-25.219811,21.929776,-26.067260,21.781897,-26.909438,21.600227,-27.744978,21.385060,-28.572526,21.136746,-29.390738,20.855687,-30.198289,20.542339,-30.993867,20.197211,-31.776183,19.820862,-32.543967,19.413908,-33.295964,19.413904,-33.295976,19.413686,-33.296228,19.413587,-33.296528,
18.974940,-34.034412,18.506938,-34.754034,18.010339,-35.454229,17.485948,-36.133859,16.934617,-36.791823,16.357240,-37.427054,15.754752,-38.038521,15.128132,-38.625233,14.478396,-39.186237,13.806597,-39.720624,13.113826,-40.227527,12.401205,-40.706124,11.669891,-41.155638,11.669583,-41.155745,11.669346,-41.155956,11.669339,-41.155959,10.917585,-41.577276,10.149469,-41.967985,9.366244,-42.327449,8.569180,-42.655083,
7.759570,-42.950358,6.938727,-43.212793,6.107982,-43.441963,5.268683,-43.637497,4.422192,-43.799077,3.569881,-43.926442,2.713133,-44.019383,1.853338,-44.077752,0.991900,-44.101453,0.991889,-44.101455,0.991570,-44.101394,0.991256,-44.101459,0.126195,-44.090385,-0.737718,-44.044488,-1.599082,-43.963843,-2.456500,-43.848578,-3.308582,-43.698883,-4.153945,-43.514999,-4.991218,-43.297225,-5.819043,-43.045914,
-6.636078,-42.761474,-7.440997,-42.444366,-8.232494,-42.095104,-9.009286,-41.714255,-9.770113,-41.302436,-9.770353,-41.302229,-9.770660,-41.302127,-10.517160,-40.858270,-11.245182,-40.384715,-11.953546,-39.882229,-12.641102,-39.351628,-13.306736,-38.793772,-13.949367,-38.209566,-14.567954,-37.599958,-15.161492,-36.965936,-15.729019,-36.308529,-16.269615,-35.628803,-16.782403,-34.927861,-17.266551,-34.206840,-17.721274,-33.466908,
-17.721380,-33.466604,-17.721585,-33.466373,-18.147763,-32.705792,-18.542970,-31.928668,-18.906565,-31.136260,-19.237958,-30.329855,-19.536612,-29.510760,-19.802042,-28.680303,-20.033818,-27.839832,-20.231563,-26.990711,-20.394957,-26.134315,-20.523735,-25.272035,-20.617688,-24.405269,-20.676664,-23.535422,-20.700567,-22.663917,-20.700569,-22.663906,-20.700508,-22.663588,-20.700572,-22.663279,-20.689296,-21.788153,-20.642790,-20.914190,
-20.561132,-20.042809,-20.444452,-19.175422,-20.292942,-18.313437,-20.106845,-17.458252,-19.886465,-16.611253,-19.632158,-15.773816,-19.344337,-14.947297,-19.023469,-14.133038,-18.670075,-13.332360,-18.284727,-12.546560,-17.868050,-11.776915,-17.868048,-11.776916,-17.867837,-11.776671,-17.867736,-11.776368,-17.418669,-11.021252,-16.939562,-10.284830,-16.431190,-9.568298,-15.894379,-8.872816,-15.329999,-8.199514,-14.738965,-7.549483,
-14.122237,-6.923778,-13.480814,-6.323414,-12.815737,-5.749364,-12.128085,-5.202560,-11.418972,-4.683888,-10.689551,-4.194189,-9.941002,-3.734259,-9.940707,-3.734156,-9.940467,-3.733943,-9.171066,-3.302907,-8.384932,-2.903202,-7.583342,-2.535475,-6.767595,-2.200324,-5.939014,-1.898291,-5.098944,-1.629866,-4.248746,-1.395486,-3.389801,-1.195529,-2.523500,-1.030321,-1.651250,-0.900129,-0.774465,-0.805165,
0.105433,-0.745582,0.987016,-0.721478,0.987319,-0.721536,0.987629,-0.721472,0.987635,-0.721473,1.872823,-0.732954,2.756836,-0.780068,3.638236,-0.862740,4.515592,-0.980835,5.387482,-1.134163,6.252490,-1.322473,7.109214,-1.545461,7.956265,-1.802764,8.792268,-2.093967,9.615868,-2.418596,10.425728,-2.776124,11.220535,-3.165972,11.999001,-3.587508,11.999239,-3.587713,11.999539,-3.587813,
11.999545,-3.587818,12.763271,-4.042091,13.508093,-4.526751,14.232795,-5.041010,14.936203,-5.584032,15.617174,-6.154938,16.274606,-6.752800,16.907430,-7.376650,17.514622,-8.025474,18.095195,-8.698222,18.648209,-9.393802,19.172767,-10.111085,19.668016,-10.848908,20.133156,-11.606074,20.133257,-11.606366,20.133462,-11.606596,20.133464,-11.606601,20.569354,-12.384817,20.973557,-13.179959,21.345415,-13.990732,
21.684325,-14.815820,21.989737,-15.653885,22.261157,-16.503569,22.498142,-17.363492,22.700310,-18.232261,22.867332,-19.108465,22.998938,-19.990684,23.094913,-20.877487,23.155103,-21.767435,23.179409,-22.659068,23.179412,-22.659085,23.179353,-22.659393,23.179415,-22.659694,23.167730,-23.554955,23.120007,-24.449019,23.036322,-25.340437,22.916810,-26.227762,22.761667,-27.109555,22.571144,-27.984386,22.345549,-28.850835,
22.085249,-29.707499,21.790665,-30.552986,21.462276,-31.385926,21.100614,-32.204968,20.706266,-33.008782,20.279872,-33.796066,20.279672,-33.796298,20.279571,-33.796601,20.279568,-33.796605,19.820083,-34.568950,19.329870,-35.322172,18.809725,-36.055043,18.260491,-36.766376,17.683061,-37.455017,17.078371,-38.119848,16.447400,-38.759792,15.791174,-39.373810,15.110756,-39.960907,14.407249,-40.520129,13.681795,-41.050571,
12.935571,-41.551372,12.169788,-42.021719,12.169505,-42.021817,12.169274,-42.022023,12.169269,-42.022025,11.382232,-42.462772,10.578081,-42.871474,9.758126,-43.247464,8.923696,-43.590133,8.076145,-43.898924,7.216847,-44.173338,6.347197,-44.412929,5.468605,-44.617309,4.582496,-44.786145,3.690307,-44.919165,2.793486,-45.016151,1.893486,-45.076948,0.991769,-45.101456,0.991470,-45.101399,0.991173,-45.101460,
0.991167,-45.101459,0.085844,-45.089571,-0.818271,-45.041238,-1.719708,-44.956540,-2.617002,-44.835613,-3.508700,-44.678654,-4.393355,-44.485917,-5.269531,-44.257715,-6.135808,-43.994418,-6.990781,-43.696453,-7.833062,-43.364303,-8.661286,-42.998508,-9.474109,-42.599660,-10.270207,-42.168409,-10.270214,-42.168407,-10.270444,-42.168208,-10.270731,-42.168113,-10.270735,-42.168110,-11.051697,-41.703416,-11.813317,-41.207650,
-12.554358,-40.681619,-13.273616,-40.126175,-13.969926,-39.542221,-14.642157,-38.930702,-15.289220,-38.292612,-15.910065,-37.628984,-16.503685,-36.940896,-17.069117,-36.229463,-17.605443,-35.495839,-18.111795,-34.741215,-18.587351,-33.966814,-18.587449,-33.966531,-18.587652,-33.966303,-18.587654,-33.966298,-19.033258,-33.170442,-19.446457,-32.357284,-19.826579,-31.528148,-20.173006,-30.684378,-20.485177,-29.827343,-20.762586,-28.958433,
-21.004782,-28.079058,-21.211373,-27.190644,-21.382023,-26.294632,-21.516457,-25.392475,-21.614455,-24.485636,-21.675859,-23.575587,-21.700569,-22.663804,-21.700511,-22.663500,-21.700573,-22.663198,-21.700572,-22.663192,-21.688480,-21.747803,-21.639539,-20.833636,-21.553828,-19.922182,-21.431485,-19.014918,-21.272710,-18.113316,-21.077760,-17.218839,-20.846951,-16.332937,-20.580658,-15.457047,-20.279312,-14.592590,-19.943403,-13.740968,
-19.573474,-12.903562,-19.170127,-12.081731,-18.734015,-11.276808,-18.734013,-11.276808,-18.733815,-11.276580,-18.733722,-11.276298,-18.298432,-10.542482,-17.836008,-9.825454,-17.347097,-9.126219,-16.832383,-8.445754,-16.292585,-7.785010,-15.728459,-7.144912,-15.140793,-6.526355,-14.530409,-5.930204,-13.898162,-5.357293,-13.244935,-4.808424,-12.571641,-4.284363,-11.879224,-3.785843,-11.168650,-3.313563,-10.440914,-2.868182,
-10.440633,-2.868084,-10.440404,-2.867881,-9.641505,-2.420481,-8.825355,-2.005383,-7.993259,-1.623252,-7.146549,-1.274700,-6.286579,-0.960283,-5.414724,-0.680505,-4.532379,-0.435813,-3.640955,-0.226598,-2.741879,-0.053196,-1.836588,0.084117,-0.926530,0.185121,-0.013161,0.249654,-0.006591,0.248689,0.000000,0.250000,0.043776,0.241293,0.043776,0.241293,$1*%
G04 Aperture macros list end*
%TA.AperFunction,SMDPad,CuDef*%
%ADD10R,1.978842X0.500000*%
%TD*%
%TA.AperFunction,ComponentPad*%
%ADD11C,0.500000*%
%TD*%
%TA.AperFunction,SMDPad,CuDef*%
%ADD12FreePoly0,0.000000*%
%TD*%
%TA.AperFunction,ComponentPad*%
%ADD13C,1.820000*%
%TD*%
%TA.AperFunction,ComponentPad*%
%ADD14C,0.350000*%
%TD*%
%TA.AperFunction,ViaPad*%
%ADD15C,0.800000*%
%TD*%
%TA.AperFunction,Conductor*%
%ADD16C,0.250000*%
%TD*%
%TA.AperFunction,Conductor*%
%ADD17C,0.500000*%
%TD*%
G04 APERTURE END LIST*
D10*
%TO.P,A1,*%
%TO.N,*%
X100000000Y-77588534D03*
D11*
X102523846Y-79694921D03*
X100989421Y-77588534D03*
X99010579Y-77588534D03*
D12*
X99010579Y-77588534D03*
%TD*%
D13*
%TO.P,D2,*%
%TO.N,*%
X112500000Y-100000000D03*
%TD*%
%TO.P,D3,*%
%TO.N,*%
X112500000Y-95000000D03*
%TD*%
%TO.P,D1,*%
%TO.N,*%
X112500000Y-105000000D03*
%TD*%
D14*
%TO.P,U1,41,COPPER*%
%TO.N,GND*%
X100000000Y-96560000D03*
X99000000Y-95560000D03*
X99000000Y-97560000D03*
X101000000Y-97560000D03*
X101000000Y-95560000D03*
%TD*%
D15*
%TO.N,GND*%
X104400000Y-99860000D03*
X93000000Y-100134500D03*
X105514175Y-97403682D03*
X100000000Y-89385000D03*
X109000000Y-103830000D03*
X97053825Y-99939076D03*
X104250000Y-91750000D03*
X97195244Y-103717690D03*
X106175000Y-92060000D03*
X109000000Y-99535500D03*
X98769153Y-104068465D03*
X109000000Y-102135000D03*
X112250000Y-102500000D03*
X95950000Y-94735000D03*
%TO.N,+3V3*%
X97350000Y-91760000D03*
X107100000Y-92960000D03*
X92200000Y-89410000D03*
X107100000Y-100459989D03*
X107100000Y-102460000D03*
X91400000Y-102560000D03*
X99522431Y-91240773D03*
%TO.N,+5V*%
X105250000Y-92660000D03*
X109000000Y-90935000D03*
X100000000Y-104250000D03*
X105250000Y-90935000D03*
%TO.N,Net-(D2-Pad2)*%
X109013557Y-96242734D03*
X110799502Y-90500000D03*
%TO.N,Net-(C9-Pad1)*%
X94200000Y-90260000D03*
X96424500Y-92484500D03*
%TO.N,Net-(D6-Pad6)*%
X103000000Y-103750000D03*
X106250000Y-103500000D03*
%TO.N,Net-(C19-Pad1)*%
X105432888Y-104149500D03*
X102294502Y-104500000D03*
%TD*%
D16*
%TO.N,Net-(D2-Pad2)*%
X110799502Y-90500000D02*
X110799502Y-91931082D01*
X109013567Y-96242744D02*
G75*
G03*
X110799502Y-91931082I-4311667J4311644D01*
G01*
%TO.N,GND*%
X109000000Y-102135000D02*
X111885000Y-102135000D01*
X109000000Y-102135000D02*
X109000000Y-103830000D01*
X109000000Y-102135000D02*
X109000000Y-99535500D01*
D17*
X100499501Y-90953770D02*
X100499501Y-92249073D01*
X100750000Y-95560000D02*
X101000000Y-95560000D01*
X100000000Y-89385000D02*
X100000000Y-89747868D01*
X100250000Y-92851421D02*
X100250000Y-95060000D01*
X100149991Y-90110009D02*
G75*
G02*
X100000000Y-89747868I362109J362109D01*
G01*
X100499513Y-90953770D02*
G75*
G03*
X100150000Y-90110000I-1193313J-30D01*
G01*
X100350008Y-92610008D02*
G75*
G03*
X100499501Y-92249073I-360908J360908D01*
G01*
D16*
X112250000Y-102500000D02*
G75*
G03*
X111885000Y-102135000I-365000J0D01*
G01*
D17*
X100750000Y-95560000D02*
G75*
G02*
X100250000Y-95060000I0J500000D01*
G01*
X100250009Y-92851421D02*
G75*
G02*
X100350000Y-92610000I341391J21D01*
G01*
D16*
%TO.N,+3V3*%
X97350000Y-91760000D02*
X95900000Y-91760000D01*
X94000000Y-89410000D02*
X92200000Y-89410000D01*
X107100000Y-100459989D02*
X107100000Y-92960000D01*
X107100000Y-102460000D02*
X107100000Y-100459989D01*
X97350000Y-91760000D02*
X99003204Y-91760000D01*
X95000000Y-90410000D02*
X95000000Y-90860000D01*
X93989501Y-105149501D02*
X91400000Y-102560000D01*
X107100000Y-102460000D02*
X107100000Y-103438326D01*
X105388825Y-105149501D02*
X93989501Y-105149501D01*
X94000000Y-89410000D02*
G75*
G02*
X95000000Y-90410000I0J-1000000D01*
G01*
X99522400Y-91240773D02*
G75*
G02*
X99003204Y-91760000I-519200J-27D01*
G01*
X105388825Y-105149500D02*
G75*
G03*
X107100000Y-103438326I-25J1711200D01*
G01*
X95000000Y-90860000D02*
G75*
G03*
X95900000Y-91760000I900000J0D01*
G01*
%TO.N,+5V*%
X105250000Y-90935000D02*
X109000000Y-90935000D01*
D17*
X102250000Y-95660000D02*
X102250000Y-101500000D01*
X102250000Y-102000000D02*
X102250000Y-101500000D01*
X102250000Y-95660000D02*
G75*
G02*
X105250000Y-92660000I3000000J0D01*
G01*
X102250000Y-102000000D02*
G75*
G02*
X100000000Y-104250000I-2250000J0D01*
G01*
D16*
%TO.N,Net-(C9-Pad1)*%
X95877378Y-92482622D02*
X96422622Y-92482622D01*
X94200000Y-90260000D02*
X94200000Y-90805244D01*
X96422622Y-92482622D02*
X96424500Y-92484500D01*
X95877378Y-92482600D02*
G75*
G02*
X94200000Y-90805244I22J1677400D01*
G01*
%TO.N,Net-(D6-Pad6)*%
X103250000Y-103500000D02*
X106250000Y-103500000D01*
X103250000Y-103500000D02*
G75*
G03*
X103000000Y-103750000I0J-250000D01*
G01*
%TO.N,Net-(C19-Pad1)*%
X105426434Y-104372348D02*
X105432888Y-104365894D01*
X105432888Y-104365894D02*
X105432888Y-104149500D01*
X102294502Y-104500000D02*
X105000000Y-104500000D01*
X105426446Y-104372367D02*
G75*
G02*
X105000000Y-104499999I-438346J688367D01*
G01*
%TD*%
%TA.AperFunction,Conductor*%
%TO.N,GND*%
G36*
X93570531Y-89805502D02*
G01*
X93617024Y-89859158D01*
X93627128Y-89929432D01*
X93619805Y-89957264D01*
X93565309Y-90097039D01*
X93544758Y-90253138D01*
X93562035Y-90409633D01*
X93616143Y-90557490D01*
X93620380Y-90563796D01*
X93620382Y-90563799D01*
X93645647Y-90601397D01*
X93703958Y-90688172D01*
X93709577Y-90693285D01*
X93709578Y-90693286D01*
X93781695Y-90758908D01*
X93818618Y-90819549D01*
X93822626Y-90843858D01*
X93828746Y-90937185D01*
X93837702Y-91073779D01*
X93890206Y-91337709D01*
X93976711Y-91592528D01*
X94095735Y-91833876D01*
X94098033Y-91837315D01*
X94178764Y-91958134D01*
X94200000Y-92028137D01*
X94200000Y-94660000D01*
X94300000Y-94660000D01*
X94300000Y-92430448D01*
X94320002Y-92362327D01*
X94373658Y-92315834D01*
X94443932Y-92305730D01*
X94509077Y-92335716D01*
X94518576Y-92344046D01*
X94624997Y-92437374D01*
X94848748Y-92586878D01*
X94852441Y-92588699D01*
X95005407Y-92664134D01*
X95090097Y-92705899D01*
X95183058Y-92737456D01*
X95214502Y-92748130D01*
X95272578Y-92788968D01*
X95299356Y-92854721D01*
X95300000Y-92867443D01*
X95300000Y-93460000D01*
X95307327Y-93466838D01*
X95307327Y-93466839D01*
X95647568Y-93784397D01*
X96050000Y-94160000D01*
X99274000Y-94160000D01*
X99342121Y-94180002D01*
X99388614Y-94233658D01*
X99400000Y-94286000D01*
X99400000Y-99360000D01*
X99500000Y-99360000D01*
X99500000Y-94286000D01*
X99520002Y-94217879D01*
X99573658Y-94171386D01*
X99626000Y-94160000D01*
X101889972Y-94160000D01*
X101958093Y-94180002D01*
X102004586Y-94233658D01*
X102014690Y-94303932D01*
X102008607Y-94328448D01*
X101917782Y-94582288D01*
X101896190Y-94642633D01*
X101890684Y-94664615D01*
X101854731Y-94725833D01*
X101791387Y-94757896D01*
X101768460Y-94760000D01*
X100900000Y-94760000D01*
X100900000Y-94860000D01*
X101683797Y-94860000D01*
X101751918Y-94880002D01*
X101798411Y-94933658D01*
X101808433Y-95004488D01*
X101762154Y-95316477D01*
X101747148Y-95621943D01*
X101746456Y-95636020D01*
X101745804Y-95642408D01*
X101745773Y-95644946D01*
X101744391Y-95653823D01*
X101745555Y-95662725D01*
X101745555Y-95662728D01*
X101748436Y-95684756D01*
X101749500Y-95701093D01*
X101749500Y-101834000D01*
X101729498Y-101902121D01*
X101675842Y-101948614D01*
X101623500Y-101960000D01*
X101400000Y-101960000D01*
X101400000Y-102060000D01*
X101609875Y-102060000D01*
X101677996Y-102080002D01*
X101724489Y-102133658D01*
X101735554Y-102194986D01*
X101732336Y-102239993D01*
X101729778Y-102257781D01*
X101682803Y-102473723D01*
X101680550Y-102484081D01*
X101675488Y-102501323D01*
X101594548Y-102718332D01*
X101587082Y-102734678D01*
X101476090Y-102937944D01*
X101466371Y-102953067D01*
X101327582Y-103138468D01*
X101315809Y-103152054D01*
X101152054Y-103315809D01*
X101138468Y-103327582D01*
X100953067Y-103466371D01*
X100937944Y-103476090D01*
X100734678Y-103587082D01*
X100718326Y-103594550D01*
X100598344Y-103639301D01*
X100501331Y-103675485D01*
X100484082Y-103680549D01*
X100409070Y-103696867D01*
X100338255Y-103691803D01*
X100323328Y-103685102D01*
X100241543Y-103641799D01*
X100241544Y-103641799D01*
X100234831Y-103638245D01*
X100218122Y-103634048D01*
X100089498Y-103601740D01*
X100089496Y-103601740D01*
X100082128Y-103599889D01*
X100074530Y-103599849D01*
X100074528Y-103599849D01*
X100007319Y-103599497D01*
X99924684Y-103599065D01*
X99917305Y-103600837D01*
X99917301Y-103600837D01*
X99778967Y-103634048D01*
X99778963Y-103634049D01*
X99771588Y-103635820D01*
X99631679Y-103708032D01*
X99625957Y-103713024D01*
X99625955Y-103713025D01*
X99518759Y-103806538D01*
X99518756Y-103806541D01*
X99513034Y-103811533D01*
X99422501Y-103940348D01*
X99365309Y-104087039D01*
X99364318Y-104094568D01*
X99347356Y-104223408D01*
X99344758Y-104243138D01*
X99362035Y-104399633D01*
X99364258Y-104405709D01*
X99360367Y-104476115D01*
X99318746Y-104533632D01*
X99252636Y-104559517D01*
X99241614Y-104560000D01*
X98026000Y-104560000D01*
X97957879Y-104539998D01*
X97911386Y-104486342D01*
X97900000Y-104434000D01*
X97900000Y-101460000D01*
X97800000Y-101460000D01*
X97800000Y-104434000D01*
X97779998Y-104502121D01*
X97726342Y-104548614D01*
X97674000Y-104560000D01*
X94526000Y-104560000D01*
X94457879Y-104539998D01*
X94411386Y-104486342D01*
X94400000Y-104434000D01*
X94400000Y-101460000D01*
X94300000Y-101460000D01*
X94300000Y-104434000D01*
X94279998Y-104502121D01*
X94226342Y-104548614D01*
X94174000Y-104560000D01*
X93983227Y-104560000D01*
X93915106Y-104539998D01*
X93894132Y-104523095D01*
X92085901Y-102714864D01*
X92051875Y-102652552D01*
X92050253Y-102608019D01*
X92055134Y-102573723D01*
X92055278Y-102560000D01*
X92036363Y-102403694D01*
X92016116Y-102350111D01*
X91983394Y-102263514D01*
X91983393Y-102263511D01*
X91980710Y-102256412D01*
X91891531Y-102126657D01*
X91842179Y-102082686D01*
X91804625Y-102022438D01*
X91800000Y-101988612D01*
X91800000Y-100786000D01*
X91820002Y-100717879D01*
X91873658Y-100671386D01*
X91926000Y-100660000D01*
X98600000Y-100660000D01*
X98600000Y-100560000D01*
X91926000Y-100560000D01*
X91857879Y-100539998D01*
X91811386Y-100486342D01*
X91800000Y-100434000D01*
X91800000Y-97486000D01*
X91820002Y-97417879D01*
X91873658Y-97371386D01*
X91926000Y-97360000D01*
X97700000Y-97360000D01*
X97700000Y-97260000D01*
X91926000Y-97260000D01*
X91857879Y-97239998D01*
X91811386Y-97186342D01*
X91800000Y-97134000D01*
X91800000Y-92677124D01*
X91804570Y-92643497D01*
X91836624Y-92527747D01*
X92534305Y-90008344D01*
X92573901Y-89946164D01*
X92682348Y-89853542D01*
X92686777Y-89847378D01*
X92686780Y-89847375D01*
X92693536Y-89837973D01*
X92749531Y-89794326D01*
X92795858Y-89785500D01*
X93502410Y-89785500D01*
X93570531Y-89805502D01*
G37*
%TD.AperFunction*%
%TA.AperFunction,Conductor*%
G36*
X104270575Y-90480002D02*
G01*
X104285693Y-90491410D01*
X104563740Y-90736092D01*
X104601665Y-90796111D01*
X104605423Y-90847128D01*
X104596703Y-90913365D01*
X104594758Y-90928138D01*
X104612035Y-91084633D01*
X104666143Y-91232490D01*
X104670380Y-91238796D01*
X104670382Y-91238799D01*
X104691396Y-91270071D01*
X104753958Y-91363172D01*
X104870410Y-91469135D01*
X104891885Y-91480795D01*
X105002099Y-91540637D01*
X105002101Y-91540638D01*
X105008776Y-91544262D01*
X105016125Y-91546190D01*
X105153719Y-91582287D01*
X105153721Y-91582287D01*
X105161069Y-91584215D01*
X105244380Y-91585524D01*
X105310898Y-91586569D01*
X105310901Y-91586569D01*
X105318495Y-91586688D01*
X105325899Y-91584992D01*
X105325901Y-91584992D01*
X105444538Y-91557821D01*
X105490458Y-91560601D01*
X105490584Y-91558933D01*
X105499556Y-91559609D01*
X105500000Y-91560000D01*
X106447810Y-91560000D01*
X106515931Y-91580002D01*
X106536905Y-91596905D01*
X106963095Y-92023095D01*
X106997121Y-92085407D01*
X107000000Y-92112190D01*
X107000000Y-92215660D01*
X106979998Y-92283781D01*
X106926342Y-92330274D01*
X106903415Y-92338178D01*
X106878974Y-92344046D01*
X106878968Y-92344048D01*
X106871588Y-92345820D01*
X106731679Y-92418032D01*
X106725957Y-92423024D01*
X106725955Y-92423025D01*
X106618759Y-92516538D01*
X106618756Y-92516541D01*
X106613034Y-92521533D01*
X106608667Y-92527747D01*
X106537467Y-92629054D01*
X106522501Y-92650348D01*
X106465309Y-92797039D01*
X106444758Y-92953138D01*
X106462035Y-93109633D01*
X106516143Y-93257490D01*
X106520380Y-93263796D01*
X106520382Y-93263799D01*
X106549605Y-93307287D01*
X106603958Y-93388172D01*
X106609573Y-93393281D01*
X106609578Y-93393287D01*
X106683300Y-93460369D01*
X106720222Y-93521009D01*
X106724500Y-93553562D01*
X106724500Y-98934000D01*
X106704498Y-99002121D01*
X106650842Y-99048614D01*
X106598500Y-99060000D01*
X104400000Y-99060000D01*
X104400000Y-99160000D01*
X106598500Y-99160000D01*
X106666621Y-99180002D01*
X106713114Y-99233658D01*
X106724500Y-99286000D01*
X106724500Y-99866995D01*
X106704498Y-99935116D01*
X106681331Y-99961942D01*
X106613034Y-100021522D01*
X106522501Y-100150337D01*
X106465309Y-100297028D01*
X106444758Y-100453127D01*
X106462035Y-100609622D01*
X106464645Y-100616754D01*
X106492326Y-100692396D01*
X106500000Y-100735697D01*
X106500000Y-101834000D01*
X106479998Y-101902121D01*
X106426342Y-101948614D01*
X106374000Y-101960000D01*
X102876500Y-101960000D01*
X102808379Y-101939998D01*
X102761886Y-101886342D01*
X102750500Y-101834000D01*
X102750500Y-95712576D01*
X102752246Y-95691671D01*
X102754689Y-95677148D01*
X102755496Y-95672354D01*
X102755647Y-95660000D01*
X102753844Y-95647410D01*
X102752802Y-95621943D01*
X102768264Y-95366326D01*
X102770098Y-95351222D01*
X102821756Y-95069331D01*
X102825397Y-95054557D01*
X102841000Y-95004488D01*
X102858442Y-94948514D01*
X102897805Y-94889429D01*
X102962863Y-94861004D01*
X102978737Y-94860000D01*
X105000000Y-94860000D01*
X105000000Y-94760000D01*
X103113958Y-94760000D01*
X103045837Y-94739998D01*
X102999344Y-94686342D01*
X102989240Y-94616068D01*
X102999057Y-94582293D01*
X103033681Y-94505361D01*
X103040745Y-94491903D01*
X103189011Y-94246642D01*
X103197654Y-94234121D01*
X103374397Y-94008524D01*
X103384487Y-93997135D01*
X103587135Y-93794487D01*
X103598524Y-93784397D01*
X103824121Y-93607654D01*
X103836642Y-93599011D01*
X104081903Y-93450745D01*
X104095376Y-93443674D01*
X104111032Y-93436628D01*
X104356716Y-93326054D01*
X104370934Y-93320662D01*
X104644555Y-93235398D01*
X104659328Y-93231757D01*
X104825202Y-93201359D01*
X104895812Y-93208754D01*
X104908024Y-93214558D01*
X105008776Y-93269262D01*
X105016125Y-93271190D01*
X105153719Y-93307287D01*
X105153721Y-93307287D01*
X105161069Y-93309215D01*
X105244380Y-93310524D01*
X105310898Y-93311569D01*
X105310901Y-93311569D01*
X105318495Y-93311688D01*
X105471968Y-93276538D01*
X105612625Y-93205795D01*
X105673836Y-93153516D01*
X105726574Y-93108474D01*
X105726576Y-93108471D01*
X105732348Y-93103542D01*
X105824224Y-92975683D01*
X105882950Y-92829598D01*
X105893025Y-92758809D01*
X105904553Y-92677807D01*
X105904553Y-92677804D01*
X105905134Y-92673723D01*
X105905278Y-92660000D01*
X105886363Y-92503694D01*
X105830710Y-92356412D01*
X105741531Y-92226657D01*
X105639219Y-92135500D01*
X105629648Y-92126972D01*
X105629645Y-92126970D01*
X105623976Y-92121919D01*
X105484831Y-92048245D01*
X105468122Y-92044048D01*
X105339498Y-92011740D01*
X105339496Y-92011740D01*
X105332128Y-92009889D01*
X105324530Y-92009849D01*
X105324528Y-92009849D01*
X105257319Y-92009497D01*
X105174684Y-92009065D01*
X105167305Y-92010837D01*
X105167301Y-92010837D01*
X105028967Y-92044048D01*
X105028963Y-92044049D01*
X105021588Y-92045820D01*
X104881679Y-92118032D01*
X104875957Y-92123024D01*
X104875955Y-92123025D01*
X104829668Y-92163404D01*
X104765327Y-92193091D01*
X104569329Y-92222165D01*
X104569325Y-92222166D01*
X104566263Y-92222620D01*
X104563264Y-92223371D01*
X104563260Y-92223372D01*
X104417257Y-92259944D01*
X104232633Y-92306190D01*
X104229736Y-92307227D01*
X104229728Y-92307229D01*
X104092272Y-92356412D01*
X103908801Y-92422059D01*
X103597885Y-92569111D01*
X103595243Y-92570694D01*
X103595244Y-92570694D01*
X103490777Y-92633309D01*
X103422065Y-92651174D01*
X103354602Y-92629054D01*
X103309807Y-92573972D01*
X103300000Y-92525235D01*
X103300000Y-90586000D01*
X103320002Y-90517879D01*
X103373658Y-90471386D01*
X103426000Y-90460000D01*
X104202454Y-90460000D01*
X104270575Y-90480002D01*
G37*
%TD.AperFunction*%
%TD*%
M02*
