%TF.GenerationSoftware,KiCad,Pcbnew,(5.1.9-0-10_14)*%
%TF.CreationDate,2021-05-06T17:16:18+01:00*%
%TF.ProjectId,PN532,504e3533-322e-46b6-9963-61645f706362,5*%
%TF.SameCoordinates,Original*%
%TF.FileFunction,Legend,Bot*%
%TF.FilePolarity,Positive*%
%FSLAX46Y46*%
G04 Gerber Fmt 4.6, Leading zero omitted, Abs format (unit mm)*
G04 Created by KiCad (PCBNEW (5.1.9-0-10_14)) date 2021-05-06 17:16:18*
%MOMM*%
%LPD*%
G01*
G04 APERTURE LIST*
%ADD10C,0.100000*%
%ADD11C,0.150000*%
%ADD12C,0.120000*%
%ADD13C,0.200000*%
%ADD14C,0.250000*%
G04 APERTURE END LIST*
D10*
X154238095Y-87726190D02*
X154238095Y-87226190D01*
X154023809Y-87273809D02*
X154000000Y-87250000D01*
X153952380Y-87226190D01*
X153833333Y-87226190D01*
X153785714Y-87250000D01*
X153761904Y-87273809D01*
X153738095Y-87321428D01*
X153738095Y-87369047D01*
X153761904Y-87440476D01*
X154047619Y-87726190D01*
X153738095Y-87726190D01*
X153238095Y-87678571D02*
X153261904Y-87702380D01*
X153333333Y-87726190D01*
X153380952Y-87726190D01*
X153452380Y-87702380D01*
X153500000Y-87654761D01*
X153523809Y-87607142D01*
X153547619Y-87511904D01*
X153547619Y-87440476D01*
X153523809Y-87345238D01*
X153500000Y-87297619D01*
X153452380Y-87250000D01*
X153380952Y-87226190D01*
X153333333Y-87226190D01*
X153261904Y-87250000D01*
X153238095Y-87273809D01*
X156142857Y-87726190D02*
X156142857Y-87226190D01*
X156142857Y-87464285D02*
X155857142Y-87464285D01*
X155857142Y-87726190D02*
X155857142Y-87226190D01*
X155642857Y-87702380D02*
X155571428Y-87726190D01*
X155452380Y-87726190D01*
X155404761Y-87702380D01*
X155380952Y-87678571D01*
X155357142Y-87630952D01*
X155357142Y-87583333D01*
X155380952Y-87535714D01*
X155404761Y-87511904D01*
X155452380Y-87488095D01*
X155547619Y-87464285D01*
X155595238Y-87440476D01*
X155619047Y-87416666D01*
X155642857Y-87369047D01*
X155642857Y-87321428D01*
X155619047Y-87273809D01*
X155595238Y-87250000D01*
X155547619Y-87226190D01*
X155428571Y-87226190D01*
X155357142Y-87250000D01*
X155142857Y-87226190D02*
X155142857Y-87630952D01*
X155119047Y-87678571D01*
X155095238Y-87702380D01*
X155047619Y-87726190D01*
X154952380Y-87726190D01*
X154904761Y-87702380D01*
X154880952Y-87678571D01*
X154857142Y-87630952D01*
X154857142Y-87226190D01*
X156386428Y-108023214D02*
X156457857Y-108023214D01*
X156529285Y-107987500D01*
X156565000Y-107951785D01*
X156600714Y-107880357D01*
X156636428Y-107737500D01*
X156636428Y-107558928D01*
X156600714Y-107416071D01*
X156565000Y-107344642D01*
X156529285Y-107308928D01*
X156457857Y-107273214D01*
X156386428Y-107273214D01*
X156315000Y-107308928D01*
X156279285Y-107344642D01*
X156243571Y-107416071D01*
X156207857Y-107558928D01*
X156207857Y-107737500D01*
X156243571Y-107880357D01*
X156279285Y-107951785D01*
X156315000Y-107987500D01*
X156386428Y-108023214D01*
X156957857Y-107344642D02*
X156993571Y-107308928D01*
X156957857Y-107273214D01*
X156922142Y-107308928D01*
X156957857Y-107344642D01*
X156957857Y-107273214D01*
X157707857Y-107273214D02*
X157279285Y-107273214D01*
X157493571Y-107273214D02*
X157493571Y-108023214D01*
X157422142Y-107916071D01*
X157350714Y-107844642D01*
X157279285Y-107808928D01*
X158029285Y-108023214D02*
X158029285Y-107987500D01*
X157993571Y-107916071D01*
X157957857Y-107880357D01*
X158315000Y-108023214D02*
X158315000Y-107987500D01*
X158279285Y-107916071D01*
X158243571Y-107880357D01*
X156243571Y-106048214D02*
X156243571Y-106798214D01*
X156565000Y-106048214D02*
X156565000Y-106441071D01*
X156529285Y-106512500D01*
X156457857Y-106548214D01*
X156350714Y-106548214D01*
X156279285Y-106512500D01*
X156243571Y-106476785D01*
X157207857Y-106083928D02*
X157136428Y-106048214D01*
X156993571Y-106048214D01*
X156922142Y-106083928D01*
X156886428Y-106155357D01*
X156886428Y-106441071D01*
X156922142Y-106512500D01*
X156993571Y-106548214D01*
X157136428Y-106548214D01*
X157207857Y-106512500D01*
X157243571Y-106441071D01*
X157243571Y-106369642D01*
X156886428Y-106298214D01*
X157886428Y-106048214D02*
X157886428Y-106441071D01*
X157850714Y-106512500D01*
X157779285Y-106548214D01*
X157636428Y-106548214D01*
X157565000Y-106512500D01*
X157886428Y-106083928D02*
X157815000Y-106048214D01*
X157636428Y-106048214D01*
X157565000Y-106083928D01*
X157529285Y-106155357D01*
X157529285Y-106226785D01*
X157565000Y-106298214D01*
X157636428Y-106333928D01*
X157815000Y-106333928D01*
X157886428Y-106369642D01*
X158565000Y-106048214D02*
X158565000Y-106798214D01*
X158565000Y-106083928D02*
X158493571Y-106048214D01*
X158350714Y-106048214D01*
X158279285Y-106083928D01*
X158243571Y-106119642D01*
X158207857Y-106191071D01*
X158207857Y-106405357D01*
X158243571Y-106476785D01*
X158279285Y-106512500D01*
X158350714Y-106548214D01*
X158493571Y-106548214D01*
X158565000Y-106512500D01*
X159207857Y-106083928D02*
X159136428Y-106048214D01*
X158993571Y-106048214D01*
X158922142Y-106083928D01*
X158886428Y-106155357D01*
X158886428Y-106441071D01*
X158922142Y-106512500D01*
X158993571Y-106548214D01*
X159136428Y-106548214D01*
X159207857Y-106512500D01*
X159243571Y-106441071D01*
X159243571Y-106369642D01*
X158886428Y-106298214D01*
X159565000Y-106048214D02*
X159565000Y-106548214D01*
X159565000Y-106405357D02*
X159600714Y-106476785D01*
X159636428Y-106512500D01*
X159707857Y-106548214D01*
X159779285Y-106548214D01*
X156243571Y-104273214D02*
X156243571Y-105023214D01*
X156493571Y-104487500D01*
X156743571Y-105023214D01*
X156743571Y-104273214D01*
X157100714Y-104273214D02*
X157100714Y-104773214D01*
X157100714Y-105023214D02*
X157065000Y-104987500D01*
X157100714Y-104951785D01*
X157136428Y-104987500D01*
X157100714Y-105023214D01*
X157100714Y-104951785D01*
X157457857Y-104773214D02*
X157457857Y-104273214D01*
X157457857Y-104701785D02*
X157493571Y-104737500D01*
X157565000Y-104773214D01*
X157672142Y-104773214D01*
X157743571Y-104737500D01*
X157779285Y-104666071D01*
X157779285Y-104273214D01*
X158136428Y-104273214D02*
X158136428Y-104773214D01*
X158136428Y-105023214D02*
X158100714Y-104987500D01*
X158136428Y-104951785D01*
X158172142Y-104987500D01*
X158136428Y-105023214D01*
X158136428Y-104951785D01*
X156207857Y-103083928D02*
X156315000Y-103048214D01*
X156493571Y-103048214D01*
X156565000Y-103083928D01*
X156600714Y-103119642D01*
X156636428Y-103191071D01*
X156636428Y-103262500D01*
X156600714Y-103333928D01*
X156565000Y-103369642D01*
X156493571Y-103405357D01*
X156350714Y-103441071D01*
X156279285Y-103476785D01*
X156243571Y-103512500D01*
X156207857Y-103583928D01*
X156207857Y-103655357D01*
X156243571Y-103726785D01*
X156279285Y-103762500D01*
X156350714Y-103798214D01*
X156529285Y-103798214D01*
X156636428Y-103762500D01*
X156957857Y-103048214D02*
X156957857Y-103798214D01*
X157243571Y-103798214D01*
X157315000Y-103762500D01*
X157350714Y-103726785D01*
X157386428Y-103655357D01*
X157386428Y-103548214D01*
X157350714Y-103476785D01*
X157315000Y-103441071D01*
X157243571Y-103405357D01*
X156957857Y-103405357D01*
X157850714Y-103798214D02*
X157993571Y-103798214D01*
X158065000Y-103762500D01*
X158136428Y-103691071D01*
X158172142Y-103548214D01*
X158172142Y-103298214D01*
X158136428Y-103155357D01*
X158065000Y-103083928D01*
X157993571Y-103048214D01*
X157850714Y-103048214D01*
X157779285Y-103083928D01*
X157707857Y-103155357D01*
X157672142Y-103298214D01*
X157672142Y-103548214D01*
X157707857Y-103691071D01*
X157779285Y-103762500D01*
X157850714Y-103798214D01*
X158422142Y-103798214D02*
X158922142Y-103048214D01*
X158922142Y-103798214D02*
X158422142Y-103048214D01*
D11*
X135661904Y-100833333D02*
X136138095Y-100833333D01*
X135566666Y-100547619D02*
X135900000Y-101547619D01*
X136233333Y-100547619D01*
X143142857Y-88214285D02*
X143333333Y-87547619D01*
X143523809Y-88023809D01*
X143714285Y-87547619D01*
X143904761Y-88214285D01*
X144190476Y-88214285D02*
X144380952Y-87547619D01*
X144571428Y-88023809D01*
X144761904Y-87547619D01*
X144952380Y-88214285D01*
X145238095Y-88214285D02*
X145428571Y-87547619D01*
X145619047Y-88023809D01*
X145809523Y-87547619D01*
X146000000Y-88214285D01*
X146380952Y-87642857D02*
X146428571Y-87595238D01*
X146380952Y-87547619D01*
X146333333Y-87595238D01*
X146380952Y-87642857D01*
X146380952Y-87547619D01*
X146857142Y-87547619D02*
X146857142Y-88214285D01*
X146857142Y-88119047D02*
X146904761Y-88166666D01*
X147000000Y-88214285D01*
X147142857Y-88214285D01*
X147238095Y-88166666D01*
X147285714Y-88071428D01*
X147285714Y-87547619D01*
X147285714Y-88071428D02*
X147333333Y-88166666D01*
X147428571Y-88214285D01*
X147571428Y-88214285D01*
X147666666Y-88166666D01*
X147714285Y-88071428D01*
X147714285Y-87547619D01*
X148571428Y-87595238D02*
X148476190Y-87547619D01*
X148285714Y-87547619D01*
X148190476Y-87595238D01*
X148142857Y-87690476D01*
X148142857Y-88071428D01*
X148190476Y-88166666D01*
X148285714Y-88214285D01*
X148476190Y-88214285D01*
X148571428Y-88166666D01*
X148619047Y-88071428D01*
X148619047Y-87976190D01*
X148142857Y-87880952D01*
X149047619Y-87642857D02*
X149095238Y-87595238D01*
X149047619Y-87547619D01*
X149000000Y-87595238D01*
X149047619Y-87642857D01*
X149047619Y-87547619D01*
X149952380Y-88214285D02*
X149952380Y-87547619D01*
X149523809Y-88214285D02*
X149523809Y-87690476D01*
X149571428Y-87595238D01*
X149666666Y-87547619D01*
X149809523Y-87547619D01*
X149904761Y-87595238D01*
X149952380Y-87642857D01*
X150428571Y-87547619D02*
X150428571Y-88547619D01*
X150523809Y-87928571D02*
X150809523Y-87547619D01*
X150809523Y-88214285D02*
X150428571Y-87833333D01*
X147404761Y-83547619D02*
X147976190Y-83547619D01*
X147690476Y-82547619D02*
X147690476Y-83547619D01*
X148738095Y-82547619D02*
X148738095Y-83071428D01*
X148690476Y-83166666D01*
X148595238Y-83214285D01*
X148404761Y-83214285D01*
X148309523Y-83166666D01*
X148738095Y-82595238D02*
X148642857Y-82547619D01*
X148404761Y-82547619D01*
X148309523Y-82595238D01*
X148261904Y-82690476D01*
X148261904Y-82785714D01*
X148309523Y-82880952D01*
X148404761Y-82928571D01*
X148642857Y-82928571D01*
X148738095Y-82976190D01*
X149214285Y-82547619D02*
X149214285Y-83214285D01*
X149214285Y-83119047D02*
X149261904Y-83166666D01*
X149357142Y-83214285D01*
X149500000Y-83214285D01*
X149595238Y-83166666D01*
X149642857Y-83071428D01*
X149642857Y-82547619D01*
X149642857Y-83071428D02*
X149690476Y-83166666D01*
X149785714Y-83214285D01*
X149928571Y-83214285D01*
X150023809Y-83166666D01*
X150071428Y-83071428D01*
X150071428Y-82547619D01*
X150547619Y-83214285D02*
X150547619Y-82214285D01*
X150547619Y-83166666D02*
X150642857Y-83214285D01*
X150833333Y-83214285D01*
X150928571Y-83166666D01*
X150976190Y-83119047D01*
X151023809Y-83023809D01*
X151023809Y-82738095D01*
X150976190Y-82642857D01*
X150928571Y-82595238D01*
X150833333Y-82547619D01*
X150642857Y-82547619D01*
X150547619Y-82595238D01*
X151833333Y-82595238D02*
X151738095Y-82547619D01*
X151547619Y-82547619D01*
X151452380Y-82595238D01*
X151404761Y-82690476D01*
X151404761Y-83071428D01*
X151452380Y-83166666D01*
X151547619Y-83214285D01*
X151738095Y-83214285D01*
X151833333Y-83166666D01*
X151880952Y-83071428D01*
X151880952Y-82976190D01*
X151404761Y-82880952D01*
X152309523Y-82547619D02*
X152309523Y-83214285D01*
X152309523Y-83023809D02*
X152357142Y-83119047D01*
X152404761Y-83166666D01*
X152500000Y-83214285D01*
X152595238Y-83214285D01*
X154202380Y-100833333D02*
X153726190Y-100500000D01*
X154202380Y-100261904D02*
X153202380Y-100261904D01*
X153202380Y-100642857D01*
X153250000Y-100738095D01*
X153297619Y-100785714D01*
X153392857Y-100833333D01*
X153535714Y-100833333D01*
X153630952Y-100785714D01*
X153678571Y-100738095D01*
X153726190Y-100642857D01*
X153726190Y-100261904D01*
X153202380Y-101166666D02*
X154202380Y-101833333D01*
X153202380Y-101833333D02*
X154202380Y-101166666D01*
X151562267Y-96797969D02*
X151663282Y-97370389D01*
X151158206Y-97202030D02*
X151865312Y-97909137D01*
X152134687Y-97639763D01*
X152168358Y-97538748D01*
X152168358Y-97471404D01*
X152134687Y-97370389D01*
X152033671Y-97269374D01*
X151932656Y-97235702D01*
X151865312Y-97235702D01*
X151764297Y-97269374D01*
X151494923Y-97538748D01*
X152505076Y-97269374D02*
X152269374Y-96090862D01*
X152976480Y-96797969D02*
X151797969Y-96562267D01*
X147074026Y-96848477D02*
X147478087Y-97252538D01*
X147983164Y-96343400D02*
X147276057Y-97050507D01*
X147646446Y-97420896D02*
X148824957Y-97185194D01*
X148117851Y-97892301D02*
X148353553Y-96713790D01*
X153330034Y-93555583D02*
X152387225Y-94026988D01*
X152858629Y-93084179D01*
X151579103Y-93084179D02*
X151579103Y-93151522D01*
X151646446Y-93286209D01*
X151713790Y-93353553D01*
X151848477Y-93420896D01*
X151983164Y-93420896D01*
X152084179Y-93387225D01*
X152252538Y-93286209D01*
X152353553Y-93185194D01*
X152454568Y-93016835D01*
X152488240Y-92915820D01*
X152488240Y-92781133D01*
X152420896Y-92646446D01*
X152353553Y-92579103D01*
X152218866Y-92511759D01*
X152151522Y-92511759D01*
X150871996Y-92377072D02*
X150871996Y-92444416D01*
X150939339Y-92579103D01*
X151006683Y-92646446D01*
X151141370Y-92713790D01*
X151276057Y-92713790D01*
X151377072Y-92680118D01*
X151545431Y-92579103D01*
X151646446Y-92478087D01*
X151747461Y-92309729D01*
X151781133Y-92208713D01*
X151781133Y-92074026D01*
X151713790Y-91939339D01*
X151646446Y-91871996D01*
X151511759Y-91804652D01*
X151444416Y-91804652D01*
X148185194Y-92107698D02*
X148218866Y-92006683D01*
X148319881Y-91905668D01*
X148454568Y-91838324D01*
X148589255Y-91838324D01*
X148690270Y-91871996D01*
X148858629Y-91973011D01*
X148959644Y-92074026D01*
X149060660Y-92242385D01*
X149094331Y-92343400D01*
X149094331Y-92478087D01*
X149026988Y-92612774D01*
X148959644Y-92680118D01*
X148824957Y-92747461D01*
X148757614Y-92747461D01*
X148521912Y-92511759D01*
X148656599Y-92377072D01*
X148521912Y-93117851D02*
X147814805Y-92410744D01*
X148117851Y-93521912D01*
X147410744Y-92814805D01*
X147781133Y-93858629D02*
X147074026Y-93151522D01*
X146905668Y-93319881D01*
X146838324Y-93454568D01*
X146838324Y-93589255D01*
X146871996Y-93690270D01*
X146973011Y-93858629D01*
X147074026Y-93959644D01*
X147242385Y-94060660D01*
X147343400Y-94094331D01*
X147478087Y-94094331D01*
X147612774Y-94026988D01*
X147781133Y-93858629D01*
X136161904Y-95500000D02*
X136066666Y-95547619D01*
X135923809Y-95547619D01*
X135780952Y-95500000D01*
X135685714Y-95404761D01*
X135638095Y-95309523D01*
X135590476Y-95119047D01*
X135590476Y-94976190D01*
X135638095Y-94785714D01*
X135685714Y-94690476D01*
X135780952Y-94595238D01*
X135923809Y-94547619D01*
X136019047Y-94547619D01*
X136161904Y-94595238D01*
X136209523Y-94642857D01*
X136209523Y-94976190D01*
X136019047Y-94976190D01*
X136209523Y-106447619D02*
X135876190Y-106923809D01*
X135638095Y-106447619D02*
X135638095Y-107447619D01*
X136019047Y-107447619D01*
X136114285Y-107400000D01*
X136161904Y-107352380D01*
X136209523Y-107257142D01*
X136209523Y-107114285D01*
X136161904Y-107019047D01*
X136114285Y-106971428D01*
X136019047Y-106923809D01*
X135638095Y-106923809D01*
X148202380Y-99666666D02*
X149202380Y-100000000D01*
X148202380Y-100333333D01*
X149107142Y-101238095D02*
X149154761Y-101190476D01*
X149202380Y-101047619D01*
X149202380Y-100952380D01*
X149154761Y-100809523D01*
X149059523Y-100714285D01*
X148964285Y-100666666D01*
X148773809Y-100619047D01*
X148630952Y-100619047D01*
X148440476Y-100666666D01*
X148345238Y-100714285D01*
X148250000Y-100809523D01*
X148202380Y-100952380D01*
X148202380Y-101047619D01*
X148250000Y-101190476D01*
X148297619Y-101238095D01*
X149107142Y-102238095D02*
X149154761Y-102190476D01*
X149202380Y-102047619D01*
X149202380Y-101952380D01*
X149154761Y-101809523D01*
X149059523Y-101714285D01*
X148964285Y-101666666D01*
X148773809Y-101619047D01*
X148630952Y-101619047D01*
X148440476Y-101666666D01*
X148345238Y-101714285D01*
X148250000Y-101809523D01*
X148202380Y-101952380D01*
X148202380Y-102047619D01*
X148250000Y-102190476D01*
X148297619Y-102238095D01*
X150702380Y-100238095D02*
X150702380Y-100809523D01*
X151702380Y-100523809D02*
X150702380Y-100523809D01*
X150702380Y-101047619D02*
X151702380Y-101714285D01*
X150702380Y-101714285D02*
X151702380Y-101047619D01*
X145750000Y-100238095D02*
X145702380Y-100142857D01*
X145702380Y-100000000D01*
X145750000Y-99857142D01*
X145845238Y-99761904D01*
X145940476Y-99714285D01*
X146130952Y-99666666D01*
X146273809Y-99666666D01*
X146464285Y-99714285D01*
X146559523Y-99761904D01*
X146654761Y-99857142D01*
X146702380Y-100000000D01*
X146702380Y-100095238D01*
X146654761Y-100238095D01*
X146607142Y-100285714D01*
X146273809Y-100285714D01*
X146273809Y-100095238D01*
X146702380Y-100714285D02*
X145702380Y-100714285D01*
X146702380Y-101285714D01*
X145702380Y-101285714D01*
X146702380Y-101761904D02*
X145702380Y-101761904D01*
X145702380Y-102000000D01*
X145750000Y-102142857D01*
X145845238Y-102238095D01*
X145940476Y-102285714D01*
X146130952Y-102333333D01*
X146273809Y-102333333D01*
X146464285Y-102285714D01*
X146559523Y-102238095D01*
X146654761Y-102142857D01*
X146702380Y-102000000D01*
X146702380Y-101761904D01*
D12*
%TO.C,JP1*%
X156650000Y-89400000D02*
X156650000Y-88800000D01*
X153200000Y-90100000D02*
X156000000Y-90100000D01*
X152550000Y-88800000D02*
X152550000Y-89400000D01*
X156000000Y-88100000D02*
X153200000Y-88100000D01*
X156650000Y-88800000D02*
G75*
G03*
X155950000Y-88100000I-700000J0D01*
G01*
X155950000Y-90100000D02*
G75*
G03*
X156650000Y-89400000I0J700000D01*
G01*
X152550000Y-89400000D02*
G75*
G03*
X153250000Y-90100000I700000J0D01*
G01*
X153250000Y-88100000D02*
G75*
G03*
X152550000Y-88800000I0J-700000D01*
G01*
%TO.C,A1*%
X170500000Y-83000000D02*
X170500000Y-107000000D01*
X138000000Y-74500000D02*
X162000000Y-74500000D01*
X162000000Y-78500000D02*
X138000000Y-78500000D01*
X166500000Y-107000000D02*
X166500000Y-83000000D01*
X162000000Y-115500000D02*
X138000000Y-115500000D01*
X138000000Y-111500000D02*
X162000000Y-111500000D01*
X129500000Y-107000000D02*
X129500000Y-83000000D01*
X133500000Y-107000000D02*
X133500000Y-83000000D01*
X138000000Y-78500000D02*
G75*
G03*
X133500000Y-83000000I0J-4500000D01*
G01*
X166500000Y-83000000D02*
G75*
G03*
X162000000Y-78500000I-4500000J0D01*
G01*
X162000000Y-111500000D02*
G75*
G03*
X166500000Y-107000000I0J4500000D01*
G01*
X133500000Y-107000000D02*
G75*
G03*
X138000000Y-111500000I4500000J0D01*
G01*
X138000000Y-74500000D02*
G75*
G03*
X129500000Y-83000000I0J-8500000D01*
G01*
X129500000Y-107000000D02*
G75*
G03*
X138000000Y-115500000I8500000J0D01*
G01*
X162000000Y-115500000D02*
G75*
G03*
X170500000Y-107000000I0J8500000D01*
G01*
X170500000Y-83000000D02*
G75*
G03*
X162000000Y-74500000I-8500000J0D01*
G01*
%TO.C,D1*%
X136100000Y-92700000D02*
X139900000Y-92700000D01*
X137500000Y-94700000D02*
X137500000Y-95400000D01*
X138500000Y-94700000D02*
X138500000Y-95400000D01*
X136100001Y-92700001D02*
G75*
G03*
X139899999Y-92700001I1899999J-2299999D01*
G01*
%TO.C,J2*%
X155140000Y-105670000D02*
X155140000Y-108330000D01*
X147460000Y-105670000D02*
X155140000Y-105670000D01*
X147460000Y-108330000D02*
X155140000Y-108330000D01*
X147460000Y-105670000D02*
X147460000Y-108330000D01*
X146190000Y-105670000D02*
X144860000Y-105670000D01*
X144860000Y-105670000D02*
X144860000Y-107000000D01*
%TO.C,D3*%
X136100000Y-104700000D02*
X139900000Y-104700000D01*
X137500000Y-106700000D02*
X137500000Y-107400000D01*
X138500000Y-106700000D02*
X138500000Y-107400000D01*
X136100001Y-104700001D02*
G75*
G03*
X139899999Y-104700001I1899999J-2299999D01*
G01*
D13*
%TO.C,AJK1*%
X139770000Y-91550000D02*
X138005290Y-89491180D01*
X138005300Y-89491000D02*
X136534700Y-89491000D01*
X138005290Y-89491180D02*
X139770000Y-87432350D01*
X136750074Y-86912421D02*
X136534712Y-87432350D01*
X137789938Y-86912421D02*
X137270006Y-86697060D01*
X137270006Y-86697060D02*
X136750074Y-86912421D01*
X138005300Y-91550000D02*
X138005300Y-87432350D01*
X138005300Y-87432350D02*
X137789938Y-86912421D01*
X135064120Y-87432350D02*
X138005300Y-91550000D01*
D12*
%TO.C,D2*%
X136100000Y-98700000D02*
X139900000Y-98700000D01*
X137500000Y-100700000D02*
X137500000Y-101400000D01*
X138500000Y-100700000D02*
X138500000Y-101400000D01*
X136100001Y-98700001D02*
G75*
G03*
X139899999Y-98700001I1899999J-2299999D01*
G01*
%TO.C,A1*%
D14*
X169630952Y-82857142D02*
X167130952Y-82857142D01*
X169630952Y-84285714D01*
X167130952Y-84285714D01*
X168321428Y-86309523D02*
X168321428Y-85476190D01*
X169630952Y-85476190D02*
X167130952Y-85476190D01*
X167130952Y-86666666D01*
X169392857Y-89047619D02*
X169511904Y-88928571D01*
X169630952Y-88571428D01*
X169630952Y-88333333D01*
X169511904Y-87976190D01*
X169273809Y-87738095D01*
X169035714Y-87619047D01*
X168559523Y-87500000D01*
X168202380Y-87500000D01*
X167726190Y-87619047D01*
X167488095Y-87738095D01*
X167250000Y-87976190D01*
X167130952Y-88333333D01*
X167130952Y-88571428D01*
X167250000Y-88928571D01*
X167369047Y-89047619D01*
X168916666Y-91904761D02*
X168916666Y-93095238D01*
X169630952Y-91666666D02*
X167130952Y-92500000D01*
X169630952Y-93333333D01*
X169630952Y-94166666D02*
X167130952Y-94166666D01*
X169630952Y-95595238D01*
X167130952Y-95595238D01*
X167130952Y-96428571D02*
X167130952Y-97857142D01*
X169630952Y-97142857D02*
X167130952Y-97142857D01*
X168321428Y-98690476D02*
X168321428Y-99523809D01*
X169630952Y-99880952D02*
X169630952Y-98690476D01*
X167130952Y-98690476D01*
X167130952Y-99880952D01*
X169630952Y-100952380D02*
X167130952Y-100952380D01*
X169630952Y-102380952D01*
X167130952Y-102380952D01*
X169630952Y-103571428D02*
X167130952Y-103571428D01*
X169630952Y-105000000D01*
X167130952Y-105000000D01*
X168916666Y-106071428D02*
X168916666Y-107261904D01*
X169630952Y-105833333D02*
X167130952Y-106666666D01*
X169630952Y-107500000D01*
X130369047Y-107142857D02*
X132869047Y-107142857D01*
X130369047Y-105714285D01*
X132869047Y-105714285D01*
X131678571Y-103690476D02*
X131678571Y-104523809D01*
X130369047Y-104523809D02*
X132869047Y-104523809D01*
X132869047Y-103333333D01*
X130607142Y-100952380D02*
X130488095Y-101071428D01*
X130369047Y-101428571D01*
X130369047Y-101666666D01*
X130488095Y-102023809D01*
X130726190Y-102261904D01*
X130964285Y-102380952D01*
X131440476Y-102500000D01*
X131797619Y-102500000D01*
X132273809Y-102380952D01*
X132511904Y-102261904D01*
X132750000Y-102023809D01*
X132869047Y-101666666D01*
X132869047Y-101428571D01*
X132750000Y-101071428D01*
X132630952Y-100952380D01*
X131083333Y-98095238D02*
X131083333Y-96904761D01*
X130369047Y-98333333D02*
X132869047Y-97500000D01*
X130369047Y-96666666D01*
X130369047Y-95833333D02*
X132869047Y-95833333D01*
X130369047Y-94404761D01*
X132869047Y-94404761D01*
X132869047Y-93571428D02*
X132869047Y-92142857D01*
X130369047Y-92857142D02*
X132869047Y-92857142D01*
X131678571Y-91309523D02*
X131678571Y-90476190D01*
X130369047Y-90119047D02*
X130369047Y-91309523D01*
X132869047Y-91309523D01*
X132869047Y-90119047D01*
X130369047Y-89047619D02*
X132869047Y-89047619D01*
X130369047Y-87619047D01*
X132869047Y-87619047D01*
X130369047Y-86428571D02*
X132869047Y-86428571D01*
X130369047Y-85000000D01*
X132869047Y-85000000D01*
X131083333Y-83928571D02*
X131083333Y-82738095D01*
X130369047Y-84166666D02*
X132869047Y-83333333D01*
X130369047Y-82500000D01*
X137857142Y-75369047D02*
X137857142Y-77869047D01*
X139285714Y-75369047D01*
X139285714Y-77869047D01*
X141309523Y-76678571D02*
X140476190Y-76678571D01*
X140476190Y-75369047D02*
X140476190Y-77869047D01*
X141666666Y-77869047D01*
X144047619Y-75607142D02*
X143928571Y-75488095D01*
X143571428Y-75369047D01*
X143333333Y-75369047D01*
X142976190Y-75488095D01*
X142738095Y-75726190D01*
X142619047Y-75964285D01*
X142500000Y-76440476D01*
X142500000Y-76797619D01*
X142619047Y-77273809D01*
X142738095Y-77511904D01*
X142976190Y-77750000D01*
X143333333Y-77869047D01*
X143571428Y-77869047D01*
X143928571Y-77750000D01*
X144047619Y-77630952D01*
X146904761Y-76083333D02*
X148095238Y-76083333D01*
X146666666Y-75369047D02*
X147500000Y-77869047D01*
X148333333Y-75369047D01*
X149166666Y-75369047D02*
X149166666Y-77869047D01*
X150595238Y-75369047D01*
X150595238Y-77869047D01*
X151428571Y-77869047D02*
X152857142Y-77869047D01*
X152142857Y-75369047D02*
X152142857Y-77869047D01*
X153690476Y-76678571D02*
X154523809Y-76678571D01*
X154880952Y-75369047D02*
X153690476Y-75369047D01*
X153690476Y-77869047D01*
X154880952Y-77869047D01*
X155952380Y-75369047D02*
X155952380Y-77869047D01*
X157380952Y-75369047D01*
X157380952Y-77869047D01*
X158571428Y-75369047D02*
X158571428Y-77869047D01*
X160000000Y-75369047D01*
X160000000Y-77869047D01*
X161071428Y-76083333D02*
X162261904Y-76083333D01*
X160833333Y-75369047D02*
X161666666Y-77869047D01*
X162500000Y-75369047D01*
X162142857Y-114630952D02*
X162142857Y-112130952D01*
X160714285Y-114630952D01*
X160714285Y-112130952D01*
X158690476Y-113321428D02*
X159523809Y-113321428D01*
X159523809Y-114630952D02*
X159523809Y-112130952D01*
X158333333Y-112130952D01*
X155952380Y-114392857D02*
X156071428Y-114511904D01*
X156428571Y-114630952D01*
X156666666Y-114630952D01*
X157023809Y-114511904D01*
X157261904Y-114273809D01*
X157380952Y-114035714D01*
X157500000Y-113559523D01*
X157500000Y-113202380D01*
X157380952Y-112726190D01*
X157261904Y-112488095D01*
X157023809Y-112250000D01*
X156666666Y-112130952D01*
X156428571Y-112130952D01*
X156071428Y-112250000D01*
X155952380Y-112369047D01*
X153095238Y-113916666D02*
X151904761Y-113916666D01*
X153333333Y-114630952D02*
X152500000Y-112130952D01*
X151666666Y-114630952D01*
X150833333Y-114630952D02*
X150833333Y-112130952D01*
X149404761Y-114630952D01*
X149404761Y-112130952D01*
X148571428Y-112130952D02*
X147142857Y-112130952D01*
X147857142Y-114630952D02*
X147857142Y-112130952D01*
X146309523Y-113321428D02*
X145476190Y-113321428D01*
X145119047Y-114630952D02*
X146309523Y-114630952D01*
X146309523Y-112130952D01*
X145119047Y-112130952D01*
X144047619Y-114630952D02*
X144047619Y-112130952D01*
X142619047Y-114630952D01*
X142619047Y-112130952D01*
X141428571Y-114630952D02*
X141428571Y-112130952D01*
X140000000Y-114630952D01*
X140000000Y-112130952D01*
X138928571Y-113916666D02*
X137738095Y-113916666D01*
X139166666Y-114630952D02*
X138333333Y-112130952D01*
X137500000Y-114630952D01*
%TD*%
M02*
