%TF.GenerationSoftware,KiCad,Pcbnew,(5.1.9-0-10_14)*%
%TF.CreationDate,2021-05-04T20:25:58+01:00*%
%TF.ProjectId,PN532,504e3533-322e-46b6-9963-61645f706362,5*%
%TF.SameCoordinates,Original*%
%TF.FileFunction,Soldermask,Bot*%
%TF.FilePolarity,Negative*%
%FSLAX46Y46*%
G04 Gerber Fmt 4.6, Leading zero omitted, Abs format (unit mm)*
G04 Created by KiCad (PCBNEW (5.1.9-0-10_14)) date 2021-05-04 20:25:58*
%MOMM*%
%LPD*%
G01*
G04 APERTURE LIST*
%ADD10C,0.100000*%
%ADD11R,1.000000X1.500000*%
%ADD12C,0.800000*%
%ADD13O,1.700000X1.850000*%
%ADD14C,1.000000*%
%ADD15C,0.600000*%
%ADD16C,3.200000*%
%ADD17C,1.800000*%
%ADD18R,1.800000X1.800000*%
%ADD19O,1.700000X1.700000*%
%ADD20R,1.700000X1.700000*%
%ADD21C,2.000000*%
%ADD22C,1.300000*%
%ADD23R,1.300000X1.300000*%
G04 APERTURE END LIST*
D10*
%TO.C,U2*%
G36*
X159100000Y-80100000D02*
G01*
X164900000Y-80100000D01*
X164900000Y-85900000D01*
X159100000Y-85900000D01*
X159100000Y-80100000D01*
G37*
X159100000Y-80100000D02*
X164900000Y-80100000D01*
X164900000Y-85900000D01*
X159100000Y-85900000D01*
X159100000Y-80100000D01*
%TD*%
%TO.C,JP1*%
G36*
X155350000Y-88350000D02*
G01*
X155900000Y-88350000D01*
X155900000Y-88350602D01*
X155924534Y-88350602D01*
X155973365Y-88355412D01*
X156021490Y-88364984D01*
X156068445Y-88379228D01*
X156113778Y-88398005D01*
X156157051Y-88421136D01*
X156197850Y-88448396D01*
X156235779Y-88479524D01*
X156270476Y-88514221D01*
X156301604Y-88552150D01*
X156328864Y-88592949D01*
X156351995Y-88636222D01*
X156370772Y-88681555D01*
X156385016Y-88728510D01*
X156394588Y-88776635D01*
X156399398Y-88825466D01*
X156399398Y-88850000D01*
X156400000Y-88850000D01*
X156400000Y-89350000D01*
X156399398Y-89350000D01*
X156399398Y-89374534D01*
X156394588Y-89423365D01*
X156385016Y-89471490D01*
X156370772Y-89518445D01*
X156351995Y-89563778D01*
X156328864Y-89607051D01*
X156301604Y-89647850D01*
X156270476Y-89685779D01*
X156235779Y-89720476D01*
X156197850Y-89751604D01*
X156157051Y-89778864D01*
X156113778Y-89801995D01*
X156068445Y-89820772D01*
X156021490Y-89835016D01*
X155973365Y-89844588D01*
X155924534Y-89849398D01*
X155900000Y-89849398D01*
X155900000Y-89850000D01*
X155350000Y-89850000D01*
X155350000Y-88350000D01*
G37*
D11*
X154600000Y-89100000D03*
D10*
G36*
X153300000Y-89849398D02*
G01*
X153275466Y-89849398D01*
X153226635Y-89844588D01*
X153178510Y-89835016D01*
X153131555Y-89820772D01*
X153086222Y-89801995D01*
X153042949Y-89778864D01*
X153002150Y-89751604D01*
X152964221Y-89720476D01*
X152929524Y-89685779D01*
X152898396Y-89647850D01*
X152871136Y-89607051D01*
X152848005Y-89563778D01*
X152829228Y-89518445D01*
X152814984Y-89471490D01*
X152805412Y-89423365D01*
X152800602Y-89374534D01*
X152800602Y-89350000D01*
X152800000Y-89350000D01*
X152800000Y-88850000D01*
X152800602Y-88850000D01*
X152800602Y-88825466D01*
X152805412Y-88776635D01*
X152814984Y-88728510D01*
X152829228Y-88681555D01*
X152848005Y-88636222D01*
X152871136Y-88592949D01*
X152898396Y-88552150D01*
X152929524Y-88514221D01*
X152964221Y-88479524D01*
X153002150Y-88448396D01*
X153042949Y-88421136D01*
X153086222Y-88398005D01*
X153131555Y-88379228D01*
X153178510Y-88364984D01*
X153226635Y-88355412D01*
X153275466Y-88350602D01*
X153300000Y-88350602D01*
X153300000Y-88350000D01*
X153850000Y-88350000D01*
X153850000Y-89850000D01*
X153300000Y-89850000D01*
X153300000Y-89849398D01*
G37*
%TD*%
D12*
%TO.C,TP2*%
X160300000Y-94100000D03*
%TD*%
%TO.C,TP1*%
X160300000Y-95900000D03*
%TD*%
D13*
%TO.C,J3*%
X153750000Y-103900000D03*
X151250000Y-103900000D03*
X148750000Y-103900000D03*
G36*
G01*
X145400000Y-104575000D02*
X145400000Y-103225000D01*
G75*
G02*
X145650000Y-102975000I250000J0D01*
G01*
X146850000Y-102975000D01*
G75*
G02*
X147100000Y-103225000I0J-250000D01*
G01*
X147100000Y-104575000D01*
G75*
G02*
X146850000Y-104825000I-250000J0D01*
G01*
X145650000Y-104825000D01*
G75*
G02*
X145400000Y-104575000I0J250000D01*
G01*
G37*
%TD*%
D14*
%TO.C,U1*%
X156025000Y-94750000D03*
X157525000Y-93250000D03*
X154525000Y-93250000D03*
X154525000Y-96250000D03*
X157525000Y-96250000D03*
%TD*%
D15*
%TO.C,A1*%
X130000000Y-94000000D03*
X133000000Y-96000000D03*
X167000000Y-92000000D03*
X167000000Y-98000000D03*
X169000000Y-95000000D03*
%TD*%
D16*
%TO.C,H2*%
X138000000Y-83000000D03*
%TD*%
%TO.C,H1*%
X162000000Y-107000000D03*
%TD*%
%TO.C,D1*%
G36*
G01*
X137549999Y-93200000D02*
X138450001Y-93200000D01*
G75*
G02*
X138700000Y-93449999I0J-249999D01*
G01*
X138700000Y-94150001D01*
G75*
G02*
X138450001Y-94400000I-249999J0D01*
G01*
X137549999Y-94400000D01*
G75*
G02*
X137300000Y-94150001I0J249999D01*
G01*
X137300000Y-93449999D01*
G75*
G02*
X137549999Y-93200000I249999J0D01*
G01*
G37*
G36*
G01*
X137549999Y-95200000D02*
X138450001Y-95200000D01*
G75*
G02*
X138700000Y-95449999I0J-249999D01*
G01*
X138700000Y-96150001D01*
G75*
G02*
X138450001Y-96400000I-249999J0D01*
G01*
X137549999Y-96400000D01*
G75*
G02*
X137300000Y-96150001I0J249999D01*
G01*
X137300000Y-95449999D01*
G75*
G02*
X137549999Y-95200000I249999J0D01*
G01*
G37*
G36*
G01*
X137375000Y-96005000D02*
X138625000Y-96005000D01*
G75*
G02*
X138875000Y-96255000I0J-250000D01*
G01*
X138875000Y-97180000D01*
G75*
G02*
X138625000Y-97430000I-250000J0D01*
G01*
X137375000Y-97430000D01*
G75*
G02*
X137125000Y-97180000I0J250000D01*
G01*
X137125000Y-96255000D01*
G75*
G02*
X137375000Y-96005000I250000J0D01*
G01*
G37*
G36*
G01*
X137375000Y-93030000D02*
X138625000Y-93030000D01*
G75*
G02*
X138875000Y-93280000I0J-250000D01*
G01*
X138875000Y-94205000D01*
G75*
G02*
X138625000Y-94455000I-250000J0D01*
G01*
X137375000Y-94455000D01*
G75*
G02*
X137125000Y-94205000I0J250000D01*
G01*
X137125000Y-93280000D01*
G75*
G02*
X137375000Y-93030000I250000J0D01*
G01*
G37*
D17*
X138000000Y-96270000D03*
D18*
X138000000Y-93730000D03*
%TD*%
D19*
%TO.C,J1*%
X143000000Y-81730000D03*
D20*
X143000000Y-84270000D03*
%TD*%
D19*
%TO.C,J2*%
X153810000Y-107000000D03*
X151270000Y-107000000D03*
X148730000Y-107000000D03*
D20*
X146190000Y-107000000D03*
%TD*%
%TO.C,D3*%
G36*
G01*
X137549999Y-105200000D02*
X138450001Y-105200000D01*
G75*
G02*
X138700000Y-105449999I0J-249999D01*
G01*
X138700000Y-106150001D01*
G75*
G02*
X138450001Y-106400000I-249999J0D01*
G01*
X137549999Y-106400000D01*
G75*
G02*
X137300000Y-106150001I0J249999D01*
G01*
X137300000Y-105449999D01*
G75*
G02*
X137549999Y-105200000I249999J0D01*
G01*
G37*
G36*
G01*
X137549999Y-107200000D02*
X138450001Y-107200000D01*
G75*
G02*
X138700000Y-107449999I0J-249999D01*
G01*
X138700000Y-108150001D01*
G75*
G02*
X138450001Y-108400000I-249999J0D01*
G01*
X137549999Y-108400000D01*
G75*
G02*
X137300000Y-108150001I0J249999D01*
G01*
X137300000Y-107449999D01*
G75*
G02*
X137549999Y-107200000I249999J0D01*
G01*
G37*
G36*
G01*
X137375000Y-108005000D02*
X138625000Y-108005000D01*
G75*
G02*
X138875000Y-108255000I0J-250000D01*
G01*
X138875000Y-109180000D01*
G75*
G02*
X138625000Y-109430000I-250000J0D01*
G01*
X137375000Y-109430000D01*
G75*
G02*
X137125000Y-109180000I0J250000D01*
G01*
X137125000Y-108255000D01*
G75*
G02*
X137375000Y-108005000I250000J0D01*
G01*
G37*
G36*
G01*
X137375000Y-105030000D02*
X138625000Y-105030000D01*
G75*
G02*
X138875000Y-105280000I0J-250000D01*
G01*
X138875000Y-106205000D01*
G75*
G02*
X138625000Y-106455000I-250000J0D01*
G01*
X137375000Y-106455000D01*
G75*
G02*
X137125000Y-106205000I0J250000D01*
G01*
X137125000Y-105280000D01*
G75*
G02*
X137375000Y-105030000I250000J0D01*
G01*
G37*
D17*
X138000000Y-108270000D03*
D18*
X138000000Y-105730000D03*
%TD*%
D21*
%TO.C,SW1*%
X146750000Y-85250000D03*
X146750000Y-80750000D03*
X153250000Y-85250000D03*
X153250000Y-80750000D03*
%TD*%
D22*
%TO.C,J4*%
X151000000Y-96000000D03*
X149000000Y-96000000D03*
X151000000Y-94000000D03*
D23*
X149000000Y-94000000D03*
%TD*%
%TO.C,D2*%
G36*
G01*
X137549999Y-99200000D02*
X138450001Y-99200000D01*
G75*
G02*
X138700000Y-99449999I0J-249999D01*
G01*
X138700000Y-100150001D01*
G75*
G02*
X138450001Y-100400000I-249999J0D01*
G01*
X137549999Y-100400000D01*
G75*
G02*
X137300000Y-100150001I0J249999D01*
G01*
X137300000Y-99449999D01*
G75*
G02*
X137549999Y-99200000I249999J0D01*
G01*
G37*
G36*
G01*
X137549999Y-101200000D02*
X138450001Y-101200000D01*
G75*
G02*
X138700000Y-101449999I0J-249999D01*
G01*
X138700000Y-102150001D01*
G75*
G02*
X138450001Y-102400000I-249999J0D01*
G01*
X137549999Y-102400000D01*
G75*
G02*
X137300000Y-102150001I0J249999D01*
G01*
X137300000Y-101449999D01*
G75*
G02*
X137549999Y-101200000I249999J0D01*
G01*
G37*
G36*
G01*
X137375000Y-102005000D02*
X138625000Y-102005000D01*
G75*
G02*
X138875000Y-102255000I0J-250000D01*
G01*
X138875000Y-103180000D01*
G75*
G02*
X138625000Y-103430000I-250000J0D01*
G01*
X137375000Y-103430000D01*
G75*
G02*
X137125000Y-103180000I0J250000D01*
G01*
X137125000Y-102255000D01*
G75*
G02*
X137375000Y-102005000I250000J0D01*
G01*
G37*
G36*
G01*
X137375000Y-99030000D02*
X138625000Y-99030000D01*
G75*
G02*
X138875000Y-99280000I0J-250000D01*
G01*
X138875000Y-100205000D01*
G75*
G02*
X138625000Y-100455000I-250000J0D01*
G01*
X137375000Y-100455000D01*
G75*
G02*
X137125000Y-100205000I0J250000D01*
G01*
X137125000Y-99280000D01*
G75*
G02*
X137375000Y-99030000I250000J0D01*
G01*
G37*
D17*
X138000000Y-102270000D03*
D18*
X138000000Y-99730000D03*
%TD*%
M02*
