%TF.GenerationSoftware,KiCad,Pcbnew,(6.0.0-0)*%
%TF.CreationDate,2022-01-02T09:35:28+00:00*%
%TF.ProjectId,PN532,504e3533-322e-46b6-9963-61645f706362,7*%
%TF.SameCoordinates,Original*%
%TF.FileFunction,Copper,L1,Top*%
%TF.FilePolarity,Positive*%
%FSLAX46Y46*%
G04 Gerber Fmt 4.6, Leading zero omitted, Abs format (unit mm)*
G04 Created by KiCad (PCBNEW (6.0.0-0)) date 2022-01-02 09:35:28*
%MOMM*%
%LPD*%
G01*
G04 APERTURE LIST*
G04 Aperture macros list*
%AMRoundRect*
0 Rectangle with rounded corners*
0 $1 Rounding radius*
0 $2 $3 $4 $5 $6 $7 $8 $9 X,Y pos of 4 corners*
0 Add a 4 corners polygon primitive as box body*
4,1,4,$2,$3,$4,$5,$6,$7,$8,$9,$2,$3,0*
0 Add four circle primitives for the rounded corners*
1,1,$1+$1,$2,$3*
1,1,$1+$1,$4,$5*
1,1,$1+$1,$6,$7*
1,1,$1+$1,$8,$9*
0 Add four rect primitives between the rounded corners*
20,1,$1+$1,$2,$3,$4,$5,0*
20,1,$1+$1,$4,$5,$6,$7,0*
20,1,$1+$1,$6,$7,$8,$9,0*
20,1,$1+$1,$8,$9,$2,$3,0*%
%AMFreePoly0*
4,1,6,2.200000,-2.200000,-2.200000,-2.200000,-2.200000,1.800000,-1.800000,2.200000,2.200000,2.200000,2.200000,-2.200000,2.200000,-2.200000,$1*%
%AMFreePoly1*
4,1,22,0.550000,-0.750000,0.000000,-0.750000,0.000000,-0.745033,-0.079941,-0.743568,-0.215256,-0.701293,-0.333266,-0.622738,-0.424486,-0.514219,-0.481581,-0.384460,-0.499164,-0.250000,-0.500000,-0.250000,-0.500000,0.250000,-0.499164,0.250000,-0.499963,0.256109,-0.478152,0.396186,-0.417904,0.524511,-0.324060,0.630769,-0.204165,0.706417,-0.067858,0.745374,0.000000,0.744959,0.000000,0.750000,
0.550000,0.750000,0.550000,-0.750000,0.550000,-0.750000,$1*%
%AMFreePoly2*
4,1,20,0.000000,0.744959,0.073905,0.744508,0.209726,0.703889,0.328688,0.626782,0.421226,0.519385,0.479903,0.390333,0.500000,0.250000,0.500000,-0.250000,0.499851,-0.262216,0.476331,-0.402017,0.414519,-0.529596,0.319384,-0.634700,0.198574,-0.708877,0.061801,-0.746166,0.000000,-0.745033,0.000000,-0.750000,-0.550000,-0.750000,-0.550000,0.750000,0.000000,0.750000,0.000000,0.744959,
0.000000,0.744959,$1*%
%AMFreePoly3*
4,1,424,1.095671,0.230970,1.176777,0.176777,1.230970,0.095671,1.250000,0.000000,1.230970,-0.095671,1.176777,-0.176777,1.095671,-0.230970,1.000000,-0.250000,-12.000000,-0.250000,-12.005895,-0.248827,-12.011782,-0.250009,-12.031785,-0.246066,-12.515418,-0.264968,-13.016176,-0.322149,-13.511277,-0.416510,-13.997964,-0.547524,-14.473526,-0.714464,-14.935317,-0.916398,-15.380766,-1.152204,-15.807392,-1.420568,
-16.212819,-1.719996,-16.594792,-2.048820,-16.951182,-2.405211,-17.280007,-2.787184,-17.579434,-3.192612,-17.847797,-3.619238,-18.083603,-4.064687,-18.285537,-4.526478,-18.452476,-5.002041,-18.583490,-5.488728,-18.677850,-5.983828,-18.735030,-6.484587,-18.753932,-6.968220,-18.749989,-6.988223,-18.751171,-6.994112,-18.750000,-7.000000,-18.750000,-31.000000,-18.751173,-31.005895,-18.749991,-31.011782,-18.753934,-31.031785,
-18.735032,-31.515418,-18.677851,-32.016176,-18.583490,-32.511277,-18.452476,-32.997964,-18.285536,-33.473526,-18.083602,-33.935317,-17.847796,-34.380766,-17.579432,-34.807392,-17.280004,-35.212819,-16.951180,-35.594792,-16.594789,-35.951182,-16.212816,-36.280007,-15.807388,-36.579434,-15.380762,-36.847797,-14.935313,-37.083603,-14.473522,-37.285537,-13.997959,-37.452476,-13.511272,-37.583490,-13.016172,-37.677850,-12.515413,-37.735030,
-12.031780,-37.753932,-12.011777,-37.749989,-12.005888,-37.751171,-12.000000,-37.750000,12.000000,-37.750000,12.005895,-37.751173,12.011782,-37.749991,12.031785,-37.753934,12.515418,-37.735032,13.016176,-37.677851,13.511277,-37.583490,13.997964,-37.452476,14.473526,-37.285536,14.935317,-37.083602,15.380766,-36.847796,15.807392,-36.579432,16.212819,-36.280004,16.594792,-35.951180,16.951182,-35.594789,17.280007,-35.212816,
17.579434,-34.807388,17.847797,-34.380762,18.083603,-33.935313,18.285537,-33.473522,18.452476,-32.997959,18.583490,-32.511272,18.677850,-32.016172,18.735030,-31.515413,18.753932,-31.031780,18.749989,-31.011777,18.751171,-31.005888,18.750000,-31.000000,18.750000,-7.000000,18.751996,-6.989963,18.749964,-6.979928,18.753605,-6.961284,18.735167,-6.529490,18.680733,-6.081956,18.591430,-5.640057,18.467806,-5.206505,
18.310622,-4.783961,18.120841,-4.375020,17.899629,-3.982190,17.648343,-3.607884,17.368525,-3.254399,17.061893,-2.923904,16.730330,-2.618427,16.375870,-2.339845,16.000689,-2.089867,15.607090,-1.870027,15.197488,-1.681675,14.774399,-1.525966,14.340418,-1.403857,13.898210,-1.316097,13.450488,-1.263224,13.018632,-1.246294,13.000002,-1.250000,-12.000000,-1.250000,-12.018623,-1.246296,-12.451488,-1.263303,
-12.900192,-1.316410,-13.343346,-1.404559,-13.778218,-1.527206,-14.202127,-1.683594,-14.612459,-1.872759,-15.006684,-2.093536,-15.382372,-2.344563,-15.737207,-2.624292,-16.069000,-2.930998,-16.375707,-3.262792,-16.655436,-3.617626,-16.906463,-3.993314,-17.127240,-4.387539,-17.316405,-4.797871,-17.472794,-5.221780,-17.595440,-5.656652,-17.683589,-6.099806,-17.736697,-6.548510,-17.753704,-6.981375,-17.750000,-6.999998,
-17.750000,-31.000000,-17.753704,-31.018623,-17.736697,-31.451488,-17.683590,-31.900192,-17.595441,-32.343346,-17.472794,-32.778218,-17.316406,-33.202127,-17.127241,-33.612459,-16.906464,-34.006684,-16.655437,-34.382372,-16.375708,-34.737207,-16.069002,-35.069000,-15.737208,-35.375707,-15.382374,-35.655436,-15.006686,-35.906463,-14.612461,-36.127240,-14.202129,-36.316405,-13.778220,-36.472794,-13.343348,-36.595440,-12.900194,-36.683589,
-12.451490,-36.736697,-12.018625,-36.753704,-12.000002,-36.750000,12.000000,-36.750000,12.018623,-36.753704,12.451488,-36.736697,12.900192,-36.683590,13.343346,-36.595441,13.778218,-36.472794,14.202127,-36.316406,14.612459,-36.127241,15.006684,-35.906464,15.382372,-35.655437,15.737207,-35.375708,16.069000,-35.069002,16.375707,-34.737208,16.655436,-34.382374,16.906463,-34.006686,17.127240,-33.612461,17.316405,-33.202129,
17.472794,-32.778220,17.595440,-32.343348,17.683589,-31.900194,17.736697,-31.451490,17.750000,-31.112900,17.750000,-7.000000,17.751650,-6.991706,17.749971,-6.983418,17.753619,-6.964739,17.735123,-6.570920,17.680033,-6.161675,17.589641,-5.758753,17.464629,-5.365194,17.305939,-4.983967,17.114769,-4.617947,16.892561,-4.269895,16.640991,-3.942437,16.361956,-3.638043,16.057561,-3.359008,15.730103,-3.107437,
15.382051,-2.885229,15.016031,-2.694059,14.634804,-2.535370,14.241245,-2.410357,13.838323,-2.319966,13.429078,-2.264876,13.035259,-2.246380,13.016580,-2.250028,13.008295,-2.248350,13.000000,-2.250000,2.000000,-2.250000,1.904329,-2.230970,1.823223,-2.176777,1.769030,-2.095671,1.750000,-2.000000,1.769030,-1.904329,1.823223,-1.823223,1.904329,-1.769030,2.000000,-1.750000,13.000000,-1.750000,
13.009160,-1.751822,13.018326,-1.750032,13.449880,-1.769311,13.878388,-1.824004,14.300950,-1.913741,14.714703,-2.037914,15.116847,-2.195683,15.504659,-2.385980,15.875513,-2.607515,16.226899,-2.858790,16.556437,-3.138102,16.861896,-3.443561,17.141209,-3.773099,17.392483,-4.124485,17.614019,-4.495339,17.804315,-4.883151,17.962084,-5.285295,18.086258,-5.699048,18.175995,-6.121610,18.230688,-6.550118,
18.249967,-6.981672,18.248177,-6.990837,18.250000,-7.000000,18.250000,-32.000000,18.230970,-32.095671,18.176777,-32.176777,18.127565,-32.209659,18.093299,-32.390758,17.972330,-32.842222,17.817961,-33.283383,17.631055,-33.711775,17.412658,-34.125001,17.163992,-34.520752,16.886446,-34.896812,16.581574,-35.251081,16.251079,-35.581575,15.896811,-35.886448,15.520750,-36.163993,15.125000,-36.412659,14.711773,-36.631056,
14.283381,-36.817961,13.842220,-36.972330,13.390756,-37.093300,12.931514,-37.180193,12.467063,-37.232524,12.000000,-37.250000,-12.000002,-37.250000,-12.467065,-37.232524,-12.931516,-37.180193,-13.390758,-37.093299,-13.842222,-36.972330,-14.283383,-36.817961,-14.711775,-36.631055,-15.125001,-36.412658,-15.520752,-36.163992,-15.896812,-35.886446,-16.251081,-35.581574,-16.581575,-35.251079,-16.886448,-34.896811,-17.163993,-34.520750,
-17.412659,-34.125000,-17.631056,-33.711773,-17.817961,-33.283381,-17.972330,-32.842220,-18.093300,-32.390756,-18.180193,-31.931514,-18.232524,-31.467063,-18.250000,-31.000000,-18.250000,-6.999998,-18.232524,-6.532935,-18.180193,-6.068484,-18.093299,-5.609242,-17.972330,-5.157778,-17.817961,-4.716617,-17.631055,-4.288225,-17.412658,-3.874999,-17.163992,-3.479248,-16.886446,-3.103188,-16.581574,-2.748919,-16.251079,-2.418425,
-15.896811,-2.113552,-15.520750,-1.836007,-15.125000,-1.587341,-14.711773,-1.368944,-14.283381,-1.182039,-13.842220,-1.027670,-13.390756,-0.906700,-12.931514,-0.819807,-12.467063,-0.767476,-12.000000,-0.750000,13.000002,-0.750000,13.466029,-0.767399,13.929461,-0.819498,14.387719,-0.906008,14.838250,-1.026446,15.278547,-1.180143,15.706157,-1.366243,16.118701,-1.583709,16.513881,-1.831330,16.889498,-2.107729,
17.243459,-2.411366,17.573794,-2.740550,17.878665,-3.093449,18.156373,-3.468099,18.405372,-3.862412,18.624277,-4.274195,18.811867,-4.701153,18.967100,-5.140911,19.089111,-5.591019,19.177219,-6.048971,19.230936,-6.512219,19.249961,-6.978182,19.249960,-6.978182,19.247830,-6.989090,19.250000,-7.000000,19.250000,-31.000000,19.248742,-31.006323,19.249989,-31.012649,19.249988,-31.012655,19.230697,-31.528678,
19.174724,-32.042025,19.082353,-32.550086,18.954051,-33.050282,18.790471,-33.540077,18.592441,-34.016987,18.360967,-34.478590,18.097223,-34.922546,17.802546,-35.346602,17.478432,-35.748607,17.126525,-36.126522,16.748611,-36.478429,16.346606,-36.802544,15.922550,-37.097221,15.478594,-37.360965,15.016991,-37.592440,14.540082,-37.790470,14.050287,-37.954051,13.550091,-38.082353,13.042030,-38.174725,12.528683,-38.230699,
12.012660,-38.249990,12.012654,-38.249991,12.006321,-38.248743,12.000000,-38.250000,-12.000000,-38.250000,-12.006323,-38.248742,-12.012649,-38.249989,-12.012655,-38.249988,-12.528678,-38.230697,-13.042025,-38.174724,-13.550086,-38.082353,-14.050282,-37.954051,-14.540077,-37.790471,-15.016987,-37.592441,-15.478590,-37.360967,-15.922546,-37.097223,-16.346602,-36.802546,-16.748607,-36.478432,-17.126522,-36.126525,-17.478429,-35.748611,
-17.802544,-35.346606,-18.097221,-34.922550,-18.360965,-34.478594,-18.592440,-34.016991,-18.790470,-33.540082,-18.954051,-33.050287,-19.082353,-32.550091,-19.174725,-32.042030,-19.230699,-31.528683,-19.249990,-31.012660,-19.249991,-31.012654,-19.248743,-31.006321,-19.250000,-31.000000,-19.250000,-7.000000,-19.248742,-6.993677,-19.249989,-6.987351,-19.249988,-6.987345,-19.230697,-6.471322,-19.174724,-5.957975,-19.082353,-5.449914,
-18.954051,-4.949718,-18.790471,-4.459923,-18.592441,-3.983013,-18.360967,-3.521410,-18.097223,-3.077454,-17.802546,-2.653398,-17.478432,-2.251393,-17.126525,-1.873478,-16.748611,-1.521571,-16.346606,-1.197456,-15.922550,-0.902779,-15.478594,-0.639035,-15.016991,-0.407560,-14.540082,-0.209530,-14.050287,-0.045949,-13.550091,0.082353,-13.042030,0.174725,-12.528683,0.230699,-12.012660,0.249990,-12.012654,0.249991,
-12.006321,0.248743,-12.000000,0.250000,1.000000,0.250000,1.095671,0.230970,1.095671,0.230970,$1*%
%AMFreePoly4*
4,1,19,1.095671,0.230970,1.176777,0.176777,1.230970,0.095671,1.250000,0.000000,1.230970,-0.095671,1.176777,-0.176777,1.095671,-0.230970,1.000000,-0.250000,0.000000,-0.250000,-0.095671,-0.230970,-0.176777,-0.176777,-0.230970,-0.095671,-0.250000,0.000000,-0.230970,0.095671,-0.176777,0.176777,-0.095671,0.230970,0.000000,0.250000,1.000000,0.250000,1.095671,0.230970,1.095671,0.230970,
$1*%
G04 Aperture macros list end*
%ADD10C,0.100000*%
%TA.AperFunction,NonConductor*%
%ADD11C,0.100000*%
%TD*%
%TA.AperFunction,EtchedComponent*%
%ADD12C,0.250000*%
%TD*%
%TA.AperFunction,SMDPad,CuDef*%
%ADD13R,1.150000X1.900000*%
%TD*%
%TA.AperFunction,ComponentPad*%
%ADD14C,3.200000*%
%TD*%
%TA.AperFunction,SMDPad,CuDef*%
%ADD15RoundRect,0.125000X0.625000X-0.125000X0.625000X0.125000X-0.625000X0.125000X-0.625000X-0.125000X0*%
%TD*%
%TA.AperFunction,SMDPad,CuDef*%
%ADD16R,1.300000X2.000000*%
%TD*%
%TA.AperFunction,ComponentPad*%
%ADD17C,2.000000*%
%TD*%
%TA.AperFunction,SMDPad,CuDef*%
%ADD18RoundRect,0.225000X-0.225000X-0.250000X0.225000X-0.250000X0.225000X0.250000X-0.225000X0.250000X0*%
%TD*%
%TA.AperFunction,SMDPad,CuDef*%
%ADD19RoundRect,0.225000X0.250000X-0.225000X0.250000X0.225000X-0.250000X0.225000X-0.250000X-0.225000X0*%
%TD*%
%TA.AperFunction,SMDPad,CuDef*%
%ADD20RoundRect,0.200000X-0.200000X-0.275000X0.200000X-0.275000X0.200000X0.275000X-0.200000X0.275000X0*%
%TD*%
%TA.AperFunction,SMDPad,CuDef*%
%ADD21RoundRect,0.225000X-0.250000X0.225000X-0.250000X-0.225000X0.250000X-0.225000X0.250000X0.225000X0*%
%TD*%
%TA.AperFunction,SMDPad,CuDef*%
%ADD22RoundRect,0.200000X0.275000X-0.200000X0.275000X0.200000X-0.275000X0.200000X-0.275000X-0.200000X0*%
%TD*%
%TA.AperFunction,SMDPad,CuDef*%
%ADD23RoundRect,0.062500X-0.062500X0.287500X-0.062500X-0.287500X0.062500X-0.287500X0.062500X0.287500X0*%
%TD*%
%TA.AperFunction,SMDPad,CuDef*%
%ADD24RoundRect,0.062500X-0.287500X0.062500X-0.287500X-0.062500X0.287500X-0.062500X0.287500X0.062500X0*%
%TD*%
%TA.AperFunction,SMDPad,CuDef*%
%ADD25FreePoly0,270.000000*%
%TD*%
%TA.AperFunction,ComponentPad*%
%ADD26C,0.350000*%
%TD*%
%TA.AperFunction,SMDPad,CuDef*%
%ADD27RoundRect,0.225000X0.225000X0.250000X-0.225000X0.250000X-0.225000X-0.250000X0.225000X-0.250000X0*%
%TD*%
%TA.AperFunction,ComponentPad*%
%ADD28R,1.700000X1.700000*%
%TD*%
%TA.AperFunction,ComponentPad*%
%ADD29O,1.700000X1.700000*%
%TD*%
%TA.AperFunction,SMDPad,CuDef*%
%ADD30RoundRect,0.200000X-0.275000X0.200000X-0.275000X-0.200000X0.275000X-0.200000X0.275000X0.200000X0*%
%TD*%
%TA.AperFunction,ComponentPad*%
%ADD31RoundRect,0.250000X-0.600000X-0.675000X0.600000X-0.675000X0.600000X0.675000X-0.600000X0.675000X0*%
%TD*%
%TA.AperFunction,ComponentPad*%
%ADD32O,1.700000X1.850000*%
%TD*%
%TA.AperFunction,ComponentPad*%
%ADD33C,1.200000*%
%TD*%
%TA.AperFunction,SMDPad,CuDef*%
%ADD34FreePoly1,0.000000*%
%TD*%
%TA.AperFunction,SMDPad,CuDef*%
%ADD35R,1.000000X1.500000*%
%TD*%
%TA.AperFunction,SMDPad,CuDef*%
%ADD36FreePoly2,0.000000*%
%TD*%
%TA.AperFunction,SMDPad,CuDef*%
%ADD37RoundRect,0.200000X0.200000X0.275000X-0.200000X0.275000X-0.200000X-0.275000X0.200000X-0.275000X0*%
%TD*%
%TA.AperFunction,SMDPad,CuDef*%
%ADD38RoundRect,0.166600X0.636396X-0.895763X0.895763X-0.636396X-0.636396X0.895763X-0.895763X0.636396X0*%
%TD*%
%TA.AperFunction,SMDPad,CuDef*%
%ADD39RoundRect,0.242760X0.321734X-0.699668X0.699668X-0.321734X-0.321734X0.699668X-0.699668X0.321734X0*%
%TD*%
%TA.AperFunction,SMDPad,CuDef*%
%ADD40RoundRect,0.166600X-0.895763X-0.636396X-0.636396X-0.895763X0.895763X0.636396X0.636396X0.895763X0*%
%TD*%
%TA.AperFunction,SMDPad,CuDef*%
%ADD41RoundRect,0.242760X-0.699668X-0.321734X-0.321734X-0.699668X0.699668X0.321734X0.321734X0.699668X0*%
%TD*%
%TA.AperFunction,SMDPad,CuDef*%
%ADD42R,0.650000X0.400000*%
%TD*%
%TA.AperFunction,SMDPad,CuDef*%
%ADD43R,0.400000X0.200000*%
%TD*%
%TA.AperFunction,SMDPad,CuDef*%
%ADD44R,1.000000X0.200000*%
%TD*%
%TA.AperFunction,SMDPad,CuDef*%
%ADD45R,0.200000X1.200000*%
%TD*%
%TA.AperFunction,SMDPad,CuDef*%
%ADD46R,0.200000X0.200000*%
%TD*%
%TA.AperFunction,SMDPad,CuDef*%
%ADD47R,0.200000X0.600000*%
%TD*%
%TA.AperFunction,SMDPad,CuDef*%
%ADD48R,0.400000X0.600000*%
%TD*%
%TA.AperFunction,SMDPad,CuDef*%
%ADD49R,1.400000X0.200000*%
%TD*%
%TA.AperFunction,SMDPad,CuDef*%
%ADD50R,0.600000X0.200000*%
%TD*%
%TA.AperFunction,SMDPad,CuDef*%
%ADD51R,0.200000X0.400000*%
%TD*%
%TA.AperFunction,SMDPad,CuDef*%
%ADD52R,0.600000X0.600000*%
%TD*%
%TA.AperFunction,SMDPad,CuDef*%
%ADD53R,0.200000X0.800000*%
%TD*%
%TA.AperFunction,SMDPad,CuDef*%
%ADD54R,0.800000X0.200000*%
%TD*%
%TA.AperFunction,ComponentPad*%
%ADD55C,0.600000*%
%TD*%
%TA.AperFunction,SMDPad,CuDef*%
%ADD56FreePoly3,0.000000*%
%TD*%
%TA.AperFunction,SMDPad,CuDef*%
%ADD57R,1.500000X0.500000*%
%TD*%
%TA.AperFunction,SMDPad,CuDef*%
%ADD58FreePoly4,0.000000*%
%TD*%
%TA.AperFunction,ViaPad*%
%ADD59C,0.800000*%
%TD*%
%TA.AperFunction,Conductor*%
%ADD60C,0.500000*%
%TD*%
%TA.AperFunction,Conductor*%
%ADD61C,0.250000*%
%TD*%
G04 APERTURE END LIST*
D10*
D11*
X91903571Y-113514285D02*
X91875000Y-113485714D01*
X91846428Y-113428571D01*
X91846428Y-113285714D01*
X91875000Y-113228571D01*
X91903571Y-113200000D01*
X91960714Y-113171428D01*
X92017857Y-113171428D01*
X92103571Y-113200000D01*
X92446428Y-113542857D01*
X92446428Y-113171428D01*
X91846428Y-112800000D02*
X91846428Y-112742857D01*
X91875000Y-112685714D01*
X91903571Y-112657142D01*
X91960714Y-112628571D01*
X92075000Y-112600000D01*
X92217857Y-112600000D01*
X92332142Y-112628571D01*
X92389285Y-112657142D01*
X92417857Y-112685714D01*
X92446428Y-112742857D01*
X92446428Y-112800000D01*
X92417857Y-112857142D01*
X92389285Y-112885714D01*
X92332142Y-112914285D01*
X92217857Y-112942857D01*
X92075000Y-112942857D01*
X91960714Y-112914285D01*
X91903571Y-112885714D01*
X91875000Y-112857142D01*
X91846428Y-112800000D01*
X91903571Y-112371428D02*
X91875000Y-112342857D01*
X91846428Y-112285714D01*
X91846428Y-112142857D01*
X91875000Y-112085714D01*
X91903571Y-112057142D01*
X91960714Y-112028571D01*
X92017857Y-112028571D01*
X92103571Y-112057142D01*
X92446428Y-112400000D01*
X92446428Y-112028571D01*
X91903571Y-111800000D02*
X91875000Y-111771428D01*
X91846428Y-111714285D01*
X91846428Y-111571428D01*
X91875000Y-111514285D01*
X91903571Y-111485714D01*
X91960714Y-111457142D01*
X92017857Y-111457142D01*
X92103571Y-111485714D01*
X92446428Y-111828571D01*
X92446428Y-111457142D01*
X92217857Y-111200000D02*
X92217857Y-110742857D01*
X91846428Y-110342857D02*
X91846428Y-110285714D01*
X91875000Y-110228571D01*
X91903571Y-110200000D01*
X91960714Y-110171428D01*
X92075000Y-110142857D01*
X92217857Y-110142857D01*
X92332142Y-110171428D01*
X92389285Y-110200000D01*
X92417857Y-110228571D01*
X92446428Y-110285714D01*
X92446428Y-110342857D01*
X92417857Y-110400000D01*
X92389285Y-110428571D01*
X92332142Y-110457142D01*
X92217857Y-110485714D01*
X92075000Y-110485714D01*
X91960714Y-110457142D01*
X91903571Y-110428571D01*
X91875000Y-110400000D01*
X91846428Y-110342857D01*
X92446428Y-109571428D02*
X92446428Y-109914285D01*
X92446428Y-109742857D02*
X91846428Y-109742857D01*
X91932142Y-109800000D01*
X91989285Y-109857142D01*
X92017857Y-109914285D01*
X92217857Y-109314285D02*
X92217857Y-108857142D01*
X91846428Y-108457142D02*
X91846428Y-108400000D01*
X91875000Y-108342857D01*
X91903571Y-108314285D01*
X91960714Y-108285714D01*
X92075000Y-108257142D01*
X92217857Y-108257142D01*
X92332142Y-108285714D01*
X92389285Y-108314285D01*
X92417857Y-108342857D01*
X92446428Y-108400000D01*
X92446428Y-108457142D01*
X92417857Y-108514285D01*
X92389285Y-108542857D01*
X92332142Y-108571428D01*
X92217857Y-108600000D01*
X92075000Y-108600000D01*
X91960714Y-108571428D01*
X91903571Y-108542857D01*
X91875000Y-108514285D01*
X91846428Y-108457142D01*
X92446428Y-107685714D02*
X92446428Y-108028571D01*
X92446428Y-107857142D02*
X91846428Y-107857142D01*
X91932142Y-107914285D01*
X91989285Y-107971428D01*
X92017857Y-108028571D01*
%TO.C,JP1*%
G36*
X94250000Y-105200000D02*
G01*
X93750000Y-105200000D01*
X93750000Y-104800000D01*
X94250000Y-104800000D01*
X94250000Y-105200000D01*
G37*
G36*
X94250000Y-106000000D02*
G01*
X93750000Y-106000000D01*
X93750000Y-105600000D01*
X94250000Y-105600000D01*
X94250000Y-106000000D01*
G37*
D12*
%TO.C,AJK1*%
X89100000Y-92200000D02*
X90900000Y-94300000D01*
X89100000Y-90100000D02*
X89100000Y-94300000D01*
X89100000Y-92200000D02*
X87600000Y-92200000D01*
X90900000Y-90200000D02*
X89100000Y-92200000D01*
X89100000Y-90100000D02*
X86100000Y-94300000D01*
X87600000Y-94300000D02*
G75*
G03*
X89100000Y-94300000I750000J0D01*
G01*
%TD*%
D13*
%TO.P,Y1,1,1*%
%TO.N,Net-(C16-Pad1)*%
X93075000Y-98650000D03*
%TO.P,Y1,2,2*%
%TO.N,GND*%
X93075000Y-101350000D03*
%TO.P,Y1,3,3*%
%TO.N,Net-(C17-Pad1)*%
X94675000Y-101350000D03*
%TO.P,Y1,4,4*%
%TO.N,GND*%
X94675000Y-98650000D03*
%TD*%
D14*
%TO.P,H2,*%
%TO.N,*%
X88000000Y-88000000D03*
%TD*%
%TO.P,H1,*%
%TO.N,*%
X112000000Y-112000000D03*
%TD*%
D15*
%TO.P,D2,1,K*%
%TO.N,GND*%
X112000000Y-94900000D03*
%TO.P,D2,2,A*%
%TO.N,Net-(D2-Pad2)*%
X112000000Y-93100000D03*
%TD*%
%TO.P,D3,1,K*%
%TO.N,GND*%
X112000000Y-88900000D03*
%TO.P,D3,2,A*%
%TO.N,Net-(D3-Pad2)*%
X112000000Y-87100000D03*
%TD*%
D16*
%TO.P,SW1,1,1*%
%TO.N,GND*%
X90750000Y-104200000D03*
D17*
X90750000Y-96750000D03*
X90750000Y-103250000D03*
D16*
X90750000Y-95800000D03*
D17*
%TO.P,SW1,2,2*%
%TO.N,Net-(R11-Pad2)*%
X86250000Y-103250000D03*
D16*
X86250000Y-95800000D03*
D17*
X86250000Y-96750000D03*
D16*
X86250000Y-104200000D03*
%TD*%
D15*
%TO.P,D1,1,K*%
%TO.N,GND*%
X112000000Y-100900000D03*
%TO.P,D1,2,A*%
%TO.N,Net-(D1-Pad2)*%
X112000000Y-99100000D03*
%TD*%
D18*
%TO.P,C7,1*%
%TO.N,+3V3*%
X100600000Y-95350000D03*
%TO.P,C7,2*%
%TO.N,GND*%
X102150000Y-95350000D03*
%TD*%
D19*
%TO.P,C3,1*%
%TO.N,Net-(C3-Pad1)*%
X103800000Y-88300000D03*
%TO.P,C3,2*%
%TO.N,Net-(A1-Pad1)*%
X103800000Y-86750000D03*
%TD*%
D18*
%TO.P,C5,1*%
%TO.N,GND*%
X100925000Y-88275000D03*
%TO.P,C5,2*%
%TO.N,Net-(C3-Pad1)*%
X102475000Y-88275000D03*
%TD*%
D20*
%TO.P,R6,1*%
%TO.N,Net-(R6-Pad1)*%
X108175000Y-95800000D03*
%TO.P,R6,2*%
%TO.N,+5V*%
X109825000Y-95800000D03*
%TD*%
%TO.P,R4,1*%
%TO.N,Net-(C8-Pad2)*%
X93075000Y-88275000D03*
%TO.P,R4,2*%
%TO.N,Net-(C4-Pad2)*%
X94725000Y-88275000D03*
%TD*%
D21*
%TO.P,C13,1*%
%TO.N,+3V3*%
X106250000Y-98825000D03*
%TO.P,C13,2*%
%TO.N,GND*%
X106250000Y-100375000D03*
%TD*%
D18*
%TO.P,C14,1*%
%TO.N,+5V*%
X104725000Y-97300000D03*
%TO.P,C14,2*%
%TO.N,GND*%
X106275000Y-97300000D03*
%TD*%
%TO.P,C9,1*%
%TO.N,Net-(C9-Pad1)*%
X93100000Y-94750000D03*
%TO.P,C9,2*%
%TO.N,GND*%
X94650000Y-94750000D03*
%TD*%
%TO.P,C16,1*%
%TO.N,Net-(C16-Pad1)*%
X93100000Y-97500000D03*
%TO.P,C16,2*%
%TO.N,GND*%
X94650000Y-97500000D03*
%TD*%
D20*
%TO.P,R9,1*%
%TO.N,Net-(R9-Pad1)*%
X108175000Y-100300000D03*
%TO.P,R9,2*%
%TO.N,Net-(D2-Pad2)*%
X109825000Y-100300000D03*
%TD*%
%TO.P,R8,1*%
%TO.N,Net-(R8-Pad1)*%
X108175000Y-101800000D03*
%TO.P,R8,2*%
%TO.N,Net-(D1-Pad2)*%
X109825000Y-101800000D03*
%TD*%
D22*
%TO.P,R11,1*%
%TO.N,+3V3*%
X99300000Y-105975000D03*
%TO.P,R11,2*%
%TO.N,Net-(R11-Pad2)*%
X99300000Y-104325000D03*
%TD*%
D23*
%TO.P,U1,1,DVSS*%
%TO.N,GND*%
X102250000Y-97100000D03*
%TO.P,U1,2,LOADMOD*%
%TO.N,unconnected-(U1-Pad2)*%
X101750000Y-97100000D03*
%TO.P,U1,3,TVSS1*%
%TO.N,GND*%
X101250000Y-97100000D03*
%TO.P,U1,4,TX1*%
%TO.N,Net-(L1-Pad1)*%
X100750000Y-97100000D03*
%TO.P,U1,5,TVDD*%
%TO.N,+3V3*%
X100250000Y-97100000D03*
%TO.P,U1,6,TX2*%
%TO.N,Net-(L2-Pad2)*%
X99750000Y-97100000D03*
%TO.P,U1,7,TVSS2*%
%TO.N,GND*%
X99250000Y-97100000D03*
%TO.P,U1,8,AVDD*%
%TO.N,+3V3*%
X98750000Y-97100000D03*
%TO.P,U1,9,VMID*%
%TO.N,Net-(C9-Pad1)*%
X98250000Y-97100000D03*
%TO.P,U1,10,RX*%
%TO.N,Net-(C8-Pad1)*%
X97750000Y-97100000D03*
D24*
%TO.P,U1,11,AVSS*%
%TO.N,GND*%
X97100000Y-97750000D03*
%TO.P,U1,12,AUX1*%
%TO.N,unconnected-(U1-Pad12)*%
X97100000Y-98250000D03*
%TO.P,U1,13,AUX2*%
%TO.N,unconnected-(U1-Pad13)*%
X97100000Y-98750000D03*
%TO.P,U1,14,OSCIN*%
%TO.N,Net-(C16-Pad1)*%
X97100000Y-99250000D03*
%TO.P,U1,15,OSCOUT*%
%TO.N,Net-(C17-Pad1)*%
X97100000Y-99750000D03*
%TO.P,U1,16,I0*%
%TO.N,GND*%
X97100000Y-100250000D03*
%TO.P,U1,17,I1*%
%TO.N,Net-(JP1-Pad2)*%
X97100000Y-100750000D03*
%TO.P,U1,18,TESTEN*%
%TO.N,GND*%
X97100000Y-101250000D03*
%TO.P,U1,19,P35*%
%TO.N,unconnected-(U1-Pad19)*%
X97100000Y-101750000D03*
%TO.P,U1,20,NC*%
%TO.N,unconnected-(U1-Pad20)*%
X97100000Y-102250000D03*
D23*
%TO.P,U1,21,NC*%
%TO.N,unconnected-(U1-Pad21)*%
X97750000Y-102900000D03*
%TO.P,U1,22,NC*%
%TO.N,unconnected-(U1-Pad22)*%
X98250000Y-102900000D03*
%TO.P,U1,23,PVDD*%
%TO.N,+3V3*%
X98750000Y-102900000D03*
%TO.P,U1,24,P30/UART_RX*%
%TO.N,Net-(R11-Pad2)*%
X99250000Y-102900000D03*
%TO.P,U1,25,P70_IRQ*%
%TO.N,unconnected-(U1-Pad25)*%
X99750000Y-102900000D03*
%TO.P,U1,26,RSTOUT_N*%
%TO.N,unconnected-(U1-Pad26)*%
X100250000Y-102900000D03*
%TO.P,U1,27,NSS/P50_SCL/HSU_RX*%
%TO.N,Net-(C19-Pad1)*%
X100750000Y-102900000D03*
%TO.P,U1,28,MOSI/SDA/HSU_TX*%
%TO.N,Net-(D6-Pad6)*%
X101250000Y-102900000D03*
%TO.P,U1,29,MISO/P71*%
%TO.N,unconnected-(U1-Pad29)*%
X101750000Y-102900000D03*
%TO.P,U1,30,SCK/P72*%
%TO.N,Net-(D4-Pad3)*%
X102250000Y-102900000D03*
D24*
%TO.P,U1,31,P31/DBG_TX*%
%TO.N,Net-(R8-Pad1)*%
X102900000Y-102250000D03*
%TO.P,U1,32,P32_INT0*%
%TO.N,Net-(R9-Pad1)*%
X102900000Y-101750000D03*
%TO.P,U1,33,P33_INT1*%
%TO.N,Net-(R10-Pad1)*%
X102900000Y-101250000D03*
%TO.P,U1,34,P34/SIG_CLK*%
%TO.N,unconnected-(U1-Pad34)*%
X102900000Y-100750000D03*
%TO.P,U1,35,SIGOUT*%
%TO.N,unconnected-(U1-Pad35)*%
X102900000Y-100250000D03*
%TO.P,U1,36,SIGN*%
%TO.N,unconnected-(U1-Pad36)*%
X102900000Y-99750000D03*
%TO.P,U1,37,SVDD*%
%TO.N,unconnected-(U1-Pad37)*%
X102900000Y-99250000D03*
%TO.P,U1,38,RSTPD_N*%
%TO.N,Net-(R6-Pad1)*%
X102900000Y-98750000D03*
%TO.P,U1,39,DVDD*%
%TO.N,+3V3*%
X102900000Y-98250000D03*
%TO.P,U1,40,VBAT*%
%TO.N,+5V*%
X102900000Y-97750000D03*
D25*
%TO.P,U1,41,COPPER*%
%TO.N,GND*%
X100000000Y-100000000D03*
D26*
X101000000Y-99000000D03*
X100000000Y-100000000D03*
X99000000Y-99000000D03*
X99000000Y-101000000D03*
X101000000Y-101000000D03*
%TD*%
D27*
%TO.P,C17,1*%
%TO.N,Net-(C17-Pad1)*%
X94650000Y-102500000D03*
%TO.P,C17,2*%
%TO.N,GND*%
X93100000Y-102500000D03*
%TD*%
D28*
%TO.P,J1,1,Pin_1*%
%TO.N,GND*%
X112000000Y-107270000D03*
D29*
%TO.P,J1,2,Pin_2*%
%TO.N,Net-(J1-Pad2)*%
X112000000Y-104730000D03*
%TD*%
D27*
%TO.P,C12,1*%
%TO.N,+3V3*%
X99400000Y-93850000D03*
%TO.P,C12,2*%
%TO.N,GND*%
X97850000Y-93850000D03*
%TD*%
D30*
%TO.P,R5,1*%
%TO.N,Net-(C8-Pad1)*%
X93100000Y-92025000D03*
%TO.P,R5,2*%
%TO.N,Net-(C9-Pad1)*%
X93100000Y-93675000D03*
%TD*%
D20*
%TO.P,R7,1*%
%TO.N,Net-(R6-Pad1)*%
X108175000Y-97300000D03*
%TO.P,R7,2*%
%TO.N,GND*%
X109825000Y-97300000D03*
%TD*%
%TO.P,R10,1*%
%TO.N,Net-(R10-Pad1)*%
X108175000Y-98800000D03*
%TO.P,R10,2*%
%TO.N,Net-(D3-Pad2)*%
X109825000Y-98800000D03*
%TD*%
D19*
%TO.P,C18,1*%
%TO.N,+3V3*%
X97700000Y-105925000D03*
%TO.P,C18,2*%
%TO.N,GND*%
X97700000Y-104375000D03*
%TD*%
D21*
%TO.P,C11,1*%
%TO.N,+3V3*%
X104750000Y-98825000D03*
%TO.P,C11,2*%
%TO.N,GND*%
X104750000Y-100375000D03*
%TD*%
D19*
%TO.P,C8,1*%
%TO.N,Net-(C8-Pad1)*%
X93100000Y-90975000D03*
%TO.P,C8,2*%
%TO.N,Net-(C8-Pad2)*%
X93100000Y-89425000D03*
%TD*%
D31*
%TO.P,J3,1,Pin_1*%
%TO.N,GND*%
X96250000Y-108900000D03*
D32*
%TO.P,J3,2,Pin_2*%
%TO.N,+5V*%
X98750000Y-108900000D03*
%TO.P,J3,3,Pin_3*%
%TO.N,Net-(J2-Pad3)*%
X101250000Y-108900000D03*
%TO.P,J3,4,Pin_4*%
%TO.N,Net-(J2-Pad4)*%
X103750000Y-108900000D03*
%TD*%
D18*
%TO.P,C10,1*%
%TO.N,+3V3*%
X100600000Y-93850000D03*
%TO.P,C10,2*%
%TO.N,GND*%
X102150000Y-93850000D03*
%TD*%
D27*
%TO.P,C1,1*%
%TO.N,Net-(A1-Pad1)*%
X102475000Y-87100000D03*
X102475000Y-85900000D03*
%TO.P,C1,2*%
%TO.N,GND*%
X100925000Y-85900000D03*
X100925000Y-87100000D03*
%TD*%
%TO.P,C6,1*%
%TO.N,GND*%
X99075000Y-88275000D03*
%TO.P,C6,2*%
%TO.N,Net-(C4-Pad2)*%
X97525000Y-88275000D03*
%TD*%
D22*
%TO.P,R15,1*%
%TO.N,+3V3*%
X105600000Y-105975000D03*
%TO.P,R15,2*%
%TO.N,Net-(D4-Pad3)*%
X105600000Y-104325000D03*
%TD*%
D33*
%TO.P,TP1,1,1*%
%TO.N,Net-(L1-Pad1)*%
X101250000Y-92400000D03*
%TO.P,TP1,2,2*%
%TO.N,Net-(L2-Pad2)*%
X98750000Y-92400000D03*
%TD*%
D34*
%TO.P,JP1,1,A*%
%TO.N,GND*%
X93350000Y-105400000D03*
D35*
%TO.P,JP1,2,C*%
%TO.N,Net-(JP1-Pad2)*%
X94650000Y-105400000D03*
D36*
%TO.P,JP1,3,B*%
%TO.N,+3V3*%
X95950000Y-105400000D03*
%TD*%
D20*
%TO.P,R13,1*%
%TO.N,Net-(J2-Pad3)*%
X100825000Y-105900000D03*
%TO.P,R13,2*%
%TO.N,Net-(D6-Pad6)*%
X102475000Y-105900000D03*
%TD*%
D18*
%TO.P,C15,1*%
%TO.N,+3V3*%
X93100000Y-95950000D03*
%TO.P,C15,2*%
%TO.N,GND*%
X94650000Y-95950000D03*
%TD*%
D37*
%TO.P,R14,1*%
%TO.N,Net-(J2-Pad4)*%
X102475000Y-104400000D03*
%TO.P,R14,2*%
%TO.N,Net-(C19-Pad1)*%
X100825000Y-104400000D03*
%TD*%
D38*
%TO.P,L1,1,1*%
%TO.N,Net-(L1-Pad1)*%
X102542893Y-91707107D03*
D39*
X102260051Y-91989949D03*
%TO.P,L1,2,2*%
%TO.N,Net-(C3-Pad1)*%
X104239949Y-90010051D03*
D38*
X103957107Y-90292893D03*
%TD*%
D40*
%TO.P,L2,1,1*%
%TO.N,Net-(C4-Pad2)*%
X96042893Y-90292893D03*
D41*
X95760051Y-90010051D03*
D40*
%TO.P,L2,2,2*%
%TO.N,Net-(L2-Pad2)*%
X97457107Y-91707107D03*
D41*
X97739949Y-91989949D03*
%TD*%
D21*
%TO.P,C4,1*%
%TO.N,Net-(A1-Pad3)*%
X96200000Y-86750000D03*
%TO.P,C4,2*%
%TO.N,Net-(C4-Pad2)*%
X96200000Y-88300000D03*
%TD*%
D30*
%TO.P,R12,1*%
%TO.N,Net-(D4-Pad3)*%
X104000000Y-104325000D03*
%TO.P,R12,2*%
%TO.N,Net-(J1-Pad2)*%
X104000000Y-105975000D03*
%TD*%
D42*
%TO.P,D5,1,A1*%
%TO.N,GND*%
X108050000Y-93250000D03*
%TO.P,D5,2,K2*%
%TO.N,+3V3*%
X108050000Y-93900000D03*
%TO.P,D5,3,K1A2*%
%TO.N,Net-(D3-Pad2)*%
X108050000Y-94550000D03*
%TO.P,D5,4,A3*%
%TO.N,GND*%
X109950000Y-94550000D03*
%TO.P,D5,5,K4*%
%TO.N,+3V3*%
X109950000Y-93900000D03*
%TO.P,D5,6,K3A4*%
%TO.N,Net-(D2-Pad2)*%
X109950000Y-93250000D03*
%TD*%
D27*
%TO.P,C2,1*%
%TO.N,GND*%
X99075000Y-87100000D03*
X99075000Y-85900000D03*
%TO.P,C2,2*%
%TO.N,Net-(A1-Pad3)*%
X97525000Y-85900000D03*
X97525000Y-87100000D03*
%TD*%
D43*
%TO.P,U2,*%
%TO.N,*%
X90000000Y-110600000D03*
D44*
X87100000Y-109800000D03*
D45*
X88500000Y-110100000D03*
D46*
X87500000Y-112600000D03*
D47*
X88900000Y-110000000D03*
D48*
X90400000Y-110600000D03*
D47*
X88700000Y-109400000D03*
X88300000Y-112400000D03*
D45*
X90500000Y-109300000D03*
D46*
X86700000Y-112000000D03*
D44*
X89900000Y-109800000D03*
D46*
X88300000Y-110000000D03*
X87500000Y-112200000D03*
X87100000Y-110400000D03*
D49*
X89900000Y-108600000D03*
D50*
X90300000Y-110200000D03*
D51*
X88100000Y-112500000D03*
D46*
X88700000Y-112400000D03*
X87300000Y-110600000D03*
X88900000Y-110800000D03*
D45*
X90500000Y-112100000D03*
D46*
X87300000Y-111800000D03*
D47*
X87900000Y-111800000D03*
D46*
X89300000Y-110600000D03*
D52*
X89900000Y-112000000D03*
D43*
X88000000Y-111200000D03*
D46*
X88300000Y-110400000D03*
X88700000Y-108800000D03*
X88900000Y-109000000D03*
D50*
X88500000Y-111000000D03*
D47*
X88900000Y-111600000D03*
D46*
X89300000Y-111000000D03*
D45*
X87700000Y-109300000D03*
D43*
X86600000Y-110400000D03*
D46*
X88700000Y-111600000D03*
D53*
X87700000Y-110700000D03*
D49*
X89900000Y-111400000D03*
D46*
X87700000Y-111800000D03*
D44*
X89900000Y-112600000D03*
D47*
X88900000Y-112400000D03*
D45*
X89300000Y-109300000D03*
D50*
X88700000Y-111200000D03*
D45*
X89300000Y-112100000D03*
D51*
X86900000Y-110300000D03*
D50*
X87900000Y-110200000D03*
D51*
X87100000Y-112500000D03*
X88100000Y-109700000D03*
D46*
X88500000Y-108600000D03*
X88700000Y-110400000D03*
D45*
X86500000Y-109300000D03*
D43*
X88400000Y-109000000D03*
D46*
X87900000Y-110800000D03*
X86900000Y-111800000D03*
D47*
X87500000Y-111600000D03*
D46*
X88300000Y-111600000D03*
D52*
X89900000Y-109200000D03*
D49*
X87100000Y-108600000D03*
D47*
X88500000Y-112000000D03*
D51*
X88100000Y-110700000D03*
X90100000Y-110900000D03*
D43*
X88200000Y-109200000D03*
D54*
X89400000Y-110200000D03*
D51*
X87500000Y-110900000D03*
D43*
X88200000Y-111400000D03*
D46*
X86700000Y-112400000D03*
D47*
X86500000Y-112400000D03*
D51*
X89700000Y-110900000D03*
X87300000Y-111300000D03*
X88100000Y-108700000D03*
D52*
X87100000Y-109200000D03*
D53*
X89100000Y-110700000D03*
D43*
X87000000Y-111400000D03*
D53*
X86500000Y-111300000D03*
%TD*%
D18*
%TO.P,C19,1*%
%TO.N,Net-(C19-Pad1)*%
X108225000Y-108200000D03*
%TO.P,C19,2*%
%TO.N,GND*%
X109775000Y-108200000D03*
%TD*%
D42*
%TO.P,D4,1,A1*%
%TO.N,GND*%
X108050000Y-103050000D03*
%TO.P,D4,2,K2*%
%TO.N,+3V3*%
X108050000Y-103700000D03*
%TO.P,D4,3,K1A2*%
%TO.N,Net-(D4-Pad3)*%
X108050000Y-104350000D03*
%TO.P,D4,4,A3*%
%TO.N,GND*%
X109950000Y-104350000D03*
%TO.P,D4,5,K4*%
%TO.N,+3V3*%
X109950000Y-103700000D03*
%TO.P,D4,6,K3A4*%
%TO.N,Net-(D1-Pad2)*%
X109950000Y-103050000D03*
%TD*%
%TO.P,D6,1,A1*%
%TO.N,GND*%
X109950000Y-106950000D03*
%TO.P,D6,2,K2*%
%TO.N,+3V3*%
X109950000Y-106300000D03*
%TO.P,D6,3,K1A2*%
%TO.N,Net-(C19-Pad1)*%
X109950000Y-105650000D03*
%TO.P,D6,4,A3*%
%TO.N,GND*%
X108050000Y-105650000D03*
%TO.P,D6,5,K4*%
%TO.N,+3V3*%
X108050000Y-106300000D03*
%TO.P,D6,6,K3A4*%
%TO.N,Net-(D6-Pad6)*%
X108050000Y-106950000D03*
%TD*%
D55*
%TO.P,A1,*%
%TO.N,*%
X101000000Y-81000000D03*
D56*
X100000000Y-81000000D03*
D30*
X102000000Y-83150000D03*
D57*
X100000000Y-81000000D03*
D55*
X97000000Y-83000000D03*
D58*
X97000000Y-83000000D03*
D55*
X99000000Y-81000000D03*
D30*
X98000000Y-83150000D03*
%TO.P,A1,1*%
%TO.N,Net-(A1-Pad1)*%
X102000000Y-84850000D03*
D57*
%TO.P,A1,2*%
%TO.N,GND*%
X100000000Y-83000000D03*
D30*
%TO.P,A1,3*%
%TO.N,Net-(A1-Pad3)*%
X98000000Y-84850000D03*
%TD*%
D28*
%TO.P,J2,1,Pin_1*%
%TO.N,GND*%
X96190000Y-112000000D03*
D29*
%TO.P,J2,2,Pin_2*%
%TO.N,+5V*%
X98730000Y-112000000D03*
%TO.P,J2,3,Pin_3*%
%TO.N,Net-(J2-Pad3)*%
X101270000Y-112000000D03*
%TO.P,J2,4,Pin_4*%
%TO.N,Net-(J2-Pad4)*%
X103810000Y-112000000D03*
%TD*%
D59*
%TO.N,GND*%
X112000000Y-101600000D03*
X112000000Y-95600000D03*
X100000000Y-92825000D03*
X109046955Y-107273501D03*
X109005086Y-105824500D03*
X109000000Y-102974990D03*
X106200000Y-95500000D03*
X106204578Y-101328835D03*
X96075000Y-103850000D03*
X93225000Y-103575000D03*
X110700000Y-97500000D03*
X112000000Y-89600000D03*
X95950000Y-98175000D03*
%TO.N,+3V3*%
X107198632Y-103625500D03*
X96600000Y-94700000D03*
X92200000Y-92850000D03*
X107200000Y-96509732D03*
X107183734Y-106107746D03*
X91500000Y-106000000D03*
X99500000Y-94700000D03*
%TO.N,+5V*%
X110700000Y-96450000D03*
X105250000Y-96100000D03*
X105250000Y-94375000D03*
%TO.N,Net-(D1-Pad2)*%
X110700000Y-101900000D03*
X112000000Y-98400000D03*
%TO.N,Net-(D2-Pad2)*%
X112000000Y-92400000D03*
X112000000Y-97300000D03*
%TO.N,Net-(D3-Pad2)*%
X108900000Y-94600000D03*
X112000000Y-86400000D03*
%TO.N,Net-(C9-Pad1)*%
X94312979Y-93574500D03*
X96600000Y-95800000D03*
%TO.N,Net-(J1-Pad2)*%
X107200000Y-105100000D03*
%TO.N,Net-(J2-Pad4)*%
X105900000Y-107000000D03*
%TD*%
D60*
%TO.N,GND*%
X106275000Y-97300000D02*
X106275000Y-95575000D01*
D61*
X108050000Y-93250000D02*
X108500000Y-93250000D01*
D60*
X102075000Y-93850000D02*
X102075000Y-95350000D01*
D61*
X93350000Y-103700000D02*
X93225000Y-103575000D01*
X109539873Y-106950000D02*
X109216372Y-107273501D01*
X109000000Y-92750000D02*
X109000000Y-92250000D01*
X110931587Y-103943414D02*
X110987500Y-103887500D01*
X112000000Y-91250000D02*
X112000000Y-89600000D01*
D60*
X99975000Y-87125000D02*
X100000000Y-87100000D01*
X106250000Y-101283413D02*
X106204578Y-101328835D01*
D61*
X110695787Y-97504214D02*
X111575735Y-96624265D01*
D60*
X93225000Y-101375000D02*
X93200000Y-101350000D01*
X99075000Y-88275000D02*
X99950000Y-88275000D01*
D61*
X109000812Y-104566327D02*
X109000812Y-105820226D01*
D60*
X99075000Y-85925000D02*
X99975000Y-85925000D01*
X93225000Y-102500000D02*
X93225000Y-101375000D01*
D61*
X109950000Y-106950000D02*
X109539873Y-106950000D01*
X101250000Y-96975000D02*
X101250000Y-98750000D01*
X97700000Y-104375000D02*
X96600000Y-104375000D01*
D60*
X96250000Y-108900000D02*
X96250000Y-111940000D01*
D61*
X108050000Y-93250000D02*
X107750000Y-93250000D01*
X90750000Y-96750000D02*
X90750000Y-103250000D01*
X99250000Y-96975000D02*
X99250000Y-98750000D01*
X110987500Y-103887500D02*
X111664124Y-103210875D01*
X109825000Y-97300000D02*
X109842186Y-97300000D01*
X112000000Y-89600000D02*
X112000000Y-88949520D01*
D60*
X94650000Y-95950000D02*
X94650000Y-97375000D01*
X104750000Y-100375000D02*
X106250000Y-100375000D01*
D61*
X108050000Y-105650000D02*
X108830586Y-105650000D01*
X112000000Y-102400000D02*
X112000000Y-101600000D01*
X109031680Y-107328402D02*
X109031680Y-107288776D01*
X93350000Y-105400000D02*
X93350000Y-103700000D01*
D60*
X96250000Y-111940000D02*
X96190000Y-112000000D01*
D61*
X102250000Y-97100000D02*
X102250000Y-97479290D01*
X102200000Y-97600000D02*
X101141422Y-98658578D01*
X99250000Y-97100000D02*
X99250000Y-96809643D01*
X109216372Y-107273501D02*
X109046955Y-107273501D01*
X112000000Y-101600000D02*
X112000000Y-100949520D01*
X99250000Y-98750000D02*
X99000000Y-99000000D01*
D60*
X100000000Y-83000000D02*
X100000000Y-92825000D01*
D61*
X109500000Y-91750000D02*
X111500000Y-91750000D01*
X109950000Y-104350000D02*
X109256885Y-104350000D01*
X98750000Y-101250000D02*
X99000000Y-101000000D01*
X108050000Y-103050000D02*
X108924990Y-103050000D01*
X96975000Y-100250000D02*
X98250000Y-100250000D01*
X109031680Y-107288776D02*
X109046955Y-107273501D01*
D60*
X106250000Y-100375000D02*
X106250000Y-101283413D01*
D61*
X98250000Y-100250000D02*
X99000000Y-101000000D01*
D60*
X100925000Y-88275000D02*
X99950000Y-88275000D01*
X106275000Y-95575000D02*
X106200000Y-95500000D01*
D61*
X97850000Y-93850000D02*
X97850000Y-94051800D01*
X106200000Y-94800000D02*
X106200000Y-95500000D01*
X98792268Y-95704581D02*
X98792305Y-95702609D01*
X109950000Y-94550000D02*
X110250000Y-94550000D01*
X98792305Y-95702609D02*
X98350988Y-95261292D01*
X108830586Y-105650000D02*
X109005086Y-105824500D01*
X109775000Y-108200000D02*
X109229810Y-107654810D01*
X108924990Y-103050000D02*
X109000000Y-102974990D01*
D60*
X99075000Y-87125000D02*
X99975000Y-87125000D01*
D61*
X102250000Y-97100000D02*
X102250000Y-95525000D01*
D60*
X94650000Y-95950000D02*
X94650000Y-94750000D01*
D61*
X97583466Y-97783466D02*
X98658578Y-98858578D01*
D60*
X95946751Y-98175000D02*
X95950000Y-98175000D01*
D61*
X112000000Y-95600000D02*
X111300000Y-95600000D01*
X101250000Y-98750000D02*
X101000000Y-99000000D01*
D60*
X100900000Y-87100000D02*
X100000000Y-87100000D01*
D61*
X109000812Y-105820226D02*
X109005086Y-105824500D01*
D60*
X93225000Y-102500000D02*
X93225000Y-103575000D01*
D61*
X96975000Y-101250000D02*
X98750000Y-101250000D01*
X97100000Y-97750000D02*
X97502672Y-97750000D01*
D60*
X100925000Y-85925000D02*
X99975000Y-85925000D01*
D61*
X112000000Y-95600000D02*
X112000000Y-94950010D01*
X97583466Y-97783466D02*
G75*
G03*
X97502672Y-97750000I-80797J-80801D01*
G01*
X102200000Y-97600000D02*
G75*
G03*
X102250000Y-97479290I-120706J120709D01*
G01*
X109000000Y-92750000D02*
G75*
G02*
X108500000Y-93250000I-500001J1D01*
G01*
X112000000Y-91250000D02*
G75*
G02*
X111500000Y-91750000I-500001J1D01*
G01*
X106200000Y-94800000D02*
G75*
G02*
X107750000Y-93250000I1549998J2D01*
G01*
X102075000Y-95350000D02*
G75*
G02*
X102250000Y-95525000I1J-174999D01*
G01*
X96075000Y-103850000D02*
G75*
G03*
X96600000Y-104375000I525000J0D01*
G01*
X101000000Y-99000000D02*
G75*
G02*
X101141422Y-98658578I482846J-2D01*
G01*
X98792268Y-95704581D02*
G75*
G02*
X99250000Y-96809643I-1105055J-1105059D01*
G01*
X110931587Y-103943414D02*
G75*
G02*
X109950000Y-104350000I-981586J981586D01*
G01*
X111999999Y-102400000D02*
G75*
G02*
X111664124Y-103210875I-1146742J-3D01*
G01*
D60*
X95946751Y-98175000D02*
G75*
G03*
X94800000Y-98650000I3J-1621757D01*
G01*
D61*
X98350988Y-95261292D02*
G75*
G02*
X97850000Y-94051800I1209488J1209490D01*
G01*
X109500000Y-91750000D02*
G75*
G03*
X109000000Y-92250000I1J-500001D01*
G01*
X110850000Y-95150000D02*
G75*
G03*
X110250000Y-94550000I-600000J0D01*
G01*
X110695787Y-97504214D02*
G75*
G03*
X110642980Y-97631700I127483J-127486D01*
G01*
X109000813Y-104566327D02*
G75*
G02*
X109256885Y-104350001I257932J-45599D01*
G01*
X111999999Y-95600000D02*
G75*
G02*
X111575734Y-96624264I-1448525J-1D01*
G01*
X109031681Y-107328402D02*
G75*
G03*
X109229811Y-107654809I783485J252240D01*
G01*
X110850000Y-95150000D02*
G75*
G03*
X111300000Y-95600000I450000J0D01*
G01*
X99000000Y-99000000D02*
G75*
G02*
X98658578Y-98858578I2J482846D01*
G01*
X110642980Y-97631700D02*
G75*
G03*
X109842186Y-97300000I-800795J-800796D01*
G01*
D60*
%TO.N,Net-(C3-Pad1)*%
X103800000Y-88275000D02*
X103800000Y-89570102D01*
X103800000Y-88300000D02*
X102300000Y-88300000D01*
X103800000Y-89570102D02*
X104239949Y-90010051D01*
%TO.N,Net-(C4-Pad2)*%
X96175000Y-88275000D02*
X96200000Y-88300000D01*
X96200000Y-89570102D02*
X95760051Y-90010051D01*
X94725000Y-88275000D02*
X96175000Y-88275000D01*
X97525000Y-88275000D02*
X96225000Y-88275000D01*
X96200000Y-88275000D02*
X96200000Y-89570102D01*
X96225000Y-88275000D02*
X96200000Y-88300000D01*
D61*
%TO.N,+3V3*%
X106900000Y-98100000D02*
X106303034Y-98696966D01*
X98500000Y-103741421D02*
X98500000Y-105864645D01*
X92200000Y-92850000D02*
X92200000Y-95050000D01*
X107200000Y-96509732D02*
X107200000Y-97375736D01*
X91500000Y-106000000D02*
X91825000Y-106000000D01*
X98181492Y-95727500D02*
X97576996Y-95123004D01*
X108050000Y-106300000D02*
X108455986Y-106300000D01*
X109305185Y-106549001D02*
X109554186Y-106300000D01*
X100525000Y-93850000D02*
X100525000Y-95350000D01*
X97576996Y-95123004D02*
X97545724Y-95091732D01*
X95950000Y-105400000D02*
X95950000Y-106050000D01*
X92175489Y-105450489D02*
X92175489Y-105649511D01*
X99300000Y-106025000D02*
X99275000Y-106025000D01*
X107183734Y-106107746D02*
X107375988Y-106300000D01*
X108455986Y-106300000D02*
X108704987Y-106549001D01*
X99400000Y-93850000D02*
X100525000Y-93850000D01*
X107200000Y-94550000D02*
X107200000Y-96509732D01*
X99250000Y-105925000D02*
X99300000Y-105975000D01*
X108704987Y-106549001D02*
X109305185Y-106549001D01*
X97700000Y-105925000D02*
X98525000Y-105925000D01*
X108050000Y-103700000D02*
X107273132Y-103700000D01*
X97424264Y-105900000D02*
X97700000Y-105900000D01*
X104750000Y-98825000D02*
X106250000Y-98825000D01*
X95950000Y-105400000D02*
X96217158Y-105400000D01*
X99400000Y-93850000D02*
X99400000Y-94525000D01*
X108050000Y-103700000D02*
X109950000Y-103700000D01*
X108050000Y-93900000D02*
X107850000Y-93900000D01*
X107273132Y-103700000D02*
X107198632Y-103625500D01*
X105600000Y-105975000D02*
X107050988Y-105975000D01*
X98750000Y-102900000D02*
X98750000Y-103137868D01*
X102900000Y-98250000D02*
X104175000Y-98250000D01*
X98525000Y-105925000D02*
X99250000Y-105925000D01*
X108075002Y-93874998D02*
X109924998Y-93874998D01*
X107375988Y-106300000D02*
X108050000Y-106300000D01*
X109554186Y-106300000D02*
X109950000Y-106300000D01*
X100250000Y-96462132D02*
X100250000Y-97100000D01*
X92175489Y-96874511D02*
X92175489Y-105450489D01*
X93125978Y-106600000D02*
X95400000Y-106600000D01*
X96700000Y-105600000D02*
G75*
G03*
X96217158Y-105400000I-482841J-482839D01*
G01*
X98181492Y-95727500D02*
G75*
G02*
X98750000Y-97100000I-1372494J-1372497D01*
G01*
X97424264Y-105900000D02*
G75*
G02*
X96700000Y-105600000I-4J1024253D01*
G01*
X92175489Y-105649511D02*
G75*
G02*
X91825000Y-106000000I-350490J1D01*
G01*
X93100000Y-95950000D02*
G75*
G02*
X92200000Y-95050000I0J900000D01*
G01*
X106900000Y-98100000D02*
G75*
G03*
X107200000Y-97375736I-724263J724264D01*
G01*
X95950000Y-106050000D02*
G75*
G02*
X95400000Y-106600000I-549999J-1D01*
G01*
X99500000Y-94625000D02*
G75*
G02*
X99400000Y-94525000I-1J99999D01*
G01*
X100250001Y-96462132D02*
G75*
G02*
X100400001Y-96100001I512131J0D01*
G01*
X92175489Y-96874511D02*
G75*
G02*
X93100000Y-95950000I924511J0D01*
G01*
X107183734Y-106107746D02*
G75*
G03*
X107050988Y-105975000I-132745J1D01*
G01*
X106250000Y-98825000D02*
G75*
G02*
X106303034Y-98696966I181063J1D01*
G01*
X98600000Y-103500000D02*
G75*
G03*
X98500000Y-103741421I241419J-241421D01*
G01*
X100400000Y-96100000D02*
G75*
G03*
X100525000Y-95798224I-301770J301774D01*
G01*
X93125978Y-106600000D02*
G75*
G02*
X92175489Y-105649511I1J950490D01*
G01*
X107200000Y-94550000D02*
G75*
G02*
X107850000Y-93900000I650001J-1D01*
G01*
X98525000Y-105925000D02*
G75*
G02*
X98500000Y-105864645I60344J60351D01*
G01*
X98600000Y-103500000D02*
G75*
G03*
X98750000Y-103137868I-362137J362134D01*
G01*
X96600000Y-94700001D02*
G75*
G02*
X97545723Y-95091733I1J-1337452D01*
G01*
X104750000Y-98825000D02*
G75*
G03*
X104175000Y-98250000I-575001J-1D01*
G01*
D60*
%TO.N,Net-(C8-Pad2)*%
X93075000Y-89400000D02*
X93100000Y-89425000D01*
X93075000Y-88250000D02*
X93075000Y-89400000D01*
D61*
%TO.N,Net-(C8-Pad1)*%
X94892462Y-92767462D02*
X94922182Y-92797182D01*
X95700000Y-94675000D02*
X95700000Y-95442894D01*
X97286396Y-97100000D02*
X97750000Y-97100000D01*
D60*
X93100000Y-90975000D02*
X93100000Y-92025000D01*
D61*
X97286396Y-97100000D02*
G75*
G02*
X96200000Y-96650000I-2J1536390D01*
G01*
X94892462Y-92767462D02*
G75*
G03*
X93100000Y-92025000I-1792465J-1792469D01*
G01*
X96200000Y-96650000D02*
G75*
G02*
X95700000Y-95442894I1207108J1207107D01*
G01*
X95700000Y-94675000D02*
G75*
G03*
X94922182Y-92797182I-2655637J-1D01*
G01*
%TO.N,+5V*%
X102900000Y-97750000D02*
X104275000Y-97750000D01*
D60*
X98750000Y-108900000D02*
X98750000Y-111980000D01*
D61*
X109825000Y-95800000D02*
X110050000Y-95800000D01*
X105250000Y-94400000D02*
X105250000Y-96100000D01*
D60*
X104725000Y-96625000D02*
X104725000Y-97300000D01*
X98750000Y-111980000D02*
X98730000Y-112000000D01*
X104725000Y-96625000D02*
G75*
G02*
X105250000Y-96100000I525000J0D01*
G01*
D61*
X104725000Y-97300000D02*
G75*
G02*
X104275000Y-97750000I-450000J0D01*
G01*
X110700000Y-96450000D02*
G75*
G03*
X110050000Y-95800000I-650001J-1D01*
G01*
%TO.N,Net-(C16-Pad1)*%
X97100000Y-99250000D02*
X96986396Y-99250000D01*
X95175736Y-100000000D02*
X93400000Y-100000000D01*
X93075000Y-98650000D02*
X93075000Y-99675000D01*
X95900000Y-99700000D02*
G75*
G02*
X96986396Y-99250000I1086396J-1086395D01*
G01*
X93400000Y-100000000D02*
G75*
G02*
X93075000Y-99675000I-1J324999D01*
G01*
X95175736Y-99999999D02*
G75*
G03*
X95900000Y-99700000I0J1024264D01*
G01*
%TO.N,Net-(L2-Pad2)*%
X98825000Y-92400000D02*
X98624806Y-92600194D01*
X99750000Y-97100000D02*
X99750000Y-96731423D01*
D60*
X98750000Y-92400000D02*
X98150000Y-92400000D01*
X98150000Y-92400000D02*
X97739949Y-91989949D01*
D61*
X98624806Y-92600194D02*
X98624806Y-94162744D01*
X99145704Y-95420303D02*
X99250200Y-95524800D01*
X99145704Y-95420303D02*
G75*
G02*
X98624806Y-94162744I1257559J1257559D01*
G01*
X99250200Y-95524800D02*
G75*
G02*
X99750000Y-96731423I-1206616J-1206621D01*
G01*
D60*
%TO.N,Net-(L1-Pad1)*%
X101250000Y-92400000D02*
X101850000Y-92400000D01*
D61*
X101375000Y-92701776D02*
X101375000Y-95652513D01*
D60*
X101850000Y-92400000D02*
X102260051Y-91989949D01*
D61*
X100750000Y-96807842D02*
X100750000Y-97100000D01*
X101200000Y-96075000D02*
X100950000Y-96325000D01*
X101375000Y-92701776D02*
G75*
G03*
X101250000Y-92400000I-426770J2D01*
G01*
X101200000Y-96075000D02*
G75*
G03*
X101375000Y-95652513I-422488J422488D01*
G01*
X100750001Y-96807842D02*
G75*
G02*
X100950001Y-96325001I682838J1D01*
G01*
%TO.N,Net-(D1-Pad2)*%
X109950000Y-101925000D02*
X109825000Y-101800000D01*
X109950000Y-103050000D02*
X109950000Y-101925000D01*
X112000000Y-98400000D02*
X112000000Y-99049990D01*
X110600000Y-101800000D02*
X109825000Y-101800000D01*
X110600000Y-101800000D02*
G75*
G02*
X110700000Y-101900000I1J-99999D01*
G01*
%TO.N,Net-(D2-Pad2)*%
X110000000Y-92750000D02*
X110000000Y-93200000D01*
X112000000Y-97300000D02*
X111120321Y-98179679D01*
X110536958Y-99588042D02*
X109825000Y-100300000D01*
X112000000Y-92400000D02*
X112000000Y-93050480D01*
X112000000Y-92400000D02*
X110350000Y-92400000D01*
X109950000Y-93250000D02*
G75*
G03*
X110000000Y-93200000I-1J50001D01*
G01*
X110000000Y-92750000D02*
G75*
G02*
X110350000Y-92400000I350001J-1D01*
G01*
X110536958Y-99588042D02*
G75*
G03*
X110908189Y-98691811I-896232J896231D01*
G01*
X110908190Y-98691811D02*
G75*
G02*
X111120322Y-98179680I724254J4D01*
G01*
%TO.N,Net-(D3-Pad2)*%
X108900000Y-94600000D02*
X108900000Y-97875000D01*
X108850000Y-94550000D02*
X108050000Y-94550000D01*
X112000000Y-86400000D02*
X112000000Y-87049990D01*
X108850000Y-94550000D02*
G75*
G02*
X108900000Y-94600000I-1J-50001D01*
G01*
X109825000Y-98800000D02*
G75*
G02*
X108900000Y-97875000I-1J924999D01*
G01*
D60*
%TO.N,Net-(C9-Pad1)*%
X93100000Y-93675000D02*
X93100000Y-94750000D01*
D61*
X93100000Y-93675000D02*
X94212479Y-93675000D01*
X97700000Y-96000000D02*
X97861091Y-96161091D01*
X97217158Y-95800000D02*
X96600000Y-95800000D01*
X94312979Y-93574500D02*
G75*
G02*
X94212479Y-93675000I-100501J1D01*
G01*
X97217158Y-95800001D02*
G75*
G02*
X97699999Y-96000001I3J-682833D01*
G01*
X97861091Y-96161092D02*
G75*
G02*
X98250000Y-97100000I-938902J-938906D01*
G01*
X98250000Y-97100000D02*
G75*
G03*
X97861091Y-96161091I-1327822J-2D01*
G01*
%TO.N,Net-(C17-Pad1)*%
X96100000Y-100200000D02*
X95056066Y-101243934D01*
X96161092Y-100138909D02*
X96100000Y-100200000D01*
D60*
X94775000Y-102500000D02*
X94775000Y-101375000D01*
X94775000Y-101375000D02*
X94800000Y-101350000D01*
D61*
X94800000Y-101350000D02*
G75*
G03*
X95056066Y-101243934I0J362131D01*
G01*
X96161092Y-100138909D02*
G75*
G02*
X97100000Y-99750000I938906J-938902D01*
G01*
%TO.N,Net-(J1-Pad2)*%
X104000000Y-105500000D02*
X104000000Y-105975000D01*
X107200000Y-105100000D02*
X104400000Y-105100000D01*
X104000000Y-105500000D02*
G75*
G02*
X104400000Y-105100000I399999J1D01*
G01*
%TO.N,Net-(J2-Pad3)*%
X100825000Y-105900000D02*
X100825000Y-106675000D01*
X101250000Y-111980000D02*
X101270000Y-112000000D01*
X101100000Y-107300000D02*
X101072488Y-107272488D01*
X101250000Y-108900000D02*
X101250000Y-107662132D01*
X101250000Y-108900000D02*
X101250000Y-111980000D01*
X100825001Y-106675000D02*
G75*
G03*
X101072488Y-107272488I844970J-2D01*
G01*
X101100000Y-107300000D02*
G75*
G02*
X101250000Y-107662132I-362126J-362129D01*
G01*
%TO.N,Net-(J2-Pad4)*%
X103750000Y-108900000D02*
X103750000Y-111940000D01*
X103200480Y-106392263D02*
X103200480Y-104700480D01*
X102900000Y-104400000D02*
X102475000Y-104400000D01*
X105174578Y-106699520D02*
X103507737Y-106699520D01*
X103750000Y-111940000D02*
X103810000Y-112000000D01*
X103200480Y-106392263D02*
G75*
G03*
X103507737Y-106699520I307255J-2D01*
G01*
X105174578Y-106699521D02*
G75*
G02*
X105899999Y-107000001I0J-1025900D01*
G01*
X102900000Y-104400000D02*
G75*
G02*
X103200480Y-104700480I-2J-300482D01*
G01*
%TO.N,Net-(JP1-Pad2)*%
X97100000Y-100750000D02*
X96550000Y-100750000D01*
X94650000Y-105400000D02*
X94650000Y-104720711D01*
X94982843Y-103917157D02*
X95858579Y-103041422D01*
X96000000Y-101300000D02*
X96000000Y-102700000D01*
X96000000Y-101300000D02*
G75*
G02*
X96550000Y-100750000I549999J1D01*
G01*
X95858579Y-103041422D02*
G75*
G03*
X96000000Y-102700000I-341424J341422D01*
G01*
X94982843Y-103917157D02*
G75*
G03*
X94650000Y-104720711I803554J-803554D01*
G01*
%TO.N,Net-(D6-Pad6)*%
X102475000Y-105900000D02*
X102475000Y-106824075D01*
X101749990Y-104750010D02*
X101749990Y-104450010D01*
X105578995Y-107750489D02*
X106550489Y-107750489D01*
X106900000Y-107300000D02*
X106900000Y-107400978D01*
X102800346Y-107149421D02*
X104977927Y-107149421D01*
X101989444Y-105210556D02*
X101906326Y-105127438D01*
X102330830Y-105551942D02*
X101989444Y-105210556D01*
X107250000Y-106950000D02*
X108050000Y-106950000D01*
X101250000Y-102900000D02*
X101250000Y-103242928D01*
X107250000Y-106950000D02*
G75*
G03*
X106900000Y-107300000I1J-350001D01*
G01*
X102330830Y-105551942D02*
G75*
G02*
X102475000Y-105900000I-348062J-348059D01*
G01*
X101507807Y-103865329D02*
G75*
G02*
X101749990Y-104450010I-584677J-584680D01*
G01*
X101749990Y-104750010D02*
G75*
G03*
X101906326Y-105127438I533768J2D01*
G01*
X106900000Y-107400978D02*
G75*
G02*
X106550489Y-107750489I-349510J-1D01*
G01*
X101507807Y-103865329D02*
G75*
G02*
X101250000Y-103242928I622402J622402D01*
G01*
X105264253Y-107435747D02*
G75*
G03*
X104977927Y-107149421I-286326J0D01*
G01*
X105578995Y-107750489D02*
G75*
G02*
X105264253Y-107435747I1J314743D01*
G01*
X102800346Y-107149421D02*
G75*
G02*
X102475000Y-106824075I1J325347D01*
G01*
%TO.N,Net-(R8-Pad1)*%
X105000000Y-103000000D02*
X106500000Y-103000000D01*
X104275000Y-102625000D02*
X104156066Y-102506066D01*
X102900000Y-102250000D02*
X103537868Y-102250000D01*
X107227190Y-102698788D02*
X108091314Y-101834664D01*
X104275000Y-102625000D02*
G75*
G03*
X105180330Y-103000000I905329J905327D01*
G01*
X108175000Y-101800000D02*
G75*
G03*
X108091314Y-101834664I0J-118349D01*
G01*
X103537868Y-102250001D02*
G75*
G02*
X104156065Y-102506067I3J-874256D01*
G01*
X106500000Y-102999999D02*
G75*
G03*
X107227189Y-102698787I-1J1028404D01*
G01*
%TO.N,Net-(R9-Pad1)*%
X106313831Y-102549917D02*
X105362452Y-102549917D01*
X107245137Y-102045137D02*
X107050465Y-102239809D01*
X104487500Y-102187500D02*
X104387500Y-102087500D01*
X107050120Y-102239801D02*
X106868927Y-102412322D01*
X103572703Y-101750000D02*
X102900000Y-101750000D01*
X107450480Y-101450480D02*
X107450480Y-101549396D01*
X106550764Y-102544109D02*
X106313831Y-102549917D01*
X106770667Y-102477978D02*
X106666678Y-102521051D01*
X108175000Y-100300000D02*
X108175000Y-100536453D01*
X107050465Y-102239809D02*
X107050120Y-102239801D01*
X108175000Y-100536453D02*
X107584483Y-101126969D01*
X106868927Y-102412322D02*
X106770667Y-102477978D01*
X106666678Y-102521051D02*
X106550764Y-102544109D01*
X107450480Y-101450480D02*
G75*
G02*
X107584483Y-101126969I457505J3D01*
G01*
X104487500Y-102187500D02*
G75*
G03*
X105362452Y-102549917I874953J874954D01*
G01*
X107245137Y-102045137D02*
G75*
G03*
X107450480Y-101549396I-495742J495742D01*
G01*
X103572703Y-101750001D02*
G75*
G02*
X104387499Y-102087501I0J-1152296D01*
G01*
%TO.N,Net-(C19-Pad1)*%
X101748410Y-105854247D02*
X101718457Y-105703664D01*
X109950000Y-105650000D02*
X110150000Y-105650000D01*
X100750000Y-104325000D02*
X100825000Y-104400000D01*
X104522794Y-107600000D02*
X102494988Y-107600000D01*
X101521239Y-105378761D02*
X100825000Y-104682522D01*
X101749990Y-105931014D02*
X101748410Y-105854247D01*
X101718457Y-105703664D02*
X101659703Y-105561818D01*
X108225000Y-108200000D02*
X105122794Y-108200000D01*
X101574404Y-105434160D02*
X101521239Y-105378761D01*
X110700000Y-106200000D02*
X110700000Y-108527834D01*
X101749990Y-106855002D02*
X101749990Y-105931014D01*
X101659703Y-105561818D02*
X101574404Y-105434160D01*
X108225000Y-108625000D02*
X108225000Y-108200000D01*
X100750000Y-103025000D02*
X100750000Y-104325000D01*
X110227824Y-109000010D02*
X108600010Y-109000010D01*
X100825000Y-104682522D02*
X100825000Y-104400000D01*
X101749990Y-106855002D02*
G75*
G03*
X102494988Y-107600000I744998J0D01*
G01*
X110700000Y-106200000D02*
G75*
G03*
X110150000Y-105650000I-549999J1D01*
G01*
X104811397Y-107888603D02*
G75*
G03*
X105122794Y-108200000I311397J0D01*
G01*
X104522794Y-107600000D02*
G75*
G02*
X104811397Y-107888603I0J-288603D01*
G01*
X108225000Y-108625000D02*
G75*
G03*
X108600000Y-109000000I375000J0D01*
G01*
X110227824Y-109000010D02*
G75*
G03*
X110700000Y-108527834I1J472175D01*
G01*
X108600000Y-109000000D02*
G75*
G03*
X108600010Y-109000010I10J0D01*
G01*
D60*
%TO.N,Net-(A1-Pad1)*%
X102475000Y-85900000D02*
X102475000Y-87100000D01*
X102475000Y-85325000D02*
X102475000Y-85900000D01*
X103800000Y-86750000D02*
X102825000Y-86750000D01*
X102475000Y-85325000D02*
G75*
G03*
X102000000Y-84850000I-474999J1D01*
G01*
X102475000Y-87100000D02*
G75*
G02*
X102825000Y-86750000I350001J-1D01*
G01*
%TO.N,Net-(A1-Pad3)*%
X97525000Y-85325000D02*
X97525000Y-85900000D01*
X96200000Y-86750000D02*
X97175000Y-86750000D01*
X97525000Y-85900000D02*
X97525000Y-87100000D01*
X97525000Y-87100000D02*
G75*
G03*
X97175000Y-86750000I-350001J-1D01*
G01*
X97525000Y-85325000D02*
G75*
G02*
X98000000Y-84850000I474999J1D01*
G01*
D61*
%TO.N,Net-(D4-Pad3)*%
X102475000Y-103600000D02*
X103650000Y-103600000D01*
X104000000Y-104325000D02*
X105600000Y-104325000D01*
X102250000Y-102900000D02*
X102250000Y-103375000D01*
X104000000Y-104325000D02*
X104000000Y-103950000D01*
X108050000Y-104350000D02*
X105660355Y-104350000D01*
X105600000Y-104325000D02*
G75*
G03*
X105660355Y-104350000I60355J60356D01*
G01*
X102475000Y-103600000D02*
G75*
G02*
X102250000Y-103375000I0J225000D01*
G01*
X103650000Y-103600000D02*
G75*
G02*
X104000000Y-103950000I-1J-350001D01*
G01*
%TO.N,Net-(R6-Pad1)*%
X107361870Y-98367790D02*
X107994928Y-97734732D01*
X108175000Y-95800000D02*
X108175000Y-97300000D01*
X102900000Y-98750000D02*
X103550000Y-98750000D01*
X107100000Y-99227138D02*
X107100000Y-99000000D01*
X104272862Y-99600000D02*
X106727138Y-99600000D01*
X103800000Y-99000000D02*
X103800000Y-99127138D01*
X108175000Y-97300000D02*
G75*
G02*
X107994928Y-97734732I-614803J0D01*
G01*
X107100000Y-99227138D02*
G75*
G02*
X106727138Y-99600000I-372863J1D01*
G01*
X103800000Y-99000000D02*
G75*
G03*
X103550000Y-98750000I-249999J1D01*
G01*
X104272862Y-99600000D02*
G75*
G02*
X103800000Y-99127138I0J472862D01*
G01*
X107361870Y-98367790D02*
G75*
G03*
X107100000Y-99000000I632210J-632210D01*
G01*
%TO.N,Net-(R10-Pad1)*%
X106210234Y-102083906D02*
X105465206Y-102083906D01*
X103650000Y-101250000D02*
X102900000Y-101250000D01*
X108175000Y-98800000D02*
X107680969Y-99294031D01*
X104723372Y-101776628D02*
X104583351Y-101636606D01*
X106950830Y-101149170D02*
X106947723Y-101347723D01*
X107450480Y-99850480D02*
X107450480Y-100150480D01*
X107255192Y-100621946D02*
X107108418Y-100768720D01*
X106210234Y-102083906D02*
G75*
G03*
X106732370Y-101867630I1J738408D01*
G01*
X106950831Y-101149170D02*
G75*
G02*
X107108419Y-100768721I538038J-1D01*
G01*
X107255192Y-100621946D02*
G75*
G03*
X107450480Y-100150480I-471466J471467D01*
G01*
X107450481Y-99850480D02*
G75*
G02*
X107680969Y-99294031I786935J1D01*
G01*
X106732370Y-101867630D02*
G75*
G03*
X106947723Y-101347723I-519906J519907D01*
G01*
X104723372Y-101776628D02*
G75*
G03*
X105465206Y-102083906I741836J741837D01*
G01*
X103650000Y-101250001D02*
G75*
G02*
X104583351Y-101636606I-1J-1319962D01*
G01*
%TO.N,Net-(R11-Pad2)*%
X99250000Y-104275000D02*
X99300000Y-104325000D01*
X86250000Y-96750000D02*
X86250000Y-103250000D01*
X99300000Y-104325000D02*
X99300000Y-104800000D01*
X99459900Y-107059900D02*
X87259900Y-107059900D01*
X100100000Y-105600000D02*
X100100000Y-106419800D01*
X99250000Y-103025000D02*
X99250000Y-104275000D01*
X86250000Y-104200000D02*
X86250000Y-106050000D01*
X87259900Y-107059900D02*
G75*
G02*
X86250000Y-106050000I0J1009900D01*
G01*
X100100000Y-105600000D02*
G75*
G03*
X99600000Y-105100000I-500001J-1D01*
G01*
X99600000Y-105100000D02*
G75*
G02*
X99300000Y-104800000I0J300000D01*
G01*
X99459900Y-107059900D02*
G75*
G03*
X100100000Y-106419800I0J640100D01*
G01*
%TD*%
M02*
