%TF.GenerationSoftware,KiCad,Pcbnew,(5.1.9-0-10_14)*%
%TF.CreationDate,2021-05-09T21:07:42+01:00*%
%TF.ProjectId,PN532,504e3533-322e-46b6-9963-61645f706362,6*%
%TF.SameCoordinates,Original*%
%TF.FileFunction,Legend,Top*%
%TF.FilePolarity,Positive*%
%FSLAX46Y46*%
G04 Gerber Fmt 4.6, Leading zero omitted, Abs format (unit mm)*
G04 Created by KiCad (PCBNEW (5.1.9-0-10_14)) date 2021-05-09 21:07:42*
%MOMM*%
%LPD*%
G01*
G04 APERTURE LIST*
%ADD10C,0.032000*%
%ADD11C,0.080000*%
%ADD12C,0.100000*%
%ADD13C,0.150000*%
%ADD14C,0.120000*%
%ADD15C,0.050000*%
G04 APERTURE END LIST*
D10*
X87043860Y-111360000D02*
X87043860Y-111360000D01*
X87074703Y-111360825D02*
X87043860Y-111360000D01*
X87105139Y-111363183D02*
X87074703Y-111360825D01*
X87135131Y-111367036D02*
X87105139Y-111363183D01*
X87164642Y-111372346D02*
X87135131Y-111367036D01*
X87193634Y-111379076D02*
X87164642Y-111372346D01*
X87222069Y-111387189D02*
X87193634Y-111379076D01*
X87249910Y-111396646D02*
X87222069Y-111387189D01*
X87277119Y-111407409D02*
X87249910Y-111396646D01*
X87303659Y-111419442D02*
X87277119Y-111407409D01*
X87329492Y-111432707D02*
X87303659Y-111419442D01*
X87354580Y-111447166D02*
X87329492Y-111432707D01*
X87378887Y-111462781D02*
X87354580Y-111447166D01*
X87402374Y-111479515D02*
X87378887Y-111462781D01*
X87425004Y-111497330D02*
X87402374Y-111479515D01*
X87446740Y-111516189D02*
X87425004Y-111497330D01*
X87467543Y-111536053D02*
X87446740Y-111516189D01*
X87487376Y-111556886D02*
X87467543Y-111536053D01*
X87506202Y-111578650D02*
X87487376Y-111556886D01*
X87523983Y-111601307D02*
X87506202Y-111578650D01*
X87540682Y-111624819D02*
X87523983Y-111601307D01*
X87556261Y-111649149D02*
X87540682Y-111624819D01*
X87570682Y-111674259D02*
X87556261Y-111649149D01*
X87583908Y-111700112D02*
X87570682Y-111674259D01*
X87595901Y-111726670D02*
X87583908Y-111700112D01*
X87606624Y-111753896D02*
X87595901Y-111726670D01*
X87616039Y-111781751D02*
X87606624Y-111753896D01*
X87624108Y-111810198D02*
X87616039Y-111781751D01*
X87630795Y-111839200D02*
X87624108Y-111810198D01*
X87636061Y-111868718D02*
X87630795Y-111839200D01*
X87639869Y-111898716D02*
X87636061Y-111868718D01*
X87642181Y-111929156D02*
X87639869Y-111898716D01*
X87642960Y-111960000D02*
X87642181Y-111929156D01*
X87642627Y-111980046D02*
X87642960Y-111960000D01*
X87641631Y-111999983D02*
X87642627Y-111980046D01*
X87639981Y-112019797D02*
X87641631Y-111999983D01*
X87637684Y-112039475D02*
X87639981Y-112019797D01*
X87634749Y-112059003D02*
X87637684Y-112039475D01*
X87631183Y-112078367D02*
X87634749Y-112059003D01*
X87626995Y-112097554D02*
X87631183Y-112078367D01*
X87622191Y-112116550D02*
X87626995Y-112097554D01*
X87616781Y-112135341D02*
X87622191Y-112116550D01*
X87610771Y-112153914D02*
X87616781Y-112135341D01*
X87604171Y-112172255D02*
X87610771Y-112153914D01*
X87596987Y-112190350D02*
X87604171Y-112172255D01*
X87589227Y-112208185D02*
X87596987Y-112190350D01*
X87580901Y-112225748D02*
X87589227Y-112208185D01*
X87572014Y-112243024D02*
X87580901Y-112225748D01*
X87562576Y-112260000D02*
X87572014Y-112243024D01*
X87552594Y-112276661D02*
X87562576Y-112260000D01*
X87542075Y-112292995D02*
X87552594Y-112276661D01*
X87531029Y-112308988D02*
X87542075Y-112292995D01*
X87519463Y-112324625D02*
X87531029Y-112308988D01*
X87507384Y-112339894D02*
X87519463Y-112324625D01*
X87494801Y-112354781D02*
X87507384Y-112339894D01*
X87481721Y-112369272D02*
X87494801Y-112354781D01*
X87468153Y-112383353D02*
X87481721Y-112369272D01*
X87454103Y-112397010D02*
X87468153Y-112383353D01*
X87439581Y-112410231D02*
X87454103Y-112397010D01*
X87424594Y-112423001D02*
X87439581Y-112410231D01*
X87409150Y-112435307D02*
X87424594Y-112423001D01*
X87393257Y-112447135D02*
X87409150Y-112435307D01*
X87376922Y-112458472D02*
X87393257Y-112447135D01*
X87360154Y-112469303D02*
X87376922Y-112458472D01*
X87342960Y-112479615D02*
X87360154Y-112469303D01*
X87325433Y-112489349D02*
X87342960Y-112479615D01*
X87307669Y-112498455D02*
X87325433Y-112489349D01*
X87289684Y-112506933D02*
X87307669Y-112498455D01*
X87271494Y-112514783D02*
X87289684Y-112506933D01*
X87253115Y-112522005D02*
X87271494Y-112514783D01*
X87234562Y-112528599D02*
X87253115Y-112522005D01*
X87215852Y-112534565D02*
X87234562Y-112528599D01*
X87196999Y-112539903D02*
X87215852Y-112534565D01*
X87178020Y-112544613D02*
X87196999Y-112539903D01*
X87158931Y-112548695D02*
X87178020Y-112544613D01*
X87139747Y-112552149D02*
X87158931Y-112548695D01*
X87120485Y-112554975D02*
X87139747Y-112552149D01*
X87101159Y-112557173D02*
X87120485Y-112554975D01*
X87081786Y-112558743D02*
X87101159Y-112557173D01*
X87062381Y-112559685D02*
X87081786Y-112558743D01*
X87042960Y-112560000D02*
X87062381Y-112559685D01*
X87023540Y-112559685D02*
X87042960Y-112560000D01*
X87004135Y-112558743D02*
X87023540Y-112559685D01*
X86984762Y-112557173D02*
X87004135Y-112558743D01*
X86965436Y-112554975D02*
X86984762Y-112557173D01*
X86946174Y-112552149D02*
X86965436Y-112554975D01*
X86926990Y-112548695D02*
X86946174Y-112552149D01*
X86907901Y-112544613D02*
X86926990Y-112548695D01*
X86888922Y-112539903D02*
X86907901Y-112544613D01*
X86870069Y-112534565D02*
X86888922Y-112539903D01*
X86851359Y-112528599D02*
X86870069Y-112534565D01*
X86832806Y-112522005D02*
X86851359Y-112528599D01*
X86814427Y-112514783D02*
X86832806Y-112522005D01*
X86796237Y-112506933D02*
X86814427Y-112514783D01*
X86778252Y-112498455D02*
X86796237Y-112506933D01*
X86760488Y-112489349D02*
X86778252Y-112498455D01*
X86742960Y-112479615D02*
X86760488Y-112489349D01*
X86725767Y-112469303D02*
X86742960Y-112479615D01*
X86708999Y-112458472D02*
X86725767Y-112469303D01*
X86692664Y-112447135D02*
X86708999Y-112458472D01*
X86676771Y-112435307D02*
X86692664Y-112447135D01*
X86661327Y-112423001D02*
X86676771Y-112435307D01*
X86646340Y-112410231D02*
X86661327Y-112423001D01*
X86631818Y-112397010D02*
X86646340Y-112410231D01*
X86617768Y-112383353D02*
X86631818Y-112397010D01*
X86604200Y-112369272D02*
X86617768Y-112383353D01*
X86591120Y-112354781D02*
X86604200Y-112369272D01*
X86578537Y-112339894D02*
X86591120Y-112354781D01*
X86566458Y-112324625D02*
X86578537Y-112339894D01*
X86554892Y-112308988D02*
X86566458Y-112324625D01*
X86543846Y-112292995D02*
X86554892Y-112308988D01*
X86533327Y-112276661D02*
X86543846Y-112292995D01*
X86523345Y-112260000D02*
X86533327Y-112276661D01*
X86513907Y-112243024D02*
X86523345Y-112260000D01*
X86505020Y-112225748D02*
X86513907Y-112243024D01*
X86496694Y-112208185D02*
X86505020Y-112225748D01*
X86488934Y-112190350D02*
X86496694Y-112208185D01*
X86481750Y-112172255D02*
X86488934Y-112190350D01*
X86475150Y-112153914D02*
X86481750Y-112172255D01*
X86469140Y-112135341D02*
X86475150Y-112153914D01*
X86463730Y-112116550D02*
X86469140Y-112135341D01*
X86458926Y-112097554D02*
X86463730Y-112116550D01*
X86454738Y-112078367D02*
X86458926Y-112097554D01*
X86451172Y-112059003D02*
X86454738Y-112078367D01*
X86448237Y-112039475D02*
X86451172Y-112059003D01*
X86445940Y-112019797D02*
X86448237Y-112039475D01*
X86444290Y-111999983D02*
X86445940Y-112019797D01*
X86443294Y-111980046D02*
X86444290Y-111999983D01*
X86442960Y-111960000D02*
X86443294Y-111980046D01*
X86443699Y-111930218D02*
X86442960Y-111960000D01*
X86445902Y-111900639D02*
X86443699Y-111930218D01*
X86449549Y-111871313D02*
X86445902Y-111900639D01*
X86454618Y-111842287D02*
X86449549Y-111871313D01*
X86461090Y-111813611D02*
X86454618Y-111842287D01*
X86468945Y-111785336D02*
X86461090Y-111813611D01*
X86478161Y-111757509D02*
X86468945Y-111785336D01*
X86488719Y-111730181D02*
X86478161Y-111757509D01*
X86500597Y-111703401D02*
X86488719Y-111730181D01*
X86513776Y-111677218D02*
X86500597Y-111703401D01*
X86528235Y-111651681D02*
X86513776Y-111677218D01*
X86543954Y-111626839D02*
X86528235Y-111651681D01*
X86560911Y-111602743D02*
X86543954Y-111626839D01*
X86579088Y-111579441D02*
X86560911Y-111602743D01*
X86598462Y-111556983D02*
X86579088Y-111579441D01*
X86619015Y-111535417D02*
X86598462Y-111556983D01*
X86640611Y-111514897D02*
X86619015Y-111535417D01*
X86663098Y-111495556D02*
X86640611Y-111514897D01*
X86686428Y-111477415D02*
X86663098Y-111495556D01*
X86710549Y-111460493D02*
X86686428Y-111477415D01*
X86735414Y-111444812D02*
X86710549Y-111460493D01*
X86760973Y-111430391D02*
X86735414Y-111444812D01*
X86787176Y-111417252D02*
X86760973Y-111430391D01*
X86813974Y-111405413D02*
X86787176Y-111417252D01*
X86841318Y-111394897D02*
X86813974Y-111405413D01*
X86869158Y-111385722D02*
X86841318Y-111394897D01*
X86897445Y-111377910D02*
X86869158Y-111385722D01*
X86926130Y-111371481D02*
X86897445Y-111377910D01*
X86955164Y-111366455D02*
X86926130Y-111371481D01*
X86984496Y-111362852D02*
X86955164Y-111366455D01*
X87014078Y-111360694D02*
X86984496Y-111362852D01*
X87043860Y-111360000D02*
X87014078Y-111360694D01*
X88963860Y-111360000D02*
X88963860Y-111360000D01*
X88994703Y-111360825D02*
X88963860Y-111360000D01*
X89025139Y-111363183D02*
X88994703Y-111360825D01*
X89055131Y-111367036D02*
X89025139Y-111363183D01*
X89084642Y-111372346D02*
X89055131Y-111367036D01*
X89113634Y-111379076D02*
X89084642Y-111372346D01*
X89142069Y-111387189D02*
X89113634Y-111379076D01*
X89169910Y-111396646D02*
X89142069Y-111387189D01*
X89197119Y-111407409D02*
X89169910Y-111396646D01*
X89223659Y-111419442D02*
X89197119Y-111407409D01*
X89249492Y-111432707D02*
X89223659Y-111419442D01*
X89274580Y-111447166D02*
X89249492Y-111432707D01*
X89298887Y-111462781D02*
X89274580Y-111447166D01*
X89322374Y-111479515D02*
X89298887Y-111462781D01*
X89345004Y-111497330D02*
X89322374Y-111479515D01*
X89366740Y-111516189D02*
X89345004Y-111497330D01*
X89387543Y-111536053D02*
X89366740Y-111516189D01*
X89407376Y-111556886D02*
X89387543Y-111536053D01*
X89426202Y-111578650D02*
X89407376Y-111556886D01*
X89443983Y-111601307D02*
X89426202Y-111578650D01*
X89460682Y-111624819D02*
X89443983Y-111601307D01*
X89476261Y-111649149D02*
X89460682Y-111624819D01*
X89490682Y-111674259D02*
X89476261Y-111649149D01*
X89503908Y-111700112D02*
X89490682Y-111674259D01*
X89515901Y-111726670D02*
X89503908Y-111700112D01*
X89526624Y-111753896D02*
X89515901Y-111726670D01*
X89536039Y-111781751D02*
X89526624Y-111753896D01*
X89544108Y-111810198D02*
X89536039Y-111781751D01*
X89550795Y-111839200D02*
X89544108Y-111810198D01*
X89556061Y-111868718D02*
X89550795Y-111839200D01*
X89559869Y-111898716D02*
X89556061Y-111868718D01*
X89562181Y-111929156D02*
X89559869Y-111898716D01*
X89562960Y-111960000D02*
X89562181Y-111929156D01*
X89562627Y-111980046D02*
X89562960Y-111960000D01*
X89561631Y-111999983D02*
X89562627Y-111980046D01*
X89559981Y-112019797D02*
X89561631Y-111999983D01*
X89557684Y-112039475D02*
X89559981Y-112019797D01*
X89554749Y-112059003D02*
X89557684Y-112039475D01*
X89551183Y-112078367D02*
X89554749Y-112059003D01*
X89546995Y-112097554D02*
X89551183Y-112078367D01*
X89542191Y-112116550D02*
X89546995Y-112097554D01*
X89536781Y-112135341D02*
X89542191Y-112116550D01*
X89530771Y-112153914D02*
X89536781Y-112135341D01*
X89524171Y-112172255D02*
X89530771Y-112153914D01*
X89516987Y-112190350D02*
X89524171Y-112172255D01*
X89509227Y-112208185D02*
X89516987Y-112190350D01*
X89500901Y-112225748D02*
X89509227Y-112208185D01*
X89492014Y-112243024D02*
X89500901Y-112225748D01*
X89482576Y-112260000D02*
X89492014Y-112243024D01*
X89472594Y-112276661D02*
X89482576Y-112260000D01*
X89462075Y-112292995D02*
X89472594Y-112276661D01*
X89451029Y-112308988D02*
X89462075Y-112292995D01*
X89439463Y-112324625D02*
X89451029Y-112308988D01*
X89427384Y-112339894D02*
X89439463Y-112324625D01*
X89414801Y-112354781D02*
X89427384Y-112339894D01*
X89401721Y-112369272D02*
X89414801Y-112354781D01*
X89388153Y-112383353D02*
X89401721Y-112369272D01*
X89374103Y-112397010D02*
X89388153Y-112383353D01*
X89359581Y-112410231D02*
X89374103Y-112397010D01*
X89344594Y-112423001D02*
X89359581Y-112410231D01*
X89329150Y-112435307D02*
X89344594Y-112423001D01*
X89313257Y-112447135D02*
X89329150Y-112435307D01*
X89296922Y-112458472D02*
X89313257Y-112447135D01*
X89280154Y-112469303D02*
X89296922Y-112458472D01*
X89262960Y-112479615D02*
X89280154Y-112469303D01*
X89245433Y-112489349D02*
X89262960Y-112479615D01*
X89227669Y-112498455D02*
X89245433Y-112489349D01*
X89209684Y-112506933D02*
X89227669Y-112498455D01*
X89191494Y-112514783D02*
X89209684Y-112506933D01*
X89173115Y-112522005D02*
X89191494Y-112514783D01*
X89154562Y-112528599D02*
X89173115Y-112522005D01*
X89135852Y-112534565D02*
X89154562Y-112528599D01*
X89116999Y-112539903D02*
X89135852Y-112534565D01*
X89098020Y-112544613D02*
X89116999Y-112539903D01*
X89078931Y-112548695D02*
X89098020Y-112544613D01*
X89059747Y-112552149D02*
X89078931Y-112548695D01*
X89040485Y-112554975D02*
X89059747Y-112552149D01*
X89021159Y-112557173D02*
X89040485Y-112554975D01*
X89001786Y-112558743D02*
X89021159Y-112557173D01*
X88982381Y-112559685D02*
X89001786Y-112558743D01*
X88962960Y-112560000D02*
X88982381Y-112559685D01*
X88943540Y-112559685D02*
X88962960Y-112560000D01*
X88924135Y-112558743D02*
X88943540Y-112559685D01*
X88904762Y-112557173D02*
X88924135Y-112558743D01*
X88885436Y-112554975D02*
X88904762Y-112557173D01*
X88866174Y-112552149D02*
X88885436Y-112554975D01*
X88846990Y-112548695D02*
X88866174Y-112552149D01*
X88827901Y-112544613D02*
X88846990Y-112548695D01*
X88808922Y-112539903D02*
X88827901Y-112544613D01*
X88790069Y-112534565D02*
X88808922Y-112539903D01*
X88771359Y-112528599D02*
X88790069Y-112534565D01*
X88752806Y-112522005D02*
X88771359Y-112528599D01*
X88734427Y-112514783D02*
X88752806Y-112522005D01*
X88716237Y-112506933D02*
X88734427Y-112514783D01*
X88698252Y-112498455D02*
X88716237Y-112506933D01*
X88680488Y-112489349D02*
X88698252Y-112498455D01*
X88662960Y-112479615D02*
X88680488Y-112489349D01*
X88645767Y-112469303D02*
X88662960Y-112479615D01*
X88628999Y-112458472D02*
X88645767Y-112469303D01*
X88612664Y-112447135D02*
X88628999Y-112458472D01*
X88596771Y-112435307D02*
X88612664Y-112447135D01*
X88581327Y-112423001D02*
X88596771Y-112435307D01*
X88566340Y-112410231D02*
X88581327Y-112423001D01*
X88551818Y-112397010D02*
X88566340Y-112410231D01*
X88537768Y-112383353D02*
X88551818Y-112397010D01*
X88524200Y-112369272D02*
X88537768Y-112383353D01*
X88511120Y-112354781D02*
X88524200Y-112369272D01*
X88498537Y-112339894D02*
X88511120Y-112354781D01*
X88486458Y-112324625D02*
X88498537Y-112339894D01*
X88474892Y-112308988D02*
X88486458Y-112324625D01*
X88463846Y-112292995D02*
X88474892Y-112308988D01*
X88453327Y-112276661D02*
X88463846Y-112292995D01*
X88443345Y-112260000D02*
X88453327Y-112276661D01*
X88433907Y-112243024D02*
X88443345Y-112260000D01*
X88425020Y-112225748D02*
X88433907Y-112243024D01*
X88416694Y-112208185D02*
X88425020Y-112225748D01*
X88408934Y-112190350D02*
X88416694Y-112208185D01*
X88401750Y-112172255D02*
X88408934Y-112190350D01*
X88395150Y-112153914D02*
X88401750Y-112172255D01*
X88389140Y-112135341D02*
X88395150Y-112153914D01*
X88383730Y-112116550D02*
X88389140Y-112135341D01*
X88378926Y-112097554D02*
X88383730Y-112116550D01*
X88374738Y-112078367D02*
X88378926Y-112097554D01*
X88371172Y-112059003D02*
X88374738Y-112078367D01*
X88368237Y-112039475D02*
X88371172Y-112059003D01*
X88365940Y-112019797D02*
X88368237Y-112039475D01*
X88364290Y-111999983D02*
X88365940Y-112019797D01*
X88363294Y-111980046D02*
X88364290Y-111999983D01*
X88362960Y-111960000D02*
X88363294Y-111980046D01*
X88363699Y-111930218D02*
X88362960Y-111960000D01*
X88365902Y-111900639D02*
X88363699Y-111930218D01*
X88369549Y-111871313D02*
X88365902Y-111900639D01*
X88374618Y-111842287D02*
X88369549Y-111871313D01*
X88381090Y-111813611D02*
X88374618Y-111842287D01*
X88388945Y-111785336D02*
X88381090Y-111813611D01*
X88398161Y-111757509D02*
X88388945Y-111785336D01*
X88408719Y-111730181D02*
X88398161Y-111757509D01*
X88420597Y-111703401D02*
X88408719Y-111730181D01*
X88433776Y-111677218D02*
X88420597Y-111703401D01*
X88448235Y-111651681D02*
X88433776Y-111677218D01*
X88463954Y-111626839D02*
X88448235Y-111651681D01*
X88480911Y-111602743D02*
X88463954Y-111626839D01*
X88499088Y-111579441D02*
X88480911Y-111602743D01*
X88518462Y-111556983D02*
X88499088Y-111579441D01*
X88539015Y-111535417D02*
X88518462Y-111556983D01*
X88560611Y-111514897D02*
X88539015Y-111535417D01*
X88583098Y-111495556D02*
X88560611Y-111514897D01*
X88606428Y-111477415D02*
X88583098Y-111495556D01*
X88630549Y-111460493D02*
X88606428Y-111477415D01*
X88655414Y-111444812D02*
X88630549Y-111460493D01*
X88680973Y-111430391D02*
X88655414Y-111444812D01*
X88707176Y-111417252D02*
X88680973Y-111430391D01*
X88733974Y-111405413D02*
X88707176Y-111417252D01*
X88761318Y-111394897D02*
X88733974Y-111405413D01*
X88789158Y-111385722D02*
X88761318Y-111394897D01*
X88817445Y-111377910D02*
X88789158Y-111385722D01*
X88846130Y-111371481D02*
X88817445Y-111377910D01*
X88875164Y-111366455D02*
X88846130Y-111371481D01*
X88904496Y-111362852D02*
X88875164Y-111366455D01*
X88934078Y-111360694D02*
X88904496Y-111362852D01*
X88963860Y-111360000D02*
X88934078Y-111360694D01*
X88005544Y-110140000D02*
X88005544Y-110140000D01*
X88047611Y-110140533D02*
X88005544Y-110140000D01*
X88089473Y-110142010D02*
X88047611Y-110140533D01*
X88131117Y-110144420D02*
X88089473Y-110142010D01*
X88172533Y-110147755D02*
X88131117Y-110144420D01*
X88213711Y-110152004D02*
X88172533Y-110147755D01*
X88254638Y-110157158D02*
X88213711Y-110152004D01*
X88295303Y-110163207D02*
X88254638Y-110157158D01*
X88335696Y-110170143D02*
X88295303Y-110163207D01*
X88375805Y-110177955D02*
X88335696Y-110170143D01*
X88415620Y-110186634D02*
X88375805Y-110177955D01*
X88455128Y-110196171D02*
X88415620Y-110186634D01*
X88494319Y-110206556D02*
X88455128Y-110196171D01*
X88533181Y-110217780D02*
X88494319Y-110206556D01*
X88571705Y-110229833D02*
X88533181Y-110217780D01*
X88609877Y-110242706D02*
X88571705Y-110229833D01*
X88647687Y-110256389D02*
X88609877Y-110242706D01*
X88685125Y-110270873D02*
X88647687Y-110256389D01*
X88722178Y-110286148D02*
X88685125Y-110270873D01*
X88758836Y-110302205D02*
X88722178Y-110286148D01*
X88795088Y-110319034D02*
X88758836Y-110302205D01*
X88830922Y-110336626D02*
X88795088Y-110319034D01*
X88866327Y-110354972D02*
X88830922Y-110336626D01*
X88901292Y-110374062D02*
X88866327Y-110354972D01*
X88935806Y-110393885D02*
X88901292Y-110374062D01*
X88969858Y-110414434D02*
X88935806Y-110393885D01*
X89003436Y-110435699D02*
X88969858Y-110414434D01*
X89036530Y-110457669D02*
X89003436Y-110435699D01*
X89069128Y-110480336D02*
X89036530Y-110457669D01*
X89101219Y-110503690D02*
X89069128Y-110480336D01*
X89132792Y-110527721D02*
X89101219Y-110503690D01*
X89163836Y-110552421D02*
X89132792Y-110527721D01*
X89194340Y-110577779D02*
X89163836Y-110552421D01*
X89224292Y-110603786D02*
X89194340Y-110577779D01*
X89253681Y-110630433D02*
X89224292Y-110603786D01*
X89282496Y-110657710D02*
X89253681Y-110630433D01*
X89310727Y-110685608D02*
X89282496Y-110657710D01*
X89338361Y-110714117D02*
X89310727Y-110685608D01*
X89365388Y-110743227D02*
X89338361Y-110714117D01*
X89391797Y-110772930D02*
X89365388Y-110743227D01*
X89417576Y-110803216D02*
X89391797Y-110772930D01*
X89442714Y-110834075D02*
X89417576Y-110803216D01*
X89467201Y-110865498D02*
X89442714Y-110834075D01*
X89491024Y-110897475D02*
X89467201Y-110865498D01*
X89514173Y-110929996D02*
X89491024Y-110897475D01*
X89536637Y-110963054D02*
X89514173Y-110929996D01*
X89558404Y-110996637D02*
X89536637Y-110963054D01*
X89579463Y-111030737D02*
X89558404Y-110996637D01*
X89599804Y-111065343D02*
X89579463Y-111030737D01*
X89619414Y-111100447D02*
X89599804Y-111065343D01*
X89638283Y-111136039D02*
X89619414Y-111100447D01*
X89656400Y-111172109D02*
X89638283Y-111136039D01*
X89673754Y-111208649D02*
X89656400Y-111172109D01*
X89690333Y-111245648D02*
X89673754Y-111208649D01*
X89706126Y-111283097D02*
X89690333Y-111245648D01*
X89721122Y-111320987D02*
X89706126Y-111283097D01*
X89735310Y-111359307D02*
X89721122Y-111320987D01*
X89748678Y-111398050D02*
X89735310Y-111359307D01*
X89761217Y-111437204D02*
X89748678Y-111398050D01*
X89772913Y-111476761D02*
X89761217Y-111437204D01*
X89783757Y-111516712D02*
X89772913Y-111476761D01*
X89793737Y-111557046D02*
X89783757Y-111516712D01*
X89802842Y-111597754D02*
X89793737Y-111557046D01*
X89811061Y-111638827D02*
X89802842Y-111597754D01*
X89818382Y-111680256D02*
X89811061Y-111638827D01*
X89809120Y-111653373D02*
X89818382Y-111680256D01*
X89799055Y-111626897D02*
X89809120Y-111653373D01*
X89788203Y-111600843D02*
X89799055Y-111626897D01*
X89776577Y-111575225D02*
X89788203Y-111600843D01*
X89764193Y-111550055D02*
X89776577Y-111575225D01*
X89751066Y-111525349D02*
X89764193Y-111550055D01*
X89737209Y-111501119D02*
X89751066Y-111525349D01*
X89722637Y-111477380D02*
X89737209Y-111501119D01*
X89707365Y-111454145D02*
X89722637Y-111477380D01*
X89691408Y-111431428D02*
X89707365Y-111454145D01*
X89674780Y-111409244D02*
X89691408Y-111431428D01*
X89657496Y-111387606D02*
X89674780Y-111409244D01*
X89639570Y-111366528D02*
X89657496Y-111387606D01*
X89621018Y-111346023D02*
X89639570Y-111366528D01*
X89601853Y-111326106D02*
X89621018Y-111346023D01*
X89582090Y-111306790D02*
X89601853Y-111326106D01*
X89561744Y-111288090D02*
X89582090Y-111306790D01*
X89540829Y-111270018D02*
X89561744Y-111288090D01*
X89519361Y-111252590D02*
X89540829Y-111270018D01*
X89497353Y-111235818D02*
X89519361Y-111252590D01*
X89474821Y-111219717D02*
X89497353Y-111235818D01*
X89451778Y-111204301D02*
X89474821Y-111219717D01*
X89428240Y-111189583D02*
X89451778Y-111204301D01*
X89404221Y-111175577D02*
X89428240Y-111189583D01*
X89379736Y-111162297D02*
X89404221Y-111175577D01*
X89354799Y-111149757D02*
X89379736Y-111162297D01*
X89329425Y-111137970D02*
X89354799Y-111149757D01*
X89303629Y-111126952D02*
X89329425Y-111137970D01*
X89277424Y-111116714D02*
X89303629Y-111126952D01*
X89250827Y-111107272D02*
X89277424Y-111116714D01*
X89223851Y-111098639D02*
X89250827Y-111107272D01*
X89196510Y-111090829D02*
X89223851Y-111098639D01*
X89168938Y-111083884D02*
X89196510Y-111090829D01*
X89141268Y-111077833D02*
X89168938Y-111083884D01*
X89113520Y-111072673D02*
X89141268Y-111077833D01*
X89085714Y-111068397D02*
X89113520Y-111072673D01*
X89057869Y-111065003D02*
X89085714Y-111068397D01*
X89030004Y-111062484D02*
X89057869Y-111065003D01*
X89002141Y-111060836D02*
X89030004Y-111062484D01*
X88974297Y-111060055D02*
X89002141Y-111060836D01*
X88946493Y-111060136D02*
X88974297Y-111060055D01*
X88918748Y-111061074D02*
X88946493Y-111060136D01*
X88891082Y-111062865D02*
X88918748Y-111061074D01*
X88863514Y-111065504D02*
X88891082Y-111062865D01*
X88836064Y-111068986D02*
X88863514Y-111065504D01*
X88808751Y-111073307D02*
X88836064Y-111068986D01*
X88781596Y-111078462D02*
X88808751Y-111073307D01*
X88754617Y-111084446D02*
X88781596Y-111078462D01*
X88727834Y-111091255D02*
X88754617Y-111084446D01*
X88701268Y-111098884D02*
X88727834Y-111091255D01*
X88674936Y-111107328D02*
X88701268Y-111098884D01*
X88648860Y-111116583D02*
X88674936Y-111107328D01*
X88623058Y-111126644D02*
X88648860Y-111116583D01*
X88597551Y-111137506D02*
X88623058Y-111126644D01*
X88572357Y-111149165D02*
X88597551Y-111137506D01*
X88547496Y-111161616D02*
X88572357Y-111149165D01*
X88522989Y-111174854D02*
X88547496Y-111161616D01*
X88498853Y-111188876D02*
X88522989Y-111174854D01*
X88475110Y-111203675D02*
X88498853Y-111188876D01*
X88451779Y-111219248D02*
X88475110Y-111203675D01*
X88428878Y-111235589D02*
X88451779Y-111219248D01*
X88406429Y-111252695D02*
X88428878Y-111235589D01*
X88384450Y-111270560D02*
X88406429Y-111252695D01*
X88362960Y-111289180D02*
X88384450Y-111270560D01*
X88362960Y-111100000D02*
X88362960Y-111289180D01*
X88062960Y-111100000D02*
X88362960Y-111100000D01*
X88062960Y-112860000D02*
X88062960Y-111100000D01*
X88362960Y-112720000D02*
X88062960Y-112860000D01*
X88362960Y-112630820D02*
X88362960Y-112720000D01*
X88384925Y-112649838D02*
X88362960Y-112630820D01*
X88407399Y-112668067D02*
X88384925Y-112649838D01*
X88430361Y-112685501D02*
X88407399Y-112668067D01*
X88453789Y-112702136D02*
X88430361Y-112685501D01*
X88477664Y-112717966D02*
X88453789Y-112702136D01*
X88501964Y-112732988D02*
X88477664Y-112717966D01*
X88526668Y-112747196D02*
X88501964Y-112732988D01*
X88551756Y-112760586D02*
X88526668Y-112747196D01*
X88577206Y-112773153D02*
X88551756Y-112760586D01*
X88602998Y-112784892D02*
X88577206Y-112773153D01*
X88629111Y-112795798D02*
X88602998Y-112784892D01*
X88655524Y-112805867D02*
X88629111Y-112795798D01*
X88682216Y-112815094D02*
X88655524Y-112805867D01*
X88709165Y-112823474D02*
X88682216Y-112815094D01*
X88736352Y-112831002D02*
X88709165Y-112823474D01*
X88763756Y-112837675D02*
X88736352Y-112831002D01*
X88791354Y-112843486D02*
X88763756Y-112837675D01*
X88819128Y-112848431D02*
X88791354Y-112843486D01*
X88847055Y-112852506D02*
X88819128Y-112848431D01*
X88875114Y-112855706D02*
X88847055Y-112852506D01*
X88903286Y-112858026D02*
X88875114Y-112855706D01*
X88931548Y-112859461D02*
X88903286Y-112858026D01*
X88959881Y-112860006D02*
X88931548Y-112859461D01*
X88988262Y-112859658D02*
X88959881Y-112860006D01*
X89016672Y-112858410D02*
X88988262Y-112859658D01*
X89045090Y-112856259D02*
X89016672Y-112858410D01*
X89073494Y-112853199D02*
X89045090Y-112856259D01*
X89101863Y-112849226D02*
X89073494Y-112853199D01*
X89130177Y-112844335D02*
X89101863Y-112849226D01*
X89158415Y-112838521D02*
X89130177Y-112844335D01*
X89186556Y-112831780D02*
X89158415Y-112838521D01*
X89214579Y-112824107D02*
X89186556Y-112831780D01*
X89242341Y-112815536D02*
X89214579Y-112824107D01*
X89269701Y-112806116D02*
X89242341Y-112815536D01*
X89296646Y-112795861D02*
X89269701Y-112806116D01*
X89323160Y-112784786D02*
X89296646Y-112795861D01*
X89349227Y-112772908D02*
X89323160Y-112784786D01*
X89374833Y-112760240D02*
X89349227Y-112772908D01*
X89399963Y-112746799D02*
X89374833Y-112760240D01*
X89424602Y-112732600D02*
X89399963Y-112746799D01*
X89448734Y-112717657D02*
X89424602Y-112732600D01*
X89472344Y-112701986D02*
X89448734Y-112717657D01*
X89495418Y-112685602D02*
X89472344Y-112701986D01*
X89517940Y-112668521D02*
X89495418Y-112685602D01*
X89539895Y-112650757D02*
X89517940Y-112668521D01*
X89561269Y-112632327D02*
X89539895Y-112650757D01*
X89582045Y-112613244D02*
X89561269Y-112632327D01*
X89602210Y-112593524D02*
X89582045Y-112613244D01*
X89621747Y-112573183D02*
X89602210Y-112593524D01*
X89640642Y-112552236D02*
X89621747Y-112573183D01*
X89658880Y-112530698D02*
X89640642Y-112552236D01*
X89676445Y-112508584D02*
X89658880Y-112530698D01*
X89693323Y-112485909D02*
X89676445Y-112508584D01*
X89709499Y-112462688D02*
X89693323Y-112485909D01*
X89724957Y-112438938D02*
X89709499Y-112462688D01*
X89739682Y-112414673D02*
X89724957Y-112438938D01*
X89753659Y-112389907D02*
X89739682Y-112414673D01*
X89766874Y-112364658D02*
X89753659Y-112389907D01*
X89779310Y-112338938D02*
X89766874Y-112364658D01*
X89790954Y-112312765D02*
X89779310Y-112338938D01*
X89801789Y-112286153D02*
X89790954Y-112312765D01*
X89811802Y-112259117D02*
X89801789Y-112286153D01*
X89820976Y-112231673D02*
X89811802Y-112259117D01*
X89829296Y-112203836D02*
X89820976Y-112231673D01*
X89823507Y-112246919D02*
X89829296Y-112203836D01*
X89816747Y-112289657D02*
X89823507Y-112246919D01*
X89809029Y-112332037D02*
X89816747Y-112289657D01*
X89800365Y-112374049D02*
X89809029Y-112332037D01*
X89790766Y-112415683D02*
X89800365Y-112374049D01*
X89780245Y-112456928D02*
X89790766Y-112415683D01*
X89768815Y-112497774D02*
X89780245Y-112456928D01*
X89756486Y-112538209D02*
X89768815Y-112497774D01*
X89743270Y-112578223D02*
X89756486Y-112538209D01*
X89729181Y-112617806D02*
X89743270Y-112578223D01*
X89714229Y-112656946D02*
X89729181Y-112617806D01*
X89698428Y-112695634D02*
X89714229Y-112656946D01*
X89681788Y-112733859D02*
X89698428Y-112695634D01*
X89664322Y-112771609D02*
X89681788Y-112733859D01*
X89646042Y-112808875D02*
X89664322Y-112771609D01*
X89626959Y-112845646D02*
X89646042Y-112808875D01*
X89607087Y-112881911D02*
X89626959Y-112845646D01*
X89586436Y-112917659D02*
X89607087Y-112881911D01*
X89565020Y-112952880D02*
X89586436Y-112917659D01*
X89542849Y-112987564D02*
X89565020Y-112952880D01*
X89519936Y-113021699D02*
X89542849Y-112987564D01*
X89496293Y-113055275D02*
X89519936Y-113021699D01*
X89471931Y-113088282D02*
X89496293Y-113055275D01*
X89446864Y-113120708D02*
X89471931Y-113088282D01*
X89421103Y-113152543D02*
X89446864Y-113120708D01*
X89394659Y-113183777D02*
X89421103Y-113152543D01*
X89367546Y-113214399D02*
X89394659Y-113183777D01*
X89339774Y-113244399D02*
X89367546Y-113214399D01*
X89311356Y-113273764D02*
X89339774Y-113244399D01*
X89282304Y-113302486D02*
X89311356Y-113273764D01*
X89252630Y-113330554D02*
X89282304Y-113302486D01*
X89222346Y-113357956D02*
X89252630Y-113330554D01*
X89191464Y-113384682D02*
X89222346Y-113357956D01*
X89159996Y-113410722D02*
X89191464Y-113384682D01*
X89127954Y-113436065D02*
X89159996Y-113410722D01*
X89095349Y-113460700D02*
X89127954Y-113436065D01*
X89062195Y-113484616D02*
X89095349Y-113460700D01*
X89028502Y-113507804D02*
X89062195Y-113484616D01*
X88994284Y-113530252D02*
X89028502Y-113507804D01*
X88959551Y-113551950D02*
X88994284Y-113530252D01*
X88924317Y-113572888D02*
X88959551Y-113551950D01*
X88888592Y-113593053D02*
X88924317Y-113572888D01*
X88852390Y-113612437D02*
X88888592Y-113593053D01*
X88815721Y-113631028D02*
X88852390Y-113612437D01*
X88778599Y-113648816D02*
X88815721Y-113631028D01*
X88741034Y-113665790D02*
X88778599Y-113648816D01*
X88703039Y-113681939D02*
X88741034Y-113665790D01*
X88664627Y-113697253D02*
X88703039Y-113681939D01*
X88625808Y-113711721D02*
X88664627Y-113697253D01*
X88586595Y-113725333D02*
X88625808Y-113711721D01*
X88547001Y-113738078D02*
X88586595Y-113725333D01*
X88507036Y-113749945D02*
X88547001Y-113738078D01*
X88466713Y-113760923D02*
X88507036Y-113749945D01*
X88426045Y-113771003D02*
X88466713Y-113760923D01*
X88385042Y-113780174D02*
X88426045Y-113771003D01*
X88343718Y-113788424D02*
X88385042Y-113780174D01*
X88302083Y-113795743D02*
X88343718Y-113788424D01*
X88260151Y-113802121D02*
X88302083Y-113795743D01*
X88217932Y-113807547D02*
X88260151Y-113802121D01*
X88175440Y-113812010D02*
X88217932Y-113807547D01*
X88132686Y-113815500D02*
X88175440Y-113812010D01*
X88089681Y-113818006D02*
X88132686Y-113815500D01*
X88046439Y-113819518D02*
X88089681Y-113818006D01*
X88002971Y-113820024D02*
X88046439Y-113819518D01*
X87959503Y-113819518D02*
X88002971Y-113820024D01*
X87916261Y-113818008D02*
X87959503Y-113819518D01*
X87873256Y-113815502D02*
X87916261Y-113818008D01*
X87830502Y-113812013D02*
X87873256Y-113815502D01*
X87788010Y-113807550D02*
X87830502Y-113812013D01*
X87745791Y-113802124D02*
X87788010Y-113807550D01*
X87703859Y-113795747D02*
X87745791Y-113802124D01*
X87662224Y-113788428D02*
X87703859Y-113795747D01*
X87620899Y-113780179D02*
X87662224Y-113788428D01*
X87579897Y-113771009D02*
X87620899Y-113780179D01*
X87539228Y-113760930D02*
X87579897Y-113771009D01*
X87498905Y-113749951D02*
X87539228Y-113760930D01*
X87458940Y-113738085D02*
X87498905Y-113749951D01*
X87419346Y-113725341D02*
X87458940Y-113738085D01*
X87380133Y-113711729D02*
X87419346Y-113725341D01*
X87341314Y-113697262D02*
X87380133Y-113711729D01*
X87302901Y-113681948D02*
X87341314Y-113697262D01*
X87264906Y-113665799D02*
X87302901Y-113681948D01*
X87227341Y-113648826D02*
X87264906Y-113665799D01*
X87190219Y-113631039D02*
X87227341Y-113648826D01*
X87153550Y-113612448D02*
X87190219Y-113631039D01*
X87117347Y-113593065D02*
X87153550Y-113612448D01*
X87081622Y-113572900D02*
X87117347Y-113593065D01*
X87046387Y-113551963D02*
X87081622Y-113572900D01*
X87011654Y-113530265D02*
X87046387Y-113551963D01*
X86977436Y-113507818D02*
X87011654Y-113530265D01*
X86943743Y-113484630D02*
X86977436Y-113507818D01*
X86910588Y-113460714D02*
X86943743Y-113484630D01*
X86877984Y-113436079D02*
X86910588Y-113460714D01*
X86845941Y-113410737D02*
X86877984Y-113436079D01*
X86814473Y-113384698D02*
X86845941Y-113410737D01*
X86783590Y-113357972D02*
X86814473Y-113384698D01*
X86753306Y-113330570D02*
X86783590Y-113357972D01*
X86723631Y-113302503D02*
X86753306Y-113330570D01*
X86694579Y-113273782D02*
X86723631Y-113302503D01*
X86666161Y-113244416D02*
X86694579Y-113273782D01*
X86638389Y-113214417D02*
X86666161Y-113244416D01*
X86611275Y-113183796D02*
X86638389Y-113214417D01*
X86584831Y-113152562D02*
X86611275Y-113183796D01*
X86559069Y-113120727D02*
X86584831Y-113152562D01*
X86534001Y-113088301D02*
X86559069Y-113120727D01*
X86509640Y-113055295D02*
X86534001Y-113088301D01*
X86485996Y-113021719D02*
X86509640Y-113055295D01*
X86463083Y-112987584D02*
X86485996Y-113021719D01*
X86440911Y-112952901D02*
X86463083Y-112987584D01*
X86419494Y-112917680D02*
X86440911Y-112952901D01*
X86398843Y-112881932D02*
X86419494Y-112917680D01*
X86378970Y-112845667D02*
X86398843Y-112881932D01*
X86359887Y-112808897D02*
X86378970Y-112845667D01*
X86341607Y-112771631D02*
X86359887Y-112808897D01*
X86324140Y-112733881D02*
X86341607Y-112771631D01*
X86307500Y-112695657D02*
X86324140Y-112733881D01*
X86291698Y-112656969D02*
X86307500Y-112695657D01*
X86276745Y-112617828D02*
X86291698Y-112656969D01*
X86262656Y-112578246D02*
X86276745Y-112617828D01*
X86249440Y-112538232D02*
X86262656Y-112578246D01*
X86237110Y-112497797D02*
X86249440Y-112538232D01*
X86225679Y-112456952D02*
X86237110Y-112497797D01*
X86215158Y-112415707D02*
X86225679Y-112456952D01*
X86205559Y-112374073D02*
X86215158Y-112415707D01*
X86196894Y-112332061D02*
X86205559Y-112374073D01*
X86189175Y-112289680D02*
X86196894Y-112332061D01*
X86182415Y-112246943D02*
X86189175Y-112289680D01*
X86176624Y-112203860D02*
X86182415Y-112246943D01*
X86184946Y-112231697D02*
X86176624Y-112203860D01*
X86194120Y-112259141D02*
X86184946Y-112231697D01*
X86204133Y-112286176D02*
X86194120Y-112259141D01*
X86214969Y-112312788D02*
X86204133Y-112286176D01*
X86226613Y-112338960D02*
X86214969Y-112312788D01*
X86239050Y-112364679D02*
X86226613Y-112338960D01*
X86252265Y-112389928D02*
X86239050Y-112364679D01*
X86266243Y-112414693D02*
X86252265Y-112389928D01*
X86280969Y-112438958D02*
X86266243Y-112414693D01*
X86296427Y-112462708D02*
X86280969Y-112438958D01*
X86312603Y-112485928D02*
X86296427Y-112462708D01*
X86329481Y-112508602D02*
X86312603Y-112485928D01*
X86347047Y-112530716D02*
X86329481Y-112508602D01*
X86365285Y-112552254D02*
X86347047Y-112530716D01*
X86384180Y-112573201D02*
X86365285Y-112552254D01*
X86403718Y-112593541D02*
X86384180Y-112573201D01*
X86423882Y-112613260D02*
X86403718Y-112593541D01*
X86444659Y-112632342D02*
X86423882Y-112613260D01*
X86466033Y-112650773D02*
X86444659Y-112632342D01*
X86487988Y-112668536D02*
X86466033Y-112650773D01*
X86510510Y-112685616D02*
X86487988Y-112668536D01*
X86533584Y-112702000D02*
X86510510Y-112685616D01*
X86557195Y-112717670D02*
X86533584Y-112702000D01*
X86581327Y-112732612D02*
X86557195Y-112717670D01*
X86605966Y-112746811D02*
X86581327Y-112732612D01*
X86631096Y-112760252D02*
X86605966Y-112746811D01*
X86656702Y-112772919D02*
X86631096Y-112760252D01*
X86682769Y-112784797D02*
X86656702Y-112772919D01*
X86709283Y-112795871D02*
X86682769Y-112784797D01*
X86736227Y-112806125D02*
X86709283Y-112795871D01*
X86763588Y-112815545D02*
X86736227Y-112806125D01*
X86791350Y-112824116D02*
X86763588Y-112815545D01*
X86819372Y-112831788D02*
X86791350Y-112824116D01*
X86847513Y-112838529D02*
X86819372Y-112831788D01*
X86875751Y-112844342D02*
X86847513Y-112838529D01*
X86904065Y-112849233D02*
X86875751Y-112844342D01*
X86932434Y-112853205D02*
X86904065Y-112849233D01*
X86960838Y-112856265D02*
X86932434Y-112853205D01*
X86989255Y-112858416D02*
X86960838Y-112856265D01*
X87017665Y-112859663D02*
X86989255Y-112858416D01*
X87046047Y-112860011D02*
X87017665Y-112859663D01*
X87074379Y-112859465D02*
X87046047Y-112860011D01*
X87102641Y-112858030D02*
X87074379Y-112859465D01*
X87130812Y-112855710D02*
X87102641Y-112858030D01*
X87158872Y-112852510D02*
X87130812Y-112855710D01*
X87186799Y-112848434D02*
X87158872Y-112852510D01*
X87214572Y-112843489D02*
X87186799Y-112848434D01*
X87242170Y-112837677D02*
X87214572Y-112843489D01*
X87269573Y-112831005D02*
X87242170Y-112837677D01*
X87296760Y-112823476D02*
X87269573Y-112831005D01*
X87323709Y-112815095D02*
X87296760Y-112823476D01*
X87350401Y-112805868D02*
X87323709Y-112815095D01*
X87376813Y-112795799D02*
X87350401Y-112805868D01*
X87402926Y-112784893D02*
X87376813Y-112795799D01*
X87428717Y-112773154D02*
X87402926Y-112784893D01*
X87454167Y-112760587D02*
X87428717Y-112773154D01*
X87479255Y-112747197D02*
X87454167Y-112760587D01*
X87503959Y-112732989D02*
X87479255Y-112747197D01*
X87528259Y-112717967D02*
X87503959Y-112732989D01*
X87552133Y-112702136D02*
X87528259Y-112717967D01*
X87575561Y-112685501D02*
X87552133Y-112702136D01*
X87598523Y-112668067D02*
X87575561Y-112685501D01*
X87620996Y-112649838D02*
X87598523Y-112668067D01*
X87642960Y-112630820D02*
X87620996Y-112649838D01*
X87642960Y-112720000D02*
X87642960Y-112630820D01*
X87942960Y-112860000D02*
X87642960Y-112720000D01*
X87942960Y-111962024D02*
X87942960Y-112860000D01*
X87942960Y-111960000D02*
X87942960Y-111962024D01*
X87942960Y-111100000D02*
X87942960Y-111960000D01*
X87642960Y-111100000D02*
X87942960Y-111100000D01*
X87642960Y-111289180D02*
X87642960Y-111100000D01*
X87621472Y-111270560D02*
X87642960Y-111289180D01*
X87599493Y-111252695D02*
X87621472Y-111270560D01*
X87577044Y-111235590D02*
X87599493Y-111252695D01*
X87554143Y-111219248D02*
X87577044Y-111235590D01*
X87530812Y-111203676D02*
X87554143Y-111219248D01*
X87507069Y-111188877D02*
X87530812Y-111203676D01*
X87482935Y-111174855D02*
X87507069Y-111188877D01*
X87458427Y-111161617D02*
X87482935Y-111174855D01*
X87433567Y-111149166D02*
X87458427Y-111161617D01*
X87408373Y-111137507D02*
X87433567Y-111149166D01*
X87382866Y-111126645D02*
X87408373Y-111137507D01*
X87357065Y-111116584D02*
X87382866Y-111126645D01*
X87330989Y-111107329D02*
X87357065Y-111116584D01*
X87304658Y-111098885D02*
X87330989Y-111107329D01*
X87278091Y-111091256D02*
X87304658Y-111098885D01*
X87251309Y-111084447D02*
X87278091Y-111091256D01*
X87224331Y-111078463D02*
X87251309Y-111084447D01*
X87197176Y-111073308D02*
X87224331Y-111078463D01*
X87169863Y-111068987D02*
X87197176Y-111073308D01*
X87142414Y-111065504D02*
X87169863Y-111068987D01*
X87114846Y-111062865D02*
X87142414Y-111065504D01*
X87087180Y-111061074D02*
X87114846Y-111062865D01*
X87059436Y-111060136D02*
X87087180Y-111061074D01*
X87031632Y-111060055D02*
X87059436Y-111060136D01*
X87003788Y-111060835D02*
X87031632Y-111060055D01*
X86975925Y-111062483D02*
X87003788Y-111060835D01*
X86948061Y-111065001D02*
X86975925Y-111062483D01*
X86920216Y-111068396D02*
X86948061Y-111065001D01*
X86892410Y-111072671D02*
X86920216Y-111068396D01*
X86864663Y-111077831D02*
X86892410Y-111072671D01*
X86836993Y-111083881D02*
X86864663Y-111077831D01*
X86809420Y-111090826D02*
X86836993Y-111083881D01*
X86782080Y-111098636D02*
X86809420Y-111090826D01*
X86755105Y-111107268D02*
X86782080Y-111098636D01*
X86728507Y-111116710D02*
X86755105Y-111107268D01*
X86702303Y-111126947D02*
X86728507Y-111116710D01*
X86676507Y-111137965D02*
X86702303Y-111126947D01*
X86651133Y-111149751D02*
X86676507Y-111137965D01*
X86626196Y-111162291D02*
X86651133Y-111149751D01*
X86601711Y-111175570D02*
X86626196Y-111162291D01*
X86577692Y-111189575D02*
X86601711Y-111175570D01*
X86554154Y-111204293D02*
X86577692Y-111189575D01*
X86531111Y-111219709D02*
X86554154Y-111204293D01*
X86508579Y-111235809D02*
X86531111Y-111219709D01*
X86486571Y-111252581D02*
X86508579Y-111235809D01*
X86465103Y-111270008D02*
X86486571Y-111252581D01*
X86444188Y-111288079D02*
X86465103Y-111270008D01*
X86423842Y-111306779D02*
X86444188Y-111288079D01*
X86404079Y-111326094D02*
X86423842Y-111306779D01*
X86384914Y-111346011D02*
X86404079Y-111326094D01*
X86366361Y-111366515D02*
X86384914Y-111346011D01*
X86348435Y-111387593D02*
X86366361Y-111366515D01*
X86331151Y-111409230D02*
X86348435Y-111387593D01*
X86314523Y-111431414D02*
X86331151Y-111409230D01*
X86298565Y-111454130D02*
X86314523Y-111431414D01*
X86283293Y-111477364D02*
X86298565Y-111454130D01*
X86268721Y-111501103D02*
X86283293Y-111477364D01*
X86254864Y-111525332D02*
X86268721Y-111501103D01*
X86241736Y-111550038D02*
X86254864Y-111525332D01*
X86229352Y-111575207D02*
X86241736Y-111550038D01*
X86217726Y-111600825D02*
X86229352Y-111575207D01*
X86206873Y-111626878D02*
X86217726Y-111600825D01*
X86196807Y-111653353D02*
X86206873Y-111626878D01*
X86187544Y-111680236D02*
X86196807Y-111653353D01*
X86194883Y-111638718D02*
X86187544Y-111680236D01*
X86203123Y-111597558D02*
X86194883Y-111638718D01*
X86212252Y-111556765D02*
X86203123Y-111597558D01*
X86222260Y-111516348D02*
X86212252Y-111556765D01*
X86233135Y-111476317D02*
X86222260Y-111516348D01*
X86244867Y-111436681D02*
X86233135Y-111476317D01*
X86257443Y-111397450D02*
X86244867Y-111436681D01*
X86270853Y-111358634D02*
X86257443Y-111397450D01*
X86285085Y-111320241D02*
X86270853Y-111358634D01*
X86300129Y-111282282D02*
X86285085Y-111320241D01*
X86315972Y-111244766D02*
X86300129Y-111282282D01*
X86332604Y-111207702D02*
X86315972Y-111244766D01*
X86350014Y-111171100D02*
X86332604Y-111207702D01*
X86368189Y-111134970D02*
X86350014Y-111171100D01*
X86387120Y-111099320D02*
X86368189Y-111134970D01*
X86406794Y-111064161D02*
X86387120Y-111099320D01*
X86427201Y-111029503D02*
X86406794Y-111064161D01*
X86448329Y-110995353D02*
X86427201Y-111029503D01*
X86470167Y-110961723D02*
X86448329Y-110995353D01*
X86492704Y-110928622D02*
X86470167Y-110961723D01*
X86515928Y-110896059D02*
X86492704Y-110928622D01*
X86539829Y-110864043D02*
X86515928Y-110896059D01*
X86564395Y-110832584D02*
X86539829Y-110864043D01*
X86589615Y-110801693D02*
X86564395Y-110832584D01*
X86615477Y-110771377D02*
X86589615Y-110801693D01*
X86641970Y-110741647D02*
X86615477Y-110771377D01*
X86669084Y-110712512D02*
X86641970Y-110741647D01*
X86696807Y-110683983D02*
X86669084Y-110712512D01*
X86725127Y-110656067D02*
X86696807Y-110683983D01*
X86754034Y-110628775D02*
X86725127Y-110656067D01*
X86783515Y-110602117D02*
X86754034Y-110628775D01*
X86813561Y-110576101D02*
X86783515Y-110602117D01*
X86844160Y-110550738D02*
X86813561Y-110576101D01*
X86875300Y-110526037D02*
X86844160Y-110550738D01*
X86906970Y-110502007D02*
X86875300Y-110526037D01*
X86939159Y-110478658D02*
X86906970Y-110502007D01*
X86971856Y-110456000D02*
X86939159Y-110478658D01*
X87005049Y-110434041D02*
X86971856Y-110456000D01*
X87038728Y-110412792D02*
X87005049Y-110434041D01*
X87072881Y-110392262D02*
X87038728Y-110412792D01*
X87107496Y-110372461D02*
X87072881Y-110392262D01*
X87142563Y-110353398D02*
X87107496Y-110372461D01*
X87178071Y-110335082D02*
X87142563Y-110353398D01*
X87214008Y-110317523D02*
X87178071Y-110335082D01*
X87250362Y-110300731D02*
X87214008Y-110317523D01*
X87287123Y-110284715D02*
X87250362Y-110300731D01*
X87324279Y-110269485D02*
X87287123Y-110284715D01*
X87361820Y-110255050D02*
X87324279Y-110269485D01*
X87399734Y-110241419D02*
X87361820Y-110255050D01*
X87438009Y-110228603D02*
X87399734Y-110241419D01*
X87476634Y-110216610D02*
X87438009Y-110228603D01*
X87515599Y-110205451D02*
X87476634Y-110216610D01*
X87554892Y-110195135D02*
X87515599Y-110205451D01*
X87594501Y-110185671D02*
X87554892Y-110195135D01*
X87634416Y-110177068D02*
X87594501Y-110185671D01*
X87674626Y-110169337D02*
X87634416Y-110177068D01*
X87715118Y-110162487D02*
X87674626Y-110169337D01*
X87755882Y-110156527D02*
X87715118Y-110162487D01*
X87796907Y-110151467D02*
X87755882Y-110156527D01*
X87838181Y-110147317D02*
X87796907Y-110151467D01*
X87879692Y-110144085D02*
X87838181Y-110147317D01*
X87921431Y-110141782D02*
X87879692Y-110144085D01*
X87963386Y-110140417D02*
X87921431Y-110141782D01*
X88005544Y-110140000D02*
X87963386Y-110140417D01*
X88000000Y-110000000D02*
X88000000Y-110000000D01*
X87948950Y-110000721D02*
X88000000Y-110000000D01*
X87898220Y-110002723D02*
X87948950Y-110000721D01*
X87847825Y-110005989D02*
X87898220Y-110002723D01*
X87797781Y-110010504D02*
X87847825Y-110005989D01*
X87748103Y-110016252D02*
X87797781Y-110010504D01*
X87698806Y-110023218D02*
X87748103Y-110016252D01*
X87649907Y-110031387D02*
X87698806Y-110023218D01*
X87601421Y-110040742D02*
X87649907Y-110031387D01*
X87553362Y-110051269D02*
X87601421Y-110040742D01*
X87505748Y-110062951D02*
X87553362Y-110051269D01*
X87458592Y-110075774D02*
X87505748Y-110062951D01*
X87411911Y-110089722D02*
X87458592Y-110075774D01*
X87365721Y-110104779D02*
X87411911Y-110089722D01*
X87320036Y-110120929D02*
X87365721Y-110104779D01*
X87274872Y-110138158D02*
X87320036Y-110120929D01*
X87230245Y-110156449D02*
X87274872Y-110138158D01*
X87186170Y-110175788D02*
X87230245Y-110156449D01*
X87142663Y-110196158D02*
X87186170Y-110175788D01*
X87099739Y-110217544D02*
X87142663Y-110196158D01*
X87057414Y-110239931D02*
X87099739Y-110217544D01*
X87015702Y-110263303D02*
X87057414Y-110239931D01*
X86974620Y-110287645D02*
X87015702Y-110263303D01*
X86934184Y-110312940D02*
X86974620Y-110287645D01*
X86894408Y-110339175D02*
X86934184Y-110312940D01*
X86855308Y-110366332D02*
X86894408Y-110339175D01*
X86816900Y-110394397D02*
X86855308Y-110366332D01*
X86779199Y-110423353D02*
X86816900Y-110394397D01*
X86742220Y-110453186D02*
X86779199Y-110423353D01*
X86705980Y-110483881D02*
X86742220Y-110453186D01*
X86670493Y-110515420D02*
X86705980Y-110483881D01*
X86635775Y-110547790D02*
X86670493Y-110515420D01*
X86601842Y-110580974D02*
X86635775Y-110547790D01*
X86568709Y-110614956D02*
X86601842Y-110580974D01*
X86536392Y-110649722D02*
X86568709Y-110614956D01*
X89831247Y-112740155D02*
X89805642Y-112799013D01*
X89854954Y-112680441D02*
X89831247Y-112740155D01*
X89876737Y-112619917D02*
X89854954Y-112680441D01*
X89896568Y-112558627D02*
X89876737Y-112619917D01*
X89914422Y-112496616D02*
X89896568Y-112558627D01*
X89930273Y-112433930D02*
X89914422Y-112496616D01*
X89944095Y-112370614D02*
X89930273Y-112433930D01*
X89955862Y-112306712D02*
X89944095Y-112370614D01*
X89965548Y-112242269D02*
X89955862Y-112306712D01*
X89973127Y-112177332D02*
X89965548Y-112242269D01*
X86027348Y-112111945D02*
X86024062Y-112046152D01*
X86032794Y-112177332D02*
X86027348Y-112111945D01*
X86040373Y-112242269D02*
X86032794Y-112177332D01*
X86050059Y-112306712D02*
X86040373Y-112242269D01*
X86061826Y-112370614D02*
X86050059Y-112306712D01*
X86075648Y-112433930D02*
X86061826Y-112370614D01*
X86091499Y-112496616D02*
X86075648Y-112433930D01*
X86109353Y-112558627D02*
X86091499Y-112496616D01*
X86129184Y-112619917D02*
X86109353Y-112558627D01*
X86150967Y-112680441D02*
X86129184Y-112619917D01*
X86174674Y-112740155D02*
X86150967Y-112680441D01*
X86200279Y-112799013D02*
X86174674Y-112740155D01*
X86227758Y-112856969D02*
X86200279Y-112799013D01*
X86257084Y-112913980D02*
X86227758Y-112856969D01*
X86288230Y-112970000D02*
X86257084Y-112913980D01*
X86321171Y-113024983D02*
X86288230Y-112970000D01*
X86355881Y-113078885D02*
X86321171Y-113024983D01*
X86392334Y-113131661D02*
X86355881Y-113078885D01*
X86430503Y-113183265D02*
X86392334Y-113131661D01*
X86470363Y-113233652D02*
X86430503Y-113183265D01*
X86511888Y-113282778D02*
X86470363Y-113233652D01*
X86555051Y-113330598D02*
X86511888Y-113282778D01*
X86599826Y-113377065D02*
X86555051Y-113330598D01*
X86646189Y-113422136D02*
X86599826Y-113377065D01*
X86694111Y-113465764D02*
X86646189Y-113422136D01*
X86743569Y-113507906D02*
X86694111Y-113465764D01*
X86794534Y-113548515D02*
X86743569Y-113507906D01*
X86846982Y-113587547D02*
X86794534Y-113548515D01*
X86900887Y-113624957D02*
X86846982Y-113587547D01*
X86956221Y-113660700D02*
X86900887Y-113624957D01*
X87012960Y-113694730D02*
X86956221Y-113660700D01*
X87070801Y-113726852D02*
X87012960Y-113694730D01*
X87129422Y-113756902D02*
X87070801Y-113726852D01*
X87188772Y-113784880D02*
X87129422Y-113756902D01*
X87248799Y-113810785D02*
X87188772Y-113784880D01*
X87309451Y-113834618D02*
X87248799Y-113810785D01*
X87370675Y-113856379D02*
X87309451Y-113834618D01*
X87432420Y-113876067D02*
X87370675Y-113856379D01*
X87494633Y-113893682D02*
X87432420Y-113876067D01*
X87557263Y-113909225D02*
X87494633Y-113893682D01*
X87620257Y-113922696D02*
X87557263Y-113909225D01*
X87683564Y-113934094D02*
X87620257Y-113922696D01*
X87747131Y-113943420D02*
X87683564Y-113934094D01*
X87810906Y-113950674D02*
X87747131Y-113943420D01*
X87874837Y-113955855D02*
X87810906Y-113950674D01*
X87938873Y-113958963D02*
X87874837Y-113955855D01*
X88002960Y-113960000D02*
X87938873Y-113958963D01*
X88067048Y-113958963D02*
X88002960Y-113960000D01*
X88131084Y-113955855D02*
X88067048Y-113958963D01*
X88195015Y-113950674D02*
X88131084Y-113955855D01*
X88258790Y-113943420D02*
X88195015Y-113950674D01*
X88322357Y-113934094D02*
X88258790Y-113943420D01*
X88385664Y-113922696D02*
X88322357Y-113934094D01*
X88448658Y-113909225D02*
X88385664Y-113922696D01*
X88511288Y-113893682D02*
X88448658Y-113909225D01*
X88573501Y-113876067D02*
X88511288Y-113893682D01*
X88635246Y-113856379D02*
X88573501Y-113876067D01*
X88696470Y-113834618D02*
X88635246Y-113856379D01*
X88757122Y-113810785D02*
X88696470Y-113834618D01*
X88817149Y-113784880D02*
X88757122Y-113810785D01*
X88876499Y-113756902D02*
X88817149Y-113784880D01*
X88935120Y-113726852D02*
X88876499Y-113756902D01*
X88992960Y-113694730D02*
X88935120Y-113726852D01*
X89049700Y-113660700D02*
X88992960Y-113694730D01*
X89105034Y-113624957D02*
X89049700Y-113660700D01*
X89158939Y-113587547D02*
X89105034Y-113624957D01*
X89211387Y-113548515D02*
X89158939Y-113587547D01*
X89262352Y-113507906D02*
X89211387Y-113548515D01*
X89311810Y-113465764D02*
X89262352Y-113507906D01*
X89359732Y-113422136D02*
X89311810Y-113465764D01*
X89406095Y-113377065D02*
X89359732Y-113422136D01*
X89450870Y-113330598D02*
X89406095Y-113377065D01*
X89494033Y-113282778D02*
X89450870Y-113330598D01*
X89535558Y-113233652D02*
X89494033Y-113282778D01*
X89575418Y-113183265D02*
X89535558Y-113233652D01*
X89613587Y-113131661D02*
X89575418Y-113183265D01*
X89650040Y-113078885D02*
X89613587Y-113131661D01*
X89684750Y-113024983D02*
X89650040Y-113078885D01*
X89717691Y-112970000D02*
X89684750Y-113024983D01*
X89748837Y-112913980D02*
X89717691Y-112970000D01*
X89778163Y-112856969D02*
X89748837Y-112913980D01*
X89805642Y-112799013D02*
X89778163Y-112856969D01*
X86504905Y-110685256D02*
X86536392Y-110649722D01*
X86474265Y-110721543D02*
X86504905Y-110685256D01*
X86444487Y-110758566D02*
X86474265Y-110721543D01*
X86415587Y-110796310D02*
X86444487Y-110758566D01*
X86387580Y-110834760D02*
X86415587Y-110796310D01*
X86360481Y-110873901D02*
X86387580Y-110834760D01*
X86334306Y-110913716D02*
X86360481Y-110873901D01*
X86309071Y-110954190D02*
X86334306Y-110913716D01*
X86284791Y-110995308D02*
X86309071Y-110954190D01*
X86261482Y-111037055D02*
X86284791Y-110995308D01*
X86239158Y-111079414D02*
X86261482Y-111037055D01*
X86217836Y-111122370D02*
X86239158Y-111079414D01*
X86197531Y-111165907D02*
X86217836Y-111122370D01*
X86178258Y-111210011D02*
X86197531Y-111165907D01*
X86160034Y-111254665D02*
X86178258Y-111210011D01*
X86142873Y-111299855D02*
X86160034Y-111254665D01*
X86126790Y-111345564D02*
X86142873Y-111299855D01*
X86111803Y-111391777D02*
X86126790Y-111345564D01*
X86097925Y-111438478D02*
X86111803Y-111391777D01*
X86085173Y-111485653D02*
X86097925Y-111438478D01*
X86073562Y-111533285D02*
X86085173Y-111485653D01*
X86063107Y-111581359D02*
X86073562Y-111533285D01*
X86053824Y-111629859D02*
X86063107Y-111581359D01*
X86045729Y-111678771D02*
X86053824Y-111629859D01*
X86038836Y-111728078D02*
X86045729Y-111678771D01*
X86033162Y-111777764D02*
X86038836Y-111728078D01*
X86028722Y-111827815D02*
X86033162Y-111777764D01*
X86025532Y-111878215D02*
X86028722Y-111827815D01*
X86023606Y-111928948D02*
X86025532Y-111878215D01*
X86022960Y-111980000D02*
X86023606Y-111928948D01*
X86024062Y-112046152D02*
X86022960Y-111980000D01*
X89961220Y-111687333D02*
X89967828Y-111735609D01*
X89953438Y-111639307D02*
X89961220Y-111687333D01*
X89944491Y-111591549D02*
X89953438Y-111639307D01*
X89934386Y-111544080D02*
X89944491Y-111591549D01*
X89923132Y-111496920D02*
X89934386Y-111544080D01*
X89910739Y-111450091D02*
X89923132Y-111496920D01*
X89897213Y-111403611D02*
X89910739Y-111450091D01*
X89882564Y-111357502D02*
X89897213Y-111403611D01*
X89866799Y-111311784D02*
X89882564Y-111357502D01*
X89849928Y-111266477D02*
X89866799Y-111311784D01*
X89831959Y-111221602D02*
X89849928Y-111266477D01*
X89812900Y-111177178D02*
X89831959Y-111221602D01*
X89792760Y-111133227D02*
X89812900Y-111177178D01*
X89771547Y-111089768D02*
X89792760Y-111133227D01*
X89401986Y-110578881D02*
X89436378Y-110614085D01*
X89366730Y-110544540D02*
X89401986Y-110578881D01*
X89330718Y-110511165D02*
X89366730Y-110544540D01*
X89293971Y-110478762D02*
X89330718Y-110511165D01*
X89256510Y-110447340D02*
X89293971Y-110478762D01*
X89218354Y-110416908D02*
X89256510Y-110447340D01*
X89179524Y-110387473D02*
X89218354Y-110416908D01*
X89140040Y-110359046D02*
X89179524Y-110387473D01*
X89099922Y-110331632D02*
X89140040Y-110359046D01*
X89059192Y-110305242D02*
X89099922Y-110331632D01*
X89017869Y-110279884D02*
X89059192Y-110305242D01*
X88975973Y-110255566D02*
X89017869Y-110279884D01*
X88933526Y-110232296D02*
X88975973Y-110255566D01*
X89982350Y-111930787D02*
X89982960Y-111980000D01*
X89980522Y-111881722D02*
X89982350Y-111930787D01*
X89977488Y-111832823D02*
X89980522Y-111881722D01*
X89973253Y-111784112D02*
X89977488Y-111832823D01*
X89967828Y-111735609D02*
X89973253Y-111784112D01*
X88890547Y-110210082D02*
X88933526Y-110232296D01*
X88847056Y-110188934D02*
X88890547Y-110210082D01*
X88803075Y-110168860D02*
X88847056Y-110188934D01*
X89676136Y-110921265D02*
X89701556Y-110962551D01*
X89649685Y-110880574D02*
X89676136Y-110921265D01*
X89622212Y-110840498D02*
X89649685Y-110880574D01*
X89593725Y-110801057D02*
X89622212Y-110840498D01*
X89564233Y-110762270D02*
X89593725Y-110801057D01*
X89533743Y-110724160D02*
X89564233Y-110762270D01*
X89502266Y-110686745D02*
X89533743Y-110724160D01*
X89469808Y-110650047D02*
X89502266Y-110686745D01*
X89436378Y-110614085D02*
X89469808Y-110650047D01*
X89978573Y-112111945D02*
X89973127Y-112177332D01*
X89981859Y-112046152D02*
X89978573Y-112111945D01*
X89982960Y-111980000D02*
X89981859Y-112046152D01*
X89749270Y-111046822D02*
X89771547Y-111089768D01*
X89725937Y-111004410D02*
X89749270Y-111046822D01*
X89701556Y-110962551D02*
X89725937Y-111004410D01*
X88758623Y-110149868D02*
X88803075Y-110168860D01*
X88713721Y-110131966D02*
X88758623Y-110149868D01*
X88668388Y-110115162D02*
X88713721Y-110131966D01*
X88622647Y-110099466D02*
X88668388Y-110115162D01*
X88576516Y-110084886D02*
X88622647Y-110099466D01*
X88530017Y-110071430D02*
X88576516Y-110084886D01*
X88483168Y-110059106D02*
X88530017Y-110071430D01*
X88435992Y-110047923D02*
X88483168Y-110059106D01*
X88388508Y-110037889D02*
X88435992Y-110047923D01*
X88340737Y-110029013D02*
X88388508Y-110037889D01*
X88292699Y-110021303D02*
X88340737Y-110029013D01*
X88244414Y-110014767D02*
X88292699Y-110021303D01*
X88195902Y-110009414D02*
X88244414Y-110014767D01*
X88147185Y-110005253D02*
X88195902Y-110009414D01*
X88098282Y-110002291D02*
X88147185Y-110005253D01*
X88049214Y-110000537D02*
X88098282Y-110002291D01*
X88000000Y-110000000D02*
X88049214Y-110000537D01*
D11*
X96914285Y-110761904D02*
X96914285Y-109961904D01*
X97180952Y-110533333D01*
X97447619Y-109961904D01*
X97447619Y-110761904D01*
X97828571Y-110761904D02*
X97828571Y-110228571D01*
X97828571Y-109961904D02*
X97790476Y-110000000D01*
X97828571Y-110038095D01*
X97866666Y-110000000D01*
X97828571Y-109961904D01*
X97828571Y-110038095D01*
X98209523Y-110228571D02*
X98209523Y-110761904D01*
X98209523Y-110304761D02*
X98247619Y-110266666D01*
X98323809Y-110228571D01*
X98438095Y-110228571D01*
X98514285Y-110266666D01*
X98552380Y-110342857D01*
X98552380Y-110761904D01*
X98933333Y-110761904D02*
X98933333Y-110228571D01*
X98933333Y-109961904D02*
X98895238Y-110000000D01*
X98933333Y-110038095D01*
X98971428Y-110000000D01*
X98933333Y-109961904D01*
X98933333Y-110038095D01*
X99314285Y-110457142D02*
X99923809Y-110457142D01*
X100266666Y-110723809D02*
X100380952Y-110761904D01*
X100571428Y-110761904D01*
X100647619Y-110723809D01*
X100685714Y-110685714D01*
X100723809Y-110609523D01*
X100723809Y-110533333D01*
X100685714Y-110457142D01*
X100647619Y-110419047D01*
X100571428Y-110380952D01*
X100419047Y-110342857D01*
X100342857Y-110304761D01*
X100304761Y-110266666D01*
X100266666Y-110190476D01*
X100266666Y-110114285D01*
X100304761Y-110038095D01*
X100342857Y-110000000D01*
X100419047Y-109961904D01*
X100609523Y-109961904D01*
X100723809Y-110000000D01*
X101066666Y-110761904D02*
X101066666Y-109961904D01*
X101371428Y-109961904D01*
X101447619Y-110000000D01*
X101485714Y-110038095D01*
X101523809Y-110114285D01*
X101523809Y-110228571D01*
X101485714Y-110304761D01*
X101447619Y-110342857D01*
X101371428Y-110380952D01*
X101066666Y-110380952D01*
X102019047Y-109961904D02*
X102171428Y-109961904D01*
X102247619Y-110000000D01*
X102323809Y-110076190D01*
X102361904Y-110228571D01*
X102361904Y-110495238D01*
X102323809Y-110647619D01*
X102247619Y-110723809D01*
X102171428Y-110761904D01*
X102019047Y-110761904D01*
X101942857Y-110723809D01*
X101866666Y-110647619D01*
X101828571Y-110495238D01*
X101828571Y-110228571D01*
X101866666Y-110076190D01*
X101942857Y-110000000D01*
X102019047Y-109961904D01*
X102628571Y-109961904D02*
X103161904Y-110761904D01*
X103161904Y-109961904D02*
X102628571Y-110761904D01*
X96861904Y-113161904D02*
X96938095Y-113161904D01*
X97014285Y-113200000D01*
X97052380Y-113238095D01*
X97090476Y-113314285D01*
X97128571Y-113466666D01*
X97128571Y-113657142D01*
X97090476Y-113809523D01*
X97052380Y-113885714D01*
X97014285Y-113923809D01*
X96938095Y-113961904D01*
X96861904Y-113961904D01*
X96785714Y-113923809D01*
X96747619Y-113885714D01*
X96709523Y-113809523D01*
X96671428Y-113657142D01*
X96671428Y-113466666D01*
X96709523Y-113314285D01*
X96747619Y-113238095D01*
X96785714Y-113200000D01*
X96861904Y-113161904D01*
X97471428Y-113885714D02*
X97509523Y-113923809D01*
X97471428Y-113961904D01*
X97433333Y-113923809D01*
X97471428Y-113885714D01*
X97471428Y-113961904D01*
X98271428Y-113961904D02*
X97814285Y-113961904D01*
X98042857Y-113961904D02*
X98042857Y-113161904D01*
X97966666Y-113276190D01*
X97890476Y-113352380D01*
X97814285Y-113390476D01*
X98614285Y-113161904D02*
X98614285Y-113200000D01*
X98576190Y-113276190D01*
X98538095Y-113314285D01*
X98919047Y-113161904D02*
X98919047Y-113200000D01*
X98880952Y-113276190D01*
X98842857Y-113314285D01*
X99833333Y-113961904D02*
X99833333Y-113161904D01*
X100176190Y-113961904D02*
X100176190Y-113542857D01*
X100138095Y-113466666D01*
X100061904Y-113428571D01*
X99947619Y-113428571D01*
X99871428Y-113466666D01*
X99833333Y-113504761D01*
X100861904Y-113923809D02*
X100785714Y-113961904D01*
X100633333Y-113961904D01*
X100557142Y-113923809D01*
X100519047Y-113847619D01*
X100519047Y-113542857D01*
X100557142Y-113466666D01*
X100633333Y-113428571D01*
X100785714Y-113428571D01*
X100861904Y-113466666D01*
X100900000Y-113542857D01*
X100900000Y-113619047D01*
X100519047Y-113695238D01*
X101585714Y-113961904D02*
X101585714Y-113542857D01*
X101547619Y-113466666D01*
X101471428Y-113428571D01*
X101319047Y-113428571D01*
X101242857Y-113466666D01*
X101585714Y-113923809D02*
X101509523Y-113961904D01*
X101319047Y-113961904D01*
X101242857Y-113923809D01*
X101204761Y-113847619D01*
X101204761Y-113771428D01*
X101242857Y-113695238D01*
X101319047Y-113657142D01*
X101509523Y-113657142D01*
X101585714Y-113619047D01*
X102309523Y-113961904D02*
X102309523Y-113161904D01*
X102309523Y-113923809D02*
X102233333Y-113961904D01*
X102080952Y-113961904D01*
X102004761Y-113923809D01*
X101966666Y-113885714D01*
X101928571Y-113809523D01*
X101928571Y-113580952D01*
X101966666Y-113504761D01*
X102004761Y-113466666D01*
X102080952Y-113428571D01*
X102233333Y-113428571D01*
X102309523Y-113466666D01*
X102995238Y-113923809D02*
X102919047Y-113961904D01*
X102766666Y-113961904D01*
X102690476Y-113923809D01*
X102652380Y-113847619D01*
X102652380Y-113542857D01*
X102690476Y-113466666D01*
X102766666Y-113428571D01*
X102919047Y-113428571D01*
X102995238Y-113466666D01*
X103033333Y-113542857D01*
X103033333Y-113619047D01*
X102652380Y-113695238D01*
X103376190Y-113961904D02*
X103376190Y-113428571D01*
X103376190Y-113580952D02*
X103414285Y-113504761D01*
X103452380Y-113466666D01*
X103528571Y-113428571D01*
X103604761Y-113428571D01*
D12*
X95511904Y-107226190D02*
X95511904Y-106726190D01*
X95726190Y-106773809D02*
X95750000Y-106750000D01*
X95797619Y-106726190D01*
X95916666Y-106726190D01*
X95964285Y-106750000D01*
X95988095Y-106773809D01*
X96011904Y-106821428D01*
X96011904Y-106869047D01*
X95988095Y-106940476D01*
X95702380Y-107226190D01*
X96011904Y-107226190D01*
X96511904Y-107178571D02*
X96488095Y-107202380D01*
X96416666Y-107226190D01*
X96369047Y-107226190D01*
X96297619Y-107202380D01*
X96250000Y-107154761D01*
X96226190Y-107107142D01*
X96202380Y-107011904D01*
X96202380Y-106940476D01*
X96226190Y-106845238D01*
X96250000Y-106797619D01*
X96297619Y-106750000D01*
X96369047Y-106726190D01*
X96416666Y-106726190D01*
X96488095Y-106750000D01*
X96511904Y-106773809D01*
X93107142Y-107276190D02*
X93107142Y-106776190D01*
X93107142Y-107014285D02*
X93392857Y-107014285D01*
X93392857Y-107276190D02*
X93392857Y-106776190D01*
X93607142Y-107252380D02*
X93678571Y-107276190D01*
X93797619Y-107276190D01*
X93845238Y-107252380D01*
X93869047Y-107228571D01*
X93892857Y-107180952D01*
X93892857Y-107133333D01*
X93869047Y-107085714D01*
X93845238Y-107061904D01*
X93797619Y-107038095D01*
X93702380Y-107014285D01*
X93654761Y-106990476D01*
X93630952Y-106966666D01*
X93607142Y-106919047D01*
X93607142Y-106871428D01*
X93630952Y-106823809D01*
X93654761Y-106800000D01*
X93702380Y-106776190D01*
X93821428Y-106776190D01*
X93892857Y-106800000D01*
X94107142Y-106776190D02*
X94107142Y-107180952D01*
X94130952Y-107228571D01*
X94154761Y-107252380D01*
X94202380Y-107276190D01*
X94297619Y-107276190D01*
X94345238Y-107252380D01*
X94369047Y-107228571D01*
X94392857Y-107180952D01*
X94392857Y-106776190D01*
D13*
X88647619Y-97404761D02*
X88647619Y-97976190D01*
X87647619Y-97690476D02*
X88647619Y-97690476D01*
X87647619Y-98738095D02*
X88171428Y-98738095D01*
X88266666Y-98690476D01*
X88314285Y-98595238D01*
X88314285Y-98404761D01*
X88266666Y-98309523D01*
X87695238Y-98738095D02*
X87647619Y-98642857D01*
X87647619Y-98404761D01*
X87695238Y-98309523D01*
X87790476Y-98261904D01*
X87885714Y-98261904D01*
X87980952Y-98309523D01*
X88028571Y-98404761D01*
X88028571Y-98642857D01*
X88076190Y-98738095D01*
X87647619Y-99214285D02*
X88314285Y-99214285D01*
X88219047Y-99214285D02*
X88266666Y-99261904D01*
X88314285Y-99357142D01*
X88314285Y-99500000D01*
X88266666Y-99595238D01*
X88171428Y-99642857D01*
X87647619Y-99642857D01*
X88171428Y-99642857D02*
X88266666Y-99690476D01*
X88314285Y-99785714D01*
X88314285Y-99928571D01*
X88266666Y-100023809D01*
X88171428Y-100071428D01*
X87647619Y-100071428D01*
X88314285Y-100547619D02*
X87314285Y-100547619D01*
X88266666Y-100547619D02*
X88314285Y-100642857D01*
X88314285Y-100833333D01*
X88266666Y-100928571D01*
X88219047Y-100976190D01*
X88123809Y-101023809D01*
X87838095Y-101023809D01*
X87742857Y-100976190D01*
X87695238Y-100928571D01*
X87647619Y-100833333D01*
X87647619Y-100642857D01*
X87695238Y-100547619D01*
X87695238Y-101833333D02*
X87647619Y-101738095D01*
X87647619Y-101547619D01*
X87695238Y-101452380D01*
X87790476Y-101404761D01*
X88171428Y-101404761D01*
X88266666Y-101452380D01*
X88314285Y-101547619D01*
X88314285Y-101738095D01*
X88266666Y-101833333D01*
X88171428Y-101880952D01*
X88076190Y-101880952D01*
X87980952Y-101404761D01*
X87647619Y-102309523D02*
X88314285Y-102309523D01*
X88123809Y-102309523D02*
X88219047Y-102357142D01*
X88266666Y-102404761D01*
X88314285Y-102500000D01*
X88314285Y-102595238D01*
X104202380Y-118892976D02*
X103726190Y-119226309D01*
X104202380Y-119464404D02*
X103202380Y-119464404D01*
X103202380Y-119083452D01*
X103250000Y-118988214D01*
X103297619Y-118940595D01*
X103392857Y-118892976D01*
X103535714Y-118892976D01*
X103630952Y-118940595D01*
X103678571Y-118988214D01*
X103726190Y-119083452D01*
X103726190Y-119464404D01*
X103202380Y-118559642D02*
X104202380Y-117892976D01*
X103202380Y-117892976D02*
X104202380Y-118559642D01*
X100702380Y-119607261D02*
X100702380Y-119035833D01*
X101702380Y-119321547D02*
X100702380Y-119321547D01*
X100702380Y-118797738D02*
X101702380Y-118131071D01*
X100702380Y-118131071D02*
X101702380Y-118797738D01*
X98202380Y-119607261D02*
X99202380Y-119273928D01*
X98202380Y-118940595D01*
X99107142Y-118035833D02*
X99154761Y-118083452D01*
X99202380Y-118226309D01*
X99202380Y-118321547D01*
X99154761Y-118464404D01*
X99059523Y-118559642D01*
X98964285Y-118607261D01*
X98773809Y-118654880D01*
X98630952Y-118654880D01*
X98440476Y-118607261D01*
X98345238Y-118559642D01*
X98250000Y-118464404D01*
X98202380Y-118321547D01*
X98202380Y-118226309D01*
X98250000Y-118083452D01*
X98297619Y-118035833D01*
X99107142Y-117035833D02*
X99154761Y-117083452D01*
X99202380Y-117226309D01*
X99202380Y-117321547D01*
X99154761Y-117464404D01*
X99059523Y-117559642D01*
X98964285Y-117607261D01*
X98773809Y-117654880D01*
X98630952Y-117654880D01*
X98440476Y-117607261D01*
X98345238Y-117559642D01*
X98250000Y-117464404D01*
X98202380Y-117321547D01*
X98202380Y-117226309D01*
X98250000Y-117083452D01*
X98297619Y-117035833D01*
X95750000Y-118940595D02*
X95702380Y-119035833D01*
X95702380Y-119178690D01*
X95750000Y-119321547D01*
X95845238Y-119416785D01*
X95940476Y-119464404D01*
X96130952Y-119512023D01*
X96273809Y-119512023D01*
X96464285Y-119464404D01*
X96559523Y-119416785D01*
X96654761Y-119321547D01*
X96702380Y-119178690D01*
X96702380Y-119083452D01*
X96654761Y-118940595D01*
X96607142Y-118892976D01*
X96273809Y-118892976D01*
X96273809Y-119083452D01*
X96702380Y-118464404D02*
X95702380Y-118464404D01*
X96702380Y-117892976D01*
X95702380Y-117892976D01*
X96702380Y-117416785D02*
X95702380Y-117416785D01*
X95702380Y-117178690D01*
X95750000Y-117035833D01*
X95845238Y-116940595D01*
X95940476Y-116892976D01*
X96130952Y-116845357D01*
X96273809Y-116845357D01*
X96464285Y-116892976D01*
X96559523Y-116940595D01*
X96654761Y-117035833D01*
X96702380Y-117178690D01*
X96702380Y-117416785D01*
D14*
%TO.C,C17*%
X98210000Y-105290580D02*
X98210000Y-105009420D01*
X97190000Y-105290580D02*
X97190000Y-105009420D01*
%TO.C,R13*%
X101412742Y-105377500D02*
X101887258Y-105377500D01*
X101412742Y-106422500D02*
X101887258Y-106422500D01*
%TO.C,C18*%
X94040580Y-95860000D02*
X93759420Y-95860000D01*
X94040580Y-94840000D02*
X93759420Y-94840000D01*
%TO.C,R11*%
X104522500Y-105387258D02*
X104522500Y-104912742D01*
X103477500Y-105387258D02*
X103477500Y-104912742D01*
%TO.C,J1*%
X108130000Y-104670000D02*
X108130000Y-107330000D01*
X110730000Y-104670000D02*
X108130000Y-104670000D01*
X110730000Y-107330000D02*
X108130000Y-107330000D01*
X110730000Y-104670000D02*
X110730000Y-107330000D01*
X112000000Y-104670000D02*
X113330000Y-104670000D01*
X113330000Y-104670000D02*
X113330000Y-106000000D01*
%TO.C,A1*%
X116500000Y-88000000D02*
X116500000Y-112000000D01*
X112000000Y-116500000D02*
X88000000Y-116500000D01*
X83500000Y-112000000D02*
X83500000Y-88000000D01*
X88000000Y-83500000D02*
X112000000Y-83500000D01*
X88000000Y-79500000D02*
X112000000Y-79500000D01*
X120500000Y-88000000D02*
X120500000Y-112000000D01*
X112500000Y-120500000D02*
X88000000Y-120500000D01*
X79500000Y-112000000D02*
X79500000Y-88000000D01*
X83500000Y-112000000D02*
G75*
G03*
X88000000Y-116500000I4500000J0D01*
G01*
X88000000Y-83500000D02*
G75*
G03*
X83500000Y-88000000I0J-4500000D01*
G01*
X116500000Y-88000000D02*
G75*
G03*
X112000000Y-83500000I-4500000J0D01*
G01*
X88000000Y-79500000D02*
G75*
G03*
X79500000Y-88000000I0J-8500000D01*
G01*
X79500000Y-112000000D02*
G75*
G03*
X88000000Y-120500000I8500000J0D01*
G01*
X112499137Y-120485332D02*
G75*
G03*
X120500000Y-112000000I-499137J8485332D01*
G01*
X120500000Y-88000000D02*
G75*
G03*
X112000000Y-79500000I-8500000J0D01*
G01*
X112000000Y-116500000D02*
G75*
G03*
X116500000Y-112000000I0J4500000D01*
G01*
%TO.C,R12*%
X101887258Y-103877500D02*
X101412742Y-103877500D01*
X101887258Y-104922500D02*
X101412742Y-104922500D01*
%TO.C,C5*%
X101359420Y-88760000D02*
X101640580Y-88760000D01*
X101359420Y-87740000D02*
X101640580Y-87740000D01*
%TO.C,C2*%
X98640580Y-85490000D02*
X98359420Y-85490000D01*
X98640580Y-86510000D02*
X98359420Y-86510000D01*
%TO.C,L2*%
X96564758Y-89490000D02*
X98235242Y-89490000D01*
X96564758Y-91310000D02*
X98235242Y-91310000D01*
%TO.C,L1*%
X101764758Y-89490000D02*
X103435242Y-89490000D01*
X101764758Y-91310000D02*
X103435242Y-91310000D01*
%TO.C,R10*%
X99822500Y-105387258D02*
X99822500Y-104912742D01*
X98777500Y-105387258D02*
X98777500Y-104912742D01*
%TO.C,R9*%
X108862742Y-99322500D02*
X109337258Y-99322500D01*
X108862742Y-98277500D02*
X109337258Y-98277500D01*
%TO.C,R8*%
X108862742Y-100822500D02*
X109337258Y-100822500D01*
X108862742Y-99777500D02*
X109337258Y-99777500D01*
%TO.C,R7*%
X108862742Y-102322500D02*
X109337258Y-102322500D01*
X108862742Y-101277500D02*
X109337258Y-101277500D01*
%TO.C,R6*%
X108862742Y-97822500D02*
X109337258Y-97822500D01*
X108862742Y-96777500D02*
X109337258Y-96777500D01*
%TO.C,R5*%
X108862742Y-96322500D02*
X109337258Y-96322500D01*
X108862742Y-95277500D02*
X109337258Y-95277500D01*
%TO.C,R4*%
X95362742Y-92872500D02*
X95837258Y-92872500D01*
X95362742Y-91827500D02*
X95837258Y-91827500D01*
%TO.C,R3*%
X93662742Y-88772500D02*
X94137258Y-88772500D01*
X93662742Y-87727500D02*
X94137258Y-87727500D01*
%TO.C,R2*%
X96722500Y-84762258D02*
X96722500Y-84287742D01*
X95677500Y-84762258D02*
X95677500Y-84287742D01*
%TO.C,R1*%
X104322500Y-84737258D02*
X104322500Y-84262742D01*
X103277500Y-84737258D02*
X103277500Y-84262742D01*
%TO.C,C16*%
X94140580Y-101990000D02*
X93859420Y-101990000D01*
X94140580Y-103010000D02*
X93859420Y-103010000D01*
%TO.C,C15*%
X93859420Y-98010000D02*
X94140580Y-98010000D01*
X93859420Y-96990000D02*
X94140580Y-96990000D01*
%TO.C,C14*%
X105359420Y-97810000D02*
X105640580Y-97810000D01*
X105359420Y-96790000D02*
X105640580Y-96790000D01*
%TO.C,C13*%
X105740000Y-99459420D02*
X105740000Y-99740580D01*
X106760000Y-99459420D02*
X106760000Y-99740580D01*
%TO.C,C12*%
X104240000Y-99459420D02*
X104240000Y-99740580D01*
X105260000Y-99459420D02*
X105260000Y-99740580D01*
%TO.C,C11*%
X98215580Y-94840000D02*
X97934420Y-94840000D01*
X98215580Y-95860000D02*
X97934420Y-95860000D01*
%TO.C,C10*%
X95740580Y-93340000D02*
X95459420Y-93340000D01*
X95740580Y-94360000D02*
X95459420Y-94360000D01*
%TO.C,C9*%
X101059420Y-94360000D02*
X101340580Y-94360000D01*
X101059420Y-93340000D02*
X101340580Y-93340000D01*
%TO.C,C8*%
X93610000Y-90740580D02*
X93610000Y-90459420D01*
X92590000Y-90740580D02*
X92590000Y-90459420D01*
%TO.C,C7*%
X101059420Y-95860000D02*
X101340580Y-95860000D01*
X101059420Y-94840000D02*
X101340580Y-94840000D01*
%TO.C,C6*%
X98640580Y-87740000D02*
X98359420Y-87740000D01*
X98640580Y-88760000D02*
X98359420Y-88760000D01*
%TO.C,C4*%
X95690000Y-87359420D02*
X95690000Y-87640580D01*
X96710000Y-87359420D02*
X96710000Y-87640580D01*
%TO.C,C3*%
X104310000Y-87640580D02*
X104310000Y-87359420D01*
X103290000Y-87640580D02*
X103290000Y-87359420D01*
%TO.C,C1*%
X101640580Y-85490000D02*
X101359420Y-85490000D01*
X101640580Y-86510000D02*
X101359420Y-86510000D01*
%TO.C,SW1*%
X87750000Y-103500000D02*
X89250000Y-103500000D01*
X91750000Y-102250000D02*
X91750000Y-97750000D01*
X89250000Y-96500000D02*
X87750000Y-96500000D01*
X85250000Y-97750000D02*
X85250000Y-102250000D01*
X85270000Y-96770000D02*
X85270000Y-103230000D01*
X89800000Y-96770000D02*
X87200000Y-96770000D01*
X91730000Y-96770000D02*
X91730000Y-103230000D01*
X89800000Y-103230000D02*
X87200000Y-103230000D01*
X91700000Y-96770000D02*
X91730000Y-96770000D01*
X85270000Y-96770000D02*
X85300000Y-96770000D01*
X85270000Y-103230000D02*
X85300000Y-103230000D01*
X91730000Y-103230000D02*
X91700000Y-103230000D01*
%TO.C,J3*%
X106350000Y-107500000D02*
X106350000Y-115500000D01*
X93650000Y-107500000D02*
X106350000Y-107500000D01*
X93650000Y-107500000D02*
X93650000Y-115500000D01*
%TO.C,JP1*%
X92600000Y-105700000D02*
X92600000Y-105100000D01*
X96050000Y-106400000D02*
X93250000Y-106400000D01*
X96700000Y-105100000D02*
X96700000Y-105700000D01*
X93250000Y-104400000D02*
X96050000Y-104400000D01*
X92600000Y-105100000D02*
G75*
G02*
X93300000Y-104400000I700000J0D01*
G01*
X93300000Y-106400000D02*
G75*
G02*
X92600000Y-105700000I0J700000D01*
G01*
X96700000Y-105700000D02*
G75*
G02*
X96000000Y-106400000I-700000J0D01*
G01*
X96000000Y-104400000D02*
G75*
G02*
X96700000Y-105100000I0J-700000D01*
G01*
%TO.C,U1*%
X103110000Y-97365000D02*
X103110000Y-96890000D01*
X96890000Y-103110000D02*
X97365000Y-103110000D01*
X96890000Y-102635000D02*
X96890000Y-103110000D01*
X96890000Y-96890000D02*
X97365000Y-96890000D01*
X96890000Y-97365000D02*
X96890000Y-96890000D01*
X103110000Y-103110000D02*
X102635000Y-103110000D01*
X103110000Y-102635000D02*
X103110000Y-103110000D01*
%TO.C,C17*%
D15*
X97442857Y-103442857D02*
X97423809Y-103461904D01*
X97366666Y-103480952D01*
X97328571Y-103480952D01*
X97271428Y-103461904D01*
X97233333Y-103423809D01*
X97214285Y-103385714D01*
X97195238Y-103309523D01*
X97195238Y-103252380D01*
X97214285Y-103176190D01*
X97233333Y-103138095D01*
X97271428Y-103100000D01*
X97328571Y-103080952D01*
X97366666Y-103080952D01*
X97423809Y-103100000D01*
X97442857Y-103119047D01*
X97823809Y-103480952D02*
X97595238Y-103480952D01*
X97709523Y-103480952D02*
X97709523Y-103080952D01*
X97671428Y-103138095D01*
X97633333Y-103176190D01*
X97595238Y-103195238D01*
X97957142Y-103080952D02*
X98223809Y-103080952D01*
X98052380Y-103480952D01*
%TO.C,R13*%
X101392857Y-107480952D02*
X101259523Y-107290476D01*
X101164285Y-107480952D02*
X101164285Y-107080952D01*
X101316666Y-107080952D01*
X101354761Y-107100000D01*
X101373809Y-107119047D01*
X101392857Y-107157142D01*
X101392857Y-107214285D01*
X101373809Y-107252380D01*
X101354761Y-107271428D01*
X101316666Y-107290476D01*
X101164285Y-107290476D01*
X101773809Y-107480952D02*
X101545238Y-107480952D01*
X101659523Y-107480952D02*
X101659523Y-107080952D01*
X101621428Y-107138095D01*
X101583333Y-107176190D01*
X101545238Y-107195238D01*
X101907142Y-107080952D02*
X102154761Y-107080952D01*
X102021428Y-107233333D01*
X102078571Y-107233333D01*
X102116666Y-107252380D01*
X102135714Y-107271428D01*
X102154761Y-107309523D01*
X102154761Y-107404761D01*
X102135714Y-107442857D01*
X102116666Y-107461904D01*
X102078571Y-107480952D01*
X101964285Y-107480952D01*
X101926190Y-107461904D01*
X101907142Y-107442857D01*
%TO.C,C18*%
X92192857Y-95607142D02*
X92211904Y-95626190D01*
X92230952Y-95683333D01*
X92230952Y-95721428D01*
X92211904Y-95778571D01*
X92173809Y-95816666D01*
X92135714Y-95835714D01*
X92059523Y-95854761D01*
X92002380Y-95854761D01*
X91926190Y-95835714D01*
X91888095Y-95816666D01*
X91850000Y-95778571D01*
X91830952Y-95721428D01*
X91830952Y-95683333D01*
X91850000Y-95626190D01*
X91869047Y-95607142D01*
X92230952Y-95226190D02*
X92230952Y-95454761D01*
X92230952Y-95340476D02*
X91830952Y-95340476D01*
X91888095Y-95378571D01*
X91926190Y-95416666D01*
X91945238Y-95454761D01*
X92002380Y-94997619D02*
X91983333Y-95035714D01*
X91964285Y-95054761D01*
X91926190Y-95073809D01*
X91907142Y-95073809D01*
X91869047Y-95054761D01*
X91850000Y-95035714D01*
X91830952Y-94997619D01*
X91830952Y-94921428D01*
X91850000Y-94883333D01*
X91869047Y-94864285D01*
X91907142Y-94845238D01*
X91926190Y-94845238D01*
X91964285Y-94864285D01*
X91983333Y-94883333D01*
X92002380Y-94921428D01*
X92002380Y-94997619D01*
X92021428Y-95035714D01*
X92040476Y-95054761D01*
X92078571Y-95073809D01*
X92154761Y-95073809D01*
X92192857Y-95054761D01*
X92211904Y-95035714D01*
X92230952Y-94997619D01*
X92230952Y-94921428D01*
X92211904Y-94883333D01*
X92192857Y-94864285D01*
X92154761Y-94845238D01*
X92078571Y-94845238D01*
X92040476Y-94864285D01*
X92021428Y-94883333D01*
X92002380Y-94921428D01*
%TO.C,R11*%
X103742857Y-107180952D02*
X103609523Y-106990476D01*
X103514285Y-107180952D02*
X103514285Y-106780952D01*
X103666666Y-106780952D01*
X103704761Y-106800000D01*
X103723809Y-106819047D01*
X103742857Y-106857142D01*
X103742857Y-106914285D01*
X103723809Y-106952380D01*
X103704761Y-106971428D01*
X103666666Y-106990476D01*
X103514285Y-106990476D01*
X104123809Y-107180952D02*
X103895238Y-107180952D01*
X104009523Y-107180952D02*
X104009523Y-106780952D01*
X103971428Y-106838095D01*
X103933333Y-106876190D01*
X103895238Y-106895238D01*
X104504761Y-107180952D02*
X104276190Y-107180952D01*
X104390476Y-107180952D02*
X104390476Y-106780952D01*
X104352380Y-106838095D01*
X104314285Y-106876190D01*
X104276190Y-106895238D01*
%TO.C,J1*%
D13*
X113782380Y-106333333D02*
X114496666Y-106333333D01*
X114639523Y-106380952D01*
X114734761Y-106476190D01*
X114782380Y-106619047D01*
X114782380Y-106714285D01*
X114782380Y-105333333D02*
X114782380Y-105904761D01*
X114782380Y-105619047D02*
X113782380Y-105619047D01*
X113925238Y-105714285D01*
X114020476Y-105809523D01*
X114068095Y-105904761D01*
%TO.C,TP1*%
D15*
X99369047Y-92126190D02*
X99654761Y-92126190D01*
X99511904Y-92626190D02*
X99511904Y-92126190D01*
X99821428Y-92626190D02*
X99821428Y-92126190D01*
X100011904Y-92126190D01*
X100059523Y-92150000D01*
X100083333Y-92173809D01*
X100107142Y-92221428D01*
X100107142Y-92292857D01*
X100083333Y-92340476D01*
X100059523Y-92364285D01*
X100011904Y-92388095D01*
X99821428Y-92388095D01*
X100583333Y-92626190D02*
X100297619Y-92626190D01*
X100440476Y-92626190D02*
X100440476Y-92126190D01*
X100392857Y-92197619D01*
X100345238Y-92245238D01*
X100297619Y-92269047D01*
%TO.C,R12*%
X101392857Y-106980952D02*
X101259523Y-106790476D01*
X101164285Y-106980952D02*
X101164285Y-106580952D01*
X101316666Y-106580952D01*
X101354761Y-106600000D01*
X101373809Y-106619047D01*
X101392857Y-106657142D01*
X101392857Y-106714285D01*
X101373809Y-106752380D01*
X101354761Y-106771428D01*
X101316666Y-106790476D01*
X101164285Y-106790476D01*
X101773809Y-106980952D02*
X101545238Y-106980952D01*
X101659523Y-106980952D02*
X101659523Y-106580952D01*
X101621428Y-106638095D01*
X101583333Y-106676190D01*
X101545238Y-106695238D01*
X101926190Y-106619047D02*
X101945238Y-106600000D01*
X101983333Y-106580952D01*
X102078571Y-106580952D01*
X102116666Y-106600000D01*
X102135714Y-106619047D01*
X102154761Y-106657142D01*
X102154761Y-106695238D01*
X102135714Y-106752380D01*
X101907142Y-106980952D01*
X102154761Y-106980952D01*
%TO.C,C5*%
X101433333Y-87292857D02*
X101414285Y-87311904D01*
X101357142Y-87330952D01*
X101319047Y-87330952D01*
X101261904Y-87311904D01*
X101223809Y-87273809D01*
X101204761Y-87235714D01*
X101185714Y-87159523D01*
X101185714Y-87102380D01*
X101204761Y-87026190D01*
X101223809Y-86988095D01*
X101261904Y-86950000D01*
X101319047Y-86930952D01*
X101357142Y-86930952D01*
X101414285Y-86950000D01*
X101433333Y-86969047D01*
X101795238Y-86930952D02*
X101604761Y-86930952D01*
X101585714Y-87121428D01*
X101604761Y-87102380D01*
X101642857Y-87083333D01*
X101738095Y-87083333D01*
X101776190Y-87102380D01*
X101795238Y-87121428D01*
X101814285Y-87159523D01*
X101814285Y-87254761D01*
X101795238Y-87292857D01*
X101776190Y-87311904D01*
X101738095Y-87330952D01*
X101642857Y-87330952D01*
X101604761Y-87311904D01*
X101585714Y-87292857D01*
%TO.C,C2*%
X98433333Y-84992857D02*
X98414285Y-85011904D01*
X98357142Y-85030952D01*
X98319047Y-85030952D01*
X98261904Y-85011904D01*
X98223809Y-84973809D01*
X98204761Y-84935714D01*
X98185714Y-84859523D01*
X98185714Y-84802380D01*
X98204761Y-84726190D01*
X98223809Y-84688095D01*
X98261904Y-84650000D01*
X98319047Y-84630952D01*
X98357142Y-84630952D01*
X98414285Y-84650000D01*
X98433333Y-84669047D01*
X98585714Y-84669047D02*
X98604761Y-84650000D01*
X98642857Y-84630952D01*
X98738095Y-84630952D01*
X98776190Y-84650000D01*
X98795238Y-84669047D01*
X98814285Y-84707142D01*
X98814285Y-84745238D01*
X98795238Y-84802380D01*
X98566666Y-85030952D01*
X98814285Y-85030952D01*
%TO.C,L2*%
X97333333Y-91980952D02*
X97142857Y-91980952D01*
X97142857Y-91580952D01*
X97447619Y-91619047D02*
X97466666Y-91600000D01*
X97504761Y-91580952D01*
X97600000Y-91580952D01*
X97638095Y-91600000D01*
X97657142Y-91619047D01*
X97676190Y-91657142D01*
X97676190Y-91695238D01*
X97657142Y-91752380D01*
X97428571Y-91980952D01*
X97676190Y-91980952D01*
%TO.C,L1*%
X102583333Y-92030952D02*
X102392857Y-92030952D01*
X102392857Y-91630952D01*
X102926190Y-92030952D02*
X102697619Y-92030952D01*
X102811904Y-92030952D02*
X102811904Y-91630952D01*
X102773809Y-91688095D01*
X102735714Y-91726190D01*
X102697619Y-91745238D01*
%TO.C,R10*%
X99042857Y-107180952D02*
X98909523Y-106990476D01*
X98814285Y-107180952D02*
X98814285Y-106780952D01*
X98966666Y-106780952D01*
X99004761Y-106800000D01*
X99023809Y-106819047D01*
X99042857Y-106857142D01*
X99042857Y-106914285D01*
X99023809Y-106952380D01*
X99004761Y-106971428D01*
X98966666Y-106990476D01*
X98814285Y-106990476D01*
X99423809Y-107180952D02*
X99195238Y-107180952D01*
X99309523Y-107180952D02*
X99309523Y-106780952D01*
X99271428Y-106838095D01*
X99233333Y-106876190D01*
X99195238Y-106895238D01*
X99671428Y-106780952D02*
X99709523Y-106780952D01*
X99747619Y-106800000D01*
X99766666Y-106819047D01*
X99785714Y-106857142D01*
X99804761Y-106933333D01*
X99804761Y-107028571D01*
X99785714Y-107104761D01*
X99766666Y-107142857D01*
X99747619Y-107161904D01*
X99709523Y-107180952D01*
X99671428Y-107180952D01*
X99633333Y-107161904D01*
X99614285Y-107142857D01*
X99595238Y-107104761D01*
X99576190Y-107028571D01*
X99576190Y-106933333D01*
X99595238Y-106857142D01*
X99614285Y-106819047D01*
X99633333Y-106800000D01*
X99671428Y-106780952D01*
%TO.C,R9*%
X110930952Y-98866666D02*
X110740476Y-99000000D01*
X110930952Y-99095238D02*
X110530952Y-99095238D01*
X110530952Y-98942857D01*
X110550000Y-98904761D01*
X110569047Y-98885714D01*
X110607142Y-98866666D01*
X110664285Y-98866666D01*
X110702380Y-98885714D01*
X110721428Y-98904761D01*
X110740476Y-98942857D01*
X110740476Y-99095238D01*
X110930952Y-98676190D02*
X110930952Y-98600000D01*
X110911904Y-98561904D01*
X110892857Y-98542857D01*
X110835714Y-98504761D01*
X110759523Y-98485714D01*
X110607142Y-98485714D01*
X110569047Y-98504761D01*
X110550000Y-98523809D01*
X110530952Y-98561904D01*
X110530952Y-98638095D01*
X110550000Y-98676190D01*
X110569047Y-98695238D01*
X110607142Y-98714285D01*
X110702380Y-98714285D01*
X110740476Y-98695238D01*
X110759523Y-98676190D01*
X110778571Y-98638095D01*
X110778571Y-98561904D01*
X110759523Y-98523809D01*
X110740476Y-98504761D01*
X110702380Y-98485714D01*
%TO.C,R8*%
X110930952Y-100366666D02*
X110740476Y-100500000D01*
X110930952Y-100595238D02*
X110530952Y-100595238D01*
X110530952Y-100442857D01*
X110550000Y-100404761D01*
X110569047Y-100385714D01*
X110607142Y-100366666D01*
X110664285Y-100366666D01*
X110702380Y-100385714D01*
X110721428Y-100404761D01*
X110740476Y-100442857D01*
X110740476Y-100595238D01*
X110702380Y-100138095D02*
X110683333Y-100176190D01*
X110664285Y-100195238D01*
X110626190Y-100214285D01*
X110607142Y-100214285D01*
X110569047Y-100195238D01*
X110550000Y-100176190D01*
X110530952Y-100138095D01*
X110530952Y-100061904D01*
X110550000Y-100023809D01*
X110569047Y-100004761D01*
X110607142Y-99985714D01*
X110626190Y-99985714D01*
X110664285Y-100004761D01*
X110683333Y-100023809D01*
X110702380Y-100061904D01*
X110702380Y-100138095D01*
X110721428Y-100176190D01*
X110740476Y-100195238D01*
X110778571Y-100214285D01*
X110854761Y-100214285D01*
X110892857Y-100195238D01*
X110911904Y-100176190D01*
X110930952Y-100138095D01*
X110930952Y-100061904D01*
X110911904Y-100023809D01*
X110892857Y-100004761D01*
X110854761Y-99985714D01*
X110778571Y-99985714D01*
X110740476Y-100004761D01*
X110721428Y-100023809D01*
X110702380Y-100061904D01*
%TO.C,R7*%
X110930952Y-101866666D02*
X110740476Y-102000000D01*
X110930952Y-102095238D02*
X110530952Y-102095238D01*
X110530952Y-101942857D01*
X110550000Y-101904761D01*
X110569047Y-101885714D01*
X110607142Y-101866666D01*
X110664285Y-101866666D01*
X110702380Y-101885714D01*
X110721428Y-101904761D01*
X110740476Y-101942857D01*
X110740476Y-102095238D01*
X110530952Y-101733333D02*
X110530952Y-101466666D01*
X110930952Y-101638095D01*
%TO.C,R6*%
X110930952Y-97366666D02*
X110740476Y-97500000D01*
X110930952Y-97595238D02*
X110530952Y-97595238D01*
X110530952Y-97442857D01*
X110550000Y-97404761D01*
X110569047Y-97385714D01*
X110607142Y-97366666D01*
X110664285Y-97366666D01*
X110702380Y-97385714D01*
X110721428Y-97404761D01*
X110740476Y-97442857D01*
X110740476Y-97595238D01*
X110530952Y-97023809D02*
X110530952Y-97100000D01*
X110550000Y-97138095D01*
X110569047Y-97157142D01*
X110626190Y-97195238D01*
X110702380Y-97214285D01*
X110854761Y-97214285D01*
X110892857Y-97195238D01*
X110911904Y-97176190D01*
X110930952Y-97138095D01*
X110930952Y-97061904D01*
X110911904Y-97023809D01*
X110892857Y-97004761D01*
X110854761Y-96985714D01*
X110759523Y-96985714D01*
X110721428Y-97004761D01*
X110702380Y-97023809D01*
X110683333Y-97061904D01*
X110683333Y-97138095D01*
X110702380Y-97176190D01*
X110721428Y-97195238D01*
X110759523Y-97214285D01*
%TO.C,R5*%
X110930952Y-95866666D02*
X110740476Y-96000000D01*
X110930952Y-96095238D02*
X110530952Y-96095238D01*
X110530952Y-95942857D01*
X110550000Y-95904761D01*
X110569047Y-95885714D01*
X110607142Y-95866666D01*
X110664285Y-95866666D01*
X110702380Y-95885714D01*
X110721428Y-95904761D01*
X110740476Y-95942857D01*
X110740476Y-96095238D01*
X110530952Y-95504761D02*
X110530952Y-95695238D01*
X110721428Y-95714285D01*
X110702380Y-95695238D01*
X110683333Y-95657142D01*
X110683333Y-95561904D01*
X110702380Y-95523809D01*
X110721428Y-95504761D01*
X110759523Y-95485714D01*
X110854761Y-95485714D01*
X110892857Y-95504761D01*
X110911904Y-95523809D01*
X110930952Y-95561904D01*
X110930952Y-95657142D01*
X110911904Y-95695238D01*
X110892857Y-95714285D01*
%TO.C,R4*%
X93033333Y-92530952D02*
X92900000Y-92340476D01*
X92804761Y-92530952D02*
X92804761Y-92130952D01*
X92957142Y-92130952D01*
X92995238Y-92150000D01*
X93014285Y-92169047D01*
X93033333Y-92207142D01*
X93033333Y-92264285D01*
X93014285Y-92302380D01*
X92995238Y-92321428D01*
X92957142Y-92340476D01*
X92804761Y-92340476D01*
X93376190Y-92264285D02*
X93376190Y-92530952D01*
X93280952Y-92111904D02*
X93185714Y-92397619D01*
X93433333Y-92397619D01*
%TO.C,R3*%
X93833333Y-87280952D02*
X93700000Y-87090476D01*
X93604761Y-87280952D02*
X93604761Y-86880952D01*
X93757142Y-86880952D01*
X93795238Y-86900000D01*
X93814285Y-86919047D01*
X93833333Y-86957142D01*
X93833333Y-87014285D01*
X93814285Y-87052380D01*
X93795238Y-87071428D01*
X93757142Y-87090476D01*
X93604761Y-87090476D01*
X93966666Y-86880952D02*
X94214285Y-86880952D01*
X94080952Y-87033333D01*
X94138095Y-87033333D01*
X94176190Y-87052380D01*
X94195238Y-87071428D01*
X94214285Y-87109523D01*
X94214285Y-87204761D01*
X94195238Y-87242857D01*
X94176190Y-87261904D01*
X94138095Y-87280952D01*
X94023809Y-87280952D01*
X93985714Y-87261904D01*
X93966666Y-87242857D01*
%TO.C,R2*%
X95280952Y-84566666D02*
X95090476Y-84700000D01*
X95280952Y-84795238D02*
X94880952Y-84795238D01*
X94880952Y-84642857D01*
X94900000Y-84604761D01*
X94919047Y-84585714D01*
X94957142Y-84566666D01*
X95014285Y-84566666D01*
X95052380Y-84585714D01*
X95071428Y-84604761D01*
X95090476Y-84642857D01*
X95090476Y-84795238D01*
X94919047Y-84414285D02*
X94900000Y-84395238D01*
X94880952Y-84357142D01*
X94880952Y-84261904D01*
X94900000Y-84223809D01*
X94919047Y-84204761D01*
X94957142Y-84185714D01*
X94995238Y-84185714D01*
X95052380Y-84204761D01*
X95280952Y-84433333D01*
X95280952Y-84185714D01*
%TO.C,R1*%
X105080952Y-84566666D02*
X104890476Y-84700000D01*
X105080952Y-84795238D02*
X104680952Y-84795238D01*
X104680952Y-84642857D01*
X104700000Y-84604761D01*
X104719047Y-84585714D01*
X104757142Y-84566666D01*
X104814285Y-84566666D01*
X104852380Y-84585714D01*
X104871428Y-84604761D01*
X104890476Y-84642857D01*
X104890476Y-84795238D01*
X105080952Y-84185714D02*
X105080952Y-84414285D01*
X105080952Y-84300000D02*
X104680952Y-84300000D01*
X104738095Y-84338095D01*
X104776190Y-84376190D01*
X104795238Y-84414285D01*
%TO.C,C16*%
X94042857Y-103742857D02*
X94023809Y-103761904D01*
X93966666Y-103780952D01*
X93928571Y-103780952D01*
X93871428Y-103761904D01*
X93833333Y-103723809D01*
X93814285Y-103685714D01*
X93795238Y-103609523D01*
X93795238Y-103552380D01*
X93814285Y-103476190D01*
X93833333Y-103438095D01*
X93871428Y-103400000D01*
X93928571Y-103380952D01*
X93966666Y-103380952D01*
X94023809Y-103400000D01*
X94042857Y-103419047D01*
X94423809Y-103780952D02*
X94195238Y-103780952D01*
X94309523Y-103780952D02*
X94309523Y-103380952D01*
X94271428Y-103438095D01*
X94233333Y-103476190D01*
X94195238Y-103495238D01*
X94766666Y-103380952D02*
X94690476Y-103380952D01*
X94652380Y-103400000D01*
X94633333Y-103419047D01*
X94595238Y-103476190D01*
X94576190Y-103552380D01*
X94576190Y-103704761D01*
X94595238Y-103742857D01*
X94614285Y-103761904D01*
X94652380Y-103780952D01*
X94728571Y-103780952D01*
X94766666Y-103761904D01*
X94785714Y-103742857D01*
X94804761Y-103704761D01*
X94804761Y-103609523D01*
X94785714Y-103571428D01*
X94766666Y-103552380D01*
X94728571Y-103533333D01*
X94652380Y-103533333D01*
X94614285Y-103552380D01*
X94595238Y-103571428D01*
X94576190Y-103609523D01*
%TO.C,C15*%
X92542857Y-96642857D02*
X92523809Y-96661904D01*
X92466666Y-96680952D01*
X92428571Y-96680952D01*
X92371428Y-96661904D01*
X92333333Y-96623809D01*
X92314285Y-96585714D01*
X92295238Y-96509523D01*
X92295238Y-96452380D01*
X92314285Y-96376190D01*
X92333333Y-96338095D01*
X92371428Y-96300000D01*
X92428571Y-96280952D01*
X92466666Y-96280952D01*
X92523809Y-96300000D01*
X92542857Y-96319047D01*
X92923809Y-96680952D02*
X92695238Y-96680952D01*
X92809523Y-96680952D02*
X92809523Y-96280952D01*
X92771428Y-96338095D01*
X92733333Y-96376190D01*
X92695238Y-96395238D01*
X93285714Y-96280952D02*
X93095238Y-96280952D01*
X93076190Y-96471428D01*
X93095238Y-96452380D01*
X93133333Y-96433333D01*
X93228571Y-96433333D01*
X93266666Y-96452380D01*
X93285714Y-96471428D01*
X93304761Y-96509523D01*
X93304761Y-96604761D01*
X93285714Y-96642857D01*
X93266666Y-96661904D01*
X93228571Y-96680952D01*
X93133333Y-96680952D01*
X93095238Y-96661904D01*
X93076190Y-96642857D01*
%TO.C,C14*%
X105242857Y-95842857D02*
X105223809Y-95861904D01*
X105166666Y-95880952D01*
X105128571Y-95880952D01*
X105071428Y-95861904D01*
X105033333Y-95823809D01*
X105014285Y-95785714D01*
X104995238Y-95709523D01*
X104995238Y-95652380D01*
X105014285Y-95576190D01*
X105033333Y-95538095D01*
X105071428Y-95500000D01*
X105128571Y-95480952D01*
X105166666Y-95480952D01*
X105223809Y-95500000D01*
X105242857Y-95519047D01*
X105623809Y-95880952D02*
X105395238Y-95880952D01*
X105509523Y-95880952D02*
X105509523Y-95480952D01*
X105471428Y-95538095D01*
X105433333Y-95576190D01*
X105395238Y-95595238D01*
X105966666Y-95614285D02*
X105966666Y-95880952D01*
X105871428Y-95461904D02*
X105776190Y-95747619D01*
X106023809Y-95747619D01*
%TO.C,C13*%
X106442857Y-102557142D02*
X106461904Y-102576190D01*
X106480952Y-102633333D01*
X106480952Y-102671428D01*
X106461904Y-102728571D01*
X106423809Y-102766666D01*
X106385714Y-102785714D01*
X106309523Y-102804761D01*
X106252380Y-102804761D01*
X106176190Y-102785714D01*
X106138095Y-102766666D01*
X106100000Y-102728571D01*
X106080952Y-102671428D01*
X106080952Y-102633333D01*
X106100000Y-102576190D01*
X106119047Y-102557142D01*
X106480952Y-102176190D02*
X106480952Y-102404761D01*
X106480952Y-102290476D02*
X106080952Y-102290476D01*
X106138095Y-102328571D01*
X106176190Y-102366666D01*
X106195238Y-102404761D01*
X106080952Y-102042857D02*
X106080952Y-101795238D01*
X106233333Y-101928571D01*
X106233333Y-101871428D01*
X106252380Y-101833333D01*
X106271428Y-101814285D01*
X106309523Y-101795238D01*
X106404761Y-101795238D01*
X106442857Y-101814285D01*
X106461904Y-101833333D01*
X106480952Y-101871428D01*
X106480952Y-101985714D01*
X106461904Y-102023809D01*
X106442857Y-102042857D01*
%TO.C,C12*%
X104892857Y-102607142D02*
X104911904Y-102626190D01*
X104930952Y-102683333D01*
X104930952Y-102721428D01*
X104911904Y-102778571D01*
X104873809Y-102816666D01*
X104835714Y-102835714D01*
X104759523Y-102854761D01*
X104702380Y-102854761D01*
X104626190Y-102835714D01*
X104588095Y-102816666D01*
X104550000Y-102778571D01*
X104530952Y-102721428D01*
X104530952Y-102683333D01*
X104550000Y-102626190D01*
X104569047Y-102607142D01*
X104930952Y-102226190D02*
X104930952Y-102454761D01*
X104930952Y-102340476D02*
X104530952Y-102340476D01*
X104588095Y-102378571D01*
X104626190Y-102416666D01*
X104645238Y-102454761D01*
X104569047Y-102073809D02*
X104550000Y-102054761D01*
X104530952Y-102016666D01*
X104530952Y-101921428D01*
X104550000Y-101883333D01*
X104569047Y-101864285D01*
X104607142Y-101845238D01*
X104645238Y-101845238D01*
X104702380Y-101864285D01*
X104930952Y-102092857D01*
X104930952Y-101845238D01*
%TO.C,C11*%
X97817857Y-94392857D02*
X97798809Y-94411904D01*
X97741666Y-94430952D01*
X97703571Y-94430952D01*
X97646428Y-94411904D01*
X97608333Y-94373809D01*
X97589285Y-94335714D01*
X97570238Y-94259523D01*
X97570238Y-94202380D01*
X97589285Y-94126190D01*
X97608333Y-94088095D01*
X97646428Y-94050000D01*
X97703571Y-94030952D01*
X97741666Y-94030952D01*
X97798809Y-94050000D01*
X97817857Y-94069047D01*
X98198809Y-94430952D02*
X97970238Y-94430952D01*
X98084523Y-94430952D02*
X98084523Y-94030952D01*
X98046428Y-94088095D01*
X98008333Y-94126190D01*
X97970238Y-94145238D01*
X98579761Y-94430952D02*
X98351190Y-94430952D01*
X98465476Y-94430952D02*
X98465476Y-94030952D01*
X98427380Y-94088095D01*
X98389285Y-94126190D01*
X98351190Y-94145238D01*
%TO.C,C10*%
X92442857Y-94042857D02*
X92423809Y-94061904D01*
X92366666Y-94080952D01*
X92328571Y-94080952D01*
X92271428Y-94061904D01*
X92233333Y-94023809D01*
X92214285Y-93985714D01*
X92195238Y-93909523D01*
X92195238Y-93852380D01*
X92214285Y-93776190D01*
X92233333Y-93738095D01*
X92271428Y-93700000D01*
X92328571Y-93680952D01*
X92366666Y-93680952D01*
X92423809Y-93700000D01*
X92442857Y-93719047D01*
X92823809Y-94080952D02*
X92595238Y-94080952D01*
X92709523Y-94080952D02*
X92709523Y-93680952D01*
X92671428Y-93738095D01*
X92633333Y-93776190D01*
X92595238Y-93795238D01*
X93071428Y-93680952D02*
X93109523Y-93680952D01*
X93147619Y-93700000D01*
X93166666Y-93719047D01*
X93185714Y-93757142D01*
X93204761Y-93833333D01*
X93204761Y-93928571D01*
X93185714Y-94004761D01*
X93166666Y-94042857D01*
X93147619Y-94061904D01*
X93109523Y-94080952D01*
X93071428Y-94080952D01*
X93033333Y-94061904D01*
X93014285Y-94042857D01*
X92995238Y-94004761D01*
X92976190Y-93928571D01*
X92976190Y-93833333D01*
X92995238Y-93757142D01*
X93014285Y-93719047D01*
X93033333Y-93700000D01*
X93071428Y-93680952D01*
%TO.C,C9*%
X103883333Y-93992857D02*
X103864285Y-94011904D01*
X103807142Y-94030952D01*
X103769047Y-94030952D01*
X103711904Y-94011904D01*
X103673809Y-93973809D01*
X103654761Y-93935714D01*
X103635714Y-93859523D01*
X103635714Y-93802380D01*
X103654761Y-93726190D01*
X103673809Y-93688095D01*
X103711904Y-93650000D01*
X103769047Y-93630952D01*
X103807142Y-93630952D01*
X103864285Y-93650000D01*
X103883333Y-93669047D01*
X104073809Y-94030952D02*
X104150000Y-94030952D01*
X104188095Y-94011904D01*
X104207142Y-93992857D01*
X104245238Y-93935714D01*
X104264285Y-93859523D01*
X104264285Y-93707142D01*
X104245238Y-93669047D01*
X104226190Y-93650000D01*
X104188095Y-93630952D01*
X104111904Y-93630952D01*
X104073809Y-93650000D01*
X104054761Y-93669047D01*
X104035714Y-93707142D01*
X104035714Y-93802380D01*
X104054761Y-93840476D01*
X104073809Y-93859523D01*
X104111904Y-93878571D01*
X104188095Y-93878571D01*
X104226190Y-93859523D01*
X104245238Y-93840476D01*
X104264285Y-93802380D01*
%TO.C,C8*%
X92142857Y-90666666D02*
X92161904Y-90685714D01*
X92180952Y-90742857D01*
X92180952Y-90780952D01*
X92161904Y-90838095D01*
X92123809Y-90876190D01*
X92085714Y-90895238D01*
X92009523Y-90914285D01*
X91952380Y-90914285D01*
X91876190Y-90895238D01*
X91838095Y-90876190D01*
X91800000Y-90838095D01*
X91780952Y-90780952D01*
X91780952Y-90742857D01*
X91800000Y-90685714D01*
X91819047Y-90666666D01*
X91952380Y-90438095D02*
X91933333Y-90476190D01*
X91914285Y-90495238D01*
X91876190Y-90514285D01*
X91857142Y-90514285D01*
X91819047Y-90495238D01*
X91800000Y-90476190D01*
X91780952Y-90438095D01*
X91780952Y-90361904D01*
X91800000Y-90323809D01*
X91819047Y-90304761D01*
X91857142Y-90285714D01*
X91876190Y-90285714D01*
X91914285Y-90304761D01*
X91933333Y-90323809D01*
X91952380Y-90361904D01*
X91952380Y-90438095D01*
X91971428Y-90476190D01*
X91990476Y-90495238D01*
X92028571Y-90514285D01*
X92104761Y-90514285D01*
X92142857Y-90495238D01*
X92161904Y-90476190D01*
X92180952Y-90438095D01*
X92180952Y-90361904D01*
X92161904Y-90323809D01*
X92142857Y-90304761D01*
X92104761Y-90285714D01*
X92028571Y-90285714D01*
X91990476Y-90304761D01*
X91971428Y-90323809D01*
X91952380Y-90361904D01*
%TO.C,C7*%
X103883333Y-95492857D02*
X103864285Y-95511904D01*
X103807142Y-95530952D01*
X103769047Y-95530952D01*
X103711904Y-95511904D01*
X103673809Y-95473809D01*
X103654761Y-95435714D01*
X103635714Y-95359523D01*
X103635714Y-95302380D01*
X103654761Y-95226190D01*
X103673809Y-95188095D01*
X103711904Y-95150000D01*
X103769047Y-95130952D01*
X103807142Y-95130952D01*
X103864285Y-95150000D01*
X103883333Y-95169047D01*
X104016666Y-95130952D02*
X104283333Y-95130952D01*
X104111904Y-95530952D01*
%TO.C,C6*%
X98433333Y-87292857D02*
X98414285Y-87311904D01*
X98357142Y-87330952D01*
X98319047Y-87330952D01*
X98261904Y-87311904D01*
X98223809Y-87273809D01*
X98204761Y-87235714D01*
X98185714Y-87159523D01*
X98185714Y-87102380D01*
X98204761Y-87026190D01*
X98223809Y-86988095D01*
X98261904Y-86950000D01*
X98319047Y-86930952D01*
X98357142Y-86930952D01*
X98414285Y-86950000D01*
X98433333Y-86969047D01*
X98776190Y-86930952D02*
X98700000Y-86930952D01*
X98661904Y-86950000D01*
X98642857Y-86969047D01*
X98604761Y-87026190D01*
X98585714Y-87102380D01*
X98585714Y-87254761D01*
X98604761Y-87292857D01*
X98623809Y-87311904D01*
X98661904Y-87330952D01*
X98738095Y-87330952D01*
X98776190Y-87311904D01*
X98795238Y-87292857D01*
X98814285Y-87254761D01*
X98814285Y-87159523D01*
X98795238Y-87121428D01*
X98776190Y-87102380D01*
X98738095Y-87083333D01*
X98661904Y-87083333D01*
X98623809Y-87102380D01*
X98604761Y-87121428D01*
X98585714Y-87159523D01*
%TO.C,C4*%
X95242857Y-87016666D02*
X95261904Y-87035714D01*
X95280952Y-87092857D01*
X95280952Y-87130952D01*
X95261904Y-87188095D01*
X95223809Y-87226190D01*
X95185714Y-87245238D01*
X95109523Y-87264285D01*
X95052380Y-87264285D01*
X94976190Y-87245238D01*
X94938095Y-87226190D01*
X94900000Y-87188095D01*
X94880952Y-87130952D01*
X94880952Y-87092857D01*
X94900000Y-87035714D01*
X94919047Y-87016666D01*
X95014285Y-86673809D02*
X95280952Y-86673809D01*
X94861904Y-86769047D02*
X95147619Y-86864285D01*
X95147619Y-86616666D01*
%TO.C,C3*%
X105042857Y-87066666D02*
X105061904Y-87085714D01*
X105080952Y-87142857D01*
X105080952Y-87180952D01*
X105061904Y-87238095D01*
X105023809Y-87276190D01*
X104985714Y-87295238D01*
X104909523Y-87314285D01*
X104852380Y-87314285D01*
X104776190Y-87295238D01*
X104738095Y-87276190D01*
X104700000Y-87238095D01*
X104680952Y-87180952D01*
X104680952Y-87142857D01*
X104700000Y-87085714D01*
X104719047Y-87066666D01*
X104680952Y-86933333D02*
X104680952Y-86685714D01*
X104833333Y-86819047D01*
X104833333Y-86761904D01*
X104852380Y-86723809D01*
X104871428Y-86704761D01*
X104909523Y-86685714D01*
X105004761Y-86685714D01*
X105042857Y-86704761D01*
X105061904Y-86723809D01*
X105080952Y-86761904D01*
X105080952Y-86876190D01*
X105061904Y-86914285D01*
X105042857Y-86933333D01*
%TO.C,C1*%
X101433333Y-84992857D02*
X101414285Y-85011904D01*
X101357142Y-85030952D01*
X101319047Y-85030952D01*
X101261904Y-85011904D01*
X101223809Y-84973809D01*
X101204761Y-84935714D01*
X101185714Y-84859523D01*
X101185714Y-84802380D01*
X101204761Y-84726190D01*
X101223809Y-84688095D01*
X101261904Y-84650000D01*
X101319047Y-84630952D01*
X101357142Y-84630952D01*
X101414285Y-84650000D01*
X101433333Y-84669047D01*
X101814285Y-85030952D02*
X101585714Y-85030952D01*
X101700000Y-85030952D02*
X101700000Y-84630952D01*
X101661904Y-84688095D01*
X101623809Y-84726190D01*
X101585714Y-84745238D01*
%TO.C,J3*%
D13*
X104952380Y-109233333D02*
X105666666Y-109233333D01*
X105809523Y-109280952D01*
X105904761Y-109376190D01*
X105952380Y-109519047D01*
X105952380Y-109614285D01*
X104952380Y-108852380D02*
X104952380Y-108233333D01*
X105333333Y-108566666D01*
X105333333Y-108423809D01*
X105380952Y-108328571D01*
X105428571Y-108280952D01*
X105523809Y-108233333D01*
X105761904Y-108233333D01*
X105857142Y-108280952D01*
X105904761Y-108328571D01*
X105952380Y-108423809D01*
X105952380Y-108709523D01*
X105904761Y-108804761D01*
X105857142Y-108852380D01*
X95035714Y-109352380D02*
X94464285Y-109352380D01*
X94750000Y-109352380D02*
X94750000Y-108352380D01*
X94654761Y-108495238D01*
X94559523Y-108590476D01*
X94464285Y-108638095D01*
%TO.C,Y1*%
D15*
X95838095Y-100238095D02*
X96076190Y-100238095D01*
X95576190Y-100404761D02*
X95838095Y-100238095D01*
X95576190Y-100071428D01*
X96076190Y-99642857D02*
X96076190Y-99928571D01*
X96076190Y-99785714D02*
X95576190Y-99785714D01*
X95647619Y-99833333D01*
X95695238Y-99880952D01*
X95719047Y-99928571D01*
%TD*%
M02*
