%TF.GenerationSoftware,KiCad,Pcbnew,(5.1.9-0-10_14)*%
%TF.CreationDate,2021-04-28T18:56:35+01:00*%
%TF.ProjectId,PN532,504e3533-322e-46b6-9963-61645f706362,2*%
%TF.SameCoordinates,Original*%
%TF.FileFunction,Copper,L2,Bot*%
%TF.FilePolarity,Positive*%
%FSLAX46Y46*%
G04 Gerber Fmt 4.6, Leading zero omitted, Abs format (unit mm)*
G04 Created by KiCad (PCBNEW (5.1.9-0-10_14)) date 2021-04-28 18:56:35*
%MOMM*%
%LPD*%
G01*
G04 APERTURE LIST*
%TA.AperFunction,EtchedComponent*%
%ADD10C,0.500000*%
%TD*%
%TA.AperFunction,ComponentPad*%
%ADD11C,0.600000*%
%TD*%
%TA.AperFunction,SMDPad,CuDef*%
%ADD12R,0.250000X0.250000*%
%TD*%
%TA.AperFunction,ComponentPad*%
%ADD13C,3.200000*%
%TD*%
%TA.AperFunction,ComponentPad*%
%ADD14C,1.800000*%
%TD*%
%TA.AperFunction,ComponentPad*%
%ADD15R,1.800000X1.800000*%
%TD*%
%TA.AperFunction,ComponentPad*%
%ADD16O,1.700000X1.700000*%
%TD*%
%TA.AperFunction,ComponentPad*%
%ADD17R,1.700000X1.700000*%
%TD*%
%TA.AperFunction,ComponentPad*%
%ADD18O,1.700000X1.850000*%
%TD*%
%TA.AperFunction,ComponentPad*%
%ADD19C,2.000000*%
%TD*%
%TA.AperFunction,ComponentPad*%
%ADD20C,1.000000*%
%TD*%
%TA.AperFunction,ComponentPad*%
%ADD21C,1.300000*%
%TD*%
%TA.AperFunction,ComponentPad*%
%ADD22R,1.300000X1.300000*%
%TD*%
%TA.AperFunction,ViaPad*%
%ADD23C,0.800000*%
%TD*%
%TA.AperFunction,ViaPad*%
%ADD24C,1.000000*%
%TD*%
%TA.AperFunction,Conductor*%
%ADD25C,0.250000*%
%TD*%
%TA.AperFunction,Conductor*%
%ADD26C,0.500000*%
%TD*%
%TA.AperFunction,Conductor*%
%ADD27C,0.254000*%
%TD*%
%TA.AperFunction,Conductor*%
%ADD28C,0.100000*%
%TD*%
G04 APERTURE END LIST*
D10*
%TO.C,A1*%
X137000000Y-115000000D02*
X163000000Y-115000000D01*
X170000000Y-108000000D02*
X170000000Y-82000000D01*
X163000000Y-75000000D02*
X137000000Y-75000000D01*
X169000000Y-108000000D02*
X169000000Y-82000000D01*
X163000000Y-76000000D02*
X137000000Y-76000000D01*
X163000000Y-114000000D02*
X137000000Y-114000000D01*
X137000000Y-113000000D02*
X163000000Y-113000000D01*
X168000000Y-108000000D02*
X168000000Y-82000000D01*
X163000000Y-77000000D02*
X137000000Y-77000000D01*
X137000000Y-112000000D02*
X163000000Y-112000000D01*
X167000000Y-108000000D02*
X167000000Y-98000000D01*
X167000000Y-82000000D02*
X167000000Y-92000000D01*
X163000000Y-78000000D02*
X137000000Y-78000000D01*
X133000000Y-108000000D02*
X133000000Y-96000000D01*
X132000000Y-108000000D02*
X132000000Y-96000000D01*
X132000000Y-96000000D02*
X133000000Y-94000000D01*
X133000000Y-94000000D02*
X133000000Y-82000000D01*
X131000000Y-108000000D02*
X131000000Y-96000000D01*
X131000000Y-96000000D02*
X132000000Y-94000000D01*
X132000000Y-94000000D02*
X132000000Y-82000000D01*
X130000000Y-108000000D02*
X130000000Y-96000000D01*
X130000000Y-96000000D02*
X131000000Y-94000000D01*
X131000000Y-94000000D02*
X131000000Y-82000000D01*
X130000000Y-82000000D02*
X130000000Y-94000000D01*
X170000000Y-82000000D02*
G75*
G03*
X163000000Y-75000000I-7000000J0D01*
G01*
X169000000Y-82000000D02*
G75*
G03*
X163000000Y-76000000I-6000000J0D01*
G01*
X168000000Y-82000000D02*
G75*
G03*
X163000000Y-77000000I-5000000J0D01*
G01*
X167000000Y-82000000D02*
G75*
G03*
X163000000Y-78000000I-4000000J0D01*
G01*
X137000000Y-75000000D02*
G75*
G03*
X130000000Y-82000000I0J-7000000D01*
G01*
X137000000Y-76000000D02*
G75*
G03*
X131000000Y-82000000I0J-6000000D01*
G01*
X137000000Y-77000000D02*
G75*
G03*
X132000000Y-82000000I0J-5000000D01*
G01*
X137000000Y-78000000D02*
G75*
G03*
X133000000Y-82000000I0J-4000000D01*
G01*
X130000000Y-108000000D02*
G75*
G03*
X137000000Y-115000000I7000000J0D01*
G01*
X131000000Y-108000000D02*
G75*
G03*
X137000000Y-114000000I6000000J0D01*
G01*
X132000000Y-108000000D02*
G75*
G03*
X137000000Y-113000000I5000000J0D01*
G01*
X133000000Y-108000000D02*
G75*
G03*
X137000000Y-112000000I4000000J0D01*
G01*
X163000000Y-112000000D02*
G75*
G03*
X167000000Y-108000000I0J4000000D01*
G01*
X163000000Y-113000000D02*
G75*
G03*
X168000000Y-108000000I0J5000000D01*
G01*
X163000000Y-114000000D02*
G75*
G03*
X169000000Y-108000000I0J6000000D01*
G01*
X163000000Y-115000000D02*
G75*
G03*
X170000000Y-108000000I0J7000000D01*
G01*
%TD*%
D11*
%TO.P,A1,~*%
%TO.N,N/C*%
X130000000Y-94000000D03*
X133000000Y-96000000D03*
%TO.P,A1,3*%
%TO.N,Net-(A1-Pad3)*%
X167000000Y-92000000D03*
%TO.P,A1,1*%
%TO.N,Net-(A1-Pad1)*%
X167000000Y-98000000D03*
%TO.P,A1,2*%
%TO.N,GND*%
X169000000Y-95000000D03*
%TD*%
D12*
%TO.P,U2,~*%
%TO.N,N/C*%
X159500000Y-85500000D03*
X159500000Y-84750000D03*
X159500000Y-84250000D03*
X159500000Y-83500000D03*
X159500000Y-83250000D03*
X159500000Y-82500000D03*
X159500000Y-82000000D03*
X159500000Y-81750000D03*
X159500000Y-81500000D03*
X159500000Y-81250000D03*
X159500000Y-81000000D03*
X159500000Y-80750000D03*
X159500000Y-80500000D03*
X159750000Y-85500000D03*
X159750000Y-85250000D03*
X159750000Y-84750000D03*
X159750000Y-83500000D03*
X159750000Y-83250000D03*
X159750000Y-82750000D03*
X159750000Y-82500000D03*
X159750000Y-82000000D03*
X159750000Y-80500000D03*
X160000000Y-85500000D03*
X160000000Y-84250000D03*
X160000000Y-83250000D03*
X160000000Y-83000000D03*
X160000000Y-82500000D03*
X160000000Y-82000000D03*
X160000000Y-81500000D03*
X160000000Y-81250000D03*
X160000000Y-81000000D03*
X160000000Y-80500000D03*
X160250000Y-85250000D03*
X160250000Y-83750000D03*
X160250000Y-83000000D03*
X160250000Y-82000000D03*
X160250000Y-81500000D03*
X160250000Y-81250000D03*
X160250000Y-81000000D03*
X160250000Y-80500000D03*
X160500000Y-85000000D03*
X160500000Y-84500000D03*
X160500000Y-84250000D03*
X160500000Y-84000000D03*
X160500000Y-83750000D03*
X160500000Y-83000000D03*
X160500000Y-82500000D03*
X160500000Y-82000000D03*
X160500000Y-81500000D03*
X160500000Y-81250000D03*
X160500000Y-81000000D03*
X160500000Y-80500000D03*
X160750000Y-85500000D03*
X160750000Y-84250000D03*
X160750000Y-83750000D03*
X160750000Y-83250000D03*
X160750000Y-82750000D03*
X160750000Y-82500000D03*
X160750000Y-82000000D03*
X160750000Y-80500000D03*
X161000000Y-85500000D03*
X161000000Y-85000000D03*
X161000000Y-84750000D03*
X161000000Y-84500000D03*
X161000000Y-84250000D03*
X161000000Y-83500000D03*
X161000000Y-83250000D03*
X161000000Y-82500000D03*
X161000000Y-82000000D03*
X161000000Y-81750000D03*
X161000000Y-81500000D03*
X161000000Y-81250000D03*
X161000000Y-81000000D03*
X161000000Y-80750000D03*
X161000000Y-80500000D03*
X161250000Y-85500000D03*
X161250000Y-84500000D03*
X161250000Y-83750000D03*
X161250000Y-83500000D03*
X161250000Y-83000000D03*
X161250000Y-82750000D03*
X161250000Y-82500000D03*
X161500000Y-85500000D03*
X161500000Y-84250000D03*
X161500000Y-84000000D03*
X161500000Y-83250000D03*
X161500000Y-83000000D03*
X161500000Y-82750000D03*
X161500000Y-82250000D03*
X161500000Y-82000000D03*
X161500000Y-81500000D03*
X161500000Y-81000000D03*
X161750000Y-84250000D03*
X161750000Y-84000000D03*
X161750000Y-83750000D03*
X161750000Y-83500000D03*
X161750000Y-82500000D03*
X161750000Y-82250000D03*
X161750000Y-81500000D03*
X161750000Y-81000000D03*
X161750000Y-80750000D03*
X161750000Y-80500000D03*
X162000000Y-84500000D03*
X162000000Y-84000000D03*
X162000000Y-83500000D03*
X162000000Y-83000000D03*
X162000000Y-82250000D03*
X162000000Y-82000000D03*
X162000000Y-81250000D03*
X162000000Y-81000000D03*
X162000000Y-80750000D03*
X162000000Y-80500000D03*
X162250000Y-85500000D03*
X162250000Y-85250000D03*
X162250000Y-85000000D03*
X162250000Y-84750000D03*
X162250000Y-84000000D03*
X162250000Y-83250000D03*
X162250000Y-83000000D03*
X162250000Y-82750000D03*
X162250000Y-82250000D03*
X162250000Y-80750000D03*
X162250000Y-80500000D03*
X162500000Y-85000000D03*
X162500000Y-84000000D03*
X162500000Y-83750000D03*
X162500000Y-83500000D03*
X162500000Y-83000000D03*
X162500000Y-82500000D03*
X162500000Y-82250000D03*
X162500000Y-82000000D03*
X162500000Y-81750000D03*
X162500000Y-81500000D03*
X162500000Y-81000000D03*
X162500000Y-80750000D03*
X162500000Y-80500000D03*
X162750000Y-83250000D03*
X162750000Y-83000000D03*
X162750000Y-82500000D03*
X163000000Y-85500000D03*
X163000000Y-85250000D03*
X163000000Y-85000000D03*
X163000000Y-84750000D03*
X163000000Y-84500000D03*
X163000000Y-84250000D03*
X163000000Y-84000000D03*
X163000000Y-83500000D03*
X163000000Y-83000000D03*
X163000000Y-82500000D03*
X163000000Y-82000000D03*
X163000000Y-81750000D03*
X163000000Y-81500000D03*
X163000000Y-81250000D03*
X163000000Y-81000000D03*
X163000000Y-80750000D03*
X163000000Y-80500000D03*
X163250000Y-85500000D03*
X163250000Y-84000000D03*
X163250000Y-83500000D03*
X163250000Y-83000000D03*
X163250000Y-82750000D03*
X163250000Y-82000000D03*
X163250000Y-80500000D03*
X163500000Y-85500000D03*
X163500000Y-85000000D03*
X163500000Y-84750000D03*
X163500000Y-84500000D03*
X163500000Y-84000000D03*
X163500000Y-82750000D03*
X163500000Y-82000000D03*
X163500000Y-81500000D03*
X163500000Y-81250000D03*
X163500000Y-81000000D03*
X163500000Y-80500000D03*
X163750000Y-85500000D03*
X163750000Y-85000000D03*
X163750000Y-84750000D03*
X163750000Y-84500000D03*
X163750000Y-84000000D03*
X163750000Y-83500000D03*
X163750000Y-83250000D03*
X163750000Y-82750000D03*
X163750000Y-82000000D03*
X163750000Y-81500000D03*
X163750000Y-81250000D03*
X163750000Y-81000000D03*
X163750000Y-80500000D03*
X164000000Y-85500000D03*
X164000000Y-85000000D03*
X164000000Y-84750000D03*
X164000000Y-84500000D03*
X164000000Y-84000000D03*
X164000000Y-83250000D03*
X164000000Y-83000000D03*
X164000000Y-82500000D03*
X164000000Y-82000000D03*
X164000000Y-81500000D03*
X164000000Y-81250000D03*
X164000000Y-81000000D03*
X164000000Y-80500000D03*
X164250000Y-85500000D03*
X164250000Y-84000000D03*
X164250000Y-83500000D03*
X164250000Y-82750000D03*
X164250000Y-82000000D03*
X164250000Y-80500000D03*
X164500000Y-85500000D03*
X164500000Y-85250000D03*
X164500000Y-85000000D03*
X164500000Y-84750000D03*
X164500000Y-84500000D03*
X164500000Y-84250000D03*
X164500000Y-84000000D03*
X164500000Y-83500000D03*
X164500000Y-83000000D03*
X164500000Y-82000000D03*
X164500000Y-81750000D03*
X164500000Y-81500000D03*
X164500000Y-81250000D03*
X164500000Y-81000000D03*
X164500000Y-80750000D03*
X164500000Y-80500000D03*
%TD*%
D13*
%TO.P,H2,1*%
%TO.N,N/C*%
X138000000Y-83000000D03*
%TD*%
%TO.P,H1,1*%
%TO.N,N/C*%
X162000000Y-107000000D03*
%TD*%
%TO.P,D1,1*%
%TO.N,GND*%
%TA.AperFunction,SMDPad,CuDef*%
G36*
G01*
X137549999Y-93200000D02*
X138450001Y-93200000D01*
G75*
G02*
X138700000Y-93449999I0J-249999D01*
G01*
X138700000Y-94150001D01*
G75*
G02*
X138450001Y-94400000I-249999J0D01*
G01*
X137549999Y-94400000D01*
G75*
G02*
X137300000Y-94150001I0J249999D01*
G01*
X137300000Y-93449999D01*
G75*
G02*
X137549999Y-93200000I249999J0D01*
G01*
G37*
%TD.AperFunction*%
%TO.P,D1,2*%
%TO.N,Net-(D1-Pad2)*%
%TA.AperFunction,SMDPad,CuDef*%
G36*
G01*
X137549999Y-95200000D02*
X138450001Y-95200000D01*
G75*
G02*
X138700000Y-95449999I0J-249999D01*
G01*
X138700000Y-96150001D01*
G75*
G02*
X138450001Y-96400000I-249999J0D01*
G01*
X137549999Y-96400000D01*
G75*
G02*
X137300000Y-96150001I0J249999D01*
G01*
X137300000Y-95449999D01*
G75*
G02*
X137549999Y-95200000I249999J0D01*
G01*
G37*
%TD.AperFunction*%
%TA.AperFunction,SMDPad,CuDef*%
G36*
G01*
X137375000Y-96005000D02*
X138625000Y-96005000D01*
G75*
G02*
X138875000Y-96255000I0J-250000D01*
G01*
X138875000Y-97180000D01*
G75*
G02*
X138625000Y-97430000I-250000J0D01*
G01*
X137375000Y-97430000D01*
G75*
G02*
X137125000Y-97180000I0J250000D01*
G01*
X137125000Y-96255000D01*
G75*
G02*
X137375000Y-96005000I250000J0D01*
G01*
G37*
%TD.AperFunction*%
%TO.P,D1,1*%
%TO.N,GND*%
%TA.AperFunction,SMDPad,CuDef*%
G36*
G01*
X137375000Y-93030000D02*
X138625000Y-93030000D01*
G75*
G02*
X138875000Y-93280000I0J-250000D01*
G01*
X138875000Y-94205000D01*
G75*
G02*
X138625000Y-94455000I-250000J0D01*
G01*
X137375000Y-94455000D01*
G75*
G02*
X137125000Y-94205000I0J250000D01*
G01*
X137125000Y-93280000D01*
G75*
G02*
X137375000Y-93030000I250000J0D01*
G01*
G37*
%TD.AperFunction*%
D14*
%TO.P,D1,2*%
%TO.N,Net-(D1-Pad2)*%
X138000000Y-96270000D03*
D15*
%TO.P,D1,1*%
%TO.N,GND*%
X138000000Y-93730000D03*
%TD*%
D16*
%TO.P,J1,2*%
%TO.N,Net-(J1-Pad2)*%
X143000000Y-81730000D03*
D17*
%TO.P,J1,1*%
%TO.N,GND*%
X143000000Y-84270000D03*
%TD*%
D18*
%TO.P,J3,4*%
%TO.N,Net-(J2-Pad4)*%
X153750000Y-103900000D03*
%TO.P,J3,3*%
%TO.N,Net-(J2-Pad3)*%
X151250000Y-103900000D03*
%TO.P,J3,2*%
%TO.N,+5V*%
X148750000Y-103900000D03*
%TO.P,J3,1*%
%TO.N,GND*%
%TA.AperFunction,ComponentPad*%
G36*
G01*
X145400000Y-104575000D02*
X145400000Y-103225000D01*
G75*
G02*
X145650000Y-102975000I250000J0D01*
G01*
X146850000Y-102975000D01*
G75*
G02*
X147100000Y-103225000I0J-250000D01*
G01*
X147100000Y-104575000D01*
G75*
G02*
X146850000Y-104825000I-250000J0D01*
G01*
X145650000Y-104825000D01*
G75*
G02*
X145400000Y-104575000I0J250000D01*
G01*
G37*
%TD.AperFunction*%
%TD*%
D16*
%TO.P,J2,4*%
%TO.N,Net-(J2-Pad4)*%
X153810000Y-107000000D03*
%TO.P,J2,3*%
%TO.N,Net-(J2-Pad3)*%
X151270000Y-107000000D03*
%TO.P,J2,2*%
%TO.N,+5V*%
X148730000Y-107000000D03*
D17*
%TO.P,J2,1*%
%TO.N,GND*%
X146190000Y-107000000D03*
%TD*%
%TO.P,D3,1*%
%TO.N,GND*%
%TA.AperFunction,SMDPad,CuDef*%
G36*
G01*
X137549999Y-105200000D02*
X138450001Y-105200000D01*
G75*
G02*
X138700000Y-105449999I0J-249999D01*
G01*
X138700000Y-106150001D01*
G75*
G02*
X138450001Y-106400000I-249999J0D01*
G01*
X137549999Y-106400000D01*
G75*
G02*
X137300000Y-106150001I0J249999D01*
G01*
X137300000Y-105449999D01*
G75*
G02*
X137549999Y-105200000I249999J0D01*
G01*
G37*
%TD.AperFunction*%
%TO.P,D3,2*%
%TO.N,Net-(D3-Pad2)*%
%TA.AperFunction,SMDPad,CuDef*%
G36*
G01*
X137549999Y-107200000D02*
X138450001Y-107200000D01*
G75*
G02*
X138700000Y-107449999I0J-249999D01*
G01*
X138700000Y-108150001D01*
G75*
G02*
X138450001Y-108400000I-249999J0D01*
G01*
X137549999Y-108400000D01*
G75*
G02*
X137300000Y-108150001I0J249999D01*
G01*
X137300000Y-107449999D01*
G75*
G02*
X137549999Y-107200000I249999J0D01*
G01*
G37*
%TD.AperFunction*%
%TA.AperFunction,SMDPad,CuDef*%
G36*
G01*
X137375000Y-108005000D02*
X138625000Y-108005000D01*
G75*
G02*
X138875000Y-108255000I0J-250000D01*
G01*
X138875000Y-109180000D01*
G75*
G02*
X138625000Y-109430000I-250000J0D01*
G01*
X137375000Y-109430000D01*
G75*
G02*
X137125000Y-109180000I0J250000D01*
G01*
X137125000Y-108255000D01*
G75*
G02*
X137375000Y-108005000I250000J0D01*
G01*
G37*
%TD.AperFunction*%
%TO.P,D3,1*%
%TO.N,GND*%
%TA.AperFunction,SMDPad,CuDef*%
G36*
G01*
X137375000Y-105030000D02*
X138625000Y-105030000D01*
G75*
G02*
X138875000Y-105280000I0J-250000D01*
G01*
X138875000Y-106205000D01*
G75*
G02*
X138625000Y-106455000I-250000J0D01*
G01*
X137375000Y-106455000D01*
G75*
G02*
X137125000Y-106205000I0J250000D01*
G01*
X137125000Y-105280000D01*
G75*
G02*
X137375000Y-105030000I250000J0D01*
G01*
G37*
%TD.AperFunction*%
D14*
%TO.P,D3,2*%
%TO.N,Net-(D3-Pad2)*%
X138000000Y-108270000D03*
D15*
%TO.P,D3,1*%
%TO.N,GND*%
X138000000Y-105730000D03*
%TD*%
D19*
%TO.P,SW1,1*%
%TO.N,GND*%
X146750000Y-85250000D03*
%TO.P,SW1,2*%
%TO.N,Net-(R10-Pad2)*%
X146750000Y-80750000D03*
%TO.P,SW1,1*%
%TO.N,GND*%
X153250000Y-85250000D03*
%TO.P,SW1,2*%
%TO.N,Net-(R10-Pad2)*%
X153250000Y-80750000D03*
%TD*%
D20*
%TO.P,U1,41*%
%TO.N,GND*%
X156025000Y-94725000D03*
X157525000Y-93225000D03*
X154525000Y-93225000D03*
X154525000Y-96225000D03*
X157525000Y-96225000D03*
%TD*%
D21*
%TO.P,J4,4*%
%TO.N,Net-(J2-Pad4)*%
X151000000Y-96000000D03*
%TO.P,J4,3*%
%TO.N,Net-(J2-Pad3)*%
X149000000Y-96000000D03*
%TO.P,J4,2*%
%TO.N,+5V*%
X151000000Y-94000000D03*
D22*
%TO.P,J4,1*%
%TO.N,GND*%
X149000000Y-94000000D03*
%TD*%
%TO.P,D2,1*%
%TO.N,GND*%
%TA.AperFunction,SMDPad,CuDef*%
G36*
G01*
X137549999Y-99200000D02*
X138450001Y-99200000D01*
G75*
G02*
X138700000Y-99449999I0J-249999D01*
G01*
X138700000Y-100150001D01*
G75*
G02*
X138450001Y-100400000I-249999J0D01*
G01*
X137549999Y-100400000D01*
G75*
G02*
X137300000Y-100150001I0J249999D01*
G01*
X137300000Y-99449999D01*
G75*
G02*
X137549999Y-99200000I249999J0D01*
G01*
G37*
%TD.AperFunction*%
%TO.P,D2,2*%
%TO.N,Net-(D2-Pad2)*%
%TA.AperFunction,SMDPad,CuDef*%
G36*
G01*
X137549999Y-101200000D02*
X138450001Y-101200000D01*
G75*
G02*
X138700000Y-101449999I0J-249999D01*
G01*
X138700000Y-102150001D01*
G75*
G02*
X138450001Y-102400000I-249999J0D01*
G01*
X137549999Y-102400000D01*
G75*
G02*
X137300000Y-102150001I0J249999D01*
G01*
X137300000Y-101449999D01*
G75*
G02*
X137549999Y-101200000I249999J0D01*
G01*
G37*
%TD.AperFunction*%
%TA.AperFunction,SMDPad,CuDef*%
G36*
G01*
X137375000Y-102005000D02*
X138625000Y-102005000D01*
G75*
G02*
X138875000Y-102255000I0J-250000D01*
G01*
X138875000Y-103180000D01*
G75*
G02*
X138625000Y-103430000I-250000J0D01*
G01*
X137375000Y-103430000D01*
G75*
G02*
X137125000Y-103180000I0J250000D01*
G01*
X137125000Y-102255000D01*
G75*
G02*
X137375000Y-102005000I250000J0D01*
G01*
G37*
%TD.AperFunction*%
%TO.P,D2,1*%
%TO.N,GND*%
%TA.AperFunction,SMDPad,CuDef*%
G36*
G01*
X137375000Y-99030000D02*
X138625000Y-99030000D01*
G75*
G02*
X138875000Y-99280000I0J-250000D01*
G01*
X138875000Y-100205000D01*
G75*
G02*
X138625000Y-100455000I-250000J0D01*
G01*
X137375000Y-100455000D01*
G75*
G02*
X137125000Y-100205000I0J250000D01*
G01*
X137125000Y-99280000D01*
G75*
G02*
X137375000Y-99030000I250000J0D01*
G01*
G37*
%TD.AperFunction*%
D14*
%TO.P,D2,2*%
%TO.N,Net-(D2-Pad2)*%
X138000000Y-102270000D03*
D15*
%TO.P,D2,1*%
%TO.N,GND*%
X138000000Y-99730000D03*
%TD*%
D23*
%TO.N,GND*%
X151000000Y-89100000D03*
X144000000Y-100912500D03*
X156200000Y-101262500D03*
D24*
X146000000Y-91900000D03*
D23*
X157900000Y-90100000D03*
X161200000Y-89500000D03*
X166700000Y-95000000D03*
%TO.N,+3V3*%
X151000000Y-90862500D03*
X157700000Y-99537500D03*
%TO.N,+5V*%
X159200000Y-99537500D03*
%TO.N,Net-(L2-Pad2)*%
X160400000Y-94100000D03*
%TO.N,Net-(L1-Pad1)*%
X160400000Y-95900000D03*
%TD*%
D25*
%TO.N,GND*%
X138000000Y-93730000D02*
X142730000Y-93730000D01*
X138000000Y-99800000D02*
X141800000Y-99800000D01*
X138000000Y-105742500D02*
X138357500Y-105742500D01*
X138000000Y-105800000D02*
X138700000Y-105800000D01*
X138700000Y-105800000D02*
X142900000Y-101600000D01*
D26*
X146750000Y-85250000D02*
X146750000Y-87450000D01*
X153250000Y-85250000D02*
X153250000Y-87250000D01*
D25*
X145770000Y-84270000D02*
X146750000Y-85250000D01*
X143000000Y-84270000D02*
X145770000Y-84270000D01*
X158262500Y-89737500D02*
X157900000Y-90100000D01*
D26*
X158400000Y-89600000D02*
X157900000Y-90100000D01*
X161200000Y-89600000D02*
X158400000Y-89600000D01*
X166700000Y-95000000D02*
X157900000Y-95000000D01*
D25*
%TO.N,+3V3*%
X149600000Y-101600000D02*
X150199979Y-102199979D01*
X149600000Y-97600000D02*
X149600000Y-101600000D01*
X150000000Y-97200000D02*
X149600000Y-97600000D01*
X151600000Y-97200000D02*
X150000000Y-97200000D01*
X151975001Y-96824999D02*
X151600000Y-97200000D01*
X151975001Y-91837501D02*
X151975001Y-96824999D01*
X151000000Y-90862500D02*
X151975001Y-91837501D01*
X153000000Y-102500000D02*
X152699979Y-102199979D01*
X150199979Y-102199979D02*
X152699979Y-102199979D01*
X157300000Y-102500000D02*
X158500000Y-102500000D01*
X157300000Y-102500000D02*
X153000000Y-102500000D01*
X158500000Y-102500000D02*
X158600000Y-102400000D01*
X158600000Y-102400000D02*
X158600000Y-100000000D01*
X158137500Y-99537500D02*
X157700000Y-99537500D01*
X158600000Y-100000000D02*
X158137500Y-99537500D01*
D26*
%TO.N,+5V*%
X151000000Y-94000000D02*
X149800000Y-92800000D01*
X147899999Y-92989999D02*
X147899999Y-103049999D01*
X148089998Y-92800000D02*
X147899999Y-92989999D01*
X147899999Y-103049999D02*
X148750000Y-103900000D01*
X149800000Y-92800000D02*
X148089998Y-92800000D01*
X158800000Y-103100000D02*
X159200000Y-102700000D01*
X155300000Y-103600000D02*
X155800000Y-103100000D01*
X159200000Y-102700000D02*
X159200000Y-99537500D01*
X150000000Y-105600000D02*
X154300000Y-105600000D01*
X148750000Y-104350000D02*
X150000000Y-105600000D01*
X155300000Y-104600000D02*
X155300000Y-103600000D01*
X155800000Y-103100000D02*
X158800000Y-103100000D01*
X154300000Y-105600000D02*
X155300000Y-104600000D01*
X148750000Y-103900000D02*
X148750000Y-104350000D01*
D25*
%TO.N,Net-(J2-Pad3)*%
X150563589Y-103900000D02*
X151250000Y-103900000D01*
X148699978Y-102036389D02*
X150563589Y-103900000D01*
X149000000Y-96000000D02*
X148699978Y-96300022D01*
X148699978Y-96300022D02*
X148699978Y-102036389D01*
%TO.N,Net-(J2-Pad4)*%
X152499990Y-102649990D02*
X150013579Y-102649990D01*
X149149989Y-101786400D02*
X149149989Y-97413600D01*
X150563589Y-96000000D02*
X151000000Y-96000000D01*
X150013579Y-102649990D02*
X149149989Y-101786400D01*
X149149989Y-97413600D02*
X150563589Y-96000000D01*
X153750000Y-103900000D02*
X152499990Y-102649990D01*
%TD*%
D27*
%TO.N,GND*%
X145889956Y-86649814D02*
X146179571Y-86790704D01*
X146491108Y-86872384D01*
X146812595Y-86891718D01*
X147131675Y-86847961D01*
X147436088Y-86742795D01*
X147610044Y-86649814D01*
X147618307Y-86627000D01*
X152381693Y-86627000D01*
X152389956Y-86649814D01*
X152679571Y-86790704D01*
X152991108Y-86872384D01*
X153312595Y-86891718D01*
X153631675Y-86847961D01*
X153936088Y-86742795D01*
X154110044Y-86649814D01*
X154118307Y-86627000D01*
X156447394Y-86627000D01*
X158373000Y-88552606D01*
X158373000Y-92637928D01*
X158303166Y-92626439D01*
X157704605Y-93225000D01*
X158303166Y-93823561D01*
X158373000Y-93812072D01*
X158373000Y-95637928D01*
X158303166Y-95626439D01*
X157704605Y-96225000D01*
X158303166Y-96823561D01*
X158373000Y-96812072D01*
X158373000Y-98746789D01*
X158359774Y-98733563D01*
X158190256Y-98620295D01*
X158001898Y-98542274D01*
X157801939Y-98502500D01*
X157598061Y-98502500D01*
X157398102Y-98542274D01*
X157209744Y-98620295D01*
X157040226Y-98733563D01*
X156896063Y-98877726D01*
X156782795Y-99047244D01*
X156704774Y-99235602D01*
X156665000Y-99435561D01*
X156665000Y-99639439D01*
X156704774Y-99839398D01*
X156782795Y-100027756D01*
X156896063Y-100197274D01*
X157040226Y-100341437D01*
X157209744Y-100454705D01*
X157398102Y-100532726D01*
X157598061Y-100572500D01*
X157801939Y-100572500D01*
X157840001Y-100564929D01*
X157840000Y-101740000D01*
X153314801Y-101740000D01*
X153263783Y-101688982D01*
X153239980Y-101659978D01*
X153124255Y-101565005D01*
X152992226Y-101494433D01*
X152848965Y-101450976D01*
X152737312Y-101439979D01*
X152737301Y-101439979D01*
X152699979Y-101436303D01*
X152662657Y-101439979D01*
X150514781Y-101439979D01*
X150360000Y-101285198D01*
X150360000Y-97960000D01*
X151562678Y-97960000D01*
X151600000Y-97963676D01*
X151637322Y-97960000D01*
X151637333Y-97960000D01*
X151748986Y-97949003D01*
X151892247Y-97905546D01*
X152024276Y-97834974D01*
X152140001Y-97740001D01*
X152163804Y-97710997D01*
X152485998Y-97388803D01*
X152515002Y-97365000D01*
X152609975Y-97249275D01*
X152680547Y-97117246D01*
X152715152Y-97003166D01*
X153926439Y-97003166D01*
X153961550Y-97216588D01*
X154165826Y-97307458D01*
X154383905Y-97356731D01*
X154607406Y-97362511D01*
X154827740Y-97324577D01*
X155036440Y-97244387D01*
X155088450Y-97216588D01*
X155123561Y-97003166D01*
X156926439Y-97003166D01*
X156961550Y-97216588D01*
X157165826Y-97307458D01*
X157383905Y-97356731D01*
X157607406Y-97362511D01*
X157827740Y-97324577D01*
X158036440Y-97244387D01*
X158088450Y-97216588D01*
X158123561Y-97003166D01*
X157525000Y-96404605D01*
X156926439Y-97003166D01*
X155123561Y-97003166D01*
X154525000Y-96404605D01*
X153926439Y-97003166D01*
X152715152Y-97003166D01*
X152724004Y-96973985D01*
X152735001Y-96862332D01*
X152738678Y-96824999D01*
X152735001Y-96787666D01*
X152735001Y-96307406D01*
X153387489Y-96307406D01*
X153425423Y-96527740D01*
X153505613Y-96736440D01*
X153533412Y-96788450D01*
X153746834Y-96823561D01*
X154345395Y-96225000D01*
X154704605Y-96225000D01*
X155303166Y-96823561D01*
X155516588Y-96788450D01*
X155607458Y-96584174D01*
X155656731Y-96366095D01*
X155662511Y-96142594D01*
X155624577Y-95922260D01*
X155562868Y-95761658D01*
X155665826Y-95807458D01*
X155883905Y-95856731D01*
X156107406Y-95862511D01*
X156327740Y-95824577D01*
X156488342Y-95762868D01*
X156442542Y-95865826D01*
X156393269Y-96083905D01*
X156387489Y-96307406D01*
X156425423Y-96527740D01*
X156505613Y-96736440D01*
X156533412Y-96788450D01*
X156746834Y-96823561D01*
X157345395Y-96225000D01*
X156746834Y-95626439D01*
X156599287Y-95650713D01*
X156623561Y-95503166D01*
X156025000Y-94904605D01*
X155426439Y-95503166D01*
X155450713Y-95650713D01*
X155303166Y-95626439D01*
X154704605Y-96225000D01*
X154345395Y-96225000D01*
X153746834Y-95626439D01*
X153533412Y-95661550D01*
X153442542Y-95865826D01*
X153393269Y-96083905D01*
X153387489Y-96307406D01*
X152735001Y-96307406D01*
X152735001Y-94003166D01*
X153926439Y-94003166D01*
X153961550Y-94216588D01*
X154165826Y-94307458D01*
X154383905Y-94356731D01*
X154607406Y-94362511D01*
X154827740Y-94324577D01*
X154988342Y-94262868D01*
X154942542Y-94365826D01*
X154893269Y-94583905D01*
X154887489Y-94807406D01*
X154925423Y-95027740D01*
X154987132Y-95188342D01*
X154884174Y-95142542D01*
X154666095Y-95093269D01*
X154442594Y-95087489D01*
X154222260Y-95125423D01*
X154013560Y-95205613D01*
X153961550Y-95233412D01*
X153926439Y-95446834D01*
X154525000Y-96045395D01*
X155123561Y-95446834D01*
X155099287Y-95299287D01*
X155246834Y-95323561D01*
X155845395Y-94725000D01*
X156204605Y-94725000D01*
X156803166Y-95323561D01*
X156950713Y-95299287D01*
X156926439Y-95446834D01*
X157525000Y-96045395D01*
X158123561Y-95446834D01*
X158088450Y-95233412D01*
X157884174Y-95142542D01*
X157666095Y-95093269D01*
X157442594Y-95087489D01*
X157222260Y-95125423D01*
X157061658Y-95187132D01*
X157107458Y-95084174D01*
X157156731Y-94866095D01*
X157162511Y-94642594D01*
X157124577Y-94422260D01*
X157062868Y-94261658D01*
X157165826Y-94307458D01*
X157383905Y-94356731D01*
X157607406Y-94362511D01*
X157827740Y-94324577D01*
X158036440Y-94244387D01*
X158088450Y-94216588D01*
X158123561Y-94003166D01*
X157525000Y-93404605D01*
X156926439Y-94003166D01*
X156950713Y-94150713D01*
X156803166Y-94126439D01*
X156204605Y-94725000D01*
X155845395Y-94725000D01*
X155246834Y-94126439D01*
X155099287Y-94150713D01*
X155123561Y-94003166D01*
X154525000Y-93404605D01*
X153926439Y-94003166D01*
X152735001Y-94003166D01*
X152735001Y-93307406D01*
X153387489Y-93307406D01*
X153425423Y-93527740D01*
X153505613Y-93736440D01*
X153533412Y-93788450D01*
X153746834Y-93823561D01*
X154345395Y-93225000D01*
X154704605Y-93225000D01*
X155303166Y-93823561D01*
X155450713Y-93799287D01*
X155426439Y-93946834D01*
X156025000Y-94545395D01*
X156623561Y-93946834D01*
X156599287Y-93799287D01*
X156746834Y-93823561D01*
X157345395Y-93225000D01*
X156746834Y-92626439D01*
X156533412Y-92661550D01*
X156442542Y-92865826D01*
X156393269Y-93083905D01*
X156387489Y-93307406D01*
X156425423Y-93527740D01*
X156487132Y-93688342D01*
X156384174Y-93642542D01*
X156166095Y-93593269D01*
X155942594Y-93587489D01*
X155722260Y-93625423D01*
X155561658Y-93687132D01*
X155607458Y-93584174D01*
X155656731Y-93366095D01*
X155662511Y-93142594D01*
X155624577Y-92922260D01*
X155544387Y-92713560D01*
X155516588Y-92661550D01*
X155303166Y-92626439D01*
X154704605Y-93225000D01*
X154345395Y-93225000D01*
X153746834Y-92626439D01*
X153533412Y-92661550D01*
X153442542Y-92865826D01*
X153393269Y-93083905D01*
X153387489Y-93307406D01*
X152735001Y-93307406D01*
X152735001Y-92446834D01*
X153926439Y-92446834D01*
X154525000Y-93045395D01*
X155123561Y-92446834D01*
X156926439Y-92446834D01*
X157525000Y-93045395D01*
X158123561Y-92446834D01*
X158088450Y-92233412D01*
X157884174Y-92142542D01*
X157666095Y-92093269D01*
X157442594Y-92087489D01*
X157222260Y-92125423D01*
X157013560Y-92205613D01*
X156961550Y-92233412D01*
X156926439Y-92446834D01*
X155123561Y-92446834D01*
X155088450Y-92233412D01*
X154884174Y-92142542D01*
X154666095Y-92093269D01*
X154442594Y-92087489D01*
X154222260Y-92125423D01*
X154013560Y-92205613D01*
X153961550Y-92233412D01*
X153926439Y-92446834D01*
X152735001Y-92446834D01*
X152735001Y-91874826D01*
X152738677Y-91837501D01*
X152735001Y-91800176D01*
X152735001Y-91800168D01*
X152724004Y-91688515D01*
X152680547Y-91545254D01*
X152609975Y-91413225D01*
X152515002Y-91297500D01*
X152486005Y-91273703D01*
X152035000Y-90822698D01*
X152035000Y-90760561D01*
X151995226Y-90560602D01*
X151917205Y-90372244D01*
X151803937Y-90202726D01*
X151659774Y-90058563D01*
X151490256Y-89945295D01*
X151301898Y-89867274D01*
X151101939Y-89827500D01*
X150898061Y-89827500D01*
X150698102Y-89867274D01*
X150509744Y-89945295D01*
X150340226Y-90058563D01*
X150196063Y-90202726D01*
X150082795Y-90372244D01*
X150004774Y-90560602D01*
X149965000Y-90760561D01*
X149965000Y-90964439D01*
X150004774Y-91164398D01*
X150082795Y-91352756D01*
X150196063Y-91522274D01*
X150340226Y-91666437D01*
X150509744Y-91779705D01*
X150698102Y-91857726D01*
X150898061Y-91897500D01*
X150960198Y-91897500D01*
X151215001Y-92152303D01*
X151215001Y-92732591D01*
X151126561Y-92715000D01*
X150966578Y-92715000D01*
X150456534Y-92204956D01*
X150428817Y-92171183D01*
X150294059Y-92060589D01*
X150140313Y-91978411D01*
X149973490Y-91927805D01*
X149843477Y-91915000D01*
X149843469Y-91915000D01*
X149800000Y-91910719D01*
X149756531Y-91915000D01*
X148133463Y-91915000D01*
X148089997Y-91910719D01*
X148046531Y-91915000D01*
X148046521Y-91915000D01*
X147916508Y-91927805D01*
X147749685Y-91978411D01*
X147595939Y-92060589D01*
X147461181Y-92171183D01*
X147433464Y-92204956D01*
X147304955Y-92333465D01*
X147271182Y-92361182D01*
X147160588Y-92495941D01*
X147078410Y-92649687D01*
X147027804Y-92816510D01*
X147014999Y-92946523D01*
X147014999Y-92946530D01*
X147010718Y-92989999D01*
X147014999Y-93033468D01*
X147015000Y-102337391D01*
X146535750Y-102340000D01*
X146377000Y-102498750D01*
X146377000Y-103373000D01*
X146123000Y-103373000D01*
X146123000Y-102498750D01*
X145964250Y-102340000D01*
X145400000Y-102336928D01*
X145275518Y-102349188D01*
X145155820Y-102385498D01*
X145045506Y-102444463D01*
X144948815Y-102523815D01*
X144869463Y-102620506D01*
X144810498Y-102730820D01*
X144774188Y-102850518D01*
X144761928Y-102975000D01*
X144763841Y-103373000D01*
X143552606Y-103373000D01*
X141627000Y-101447394D01*
X141627000Y-88552606D01*
X143552606Y-86627000D01*
X145881693Y-86627000D01*
X145889956Y-86649814D01*
%TA.AperFunction,Conductor*%
D28*
G36*
X145889956Y-86649814D02*
G01*
X146179571Y-86790704D01*
X146491108Y-86872384D01*
X146812595Y-86891718D01*
X147131675Y-86847961D01*
X147436088Y-86742795D01*
X147610044Y-86649814D01*
X147618307Y-86627000D01*
X152381693Y-86627000D01*
X152389956Y-86649814D01*
X152679571Y-86790704D01*
X152991108Y-86872384D01*
X153312595Y-86891718D01*
X153631675Y-86847961D01*
X153936088Y-86742795D01*
X154110044Y-86649814D01*
X154118307Y-86627000D01*
X156447394Y-86627000D01*
X158373000Y-88552606D01*
X158373000Y-92637928D01*
X158303166Y-92626439D01*
X157704605Y-93225000D01*
X158303166Y-93823561D01*
X158373000Y-93812072D01*
X158373000Y-95637928D01*
X158303166Y-95626439D01*
X157704605Y-96225000D01*
X158303166Y-96823561D01*
X158373000Y-96812072D01*
X158373000Y-98746789D01*
X158359774Y-98733563D01*
X158190256Y-98620295D01*
X158001898Y-98542274D01*
X157801939Y-98502500D01*
X157598061Y-98502500D01*
X157398102Y-98542274D01*
X157209744Y-98620295D01*
X157040226Y-98733563D01*
X156896063Y-98877726D01*
X156782795Y-99047244D01*
X156704774Y-99235602D01*
X156665000Y-99435561D01*
X156665000Y-99639439D01*
X156704774Y-99839398D01*
X156782795Y-100027756D01*
X156896063Y-100197274D01*
X157040226Y-100341437D01*
X157209744Y-100454705D01*
X157398102Y-100532726D01*
X157598061Y-100572500D01*
X157801939Y-100572500D01*
X157840001Y-100564929D01*
X157840000Y-101740000D01*
X153314801Y-101740000D01*
X153263783Y-101688982D01*
X153239980Y-101659978D01*
X153124255Y-101565005D01*
X152992226Y-101494433D01*
X152848965Y-101450976D01*
X152737312Y-101439979D01*
X152737301Y-101439979D01*
X152699979Y-101436303D01*
X152662657Y-101439979D01*
X150514781Y-101439979D01*
X150360000Y-101285198D01*
X150360000Y-97960000D01*
X151562678Y-97960000D01*
X151600000Y-97963676D01*
X151637322Y-97960000D01*
X151637333Y-97960000D01*
X151748986Y-97949003D01*
X151892247Y-97905546D01*
X152024276Y-97834974D01*
X152140001Y-97740001D01*
X152163804Y-97710997D01*
X152485998Y-97388803D01*
X152515002Y-97365000D01*
X152609975Y-97249275D01*
X152680547Y-97117246D01*
X152715152Y-97003166D01*
X153926439Y-97003166D01*
X153961550Y-97216588D01*
X154165826Y-97307458D01*
X154383905Y-97356731D01*
X154607406Y-97362511D01*
X154827740Y-97324577D01*
X155036440Y-97244387D01*
X155088450Y-97216588D01*
X155123561Y-97003166D01*
X156926439Y-97003166D01*
X156961550Y-97216588D01*
X157165826Y-97307458D01*
X157383905Y-97356731D01*
X157607406Y-97362511D01*
X157827740Y-97324577D01*
X158036440Y-97244387D01*
X158088450Y-97216588D01*
X158123561Y-97003166D01*
X157525000Y-96404605D01*
X156926439Y-97003166D01*
X155123561Y-97003166D01*
X154525000Y-96404605D01*
X153926439Y-97003166D01*
X152715152Y-97003166D01*
X152724004Y-96973985D01*
X152735001Y-96862332D01*
X152738678Y-96824999D01*
X152735001Y-96787666D01*
X152735001Y-96307406D01*
X153387489Y-96307406D01*
X153425423Y-96527740D01*
X153505613Y-96736440D01*
X153533412Y-96788450D01*
X153746834Y-96823561D01*
X154345395Y-96225000D01*
X154704605Y-96225000D01*
X155303166Y-96823561D01*
X155516588Y-96788450D01*
X155607458Y-96584174D01*
X155656731Y-96366095D01*
X155662511Y-96142594D01*
X155624577Y-95922260D01*
X155562868Y-95761658D01*
X155665826Y-95807458D01*
X155883905Y-95856731D01*
X156107406Y-95862511D01*
X156327740Y-95824577D01*
X156488342Y-95762868D01*
X156442542Y-95865826D01*
X156393269Y-96083905D01*
X156387489Y-96307406D01*
X156425423Y-96527740D01*
X156505613Y-96736440D01*
X156533412Y-96788450D01*
X156746834Y-96823561D01*
X157345395Y-96225000D01*
X156746834Y-95626439D01*
X156599287Y-95650713D01*
X156623561Y-95503166D01*
X156025000Y-94904605D01*
X155426439Y-95503166D01*
X155450713Y-95650713D01*
X155303166Y-95626439D01*
X154704605Y-96225000D01*
X154345395Y-96225000D01*
X153746834Y-95626439D01*
X153533412Y-95661550D01*
X153442542Y-95865826D01*
X153393269Y-96083905D01*
X153387489Y-96307406D01*
X152735001Y-96307406D01*
X152735001Y-94003166D01*
X153926439Y-94003166D01*
X153961550Y-94216588D01*
X154165826Y-94307458D01*
X154383905Y-94356731D01*
X154607406Y-94362511D01*
X154827740Y-94324577D01*
X154988342Y-94262868D01*
X154942542Y-94365826D01*
X154893269Y-94583905D01*
X154887489Y-94807406D01*
X154925423Y-95027740D01*
X154987132Y-95188342D01*
X154884174Y-95142542D01*
X154666095Y-95093269D01*
X154442594Y-95087489D01*
X154222260Y-95125423D01*
X154013560Y-95205613D01*
X153961550Y-95233412D01*
X153926439Y-95446834D01*
X154525000Y-96045395D01*
X155123561Y-95446834D01*
X155099287Y-95299287D01*
X155246834Y-95323561D01*
X155845395Y-94725000D01*
X156204605Y-94725000D01*
X156803166Y-95323561D01*
X156950713Y-95299287D01*
X156926439Y-95446834D01*
X157525000Y-96045395D01*
X158123561Y-95446834D01*
X158088450Y-95233412D01*
X157884174Y-95142542D01*
X157666095Y-95093269D01*
X157442594Y-95087489D01*
X157222260Y-95125423D01*
X157061658Y-95187132D01*
X157107458Y-95084174D01*
X157156731Y-94866095D01*
X157162511Y-94642594D01*
X157124577Y-94422260D01*
X157062868Y-94261658D01*
X157165826Y-94307458D01*
X157383905Y-94356731D01*
X157607406Y-94362511D01*
X157827740Y-94324577D01*
X158036440Y-94244387D01*
X158088450Y-94216588D01*
X158123561Y-94003166D01*
X157525000Y-93404605D01*
X156926439Y-94003166D01*
X156950713Y-94150713D01*
X156803166Y-94126439D01*
X156204605Y-94725000D01*
X155845395Y-94725000D01*
X155246834Y-94126439D01*
X155099287Y-94150713D01*
X155123561Y-94003166D01*
X154525000Y-93404605D01*
X153926439Y-94003166D01*
X152735001Y-94003166D01*
X152735001Y-93307406D01*
X153387489Y-93307406D01*
X153425423Y-93527740D01*
X153505613Y-93736440D01*
X153533412Y-93788450D01*
X153746834Y-93823561D01*
X154345395Y-93225000D01*
X154704605Y-93225000D01*
X155303166Y-93823561D01*
X155450713Y-93799287D01*
X155426439Y-93946834D01*
X156025000Y-94545395D01*
X156623561Y-93946834D01*
X156599287Y-93799287D01*
X156746834Y-93823561D01*
X157345395Y-93225000D01*
X156746834Y-92626439D01*
X156533412Y-92661550D01*
X156442542Y-92865826D01*
X156393269Y-93083905D01*
X156387489Y-93307406D01*
X156425423Y-93527740D01*
X156487132Y-93688342D01*
X156384174Y-93642542D01*
X156166095Y-93593269D01*
X155942594Y-93587489D01*
X155722260Y-93625423D01*
X155561658Y-93687132D01*
X155607458Y-93584174D01*
X155656731Y-93366095D01*
X155662511Y-93142594D01*
X155624577Y-92922260D01*
X155544387Y-92713560D01*
X155516588Y-92661550D01*
X155303166Y-92626439D01*
X154704605Y-93225000D01*
X154345395Y-93225000D01*
X153746834Y-92626439D01*
X153533412Y-92661550D01*
X153442542Y-92865826D01*
X153393269Y-93083905D01*
X153387489Y-93307406D01*
X152735001Y-93307406D01*
X152735001Y-92446834D01*
X153926439Y-92446834D01*
X154525000Y-93045395D01*
X155123561Y-92446834D01*
X156926439Y-92446834D01*
X157525000Y-93045395D01*
X158123561Y-92446834D01*
X158088450Y-92233412D01*
X157884174Y-92142542D01*
X157666095Y-92093269D01*
X157442594Y-92087489D01*
X157222260Y-92125423D01*
X157013560Y-92205613D01*
X156961550Y-92233412D01*
X156926439Y-92446834D01*
X155123561Y-92446834D01*
X155088450Y-92233412D01*
X154884174Y-92142542D01*
X154666095Y-92093269D01*
X154442594Y-92087489D01*
X154222260Y-92125423D01*
X154013560Y-92205613D01*
X153961550Y-92233412D01*
X153926439Y-92446834D01*
X152735001Y-92446834D01*
X152735001Y-91874826D01*
X152738677Y-91837501D01*
X152735001Y-91800176D01*
X152735001Y-91800168D01*
X152724004Y-91688515D01*
X152680547Y-91545254D01*
X152609975Y-91413225D01*
X152515002Y-91297500D01*
X152486005Y-91273703D01*
X152035000Y-90822698D01*
X152035000Y-90760561D01*
X151995226Y-90560602D01*
X151917205Y-90372244D01*
X151803937Y-90202726D01*
X151659774Y-90058563D01*
X151490256Y-89945295D01*
X151301898Y-89867274D01*
X151101939Y-89827500D01*
X150898061Y-89827500D01*
X150698102Y-89867274D01*
X150509744Y-89945295D01*
X150340226Y-90058563D01*
X150196063Y-90202726D01*
X150082795Y-90372244D01*
X150004774Y-90560602D01*
X149965000Y-90760561D01*
X149965000Y-90964439D01*
X150004774Y-91164398D01*
X150082795Y-91352756D01*
X150196063Y-91522274D01*
X150340226Y-91666437D01*
X150509744Y-91779705D01*
X150698102Y-91857726D01*
X150898061Y-91897500D01*
X150960198Y-91897500D01*
X151215001Y-92152303D01*
X151215001Y-92732591D01*
X151126561Y-92715000D01*
X150966578Y-92715000D01*
X150456534Y-92204956D01*
X150428817Y-92171183D01*
X150294059Y-92060589D01*
X150140313Y-91978411D01*
X149973490Y-91927805D01*
X149843477Y-91915000D01*
X149843469Y-91915000D01*
X149800000Y-91910719D01*
X149756531Y-91915000D01*
X148133463Y-91915000D01*
X148089997Y-91910719D01*
X148046531Y-91915000D01*
X148046521Y-91915000D01*
X147916508Y-91927805D01*
X147749685Y-91978411D01*
X147595939Y-92060589D01*
X147461181Y-92171183D01*
X147433464Y-92204956D01*
X147304955Y-92333465D01*
X147271182Y-92361182D01*
X147160588Y-92495941D01*
X147078410Y-92649687D01*
X147027804Y-92816510D01*
X147014999Y-92946523D01*
X147014999Y-92946530D01*
X147010718Y-92989999D01*
X147014999Y-93033468D01*
X147015000Y-102337391D01*
X146535750Y-102340000D01*
X146377000Y-102498750D01*
X146377000Y-103373000D01*
X146123000Y-103373000D01*
X146123000Y-102498750D01*
X145964250Y-102340000D01*
X145400000Y-102336928D01*
X145275518Y-102349188D01*
X145155820Y-102385498D01*
X145045506Y-102444463D01*
X144948815Y-102523815D01*
X144869463Y-102620506D01*
X144810498Y-102730820D01*
X144774188Y-102850518D01*
X144761928Y-102975000D01*
X144763841Y-103373000D01*
X143552606Y-103373000D01*
X141627000Y-101447394D01*
X141627000Y-88552606D01*
X143552606Y-86627000D01*
X145881693Y-86627000D01*
X145889956Y-86649814D01*
G37*
%TD.AperFunction*%
D27*
X149127000Y-93873000D02*
X149147000Y-93873000D01*
X149147000Y-94127000D01*
X149127000Y-94127000D01*
X149127000Y-94147000D01*
X148873000Y-94147000D01*
X148873000Y-94127000D01*
X148853000Y-94127000D01*
X148853000Y-93873000D01*
X148873000Y-93873000D01*
X148873000Y-93853000D01*
X149127000Y-93853000D01*
X149127000Y-93873000D01*
%TA.AperFunction,Conductor*%
D28*
G36*
X149127000Y-93873000D02*
G01*
X149147000Y-93873000D01*
X149147000Y-94127000D01*
X149127000Y-94127000D01*
X149127000Y-94147000D01*
X148873000Y-94147000D01*
X148873000Y-94127000D01*
X148853000Y-94127000D01*
X148853000Y-93873000D01*
X148873000Y-93873000D01*
X148873000Y-93853000D01*
X149127000Y-93853000D01*
X149127000Y-93873000D01*
G37*
%TD.AperFunction*%
%TD*%
M02*
