%TF.GenerationSoftware,KiCad,Pcbnew,(5.1.9-0-10_14)*%
%TF.CreationDate,2021-04-25T16:58:11+01:00*%
%TF.ProjectId,PN532,504e3533-322e-46b6-9963-61645f706362,2*%
%TF.SameCoordinates,Original*%
%TF.FileFunction,Legend,Bot*%
%TF.FilePolarity,Positive*%
%FSLAX46Y46*%
G04 Gerber Fmt 4.6, Leading zero omitted, Abs format (unit mm)*
G04 Created by KiCad (PCBNEW (5.1.9-0-10_14)) date 2021-04-25 16:58:11*
%MOMM*%
%LPD*%
G01*
G04 APERTURE LIST*
%ADD10C,0.150000*%
%ADD11C,0.120000*%
%ADD12C,0.200000*%
%ADD13C,0.250000*%
G04 APERTURE END LIST*
D10*
X154157142Y-88985714D02*
X153966666Y-89652380D01*
X153776190Y-89176190D01*
X153585714Y-89652380D01*
X153395238Y-88985714D01*
X153109523Y-88985714D02*
X152919047Y-89652380D01*
X152728571Y-89176190D01*
X152538095Y-89652380D01*
X152347619Y-88985714D01*
X152061904Y-88985714D02*
X151871428Y-89652380D01*
X151680952Y-89176190D01*
X151490476Y-89652380D01*
X151300000Y-88985714D01*
X150919047Y-89557142D02*
X150871428Y-89604761D01*
X150919047Y-89652380D01*
X150966666Y-89604761D01*
X150919047Y-89557142D01*
X150919047Y-89652380D01*
X150442857Y-89652380D02*
X150442857Y-88985714D01*
X150442857Y-89080952D02*
X150395238Y-89033333D01*
X150300000Y-88985714D01*
X150157142Y-88985714D01*
X150061904Y-89033333D01*
X150014285Y-89128571D01*
X150014285Y-89652380D01*
X150014285Y-89128571D02*
X149966666Y-89033333D01*
X149871428Y-88985714D01*
X149728571Y-88985714D01*
X149633333Y-89033333D01*
X149585714Y-89128571D01*
X149585714Y-89652380D01*
X148728571Y-89604761D02*
X148823809Y-89652380D01*
X149014285Y-89652380D01*
X149109523Y-89604761D01*
X149157142Y-89509523D01*
X149157142Y-89128571D01*
X149109523Y-89033333D01*
X149014285Y-88985714D01*
X148823809Y-88985714D01*
X148728571Y-89033333D01*
X148680952Y-89128571D01*
X148680952Y-89223809D01*
X149157142Y-89319047D01*
X148252380Y-89557142D02*
X148204761Y-89604761D01*
X148252380Y-89652380D01*
X148300000Y-89604761D01*
X148252380Y-89557142D01*
X148252380Y-89652380D01*
X147347619Y-88985714D02*
X147347619Y-89652380D01*
X147776190Y-88985714D02*
X147776190Y-89509523D01*
X147728571Y-89604761D01*
X147633333Y-89652380D01*
X147490476Y-89652380D01*
X147395238Y-89604761D01*
X147347619Y-89557142D01*
X146871428Y-89652380D02*
X146871428Y-88652380D01*
X146776190Y-89271428D02*
X146490476Y-89652380D01*
X146490476Y-88985714D02*
X146871428Y-89366666D01*
X144752380Y-80604761D02*
X144752380Y-81176190D01*
X145752380Y-80890476D02*
X144752380Y-80890476D01*
X145752380Y-81938095D02*
X145228571Y-81938095D01*
X145133333Y-81890476D01*
X145085714Y-81795238D01*
X145085714Y-81604761D01*
X145133333Y-81509523D01*
X145704761Y-81938095D02*
X145752380Y-81842857D01*
X145752380Y-81604761D01*
X145704761Y-81509523D01*
X145609523Y-81461904D01*
X145514285Y-81461904D01*
X145419047Y-81509523D01*
X145371428Y-81604761D01*
X145371428Y-81842857D01*
X145323809Y-81938095D01*
X145752380Y-82414285D02*
X145085714Y-82414285D01*
X145180952Y-82414285D02*
X145133333Y-82461904D01*
X145085714Y-82557142D01*
X145085714Y-82700000D01*
X145133333Y-82795238D01*
X145228571Y-82842857D01*
X145752380Y-82842857D01*
X145228571Y-82842857D02*
X145133333Y-82890476D01*
X145085714Y-82985714D01*
X145085714Y-83128571D01*
X145133333Y-83223809D01*
X145228571Y-83271428D01*
X145752380Y-83271428D01*
X145085714Y-83747619D02*
X146085714Y-83747619D01*
X145133333Y-83747619D02*
X145085714Y-83842857D01*
X145085714Y-84033333D01*
X145133333Y-84128571D01*
X145180952Y-84176190D01*
X145276190Y-84223809D01*
X145561904Y-84223809D01*
X145657142Y-84176190D01*
X145704761Y-84128571D01*
X145752380Y-84033333D01*
X145752380Y-83842857D01*
X145704761Y-83747619D01*
X145704761Y-85033333D02*
X145752380Y-84938095D01*
X145752380Y-84747619D01*
X145704761Y-84652380D01*
X145609523Y-84604761D01*
X145228571Y-84604761D01*
X145133333Y-84652380D01*
X145085714Y-84747619D01*
X145085714Y-84938095D01*
X145133333Y-85033333D01*
X145228571Y-85080952D01*
X145323809Y-85080952D01*
X145419047Y-84604761D01*
X145752380Y-85509523D02*
X145085714Y-85509523D01*
X145276190Y-85509523D02*
X145180952Y-85557142D01*
X145133333Y-85604761D01*
X145085714Y-85700000D01*
X145085714Y-85795238D01*
X154502380Y-110033333D02*
X154026190Y-109700000D01*
X154502380Y-109461904D02*
X153502380Y-109461904D01*
X153502380Y-109842857D01*
X153550000Y-109938095D01*
X153597619Y-109985714D01*
X153692857Y-110033333D01*
X153835714Y-110033333D01*
X153930952Y-109985714D01*
X153978571Y-109938095D01*
X154026190Y-109842857D01*
X154026190Y-109461904D01*
X153502380Y-110366666D02*
X154502380Y-111033333D01*
X153502380Y-111033333D02*
X154502380Y-110366666D01*
X147862267Y-92997969D02*
X147963282Y-93570389D01*
X147458206Y-93402030D02*
X148165312Y-94109137D01*
X148434687Y-93839763D01*
X148468358Y-93738748D01*
X148468358Y-93671404D01*
X148434687Y-93570389D01*
X148333671Y-93469374D01*
X148232656Y-93435702D01*
X148165312Y-93435702D01*
X148064297Y-93469374D01*
X147794923Y-93738748D01*
X148805076Y-93469374D02*
X148569374Y-92290862D01*
X149276480Y-92997969D02*
X148097969Y-92762267D01*
X151374026Y-93048477D02*
X151778087Y-93452538D01*
X152283164Y-92543400D02*
X151576057Y-93250507D01*
X151946446Y-93620896D02*
X153124957Y-93385194D01*
X152417851Y-94092301D02*
X152653553Y-92913790D01*
X146969965Y-96644416D02*
X147912774Y-96173011D01*
X147441370Y-97115820D01*
X148720896Y-97115820D02*
X148720896Y-97048477D01*
X148653553Y-96913790D01*
X148586209Y-96846446D01*
X148451522Y-96779103D01*
X148316835Y-96779103D01*
X148215820Y-96812774D01*
X148047461Y-96913790D01*
X147946446Y-97014805D01*
X147845431Y-97183164D01*
X147811759Y-97284179D01*
X147811759Y-97418866D01*
X147879103Y-97553553D01*
X147946446Y-97620896D01*
X148081133Y-97688240D01*
X148148477Y-97688240D01*
X149428003Y-97822927D02*
X149428003Y-97755583D01*
X149360660Y-97620896D01*
X149293316Y-97553553D01*
X149158629Y-97486209D01*
X149023942Y-97486209D01*
X148922927Y-97519881D01*
X148754568Y-97620896D01*
X148653553Y-97721912D01*
X148552538Y-97890270D01*
X148518866Y-97991286D01*
X148518866Y-98125973D01*
X148586209Y-98260660D01*
X148653553Y-98328003D01*
X148788240Y-98395347D01*
X148855583Y-98395347D01*
X152485194Y-96307698D02*
X152518866Y-96206683D01*
X152619881Y-96105668D01*
X152754568Y-96038324D01*
X152889255Y-96038324D01*
X152990270Y-96071996D01*
X153158629Y-96173011D01*
X153259644Y-96274026D01*
X153360660Y-96442385D01*
X153394331Y-96543400D01*
X153394331Y-96678087D01*
X153326988Y-96812774D01*
X153259644Y-96880118D01*
X153124957Y-96947461D01*
X153057614Y-96947461D01*
X152821912Y-96711759D01*
X152956599Y-96577072D01*
X152821912Y-97317851D02*
X152114805Y-96610744D01*
X152417851Y-97721912D01*
X151710744Y-97014805D01*
X152081133Y-98058629D02*
X151374026Y-97351522D01*
X151205668Y-97519881D01*
X151138324Y-97654568D01*
X151138324Y-97789255D01*
X151171996Y-97890270D01*
X151273011Y-98058629D01*
X151374026Y-98159644D01*
X151542385Y-98260660D01*
X151643400Y-98294331D01*
X151778087Y-98294331D01*
X151912774Y-98226988D01*
X152081133Y-98058629D01*
X135538095Y-89366666D02*
X135061904Y-89366666D01*
X135633333Y-89652380D02*
X135300000Y-88652380D01*
X134966666Y-89652380D01*
X135038095Y-94700000D02*
X135133333Y-94652380D01*
X135276190Y-94652380D01*
X135419047Y-94700000D01*
X135514285Y-94795238D01*
X135561904Y-94890476D01*
X135609523Y-95080952D01*
X135609523Y-95223809D01*
X135561904Y-95414285D01*
X135514285Y-95509523D01*
X135419047Y-95604761D01*
X135276190Y-95652380D01*
X135180952Y-95652380D01*
X135038095Y-95604761D01*
X134990476Y-95557142D01*
X134990476Y-95223809D01*
X135180952Y-95223809D01*
X134990476Y-83652380D02*
X135323809Y-83176190D01*
X135561904Y-83652380D02*
X135561904Y-82652380D01*
X135180952Y-82652380D01*
X135085714Y-82700000D01*
X135038095Y-82747619D01*
X134990476Y-82842857D01*
X134990476Y-82985714D01*
X135038095Y-83080952D01*
X135085714Y-83128571D01*
X135180952Y-83176190D01*
X135561904Y-83176190D01*
X148502380Y-108866666D02*
X149502380Y-109200000D01*
X148502380Y-109533333D01*
X149407142Y-110438095D02*
X149454761Y-110390476D01*
X149502380Y-110247619D01*
X149502380Y-110152380D01*
X149454761Y-110009523D01*
X149359523Y-109914285D01*
X149264285Y-109866666D01*
X149073809Y-109819047D01*
X148930952Y-109819047D01*
X148740476Y-109866666D01*
X148645238Y-109914285D01*
X148550000Y-110009523D01*
X148502380Y-110152380D01*
X148502380Y-110247619D01*
X148550000Y-110390476D01*
X148597619Y-110438095D01*
X149407142Y-111438095D02*
X149454761Y-111390476D01*
X149502380Y-111247619D01*
X149502380Y-111152380D01*
X149454761Y-111009523D01*
X149359523Y-110914285D01*
X149264285Y-110866666D01*
X149073809Y-110819047D01*
X148930952Y-110819047D01*
X148740476Y-110866666D01*
X148645238Y-110914285D01*
X148550000Y-111009523D01*
X148502380Y-111152380D01*
X148502380Y-111247619D01*
X148550000Y-111390476D01*
X148597619Y-111438095D01*
X151002380Y-109438095D02*
X151002380Y-110009523D01*
X152002380Y-109723809D02*
X151002380Y-109723809D01*
X151002380Y-110247619D02*
X152002380Y-110914285D01*
X151002380Y-110914285D02*
X152002380Y-110247619D01*
X146050000Y-109438095D02*
X146002380Y-109342857D01*
X146002380Y-109200000D01*
X146050000Y-109057142D01*
X146145238Y-108961904D01*
X146240476Y-108914285D01*
X146430952Y-108866666D01*
X146573809Y-108866666D01*
X146764285Y-108914285D01*
X146859523Y-108961904D01*
X146954761Y-109057142D01*
X147002380Y-109200000D01*
X147002380Y-109295238D01*
X146954761Y-109438095D01*
X146907142Y-109485714D01*
X146573809Y-109485714D01*
X146573809Y-109295238D01*
X147002380Y-109914285D02*
X146002380Y-109914285D01*
X147002380Y-110485714D01*
X146002380Y-110485714D01*
X147002380Y-110961904D02*
X146002380Y-110961904D01*
X146002380Y-111200000D01*
X146050000Y-111342857D01*
X146145238Y-111438095D01*
X146240476Y-111485714D01*
X146430952Y-111533333D01*
X146573809Y-111533333D01*
X146764285Y-111485714D01*
X146859523Y-111438095D01*
X146954761Y-111342857D01*
X147002380Y-111200000D01*
X147002380Y-110961904D01*
D11*
%TO.C,J4*%
X152900000Y-81870000D02*
X152900000Y-84530000D01*
X150300000Y-81870000D02*
X152900000Y-81870000D01*
X150300000Y-84530000D02*
X152900000Y-84530000D01*
X150300000Y-81870000D02*
X150300000Y-84530000D01*
X149030000Y-81870000D02*
X147700000Y-81870000D01*
X147700000Y-81870000D02*
X147700000Y-83200000D01*
%TO.C,A1*%
X170800000Y-79200000D02*
X170800000Y-111200000D01*
X134300000Y-74700000D02*
X166300000Y-74700000D01*
X166300000Y-78700000D02*
X134300000Y-78700000D01*
X166800000Y-111200000D02*
X166800000Y-79200000D01*
X166300000Y-115700000D02*
X134300000Y-115700000D01*
X134300000Y-111700000D02*
X166300000Y-111700000D01*
X129800000Y-111200000D02*
X129800000Y-79200000D01*
X133800000Y-111200000D02*
X133800000Y-79200000D01*
X134300000Y-74700000D02*
G75*
G03*
X129800000Y-79200000I0J-4500000D01*
G01*
X129800000Y-111200000D02*
G75*
G03*
X134300000Y-115700000I4500000J0D01*
G01*
X166300000Y-115700000D02*
G75*
G03*
X170800000Y-111200000I0J4500000D01*
G01*
X170800000Y-79200000D02*
G75*
G03*
X166300000Y-74700000I-4500000J0D01*
G01*
X166800000Y-79200000D02*
G75*
G03*
X166300000Y-78700000I-500000J0D01*
G01*
X134300000Y-78700000D02*
G75*
G03*
X133800000Y-79200000I0J-500000D01*
G01*
X133800000Y-111200000D02*
G75*
G03*
X134300000Y-111700000I500000J0D01*
G01*
X166300000Y-111700000D02*
G75*
G03*
X166800000Y-111200000I0J500000D01*
G01*
%TO.C,J1*%
X155440000Y-105870000D02*
X155440000Y-108530000D01*
X147760000Y-105870000D02*
X155440000Y-105870000D01*
X147760000Y-108530000D02*
X155440000Y-108530000D01*
X147760000Y-105870000D02*
X147760000Y-108530000D01*
X146490000Y-105870000D02*
X145160000Y-105870000D01*
X145160000Y-105870000D02*
X145160000Y-107200000D01*
%TO.C,D3*%
X139860000Y-96280000D02*
X139860000Y-96436000D01*
X139860000Y-93964000D02*
X139860000Y-94120000D01*
X137258870Y-96279837D02*
G75*
G03*
X139340961Y-96280000I1041130J1079837D01*
G01*
X137258870Y-94120163D02*
G75*
G02*
X139340961Y-94120000I1041130J-1079837D01*
G01*
X136627665Y-96278608D02*
G75*
G03*
X139860000Y-96435516I1672335J1078608D01*
G01*
X136627665Y-94121392D02*
G75*
G02*
X139860000Y-93964484I1672335J-1078608D01*
G01*
D12*
%TO.C,AJK1*%
X159850000Y-96970000D02*
X161908820Y-95205290D01*
X161909000Y-95205300D02*
X161909000Y-93734700D01*
X161908820Y-95205290D02*
X163967650Y-96970000D01*
X164487579Y-93950074D02*
X163967650Y-93734712D01*
X164487579Y-94989938D02*
X164702940Y-94470006D01*
X164702940Y-94470006D02*
X164487579Y-93950074D01*
X159850000Y-95205300D02*
X163967650Y-95205300D01*
X163967650Y-95205300D02*
X164487579Y-94989938D01*
X163967650Y-92264120D02*
X159850000Y-95205300D01*
D11*
%TO.C,D1*%
X139860000Y-84280000D02*
X139860000Y-84436000D01*
X139860000Y-81964000D02*
X139860000Y-82120000D01*
X137258870Y-84279837D02*
G75*
G03*
X139340961Y-84280000I1041130J1079837D01*
G01*
X137258870Y-82120163D02*
G75*
G02*
X139340961Y-82120000I1041130J-1079837D01*
G01*
X136627665Y-84278608D02*
G75*
G03*
X139860000Y-84435516I1672335J1078608D01*
G01*
X136627665Y-82121392D02*
G75*
G02*
X139860000Y-81964484I1672335J-1078608D01*
G01*
%TO.C,D2*%
X139860000Y-90280000D02*
X139860000Y-90436000D01*
X139860000Y-87964000D02*
X139860000Y-88120000D01*
X137258870Y-90279837D02*
G75*
G03*
X139340961Y-90280000I1041130J1079837D01*
G01*
X137258870Y-88120163D02*
G75*
G02*
X139340961Y-88120000I1041130J-1079837D01*
G01*
X136627665Y-90278608D02*
G75*
G03*
X139860000Y-90435516I1672335J1078608D01*
G01*
X136627665Y-88121392D02*
G75*
G02*
X139860000Y-87964484I1672335J-1078608D01*
G01*
%TO.C,A1*%
D13*
X170157142Y-80628571D02*
X167157142Y-80628571D01*
X170157142Y-82342857D01*
X167157142Y-82342857D01*
X168585714Y-84771428D02*
X168585714Y-83771428D01*
X170157142Y-83771428D02*
X167157142Y-83771428D01*
X167157142Y-85200000D01*
X169871428Y-88057142D02*
X170014285Y-87914285D01*
X170157142Y-87485714D01*
X170157142Y-87200000D01*
X170014285Y-86771428D01*
X169728571Y-86485714D01*
X169442857Y-86342857D01*
X168871428Y-86200000D01*
X168442857Y-86200000D01*
X167871428Y-86342857D01*
X167585714Y-86485714D01*
X167300000Y-86771428D01*
X167157142Y-87200000D01*
X167157142Y-87485714D01*
X167300000Y-87914285D01*
X167442857Y-88057142D01*
X169300000Y-91485714D02*
X169300000Y-92914285D01*
X170157142Y-91200000D02*
X167157142Y-92200000D01*
X170157142Y-93200000D01*
X170157142Y-94200000D02*
X167157142Y-94200000D01*
X170157142Y-95914285D01*
X167157142Y-95914285D01*
X167157142Y-96914285D02*
X167157142Y-98628571D01*
X170157142Y-97771428D02*
X167157142Y-97771428D01*
X168585714Y-99628571D02*
X168585714Y-100628571D01*
X170157142Y-101057142D02*
X170157142Y-99628571D01*
X167157142Y-99628571D01*
X167157142Y-101057142D01*
X170157142Y-102342857D02*
X167157142Y-102342857D01*
X170157142Y-104057142D01*
X167157142Y-104057142D01*
X170157142Y-105485714D02*
X167157142Y-105485714D01*
X170157142Y-107200000D01*
X167157142Y-107200000D01*
X169300000Y-108485714D02*
X169300000Y-109914285D01*
X170157142Y-108200000D02*
X167157142Y-109200000D01*
X170157142Y-110200000D01*
X130442857Y-109771428D02*
X133442857Y-109771428D01*
X130442857Y-108057142D01*
X133442857Y-108057142D01*
X132014285Y-105628571D02*
X132014285Y-106628571D01*
X130442857Y-106628571D02*
X133442857Y-106628571D01*
X133442857Y-105200000D01*
X130728571Y-102342857D02*
X130585714Y-102485714D01*
X130442857Y-102914285D01*
X130442857Y-103200000D01*
X130585714Y-103628571D01*
X130871428Y-103914285D01*
X131157142Y-104057142D01*
X131728571Y-104200000D01*
X132157142Y-104200000D01*
X132728571Y-104057142D01*
X133014285Y-103914285D01*
X133300000Y-103628571D01*
X133442857Y-103200000D01*
X133442857Y-102914285D01*
X133300000Y-102485714D01*
X133157142Y-102342857D01*
X131300000Y-98914285D02*
X131300000Y-97485714D01*
X130442857Y-99200000D02*
X133442857Y-98200000D01*
X130442857Y-97200000D01*
X130442857Y-96200000D02*
X133442857Y-96200000D01*
X130442857Y-94485714D01*
X133442857Y-94485714D01*
X133442857Y-93485714D02*
X133442857Y-91771428D01*
X130442857Y-92628571D02*
X133442857Y-92628571D01*
X132014285Y-90771428D02*
X132014285Y-89771428D01*
X130442857Y-89342857D02*
X130442857Y-90771428D01*
X133442857Y-90771428D01*
X133442857Y-89342857D01*
X130442857Y-88057142D02*
X133442857Y-88057142D01*
X130442857Y-86342857D01*
X133442857Y-86342857D01*
X130442857Y-84914285D02*
X133442857Y-84914285D01*
X130442857Y-83200000D01*
X133442857Y-83200000D01*
X131300000Y-81914285D02*
X131300000Y-80485714D01*
X130442857Y-82200000D02*
X133442857Y-81200000D01*
X130442857Y-80200000D01*
X135728571Y-75342857D02*
X135728571Y-78342857D01*
X137442857Y-75342857D01*
X137442857Y-78342857D01*
X139871428Y-76914285D02*
X138871428Y-76914285D01*
X138871428Y-75342857D02*
X138871428Y-78342857D01*
X140300000Y-78342857D01*
X143157142Y-75628571D02*
X143014285Y-75485714D01*
X142585714Y-75342857D01*
X142300000Y-75342857D01*
X141871428Y-75485714D01*
X141585714Y-75771428D01*
X141442857Y-76057142D01*
X141300000Y-76628571D01*
X141300000Y-77057142D01*
X141442857Y-77628571D01*
X141585714Y-77914285D01*
X141871428Y-78200000D01*
X142300000Y-78342857D01*
X142585714Y-78342857D01*
X143014285Y-78200000D01*
X143157142Y-78057142D01*
X146585714Y-76200000D02*
X148014285Y-76200000D01*
X146300000Y-75342857D02*
X147300000Y-78342857D01*
X148300000Y-75342857D01*
X149300000Y-75342857D02*
X149300000Y-78342857D01*
X151014285Y-75342857D01*
X151014285Y-78342857D01*
X152014285Y-78342857D02*
X153728571Y-78342857D01*
X152871428Y-75342857D02*
X152871428Y-78342857D01*
X154728571Y-76914285D02*
X155728571Y-76914285D01*
X156157142Y-75342857D02*
X154728571Y-75342857D01*
X154728571Y-78342857D01*
X156157142Y-78342857D01*
X157442857Y-75342857D02*
X157442857Y-78342857D01*
X159157142Y-75342857D01*
X159157142Y-78342857D01*
X160585714Y-75342857D02*
X160585714Y-78342857D01*
X162300000Y-75342857D01*
X162300000Y-78342857D01*
X163585714Y-76200000D02*
X165014285Y-76200000D01*
X163300000Y-75342857D02*
X164300000Y-78342857D01*
X165300000Y-75342857D01*
X164871428Y-115057142D02*
X164871428Y-112057142D01*
X163157142Y-115057142D01*
X163157142Y-112057142D01*
X160728571Y-113485714D02*
X161728571Y-113485714D01*
X161728571Y-115057142D02*
X161728571Y-112057142D01*
X160300000Y-112057142D01*
X157442857Y-114771428D02*
X157585714Y-114914285D01*
X158014285Y-115057142D01*
X158300000Y-115057142D01*
X158728571Y-114914285D01*
X159014285Y-114628571D01*
X159157142Y-114342857D01*
X159300000Y-113771428D01*
X159300000Y-113342857D01*
X159157142Y-112771428D01*
X159014285Y-112485714D01*
X158728571Y-112200000D01*
X158300000Y-112057142D01*
X158014285Y-112057142D01*
X157585714Y-112200000D01*
X157442857Y-112342857D01*
X154014285Y-114200000D02*
X152585714Y-114200000D01*
X154300000Y-115057142D02*
X153300000Y-112057142D01*
X152300000Y-115057142D01*
X151300000Y-115057142D02*
X151300000Y-112057142D01*
X149585714Y-115057142D01*
X149585714Y-112057142D01*
X148585714Y-112057142D02*
X146871428Y-112057142D01*
X147728571Y-115057142D02*
X147728571Y-112057142D01*
X145871428Y-113485714D02*
X144871428Y-113485714D01*
X144442857Y-115057142D02*
X145871428Y-115057142D01*
X145871428Y-112057142D01*
X144442857Y-112057142D01*
X143157142Y-115057142D02*
X143157142Y-112057142D01*
X141442857Y-115057142D01*
X141442857Y-112057142D01*
X140014285Y-115057142D02*
X140014285Y-112057142D01*
X138300000Y-115057142D01*
X138300000Y-112057142D01*
X137014285Y-114200000D02*
X135585714Y-114200000D01*
X137300000Y-115057142D02*
X136300000Y-112057142D01*
X135300000Y-115057142D01*
%TD*%
M02*
