%TF.GenerationSoftware,KiCad,Pcbnew,(5.1.9-0-10_14)*%
%TF.CreationDate,2021-04-22T07:56:31+01:00*%
%TF.ProjectId,PN532,504e3533-322e-46b6-9963-61645f706362,rev?*%
%TF.SameCoordinates,Original*%
%TF.FileFunction,Copper,L1,Top*%
%TF.FilePolarity,Positive*%
%FSLAX46Y46*%
G04 Gerber Fmt 4.6, Leading zero omitted, Abs format (unit mm)*
G04 Created by KiCad (PCBNEW (5.1.9-0-10_14)) date 2021-04-22 07:56:31*
%MOMM*%
%LPD*%
G01*
G04 APERTURE LIST*
%TA.AperFunction,NonConductor*%
%ADD10C,0.150000*%
%TD*%
%TA.AperFunction,NonConductor*%
%ADD11C,0.300000*%
%TD*%
%TA.AperFunction,EtchedComponent*%
%ADD12C,0.500000*%
%TD*%
%TA.AperFunction,ComponentPad*%
%ADD13C,0.600000*%
%TD*%
%TA.AperFunction,ComponentPad*%
%ADD14C,5.700000*%
%TD*%
%TA.AperFunction,ComponentPad*%
%ADD15C,5.500000*%
%TD*%
%TA.AperFunction,ComponentPad*%
%ADD16O,1.700000X1.850000*%
%TD*%
%TA.AperFunction,ComponentPad*%
%ADD17O,1.700000X1.700000*%
%TD*%
%TA.AperFunction,ComponentPad*%
%ADD18R,1.700000X1.700000*%
%TD*%
%TA.AperFunction,ComponentPad*%
%ADD19C,1.800000*%
%TD*%
%TA.AperFunction,ComponentPad*%
%ADD20R,1.800000X1.800000*%
%TD*%
%TA.AperFunction,ComponentPad*%
%ADD21C,2.000000*%
%TD*%
%TA.AperFunction,ComponentPad*%
%ADD22C,1.000000*%
%TD*%
%TA.AperFunction,SMDPad,CuDef*%
%ADD23C,0.500000*%
%TD*%
%TA.AperFunction,SMDPad,CuDef*%
%ADD24R,0.200000X0.200000*%
%TD*%
%TA.AperFunction,SMDPad,CuDef*%
%ADD25R,4.600000X4.600000*%
%TD*%
%TA.AperFunction,ComponentPad*%
%ADD26C,1.300000*%
%TD*%
%TA.AperFunction,ComponentPad*%
%ADD27R,1.300000X1.300000*%
%TD*%
%TA.AperFunction,SMDPad,CuDef*%
%ADD28R,1.900000X1.150000*%
%TD*%
%TA.AperFunction,ViaPad*%
%ADD29C,0.800000*%
%TD*%
%TA.AperFunction,Conductor*%
%ADD30C,0.250000*%
%TD*%
%TA.AperFunction,Conductor*%
%ADD31C,0.500000*%
%TD*%
G04 APERTURE END LIST*
D10*
X111938095Y-85650119D02*
X111900000Y-85612023D01*
X111861904Y-85535833D01*
X111861904Y-85345357D01*
X111900000Y-85269166D01*
X111938095Y-85231071D01*
X112014285Y-85192976D01*
X112090476Y-85192976D01*
X112204761Y-85231071D01*
X112661904Y-85688214D01*
X112661904Y-85192976D01*
X111861904Y-84697738D02*
X111861904Y-84621547D01*
X111900000Y-84545357D01*
X111938095Y-84507261D01*
X112014285Y-84469166D01*
X112166666Y-84431071D01*
X112357142Y-84431071D01*
X112509523Y-84469166D01*
X112585714Y-84507261D01*
X112623809Y-84545357D01*
X112661904Y-84621547D01*
X112661904Y-84697738D01*
X112623809Y-84773928D01*
X112585714Y-84812023D01*
X112509523Y-84850119D01*
X112357142Y-84888214D01*
X112166666Y-84888214D01*
X112014285Y-84850119D01*
X111938095Y-84812023D01*
X111900000Y-84773928D01*
X111861904Y-84697738D01*
X111938095Y-84126309D02*
X111900000Y-84088214D01*
X111861904Y-84012023D01*
X111861904Y-83821547D01*
X111900000Y-83745357D01*
X111938095Y-83707261D01*
X112014285Y-83669166D01*
X112090476Y-83669166D01*
X112204761Y-83707261D01*
X112661904Y-84164404D01*
X112661904Y-83669166D01*
X112661904Y-82907261D02*
X112661904Y-83364404D01*
X112661904Y-83135833D02*
X111861904Y-83135833D01*
X111976190Y-83212023D01*
X112052380Y-83288214D01*
X112090476Y-83364404D01*
X112357142Y-82564404D02*
X112357142Y-81954880D01*
X111861904Y-81421547D02*
X111861904Y-81345357D01*
X111900000Y-81269166D01*
X111938095Y-81231071D01*
X112014285Y-81192976D01*
X112166666Y-81154880D01*
X112357142Y-81154880D01*
X112509523Y-81192976D01*
X112585714Y-81231071D01*
X112623809Y-81269166D01*
X112661904Y-81345357D01*
X112661904Y-81421547D01*
X112623809Y-81497738D01*
X112585714Y-81535833D01*
X112509523Y-81573928D01*
X112357142Y-81612023D01*
X112166666Y-81612023D01*
X112014285Y-81573928D01*
X111938095Y-81535833D01*
X111900000Y-81497738D01*
X111861904Y-81421547D01*
X112128571Y-80469166D02*
X112661904Y-80469166D01*
X111823809Y-80659642D02*
X112395238Y-80850119D01*
X112395238Y-80354880D01*
X112357142Y-80050119D02*
X112357142Y-79440595D01*
X111938095Y-79097738D02*
X111900000Y-79059642D01*
X111861904Y-78983452D01*
X111861904Y-78792976D01*
X111900000Y-78716785D01*
X111938095Y-78678690D01*
X112014285Y-78640595D01*
X112090476Y-78640595D01*
X112204761Y-78678690D01*
X112661904Y-79135833D01*
X112661904Y-78640595D01*
X111938095Y-78335833D02*
X111900000Y-78297738D01*
X111861904Y-78221547D01*
X111861904Y-78031071D01*
X111900000Y-77954880D01*
X111938095Y-77916785D01*
X112014285Y-77878690D01*
X112090476Y-77878690D01*
X112204761Y-77916785D01*
X112661904Y-78373928D01*
X112661904Y-77878690D01*
D11*
X111814285Y-66578571D02*
X112100000Y-67578571D01*
X112385714Y-66864285D01*
X112671428Y-67578571D01*
X112957142Y-66578571D01*
X113385714Y-66578571D02*
X113671428Y-67578571D01*
X113957142Y-66864285D01*
X114242857Y-67578571D01*
X114528571Y-66578571D01*
X114957142Y-66578571D02*
X115242857Y-67578571D01*
X115528571Y-66864285D01*
X115814285Y-67578571D01*
X116100000Y-66578571D01*
X116671428Y-67435714D02*
X116742857Y-67507142D01*
X116671428Y-67578571D01*
X116600000Y-67507142D01*
X116671428Y-67435714D01*
X116671428Y-67578571D01*
X117385714Y-67578571D02*
X117385714Y-66578571D01*
X117385714Y-66721428D02*
X117457142Y-66650000D01*
X117600000Y-66578571D01*
X117814285Y-66578571D01*
X117957142Y-66650000D01*
X118028571Y-66792857D01*
X118028571Y-67578571D01*
X118028571Y-66792857D02*
X118100000Y-66650000D01*
X118242857Y-66578571D01*
X118457142Y-66578571D01*
X118600000Y-66650000D01*
X118671428Y-66792857D01*
X118671428Y-67578571D01*
X119957142Y-67507142D02*
X119814285Y-67578571D01*
X119528571Y-67578571D01*
X119385714Y-67507142D01*
X119314285Y-67364285D01*
X119314285Y-66792857D01*
X119385714Y-66650000D01*
X119528571Y-66578571D01*
X119814285Y-66578571D01*
X119957142Y-66650000D01*
X120028571Y-66792857D01*
X120028571Y-66935714D01*
X119314285Y-67078571D01*
X120671428Y-67435714D02*
X120742857Y-67507142D01*
X120671428Y-67578571D01*
X120600000Y-67507142D01*
X120671428Y-67435714D01*
X120671428Y-67578571D01*
X122028571Y-66578571D02*
X122028571Y-67578571D01*
X121385714Y-66578571D02*
X121385714Y-67364285D01*
X121457142Y-67507142D01*
X121600000Y-67578571D01*
X121814285Y-67578571D01*
X121957142Y-67507142D01*
X122028571Y-67435714D01*
X122742857Y-67578571D02*
X122742857Y-66078571D01*
X122885714Y-67007142D02*
X123314285Y-67578571D01*
X123314285Y-66578571D02*
X122742857Y-67150000D01*
D12*
%TO.C,A1*%
X104000000Y-80000000D02*
X101000000Y-78000000D01*
%TD*%
%TO.P,R4,2*%
%TO.N,Net-(C10-Pad1)*%
%TA.AperFunction,SMDPad,CuDef*%
G36*
G01*
X124249999Y-69000000D02*
X125150001Y-69000000D01*
G75*
G02*
X125400000Y-69249999I0J-249999D01*
G01*
X125400000Y-69950001D01*
G75*
G02*
X125150001Y-70200000I-249999J0D01*
G01*
X124249999Y-70200000D01*
G75*
G02*
X124000000Y-69950001I0J249999D01*
G01*
X124000000Y-69249999D01*
G75*
G02*
X124249999Y-69000000I249999J0D01*
G01*
G37*
%TD.AperFunction*%
%TO.P,R4,1*%
%TO.N,Net-(C8-Pad1)*%
%TA.AperFunction,SMDPad,CuDef*%
G36*
G01*
X124249999Y-67000000D02*
X125150001Y-67000000D01*
G75*
G02*
X125400000Y-67249999I0J-249999D01*
G01*
X125400000Y-67950001D01*
G75*
G02*
X125150001Y-68200000I-249999J0D01*
G01*
X124249999Y-68200000D01*
G75*
G02*
X124000000Y-67950001I0J249999D01*
G01*
X124000000Y-67249999D01*
G75*
G02*
X124249999Y-67000000I249999J0D01*
G01*
G37*
%TD.AperFunction*%
%TD*%
D13*
%TO.P,A1,~*%
%TO.N,N/C*%
X101000000Y-78000000D03*
X104000000Y-80000000D03*
%TO.P,A1,3*%
%TO.N,Net-(A1-Pad3)*%
X138000000Y-76000000D03*
%TO.P,A1,1*%
%TO.N,Net-(A1-Pad1)*%
X138000000Y-82000000D03*
%TO.P,A1,2*%
%TO.N,GND*%
X140000000Y-79000000D03*
%TD*%
D14*
%TO.P,H2,1*%
%TO.N,N/C*%
X109000000Y-91000000D03*
%TD*%
D15*
%TO.P,H1,1*%
%TO.N,N/C*%
X133000000Y-67000000D03*
%TD*%
D16*
%TO.P,J2,4*%
%TO.N,Net-(J1-Pad4)*%
X124750000Y-88000000D03*
%TO.P,J2,3*%
%TO.N,Net-(J1-Pad3)*%
X122250000Y-88000000D03*
%TO.P,J2,2*%
%TO.N,+5V*%
X119750000Y-88000000D03*
%TO.P,J2,1*%
%TO.N,GND*%
%TA.AperFunction,ComponentPad*%
G36*
G01*
X116400000Y-88675000D02*
X116400000Y-87325000D01*
G75*
G02*
X116650000Y-87075000I250000J0D01*
G01*
X117850000Y-87075000D01*
G75*
G02*
X118100000Y-87325000I0J-250000D01*
G01*
X118100000Y-88675000D01*
G75*
G02*
X117850000Y-88925000I-250000J0D01*
G01*
X116650000Y-88925000D01*
G75*
G02*
X116400000Y-88675000I0J250000D01*
G01*
G37*
%TD.AperFunction*%
%TD*%
%TO.P,C14,2*%
%TO.N,GND*%
%TA.AperFunction,SMDPad,CuDef*%
G36*
G01*
X129925000Y-85087500D02*
X130875000Y-85087500D01*
G75*
G02*
X131125000Y-85337500I0J-250000D01*
G01*
X131125000Y-86012500D01*
G75*
G02*
X130875000Y-86262500I-250000J0D01*
G01*
X129925000Y-86262500D01*
G75*
G02*
X129675000Y-86012500I0J250000D01*
G01*
X129675000Y-85337500D01*
G75*
G02*
X129925000Y-85087500I250000J0D01*
G01*
G37*
%TD.AperFunction*%
%TO.P,C14,1*%
%TO.N,+5V*%
%TA.AperFunction,SMDPad,CuDef*%
G36*
G01*
X129925000Y-83012500D02*
X130875000Y-83012500D01*
G75*
G02*
X131125000Y-83262500I0J-250000D01*
G01*
X131125000Y-83937500D01*
G75*
G02*
X130875000Y-84187500I-250000J0D01*
G01*
X129925000Y-84187500D01*
G75*
G02*
X129675000Y-83937500I0J250000D01*
G01*
X129675000Y-83262500D01*
G75*
G02*
X129925000Y-83012500I250000J0D01*
G01*
G37*
%TD.AperFunction*%
%TD*%
%TO.P,C17,2*%
%TO.N,GND*%
%TA.AperFunction,SMDPad,CuDef*%
G36*
G01*
X120175000Y-72012500D02*
X119225000Y-72012500D01*
G75*
G02*
X118975000Y-71762500I0J250000D01*
G01*
X118975000Y-71087500D01*
G75*
G02*
X119225000Y-70837500I250000J0D01*
G01*
X120175000Y-70837500D01*
G75*
G02*
X120425000Y-71087500I0J-250000D01*
G01*
X120425000Y-71762500D01*
G75*
G02*
X120175000Y-72012500I-250000J0D01*
G01*
G37*
%TD.AperFunction*%
%TO.P,C17,1*%
%TO.N,+3V3*%
%TA.AperFunction,SMDPad,CuDef*%
G36*
G01*
X120175000Y-74087500D02*
X119225000Y-74087500D01*
G75*
G02*
X118975000Y-73837500I0J250000D01*
G01*
X118975000Y-73162500D01*
G75*
G02*
X119225000Y-72912500I250000J0D01*
G01*
X120175000Y-72912500D01*
G75*
G02*
X120425000Y-73162500I0J-250000D01*
G01*
X120425000Y-73837500D01*
G75*
G02*
X120175000Y-74087500I-250000J0D01*
G01*
G37*
%TD.AperFunction*%
%TD*%
%TO.P,C16,2*%
%TO.N,GND*%
%TA.AperFunction,SMDPad,CuDef*%
G36*
G01*
X122275000Y-72012500D02*
X121325000Y-72012500D01*
G75*
G02*
X121075000Y-71762500I0J250000D01*
G01*
X121075000Y-71087500D01*
G75*
G02*
X121325000Y-70837500I250000J0D01*
G01*
X122275000Y-70837500D01*
G75*
G02*
X122525000Y-71087500I0J-250000D01*
G01*
X122525000Y-71762500D01*
G75*
G02*
X122275000Y-72012500I-250000J0D01*
G01*
G37*
%TD.AperFunction*%
%TO.P,C16,1*%
%TO.N,Net-(C16-Pad1)*%
%TA.AperFunction,SMDPad,CuDef*%
G36*
G01*
X122275000Y-74087500D02*
X121325000Y-74087500D01*
G75*
G02*
X121075000Y-73837500I0J250000D01*
G01*
X121075000Y-73162500D01*
G75*
G02*
X121325000Y-72912500I250000J0D01*
G01*
X122275000Y-72912500D01*
G75*
G02*
X122525000Y-73162500I0J-250000D01*
G01*
X122525000Y-73837500D01*
G75*
G02*
X122275000Y-74087500I-250000J0D01*
G01*
G37*
%TD.AperFunction*%
%TD*%
%TO.P,C15,2*%
%TO.N,GND*%
%TA.AperFunction,SMDPad,CuDef*%
G36*
G01*
X128025000Y-72912500D02*
X128975000Y-72912500D01*
G75*
G02*
X129225000Y-73162500I0J-250000D01*
G01*
X129225000Y-73837500D01*
G75*
G02*
X128975000Y-74087500I-250000J0D01*
G01*
X128025000Y-74087500D01*
G75*
G02*
X127775000Y-73837500I0J250000D01*
G01*
X127775000Y-73162500D01*
G75*
G02*
X128025000Y-72912500I250000J0D01*
G01*
G37*
%TD.AperFunction*%
%TO.P,C15,1*%
%TO.N,Net-(C15-Pad1)*%
%TA.AperFunction,SMDPad,CuDef*%
G36*
G01*
X128025000Y-70837500D02*
X128975000Y-70837500D01*
G75*
G02*
X129225000Y-71087500I0J-250000D01*
G01*
X129225000Y-71762500D01*
G75*
G02*
X128975000Y-72012500I-250000J0D01*
G01*
X128025000Y-72012500D01*
G75*
G02*
X127775000Y-71762500I0J250000D01*
G01*
X127775000Y-71087500D01*
G75*
G02*
X128025000Y-70837500I250000J0D01*
G01*
G37*
%TD.AperFunction*%
%TD*%
%TO.P,C13,2*%
%TO.N,GND*%
%TA.AperFunction,SMDPad,CuDef*%
G36*
G01*
X122812500Y-84325000D02*
X122812500Y-85275000D01*
G75*
G02*
X122562500Y-85525000I-250000J0D01*
G01*
X121887500Y-85525000D01*
G75*
G02*
X121637500Y-85275000I0J250000D01*
G01*
X121637500Y-84325000D01*
G75*
G02*
X121887500Y-84075000I250000J0D01*
G01*
X122562500Y-84075000D01*
G75*
G02*
X122812500Y-84325000I0J-250000D01*
G01*
G37*
%TD.AperFunction*%
%TO.P,C13,1*%
%TO.N,+3V3*%
%TA.AperFunction,SMDPad,CuDef*%
G36*
G01*
X124887500Y-84325000D02*
X124887500Y-85275000D01*
G75*
G02*
X124637500Y-85525000I-250000J0D01*
G01*
X123962500Y-85525000D01*
G75*
G02*
X123712500Y-85275000I0J250000D01*
G01*
X123712500Y-84325000D01*
G75*
G02*
X123962500Y-84075000I250000J0D01*
G01*
X124637500Y-84075000D01*
G75*
G02*
X124887500Y-84325000I0J-250000D01*
G01*
G37*
%TD.AperFunction*%
%TD*%
%TO.P,C12,2*%
%TO.N,GND*%
%TA.AperFunction,SMDPad,CuDef*%
G36*
G01*
X127712500Y-85275000D02*
X127712500Y-84325000D01*
G75*
G02*
X127962500Y-84075000I250000J0D01*
G01*
X128637500Y-84075000D01*
G75*
G02*
X128887500Y-84325000I0J-250000D01*
G01*
X128887500Y-85275000D01*
G75*
G02*
X128637500Y-85525000I-250000J0D01*
G01*
X127962500Y-85525000D01*
G75*
G02*
X127712500Y-85275000I0J250000D01*
G01*
G37*
%TD.AperFunction*%
%TO.P,C12,1*%
%TO.N,+3V3*%
%TA.AperFunction,SMDPad,CuDef*%
G36*
G01*
X125637500Y-85275000D02*
X125637500Y-84325000D01*
G75*
G02*
X125887500Y-84075000I250000J0D01*
G01*
X126562500Y-84075000D01*
G75*
G02*
X126812500Y-84325000I0J-250000D01*
G01*
X126812500Y-85275000D01*
G75*
G02*
X126562500Y-85525000I-250000J0D01*
G01*
X125887500Y-85525000D01*
G75*
G02*
X125637500Y-85275000I0J250000D01*
G01*
G37*
%TD.AperFunction*%
%TD*%
%TO.P,C11,2*%
%TO.N,GND*%
%TA.AperFunction,SMDPad,CuDef*%
G36*
G01*
X132125000Y-79450000D02*
X133075000Y-79450000D01*
G75*
G02*
X133325000Y-79700000I0J-250000D01*
G01*
X133325000Y-80375000D01*
G75*
G02*
X133075000Y-80625000I-250000J0D01*
G01*
X132125000Y-80625000D01*
G75*
G02*
X131875000Y-80375000I0J250000D01*
G01*
X131875000Y-79700000D01*
G75*
G02*
X132125000Y-79450000I250000J0D01*
G01*
G37*
%TD.AperFunction*%
%TO.P,C11,1*%
%TO.N,+3V3*%
%TA.AperFunction,SMDPad,CuDef*%
G36*
G01*
X132125000Y-77375000D02*
X133075000Y-77375000D01*
G75*
G02*
X133325000Y-77625000I0J-250000D01*
G01*
X133325000Y-78300000D01*
G75*
G02*
X133075000Y-78550000I-250000J0D01*
G01*
X132125000Y-78550000D01*
G75*
G02*
X131875000Y-78300000I0J250000D01*
G01*
X131875000Y-77625000D01*
G75*
G02*
X132125000Y-77375000I250000J0D01*
G01*
G37*
%TD.AperFunction*%
%TD*%
%TO.P,C10,2*%
%TO.N,GND*%
%TA.AperFunction,SMDPad,CuDef*%
G36*
G01*
X131075000Y-72012500D02*
X130125000Y-72012500D01*
G75*
G02*
X129875000Y-71762500I0J250000D01*
G01*
X129875000Y-71087500D01*
G75*
G02*
X130125000Y-70837500I250000J0D01*
G01*
X131075000Y-70837500D01*
G75*
G02*
X131325000Y-71087500I0J-250000D01*
G01*
X131325000Y-71762500D01*
G75*
G02*
X131075000Y-72012500I-250000J0D01*
G01*
G37*
%TD.AperFunction*%
%TO.P,C10,1*%
%TO.N,Net-(C10-Pad1)*%
%TA.AperFunction,SMDPad,CuDef*%
G36*
G01*
X131075000Y-74087500D02*
X130125000Y-74087500D01*
G75*
G02*
X129875000Y-73837500I0J250000D01*
G01*
X129875000Y-73162500D01*
G75*
G02*
X130125000Y-72912500I250000J0D01*
G01*
X131075000Y-72912500D01*
G75*
G02*
X131325000Y-73162500I0J-250000D01*
G01*
X131325000Y-73837500D01*
G75*
G02*
X131075000Y-74087500I-250000J0D01*
G01*
G37*
%TD.AperFunction*%
%TD*%
%TO.P,C9,2*%
%TO.N,GND*%
%TA.AperFunction,SMDPad,CuDef*%
G36*
G01*
X136012500Y-78375000D02*
X136012500Y-77425000D01*
G75*
G02*
X136262500Y-77175000I250000J0D01*
G01*
X136937500Y-77175000D01*
G75*
G02*
X137187500Y-77425000I0J-250000D01*
G01*
X137187500Y-78375000D01*
G75*
G02*
X136937500Y-78625000I-250000J0D01*
G01*
X136262500Y-78625000D01*
G75*
G02*
X136012500Y-78375000I0J250000D01*
G01*
G37*
%TD.AperFunction*%
%TO.P,C9,1*%
%TO.N,+3V3*%
%TA.AperFunction,SMDPad,CuDef*%
G36*
G01*
X133937500Y-78375000D02*
X133937500Y-77425000D01*
G75*
G02*
X134187500Y-77175000I250000J0D01*
G01*
X134862500Y-77175000D01*
G75*
G02*
X135112500Y-77425000I0J-250000D01*
G01*
X135112500Y-78375000D01*
G75*
G02*
X134862500Y-78625000I-250000J0D01*
G01*
X134187500Y-78625000D01*
G75*
G02*
X133937500Y-78375000I0J250000D01*
G01*
G37*
%TD.AperFunction*%
%TD*%
%TO.P,C8,2*%
%TO.N,Net-(C8-Pad2)*%
%TA.AperFunction,SMDPad,CuDef*%
G36*
G01*
X127175000Y-68112500D02*
X126225000Y-68112500D01*
G75*
G02*
X125975000Y-67862500I0J250000D01*
G01*
X125975000Y-67187500D01*
G75*
G02*
X126225000Y-66937500I250000J0D01*
G01*
X127175000Y-66937500D01*
G75*
G02*
X127425000Y-67187500I0J-250000D01*
G01*
X127425000Y-67862500D01*
G75*
G02*
X127175000Y-68112500I-250000J0D01*
G01*
G37*
%TD.AperFunction*%
%TO.P,C8,1*%
%TO.N,Net-(C8-Pad1)*%
%TA.AperFunction,SMDPad,CuDef*%
G36*
G01*
X127175000Y-70187500D02*
X126225000Y-70187500D01*
G75*
G02*
X125975000Y-69937500I0J250000D01*
G01*
X125975000Y-69262500D01*
G75*
G02*
X126225000Y-69012500I250000J0D01*
G01*
X127175000Y-69012500D01*
G75*
G02*
X127425000Y-69262500I0J-250000D01*
G01*
X127425000Y-69937500D01*
G75*
G02*
X127175000Y-70187500I-250000J0D01*
G01*
G37*
%TD.AperFunction*%
%TD*%
%TO.P,C7,2*%
%TO.N,GND*%
%TA.AperFunction,SMDPad,CuDef*%
G36*
G01*
X136012500Y-80575000D02*
X136012500Y-79625000D01*
G75*
G02*
X136262500Y-79375000I250000J0D01*
G01*
X136937500Y-79375000D01*
G75*
G02*
X137187500Y-79625000I0J-250000D01*
G01*
X137187500Y-80575000D01*
G75*
G02*
X136937500Y-80825000I-250000J0D01*
G01*
X136262500Y-80825000D01*
G75*
G02*
X136012500Y-80575000I0J250000D01*
G01*
G37*
%TD.AperFunction*%
%TO.P,C7,1*%
%TO.N,+3V3*%
%TA.AperFunction,SMDPad,CuDef*%
G36*
G01*
X133937500Y-80575000D02*
X133937500Y-79625000D01*
G75*
G02*
X134187500Y-79375000I250000J0D01*
G01*
X134862500Y-79375000D01*
G75*
G02*
X135112500Y-79625000I0J-250000D01*
G01*
X135112500Y-80575000D01*
G75*
G02*
X134862500Y-80825000I-250000J0D01*
G01*
X134187500Y-80825000D01*
G75*
G02*
X133937500Y-80575000I0J250000D01*
G01*
G37*
%TD.AperFunction*%
%TD*%
%TO.P,C6,2*%
%TO.N,Net-(C4-Pad2)*%
%TA.AperFunction,SMDPad,CuDef*%
G36*
G01*
X133087500Y-71325000D02*
X133087500Y-72275000D01*
G75*
G02*
X132837500Y-72525000I-250000J0D01*
G01*
X132162500Y-72525000D01*
G75*
G02*
X131912500Y-72275000I0J250000D01*
G01*
X131912500Y-71325000D01*
G75*
G02*
X132162500Y-71075000I250000J0D01*
G01*
X132837500Y-71075000D01*
G75*
G02*
X133087500Y-71325000I0J-250000D01*
G01*
G37*
%TD.AperFunction*%
%TO.P,C6,1*%
%TO.N,GND*%
%TA.AperFunction,SMDPad,CuDef*%
G36*
G01*
X135162500Y-71325000D02*
X135162500Y-72275000D01*
G75*
G02*
X134912500Y-72525000I-250000J0D01*
G01*
X134237500Y-72525000D01*
G75*
G02*
X133987500Y-72275000I0J250000D01*
G01*
X133987500Y-71325000D01*
G75*
G02*
X134237500Y-71075000I250000J0D01*
G01*
X134912500Y-71075000D01*
G75*
G02*
X135162500Y-71325000I0J-250000D01*
G01*
G37*
%TD.AperFunction*%
%TD*%
%TO.P,C5,2*%
%TO.N,Net-(C3-Pad1)*%
%TA.AperFunction,SMDPad,CuDef*%
G36*
G01*
X133087500Y-85725000D02*
X133087500Y-86675000D01*
G75*
G02*
X132837500Y-86925000I-250000J0D01*
G01*
X132162500Y-86925000D01*
G75*
G02*
X131912500Y-86675000I0J250000D01*
G01*
X131912500Y-85725000D01*
G75*
G02*
X132162500Y-85475000I250000J0D01*
G01*
X132837500Y-85475000D01*
G75*
G02*
X133087500Y-85725000I0J-250000D01*
G01*
G37*
%TD.AperFunction*%
%TO.P,C5,1*%
%TO.N,GND*%
%TA.AperFunction,SMDPad,CuDef*%
G36*
G01*
X135162500Y-85725000D02*
X135162500Y-86675000D01*
G75*
G02*
X134912500Y-86925000I-250000J0D01*
G01*
X134237500Y-86925000D01*
G75*
G02*
X133987500Y-86675000I0J250000D01*
G01*
X133987500Y-85725000D01*
G75*
G02*
X134237500Y-85475000I250000J0D01*
G01*
X134912500Y-85475000D01*
G75*
G02*
X135162500Y-85725000I0J-250000D01*
G01*
G37*
%TD.AperFunction*%
%TD*%
%TO.P,C4,2*%
%TO.N,Net-(C4-Pad2)*%
%TA.AperFunction,SMDPad,CuDef*%
G36*
G01*
X133087500Y-73456428D02*
X133087500Y-74406428D01*
G75*
G02*
X132837500Y-74656428I-250000J0D01*
G01*
X132162500Y-74656428D01*
G75*
G02*
X131912500Y-74406428I0J250000D01*
G01*
X131912500Y-73456428D01*
G75*
G02*
X132162500Y-73206428I250000J0D01*
G01*
X132837500Y-73206428D01*
G75*
G02*
X133087500Y-73456428I0J-250000D01*
G01*
G37*
%TD.AperFunction*%
%TO.P,C4,1*%
%TO.N,Net-(C2-Pad2)*%
%TA.AperFunction,SMDPad,CuDef*%
G36*
G01*
X135162500Y-73456428D02*
X135162500Y-74406428D01*
G75*
G02*
X134912500Y-74656428I-250000J0D01*
G01*
X134237500Y-74656428D01*
G75*
G02*
X133987500Y-74406428I0J250000D01*
G01*
X133987500Y-73456428D01*
G75*
G02*
X134237500Y-73206428I250000J0D01*
G01*
X134912500Y-73206428D01*
G75*
G02*
X135162500Y-73456428I0J-250000D01*
G01*
G37*
%TD.AperFunction*%
%TD*%
%TO.P,C3,2*%
%TO.N,Net-(C1-Pad1)*%
%TA.AperFunction,SMDPad,CuDef*%
G36*
G01*
X133987500Y-84543568D02*
X133987500Y-83593568D01*
G75*
G02*
X134237500Y-83343568I250000J0D01*
G01*
X134912500Y-83343568D01*
G75*
G02*
X135162500Y-83593568I0J-250000D01*
G01*
X135162500Y-84543568D01*
G75*
G02*
X134912500Y-84793568I-250000J0D01*
G01*
X134237500Y-84793568D01*
G75*
G02*
X133987500Y-84543568I0J250000D01*
G01*
G37*
%TD.AperFunction*%
%TO.P,C3,1*%
%TO.N,Net-(C3-Pad1)*%
%TA.AperFunction,SMDPad,CuDef*%
G36*
G01*
X131912500Y-84543568D02*
X131912500Y-83593568D01*
G75*
G02*
X132162500Y-83343568I250000J0D01*
G01*
X132837500Y-83343568D01*
G75*
G02*
X133087500Y-83593568I0J-250000D01*
G01*
X133087500Y-84543568D01*
G75*
G02*
X132837500Y-84793568I-250000J0D01*
G01*
X132162500Y-84793568D01*
G75*
G02*
X131912500Y-84543568I0J250000D01*
G01*
G37*
%TD.AperFunction*%
%TD*%
%TO.P,L2,2*%
%TO.N,Net-(L2-Pad2)*%
%TA.AperFunction,SMDPad,CuDef*%
G36*
G01*
X132912500Y-75582855D02*
X132912500Y-76282857D01*
G75*
G02*
X132662501Y-76532856I-249999J0D01*
G01*
X132112499Y-76532856D01*
G75*
G02*
X131862500Y-76282857I0J249999D01*
G01*
X131862500Y-75582855D01*
G75*
G02*
X132112499Y-75332856I249999J0D01*
G01*
X132662501Y-75332856D01*
G75*
G02*
X132912500Y-75582855I0J-249999D01*
G01*
G37*
%TD.AperFunction*%
%TO.P,L2,1*%
%TO.N,Net-(C4-Pad2)*%
%TA.AperFunction,SMDPad,CuDef*%
G36*
G01*
X135212500Y-75582855D02*
X135212500Y-76282857D01*
G75*
G02*
X134962501Y-76532856I-249999J0D01*
G01*
X134412499Y-76532856D01*
G75*
G02*
X134162500Y-76282857I0J249999D01*
G01*
X134162500Y-75582855D01*
G75*
G02*
X134412499Y-75332856I249999J0D01*
G01*
X134962501Y-75332856D01*
G75*
G02*
X135212500Y-75582855I0J-249999D01*
G01*
G37*
%TD.AperFunction*%
%TD*%
%TO.P,L1,2*%
%TO.N,Net-(C3-Pad1)*%
%TA.AperFunction,SMDPad,CuDef*%
G36*
G01*
X134162500Y-82417141D02*
X134162500Y-81717139D01*
G75*
G02*
X134412499Y-81467140I249999J0D01*
G01*
X134962501Y-81467140D01*
G75*
G02*
X135212500Y-81717139I0J-249999D01*
G01*
X135212500Y-82417141D01*
G75*
G02*
X134962501Y-82667140I-249999J0D01*
G01*
X134412499Y-82667140D01*
G75*
G02*
X134162500Y-82417141I0J249999D01*
G01*
G37*
%TD.AperFunction*%
%TO.P,L1,1*%
%TO.N,Net-(L1-Pad1)*%
%TA.AperFunction,SMDPad,CuDef*%
G36*
G01*
X131862500Y-82417141D02*
X131862500Y-81717139D01*
G75*
G02*
X132112499Y-81467140I249999J0D01*
G01*
X132662501Y-81467140D01*
G75*
G02*
X132912500Y-81717139I0J-249999D01*
G01*
X132912500Y-82417141D01*
G75*
G02*
X132662501Y-82667140I-249999J0D01*
G01*
X132112499Y-82667140D01*
G75*
G02*
X131862500Y-82417141I0J249999D01*
G01*
G37*
%TD.AperFunction*%
%TD*%
%TO.P,C2,2*%
%TO.N,Net-(C2-Pad2)*%
%TA.AperFunction,SMDPad,CuDef*%
G36*
G01*
X136025000Y-71450000D02*
X136975000Y-71450000D01*
G75*
G02*
X137225000Y-71700000I0J-250000D01*
G01*
X137225000Y-72375000D01*
G75*
G02*
X136975000Y-72625000I-250000J0D01*
G01*
X136025000Y-72625000D01*
G75*
G02*
X135775000Y-72375000I0J250000D01*
G01*
X135775000Y-71700000D01*
G75*
G02*
X136025000Y-71450000I250000J0D01*
G01*
G37*
%TD.AperFunction*%
%TO.P,C2,1*%
%TO.N,GND*%
%TA.AperFunction,SMDPad,CuDef*%
G36*
G01*
X136025000Y-69375000D02*
X136975000Y-69375000D01*
G75*
G02*
X137225000Y-69625000I0J-250000D01*
G01*
X137225000Y-70300000D01*
G75*
G02*
X136975000Y-70550000I-250000J0D01*
G01*
X136025000Y-70550000D01*
G75*
G02*
X135775000Y-70300000I0J250000D01*
G01*
X135775000Y-69625000D01*
G75*
G02*
X136025000Y-69375000I250000J0D01*
G01*
G37*
%TD.AperFunction*%
%TD*%
%TO.P,C1,2*%
%TO.N,GND*%
%TA.AperFunction,SMDPad,CuDef*%
G36*
G01*
X136025000Y-87450000D02*
X136975000Y-87450000D01*
G75*
G02*
X137225000Y-87700000I0J-250000D01*
G01*
X137225000Y-88375000D01*
G75*
G02*
X136975000Y-88625000I-250000J0D01*
G01*
X136025000Y-88625000D01*
G75*
G02*
X135775000Y-88375000I0J250000D01*
G01*
X135775000Y-87700000D01*
G75*
G02*
X136025000Y-87450000I250000J0D01*
G01*
G37*
%TD.AperFunction*%
%TO.P,C1,1*%
%TO.N,Net-(C1-Pad1)*%
%TA.AperFunction,SMDPad,CuDef*%
G36*
G01*
X136025000Y-85375000D02*
X136975000Y-85375000D01*
G75*
G02*
X137225000Y-85625000I0J-250000D01*
G01*
X137225000Y-86300000D01*
G75*
G02*
X136975000Y-86550000I-250000J0D01*
G01*
X136025000Y-86550000D01*
G75*
G02*
X135775000Y-86300000I0J250000D01*
G01*
X135775000Y-85625000D01*
G75*
G02*
X136025000Y-85375000I250000J0D01*
G01*
G37*
%TD.AperFunction*%
%TD*%
%TO.P,R10,2*%
%TO.N,Net-(R10-Pad2)*%
%TA.AperFunction,SMDPad,CuDef*%
G36*
G01*
X118900000Y-84349999D02*
X118900000Y-85250001D01*
G75*
G02*
X118650001Y-85500000I-249999J0D01*
G01*
X117949999Y-85500000D01*
G75*
G02*
X117700000Y-85250001I0J249999D01*
G01*
X117700000Y-84349999D01*
G75*
G02*
X117949999Y-84100000I249999J0D01*
G01*
X118650001Y-84100000D01*
G75*
G02*
X118900000Y-84349999I0J-249999D01*
G01*
G37*
%TD.AperFunction*%
%TO.P,R10,1*%
%TO.N,+3V3*%
%TA.AperFunction,SMDPad,CuDef*%
G36*
G01*
X120900000Y-84349999D02*
X120900000Y-85250001D01*
G75*
G02*
X120650001Y-85500000I-249999J0D01*
G01*
X119949999Y-85500000D01*
G75*
G02*
X119700000Y-85250001I0J249999D01*
G01*
X119700000Y-84349999D01*
G75*
G02*
X119949999Y-84100000I249999J0D01*
G01*
X120650001Y-84100000D01*
G75*
G02*
X120900000Y-84349999I0J-249999D01*
G01*
G37*
%TD.AperFunction*%
%TD*%
%TO.P,R9,2*%
%TO.N,Net-(D3-Pad2)*%
%TA.AperFunction,SMDPad,CuDef*%
G36*
G01*
X114650000Y-76049999D02*
X114650000Y-76950001D01*
G75*
G02*
X114400001Y-77200000I-249999J0D01*
G01*
X113699999Y-77200000D01*
G75*
G02*
X113450000Y-76950001I0J249999D01*
G01*
X113450000Y-76049999D01*
G75*
G02*
X113699999Y-75800000I249999J0D01*
G01*
X114400001Y-75800000D01*
G75*
G02*
X114650000Y-76049999I0J-249999D01*
G01*
G37*
%TD.AperFunction*%
%TO.P,R9,1*%
%TO.N,Net-(R9-Pad1)*%
%TA.AperFunction,SMDPad,CuDef*%
G36*
G01*
X116650000Y-76049999D02*
X116650000Y-76950001D01*
G75*
G02*
X116400001Y-77200000I-249999J0D01*
G01*
X115699999Y-77200000D01*
G75*
G02*
X115450000Y-76950001I0J249999D01*
G01*
X115450000Y-76049999D01*
G75*
G02*
X115699999Y-75800000I249999J0D01*
G01*
X116400001Y-75800000D01*
G75*
G02*
X116650000Y-76049999I0J-249999D01*
G01*
G37*
%TD.AperFunction*%
%TD*%
%TO.P,R8,2*%
%TO.N,Net-(D2-Pad2)*%
%TA.AperFunction,SMDPad,CuDef*%
G36*
G01*
X114650000Y-73749999D02*
X114650000Y-74650001D01*
G75*
G02*
X114400001Y-74900000I-249999J0D01*
G01*
X113699999Y-74900000D01*
G75*
G02*
X113450000Y-74650001I0J249999D01*
G01*
X113450000Y-73749999D01*
G75*
G02*
X113699999Y-73500000I249999J0D01*
G01*
X114400001Y-73500000D01*
G75*
G02*
X114650000Y-73749999I0J-249999D01*
G01*
G37*
%TD.AperFunction*%
%TO.P,R8,1*%
%TO.N,Net-(R8-Pad1)*%
%TA.AperFunction,SMDPad,CuDef*%
G36*
G01*
X116650000Y-73749999D02*
X116650000Y-74650001D01*
G75*
G02*
X116400001Y-74900000I-249999J0D01*
G01*
X115699999Y-74900000D01*
G75*
G02*
X115450000Y-74650001I0J249999D01*
G01*
X115450000Y-73749999D01*
G75*
G02*
X115699999Y-73500000I249999J0D01*
G01*
X116400001Y-73500000D01*
G75*
G02*
X116650000Y-73749999I0J-249999D01*
G01*
G37*
%TD.AperFunction*%
%TD*%
%TO.P,R7,2*%
%TO.N,Net-(D1-Pad2)*%
%TA.AperFunction,SMDPad,CuDef*%
G36*
G01*
X114650000Y-71449999D02*
X114650000Y-72350001D01*
G75*
G02*
X114400001Y-72600000I-249999J0D01*
G01*
X113699999Y-72600000D01*
G75*
G02*
X113450000Y-72350001I0J249999D01*
G01*
X113450000Y-71449999D01*
G75*
G02*
X113699999Y-71200000I249999J0D01*
G01*
X114400001Y-71200000D01*
G75*
G02*
X114650000Y-71449999I0J-249999D01*
G01*
G37*
%TD.AperFunction*%
%TO.P,R7,1*%
%TO.N,Net-(R7-Pad1)*%
%TA.AperFunction,SMDPad,CuDef*%
G36*
G01*
X116650000Y-71449999D02*
X116650000Y-72350001D01*
G75*
G02*
X116400001Y-72600000I-249999J0D01*
G01*
X115699999Y-72600000D01*
G75*
G02*
X115450000Y-72350001I0J249999D01*
G01*
X115450000Y-71449999D01*
G75*
G02*
X115699999Y-71200000I249999J0D01*
G01*
X116400001Y-71200000D01*
G75*
G02*
X116650000Y-71449999I0J-249999D01*
G01*
G37*
%TD.AperFunction*%
%TD*%
%TO.P,R6,2*%
%TO.N,Net-(R5-Pad1)*%
%TA.AperFunction,SMDPad,CuDef*%
G36*
G01*
X114350001Y-83700000D02*
X113449999Y-83700000D01*
G75*
G02*
X113200000Y-83450001I0J249999D01*
G01*
X113200000Y-82749999D01*
G75*
G02*
X113449999Y-82500000I249999J0D01*
G01*
X114350001Y-82500000D01*
G75*
G02*
X114600000Y-82749999I0J-249999D01*
G01*
X114600000Y-83450001D01*
G75*
G02*
X114350001Y-83700000I-249999J0D01*
G01*
G37*
%TD.AperFunction*%
%TO.P,R6,1*%
%TO.N,GND*%
%TA.AperFunction,SMDPad,CuDef*%
G36*
G01*
X114350001Y-85700000D02*
X113449999Y-85700000D01*
G75*
G02*
X113200000Y-85450001I0J249999D01*
G01*
X113200000Y-84749999D01*
G75*
G02*
X113449999Y-84500000I249999J0D01*
G01*
X114350001Y-84500000D01*
G75*
G02*
X114600000Y-84749999I0J-249999D01*
G01*
X114600000Y-85450001D01*
G75*
G02*
X114350001Y-85700000I-249999J0D01*
G01*
G37*
%TD.AperFunction*%
%TD*%
%TO.P,R5,2*%
%TO.N,+5V*%
%TA.AperFunction,SMDPad,CuDef*%
G36*
G01*
X115449999Y-84500000D02*
X116350001Y-84500000D01*
G75*
G02*
X116600000Y-84749999I0J-249999D01*
G01*
X116600000Y-85450001D01*
G75*
G02*
X116350001Y-85700000I-249999J0D01*
G01*
X115449999Y-85700000D01*
G75*
G02*
X115200000Y-85450001I0J249999D01*
G01*
X115200000Y-84749999D01*
G75*
G02*
X115449999Y-84500000I249999J0D01*
G01*
G37*
%TD.AperFunction*%
%TO.P,R5,1*%
%TO.N,Net-(R5-Pad1)*%
%TA.AperFunction,SMDPad,CuDef*%
G36*
G01*
X115449999Y-82500000D02*
X116350001Y-82500000D01*
G75*
G02*
X116600000Y-82749999I0J-249999D01*
G01*
X116600000Y-83450001D01*
G75*
G02*
X116350001Y-83700000I-249999J0D01*
G01*
X115449999Y-83700000D01*
G75*
G02*
X115200000Y-83450001I0J249999D01*
G01*
X115200000Y-82749999D01*
G75*
G02*
X115449999Y-82500000I249999J0D01*
G01*
G37*
%TD.AperFunction*%
%TD*%
%TO.P,R3,2*%
%TO.N,Net-(C4-Pad2)*%
%TA.AperFunction,SMDPad,CuDef*%
G36*
G01*
X128249999Y-69000000D02*
X129150001Y-69000000D01*
G75*
G02*
X129400000Y-69249999I0J-249999D01*
G01*
X129400000Y-69950001D01*
G75*
G02*
X129150001Y-70200000I-249999J0D01*
G01*
X128249999Y-70200000D01*
G75*
G02*
X128000000Y-69950001I0J249999D01*
G01*
X128000000Y-69249999D01*
G75*
G02*
X128249999Y-69000000I249999J0D01*
G01*
G37*
%TD.AperFunction*%
%TO.P,R3,1*%
%TO.N,Net-(C8-Pad2)*%
%TA.AperFunction,SMDPad,CuDef*%
G36*
G01*
X128249999Y-67000000D02*
X129150001Y-67000000D01*
G75*
G02*
X129400000Y-67249999I0J-249999D01*
G01*
X129400000Y-67950001D01*
G75*
G02*
X129150001Y-68200000I-249999J0D01*
G01*
X128249999Y-68200000D01*
G75*
G02*
X128000000Y-67950001I0J249999D01*
G01*
X128000000Y-67249999D01*
G75*
G02*
X128249999Y-67000000I249999J0D01*
G01*
G37*
%TD.AperFunction*%
%TD*%
%TO.P,R2,2*%
%TO.N,Net-(A1-Pad3)*%
%TA.AperFunction,SMDPad,CuDef*%
G36*
G01*
X136049999Y-75400000D02*
X136950001Y-75400000D01*
G75*
G02*
X137200000Y-75649999I0J-249999D01*
G01*
X137200000Y-76350001D01*
G75*
G02*
X136950001Y-76600000I-249999J0D01*
G01*
X136049999Y-76600000D01*
G75*
G02*
X135800000Y-76350001I0J249999D01*
G01*
X135800000Y-75649999D01*
G75*
G02*
X136049999Y-75400000I249999J0D01*
G01*
G37*
%TD.AperFunction*%
%TO.P,R2,1*%
%TO.N,Net-(C2-Pad2)*%
%TA.AperFunction,SMDPad,CuDef*%
G36*
G01*
X136049999Y-73400000D02*
X136950001Y-73400000D01*
G75*
G02*
X137200000Y-73649999I0J-249999D01*
G01*
X137200000Y-74350001D01*
G75*
G02*
X136950001Y-74600000I-249999J0D01*
G01*
X136049999Y-74600000D01*
G75*
G02*
X135800000Y-74350001I0J249999D01*
G01*
X135800000Y-73649999D01*
G75*
G02*
X136049999Y-73400000I249999J0D01*
G01*
G37*
%TD.AperFunction*%
%TD*%
%TO.P,R1,2*%
%TO.N,Net-(A1-Pad1)*%
%TA.AperFunction,SMDPad,CuDef*%
G36*
G01*
X136950001Y-82600000D02*
X136049999Y-82600000D01*
G75*
G02*
X135800000Y-82350001I0J249999D01*
G01*
X135800000Y-81649999D01*
G75*
G02*
X136049999Y-81400000I249999J0D01*
G01*
X136950001Y-81400000D01*
G75*
G02*
X137200000Y-81649999I0J-249999D01*
G01*
X137200000Y-82350001D01*
G75*
G02*
X136950001Y-82600000I-249999J0D01*
G01*
G37*
%TD.AperFunction*%
%TO.P,R1,1*%
%TO.N,Net-(C1-Pad1)*%
%TA.AperFunction,SMDPad,CuDef*%
G36*
G01*
X136950001Y-84600000D02*
X136049999Y-84600000D01*
G75*
G02*
X135800000Y-84350001I0J249999D01*
G01*
X135800000Y-83649999D01*
G75*
G02*
X136049999Y-83400000I249999J0D01*
G01*
X136950001Y-83400000D01*
G75*
G02*
X137200000Y-83649999I0J-249999D01*
G01*
X137200000Y-84350001D01*
G75*
G02*
X136950001Y-84600000I-249999J0D01*
G01*
G37*
%TD.AperFunction*%
%TD*%
D17*
%TO.P,J1,4*%
%TO.N,Net-(J1-Pad4)*%
X124810000Y-91000000D03*
%TO.P,J1,3*%
%TO.N,Net-(J1-Pad3)*%
X122270000Y-91000000D03*
%TO.P,J1,2*%
%TO.N,+5V*%
X119730000Y-91000000D03*
D18*
%TO.P,J1,1*%
%TO.N,GND*%
X117190000Y-91000000D03*
%TD*%
%TO.P,D3,2*%
%TO.N,Net-(D3-Pad2)*%
%TA.AperFunction,SMDPad,CuDef*%
G36*
G01*
X110005000Y-79625627D02*
X110005000Y-78374373D01*
G75*
G02*
X110254373Y-78125000I249373J0D01*
G01*
X111180627Y-78125000D01*
G75*
G02*
X111430000Y-78374373I0J-249373D01*
G01*
X111430000Y-79625627D01*
G75*
G02*
X111180627Y-79875000I-249373J0D01*
G01*
X110254373Y-79875000D01*
G75*
G02*
X110005000Y-79625627I0J249373D01*
G01*
G37*
%TD.AperFunction*%
%TO.P,D3,1*%
%TO.N,GND*%
%TA.AperFunction,SMDPad,CuDef*%
G36*
G01*
X107030000Y-79625627D02*
X107030000Y-78374373D01*
G75*
G02*
X107279373Y-78125000I249373J0D01*
G01*
X108205627Y-78125000D01*
G75*
G02*
X108455000Y-78374373I0J-249373D01*
G01*
X108455000Y-79625627D01*
G75*
G02*
X108205627Y-79875000I-249373J0D01*
G01*
X107279373Y-79875000D01*
G75*
G02*
X107030000Y-79625627I0J249373D01*
G01*
G37*
%TD.AperFunction*%
D19*
%TO.P,D3,2*%
%TO.N,Net-(D3-Pad2)*%
X110270000Y-79000000D03*
D20*
%TO.P,D3,1*%
%TO.N,GND*%
X107730000Y-79000000D03*
%TD*%
D21*
%TO.P,SW1,1*%
%TO.N,GND*%
X135250000Y-87750000D03*
%TO.P,SW1,2*%
%TO.N,Net-(R10-Pad2)*%
X130750000Y-87750000D03*
%TO.P,SW1,1*%
%TO.N,GND*%
X135250000Y-94250000D03*
%TO.P,SW1,2*%
%TO.N,Net-(R10-Pad2)*%
X130750000Y-94250000D03*
%TD*%
D22*
%TO.P,U1,41*%
%TO.N,GND*%
X127025000Y-78725000D03*
X128525000Y-77225000D03*
X125525000Y-77225000D03*
X125525000Y-80225000D03*
X128525000Y-80225000D03*
D23*
%TO.P,U1,~*%
%TO.N,N/C*%
X130025000Y-81725000D03*
D24*
X130025000Y-81725000D03*
X124025000Y-81725000D03*
X124025000Y-75725000D03*
X130025000Y-75725000D03*
D25*
%TO.P,U1,41*%
%TO.N,GND*%
X127025000Y-78725000D03*
%TO.P,U1,40*%
%TO.N,+5V*%
%TA.AperFunction,SMDPad,CuDef*%
G36*
G01*
X129400000Y-81312500D02*
X129400000Y-82187500D01*
G75*
G02*
X129337500Y-82250000I-62500J0D01*
G01*
X129212500Y-82250000D01*
G75*
G02*
X129150000Y-82187500I0J62500D01*
G01*
X129150000Y-81312500D01*
G75*
G02*
X129212500Y-81250000I62500J0D01*
G01*
X129337500Y-81250000D01*
G75*
G02*
X129400000Y-81312500I0J-62500D01*
G01*
G37*
%TD.AperFunction*%
%TO.P,U1,39*%
%TO.N,+3V3*%
%TA.AperFunction,SMDPad,CuDef*%
G36*
G01*
X128900000Y-81312500D02*
X128900000Y-82187500D01*
G75*
G02*
X128837500Y-82250000I-62500J0D01*
G01*
X128712500Y-82250000D01*
G75*
G02*
X128650000Y-82187500I0J62500D01*
G01*
X128650000Y-81312500D01*
G75*
G02*
X128712500Y-81250000I62500J0D01*
G01*
X128837500Y-81250000D01*
G75*
G02*
X128900000Y-81312500I0J-62500D01*
G01*
G37*
%TD.AperFunction*%
%TO.P,U1,38*%
%TO.N,Net-(R5-Pad1)*%
%TA.AperFunction,SMDPad,CuDef*%
G36*
G01*
X128400000Y-81312500D02*
X128400000Y-82187500D01*
G75*
G02*
X128337500Y-82250000I-62500J0D01*
G01*
X128212500Y-82250000D01*
G75*
G02*
X128150000Y-82187500I0J62500D01*
G01*
X128150000Y-81312500D01*
G75*
G02*
X128212500Y-81250000I62500J0D01*
G01*
X128337500Y-81250000D01*
G75*
G02*
X128400000Y-81312500I0J-62500D01*
G01*
G37*
%TD.AperFunction*%
%TO.P,U1,37*%
%TO.N,Net-(U1-Pad37)*%
%TA.AperFunction,SMDPad,CuDef*%
G36*
G01*
X127900000Y-81312500D02*
X127900000Y-82187500D01*
G75*
G02*
X127837500Y-82250000I-62500J0D01*
G01*
X127712500Y-82250000D01*
G75*
G02*
X127650000Y-82187500I0J62500D01*
G01*
X127650000Y-81312500D01*
G75*
G02*
X127712500Y-81250000I62500J0D01*
G01*
X127837500Y-81250000D01*
G75*
G02*
X127900000Y-81312500I0J-62500D01*
G01*
G37*
%TD.AperFunction*%
%TO.P,U1,36*%
%TO.N,Net-(U1-Pad36)*%
%TA.AperFunction,SMDPad,CuDef*%
G36*
G01*
X127400000Y-81312500D02*
X127400000Y-82187500D01*
G75*
G02*
X127337500Y-82250000I-62500J0D01*
G01*
X127212500Y-82250000D01*
G75*
G02*
X127150000Y-82187500I0J62500D01*
G01*
X127150000Y-81312500D01*
G75*
G02*
X127212500Y-81250000I62500J0D01*
G01*
X127337500Y-81250000D01*
G75*
G02*
X127400000Y-81312500I0J-62500D01*
G01*
G37*
%TD.AperFunction*%
%TO.P,U1,35*%
%TO.N,Net-(U1-Pad35)*%
%TA.AperFunction,SMDPad,CuDef*%
G36*
G01*
X126900000Y-81312500D02*
X126900000Y-82187500D01*
G75*
G02*
X126837500Y-82250000I-62500J0D01*
G01*
X126712500Y-82250000D01*
G75*
G02*
X126650000Y-82187500I0J62500D01*
G01*
X126650000Y-81312500D01*
G75*
G02*
X126712500Y-81250000I62500J0D01*
G01*
X126837500Y-81250000D01*
G75*
G02*
X126900000Y-81312500I0J-62500D01*
G01*
G37*
%TD.AperFunction*%
%TO.P,U1,34*%
%TO.N,Net-(U1-Pad34)*%
%TA.AperFunction,SMDPad,CuDef*%
G36*
G01*
X126400000Y-81312500D02*
X126400000Y-82187500D01*
G75*
G02*
X126337500Y-82250000I-62500J0D01*
G01*
X126212500Y-82250000D01*
G75*
G02*
X126150000Y-82187500I0J62500D01*
G01*
X126150000Y-81312500D01*
G75*
G02*
X126212500Y-81250000I62500J0D01*
G01*
X126337500Y-81250000D01*
G75*
G02*
X126400000Y-81312500I0J-62500D01*
G01*
G37*
%TD.AperFunction*%
%TO.P,U1,33*%
%TO.N,Net-(R9-Pad1)*%
%TA.AperFunction,SMDPad,CuDef*%
G36*
G01*
X125900000Y-81312500D02*
X125900000Y-82187500D01*
G75*
G02*
X125837500Y-82250000I-62500J0D01*
G01*
X125712500Y-82250000D01*
G75*
G02*
X125650000Y-82187500I0J62500D01*
G01*
X125650000Y-81312500D01*
G75*
G02*
X125712500Y-81250000I62500J0D01*
G01*
X125837500Y-81250000D01*
G75*
G02*
X125900000Y-81312500I0J-62500D01*
G01*
G37*
%TD.AperFunction*%
%TO.P,U1,32*%
%TO.N,Net-(R8-Pad1)*%
%TA.AperFunction,SMDPad,CuDef*%
G36*
G01*
X125400000Y-81312500D02*
X125400000Y-82187500D01*
G75*
G02*
X125337500Y-82250000I-62500J0D01*
G01*
X125212500Y-82250000D01*
G75*
G02*
X125150000Y-82187500I0J62500D01*
G01*
X125150000Y-81312500D01*
G75*
G02*
X125212500Y-81250000I62500J0D01*
G01*
X125337500Y-81250000D01*
G75*
G02*
X125400000Y-81312500I0J-62500D01*
G01*
G37*
%TD.AperFunction*%
%TO.P,U1,31*%
%TO.N,Net-(R7-Pad1)*%
%TA.AperFunction,SMDPad,CuDef*%
G36*
G01*
X124900000Y-81312500D02*
X124900000Y-82187500D01*
G75*
G02*
X124837500Y-82250000I-62500J0D01*
G01*
X124712500Y-82250000D01*
G75*
G02*
X124650000Y-82187500I0J62500D01*
G01*
X124650000Y-81312500D01*
G75*
G02*
X124712500Y-81250000I62500J0D01*
G01*
X124837500Y-81250000D01*
G75*
G02*
X124900000Y-81312500I0J-62500D01*
G01*
G37*
%TD.AperFunction*%
%TO.P,U1,30*%
%TO.N,Net-(U1-Pad30)*%
%TA.AperFunction,SMDPad,CuDef*%
G36*
G01*
X124500000Y-80912500D02*
X124500000Y-81037500D01*
G75*
G02*
X124437500Y-81100000I-62500J0D01*
G01*
X123562500Y-81100000D01*
G75*
G02*
X123500000Y-81037500I0J62500D01*
G01*
X123500000Y-80912500D01*
G75*
G02*
X123562500Y-80850000I62500J0D01*
G01*
X124437500Y-80850000D01*
G75*
G02*
X124500000Y-80912500I0J-62500D01*
G01*
G37*
%TD.AperFunction*%
%TO.P,U1,29*%
%TO.N,Net-(U1-Pad29)*%
%TA.AperFunction,SMDPad,CuDef*%
G36*
G01*
X124500000Y-80412500D02*
X124500000Y-80537500D01*
G75*
G02*
X124437500Y-80600000I-62500J0D01*
G01*
X123562500Y-80600000D01*
G75*
G02*
X123500000Y-80537500I0J62500D01*
G01*
X123500000Y-80412500D01*
G75*
G02*
X123562500Y-80350000I62500J0D01*
G01*
X124437500Y-80350000D01*
G75*
G02*
X124500000Y-80412500I0J-62500D01*
G01*
G37*
%TD.AperFunction*%
%TO.P,U1,28*%
%TO.N,Net-(J1-Pad3)*%
%TA.AperFunction,SMDPad,CuDef*%
G36*
G01*
X124500000Y-79912500D02*
X124500000Y-80037500D01*
G75*
G02*
X124437500Y-80100000I-62500J0D01*
G01*
X123562500Y-80100000D01*
G75*
G02*
X123500000Y-80037500I0J62500D01*
G01*
X123500000Y-79912500D01*
G75*
G02*
X123562500Y-79850000I62500J0D01*
G01*
X124437500Y-79850000D01*
G75*
G02*
X124500000Y-79912500I0J-62500D01*
G01*
G37*
%TD.AperFunction*%
%TO.P,U1,27*%
%TO.N,Net-(J1-Pad4)*%
%TA.AperFunction,SMDPad,CuDef*%
G36*
G01*
X124500000Y-79412500D02*
X124500000Y-79537500D01*
G75*
G02*
X124437500Y-79600000I-62500J0D01*
G01*
X123562500Y-79600000D01*
G75*
G02*
X123500000Y-79537500I0J62500D01*
G01*
X123500000Y-79412500D01*
G75*
G02*
X123562500Y-79350000I62500J0D01*
G01*
X124437500Y-79350000D01*
G75*
G02*
X124500000Y-79412500I0J-62500D01*
G01*
G37*
%TD.AperFunction*%
%TO.P,U1,26*%
%TO.N,Net-(U1-Pad26)*%
%TA.AperFunction,SMDPad,CuDef*%
G36*
G01*
X124500000Y-78912500D02*
X124500000Y-79037500D01*
G75*
G02*
X124437500Y-79100000I-62500J0D01*
G01*
X123562500Y-79100000D01*
G75*
G02*
X123500000Y-79037500I0J62500D01*
G01*
X123500000Y-78912500D01*
G75*
G02*
X123562500Y-78850000I62500J0D01*
G01*
X124437500Y-78850000D01*
G75*
G02*
X124500000Y-78912500I0J-62500D01*
G01*
G37*
%TD.AperFunction*%
%TO.P,U1,25*%
%TO.N,Net-(U1-Pad25)*%
%TA.AperFunction,SMDPad,CuDef*%
G36*
G01*
X124500000Y-78412500D02*
X124500000Y-78537500D01*
G75*
G02*
X124437500Y-78600000I-62500J0D01*
G01*
X123562500Y-78600000D01*
G75*
G02*
X123500000Y-78537500I0J62500D01*
G01*
X123500000Y-78412500D01*
G75*
G02*
X123562500Y-78350000I62500J0D01*
G01*
X124437500Y-78350000D01*
G75*
G02*
X124500000Y-78412500I0J-62500D01*
G01*
G37*
%TD.AperFunction*%
%TO.P,U1,24*%
%TO.N,Net-(U1-Pad24)*%
%TA.AperFunction,SMDPad,CuDef*%
G36*
G01*
X124500000Y-77912500D02*
X124500000Y-78037500D01*
G75*
G02*
X124437500Y-78100000I-62500J0D01*
G01*
X123562500Y-78100000D01*
G75*
G02*
X123500000Y-78037500I0J62500D01*
G01*
X123500000Y-77912500D01*
G75*
G02*
X123562500Y-77850000I62500J0D01*
G01*
X124437500Y-77850000D01*
G75*
G02*
X124500000Y-77912500I0J-62500D01*
G01*
G37*
%TD.AperFunction*%
%TO.P,U1,23*%
%TO.N,+3V3*%
%TA.AperFunction,SMDPad,CuDef*%
G36*
G01*
X124500000Y-77412500D02*
X124500000Y-77537500D01*
G75*
G02*
X124437500Y-77600000I-62500J0D01*
G01*
X123562500Y-77600000D01*
G75*
G02*
X123500000Y-77537500I0J62500D01*
G01*
X123500000Y-77412500D01*
G75*
G02*
X123562500Y-77350000I62500J0D01*
G01*
X124437500Y-77350000D01*
G75*
G02*
X124500000Y-77412500I0J-62500D01*
G01*
G37*
%TD.AperFunction*%
%TO.P,U1,22*%
%TO.N,Net-(U1-Pad22)*%
%TA.AperFunction,SMDPad,CuDef*%
G36*
G01*
X124500000Y-76912500D02*
X124500000Y-77037500D01*
G75*
G02*
X124437500Y-77100000I-62500J0D01*
G01*
X123562500Y-77100000D01*
G75*
G02*
X123500000Y-77037500I0J62500D01*
G01*
X123500000Y-76912500D01*
G75*
G02*
X123562500Y-76850000I62500J0D01*
G01*
X124437500Y-76850000D01*
G75*
G02*
X124500000Y-76912500I0J-62500D01*
G01*
G37*
%TD.AperFunction*%
%TO.P,U1,21*%
%TO.N,Net-(U1-Pad21)*%
%TA.AperFunction,SMDPad,CuDef*%
G36*
G01*
X124500000Y-76412500D02*
X124500000Y-76537500D01*
G75*
G02*
X124437500Y-76600000I-62500J0D01*
G01*
X123562500Y-76600000D01*
G75*
G02*
X123500000Y-76537500I0J62500D01*
G01*
X123500000Y-76412500D01*
G75*
G02*
X123562500Y-76350000I62500J0D01*
G01*
X124437500Y-76350000D01*
G75*
G02*
X124500000Y-76412500I0J-62500D01*
G01*
G37*
%TD.AperFunction*%
%TO.P,U1,20*%
%TO.N,Net-(U1-Pad20)*%
%TA.AperFunction,SMDPad,CuDef*%
G36*
G01*
X124900000Y-75262500D02*
X124900000Y-76137500D01*
G75*
G02*
X124837500Y-76200000I-62500J0D01*
G01*
X124712500Y-76200000D01*
G75*
G02*
X124650000Y-76137500I0J62500D01*
G01*
X124650000Y-75262500D01*
G75*
G02*
X124712500Y-75200000I62500J0D01*
G01*
X124837500Y-75200000D01*
G75*
G02*
X124900000Y-75262500I0J-62500D01*
G01*
G37*
%TD.AperFunction*%
%TO.P,U1,19*%
%TO.N,Net-(R10-Pad2)*%
%TA.AperFunction,SMDPad,CuDef*%
G36*
G01*
X125400000Y-75262500D02*
X125400000Y-76137500D01*
G75*
G02*
X125337500Y-76200000I-62500J0D01*
G01*
X125212500Y-76200000D01*
G75*
G02*
X125150000Y-76137500I0J62500D01*
G01*
X125150000Y-75262500D01*
G75*
G02*
X125212500Y-75200000I62500J0D01*
G01*
X125337500Y-75200000D01*
G75*
G02*
X125400000Y-75262500I0J-62500D01*
G01*
G37*
%TD.AperFunction*%
%TO.P,U1,18*%
%TO.N,GND*%
%TA.AperFunction,SMDPad,CuDef*%
G36*
G01*
X125900000Y-75262500D02*
X125900000Y-76137500D01*
G75*
G02*
X125837500Y-76200000I-62500J0D01*
G01*
X125712500Y-76200000D01*
G75*
G02*
X125650000Y-76137500I0J62500D01*
G01*
X125650000Y-75262500D01*
G75*
G02*
X125712500Y-75200000I62500J0D01*
G01*
X125837500Y-75200000D01*
G75*
G02*
X125900000Y-75262500I0J-62500D01*
G01*
G37*
%TD.AperFunction*%
%TO.P,U1,17*%
%TA.AperFunction,SMDPad,CuDef*%
G36*
G01*
X126400000Y-75262500D02*
X126400000Y-76137500D01*
G75*
G02*
X126337500Y-76200000I-62500J0D01*
G01*
X126212500Y-76200000D01*
G75*
G02*
X126150000Y-76137500I0J62500D01*
G01*
X126150000Y-75262500D01*
G75*
G02*
X126212500Y-75200000I62500J0D01*
G01*
X126337500Y-75200000D01*
G75*
G02*
X126400000Y-75262500I0J-62500D01*
G01*
G37*
%TD.AperFunction*%
%TO.P,U1,16*%
%TA.AperFunction,SMDPad,CuDef*%
G36*
G01*
X126900000Y-75262500D02*
X126900000Y-76137500D01*
G75*
G02*
X126837500Y-76200000I-62500J0D01*
G01*
X126712500Y-76200000D01*
G75*
G02*
X126650000Y-76137500I0J62500D01*
G01*
X126650000Y-75262500D01*
G75*
G02*
X126712500Y-75200000I62500J0D01*
G01*
X126837500Y-75200000D01*
G75*
G02*
X126900000Y-75262500I0J-62500D01*
G01*
G37*
%TD.AperFunction*%
%TO.P,U1,15*%
%TO.N,Net-(C16-Pad1)*%
%TA.AperFunction,SMDPad,CuDef*%
G36*
G01*
X127400000Y-75262500D02*
X127400000Y-76137500D01*
G75*
G02*
X127337500Y-76200000I-62500J0D01*
G01*
X127212500Y-76200000D01*
G75*
G02*
X127150000Y-76137500I0J62500D01*
G01*
X127150000Y-75262500D01*
G75*
G02*
X127212500Y-75200000I62500J0D01*
G01*
X127337500Y-75200000D01*
G75*
G02*
X127400000Y-75262500I0J-62500D01*
G01*
G37*
%TD.AperFunction*%
%TO.P,U1,14*%
%TO.N,Net-(C15-Pad1)*%
%TA.AperFunction,SMDPad,CuDef*%
G36*
G01*
X127900000Y-75262500D02*
X127900000Y-76137500D01*
G75*
G02*
X127837500Y-76200000I-62500J0D01*
G01*
X127712500Y-76200000D01*
G75*
G02*
X127650000Y-76137500I0J62500D01*
G01*
X127650000Y-75262500D01*
G75*
G02*
X127712500Y-75200000I62500J0D01*
G01*
X127837500Y-75200000D01*
G75*
G02*
X127900000Y-75262500I0J-62500D01*
G01*
G37*
%TD.AperFunction*%
%TO.P,U1,13*%
%TO.N,Net-(U1-Pad13)*%
%TA.AperFunction,SMDPad,CuDef*%
G36*
G01*
X128400000Y-75262500D02*
X128400000Y-76137500D01*
G75*
G02*
X128337500Y-76200000I-62500J0D01*
G01*
X128212500Y-76200000D01*
G75*
G02*
X128150000Y-76137500I0J62500D01*
G01*
X128150000Y-75262500D01*
G75*
G02*
X128212500Y-75200000I62500J0D01*
G01*
X128337500Y-75200000D01*
G75*
G02*
X128400000Y-75262500I0J-62500D01*
G01*
G37*
%TD.AperFunction*%
%TO.P,U1,12*%
%TO.N,Net-(U1-Pad12)*%
%TA.AperFunction,SMDPad,CuDef*%
G36*
G01*
X128900000Y-75262500D02*
X128900000Y-76137500D01*
G75*
G02*
X128837500Y-76200000I-62500J0D01*
G01*
X128712500Y-76200000D01*
G75*
G02*
X128650000Y-76137500I0J62500D01*
G01*
X128650000Y-75262500D01*
G75*
G02*
X128712500Y-75200000I62500J0D01*
G01*
X128837500Y-75200000D01*
G75*
G02*
X128900000Y-75262500I0J-62500D01*
G01*
G37*
%TD.AperFunction*%
%TO.P,U1,11*%
%TO.N,GND*%
%TA.AperFunction,SMDPad,CuDef*%
G36*
G01*
X129400000Y-75262500D02*
X129400000Y-76137500D01*
G75*
G02*
X129337500Y-76200000I-62500J0D01*
G01*
X129212500Y-76200000D01*
G75*
G02*
X129150000Y-76137500I0J62500D01*
G01*
X129150000Y-75262500D01*
G75*
G02*
X129212500Y-75200000I62500J0D01*
G01*
X129337500Y-75200000D01*
G75*
G02*
X129400000Y-75262500I0J-62500D01*
G01*
G37*
%TD.AperFunction*%
%TO.P,U1,10*%
%TO.N,Net-(C8-Pad1)*%
%TA.AperFunction,SMDPad,CuDef*%
G36*
G01*
X130550000Y-76412500D02*
X130550000Y-76537500D01*
G75*
G02*
X130487500Y-76600000I-62500J0D01*
G01*
X129612500Y-76600000D01*
G75*
G02*
X129550000Y-76537500I0J62500D01*
G01*
X129550000Y-76412500D01*
G75*
G02*
X129612500Y-76350000I62500J0D01*
G01*
X130487500Y-76350000D01*
G75*
G02*
X130550000Y-76412500I0J-62500D01*
G01*
G37*
%TD.AperFunction*%
%TO.P,U1,9*%
%TO.N,Net-(C10-Pad1)*%
%TA.AperFunction,SMDPad,CuDef*%
G36*
G01*
X130550000Y-76912500D02*
X130550000Y-77037500D01*
G75*
G02*
X130487500Y-77100000I-62500J0D01*
G01*
X129612500Y-77100000D01*
G75*
G02*
X129550000Y-77037500I0J62500D01*
G01*
X129550000Y-76912500D01*
G75*
G02*
X129612500Y-76850000I62500J0D01*
G01*
X130487500Y-76850000D01*
G75*
G02*
X130550000Y-76912500I0J-62500D01*
G01*
G37*
%TD.AperFunction*%
%TO.P,U1,8*%
%TO.N,+3V3*%
%TA.AperFunction,SMDPad,CuDef*%
G36*
G01*
X130550000Y-77412500D02*
X130550000Y-77537500D01*
G75*
G02*
X130487500Y-77600000I-62500J0D01*
G01*
X129612500Y-77600000D01*
G75*
G02*
X129550000Y-77537500I0J62500D01*
G01*
X129550000Y-77412500D01*
G75*
G02*
X129612500Y-77350000I62500J0D01*
G01*
X130487500Y-77350000D01*
G75*
G02*
X130550000Y-77412500I0J-62500D01*
G01*
G37*
%TD.AperFunction*%
%TO.P,U1,7*%
%TO.N,GND*%
%TA.AperFunction,SMDPad,CuDef*%
G36*
G01*
X130550000Y-77912500D02*
X130550000Y-78037500D01*
G75*
G02*
X130487500Y-78100000I-62500J0D01*
G01*
X129612500Y-78100000D01*
G75*
G02*
X129550000Y-78037500I0J62500D01*
G01*
X129550000Y-77912500D01*
G75*
G02*
X129612500Y-77850000I62500J0D01*
G01*
X130487500Y-77850000D01*
G75*
G02*
X130550000Y-77912500I0J-62500D01*
G01*
G37*
%TD.AperFunction*%
%TO.P,U1,6*%
%TO.N,Net-(L2-Pad2)*%
%TA.AperFunction,SMDPad,CuDef*%
G36*
G01*
X130550000Y-78412500D02*
X130550000Y-78537500D01*
G75*
G02*
X130487500Y-78600000I-62500J0D01*
G01*
X129612500Y-78600000D01*
G75*
G02*
X129550000Y-78537500I0J62500D01*
G01*
X129550000Y-78412500D01*
G75*
G02*
X129612500Y-78350000I62500J0D01*
G01*
X130487500Y-78350000D01*
G75*
G02*
X130550000Y-78412500I0J-62500D01*
G01*
G37*
%TD.AperFunction*%
%TO.P,U1,5*%
%TO.N,+3V3*%
%TA.AperFunction,SMDPad,CuDef*%
G36*
G01*
X130550000Y-78912500D02*
X130550000Y-79037500D01*
G75*
G02*
X130487500Y-79100000I-62500J0D01*
G01*
X129612500Y-79100000D01*
G75*
G02*
X129550000Y-79037500I0J62500D01*
G01*
X129550000Y-78912500D01*
G75*
G02*
X129612500Y-78850000I62500J0D01*
G01*
X130487500Y-78850000D01*
G75*
G02*
X130550000Y-78912500I0J-62500D01*
G01*
G37*
%TD.AperFunction*%
%TO.P,U1,4*%
%TO.N,Net-(L1-Pad1)*%
%TA.AperFunction,SMDPad,CuDef*%
G36*
G01*
X130550000Y-79412500D02*
X130550000Y-79537500D01*
G75*
G02*
X130487500Y-79600000I-62500J0D01*
G01*
X129612500Y-79600000D01*
G75*
G02*
X129550000Y-79537500I0J62500D01*
G01*
X129550000Y-79412500D01*
G75*
G02*
X129612500Y-79350000I62500J0D01*
G01*
X130487500Y-79350000D01*
G75*
G02*
X130550000Y-79412500I0J-62500D01*
G01*
G37*
%TD.AperFunction*%
%TO.P,U1,3*%
%TO.N,GND*%
%TA.AperFunction,SMDPad,CuDef*%
G36*
G01*
X130550000Y-79912500D02*
X130550000Y-80037500D01*
G75*
G02*
X130487500Y-80100000I-62500J0D01*
G01*
X129612500Y-80100000D01*
G75*
G02*
X129550000Y-80037500I0J62500D01*
G01*
X129550000Y-79912500D01*
G75*
G02*
X129612500Y-79850000I62500J0D01*
G01*
X130487500Y-79850000D01*
G75*
G02*
X130550000Y-79912500I0J-62500D01*
G01*
G37*
%TD.AperFunction*%
%TO.P,U1,2*%
%TO.N,Net-(U1-Pad2)*%
%TA.AperFunction,SMDPad,CuDef*%
G36*
G01*
X130550000Y-80412500D02*
X130550000Y-80537500D01*
G75*
G02*
X130487500Y-80600000I-62500J0D01*
G01*
X129612500Y-80600000D01*
G75*
G02*
X129550000Y-80537500I0J62500D01*
G01*
X129550000Y-80412500D01*
G75*
G02*
X129612500Y-80350000I62500J0D01*
G01*
X130487500Y-80350000D01*
G75*
G02*
X130550000Y-80412500I0J-62500D01*
G01*
G37*
%TD.AperFunction*%
%TO.P,U1,1*%
%TO.N,GND*%
%TA.AperFunction,SMDPad,CuDef*%
G36*
G01*
X130550000Y-80912500D02*
X130550000Y-81037500D01*
G75*
G02*
X130487500Y-81100000I-62500J0D01*
G01*
X129612500Y-81100000D01*
G75*
G02*
X129550000Y-81037500I0J62500D01*
G01*
X129550000Y-80912500D01*
G75*
G02*
X129612500Y-80850000I62500J0D01*
G01*
X130487500Y-80850000D01*
G75*
G02*
X130550000Y-80912500I0J-62500D01*
G01*
G37*
%TD.AperFunction*%
%TD*%
D26*
%TO.P,J3,4*%
%TO.N,Net-(J1-Pad4)*%
X120000000Y-78000000D03*
%TO.P,J3,3*%
%TO.N,Net-(J1-Pad3)*%
X122000000Y-78000000D03*
%TO.P,J3,2*%
%TO.N,+5V*%
X120000000Y-80000000D03*
D27*
%TO.P,J3,1*%
%TO.N,GND*%
X122000000Y-80000000D03*
%TD*%
%TO.P,D1,2*%
%TO.N,Net-(D1-Pad2)*%
%TA.AperFunction,SMDPad,CuDef*%
G36*
G01*
X110005000Y-67625627D02*
X110005000Y-66374373D01*
G75*
G02*
X110254373Y-66125000I249373J0D01*
G01*
X111180627Y-66125000D01*
G75*
G02*
X111430000Y-66374373I0J-249373D01*
G01*
X111430000Y-67625627D01*
G75*
G02*
X111180627Y-67875000I-249373J0D01*
G01*
X110254373Y-67875000D01*
G75*
G02*
X110005000Y-67625627I0J249373D01*
G01*
G37*
%TD.AperFunction*%
%TO.P,D1,1*%
%TO.N,GND*%
%TA.AperFunction,SMDPad,CuDef*%
G36*
G01*
X107030000Y-67625627D02*
X107030000Y-66374373D01*
G75*
G02*
X107279373Y-66125000I249373J0D01*
G01*
X108205627Y-66125000D01*
G75*
G02*
X108455000Y-66374373I0J-249373D01*
G01*
X108455000Y-67625627D01*
G75*
G02*
X108205627Y-67875000I-249373J0D01*
G01*
X107279373Y-67875000D01*
G75*
G02*
X107030000Y-67625627I0J249373D01*
G01*
G37*
%TD.AperFunction*%
D19*
%TO.P,D1,2*%
%TO.N,Net-(D1-Pad2)*%
X110270000Y-67000000D03*
D20*
%TO.P,D1,1*%
%TO.N,GND*%
X107730000Y-67000000D03*
%TD*%
%TO.P,D2,2*%
%TO.N,Net-(D2-Pad2)*%
%TA.AperFunction,SMDPad,CuDef*%
G36*
G01*
X110005000Y-73625627D02*
X110005000Y-72374373D01*
G75*
G02*
X110254373Y-72125000I249373J0D01*
G01*
X111180627Y-72125000D01*
G75*
G02*
X111430000Y-72374373I0J-249373D01*
G01*
X111430000Y-73625627D01*
G75*
G02*
X111180627Y-73875000I-249373J0D01*
G01*
X110254373Y-73875000D01*
G75*
G02*
X110005000Y-73625627I0J249373D01*
G01*
G37*
%TD.AperFunction*%
%TO.P,D2,1*%
%TO.N,GND*%
%TA.AperFunction,SMDPad,CuDef*%
G36*
G01*
X107030000Y-73625627D02*
X107030000Y-72374373D01*
G75*
G02*
X107279373Y-72125000I249373J0D01*
G01*
X108205627Y-72125000D01*
G75*
G02*
X108455000Y-72374373I0J-249373D01*
G01*
X108455000Y-73625627D01*
G75*
G02*
X108205627Y-73875000I-249373J0D01*
G01*
X107279373Y-73875000D01*
G75*
G02*
X107030000Y-73625627I0J249373D01*
G01*
G37*
%TD.AperFunction*%
D19*
%TO.P,D2,2*%
%TO.N,Net-(D2-Pad2)*%
X110270000Y-73000000D03*
D20*
%TO.P,D2,1*%
%TO.N,GND*%
X107730000Y-73000000D03*
%TD*%
D28*
%TO.P,Y1,1*%
%TO.N,Net-(C15-Pad1)*%
X126500000Y-71325000D03*
%TO.P,Y1,4*%
%TO.N,GND*%
X126500000Y-72925000D03*
%TO.P,Y1,3*%
%TO.N,Net-(C16-Pad1)*%
X123800000Y-72925000D03*
%TO.P,Y1,2*%
%TO.N,GND*%
X123800000Y-71325000D03*
%TD*%
D29*
%TO.N,GND*%
X128300000Y-84800000D03*
X122200000Y-84800000D03*
X119700000Y-71400000D03*
X134575000Y-71800000D03*
X134575000Y-86200000D03*
X121800000Y-71425000D03*
X128500000Y-73500000D03*
X136600000Y-79000000D03*
X132600000Y-80000000D03*
X113900000Y-85100000D03*
%TO.N,+3V3*%
X124300000Y-84800000D03*
X126225000Y-84800000D03*
%TO.N,Net-(C8-Pad1)*%
X129950810Y-74847094D03*
X126700000Y-69600000D03*
%TO.N,+5V*%
X130417724Y-83597468D03*
%TO.N,Net-(C10-Pad1)*%
X124700000Y-69600000D03*
X130574990Y-73497468D03*
%TO.N,Net-(R10-Pad2)*%
X118302704Y-84797296D03*
X123100000Y-75200000D03*
%TD*%
D30*
%TO.N,GND*%
X127775000Y-77975000D02*
X127025000Y-78725000D01*
X130050000Y-77975000D02*
X127775000Y-77975000D01*
X128275000Y-79975000D02*
X127025000Y-78725000D01*
X130050000Y-79975000D02*
X128275000Y-79975000D01*
X129224990Y-80924990D02*
X128525000Y-80225000D01*
X129548022Y-80975000D02*
X129498012Y-80924990D01*
X129498012Y-80924990D02*
X129224990Y-80924990D01*
X130050000Y-80975000D02*
X129548022Y-80975000D01*
D31*
X136250000Y-70125000D02*
X134575000Y-71800000D01*
X136500000Y-70075000D02*
X136250000Y-70075000D01*
X134700000Y-86200000D02*
X136500000Y-88000000D01*
X123625000Y-71425000D02*
X123800000Y-71600000D01*
D30*
X126775000Y-78475000D02*
X127025000Y-78725000D01*
X126775000Y-75700000D02*
X126775000Y-78475000D01*
X126275000Y-77975000D02*
X127025000Y-78725000D01*
X126275000Y-75700000D02*
X126275000Y-77975000D01*
X125775000Y-77475000D02*
X127025000Y-78725000D01*
X125775000Y-75700000D02*
X125775000Y-77475000D01*
X129225010Y-76298012D02*
X128525000Y-76998022D01*
X129225010Y-76251968D02*
X129225010Y-76298012D01*
X129275000Y-76201978D02*
X129225010Y-76251968D01*
X128525000Y-76998022D02*
X128525000Y-77225000D01*
X129275000Y-75700000D02*
X129275000Y-76201978D01*
D31*
X130400000Y-71600000D02*
X128500000Y-73500000D01*
X130600000Y-71600000D02*
X130400000Y-71600000D01*
X134575000Y-86200000D02*
X134700000Y-86200000D01*
X123700000Y-71425000D02*
X123800000Y-71325000D01*
X127925000Y-72925000D02*
X128500000Y-73500000D01*
X126500000Y-72925000D02*
X127925000Y-72925000D01*
X121800000Y-71425000D02*
X123700000Y-71425000D01*
X135537500Y-88037500D02*
X135250000Y-87750000D01*
X136500000Y-88037500D02*
X135537500Y-88037500D01*
X135250000Y-87750000D02*
X135250000Y-94250000D01*
D30*
X132500000Y-80000000D02*
X132600000Y-80000000D01*
D31*
X140000000Y-79000000D02*
X136600000Y-79000000D01*
X136600000Y-79000000D02*
X136600000Y-80100000D01*
X136600000Y-77900000D02*
X136600000Y-79000000D01*
X117250000Y-90940000D02*
X117190000Y-91000000D01*
X117250000Y-88400000D02*
X117250000Y-90940000D01*
X113900000Y-85100000D02*
X114050000Y-85100000D01*
X116800000Y-88000000D02*
X117250000Y-88000000D01*
X113900000Y-85100000D02*
X116800000Y-88000000D01*
X129375000Y-85675000D02*
X130400000Y-85675000D01*
X128300000Y-84600000D02*
X129375000Y-85675000D01*
%TO.N,Net-(A1-Pad1)*%
X136500000Y-82000000D02*
X138000000Y-82000000D01*
%TO.N,Net-(A1-Pad3)*%
X136500000Y-76000000D02*
X138000000Y-76000000D01*
%TO.N,Net-(C3-Pad1)*%
X132686072Y-84068568D02*
X134687500Y-82067140D01*
X132500000Y-84068568D02*
X132686072Y-84068568D01*
X132500000Y-84068568D02*
X132500000Y-86200000D01*
%TO.N,Net-(C4-Pad2)*%
X132686072Y-73931428D02*
X134687500Y-75932856D01*
X132500000Y-73931428D02*
X132686072Y-73931428D01*
X132500000Y-71800000D02*
X132500000Y-73931428D01*
X131675000Y-70250000D02*
X129350000Y-70250000D01*
X132500000Y-71800000D02*
X132500000Y-71075000D01*
X132500000Y-71075000D02*
X131675000Y-70250000D01*
X129350000Y-70250000D02*
X128700000Y-69600000D01*
D30*
%TO.N,+3V3*%
X128775000Y-81750000D02*
X128775000Y-83125000D01*
X132874272Y-83018558D02*
X131581442Y-83018558D01*
X133550000Y-82342830D02*
X132874272Y-83018558D01*
X131581442Y-83018558D02*
X131581442Y-84318558D01*
X131581442Y-84318558D02*
X131250000Y-84650000D01*
X134462500Y-77962500D02*
X134525000Y-77900000D01*
X132662500Y-77900000D02*
X132600000Y-77962500D01*
X130050000Y-78975000D02*
X134525000Y-78975000D01*
X133550000Y-81075000D02*
X133550000Y-82342830D01*
X134525000Y-80100000D02*
X133550000Y-81075000D01*
X134525000Y-78975000D02*
X134525000Y-80100000D01*
X134525000Y-77900000D02*
X134525000Y-78975000D01*
X132900680Y-75007846D02*
X131792154Y-75007846D01*
X131480022Y-75319978D02*
X131480021Y-76729411D01*
X131792154Y-75007846D02*
X131480022Y-75319978D01*
X130734432Y-77475000D02*
X130050000Y-77475000D01*
X131480021Y-76729411D02*
X130734432Y-77475000D01*
X133496417Y-76871417D02*
X133496417Y-75603583D01*
X133496417Y-75603583D02*
X132900680Y-75007846D01*
X133496417Y-76871417D02*
X134525000Y-77900000D01*
X132600000Y-77767834D02*
X133496417Y-76871417D01*
X132600000Y-77962500D02*
X132600000Y-77767834D01*
X129349990Y-84349990D02*
X129349990Y-83699990D01*
X131250000Y-84650000D02*
X129650000Y-84650000D01*
X129349990Y-83699990D02*
X128775000Y-83125000D01*
X129650000Y-84650000D02*
X129349990Y-84349990D01*
X126674310Y-84800000D02*
X126225000Y-84800000D01*
X128775000Y-83125000D02*
X128149310Y-83125000D01*
X120700000Y-84800000D02*
X120700000Y-84449980D01*
X126474310Y-84800000D02*
X126937155Y-84337155D01*
X126225000Y-84800000D02*
X126474310Y-84800000D01*
X126937155Y-84337155D02*
X126674310Y-84600000D01*
X128149310Y-83125000D02*
X126937155Y-84337155D01*
X126225000Y-84800000D02*
X126225000Y-84800000D01*
X123249990Y-83749990D02*
X124300000Y-84800000D01*
X120300000Y-84100000D02*
X120650010Y-83749990D01*
X120650010Y-83749990D02*
X123249990Y-83749990D01*
X120300000Y-84800000D02*
X120300000Y-84100000D01*
X120300000Y-83300000D02*
X120300000Y-84800000D01*
X119874999Y-82874999D02*
X120300000Y-83300000D01*
X119325019Y-82874999D02*
X119874999Y-82874999D01*
X114975010Y-78524990D02*
X119325019Y-82874999D01*
X116638180Y-70874990D02*
X115225010Y-70874990D01*
X114975010Y-71124990D02*
X114975010Y-78524990D01*
X115225010Y-70874990D02*
X114975010Y-71124990D01*
X119263190Y-73500000D02*
X116638180Y-70874990D01*
X119700000Y-73500000D02*
X119263190Y-73500000D01*
X119700000Y-73876998D02*
X119700000Y-73500000D01*
X123298002Y-77475000D02*
X119700000Y-73876998D01*
X124000000Y-77475000D02*
X123298002Y-77475000D01*
D31*
%TO.N,Net-(C8-Pad2)*%
X126775000Y-67600000D02*
X126700000Y-67525000D01*
X128700000Y-67600000D02*
X126775000Y-67600000D01*
D30*
%TO.N,Net-(C8-Pad1)*%
X130516495Y-74847094D02*
X129950810Y-74847094D01*
X130580001Y-74910600D02*
X130516495Y-74847094D01*
X130294002Y-76475000D02*
X130580001Y-76189001D01*
X130050000Y-76475000D02*
X130294002Y-76475000D01*
X130580001Y-76189001D02*
X130580001Y-74910600D01*
D31*
X126700000Y-69600000D02*
X124700000Y-67600000D01*
D30*
%TO.N,+5V*%
X119750000Y-90980000D02*
X119730000Y-91000000D01*
X119750000Y-88400000D02*
X119750000Y-90980000D01*
X119750000Y-88350000D02*
X119750000Y-88400000D01*
X119500000Y-88000000D02*
X119750000Y-88000000D01*
X116600000Y-85100000D02*
X119500000Y-88000000D01*
X115900000Y-85100000D02*
X116600000Y-85100000D01*
X129275000Y-81750000D02*
X129275000Y-82454744D01*
X129275000Y-82454744D02*
X130417724Y-83597468D01*
%TO.N,Net-(C15-Pad1)*%
X128400000Y-71325000D02*
X128500000Y-71425000D01*
X126500000Y-71325000D02*
X128400000Y-71325000D01*
X127775000Y-75700000D02*
X127775000Y-75015567D01*
X125336410Y-73825000D02*
X125224999Y-73713589D01*
X127775000Y-75015567D02*
X126584433Y-73825000D01*
X125300000Y-71325000D02*
X126500000Y-71325000D01*
X126584433Y-73825000D02*
X125336410Y-73825000D01*
X125224999Y-73713589D02*
X125224999Y-71400001D01*
X125224999Y-71400001D02*
X125300000Y-71325000D01*
%TO.N,Net-(C16-Pad1)*%
X122375000Y-72925000D02*
X121800000Y-73500000D01*
X123800000Y-72925000D02*
X122375000Y-72925000D01*
X127275000Y-75151978D02*
X126398033Y-74275011D01*
X127275000Y-75700000D02*
X127275000Y-75151978D01*
X125150011Y-74275011D02*
X123800000Y-72925000D01*
X126398033Y-74275011D02*
X125150011Y-74275011D01*
%TO.N,Net-(L2-Pad2)*%
X130875010Y-78198012D02*
X130598022Y-78475000D01*
X130875010Y-78061800D02*
X130875010Y-78198012D01*
X132387500Y-76549310D02*
X130875010Y-78061800D01*
X130598022Y-78475000D02*
X130050000Y-78475000D01*
X132387500Y-75932856D02*
X132387500Y-76549310D01*
%TO.N,Net-(L1-Pad1)*%
X132387500Y-82067140D02*
X131449990Y-81129630D01*
X131449990Y-81129630D02*
X131449990Y-80326968D01*
X131449990Y-80326968D02*
X130598022Y-79475000D01*
X130598022Y-79475000D02*
X130050000Y-79475000D01*
%TO.N,Net-(J1-Pad4)*%
X123360002Y-79475000D02*
X122860003Y-78975001D01*
X120079412Y-78000000D02*
X120000000Y-78000000D01*
X122860003Y-78975001D02*
X121054413Y-78975001D01*
X124000000Y-79475000D02*
X123360002Y-79475000D01*
X121054413Y-78975001D02*
X120079412Y-78000000D01*
X124750000Y-90940000D02*
X124810000Y-91000000D01*
X124750000Y-88400000D02*
X124750000Y-90940000D01*
%TO.N,Net-(J1-Pad3)*%
X119531999Y-78975001D02*
X119024999Y-78468001D01*
X120418003Y-78975001D02*
X119531999Y-78975001D01*
X119024999Y-78468001D02*
X119024999Y-77531999D01*
X120975001Y-79531999D02*
X120418003Y-78975001D01*
X120975001Y-80860003D02*
X120975001Y-79531999D01*
X121024999Y-77024999D02*
X122000000Y-78000000D01*
X121089999Y-80975001D02*
X120975001Y-80860003D01*
X122975001Y-80910001D02*
X122910001Y-80975001D01*
X123451978Y-79975000D02*
X122975001Y-80451977D01*
X122910001Y-80975001D02*
X121089999Y-80975001D01*
X124000000Y-79975000D02*
X123451978Y-79975000D01*
X122975001Y-80451977D02*
X122975001Y-80910001D01*
X119024999Y-77531999D02*
X119531999Y-77024999D01*
X119531999Y-77024999D02*
X121024999Y-77024999D01*
X122250000Y-90980000D02*
X122270000Y-91000000D01*
X122250000Y-88400000D02*
X122250000Y-90980000D01*
%TO.N,Net-(D1-Pad2)*%
X114050000Y-71900000D02*
X111700000Y-71900000D01*
X110270000Y-70470000D02*
X110270000Y-67000000D01*
X111700000Y-71900000D02*
X110270000Y-70470000D01*
%TO.N,Net-(D2-Pad2)*%
X114050000Y-74200000D02*
X113400000Y-74200000D01*
X112200000Y-73000000D02*
X110270000Y-73000000D01*
X113400000Y-74200000D02*
X112200000Y-73000000D01*
%TO.N,Net-(D3-Pad2)*%
X114050000Y-76500000D02*
X111700000Y-76500000D01*
X110270000Y-77930000D02*
X110270000Y-79000000D01*
X111700000Y-76500000D02*
X110270000Y-77930000D01*
%TO.N,Net-(R5-Pad1)*%
X113900000Y-83100000D02*
X115900000Y-83100000D01*
X115900000Y-83100000D02*
X116300000Y-83100000D01*
X127885532Y-82687490D02*
X128275000Y-82298022D01*
X126269976Y-83630024D02*
X127212510Y-82687490D01*
X118913610Y-83100000D02*
X119225010Y-83411400D01*
X125669976Y-83630024D02*
X126269976Y-83630024D01*
X125312490Y-83987510D02*
X125669976Y-83630024D01*
X119793405Y-85906595D02*
X124819095Y-85906595D01*
X119225010Y-85338200D02*
X119793405Y-85906595D01*
X128275000Y-82298022D02*
X128275000Y-81750000D01*
X125312490Y-85413200D02*
X125312490Y-83987510D01*
X124819095Y-85906595D02*
X125312490Y-85413200D01*
X119225010Y-83411400D02*
X119225010Y-85338200D01*
X127212510Y-82687490D02*
X127885532Y-82687490D01*
X115900000Y-83100000D02*
X118913610Y-83100000D01*
%TO.N,Net-(R7-Pad1)*%
X124775000Y-81994002D02*
X124489001Y-82280001D01*
X119930251Y-81457431D02*
X117850000Y-79377178D01*
X117850000Y-79377178D02*
X117850000Y-73700000D01*
X124489001Y-82280001D02*
X123560999Y-82280001D01*
X117850000Y-73700000D02*
X116050000Y-71900000D01*
X122738429Y-81457431D02*
X119930251Y-81457431D01*
X124775000Y-81750000D02*
X124775000Y-81994002D01*
X123560999Y-82280001D02*
X122738429Y-81457431D01*
%TO.N,Net-(C10-Pad1)*%
X131030012Y-76543010D02*
X131030012Y-74119763D01*
X130050000Y-76975000D02*
X130598022Y-76975000D01*
X131030012Y-74119763D02*
X130574990Y-73664741D01*
X130598022Y-76975000D02*
X131030012Y-76543010D01*
%TO.N,Net-(C1-Pad1)*%
X136500000Y-83962500D02*
X136500000Y-85875000D01*
X134631068Y-84012500D02*
X134575000Y-84068568D01*
X136500000Y-84012500D02*
X134631068Y-84012500D01*
D31*
X134575000Y-84068568D02*
X136431432Y-84068568D01*
X136500000Y-84000000D02*
X136431432Y-84068568D01*
X136500000Y-84000000D02*
X136500000Y-85962500D01*
D30*
%TO.N,Net-(C2-Pad2)*%
X136500000Y-72150000D02*
X136500000Y-74062500D01*
X134756072Y-74112500D02*
X134575000Y-73931428D01*
X136500000Y-74112500D02*
X134756072Y-74112500D01*
D31*
X136500000Y-72037500D02*
X136500000Y-74000000D01*
X136431428Y-73931428D02*
X136500000Y-74000000D01*
X134575000Y-73931428D02*
X136431428Y-73931428D01*
D30*
%TO.N,Net-(R8-Pad1)*%
X123374589Y-82730002D02*
X122552029Y-81907442D01*
X122552029Y-81907442D02*
X119743851Y-81907442D01*
X116650000Y-74200000D02*
X116050000Y-74200000D01*
X125275000Y-81750000D02*
X125275000Y-82298020D01*
X124843018Y-82730002D02*
X123374589Y-82730002D01*
X125275000Y-82298020D02*
X124843018Y-82730002D01*
X117225000Y-79388589D02*
X117225000Y-74775000D01*
X119743851Y-81907442D02*
X117225000Y-79388589D01*
X117225000Y-74775000D02*
X116650000Y-74200000D01*
%TO.N,Net-(R9-Pad1)*%
X116050000Y-78950000D02*
X116050000Y-76500000D01*
X125775000Y-82434430D02*
X125029417Y-83180013D01*
X119457453Y-82357453D02*
X116050000Y-78950000D01*
X122153017Y-83180013D02*
X121330457Y-82357453D01*
X125775000Y-81750000D02*
X125775000Y-82434430D01*
X125029417Y-83180013D02*
X122153017Y-83180013D01*
X121330457Y-82357453D02*
X119457453Y-82357453D01*
%TO.N,Net-(R10-Pad2)*%
X125275000Y-75700000D02*
X125275000Y-75151978D01*
X130750000Y-87750000D02*
X130750000Y-94250000D01*
X123425010Y-74874990D02*
X123100000Y-75200000D01*
X124998012Y-74874990D02*
X123425010Y-74874990D01*
X125275000Y-75151978D02*
X124998012Y-74874990D01*
%TD*%
M02*
