%TF.GenerationSoftware,KiCad,Pcbnew,(5.1.9-0-10_14)*%
%TF.CreationDate,2021-05-08T19:21:37+01:00*%
%TF.ProjectId,PN532,504e3533-322e-46b6-9963-61645f706362,6*%
%TF.SameCoordinates,Original*%
%TF.FileFunction,Copper,L2,Bot*%
%TF.FilePolarity,Positive*%
%FSLAX46Y46*%
G04 Gerber Fmt 4.6, Leading zero omitted, Abs format (unit mm)*
G04 Created by KiCad (PCBNEW (5.1.9-0-10_14)) date 2021-05-08 19:21:37*
%MOMM*%
%LPD*%
G01*
G04 APERTURE LIST*
%TA.AperFunction,EtchedComponent*%
%ADD10C,0.500000*%
%TD*%
%TA.AperFunction,ComponentPad*%
%ADD11C,1.400000*%
%TD*%
%TA.AperFunction,ComponentPad*%
%ADD12C,0.600000*%
%TD*%
%TA.AperFunction,SMDPad,CuDef*%
%ADD13R,1.300000X1.550000*%
%TD*%
%TA.AperFunction,ComponentPad*%
%ADD14C,2.000000*%
%TD*%
%TA.AperFunction,ComponentPad*%
%ADD15O,1.700000X1.850000*%
%TD*%
%TA.AperFunction,ComponentPad*%
%ADD16C,0.800000*%
%TD*%
%TA.AperFunction,ComponentPad*%
%ADD17C,0.350000*%
%TD*%
%TA.AperFunction,SMDPad,CuDef*%
%ADD18R,0.200000X0.200000*%
%TD*%
%TA.AperFunction,ComponentPad*%
%ADD19C,1.800000*%
%TD*%
%TA.AperFunction,ComponentPad*%
%ADD20R,1.800000X1.800000*%
%TD*%
%TA.AperFunction,ComponentPad*%
%ADD21O,1.700000X1.700000*%
%TD*%
%TA.AperFunction,ComponentPad*%
%ADD22R,1.700000X1.700000*%
%TD*%
%TA.AperFunction,ComponentPad*%
%ADD23C,1.300000*%
%TD*%
%TA.AperFunction,ComponentPad*%
%ADD24R,1.300000X1.300000*%
%TD*%
%TA.AperFunction,ComponentPad*%
%ADD25C,3.200000*%
%TD*%
%TA.AperFunction,ViaPad*%
%ADD26C,0.800000*%
%TD*%
%TA.AperFunction,Conductor*%
%ADD27C,0.500000*%
%TD*%
%TA.AperFunction,Conductor*%
%ADD28C,0.250000*%
%TD*%
%TA.AperFunction,Conductor*%
%ADD29C,0.254000*%
%TD*%
%TA.AperFunction,Conductor*%
%ADD30C,0.100000*%
%TD*%
G04 APERTURE END LIST*
D10*
%TO.C,A1*%
X120000000Y-88000000D02*
G75*
G03*
X112000000Y-80000000I-8000000J0D01*
G01*
X119000000Y-88000000D02*
G75*
G03*
X112000000Y-81000000I-7000000J0D01*
G01*
X117000000Y-88000000D02*
G75*
G03*
X112000000Y-83000000I-5000000J0D01*
G01*
X118000000Y-88000000D02*
G75*
G03*
X112000000Y-82000000I-6000000J0D01*
G01*
X88000000Y-80000000D02*
G75*
G03*
X80000000Y-88000000I0J-8000000D01*
G01*
X88000000Y-81000000D02*
G75*
G03*
X81000000Y-88000000I0J-7000000D01*
G01*
X88000000Y-83000000D02*
G75*
G03*
X83000000Y-88000000I0J-5000000D01*
G01*
X88000000Y-82000000D02*
G75*
G03*
X82000000Y-88000000I0J-6000000D01*
G01*
X80000000Y-112000000D02*
G75*
G03*
X88000000Y-120000000I8000000J0D01*
G01*
X81000000Y-112000000D02*
G75*
G03*
X88000000Y-119000000I7000000J0D01*
G01*
X83000000Y-112000000D02*
G75*
G03*
X88000000Y-117000000I5000000J0D01*
G01*
X82000000Y-112000000D02*
G75*
G03*
X88000000Y-118000000I6000000J0D01*
G01*
X112000000Y-120000000D02*
G75*
G03*
X120000000Y-112000000I0J8000000D01*
G01*
X112000000Y-119000000D02*
G75*
G03*
X119000000Y-112000000I0J7000000D01*
G01*
X112000000Y-118000000D02*
G75*
G03*
X118000000Y-112000000I0J6000000D01*
G01*
X112000000Y-117000000D02*
G75*
G03*
X117000000Y-112000000I0J5000000D01*
G01*
X88000000Y-120000000D02*
X99000000Y-120000000D01*
X99000000Y-119000000D02*
X88000000Y-119000000D01*
X101000000Y-120000000D02*
X99000000Y-119000000D01*
X112000000Y-120000000D02*
X101000000Y-120000000D01*
X99000000Y-118000000D02*
X88000000Y-118000000D01*
X101000000Y-119000000D02*
X99000000Y-118000000D01*
X112000000Y-119000000D02*
X101000000Y-119000000D01*
X99000000Y-117000000D02*
X88000000Y-117000000D01*
X101000000Y-118000000D02*
X99000000Y-117000000D01*
X112000000Y-118000000D02*
X101000000Y-118000000D01*
X112000000Y-117000000D02*
X101000000Y-117000000D01*
X83000000Y-88000000D02*
X83000000Y-112000000D01*
X88000000Y-83000000D02*
X97000000Y-83000000D01*
X112000000Y-83000000D02*
X103000000Y-83000000D01*
X117000000Y-112000000D02*
X117000000Y-88000000D01*
X82000000Y-88000000D02*
X82000000Y-112000000D01*
X112000000Y-82000000D02*
X88000000Y-82000000D01*
X118000000Y-112000000D02*
X118000000Y-88000000D01*
X119000000Y-88000000D02*
X119000000Y-112000000D01*
X81000000Y-88000000D02*
X81000000Y-112000000D01*
X112000000Y-81000000D02*
X88000000Y-81000000D01*
X80000000Y-88000000D02*
X80000000Y-112000000D01*
X112000000Y-80000000D02*
X88000000Y-80000000D01*
X120000000Y-112000000D02*
X120000000Y-88000000D01*
%TD*%
D11*
%TO.P,J1,2*%
%TO.N,Net-(J1-Pad2)*%
X107500000Y-110730000D03*
%TO.P,J1,1*%
%TO.N,GND*%
X107500000Y-113270000D03*
%TD*%
D12*
%TO.P,A1,~*%
%TO.N,N/C*%
X99000000Y-120000000D03*
X101000000Y-117000000D03*
%TO.P,A1,3*%
%TO.N,Net-(A1-Pad3)*%
X97000000Y-83000000D03*
%TO.P,A1,1*%
%TO.N,Net-(A1-Pad1)*%
X103000000Y-83000000D03*
%TO.P,A1,2*%
%TO.N,GND*%
X100000000Y-81000000D03*
%TD*%
D13*
%TO.P,SW1,2*%
%TO.N,Net-(R10-Pad2)*%
X85750000Y-96025000D03*
%TO.P,SW1,1*%
%TO.N,GND*%
X90250000Y-96025000D03*
X90250000Y-103975000D03*
%TO.P,SW1,2*%
%TO.N,Net-(R10-Pad2)*%
X85750000Y-103975000D03*
D14*
%TO.P,SW1,1*%
%TO.N,GND*%
X90250000Y-103250000D03*
%TO.P,SW1,2*%
%TO.N,Net-(R10-Pad2)*%
X85750000Y-103250000D03*
%TO.P,SW1,1*%
%TO.N,GND*%
X90250000Y-96750000D03*
%TO.P,SW1,2*%
%TO.N,Net-(R10-Pad2)*%
X85750000Y-96750000D03*
%TD*%
D15*
%TO.P,J3,4*%
%TO.N,Net-(J2-Pad4)*%
X103750000Y-108900000D03*
%TO.P,J3,3*%
%TO.N,Net-(J2-Pad3)*%
X101250000Y-108900000D03*
%TO.P,J3,2*%
%TO.N,+5V*%
X98750000Y-108900000D03*
%TO.P,J3,1*%
%TO.N,GND*%
%TA.AperFunction,ComponentPad*%
G36*
G01*
X95400000Y-109575000D02*
X95400000Y-108225000D01*
G75*
G02*
X95650000Y-107975000I250000J0D01*
G01*
X96850000Y-107975000D01*
G75*
G02*
X97100000Y-108225000I0J-250000D01*
G01*
X97100000Y-109575000D01*
G75*
G02*
X96850000Y-109825000I-250000J0D01*
G01*
X95650000Y-109825000D01*
G75*
G02*
X95400000Y-109575000I0J250000D01*
G01*
G37*
%TD.AperFunction*%
%TD*%
D16*
%TO.P,TP2,1*%
%TO.N,Net-(L2-Pad2)*%
X98800000Y-92000000D03*
%TD*%
%TO.P,TP1,1*%
%TO.N,Net-(L1-Pad1)*%
X101200000Y-92000000D03*
%TD*%
D17*
%TO.P,U1,41*%
%TO.N,GND*%
X100000000Y-100000000D03*
X99000000Y-101000000D03*
X99000000Y-99000000D03*
X101000000Y-99000000D03*
X101000000Y-101000000D03*
%TD*%
D18*
%TO.P,U2,~*%
%TO.N,N/C*%
X110000000Y-107900000D03*
X110000000Y-107300000D03*
X110000000Y-106900000D03*
X110000000Y-106300000D03*
X110000000Y-106100000D03*
X110000000Y-105500000D03*
X110000000Y-105100000D03*
X110000000Y-104900000D03*
X110000000Y-104700000D03*
X110000000Y-104500000D03*
X110000000Y-104300000D03*
X110000000Y-104100000D03*
X110000000Y-103900000D03*
X110200000Y-107900000D03*
X110200000Y-107700000D03*
X110200000Y-107300000D03*
X110200000Y-106300000D03*
X110200000Y-106100000D03*
X110200000Y-105700000D03*
X110200000Y-105500000D03*
X110200000Y-105100000D03*
X110200000Y-103900000D03*
X110400000Y-107900000D03*
X110400000Y-106900000D03*
X110400000Y-106100000D03*
X110400000Y-105900000D03*
X110400000Y-105500000D03*
X110400000Y-105100000D03*
X110400000Y-104700000D03*
X110400000Y-104500000D03*
X110400000Y-104300000D03*
X110400000Y-103900000D03*
X110600000Y-107700000D03*
X110600000Y-106500000D03*
X110600000Y-105900000D03*
X110600000Y-105100000D03*
X110600000Y-104700000D03*
X110600000Y-104500000D03*
X110600000Y-104300000D03*
X110600000Y-103900000D03*
X110800000Y-107500000D03*
X110800000Y-107100000D03*
X110800000Y-106900000D03*
X110800000Y-106700000D03*
X110800000Y-106500000D03*
X110800000Y-105900000D03*
X110800000Y-105500000D03*
X110800000Y-105100000D03*
X110800000Y-104700000D03*
X110800000Y-104500000D03*
X110800000Y-104300000D03*
X110800000Y-103900000D03*
X111000000Y-107900000D03*
X111000000Y-106900000D03*
X111000000Y-106500000D03*
X111000000Y-106100000D03*
X111000000Y-105700000D03*
X111000000Y-105500000D03*
X111000000Y-105100000D03*
X111000000Y-103900000D03*
X111200000Y-107900000D03*
X111200000Y-107500000D03*
X111200000Y-107300000D03*
X111200000Y-107100000D03*
X111200000Y-106900000D03*
X111200000Y-106300000D03*
X111200000Y-106100000D03*
X111200000Y-105500000D03*
X111200000Y-105100000D03*
X111200000Y-104900000D03*
X111200000Y-104700000D03*
X111200000Y-104500000D03*
X111200000Y-104300000D03*
X111200000Y-104100000D03*
X111200000Y-103900000D03*
X111400000Y-107900000D03*
X111400000Y-107100000D03*
X111400000Y-106500000D03*
X111400000Y-106300000D03*
X111400000Y-105900000D03*
X111400000Y-105700000D03*
X111400000Y-105500000D03*
X111600000Y-107900000D03*
X111600000Y-106900000D03*
X111600000Y-106700000D03*
X111600000Y-106100000D03*
X111600000Y-105900000D03*
X111600000Y-105700000D03*
X111600000Y-105300000D03*
X111600000Y-105100000D03*
X111600000Y-104700000D03*
X111600000Y-104300000D03*
X111800000Y-106900000D03*
X111800000Y-106700000D03*
X111800000Y-106500000D03*
X111800000Y-106300000D03*
X111800000Y-105500000D03*
X111800000Y-105300000D03*
X111800000Y-104700000D03*
X111800000Y-104300000D03*
X111800000Y-104100000D03*
X111800000Y-103900000D03*
X112000000Y-107100000D03*
X112000000Y-106700000D03*
X112000000Y-106300000D03*
X112000000Y-105900000D03*
X112000000Y-105300000D03*
X112000000Y-105100000D03*
X112000000Y-104500000D03*
X112000000Y-104300000D03*
X112000000Y-104100000D03*
X112000000Y-103900000D03*
X112200000Y-107900000D03*
X112200000Y-107700000D03*
X112200000Y-107500000D03*
X112200000Y-107300000D03*
X112200000Y-106700000D03*
X112200000Y-106100000D03*
X112200000Y-105900000D03*
X112200000Y-105700000D03*
X112200000Y-105300000D03*
X112200000Y-104100000D03*
X112200000Y-103900000D03*
X112400000Y-107500000D03*
X112400000Y-106700000D03*
X112400000Y-106500000D03*
X112400000Y-106300000D03*
X112400000Y-105900000D03*
X112400000Y-105500000D03*
X112400000Y-105300000D03*
X112400000Y-105100000D03*
X112400000Y-104900000D03*
X112400000Y-104700000D03*
X112400000Y-104300000D03*
X112400000Y-104100000D03*
X112400000Y-103900000D03*
X112600000Y-106100000D03*
X112600000Y-105900000D03*
X112600000Y-105500000D03*
X112800000Y-107900000D03*
X112800000Y-107700000D03*
X112800000Y-107500000D03*
X112800000Y-107300000D03*
X112800000Y-107100000D03*
X112800000Y-106900000D03*
X112800000Y-106700000D03*
X112800000Y-106300000D03*
X112800000Y-105900000D03*
X112800000Y-105500000D03*
X112800000Y-105100000D03*
X112800000Y-104900000D03*
X112800000Y-104700000D03*
X112800000Y-104500000D03*
X112800000Y-104300000D03*
X112800000Y-104100000D03*
X112800000Y-103900000D03*
X113000000Y-107900000D03*
X113000000Y-106700000D03*
X113000000Y-106300000D03*
X113000000Y-105900000D03*
X113000000Y-105700000D03*
X113000000Y-105100000D03*
X113000000Y-103900000D03*
X113200000Y-107900000D03*
X113200000Y-107500000D03*
X113200000Y-107300000D03*
X113200000Y-107100000D03*
X113200000Y-106700000D03*
X113200000Y-105700000D03*
X113200000Y-105100000D03*
X113200000Y-104700000D03*
X113200000Y-104500000D03*
X113200000Y-104300000D03*
X113200000Y-103900000D03*
X113400000Y-107900000D03*
X113400000Y-107500000D03*
X113400000Y-107300000D03*
X113400000Y-107100000D03*
X113400000Y-106700000D03*
X113400000Y-106300000D03*
X113400000Y-106100000D03*
X113400000Y-105700000D03*
X113400000Y-105100000D03*
X113400000Y-104700000D03*
X113400000Y-104500000D03*
X113400000Y-104300000D03*
X113400000Y-103900000D03*
X113600000Y-107900000D03*
X113600000Y-107500000D03*
X113600000Y-107300000D03*
X113600000Y-107100000D03*
X113600000Y-106700000D03*
X113600000Y-106100000D03*
X113600000Y-105900000D03*
X113600000Y-105500000D03*
X113600000Y-105100000D03*
X113600000Y-104700000D03*
X113600000Y-104500000D03*
X113600000Y-104300000D03*
X113600000Y-103900000D03*
X113800000Y-107900000D03*
X113800000Y-106700000D03*
X113800000Y-106300000D03*
X113800000Y-105700000D03*
X113800000Y-105100000D03*
X113800000Y-103900000D03*
X114000000Y-107900000D03*
X114000000Y-107700000D03*
X114000000Y-107500000D03*
X114000000Y-107300000D03*
X114000000Y-107100000D03*
X114000000Y-106900000D03*
X114000000Y-106700000D03*
X114000000Y-106300000D03*
X114000000Y-105900000D03*
X114000000Y-105100000D03*
X114000000Y-104900000D03*
X114000000Y-104700000D03*
X114000000Y-104500000D03*
X114000000Y-104300000D03*
X114000000Y-104100000D03*
X114000000Y-103900000D03*
%TD*%
%TO.P,D1,1*%
%TO.N,GND*%
%TA.AperFunction,SMDPad,CuDef*%
G36*
G01*
X112237500Y-101400000D02*
X111762500Y-101400000D01*
G75*
G02*
X111525000Y-101162500I0J237500D01*
G01*
X111525000Y-100587500D01*
G75*
G02*
X111762500Y-100350000I237500J0D01*
G01*
X112237500Y-100350000D01*
G75*
G02*
X112475000Y-100587500I0J-237500D01*
G01*
X112475000Y-101162500D01*
G75*
G02*
X112237500Y-101400000I-237500J0D01*
G01*
G37*
%TD.AperFunction*%
%TO.P,D1,2*%
%TO.N,Net-(D1-Pad2)*%
%TA.AperFunction,SMDPad,CuDef*%
G36*
G01*
X112237500Y-99650000D02*
X111762500Y-99650000D01*
G75*
G02*
X111525000Y-99412500I0J237500D01*
G01*
X111525000Y-98837500D01*
G75*
G02*
X111762500Y-98600000I237500J0D01*
G01*
X112237500Y-98600000D01*
G75*
G02*
X112475000Y-98837500I0J-237500D01*
G01*
X112475000Y-99412500D01*
G75*
G02*
X112237500Y-99650000I-237500J0D01*
G01*
G37*
%TD.AperFunction*%
D19*
X112000000Y-98730000D03*
D20*
%TO.P,D1,1*%
%TO.N,GND*%
X112000000Y-101270000D03*
%TD*%
D21*
%TO.P,J2,4*%
%TO.N,Net-(J2-Pad4)*%
X103810000Y-112000000D03*
%TO.P,J2,3*%
%TO.N,Net-(J2-Pad3)*%
X101270000Y-112000000D03*
%TO.P,J2,2*%
%TO.N,+5V*%
X98730000Y-112000000D03*
D22*
%TO.P,J2,1*%
%TO.N,GND*%
X96190000Y-112000000D03*
%TD*%
%TO.P,D3,1*%
%TO.N,GND*%
%TA.AperFunction,SMDPad,CuDef*%
G36*
G01*
X112237500Y-89400000D02*
X111762500Y-89400000D01*
G75*
G02*
X111525000Y-89162500I0J237500D01*
G01*
X111525000Y-88587500D01*
G75*
G02*
X111762500Y-88350000I237500J0D01*
G01*
X112237500Y-88350000D01*
G75*
G02*
X112475000Y-88587500I0J-237500D01*
G01*
X112475000Y-89162500D01*
G75*
G02*
X112237500Y-89400000I-237500J0D01*
G01*
G37*
%TD.AperFunction*%
%TO.P,D3,2*%
%TO.N,Net-(D3-Pad2)*%
%TA.AperFunction,SMDPad,CuDef*%
G36*
G01*
X112237500Y-87650000D02*
X111762500Y-87650000D01*
G75*
G02*
X111525000Y-87412500I0J237500D01*
G01*
X111525000Y-86837500D01*
G75*
G02*
X111762500Y-86600000I237500J0D01*
G01*
X112237500Y-86600000D01*
G75*
G02*
X112475000Y-86837500I0J-237500D01*
G01*
X112475000Y-87412500D01*
G75*
G02*
X112237500Y-87650000I-237500J0D01*
G01*
G37*
%TD.AperFunction*%
D19*
X112000000Y-86730000D03*
D20*
%TO.P,D3,1*%
%TO.N,GND*%
X112000000Y-89270000D03*
%TD*%
D23*
%TO.P,J4,4*%
%TO.N,Net-(J2-Pad4)*%
X89000000Y-113000000D03*
%TO.P,J4,3*%
%TO.N,Net-(J2-Pad3)*%
X87000000Y-113000000D03*
%TO.P,J4,2*%
%TO.N,+5V*%
X89000000Y-111000000D03*
D24*
%TO.P,J4,1*%
%TO.N,GND*%
X87000000Y-111000000D03*
%TD*%
%TO.P,D2,1*%
%TO.N,GND*%
%TA.AperFunction,SMDPad,CuDef*%
G36*
G01*
X112237500Y-95400000D02*
X111762500Y-95400000D01*
G75*
G02*
X111525000Y-95162500I0J237500D01*
G01*
X111525000Y-94587500D01*
G75*
G02*
X111762500Y-94350000I237500J0D01*
G01*
X112237500Y-94350000D01*
G75*
G02*
X112475000Y-94587500I0J-237500D01*
G01*
X112475000Y-95162500D01*
G75*
G02*
X112237500Y-95400000I-237500J0D01*
G01*
G37*
%TD.AperFunction*%
%TO.P,D2,2*%
%TO.N,Net-(D2-Pad2)*%
%TA.AperFunction,SMDPad,CuDef*%
G36*
G01*
X112237500Y-93650000D02*
X111762500Y-93650000D01*
G75*
G02*
X111525000Y-93412500I0J237500D01*
G01*
X111525000Y-92837500D01*
G75*
G02*
X111762500Y-92600000I237500J0D01*
G01*
X112237500Y-92600000D01*
G75*
G02*
X112475000Y-92837500I0J-237500D01*
G01*
X112475000Y-93412500D01*
G75*
G02*
X112237500Y-93650000I-237500J0D01*
G01*
G37*
%TD.AperFunction*%
D19*
X112000000Y-92730000D03*
D20*
%TO.P,D2,1*%
%TO.N,GND*%
X112000000Y-95270000D03*
%TD*%
D25*
%TO.P,H2,1*%
%TO.N,N/C*%
X88000000Y-88000000D03*
%TD*%
%TO.P,H1,1*%
%TO.N,N/C*%
X112000000Y-112000000D03*
%TD*%
D26*
%TO.N,GND*%
X94800000Y-96400000D03*
X93200000Y-103400000D03*
X97616806Y-106205269D03*
X106300000Y-101300000D03*
X106300000Y-96500000D03*
X94000000Y-93900000D03*
X92525010Y-105400000D03*
X96350012Y-95400000D03*
X100000000Y-92100000D03*
X103050000Y-93650000D03*
X103050000Y-95150000D03*
%TO.N,+3V3*%
X107368644Y-96617055D03*
X105600000Y-108500000D03*
X94900000Y-95100000D03*
X99100000Y-107300000D03*
X91400000Y-105700000D03*
X98511984Y-95209470D03*
X99525010Y-93433153D03*
%TO.N,+5V*%
X104701048Y-96301048D03*
%TD*%
D27*
%TO.N,GND*%
X96250000Y-108900000D02*
X96250000Y-107150000D01*
D28*
X90250000Y-96750000D02*
X90250000Y-103250000D01*
X90250000Y-103250000D02*
X92350000Y-103250000D01*
D27*
X106300000Y-96500000D02*
X106300000Y-101300000D01*
D28*
X110774999Y-96495001D02*
X112000000Y-95270000D01*
X110774999Y-99649999D02*
X110774999Y-96495001D01*
X112000000Y-100875000D02*
X110774999Y-99649999D01*
X110774999Y-90495001D02*
X112000000Y-89270000D01*
X110774999Y-94044999D02*
X110774999Y-90495001D01*
X112000000Y-95270000D02*
X110774999Y-94044999D01*
D27*
X94000000Y-93900000D02*
X94000000Y-96600000D01*
X106964315Y-95270000D02*
X106300000Y-95934315D01*
X112000000Y-95270000D02*
X106964315Y-95270000D01*
X106300000Y-95934315D02*
X106300000Y-96500000D01*
X96350012Y-95400000D02*
X96350012Y-96949988D01*
X87000000Y-111000000D02*
X87100000Y-111000000D01*
X88200001Y-109899999D02*
X89599999Y-109899999D01*
X87100000Y-111000000D02*
X88200001Y-109899999D01*
X91700000Y-112000000D02*
X96190000Y-112000000D01*
X89599999Y-109899999D02*
X91700000Y-112000000D01*
D28*
X107115000Y-113655000D02*
X107500000Y-113270000D01*
X97845000Y-113655000D02*
X107115000Y-113655000D01*
X96190000Y-112000000D02*
X97845000Y-113655000D01*
D27*
X106964315Y-95270000D02*
X104530000Y-95270000D01*
X104530000Y-95270000D02*
X103300000Y-96500000D01*
X100399999Y-96100001D02*
X100000000Y-96500000D01*
X100399999Y-92499999D02*
X100399999Y-96100001D01*
X100000000Y-92100000D02*
X100399999Y-92499999D01*
X103050000Y-95150000D02*
X103050000Y-96650000D01*
X103050000Y-93650000D02*
X103050000Y-95150000D01*
D28*
%TO.N,+3V3*%
X107368644Y-96617055D02*
X107368644Y-102231356D01*
X107368644Y-102231356D02*
X107000000Y-102600000D01*
X107000000Y-102600000D02*
X105800000Y-102600000D01*
X105600000Y-102800000D02*
X105600000Y-108500000D01*
X105800000Y-102600000D02*
X105600000Y-102800000D01*
X97792950Y-107300000D02*
X97500000Y-107592950D01*
X99100000Y-107300000D02*
X97792950Y-107300000D01*
X97500000Y-109738190D02*
X97088180Y-110150010D01*
X97500000Y-107592950D02*
X97500000Y-109738190D01*
X91400000Y-108100000D02*
X91400000Y-105700000D01*
X91700000Y-108400000D02*
X94400000Y-108400000D01*
X91700000Y-108400000D02*
X91400000Y-108100000D01*
X94400000Y-108400000D02*
X94800000Y-108800000D01*
X94800000Y-109900020D02*
X95049990Y-110150010D01*
X94800000Y-108800000D02*
X94800000Y-109900020D01*
X97088180Y-110150010D02*
X95049990Y-110150010D01*
X98619012Y-110150010D02*
X100000000Y-111530998D01*
X97088180Y-110150010D02*
X98619012Y-110150010D01*
X100000000Y-111530998D02*
X100000000Y-112900000D01*
X100275001Y-113175001D02*
X104624999Y-113175001D01*
X100000000Y-112900000D02*
X100275001Y-113175001D01*
X105600000Y-112200000D02*
X105600000Y-108500000D01*
X104624999Y-113175001D02*
X105600000Y-112200000D01*
X97702455Y-94399941D02*
X98511984Y-95209470D01*
X95600059Y-94399941D02*
X97702455Y-94399941D01*
X94900000Y-95100000D02*
X95600059Y-94399941D01*
X99525010Y-94196444D02*
X99525010Y-93433153D01*
X98511984Y-95209470D02*
X99525010Y-94196444D01*
D27*
%TO.N,+5V*%
X104701048Y-102948952D02*
X104701048Y-96866733D01*
X104701048Y-96866733D02*
X104701048Y-96301048D01*
X98750000Y-108900000D02*
X104701048Y-102948952D01*
D28*
%TO.N,Net-(J2-Pad3)*%
X101250000Y-111980000D02*
X101270000Y-112000000D01*
X101250000Y-108900000D02*
X101250000Y-111980000D01*
%TO.N,Net-(J2-Pad4)*%
X103750000Y-111940000D02*
X103810000Y-112000000D01*
X103750000Y-108900000D02*
X103750000Y-111940000D01*
%TD*%
D29*
%TO.N,GND*%
X94798061Y-96135000D02*
X95001939Y-96135000D01*
X95042159Y-96127000D01*
X95080929Y-96127000D01*
X95273263Y-99108177D01*
X95275440Y-99124776D01*
X95282667Y-99148601D01*
X95294403Y-99170557D01*
X95310197Y-99189803D01*
X95329443Y-99205597D01*
X95351399Y-99217333D01*
X95375224Y-99224560D01*
X95400000Y-99227000D01*
X95600000Y-99227000D01*
X95616706Y-99225896D01*
X95640946Y-99220218D01*
X95663612Y-99209920D01*
X95683835Y-99195398D01*
X95700835Y-99177210D01*
X95713960Y-99156054D01*
X95722706Y-99132745D01*
X95726737Y-99108177D01*
X95919071Y-96127000D01*
X98022513Y-96127000D01*
X98210086Y-96204696D01*
X98410045Y-96244470D01*
X98613923Y-96244470D01*
X98813882Y-96204696D01*
X99001455Y-96127000D01*
X103680391Y-96127000D01*
X103666048Y-96199109D01*
X103666048Y-96402987D01*
X103705822Y-96602946D01*
X103783843Y-96791304D01*
X103816048Y-96839502D01*
X103816048Y-96910209D01*
X103816049Y-96910219D01*
X103816048Y-102582373D01*
X102744699Y-103653723D01*
X100891823Y-103773263D01*
X100875224Y-103775440D01*
X100851399Y-103782667D01*
X100829443Y-103794403D01*
X100810197Y-103810197D01*
X100794403Y-103829443D01*
X100782667Y-103851399D01*
X100775440Y-103875224D01*
X100773000Y-103900000D01*
X100773000Y-104100000D01*
X100774104Y-104116706D01*
X100779782Y-104140946D01*
X100790080Y-104163612D01*
X100804602Y-104183835D01*
X100822790Y-104200835D01*
X100843946Y-104213960D01*
X100867255Y-104222706D01*
X100891823Y-104226737D01*
X102094117Y-104304304D01*
X99831066Y-106567355D01*
X99759774Y-106496063D01*
X99590256Y-106382795D01*
X99401898Y-106304774D01*
X99201939Y-106265000D01*
X99015329Y-106265000D01*
X98926737Y-104891823D01*
X98924560Y-104875224D01*
X98917333Y-104851399D01*
X98905597Y-104829443D01*
X98889803Y-104810197D01*
X98870557Y-104794403D01*
X98848601Y-104782667D01*
X98824776Y-104775440D01*
X98800000Y-104773000D01*
X98600000Y-104773000D01*
X98583294Y-104774104D01*
X98559054Y-104779782D01*
X98536388Y-104790080D01*
X98516165Y-104804602D01*
X98499165Y-104822790D01*
X98486040Y-104843946D01*
X98477294Y-104867255D01*
X98473263Y-104891823D01*
X98366929Y-106540000D01*
X97830273Y-106540000D01*
X97792950Y-106536324D01*
X97755627Y-106540000D01*
X97755617Y-106540000D01*
X97643964Y-106550997D01*
X97500703Y-106594454D01*
X97368674Y-106665026D01*
X97252949Y-106759999D01*
X97229146Y-106789003D01*
X96989003Y-107029146D01*
X96959999Y-107052949D01*
X96904871Y-107120124D01*
X96865026Y-107168674D01*
X96794830Y-107300000D01*
X96794454Y-107300704D01*
X96782942Y-107338654D01*
X96535750Y-107340000D01*
X96377000Y-107498750D01*
X96377000Y-107873000D01*
X96123000Y-107873000D01*
X96123000Y-107498750D01*
X95964250Y-107340000D01*
X95400000Y-107336928D01*
X95275518Y-107349188D01*
X95155820Y-107385498D01*
X95045506Y-107444463D01*
X94948815Y-107523815D01*
X94869463Y-107620506D01*
X94810498Y-107730820D01*
X94803492Y-107753916D01*
X94692247Y-107694454D01*
X94548986Y-107650997D01*
X94437333Y-107640000D01*
X94437322Y-107640000D01*
X94400000Y-107636324D01*
X94362678Y-107640000D01*
X92160000Y-107640000D01*
X92160000Y-106403711D01*
X92203937Y-106359774D01*
X92317205Y-106190256D01*
X92395226Y-106001898D01*
X92435000Y-105801939D01*
X92435000Y-105598061D01*
X92395226Y-105398102D01*
X92317205Y-105209744D01*
X92203937Y-105040226D01*
X92127000Y-104963289D01*
X92127000Y-104519071D01*
X95108177Y-104326737D01*
X95124776Y-104324560D01*
X95148601Y-104317333D01*
X95170557Y-104305597D01*
X95189803Y-104289803D01*
X95205597Y-104270557D01*
X95217333Y-104248601D01*
X95224560Y-104224776D01*
X95227000Y-104200000D01*
X95227000Y-104000000D01*
X95225896Y-103983294D01*
X95220218Y-103959054D01*
X95209920Y-103936388D01*
X95195398Y-103916165D01*
X95177210Y-103899165D01*
X95156054Y-103886040D01*
X95132745Y-103877294D01*
X95108177Y-103873263D01*
X92127000Y-103680929D01*
X92127000Y-100419071D01*
X95108177Y-100226737D01*
X95124776Y-100224560D01*
X95148601Y-100217333D01*
X95170557Y-100205597D01*
X95189803Y-100189803D01*
X95205597Y-100170557D01*
X95217333Y-100148601D01*
X95224560Y-100124776D01*
X95227000Y-100100000D01*
X95227000Y-99900000D01*
X95225896Y-99883294D01*
X95220218Y-99859054D01*
X95209920Y-99836388D01*
X95195398Y-99816165D01*
X95177210Y-99799165D01*
X95156054Y-99786040D01*
X95132745Y-99777294D01*
X95108177Y-99773263D01*
X92127000Y-99580929D01*
X92127000Y-96127000D01*
X94757842Y-96127000D01*
X94798061Y-96135000D01*
%TA.AperFunction,Conductor*%
D30*
G36*
X94798061Y-96135000D02*
G01*
X95001939Y-96135000D01*
X95042159Y-96127000D01*
X95080929Y-96127000D01*
X95273263Y-99108177D01*
X95275440Y-99124776D01*
X95282667Y-99148601D01*
X95294403Y-99170557D01*
X95310197Y-99189803D01*
X95329443Y-99205597D01*
X95351399Y-99217333D01*
X95375224Y-99224560D01*
X95400000Y-99227000D01*
X95600000Y-99227000D01*
X95616706Y-99225896D01*
X95640946Y-99220218D01*
X95663612Y-99209920D01*
X95683835Y-99195398D01*
X95700835Y-99177210D01*
X95713960Y-99156054D01*
X95722706Y-99132745D01*
X95726737Y-99108177D01*
X95919071Y-96127000D01*
X98022513Y-96127000D01*
X98210086Y-96204696D01*
X98410045Y-96244470D01*
X98613923Y-96244470D01*
X98813882Y-96204696D01*
X99001455Y-96127000D01*
X103680391Y-96127000D01*
X103666048Y-96199109D01*
X103666048Y-96402987D01*
X103705822Y-96602946D01*
X103783843Y-96791304D01*
X103816048Y-96839502D01*
X103816048Y-96910209D01*
X103816049Y-96910219D01*
X103816048Y-102582373D01*
X102744699Y-103653723D01*
X100891823Y-103773263D01*
X100875224Y-103775440D01*
X100851399Y-103782667D01*
X100829443Y-103794403D01*
X100810197Y-103810197D01*
X100794403Y-103829443D01*
X100782667Y-103851399D01*
X100775440Y-103875224D01*
X100773000Y-103900000D01*
X100773000Y-104100000D01*
X100774104Y-104116706D01*
X100779782Y-104140946D01*
X100790080Y-104163612D01*
X100804602Y-104183835D01*
X100822790Y-104200835D01*
X100843946Y-104213960D01*
X100867255Y-104222706D01*
X100891823Y-104226737D01*
X102094117Y-104304304D01*
X99831066Y-106567355D01*
X99759774Y-106496063D01*
X99590256Y-106382795D01*
X99401898Y-106304774D01*
X99201939Y-106265000D01*
X99015329Y-106265000D01*
X98926737Y-104891823D01*
X98924560Y-104875224D01*
X98917333Y-104851399D01*
X98905597Y-104829443D01*
X98889803Y-104810197D01*
X98870557Y-104794403D01*
X98848601Y-104782667D01*
X98824776Y-104775440D01*
X98800000Y-104773000D01*
X98600000Y-104773000D01*
X98583294Y-104774104D01*
X98559054Y-104779782D01*
X98536388Y-104790080D01*
X98516165Y-104804602D01*
X98499165Y-104822790D01*
X98486040Y-104843946D01*
X98477294Y-104867255D01*
X98473263Y-104891823D01*
X98366929Y-106540000D01*
X97830273Y-106540000D01*
X97792950Y-106536324D01*
X97755627Y-106540000D01*
X97755617Y-106540000D01*
X97643964Y-106550997D01*
X97500703Y-106594454D01*
X97368674Y-106665026D01*
X97252949Y-106759999D01*
X97229146Y-106789003D01*
X96989003Y-107029146D01*
X96959999Y-107052949D01*
X96904871Y-107120124D01*
X96865026Y-107168674D01*
X96794830Y-107300000D01*
X96794454Y-107300704D01*
X96782942Y-107338654D01*
X96535750Y-107340000D01*
X96377000Y-107498750D01*
X96377000Y-107873000D01*
X96123000Y-107873000D01*
X96123000Y-107498750D01*
X95964250Y-107340000D01*
X95400000Y-107336928D01*
X95275518Y-107349188D01*
X95155820Y-107385498D01*
X95045506Y-107444463D01*
X94948815Y-107523815D01*
X94869463Y-107620506D01*
X94810498Y-107730820D01*
X94803492Y-107753916D01*
X94692247Y-107694454D01*
X94548986Y-107650997D01*
X94437333Y-107640000D01*
X94437322Y-107640000D01*
X94400000Y-107636324D01*
X94362678Y-107640000D01*
X92160000Y-107640000D01*
X92160000Y-106403711D01*
X92203937Y-106359774D01*
X92317205Y-106190256D01*
X92395226Y-106001898D01*
X92435000Y-105801939D01*
X92435000Y-105598061D01*
X92395226Y-105398102D01*
X92317205Y-105209744D01*
X92203937Y-105040226D01*
X92127000Y-104963289D01*
X92127000Y-104519071D01*
X95108177Y-104326737D01*
X95124776Y-104324560D01*
X95148601Y-104317333D01*
X95170557Y-104305597D01*
X95189803Y-104289803D01*
X95205597Y-104270557D01*
X95217333Y-104248601D01*
X95224560Y-104224776D01*
X95227000Y-104200000D01*
X95227000Y-104000000D01*
X95225896Y-103983294D01*
X95220218Y-103959054D01*
X95209920Y-103936388D01*
X95195398Y-103916165D01*
X95177210Y-103899165D01*
X95156054Y-103886040D01*
X95132745Y-103877294D01*
X95108177Y-103873263D01*
X92127000Y-103680929D01*
X92127000Y-100419071D01*
X95108177Y-100226737D01*
X95124776Y-100224560D01*
X95148601Y-100217333D01*
X95170557Y-100205597D01*
X95189803Y-100189803D01*
X95205597Y-100170557D01*
X95217333Y-100148601D01*
X95224560Y-100124776D01*
X95227000Y-100100000D01*
X95227000Y-99900000D01*
X95225896Y-99883294D01*
X95220218Y-99859054D01*
X95209920Y-99836388D01*
X95195398Y-99816165D01*
X95177210Y-99799165D01*
X95156054Y-99786040D01*
X95132745Y-99777294D01*
X95108177Y-99773263D01*
X92127000Y-99580929D01*
X92127000Y-96127000D01*
X94757842Y-96127000D01*
X94798061Y-96135000D01*
G37*
%TD.AperFunction*%
%TD*%
M02*
