%TF.GenerationSoftware,KiCad,Pcbnew,(6.0.5-0)*%
%TF.CreationDate,2022-06-22T17:56:20+01:00*%
%TF.ProjectId,PN532-Round,504e3533-322d-4526-9f75-6e642e6b6963,7*%
%TF.SameCoordinates,Original*%
%TF.FileFunction,Copper,L1,Top*%
%TF.FilePolarity,Positive*%
%FSLAX46Y46*%
G04 Gerber Fmt 4.6, Leading zero omitted, Abs format (unit mm)*
G04 Created by KiCad (PCBNEW (6.0.5-0)) date 2022-06-22 17:56:20*
%MOMM*%
%LPD*%
G01*
G04 APERTURE LIST*
G04 Aperture macros list*
%AMRoundRect*
0 Rectangle with rounded corners*
0 $1 Rounding radius*
0 $2 $3 $4 $5 $6 $7 $8 $9 X,Y pos of 4 corners*
0 Add a 4 corners polygon primitive as box body*
4,1,4,$2,$3,$4,$5,$6,$7,$8,$9,$2,$3,0*
0 Add four circle primitives for the rounded corners*
1,1,$1+$1,$2,$3*
1,1,$1+$1,$4,$5*
1,1,$1+$1,$6,$7*
1,1,$1+$1,$8,$9*
0 Add four rect primitives between the rounded corners*
20,1,$1+$1,$2,$3,$4,$5,0*
20,1,$1+$1,$4,$5,$6,$7,0*
20,1,$1+$1,$6,$7,$8,$9,0*
20,1,$1+$1,$8,$9,$2,$3,0*%
%AMOutline5P*
0 Free polygon, 5 corners , with rotation*
0 The origin of the aperture is its center*
0 number of corners: always 5*
0 $1 to $10 corner X, Y*
0 $11 Rotation angle, in degrees counterclockwise*
0 create outline with 5 corners*
4,1,5,$1,$2,$3,$4,$5,$6,$7,$8,$9,$10,$1,$2,$11*%
%AMOutline6P*
0 Free polygon, 6 corners , with rotation*
0 The origin of the aperture is its center*
0 number of corners: always 6*
0 $1 to $12 corner X, Y*
0 $13 Rotation angle, in degrees counterclockwise*
0 create outline with 6 corners*
4,1,6,$1,$2,$3,$4,$5,$6,$7,$8,$9,$10,$11,$12,$1,$2,$13*%
%AMOutline7P*
0 Free polygon, 7 corners , with rotation*
0 The origin of the aperture is its center*
0 number of corners: always 7*
0 $1 to $14 corner X, Y*
0 $15 Rotation angle, in degrees counterclockwise*
0 create outline with 7 corners*
4,1,7,$1,$2,$3,$4,$5,$6,$7,$8,$9,$10,$11,$12,$13,$14,$1,$2,$15*%
%AMOutline8P*
0 Free polygon, 8 corners , with rotation*
0 The origin of the aperture is its center*
0 number of corners: always 8*
0 $1 to $16 corner X, Y*
0 $17 Rotation angle, in degrees counterclockwise*
0 create outline with 8 corners*
4,1,8,$1,$2,$3,$4,$5,$6,$7,$8,$9,$10,$11,$12,$13,$14,$15,$16,$1,$2,$17*%
%AMFreePoly0*
4,1,814,0.006284,0.248750,0.012623,0.249681,0.925993,0.185169,1.836054,0.084187,2.741348,-0.053104,3.640429,-0.226485,4.531857,-0.435679,5.414208,-0.680350,6.286070,-0.960108,7.146047,-1.274504,7.992766,-1.623037,8.824870,-2.005148,9.641030,-2.420227,10.439940,-2.867608,10.440143,-2.867788,10.440398,-2.867877,10.440402,-2.867880,11.168146,-3.313240,11.878732,-3.785502,12.571163,-4.284003,
13.244470,-4.808046,13.897712,-5.356899,14.529974,-5.929794,15.140373,-6.525929,15.728055,-7.144470,16.292199,-7.784554,16.832014,-8.445283,17.346746,-9.125735,17.835675,-9.824958,18.298118,-10.541973,18.733427,-11.275778,18.733523,-11.276068,18.733722,-11.276298,19.169855,-12.081210,19.573224,-12.903031,19.943175,-13.740427,20.279107,-14.592040,20.580475,-15.456489,20.846792,-16.332372,21.077624,-17.218269,
21.272597,-18.112741,21.431395,-19.014339,21.553761,-19.921600,21.639496,-20.833052,21.688461,-21.747218,21.700577,-22.662613,21.700517,-22.662905,21.700573,-22.663198,21.700572,-22.663204,21.675886,-23.574982,21.614507,-24.485033,21.516533,-25.391874,21.382124,-26.294035,21.211497,-27.190052,21.004930,-28.078472,20.762757,-28.957853,20.485372,-29.826771,20.173223,-30.683814,19.826819,-31.527593,19.446719,-32.356740,
19.033542,-33.169909,18.587957,-33.965782,18.587753,-33.966011,18.587652,-33.966303,18.587647,-33.966309,18.112116,-34.740716,17.605784,-35.495353,17.069477,-36.228991,16.504064,-36.940439,15.910462,-37.628542,15.289635,-38.292186,14.642589,-38.930294,13.970374,-39.541830,13.274080,-40.125802,12.554836,-40.681264,11.813809,-41.207315,11.052202,-41.703101,10.271249,-42.167819,10.270960,-42.167915,10.270731,-42.168113,
10.270726,-42.168115,9.474639,-42.599387,8.661826,-42.998257,7.833612,-43.364074,6.991339,-43.696246,6.136375,-43.994234,5.270105,-44.257554,4.393934,-44.485779,3.509285,-44.678539,2.617591,-44.835522,1.720299,-44.956473,0.818865,-45.041195,-0.085249,-45.089551,-0.990577,-45.101464,-0.990874,-45.101403,-0.991173,-45.101460,-0.991179,-45.101459,-1.892891,-45.076975,-2.792892,-45.016203,-3.689716,-44.919240,
-4.581908,-44.786244,-5.468021,-44.617432,-6.346619,-44.413076,-7.216275,-44.173508,-8.075580,-43.899117,-8.923139,-43.590348,-9.757578,-43.247701,-10.577543,-42.871733,-11.381704,-42.463053,-12.168758,-42.022325,-12.168984,-42.022124,-12.169274,-42.022023,-12.935070,-41.551696,-13.681307,-41.050916,-14.406775,-40.520494,-15.110296,-39.961290,-15.790730,-39.374212,-16.446972,-38.760211,-17.077960,-38.120285,-17.682668,-37.455470,
-18.260116,-36.766845,-18.809368,-36.055527,-19.329533,-35.322670,-19.819766,-34.569462,-20.279273,-33.797125,-20.279370,-33.796832,-20.279570,-33.796601,-20.705986,-33.009329,-21.100356,-32.205525,-21.462040,-31.386493,-21.790452,-30.553562,-22.085059,-29.708083,-22.345383,-28.851427,-22.571002,-27.984983,-22.761549,-27.110157,-22.916716,-26.228368,-23.036252,-25.341047,-23.119961,-24.449631,-23.167709,-23.555568,-23.179419,-22.660308,
-23.179356,-22.660002,-23.179415,-22.659694,-23.179414,-22.659688,-23.155132,-21.768043,-23.094967,-20.878093,-22.999016,-19.991288,-22.867435,-19.109065,-22.700437,-18.232856,-22.498292,-17.364082,-22.261330,-16.504152,-21.989934,-15.654461,-21.684545,-14.816387,-21.345657,-13.991289,-20.973821,-13.180506,-20.569639,-12.385353,-20.133769,-11.607120,-20.133564,-11.606890,-20.133462,-11.606596,-20.133459,-11.606592,-19.668343,-10.849417,
-19.173113,-10.111580,-18.648576,-9.394283,-18.095581,-8.698688,-17.515026,-8.025924,-16.907852,-7.377083,-16.275044,-6.753216,-15.617630,-6.155336,-14.936674,-5.584412,-14.233281,-5.041370,-13.508593,-4.527091,-12.763785,-4.042410,-12.000065,-3.588112,-11.999773,-3.588015,-11.999539,-3.587813,-11.999532,-3.587811,-11.221085,-3.166257,-10.426289,-2.776386,-9.616438,-2.418835,-8.792848,-2.094183,-7.956853,-1.802957,
-7.109809,-1.545629,-6.253091,-1.322617,-5.388088,-1.134282,-4.516202,-0.980931,-3.638850,-0.862811,-2.757452,-0.780114,-1.873440,-0.732974,-0.988246,-0.721467,-0.987936,-0.721531,-0.987629,-0.721472,-0.987623,-0.721473,-0.106045,-0.745552,0.773854,-0.805110,1.650642,-0.900050,2.522895,-1.030218,3.389200,-1.195401,4.248151,-1.395334,5.098355,-1.629691,5.938433,-1.898092,6.767022,-2.200102,
7.582779,-2.535231,8.384379,-2.902935,9.170524,-3.302618,9.939937,-3.733632,9.940171,-3.733840,9.940467,-3.733943,10.689028,-4.193852,11.418464,-4.683530,12.127591,-5.202181,12.815259,-5.748966,13.480352,-6.322997,14.121792,-6.923344,14.738538,-7.549031,15.329590,-8.199045,15.893990,-8.872331,16.430821,-9.567797,16.939213,-10.284315,17.418342,-11.020723,17.867429,-11.775826,17.867529,-11.776127,
17.867736,-11.776367,17.867738,-11.776374,18.284434,-12.546001,18.669806,-13.331789,19.023224,-14.132457,19.344116,-14.946707,19.631961,-15.773217,19.886292,-16.610647,20.106697,-17.457639,20.292819,-18.312819,20.444355,-19.174800,20.561059,-20.042183,20.642743,-20.913562,20.689274,-21.787524,20.700576,-22.662650,20.700511,-22.662963,20.700572,-22.663279,20.676694,-23.534796,20.617743,-24.404644,20.523815,-25.271413,
20.395062,-26.133697,20.231693,-26.990097,20.033972,-27.839225,19.802221,-28.679702,19.536815,-29.510166,19.238185,-30.329270,18.906815,-31.135685,18.543243,-31.928103,18.148059,-32.705239,17.721903,-33.465833,17.721691,-33.466071,17.721586,-33.466373,17.721583,-33.466377,17.266884,-34.206317,16.782757,-34.927353,16.269990,-35.628310,15.729413,-36.308051,15.161905,-36.965475,14.568385,-37.599513,13.949817,-38.209139,
13.307203,-38.793364,12.641585,-39.351239,11.954044,-39.881860,11.245695,-40.384366,10.517686,-40.857942,9.771199,-41.301821,9.770899,-41.301920,9.770660,-41.302127,9.770655,-41.302129,9.009845,-41.713967,8.233064,-42.094839,7.441576,-42.444124,6.636667,-42.761256,5.819640,-43.045720,4.991822,-43.297055,4.154555,-43.514854,3.309197,-43.698762,2.457120,-43.848482,1.599704,-43.963772,0.738343,-44.044443,
-0.125569,-44.090365,-0.990629,-44.101464,-0.990943,-44.101399,-0.991255,-44.101459,-1.852705,-44.077784,-2.712502,-44.019440,-3.569253,-43.926524,-4.421567,-43.799185,-5.268063,-43.637630,-6.107367,-43.442121,-6.938118,-43.212976,-7.758969,-42.950565,-8.568588,-42.655314,-9.365661,-42.327704,-10.148897,-41.968263,-10.917024,-41.577577,-11.668797,-41.156278,-11.669039,-41.156063,-11.669346,-41.155956,-11.669352,-41.155951,
-12.400672,-40.706463,-13.113307,-40.227887,-13.806094,-39.721005,-14.477909,-39.186639,-15.127662,-38.625654,-15.754299,-38.038961,-16.356805,-37.427512,-16.934201,-36.792299,-17.485552,-36.134351,-18.009963,-35.454736,-18.506583,-34.754556,-18.974606,-34.034948,-19.413275,-33.297078,-19.413376,-33.296772,-19.413587,-33.296528,-19.820569,-32.544533,-20.196941,-31.776760,-20.542093,-30.994454,-20.855465,-30.198886,-21.136548,-29.391344,
-21.384887,-28.573139,-21.600079,-27.745598,-21.781774,-26.910063,-21.929679,-26.067890,-22.043553,-25.220444,-22.123211,-24.369101,-22.168524,-23.515240,-22.179419,-22.660247,-22.179353,-22.659928,-22.179414,-22.659610,-22.155941,-21.808227,-22.098204,-20.958480,-22.006299,-20.111747,-21.880374,-19.269402,-21.720633,-18.432810,-21.527336,-17.603329,-21.300795,-16.782303,-21.041379,-15.971066,-20.749508,-15.170932,-20.425655,-14.383199,
-20.070347,-13.609146,-19.684158,-12.850027,-19.267716,-12.107074,-19.267499,-12.106831,-19.267390,-12.106520,-18.823108,-11.383813,-18.350084,-10.679579,-17.849087,-9.994963,-17.320930,-9.331075,-16.766469,-8.688992,-16.186603,-8.069756,-15.582274,-7.474371,-14.954461,-6.903803,-14.304183,-6.358977,-13.632494,-5.840777,-12.940483,-5.350043,-12.229275,-4.887572,-11.500021,-4.454113,-11.499704,-4.454008,-11.499448,-4.453787,
-11.499443,-4.453785,-10.758402,-4.052823,-10.001862,-3.681920,-9.231047,-3.341678,-8.447198,-3.032644,-7.651578,-2.755316,-6.845470,-2.510141,-6.030172,-2.297514,-5.206997,-2.117778,-4.377273,-1.971222,-3.542335,-1.858082,-3.445115,-1.866046,-3.358344,-1.910608,-3.295231,-1.984984,-3.265384,-2.077851,-3.273348,-2.175071,-3.317910,-2.261842,-3.392286,-2.324955,-3.485153,-2.354802,-3.504192,-2.353242,
-4.300835,-2.461193,-5.110957,-2.604287,-5.914685,-2.779776,-6.710722,-2.987380,-7.497787,-3.226763,-8.274610,-3.497539,-9.039941,-3.799272,-9.792546,-4.131476,-10.531214,-4.493617,-11.238273,-4.876193,-11.252728,-4.888677,-11.253023,-4.888775,-11.253257,-4.888977,-11.271684,-4.895079,-11.967403,-5.308606,-12.661871,-5.760191,-13.337592,-6.239373,-13.993470,-6.745375,-14.628441,-7.277377,-15.241477,-7.834515,
-15.831581,-8.415885,-16.397797,-9.020545,-16.939207,-9.647514,-17.454932,-10.295775,-17.944136,-10.964276,-18.406026,-11.651933,-18.829881,-12.341414,-18.836256,-12.359744,-18.836468,-12.359982,-18.836572,-12.360282,-18.849533,-12.374841,-19.246861,-13.083696,-19.623996,-13.825017,-19.970974,-14.580923,-20.287234,-15.350187,-20.572262,-16.131562,-20.825596,-16.923780,-21.046825,-17.725556,-21.235591,-18.535590,-21.391587,-19.352568,
-21.514560,-20.175164,-21.604310,-21.002045,-21.660693,-21.831870,-21.683089,-22.644175,-21.679428,-22.663322,-21.679492,-22.663634,-21.679433,-22.663945,-21.683393,-22.683113,-21.672997,-23.498941,-21.628742,-24.332862,-21.550944,-25.164325,-21.439729,-25.991981,-21.295279,-26.814487,-21.117826,-27.630510,-20.907660,-28.438726,-20.665120,-29.237824,-20.390601,-30.026508,-20.084547,-30.803498,-19.747455,-31.567535,-19.379872,-32.317379,
-18.991532,-33.034929,-18.978737,-33.049738,-18.978638,-33.050037,-18.978433,-33.050274,-18.972256,-33.068922,-18.553638,-33.773065,-18.096501,-34.475935,-17.611432,-35.159829,-17.099220,-35.823635,-16.560694,-36.466279,-15.996728,-37.086718,-15.408236,-37.683944,-14.796175,-38.256990,-14.161535,-38.804926,-13.505347,-39.326863,-12.828675,-39.821955,-12.132616,-40.289399,-11.434718,-40.718344,-11.416162,-40.724796,-11.415922,-40.725009,
-11.415627,-40.725112,-11.400893,-40.738226,-10.683417,-41.140304,-9.933087,-41.521939,-9.167998,-41.873051,-8.389392,-42.193071,-7.598531,-42.481481,-6.796698,-42.737812,-5.985195,-42.961649,-5.165336,-43.152628,-4.338453,-43.310440,-3.505885,-43.434828,-2.668985,-43.525592,-1.829108,-43.582583,-1.006958,-43.605178,-0.987587,-43.601473,-0.987280,-43.601536,-0.986975,-43.601478,-0.967587,-43.605482,-0.141910,-43.594889,
0.702064,-43.550027,1.543548,-43.471217,2.381175,-43.358589,3.213588,-43.212324,4.039437,-43.032660,4.857381,-42.819888,5.666095,-42.574353,6.464266,-42.296454,7.250600,-41.986641,8.023821,-41.645416,8.782675,-41.273334,9.508852,-40.880244,9.523832,-40.867299,9.524124,-40.867202,9.524359,-40.866999,9.543231,-40.860746,10.255794,-40.437040,10.967067,-39.974350,11.659133,-39.483396,12.330868,-38.964973,
12.981184,-38.419922,13.609026,-37.849128,14.213375,-37.253517,14.793251,-36.634053,15.347713,-35.991743,15.875862,-35.327627,16.376842,-34.642784,16.849840,-33.938324,17.283877,-33.232006,17.290404,-33.213227,17.290613,-33.212992,17.290715,-33.212699,17.303984,-33.197788,17.710811,-32.471694,18.096946,-31.712354,18.452193,-30.938081,18.775974,-30.150132,19.067766,-29.349785,19.327094,-28.538337,19.553539,-27.717106,
19.746732,-26.887422,19.906360,-26.050633,20.032165,-25.208094,20.123942,-24.361173,20.181543,-23.511244,20.204338,-22.679257,20.200586,-22.659653,20.200649,-22.659347,20.200590,-22.659038,20.204641,-22.639413,20.193851,-21.803905,20.148381,-20.949879,20.068561,-20.098376,19.954518,-19.250778,19.806439,-18.408459,19.624563,-17.572786,19.409185,-16.745115,19.160655,-15.926787,18.879376,-15.119129,18.565804,-14.323453,
18.220447,-13.541049,17.843867,-12.773185,17.446032,-12.038395,17.432928,-12.023233,17.432830,-12.022936,17.432629,-12.022704,17.426298,-12.003604,16.997505,-11.282624,16.529263,-10.562949,16.032423,-9.862712,15.507790,-9.183048,14.956215,-8.525061,14.378593,-7.889817,13.775861,-7.278347,13.148996,-6.691642,12.499015,-6.130654,11.826973,-5.596294,11.133959,-5.089427,10.421098,-4.610876,9.706362,-4.171749,
9.687357,-4.165145,9.687130,-4.164943,9.686839,-4.164842,9.671747,-4.151414,8.937038,-3.739841,8.168688,-3.349205,7.385232,-2.989823,6.587941,-2.662280,5.778107,-2.367106,4.957044,-2.104780,4.126085,-1.875728,3.286577,-1.680321,2.439881,-1.518876,1.587371,-1.391655,0.730429,-1.298865,-0.129553,-1.240655,-0.971372,-1.217661,-0.991213,-1.221460,-0.991516,-1.221398,-0.991816,-1.221455,
-1.011673,-1.217358,-1.857019,-1.228345,-2.721098,-1.274422,-3.582622,-1.355254,-4.440191,-1.470711,-5.292417,-1.620604,-6.137915,-1.804692,-6.975316,-2.022676,-7.803260,-2.274201,-8.620404,-2.558860,-9.425424,-2.876192,-10.217013,-3.225681,-10.993888,-3.606760,-11.737298,-4.009342,-11.752637,-4.022601,-11.752925,-4.022696,-11.753151,-4.022892,-11.772474,-4.029298,-12.501876,-4.463182,-13.229954,-4.936976,
-13.938364,-5.439703,-14.625956,-5.970546,-15.291616,-6.528646,-15.934264,-7.113096,-16.552857,-7.722949,-17.146392,-8.357216,-17.713906,-9.014868,-18.254479,-9.694838,-18.767235,-10.396023,-19.251340,-11.117286,-19.695556,-11.840436,-19.702238,-11.859670,-19.702440,-11.859897,-19.702539,-11.860182,-19.716116,-11.875444,-20.132442,-12.618779,-20.527579,-13.396139,-20.891094,-14.188778,-21.222399,-14.995412,-21.520954,-15.814732,
-21.786277,-16.645409,-22.017937,-17.486096,-22.215557,-18.335430,-22.378818,-19.192031,-22.507455,-20.054512,-22.601259,-20.921474,-22.660078,-21.791509,-22.683270,-22.643174,-22.679427,-22.663238,-22.679489,-22.663537,-22.679431,-22.663838,-22.683574,-22.683924,-22.672389,-23.539110,-22.625706,-24.413241,-22.543863,-25.284784,-22.426992,-26.152325,-22.275284,-27.014457,-22.088984,-27.869780,-21.868395,-28.716908,-21.613875,-29.554467,
-21.325836,-30.381098,-21.004745,-31.195461,-20.651124,-31.996234,-20.265545,-32.782119,-19.858216,-33.534151,-19.844804,-33.549665,-19.844710,-33.549950,-19.844513,-33.550177,-19.838031,-33.569723,-19.399057,-34.307546,-18.919711,-35.044026,-18.411099,-35.760607,-17.874045,-36.456128,-17.309421,-37.129459,-16.718143,-37.779510,-16.101169,-38.405224,-15.459501,-39.005588,-14.794179,-39.579628,-14.106282,-40.126413,-13.396926,-40.645055,
-12.667262,-41.134714,-11.935687,-41.584022,-11.916234,-41.590779,-11.916011,-41.590977,-11.915730,-41.591075,-11.900286,-41.604811,-11.148337,-42.025882,-10.361968,-42.425520,-9.560145,-42.793170,-8.744169,-43.128235,-7.915362,-43.430172,-7.075070,-43.698492,-6.224655,-43.932760,-5.365497,-44.132594,-4.498989,-44.297672,-3.626537,-44.427725,-2.749555,-44.522542,-1.869467,-44.581970,-1.007967,-44.605362,-0.987669,-44.601472,
-0.987379,-44.601532,-0.987087,-44.601476,-0.966769,-44.605665,-0.101745,-44.594284,0.782440,-44.546993,1.664004,-44.464139,2.541517,-44.345854,3.413556,-44.192332,4.278705,-44.003820,5.135562,-43.780626,5.982738,-43.523110,6.818857,-43.231691,7.642563,-42.906841,8.452522,-42.549087,9.247418,-42.159009,10.008068,-41.746935,10.023761,-41.733365,10.024042,-41.733272,10.024267,-41.733077,10.044032,-41.726521,
10.790280,-41.282456,11.535162,-40.797558,12.259916,-40.283060,12.963364,-39.739796,13.644368,-39.168647,14.301821,-38.570541,14.934657,-37.946447,15.541851,-37.297377,16.122417,-36.624384,16.675413,-35.928560,17.199943,-35.211033,17.695155,-34.472968,18.149557,-33.732969,18.156388,-33.713297,18.156589,-33.713071,18.156687,-33.712788,18.170580,-33.697166,18.596398,-32.936601,19.000535,-32.141223,19.372318,-31.330217,
19.711144,-30.504898,20.016463,-29.666606,20.287779,-28.816700,20.524654,-27.956558,20.726701,-27.087576,20.893595,-26.211163,21.025063,-25.328740,21.120894,-24.441740,21.180930,-23.551600,21.204521,-22.680264,21.200585,-22.659734,21.200644,-22.659448,21.200589,-22.659161,21.204825,-22.638610,21.193246,-21.763750,21.145348,-20.869512,21.061482,-19.977928,20.941784,-19.090443,20.786447,-18.208498,20.595723,-17.333523,
20.369923,-16.466938,20.109412,-15.610147,19.814613,-14.764541,19.486003,-13.931491,19.124117,-13.112348,18.729540,-12.308442,18.312721,-11.539175,18.298994,-11.523302,18.298900,-11.523020,18.298705,-11.522794,18.292071,-11.502800,17.842919,-10.748136,17.352469,-9.994852,16.832085,-9.261927,16.282611,-8.550551,15.704938,-7.861876,15.100004,-7.197021,14.468789,-6.557063,13.812318,-5.943040,13.131655,-5.355949,
12.427904,-4.796742,11.702207,-4.266325,10.955740,-3.765559,10.207327,-3.306069,10.187426,-3.299161,10.187221,-3.298978,10.186966,-3.298890,10.171361,-3.285014,9.407616,-2.857324,8.609121,-2.451229,7.795026,-2.077388,6.966634,-1.736399,6.125269,-1.428807,5.272278,-1.155105,4.409025,-0.915729,3.536890,-0.711063,2.657269,-0.541435,1.771568,-0.407115,0.881205,-0.308318,0.014550,-0.247106,
0.000000,-0.250000,-0.006285,-0.248750,-0.012623,-0.249681,-0.053911,-0.239277,-0.095671,-0.230970,-0.100998,-0.227411,-0.107211,-0.225845,-0.141375,-0.200432,-0.176777,-0.176777,-0.180336,-0.171450,-0.185477,-0.167626,-0.207315,-0.131074,-0.230970,-0.095671,-0.232220,-0.089387,-0.235506,-0.083887,-0.241693,-0.041761,-0.250000,0.000000,-0.248750,0.006284,-0.249681,0.012623,-0.239277,0.053911,
-0.230970,0.095671,-0.227411,0.100998,-0.225845,0.107211,-0.200432,0.141375,-0.176777,0.176777,-0.171449,0.180337,-0.167626,0.185477,-0.131074,0.207315,-0.095671,0.230970,-0.089387,0.232220,-0.083887,0.235506,-0.041766,0.241692,0.000000,0.250000,0.006284,0.248750,0.006284,0.248750,$1*%
%AMFreePoly1*
4,1,31,0.495671,0.780970,0.576777,0.726777,0.630970,0.645671,0.650000,0.550000,0.630970,0.454329,0.576777,0.373223,0.495671,0.319030,0.400000,0.300000,0.250000,0.300000,0.250000,-0.300000,0.400000,-0.300000,0.495671,-0.319030,0.576777,-0.373223,0.630970,-0.454329,0.650000,-0.550000,0.630970,-0.645671,0.576777,-0.726777,0.495671,-0.780970,0.400000,-0.800000,0.000000,-0.800000,
-0.095671,-0.780970,-0.176777,-0.726777,-0.230970,-0.645671,-0.250000,-0.550000,-0.250000,0.550000,-0.230970,0.645671,-0.176777,0.726777,-0.095671,0.780970,0.000000,0.800000,0.400000,0.800000,0.495671,0.780970,0.495671,0.780970,$1*%
%AMFreePoly2*
4,1,22,0.550000,-0.750000,0.000000,-0.750000,0.000000,-0.745033,-0.079941,-0.743568,-0.215256,-0.701293,-0.333266,-0.622738,-0.424486,-0.514219,-0.481581,-0.384460,-0.499164,-0.250000,-0.500000,-0.250000,-0.500000,0.250000,-0.499164,0.250000,-0.499963,0.256109,-0.478152,0.396186,-0.417904,0.524511,-0.324060,0.630769,-0.204165,0.706417,-0.067858,0.745374,0.000000,0.744959,0.000000,0.750000,
0.550000,0.750000,0.550000,-0.750000,0.550000,-0.750000,$1*%
%AMFreePoly3*
4,1,20,0.000000,0.744959,0.073905,0.744508,0.209726,0.703889,0.328688,0.626782,0.421226,0.519385,0.479903,0.390333,0.500000,0.250000,0.500000,-0.250000,0.499851,-0.262216,0.476331,-0.402017,0.414519,-0.529596,0.319384,-0.634700,0.198574,-0.708877,0.061801,-0.746166,0.000000,-0.745033,0.000000,-0.750000,-0.550000,-0.750000,-0.550000,0.750000,0.000000,0.750000,0.000000,0.744959,
0.000000,0.744959,$1*%
G04 Aperture macros list end*
%ADD10C,0.100000*%
%TA.AperFunction,NonConductor*%
%ADD11C,0.100000*%
%TD*%
%TA.AperFunction,EtchedComponent*%
%ADD12C,0.250000*%
%TD*%
%TA.AperFunction,EtchedComponent*%
%ADD13C,0.080000*%
%TD*%
%TA.AperFunction,SMDPad,CuDef*%
%ADD14R,1.978842X0.500000*%
%TD*%
%TA.AperFunction,SMDPad,CuDef*%
%ADD15R,1.400000X0.500000*%
%TD*%
%TA.AperFunction,SMDPad,CuDef*%
%ADD16R,1.250000X0.500000*%
%TD*%
%TA.AperFunction,SMDPad,CuDef*%
%ADD17R,1.000000X0.500000*%
%TD*%
%TA.AperFunction,ComponentPad*%
%ADD18C,0.500000*%
%TD*%
%TA.AperFunction,SMDPad,CuDef*%
%ADD19FreePoly0,0.000000*%
%TD*%
%TA.AperFunction,SMDPad,CuDef*%
%ADD20R,1.150000X1.900000*%
%TD*%
%TA.AperFunction,ComponentPad*%
%ADD21C,1.820000*%
%TD*%
%TA.AperFunction,SMDPad,CuDef*%
%ADD22FreePoly1,90.000000*%
%TD*%
%TA.AperFunction,SMDPad,CuDef*%
%ADD23FreePoly1,270.000000*%
%TD*%
%TA.AperFunction,SMDPad,CuDef*%
%ADD24R,1.300000X2.000000*%
%TD*%
%TA.AperFunction,SMDPad,CuDef*%
%ADD25RoundRect,0.200000X-0.200000X-0.275000X0.200000X-0.275000X0.200000X0.275000X-0.200000X0.275000X0*%
%TD*%
%TA.AperFunction,SMDPad,CuDef*%
%ADD26RoundRect,0.200000X0.275000X-0.200000X0.275000X0.200000X-0.275000X0.200000X-0.275000X-0.200000X0*%
%TD*%
%TA.AperFunction,SMDPad,CuDef*%
%ADD27RoundRect,0.200000X-0.275000X0.200000X-0.275000X-0.200000X0.275000X-0.200000X0.275000X0.200000X0*%
%TD*%
%TA.AperFunction,SMDPad,CuDef*%
%ADD28RoundRect,0.062500X-0.062500X0.287500X-0.062500X-0.287500X0.062500X-0.287500X0.062500X0.287500X0*%
%TD*%
%TA.AperFunction,SMDPad,CuDef*%
%ADD29RoundRect,0.062500X-0.287500X0.062500X-0.287500X-0.062500X0.287500X-0.062500X0.287500X0.062500X0*%
%TD*%
%TA.AperFunction,SMDPad,CuDef*%
%ADD30Outline5P,-2.200000X1.804000X-1.804000X2.200000X2.200000X2.200000X2.200000X-2.200000X-2.200000X-2.200000X270.000000*%
%TD*%
%TA.AperFunction,ComponentPad*%
%ADD31C,0.350000*%
%TD*%
%TA.AperFunction,SMDPad,CuDef*%
%ADD32RoundRect,0.200000X0.200000X0.275000X-0.200000X0.275000X-0.200000X-0.275000X0.200000X-0.275000X0*%
%TD*%
%TA.AperFunction,SMDPad,CuDef*%
%ADD33R,2.510000X1.000000*%
%TD*%
%TA.AperFunction,SMDPad,CuDef*%
%ADD34R,1.000000X2.510000*%
%TD*%
%TA.AperFunction,SMDPad,CuDef*%
%ADD35RoundRect,0.225000X0.225000X0.250000X-0.225000X0.250000X-0.225000X-0.250000X0.225000X-0.250000X0*%
%TD*%
%TA.AperFunction,SMDPad,CuDef*%
%ADD36FreePoly2,0.000000*%
%TD*%
%TA.AperFunction,SMDPad,CuDef*%
%ADD37R,1.000000X1.500000*%
%TD*%
%TA.AperFunction,SMDPad,CuDef*%
%ADD38FreePoly3,0.000000*%
%TD*%
%TA.AperFunction,SMDPad,CuDef*%
%ADD39RoundRect,0.242760X0.321734X-0.699668X0.699668X-0.321734X-0.321734X0.699668X-0.699668X0.321734X0*%
%TD*%
%TA.AperFunction,SMDPad,CuDef*%
%ADD40RoundRect,0.166600X0.636396X-0.895763X0.895763X-0.636396X-0.636396X0.895763X-0.895763X0.636396X0*%
%TD*%
%TA.AperFunction,SMDPad,CuDef*%
%ADD41RoundRect,0.242760X-0.699668X-0.321734X-0.321734X-0.699668X0.699668X0.321734X0.321734X0.699668X0*%
%TD*%
%TA.AperFunction,SMDPad,CuDef*%
%ADD42RoundRect,0.166600X-0.895763X-0.636396X-0.636396X-0.895763X0.895763X0.636396X0.636396X0.895763X0*%
%TD*%
%TA.AperFunction,SMDPad,CuDef*%
%ADD43R,0.650000X0.400000*%
%TD*%
%TA.AperFunction,SMDPad,CuDef*%
%ADD44R,0.400000X0.200000*%
%TD*%
%TA.AperFunction,SMDPad,CuDef*%
%ADD45R,0.200000X0.800000*%
%TD*%
%TA.AperFunction,SMDPad,CuDef*%
%ADD46R,0.800000X0.200000*%
%TD*%
%TA.AperFunction,SMDPad,CuDef*%
%ADD47R,0.200000X0.600000*%
%TD*%
%TA.AperFunction,SMDPad,CuDef*%
%ADD48R,0.200000X0.400000*%
%TD*%
%TA.AperFunction,SMDPad,CuDef*%
%ADD49R,0.200000X0.200000*%
%TD*%
%TA.AperFunction,SMDPad,CuDef*%
%ADD50R,0.600000X0.600000*%
%TD*%
%TA.AperFunction,SMDPad,CuDef*%
%ADD51R,0.600000X0.200000*%
%TD*%
%TA.AperFunction,SMDPad,CuDef*%
%ADD52R,0.200000X1.000000*%
%TD*%
%TA.AperFunction,SMDPad,CuDef*%
%ADD53R,0.200000X1.400000*%
%TD*%
%TA.AperFunction,SMDPad,CuDef*%
%ADD54R,1.200000X0.200000*%
%TD*%
%TA.AperFunction,SMDPad,CuDef*%
%ADD55R,0.600000X0.400000*%
%TD*%
%TA.AperFunction,ViaPad*%
%ADD56C,0.800000*%
%TD*%
%TA.AperFunction,Conductor*%
%ADD57C,0.250000*%
%TD*%
%TA.AperFunction,Conductor*%
%ADD58C,0.500000*%
%TD*%
G04 APERTURE END LIST*
D10*
%TO.C,U2*%
D11*
X103373809Y-114928571D02*
X103350000Y-114904761D01*
X103326190Y-114857142D01*
X103326190Y-114738095D01*
X103350000Y-114690476D01*
X103373809Y-114666666D01*
X103421428Y-114642857D01*
X103469047Y-114642857D01*
X103540476Y-114666666D01*
X103826190Y-114952380D01*
X103826190Y-114642857D01*
X103326190Y-114333333D02*
X103326190Y-114285714D01*
X103350000Y-114238095D01*
X103373809Y-114214285D01*
X103421428Y-114190476D01*
X103516666Y-114166666D01*
X103635714Y-114166666D01*
X103730952Y-114190476D01*
X103778571Y-114214285D01*
X103802380Y-114238095D01*
X103826190Y-114285714D01*
X103826190Y-114333333D01*
X103802380Y-114380952D01*
X103778571Y-114404761D01*
X103730952Y-114428571D01*
X103635714Y-114452380D01*
X103516666Y-114452380D01*
X103421428Y-114428571D01*
X103373809Y-114404761D01*
X103350000Y-114380952D01*
X103326190Y-114333333D01*
X103373809Y-113976190D02*
X103350000Y-113952380D01*
X103326190Y-113904761D01*
X103326190Y-113785714D01*
X103350000Y-113738095D01*
X103373809Y-113714285D01*
X103421428Y-113690476D01*
X103469047Y-113690476D01*
X103540476Y-113714285D01*
X103826190Y-114000000D01*
X103826190Y-113690476D01*
X103373809Y-113500000D02*
X103350000Y-113476190D01*
X103326190Y-113428571D01*
X103326190Y-113309523D01*
X103350000Y-113261904D01*
X103373809Y-113238095D01*
X103421428Y-113214285D01*
X103469047Y-113214285D01*
X103540476Y-113238095D01*
X103826190Y-113523809D01*
X103826190Y-113214285D01*
X103635714Y-113000000D02*
X103635714Y-112619047D01*
X103326190Y-112285714D02*
X103326190Y-112238095D01*
X103350000Y-112190476D01*
X103373809Y-112166666D01*
X103421428Y-112142857D01*
X103516666Y-112119047D01*
X103635714Y-112119047D01*
X103730952Y-112142857D01*
X103778571Y-112166666D01*
X103802380Y-112190476D01*
X103826190Y-112238095D01*
X103826190Y-112285714D01*
X103802380Y-112333333D01*
X103778571Y-112357142D01*
X103730952Y-112380952D01*
X103635714Y-112404761D01*
X103516666Y-112404761D01*
X103421428Y-112380952D01*
X103373809Y-112357142D01*
X103350000Y-112333333D01*
X103326190Y-112285714D01*
X103326190Y-111690476D02*
X103326190Y-111785714D01*
X103350000Y-111833333D01*
X103373809Y-111857142D01*
X103445238Y-111904761D01*
X103540476Y-111928571D01*
X103730952Y-111928571D01*
X103778571Y-111904761D01*
X103802380Y-111880952D01*
X103826190Y-111833333D01*
X103826190Y-111738095D01*
X103802380Y-111690476D01*
X103778571Y-111666666D01*
X103730952Y-111642857D01*
X103611904Y-111642857D01*
X103564285Y-111666666D01*
X103540476Y-111690476D01*
X103516666Y-111738095D01*
X103516666Y-111833333D01*
X103540476Y-111880952D01*
X103564285Y-111904761D01*
X103611904Y-111928571D01*
X103635714Y-111428571D02*
X103635714Y-111047619D01*
X103373809Y-110833333D02*
X103350000Y-110809523D01*
X103326190Y-110761904D01*
X103326190Y-110642857D01*
X103350000Y-110595238D01*
X103373809Y-110571428D01*
X103421428Y-110547619D01*
X103469047Y-110547619D01*
X103540476Y-110571428D01*
X103826190Y-110857142D01*
X103826190Y-110547619D01*
X103373809Y-110357142D02*
X103350000Y-110333333D01*
X103326190Y-110285714D01*
X103326190Y-110166666D01*
X103350000Y-110119047D01*
X103373809Y-110095238D01*
X103421428Y-110071428D01*
X103469047Y-110071428D01*
X103540476Y-110095238D01*
X103826190Y-110380952D01*
X103826190Y-110071428D01*
%TO.C,JP1*%
G36*
X94250000Y-102160000D02*
G01*
X93750000Y-102160000D01*
X93750000Y-101760000D01*
X94250000Y-101760000D01*
X94250000Y-102160000D01*
G37*
D12*
%TO.C,AJK1*%
X90900000Y-90125000D02*
X89100000Y-92125000D01*
D13*
X88350000Y-94235000D02*
X88450000Y-94375000D01*
D12*
X89100000Y-90025000D02*
X86100000Y-94225000D01*
X89100000Y-92125000D02*
X87600000Y-92125000D01*
D13*
X88250000Y-94075000D02*
X88250000Y-94375000D01*
D12*
X89100000Y-92125000D02*
X90900000Y-94225000D01*
D13*
X88250000Y-94235000D02*
X88350000Y-94235000D01*
X88250000Y-94075000D02*
X88350000Y-94075000D01*
D12*
X89100000Y-90025000D02*
X89100000Y-94225000D01*
X87600000Y-94225000D02*
G75*
G03*
X89100000Y-94225000I750000J0D01*
G01*
D13*
X88350000Y-94235000D02*
G75*
G03*
X88350000Y-94075000I0J80000D01*
G01*
X88630000Y-94235000D02*
G75*
G03*
X88630000Y-94235000I-300000J0D01*
G01*
%TD*%
D14*
%TO.P,A1,*%
%TO.N,*%
X100000000Y-77588534D03*
D15*
%TO.P,A1,2*%
%TO.N,GND*%
X100000000Y-79588534D03*
D16*
%TO.P,A1,*%
%TO.N,*%
X98101154Y-79694921D03*
X101898846Y-79694921D03*
D17*
%TO.P,A1,3*%
%TO.N,Net-(A1-Pad3)*%
X98226154Y-81294921D03*
%TO.P,A1,1*%
%TO.N,Net-(A1-Pad1)*%
X101773846Y-81294921D03*
D18*
%TO.P,A1,*%
%TO.N,*%
X102523846Y-79694921D03*
X100989421Y-77588534D03*
D19*
X100989421Y-77588534D03*
D18*
X99010579Y-77588534D03*
%TD*%
D20*
%TO.P,Y1,1,1*%
%TO.N,Net-(C16-Pad1)*%
X93075000Y-95210000D03*
%TO.P,Y1,2,2*%
%TO.N,GND*%
X93075000Y-97910000D03*
%TO.P,Y1,3,3*%
%TO.N,Net-(C17-Pad1)*%
X94675000Y-97910000D03*
%TO.P,Y1,4,4*%
%TO.N,GND*%
X94675000Y-95210000D03*
%TD*%
D21*
%TO.P,D2,*%
%TO.N,*%
X112500000Y-100000000D03*
D22*
%TO.P,D2,1,K*%
%TO.N,GND*%
X112500000Y-101625000D03*
D23*
%TO.P,D2,2,A*%
%TO.N,Net-(D2-Pad2)*%
X112500000Y-98375000D03*
%TD*%
D21*
%TO.P,D3,*%
%TO.N,*%
X112500000Y-95000000D03*
D22*
%TO.P,D3,1,K*%
%TO.N,GND*%
X112500000Y-96625000D03*
D23*
%TO.P,D3,2,A*%
%TO.N,Net-(D3-Pad2)*%
X112500000Y-93375000D03*
%TD*%
D24*
%TO.P,SW1,*%
%TO.N,*%
X90750000Y-95800000D03*
X86250000Y-95800000D03*
%TO.P,SW1,1,1*%
%TO.N,GND*%
X90750000Y-104200000D03*
%TO.P,SW1,2,2*%
%TO.N,Net-(J2-Pad2)*%
X86250000Y-104200000D03*
%TD*%
D21*
%TO.P,D1,*%
%TO.N,*%
X112500000Y-105000000D03*
D22*
%TO.P,D1,1,K*%
%TO.N,GND*%
X112500000Y-106625000D03*
D23*
%TO.P,D1,2,A*%
%TO.N,Net-(D1-Pad2)*%
X112500000Y-103375000D03*
%TD*%
D25*
%TO.P,C7,1*%
%TO.N,+3V3*%
X100600000Y-91760000D03*
%TO.P,C7,2*%
%TO.N,GND*%
X102150000Y-91760000D03*
%TD*%
D26*
%TO.P,C3,1*%
%TO.N,Net-(C3-Pad1)*%
X103800000Y-84860000D03*
%TO.P,C3,2*%
%TO.N,Net-(A1-Pad1)*%
X103800000Y-83310000D03*
%TD*%
D25*
%TO.P,C5,1*%
%TO.N,GND*%
X100925000Y-84835000D03*
%TO.P,C5,2*%
%TO.N,Net-(C3-Pad1)*%
X102475000Y-84835000D03*
%TD*%
%TO.P,R6,1*%
%TO.N,Net-(R6-Pad1)*%
X108175000Y-92360000D03*
%TO.P,R6,2*%
%TO.N,+5V*%
X109825000Y-92360000D03*
%TD*%
%TO.P,R4,1*%
%TO.N,Net-(C8-Pad2)*%
X93075000Y-84835000D03*
%TO.P,R4,2*%
%TO.N,Net-(C4-Pad2)*%
X94725000Y-84835000D03*
%TD*%
D27*
%TO.P,C13,1*%
%TO.N,+3V3*%
X106150000Y-95385000D03*
%TO.P,C13,2*%
%TO.N,GND*%
X106150000Y-96935000D03*
%TD*%
D25*
%TO.P,C14,1*%
%TO.N,+5V*%
X104625000Y-93860000D03*
%TO.P,C14,2*%
%TO.N,GND*%
X106175000Y-93860000D03*
%TD*%
%TO.P,C9,1*%
%TO.N,Net-(C9-Pad1)*%
X93100000Y-91310000D03*
%TO.P,C9,2*%
%TO.N,GND*%
X94650000Y-91310000D03*
%TD*%
%TO.P,C16,1*%
%TO.N,Net-(C16-Pad1)*%
X93100000Y-94060000D03*
%TO.P,C16,2*%
%TO.N,GND*%
X94650000Y-94060000D03*
%TD*%
%TO.P,R9,1*%
%TO.N,Net-(R9-Pad1)*%
X108175000Y-96860000D03*
%TO.P,R9,2*%
%TO.N,Net-(D2-Pad2)*%
X109825000Y-96860000D03*
%TD*%
%TO.P,R8,1*%
%TO.N,Net-(R8-Pad1)*%
X108175000Y-98360000D03*
%TO.P,R8,2*%
%TO.N,Net-(D1-Pad2)*%
X109825000Y-98360000D03*
%TD*%
D26*
%TO.P,R11,1*%
%TO.N,+3V3*%
X99300000Y-102535000D03*
%TO.P,R11,2*%
%TO.N,Net-(J2-Pad2)*%
X99300000Y-100885000D03*
%TD*%
D28*
%TO.P,U1,1,DVSS*%
%TO.N,GND*%
X102250000Y-93660000D03*
%TO.P,U1,2,LOADMOD*%
%TO.N,unconnected-(U1-Pad2)*%
X101750000Y-93660000D03*
%TO.P,U1,3,TVSS1*%
%TO.N,GND*%
X101250000Y-93660000D03*
%TO.P,U1,4,TX1*%
%TO.N,Net-(L1-Pad1)*%
X100750000Y-93660000D03*
%TO.P,U1,5,TVDD*%
%TO.N,+3V3*%
X100250000Y-93660000D03*
%TO.P,U1,6,TX2*%
%TO.N,Net-(L2-Pad2)*%
X99750000Y-93660000D03*
%TO.P,U1,7,TVSS2*%
%TO.N,GND*%
X99250000Y-93660000D03*
%TO.P,U1,8,AVDD*%
%TO.N,+3V3*%
X98750000Y-93660000D03*
%TO.P,U1,9,VMID*%
%TO.N,Net-(C9-Pad1)*%
X98250000Y-93660000D03*
%TO.P,U1,10,RX*%
%TO.N,Net-(C8-Pad1)*%
X97750000Y-93660000D03*
D29*
%TO.P,U1,11,AVSS*%
%TO.N,GND*%
X97100000Y-94310000D03*
%TO.P,U1,12,AUX1*%
%TO.N,unconnected-(U1-Pad12)*%
X97100000Y-94810000D03*
%TO.P,U1,13,AUX2*%
%TO.N,unconnected-(U1-Pad13)*%
X97100000Y-95310000D03*
%TO.P,U1,14,OSCIN*%
%TO.N,Net-(C16-Pad1)*%
X97100000Y-95810000D03*
%TO.P,U1,15,OSCOUT*%
%TO.N,Net-(C17-Pad1)*%
X97100000Y-96310000D03*
%TO.P,U1,16,I0*%
%TO.N,GND*%
X97100000Y-96810000D03*
%TO.P,U1,17,I1*%
%TO.N,Net-(JP1-Pad2)*%
X97100000Y-97310000D03*
%TO.P,U1,18,TESTEN*%
%TO.N,GND*%
X97100000Y-97810000D03*
%TO.P,U1,19,P35*%
%TO.N,unconnected-(U1-Pad19)*%
X97100000Y-98310000D03*
%TO.P,U1,20,NC*%
%TO.N,unconnected-(U1-Pad20)*%
X97100000Y-98810000D03*
D28*
%TO.P,U1,21,NC*%
%TO.N,unconnected-(U1-Pad21)*%
X97750000Y-99460000D03*
%TO.P,U1,22,NC*%
%TO.N,unconnected-(U1-Pad22)*%
X98250000Y-99460000D03*
%TO.P,U1,23,PVDD*%
%TO.N,+3V3*%
X98750000Y-99460000D03*
%TO.P,U1,24,P30/UART_RX*%
%TO.N,Net-(J2-Pad2)*%
X99250000Y-99460000D03*
%TO.P,U1,25,P70_IRQ*%
%TO.N,unconnected-(U1-Pad25)*%
X99750000Y-99460000D03*
%TO.P,U1,26,RSTOUT_N*%
%TO.N,unconnected-(U1-Pad26)*%
X100250000Y-99460000D03*
%TO.P,U1,27,NSS/P50_SCL/HSU_RX*%
%TO.N,Net-(C19-Pad1)*%
X100750000Y-99460000D03*
%TO.P,U1,28,MOSI/SDA/HSU_TX*%
%TO.N,Net-(D6-Pad6)*%
X101250000Y-99460000D03*
%TO.P,U1,29,MISO/P71*%
%TO.N,unconnected-(U1-Pad29)*%
X101750000Y-99460000D03*
%TO.P,U1,30,SCK/P72*%
%TO.N,Net-(D4-Pad3)*%
X102250000Y-99460000D03*
D29*
%TO.P,U1,31,P31/DBG_TX*%
%TO.N,Net-(R8-Pad1)*%
X102900000Y-98810000D03*
%TO.P,U1,32,P32_INT0*%
%TO.N,Net-(R9-Pad1)*%
X102900000Y-98310000D03*
%TO.P,U1,33,P33_INT1*%
%TO.N,Net-(R10-Pad1)*%
X102900000Y-97810000D03*
%TO.P,U1,34,P34/SIG_CLK*%
%TO.N,unconnected-(U1-Pad34)*%
X102900000Y-97310000D03*
%TO.P,U1,35,SIGOUT*%
%TO.N,unconnected-(U1-Pad35)*%
X102900000Y-96810000D03*
%TO.P,U1,36,SIGN*%
%TO.N,unconnected-(U1-Pad36)*%
X102900000Y-96310000D03*
%TO.P,U1,37,SVDD*%
%TO.N,unconnected-(U1-Pad37)*%
X102900000Y-95810000D03*
%TO.P,U1,38,RSTPD_N*%
%TO.N,Net-(R6-Pad1)*%
X102900000Y-95310000D03*
%TO.P,U1,39,DVDD*%
%TO.N,+3V3*%
X102900000Y-94810000D03*
%TO.P,U1,40,VBAT*%
%TO.N,+5V*%
X102900000Y-94310000D03*
D30*
%TO.P,U1,41,COPPER*%
%TO.N,GND*%
X100000000Y-96560000D03*
D31*
X100000000Y-96560000D03*
X99000000Y-95560000D03*
X99000000Y-97560000D03*
X101000000Y-97560000D03*
X101000000Y-95560000D03*
%TD*%
D32*
%TO.P,C17,1*%
%TO.N,Net-(C17-Pad1)*%
X94650000Y-99060000D03*
%TO.P,C17,2*%
%TO.N,GND*%
X93100000Y-99060000D03*
%TD*%
D33*
%TO.P,J1,1,Pin_1*%
%TO.N,GND*%
X106345000Y-109270000D03*
%TO.P,J1,2,Pin_2*%
%TO.N,Net-(J1-Pad2)*%
X109655000Y-106730000D03*
%TD*%
D32*
%TO.P,C12,1*%
%TO.N,+3V3*%
X99400000Y-90410000D03*
%TO.P,C12,2*%
%TO.N,GND*%
X97850000Y-90410000D03*
%TD*%
D27*
%TO.P,R5,1*%
%TO.N,Net-(C8-Pad1)*%
X93100000Y-88585000D03*
%TO.P,R5,2*%
%TO.N,Net-(C9-Pad1)*%
X93100000Y-90235000D03*
%TD*%
D25*
%TO.P,R7,1*%
%TO.N,Net-(R6-Pad1)*%
X108175000Y-93860000D03*
%TO.P,R7,2*%
%TO.N,GND*%
X109825000Y-93860000D03*
%TD*%
%TO.P,R10,1*%
%TO.N,Net-(R10-Pad1)*%
X108175000Y-95360000D03*
%TO.P,R10,2*%
%TO.N,Net-(D3-Pad2)*%
X109825000Y-95360000D03*
%TD*%
D26*
%TO.P,C18,1*%
%TO.N,+3V3*%
X97700000Y-102485000D03*
%TO.P,C18,2*%
%TO.N,GND*%
X97700000Y-100935000D03*
%TD*%
D27*
%TO.P,C11,1*%
%TO.N,+3V3*%
X104650000Y-95385000D03*
%TO.P,C11,2*%
%TO.N,GND*%
X104650000Y-96935000D03*
%TD*%
D26*
%TO.P,C8,1*%
%TO.N,Net-(C8-Pad1)*%
X93100000Y-87535000D03*
%TO.P,C8,2*%
%TO.N,Net-(C8-Pad2)*%
X93100000Y-85985000D03*
%TD*%
D34*
%TO.P,J3,1,Pin_1*%
%TO.N,GND*%
X96190000Y-104845000D03*
%TO.P,J3,2,Pin_2*%
%TO.N,+5V*%
X98730000Y-108155000D03*
%TO.P,J3,3,Pin_3*%
%TO.N,Net-(J3-Pad3)*%
X101270000Y-104845000D03*
%TO.P,J3,4,Pin_4*%
%TO.N,Net-(J3-Pad4)*%
X103810000Y-108155000D03*
%TD*%
D25*
%TO.P,C10,1*%
%TO.N,+3V3*%
X100600000Y-90410000D03*
%TO.P,C10,2*%
%TO.N,GND*%
X102150000Y-90410000D03*
%TD*%
D35*
%TO.P,C1,1*%
%TO.N,Net-(A1-Pad1)*%
X102475000Y-82460000D03*
X102475000Y-83660000D03*
%TO.P,C1,2*%
%TO.N,GND*%
X100925000Y-82460000D03*
X100925000Y-83660000D03*
%TD*%
D32*
%TO.P,C6,1*%
%TO.N,GND*%
X99075000Y-84835000D03*
%TO.P,C6,2*%
%TO.N,Net-(C4-Pad2)*%
X97525000Y-84835000D03*
%TD*%
D26*
%TO.P,R15,1*%
%TO.N,+3V3*%
X105600000Y-102535000D03*
%TO.P,R15,2*%
%TO.N,Net-(D4-Pad3)*%
X105600000Y-100885000D03*
%TD*%
D36*
%TO.P,JP1,1,A*%
%TO.N,GND*%
X93350000Y-101960000D03*
D37*
%TO.P,JP1,2,C*%
%TO.N,Net-(JP1-Pad2)*%
X94650000Y-101960000D03*
D38*
%TO.P,JP1,3,B*%
%TO.N,+3V3*%
X95950000Y-101960000D03*
%TD*%
D25*
%TO.P,R13,1*%
%TO.N,Net-(J3-Pad3)*%
X100825000Y-102460000D03*
%TO.P,R13,2*%
%TO.N,Net-(D6-Pad6)*%
X102475000Y-102460000D03*
%TD*%
%TO.P,C15,1*%
%TO.N,+3V3*%
X93100000Y-92660000D03*
%TO.P,C15,2*%
%TO.N,GND*%
X94650000Y-92660000D03*
%TD*%
D32*
%TO.P,R14,1*%
%TO.N,Net-(J3-Pad4)*%
X102475000Y-100960000D03*
%TO.P,R14,2*%
%TO.N,Net-(C19-Pad1)*%
X100825000Y-100960000D03*
%TD*%
D39*
%TO.P,L1,1,1*%
%TO.N,Net-(L1-Pad1)*%
X102260051Y-88549949D03*
D40*
X102542893Y-88267107D03*
%TO.P,L1,2,2*%
%TO.N,Net-(C3-Pad1)*%
X103957107Y-86852893D03*
D39*
X104239949Y-86570051D03*
%TD*%
D41*
%TO.P,L2,1,1*%
%TO.N,Net-(C4-Pad2)*%
X95760051Y-86570051D03*
D42*
X96042893Y-86852893D03*
%TO.P,L2,2,2*%
%TO.N,Net-(L2-Pad2)*%
X97457107Y-88267107D03*
D41*
X97739949Y-88549949D03*
%TD*%
D27*
%TO.P,C4,1*%
%TO.N,Net-(A1-Pad3)*%
X96200000Y-83310000D03*
%TO.P,C4,2*%
%TO.N,Net-(C4-Pad2)*%
X96200000Y-84860000D03*
%TD*%
%TO.P,R12,1*%
%TO.N,Net-(D4-Pad3)*%
X104000000Y-100885000D03*
%TO.P,R12,2*%
%TO.N,Net-(J1-Pad2)*%
X104000000Y-102535000D03*
%TD*%
D43*
%TO.P,D5,1,A1*%
%TO.N,GND*%
X108050000Y-89810000D03*
%TO.P,D5,2,K2*%
%TO.N,+3V3*%
X108050000Y-90460000D03*
%TO.P,D5,3,K1A2*%
%TO.N,Net-(D3-Pad2)*%
X108050000Y-91110000D03*
%TO.P,D5,4,A3*%
%TO.N,GND*%
X109950000Y-91110000D03*
%TO.P,D5,5,K4*%
%TO.N,+3V3*%
X109950000Y-90460000D03*
%TO.P,D5,6,K3A4*%
%TO.N,Net-(D2-Pad2)*%
X109950000Y-89810000D03*
%TD*%
D44*
%TO.P,U2,*%
%TO.N,*%
X99900000Y-112100000D03*
D45*
X100400000Y-113400000D03*
D46*
X99900000Y-113100000D03*
D47*
X100400000Y-111900000D03*
D44*
X99700000Y-114100000D03*
D48*
X99200000Y-112200000D03*
D49*
X100200000Y-111100000D03*
D50*
X98600000Y-113900000D03*
D47*
X99600000Y-112500000D03*
D49*
X101800000Y-112700000D03*
D44*
X98100000Y-112100000D03*
D48*
X100000000Y-114000000D03*
D49*
X102000000Y-112500000D03*
X99000000Y-112300000D03*
D51*
X98200000Y-112900000D03*
D49*
X101600000Y-112900000D03*
D51*
X99000000Y-112900000D03*
D48*
X99400000Y-112000000D03*
D47*
X100400000Y-114300000D03*
D44*
X98100000Y-111100000D03*
D52*
X100800000Y-113900000D03*
D44*
X99700000Y-113700000D03*
D51*
X101200000Y-112700000D03*
D49*
X98200000Y-110700000D03*
X98800000Y-111300000D03*
D53*
X102000000Y-113900000D03*
D49*
X100600000Y-112300000D03*
D46*
X99300000Y-110500000D03*
D53*
X99200000Y-113900000D03*
D50*
X101400000Y-111100000D03*
D51*
X98600000Y-112500000D03*
D44*
X100300000Y-110900000D03*
D49*
X98800000Y-110900000D03*
D54*
X100500000Y-112500000D03*
D49*
X98200000Y-112700000D03*
D44*
X99700000Y-111500000D03*
D49*
X99600000Y-113300000D03*
D54*
X101300000Y-110500000D03*
D49*
X98800000Y-111700000D03*
X99800000Y-111900000D03*
D52*
X100800000Y-111100000D03*
D48*
X101400000Y-112200000D03*
D50*
X101400000Y-113900000D03*
D51*
X98200000Y-110500000D03*
X100600000Y-112900000D03*
D54*
X98500000Y-113300000D03*
X101300000Y-113300000D03*
D44*
X101900000Y-112100000D03*
D52*
X98000000Y-113900000D03*
D55*
X100000000Y-114400000D03*
D49*
X100000000Y-111300000D03*
X98000000Y-111500000D03*
D51*
X99000000Y-111500000D03*
D49*
X98400000Y-111500000D03*
D53*
X102000000Y-111100000D03*
D47*
X99400000Y-112700000D03*
D48*
X100200000Y-110600000D03*
D49*
X98600000Y-110700000D03*
D46*
X99900000Y-111700000D03*
D54*
X98500000Y-114500000D03*
X101300000Y-111700000D03*
D49*
X100000000Y-113300000D03*
D51*
X98800000Y-111900000D03*
D54*
X101300000Y-114500000D03*
D44*
X99300000Y-111300000D03*
D48*
X99200000Y-111000000D03*
X101600000Y-112400000D03*
D49*
X99800000Y-112900000D03*
D51*
X98200000Y-112300000D03*
D49*
X100200000Y-112700000D03*
D44*
X100900000Y-112100000D03*
D49*
X99000000Y-112700000D03*
X100200000Y-112300000D03*
%TD*%
D25*
%TO.P,C19,1*%
%TO.N,Net-(C19-Pad1)*%
X108225000Y-104760000D03*
%TO.P,C19,2*%
%TO.N,GND*%
X109775000Y-104760000D03*
%TD*%
D43*
%TO.P,D4,1,A1*%
%TO.N,GND*%
X108050000Y-99610000D03*
%TO.P,D4,2,K2*%
%TO.N,+3V3*%
X108050000Y-100260000D03*
%TO.P,D4,3,K1A2*%
%TO.N,Net-(D4-Pad3)*%
X108050000Y-100910000D03*
%TO.P,D4,4,A3*%
%TO.N,GND*%
X109950000Y-100910000D03*
%TO.P,D4,5,K4*%
%TO.N,+3V3*%
X109950000Y-100260000D03*
%TO.P,D4,6,K3A4*%
%TO.N,Net-(D1-Pad2)*%
X109950000Y-99610000D03*
%TD*%
%TO.P,D6,1,A1*%
%TO.N,GND*%
X109950000Y-103510000D03*
%TO.P,D6,2,K2*%
%TO.N,+3V3*%
X109950000Y-102860000D03*
%TO.P,D6,3,K1A2*%
%TO.N,Net-(C19-Pad1)*%
X109950000Y-102210000D03*
%TO.P,D6,4,A3*%
%TO.N,GND*%
X108050000Y-102210000D03*
%TO.P,D6,5,K4*%
%TO.N,+3V3*%
X108050000Y-102860000D03*
%TO.P,D6,6,K3A4*%
%TO.N,Net-(D6-Pad6)*%
X108050000Y-103510000D03*
%TD*%
D35*
%TO.P,C2,1*%
%TO.N,GND*%
X99075000Y-82460000D03*
X99075000Y-83660000D03*
%TO.P,C2,2*%
%TO.N,Net-(A1-Pad3)*%
X97525000Y-83660000D03*
X97525000Y-82460000D03*
%TD*%
D33*
%TO.P,J2,1,Pin_1*%
%TO.N,GND*%
X93655000Y-109270000D03*
%TO.P,J2,2,Pin_2*%
%TO.N,Net-(J2-Pad2)*%
X90345000Y-106730000D03*
%TD*%
D56*
%TO.N,GND*%
X104400000Y-99860000D03*
X93000000Y-100134500D03*
X105514175Y-97403682D03*
X100000000Y-89385000D03*
X109000000Y-103830000D03*
X97053825Y-99939076D03*
X104250000Y-91750000D03*
X97195244Y-103717690D03*
X106175000Y-92060000D03*
X109000000Y-99535500D03*
X98769153Y-104068465D03*
X109000000Y-102135000D03*
X112250000Y-102500000D03*
X95950000Y-94735000D03*
%TO.N,+3V3*%
X97350000Y-91760000D03*
X107100000Y-92960000D03*
X92200000Y-89410000D03*
X107100000Y-100459989D03*
X107100000Y-102460000D03*
X91400000Y-102560000D03*
X99522431Y-91240773D03*
%TO.N,+5V*%
X105250000Y-92660000D03*
X109000000Y-90935000D03*
X100000000Y-104250000D03*
X105250000Y-90935000D03*
%TO.N,Net-(D2-Pad2)*%
X109013557Y-96242734D03*
X110799502Y-90500000D03*
%TO.N,Net-(C9-Pad1)*%
X94200000Y-90260000D03*
X96424500Y-92484500D03*
%TO.N,Net-(D6-Pad6)*%
X103000000Y-103750000D03*
X106250000Y-103500000D03*
%TO.N,Net-(C19-Pad1)*%
X105432888Y-104149500D03*
X102294502Y-104500000D03*
%TD*%
D57*
%TO.N,Net-(J2-Pad2)*%
X100156699Y-102156658D02*
G75*
G03*
X99863208Y-101448208I-1001899J-42D01*
G01*
X99300000Y-100885000D02*
X99863208Y-101448208D01*
X99398448Y-103350519D02*
G75*
G03*
X99935109Y-103128205I-48J759019D01*
G01*
X99398448Y-103350499D02*
X98649501Y-103350499D01*
X97999999Y-104000000D02*
G75*
G02*
X98649501Y-103350499I649501J0D01*
G01*
X97618850Y-105670166D02*
G75*
G03*
X98000000Y-104750000I-920150J920166D01*
G01*
X95554239Y-106730016D02*
G75*
G03*
X97269511Y-106019511I-39J2425816D01*
G01*
X86250000Y-104200000D02*
G75*
G03*
X88780000Y-106730000I2530000J0D01*
G01*
X99935099Y-103128195D02*
G75*
G03*
X100156658Y-102593342I-534899J534895D01*
G01*
X100156658Y-102156658D02*
X100156658Y-102593342D01*
X98000000Y-104000000D02*
X98000000Y-104750000D01*
X97618853Y-105670169D02*
X97269511Y-106019511D01*
X95554239Y-106730000D02*
X88780000Y-106730000D01*
%TO.N,GND*%
X96178854Y-108428854D02*
X95803854Y-108803854D01*
X97517510Y-107090197D02*
X96178854Y-108428854D01*
X97517523Y-107090210D02*
G75*
G03*
X98769153Y-104068465I-3021723J3021710D01*
G01*
D58*
%TO.N,+5V*%
X98730022Y-107316051D02*
G75*
G02*
X100000001Y-104250001I4335978J51D01*
G01*
X98730000Y-107316051D02*
X98730000Y-108155000D01*
D57*
%TO.N,GND*%
X94678479Y-109269990D02*
G75*
G03*
X95803853Y-108803853I21J1591490D01*
G01*
X94678479Y-109270000D02*
X93655000Y-109270000D01*
X96975075Y-103783963D02*
G75*
G03*
X96190001Y-104810000I280425J-1027937D01*
G01*
X96975066Y-103783932D02*
X97129002Y-103783932D01*
X96190000Y-104845000D02*
X96190000Y-104810000D01*
X97129002Y-103783932D02*
X97195244Y-103717690D01*
%TO.N,Net-(C19-Pad1)*%
X102100499Y-103899501D02*
X102100499Y-104305997D01*
X101787055Y-103212945D02*
X101836668Y-103262558D01*
X102100490Y-103899501D02*
G75*
G03*
X101836668Y-103262558I-900790J1D01*
G01*
X101787054Y-103212946D02*
G75*
G02*
X101498286Y-102515795I697146J697146D01*
G01*
X101498286Y-101948423D02*
X101498286Y-102515795D01*
X100825000Y-100960000D02*
X100825000Y-101349283D01*
X100825000Y-101349283D02*
X100900860Y-101351012D01*
X101304093Y-101545195D02*
X101398690Y-101663813D01*
X100900860Y-101351012D02*
X101048776Y-101384773D01*
X101048776Y-101384773D02*
X101185472Y-101450600D01*
X101185472Y-101450600D02*
X101304093Y-101545195D01*
X101398690Y-101663813D02*
X101464522Y-101800507D01*
X101464522Y-101800507D02*
X101498286Y-101948423D01*
X102100499Y-104305997D02*
X102294502Y-104500000D01*
X105432888Y-104149500D02*
X106751123Y-104149500D01*
X108224993Y-104760007D02*
G75*
G03*
X106751123Y-104149500I-1473893J-1473893D01*
G01*
%TO.N,+3V3*%
X107100000Y-102460000D02*
X105781066Y-102460000D01*
X105600010Y-102535010D02*
G75*
G02*
X105781066Y-102460000I181090J-181090D01*
G01*
%TO.N,Net-(J3-Pad4)*%
X103149501Y-102100499D02*
X103149501Y-102649501D01*
X103252537Y-102898255D02*
G75*
G02*
X103149501Y-102649501I248763J248755D01*
G01*
X103252538Y-102898254D02*
X103427142Y-103072858D01*
X103149506Y-102100499D02*
G75*
G03*
X102819989Y-101304991I-1125006J-1D01*
G01*
X103649509Y-103609680D02*
G75*
G03*
X103427142Y-103072858I-759209J-20D01*
G01*
X102475000Y-100960000D02*
X102819990Y-101304990D01*
X103649501Y-103609680D02*
X103649501Y-107994501D01*
X103649501Y-107994501D02*
X103810000Y-108155000D01*
D58*
%TO.N,GND*%
X106175000Y-92060000D02*
X106175000Y-93860000D01*
X105525000Y-97392857D02*
X105514175Y-97403682D01*
D57*
X109950000Y-104585000D02*
X109775000Y-104760000D01*
X112250000Y-102500000D02*
X112250000Y-101875000D01*
X108949253Y-99610000D02*
X109023753Y-99535500D01*
D58*
X99975000Y-83685000D02*
X100000000Y-83660000D01*
X93350000Y-101960000D02*
X93350000Y-100979474D01*
X93225000Y-97935000D02*
X93200000Y-97910000D01*
X99075000Y-84835000D02*
X99950000Y-84835000D01*
D57*
X102160000Y-91750000D02*
X104250000Y-91750000D01*
X102250000Y-93660000D02*
X102250000Y-92001421D01*
D58*
X99075000Y-82485000D02*
X99975000Y-82485000D01*
X93225000Y-99060000D02*
X93225000Y-97935000D01*
D57*
X101250000Y-93535000D02*
X101250000Y-95310000D01*
X108925000Y-102210000D02*
X109000000Y-102135000D01*
X111750000Y-90250000D02*
X111750000Y-91000000D01*
D58*
X94650000Y-92660000D02*
X94650000Y-94060000D01*
D57*
X99250000Y-93535000D02*
X99250000Y-95310000D01*
X104400000Y-99860000D02*
X106358579Y-99860000D01*
X110612500Y-91887500D02*
X110612500Y-93547500D01*
X106962132Y-99610000D02*
X108050000Y-99610000D01*
X106920000Y-89810000D02*
X108050000Y-89810000D01*
X111000000Y-91750000D02*
X110750000Y-91750000D01*
D58*
X102150000Y-90410000D02*
X102150000Y-91760000D01*
D57*
X109855000Y-109270000D02*
X106845000Y-109270000D01*
X112500000Y-101625000D02*
X113125000Y-101625000D01*
X102250000Y-93660000D02*
X102250000Y-94039290D01*
X110300000Y-93860000D02*
X109825000Y-93860000D01*
X102200000Y-94160000D02*
X101141422Y-95218578D01*
X97850000Y-90410000D02*
X97850000Y-90682451D01*
X113750000Y-97250000D02*
X113750000Y-100375000D01*
D58*
X94650000Y-91310000D02*
X94650000Y-92660000D01*
D57*
X109320000Y-103510000D02*
X109950000Y-103510000D01*
D58*
X105525000Y-96935000D02*
X106250000Y-96935000D01*
X93100000Y-99060000D02*
X93100000Y-99893079D01*
D57*
X99250000Y-95310000D02*
X99000000Y-95560000D01*
D58*
X100000000Y-79560000D02*
X100000000Y-89385000D01*
D57*
X109000000Y-101860000D02*
X109000000Y-102135000D01*
X98750000Y-97810000D02*
X99000000Y-97560000D01*
X96975000Y-96810000D02*
X98250000Y-96810000D01*
D58*
X95500000Y-95260000D02*
X94725000Y-95260000D01*
X104750000Y-96935000D02*
X105525000Y-96935000D01*
D57*
X98250000Y-96810000D02*
X99000000Y-97560000D01*
D58*
X100925000Y-84835000D02*
X99950000Y-84835000D01*
D57*
X98828475Y-92231525D02*
X98253475Y-91656525D01*
D58*
X105525000Y-96935000D02*
X105525000Y-97392857D01*
D57*
X109950000Y-91110000D02*
X110075000Y-91110000D01*
X95545000Y-104200000D02*
X90750000Y-104200000D01*
X113750000Y-102250000D02*
X113750000Y-105375000D01*
X108050000Y-102210000D02*
X108925000Y-102210000D01*
X110612500Y-91647500D02*
X110612500Y-91887500D01*
D58*
X99075000Y-83685000D02*
X99975000Y-83685000D01*
D57*
X97583466Y-94343466D02*
X98658578Y-95418578D01*
X97700000Y-100935000D02*
X97700000Y-100585251D01*
X101250000Y-95310000D02*
X101000000Y-95560000D01*
D58*
X100900000Y-83660000D02*
X100000000Y-83660000D01*
D57*
X109950000Y-103510000D02*
X109950000Y-104585000D01*
X108050000Y-99610000D02*
X108949253Y-99610000D01*
X108610000Y-89250000D02*
X110750000Y-89250000D01*
X96975000Y-97810000D02*
X98750000Y-97810000D01*
X97100000Y-94310000D02*
X97502672Y-94310000D01*
X106175000Y-92060000D02*
X106175000Y-90555000D01*
D58*
X95950000Y-94735000D02*
X95950000Y-94810000D01*
X100925000Y-82485000D02*
X99975000Y-82485000D01*
D57*
X112500000Y-96625000D02*
X113125000Y-96625000D01*
X99250000Y-93660000D02*
X99250000Y-93249176D01*
X97583488Y-94343444D02*
G75*
G03*
X97502672Y-94310000I-80788J-80856D01*
G01*
X102200003Y-94160003D02*
G75*
G03*
X102250000Y-94039290I-120703J120703D01*
G01*
X106920000Y-89810000D02*
G75*
G03*
X106175000Y-90555000I0J-745000D01*
G01*
X106600006Y-99760006D02*
G75*
G02*
X106358579Y-99860000I-241406J241406D01*
G01*
X112500000Y-106625000D02*
G75*
G03*
X113750000Y-105375000I0J1250000D01*
G01*
X111000000Y-91750000D02*
G75*
G03*
X111750000Y-91000000I0J750000D01*
G01*
X95545000Y-104200000D02*
G75*
G02*
X96190000Y-104845000I0J-645000D01*
G01*
D58*
X92999993Y-100134507D02*
G75*
G02*
X93350000Y-100979474I-844993J-844993D01*
G01*
D57*
X113750000Y-102250000D02*
G75*
G03*
X113125000Y-101625000I-625000J0D01*
G01*
X109320000Y-103510000D02*
G75*
G03*
X109000000Y-103830000I0J-320000D01*
G01*
X98253490Y-91656510D02*
G75*
G02*
X97850000Y-90682451I974110J974110D01*
G01*
X102160000Y-91750000D02*
G75*
G03*
X102150000Y-91760000I0J-10000D01*
G01*
X100999988Y-95560000D02*
G75*
G02*
X101141422Y-95218578I482812J0D01*
G01*
X113750000Y-97250000D02*
G75*
G03*
X113125000Y-96625000I-625000J0D01*
G01*
X102150006Y-91759994D02*
G75*
G02*
X102250000Y-92001421I-241406J-241406D01*
G01*
X111750000Y-90250000D02*
G75*
G03*
X110750000Y-89250000I-1000000J0D01*
G01*
X109000000Y-101860000D02*
G75*
G02*
X109950000Y-100910000I950000J0D01*
G01*
X108610000Y-89250000D02*
G75*
G03*
X108050000Y-89810000I0J-560000D01*
G01*
X106962132Y-99610014D02*
G75*
G03*
X106600001Y-99760001I-32J-512086D01*
G01*
D58*
X93000006Y-100134506D02*
G75*
G03*
X93100000Y-99893079I-241406J241406D01*
G01*
D57*
X110612500Y-91887500D02*
G75*
G02*
X110750000Y-91750000I137500J0D01*
G01*
X112500000Y-101625000D02*
G75*
G03*
X112250000Y-101875000I0J-250000D01*
G01*
X97053825Y-99939100D02*
G75*
G02*
X97700000Y-100585251I-25J-646200D01*
G01*
D58*
X95500000Y-95260000D02*
G75*
G03*
X95950000Y-94810000I0J450000D01*
G01*
D57*
X112500000Y-101625000D02*
G75*
G03*
X113750000Y-100375000I0J1250000D01*
G01*
X109855000Y-109270000D02*
G75*
G03*
X112500000Y-106625000I0J2645000D01*
G01*
D58*
X94675000Y-95210000D02*
G75*
G03*
X94725000Y-95260000I50000J0D01*
G01*
D57*
X99000000Y-95560012D02*
G75*
G02*
X98658578Y-95418578I0J482812D01*
G01*
X110300000Y-93860000D02*
G75*
G03*
X110612500Y-93547500I0J312500D01*
G01*
X98828468Y-92231532D02*
G75*
G02*
X99250000Y-93249176I-1017668J-1017668D01*
G01*
X110612500Y-91647500D02*
G75*
G03*
X110075000Y-91110000I-537500J0D01*
G01*
D58*
%TO.N,Net-(C3-Pad1)*%
X103800000Y-84835000D02*
X103800000Y-86130102D01*
X103800000Y-84860000D02*
X102300000Y-84860000D01*
X103800000Y-86130102D02*
X104239949Y-86570051D01*
%TO.N,Net-(C4-Pad2)*%
X96175000Y-84835000D02*
X96200000Y-84860000D01*
X96200000Y-86130102D02*
X95760051Y-86570051D01*
X94725000Y-84835000D02*
X96175000Y-84835000D01*
X97525000Y-84835000D02*
X96225000Y-84835000D01*
X96200000Y-84835000D02*
X96200000Y-86130102D01*
X96225000Y-84835000D02*
X96200000Y-84860000D01*
D57*
%TO.N,+3V3*%
X93100000Y-92660000D02*
X92950000Y-92660000D01*
X107100000Y-93960000D02*
X107100000Y-92960000D01*
X100600000Y-91760000D02*
X100600000Y-92177158D01*
X108430000Y-90460000D02*
X108750000Y-90140000D01*
X98500000Y-100301421D02*
X98500000Y-102424645D01*
X107100000Y-92960000D02*
X107100000Y-90860000D01*
X98750000Y-93660000D02*
X98750000Y-93392957D01*
X97824149Y-91956399D02*
X98388875Y-92521125D01*
X95950000Y-101960000D02*
X95950000Y-102610000D01*
X92175489Y-93434511D02*
X92175489Y-102209511D01*
X108050000Y-90460000D02*
X108430000Y-90460000D01*
X99300000Y-102585000D02*
X99275000Y-102585000D01*
X107500000Y-102860000D02*
X108050000Y-102860000D01*
X109560000Y-90460000D02*
X109950000Y-90460000D01*
X102900000Y-94810000D02*
X104075000Y-94810000D01*
X99250000Y-102485000D02*
X99300000Y-102535000D01*
X97700000Y-102485000D02*
X98525000Y-102485000D01*
X92200000Y-89410000D02*
X92200000Y-91760000D01*
X100600000Y-90410000D02*
X99400000Y-90410000D01*
X91400000Y-102560000D02*
X91825000Y-102560000D01*
X97424264Y-102460000D02*
X97700000Y-102460000D01*
X108750000Y-90140000D02*
X109240000Y-90140000D01*
X95950000Y-101960000D02*
X96217158Y-101960000D01*
X109240000Y-90140000D02*
X109560000Y-90460000D01*
X99400000Y-90410000D02*
X99400000Y-91085000D01*
X108050000Y-102860000D02*
X109950000Y-102860000D01*
X106150000Y-95385000D02*
X106687500Y-94847500D01*
X108050000Y-100260000D02*
X107561290Y-100260000D01*
X106150000Y-95385000D02*
X104650000Y-95385000D01*
X106764124Y-94770875D02*
X106687500Y-94847500D01*
X98750000Y-99460000D02*
X98750000Y-99697868D01*
X107500000Y-90460000D02*
X108050000Y-90460000D01*
X98525000Y-102485000D02*
X99250000Y-102485000D01*
X108050000Y-100260000D02*
X109950000Y-100260000D01*
X100250000Y-93022132D02*
X100250000Y-93660000D01*
X93125978Y-103160000D02*
X95400000Y-103160000D01*
X100600000Y-90410000D02*
X100600000Y-91760000D01*
X96700013Y-102159987D02*
G75*
G03*
X96217158Y-101960000I-482813J-482813D01*
G01*
X97424264Y-102460014D02*
G75*
G02*
X96700001Y-102159999I36J1024314D01*
G01*
X100400013Y-92660013D02*
G75*
G03*
X100600000Y-92177158I-482813J482813D01*
G01*
X107078480Y-100459995D02*
G75*
G02*
X107561290Y-100260000I482820J-482805D01*
G01*
X93100000Y-92660000D02*
G75*
G02*
X92200000Y-91760000I0J900000D01*
G01*
X106764114Y-94770865D02*
G75*
G03*
X107100000Y-93960000I-810814J810865D01*
G01*
X92175500Y-102209511D02*
G75*
G02*
X91825000Y-102560000I-350500J11D01*
G01*
X98388863Y-92521137D02*
G75*
G02*
X98750000Y-93392957I-871863J-871863D01*
G01*
X95950000Y-102610000D02*
G75*
G02*
X95400000Y-103160000I-550000J0D01*
G01*
X99500000Y-91185000D02*
G75*
G02*
X99400000Y-91085000I0J100000D01*
G01*
X107500000Y-90460000D02*
G75*
G03*
X107100000Y-90860000I0J-400000D01*
G01*
X107500000Y-102860000D02*
G75*
G02*
X107100000Y-102460000I0J400000D01*
G01*
X92175500Y-93434511D02*
G75*
G02*
X92950000Y-92660000I774500J11D01*
G01*
X100250014Y-93022132D02*
G75*
G02*
X100400001Y-92660001I512086J32D01*
G01*
X104650000Y-95385000D02*
G75*
G03*
X104075000Y-94810000I-575000J0D01*
G01*
X97824139Y-91956409D02*
G75*
G03*
X97350000Y-91760000I-474139J-474091D01*
G01*
X98599994Y-100059994D02*
G75*
G03*
X98500000Y-100301421I241406J-241406D01*
G01*
X93125978Y-103160011D02*
G75*
G02*
X92175489Y-102209511I22J950511D01*
G01*
X98525034Y-102484966D02*
G75*
G02*
X98500000Y-102424645I60266J60366D01*
G01*
X98600009Y-100060009D02*
G75*
G03*
X98750000Y-99697868I-362109J362109D01*
G01*
D58*
%TO.N,Net-(C8-Pad2)*%
X93075000Y-85960000D02*
X93100000Y-85985000D01*
X93075000Y-84810000D02*
X93075000Y-85960000D01*
D57*
%TO.N,Net-(C8-Pad1)*%
X97750000Y-93660000D02*
X96600000Y-93660000D01*
X95700000Y-92760000D02*
X95700000Y-90110000D01*
X94175000Y-88585000D02*
X93100000Y-88585000D01*
D58*
X93100000Y-87535000D02*
X93100000Y-88585000D01*
D57*
X94175000Y-88585000D02*
G75*
G02*
X95700000Y-90110000I0J-1525000D01*
G01*
X95700000Y-92760000D02*
G75*
G03*
X96600000Y-93660000I900000J0D01*
G01*
%TO.N,+5V*%
X109300489Y-91559511D02*
X109300489Y-91284778D01*
X109600000Y-91760000D02*
X109500978Y-91760000D01*
D58*
X104625000Y-93860000D02*
X103300000Y-93860000D01*
X104625000Y-93860000D02*
X104625000Y-93285000D01*
D57*
X105250000Y-90960000D02*
X105250000Y-92660000D01*
X109300500Y-91559511D02*
G75*
G03*
X109500978Y-91760000I200500J11D01*
G01*
D58*
X103000000Y-94160000D02*
G75*
G02*
X103300000Y-93860000I300000J0D01*
G01*
X105250000Y-92660000D02*
G75*
G03*
X104625000Y-93285000I0J-625000D01*
G01*
D57*
X109600000Y-91760000D02*
G75*
G02*
X109825000Y-91985000I0J-225000D01*
G01*
X109000000Y-90935011D02*
G75*
G02*
X109300489Y-91235489I0J-300489D01*
G01*
%TO.N,Net-(C16-Pad1)*%
X96000000Y-95960000D02*
X95558579Y-96401421D01*
X97100000Y-95810000D02*
X96362132Y-95810000D01*
X95175736Y-96560000D02*
X93400000Y-96560000D01*
X93075000Y-95210000D02*
X93075000Y-96235000D01*
X95999991Y-95959991D02*
G75*
G02*
X96362132Y-95810000I362109J-362109D01*
G01*
X93400000Y-96560000D02*
G75*
G02*
X93075000Y-96235000I0J325000D01*
G01*
X95175736Y-96560031D02*
G75*
G03*
X95558579Y-96401421I-36J541431D01*
G01*
%TO.N,Net-(L2-Pad2)*%
X98968989Y-91715737D02*
X99181626Y-91928374D01*
X99750000Y-93660000D02*
X99750000Y-93300550D01*
X98624806Y-90884806D02*
X98624806Y-89434806D01*
X99181641Y-91928359D02*
G75*
G02*
X99750000Y-93300550I-1372141J-1372141D01*
G01*
X97739949Y-88549894D02*
G75*
G02*
X98624806Y-89434806I-49J-884906D01*
G01*
X98968996Y-91715730D02*
G75*
G02*
X98624806Y-90884806I830904J830930D01*
G01*
%TO.N,Net-(L1-Pad1)*%
X101375000Y-89435000D02*
X101375000Y-92212513D01*
X100750000Y-93367842D02*
X100750000Y-93660000D01*
X101200000Y-92635000D02*
X100950000Y-92885000D01*
X101199996Y-92634996D02*
G75*
G03*
X101375000Y-92212513I-422496J422496D01*
G01*
X100750018Y-93367842D02*
G75*
G02*
X100950000Y-92885000I682782J42D01*
G01*
X101374949Y-89435000D02*
G75*
G02*
X102260051Y-88549949I885051J0D01*
G01*
%TO.N,Net-(D1-Pad2)*%
X109950000Y-99610000D02*
X110525000Y-99610000D01*
X109950000Y-98485000D02*
X109825000Y-98360000D01*
X109925000Y-98360000D02*
X109825000Y-98360000D01*
X109950000Y-99610000D02*
X109950000Y-98485000D01*
X112125000Y-103375000D02*
X112500000Y-103375000D01*
X111250000Y-100335000D02*
X111250000Y-102500000D01*
X112125000Y-103375000D02*
G75*
G02*
X111250000Y-102500000I0J875000D01*
G01*
X111250000Y-100335000D02*
G75*
G03*
X110525000Y-99610000I-725000J0D01*
G01*
%TO.N,Net-(D2-Pad2)*%
X109013557Y-96242734D02*
X109207734Y-96242734D01*
X109825000Y-96860000D02*
X110110000Y-96860000D01*
X111625000Y-98375000D02*
X112500000Y-98375000D01*
X109950000Y-89810000D02*
X110109502Y-89810000D01*
X110799500Y-90500000D02*
G75*
G03*
X110109502Y-89810000I-690000J0D01*
G01*
X110750000Y-97500000D02*
G75*
G03*
X110110000Y-96860000I-640000J0D01*
G01*
X109824966Y-96860000D02*
G75*
G03*
X109207734Y-96242734I-617266J0D01*
G01*
X111625000Y-98375000D02*
G75*
G02*
X110750000Y-97500000I0J875000D01*
G01*
%TO.N,Net-(D3-Pad2)*%
X109006835Y-94872318D02*
X109107872Y-95023532D01*
X112125000Y-93375000D02*
X112500000Y-93375000D01*
X109107872Y-95023532D02*
X109236468Y-95152128D01*
X109555701Y-95322761D02*
X109734069Y-95358240D01*
X108937239Y-94704299D02*
X109006835Y-94872318D01*
X108050000Y-91110000D02*
X108050000Y-91410000D01*
X109387682Y-95253165D02*
X109555701Y-95322761D01*
X108200000Y-91560000D02*
X108400000Y-91560000D01*
X109734069Y-95358240D02*
X109825000Y-95360000D01*
X109825000Y-95360000D02*
X110140000Y-95360000D01*
X108900000Y-92060000D02*
X108900000Y-94435000D01*
X109236468Y-95152128D02*
X109387682Y-95253165D01*
X108900000Y-94435000D02*
X108901760Y-94525931D01*
X108901760Y-94525931D02*
X108937239Y-94704299D01*
X109645752Y-95434244D02*
G75*
G02*
X109825000Y-95360000I179248J-179256D01*
G01*
X108900000Y-92060000D02*
G75*
G03*
X108400000Y-91560000I-500000J0D01*
G01*
X111000000Y-94500000D02*
G75*
G02*
X110140000Y-95360000I-860000J0D01*
G01*
X112125000Y-93375000D02*
G75*
G03*
X111000000Y-94500000I0J-1125000D01*
G01*
X108200000Y-91560000D02*
G75*
G02*
X108050000Y-91410000I0J150000D01*
G01*
D58*
%TO.N,Net-(C9-Pad1)*%
X93100000Y-90235000D02*
X93100000Y-91310000D01*
D57*
X96897538Y-92680439D02*
X97667767Y-92680439D01*
X98250000Y-93262672D02*
X98250000Y-93660000D01*
X94200000Y-90260000D02*
X93125000Y-90260000D01*
X93100000Y-90235000D02*
G75*
G03*
X93125000Y-90260000I25000J0D01*
G01*
X96897538Y-92680423D02*
G75*
G02*
X96424500Y-92484500I-38J668923D01*
G01*
X98250061Y-93262672D02*
G75*
G03*
X97667767Y-92680439I-582261J-28D01*
G01*
%TO.N,Net-(C17-Pad1)*%
X96200000Y-96460000D02*
X95841422Y-96818578D01*
X95700000Y-97160000D02*
X95700000Y-97560000D01*
X94675000Y-97910000D02*
X95350000Y-97910000D01*
X97100000Y-96310000D02*
X96562132Y-96310000D01*
X96199991Y-96459991D02*
G75*
G02*
X96562132Y-96310000I362109J-362109D01*
G01*
X95699988Y-97160000D02*
G75*
G02*
X95841422Y-96818578I482812J0D01*
G01*
X95700000Y-97560000D02*
G75*
G02*
X95350000Y-97910000I-350000J0D01*
G01*
%TO.N,Net-(J1-Pad2)*%
X110155000Y-106730000D02*
X108195000Y-106730000D01*
X104000000Y-102535000D02*
G75*
G03*
X108195000Y-106730000I4195000J0D01*
G01*
%TO.N,Net-(JP1-Pad2)*%
X95800000Y-100860000D02*
X95100000Y-100860000D01*
X94650000Y-101960000D02*
X94650000Y-101310000D01*
X96213249Y-97646751D02*
X96213249Y-100446751D01*
X97100000Y-97310000D02*
X96550000Y-97310000D01*
X95800000Y-100860049D02*
G75*
G03*
X96213249Y-100446751I0J413249D01*
G01*
X96213200Y-97646751D02*
G75*
G02*
X96550000Y-97310000I336800J-49D01*
G01*
X95100000Y-100860000D02*
G75*
G03*
X94650000Y-101310000I0J-450000D01*
G01*
%TO.N,Net-(D6-Pad6)*%
X101749990Y-101310010D02*
X101749990Y-101010010D01*
X102475000Y-102460000D02*
X102475000Y-103225000D01*
X101989444Y-101770556D02*
X101906326Y-101687438D01*
X102330830Y-102111942D02*
X101989444Y-101770556D01*
X106250000Y-103500000D02*
X108040000Y-103500000D01*
X101250000Y-99460000D02*
X101250000Y-99802928D01*
X102330824Y-102111948D02*
G75*
G02*
X102475000Y-102460000I-348024J-348052D01*
G01*
X101507818Y-100425318D02*
G75*
G02*
X101749990Y-101010010I-584718J-584682D01*
G01*
X101749997Y-101310010D02*
G75*
G03*
X101906326Y-101687438I533803J10D01*
G01*
X101507823Y-100425313D02*
G75*
G02*
X101250000Y-99802928I622377J622413D01*
G01*
X103000000Y-103750000D02*
G75*
G02*
X102475000Y-103225000I0J525000D01*
G01*
X108050000Y-103510000D02*
G75*
G03*
X108040000Y-103500000I-10000J0D01*
G01*
%TO.N,Net-(R8-Pad1)*%
X108175000Y-98485000D02*
X108175000Y-98360000D01*
X104341421Y-99060000D02*
X107600000Y-99060000D01*
X102900000Y-98810000D02*
X103737868Y-98810000D01*
X108175000Y-98485000D02*
G75*
G02*
X107600000Y-99060000I-575000J0D01*
G01*
X104100009Y-98959991D02*
G75*
G03*
X103737868Y-98810000I-362109J-362109D01*
G01*
X104341421Y-99059991D02*
G75*
G02*
X104100000Y-98960000I-21J341391D01*
G01*
%TO.N,Net-(R9-Pad1)*%
X104563312Y-98610489D02*
X106649511Y-98610489D01*
X107400000Y-97860000D02*
X107400000Y-97635000D01*
X102900000Y-98310000D02*
X103837868Y-98310000D01*
X107399989Y-97860000D02*
G75*
G02*
X106649511Y-98610489I-750489J0D01*
G01*
X104563312Y-98610483D02*
G75*
G02*
X104200001Y-98459999I-12J513783D01*
G01*
X108175000Y-96860000D02*
G75*
G03*
X107400000Y-97635000I0J-775000D01*
G01*
X104200009Y-98459991D02*
G75*
G03*
X103837868Y-98310000I-362109J-362109D01*
G01*
%TO.N,Net-(C19-Pad1)*%
X109950000Y-102210000D02*
X110150000Y-102210000D01*
X100750000Y-100885000D02*
X100825000Y-100960000D01*
X110700000Y-102760000D02*
X110700000Y-105087834D01*
X108225000Y-105185000D02*
X108225000Y-104760000D01*
X100750000Y-99585000D02*
X100750000Y-100885000D01*
X110227824Y-105560010D02*
X108600010Y-105560010D01*
X110700000Y-102760000D02*
G75*
G03*
X110150000Y-102210000I-550000J0D01*
G01*
X108225000Y-105185000D02*
G75*
G03*
X108600000Y-105560000I375000J0D01*
G01*
X110227824Y-105560000D02*
G75*
G03*
X110700000Y-105087834I-24J472200D01*
G01*
X108600014Y-105560000D02*
G75*
G02*
X108600010Y-105560010I-14J0D01*
G01*
D58*
%TO.N,Net-(A1-Pad1)*%
X102475000Y-82460000D02*
X102475000Y-81996075D01*
X102475000Y-82460000D02*
X102475000Y-83660000D01*
X103800000Y-83310000D02*
X102825000Y-83310000D01*
X101773846Y-81294900D02*
G75*
G02*
X102475000Y-81996075I-46J-701200D01*
G01*
X102475000Y-83660000D02*
G75*
G02*
X102825000Y-83310000I350000J0D01*
G01*
%TO.N,Net-(A1-Pad3)*%
X96200000Y-83310000D02*
X97175000Y-83310000D01*
X97525000Y-82460000D02*
X97525000Y-81996075D01*
X97525000Y-82460000D02*
X97525000Y-83660000D01*
X97525000Y-83660000D02*
G75*
G03*
X97175000Y-83310000I-350000J0D01*
G01*
X98226154Y-81294900D02*
G75*
G03*
X97525000Y-81996075I46J-701200D01*
G01*
D57*
%TO.N,Net-(D4-Pad3)*%
X103400000Y-100160000D02*
X102800000Y-100160000D01*
X102475099Y-100160099D02*
X102799901Y-100160099D01*
X104000000Y-100885000D02*
X105600000Y-100885000D01*
X106820545Y-101184490D02*
X107775510Y-101184490D01*
X105600000Y-100885000D02*
X106097513Y-100885000D01*
X102250000Y-99460000D02*
X102250000Y-99935000D01*
X104000000Y-100885000D02*
X104000000Y-100760000D01*
X102475099Y-100160100D02*
G75*
G02*
X102250000Y-99935000I1J225100D01*
G01*
X106820545Y-101184471D02*
G75*
G02*
X106520000Y-101060000I-45J424971D01*
G01*
X106519996Y-101060004D02*
G75*
G03*
X106097513Y-100885000I-422496J-422496D01*
G01*
X103400000Y-100160000D02*
G75*
G02*
X104000000Y-100760000I0J-600000D01*
G01*
X102799900Y-100160099D02*
G75*
G02*
X102800000Y-100160000I100J-1D01*
G01*
X108049990Y-100910000D02*
G75*
G02*
X107775510Y-101184490I-274490J0D01*
G01*
%TO.N,Net-(R6-Pad1)*%
X108175000Y-92360000D02*
X108175000Y-93860000D01*
X107994928Y-94294732D02*
X107361870Y-94927790D01*
X103550000Y-95310000D02*
X102900000Y-95310000D01*
X106604907Y-96160000D02*
X104272862Y-96160000D01*
X107100000Y-95560000D02*
X107100000Y-95664907D01*
X103800000Y-95687138D02*
X103800000Y-95560000D01*
X107013569Y-95873569D02*
X106813569Y-96073569D01*
X107100006Y-95560000D02*
G75*
G02*
X107361870Y-94927790I894094J0D01*
G01*
X107013567Y-95873567D02*
G75*
G03*
X107100000Y-95664907I-208667J208667D01*
G01*
X107994927Y-94294731D02*
G75*
G03*
X108175000Y-93860000I-434727J434731D01*
G01*
X103550000Y-95310000D02*
G75*
G02*
X103800000Y-95560000I0J-250000D01*
G01*
X103800000Y-95687138D02*
G75*
G03*
X104272862Y-96160000I472900J38D01*
G01*
X106604907Y-96160002D02*
G75*
G03*
X106813569Y-96073569I-7J295102D01*
G01*
%TO.N,Net-(R10-Pad1)*%
X102900000Y-97810000D02*
X104037868Y-97810000D01*
X106949520Y-97746844D02*
X106949520Y-97109520D01*
X107320072Y-96214928D02*
X108175000Y-95360000D01*
X104806027Y-98128182D02*
X106568182Y-98128182D01*
X106949582Y-97746844D02*
G75*
G02*
X106568182Y-98128182I-381382J44D01*
G01*
X104400009Y-97959991D02*
G75*
G03*
X104037868Y-97810000I-362109J-362109D01*
G01*
X104806027Y-98128170D02*
G75*
G02*
X104400000Y-97960000I-27J574170D01*
G01*
X107320055Y-96214911D02*
G75*
G03*
X106949520Y-97109520I894645J-894589D01*
G01*
%TO.N,Net-(J2-Pad2)*%
X99250000Y-100835000D02*
X99300000Y-100885000D01*
X99250000Y-99585000D02*
X99250000Y-100835000D01*
%TO.N,Net-(J3-Pad3)*%
X100825000Y-102460000D02*
X100825000Y-104400000D01*
X101270000Y-104845000D02*
G75*
G02*
X100825000Y-104400000I0J445000D01*
G01*
%TD*%
M02*
