%TF.GenerationSoftware,KiCad,Pcbnew,(5.1.10-1-10_14)*%
%TF.CreationDate,2021-05-12T14:49:06+01:00*%
%TF.ProjectId,PN532,504e3533-322e-46b6-9963-61645f706362,6*%
%TF.SameCoordinates,Original*%
%TF.FileFunction,Legend,Bot*%
%TF.FilePolarity,Positive*%
%FSLAX46Y46*%
G04 Gerber Fmt 4.6, Leading zero omitted, Abs format (unit mm)*
G04 Created by KiCad (PCBNEW (5.1.10-1-10_14)) date 2021-05-12 14:49:06*
%MOMM*%
%LPD*%
G01*
G04 APERTURE LIST*
%ADD10C,0.150000*%
%ADD11C,0.120000*%
%ADD12C,0.200000*%
%ADD13C,0.250000*%
G04 APERTURE END LIST*
D10*
X114238095Y-94066666D02*
X113761904Y-94066666D01*
X114333333Y-94352380D02*
X114000000Y-93352380D01*
X113666666Y-94352380D01*
X103857142Y-87785714D02*
X103666666Y-88452380D01*
X103476190Y-87976190D01*
X103285714Y-88452380D01*
X103095238Y-87785714D01*
X102809523Y-87785714D02*
X102619047Y-88452380D01*
X102428571Y-87976190D01*
X102238095Y-88452380D01*
X102047619Y-87785714D01*
X101761904Y-87785714D02*
X101571428Y-88452380D01*
X101380952Y-87976190D01*
X101190476Y-88452380D01*
X101000000Y-87785714D01*
X100619047Y-88357142D02*
X100571428Y-88404761D01*
X100619047Y-88452380D01*
X100666666Y-88404761D01*
X100619047Y-88357142D01*
X100619047Y-88452380D01*
X100142857Y-88452380D02*
X100142857Y-87785714D01*
X100142857Y-87880952D02*
X100095238Y-87833333D01*
X100000000Y-87785714D01*
X99857142Y-87785714D01*
X99761904Y-87833333D01*
X99714285Y-87928571D01*
X99714285Y-88452380D01*
X99714285Y-87928571D02*
X99666666Y-87833333D01*
X99571428Y-87785714D01*
X99428571Y-87785714D01*
X99333333Y-87833333D01*
X99285714Y-87928571D01*
X99285714Y-88452380D01*
X98428571Y-88404761D02*
X98523809Y-88452380D01*
X98714285Y-88452380D01*
X98809523Y-88404761D01*
X98857142Y-88309523D01*
X98857142Y-87928571D01*
X98809523Y-87833333D01*
X98714285Y-87785714D01*
X98523809Y-87785714D01*
X98428571Y-87833333D01*
X98380952Y-87928571D01*
X98380952Y-88023809D01*
X98857142Y-88119047D01*
X97952380Y-88357142D02*
X97904761Y-88404761D01*
X97952380Y-88452380D01*
X98000000Y-88404761D01*
X97952380Y-88357142D01*
X97952380Y-88452380D01*
X97047619Y-87785714D02*
X97047619Y-88452380D01*
X97476190Y-87785714D02*
X97476190Y-88309523D01*
X97428571Y-88404761D01*
X97333333Y-88452380D01*
X97190476Y-88452380D01*
X97095238Y-88404761D01*
X97047619Y-88357142D01*
X96571428Y-88452380D02*
X96571428Y-87452380D01*
X96476190Y-88071428D02*
X96190476Y-88452380D01*
X96190476Y-87785714D02*
X96571428Y-88166666D01*
X113738095Y-99400000D02*
X113833333Y-99352380D01*
X113976190Y-99352380D01*
X114119047Y-99400000D01*
X114214285Y-99495238D01*
X114261904Y-99590476D01*
X114309523Y-99780952D01*
X114309523Y-99923809D01*
X114261904Y-100114285D01*
X114214285Y-100209523D01*
X114119047Y-100304761D01*
X113976190Y-100352380D01*
X113880952Y-100352380D01*
X113738095Y-100304761D01*
X113690476Y-100257142D01*
X113690476Y-99923809D01*
X113880952Y-99923809D01*
X113690476Y-88452380D02*
X114023809Y-87976190D01*
X114261904Y-88452380D02*
X114261904Y-87452380D01*
X113880952Y-87452380D01*
X113785714Y-87500000D01*
X113738095Y-87547619D01*
X113690476Y-87642857D01*
X113690476Y-87785714D01*
X113738095Y-87880952D01*
X113785714Y-87928571D01*
X113880952Y-87976190D01*
X114261904Y-87976190D01*
D11*
%TO.C,J1*%
X108130000Y-107330000D02*
X108130000Y-104670000D01*
X110730000Y-107330000D02*
X108130000Y-107330000D01*
X110730000Y-104670000D02*
X108130000Y-104670000D01*
X110730000Y-107330000D02*
X110730000Y-104670000D01*
X112000000Y-107330000D02*
X113330000Y-107330000D01*
X113330000Y-107330000D02*
X113330000Y-106000000D01*
%TO.C,A1*%
X83500000Y-112000000D02*
G75*
G03*
X88000000Y-116500000I4500000J0D01*
G01*
X88000000Y-83500000D02*
G75*
G03*
X83500000Y-88000000I0J-4500000D01*
G01*
X116500000Y-88000000D02*
G75*
G03*
X112000000Y-83500000I-4500000J0D01*
G01*
X112000000Y-116500000D02*
G75*
G03*
X116500000Y-112000000I0J4500000D01*
G01*
X79500000Y-112000000D02*
G75*
G03*
X88000000Y-120500000I8500000J0D01*
G01*
X112000000Y-120500000D02*
G75*
G03*
X120500000Y-112000000I0J8500000D01*
G01*
X120500000Y-88000000D02*
G75*
G03*
X112000000Y-79500000I-8500000J0D01*
G01*
X88000000Y-79500000D02*
G75*
G03*
X79500000Y-88000000I0J-8500000D01*
G01*
X112000000Y-116500000D02*
X88000000Y-116500000D01*
X112000000Y-120500000D02*
X88000000Y-120500000D01*
X116500000Y-112000000D02*
X116500000Y-88000000D01*
X120500000Y-88000000D02*
X120500000Y-112000000D01*
X112000000Y-83500000D02*
X88000000Y-83500000D01*
X83500000Y-88000000D02*
X83500000Y-112000000D01*
X79500000Y-112000000D02*
X79500000Y-88000000D01*
X88000000Y-79500000D02*
X112000000Y-79500000D01*
%TO.C,D1*%
X113899999Y-102299999D02*
G75*
G03*
X110100001Y-102299999I-1899999J2299999D01*
G01*
X113900000Y-102300000D02*
X110100000Y-102300000D01*
X112500000Y-100300000D02*
X112500000Y-99600000D01*
X111500000Y-100300000D02*
X111500000Y-99600000D01*
%TO.C,J2*%
X105140000Y-110670000D02*
X105140000Y-113330000D01*
X97460000Y-110670000D02*
X105140000Y-110670000D01*
X97460000Y-113330000D02*
X105140000Y-113330000D01*
X97460000Y-110670000D02*
X97460000Y-113330000D01*
X96190000Y-110670000D02*
X94860000Y-110670000D01*
X94860000Y-110670000D02*
X94860000Y-112000000D01*
%TO.C,D3*%
X113899999Y-90299999D02*
G75*
G03*
X110100001Y-90299999I-1899999J2299999D01*
G01*
X113900000Y-90300000D02*
X110100000Y-90300000D01*
X112500000Y-88300000D02*
X112500000Y-87600000D01*
X111500000Y-88300000D02*
X111500000Y-87600000D01*
D12*
%TO.C,AJK1*%
X90620000Y-85970000D02*
X92384710Y-88028820D01*
X92384700Y-88029000D02*
X93855300Y-88029000D01*
X92384710Y-88028820D02*
X90620000Y-90087650D01*
X93639926Y-90607579D02*
X93855288Y-90087650D01*
X92600062Y-90607579D02*
X93119994Y-90822940D01*
X93119994Y-90822940D02*
X93639926Y-90607579D01*
X92384700Y-85970000D02*
X92384700Y-90087650D01*
X92384700Y-90087650D02*
X92600062Y-90607579D01*
X95325880Y-90087650D02*
X92384700Y-85970000D01*
D11*
%TO.C,D2*%
X113899999Y-96299999D02*
G75*
G03*
X110100001Y-96299999I-1899999J2299999D01*
G01*
X113900000Y-96300000D02*
X110100000Y-96300000D01*
X112500000Y-94300000D02*
X112500000Y-93600000D01*
X111500000Y-94300000D02*
X111500000Y-93600000D01*
%TO.C,A1*%
D13*
X87857142Y-80369047D02*
X87857142Y-82869047D01*
X89285714Y-80369047D01*
X89285714Y-82869047D01*
X91309523Y-81678571D02*
X90476190Y-81678571D01*
X90476190Y-80369047D02*
X90476190Y-82869047D01*
X91666666Y-82869047D01*
X94047619Y-80607142D02*
X93928571Y-80488095D01*
X93571428Y-80369047D01*
X93333333Y-80369047D01*
X92976190Y-80488095D01*
X92738095Y-80726190D01*
X92619047Y-80964285D01*
X92500000Y-81440476D01*
X92500000Y-81797619D01*
X92619047Y-82273809D01*
X92738095Y-82511904D01*
X92976190Y-82750000D01*
X93333333Y-82869047D01*
X93571428Y-82869047D01*
X93928571Y-82750000D01*
X94047619Y-82630952D01*
X96904761Y-81083333D02*
X98095238Y-81083333D01*
X96666666Y-80369047D02*
X97500000Y-82869047D01*
X98333333Y-80369047D01*
X99166666Y-80369047D02*
X99166666Y-82869047D01*
X100595238Y-80369047D01*
X100595238Y-82869047D01*
X101428571Y-82869047D02*
X102857142Y-82869047D01*
X102142857Y-80369047D02*
X102142857Y-82869047D01*
X103690476Y-81678571D02*
X104523809Y-81678571D01*
X104880952Y-80369047D02*
X103690476Y-80369047D01*
X103690476Y-82869047D01*
X104880952Y-82869047D01*
X105952380Y-80369047D02*
X105952380Y-82869047D01*
X107380952Y-80369047D01*
X107380952Y-82869047D01*
X108571428Y-80369047D02*
X108571428Y-82869047D01*
X110000000Y-80369047D01*
X110000000Y-82869047D01*
X111071428Y-81083333D02*
X112261904Y-81083333D01*
X110833333Y-80369047D02*
X111666666Y-82869047D01*
X112500000Y-80369047D01*
X112142857Y-119630952D02*
X112142857Y-117130952D01*
X110714285Y-119630952D01*
X110714285Y-117130952D01*
X108690476Y-118321428D02*
X109523809Y-118321428D01*
X109523809Y-119630952D02*
X109523809Y-117130952D01*
X108333333Y-117130952D01*
X105952380Y-119392857D02*
X106071428Y-119511904D01*
X106428571Y-119630952D01*
X106666666Y-119630952D01*
X107023809Y-119511904D01*
X107261904Y-119273809D01*
X107380952Y-119035714D01*
X107500000Y-118559523D01*
X107500000Y-118202380D01*
X107380952Y-117726190D01*
X107261904Y-117488095D01*
X107023809Y-117250000D01*
X106666666Y-117130952D01*
X106428571Y-117130952D01*
X106071428Y-117250000D01*
X105952380Y-117369047D01*
X103095238Y-118916666D02*
X101904761Y-118916666D01*
X103333333Y-119630952D02*
X102500000Y-117130952D01*
X101666666Y-119630952D01*
X100833333Y-119630952D02*
X100833333Y-117130952D01*
X99404761Y-119630952D01*
X99404761Y-117130952D01*
X98571428Y-117130952D02*
X97142857Y-117130952D01*
X97857142Y-119630952D02*
X97857142Y-117130952D01*
X96309523Y-118321428D02*
X95476190Y-118321428D01*
X95119047Y-119630952D02*
X96309523Y-119630952D01*
X96309523Y-117130952D01*
X95119047Y-117130952D01*
X94047619Y-119630952D02*
X94047619Y-117130952D01*
X92619047Y-119630952D01*
X92619047Y-117130952D01*
X91428571Y-119630952D02*
X91428571Y-117130952D01*
X90000000Y-119630952D01*
X90000000Y-117130952D01*
X88928571Y-118916666D02*
X87738095Y-118916666D01*
X89166666Y-119630952D02*
X88333333Y-117130952D01*
X87500000Y-119630952D01*
X80369047Y-112142857D02*
X82869047Y-112142857D01*
X80369047Y-110714285D01*
X82869047Y-110714285D01*
X81678571Y-108690476D02*
X81678571Y-109523809D01*
X80369047Y-109523809D02*
X82869047Y-109523809D01*
X82869047Y-108333333D01*
X80607142Y-105952380D02*
X80488095Y-106071428D01*
X80369047Y-106428571D01*
X80369047Y-106666666D01*
X80488095Y-107023809D01*
X80726190Y-107261904D01*
X80964285Y-107380952D01*
X81440476Y-107500000D01*
X81797619Y-107500000D01*
X82273809Y-107380952D01*
X82511904Y-107261904D01*
X82750000Y-107023809D01*
X82869047Y-106666666D01*
X82869047Y-106428571D01*
X82750000Y-106071428D01*
X82630952Y-105952380D01*
X81083333Y-103095238D02*
X81083333Y-101904761D01*
X80369047Y-103333333D02*
X82869047Y-102500000D01*
X80369047Y-101666666D01*
X80369047Y-100833333D02*
X82869047Y-100833333D01*
X80369047Y-99404761D01*
X82869047Y-99404761D01*
X82869047Y-98571428D02*
X82869047Y-97142857D01*
X80369047Y-97857142D02*
X82869047Y-97857142D01*
X81678571Y-96309523D02*
X81678571Y-95476190D01*
X80369047Y-95119047D02*
X80369047Y-96309523D01*
X82869047Y-96309523D01*
X82869047Y-95119047D01*
X80369047Y-94047619D02*
X82869047Y-94047619D01*
X80369047Y-92619047D01*
X82869047Y-92619047D01*
X80369047Y-91428571D02*
X82869047Y-91428571D01*
X80369047Y-90000000D01*
X82869047Y-90000000D01*
X81083333Y-88928571D02*
X81083333Y-87738095D01*
X80369047Y-89166666D02*
X82869047Y-88333333D01*
X80369047Y-87500000D01*
X119630952Y-87857142D02*
X117130952Y-87857142D01*
X119630952Y-89285714D01*
X117130952Y-89285714D01*
X118321428Y-91309523D02*
X118321428Y-90476190D01*
X119630952Y-90476190D02*
X117130952Y-90476190D01*
X117130952Y-91666666D01*
X119392857Y-94047619D02*
X119511904Y-93928571D01*
X119630952Y-93571428D01*
X119630952Y-93333333D01*
X119511904Y-92976190D01*
X119273809Y-92738095D01*
X119035714Y-92619047D01*
X118559523Y-92500000D01*
X118202380Y-92500000D01*
X117726190Y-92619047D01*
X117488095Y-92738095D01*
X117250000Y-92976190D01*
X117130952Y-93333333D01*
X117130952Y-93571428D01*
X117250000Y-93928571D01*
X117369047Y-94047619D01*
X118916666Y-96904761D02*
X118916666Y-98095238D01*
X119630952Y-96666666D02*
X117130952Y-97500000D01*
X119630952Y-98333333D01*
X119630952Y-99166666D02*
X117130952Y-99166666D01*
X119630952Y-100595238D01*
X117130952Y-100595238D01*
X117130952Y-101428571D02*
X117130952Y-102857142D01*
X119630952Y-102142857D02*
X117130952Y-102142857D01*
X118321428Y-103690476D02*
X118321428Y-104523809D01*
X119630952Y-104880952D02*
X119630952Y-103690476D01*
X117130952Y-103690476D01*
X117130952Y-104880952D01*
X119630952Y-105952380D02*
X117130952Y-105952380D01*
X119630952Y-107380952D01*
X117130952Y-107380952D01*
X119630952Y-108571428D02*
X117130952Y-108571428D01*
X119630952Y-110000000D01*
X117130952Y-110000000D01*
X118916666Y-111071428D02*
X118916666Y-112261904D01*
X119630952Y-110833333D02*
X117130952Y-111666666D01*
X119630952Y-112500000D01*
%TD*%
M02*
