%TF.GenerationSoftware,KiCad,Pcbnew,(5.1.9-0-10_14)*%
%TF.CreationDate,2021-05-08T16:29:39+01:00*%
%TF.ProjectId,PN532,504e3533-322e-46b6-9963-61645f706362,6*%
%TF.SameCoordinates,Original*%
%TF.FileFunction,Soldermask,Top*%
%TF.FilePolarity,Negative*%
%FSLAX46Y46*%
G04 Gerber Fmt 4.6, Leading zero omitted, Abs format (unit mm)*
G04 Created by KiCad (PCBNEW (5.1.9-0-10_14)) date 2021-05-08 16:29:39*
%MOMM*%
%LPD*%
G01*
G04 APERTURE LIST*
%ADD10C,0.600000*%
%ADD11R,1.550000X1.300000*%
%ADD12C,2.000000*%
%ADD13O,1.700000X1.850000*%
%ADD14C,0.800000*%
%ADD15C,0.350000*%
%ADD16C,0.500000*%
%ADD17R,4.100000X4.100000*%
%ADD18C,1.800000*%
%ADD19R,1.800000X1.800000*%
%ADD20O,1.700000X1.700000*%
%ADD21R,1.700000X1.700000*%
%ADD22C,1.300000*%
%ADD23R,1.300000X1.300000*%
%ADD24R,1.900000X1.150000*%
%ADD25C,3.200000*%
G04 APERTURE END LIST*
%TO.C,L2*%
G36*
G01*
X161860000Y-92427760D02*
X161860000Y-93872240D01*
G75*
G02*
X161617240Y-94115000I-242760J0D01*
G01*
X161082760Y-94115000D01*
G75*
G02*
X160840000Y-93872240I0J242760D01*
G01*
X160840000Y-92427760D01*
G75*
G02*
X161082760Y-92185000I242760J0D01*
G01*
X161617240Y-92185000D01*
G75*
G02*
X161860000Y-92427760I0J-242760D01*
G01*
G37*
G36*
G01*
X164660000Y-92427760D02*
X164660000Y-93872240D01*
G75*
G02*
X164417240Y-94115000I-242760J0D01*
G01*
X163882760Y-94115000D01*
G75*
G02*
X163640000Y-93872240I0J242760D01*
G01*
X163640000Y-92427760D01*
G75*
G02*
X163882760Y-92185000I242760J0D01*
G01*
X164417240Y-92185000D01*
G75*
G02*
X164660000Y-92427760I0J-242760D01*
G01*
G37*
%TD*%
%TO.C,L1*%
G36*
G01*
X163640000Y-97572240D02*
X163640000Y-96127760D01*
G75*
G02*
X163882760Y-95885000I242760J0D01*
G01*
X164417240Y-95885000D01*
G75*
G02*
X164660000Y-96127760I0J-242760D01*
G01*
X164660000Y-97572240D01*
G75*
G02*
X164417240Y-97815000I-242760J0D01*
G01*
X163882760Y-97815000D01*
G75*
G02*
X163640000Y-97572240I0J242760D01*
G01*
G37*
G36*
G01*
X160840000Y-97572240D02*
X160840000Y-96127760D01*
G75*
G02*
X161082760Y-95885000I242760J0D01*
G01*
X161617240Y-95885000D01*
G75*
G02*
X161860000Y-96127760I0J-242760D01*
G01*
X161860000Y-97572240D01*
G75*
G02*
X161617240Y-97815000I-242760J0D01*
G01*
X161082760Y-97815000D01*
G75*
G02*
X160840000Y-97572240I0J242760D01*
G01*
G37*
%TD*%
%TO.C,R11*%
G36*
G01*
X148275000Y-89575000D02*
X147725000Y-89575000D01*
G75*
G02*
X147525000Y-89375000I0J200000D01*
G01*
X147525000Y-88975000D01*
G75*
G02*
X147725000Y-88775000I200000J0D01*
G01*
X148275000Y-88775000D01*
G75*
G02*
X148475000Y-88975000I0J-200000D01*
G01*
X148475000Y-89375000D01*
G75*
G02*
X148275000Y-89575000I-200000J0D01*
G01*
G37*
G36*
G01*
X148275000Y-91225000D02*
X147725000Y-91225000D01*
G75*
G02*
X147525000Y-91025000I0J200000D01*
G01*
X147525000Y-90625000D01*
G75*
G02*
X147725000Y-90425000I200000J0D01*
G01*
X148275000Y-90425000D01*
G75*
G02*
X148475000Y-90625000I0J-200000D01*
G01*
X148475000Y-91025000D01*
G75*
G02*
X148275000Y-91225000I-200000J0D01*
G01*
G37*
%TD*%
%TO.C,R10*%
G36*
G01*
X149775000Y-89575000D02*
X149225000Y-89575000D01*
G75*
G02*
X149025000Y-89375000I0J200000D01*
G01*
X149025000Y-88975000D01*
G75*
G02*
X149225000Y-88775000I200000J0D01*
G01*
X149775000Y-88775000D01*
G75*
G02*
X149975000Y-88975000I0J-200000D01*
G01*
X149975000Y-89375000D01*
G75*
G02*
X149775000Y-89575000I-200000J0D01*
G01*
G37*
G36*
G01*
X149775000Y-91225000D02*
X149225000Y-91225000D01*
G75*
G02*
X149025000Y-91025000I0J200000D01*
G01*
X149025000Y-90625000D01*
G75*
G02*
X149225000Y-90425000I200000J0D01*
G01*
X149775000Y-90425000D01*
G75*
G02*
X149975000Y-90625000I0J-200000D01*
G01*
X149975000Y-91025000D01*
G75*
G02*
X149775000Y-91225000I-200000J0D01*
G01*
G37*
%TD*%
%TO.C,R9*%
G36*
G01*
X144175000Y-95725000D02*
X144175000Y-96275000D01*
G75*
G02*
X143975000Y-96475000I-200000J0D01*
G01*
X143575000Y-96475000D01*
G75*
G02*
X143375000Y-96275000I0J200000D01*
G01*
X143375000Y-95725000D01*
G75*
G02*
X143575000Y-95525000I200000J0D01*
G01*
X143975000Y-95525000D01*
G75*
G02*
X144175000Y-95725000I0J-200000D01*
G01*
G37*
G36*
G01*
X145825000Y-95725000D02*
X145825000Y-96275000D01*
G75*
G02*
X145625000Y-96475000I-200000J0D01*
G01*
X145225000Y-96475000D01*
G75*
G02*
X145025000Y-96275000I0J200000D01*
G01*
X145025000Y-95725000D01*
G75*
G02*
X145225000Y-95525000I200000J0D01*
G01*
X145625000Y-95525000D01*
G75*
G02*
X145825000Y-95725000I0J-200000D01*
G01*
G37*
%TD*%
%TO.C,R8*%
G36*
G01*
X144175000Y-94225000D02*
X144175000Y-94775000D01*
G75*
G02*
X143975000Y-94975000I-200000J0D01*
G01*
X143575000Y-94975000D01*
G75*
G02*
X143375000Y-94775000I0J200000D01*
G01*
X143375000Y-94225000D01*
G75*
G02*
X143575000Y-94025000I200000J0D01*
G01*
X143975000Y-94025000D01*
G75*
G02*
X144175000Y-94225000I0J-200000D01*
G01*
G37*
G36*
G01*
X145825000Y-94225000D02*
X145825000Y-94775000D01*
G75*
G02*
X145625000Y-94975000I-200000J0D01*
G01*
X145225000Y-94975000D01*
G75*
G02*
X145025000Y-94775000I0J200000D01*
G01*
X145025000Y-94225000D01*
G75*
G02*
X145225000Y-94025000I200000J0D01*
G01*
X145625000Y-94025000D01*
G75*
G02*
X145825000Y-94225000I0J-200000D01*
G01*
G37*
%TD*%
%TO.C,R7*%
G36*
G01*
X144175000Y-92725000D02*
X144175000Y-93275000D01*
G75*
G02*
X143975000Y-93475000I-200000J0D01*
G01*
X143575000Y-93475000D01*
G75*
G02*
X143375000Y-93275000I0J200000D01*
G01*
X143375000Y-92725000D01*
G75*
G02*
X143575000Y-92525000I200000J0D01*
G01*
X143975000Y-92525000D01*
G75*
G02*
X144175000Y-92725000I0J-200000D01*
G01*
G37*
G36*
G01*
X145825000Y-92725000D02*
X145825000Y-93275000D01*
G75*
G02*
X145625000Y-93475000I-200000J0D01*
G01*
X145225000Y-93475000D01*
G75*
G02*
X145025000Y-93275000I0J200000D01*
G01*
X145025000Y-92725000D01*
G75*
G02*
X145225000Y-92525000I200000J0D01*
G01*
X145625000Y-92525000D01*
G75*
G02*
X145825000Y-92725000I0J-200000D01*
G01*
G37*
%TD*%
%TO.C,R6*%
G36*
G01*
X144175000Y-97225000D02*
X144175000Y-97775000D01*
G75*
G02*
X143975000Y-97975000I-200000J0D01*
G01*
X143575000Y-97975000D01*
G75*
G02*
X143375000Y-97775000I0J200000D01*
G01*
X143375000Y-97225000D01*
G75*
G02*
X143575000Y-97025000I200000J0D01*
G01*
X143975000Y-97025000D01*
G75*
G02*
X144175000Y-97225000I0J-200000D01*
G01*
G37*
G36*
G01*
X145825000Y-97225000D02*
X145825000Y-97775000D01*
G75*
G02*
X145625000Y-97975000I-200000J0D01*
G01*
X145225000Y-97975000D01*
G75*
G02*
X145025000Y-97775000I0J200000D01*
G01*
X145025000Y-97225000D01*
G75*
G02*
X145225000Y-97025000I200000J0D01*
G01*
X145625000Y-97025000D01*
G75*
G02*
X145825000Y-97225000I0J-200000D01*
G01*
G37*
%TD*%
%TO.C,R5*%
G36*
G01*
X144175000Y-98725000D02*
X144175000Y-99275000D01*
G75*
G02*
X143975000Y-99475000I-200000J0D01*
G01*
X143575000Y-99475000D01*
G75*
G02*
X143375000Y-99275000I0J200000D01*
G01*
X143375000Y-98725000D01*
G75*
G02*
X143575000Y-98525000I200000J0D01*
G01*
X143975000Y-98525000D01*
G75*
G02*
X144175000Y-98725000I0J-200000D01*
G01*
G37*
G36*
G01*
X145825000Y-98725000D02*
X145825000Y-99275000D01*
G75*
G02*
X145625000Y-99475000I-200000J0D01*
G01*
X145225000Y-99475000D01*
G75*
G02*
X145025000Y-99275000I0J200000D01*
G01*
X145025000Y-98725000D01*
G75*
G02*
X145225000Y-98525000I200000J0D01*
G01*
X145625000Y-98525000D01*
G75*
G02*
X145825000Y-98725000I0J-200000D01*
G01*
G37*
%TD*%
%TO.C,R4*%
G36*
G01*
X161425000Y-86575000D02*
X161425000Y-86025000D01*
G75*
G02*
X161625000Y-85825000I200000J0D01*
G01*
X162025000Y-85825000D01*
G75*
G02*
X162225000Y-86025000I0J-200000D01*
G01*
X162225000Y-86575000D01*
G75*
G02*
X162025000Y-86775000I-200000J0D01*
G01*
X161625000Y-86775000D01*
G75*
G02*
X161425000Y-86575000I0J200000D01*
G01*
G37*
G36*
G01*
X159775000Y-86575000D02*
X159775000Y-86025000D01*
G75*
G02*
X159975000Y-85825000I200000J0D01*
G01*
X160375000Y-85825000D01*
G75*
G02*
X160575000Y-86025000I0J-200000D01*
G01*
X160575000Y-86575000D01*
G75*
G02*
X160375000Y-86775000I-200000J0D01*
G01*
X159975000Y-86775000D01*
G75*
G02*
X159775000Y-86575000I0J200000D01*
G01*
G37*
%TD*%
%TO.C,R3*%
G36*
G01*
X164725000Y-88075000D02*
X164725000Y-87525000D01*
G75*
G02*
X164925000Y-87325000I200000J0D01*
G01*
X165325000Y-87325000D01*
G75*
G02*
X165525000Y-87525000I0J-200000D01*
G01*
X165525000Y-88075000D01*
G75*
G02*
X165325000Y-88275000I-200000J0D01*
G01*
X164925000Y-88275000D01*
G75*
G02*
X164725000Y-88075000I0J200000D01*
G01*
G37*
G36*
G01*
X163075000Y-88075000D02*
X163075000Y-87525000D01*
G75*
G02*
X163275000Y-87325000I200000J0D01*
G01*
X163675000Y-87325000D01*
G75*
G02*
X163875000Y-87525000I0J-200000D01*
G01*
X163875000Y-88075000D01*
G75*
G02*
X163675000Y-88275000I-200000J0D01*
G01*
X163275000Y-88275000D01*
G75*
G02*
X163075000Y-88075000I0J200000D01*
G01*
G37*
%TD*%
%TO.C,R2*%
G36*
G01*
X166625000Y-93375000D02*
X166625000Y-92825000D01*
G75*
G02*
X166825000Y-92625000I200000J0D01*
G01*
X167225000Y-92625000D01*
G75*
G02*
X167425000Y-92825000I0J-200000D01*
G01*
X167425000Y-93375000D01*
G75*
G02*
X167225000Y-93575000I-200000J0D01*
G01*
X166825000Y-93575000D01*
G75*
G02*
X166625000Y-93375000I0J200000D01*
G01*
G37*
G36*
G01*
X164975000Y-93375000D02*
X164975000Y-92825000D01*
G75*
G02*
X165175000Y-92625000I200000J0D01*
G01*
X165575000Y-92625000D01*
G75*
G02*
X165775000Y-92825000I0J-200000D01*
G01*
X165775000Y-93375000D01*
G75*
G02*
X165575000Y-93575000I-200000J0D01*
G01*
X165175000Y-93575000D01*
G75*
G02*
X164975000Y-93375000I0J200000D01*
G01*
G37*
%TD*%
%TO.C,R1*%
G36*
G01*
X166625000Y-97175000D02*
X166625000Y-96625000D01*
G75*
G02*
X166825000Y-96425000I200000J0D01*
G01*
X167225000Y-96425000D01*
G75*
G02*
X167425000Y-96625000I0J-200000D01*
G01*
X167425000Y-97175000D01*
G75*
G02*
X167225000Y-97375000I-200000J0D01*
G01*
X166825000Y-97375000D01*
G75*
G02*
X166625000Y-97175000I0J200000D01*
G01*
G37*
G36*
G01*
X164975000Y-97175000D02*
X164975000Y-96625000D01*
G75*
G02*
X165175000Y-96425000I200000J0D01*
G01*
X165575000Y-96425000D01*
G75*
G02*
X165775000Y-96625000I0J-200000D01*
G01*
X165775000Y-97175000D01*
G75*
G02*
X165575000Y-97375000I-200000J0D01*
G01*
X165175000Y-97375000D01*
G75*
G02*
X164975000Y-97175000I0J200000D01*
G01*
G37*
%TD*%
%TO.C,C17*%
G36*
G01*
X151250000Y-89675000D02*
X150750000Y-89675000D01*
G75*
G02*
X150525000Y-89450000I0J225000D01*
G01*
X150525000Y-89000000D01*
G75*
G02*
X150750000Y-88775000I225000J0D01*
G01*
X151250000Y-88775000D01*
G75*
G02*
X151475000Y-89000000I0J-225000D01*
G01*
X151475000Y-89450000D01*
G75*
G02*
X151250000Y-89675000I-225000J0D01*
G01*
G37*
G36*
G01*
X151250000Y-91225000D02*
X150750000Y-91225000D01*
G75*
G02*
X150525000Y-91000000I0J225000D01*
G01*
X150525000Y-90550000D01*
G75*
G02*
X150750000Y-90325000I225000J0D01*
G01*
X151250000Y-90325000D01*
G75*
G02*
X151475000Y-90550000I0J-225000D01*
G01*
X151475000Y-91000000D01*
G75*
G02*
X151250000Y-91225000I-225000J0D01*
G01*
G37*
%TD*%
%TO.C,C16*%
G36*
G01*
X153550000Y-88075000D02*
X153050000Y-88075000D01*
G75*
G02*
X152825000Y-87850000I0J225000D01*
G01*
X152825000Y-87400000D01*
G75*
G02*
X153050000Y-87175000I225000J0D01*
G01*
X153550000Y-87175000D01*
G75*
G02*
X153775000Y-87400000I0J-225000D01*
G01*
X153775000Y-87850000D01*
G75*
G02*
X153550000Y-88075000I-225000J0D01*
G01*
G37*
G36*
G01*
X153550000Y-89625000D02*
X153050000Y-89625000D01*
G75*
G02*
X152825000Y-89400000I0J225000D01*
G01*
X152825000Y-88950000D01*
G75*
G02*
X153050000Y-88725000I225000J0D01*
G01*
X153550000Y-88725000D01*
G75*
G02*
X153775000Y-88950000I0J-225000D01*
G01*
X153775000Y-89400000D01*
G75*
G02*
X153550000Y-89625000I-225000J0D01*
G01*
G37*
%TD*%
%TO.C,C15*%
G36*
G01*
X158050000Y-88725000D02*
X158550000Y-88725000D01*
G75*
G02*
X158775000Y-88950000I0J-225000D01*
G01*
X158775000Y-89400000D01*
G75*
G02*
X158550000Y-89625000I-225000J0D01*
G01*
X158050000Y-89625000D01*
G75*
G02*
X157825000Y-89400000I0J225000D01*
G01*
X157825000Y-88950000D01*
G75*
G02*
X158050000Y-88725000I225000J0D01*
G01*
G37*
G36*
G01*
X158050000Y-87175000D02*
X158550000Y-87175000D01*
G75*
G02*
X158775000Y-87400000I0J-225000D01*
G01*
X158775000Y-87850000D01*
G75*
G02*
X158550000Y-88075000I-225000J0D01*
G01*
X158050000Y-88075000D01*
G75*
G02*
X157825000Y-87850000I0J225000D01*
G01*
X157825000Y-87400000D01*
G75*
G02*
X158050000Y-87175000I225000J0D01*
G01*
G37*
%TD*%
%TO.C,C14*%
G36*
G01*
X158950000Y-100725000D02*
X159450000Y-100725000D01*
G75*
G02*
X159675000Y-100950000I0J-225000D01*
G01*
X159675000Y-101400000D01*
G75*
G02*
X159450000Y-101625000I-225000J0D01*
G01*
X158950000Y-101625000D01*
G75*
G02*
X158725000Y-101400000I0J225000D01*
G01*
X158725000Y-100950000D01*
G75*
G02*
X158950000Y-100725000I225000J0D01*
G01*
G37*
G36*
G01*
X158950000Y-99175000D02*
X159450000Y-99175000D01*
G75*
G02*
X159675000Y-99400000I0J-225000D01*
G01*
X159675000Y-99850000D01*
G75*
G02*
X159450000Y-100075000I-225000J0D01*
G01*
X158950000Y-100075000D01*
G75*
G02*
X158725000Y-99850000I0J225000D01*
G01*
X158725000Y-99400000D01*
G75*
G02*
X158950000Y-99175000I225000J0D01*
G01*
G37*
%TD*%
%TO.C,C13*%
G36*
G01*
X155950000Y-100725000D02*
X156450000Y-100725000D01*
G75*
G02*
X156675000Y-100950000I0J-225000D01*
G01*
X156675000Y-101400000D01*
G75*
G02*
X156450000Y-101625000I-225000J0D01*
G01*
X155950000Y-101625000D01*
G75*
G02*
X155725000Y-101400000I0J225000D01*
G01*
X155725000Y-100950000D01*
G75*
G02*
X155950000Y-100725000I225000J0D01*
G01*
G37*
G36*
G01*
X155950000Y-99175000D02*
X156450000Y-99175000D01*
G75*
G02*
X156675000Y-99400000I0J-225000D01*
G01*
X156675000Y-99850000D01*
G75*
G02*
X156450000Y-100075000I-225000J0D01*
G01*
X155950000Y-100075000D01*
G75*
G02*
X155725000Y-99850000I0J225000D01*
G01*
X155725000Y-99400000D01*
G75*
G02*
X155950000Y-99175000I225000J0D01*
G01*
G37*
%TD*%
%TO.C,C12*%
G36*
G01*
X157450000Y-100725000D02*
X157950000Y-100725000D01*
G75*
G02*
X158175000Y-100950000I0J-225000D01*
G01*
X158175000Y-101400000D01*
G75*
G02*
X157950000Y-101625000I-225000J0D01*
G01*
X157450000Y-101625000D01*
G75*
G02*
X157225000Y-101400000I0J225000D01*
G01*
X157225000Y-100950000D01*
G75*
G02*
X157450000Y-100725000I225000J0D01*
G01*
G37*
G36*
G01*
X157450000Y-99175000D02*
X157950000Y-99175000D01*
G75*
G02*
X158175000Y-99400000I0J-225000D01*
G01*
X158175000Y-99850000D01*
G75*
G02*
X157950000Y-100075000I-225000J0D01*
G01*
X157450000Y-100075000D01*
G75*
G02*
X157225000Y-99850000I0J225000D01*
G01*
X157225000Y-99400000D01*
G75*
G02*
X157450000Y-99175000I225000J0D01*
G01*
G37*
%TD*%
%TO.C,C11*%
G36*
G01*
X161050000Y-100025000D02*
X161550000Y-100025000D01*
G75*
G02*
X161775000Y-100250000I0J-225000D01*
G01*
X161775000Y-100700000D01*
G75*
G02*
X161550000Y-100925000I-225000J0D01*
G01*
X161050000Y-100925000D01*
G75*
G02*
X160825000Y-100700000I0J225000D01*
G01*
X160825000Y-100250000D01*
G75*
G02*
X161050000Y-100025000I225000J0D01*
G01*
G37*
G36*
G01*
X161050000Y-98475000D02*
X161550000Y-98475000D01*
G75*
G02*
X161775000Y-98700000I0J-225000D01*
G01*
X161775000Y-99150000D01*
G75*
G02*
X161550000Y-99375000I-225000J0D01*
G01*
X161050000Y-99375000D01*
G75*
G02*
X160825000Y-99150000I0J225000D01*
G01*
X160825000Y-98700000D01*
G75*
G02*
X161050000Y-98475000I225000J0D01*
G01*
G37*
%TD*%
%TO.C,C10*%
G36*
G01*
X161450000Y-89975000D02*
X160950000Y-89975000D01*
G75*
G02*
X160725000Y-89750000I0J225000D01*
G01*
X160725000Y-89300000D01*
G75*
G02*
X160950000Y-89075000I225000J0D01*
G01*
X161450000Y-89075000D01*
G75*
G02*
X161675000Y-89300000I0J-225000D01*
G01*
X161675000Y-89750000D01*
G75*
G02*
X161450000Y-89975000I-225000J0D01*
G01*
G37*
G36*
G01*
X161450000Y-91525000D02*
X160950000Y-91525000D01*
G75*
G02*
X160725000Y-91300000I0J225000D01*
G01*
X160725000Y-90850000D01*
G75*
G02*
X160950000Y-90625000I225000J0D01*
G01*
X161450000Y-90625000D01*
G75*
G02*
X161675000Y-90850000I0J-225000D01*
G01*
X161675000Y-91300000D01*
G75*
G02*
X161450000Y-91525000I-225000J0D01*
G01*
G37*
%TD*%
%TO.C,C9*%
G36*
G01*
X162425000Y-95250000D02*
X162425000Y-94750000D01*
G75*
G02*
X162650000Y-94525000I225000J0D01*
G01*
X163100000Y-94525000D01*
G75*
G02*
X163325000Y-94750000I0J-225000D01*
G01*
X163325000Y-95250000D01*
G75*
G02*
X163100000Y-95475000I-225000J0D01*
G01*
X162650000Y-95475000D01*
G75*
G02*
X162425000Y-95250000I0J225000D01*
G01*
G37*
G36*
G01*
X160875000Y-95250000D02*
X160875000Y-94750000D01*
G75*
G02*
X161100000Y-94525000I225000J0D01*
G01*
X161550000Y-94525000D01*
G75*
G02*
X161775000Y-94750000I0J-225000D01*
G01*
X161775000Y-95250000D01*
G75*
G02*
X161550000Y-95475000I-225000J0D01*
G01*
X161100000Y-95475000D01*
G75*
G02*
X160875000Y-95250000I0J225000D01*
G01*
G37*
%TD*%
%TO.C,C8*%
G36*
G01*
X161325000Y-88050000D02*
X161325000Y-87550000D01*
G75*
G02*
X161550000Y-87325000I225000J0D01*
G01*
X162000000Y-87325000D01*
G75*
G02*
X162225000Y-87550000I0J-225000D01*
G01*
X162225000Y-88050000D01*
G75*
G02*
X162000000Y-88275000I-225000J0D01*
G01*
X161550000Y-88275000D01*
G75*
G02*
X161325000Y-88050000I0J225000D01*
G01*
G37*
G36*
G01*
X159775000Y-88050000D02*
X159775000Y-87550000D01*
G75*
G02*
X160000000Y-87325000I225000J0D01*
G01*
X160450000Y-87325000D01*
G75*
G02*
X160675000Y-87550000I0J-225000D01*
G01*
X160675000Y-88050000D01*
G75*
G02*
X160450000Y-88275000I-225000J0D01*
G01*
X160000000Y-88275000D01*
G75*
G02*
X159775000Y-88050000I0J225000D01*
G01*
G37*
%TD*%
%TO.C,C7*%
G36*
G01*
X166125000Y-95250000D02*
X166125000Y-94750000D01*
G75*
G02*
X166350000Y-94525000I225000J0D01*
G01*
X166800000Y-94525000D01*
G75*
G02*
X167025000Y-94750000I0J-225000D01*
G01*
X167025000Y-95250000D01*
G75*
G02*
X166800000Y-95475000I-225000J0D01*
G01*
X166350000Y-95475000D01*
G75*
G02*
X166125000Y-95250000I0J225000D01*
G01*
G37*
G36*
G01*
X164575000Y-95250000D02*
X164575000Y-94750000D01*
G75*
G02*
X164800000Y-94525000I225000J0D01*
G01*
X165250000Y-94525000D01*
G75*
G02*
X165475000Y-94750000I0J-225000D01*
G01*
X165475000Y-95250000D01*
G75*
G02*
X165250000Y-95475000I-225000J0D01*
G01*
X164800000Y-95475000D01*
G75*
G02*
X164575000Y-95250000I0J225000D01*
G01*
G37*
%TD*%
%TO.C,C6*%
G36*
G01*
X162450000Y-90625000D02*
X162950000Y-90625000D01*
G75*
G02*
X163175000Y-90850000I0J-225000D01*
G01*
X163175000Y-91300000D01*
G75*
G02*
X162950000Y-91525000I-225000J0D01*
G01*
X162450000Y-91525000D01*
G75*
G02*
X162225000Y-91300000I0J225000D01*
G01*
X162225000Y-90850000D01*
G75*
G02*
X162450000Y-90625000I225000J0D01*
G01*
G37*
G36*
G01*
X162450000Y-89075000D02*
X162950000Y-89075000D01*
G75*
G02*
X163175000Y-89300000I0J-225000D01*
G01*
X163175000Y-89750000D01*
G75*
G02*
X162950000Y-89975000I-225000J0D01*
G01*
X162450000Y-89975000D01*
G75*
G02*
X162225000Y-89750000I0J225000D01*
G01*
X162225000Y-89300000D01*
G75*
G02*
X162450000Y-89075000I225000J0D01*
G01*
G37*
%TD*%
%TO.C,C5*%
G36*
G01*
X163050000Y-99375000D02*
X162550000Y-99375000D01*
G75*
G02*
X162325000Y-99150000I0J225000D01*
G01*
X162325000Y-98700000D01*
G75*
G02*
X162550000Y-98475000I225000J0D01*
G01*
X163050000Y-98475000D01*
G75*
G02*
X163275000Y-98700000I0J-225000D01*
G01*
X163275000Y-99150000D01*
G75*
G02*
X163050000Y-99375000I-225000J0D01*
G01*
G37*
G36*
G01*
X163050000Y-100925000D02*
X162550000Y-100925000D01*
G75*
G02*
X162325000Y-100700000I0J225000D01*
G01*
X162325000Y-100250000D01*
G75*
G02*
X162550000Y-100025000I225000J0D01*
G01*
X163050000Y-100025000D01*
G75*
G02*
X163275000Y-100250000I0J-225000D01*
G01*
X163275000Y-100700000D01*
G75*
G02*
X163050000Y-100925000I-225000J0D01*
G01*
G37*
%TD*%
%TO.C,C4*%
G36*
G01*
X165950000Y-89975000D02*
X165450000Y-89975000D01*
G75*
G02*
X165225000Y-89750000I0J225000D01*
G01*
X165225000Y-89300000D01*
G75*
G02*
X165450000Y-89075000I225000J0D01*
G01*
X165950000Y-89075000D01*
G75*
G02*
X166175000Y-89300000I0J-225000D01*
G01*
X166175000Y-89750000D01*
G75*
G02*
X165950000Y-89975000I-225000J0D01*
G01*
G37*
G36*
G01*
X165950000Y-91525000D02*
X165450000Y-91525000D01*
G75*
G02*
X165225000Y-91300000I0J225000D01*
G01*
X165225000Y-90850000D01*
G75*
G02*
X165450000Y-90625000I225000J0D01*
G01*
X165950000Y-90625000D01*
G75*
G02*
X166175000Y-90850000I0J-225000D01*
G01*
X166175000Y-91300000D01*
G75*
G02*
X165950000Y-91525000I-225000J0D01*
G01*
G37*
%TD*%
%TO.C,C3*%
G36*
G01*
X166050000Y-99375000D02*
X165550000Y-99375000D01*
G75*
G02*
X165325000Y-99150000I0J225000D01*
G01*
X165325000Y-98700000D01*
G75*
G02*
X165550000Y-98475000I225000J0D01*
G01*
X166050000Y-98475000D01*
G75*
G02*
X166275000Y-98700000I0J-225000D01*
G01*
X166275000Y-99150000D01*
G75*
G02*
X166050000Y-99375000I-225000J0D01*
G01*
G37*
G36*
G01*
X166050000Y-100925000D02*
X165550000Y-100925000D01*
G75*
G02*
X165325000Y-100700000I0J225000D01*
G01*
X165325000Y-100250000D01*
G75*
G02*
X165550000Y-100025000I225000J0D01*
G01*
X166050000Y-100025000D01*
G75*
G02*
X166275000Y-100250000I0J-225000D01*
G01*
X166275000Y-100700000D01*
G75*
G02*
X166050000Y-100925000I-225000J0D01*
G01*
G37*
%TD*%
%TO.C,C2*%
G36*
G01*
X163950000Y-90625000D02*
X164450000Y-90625000D01*
G75*
G02*
X164675000Y-90850000I0J-225000D01*
G01*
X164675000Y-91300000D01*
G75*
G02*
X164450000Y-91525000I-225000J0D01*
G01*
X163950000Y-91525000D01*
G75*
G02*
X163725000Y-91300000I0J225000D01*
G01*
X163725000Y-90850000D01*
G75*
G02*
X163950000Y-90625000I225000J0D01*
G01*
G37*
G36*
G01*
X163950000Y-89075000D02*
X164450000Y-89075000D01*
G75*
G02*
X164675000Y-89300000I0J-225000D01*
G01*
X164675000Y-89750000D01*
G75*
G02*
X164450000Y-89975000I-225000J0D01*
G01*
X163950000Y-89975000D01*
G75*
G02*
X163725000Y-89750000I0J225000D01*
G01*
X163725000Y-89300000D01*
G75*
G02*
X163950000Y-89075000I225000J0D01*
G01*
G37*
%TD*%
%TO.C,C1*%
G36*
G01*
X164050000Y-100025000D02*
X164550000Y-100025000D01*
G75*
G02*
X164775000Y-100250000I0J-225000D01*
G01*
X164775000Y-100700000D01*
G75*
G02*
X164550000Y-100925000I-225000J0D01*
G01*
X164050000Y-100925000D01*
G75*
G02*
X163825000Y-100700000I0J225000D01*
G01*
X163825000Y-100250000D01*
G75*
G02*
X164050000Y-100025000I225000J0D01*
G01*
G37*
G36*
G01*
X164050000Y-98475000D02*
X164550000Y-98475000D01*
G75*
G02*
X164775000Y-98700000I0J-225000D01*
G01*
X164775000Y-99150000D01*
G75*
G02*
X164550000Y-99375000I-225000J0D01*
G01*
X164050000Y-99375000D01*
G75*
G02*
X163825000Y-99150000I0J225000D01*
G01*
X163825000Y-98700000D01*
G75*
G02*
X164050000Y-98475000I225000J0D01*
G01*
G37*
%TD*%
D10*
%TO.C,A1*%
X130000000Y-94000000D03*
X133000000Y-96000000D03*
X167000000Y-92000000D03*
X167000000Y-98000000D03*
X169000000Y-95000000D03*
%TD*%
D11*
%TO.C,SW1*%
X153975000Y-80750000D03*
X153975000Y-85250000D03*
X146025000Y-85250000D03*
X146025000Y-80750000D03*
D12*
X146750000Y-85250000D03*
X146750000Y-80750000D03*
X153250000Y-85250000D03*
X153250000Y-80750000D03*
%TD*%
D13*
%TO.C,J3*%
X153750000Y-103900000D03*
X151250000Y-103900000D03*
X148750000Y-103900000D03*
G36*
G01*
X145400000Y-104575000D02*
X145400000Y-103225000D01*
G75*
G02*
X145650000Y-102975000I250000J0D01*
G01*
X146850000Y-102975000D01*
G75*
G02*
X147100000Y-103225000I0J-250000D01*
G01*
X147100000Y-104575000D01*
G75*
G02*
X146850000Y-104825000I-250000J0D01*
G01*
X145650000Y-104825000D01*
G75*
G02*
X145400000Y-104575000I0J250000D01*
G01*
G37*
%TD*%
D14*
%TO.C,TP2*%
X160300000Y-94100000D03*
%TD*%
%TO.C,TP1*%
X160300000Y-95900000D03*
%TD*%
D15*
%TO.C,U1*%
X155025000Y-93750000D03*
X157025000Y-93750000D03*
X157025000Y-95750000D03*
X155025000Y-95750000D03*
X156025000Y-94750000D03*
D16*
X159025000Y-97750000D03*
D17*
X156025000Y-94750000D03*
G36*
G01*
X158400000Y-97337500D02*
X158400000Y-98212500D01*
G75*
G02*
X158337500Y-98275000I-62500J0D01*
G01*
X158212500Y-98275000D01*
G75*
G02*
X158150000Y-98212500I0J62500D01*
G01*
X158150000Y-97337500D01*
G75*
G02*
X158212500Y-97275000I62500J0D01*
G01*
X158337500Y-97275000D01*
G75*
G02*
X158400000Y-97337500I0J-62500D01*
G01*
G37*
G36*
G01*
X157900000Y-97337500D02*
X157900000Y-98212500D01*
G75*
G02*
X157837500Y-98275000I-62500J0D01*
G01*
X157712500Y-98275000D01*
G75*
G02*
X157650000Y-98212500I0J62500D01*
G01*
X157650000Y-97337500D01*
G75*
G02*
X157712500Y-97275000I62500J0D01*
G01*
X157837500Y-97275000D01*
G75*
G02*
X157900000Y-97337500I0J-62500D01*
G01*
G37*
G36*
G01*
X157400000Y-97337500D02*
X157400000Y-98212500D01*
G75*
G02*
X157337500Y-98275000I-62500J0D01*
G01*
X157212500Y-98275000D01*
G75*
G02*
X157150000Y-98212500I0J62500D01*
G01*
X157150000Y-97337500D01*
G75*
G02*
X157212500Y-97275000I62500J0D01*
G01*
X157337500Y-97275000D01*
G75*
G02*
X157400000Y-97337500I0J-62500D01*
G01*
G37*
G36*
G01*
X156900000Y-97337500D02*
X156900000Y-98212500D01*
G75*
G02*
X156837500Y-98275000I-62500J0D01*
G01*
X156712500Y-98275000D01*
G75*
G02*
X156650000Y-98212500I0J62500D01*
G01*
X156650000Y-97337500D01*
G75*
G02*
X156712500Y-97275000I62500J0D01*
G01*
X156837500Y-97275000D01*
G75*
G02*
X156900000Y-97337500I0J-62500D01*
G01*
G37*
G36*
G01*
X156400000Y-97337500D02*
X156400000Y-98212500D01*
G75*
G02*
X156337500Y-98275000I-62500J0D01*
G01*
X156212500Y-98275000D01*
G75*
G02*
X156150000Y-98212500I0J62500D01*
G01*
X156150000Y-97337500D01*
G75*
G02*
X156212500Y-97275000I62500J0D01*
G01*
X156337500Y-97275000D01*
G75*
G02*
X156400000Y-97337500I0J-62500D01*
G01*
G37*
G36*
G01*
X155900000Y-97337500D02*
X155900000Y-98212500D01*
G75*
G02*
X155837500Y-98275000I-62500J0D01*
G01*
X155712500Y-98275000D01*
G75*
G02*
X155650000Y-98212500I0J62500D01*
G01*
X155650000Y-97337500D01*
G75*
G02*
X155712500Y-97275000I62500J0D01*
G01*
X155837500Y-97275000D01*
G75*
G02*
X155900000Y-97337500I0J-62500D01*
G01*
G37*
G36*
G01*
X155400000Y-97337500D02*
X155400000Y-98212500D01*
G75*
G02*
X155337500Y-98275000I-62500J0D01*
G01*
X155212500Y-98275000D01*
G75*
G02*
X155150000Y-98212500I0J62500D01*
G01*
X155150000Y-97337500D01*
G75*
G02*
X155212500Y-97275000I62500J0D01*
G01*
X155337500Y-97275000D01*
G75*
G02*
X155400000Y-97337500I0J-62500D01*
G01*
G37*
G36*
G01*
X154900000Y-97337500D02*
X154900000Y-98212500D01*
G75*
G02*
X154837500Y-98275000I-62500J0D01*
G01*
X154712500Y-98275000D01*
G75*
G02*
X154650000Y-98212500I0J62500D01*
G01*
X154650000Y-97337500D01*
G75*
G02*
X154712500Y-97275000I62500J0D01*
G01*
X154837500Y-97275000D01*
G75*
G02*
X154900000Y-97337500I0J-62500D01*
G01*
G37*
G36*
G01*
X154400000Y-97337500D02*
X154400000Y-98212500D01*
G75*
G02*
X154337500Y-98275000I-62500J0D01*
G01*
X154212500Y-98275000D01*
G75*
G02*
X154150000Y-98212500I0J62500D01*
G01*
X154150000Y-97337500D01*
G75*
G02*
X154212500Y-97275000I62500J0D01*
G01*
X154337500Y-97275000D01*
G75*
G02*
X154400000Y-97337500I0J-62500D01*
G01*
G37*
G36*
G01*
X153900000Y-97337500D02*
X153900000Y-98212500D01*
G75*
G02*
X153837500Y-98275000I-62500J0D01*
G01*
X153712500Y-98275000D01*
G75*
G02*
X153650000Y-98212500I0J62500D01*
G01*
X153650000Y-97337500D01*
G75*
G02*
X153712500Y-97275000I62500J0D01*
G01*
X153837500Y-97275000D01*
G75*
G02*
X153900000Y-97337500I0J-62500D01*
G01*
G37*
G36*
G01*
X153500000Y-96937500D02*
X153500000Y-97062500D01*
G75*
G02*
X153437500Y-97125000I-62500J0D01*
G01*
X152562500Y-97125000D01*
G75*
G02*
X152500000Y-97062500I0J62500D01*
G01*
X152500000Y-96937500D01*
G75*
G02*
X152562500Y-96875000I62500J0D01*
G01*
X153437500Y-96875000D01*
G75*
G02*
X153500000Y-96937500I0J-62500D01*
G01*
G37*
G36*
G01*
X153500000Y-96437500D02*
X153500000Y-96562500D01*
G75*
G02*
X153437500Y-96625000I-62500J0D01*
G01*
X152562500Y-96625000D01*
G75*
G02*
X152500000Y-96562500I0J62500D01*
G01*
X152500000Y-96437500D01*
G75*
G02*
X152562500Y-96375000I62500J0D01*
G01*
X153437500Y-96375000D01*
G75*
G02*
X153500000Y-96437500I0J-62500D01*
G01*
G37*
G36*
G01*
X153500000Y-95937500D02*
X153500000Y-96062500D01*
G75*
G02*
X153437500Y-96125000I-62500J0D01*
G01*
X152562500Y-96125000D01*
G75*
G02*
X152500000Y-96062500I0J62500D01*
G01*
X152500000Y-95937500D01*
G75*
G02*
X152562500Y-95875000I62500J0D01*
G01*
X153437500Y-95875000D01*
G75*
G02*
X153500000Y-95937500I0J-62500D01*
G01*
G37*
G36*
G01*
X153500000Y-95437500D02*
X153500000Y-95562500D01*
G75*
G02*
X153437500Y-95625000I-62500J0D01*
G01*
X152562500Y-95625000D01*
G75*
G02*
X152500000Y-95562500I0J62500D01*
G01*
X152500000Y-95437500D01*
G75*
G02*
X152562500Y-95375000I62500J0D01*
G01*
X153437500Y-95375000D01*
G75*
G02*
X153500000Y-95437500I0J-62500D01*
G01*
G37*
G36*
G01*
X153500000Y-94937500D02*
X153500000Y-95062500D01*
G75*
G02*
X153437500Y-95125000I-62500J0D01*
G01*
X152562500Y-95125000D01*
G75*
G02*
X152500000Y-95062500I0J62500D01*
G01*
X152500000Y-94937500D01*
G75*
G02*
X152562500Y-94875000I62500J0D01*
G01*
X153437500Y-94875000D01*
G75*
G02*
X153500000Y-94937500I0J-62500D01*
G01*
G37*
G36*
G01*
X153500000Y-94437500D02*
X153500000Y-94562500D01*
G75*
G02*
X153437500Y-94625000I-62500J0D01*
G01*
X152562500Y-94625000D01*
G75*
G02*
X152500000Y-94562500I0J62500D01*
G01*
X152500000Y-94437500D01*
G75*
G02*
X152562500Y-94375000I62500J0D01*
G01*
X153437500Y-94375000D01*
G75*
G02*
X153500000Y-94437500I0J-62500D01*
G01*
G37*
G36*
G01*
X153500000Y-93937500D02*
X153500000Y-94062500D01*
G75*
G02*
X153437500Y-94125000I-62500J0D01*
G01*
X152562500Y-94125000D01*
G75*
G02*
X152500000Y-94062500I0J62500D01*
G01*
X152500000Y-93937500D01*
G75*
G02*
X152562500Y-93875000I62500J0D01*
G01*
X153437500Y-93875000D01*
G75*
G02*
X153500000Y-93937500I0J-62500D01*
G01*
G37*
G36*
G01*
X153500000Y-93437500D02*
X153500000Y-93562500D01*
G75*
G02*
X153437500Y-93625000I-62500J0D01*
G01*
X152562500Y-93625000D01*
G75*
G02*
X152500000Y-93562500I0J62500D01*
G01*
X152500000Y-93437500D01*
G75*
G02*
X152562500Y-93375000I62500J0D01*
G01*
X153437500Y-93375000D01*
G75*
G02*
X153500000Y-93437500I0J-62500D01*
G01*
G37*
G36*
G01*
X153500000Y-92937500D02*
X153500000Y-93062500D01*
G75*
G02*
X153437500Y-93125000I-62500J0D01*
G01*
X152562500Y-93125000D01*
G75*
G02*
X152500000Y-93062500I0J62500D01*
G01*
X152500000Y-92937500D01*
G75*
G02*
X152562500Y-92875000I62500J0D01*
G01*
X153437500Y-92875000D01*
G75*
G02*
X153500000Y-92937500I0J-62500D01*
G01*
G37*
G36*
G01*
X153500000Y-92437500D02*
X153500000Y-92562500D01*
G75*
G02*
X153437500Y-92625000I-62500J0D01*
G01*
X152562500Y-92625000D01*
G75*
G02*
X152500000Y-92562500I0J62500D01*
G01*
X152500000Y-92437500D01*
G75*
G02*
X152562500Y-92375000I62500J0D01*
G01*
X153437500Y-92375000D01*
G75*
G02*
X153500000Y-92437500I0J-62500D01*
G01*
G37*
G36*
G01*
X153900000Y-91287500D02*
X153900000Y-92162500D01*
G75*
G02*
X153837500Y-92225000I-62500J0D01*
G01*
X153712500Y-92225000D01*
G75*
G02*
X153650000Y-92162500I0J62500D01*
G01*
X153650000Y-91287500D01*
G75*
G02*
X153712500Y-91225000I62500J0D01*
G01*
X153837500Y-91225000D01*
G75*
G02*
X153900000Y-91287500I0J-62500D01*
G01*
G37*
G36*
G01*
X154400000Y-91287500D02*
X154400000Y-92162500D01*
G75*
G02*
X154337500Y-92225000I-62500J0D01*
G01*
X154212500Y-92225000D01*
G75*
G02*
X154150000Y-92162500I0J62500D01*
G01*
X154150000Y-91287500D01*
G75*
G02*
X154212500Y-91225000I62500J0D01*
G01*
X154337500Y-91225000D01*
G75*
G02*
X154400000Y-91287500I0J-62500D01*
G01*
G37*
G36*
G01*
X154900000Y-91287500D02*
X154900000Y-92162500D01*
G75*
G02*
X154837500Y-92225000I-62500J0D01*
G01*
X154712500Y-92225000D01*
G75*
G02*
X154650000Y-92162500I0J62500D01*
G01*
X154650000Y-91287500D01*
G75*
G02*
X154712500Y-91225000I62500J0D01*
G01*
X154837500Y-91225000D01*
G75*
G02*
X154900000Y-91287500I0J-62500D01*
G01*
G37*
G36*
G01*
X155400000Y-91287500D02*
X155400000Y-92162500D01*
G75*
G02*
X155337500Y-92225000I-62500J0D01*
G01*
X155212500Y-92225000D01*
G75*
G02*
X155150000Y-92162500I0J62500D01*
G01*
X155150000Y-91287500D01*
G75*
G02*
X155212500Y-91225000I62500J0D01*
G01*
X155337500Y-91225000D01*
G75*
G02*
X155400000Y-91287500I0J-62500D01*
G01*
G37*
G36*
G01*
X155900000Y-91287500D02*
X155900000Y-92162500D01*
G75*
G02*
X155837500Y-92225000I-62500J0D01*
G01*
X155712500Y-92225000D01*
G75*
G02*
X155650000Y-92162500I0J62500D01*
G01*
X155650000Y-91287500D01*
G75*
G02*
X155712500Y-91225000I62500J0D01*
G01*
X155837500Y-91225000D01*
G75*
G02*
X155900000Y-91287500I0J-62500D01*
G01*
G37*
G36*
G01*
X156400000Y-91287500D02*
X156400000Y-92162500D01*
G75*
G02*
X156337500Y-92225000I-62500J0D01*
G01*
X156212500Y-92225000D01*
G75*
G02*
X156150000Y-92162500I0J62500D01*
G01*
X156150000Y-91287500D01*
G75*
G02*
X156212500Y-91225000I62500J0D01*
G01*
X156337500Y-91225000D01*
G75*
G02*
X156400000Y-91287500I0J-62500D01*
G01*
G37*
G36*
G01*
X156900000Y-91287500D02*
X156900000Y-92162500D01*
G75*
G02*
X156837500Y-92225000I-62500J0D01*
G01*
X156712500Y-92225000D01*
G75*
G02*
X156650000Y-92162500I0J62500D01*
G01*
X156650000Y-91287500D01*
G75*
G02*
X156712500Y-91225000I62500J0D01*
G01*
X156837500Y-91225000D01*
G75*
G02*
X156900000Y-91287500I0J-62500D01*
G01*
G37*
G36*
G01*
X157400000Y-91287500D02*
X157400000Y-92162500D01*
G75*
G02*
X157337500Y-92225000I-62500J0D01*
G01*
X157212500Y-92225000D01*
G75*
G02*
X157150000Y-92162500I0J62500D01*
G01*
X157150000Y-91287500D01*
G75*
G02*
X157212500Y-91225000I62500J0D01*
G01*
X157337500Y-91225000D01*
G75*
G02*
X157400000Y-91287500I0J-62500D01*
G01*
G37*
G36*
G01*
X157900000Y-91287500D02*
X157900000Y-92162500D01*
G75*
G02*
X157837500Y-92225000I-62500J0D01*
G01*
X157712500Y-92225000D01*
G75*
G02*
X157650000Y-92162500I0J62500D01*
G01*
X157650000Y-91287500D01*
G75*
G02*
X157712500Y-91225000I62500J0D01*
G01*
X157837500Y-91225000D01*
G75*
G02*
X157900000Y-91287500I0J-62500D01*
G01*
G37*
G36*
G01*
X158400000Y-91287500D02*
X158400000Y-92162500D01*
G75*
G02*
X158337500Y-92225000I-62500J0D01*
G01*
X158212500Y-92225000D01*
G75*
G02*
X158150000Y-92162500I0J62500D01*
G01*
X158150000Y-91287500D01*
G75*
G02*
X158212500Y-91225000I62500J0D01*
G01*
X158337500Y-91225000D01*
G75*
G02*
X158400000Y-91287500I0J-62500D01*
G01*
G37*
G36*
G01*
X159550000Y-92437500D02*
X159550000Y-92562500D01*
G75*
G02*
X159487500Y-92625000I-62500J0D01*
G01*
X158612500Y-92625000D01*
G75*
G02*
X158550000Y-92562500I0J62500D01*
G01*
X158550000Y-92437500D01*
G75*
G02*
X158612500Y-92375000I62500J0D01*
G01*
X159487500Y-92375000D01*
G75*
G02*
X159550000Y-92437500I0J-62500D01*
G01*
G37*
G36*
G01*
X159550000Y-92937500D02*
X159550000Y-93062500D01*
G75*
G02*
X159487500Y-93125000I-62500J0D01*
G01*
X158612500Y-93125000D01*
G75*
G02*
X158550000Y-93062500I0J62500D01*
G01*
X158550000Y-92937500D01*
G75*
G02*
X158612500Y-92875000I62500J0D01*
G01*
X159487500Y-92875000D01*
G75*
G02*
X159550000Y-92937500I0J-62500D01*
G01*
G37*
G36*
G01*
X159550000Y-93437500D02*
X159550000Y-93562500D01*
G75*
G02*
X159487500Y-93625000I-62500J0D01*
G01*
X158612500Y-93625000D01*
G75*
G02*
X158550000Y-93562500I0J62500D01*
G01*
X158550000Y-93437500D01*
G75*
G02*
X158612500Y-93375000I62500J0D01*
G01*
X159487500Y-93375000D01*
G75*
G02*
X159550000Y-93437500I0J-62500D01*
G01*
G37*
G36*
G01*
X159550000Y-93937500D02*
X159550000Y-94062500D01*
G75*
G02*
X159487500Y-94125000I-62500J0D01*
G01*
X158612500Y-94125000D01*
G75*
G02*
X158550000Y-94062500I0J62500D01*
G01*
X158550000Y-93937500D01*
G75*
G02*
X158612500Y-93875000I62500J0D01*
G01*
X159487500Y-93875000D01*
G75*
G02*
X159550000Y-93937500I0J-62500D01*
G01*
G37*
G36*
G01*
X159550000Y-94437500D02*
X159550000Y-94562500D01*
G75*
G02*
X159487500Y-94625000I-62500J0D01*
G01*
X158612500Y-94625000D01*
G75*
G02*
X158550000Y-94562500I0J62500D01*
G01*
X158550000Y-94437500D01*
G75*
G02*
X158612500Y-94375000I62500J0D01*
G01*
X159487500Y-94375000D01*
G75*
G02*
X159550000Y-94437500I0J-62500D01*
G01*
G37*
G36*
G01*
X159550000Y-94937500D02*
X159550000Y-95062500D01*
G75*
G02*
X159487500Y-95125000I-62500J0D01*
G01*
X158612500Y-95125000D01*
G75*
G02*
X158550000Y-95062500I0J62500D01*
G01*
X158550000Y-94937500D01*
G75*
G02*
X158612500Y-94875000I62500J0D01*
G01*
X159487500Y-94875000D01*
G75*
G02*
X159550000Y-94937500I0J-62500D01*
G01*
G37*
G36*
G01*
X159550000Y-95437500D02*
X159550000Y-95562500D01*
G75*
G02*
X159487500Y-95625000I-62500J0D01*
G01*
X158612500Y-95625000D01*
G75*
G02*
X158550000Y-95562500I0J62500D01*
G01*
X158550000Y-95437500D01*
G75*
G02*
X158612500Y-95375000I62500J0D01*
G01*
X159487500Y-95375000D01*
G75*
G02*
X159550000Y-95437500I0J-62500D01*
G01*
G37*
G36*
G01*
X159550000Y-95937500D02*
X159550000Y-96062500D01*
G75*
G02*
X159487500Y-96125000I-62500J0D01*
G01*
X158612500Y-96125000D01*
G75*
G02*
X158550000Y-96062500I0J62500D01*
G01*
X158550000Y-95937500D01*
G75*
G02*
X158612500Y-95875000I62500J0D01*
G01*
X159487500Y-95875000D01*
G75*
G02*
X159550000Y-95937500I0J-62500D01*
G01*
G37*
G36*
G01*
X159550000Y-96437500D02*
X159550000Y-96562500D01*
G75*
G02*
X159487500Y-96625000I-62500J0D01*
G01*
X158612500Y-96625000D01*
G75*
G02*
X158550000Y-96562500I0J62500D01*
G01*
X158550000Y-96437500D01*
G75*
G02*
X158612500Y-96375000I62500J0D01*
G01*
X159487500Y-96375000D01*
G75*
G02*
X159550000Y-96437500I0J-62500D01*
G01*
G37*
G36*
G01*
X159550000Y-96937500D02*
X159550000Y-97062500D01*
G75*
G02*
X159487500Y-97125000I-62500J0D01*
G01*
X158612500Y-97125000D01*
G75*
G02*
X158550000Y-97062500I0J62500D01*
G01*
X158550000Y-96937500D01*
G75*
G02*
X158612500Y-96875000I62500J0D01*
G01*
X159487500Y-96875000D01*
G75*
G02*
X159550000Y-96937500I0J-62500D01*
G01*
G37*
%TD*%
D18*
%TO.C,D1*%
X138000000Y-96270000D03*
D19*
X138000000Y-93730000D03*
%TD*%
D20*
%TO.C,J1*%
X143000000Y-81730000D03*
D21*
X143000000Y-84270000D03*
%TD*%
D20*
%TO.C,J2*%
X153810000Y-107000000D03*
X151270000Y-107000000D03*
X148730000Y-107000000D03*
D21*
X146190000Y-107000000D03*
%TD*%
D18*
%TO.C,D3*%
X138000000Y-108270000D03*
D19*
X138000000Y-105730000D03*
%TD*%
D22*
%TO.C,J4*%
X151000000Y-96000000D03*
X149000000Y-96000000D03*
X151000000Y-94000000D03*
D23*
X149000000Y-94000000D03*
%TD*%
D18*
%TO.C,D2*%
X138000000Y-102270000D03*
D19*
X138000000Y-99730000D03*
%TD*%
D24*
%TO.C,Y1*%
X157150000Y-87600000D03*
X157150000Y-89200000D03*
X154450000Y-89200000D03*
X154450000Y-87600000D03*
%TD*%
D25*
%TO.C,H2*%
X138000000Y-83000000D03*
%TD*%
%TO.C,H1*%
X162000000Y-107000000D03*
%TD*%
M02*
